<svg width="32" height="32" viewBox="0 0 32 32" fill="none" xmlns="http://www.w3.org/2000/svg">
<path d="M13.3333 22.6669C13.1578 22.6679 12.9838 22.6343 12.8214 22.5679C12.6589 22.5016 12.5112 22.4038 12.3866 22.2802C12.2616 22.1563 12.1624 22.0088 12.0947 21.8463C12.027 21.6839 11.9922 21.5096 11.9922 21.3336C11.9922 21.1576 12.027 20.9833 12.0947 20.8208C12.1624 20.6583 12.2616 20.5109 12.3866 20.3869L16.7866 16.0002L12.3866 11.6136C12.1355 11.3625 11.9945 11.022 11.9945 10.6669C11.9945 10.4911 12.0291 10.317 12.0964 10.1546C12.1637 9.99215 12.2623 9.84457 12.3866 9.72025C12.5109 9.59593 12.6585 9.49732 12.8209 9.43003C12.9833 9.36275 13.1574 9.32812 13.3333 9.32812C13.6883 9.32812 14.0288 9.46918 14.2799 9.72025L19.6133 15.0536C19.7382 15.1775 19.8374 15.325 19.9051 15.4875C19.9728 15.65 20.0077 15.8242 20.0077 16.0002C20.0077 16.1763 19.9728 16.3505 19.9051 16.513C19.8374 16.6755 19.7382 16.823 19.6133 16.9469L14.2799 22.2802C14.1553 22.4038 14.0076 22.5016 13.8451 22.5679C13.6827 22.6343 13.5087 22.6679 13.3333 22.6669Z" fill="#0C5273"/>
</svg>
