<svg width="32" height="32" viewBox="0 0 32 32" fill="none" xmlns="http://www.w3.org/2000/svg">
<path d="M18.6666 22.6669C18.4911 22.6679 18.3172 22.6343 18.1547 22.5679C17.9923 22.5016 17.8445 22.4038 17.7199 22.2802L12.3866 16.9469C12.2616 16.823 12.1624 16.6755 12.0947 16.513C12.027 16.3505 11.9922 16.1763 11.9922 16.0002C11.9922 15.8242 12.027 15.65 12.0947 15.4875C12.1624 15.325 12.2616 15.1775 12.3866 15.0536L17.7199 9.72025C17.8442 9.59593 17.9918 9.49732 18.1543 9.43003C18.3167 9.36275 18.4908 9.32812 18.6666 9.32812C18.8424 9.32812 19.0165 9.36275 19.1789 9.43003C19.3413 9.49732 19.4889 9.59593 19.6133 9.72025C19.7376 9.84457 19.8362 9.99215 19.9035 10.1546C19.9707 10.317 20.0054 10.4911 20.0054 10.6669C20.0054 10.8427 19.9707 11.0168 19.9035 11.1792C19.8362 11.3417 19.7376 11.4893 19.6133 11.6136L15.2133 16.0002L19.6133 20.3869C19.7382 20.5109 19.8374 20.6583 19.9051 20.8208C19.9728 20.9833 20.0077 21.1576 20.0077 21.3336C20.0077 21.5096 19.9728 21.6839 19.9051 21.8463C19.8374 22.0088 19.7382 22.1563 19.6133 22.2802C19.4887 22.4038 19.3409 22.5016 19.1785 22.5679C19.016 22.6343 18.8421 22.6679 18.6666 22.6669Z" fill="#0C5273"/>
</svg>
