<svg width="11" height="17" viewBox="0 0 11 17" fill="none" xmlns="http://www.w3.org/2000/svg">
<path d="M9 17.0002C8.86839 17.0009 8.73793 16.9757 8.61609 16.926C8.49426 16.8762 8.38344 16.8029 8.29 16.7102L1.29 9.71019C1.19627 9.61722 1.12188 9.50662 1.07111 9.38476C1.02034 9.2629 0.994202 9.1322 0.994202 9.00019C0.994202 8.86817 1.02034 8.73747 1.07111 8.61561C1.12188 8.49375 1.19627 8.38315 1.29 8.29019L8.29 1.29019C8.38324 1.19695 8.49393 1.12299 8.61575 1.07253C8.73757 1.02207 8.86814 0.996094 9 0.996094C9.13186 0.996094 9.26243 1.02207 9.38425 1.07253C9.50607 1.12299 9.61676 1.19695 9.71 1.29019C9.80324 1.38342 9.8772 1.49411 9.92766 1.61594C9.97812 1.73776 10.0041 1.86833 10.0041 2.00019C10.0041 2.13204 9.97812 2.26261 9.92766 2.38443C9.8772 2.50626 9.80324 2.61695 9.71 2.71019L3.41 9.00019L9.71 15.2902C9.80373 15.3831 9.87812 15.4937 9.92889 15.6156C9.97966 15.7375 10.0058 15.8682 10.0058 16.0002C10.0058 16.1322 9.97966 16.2629 9.92889 16.3848C9.87812 16.5066 9.80373 16.6172 9.71 16.7102C9.61656 16.8029 9.50574 16.8762 9.38391 16.926C9.26207 16.9757 9.13161 17.0009 9 17.0002Z" fill="white"/>
</svg>
