<svg width="20" height="19" viewBox="0 0 20 19" fill="none" xmlns="http://www.w3.org/2000/svg">
<path d="M6.5 16C6.20333 16 5.91332 16.088 5.66664 16.2528C5.41997 16.4176 5.22771 16.6519 5.11418 16.926C5.00065 17.2001 4.97094 17.5017 5.02882 17.7927C5.0867 18.0836 5.22956 18.3509 5.43934 18.5607C5.64912 18.7705 5.91639 18.9133 6.20736 18.9712C6.49834 19.0291 6.79994 18.9994 7.07403 18.8858C7.34811 18.7723 7.58238 18.58 7.7472 18.3334C7.91203 18.0867 8 17.7967 8 17.5C8 17.1022 7.84196 16.7207 7.56066 16.4394C7.27936 16.1581 6.89782 16 6.5 16ZM15.5 16C15.2033 16 14.9133 16.088 14.6666 16.2528C14.42 16.4176 14.2277 16.6519 14.1142 16.926C14.0007 17.2001 13.9709 17.5017 14.0288 17.7927C14.0867 18.0836 14.2296 18.3509 14.4393 18.5607C14.6491 18.7705 14.9164 18.9133 15.2074 18.9712C15.4983 19.0291 15.7999 18.9994 16.074 18.8858C16.3481 18.7723 16.5824 18.58 16.7472 18.3334C16.912 18.0867 17 17.7967 17 17.5C17 17.1022 16.842 16.7207 16.5607 16.4394C16.2794 16.1581 15.8978 16 15.5 16ZM19.62 3.83002C19.4349 3.57338 19.1915 3.36433 18.9099 3.22004C18.6283 3.07575 18.3164 3.00035 18 3.00002H4.58L4.17 1.48002C4.05525 1.05384 3.80275 0.677588 3.45185 0.409889C3.10095 0.142191 2.67135 -0.00191774 2.23 1.92748e-05H1C0.734784 1.92748e-05 0.48043 0.105376 0.292893 0.292912C0.105357 0.480449 0 0.734803 0 1.00002C0 1.26524 0.105357 1.51959 0.292893 1.70713C0.48043 1.89466 0.734784 2.00002 1 2.00002H2.23L5.06 12.48C5.1672 12.9136 5.41646 13.2989 5.76805 13.5743C6.11965 13.8498 6.55334 13.9997 7 14H15.67C16.0888 13.9983 16.4965 13.8652 16.8356 13.6194C17.1747 13.3736 17.4281 13.0275 17.56 12.63L19.9 5.63002C19.9992 5.32925 20.0255 5.00923 19.9768 4.69629C19.9282 4.38335 19.8059 4.08645 19.62 3.83002V3.83002Z" fill="white"/>
</svg>
