<svg width="19" height="16" viewBox="0 0 19 16" fill="none" xmlns="http://www.w3.org/2000/svg">
<path d="M9 2H18C18.2652 2 18.5196 1.89464 18.7071 1.70711C18.8946 1.51957 19 1.26522 19 1C19 0.734784 18.8946 0.48043 18.7071 0.292893C18.5196 0.105357 18.2652 0 18 0H9C8.73478 0 8.48043 0.105357 8.29289 0.292893C8.10536 0.48043 8 0.734784 8 1C8 1.26522 8.10536 1.51957 8.29289 1.70711C8.48043 1.89464 8.73478 2 9 2ZM4 0H2C1.46957 0 0.960859 0.210714 0.585786 0.585786C0.210714 0.960859 0 1.46957 0 2V4C0 4.53043 0.210714 5.03914 0.585786 5.41421C0.960859 5.78929 1.46957 6 2 6H4C4.53043 6 5.03914 5.78929 5.41421 5.41421C5.78929 5.03914 6 4.53043 6 4V2C6 1.46957 5.78929 0.960859 5.41421 0.585786C5.03914 0.210714 4.53043 0 4 0ZM4 10H2C1.46957 10 0.960859 10.2107 0.585786 10.5858C0.210714 10.9609 0 11.4696 0 12V14C0 14.5304 0.210714 15.0391 0.585786 15.4142C0.960859 15.7893 1.46957 16 2 16H4C4.53043 16 5.03914 15.7893 5.41421 15.4142C5.78929 15.0391 6 14.5304 6 14V12C6 11.4696 5.78929 10.9609 5.41421 10.5858C5.03914 10.2107 4.53043 10 4 10ZM18 4H9C8.73478 4 8.48043 4.10536 8.29289 4.29289C8.10536 4.48043 8 4.73478 8 5C8 5.26522 8.10536 5.51957 8.29289 5.70711C8.48043 5.89464 8.73478 6 9 6H18C18.2652 6 18.5196 5.89464 18.7071 5.70711C18.8946 5.51957 19 5.26522 19 5C19 4.73478 18.8946 4.48043 18.7071 4.29289C18.5196 4.10536 18.2652 4 18 4ZM18 10H9C8.73478 10 8.48043 10.1054 8.29289 10.2929C8.10536 10.4804 8 10.7348 8 11C8 11.2652 8.10536 11.5196 8.29289 11.7071C8.48043 11.8946 8.73478 12 9 12H18C18.2652 12 18.5196 11.8946 18.7071 11.7071C18.8946 11.5196 19 11.2652 19 11C19 10.7348 18.8946 10.4804 18.7071 10.2929C18.5196 10.1054 18.2652 10 18 10ZM18 14H9C8.73478 14 8.48043 14.1054 8.29289 14.2929C8.10536 14.4804 8 14.7348 8 15C8 15.2652 8.10536 15.5196 8.29289 15.7071C8.48043 15.8946 8.73478 16 9 16H18C18.2652 16 18.5196 15.8946 18.7071 15.7071C18.8946 15.5196 19 15.2652 19 15C19 14.7348 18.8946 14.4804 18.7071 14.2929C18.5196 14.1054 18.2652 14 18 14Z" fill="black" fill-opacity="0.65"/>
</svg>
