<svg width="19" height="17" viewBox="0 0 19 17" fill="none" xmlns="http://www.w3.org/2000/svg">
<path d="M12.6006 0.000153776C11.2648 0.0416684 9.98795 0.559516 9.0006 1.46015C8.01325 0.559516 6.73637 0.0416684 5.4006 0.000153776C4.68657 -0.00525478 3.97866 0.132059 3.31844 0.404031C2.65822 0.676003 2.05899 1.07715 1.55595 1.58392C1.05291 2.09069 0.656192 2.69286 0.389099 3.35507C0.122007 4.01728 -0.0100785 4.72619 0.000599392 5.44015C0.000599392 8.81015 2.6306 11.8702 7.1606 16.0002L7.6506 16.4502C8.01929 16.7875 8.50089 16.9745 9.0006 16.9745C9.50031 16.9745 9.98191 16.7875 10.3506 16.4502L10.8406 16.0102C15.3706 11.8602 18.0006 8.80015 18.0006 5.44015C18.0113 4.72619 17.8792 4.01728 17.6121 3.35507C17.345 2.69286 16.9483 2.09069 16.4452 1.58392C15.9422 1.07715 15.343 0.676003 14.6828 0.404031C14.0225 0.132059 13.3146 -0.00525478 12.6006 0.000153776Z" fill="white"/>
</svg>
