<svg width="21" height="20" viewBox="0 0 21 20" fill="none" xmlns="http://www.w3.org/2000/svg">
<path d="M20.3046 7.31017L12.6846 0.700168C12.1734 0.250182 11.5157 0.00195312 10.8346 0.00195312C10.1535 0.00195312 9.49583 0.250182 8.9846 0.700168L1.3646 7.31017C1.13207 7.5094 0.964673 7.77382 0.884056 8.06922C0.803439 8.36462 0.813314 8.67742 0.912404 8.96715C1.01149 9.25688 1.19524 9.51021 1.43987 9.69437C1.6845 9.87854 1.97877 9.98506 2.2846 10.0002H2.8346V17.0002C2.8346 17.7958 3.15067 18.5589 3.71328 19.1215C4.27589 19.6841 5.03895 20.0002 5.8346 20.0002H8.8346V14.0002H12.8346V20.0002H15.8346C16.6303 20.0002 17.3933 19.6841 17.9559 19.1215C18.5185 18.5589 18.8346 17.7958 18.8346 17.0002V10.0002H19.3846C19.6904 9.98506 19.9847 9.87854 20.2293 9.69437C20.474 9.51021 20.6577 9.25688 20.7568 8.96715C20.8559 8.67742 20.8658 8.36462 20.7851 8.06922C20.7045 7.77382 20.5371 7.5094 20.3046 7.31017Z" fill="black" fill-opacity="0.65"/>
</svg>
