<svg width="120" height="40" viewBox="0 0 120 40" fill="none" xmlns="http://www.w3.org/2000/svg">
<g clip-path="url(#clip0_22267_156838)">
<path d="M110.228 0.00013H9.6277C9.261 0.00013 8.8987 0.00013 8.53297 0.00213C8.22682 0.00413 7.92311 0.00994 7.61402 0.01483C6.94253 0.0227318 6.27262 0.0818063 5.61012 0.19154C4.94854 0.303663 4.30769 0.515046 3.70924 0.81854C3.11152 1.1246 2.56536 1.5223 2.09059 1.9972C1.61332 2.47077 1.21548 3.01815 0.912368 3.61829C0.608418 4.21724 0.397658 4.85907 0.287368 5.52161C0.176029 6.18332 0.116116 6.85265 0.108168 7.52361C0.0988876 7.83021 0.0979076 8.13783 0.0930176 8.44447V31.5587C0.0979076 31.8692 0.0988876 32.17 0.108168 32.4806C0.116118 33.1516 0.176031 33.8209 0.287368 34.4825C0.397354 35.1455 0.608126 35.7877 0.912368 36.3868C1.21534 36.985 1.61324 37.5302 2.09059 38.0011C2.56356 38.4781 3.11007 38.8761 3.70924 39.1798C4.30769 39.4841 4.94847 39.6968 5.61012 39.8106C6.27274 39.9195 6.94257 39.9786 7.61402 39.9874C7.92311 39.9942 8.22682 39.9981 8.53297 39.9981C8.89869 40.0001 9.26102 40.0001 9.6277 40.0001H110.228C110.587 40.0001 110.952 40.0001 111.312 39.9981C111.616 39.9981 111.929 39.9942 112.234 39.9874C112.904 39.9791 113.572 39.92 114.234 39.8106C114.897 39.696 115.541 39.4834 116.142 39.1798C116.741 38.8759 117.287 38.478 117.759 38.0011C118.235 37.5284 118.634 36.9836 118.941 36.3868C119.243 35.7872 119.451 35.1451 119.56 34.4825C119.671 33.8208 119.733 33.1516 119.745 32.4806C119.749 32.17 119.749 31.8692 119.749 31.5587C119.757 31.1954 119.757 30.8341 119.757 30.4649V9.53626C119.757 9.17005 119.757 8.80677 119.749 8.44447C119.749 8.13783 119.749 7.83021 119.745 7.52357C119.733 6.85255 119.671 6.18337 119.56 5.52157C119.451 4.85941 119.242 4.21763 118.941 3.61825C118.323 2.41533 117.345 1.43616 116.142 0.81845C115.541 0.515697 114.897 0.30437 114.234 0.19145C113.573 0.0812328 112.904 0.0221378 112.234 0.01469C111.929 0.00981 111.616 0.00395 111.312 0.002C110.952 0 110.587 0 110.228 0V0.00013Z" fill="#A6A6A6"/>
<path d="M8.53785 39.125C8.23317 39.125 7.93585 39.1211 7.63356 39.1143C7.00735 39.1061 6.38259 39.0516 5.76442 38.9512C5.18801 38.8519 4.62963 38.6673 4.10768 38.4033C3.59053 38.1415 3.11884 37.7983 2.71068 37.3867C2.29662 36.98 1.9519 36.5082 1.69017 35.9902C1.42556 35.4688 1.24244 34.9099 1.14717 34.333C1.0443 33.7131 0.988638 33.0863 0.980674 32.458C0.974334 32.2471 0.966034 31.5449 0.966034 31.5449V8.44434C0.966034 8.44434 0.974874 7.75293 0.980724 7.5498C0.98835 6.92248 1.04369 6.29665 1.14625 5.67773C1.24169 5.09925 1.42496 4.53875 1.68971 4.01563C1.95048 3.49794 2.29329 3.02586 2.70485 2.61768C3.11596 2.20562 3.58916 1.8606 4.10719 1.59521C4.62794 1.33209 5.18527 1.14873 5.76051 1.05127C6.38071 0.949836 7.00763 0.894996 7.63602 0.88721L8.53834 0.875H111.307L112.22 0.8877C112.843 0.895099 113.464 0.94945 114.078 1.05029C114.659 1.14898 115.223 1.33362 115.749 1.59814C116.787 2.13299 117.632 2.97916 118.164 4.01807C118.425 4.53758 118.605 5.09351 118.699 5.66699C118.803 6.29099 118.861 6.92174 118.873 7.5542C118.876 7.8374 118.876 8.1416 118.876 8.44434C118.884 8.81934 118.884 9.17627 118.884 9.53613V30.4648C118.884 30.8281 118.884 31.1826 118.876 31.54C118.876 31.8652 118.876 32.1631 118.872 32.4697C118.861 33.0909 118.804 33.7104 118.701 34.3232C118.608 34.9043 118.426 35.4675 118.161 35.9932C117.898 36.5056 117.555 36.9733 117.146 37.3789C116.737 37.7927 116.265 38.1379 115.746 38.4014C115.221 38.6674 114.659 38.8527 114.078 38.9512C113.46 39.0522 112.835 39.1067 112.209 39.1143C111.916 39.1211 111.61 39.125 111.312 39.125L110.228 39.127L8.53785 39.125Z" fill="black"/>
<path d="M24.8619 20.3008C24.8727 19.4662 25.0944 18.6478 25.5064 17.9218C25.9184 17.1959 26.5074 16.5859 27.2185 16.1488C26.7667 15.5036 26.1708 14.9727 25.478 14.5981C24.7851 14.2236 24.0145 14.0157 23.2273 13.9911C21.5481 13.8148 19.9201 14.9959 19.0644 14.9959C18.1921 14.9959 16.8746 14.0086 15.4559 14.0378C14.5382 14.0674 13.6439 14.3343 12.86 14.8123C12.0761 15.2904 11.4295 15.9633 10.983 16.7656C9.04898 20.1141 10.4916 25.0351 12.3442 27.7417C13.2711 29.0671 14.3544 30.5475 15.7718 30.495C17.1589 30.4375 17.6769 29.6105 19.3512 29.6105C21.01 29.6105 21.496 30.495 22.9422 30.4616C24.4306 30.4375 25.3683 29.1304 26.2627 27.7925C26.9287 26.8481 27.4412 25.8044 27.7811 24.7C26.9164 24.3343 26.1785 23.7221 25.6594 22.9398C25.1403 22.1575 24.8629 21.2397 24.8619 20.3008Z" fill="white"/>
<path d="M22.1303 12.2108C22.9418 11.2366 23.3416 9.98445 23.2448 8.72021C22.005 8.85044 20.8597 9.44299 20.0372 10.3798C19.6351 10.8375 19.3271 11.3699 19.1308 11.9467C18.9346 12.5235 18.8539 13.1333 18.8935 13.7412C19.5136 13.7476 20.1271 13.6132 20.6878 13.3481C21.2485 13.083 21.7417 12.6942 22.1303 12.2108Z" fill="white"/>
<path d="M42.3953 27.1397H37.6619L36.5252 30.4961H34.5203L39.0037 18.0781H41.0867L45.5701 30.4961H43.531L42.3953 27.1397ZM38.1521 25.5908H41.9041L40.0545 20.1436H40.0028L38.1521 25.5908Z" fill="white"/>
<path d="M55.2527 25.9699C55.2527 28.7834 53.7469 30.591 51.4744 30.591C50.8987 30.6211 50.3262 30.4885 49.8224 30.2084C49.3187 29.9283 48.9039 29.5119 48.6258 29.007H48.5828V33.4914H46.7244V21.4426H48.5232V22.9485H48.5574C48.8484 22.446 49.2701 22.0318 49.7777 21.7499C50.2853 21.4681 50.8599 21.3291 51.4402 21.3479C53.738 21.3479 55.2527 23.1643 55.2527 25.9699ZM53.3426 25.9699C53.3426 24.1369 52.3953 22.9319 50.95 22.9319C49.5301 22.9319 48.575 24.1623 48.575 25.9699C48.575 27.7942 49.5301 29.0158 50.95 29.0158C52.3953 29.0158 53.3426 27.8196 53.3426 25.9699Z" fill="white"/>
<path d="M65.2176 25.9699C65.2176 28.7834 63.7117 30.591 61.4392 30.591C60.8636 30.6211 60.2911 30.4885 59.7873 30.2084C59.2835 29.9283 58.8688 29.5119 58.5906 29.007H58.5476V33.4914H56.6892V21.4426H58.488V22.9484H58.5222C58.8132 22.446 59.2349 22.0318 59.7425 21.7499C60.2502 21.4681 60.8247 21.3291 61.405 21.3479C63.7029 21.3479 65.2176 23.1643 65.2176 25.9699ZM63.3074 25.9699C63.3074 24.1369 62.3601 22.9318 60.9148 22.9318C59.4949 22.9318 58.5398 24.1623 58.5398 25.9699C58.5398 27.7942 59.4949 29.0158 60.9148 29.0158C62.3601 29.0158 63.3074 27.8195 63.3074 25.9699H63.3074Z" fill="white"/>
<path d="M71.8035 27.0362C71.9412 28.2676 73.1375 29.0762 74.7722 29.0762C76.3387 29.0762 77.4656 28.2676 77.4656 27.1572C77.4656 26.1934 76.7859 25.6162 75.1765 25.2207L73.5672 24.833C71.2869 24.2822 70.2283 23.2158 70.2283 21.4854C70.2283 19.3428 72.0955 17.8711 74.7469 17.8711C77.3709 17.8711 79.1697 19.3428 79.2303 21.4854H77.3543C77.242 20.2461 76.2175 19.4981 74.7205 19.4981C73.2234 19.4981 72.199 20.2549 72.199 21.3565C72.199 22.2344 72.8533 22.751 74.4539 23.1465L75.822 23.4824C78.3699 24.0849 79.4285 25.1084 79.4285 26.9248C79.4285 29.248 77.5779 30.7031 74.6345 30.7031C71.8806 30.7031 70.0212 29.2822 69.9011 27.0361L71.8035 27.0362Z" fill="white"/>
<path d="M83.4392 19.2998V21.4424H85.1609V22.9141H83.4392V27.9053C83.4392 28.6807 83.784 29.042 84.5408 29.042C84.7452 29.0384 84.9492 29.0241 85.1521 28.999V30.4619C84.8119 30.5255 84.466 30.5543 84.1199 30.5478C82.2869 30.5478 81.572 29.8593 81.572 28.1035V22.9141H80.2556V21.4424H81.572V19.2998H83.4392Z" fill="white"/>
<path d="M86.158 25.9697C86.158 23.1211 87.8357 21.3311 90.452 21.3311C93.077 21.3311 94.7469 23.1211 94.7469 25.9697C94.7469 28.8262 93.0858 30.6084 90.452 30.6084C87.8191 30.6084 86.158 28.8262 86.158 25.9697ZM92.8533 25.9697C92.8533 24.0156 91.9578 22.8623 90.452 22.8623C88.9461 22.8623 88.0516 24.0244 88.0516 25.9697C88.0516 27.9316 88.9461 29.0762 90.452 29.0762C91.9578 29.0762 92.8533 27.9316 92.8533 25.9697H92.8533Z" fill="white"/>
<path d="M96.2791 21.4425H98.0516V22.9835H98.0946C98.2145 22.5022 98.4964 22.0769 98.893 21.779C99.2896 21.4811 99.7766 21.3288 100.272 21.3478C100.486 21.347 100.7 21.3703 100.909 21.4171V23.1554C100.639 23.0728 100.357 23.0348 100.074 23.0431C99.804 23.0321 99.5349 23.0797 99.285 23.1826C99.0352 23.2855 98.8106 23.4412 98.6266 23.6391C98.4426 23.837 98.3037 24.0724 98.2192 24.3291C98.1348 24.5857 98.1069 24.8576 98.1375 25.1261V30.4962H96.2791L96.2791 21.4425Z" fill="white"/>
<path d="M109.477 27.8369C109.227 29.4805 107.627 30.6084 105.579 30.6084C102.945 30.6084 101.31 28.8437 101.31 26.0127C101.31 23.1729 102.954 21.3311 105.501 21.3311C108.006 21.3311 109.581 23.0518 109.581 25.7969V26.4336H103.186V26.5459C103.157 26.8791 103.199 27.2148 103.309 27.5306C103.419 27.8464 103.595 28.1352 103.825 28.3778C104.056 28.6203 104.335 28.8111 104.645 28.9374C104.955 29.0637 105.288 29.1226 105.622 29.1103C106.061 29.1515 106.502 29.0498 106.878 28.8203C107.255 28.5909 107.548 28.246 107.713 27.8369L109.477 27.8369ZM103.195 25.1348H107.721C107.738 24.8352 107.693 24.5354 107.588 24.2541C107.483 23.9729 107.322 23.7164 107.113 23.5006C106.905 23.2849 106.654 23.1145 106.376 23.0003C106.099 22.8861 105.801 22.8305 105.501 22.8369C105.198 22.8351 104.898 22.8933 104.618 23.008C104.338 23.1227 104.084 23.2918 103.869 23.5054C103.655 23.7191 103.485 23.973 103.369 24.2527C103.253 24.5323 103.194 24.8321 103.195 25.1348V25.1348Z" fill="white"/>
<path d="M37.9192 8.73089C38.3088 8.70293 38.6998 8.76179 39.0639 8.90323C39.428 9.04466 39.7562 9.26514 40.0248 9.54876C40.2934 9.83239 40.4957 10.1721 40.6171 10.5434C40.7385 10.9146 40.776 11.3082 40.7268 11.6957C40.7268 13.602 39.6966 14.6977 37.9192 14.6977H35.7639V8.73089H37.9192ZM36.6907 13.8539H37.8157C38.0941 13.8705 38.3727 13.8249 38.6313 13.7203C38.8898 13.6157 39.1218 13.4547 39.3102 13.2491C39.4987 13.0436 39.639 12.7986 39.7209 12.532C39.8027 12.2653 39.8241 11.9838 39.7835 11.7079C39.8212 11.4331 39.7976 11.1533 39.7145 10.8886C39.6314 10.624 39.4908 10.381 39.3027 10.177C39.1146 9.9731 38.8838 9.81329 38.6267 9.70905C38.3696 9.60481 38.0927 9.55873 37.8157 9.5741H36.6907V13.8539Z" fill="white"/>
<path d="M41.7737 12.4443C41.7454 12.1484 41.7792 11.8498 41.8731 11.5677C41.9669 11.2857 42.1187 11.0263 42.3186 10.8063C42.5186 10.5864 42.7623 10.4106 43.0341 10.2903C43.306 10.17 43.6 10.1079 43.8972 10.1079C44.1945 10.1079 44.4885 10.17 44.7603 10.2903C45.0322 10.4106 45.2759 10.5864 45.4759 10.8063C45.6758 11.0263 45.8276 11.2857 45.9214 11.5677C46.0152 11.8498 46.0491 12.1484 46.0208 12.4443C46.0496 12.7405 46.0162 13.0395 45.9226 13.322C45.829 13.6045 45.6773 13.8644 45.4773 14.0848C45.2773 14.3052 45.0334 14.4813 44.7613 14.6019C44.4892 14.7224 44.1949 14.7847 43.8972 14.7847C43.5996 14.7847 43.3053 14.7224 43.0332 14.6019C42.761 14.4813 42.5171 14.3052 42.3171 14.0848C42.1172 13.8644 41.9655 13.6045 41.8719 13.322C41.7783 13.0395 41.7449 12.7405 41.7737 12.4443ZM45.1067 12.4443C45.1067 11.4682 44.6682 10.8974 43.8987 10.8974C43.1262 10.8974 42.6917 11.4682 42.6917 12.4443C42.6917 13.4282 43.1263 13.9946 43.8987 13.9946C44.6682 13.9946 45.1067 13.4243 45.1067 12.4443H45.1067Z" fill="white"/>
<path d="M51.6663 14.6978H50.7444L49.8138 11.3813H49.7434L48.8167 14.6978H47.9036L46.6624 10.1948H47.5638L48.3704 13.6308H48.4368L49.3626 10.1948H50.2151L51.1409 13.6308H51.2112L52.0139 10.1948H52.9026L51.6663 14.6978Z" fill="white"/>
<path d="M53.9466 10.1949H54.802V10.9102H54.8684C54.9811 10.6533 55.1711 10.4379 55.412 10.2941C55.6528 10.1503 55.9326 10.0852 56.2122 10.1079C56.4313 10.0915 56.6513 10.1245 56.8559 10.2046C57.0605 10.2847 57.2444 10.4098 57.3941 10.5707C57.5438 10.7315 57.6554 10.924 57.7206 11.1338C57.7858 11.3436 57.8029 11.5654 57.7708 11.7827V14.6977H56.8821V12.0059C56.8821 11.2823 56.5677 10.9224 55.9104 10.9224C55.7617 10.9155 55.6132 10.9408 55.4751 10.9966C55.3371 11.0525 55.2127 11.1375 55.1106 11.2459C55.0085 11.3543 54.931 11.4834 54.8835 11.6246C54.8359 11.7657 54.8195 11.9154 54.8352 12.0635V14.6978H53.9466L53.9466 10.1949Z" fill="white"/>
<path d="M59.1868 8.43701H60.0755V14.6978H59.1868V8.43701Z" fill="white"/>
<path d="M61.3108 12.4444C61.2825 12.1484 61.3164 11.8499 61.4103 11.5678C61.5041 11.2857 61.6559 11.0263 61.8559 10.8064C62.0558 10.5864 62.2996 10.4106 62.5714 10.2903C62.8433 10.17 63.1373 10.1079 63.4346 10.1079C63.7319 10.1079 64.0259 10.17 64.2978 10.2903C64.5696 10.4106 64.8134 10.5864 65.0133 10.8064C65.2133 11.0263 65.3651 11.2857 65.4589 11.5678C65.5528 11.8499 65.5867 12.1484 65.5584 12.4444C65.5872 12.7406 65.5537 13.0396 65.4601 13.3221C65.3665 13.6046 65.2148 13.8645 65.0148 14.0849C64.8147 14.3053 64.5708 14.4814 64.2987 14.6019C64.0266 14.7225 63.7322 14.7847 63.4346 14.7847C63.137 14.7847 62.8426 14.7225 62.5705 14.6019C62.2984 14.4814 62.0544 14.3053 61.8544 14.0849C61.6544 13.8645 61.5027 13.6046 61.4091 13.3221C61.3155 13.0396 61.282 12.7406 61.3108 12.4444ZM64.6438 12.4444C64.6438 11.4683 64.2053 10.8975 63.4358 10.8975C62.6634 10.8975 62.2288 11.4683 62.2288 12.4444C62.2288 13.4283 62.6634 13.9947 63.4358 13.9947C64.2053 13.9947 64.6438 13.4244 64.6438 12.4444H64.6438Z" fill="white"/>
<path d="M66.4939 13.4243C66.4939 12.6138 67.0974 12.1465 68.1687 12.0801L69.3885 12.0098V11.6211C69.3885 11.1455 69.074 10.877 68.4666 10.877C67.9705 10.877 67.6267 11.0591 67.5281 11.3774H66.6678C66.7586 10.604 67.4861 10.1079 68.5076 10.1079C69.6365 10.1079 70.2732 10.6699 70.2732 11.6211V14.6978H69.4178V14.0649H69.3474C69.2047 14.2919 69.0043 14.477 68.7667 14.6012C68.5291 14.7254 68.2627 14.7843 67.9949 14.7719C67.8059 14.7916 67.6148 14.7714 67.4341 14.7127C67.2533 14.654 67.0868 14.5581 66.9454 14.4311C66.804 14.3042 66.6908 14.149 66.613 13.9756C66.5352 13.8021 66.4947 13.6144 66.4939 13.4243ZM69.3885 13.0395V12.6631L68.2888 12.7334C67.6687 12.7749 67.3875 12.9858 67.3875 13.3828C67.3875 13.7881 67.739 14.0239 68.2225 14.0239C68.3641 14.0382 68.5072 14.0239 68.6432 13.9819C68.7792 13.9398 68.9054 13.8707 69.0141 13.7789C69.1229 13.6871 69.2121 13.5743 69.2764 13.4473C69.3407 13.3202 69.3788 13.1816 69.3885 13.0395Z" fill="white"/>
<path d="M71.4412 12.4444C71.4412 11.0215 72.1726 10.1201 73.3103 10.1201C73.5917 10.1072 73.871 10.1746 74.1156 10.3145C74.3601 10.4544 74.5597 10.661 74.6912 10.9101H74.7576V8.43701H75.6463V14.6978H74.7947V13.9863H74.7244C74.5828 14.2338 74.3762 14.4378 74.1269 14.5763C73.8777 14.7148 73.5953 14.7825 73.3103 14.772C72.1648 14.772 71.4412 13.8706 71.4412 12.4444ZM72.3592 12.4444C72.3592 13.3994 72.8094 13.9741 73.5623 13.9741C74.3113 13.9741 74.7742 13.3911 74.7742 12.4483C74.7742 11.5098 74.3065 10.9185 73.5623 10.9185C72.8142 10.9185 72.3592 11.4971 72.3592 12.4444H72.3592Z" fill="white"/>
<path d="M79.323 12.4443C79.2947 12.1484 79.3286 11.8498 79.4224 11.5677C79.5163 11.2857 79.668 11.0263 79.868 10.8063C80.0679 10.5864 80.3116 10.4106 80.5835 10.2903C80.8553 10.17 81.1493 10.1079 81.4466 10.1079C81.7438 10.1079 82.0378 10.17 82.3097 10.2903C82.5815 10.4106 82.8252 10.5864 83.0252 10.8063C83.2251 11.0263 83.3769 11.2857 83.4707 11.5677C83.5646 11.8498 83.5984 12.1484 83.5701 12.4443C83.599 12.7405 83.5655 13.0395 83.4719 13.322C83.3783 13.6045 83.2266 13.8644 83.0267 14.0848C82.8267 14.3052 82.5828 14.4813 82.3106 14.6019C82.0385 14.7224 81.7442 14.7847 81.4466 14.7847C81.1489 14.7847 80.8546 14.7224 80.5825 14.6019C80.3104 14.4813 80.0665 14.3052 79.8665 14.0848C79.6665 13.8644 79.5148 13.6045 79.4212 13.322C79.3276 13.0395 79.2942 12.7405 79.323 12.4443ZM82.656 12.4443C82.656 11.4682 82.2176 10.8974 81.448 10.8974C80.6756 10.8974 80.241 11.4682 80.241 12.4443C80.241 13.4282 80.6756 13.9946 81.448 13.9946C82.2176 13.9946 82.656 13.4243 82.656 12.4443Z" fill="white"/>
<path d="M84.7625 10.1949H85.618V10.9102H85.6844C85.797 10.6533 85.987 10.4379 86.2279 10.2941C86.4688 10.1503 86.7485 10.0852 87.0281 10.1079C87.2472 10.0915 87.4672 10.1245 87.6718 10.2046C87.8764 10.2847 88.0604 10.4098 88.21 10.5707C88.3597 10.7315 88.4713 10.924 88.5365 11.1338C88.6017 11.3436 88.6189 11.5654 88.5867 11.7827V14.6977H87.698V12.0059C87.698 11.2823 87.3836 10.9224 86.7264 10.9224C86.5776 10.9155 86.4291 10.9408 86.291 10.9966C86.153 11.0525 86.0286 11.1375 85.9265 11.2459C85.8244 11.3543 85.7469 11.4834 85.6994 11.6246C85.6518 11.7657 85.6354 11.9154 85.6512 12.0635V14.6978H84.7625V10.1949Z" fill="white"/>
<path d="M93.6082 9.07373V10.2153H94.5838V10.9639H93.6082V13.2793C93.6082 13.751 93.8025 13.9575 94.2449 13.9575C94.3582 13.9572 94.4713 13.9503 94.5838 13.937V14.6772C94.4242 14.7058 94.2625 14.721 94.1004 14.7226C93.1121 14.7226 92.7185 14.375 92.7185 13.5068V10.9638H92.0037V10.2153H92.7185V9.07373H93.6082Z" fill="white"/>
<path d="M95.7976 8.43701H96.6785V10.9185H96.7488C96.8669 10.6591 97.0622 10.4425 97.3079 10.2982C97.5536 10.1539 97.8378 10.0888 98.1218 10.1118C98.3398 10.1 98.5577 10.1364 98.7599 10.2184C98.9622 10.3004 99.1439 10.4261 99.292 10.5864C99.4401 10.7468 99.551 10.9378 99.6168 11.146C99.6826 11.3541 99.7016 11.5742 99.6726 11.7905V14.6978H98.783V12.0098C98.783 11.2905 98.448 10.9263 97.8201 10.9263C97.6674 10.9137 97.5138 10.9347 97.37 10.9878C97.2262 11.0408 97.0958 11.1247 96.9878 11.2334C96.8798 11.3421 96.7968 11.4732 96.7448 11.6173C96.6927 11.7614 96.6728 11.9152 96.6863 12.0679V14.6977H95.7977L95.7976 8.43701Z" fill="white"/>
<path d="M104.854 13.482C104.734 13.8935 104.472 14.2495 104.115 14.4877C103.759 14.7258 103.329 14.831 102.903 14.7847C102.606 14.7926 102.312 14.7357 102.039 14.6182C101.767 14.5007 101.523 14.3253 101.325 14.1041C101.127 13.883 100.98 13.6214 100.893 13.3376C100.806 13.0538 100.782 12.7545 100.823 12.4605C100.784 12.1656 100.808 11.8657 100.894 11.581C100.981 11.2964 101.127 11.0336 101.324 10.8105C101.521 10.5874 101.764 10.4093 102.035 10.2881C102.307 10.1669 102.602 10.1054 102.899 10.108C104.152 10.108 104.908 10.964 104.908 12.378V12.6881H101.728V12.7379C101.714 12.9031 101.735 13.0695 101.789 13.2262C101.843 13.383 101.93 13.5267 102.043 13.6481C102.156 13.7696 102.293 13.8661 102.445 13.9315C102.597 13.9969 102.762 14.0297 102.928 14.0279C103.14 14.0534 103.355 14.0151 103.546 13.9179C103.737 13.8207 103.895 13.669 103.999 13.482L104.854 13.482ZM101.728 12.0308H104.003C104.014 11.8797 103.993 11.7279 103.942 11.5852C103.891 11.4425 103.811 11.312 103.707 11.2021C103.602 11.0923 103.476 11.0055 103.336 10.9473C103.196 10.8891 103.046 10.8609 102.894 10.8643C102.741 10.8624 102.588 10.8913 102.446 10.9492C102.303 11.0072 102.174 11.093 102.065 11.2017C101.957 11.3104 101.871 11.4398 101.813 11.5822C101.755 11.7246 101.726 11.8771 101.728 12.0308H101.728Z" fill="white"/>
</g>
<defs>
<clipPath id="clip0_22267_156838">
<rect width="119.664" height="40" fill="white" transform="translate(0.0930176)"/>
</clipPath>
</defs>
</svg>
