<svg width="32" height="32" viewBox="0 0 32 32" fill="none" xmlns="http://www.w3.org/2000/svg">
<g clip-path="url(#clip0_338_56413)">
<rect width="32" height="32" fill="#E30513"/>
<path d="M23.3894 11.65C23.2016 11.4446 22.9729 11.2807 22.718 11.1688C22.4632 11.0569 22.1878 10.9994 21.9094 11H19.9994V10C19.9994 8.93913 19.578 7.92172 18.8279 7.17157C18.0777 6.42143 17.0603 6 15.9994 6C14.9386 6 13.9212 6.42143 13.171 7.17157C12.4209 7.92172 11.9994 8.93913 11.9994 10V11H10.0894C9.8111 10.9994 9.5357 11.0569 9.28085 11.1688C9.026 11.2807 8.79733 11.4446 8.60945 11.65C8.4249 11.8553 8.2837 12.0957 8.19435 12.3569C8.10499 12.6181 8.06931 12.8947 8.08944 13.17L8.84945 22.25C8.9123 23.0016 9.2559 23.7019 9.81184 24.2115C10.3678 24.7211 11.0953 25.0026 11.8495 25H20.1694C20.9236 25.0026 21.6511 24.7211 22.2071 24.2115C22.763 23.7019 23.1066 23.0016 23.1694 22.25L23.9294 13.17C23.9469 12.8933 23.908 12.6159 23.8152 12.3547C23.7224 12.0934 23.5776 11.8537 23.3894 11.65ZM13.9994 10C13.9994 9.46957 14.2102 8.96086 14.5852 8.58578C14.9603 8.21071 15.469 8 15.9994 8C16.5299 8 17.0386 8.21071 17.4137 8.58578C17.7887 8.96086 17.9994 9.46957 17.9994 10V11H13.9994V10Z" fill="white"/>
</g>
<defs>
<clipPath id="clip0_338_56413">
<rect width="32" height="32" rx="16" fill="white"/>
</clipPath>
</defs>
</svg>
