<svg width="18" height="17" viewBox="0 0 18 17" fill="none" xmlns="http://www.w3.org/2000/svg">
<path d="M12.6001 0.000153776C11.2643 0.0416684 9.98746 0.559516 9.00011 1.46015C8.01276 0.559516 6.73588 0.0416684 5.40011 0.000153776C4.68608 -0.00525478 3.97817 0.132059 3.31795 0.404031C2.65773 0.676003 2.0585 1.07715 1.55546 1.58392C1.05242 2.09069 0.655703 2.69286 0.388611 3.35507C0.121519 4.01728 -0.0105668 4.72619 0.000111111 5.44015C0.000111111 8.81015 2.63011 11.8702 7.16011 16.0002L7.65011 16.4502C8.0188 16.7875 8.50041 16.9745 9.00011 16.9745C9.49982 16.9745 9.98142 16.7875 10.3501 16.4502L10.8401 16.0102C15.3701 11.8602 18.0001 8.80015 18.0001 5.44015C18.0108 4.72619 17.8787 4.01728 17.6116 3.35507C17.3445 2.69286 16.9478 2.09069 16.4448 1.58392C15.9417 1.07715 15.3425 0.676003 14.6823 0.404031C14.022 0.132059 13.3141 -0.00525478 12.6001 0.000153776Z" fill="#3E0084"/>
</svg>
