<svg width="19" height="18" viewBox="0 0 19 18" fill="none" xmlns="http://www.w3.org/2000/svg">
<path d="M17.2 2.75041L10.2 0.130407C9.74857 -0.0382606 9.25143 -0.0382606 8.8 0.130407L1.8 2.75041C1.7201 2.78774 1.6432 2.83121 1.57 2.88041L9.5 5.93041L17.43 2.93041C17.3586 2.86396 17.2817 2.80374 17.2 2.75041ZM0.5 4.62041V13.3804C0.500712 13.7873 0.625544 14.1844 0.857829 14.5185C1.09011 14.8527 1.4188 15.108 1.8 15.2504L8.5 17.7604V7.69041L0.5 4.61041V4.62041ZM18.5 4.62041L10.5 7.70041V17.7604L17.2 15.2504C17.5812 15.108 17.9099 14.8527 18.1422 14.5185C18.3745 14.1844 18.4993 13.7873 18.5 13.3804V4.62041Z" fill="black" fill-opacity="0.65"/>
</svg>
