<svg width="18" height="18" viewBox="0 0 18 18" fill="none" xmlns="http://www.w3.org/2000/svg">
<path d="M17 8H10V1C10 0.734784 9.89464 0.48043 9.70711 0.292893C9.51957 0.105357 9.26522 0 9 0C8.73478 0 8.48043 0.105357 8.29289 0.292893C8.10536 0.48043 8 0.734784 8 1V8H1C0.734784 8 0.48043 8.10536 0.292893 8.29289C0.105357 8.48043 0 8.73478 0 9C0 9.26522 0.105357 9.51957 0.292893 9.70711C0.48043 9.89464 0.734784 10 1 10H8V17C8 17.2652 8.10536 17.5196 8.29289 17.7071C8.48043 17.8946 8.73478 18 9 18C9.26522 18 9.51957 17.8946 9.70711 17.7071C9.89464 17.5196 10 17.2652 10 17V10H17C17.2652 10 17.5196 9.89464 17.7071 9.70711C17.8946 9.51957 18 9.26522 18 9C18 8.73478 17.8946 8.48043 17.7071 8.29289C17.5196 8.10536 17.2652 8 17 8Z" fill="#2B005C"/>
</svg>
