<svg width="40" height="40" viewBox="0 0 40 40" fill="none" xmlns="http://www.w3.org/2000/svg">
<circle cx="20" cy="20" r="20" fill="#89DCFF"/>
<path d="M18.372 18.4538C19.3997 18.7419 20.4856 18.7513 21.5181 18.481C22.5506 18.2107 23.4926 17.6705 24.2473 16.9158C25.002 16.161 25.5423 15.2191 25.8126 14.1865C26.0829 13.154 26.0735 12.0682 25.7854 11.0405C25.5123 10.0458 24.9852 9.13932 24.2558 8.40998C23.5265 7.68064 22.62 7.15354 21.6254 6.88046C20.5977 6.59235 19.5118 6.58296 18.4793 6.85325C17.4468 7.12354 16.5048 7.66378 15.7501 8.41849C14.9954 9.1732 14.4551 10.1152 14.1848 11.1477C13.9145 12.1802 13.9239 13.2661 14.212 14.2938C14.4851 15.2884 15.0122 16.1949 15.7416 16.9243C16.4709 17.6536 17.3774 18.1807 18.372 18.4538ZM19.9987 20.0005C17.1697 20.0005 14.4566 21.1243 12.4562 23.1246C10.4558 25.125 9.33203 27.8381 9.33203 30.6671C9.33203 31.3744 9.61298 32.0526 10.1131 32.5527C10.6132 33.0528 11.2915 33.3338 11.9987 33.3338H27.9987C28.7059 33.3338 29.3842 33.0528 29.8843 32.5527C30.3844 32.0526 30.6654 31.3744 30.6654 30.6671C30.6654 27.8381 29.5416 25.125 27.5412 23.1246C25.5408 21.1243 22.8277 20.0005 19.9987 20.0005V20.0005Z" fill="#FFF"/>
</svg>
