<svg width="21" height="20" viewBox="0 0 21 20" fill="none" xmlns="http://www.w3.org/2000/svg">
<path d="M8.00427 7.13065e-06C9.30256 0.00139501 10.5749 0.363814 11.679 1.04676C12.7832 1.7297 13.6756 2.70625 14.2567 3.86727C14.8377 5.02829 15.0844 6.32801 14.9692 7.62118C14.854 8.91434 14.3814 10.15 13.6043 11.19L19.7143 17.29C19.808 17.383 19.8824 17.4936 19.9332 17.6154C19.9839 17.7373 20.0101 17.868 20.0101 18C20.0101 18.132 19.9839 18.2627 19.9332 18.3846C19.8824 18.5064 19.808 18.617 19.7143 18.71C19.6213 18.8037 19.5107 18.8781 19.3888 18.9289C19.267 18.9797 19.1363 19.0058 19.0043 19.0058C18.8723 19.0058 18.7416 18.9797 18.6197 18.9289C18.4978 18.8781 18.3872 18.8037 18.2943 18.71L12.1943 12.6C11.3066 13.2658 10.2734 13.711 9.17983 13.8989C8.08628 14.0868 6.96371 14.0121 5.90472 13.6808C4.84572 13.3496 3.88063 12.7714 3.08905 11.9939C2.29746 11.2163 1.70205 10.2617 1.35192 9.20885C1.00179 8.15595 0.906973 7.03491 1.07529 5.93816C1.2436 4.84142 1.67022 3.8004 2.31997 2.90095C2.96972 2.0015 3.82398 1.2694 4.8123 0.765018C5.80062 0.260635 6.89469 -0.00157648 8.00427 7.13065e-06V7.13065e-06ZM8.00427 12C8.99318 12 9.95988 11.7068 10.7821 11.1574C11.6044 10.6079 12.2452 9.82705 12.6237 8.91342C13.0021 7.99979 13.1011 6.99446 12.9082 6.02456C12.7153 5.05465 12.2391 4.16374 11.5398 3.46447C10.8405 2.76521 9.94963 2.28901 8.97972 2.09608C8.00982 1.90315 7.00449 2.00217 6.09085 2.38061C5.17722 2.75905 4.39633 3.39991 3.84692 4.22216C3.29752 5.0444 3.00427 6.0111 3.00427 7.00001C3.00427 7.65662 3.1336 8.3068 3.38487 8.91342C3.63615 9.52005 4.00445 10.0712 4.46874 10.5355C4.93303 10.9998 5.48423 11.3681 6.09085 11.6194C6.69748 11.8707 7.34766 12 8.00427 12V12Z" fill="white"/>
</svg>
