<svg width="24" height="24" viewBox="0 0 24 24" fill="none" xmlns="http://www.w3.org/2000/svg">
<path d="M10.0042 2.00001C11.3025 2.0014 12.5748 2.36381 13.679 3.04676C14.7831 3.7297 15.6756 4.70625 16.2566 5.86727C16.8376 7.02829 17.0843 8.32801 16.9691 9.62118C16.8539 10.9143 16.3813 12.15 15.6042 13.19L21.7142 19.29C21.8079 19.383 21.8823 19.4936 21.9331 19.6154C21.9839 19.7373 22.01 19.868 22.01 20C22.01 20.132 21.9839 20.2627 21.9331 20.3846C21.8823 20.5064 21.8079 20.617 21.7142 20.71C21.6212 20.8037 21.5106 20.8781 21.3888 20.9289C21.2669 20.9797 21.1362 21.0058 21.0042 21.0058C20.8722 21.0058 20.7415 20.9797 20.6196 20.9289C20.4978 20.8781 20.3872 20.8037 20.2942 20.71L14.1942 14.6C13.3065 15.2658 12.2733 15.7109 11.1798 15.8989C10.0862 16.0868 8.96365 16.0121 7.90466 15.6808C6.84566 15.3496 5.88057 14.7714 5.08899 13.9939C4.2974 13.2163 3.70199 12.2617 3.35186 11.2088C3.00173 10.156 2.90691 9.03491 3.07523 7.93816C3.24354 6.84142 3.67016 5.8004 4.31991 4.90095C4.96966 4.0015 5.82392 3.2694 6.81224 2.76502C7.80056 2.26064 8.89463 1.99842 10.0042 2.00001ZM10.0042 14C10.9931 14 11.9598 13.7068 12.7821 13.1574C13.6043 12.6079 14.2452 11.8271 14.6236 10.9134C15.002 9.99979 15.1011 8.99446 14.9081 8.02456C14.7152 7.05465 14.239 6.16374 13.5397 5.46447C12.8405 4.76521 11.9496 4.28901 10.9797 4.09608C10.0098 3.90315 9.00442 4.00217 8.09079 4.38061C7.17716 4.75905 6.39627 5.39991 5.84686 6.22216C5.29745 7.0444 5.00421 8.0111 5.00421 9.00001C5.00421 9.65662 5.13354 10.3068 5.38481 10.9134C5.63609 11.5201 6.00438 12.0712 6.46868 12.5355C6.93297 12.9998 7.48417 13.3681 8.09079 13.6194C8.69742 13.8707 9.3476 14 10.0042 14Z" fill="black" fill-opacity="0.65"/>
</svg>
