<svg width="24" height="24" viewBox="0 0 24 24" fill="none" xmlns="http://www.w3.org/2000/svg">
<path d="M9.50001 17.0002V16.7102L9.21001 17.0002H9.50001ZM18.12 2.88022C17.5579 2.31745 16.7954 2.00092 16 2.00022H11C10.5432 1.99005 10.0905 2.08949 9.68001 2.29022C9.26734 2.48589 8.9048 2.77319 8.62001 3.13022L5.62001 6.83022C5.20873 7.36599 4.99027 8.02487 5.00001 8.70022V19.0002C5.00001 19.7959 5.31608 20.5589 5.87869 21.1215C6.4413 21.6842 7.20436 22.0002 8.00001 22.0002H16C16.7957 22.0002 17.5587 21.6842 18.1213 21.1215C18.6839 20.5589 19 19.7959 19 19.0002V5.00022C18.9993 4.20484 18.6828 3.44229 18.12 2.88022ZM11 18.0002H10.5V18.5002C10.5 18.6328 10.4473 18.76 10.3536 18.8538C10.2598 18.9475 10.1326 19.0002 10 19.0002C9.8674 19.0002 9.74022 18.9475 9.64645 18.8538C9.55268 18.76 9.50001 18.6328 9.50001 18.5002V18.0002H8.00001C7.90129 17.9997 7.80494 17.97 7.72308 17.9149C7.64122 17.8597 7.57752 17.7815 7.54001 17.6902C7.49916 17.6001 7.48781 17.4994 7.50756 17.4024C7.52731 17.3054 7.57716 17.2172 7.65001 17.1502L9.65001 15.1502C9.68644 15.0848 9.74237 15.0324 9.81001 15.0002C9.93174 14.9502 10.0683 14.9502 10.19 15.0002C10.3116 15.0519 10.4084 15.1487 10.46 15.2702C10.4742 15.3328 10.4742 15.3977 10.46 15.4602V17.0002H11C11.1326 17.0002 11.2598 17.0529 11.3536 17.1467C11.4473 17.2404 11.5 17.3676 11.5 17.5002C11.5 17.6328 11.4473 17.76 11.3536 17.8538C11.2598 17.9475 11.1326 18.0002 11 18.0002ZM14.5 19.0002C13.9696 19.0002 13.4609 18.7895 13.0858 18.4144C12.7107 18.0394 12.5 17.5307 12.5 17.0002C12.5 16.4698 12.7107 15.9611 13.0858 15.586C13.4609 15.2109 13.9696 15.0002 14.5 15.0002H15C15.1326 15.0002 15.2598 15.0529 15.3536 15.1467C15.4473 15.2404 15.5 15.3676 15.5 15.5002C15.5 15.6328 15.4473 15.76 15.3536 15.8538C15.2598 15.9475 15.1326 16.0002 15 16.0002H14.5C14.3238 15.9974 14.15 16.0412 13.9962 16.1272C13.8424 16.2131 13.714 16.3382 13.6241 16.4897C13.5342 16.6413 13.4859 16.8139 13.4841 16.9901C13.4823 17.1663 13.5272 17.3398 13.614 17.4931C13.7009 17.6464 13.8267 17.774 13.9788 17.8631C14.1309 17.9521 14.3038 17.9994 14.48 18.0001C14.6562 18.0008 14.8294 17.955 14.9822 17.8672C15.135 17.7794 15.2619 17.6528 15.35 17.5002H15C14.8674 17.5002 14.7402 17.4475 14.6465 17.3538C14.5527 17.26 14.5 17.1328 14.5 17.0002C14.5 16.8676 14.5527 16.7404 14.6465 16.6467C14.7402 16.5529 14.8674 16.5002 15 16.5002H16C16.1326 16.5002 16.2598 16.5529 16.3536 16.6467C16.4473 16.7404 16.5 16.8676 16.5 17.0002C16.5 17.5307 16.2893 18.0394 15.9142 18.4144C15.5391 18.7895 15.0304 19.0002 14.5 19.0002Z" fill="#141414"/>
</svg>
