<svg width="24" height="24" viewBox="0 0 24 24" fill="none" xmlns="http://www.w3.org/2000/svg">
<path d="M18 3H6C5.20435 3 4.44129 3.31607 3.87868 3.87868C3.31607 4.44129 3 5.20435 3 6V18C3 18.7956 3.31607 19.5587 3.87868 20.1213C4.44129 20.6839 5.20435 21 6 21H18C18.7956 21 19.5587 20.6839 20.1213 20.1213C20.6839 19.5587 21 18.7956 21 18V6C21 5.20435 20.6839 4.44129 20.1213 3.87868C19.5587 3.31607 18.7956 3 18 3ZM11 8C11.0028 7.61441 11.1171 7.23785 11.329 6.91568C11.5408 6.59351 11.8414 6.33946 12.1943 6.18412C12.5472 6.02879 12.9375 5.9788 13.3182 6.04016C13.6989 6.10153 14.0538 6.27163 14.34 6.53C14.4381 6.62017 14.4964 6.74564 14.502 6.87879C14.5077 7.01194 14.4602 7.14187 14.37 7.24C14.2798 7.33813 14.1544 7.39642 14.0212 7.40205C13.8881 7.40767 13.7581 7.36017 13.66 7.27C13.4807 7.10195 13.2457 7.00584 13 7C12.7348 7 12.4804 7.10536 12.2929 7.29289C12.1054 7.48043 12 7.73478 12 8V9C12 9.26522 12.1054 9.51957 12.2929 9.70711C12.4804 9.89464 12.7348 10 13 10C13.2652 10 13.5196 9.89464 13.7071 9.70711C13.8946 9.51957 14 9.26522 14 9H13.5C13.3674 9 13.2402 8.94732 13.1464 8.85355C13.0527 8.75979 13 8.63261 13 8.5C13 8.36739 13.0527 8.24021 13.1464 8.14645C13.2402 8.05268 13.3674 8 13.5 8H14.5C14.6326 8 14.7598 8.05268 14.8536 8.14645C14.9473 8.24021 15 8.36739 15 8.5V9C15 9.53043 14.7893 10.0391 14.4142 10.4142C14.0391 10.7893 13.5304 11 13 11C12.4696 11 11.9609 10.7893 11.5858 10.4142C11.2107 10.0391 11 9.53043 11 9V8ZM6 9.34L7 6.34C7.02101 6.27434 7.05475 6.21346 7.09929 6.16084C7.14383 6.10822 7.1983 6.06488 7.25958 6.03331C7.32087 6.00174 7.38778 5.98255 7.45648 5.97683C7.52518 5.97112 7.59434 5.97899 7.66 6C7.72566 6.02101 7.78654 6.05475 7.83916 6.09929C7.89178 6.14383 7.93512 6.1983 7.96669 6.25958C7.99826 6.32087 8.01745 6.38778 8.02317 6.45648C8.02888 6.52518 8.02101 6.59434 8 6.66L7.19 9H8V8.5C8 8.36739 8.05268 8.24021 8.14645 8.14645C8.24021 8.05268 8.36739 8 8.5 8C8.63261 8 8.75979 8.05268 8.85355 8.14645C8.94732 8.24021 9 8.36739 9 8.5V9H9.5C9.63261 9 9.75979 9.05268 9.85355 9.14645C9.94732 9.24021 10 9.36739 10 9.5C10 9.63261 9.94732 9.75979 9.85355 9.85355C9.75979 9.94732 9.63261 10 9.5 10H9V10.5C9 10.6326 8.94732 10.7598 8.85355 10.8536C8.75979 10.9473 8.63261 11 8.5 11C8.36739 11 8.24021 10.9473 8.14645 10.8536C8.05268 10.7598 8 10.6326 8 10.5V10H6.5C6.42012 9.99884 6.34158 9.9793 6.27048 9.94288C6.19937 9.90646 6.13762 9.85415 6.09 9.79C6.03862 9.72847 6.00346 9.65506 5.98774 9.57645C5.97202 9.49785 5.97623 9.41656 6 9.34ZM8.5 17.5H6.5C6.36739 17.5 6.24021 17.4473 6.14645 17.3536C6.05268 17.2598 6 17.1326 6 17V13C6 12.8674 6.05268 12.7402 6.14645 12.6464C6.24021 12.5527 6.36739 12.5 6.5 12.5C6.63261 12.5 6.75979 12.5527 6.85355 12.6464C6.94732 12.7402 7 12.8674 7 13V16.5H8.5C8.63261 16.5 8.75979 16.5527 8.85355 16.6464C8.94732 16.7402 9 16.8674 9 17C9 17.1326 8.94732 17.2598 8.85355 17.3536C8.75979 17.4473 8.63261 17.5 8.5 17.5ZM12 13.5H11V17C11 17.1326 10.9473 17.2598 10.8536 17.3536C10.7598 17.4473 10.6326 17.5 10.5 17.5C10.3674 17.5 10.2402 17.4473 10.1464 17.3536C10.0527 17.2598 10 17.1326 10 17V13.5H9C8.86739 13.5 8.74021 13.4473 8.64645 13.3536C8.55268 13.2598 8.5 13.1326 8.5 13C8.5 12.8674 8.55268 12.7402 8.64645 12.6464C8.74021 12.5527 8.86739 12.5 9 12.5H12C12.1326 12.5 12.2598 12.5527 12.3536 12.6464C12.4473 12.7402 12.5 12.8674 12.5 13C12.5 13.1326 12.4473 13.2598 12.3536 13.3536C12.2598 13.4473 12.1326 13.5 12 13.5ZM15 14.5C15.1326 14.5 15.2598 14.5527 15.3536 14.6464C15.4473 14.7402 15.5 14.8674 15.5 15C15.5 15.1326 15.4473 15.2598 15.3536 15.3536C15.2598 15.4473 15.1326 15.5 15 15.5H14V16.5H15.5C15.6326 16.5 15.7598 16.5527 15.8536 16.6464C15.9473 16.7402 16 16.8674 16 17C16 17.1326 15.9473 17.2598 15.8536 17.3536C15.7598 17.4473 15.6326 17.5 15.5 17.5H13.5C13.3674 17.5 13.2402 17.4473 13.1464 17.3536C13.0527 17.2598 13 17.1326 13 17V13C13 12.8674 13.0527 12.7402 13.1464 12.6464C13.2402 12.5527 13.3674 12.5 13.5 12.5H15.5C15.6326 12.5 15.7598 12.5527 15.8536 12.6464C15.9473 12.7402 16 12.8674 16 13C16 13.1326 15.9473 13.2598 15.8536 13.3536C15.7598 13.4473 15.6326 13.5 15.5 13.5H14V14.5H15Z" fill="#141414"/>
</svg>
