<svg width="24" height="24" viewBox="0 0 24 24" fill="none" xmlns="http://www.w3.org/2000/svg">
<path d="M21.12 4.88C20.5579 4.31723 19.7954 4.0007 19 4H5C4.20435 4 3.44129 4.31607 2.87868 4.87868C2.31607 5.44129 2 6.20435 2 7V17C2 17.7956 2.31607 18.5587 2.87868 19.1213C3.44129 19.6839 4.20435 20 5 20H19C19.7956 20 20.5587 19.6839 21.1213 19.1213C21.6839 18.5587 22 17.7956 22 17V7C21.9993 6.20462 21.6828 5.44207 21.12 4.88ZM10.75 14V15C10.75 15.2652 10.6446 15.5196 10.4571 15.7071C10.2696 15.8946 10.0152 16 9.75 16C9.48478 16 9.23043 15.8946 9.04289 15.7071C8.85536 15.5196 8.75 15.2652 8.75 15V14H6.25C6.10802 13.9998 5.9677 13.9694 5.83838 13.9108C5.70906 13.8522 5.59371 13.7667 5.5 13.66C5.4074 13.5542 5.33817 13.43 5.29681 13.2956C5.25546 13.1612 5.24291 13.0196 5.26 12.88L5.76 8.88C5.77576 8.74868 5.81723 8.62175 5.88204 8.50645C5.94686 8.39116 6.03374 8.28976 6.13775 8.20804C6.24175 8.12632 6.36083 8.06589 6.48818 8.0302C6.61554 7.9945 6.74868 7.98424 6.88 8C7.01132 8.01576 7.13825 8.05723 7.25355 8.12204C7.36884 8.18686 7.47024 8.27374 7.55196 8.37775C7.63368 8.48175 7.69411 8.60083 7.7298 8.72818C7.7655 8.85554 7.77576 8.98868 7.76 9.12L7.38 12H8.75V11C8.75 10.7348 8.85536 10.4804 9.04289 10.2929C9.23043 10.1054 9.48478 10 9.75 10C10.0152 10 10.2696 10.1054 10.4571 10.2929C10.6446 10.4804 10.75 10.7348 10.75 11V12C11.0152 12 11.2696 12.1054 11.4571 12.2929C11.6446 12.4804 11.75 12.7348 11.75 13C11.75 13.2652 11.6446 13.5196 11.4571 13.7071C11.2696 13.8946 11.0152 14 10.75 14ZM18.57 14.43C18.674 14.5799 18.735 14.7554 18.7464 14.9374C18.7578 15.1195 18.7192 15.3012 18.6347 15.463C18.5503 15.6247 18.4232 15.7602 18.2673 15.8548C18.1113 15.9495 17.9324 15.9997 17.75 16C17.5888 15.9997 17.43 15.9605 17.2872 15.8856C17.1445 15.8107 17.0219 15.7025 16.93 15.57L15.45 13.47L14.75 14.35V15C14.75 15.2652 14.6446 15.5196 14.4571 15.7071C14.2696 15.8946 14.0152 16 13.75 16C13.4848 16 13.2304 15.8946 13.0429 15.7071C12.8554 15.5196 12.75 15.2652 12.75 15V9C12.75 8.73478 12.8554 8.48043 13.0429 8.29289C13.2304 8.10536 13.4848 8 13.75 8C14.0152 8 14.2696 8.10536 14.4571 8.29289C14.6446 8.48043 14.75 8.73478 14.75 9V11.15L17 8.38C17.172 8.19782 17.4061 8.08682 17.6559 8.06897C17.9058 8.05112 18.1533 8.12771 18.3494 8.2836C18.5456 8.43949 18.676 8.66332 18.715 8.91079C18.754 9.15827 18.6987 9.41136 18.56 9.62L16.79 11.84L18.57 14.43Z" fill="#141414"/>
</svg>
