<svg width="24" height="24" viewBox="0 0 24 24" fill="none" xmlns="http://www.w3.org/2000/svg">
<path d="M15 10.0002H9.00001C8.20436 10.0002 7.4413 10.3162 6.87869 10.8788C6.31608 11.4415 6.00001 12.2045 6.00001 13.0002V19.0002C6.00001 19.7958 6.31608 20.5589 6.87869 21.1215C7.4413 21.6841 8.20436 22.0002 9.00001 22.0002H15C15.7957 22.0002 16.5587 21.6841 17.1213 21.1215C17.6839 20.5589 18 19.7958 18 19.0002V13.0002C18 12.2045 17.6839 11.4415 17.1213 10.8788C16.5587 10.3162 15.7957 10.0002 15 10.0002ZM13.5 17.0002H13V17.5002C13 17.6328 12.9473 17.76 12.8536 17.8537C12.7598 17.9475 12.6326 18.0002 12.5 18.0002C12.3674 18.0002 12.2402 17.9475 12.1465 17.8537C12.0527 17.76 12 17.6328 12 17.5002V17.0002H10.5C10.4201 16.999 10.3416 16.9795 10.2705 16.943C10.1994 16.9066 10.1376 16.8543 10.09 16.7902C10.0437 16.7259 10.0139 16.6512 10.0034 16.5727C9.99298 16.4942 10.0021 16.4143 10.03 16.3402L11.03 13.3402C11.0447 13.2711 11.0739 13.2058 11.1156 13.1488C11.1573 13.0918 11.2107 13.0443 11.2721 13.0094C11.3336 12.9745 11.4017 12.953 11.472 12.9464C11.5424 12.9397 11.6133 12.9481 11.6802 12.9708C11.7471 12.9936 11.8084 13.0303 11.8601 13.0785C11.9117 13.1267 11.9526 13.1853 11.98 13.2504C12.0074 13.3155 12.0206 13.3857 12.0189 13.4563C12.0172 13.527 12.0005 13.5964 11.97 13.6602L11.19 16.0002H12V15.5002C12 15.3676 12.0527 15.2404 12.1465 15.1466C12.2402 15.0528 12.3674 15.0002 12.5 15.0002C12.6326 15.0002 12.7598 15.0528 12.8536 15.1466C12.9473 15.2404 13 15.3676 13 15.5002V16.0002H13.5C13.6326 16.0002 13.7598 16.0528 13.8536 16.1466C13.9473 16.2404 14 16.3676 14 16.5002C14 16.6328 13.9473 16.76 13.8536 16.8537C13.7598 16.9475 13.6326 17.0002 13.5 17.0002ZM18.67 4.56016C16.8362 2.91847 14.4613 2.01074 12 2.01074C9.53869 2.01074 7.16383 2.91847 5.33001 4.56016C5.13242 4.73786 5.01352 4.98677 4.99945 5.25213C4.98539 5.5175 5.07731 5.77758 5.25501 5.97516C5.4327 6.17275 5.68161 6.29166 5.94698 6.30572C6.21234 6.31979 6.47242 6.22786 6.67001 6.05017C8.13632 4.74013 10.0337 4.01599 12 4.01599C13.9663 4.01599 15.8637 4.74013 17.33 6.05017C17.5149 6.21323 17.7535 6.30227 18 6.30017C18.1373 6.30367 18.2739 6.27885 18.4013 6.22723C18.5286 6.17562 18.6439 6.09832 18.74 6.00016C18.8324 5.90226 18.9041 5.7867 18.9507 5.66041C18.9974 5.53413 19.0181 5.39973 19.0116 5.26526C19.005 5.1308 18.9714 4.99903 18.9127 4.87787C18.854 4.75671 18.7715 4.64865 18.67 4.56016ZM9.61001 8.82016C10.3006 8.30559 11.1388 8.02764 12 8.02764C12.8612 8.02764 13.6994 8.30559 14.39 8.82016C14.6009 8.98195 14.8673 9.05334 15.1308 9.01865C15.3943 8.98396 15.6332 8.84601 15.795 8.63517C15.9568 8.42432 16.0282 8.15784 15.9935 7.89435C15.9588 7.63086 15.8209 7.39195 15.61 7.23017C14.5696 6.44649 13.3025 6.02265 12 6.02265C10.6975 6.02265 9.43038 6.44649 8.39001 7.23017C8.28561 7.31027 8.19801 7.41016 8.13221 7.52412C8.06641 7.63808 8.0237 7.76388 8.00652 7.89435C7.98934 8.02482 7.99803 8.15739 8.03209 8.2845C8.06614 8.41161 8.1249 8.53076 8.20501 8.63517C8.36679 8.84601 8.60571 8.98396 8.86919 9.01865C8.99966 9.03583 9.13223 9.02714 9.25934 8.99309C9.38645 8.95903 9.50561 8.90027 9.61001 8.82016Z" fill="#141414"/>
</svg>
