<svg width="24" height="24" viewBox="0 0 24 24" fill="none" xmlns="http://www.w3.org/2000/svg">
<path d="M12 12C11.7348 12 11.4804 12.1054 11.2929 12.2929C11.1054 12.4804 11 12.7348 11 13V14C11 14.2652 11.1054 14.5196 11.2929 14.7071C11.4804 14.8946 11.7348 15 12 15C12.2652 15 12.5196 14.8946 12.7071 14.7071C12.8946 14.5196 13 14.2652 13 14V13C13 12.7348 12.8946 12.4804 12.7071 12.2929C12.5196 12.1054 12.2652 12 12 12ZM19 4H5C4.20435 4 3.44129 4.31607 2.87868 4.87868C2.31607 5.44129 2 6.20435 2 7V17C2 17.7956 2.31607 18.5587 2.87868 19.1213C3.44129 19.6839 4.20435 20 5 20H19C19.7956 20 20.5587 19.6839 21.1213 19.1213C21.6839 18.5587 22 17.7956 22 17V7C22 6.20435 21.6839 5.44129 21.1213 4.87868C20.5587 4.31607 19.7956 4 19 4ZM11 6C11.1978 6 11.3911 6.05865 11.5556 6.16853C11.72 6.27841 11.8482 6.43459 11.9239 6.61732C11.9996 6.80004 12.0194 7.00111 11.9808 7.19509C11.9422 7.38907 11.847 7.56725 11.7071 7.70711C11.5673 7.84696 11.3891 7.9422 11.1951 7.98079C11.0011 8.01937 10.8 7.99957 10.6173 7.92388C10.4346 7.84819 10.2784 7.72002 10.1685 7.55557C10.0586 7.39112 10 7.19778 10 7C10 6.73478 10.1054 6.48043 10.2929 6.29289C10.4804 6.10536 10.7348 6 11 6ZM4 7C4 6.80222 4.05865 6.60888 4.16853 6.44443C4.27841 6.27998 4.43459 6.15181 4.61732 6.07612C4.80004 6.00043 5.00111 5.98063 5.19509 6.01921C5.38907 6.0578 5.56725 6.15304 5.70711 6.29289C5.84696 6.43275 5.9422 6.61093 5.98079 6.80491C6.01937 6.99889 5.99957 7.19996 5.92388 7.38268C5.84819 7.56541 5.72002 7.72159 5.55557 7.83147C5.39112 7.94135 5.19778 8 5 8C4.73478 8 4.48043 7.89464 4.29289 7.70711C4.10536 7.51957 4 7.26522 4 7ZM8.5 15H8V15.5C8 15.6326 7.94732 15.7598 7.85355 15.8536C7.75979 15.9473 7.63261 16 7.5 16C7.36739 16 7.24021 15.9473 7.14645 15.8536C7.05268 15.7598 7 15.6326 7 15.5V15H5.5C5.42012 14.9988 5.34158 14.9793 5.27048 14.9429C5.19937 14.9065 5.13762 14.8541 5.09 14.79C5.03862 14.7285 5.00346 14.6551 4.98774 14.5765C4.97202 14.4978 4.97623 14.4166 5 14.34L6 11.34C6.05286 11.2296 6.14436 11.1425 6.25716 11.0951C6.36996 11.0477 6.49623 11.0432 6.61207 11.0827C6.7279 11.1221 6.82526 11.2027 6.88569 11.3091C6.94613 11.4154 6.96545 11.5403 6.94 11.66L6.19 14H7V13.5C7 13.3674 7.05268 13.2402 7.14645 13.1464C7.24021 13.0527 7.36739 13 7.5 13C7.63261 13 7.75979 13.0527 7.85355 13.1464C7.94732 13.2402 8 13.3674 8 13.5V14H8.5C8.63261 14 8.75979 14.0527 8.85355 14.1464C8.94732 14.2402 9 14.3674 9 14.5C9 14.6326 8.94732 14.7598 8.85355 14.8536C8.75979 14.9473 8.63261 15 8.5 15ZM8 8C7.80222 8 7.60888 7.94135 7.44443 7.83147C7.27998 7.72159 7.15181 7.56541 7.07612 7.38268C7.00043 7.19996 6.98063 6.99889 7.01921 6.80491C7.0578 6.61093 7.15304 6.43275 7.29289 6.29289C7.43275 6.15304 7.61093 6.0578 7.80491 6.01921C7.99889 5.98063 8.19996 6.00043 8.38268 6.07612C8.56541 6.15181 8.72159 6.27998 8.83147 6.44443C8.94135 6.60888 9 6.80222 9 7C9 7.26522 8.89464 7.51957 8.70711 7.70711C8.51957 7.89464 8.26522 8 8 8ZM14 14C14 14.5304 13.7893 15.0391 13.4142 15.4142C13.0391 15.7893 12.5304 16 12 16C11.4696 16 10.9609 15.7893 10.5858 15.4142C10.2107 15.0391 10 14.5304 10 14V13C10 12.4696 10.2107 11.9609 10.5858 11.5858C10.9609 11.2107 11.4696 11 12 11C12.5304 11 13.0391 11.2107 13.4142 11.5858C13.7893 11.9609 14 12.4696 14 13V14ZM18.5 15H18V15.5C18 15.6326 17.9473 15.7598 17.8536 15.8536C17.7598 15.9473 17.6326 16 17.5 16C17.3674 16 17.2402 15.9473 17.1464 15.8536C17.0527 15.7598 17 15.6326 17 15.5V15H15.5C15.4201 14.9988 15.3416 14.9793 15.2705 14.9429C15.1994 14.9065 15.1376 14.8541 15.09 14.79C15.0436 14.7258 15.0139 14.6511 15.0034 14.5725C14.993 14.494 15.0021 14.4141 15.03 14.34L16.03 11.34C16.0447 11.2709 16.0739 11.2057 16.1156 11.1487C16.1573 11.0917 16.2107 11.0441 16.2721 11.0092C16.3335 10.9743 16.4017 10.9529 16.472 10.9462C16.5424 10.9396 16.6133 10.9479 16.6802 10.9707C16.7471 10.9934 16.8084 11.0301 16.8601 11.0783C16.9117 11.1265 16.9526 11.1851 16.98 11.2502C17.0074 11.3153 17.0206 11.3855 17.0189 11.4562C17.0172 11.5268 17.0005 11.5963 16.97 11.66L16.19 14H17V13.5C17 13.3674 17.0527 13.2402 17.1464 13.1464C17.2402 13.0527 17.3674 13 17.5 13C17.6326 13 17.7598 13.0527 17.8536 13.1464C17.9473 13.2402 18 13.3674 18 13.5V14H18.5C18.6326 14 18.7598 14.0527 18.8536 14.1464C18.9473 14.2402 19 14.3674 19 14.5C19 14.6326 18.9473 14.7598 18.8536 14.8536C18.7598 14.9473 18.6326 15 18.5 15Z" fill="#141414"/>
</svg>
