<svg width="24" height="24" viewBox="0 0 24 24" fill="none" xmlns="http://www.w3.org/2000/svg">
<path d="M3 14.33H7.67V9.67H3V14.33ZM9.67 21H14.33V16.33H9.67V21ZM19 3H16.33V7.67H21V5C21 4.46957 20.7893 3.96086 20.4142 3.58579C20.0391 3.21071 19.5304 3 19 3ZM3 19C3 19.5304 3.21071 20.0391 3.58579 20.4142C3.96086 20.7893 4.46957 21 5 21H7.67V16.33H3V19ZM3 5V7.67H7.67V3H5C4.46957 3 3.96086 3.21071 3.58579 3.58579C3.21071 3.96086 3 4.46957 3 5ZM16.33 21H19C19.5304 21 20.0391 20.7893 20.4142 20.4142C20.7893 20.0391 21 19.5304 21 19V16.33H16.33V21ZM16.33 14.33H21V9.67H16.33V14.33ZM9.67 7.67H14.33V3H9.67V7.67ZM9.67 14.33H14.33V9.67H9.67V14.33Z" fill="#141414"/>
</svg>
