<svg width="24" height="24" viewBox="0 0 24 24" fill="none" xmlns="http://www.w3.org/2000/svg">
<path d="M14 17.82C14.36 16.74 14.58 15.48 12.6 14.17C12.4916 14.0827 12.3663 14.019 12.2319 13.9829C12.0975 13.9469 11.9571 13.9393 11.8196 13.9606C11.6821 13.9819 11.5505 14.0316 11.4333 14.1067C11.3162 14.1817 11.216 14.2804 11.1391 14.3964C11.0622 14.5124 11.0104 14.6431 10.987 14.7803C10.9635 14.9174 10.969 15.058 11.003 15.1929C11.0369 15.3278 11.0987 15.4542 11.1843 15.5639C11.2698 15.6736 11.3774 15.7642 11.5 15.83C12.36 16.41 12.31 16.56 12.1 17.18C11.74 18.26 11.52 19.52 13.5 20.83C13.647 20.9333 13.8205 20.9923 14 21C14.2136 20.9984 14.4212 20.9283 14.5921 20.8002C14.7631 20.672 14.8885 20.4925 14.95 20.2879C15.0115 20.0832 15.0058 19.8643 14.9338 19.6631C14.8619 19.462 14.7273 19.2892 14.55 19.17C13.69 18.59 13.74 18.44 14 17.82ZM9 17.82C9.36 16.74 9.58 15.48 7.6 14.17C7.38043 14.0522 7.1248 14.0207 6.88318 14.0815C6.64156 14.1423 6.43134 14.2911 6.29371 14.4988C6.15608 14.7065 6.10094 14.9581 6.1391 15.2044C6.17726 15.4506 6.30596 15.6737 6.5 15.83C7.36 16.41 7.31 16.56 7.1 17.18C6.74 18.26 6.52 19.52 8.5 20.83C8.647 20.9333 8.82051 20.9923 9 21C9.21365 20.9984 9.42115 20.9283 9.5921 20.8002C9.76305 20.672 9.88847 20.4925 9.94996 20.2879C10.0115 20.0832 10.0058 19.8643 9.93383 19.6631C9.86185 19.462 9.72734 19.2892 9.55 19.17C8.69 18.59 8.74 18.44 9 17.82ZM18 3H6C5.20435 3 4.44129 3.31607 3.87868 3.87868C3.31607 4.44129 3 5.20435 3 6V9C3 9.79565 3.31607 10.5587 3.87868 11.1213C4.44129 11.6839 5.20435 12 6 12H18C18.7956 12 19.5587 11.6839 20.1213 11.1213C20.6839 10.5587 21 9.79565 21 9V6C21 5.20435 20.6839 4.44129 20.1213 3.87868C19.5587 3.31607 18.7956 3 18 3ZM17 9H7C6.73478 9 6.48043 8.89464 6.29289 8.70711C6.10536 8.51957 6 8.26522 6 8C6 7.73478 6.10536 7.48043 6.29289 7.29289C6.48043 7.10536 6.73478 7 7 7H17C17.2652 7 17.5196 7.10536 17.7071 7.29289C17.8946 7.48043 18 7.73478 18 8C18 8.26522 17.8946 8.51957 17.7071 8.70711C17.5196 8.89464 17.2652 9 17 9ZM19 17.82C19.36 16.74 19.58 15.48 17.6 14.17C17.4916 14.0827 17.3663 14.019 17.2319 13.9829C17.0975 13.9469 16.9571 13.9393 16.8196 13.9606C16.6821 13.9819 16.5505 14.0316 16.4333 14.1067C16.3162 14.1817 16.216 14.2804 16.1391 14.3964C16.0622 14.5124 16.0104 14.6431 15.987 14.7803C15.9635 14.9174 15.969 15.058 16.003 15.1929C16.0369 15.3278 16.0987 15.4542 16.1843 15.5639C16.2698 15.6736 16.3774 15.7642 16.5 15.83C17.36 16.41 17.31 16.56 17.1 17.18C16.74 18.26 16.52 19.52 18.5 20.83C18.647 20.9333 18.8205 20.9923 19 21C19.2136 20.9984 19.4212 20.9283 19.5921 20.8002C19.7631 20.672 19.8885 20.4925 19.95 20.2879C20.0115 20.0832 20.0058 19.8643 19.9338 19.6631C19.8619 19.462 19.7273 19.2892 19.55 19.17C18.69 18.59 18.74 18.44 19 17.82Z" fill="#141414"/>
</svg>
