<svg width="24" height="24" viewBox="0 0 24 24" fill="none" xmlns="http://www.w3.org/2000/svg">
<path d="M21.7401 18.0002L13.7401 4.00022C13.5657 3.69243 13.3127 3.43641 13.0071 3.25829C12.7014 3.08017 12.3539 2.98633 12.0001 2.98633C11.6464 2.98633 11.2989 3.08017 10.9932 3.25829C10.6875 3.43641 10.4346 3.69243 10.2601 4.00022L2.26015 18.0002C2.08427 18.3048 1.99184 18.6505 1.99219 19.0022C1.99254 19.354 2.08565 19.6994 2.26213 20.0037C2.4386 20.308 2.69221 20.5603 2.99736 20.7353C3.3025 20.9102 3.6484 21.0016 4.00015 21.0002H20.0001C20.3519 21.0016 20.6978 20.9102 21.0029 20.7353C21.3081 20.5603 21.5617 20.308 21.7382 20.0037C21.9146 19.6994 22.0078 19.354 22.0081 19.0022C22.0084 18.6505 21.916 18.3048 21.7401 18.0002ZM11.0001 7.00022C11.0001 6.73501 11.1055 6.48065 11.293 6.29312C11.4806 6.10558 11.7349 6.00022 12.0001 6.00022C12.2654 6.00022 12.5197 6.10558 12.7073 6.29312C12.8948 6.48065 13.0001 6.73501 13.0001 7.00022V13.0002C13.0001 13.2654 12.8948 13.5198 12.7073 13.7073C12.5197 13.8949 12.2654 14.0002 12.0001 14.0002C11.7349 14.0002 11.4806 13.8949 11.293 13.7073C11.1055 13.5198 11.0001 13.2654 11.0001 13.0002V7.00022ZM12.0001 19.0002C11.7035 19.0002 11.4135 18.9123 11.1668 18.7474C10.9201 18.5826 10.7279 18.3483 10.6143 18.0742C10.5008 17.8002 10.4711 17.4986 10.529 17.2076C10.5868 16.9166 10.7297 16.6493 10.9395 16.4396C11.1493 16.2298 11.4165 16.0869 11.7075 16.029C11.9985 15.9712 12.3001 16.0009 12.5742 16.1144C12.8483 16.2279 13.0825 16.4202 13.2474 16.6669C13.4122 16.9135 13.5001 17.2036 13.5001 17.5002C13.5001 17.898 13.3421 18.2796 13.0608 18.5609C12.7795 18.8422 12.398 19.0002 12.0001 19.0002Z" fill="#141414"/>
</svg>
