<svg width="24" height="24" viewBox="0 0 24 24" fill="none" xmlns="http://www.w3.org/2000/svg">
<path d="M19.7201 5.66L16.1501 9.23C16.6468 9.98378 16.9302 10.858 16.9702 11.7598C17.0102 12.6617 16.8052 13.5575 16.3772 14.3523C15.9491 15.1471 15.3138 15.8111 14.5388 16.274C13.7637 16.7369 12.8778 16.9813 11.9751 16.9813C11.0724 16.9813 10.1865 16.7369 9.41144 16.274C8.6364 15.8111 8.00113 15.1471 7.57304 14.3523C7.14496 13.5575 6.94003 12.6617 6.98001 11.7598C7.01999 10.858 7.30338 9.98378 7.8001 9.23L4.2301 5.66C3.0331 7.12557 2.27649 8.90069 2.04816 10.7791C1.81984 12.6576 2.12918 14.5623 2.94024 16.2719C3.75131 17.9816 5.0308 19.426 6.63009 20.4374C8.22939 21.4488 10.0828 21.9857 11.9751 21.9857C13.8674 21.9857 15.7208 21.4488 17.3201 20.4374C18.9194 19.426 20.1989 17.9816 21.01 16.2719C21.821 14.5623 22.1304 12.6576 21.902 10.7791C21.6737 8.90069 20.9171 7.12557 19.7201 5.66ZM14.7201 7.82L18.3001 4.25C16.5146 2.79199 14.2803 1.99561 11.9751 1.99561C9.66995 1.99561 7.43558 2.79199 5.6501 4.25L9.2201 7.82C10.0376 7.28026 10.9955 6.99253 11.9751 6.99253C12.9547 6.99253 13.9127 7.28026 14.7301 7.82H14.7201Z" fill="#141414"/>
</svg>
