<svg width="24" height="24" viewBox="0 0 24 24" fill="none" xmlns="http://www.w3.org/2000/svg">
<path fill-rule="evenodd" clip-rule="evenodd" d="M7.27762 5.38857C7.27762 6.43186 6.43186 7.27762 5.38857 7.27762C4.34527 7.27762 3.49951 6.43186 3.49951 5.38857C3.49951 4.34527 4.34527 3.49951 5.38857 3.49951C6.43186 3.49951 7.27762 4.34527 7.27762 5.38857ZM13.8889 5.38859C13.8889 6.43189 13.0431 7.27765 11.9998 7.27765C10.9565 7.27765 10.1108 6.43189 10.1108 5.38859C10.1108 4.34529 10.9565 3.49953 11.9998 3.49953C13.0431 3.49953 13.8889 4.34529 13.8889 5.38859ZM18.6112 7.27762C19.6545 7.27762 20.5003 6.43186 20.5003 5.38857C20.5003 4.34527 19.6545 3.49951 18.6112 3.49951C17.5679 3.49951 16.7222 4.34527 16.7222 5.38857C16.7222 6.43186 17.5679 7.27762 18.6112 7.27762ZM7.27762 12.0009C7.27762 13.0442 6.43186 13.89 5.38857 13.89C4.34527 13.89 3.49951 13.0442 3.49951 12.0009C3.49951 10.9577 4.34527 10.1119 5.38857 10.1119C6.43186 10.1119 7.27762 10.9577 7.27762 12.0009ZM11.9999 13.8904C13.0432 13.8904 13.889 13.0447 13.889 12.0014C13.889 10.9581 13.0432 10.1123 11.9999 10.1123C10.9566 10.1123 10.1108 10.9581 10.1108 12.0014C10.1108 13.0447 10.9566 13.8904 11.9999 13.8904ZM20.5003 12.0014C20.5003 13.0447 19.6545 13.8904 18.6112 13.8904C17.5679 13.8904 16.7222 13.0447 16.7222 12.0014C16.7222 10.9581 17.5679 10.1123 18.6112 10.1123C19.6545 10.1123 20.5003 10.9581 20.5003 12.0014ZM5.38857 20.5013C6.43186 20.5013 7.27762 19.6555 7.27762 18.6122C7.27762 17.5689 6.43186 16.7231 5.38857 16.7231C4.34527 16.7231 3.49951 17.5689 3.49951 18.6122C3.49951 19.6555 4.34527 20.5013 5.38857 20.5013ZM13.8889 18.6128C13.8889 19.656 13.0431 20.5018 11.9998 20.5018C10.9565 20.5018 10.1108 19.656 10.1108 18.6128C10.1108 17.5695 10.9565 16.7237 11.9998 16.7237C13.0431 16.7237 13.8889 17.5695 13.8889 18.6128ZM18.6112 20.5017C19.6545 20.5017 20.5003 19.656 20.5003 18.6127C20.5003 17.5694 19.6545 16.7236 18.6112 16.7236C17.5679 16.7236 16.7222 17.5694 16.7222 18.6127C16.7222 19.656 17.5679 20.5017 18.6112 20.5017Z" fill="#141414"/>
</svg>
