<svg width="24" height="24" viewBox="0 0 24 24" fill="none" xmlns="http://www.w3.org/2000/svg">
<path d="M15.9999 3C15.011 3 14.0443 3.29324 13.222 3.84265C12.3998 4.39206 11.7589 5.17295 11.3805 6.08658C11.0021 7.00021 10.903 8.00555 11.096 8.97545C11.2889 9.94536 11.7651 10.8363 12.4644 11.5355C13.1636 12.2348 14.0545 12.711 15.0244 12.9039C15.9944 13.0969 16.9997 12.9978 17.9133 12.6194C18.8269 12.241 19.6078 11.6001 20.1572 10.7779C20.7067 9.95561 20.9999 8.98891 20.9999 8C20.9999 6.67392 20.4731 5.40215 19.5354 4.46447C18.5978 3.52678 17.326 3 15.9999 3ZM9.2499 9.81L4.5699 16.24C4.12 16.8392 3.91065 17.5851 3.98303 18.331C4.05541 19.0768 4.40428 19.7685 4.961 20.2701C5.51772 20.7716 6.24198 21.0467 6.99129 21.0411C7.74059 21.0355 8.46069 20.7498 9.0099 20.24L14.9199 14.92C13.5817 14.7083 12.3336 14.1129 11.3271 13.2058C10.3207 12.2988 9.59908 11.1191 9.2499 9.81ZM8.9999 16.5C8.80212 16.5 8.60878 16.4414 8.44433 16.3315C8.27988 16.2216 8.15171 16.0654 8.07602 15.8827C8.00033 15.7 7.98053 15.4989 8.01911 15.3049C8.0577 15.1109 8.15294 14.9327 8.29279 14.7929C8.43265 14.653 8.61083 14.5578 8.80481 14.5192C8.99879 14.4806 9.19986 14.5004 9.38258 14.5761C9.56531 14.6518 9.72149 14.78 9.83137 14.9444C9.94125 15.1089 9.9999 15.3022 9.9999 15.5C9.9999 15.7652 9.89454 16.0196 9.70701 16.2071C9.51947 16.3946 9.26512 16.5 8.9999 16.5Z" fill="#141414"/>
</svg>
