<svg width="24" height="24" viewBox="0 0 24 24" fill="none" xmlns="http://www.w3.org/2000/svg">
<path d="M20 3H4C3.46957 3 2.96086 3.21071 2.58579 3.58579C2.21071 3.96086 2 4.46957 2 5V6C2 6.26522 2.10536 6.51957 2.29289 6.70711C2.48043 6.89464 2.73478 7 3 7H21C21.2652 7 21.5196 6.89464 21.7071 6.70711C21.8946 6.51957 22 6.26522 22 6V5C22 4.46957 21.7893 3.96086 21.4142 3.58579C21.0391 3.21071 20.5304 3 20 3ZM4 18C4 18.7956 4.31607 19.5587 4.87868 20.1213C5.44129 20.6839 6.20435 21 7 21H17C17.7956 21 18.5587 20.6839 19.1213 20.1213C19.6839 19.5587 20 18.7956 20 18V9H4V18ZM10 12H14C14.2652 12 14.5196 12.1054 14.7071 12.2929C14.8946 12.4804 15 12.7348 15 13C15 13.2652 14.8946 13.5196 14.7071 13.7071C14.5196 13.8946 14.2652 14 14 14H10C9.73478 14 9.48043 13.8946 9.29289 13.7071C9.10536 13.5196 9 13.2652 9 13C9 12.7348 9.10536 12.4804 9.29289 12.2929C9.48043 12.1054 9.73478 12 10 12Z" fill="#141414"/>
</svg>
