<svg width="24" height="24" viewBox="0 0 24 24" fill="none" xmlns="http://www.w3.org/2000/svg">
<path d="M4.00001 10.9999H4.20001H4.40001C4.64671 11.5967 5.00667 12.14 5.46001 12.5999L5.76001 12.8899L5.29001 13.3499C5.12981 13.5182 5.03321 13.737 5.01678 13.9687C5.00036 14.2005 5.06514 14.4307 5.20001 14.6199L14.56 5.19988C14.3708 5.06502 14.1406 5.00023 13.9088 5.01666C13.6771 5.03308 13.4583 5.12969 13.29 5.28988L12.83 5.75988L12.54 5.45988C12.0801 5.00654 11.5368 4.64658 10.94 4.39988V4.19988C10.9663 4.06856 10.9664 3.93335 10.9404 3.80198C10.9144 3.6706 10.8628 3.54563 10.7885 3.4342C10.7143 3.32277 10.6187 3.22706 10.5075 3.15254C10.3962 3.07802 10.2713 3.02615 10.14 2.99988C9.87479 2.94684 9.59937 3.00133 9.37432 3.15135C9.26289 3.22564 9.16719 3.32115 9.09267 3.43242C9.01815 3.5437 8.96627 3.66856 8.94001 3.79988L9.00001 3.99988C8.0253 4.00356 7.07292 4.29206 6.26001 4.82988L5.73001 4.28988C5.63677 4.19533 5.52582 4.12007 5.4035 4.0684C5.28117 4.01672 5.14987 3.98965 5.01708 3.98872C4.7489 3.98684 4.49097 4.09158 4.30001 4.27988C4.10905 4.46819 4.00072 4.72463 3.99885 4.99281C3.99697 5.26099 4.10171 5.51893 4.29001 5.70988L4.83001 6.23988C4.28844 7.05847 3.99978 8.01836 4.00001 8.99988H3.80001C3.53479 9.0264 3.29098 9.1572 3.12219 9.36349C2.95341 9.56978 2.87349 9.83467 2.90001 10.0999C2.92653 10.3651 3.05732 10.6089 3.26361 10.7777C3.4699 10.9465 3.73479 11.0264 4.00001 10.9999ZM7.00001 7.99988C7.19779 7.99988 7.39113 8.05853 7.55558 8.16841C7.72003 8.27829 7.8482 8.43447 7.92389 8.6172C7.99958 8.79992 8.01938 9.00099 7.9808 9.19497C7.94221 9.38895 7.84697 9.56714 7.70712 9.70699C7.56726 9.84684 7.38908 9.94208 7.1951 9.98067C7.00112 10.0193 6.80005 9.99945 6.61733 9.92376C6.4346 9.84807 6.27842 9.7199 6.16854 9.55545C6.05866 9.391 6.00001 9.19766 6.00001 8.99988C6.00001 8.73467 6.10537 8.48031 6.2929 8.29278C6.48044 8.10524 6.73479 7.99988 7.00001 7.99988ZM19.8 12.9999H19.6C19.3533 12.4031 18.9934 11.8598 18.54 11.3999L18.24 11.1099L18.71 10.6499C18.8032 10.5566 18.8772 10.446 18.9277 10.3241C18.9781 10.2023 19.0041 10.0717 19.0041 9.93988C19.0041 9.80802 18.9781 9.67746 18.9277 9.55563C18.8772 9.43381 18.8032 9.32312 18.71 9.22988C18.6168 9.13664 18.5061 9.06268 18.3843 9.01222C18.2624 8.96176 18.1319 8.93579 18 8.93579C17.8682 8.93579 17.7376 8.96176 17.6158 9.01222C17.4939 9.06268 17.3833 9.13664 17.29 9.22988L16.83 9.69988L16.24 9.10988L20.71 4.64988C20.8032 4.55664 20.8772 4.44595 20.9277 4.32413C20.9781 4.20231 21.0041 4.07174 21.0041 3.93988C21.0041 3.80802 20.9781 3.67746 20.9277 3.55563C20.8772 3.43381 20.8032 3.32312 20.71 3.22988C20.6168 3.13664 20.5061 3.06268 20.3843 3.01222C20.2624 2.96176 20.1319 2.93579 20 2.93579C19.8682 2.93579 19.7376 2.96176 19.6158 3.01222C19.4939 3.06268 19.3832 3.13664 19.29 3.22988L3.29001 19.2299C3.19628 19.3228 3.12189 19.4334 3.07112 19.5553C3.02035 19.6772 2.99421 19.8079 2.99421 19.9399C2.99421 20.0719 3.02035 20.2026 3.07112 20.3245C3.12189 20.4463 3.19628 20.5569 3.29001 20.6499C3.38297 20.7436 3.49357 20.818 3.61543 20.8688C3.73729 20.9195 3.868 20.9457 4.00001 20.9457C4.13202 20.9457 4.26273 20.9195 4.38459 20.8688C4.50645 20.818 4.61705 20.7436 4.71001 20.6499L9.17001 16.1799L9.76001 16.7699L9.29001 17.2299C9.19628 17.3228 9.12189 17.4334 9.07112 17.5553C9.02035 17.6772 8.99421 17.8079 8.99421 17.9399C8.99421 18.0719 9.02035 18.2026 9.07112 18.3245C9.12189 18.4463 9.19628 18.5569 9.29001 18.6499C9.38297 18.7436 9.49357 18.818 9.61543 18.8688C9.73729 18.9195 9.868 18.9457 10 18.9457C10.132 18.9457 10.2627 18.9195 10.3846 18.8688C10.5064 18.818 10.617 18.7436 10.71 18.6499L11.17 18.1799L11.46 18.4799C11.9199 18.9332 12.4632 19.2932 13.06 19.5399V19.7399C13.0211 19.8713 13.0095 20.0092 13.0261 20.1452C13.0427 20.2812 13.0871 20.4124 13.1565 20.5305C13.2259 20.6487 13.3188 20.7513 13.4295 20.832C13.5402 20.9128 13.6663 20.9699 13.8 20.9999H14C14.234 21.0046 14.4621 20.9271 14.6449 20.781C14.8276 20.6348 14.9533 20.4292 15 20.1999V19.9999C15.9747 19.9962 16.9271 19.7077 17.74 19.1699L18.27 19.7099C18.363 19.8036 18.4736 19.878 18.5954 19.9288C18.7173 19.9795 18.848 20.0057 18.98 20.0057C19.112 20.0057 19.2427 19.9795 19.3646 19.9288C19.4864 19.878 19.597 19.8036 19.69 19.7099C19.7837 19.6169 19.8581 19.5063 19.9089 19.3845C19.9597 19.2626 19.9858 19.1319 19.9858 18.9999C19.9858 18.8679 19.9597 18.7372 19.9089 18.6153C19.8581 18.4934 19.7837 18.3828 19.69 18.2899L19.15 17.7599C19.6986 16.9435 19.9943 15.9835 20 14.9999H20.2C20.4652 14.9468 20.6985 14.7906 20.8485 14.5656C20.9986 14.3405 21.0531 14.0651 21 13.7999C20.947 13.5347 20.7907 13.3014 20.5657 13.1514C20.3407 13.0013 20.0652 12.9468 19.8 12.9999ZM14 17.9999C13.8022 17.9999 13.6089 17.9412 13.4444 17.8314C13.28 17.7215 13.1518 17.5653 13.0761 17.3826C13.0004 17.1998 12.9806 16.9988 13.0192 16.8048C13.0578 16.6108 13.1531 16.4326 13.2929 16.2928C13.4328 16.1529 13.6109 16.0577 13.8049 16.0191C13.9989 15.9805 14.2 16.0003 14.3827 16.076C14.5654 16.1517 14.7216 16.2799 14.8315 16.4443C14.9414 16.6088 15 16.8021 15 16.9999C15 17.2651 14.8947 17.5195 14.7071 17.707C14.5196 17.8945 14.2652 17.9999 14 17.9999ZM16 13.9999C15.8022 13.9999 15.6089 13.9412 15.4444 13.8314C15.28 13.7215 15.1518 13.5653 15.0761 13.3826C15.0004 13.1998 14.9806 12.9988 15.0192 12.8048C15.0578 12.6108 15.1531 12.4326 15.2929 12.2928C15.4328 12.1529 15.6109 12.0577 15.8049 12.0191C15.9989 11.9805 16.2 12.0003 16.3827 12.076C16.5654 12.1517 16.7216 12.2799 16.8315 12.4443C16.9414 12.6088 17 12.8021 17 12.9999C17 13.2651 16.8947 13.5195 16.7071 13.707C16.5196 13.8945 16.2652 13.9999 16 13.9999Z" fill="#141414"/>
</svg>
