<svg width="24" height="24" viewBox="0 0 24 24" fill="none" xmlns="http://www.w3.org/2000/svg">
<path d="M3 7V18C3 18.7956 3.31607 19.5587 3.87868 20.1213C4.44129 20.6839 5.20435 21 6 21H7.17L10 8.65L3 7ZM18 3H6C5.38106 3.00174 4.7778 3.19488 4.27293 3.55294C3.76807 3.911 3.38631 4.41645 3.18 5L21 9.13V6C21 5.20435 20.6839 4.44129 20.1213 3.87868C19.5587 3.31607 18.7956 3 18 3ZM9.22 21H18C18.7956 21 19.5587 20.6839 20.1213 20.1213C20.6839 19.5587 21 18.7956 21 18V11.18L12 9.1L9.22 21ZM14.3 12.94C14.5573 12.4745 14.9889 12.1304 15.4999 11.9831C15.753 11.9102 16.0179 11.8879 16.2796 11.9174C16.5412 11.9469 16.7945 12.0276 17.025 12.155C17.2555 12.2824 17.4586 12.4539 17.6228 12.6598C17.787 12.8657 17.909 13.1019 17.9819 13.3549C18.0548 13.608 18.0771 13.8729 18.0476 14.1346C18.0181 14.3962 17.9374 14.6495 17.81 14.88L16.45 17.72C16.4091 17.8045 16.3451 17.8758 16.2655 17.9257C16.186 17.9756 16.0939 18.0021 16 18.0021C15.9061 18.0021 15.814 17.9756 15.7345 17.9257C15.6549 17.8758 15.5909 17.8045 15.55 17.72L14.19 14.88C14.0419 14.5739 13.9743 14.2352 13.9936 13.8957C14.0128 13.5563 14.1183 13.2274 14.3 12.94Z" fill="#141414"/>
</svg>
