<svg width="24" height="24" viewBox="0 0 24 24" fill="none" xmlns="http://www.w3.org/2000/svg">
<path d="M12 22.0002C12.5304 22.0002 13.0391 21.7895 13.4142 21.4144C13.7893 21.0393 14 20.5306 14 20.0002H10C10 20.5306 10.2107 21.0393 10.5858 21.4144C10.9609 21.7895 11.4696 22.0002 12 22.0002ZM16 17.0002V14.0002C16 12.9393 15.5786 11.9219 14.8284 11.1717C14.0783 10.4216 13.0609 10.0002 12 10.0002C10.9391 10.0002 9.92173 10.4216 9.17158 11.1717C8.42144 11.9219 8.00001 12.9393 8.00001 14.0002V17.0002C7.73479 17.0002 7.48044 17.1055 7.2929 17.2931C7.10537 17.4806 7.00001 17.7349 7.00001 18.0002C7.00001 18.2654 7.10537 18.5197 7.2929 18.7073C7.48044 18.8948 7.73479 19.0002 8.00001 19.0002H16C16.2652 19.0002 16.5196 18.8948 16.7071 18.7073C16.8947 18.5197 17 18.2654 17 18.0002C17 17.7349 16.8947 17.4806 16.7071 17.2931C16.5196 17.1055 16.2652 17.0002 16 17.0002ZM9.61001 8.82016C10.3006 8.30559 11.1388 8.02764 12 8.02764C12.8612 8.02764 13.6994 8.30559 14.39 8.82016C14.6009 8.98195 14.8673 9.05334 15.1308 9.01865C15.3943 8.98396 15.6332 8.84601 15.795 8.63517C15.9568 8.42432 16.0282 8.15784 15.9935 7.89435C15.9588 7.63086 15.8209 7.39195 15.61 7.23017C14.5696 6.44649 13.3025 6.02265 12 6.02265C10.6975 6.02265 9.43038 6.44649 8.39001 7.23017C8.28561 7.31027 8.19801 7.41016 8.13221 7.52412C8.06641 7.63808 8.0237 7.76388 8.00652 7.89435C7.98934 8.02482 7.99803 8.15739 8.03209 8.2845C8.06614 8.41161 8.1249 8.53076 8.20501 8.63517C8.36679 8.84601 8.60571 8.98396 8.86919 9.01865C8.99966 9.03583 9.13223 9.02714 9.25934 8.99309C9.38645 8.95903 9.50561 8.90027 9.61001 8.82016ZM18.67 4.56016C16.8362 2.91847 14.4613 2.01074 12 2.01074C9.53869 2.01074 7.16383 2.91847 5.33001 4.56016C5.13242 4.73786 5.01352 4.98677 4.99945 5.25213C4.98539 5.5175 5.07731 5.77758 5.25501 5.97516C5.4327 6.17275 5.68161 6.29166 5.94698 6.30572C6.21234 6.31979 6.47242 6.22786 6.67001 6.05017C8.13632 4.74013 10.0337 4.01599 12 4.01599C13.9663 4.01599 15.8637 4.74013 17.33 6.05017C17.5149 6.21323 17.7535 6.30227 18 6.30017C18.1373 6.30367 18.2739 6.27885 18.4013 6.22723C18.5286 6.17562 18.6439 6.09832 18.74 6.00016C18.8324 5.90226 18.9041 5.7867 18.9507 5.66041C18.9974 5.53413 19.0181 5.39973 19.0116 5.26526C19.005 5.1308 18.9714 4.99903 18.9127 4.87787C18.854 4.75671 18.7715 4.64865 18.67 4.56016Z" fill="#141414"/>
</svg>
