<svg width="24" height="24" viewBox="0 0 24 24" fill="none" xmlns="http://www.w3.org/2000/svg">
<path d="M14.9999 17.0001H12.9999V7.00006H14.9999C15.3999 7.00006 15.7699 6.76006 15.9199 6.38006C16.0699 6.00006 15.9899 5.58006 15.6999 5.29006L12.6999 2.29006C12.3099 1.90006 11.6799 1.90006 11.2899 2.29006L8.28993 5.29006C7.99993 5.58006 7.91993 6.01006 8.06993 6.38006C8.21993 6.75006 8.58993 7.00006 8.98993 7.00006H10.9899V17.0001H8.98993C8.58993 17.0001 8.21993 17.2401 8.06993 17.6201C7.91993 18.0001 7.99993 18.4201 8.28993 18.7101L11.2899 21.7101C11.4899 21.9101 11.7399 22.0001 11.9999 22.0001C12.2599 22.0001 12.5099 21.9001 12.7099 21.7101L15.7099 18.7101C15.9999 18.4201 16.0799 17.9901 15.9299 17.6201C15.7799 17.2501 15.4099 17.0001 15.0099 17.0001H14.9999Z" fill="#141414"/>
</svg>
