<svg width="24" height="24" viewBox="0 0 24 24" fill="none" xmlns="http://www.w3.org/2000/svg">
<path d="M4 7C4.19778 7 4.39112 6.94135 4.55557 6.83147C4.72002 6.72159 4.84819 6.56541 4.92388 6.38268C4.99957 6.19996 5.01937 5.99889 4.98079 5.80491C4.9422 5.61093 4.84696 5.43275 4.70711 5.29289C4.56725 5.15304 4.38907 5.0578 4.19509 5.01921C4.00111 4.98063 3.80004 5.00043 3.61732 5.07612C3.43459 5.15181 3.27841 5.27998 3.16853 5.44443C3.05865 5.60888 3 5.80222 3 6C3 6.26522 3.10536 6.51957 3.29289 6.70711C3.48043 6.89464 3.73478 7 4 7ZM4 17C3.80222 17 3.60888 17.0586 3.44443 17.1685C3.27998 17.2784 3.15181 17.4346 3.07612 17.6173C3.00043 17.8 2.98063 18.0011 3.01922 18.1951C3.0578 18.3891 3.15304 18.5673 3.29289 18.7071C3.43275 18.847 3.61093 18.9422 3.80491 18.9808C3.99889 19.0194 4.19996 18.9996 4.38268 18.9239C4.56541 18.8482 4.72159 18.72 4.83147 18.5556C4.94135 18.3911 5 18.1978 5 18C5 17.7348 4.89464 17.4804 4.70711 17.2929C4.51957 17.1054 4.26522 17 4 17ZM4 13C4.19778 13 4.39112 12.9414 4.55557 12.8315C4.72002 12.7216 4.84819 12.5654 4.92388 12.3827C4.99957 12.2 5.01937 11.9989 4.98079 11.8049C4.9422 11.6109 4.84696 11.4327 4.70711 11.2929C4.56725 11.153 4.38907 11.0578 4.19509 11.0192C4.00111 10.9806 3.80004 11.0004 3.61732 11.0761C3.43459 11.1518 3.27841 11.28 3.16853 11.4444C3.05865 11.6089 3 11.8022 3 12C3 12.2652 3.10536 12.5196 3.29289 12.7071C3.48043 12.8946 3.73478 13 4 13ZM6 14C5.80222 14 5.60888 14.0586 5.44443 14.1685C5.27998 14.2784 5.15181 14.4346 5.07612 14.6173C5.00043 14.8 4.98063 15.0011 5.01922 15.1951C5.0578 15.3891 5.15304 15.5673 5.29289 15.7071C5.43275 15.847 5.61093 15.9422 5.80491 15.9808C5.99889 16.0194 6.19996 15.9996 6.38268 15.9239C6.56541 15.8482 6.72159 15.72 6.83147 15.5556C6.94135 15.3911 7 15.1978 7 15C7 14.7348 6.89464 14.4804 6.70711 14.2929C6.51957 14.1054 6.26522 14 6 14ZM6 8C5.80222 8 5.60888 8.05865 5.44443 8.16853C5.27998 8.27841 5.15181 8.43459 5.07612 8.61732C5.00043 8.80004 4.98063 9.00111 5.01922 9.19509C5.0578 9.38907 5.15304 9.56725 5.29289 9.70711C5.43275 9.84696 5.61093 9.9422 5.80491 9.98079C5.99889 10.0194 6.19996 9.99957 6.38268 9.92388C6.56541 9.84819 6.72159 9.72002 6.83147 9.55557C6.94135 9.39112 7 9.19778 7 9C7 8.73478 6.89464 8.48043 6.70711 8.29289C6.51957 8.10536 6.26522 8 6 8ZM18.71 13.29C18.5217 13.1017 18.2663 12.9959 18 12.9959C17.7337 12.9959 17.4783 13.1017 17.29 13.29C17.1017 13.4783 16.9959 13.7337 16.9959 14C16.9959 14.2663 17.1017 14.5217 17.29 14.71L17.59 15H13V9H17.59L17.29 9.29C17.1963 9.38296 17.1219 9.49356 17.0711 9.61542C17.0203 9.73728 16.9942 9.86799 16.9942 10C16.9942 10.132 17.0203 10.2627 17.0711 10.3846C17.1219 10.5064 17.1963 10.617 17.29 10.71C17.383 10.8037 17.4936 10.8781 17.6154 10.9289C17.7373 10.9797 17.868 11.0058 18 11.0058C18.132 11.0058 18.2627 10.9797 18.3846 10.9289C18.5064 10.8781 18.617 10.8037 18.71 10.71L20.71 8.71C20.8037 8.61704 20.8781 8.50644 20.9289 8.38458C20.9797 8.26272 21.0058 8.13201 21.0058 8C21.0058 7.86799 20.9797 7.73728 20.9289 7.61542C20.8781 7.49356 20.8037 7.38296 20.71 7.29L18.71 5.29C18.6168 5.19676 18.5061 5.1228 18.3842 5.07234C18.2624 5.02188 18.1319 4.99591 18 4.99591C17.7337 4.99591 17.4783 5.1017 17.29 5.29C17.1017 5.4783 16.9959 5.7337 16.9959 6C16.9959 6.2663 17.1017 6.5217 17.29 6.71L17.59 7H13V4C13 3.73478 12.8946 3.48043 12.7071 3.29289C12.5196 3.10536 12.2652 3 12 3H10C9.73478 3 9.48043 3.10536 9.29289 3.29289C9.10536 3.48043 9 3.73478 9 4V20C9 20.2652 9.10536 20.5196 9.29289 20.7071C9.48043 20.8946 9.73478 21 10 21H12C12.2652 21 12.5196 20.8946 12.7071 20.7071C12.8946 20.5196 13 20.2652 13 20V17H17.59L17.29 17.29C17.1963 17.383 17.1219 17.4936 17.0711 17.6154C17.0203 17.7373 16.9942 17.868 16.9942 18C16.9942 18.132 17.0203 18.2627 17.0711 18.3846C17.1219 18.5064 17.1963 18.617 17.29 18.71C17.383 18.8037 17.4936 18.8781 17.6154 18.9289C17.7373 18.9797 17.868 19.0058 18 19.0058C18.132 19.0058 18.2627 18.9797 18.3846 18.9289C18.5064 18.8781 18.617 18.8037 18.71 18.71L20.71 16.71C20.8037 16.617 20.8781 16.5064 20.9289 16.3846C20.9797 16.2627 21.0058 16.132 21.0058 16C21.0058 15.868 20.9797 15.7373 20.9289 15.6154C20.8781 15.4936 20.8037 15.383 20.71 15.29L18.71 13.29Z" fill="#141414"/>
</svg>
