<svg width="24" height="24" viewBox="0 0 24 24" fill="none" xmlns="http://www.w3.org/2000/svg">
<path d="M18 3H6C5.20435 3 4.44129 3.31607 3.87868 3.87868C3.31607 4.44129 3 5.20435 3 6V18C3 18.7956 3.31607 19.5587 3.87868 20.1213C4.44129 20.6839 5.20435 21 6 21H18C18.7956 21 19.5587 20.6839 20.1213 20.1213C20.6839 19.5587 21 18.7956 21 18V6C21 5.20435 20.6839 4.44129 20.1213 3.87868C19.5587 3.31607 18.7956 3 18 3ZM16.6 12.29C16.4269 12.4198 16.2164 12.49 16 12.49C15.8448 12.49 15.6916 12.4539 15.5528 12.3844C15.4139 12.315 15.2931 12.2142 15.2 12.09C15.1212 11.9849 15.0639 11.8654 15.0313 11.7382C14.9987 11.611 14.9915 11.4786 15.0101 11.3486C15.0286 11.2186 15.0726 11.0935 15.1395 10.9805C15.2064 10.8675 15.2949 10.7688 15.4 10.69C15.6049 10.5363 15.767 10.3328 15.8709 10.0987C15.9748 9.86462 16.0171 9.60783 15.9937 9.3528C15.9702 9.09777 15.8819 8.85298 15.7371 8.64176C15.5923 8.43054 15.3958 8.25992 15.1663 8.14615C14.9369 8.03238 14.6821 7.97926 14.4263 7.99183C14.1705 8.00441 13.9222 8.08227 13.705 8.218C13.4878 8.35373 13.309 8.54281 13.1856 8.76722C13.0622 8.99163 12.9983 9.2439 13 9.5V17C13 17.2652 12.8946 17.5196 12.7071 17.7071C12.5196 17.8946 12.2652 18 12 18C11.7348 18 11.4804 17.8946 11.2929 17.7071C11.1054 17.5196 11 17.2652 11 17V9.5C11.0017 9.2439 10.9378 8.99163 10.8144 8.76722C10.691 8.54281 10.5122 8.35373 10.295 8.218C10.0778 8.08227 9.8295 8.00441 9.5737 7.99183C9.3179 7.97926 9.06315 8.03238 8.8337 8.14615C8.60425 8.25992 8.40775 8.43054 8.26292 8.64176C8.11809 8.85298 8.02975 9.09777 8.00632 9.3528C7.98289 9.60783 8.02515 9.86462 8.12908 10.0987C8.233 10.3328 8.39512 10.5363 8.6 10.69C8.81217 10.8491 8.95244 11.086 8.98995 11.3486C9.02746 11.6111 8.95913 11.8778 8.8 12.09C8.70685 12.2142 8.58607 12.315 8.44721 12.3844C8.30836 12.4539 8.15525 12.49 8 12.49C7.78363 12.49 7.5731 12.4198 7.4 12.29C7.02164 11.9987 6.70707 11.6329 6.47577 11.2151C6.24447 10.7974 6.10135 10.3367 6.05527 9.86138C6.00919 9.38611 6.06112 8.90644 6.20787 8.45205C6.35461 7.99766 6.59303 7.57821 6.90839 7.21967C7.22375 6.86112 7.60933 6.5711 8.04127 6.36755C8.47321 6.16401 8.94233 6.05126 9.41959 6.03629C9.89685 6.02133 10.3721 6.10446 10.816 6.28054C11.2598 6.45663 11.6628 6.72192 12 7.06C12.3372 6.72192 12.7402 6.45663 13.184 6.28054C13.6279 6.10446 14.1031 6.02133 14.5804 6.03629C15.0577 6.05126 15.5268 6.16401 15.9587 6.36755C16.3907 6.5711 16.7763 6.86112 17.0916 7.21967C17.407 7.57821 17.6454 7.99766 17.7921 8.45205C17.9389 8.90644 17.9908 9.38611 17.9447 9.86138C17.8987 10.3367 17.7555 10.7974 17.5242 11.2151C17.2929 11.6329 16.9784 11.9987 16.6 12.29Z" fill="#141414"/>
</svg>
