<svg width="24" height="24" viewBox="0 0 24 24" fill="none" xmlns="http://www.w3.org/2000/svg">
<path d="M13.84 3L13.35 2.55C12.9813 2.2127 12.4997 2.02563 12 2.02563C11.5003 2.02563 11.0187 2.2127 10.65 2.55L10.16 3C5.62999 7.14 2.99999 10.2 2.99999 13.56C2.98931 14.274 3.1214 14.9829 3.38849 15.6451C3.65558 16.3073 4.0523 16.9095 4.55534 17.4162C5.05838 17.923 5.65761 18.3242 6.31783 18.5961C6.97805 18.8681 7.68596 19.0054 8.39999 19C9.19531 18.9817 9.97563 18.7798 10.68 18.41L9.60999 20.55C9.53328 20.7022 9.49676 20.8715 9.50389 21.0419C9.51103 21.2122 9.56158 21.3778 9.65075 21.5231C9.73992 21.6684 9.86476 21.7885 10.0134 21.8719C10.162 21.9554 10.3295 21.9995 10.5 22H13.5C13.6705 21.9995 13.838 21.9554 13.9866 21.8719C14.1352 21.7885 14.2601 21.6684 14.3492 21.5231C14.4384 21.3778 14.489 21.2122 14.4961 21.0419C14.5032 20.8715 14.4667 20.7022 14.39 20.55L13.32 18.41C14.0243 18.7798 14.8047 18.9817 15.6 19C16.314 19.0054 17.0219 18.8681 17.6822 18.5961C18.3424 18.3242 18.9416 17.923 19.4446 17.4162C19.9477 16.9095 20.3444 16.3073 20.6115 15.6451C20.8786 14.9829 21.0107 14.274 21 13.56C21 10.19 18.37 7.13 13.84 3Z" fill="#141414"/>
</svg>
