<svg width="24" height="24" viewBox="0 0 24 24" fill="none" xmlns="http://www.w3.org/2000/svg">
<path d="M17.87 7.34995C16.2656 6.81634 14.517 6.92383 12.99 7.64995V6.99995C12.9563 6.18159 12.7014 5.38767 12.2524 4.70268C11.8034 4.01769 11.177 3.46725 10.44 3.10995C10.3182 3.04878 10.1858 3.01144 10.05 2.99995C9.91781 2.97528 9.78219 2.97528 9.65 2.99995C9.51624 3.03281 9.39261 3.09806 9.29 3.18995C9.16512 3.27153 9.06485 3.38562 9 3.51995C8.93663 3.64034 8.90238 3.77392 8.9 3.90995C8.88974 4.0461 8.91025 4.18281 8.96 4.30995C9.00519 4.43981 9.07668 4.55896 9.17 4.65995C9.26621 4.7593 9.38198 4.83762 9.51 4.88995C9.91298 5.08396 10.2579 5.38055 10.51 5.74995C10.7779 6.11765 10.9467 6.54813 11 6.99995V7.64995C9.47303 6.92383 7.72441 6.81634 6.12 7.34995C4 8.19995 3 10.16 3 13.34C3 16.34 4.08 18.7699 6 20.0499C6.9477 20.6794 8.06235 21.0103 9.2 21C9.93882 20.9871 10.6724 20.8727 11.38 20.66C11.7846 20.5399 12.2154 20.5399 12.62 20.66C13.3276 20.8727 14.0612 20.9871 14.8 21C15.9428 20.9949 17.0577 20.6465 18 20C19.9 18.72 21 16.28 21 13.29C21 10.3 20 8.19995 17.87 7.34995Z" fill="#141414"/>
</svg>
