<svg width="24" height="24" viewBox="0 0 24 24" fill="none" xmlns="http://www.w3.org/2000/svg">
<path d="M3 13.11V19C3 20.43 6 21.62 10 21.92V19C10 18.4696 10.2107 17.9609 10.5858 17.5858C10.9609 17.2108 11.4696 17 12 17C12.5304 17 13.0391 17.2108 13.4142 17.5858C13.7893 17.9609 14 18.4696 14 19V21.92C18 21.62 21 20.43 21 19V13.11C18.83 14.46 15.25 15 12 15C8.75 15 5.17 14.46 3 13.11ZM12 13C17 13 21 11.66 21 10C21 9.11005 19.84 8.32005 18 7.77005V5.77005L19.32 4.94005C19.3902 4.89472 19.4479 4.83253 19.4878 4.75916C19.5278 4.6858 19.5487 4.60359 19.5487 4.52005C19.5487 4.43651 19.5278 4.3543 19.4878 4.28093C19.4479 4.20756 19.3902 4.14537 19.32 4.10005L16.77 2.50005C16.6959 2.45242 16.6106 2.4252 16.5227 2.42114C16.4347 2.41708 16.3472 2.43631 16.2691 2.47691C16.1909 2.5175 16.1249 2.578 16.0777 2.6523C16.0304 2.72661 16.0036 2.81207 16 2.90005V7.32005C14.6776 7.10489 13.3398 6.99787 12 7.00005V5.75005L13.32 4.92005C13.3902 4.87472 13.4479 4.81253 13.4878 4.73916C13.5278 4.6658 13.5487 4.58359 13.5487 4.50005C13.5487 4.41651 13.5278 4.3343 13.4878 4.26093C13.4479 4.18756 13.3902 4.12537 13.32 4.08005L10.77 2.48005C10.6945 2.43162 10.6074 2.40438 10.5178 2.40119C10.4281 2.39801 10.3393 2.41899 10.2606 2.46193C10.1818 2.50488 10.1161 2.56821 10.0703 2.64529C10.0244 2.72237 10.0001 2.81036 10 2.90005V7.08005C8.6455 7.16352 7.30419 7.39489 6 7.77005V5.77005L7.32 4.94005C7.39017 4.89472 7.44787 4.83253 7.48782 4.75916C7.52778 4.6858 7.54871 4.60359 7.54871 4.52005C7.54871 4.43651 7.52778 4.3543 7.48782 4.28093C7.44787 4.20756 7.39017 4.14537 7.32 4.10005L4.77 2.48005C4.69452 2.43162 4.6074 2.40438 4.51777 2.40119C4.42814 2.39801 4.33931 2.41899 4.26057 2.46193C4.18184 2.50488 4.11611 2.56821 4.07026 2.64529C4.02442 2.72237 4.00015 2.81036 4 2.90005V8.63005C3.7325 8.75718 3.50095 8.94905 3.32633 9.18828C3.15171 9.42751 3.03955 9.70652 3 10C3 11.66 7 13 12 13Z" fill="#141414"/>
</svg>
