<svg width="24" height="24" viewBox="0 0 24 24" fill="none" xmlns="http://www.w3.org/2000/svg">
<path d="M18 3H6C5.20435 3 4.44129 3.31607 3.87868 3.87868C3.31607 4.44129 3 5.20435 3 6V18C3 18.7956 3.31607 19.5587 3.87868 20.1213C4.44129 20.6839 5.20435 21 6 21H18C18.7956 21 19.5587 20.6839 20.1213 20.1213C20.6839 19.5587 21 18.7956 21 18V6C21 5.20435 20.6839 4.44129 20.1213 3.87868C19.5587 3.31607 18.7956 3 18 3ZM17 15C17 15.3956 16.8827 15.7822 16.6629 16.1111C16.4432 16.44 16.1308 16.6964 15.7654 16.8478C15.3999 16.9991 14.9978 17.0387 14.6098 16.9616C14.2219 16.8844 13.8655 16.6939 13.5858 16.4142C13.3061 16.1345 13.1156 15.7781 13.0384 15.3902C12.9613 15.0022 13.0009 14.6001 13.1522 14.2346C13.3036 13.8692 13.56 13.5568 13.8889 13.3371C14.2178 13.1173 14.6044 13 15 13V8.34L10 9.82V16C10 16.3956 9.8827 16.7822 9.66294 17.1111C9.44318 17.44 9.13082 17.6964 8.76537 17.8478C8.39991 17.9991 7.99778 18.0387 7.60982 17.9616C7.22186 17.8844 6.86549 17.6939 6.58579 17.4142C6.30608 17.1345 6.1156 16.7781 6.03843 16.3902C5.96126 16.0022 6.00087 15.6001 6.15224 15.2346C6.30362 14.8692 6.55996 14.5568 6.88886 14.3371C7.21776 14.1173 7.60444 14 8 14V9.08C7.99052 8.85814 8.05515 8.63944 8.18371 8.45838C8.31226 8.27732 8.49742 8.14419 8.71 8.08L15.71 6C15.8605 5.95488 16.0195 5.94586 16.1741 5.97365C16.3287 6.00145 16.4746 6.06529 16.6 6.16C16.7298 6.25712 16.834 6.38432 16.9036 6.53065C16.9733 6.67698 17.0064 6.83805 17 7V15Z" fill="#141414"/>
</svg>
