<svg width="24" height="24" viewBox="0 0 24 24" fill="none" xmlns="http://www.w3.org/2000/svg">
<path d="M6 6C5.73478 6 5.48043 6.10536 5.29289 6.29289C5.10536 6.48043 5 6.73478 5 7V17C5 17.2652 5.10536 17.5196 5.29289 17.7071C5.48043 17.8946 5.73478 18 6 18C6.26522 18 6.51957 17.8946 6.70711 17.7071C6.89464 17.5196 7 17.2652 7 17V7C7 6.73478 6.89464 6.48043 6.70711 6.29289C6.51957 6.10536 6.26522 6 6 6ZM9 9C8.73478 9 8.48043 9.10536 8.29289 9.29289C8.10536 9.48043 8 9.73478 8 10V14C8 14.2652 8.10536 14.5196 8.29289 14.7071C8.48043 14.8946 8.73478 15 9 15C9.26522 15 9.51957 14.8946 9.70711 14.7071C9.89464 14.5196 10 14.2652 10 14V10C10 9.73478 9.89464 9.48043 9.70711 9.29289C9.51957 9.10536 9.26522 9 9 9ZM3 9C2.73478 9 2.48043 9.10536 2.29289 9.29289C2.10536 9.48043 2 9.73478 2 10V14C2 14.2652 2.10536 14.5196 2.29289 14.7071C2.48043 14.8946 2.73478 15 3 15C3.26522 15 3.51957 14.8946 3.70711 14.7071C3.89464 14.5196 4 14.2652 4 14V10C4 9.73478 3.89464 9.48043 3.70711 9.29289C3.51957 9.10536 3.26522 9 3 9ZM21 10C20.7348 10 20.4804 10.1054 20.2929 10.2929C20.1054 10.4804 20 10.7348 20 11V13C20 13.2652 20.1054 13.5196 20.2929 13.7071C20.4804 13.8946 20.7348 14 21 14C21.2652 14 21.5196 13.8946 21.7071 13.7071C21.8946 13.5196 22 13.2652 22 13V11C22 10.7348 21.8946 10.4804 21.7071 10.2929C21.5196 10.1054 21.2652 10 21 10ZM12 3C11.7348 3 11.4804 3.10536 11.2929 3.29289C11.1054 3.48043 11 3.73478 11 4V20C11 20.2652 11.1054 20.5196 11.2929 20.7071C11.4804 20.8946 11.7348 21 12 21C12.2652 21 12.5196 20.8946 12.7071 20.7071C12.8946 20.5196 13 20.2652 13 20V4C13 3.73478 12.8946 3.48043 12.7071 3.29289C12.5196 3.10536 12.2652 3 12 3ZM18 6C17.7348 6 17.4804 6.10536 17.2929 6.29289C17.1054 6.48043 17 6.73478 17 7V17C17 17.2652 17.1054 17.5196 17.2929 17.7071C17.4804 17.8946 17.7348 18 18 18C18.2652 18 18.5196 17.8946 18.7071 17.7071C18.8946 17.5196 19 17.2652 19 17V7C19 6.73478 18.8946 6.48043 18.7071 6.29289C18.5196 6.10536 18.2652 6 18 6ZM15 8C14.7348 8 14.4804 8.10536 14.2929 8.29289C14.1054 8.48043 14 8.73478 14 9V15C14 15.2652 14.1054 15.5196 14.2929 15.7071C14.4804 15.8946 14.7348 16 15 16C15.2652 16 15.5196 15.8946 15.7071 15.7071C15.8946 15.5196 16 15.2652 16 15V9C16 8.73478 15.8946 8.48043 15.7071 8.29289C15.5196 8.10536 15.2652 8 15 8Z" fill="#141414"/>
</svg>
