<svg width="24" height="24" viewBox="0 0 24 24" fill="none" xmlns="http://www.w3.org/2000/svg">
<path d="M18 5H6.63C5.9356 5.00079 5.26297 5.24244 4.72683 5.68375C4.19069 6.12506 3.82425 6.7387 3.69 7.42L2.06 16.42C2.0217 16.611 2.00161 16.8052 2 17C2.00546 17.7035 2.25801 18.3828 2.71352 18.919C3.16902 19.4552 3.79849 19.8143 4.49189 19.9334C5.18529 20.0525 5.89851 19.9242 6.50687 19.5708C7.11523 19.2174 7.58002 18.6614 7.82 18H15.18C15.42 18.6614 15.8848 19.2174 16.4931 19.5708C17.1015 19.9242 17.8147 20.0525 18.5081 19.9334C19.2015 19.8143 19.831 19.4552 20.2865 18.919C20.742 18.3828 20.9945 17.7035 21 17V8C21 7.20435 20.6839 6.44129 20.1213 5.87868C19.5587 5.31607 18.7956 5 18 5ZM9 7H15V11H12C11.7348 11 11.4804 11.1054 11.2929 11.2929C11.1054 11.4804 11 11.7348 11 12V16H9V7ZM6.63 7H7V10H5.25L5.65 7.8C5.69611 7.57413 5.81884 7.37112 5.99742 7.22534C6.176 7.07956 6.39947 6.99995 6.63 7ZM5 18C4.80222 18 4.60888 17.9414 4.44443 17.8315C4.27998 17.7216 4.15181 17.5654 4.07612 17.3827C4.00043 17.2 3.98063 16.9989 4.01921 16.8049C4.0578 16.6109 4.15304 16.4327 4.29289 16.2929C4.43275 16.153 4.61093 16.0578 4.80491 16.0192C4.99889 15.9806 5.19996 16.0004 5.38268 16.0761C5.56541 16.1518 5.72159 16.28 5.83147 16.4444C5.94135 16.6089 6 16.8022 6 17C6 17.2652 5.89464 17.5196 5.70711 17.7071C5.51957 17.8946 5.26522 18 5 18ZM18 18C17.8022 18 17.6089 17.9414 17.4444 17.8315C17.28 17.7216 17.1518 17.5654 17.0761 17.3827C17.0004 17.2 16.9806 16.9989 17.0192 16.8049C17.0578 16.6109 17.153 16.4327 17.2929 16.2929C17.4327 16.153 17.6109 16.0578 17.8049 16.0192C17.9989 15.9806 18.2 16.0004 18.3827 16.0761C18.5654 16.1518 18.7216 16.28 18.8315 16.4444C18.9414 16.6089 19 16.8022 19 17C19 17.2652 18.8946 17.5196 18.7071 17.7071C18.5196 17.8946 18.2652 18 18 18Z" fill="#141414"/>
</svg>
