<svg width="24" height="24" viewBox="0 0 24 24" fill="none" xmlns="http://www.w3.org/2000/svg">
<path d="M18 3H6.00003C5.55305 3.00265 5.11231 3.10515 4.71003 3.3L20.71 19.3C20.9029 18.8939 21.002 18.4496 21 18V6C21 5.20435 20.684 4.44129 20.1213 3.87868C19.5587 3.31607 18.7957 3 18 3ZM3.00003 6V18C3.00003 18.7956 3.3161 19.5587 3.87871 20.1213C4.44132 20.6839 5.20438 21 6.00003 21H18C18.447 20.9974 18.8877 20.8949 19.29 20.7L3.29003 4.7C3.09717 5.10613 2.99806 5.55041 3.00003 6Z" fill="#141414"/>
</svg>
