<svg width="24" height="24" viewBox="0 0 24 24" fill="none" xmlns="http://www.w3.org/2000/svg">
<path d="M2.28994 12.7099L8.28994 18.7099C8.38318 18.8032 8.49387 18.8771 8.61569 18.9276C8.73751 18.9781 8.86808 19.004 8.99994 19.004C9.1318 19.004 9.26237 18.9781 9.38419 18.9276C9.50601 18.8771 9.6167 18.8032 9.70994 18.7099C9.80318 18.6167 9.87714 18.506 9.9276 18.3842C9.97806 18.2624 10.004 18.1318 10.004 17.9999C10.004 17.8681 9.97806 17.7375 9.9276 17.6157C9.87714 17.4939 9.80318 17.3832 9.70994 17.2899L5.40994 12.9999H20.9999C21.2652 12.9999 21.5195 12.8946 21.707 12.707C21.8946 12.5195 21.9999 12.2652 21.9999 11.9999C21.9999 11.7347 21.8946 11.4804 21.707 11.2928C21.5195 11.1053 21.2652 10.9999 20.9999 10.9999H5.40994L9.70994 6.70994C9.80367 6.61698 9.87806 6.50638 9.92883 6.38452C9.9796 6.26266 10.0057 6.13195 10.0057 5.99994C10.0057 5.86793 9.9796 5.73722 9.92883 5.61536C9.87806 5.4935 9.80367 5.3829 9.70994 5.28994C9.61698 5.19621 9.50637 5.12182 9.38452 5.07105C9.26266 5.02028 9.13195 4.99414 8.99994 4.99414C8.86793 4.99414 8.73722 5.02028 8.61536 5.07105C8.4935 5.12182 8.3829 5.19621 8.28994 5.28994L2.28994 11.2899C2.19621 11.3829 2.12182 11.4935 2.07105 11.6154C2.02028 11.7372 1.99414 11.8679 1.99414 11.9999C1.99414 12.132 2.02028 12.2627 2.07105 12.3845C2.12182 12.5064 2.19621 12.617 2.28994 12.7099Z" fill="#141414"/>
</svg>
