<svg width="24" height="24" viewBox="0 0 24 24" fill="none" xmlns="http://www.w3.org/2000/svg">
<path d="M18.7099 8.28994L12.7099 2.28994C12.617 2.19621 12.5064 2.12182 12.3845 2.07105C12.2627 2.02028 12.132 1.99414 11.9999 1.99414C11.8679 1.99414 11.7372 2.02028 11.6154 2.07105C11.4935 2.12182 11.3829 2.19621 11.2899 2.28994L5.28994 8.28994C5.10164 8.47824 4.99585 8.73364 4.99585 8.99994C4.99585 9.26624 5.10164 9.52164 5.28994 9.70994C5.47825 9.89824 5.73364 10.004 5.99994 10.004C6.26624 10.004 6.52164 9.89824 6.70994 9.70994L10.9999 5.40994V20.9999C10.9999 21.2652 11.1053 21.5195 11.2928 21.707C11.4804 21.8946 11.7347 21.9999 11.9999 21.9999C12.2652 21.9999 12.5195 21.8946 12.707 21.707C12.8946 21.5195 12.9999 21.2652 12.9999 20.9999V5.40994L17.2899 9.70994C17.3829 9.80367 17.4935 9.87806 17.6154 9.92883C17.7372 9.9796 17.8679 10.0057 17.9999 10.0057C18.132 10.0057 18.2627 9.9796 18.3845 9.92883C18.5064 9.87806 18.617 9.80367 18.7099 9.70994C18.8037 9.61698 18.8781 9.50637 18.9288 9.38452C18.9796 9.26266 19.0057 9.13195 19.0057 8.99994C19.0057 8.86793 18.9796 8.73722 18.9288 8.61536C18.8781 8.4935 18.8037 8.3829 18.7099 8.28994Z" fill="#141414"/>
</svg>
