<svg width="24" height="24" viewBox="0 0 24 24" fill="none" xmlns="http://www.w3.org/2000/svg">
<path d="M20.87 19.5L18 14.5C17.9121 14.3485 17.7859 14.2227 17.6341 14.1352C17.4823 14.0478 17.3102 14.0018 17.135 14.0018C16.9598 14.0018 16.7877 14.0478 16.6359 14.1352C16.4841 14.2227 16.3579 14.3485 16.27 14.5L14.76 17.11L10.63 10V8.5H14.3C14.4796 8.50428 14.657 8.4601 14.8136 8.37212C14.9702 8.28414 15.1002 8.15559 15.19 8C15.2674 7.8419 15.3017 7.66618 15.2894 7.4906C15.2771 7.31501 15.2187 7.14578 15.12 7L14.47 6L15.13 5C15.2178 4.84798 15.264 4.67554 15.264 4.5C15.264 4.32446 15.2178 4.15202 15.13 4C15.045 3.84032 14.9182 3.7067 14.7633 3.61336C14.6083 3.52003 14.4309 3.47048 14.25 3.47H10.45C10.3627 3.33012 10.2421 3.21401 10.099 3.13201C9.95597 3.05001 9.79484 3.00466 9.63001 3C9.36479 3 9.11044 3.10536 8.9229 3.29289C8.73536 3.48043 8.63001 3.73478 8.63001 4V10L3.13001 19.5C3.04224 19.652 2.99603 19.8245 2.99603 20C2.99603 20.1755 3.04224 20.348 3.13001 20.5C3.21811 20.6526 3.34498 20.7792 3.49775 20.867C3.65053 20.9548 3.8238 21.0007 4.00001 21H20C20.1762 21.0007 20.3495 20.9548 20.5023 20.867C20.655 20.7792 20.7819 20.6526 20.87 20.5C20.9578 20.348 21.004 20.1755 21.004 20C21.004 19.8245 20.9578 19.652 20.87 19.5Z" fill="#141414"/>
</svg>
