<svg width="24" height="24" viewBox="0 0 24 24" fill="none" xmlns="http://www.w3.org/2000/svg">
<path d="M11 9.00008C11 9.26529 11.1054 9.51965 11.2929 9.70718C11.4804 9.89472 11.7348 10.0001 12 10.0001C13.5558 10.0338 15.0923 9.65052 16.45 8.89008C17.5292 8.27312 18.7574 7.9652 20 8.00008C20.2652 8.00008 20.5196 7.89472 20.7071 7.70718C20.8946 7.51965 21 7.26529 21 7.00008C21 6.73486 20.8946 6.48051 20.7071 6.29297C20.5196 6.10543 20.2652 6.00008 20 6.00008C18.4442 5.96638 16.9077 6.34963 15.55 7.11008C14.4708 7.72704 13.2426 8.03496 12 8.00008C11.7348 8.00008 11.4804 8.10543 11.2929 8.29297C11.1054 8.48051 11 8.73486 11 9.00008ZM9 17.0001V9.00008C8.99979 8.21641 9.30623 7.46377 9.85379 6.90313C10.4013 6.34249 11.1465 6.01836 11.93 6.00008L10.29 3.40008C10.1965 3.27963 10.0767 3.18216 9.93983 3.1151C9.8029 3.04804 9.65246 3.01318 9.5 3.01318C9.34754 3.01318 9.1971 3.04804 9.06017 3.1151C8.92325 3.18216 8.80347 3.27963 8.71 3.40008L4.2 10.5401C3.41974 11.784 3.004 13.2217 3 14.6901C3.02895 16.3876 3.72911 18.0045 4.94727 19.187C6.16542 20.3696 7.80239 21.0215 9.5 21.0001C10.7373 21.0014 11.9501 20.6549 13 20.0001H12C11.2044 20.0001 10.4413 19.684 9.87868 19.1214C9.31607 18.5588 9 17.7957 9 17.0001ZM20 10.0001C18.4442 9.96638 16.9077 10.3496 15.55 11.1101C14.4708 11.727 13.2426 12.035 12 12.0001C11.7348 12.0001 11.4804 12.1054 11.2929 12.293C11.1054 12.4805 11 12.7349 11 13.0001C11 13.2653 11.1054 13.5196 11.2929 13.7072C11.4804 13.8947 11.7348 14.0001 12 14.0001C13.5558 14.0338 15.0923 13.6505 16.45 12.8901C17.5292 12.2731 18.7574 11.9652 20 12.0001C20.2652 12.0001 20.5196 11.8947 20.7071 11.7072C20.8946 11.5196 21 11.2653 21 11.0001C21 10.7349 20.8946 10.4805 20.7071 10.293C20.5196 10.1054 20.2652 10.0001 20 10.0001ZM20 14.0001C18.4442 13.9664 16.9077 14.3496 15.55 15.1101C14.4708 15.727 13.2426 16.035 12 16.0001C11.7348 16.0001 11.4804 16.1054 11.2929 16.293C11.1054 16.4805 11 16.7349 11 17.0001C11 17.2653 11.1054 17.5196 11.2929 17.7072C11.4804 17.8947 11.7348 18.0001 12 18.0001C13.5558 18.0338 15.0923 17.6505 16.45 16.8901C17.5292 16.2731 18.7574 15.9652 20 16.0001C20.2652 16.0001 20.5196 15.8947 20.7071 15.7072C20.8946 15.5196 21 15.2653 21 15.0001C21 14.7349 20.8946 14.4805 20.7071 14.293C20.5196 14.1054 20.2652 14.0001 20 14.0001Z" fill="#141414"/>
</svg>
