<svg width="24" height="24" viewBox="0 0 24 24" fill="none" xmlns="http://www.w3.org/2000/svg">
<path d="M22.0002 9.16997C21.9997 7.96646 21.6426 6.79007 20.9741 5.78935C20.3055 4.78863 19.3554 4.00845 18.2437 3.54731C17.132 3.08616 15.9087 2.96474 14.728 3.19837C13.5474 3.432 12.4625 4.0102 11.6102 4.85997C11.5812 4.89267 11.5576 4.92981 11.5402 4.96997C11.5022 4.991 11.4654 5.01438 11.4302 5.03997L3.34023 13.13C2.48491 13.9853 2.00439 15.1454 2.00439 16.355C2.00439 17.5646 2.48491 18.7246 3.34023 19.58C4.19556 20.4353 5.35562 20.9158 6.56523 20.9158C7.77484 20.9158 8.93491 20.4353 9.79023 19.58L15.1802 14.19C15.7491 13.6211 16.0687 12.8495 16.0687 12.045C16.0687 11.2404 15.7491 10.4689 15.1802 9.89997C14.6113 9.33108 13.8398 9.01148 13.0352 9.01148C12.2307 9.01148 11.4591 9.33108 10.8902 9.89997L8.00023 12.78C7.81398 12.9673 7.70944 13.2208 7.70944 13.485C7.70944 13.7492 7.81398 14.0026 8.00023 14.19C8.09367 14.2827 8.20449 14.356 8.32633 14.4057C8.44816 14.4555 8.57863 14.4807 8.71023 14.48C8.84184 14.4807 8.9723 14.4555 9.09414 14.4057C9.21598 14.356 9.32679 14.2827 9.42023 14.19L12.2902 11.31C12.4852 11.115 12.7496 11.0055 13.0252 11.0055C13.3009 11.0055 13.5653 11.115 13.7602 11.31C13.9552 11.5049 14.0647 11.7693 14.0647 12.045C14.0647 12.3207 13.9552 12.585 13.7602 12.78L8.37023 18.17C7.88275 18.6358 7.23447 18.8957 6.56023 18.8957C5.886 18.8957 5.23771 18.6358 4.75023 18.17C4.27026 17.6899 4.00062 17.0388 4.00062 16.36C4.00062 15.6811 4.27026 15.03 4.75023 14.55L12.8402 6.45997L12.9102 6.34997C12.9415 6.32829 12.9715 6.30492 13.0002 6.27997C13.3742 5.87655 13.8258 5.55273 14.3279 5.32788C14.8299 5.10304 15.3722 4.98178 15.9222 4.97139C16.4723 4.96099 17.0187 5.06165 17.5289 5.26736C18.0392 5.47307 18.5026 5.77959 18.8916 6.16859C19.2806 6.55758 19.5871 7.02105 19.7928 7.53127C19.9986 8.04148 20.0992 8.58794 20.0888 9.13797C20.0784 9.68799 19.9572 10.2303 19.7323 10.7323C19.5075 11.2344 19.1837 11.686 18.7802 12.06C18.7546 12.0952 18.7313 12.1319 18.7102 12.17C18.7102 12.17 18.6302 12.17 18.6002 12.24L11.7702 19.07C11.584 19.2573 11.4794 19.5108 11.4794 19.775C11.4794 20.0392 11.584 20.2926 11.7702 20.48C11.9576 20.6662 12.211 20.7708 12.4752 20.7708C12.7394 20.7708 12.9929 20.6662 13.1802 20.48L20.0002 13.65C20.0258 13.6148 20.0492 13.5781 20.0702 13.54C20.0702 13.54 20.1502 13.54 20.1802 13.47C20.7556 12.9112 21.2131 12.2428 21.5257 11.5043C21.8383 10.7657 21.9996 9.97197 22.0002 9.16997Z" fill="#141414"/>
</svg>
