<svg width="24" height="24" viewBox="0 0 24 24" fill="none" xmlns="http://www.w3.org/2000/svg">
<path d="M20.53 4.46997C19.7253 3.58866 18.6041 3.06222 17.412 3.00599C16.2199 2.94976 15.0541 3.36832 14.17 4.16997C13.789 4.55118 13.4889 5.00545 13.2879 5.50552C13.0868 6.00558 12.9889 6.54112 13 7.07997C12.3372 6.97743 11.6627 6.97743 11 7.07997C11.0111 6.54112 10.9131 6.00558 10.7121 5.50552C10.511 5.00545 10.211 4.55118 9.82997 4.16997C8.94588 3.36832 7.78009 2.94976 6.58799 3.00599C5.39589 3.06222 4.27468 3.58866 3.46997 4.46997C2.58866 5.27468 2.06222 6.39589 2.00599 7.58799C1.94976 8.78009 2.36832 9.94588 3.16997 10.83C3.75482 11.4039 4.50183 11.7844 5.30997 11.92C5.10497 12.5943 5.00051 13.2952 4.99997 14C4.99997 15.8565 5.73747 17.637 7.05022 18.9497C8.36298 20.2625 10.1435 21 12 21C13.8565 21 15.637 20.2625 16.9497 18.9497C18.2625 17.637 19 15.8565 19 14C18.9994 13.2952 18.895 12.5943 18.69 11.92C19.4981 11.7844 20.2451 11.4039 20.83 10.83C21.6316 9.94588 22.0502 8.78009 21.994 7.58799C21.9377 6.39589 21.4113 5.27468 20.53 4.46997Z" fill="#141414"/>
</svg>
