<svg width="24" height="24" viewBox="0 0 24 24" fill="none" xmlns="http://www.w3.org/2000/svg">
<path d="M20 9.99996C20.0007 8.62207 19.6454 7.26736 18.9687 6.06709C18.292 4.86682 17.3167 3.86168 16.1374 3.14907C14.9581 2.43645 13.6147 2.04051 12.2374 1.99962C10.8601 1.95872 9.49564 2.27426 8.27613 2.91565C7.05661 3.55703 6.02343 4.50254 5.27669 5.66054C4.52994 6.81854 4.09496 8.14979 4.01387 9.5253C3.93278 10.9008 4.20834 12.2739 4.81385 13.5117C5.41936 14.7494 6.33429 15.8097 7.47 16.59L7 19.72C6.94687 20.1017 7.00519 20.4908 7.16796 20.8402C7.33073 21.1896 7.591 21.4845 7.91746 21.6895C8.24392 21.8945 8.62266 22.0007 9.00809 21.9955C9.39353 21.9902 9.76923 21.8737 10.09 21.66L12 20.4L13.89 21.66C14.2182 21.8805 14.6045 21.9989 15 22C15.3788 22 15.7499 21.8925 16.07 21.69C16.4004 21.4818 16.6626 21.1815 16.8243 20.8261C16.986 20.4707 17.0401 20.0758 16.98 19.69L16.53 16.56C17.5953 15.8281 18.4674 14.8491 19.0717 13.7067C19.676 12.5642 19.9945 11.2924 20 9.99996ZM12 16C10.8133 16 9.65327 15.6481 8.66658 14.9888C7.67988 14.3295 6.91085 13.3924 6.45672 12.2961C6.0026 11.1997 5.88378 9.99331 6.11529 8.82942C6.3468 7.66553 6.91825 6.59644 7.75736 5.75732C8.59648 4.91821 9.66557 4.34676 10.8295 4.11525C11.9933 3.88374 13.1997 4.00256 14.2961 4.45668C15.3925 4.91081 16.3295 5.67985 16.9888 6.66654C17.6481 7.65324 18 8.81327 18 9.99996C18 11.5913 17.3679 13.1174 16.2426 14.2426C15.1174 15.3678 13.5913 16 12 16ZM14.49 8.83996L13.15 8.63996L12.54 7.34996C12.4939 7.24518 12.4183 7.15608 12.3224 7.09352C12.2265 7.03097 12.1145 6.99766 12 6.99766C11.8855 6.99766 11.7735 7.03097 11.6776 7.09352C11.5817 7.15608 11.5061 7.24518 11.46 7.34996L10.85 8.63996L9.51 8.83996C9.40323 8.85794 9.3033 8.90448 9.22083 8.97464C9.13836 9.0448 9.07642 9.13598 9.04156 9.23849C9.0067 9.34101 9.00024 9.45104 9.02285 9.55694C9.04547 9.66283 9.09631 9.76063 9.17 9.83996L10.17 10.84L9.92 12.3C9.90284 12.4118 9.91714 12.5262 9.96129 12.6304C10.0054 12.7346 10.0777 12.8245 10.17 12.89C10.2732 12.9605 10.395 12.9988 10.52 13C10.6211 13.0019 10.7209 12.9778 10.81 12.93L12 12.27L13.19 12.93C13.2791 12.9778 13.3789 13.0019 13.48 13C13.605 12.9988 13.7268 12.9605 13.83 12.89C13.9223 12.8245 13.9946 12.7346 14.0387 12.6304C14.0829 12.5262 14.0972 12.4118 14.08 12.3L13.84 10.87L14.84 9.86996C14.9137 9.79063 14.9645 9.69283 14.9871 9.58694C15.0098 9.48105 15.0033 9.37101 14.9684 9.26849C14.9336 9.16598 14.8716 9.0748 14.7892 9.00464C14.7067 8.93448 14.6068 8.88794 14.5 8.86996L14.49 8.83996Z" fill="#141414"/>
</svg>
