<svg width="24" height="24" viewBox="0 0 24 24" fill="none" xmlns="http://www.w3.org/2000/svg">
<path d="M12 11.5C12.2652 11.5 12.5196 11.3946 12.7071 11.2071C12.8946 11.0196 13 10.7652 13 10.5C13 10.2348 12.8946 9.98043 12.7071 9.79289C12.5196 9.60536 12.2652 9.5 12 9.5C11.337 9.5 10.7011 9.76339 10.2322 10.2322C9.76339 10.7011 9.5 11.337 9.5 12C9.5 12.663 9.76339 13.2989 10.2322 13.7678C10.7011 14.2366 11.337 14.5 12 14.5C12.2652 14.5 12.5196 14.3946 12.7071 14.2071C12.8946 14.0196 13 13.7652 13 13.5C13 13.2348 12.8946 12.9804 12.7071 12.7929C12.5196 12.6054 12.2652 12.5 12 12.5C11.8674 12.5 11.7402 12.4473 11.6464 12.3536C11.5527 12.2598 11.5 12.1326 11.5 12C11.5 11.8674 11.5527 11.7402 11.6464 11.6464C11.7402 11.5527 11.8674 11.5 12 11.5ZM7.76 14.83C7.57375 15.0174 7.46921 15.2708 7.46921 15.535C7.46921 15.7992 7.57375 16.0526 7.76 16.24C8.31429 16.8004 8.97476 17.2447 9.70278 17.5469C10.4308 17.8491 11.2118 18.0032 12 18C13.5913 18 15.1174 17.3679 16.2426 16.2426C17.3679 15.1174 18 13.5913 18 12C18 10.4087 17.3679 8.88258 16.2426 7.75736C15.1174 6.63214 13.5913 6 12 6C11.2118 5.99684 10.4308 6.15086 9.70278 6.45305C8.97476 6.75525 8.31429 7.19956 7.76 7.76C7.59617 7.9513 7.51057 8.19738 7.52029 8.44905C7.53001 8.70073 7.63434 8.93947 7.81244 9.11756C7.99053 9.29566 8.22927 9.39999 8.48095 9.40971C8.73262 9.41943 8.9787 9.33383 9.17 9.17C9.72959 8.61104 10.4423 8.23051 11.2181 8.07653C11.9939 7.92255 12.798 8.00203 13.5286 8.30491C14.2593 8.60779 14.8837 9.12048 15.323 9.77818C15.7624 10.4359 15.9969 11.2091 15.9969 12C15.9969 12.7909 15.7624 13.5641 15.323 14.2218C14.8837 14.8795 14.2593 15.3922 13.5286 15.6951C12.798 15.998 11.9939 16.0774 11.2181 15.9235C10.4423 15.7695 9.72959 15.389 9.17 14.83C8.98264 14.6437 8.72919 14.5392 8.465 14.5392C8.20081 14.5392 7.94736 14.6437 7.76 14.83ZM12 2C11.7348 2 11.4804 2.10536 11.2929 2.29289C11.1054 2.48043 11 2.73478 11 3C11 3.26522 11.1054 3.51957 11.2929 3.70711C11.4804 3.89464 11.7348 4 12 4C13.5823 4 15.129 4.46919 16.4446 5.34824C17.7602 6.22729 18.7855 7.47672 19.391 8.93853C19.9965 10.4003 20.155 12.0089 19.8463 13.5607C19.5376 15.1126 18.7757 16.538 17.6569 17.6569C16.538 18.7757 15.1126 19.5376 13.5607 19.8463C12.0089 20.155 10.4003 19.9965 8.93853 19.391C7.47672 18.7855 6.22729 17.7602 5.34824 16.4446C4.46919 15.129 4 13.5823 4 12C4 11.7348 3.89464 11.4804 3.70711 11.2929C3.51957 11.1054 3.26522 11 3 11C2.73478 11 2.48043 11.1054 2.29289 11.2929C2.10536 11.4804 2 11.7348 2 12C2 13.9778 2.58649 15.9112 3.6853 17.5557C4.78412 19.2002 6.3459 20.4819 8.17317 21.2388C10.0004 21.9957 12.0111 22.1937 13.9509 21.8079C15.8907 21.422 17.6725 20.4696 19.0711 19.0711C20.4696 17.6725 21.422 15.8907 21.8079 13.9509C22.1937 12.0111 21.9957 10.0004 21.2388 8.17317C20.4819 6.3459 19.2002 4.78412 17.5557 3.6853C15.9112 2.58649 13.9778 2 12 2Z" fill="#141414"/>
</svg>
