<svg width="24" height="24" viewBox="0 0 24 24" fill="none" xmlns="http://www.w3.org/2000/svg">
<path d="M12.0001 17C10.8565 16.9935 9.74973 16.5952 8.86427 15.8715C7.9788 15.1477 7.36819 14.1423 7.13425 13.0229C6.9003 11.9035 7.05717 10.7377 7.57868 9.71994C8.1002 8.70217 8.95485 7.89393 10.0001 7.43V2.2C8.2303 2.56175 6.59152 3.39613 5.25786 4.61453C3.9242 5.83292 2.94548 7.38981 2.42567 9.11981C1.90585 10.8498 1.86435 12.6883 2.30558 14.44C2.74681 16.1917 3.65429 17.7912 4.93162 19.0685C6.20894 20.3458 7.80841 21.2533 9.56011 21.6945C11.3118 22.1358 13.1503 22.0943 14.8803 21.5745C16.6103 21.0546 18.1672 20.0759 19.3856 18.7423C20.604 17.4086 21.4384 15.7698 21.8001 14H16.5701C16.1818 14.8897 15.5429 15.6471 14.7314 16.1799C13.9199 16.7126 12.9709 16.9976 12.0001 17ZM14.0001 12H22.0001C22.0001 10.6868 21.7415 9.38642 21.2389 8.17317C20.7364 6.95991 19.9998 5.85752 19.0712 4.92893C18.1426 4.00035 17.0402 3.26375 15.827 2.7612C14.6137 2.25866 13.3133 2 12.0001 2V10C12.0001 10.5304 12.2108 11.0391 12.5859 11.4142C12.961 11.7893 13.4697 12 14.0001 12Z" fill="#141414"/>
</svg>
