<svg width="24" height="24" viewBox="0 0 24 24" fill="none" xmlns="http://www.w3.org/2000/svg">
<path d="M20.9999 10.9999H20.8599C20.666 10.2714 20.275 9.61056 19.7299 9.08988C19.3197 8.70643 18.8334 8.41364 18.3026 8.23055C17.7718 8.04747 17.2083 7.9782 16.649 8.02725C16.0896 8.0763 15.5468 8.24258 15.056 8.51525C14.5651 8.78792 14.1371 9.16089 13.7999 9.60988C13.2884 9.20262 12.6538 8.98088 11.9999 8.98088C11.3461 8.98088 10.7115 9.20262 10.1999 9.60988C9.86274 9.16089 9.43478 8.78792 8.94392 8.51525C8.45306 8.24258 7.91029 8.0763 7.35092 8.02725C6.79155 7.9782 6.22813 8.04747 5.6973 8.23055C5.16647 8.41364 4.68014 8.70643 4.26994 9.08988C3.72485 9.61056 3.33386 10.2714 3.13994 10.9999H2.99994C2.86763 11.0004 2.73675 11.0272 2.61487 11.0787C2.493 11.1302 2.38255 11.2054 2.28994 11.2999C2.19621 11.3928 2.12182 11.5034 2.07105 11.6253C2.02028 11.7472 1.99414 11.8779 1.99414 12.0099C1.99414 12.1419 2.02028 12.2726 2.07105 12.3945C2.12182 12.5163 2.19621 12.6269 2.28994 12.7199C2.48028 12.9034 2.73556 13.0041 2.99994 12.9999H3.13994C3.3767 13.9471 3.95174 14.775 4.75668 15.3276C5.56163 15.8802 6.5409 16.1193 7.50994 15.9999C8.48014 15.8752 9.37102 15.3993 10.0141 14.6623C10.6572 13.9252 11.0079 12.978 10.9999 11.9999C10.9992 11.8683 11.0244 11.7378 11.0742 11.616C11.1239 11.4941 11.1973 11.3833 11.2899 11.2899C11.3829 11.1962 11.4935 11.1218 11.6154 11.071C11.7372 11.0202 11.8679 10.9941 11.9999 10.9941C12.132 10.9941 12.2627 11.0202 12.3845 11.071C12.5064 11.1218 12.617 11.1962 12.7099 11.2899C12.8026 11.3833 12.8759 11.4941 12.9257 11.616C12.9755 11.7378 13.0007 11.8683 12.9999 11.9999C12.992 12.978 13.3427 13.9252 13.9858 14.6623C14.6289 15.3993 15.5197 15.8752 16.4899 15.9999C17.459 16.1193 18.4382 15.8802 19.2432 15.3276C20.0481 14.775 20.6232 13.9471 20.8599 12.9999H20.9999C21.1322 12.9993 21.2631 12.9725 21.385 12.921C21.5069 12.8695 21.6173 12.7944 21.7099 12.6999C21.8037 12.6069 21.8781 12.4963 21.9288 12.3745C21.9796 12.2526 22.0057 12.1219 22.0057 11.9899C22.0057 11.8579 21.9796 11.7272 21.9288 11.6053C21.8781 11.4834 21.8037 11.3728 21.7099 11.2799C21.5196 11.0964 21.2643 10.9957 20.9999 10.9999Z" fill="#141414"/>
</svg>
