<svg width="24" height="24" viewBox="0 0 24 24" fill="none" xmlns="http://www.w3.org/2000/svg">
<path d="M12 7C11.8022 7 11.6089 7.05865 11.4444 7.16853C11.28 7.27841 11.1518 7.43459 11.0761 7.61732C11.0004 7.80004 10.9806 8.00111 11.0192 8.19509C11.0578 8.38907 11.153 8.56725 11.2929 8.70711C11.4327 8.84696 11.6109 8.9422 11.8049 8.98079C11.9989 9.01937 12.2 8.99957 12.3827 8.92388C12.5654 8.84819 12.7216 8.72002 12.8315 8.55557C12.9414 8.39112 13 8.19778 13 8C13 7.73478 12.8946 7.48043 12.7071 7.29289C12.5196 7.10536 12.2652 7 12 7ZM14 2H10C9.20435 2 8.44129 2.31607 7.87868 2.87868C7.31607 3.44129 7 4.20435 7 5V19C7 19.7956 7.31607 20.5587 7.87868 21.1213C8.44129 21.6839 9.20435 22 10 22H14C14.7956 22 15.5587 21.6839 16.1213 21.1213C16.6839 20.5587 17 19.7956 17 19V5C17 4.20435 16.6839 3.44129 16.1213 2.87868C15.5587 2.31607 14.7956 2 14 2ZM10 20C9.80222 20 9.60888 19.9414 9.44443 19.8315C9.27998 19.7216 9.15181 19.5654 9.07612 19.3827C9.00043 19.2 8.98063 18.9989 9.01921 18.8049C9.0578 18.6109 9.15304 18.4327 9.29289 18.2929C9.43275 18.153 9.61093 18.0578 9.80491 18.0192C9.99889 17.9806 10.2 18.0004 10.3827 18.0761C10.5654 18.1518 10.7216 18.28 10.8315 18.4444C10.9414 18.6089 11 18.8022 11 19C11 19.2652 10.8946 19.5196 10.7071 19.7071C10.5196 19.8946 10.2652 20 10 20ZM10 16C9.80222 16 9.60888 15.9414 9.44443 15.8315C9.27998 15.7216 9.15181 15.5654 9.07612 15.3827C9.00043 15.2 8.98063 14.9989 9.01921 14.8049C9.0578 14.6109 9.15304 14.4327 9.29289 14.2929C9.43275 14.153 9.61093 14.0578 9.80491 14.0192C9.99889 13.9806 10.2 14.0004 10.3827 14.0761C10.5654 14.1518 10.7216 14.28 10.8315 14.4444C10.9414 14.6089 11 14.8022 11 15C11 15.2652 10.8946 15.5196 10.7071 15.7071C10.5196 15.8946 10.2652 16 10 16ZM14 20C13.8022 20 13.6089 19.9414 13.4444 19.8315C13.28 19.7216 13.1518 19.5654 13.0761 19.3827C13.0004 19.2 12.9806 18.9989 13.0192 18.8049C13.0578 18.6109 13.153 18.4327 13.2929 18.2929C13.4327 18.153 13.6109 18.0578 13.8049 18.0192C13.9989 17.9806 14.2 18.0004 14.3827 18.0761C14.5654 18.1518 14.7216 18.28 14.8315 18.4444C14.9414 18.6089 15 18.8022 15 19C15 19.2652 14.8946 19.5196 14.7071 19.7071C14.5196 19.8946 14.2652 20 14 20ZM14 16C13.8022 16 13.6089 15.9414 13.4444 15.8315C13.28 15.7216 13.1518 15.5654 13.0761 15.3827C13.0004 15.2 12.9806 14.9989 13.0192 14.8049C13.0578 14.6109 13.153 14.4327 13.2929 14.2929C13.4327 14.153 13.6109 14.0578 13.8049 14.0192C13.9989 13.9806 14.2 14.0004 14.3827 14.0761C14.5654 14.1518 14.7216 14.28 14.8315 14.4444C14.9414 14.6089 15 14.8022 15 15C15 15.2652 14.8946 15.5196 14.7071 15.7071C14.5196 15.8946 14.2652 16 14 16ZM12 11C11.4067 11 10.8266 10.8241 10.3333 10.4944C9.83994 10.1648 9.45542 9.69623 9.22836 9.14805C9.0013 8.59987 8.94189 7.99667 9.05764 7.41473C9.1734 6.83279 9.45912 6.29824 9.87868 5.87868C10.2982 5.45912 10.8328 5.1734 11.4147 5.05764C11.9967 4.94189 12.5999 5.0013 13.1481 5.22836C13.6962 5.45542 14.1648 5.83994 14.4944 6.33329C14.8241 6.82664 15 7.40666 15 8C15 8.79565 14.6839 9.55871 14.1213 10.1213C13.5587 10.6839 12.7956 11 12 11Z" fill="#141414"/>
</svg>
