<svg width="24" height="24" viewBox="0 0 24 24" fill="none" xmlns="http://www.w3.org/2000/svg">
<path d="M16.9001 10.9998H22.0001C21.7675 8.69691 20.7433 6.54601 19.1021 4.9139C17.4609 3.28179 15.3043 2.26955 13.0001 2.0498V7.0998C13.961 7.29577 14.8431 7.76998 15.5365 8.46342C16.2299 9.15686 16.7042 10.0389 16.9001 10.9998ZM13.0001 16.8898V21.9998C15.312 21.7782 17.4746 20.7587 19.1168 19.1165C20.7591 17.4743 21.7785 15.3117 22.0001 12.9998H16.9001C16.7024 13.9589 16.2274 14.8388 15.5341 15.5303C14.8408 16.2218 13.9597 16.6945 13.0001 16.8898ZM2.00013 11.9998C1.98766 14.4875 2.90288 16.8905 4.56706 18.7396C6.23124 20.5887 8.52489 21.7511 11.0001 21.9998V16.8998C9.86984 16.6703 8.85365 16.0571 8.12375 15.1641C7.39384 14.2711 6.99511 13.1532 6.99511 11.9998C6.99511 10.8464 7.39384 9.72856 8.12375 8.83555C8.85365 7.94253 9.86984 7.32932 11.0001 7.0998V2.0998C8.54205 2.34682 6.26241 3.49497 4.6006 5.32296C2.93879 7.15095 2.01245 9.52938 2.00013 11.9998Z" fill="#141414"/>
</svg>
