<svg width="24" height="24" viewBox="0 0 24 24" fill="none" xmlns="http://www.w3.org/2000/svg">
<path d="M18 2H6C5.73478 2 5.48043 2.10536 5.29289 2.29289C5.10536 2.48043 5 2.73478 5 3C5 3.26522 5.10536 3.51957 5.29289 3.70711C5.48043 3.89464 5.73478 4 6 4H7V17C7 18.3261 7.52678 19.5979 8.46447 20.5355C9.40215 21.4732 10.6739 22 12 22C13.3261 22 14.5979 21.4732 15.5355 20.5355C16.4732 19.5979 17 18.3261 17 17V4H18C18.2652 4 18.5196 3.89464 18.7071 3.70711C18.8946 3.51957 19 3.26522 19 3C19 2.73478 18.8946 2.48043 18.7071 2.29289C18.5196 2.10536 18.2652 2 18 2ZM12.64 11.23C13.0429 11.5008 13.3762 11.8629 13.6125 12.287C13.8489 12.711 13.9816 13.1849 14 13.67C14.0035 14.343 13.7536 14.9928 13.3 15.49C13.5553 15.7083 13.7514 15.9875 13.8704 16.3016C13.9893 16.6157 14.0272 16.9548 13.9806 17.2874C13.934 17.6201 13.8044 17.9356 13.6036 18.205C13.4029 18.4743 13.1376 18.6887 12.8321 18.8285C12.5267 18.9683 12.191 19.0288 11.8559 19.0047C11.5209 18.9805 11.1974 18.8723 10.9152 18.6901C10.633 18.5079 10.4012 18.2576 10.2413 17.9622C10.0813 17.6668 9.99835 17.3359 10 17C10.0134 16.5152 10.1441 16.0409 10.381 15.6176C10.6178 15.1944 10.9538 14.8349 11.36 14.57C11.87 14.14 12 13.99 12 13.67C12 13.35 11.84 13.17 11.36 12.77C10.9524 12.5041 10.6156 12.143 10.3787 11.7179C10.1417 11.2929 10.0118 10.8165 10 10.33C10.0134 9.84519 10.1441 9.37086 10.381 8.94764C10.6178 8.52443 10.9538 8.16494 11.36 7.9C11.84 7.5 12 7.34 12 7C12 6.73478 12.1054 6.48043 12.2929 6.29289C12.4804 6.10536 12.7348 6 13 6C13.2652 6 13.5196 6.10536 13.7071 6.29289C13.8946 6.48043 14 6.73478 14 7C13.9816 7.48511 13.8489 7.95901 13.6125 8.38305C13.3762 8.80708 13.0429 9.16925 12.64 9.44C12.16 9.84 12 10 12 10.33C12 10.66 12.16 10.83 12.64 11.23Z" fill="#141414"/>
</svg>
