<svg width="24" height="24" viewBox="0 0 24 24" fill="none" xmlns="http://www.w3.org/2000/svg">
<path d="M11.0001 8.76011V8.00011C11.0001 7.73489 11.1055 7.48054 11.293 7.293C11.4805 7.10546 11.7349 7.00011 12.0001 7.00011C12.2036 7.00369 12.4004 7.07395 12.5601 7.20011L15.1701 4.59011C14.1589 4.19966 13.0841 3.99962 12.0001 4.00011C9.61316 4.00011 7.32397 4.94832 5.63615 6.63615C3.94832 8.32397 3.00011 10.6132 3.00011 13.0001C3.00313 14.0815 3.20656 15.1529 3.60011 16.1601L11.0001 8.76011ZM3.88011 6.76011L6.71011 3.88011C6.89841 3.6918 7.0042 3.43641 7.0042 3.17011C7.0042 2.90381 6.89841 2.64841 6.71011 2.46011C6.5218 2.2718 6.26641 2.16602 6.00011 2.16602C5.73381 2.16602 5.47841 2.2718 5.29011 2.46011L2.46011 5.29011C2.2718 5.47841 2.16602 5.73381 2.16602 6.00011C2.16602 6.26641 2.2718 6.5218 2.46011 6.71011C2.64841 6.89841 2.90381 7.0042 3.17011 7.0042C3.43641 7.0042 3.6918 6.89841 3.88011 6.71011V6.76011ZM19.4601 18.0001C20.5965 16.3119 21.1271 14.2883 20.9655 12.2597C20.8039 10.2311 19.9595 8.3171 18.5701 6.83011L20.4901 5.00011C20.5879 4.90227 20.6655 4.78613 20.7185 4.6583C20.7714 4.53047 20.7987 4.39347 20.7987 4.25511C20.7987 4.11675 20.7714 3.97974 20.7185 3.85192C20.6655 3.72409 20.5879 3.60794 20.4901 3.51011C20.3923 3.41227 20.2761 3.33467 20.1483 3.28172C20.0205 3.22877 19.8835 3.20152 19.7451 3.20152C19.6067 3.20152 19.4697 3.22877 19.3419 3.28172C19.2141 3.33467 19.0979 3.41227 19.0001 3.51011L3.51011 19.0001C3.41227 19.0979 3.33467 19.2141 3.28172 19.3419C3.22877 19.4697 3.20152 19.6067 3.20152 19.7451C3.20152 19.8835 3.22877 20.0205 3.28172 20.1483C3.33467 20.2761 3.41227 20.3923 3.51011 20.4901C3.70769 20.6877 3.97568 20.7987 4.25511 20.7987C4.39347 20.7987 4.53047 20.7714 4.6583 20.7185C4.78613 20.6655 4.90227 20.5879 5.00011 20.4901L5.91011 19.5701C7.57655 21.125 9.77089 21.9898 12.0501 21.9898C14.3293 21.9898 16.5237 21.125 18.1901 19.5701L19.3301 20.7201C19.5184 20.9084 19.7738 21.0142 20.0401 21.0142C20.3064 21.0142 20.5618 20.9084 20.7501 20.7201C20.9384 20.5318 21.0442 20.2764 21.0442 20.0101C21.0442 19.7438 20.9384 19.4884 20.7501 19.3001L19.4601 18.0001ZM14.1201 15.0801C13.9327 15.2664 13.6793 15.3709 13.4151 15.3709C13.1509 15.3709 12.8975 15.2664 12.7101 15.0801L11.5101 13.8901L13.0001 12.4401V12.5901L14.1201 13.7101C14.3064 13.8975 14.4109 14.1509 14.4109 14.4151C14.4109 14.6793 14.3064 14.9327 14.1201 15.1201V15.0801Z" fill="#141414"/>
</svg>
