<svg width="24" height="24" viewBox="0 0 24 24" fill="none" xmlns="http://www.w3.org/2000/svg">
<path d="M21.7101 11.2902L18.7101 8.29022C18.4201 8.00022 17.9901 7.91022 17.6201 8.07022C17.2501 8.22022 17.0001 8.59022 17.0001 8.99022V10.9902H7.00006V8.99022C7.00006 8.59022 6.76006 8.22022 6.38006 8.07022C6.00006 7.91022 5.58006 8.00022 5.29006 8.29022L2.29006 11.2902C1.90006 11.6802 1.90006 12.3102 2.29006 12.7002L5.29006 15.7002C5.48006 15.8902 5.74006 15.9902 6.00006 15.9902C6.13006 15.9902 6.26006 15.9702 6.38006 15.9102C6.75006 15.7602 7.00006 15.3902 7.00006 14.9902V12.9902H17.0001V14.9902C17.0001 15.3902 17.2401 15.7602 17.6201 15.9102C17.7401 15.9602 17.8701 15.9902 18.0001 15.9902C18.2601 15.9902 18.5201 15.8902 18.7101 15.7002L21.7101 12.7002C22.1001 12.3102 22.1001 11.6802 21.7101 11.2902Z" fill="#141414"/>
</svg>
