<svg width="24" height="24" viewBox="0 0 24 24" fill="none" xmlns="http://www.w3.org/2000/svg">
<path d="M20.46 4.68C20.1284 4.29684 19.6638 4.05381 19.16 4C16.9552 3.76898 14.8088 3.14942 12.82 2.17C12.5648 2.04466 12.2843 1.97949 12 1.97949C11.7157 1.97949 11.4352 2.04466 11.18 2.17C9.20579 3.15045 7.07225 3.77019 4.88 4C4.37562 4.04408 3.90514 4.27236 3.55837 4.64127C3.21159 5.01017 3.01282 5.49386 3 6V11C3 17.74 9.75 22 12 22C14.25 22 21 17.75 21 11V6C20.9883 5.50859 20.7961 5.03869 20.46 4.68ZM12 20C10.85 19.95 5 16.71 5 11V6C7.43198 5.74595 9.8009 5.06912 12 4V20Z" fill="#141414"/>
</svg>
