<svg width="24" height="24" viewBox="0 0 24 24" fill="none" xmlns="http://www.w3.org/2000/svg">
<path d="M18 18H16V17.5C16 17.1022 15.842 16.7207 15.5607 16.4394C15.2794 16.1581 14.8978 16 14.5 16H13V10.86C13.9427 10.6167 14.7642 10.0378 15.3106 9.23204C15.857 8.42626 16.0908 7.44886 15.9681 6.48304C15.8454 5.51723 15.3747 4.62931 14.6442 3.98572C13.9137 3.34213 12.9736 2.98706 12 2.98706C11.0264 2.98706 10.0863 3.34213 9.35577 3.98572C8.62526 4.62931 8.15456 5.51723 8.03188 6.48304C7.90921 7.44886 8.14299 8.42626 8.6894 9.23204C9.23581 10.0378 10.0573 10.6167 11 10.86V16H9.5C9.10218 16 8.72064 16.1581 8.43934 16.4394C8.15804 16.7207 8 17.1022 8 17.5V18H6C5.46957 18 4.96086 18.2108 4.58579 18.5858C4.21071 18.9609 4 19.4696 4 20C4 20.5305 4.21071 21.0392 4.58579 21.4143C4.96086 21.7893 5.46957 22 6 22H18C18.5304 22 19.0391 21.7893 19.4142 21.4143C19.7893 21.0392 20 20.5305 20 20C20 19.4696 19.7893 18.9609 19.4142 18.5858C19.0391 18.2108 18.5304 18 18 18Z" fill="#141414"/>
</svg>
