<svg width="24" height="24" viewBox="0 0 24 24" fill="none" xmlns="http://www.w3.org/2000/svg">
<path d="M6 15H14C15.65 15 17 13.65 17 12C17 10.35 15.65 9 14 9H6C5.45 9 5 8.55 5 8C5 7.45 5.45 7 6 7H11C12.1 7 13 6.1 13 5V4C13 3.45 12.55 3 12 3C11.45 3 11 3.45 11 4V5H6C4.35 5 3 6.35 3 8C3 9.65 4.35 11 6 11H14C14.55 11 15 11.45 15 12C15 12.55 14.55 13 14 13H6C4.35 13 3 14.35 3 16C3 17.65 4.35 19 6 19H13V20C13 20.55 13.45 21 14 21C14.55 21 15 20.55 15 20V19C15 17.9 14.1 17 13 17H6C5.45 17 5 16.55 5 16C5 15.45 5.45 15 6 15ZM18 10C18.26 10 18.51 9.9 18.71 9.71L19.71 8.71C20.1 8.32 20.1 7.69 19.71 7.3C19.32 6.91 18.69 6.91 18.3 7.3L17.3 8.3C16.91 8.69 16.91 9.32 17.3 9.71C17.5 9.91 17.75 10 18.01 10H18ZM18.71 14.29C18.32 13.9 17.69 13.9 17.3 14.29C16.91 14.68 16.91 15.31 17.3 15.7L18.3 16.7C18.5 16.9 18.75 16.99 19.01 16.99C19.27 16.99 19.52 16.89 19.72 16.7C20.11 16.31 20.11 15.68 19.72 15.29L18.72 14.29H18.71ZM21 11H20C19.45 11 19 11.45 19 12C19 12.55 19.45 13 20 13H21C21.55 13 22 12.55 22 12C22 11.45 21.55 11 21 11Z" fill="#141414"/>
</svg>
