<svg width="24" height="24" viewBox="0 0 24 24" fill="none" xmlns="http://www.w3.org/2000/svg">
<path d="M12 5C12.2967 5 12.5867 4.91203 12.8334 4.7472C13.08 4.58238 13.2723 4.34811 13.3858 4.07403C13.4994 3.79994 13.5291 3.49834 13.4712 3.20737C13.4133 2.91639 13.2704 2.64912 13.0607 2.43934C12.8509 2.22956 12.5836 2.0867 12.2926 2.02882C12.0017 1.97094 11.7001 2.00065 11.426 2.11418C11.1519 2.22771 10.9176 2.41997 10.7528 2.66665C10.588 2.91332 10.5 3.20333 10.5 3.5C10.5 3.89783 10.658 4.27936 10.9393 4.56066C11.2206 4.84197 11.6022 5 12 5ZM19 6H5C4.73478 6 4.48043 6.10536 4.29289 6.29289C4.10536 6.48043 4 6.73478 4 7C4 7.26522 4.10536 7.51957 4.29289 7.70711C4.48043 7.89464 4.73478 8 5 8H11V13.07C9.57139 13.205 8.23126 13.8222 7.2 14.82C6.44173 15.6527 5.85671 16.6279 5.47901 17.6889C5.10131 18.7499 4.93848 19.8755 5 21C5 21.2652 5.10536 21.5196 5.29289 21.7071C5.48043 21.8946 5.73478 22 6 22C6.26522 22 6.51957 21.8946 6.70711 21.7071C6.89464 21.5196 7 21.2652 7 21C6.89456 19.264 7.4724 17.5556 8.61 16.24C9.29212 15.5859 10.1707 15.1747 11.11 15.07C11.85 18.96 16.42 20.84 16.63 20.93C16.7478 20.9766 16.8733 21.0003 17 21C17.233 21.0006 17.4588 20.9198 17.6386 20.7716C17.8183 20.6234 17.9407 20.4171 17.9846 20.1883C18.0284 19.9595 17.991 19.7225 17.8788 19.5184C17.7666 19.3142 17.5867 19.1556 17.37 19.07C17.37 19.07 13 17.29 13 14V8H19C19.2652 8 19.5196 7.89464 19.7071 7.70711C19.8946 7.51957 20 7.26522 20 7C20 6.73478 19.8946 6.48043 19.7071 6.29289C19.5196 6.10536 19.2652 6 19 6Z" fill="#141414"/>
</svg>
