<svg width="24" height="24" viewBox="0 0 24 24" fill="none" xmlns="http://www.w3.org/2000/svg">
<path d="M19.29 8.71C19.48 8.9 19.74 9 20 9C20.13 9 20.26 8.98 20.38 8.92C20.75 8.77 21 8.4 21 8V4C21 3.45 20.55 3 20 3H16C15.6 3 15.23 3.24 15.08 3.62C14.93 4 15.01 4.42 15.3 4.71L16.59 6L12 10.59L7.41 6L8.7 4.71C8.99 4.42 9.07 3.99 8.92 3.62C8.77 3.25 8.4 3 8 3H4C3.45 3 3 3.45 3 4V8C3 8.4 3.24 8.77 3.62 8.92C3.74 8.97 3.87 9 4 9C4.26 9 4.52 8.9 4.71 8.71L6 7.42L10.59 12.01L6 16.6L4.71 15.31C4.42 15.02 3.99 14.94 3.62 15.09C3.25 15.24 3 15.61 3 16.01V20.01C3 20.56 3.45 21.01 4 21.01H8C8.4 21.01 8.77 20.77 8.92 20.39C9.07 20.01 8.99 19.59 8.7 19.3L7.41 18.01L12 13.42L16.59 18.01L15.3 19.3C15.01 19.59 14.93 20.02 15.08 20.39C15.23 20.76 15.6 21.01 16 21.01H20C20.55 21.01 21 20.56 21 20.01V16.01C21 15.61 20.76 15.24 20.38 15.09C20 14.93 19.58 15.02 19.29 15.31L18 16.6L13.41 12.01L18 7.42L19.29 8.71Z" fill="#141414"/>
</svg>
