<svg width="24" height="24" viewBox="0 0 24 24" fill="none" xmlns="http://www.w3.org/2000/svg">
<path d="M21.2 16.4001L13.2 10.4001C13.1387 10.357 13.0713 10.3233 13 10.3001V9.82012C13.5189 9.63667 13.9773 9.31402 14.3251 8.88748C14.6729 8.46094 14.8966 7.94695 14.9718 7.40176C15.0471 6.85657 14.9709 6.3012 14.7516 5.79641C14.5323 5.29163 14.1784 4.85689 13.7286 4.53978C13.2788 4.22266 12.7504 4.03539 12.2013 3.99846C11.6522 3.96153 11.1035 4.07636 10.6153 4.33039C10.1271 4.58442 9.71812 4.96785 9.43323 5.43873C9.14833 5.9096 8.99845 6.44977 9 7.00012C9 7.26534 9.10536 7.51969 9.29289 7.70723C9.48043 7.89477 9.73478 8.00012 10 8.00012C10.2652 8.00012 10.5196 7.89477 10.7071 7.70723C10.8946 7.51969 11 7.26534 11 7.00012C11 6.80234 11.0586 6.609 11.1685 6.44455C11.2784 6.2801 11.4346 6.15193 11.6173 6.07624C11.8 6.00056 12.0011 5.98075 12.1951 6.01934C12.3891 6.05792 12.5673 6.15316 12.7071 6.29302C12.847 6.43287 12.9422 6.61105 12.9808 6.80503C13.0194 6.99901 12.9996 7.20008 12.9239 7.38281C12.8482 7.56553 12.72 7.72171 12.5556 7.83159C12.3911 7.94147 12.1978 8.00012 12 8.00012C11.7348 8.00012 11.4804 8.10548 11.2929 8.29302C11.1054 8.48055 11 8.73491 11 9.00012V10.3001C10.9287 10.3233 10.8613 10.357 10.8 10.4001L2.8 16.4001C2.46419 16.652 2.21613 17.0031 2.09097 17.4038C1.96581 17.8045 1.96989 18.2344 2.10263 18.6326C2.23537 19.0308 2.49005 19.3772 2.83058 19.6226C3.17111 19.868 3.58024 20.0001 4 20.0001H20C20.4198 20.0001 20.8289 19.868 21.1694 19.6226C21.51 19.3772 21.7646 19.0308 21.8974 18.6326C22.0301 18.2344 22.0342 17.8045 21.909 17.4038C21.7839 17.0031 21.5358 16.652 21.2 16.4001ZM4 18.0001L12 12.0001L20 18.0001H4Z" fill="#141414"/>
</svg>
