<svg width="24" height="24" viewBox="0 0 24 24" fill="none" xmlns="http://www.w3.org/2000/svg">
<path d="M3 9.99994C2.73478 9.99994 2.48043 10.1053 2.29289 10.2928C2.10536 10.4804 2 10.7347 2 10.9999V15.9999C2 16.2652 2.10536 16.5195 2.29289 16.707C2.48043 16.8946 2.73478 16.9999 3 16.9999C3.26522 16.9999 3.51957 16.8946 3.70711 16.707C3.89464 16.5195 4 16.2652 4 15.9999V10.9999C4 10.7347 3.89464 10.4804 3.70711 10.2928C3.51957 10.1053 3.26522 9.99994 3 9.99994ZM5 15.9999C5.00287 16.8845 5.29887 17.7432 5.84169 18.4416C6.38451 19.14 7.14353 19.6388 8 19.8599V20.9999C8 21.2652 8.10536 21.5195 8.29289 21.707C8.48043 21.8946 8.73478 21.9999 9 21.9999C9.26522 21.9999 9.51957 21.8946 9.70711 21.707C9.89464 21.5195 10 21.2652 10 20.9999V19.9999H14V20.9999C14 21.2652 14.1054 21.5195 14.2929 21.707C14.4804 21.8946 14.7348 21.9999 15 21.9999C15.2652 21.9999 15.5196 21.8946 15.7071 21.707C15.8946 21.5195 16 21.2652 16 20.9999V19.8599C16.8565 19.6388 17.6155 19.14 18.1583 18.4416C18.7011 17.7432 18.9971 16.8845 19 15.9999V11.9999H5V15.9999ZM18.71 2.28994C18.617 2.19621 18.5064 2.12182 18.3846 2.07105C18.2627 2.02028 18.132 1.99414 18 1.99414C17.868 1.99414 17.7373 2.02028 17.6154 2.07105C17.4936 2.12182 17.383 2.19621 17.29 2.28994L16.19 3.39994C14.9801 2.49591 13.5103 2.00743 12 2.00743C10.4897 2.00743 9.01987 2.49591 7.81 3.39994L6.71 2.28994C6.61676 2.1967 6.50607 2.12274 6.38425 2.07228C6.26243 2.02182 6.13186 1.99585 6 1.99585C5.86814 1.99585 5.73757 2.02182 5.61575 2.07228C5.49393 2.12274 5.38324 2.1967 5.29 2.28994C5.1017 2.47824 4.99591 2.73364 4.99591 2.99994C4.99591 3.1318 5.02188 3.26237 5.07234 3.38419C5.1228 3.50601 5.19676 3.6167 5.29 3.70994L6.4 4.80994C5.4894 6.01683 4.99781 7.48806 5 8.99994V10.9999H19V8.99994C19.0022 7.48806 18.5106 6.01683 17.6 4.80994L18.71 3.70994C18.8037 3.61698 18.8781 3.50637 18.9289 3.38452C18.9797 3.26266 19.0058 3.13195 19.0058 2.99994C19.0058 2.86793 18.9797 2.73722 18.9289 2.61536C18.8781 2.4935 18.8037 2.3829 18.71 2.28994ZM10 7.99994C9.80222 7.99994 9.60888 7.94129 9.44443 7.83141C9.27998 7.72153 9.15181 7.56535 9.07612 7.38262C9.00043 7.1999 8.98063 6.99883 9.01921 6.80485C9.0578 6.61087 9.15304 6.43268 9.29289 6.29283C9.43275 6.15298 9.61093 6.05774 9.80491 6.01915C9.99889 5.98057 10.2 6.00037 10.3827 6.07606C10.5654 6.15175 10.7216 6.27992 10.8315 6.44437C10.9414 6.60882 11 6.80216 11 6.99994C11 7.26516 10.8946 7.51951 10.7071 7.70705C10.5196 7.89458 10.2652 7.99994 10 7.99994ZM14 7.99994C13.8022 7.99994 13.6089 7.94129 13.4444 7.83141C13.28 7.72153 13.1518 7.56535 13.0761 7.38262C13.0004 7.1999 12.9806 6.99883 13.0192 6.80485C13.0578 6.61087 13.153 6.43268 13.2929 6.29283C13.4327 6.15298 13.6109 6.05774 13.8049 6.01915C13.9989 5.98057 14.2 6.00037 14.3827 6.07606C14.5654 6.15175 14.7216 6.27992 14.8315 6.44437C14.9414 6.60882 15 6.80216 15 6.99994C15 7.26516 14.8946 7.51951 14.7071 7.70705C14.5196 7.89458 14.2652 7.99994 14 7.99994ZM21 9.99994C20.7348 9.99994 20.4804 10.1053 20.2929 10.2928C20.1054 10.4804 20 10.7347 20 10.9999V15.9999C20 16.2652 20.1054 16.5195 20.2929 16.707C20.4804 16.8946 20.7348 16.9999 21 16.9999C21.2652 16.9999 21.5196 16.8946 21.7071 16.707C21.8946 16.5195 22 16.2652 22 15.9999V10.9999C22 10.7347 21.8946 10.4804 21.7071 10.2928C21.5196 10.1053 21.2652 9.99994 21 9.99994Z" fill="#141414"/>
</svg>
