<svg width="24" height="24" viewBox="0 0 24 24" fill="none" xmlns="http://www.w3.org/2000/svg">
<path d="M18.7099 14.29C18.617 14.1963 18.5064 14.1219 18.3845 14.0711C18.2627 14.0203 18.132 13.9942 17.9999 13.9942C17.8679 13.9942 17.7372 14.0203 17.6154 14.0711C17.4935 14.1219 17.3829 14.1963 17.2899 14.29L12.9999 18.59V3C12.9999 2.73478 12.8946 2.48043 12.707 2.29289C12.5195 2.10536 12.2652 2 11.9999 2C11.7347 2 11.4804 2.10536 11.2928 2.29289C11.1053 2.48043 10.9999 2.73478 10.9999 3V18.59L6.70994 14.29C6.52164 14.1017 6.26624 13.9959 5.99994 13.9959C5.73364 13.9959 5.47825 14.1017 5.28994 14.29C5.10164 14.4783 4.99585 14.7337 4.99585 15C4.99585 15.1319 5.02182 15.2624 5.07228 15.3842C5.12274 15.5061 5.1967 15.6168 5.28994 15.71L11.2899 21.71C11.3829 21.8037 11.4935 21.8781 11.6154 21.9289C11.7372 21.9797 11.8679 22.0058 11.9999 22.0058C12.132 22.0058 12.2627 21.9797 12.3845 21.9289C12.5064 21.8781 12.617 21.8037 12.7099 21.71L18.7099 15.71C18.8037 15.617 18.8781 15.5064 18.9288 15.3846C18.9796 15.2627 19.0057 15.132 19.0057 15C19.0057 14.868 18.9796 14.7373 18.9288 14.6154C18.8781 14.4936 18.8037 14.383 18.7099 14.29Z" fill="#141414"/>
</svg>
