<svg width="24" height="24" viewBox="0 0 24 24" fill="none" xmlns="http://www.w3.org/2000/svg">
<path d="M12 16.0001C13.3261 16.0001 14.5979 15.4733 15.5355 14.5356C16.4732 13.5979 17 12.3261 17 11.0001C16.9966 9.85745 16.682 8.73735 16.09 7.76005L12.85 2.48005C12.7603 2.33534 12.6352 2.21593 12.4864 2.13311C12.3377 2.0503 12.1702 2.00684 12 2.00684C11.8298 2.00684 11.6623 2.0503 11.5136 2.13311C11.3648 2.21593 11.2397 2.33534 11.15 2.48005L7.91 7.76005C7.31802 8.73735 7.00342 9.85745 7 11.0001C7 12.3261 7.52678 13.5979 8.46447 14.5356C9.40215 15.4733 10.6739 16.0001 12 16.0001ZM19 18.0001H5C4.73478 18.0001 4.48043 18.1054 4.29289 18.2929C4.10536 18.4805 4 18.7348 4 19.0001C4 19.2653 4.10536 19.5196 4.29289 19.7072C4.48043 19.8947 4.73478 20.0001 5 20.0001H5.59L5.29 20.2901C5.19627 20.383 5.12188 20.4936 5.07111 20.6155C5.02034 20.7373 4.9942 20.868 4.9942 21.0001C4.9942 21.1321 5.02034 21.2628 5.07111 21.3846C5.12188 21.5065 5.19627 21.6171 5.29 21.7101C5.38296 21.8038 5.49356 21.8782 5.61542 21.9289C5.73728 21.9797 5.86799 22.0059 6 22.0059C6.13201 22.0059 6.26272 21.9797 6.38458 21.9289C6.50644 21.8782 6.61704 21.8038 6.71 21.7101L8.41 20.0001H10.59L10.29 20.2901C10.1963 20.383 10.1219 20.4936 10.0711 20.6155C10.0203 20.7373 9.9942 20.868 9.9942 21.0001C9.9942 21.1321 10.0203 21.2628 10.0711 21.3846C10.1219 21.5065 10.1963 21.6171 10.29 21.7101C10.383 21.8038 10.4936 21.8782 10.6154 21.9289C10.7373 21.9797 10.868 22.0059 11 22.0059C11.132 22.0059 11.2627 21.9797 11.3846 21.9289C11.5064 21.8782 11.617 21.8038 11.71 21.7101L13.41 20.0001H15.59L15.29 20.2901C15.1963 20.383 15.1219 20.4936 15.0711 20.6155C15.0203 20.7373 14.9942 20.868 14.9942 21.0001C14.9942 21.1321 15.0203 21.2628 15.0711 21.3846C15.1219 21.5065 15.1963 21.6171 15.29 21.7101C15.383 21.8038 15.4936 21.8782 15.6154 21.9289C15.7373 21.9797 15.868 22.0059 16 22.0059C16.132 22.0059 16.2627 21.9797 16.3846 21.9289C16.5064 21.8782 16.617 21.8038 16.71 21.7101L18.41 20.0001H19C19.2652 20.0001 19.5196 19.8947 19.7071 19.7072C19.8946 19.5196 20 19.2653 20 19.0001C20 18.7348 19.8946 18.4805 19.7071 18.2929C19.5196 18.1054 19.2652 18.0001 19 18.0001Z" fill="#141414"/>
</svg>
