<svg width="24" height="24" viewBox="0 0 24 24" fill="none" xmlns="http://www.w3.org/2000/svg">
<path d="M14.0001 10.9998H22.0001C21.7675 8.69691 20.7433 6.54601 19.1021 4.9139C17.4608 3.28179 15.3043 2.26955 13.0001 2.0498V10.0498C13.013 10.3063 13.124 10.5479 13.3101 10.7248C13.4963 10.9017 13.7433 11.0001 14.0001 10.9998ZM11.0001 9.9998V2.0498C9.12039 2.2484 7.33544 2.97568 5.85219 4.14733C4.36893 5.31898 3.24812 6.88702 2.61967 8.66968C1.99123 10.4523 1.88089 12.3766 2.30144 14.2194C2.722 16.0622 3.65623 17.7481 4.99584 19.0816C6.33545 20.4151 8.02556 21.3417 9.87027 21.7538C11.715 22.166 13.6387 22.0469 15.4185 21.4103C17.1983 20.7738 18.7612 19.6458 19.9261 18.1572C21.091 16.6687 21.8101 14.8804 22.0001 12.9998H14.0001C13.2045 12.9998 12.4414 12.6837 11.8788 12.1211C11.3162 11.5585 11.0001 10.7955 11.0001 9.9998Z" fill="#141414"/>
</svg>
