<svg width="24" height="24" viewBox="0 0 24 24" fill="none" xmlns="http://www.w3.org/2000/svg">
<path d="M21.71 11.2902L15.71 5.29019C15.5217 5.10188 15.2663 4.99609 15 4.99609C14.7337 4.99609 14.4783 5.10188 14.29 5.29019C14.1017 5.47849 13.9959 5.73388 13.9959 6.00019C13.9959 6.26649 14.1017 6.52188 14.29 6.71019L18.59 11.0002H3C2.73478 11.0002 2.48043 11.1055 2.29289 11.2931C2.10536 11.4806 2 11.735 2 12.0002C2 12.2654 2.10536 12.5198 2.29289 12.7073C2.48043 12.8948 2.73478 13.0002 3 13.0002H18.59L14.29 17.2902C14.1963 17.3831 14.1219 17.4937 14.0711 17.6156C14.0203 17.7375 13.9942 17.8682 13.9942 18.0002C13.9942 18.1322 14.0203 18.2629 14.0711 18.3848C14.1219 18.5066 14.1963 18.6172 14.29 18.7102C14.383 18.8039 14.4936 18.8783 14.6154 18.9291C14.7373 18.9798 14.868 19.006 15 19.006C15.132 19.006 15.2627 18.9798 15.3846 18.9291C15.5064 18.8783 15.617 18.8039 15.71 18.7102L21.71 12.7102C21.8037 12.6172 21.8781 12.5066 21.9289 12.3848C21.9797 12.2629 22.0058 12.1322 22.0058 12.0002C22.0058 11.8682 21.9797 11.7375 21.9289 11.6156C21.8781 11.4937 21.8037 11.3831 21.71 11.2902Z" fill="#141414"/>
</svg>
