<svg width="24" height="24" viewBox="0 0 24 24" fill="none" xmlns="http://www.w3.org/2000/svg">
<path d="M3.88011 6.71011L6.71011 3.88011C6.89841 3.6918 7.0042 3.43641 7.0042 3.17011C7.0042 2.90381 6.89841 2.64841 6.71011 2.46011C6.5218 2.2718 6.26641 2.16602 6.00011 2.16602C5.73381 2.16602 5.47841 2.2718 5.29011 2.46011L2.46011 5.29011C2.2718 5.47841 2.16602 5.73381 2.16602 6.00011C2.16602 6.26641 2.2718 6.5218 2.46011 6.71011C2.64841 6.89841 2.90381 7.0042 3.17011 7.0042C3.43641 7.0042 3.6918 6.89841 3.88011 6.71011ZM21.5401 5.29011L18.7101 2.46011C18.6169 2.36687 18.5062 2.29291 18.3844 2.24245C18.2625 2.19199 18.132 2.16602 18.0001 2.16602C17.7338 2.16602 17.4784 2.2718 17.2901 2.46011C17.1018 2.64841 16.996 2.90381 16.996 3.17011C16.996 3.43641 17.1018 3.6918 17.2901 3.88011L20.1201 6.71011C20.3084 6.89841 20.5638 7.0042 20.8301 7.0042C21.0964 7.0042 21.3518 6.89841 21.5401 6.71011C21.7284 6.5218 21.8342 6.26641 21.8342 6.00011C21.8342 5.73381 21.7284 5.47841 21.5401 5.29011ZM12.0001 4.00011C10.3723 4.00432 8.77612 4.44994 7.38153 5.2895C5.98693 6.12906 4.84615 7.33114 4.08066 8.76773C3.31516 10.2043 2.95362 11.8216 3.03453 13.4474C3.11543 15.0732 3.63576 16.6466 4.54011 18.0001L3.29011 19.2901C3.1018 19.4784 2.99602 19.7338 2.99602 20.0001C2.99602 20.2664 3.1018 20.5218 3.29011 20.7101C3.47841 20.8984 3.73381 21.0042 4.00011 21.0042C4.26641 21.0042 4.5218 20.8984 4.71011 20.7101L5.85011 19.5601C7.51763 21.1208 9.71616 21.9891 12.0001 21.9891C14.2841 21.9891 16.4826 21.1208 18.1501 19.5601L19.2901 20.7101C19.4784 20.8984 19.7338 21.0042 20.0001 21.0042C20.2664 21.0042 20.5218 20.8984 20.7101 20.7101C20.8984 20.5218 21.0042 20.2664 21.0042 20.0001C21.0042 19.7338 20.8984 19.4784 20.7101 19.2901L19.4601 18.0001C20.3644 16.6466 20.8848 15.0732 20.9657 13.4474C21.0466 11.8216 20.6851 10.2043 19.9196 8.76773C19.1541 7.33114 18.0133 6.12906 16.6187 5.2895C15.2241 4.44994 13.6279 4.00432 12.0001 4.00011ZM14.1201 15.1201C13.9327 15.3064 13.6793 15.4109 13.4151 15.4109C13.1509 15.4109 12.8975 15.3064 12.7101 15.1201L11.2901 13.7101C11.2018 13.6129 11.1307 13.5013 11.0801 13.3801C11.0289 13.2599 11.0017 13.1308 11.0001 13.0001V8.00011C11.0001 7.73489 11.1055 7.48054 11.293 7.293C11.4805 7.10546 11.7349 7.00011 12.0001 7.00011C12.2653 7.00011 12.5197 7.10546 12.7072 7.293C12.8948 7.48054 13.0001 7.73489 13.0001 8.00011V12.5901L14.1201 13.7101C14.3064 13.8975 14.4109 14.1509 14.4109 14.4151C14.4109 14.6793 14.3064 14.9327 14.1201 15.1201Z" fill="#141414"/>
</svg>
