<svg width="24" height="24" viewBox="0 0 24 24" fill="none" xmlns="http://www.w3.org/2000/svg">
<path d="M18 11H16C15.2044 11 14.4413 11.3161 13.8787 11.8787C13.3161 12.4413 13 13.2043 13 14V20C13 20.2652 13.1054 20.5196 13.2929 20.7071C13.4804 20.8946 13.7348 21 14 21H20C20.2652 21 20.5196 20.8946 20.7071 20.7071C20.8946 20.5196 21 20.2652 21 20V14C21 13.2043 20.6839 12.4413 20.1213 11.8787C19.5587 11.3161 18.7956 11 18 11ZM10 3.99998C9.99944 3.81532 9.94776 3.63441 9.85068 3.47732C9.7536 3.32023 9.61491 3.19308 9.45 3.10998C9.29018 3.03549 9.1135 3.00458 8.93789 3.02038C8.76227 3.03619 8.59395 3.09815 8.45 3.19998L4.45 6.19998C4.31657 6.28771 4.20608 6.40612 4.12779 6.5453C4.0495 6.68449 4.00568 6.84039 4 6.99998V11H10V3.99998ZM10 13H4C3.73478 13 3.48043 13.1053 3.29289 13.2929C3.10536 13.4804 3 13.7348 3 14V20C3 20.2652 3.10536 20.5196 3.29289 20.7071C3.48043 20.8946 3.73478 21 4 21H10C10.2652 21 10.5196 20.8946 10.7071 20.7071C10.8946 20.5196 11 20.2652 11 20V14C11 13.7348 10.8946 13.4804 10.7071 13.2929C10.5196 13.1053 10.2652 13 10 13Z" fill="#141414"/>
</svg>
