<svg width="24" height="24" viewBox="0 0 24 24" fill="none" xmlns="http://www.w3.org/2000/svg">
<path d="M12.5001 5C12.7967 5 13.0868 4.91203 13.3334 4.7472C13.5801 4.58238 13.7724 4.34811 13.8859 4.07403C13.9994 3.79994 14.0291 3.49834 13.9713 3.20737C13.9134 2.91639 13.7705 2.64912 13.5607 2.43934C13.351 2.22956 13.0837 2.0867 12.7927 2.02882C12.5017 1.97094 12.2001 2.00065 11.926 2.11418C11.652 2.22771 11.4177 2.41997 11.2529 2.66665C11.088 2.91332 11.0001 3.20333 11.0001 3.5C11.0001 3.89783 11.1581 4.27936 11.4394 4.56066C11.7207 4.84197 12.1022 5 12.5001 5ZM19.0001 12.32C19.0424 12.1953 19.0597 12.0634 19.051 11.9319C19.0422 11.8005 19.0076 11.6721 18.949 11.5541C18.8905 11.4361 18.8092 11.3308 18.7098 11.2443C18.6105 11.1578 18.495 11.0917 18.3701 11.05L16.3701 10.38C15.9595 10.2328 15.6083 9.95533 15.3701 9.59L14.2401 7.89C13.9489 7.45972 13.5486 7.11459 13.0801 6.89L11.5601 6.13C11.4432 6.0537 11.3116 6.00271 11.1738 5.98032C11.0361 5.95793 10.8951 5.96463 10.7601 6L7.92007 6.71C7.38971 6.84455 6.90625 7.12158 6.522 7.51111C6.13775 7.90065 5.86736 8.38785 5.74007 8.92L5.00007 11.76C4.96449 11.8914 4.95613 12.0288 4.9755 12.1636C4.99488 12.2983 5.04157 12.4278 5.11273 12.5439C5.18389 12.66 5.27801 12.7603 5.38932 12.8387C5.50064 12.9172 5.6268 12.972 5.76007 13H6.00007C6.22851 13.0067 6.45233 12.9349 6.63428 12.7966C6.81623 12.6583 6.94532 12.4619 7.00007 12.24L7.71007 9.41C7.75384 9.23343 7.84495 9.07215 7.97359 8.94351C8.10222 8.81488 8.2635 8.72377 8.44007 8.68L9.59007 8.39L6.00007 20.73C5.95942 20.8613 5.94629 20.9996 5.96148 21.1362C5.97667 21.2728 6.01987 21.4049 6.08837 21.524C6.15688 21.6432 6.24922 21.747 6.35963 21.8289C6.47003 21.9108 6.59614 21.969 6.73007 22C6.81948 22.0146 6.91066 22.0146 7.00007 22C7.22452 22.0083 7.44523 21.9408 7.62663 21.8084C7.80804 21.6759 7.93958 21.4863 8.00007 21.27L10.0001 14.06L11.7601 14.65L10.0001 20.73C9.95942 20.8613 9.94628 20.9996 9.96148 21.1362C9.97667 21.2728 10.0199 21.4049 10.0884 21.524C10.1569 21.6432 10.2492 21.747 10.3596 21.8289C10.47 21.9108 10.5961 21.969 10.7301 22C10.8195 22.0146 10.9107 22.0146 11.0001 22C11.2245 22.0083 11.4452 21.9408 11.6266 21.8084C11.808 21.6759 11.9396 21.4863 12.0001 21.27L13.7001 15.2C13.8426 14.7041 13.788 14.1723 13.5476 13.7157C13.3072 13.2591 12.8996 12.9131 12.4101 12.75L10.5701 12.14L11.6301 8.43L12.0801 8.66C12.2372 8.73385 12.3693 8.85203 12.4601 9L13.6001 10.7C14.0936 11.4373 14.8183 11.9896 15.6601 12.27L17.6601 12.95C17.7888 13.0035 17.9273 13.0296 18.0667 13.0264C18.2061 13.0232 18.3433 12.991 18.4695 12.9316C18.5957 12.8723 18.7081 12.7872 18.7995 12.6819C18.8908 12.5766 18.9592 12.4533 19.0001 12.32ZM18.5001 14C18.2034 14 17.9134 14.088 17.6667 14.2528C17.42 14.4176 17.2278 14.6519 17.1143 14.926C17.0007 15.2001 16.971 15.5017 17.0289 15.7926C17.0868 16.0836 17.2296 16.3509 17.4394 16.5607C17.6492 16.7704 17.9165 16.9133 18.2074 16.9712C18.4984 17.0291 18.8 16.9994 19.0741 16.8858C19.3482 16.7723 19.5825 16.58 19.7473 16.3334C19.9121 16.0867 20.0001 15.7967 20.0001 15.5C20.0001 15.1022 19.842 14.7206 19.5607 14.4393C19.2794 14.158 18.8979 14 18.5001 14Z" fill="#141414"/>
</svg>
