<svg width="24" height="24" viewBox="0 0 24 24" fill="none" xmlns="http://www.w3.org/2000/svg">
<path d="M7.05 15.54L6.34 16.24C6.1517 16.4283 6.04591 16.6837 6.04591 16.95C6.04591 17.2163 6.1517 17.4717 6.34 17.66C6.5283 17.8483 6.7837 17.9541 7.05 17.9541C7.3163 17.9541 7.5717 17.8483 7.76 17.66L8.46 16.95C8.56468 16.8604 8.6497 16.75 8.70973 16.626C8.76975 16.5019 8.80348 16.3668 8.8088 16.2291C8.81412 16.0913 8.79091 15.954 8.74064 15.8257C8.69036 15.6974 8.6141 15.5808 8.51665 15.4833C8.4192 15.3859 8.30265 15.3096 8.17432 15.2594C8.046 15.2091 7.90867 15.1859 7.77095 15.1912C7.63323 15.1965 7.49809 15.2303 7.37403 15.2903C7.24997 15.3503 7.13965 15.4353 7.05 15.54ZM7 12C7 11.7348 6.89464 11.4804 6.70711 11.2929C6.51957 11.1054 6.26522 11 6 11H5C4.73478 11 4.48043 11.1054 4.29289 11.2929C4.10536 11.4804 4 11.7348 4 12C4 12.2652 4.10536 12.5196 4.29289 12.7071C4.48043 12.8946 4.73478 13 5 13H6C6.26522 13 6.51957 12.8946 6.70711 12.7071C6.89464 12.5196 7 12.2652 7 12ZM17 8.46L17.71 7.76C17.8983 7.5717 18.0041 7.3163 18.0041 7.05C18.0041 6.7837 17.8983 6.5283 17.71 6.34C17.5217 6.1517 17.2663 6.04591 17 6.04591C16.7337 6.04591 16.4783 6.1517 16.29 6.34L15.59 7.05C15.4853 7.13965 15.4003 7.24997 15.3403 7.37403C15.2803 7.49809 15.2465 7.63323 15.2412 7.77095C15.2359 7.90867 15.2591 8.046 15.3094 8.17432C15.3596 8.30265 15.4359 8.4192 15.5333 8.51665C15.6308 8.6141 15.7474 8.69036 15.8757 8.74064C16.004 8.79091 16.1413 8.81412 16.2791 8.8088C16.4168 8.80348 16.5519 8.76975 16.676 8.70973C16.8 8.6497 16.9104 8.56468 17 8.46ZM12 7C12.2652 7 12.5196 6.89464 12.7071 6.70711C12.8946 6.51957 13 6.26522 13 6V5C13 4.73478 12.8946 4.48043 12.7071 4.29289C12.5196 4.10536 12.2652 4 12 4C11.7348 4 11.4804 4.10536 11.2929 4.29289C11.1054 4.48043 11 4.73478 11 5V6C11 6.26522 11.1054 6.51957 11.2929 6.70711C11.4804 6.89464 11.7348 7 12 7ZM7.05 8.46C7.13965 8.56468 7.24997 8.6497 7.37403 8.70973C7.49809 8.76975 7.63323 8.80348 7.77095 8.8088C7.90867 8.81412 8.046 8.79091 8.17432 8.74064C8.30265 8.69036 8.4192 8.6141 8.51665 8.51665C8.6141 8.4192 8.69036 8.30265 8.74064 8.17432C8.79091 8.046 8.81412 7.90867 8.8088 7.77095C8.80348 7.63323 8.76975 7.49809 8.70973 7.37403C8.6497 7.24997 8.56468 7.13965 8.46 7.05L7.76 6.34C7.66676 6.24676 7.55607 6.1728 7.43425 6.12234C7.31243 6.07188 7.18186 6.04591 7.05 6.04591C6.7837 6.04591 6.5283 6.1517 6.34 6.34C6.24676 6.43324 6.1728 6.54393 6.12234 6.66575C6.07188 6.78757 6.04591 6.91814 6.04591 7.05C6.04591 7.3163 6.1517 7.5717 6.34 7.76L7.05 8.46ZM12 17C11.7348 17 11.4804 17.1054 11.2929 17.2929C11.1054 17.4804 11 17.7348 11 18V19C11 19.2652 11.1054 19.5196 11.2929 19.7071C11.4804 19.8946 11.7348 20 12 20C12.2652 20 12.5196 19.8946 12.7071 19.7071C12.8946 19.5196 13 19.2652 13 19V18C13 17.7348 12.8946 17.4804 12.7071 17.2929C12.5196 17.1054 12.2652 17 12 17ZM19 11H18C17.7348 11 17.4804 11.1054 17.2929 11.2929C17.1054 11.4804 17 11.7348 17 12C17 12.2652 17.1054 12.5196 17.2929 12.7071C17.4804 12.8946 17.7348 13 18 13H19C19.2652 13 19.5196 12.8946 19.7071 12.7071C19.8946 12.5196 20 12.2652 20 12C20 11.7348 19.8946 11.4804 19.7071 11.2929C19.5196 11.1054 19.2652 11 19 11ZM17 15.54C16.9041 15.4441 16.7903 15.3681 16.6651 15.3162C16.5398 15.2643 16.4056 15.2376 16.27 15.2376C16.1344 15.2376 16.0002 15.2643 15.8749 15.3162C15.7497 15.3681 15.6359 15.4441 15.54 15.54C15.4441 15.6359 15.3681 15.7497 15.3162 15.8749C15.2643 16.0002 15.2376 16.1344 15.2376 16.27C15.2376 16.4056 15.2643 16.5398 15.3162 16.6651C15.3681 16.7903 15.4441 16.9041 15.54 17L16.24 17.71C16.4283 17.8983 16.6837 18.0041 16.95 18.0041C17.2163 18.0041 17.4717 17.8983 17.66 17.71C17.8483 17.5217 17.9541 17.2663 17.9541 17C17.9541 16.7337 17.8483 16.4783 17.66 16.29L17 15.54ZM12 8C11.2089 8 10.4355 8.2346 9.77772 8.67412C9.11992 9.11365 8.60723 9.73836 8.30448 10.4693C8.00173 11.2002 7.92252 12.0044 8.07686 12.7804C8.2312 13.5563 8.61216 14.269 9.17157 14.8284C9.73098 15.3878 10.4437 15.7688 11.2196 15.9231C11.9956 16.0775 12.7998 15.9983 13.5307 15.6955C14.2616 15.3928 14.8864 14.8801 15.3259 14.2223C15.7654 13.5645 16 12.7911 16 12C16 10.9391 15.5786 9.92172 14.8284 9.17157C14.0783 8.42143 13.0609 8 12 8Z" fill="#141414"/>
</svg>
