<svg width="24" height="24" viewBox="0 0 24 24" fill="none" xmlns="http://www.w3.org/2000/svg">
<path d="M14 7.00003H10V9.00003H14V7.00003ZM12 6.00003C12.3478 5.99981 12.6816 5.86341 12.93 5.62003C13.0519 5.49797 13.1482 5.35288 13.2135 5.19322C13.2787 5.03355 13.3115 4.8625 13.31 4.69003C13.3113 4.51907 13.2784 4.34959 13.2131 4.19157C13.1478 4.03356 13.0516 3.89023 12.93 3.77003L12.26 3.11003C12.2264 3.07494 12.186 3.04701 12.1414 3.02794C12.0967 3.00886 12.0486 2.99902 12 2.99902C11.9514 2.99902 11.9033 3.00886 11.8586 3.02794C11.814 3.04701 11.7736 3.07494 11.74 3.11003L11.07 3.77003C10.9484 3.89023 10.8522 4.03356 10.7869 4.19157C10.7216 4.34959 10.6887 4.51907 10.69 4.69003C10.6885 4.8625 10.7213 5.03355 10.7865 5.19322C10.8518 5.35288 10.9481 5.49797 11.07 5.62003C11.3184 5.86341 11.6522 5.99981 12 6.00003ZM7.5 15C7.80167 14.9952 8.09881 14.9258 8.37137 14.7964C8.64393 14.6671 8.88557 14.4807 9.08 14.25C9.45405 13.852 9.90566 13.5347 10.407 13.3179C10.9083 13.101 11.4488 12.9891 11.995 12.9891C12.5412 12.9891 13.0817 13.101 13.583 13.3179C14.0843 13.5347 14.536 13.852 14.91 14.25C15.0968 14.4928 15.3369 14.6894 15.6117 14.8246C15.8865 14.9599 16.1887 15.0303 16.495 15.0303C16.8013 15.0303 17.1035 14.9599 17.3783 14.8246C17.6531 14.6894 17.8932 14.4928 18.08 14.25C18.6136 13.7163 19.2744 13.3274 20 13.12V12C20 11.4696 19.7893 10.9609 19.4142 10.5858C19.0391 10.2107 18.5304 10 18 10H6C5.46957 10 4.96086 10.2107 4.58579 10.5858C4.21071 10.9609 4 11.4696 4 12V13.12C4.72102 13.3313 5.37765 13.7198 5.91 14.25C6.10596 14.4815 6.3493 14.6682 6.62359 14.7976C6.89789 14.927 7.19675 14.996 7.5 15ZM20 19V15.28C19.7928 15.423 19.5957 15.58 19.41 15.75C19.036 16.1481 18.5843 16.4653 18.083 16.6822C17.5817 16.899 17.0412 17.0109 16.495 17.0109C15.9488 17.0109 15.4083 16.899 14.907 16.6822C14.4057 16.4653 13.954 16.1481 13.58 15.75C13.3932 15.5073 13.1531 15.3107 12.8783 15.1754C12.6035 15.0401 12.3013 14.9698 11.995 14.9698C11.6887 14.9698 11.3865 15.0401 11.1117 15.1754C10.8369 15.3107 10.5968 15.5073 10.41 15.75C10.036 16.1481 9.58434 16.4653 9.083 16.6822C8.58167 16.899 8.04123 17.0109 7.495 17.0109C6.94877 17.0109 6.40833 16.899 5.90699 16.6822C5.40566 16.4653 4.95405 16.1481 4.58 15.75C4.40025 15.5803 4.2062 15.4264 4 15.29V19C3.73478 19 3.48043 19.1054 3.29289 19.2929C3.10536 19.4805 3 19.7348 3 20C3 20.2652 3.10536 20.5196 3.29289 20.7071C3.48043 20.8947 3.73478 21 4 21H20C20.2652 21 20.5196 20.8947 20.7071 20.7071C20.8946 20.5196 21 20.2652 21 20C21 19.7348 20.8946 19.4805 20.7071 19.2929C20.5196 19.1054 20.2652 19 20 19Z" fill="#141414"/>
</svg>
