<svg width="24" height="24" viewBox="0 0 24 24" fill="none" xmlns="http://www.w3.org/2000/svg">
<path d="M5.05002 9.14999C4.42161 9.36113 3.88084 9.77447 3.51217 10.3254C3.14351 10.8764 2.96773 11.534 3.01228 12.1954C3.05683 12.8568 3.31921 13.4849 3.75843 13.9814C4.19765 14.478 4.78897 14.815 5.44002 14.94C5.07213 15.5622 4.94129 16.2964 5.07154 17.0074C5.2018 17.7184 5.58439 18.3585 6.14896 18.8099C6.71353 19.2613 7.42211 19.4937 8.14436 19.4643C8.86662 19.4349 9.55398 19.1458 10.08 18.65C10.2028 19.2064 10.4815 19.7163 10.8835 20.12C11.2855 20.5238 11.7942 20.8047 12.35 20.93C12.5634 20.9774 12.7814 21.0009 13 21C13.6829 21.0003 14.3455 20.7675 14.8783 20.3403C15.411 19.913 15.7821 19.3167 15.93 18.65L17.62 11L13.07 6.48L5.05002 9.14999ZM20.05 3.82C19.4744 3.27125 18.7044 2.97354 17.9093 2.99229C17.1142 3.01104 16.3592 3.34473 15.81 3.92L14.61 5.19999L18.85 9.43999L20.17 8.06C20.7175 7.48304 21.0134 6.71231 20.9928 5.91722C20.9722 5.12214 20.6367 4.36778 20.06 3.82H20.05Z" fill="#141414"/>
</svg>
