<svg width="24" height="24" viewBox="0 0 24 24" fill="none" xmlns="http://www.w3.org/2000/svg">
<path d="M18.92 16.1499C18.92 16.1499 18.92 16.0699 18.92 16.0299C18.8494 15.9024 18.7543 15.7902 18.64 15.6999L13.67 11.9999L18.6 8.29985C18.7113 8.2183 18.8063 8.11653 18.88 7.99985C18.88 7.99985 18.88 7.91985 18.88 7.87985C18.9332 7.77861 18.9735 7.67111 19 7.55985C19 7.55985 19 7.55985 19 7.49985C19 7.43985 19 7.43985 19 7.40985C18.9896 7.31799 18.9695 7.22748 18.94 7.13985C18.9104 7.09062 18.877 7.04381 18.84 6.99985C18.8438 6.96997 18.8438 6.93973 18.84 6.90985C18.7992 6.87032 18.7557 6.83357 18.71 6.79985C18.71 6.79985 18.71 6.72985 18.64 6.70985L12.64 2.20985C12.4926 2.08697 12.3129 2.00912 12.1224 1.98558C11.9319 1.96204 11.7387 1.99381 11.5658 2.07711C11.3929 2.1604 11.2476 2.29169 11.1473 2.45531C11.0469 2.61893 10.9958 2.80797 11 2.99985V9.99985L6.6 6.69985C6.49494 6.62106 6.37539 6.56373 6.24818 6.53114C6.12097 6.49855 5.98858 6.49133 5.85858 6.5099C5.72858 6.52847 5.60351 6.57247 5.49051 6.63938C5.37751 6.70628 5.27879 6.79479 5.2 6.89985C5.12121 7.00491 5.06388 7.12446 5.03129 7.25167C4.9987 7.37888 4.99148 7.51127 5.01005 7.64127C5.04756 7.90382 5.18783 8.14072 5.4 8.29985L10.33 11.9999L5.4 15.6999C5.18783 15.859 5.04756 16.0959 5.01005 16.3584C4.97254 16.621 5.04087 16.8877 5.2 17.0999C5.29315 17.224 5.41393 17.3249 5.55279 17.3943C5.69164 17.4637 5.84476 17.4999 6 17.4999C6.21637 17.4999 6.4269 17.4297 6.6 17.2999L11 13.9999V20.9999C11.0006 21.1845 11.0522 21.3654 11.1493 21.5225C11.2464 21.6796 11.3851 21.8068 11.55 21.8899C11.7098 21.9643 11.8865 21.9953 12.0621 21.9795C12.2377 21.9636 12.4061 21.9017 12.55 21.7999L18.55 17.2999C18.55 17.2999 18.61 17.2199 18.64 17.1899C18.67 17.1599 18.72 17.1399 18.75 17.0999C18.7538 17.07 18.7538 17.0397 18.75 17.0099C18.7805 16.962 18.8073 16.9119 18.83 16.8599C18.8595 16.7722 18.8796 16.6817 18.89 16.5899C18.89 16.5899 18.89 16.5299 18.89 16.4999C18.89 16.4699 18.89 16.4999 18.89 16.4399C18.9103 16.3445 18.9203 16.2473 18.92 16.1499ZM13 4.99985L16.33 7.49985L13 9.99985V4.99985ZM13 18.9999V13.9999L16.33 16.4999L13 18.9999ZM19.5 10.4999C19.2033 10.4999 18.9133 10.5878 18.6666 10.7526C18.42 10.9175 18.2277 11.1517 18.1142 11.4258C18.0007 11.6999 17.9709 12.0015 18.0288 12.2925C18.0867 12.5835 18.2296 12.8507 18.4393 13.0605C18.6491 13.2703 18.9164 13.4132 19.2074 13.471C19.4983 13.5289 19.7999 13.4992 20.074 13.3857C20.3481 13.2721 20.5824 13.0799 20.7472 12.8332C20.912 12.5865 21 12.2965 21 11.9999C21 11.602 20.842 11.2205 20.5607 10.9392C20.2794 10.6579 19.8978 10.4999 19.5 10.4999ZM6 11.9999C6 11.7032 5.91203 11.4132 5.7472 11.1665C5.58238 10.9198 5.34811 10.7276 5.07403 10.614C4.79994 10.5005 4.49834 10.4708 4.20737 10.5287C3.91639 10.5866 3.64912 10.7294 3.43934 10.9392C3.22956 11.149 3.0867 11.4162 3.02882 11.7072C2.97094 11.9982 3.00065 12.2998 3.11418 12.5739C3.22771 12.848 3.41997 13.0822 3.66665 13.2471C3.91332 13.4119 4.20333 13.4999 4.5 13.4999C4.89783 13.4999 5.27936 13.3418 5.56066 13.0605C5.84197 12.7792 6 12.3977 6 11.9999Z" fill="#141414"/>
</svg>
