<svg width="24" height="24" viewBox="0 0 24 24" fill="none" xmlns="http://www.w3.org/2000/svg">
<path d="M16 4C16 3.46957 15.7893 2.96086 15.4142 2.58579C15.0391 2.21071 14.5304 2 14 2H10C9.46957 2 8.96086 2.21071 8.58579 2.58579C8.21071 2.96086 8 3.46957 8 4C7.20435 4 6.44129 4.31607 5.87868 4.87868C5.31607 5.44129 5 6.20435 5 7V19C5 19.7956 5.31607 20.5587 5.87868 21.1213C6.44129 21.6839 7.20435 22 8 22H16C16.7956 22 17.5587 21.6839 18.1213 21.1213C18.6839 20.5587 19 19.7956 19 19V7C19 6.20435 18.6839 5.44129 18.1213 4.87868C17.5587 4.31607 16.7956 4 16 4ZM17 19C17 19.2652 16.8946 19.5196 16.7071 19.7071C16.5196 19.8946 16.2652 20 16 20H8C7.73478 20 7.48043 19.8946 7.29289 19.7071C7.10536 19.5196 7 19.2652 7 19V7C7 6.73478 7.10536 6.48043 7.29289 6.29289C7.48043 6.10536 7.73478 6 8 6H9C9.26522 6 9.51957 5.89464 9.70711 5.70711C9.89464 5.51957 10 5.26522 10 5V4H14V5C14 5.26522 14.1054 5.51957 14.2929 5.70711C14.4804 5.89464 14.7348 6 15 6H16C16.2652 6 16.5196 6.10536 16.7071 6.29289C16.8946 6.48043 17 6.73478 17 7V19ZM14 12H12L13.8 9.6C13.8788 9.49494 13.9361 9.37539 13.9687 9.24818C14.0013 9.12097 14.0085 8.98858 13.9899 8.85858C13.9714 8.72858 13.9274 8.60351 13.8605 8.49051C13.7936 8.37751 13.7051 8.27879 13.6 8.2C13.4949 8.12121 13.3754 8.06388 13.2482 8.03129C13.121 7.99869 12.9886 7.99148 12.8586 8.01005C12.7286 8.02862 12.6035 8.07262 12.4905 8.13953C12.3775 8.20643 12.2788 8.29494 12.2 8.4L9.2 12.4C9.09817 12.544 9.0362 12.7123 9.0204 12.8879C9.00459 13.0635 9.0355 13.2402 9.11 13.4C9.18597 13.5743 9.31005 13.7233 9.46768 13.8295C9.62531 13.9358 9.80996 13.9949 10 14H12L10.2 16.4C10.0409 16.6122 9.97254 16.8789 10.0101 17.1414C10.0476 17.404 10.1878 17.6409 10.4 17.8C10.5731 17.9298 10.7836 18 11 18C11.1552 18 11.3084 17.9639 11.4472 17.8944C11.5861 17.825 11.7069 17.7242 11.8 17.6L14.8 13.6C14.9114 13.4514 14.9793 13.2748 14.996 13.0898C15.0126 12.9048 14.9775 12.7189 14.8944 12.5528C14.8114 12.3867 14.6837 12.247 14.5257 12.1493C14.3678 12.0517 14.1857 12 14 12Z" fill="#141414"/>
</svg>
