<svg width="24" height="24" viewBox="0 0 24 24" fill="none" xmlns="http://www.w3.org/2000/svg">
<path d="M12 14.9999C11.8022 14.9999 11.6089 15.0586 11.4444 15.1685C11.28 15.2784 11.1518 15.4345 11.0761 15.6173C11.0004 15.8 10.9806 16.0011 11.0192 16.195C11.0578 16.389 11.153 16.5672 11.2929 16.707C11.4327 16.8469 11.6109 16.9421 11.8049 16.9807C11.9989 17.0193 12.2 16.9995 12.3827 16.9238C12.5654 16.8481 12.7216 16.72 12.8315 16.5555C12.9414 16.3911 13 16.1977 13 15.9999C13 15.7347 12.8946 15.4804 12.7071 15.2928C12.5196 15.1053 12.2652 14.9999 12 14.9999ZM12 10.9999C11.8022 10.9999 11.6089 11.0586 11.4444 11.1685C11.28 11.2784 11.1518 11.4345 11.0761 11.6173C11.0004 11.8 10.9806 12.0011 11.0192 12.195C11.0578 12.389 11.153 12.5672 11.2929 12.707C11.4327 12.8469 11.6109 12.9421 11.8049 12.9807C11.9989 13.0193 12.2 12.9995 12.3827 12.9238C12.5654 12.8481 12.7216 12.72 12.8315 12.5555C12.9414 12.3911 13 12.1977 13 11.9999C13 11.7347 12.8946 11.4804 12.7071 11.2928C12.5196 11.1053 12.2652 10.9999 12 10.9999ZM8.5 5.99994C8.56593 6.01398 8.63407 6.01398 8.7 5.99994L12 4.53994L15.3 5.99994C15.3659 6.01398 15.4341 6.01398 15.5 5.99994C15.5958 5.99969 15.6895 5.97192 15.77 5.91994C15.8417 5.87619 15.9008 5.81438 15.9411 5.74067C15.9815 5.66697 16.0018 5.58396 16 5.49994V2.49994C16.0018 2.41593 15.9815 2.33292 15.9411 2.25921C15.9008 2.18551 15.8417 2.12369 15.77 2.07994C15.6979 2.04055 15.6171 2.01991 15.535 2.01991C15.4529 2.01991 15.3721 2.04055 15.3 2.07994L12 3.45994L8.7 1.99994C8.62614 1.96055 8.54371 1.93994 8.46 1.93994C8.37629 1.93994 8.29386 1.96055 8.22 1.99994C8.13879 2.05296 8.07475 2.12846 8.03568 2.21724C7.99662 2.30602 7.98422 2.40424 8 2.49994V5.49994C7.99905 5.58269 8.01865 5.66437 8.05705 5.73768C8.09545 5.81098 8.15144 5.87361 8.22 5.91994C8.30483 5.9704 8.40131 5.99797 8.5 5.99994ZM12 6.99994C11.8022 6.99994 11.6089 7.05859 11.4444 7.16847C11.28 7.27835 11.1518 7.43453 11.0761 7.61726C11.0004 7.79998 10.9806 8.00105 11.0192 8.19503C11.0578 8.38901 11.153 8.5672 11.2929 8.70705C11.4327 8.8469 11.6109 8.94214 11.8049 8.98073C11.9989 9.01931 12.2 8.99951 12.3827 8.92382C12.5654 8.84813 12.7216 8.71996 12.8315 8.55551C12.9414 8.39106 13 8.19772 13 7.99994C13 7.73472 12.8946 7.48037 12.7071 7.29283C12.5196 7.1053 12.2652 6.99994 12 6.99994ZM17 3.99994V13.9999C17 15.326 16.4732 16.5978 15.5355 17.5355C14.5979 18.4732 13.3261 18.9999 12 18.9999C10.6739 18.9999 9.40215 18.4732 8.46447 17.5355C7.52678 16.5978 7 15.326 7 13.9999V3.99994C6.20435 3.99994 5.44129 4.31601 4.87868 4.87862C4.31607 5.44123 4 6.20429 4 6.99994V18.9999C4 19.7956 4.31607 20.5587 4.87868 21.1213C5.44129 21.6839 6.20435 21.9999 7 21.9999H17C17.7956 21.9999 18.5587 21.6839 19.1213 21.1213C19.6839 20.5587 20 19.7956 20 18.9999V6.99994C20 6.20429 19.6839 5.44123 19.1213 4.87862C18.5587 4.31601 17.7956 3.99994 17 3.99994Z" fill="#141414"/>
</svg>
