<svg width="24" height="24" viewBox="0 0 24 24" fill="none" xmlns="http://www.w3.org/2000/svg">
<path d="M17 2H7C6.20435 2 5.44129 2.31607 4.87868 2.87868C4.31607 3.44129 4 4.20435 4 5V20C4.00036 20.3507 4.09294 20.6952 4.26846 20.9988C4.44398 21.3025 4.69626 21.5546 5 21.73C5.30384 21.9063 5.64874 21.9994 6 22C6.35126 21.9994 6.69616 21.9063 7 21.73L12 18.85L17 21.73C17.3038 21.9063 17.6487 21.9994 18 22C18.3513 21.9994 18.6962 21.9063 19 21.73C19.3037 21.5546 19.556 21.3025 19.7315 20.9988C19.9071 20.6952 19.9996 20.3507 20 20V5C20 4.20435 19.6839 3.44129 19.1213 2.87868C18.5587 2.31607 17.7956 2 17 2Z" fill="#141414"/>
</svg>
