<svg width="24" height="24" viewBox="0 0 24 24" fill="none" xmlns="http://www.w3.org/2000/svg">
<path d="M8.50016 10.9998C7.32622 11.0601 6.21634 11.5536 5.38514 12.3848C4.55395 13.216 4.06048 14.3259 4.00016 15.4998C4.00016 18.3098 3.32016 19.2598 3.26016 19.3198C3.13232 19.461 3.04747 19.6358 3.01558 19.8236C2.98369 20.0113 3.0061 20.2043 3.08016 20.3798C3.15518 20.5624 3.28258 20.7187 3.4463 20.8291C3.61002 20.9394 3.80273 20.9988 4.00016 20.9998C8.19016 20.9998 13.0002 20.3798 13.0002 15.4998C12.9398 14.3259 12.4464 13.216 11.6152 12.3848C10.784 11.5536 9.6741 11.0601 8.50016 10.9998ZM20.1202 3.8798C19.5577 3.318 18.7952 3.00244 18.0002 3.00244C17.2052 3.00244 16.4427 3.318 15.8802 3.8798L10.4302 9.3198C11.4062 9.674 12.2913 10.2409 13.0212 10.9794C13.751 11.718 14.3075 12.6096 14.6502 13.5898L20.1202 8.1198C20.682 7.5573 20.9975 6.7948 20.9975 5.9998C20.9975 5.2048 20.682 4.4423 20.1202 3.8798Z" fill="#141414"/>
</svg>
