<svg width="24" height="24" viewBox="0 0 24 24" fill="none" xmlns="http://www.w3.org/2000/svg">
<path d="M12.0001 9C11.6045 9 11.2178 9.1173 10.889 9.33706C10.5601 9.55682 10.3037 9.86918 10.1523 10.2346C10.001 10.6001 9.96135 11.0022 10.0385 11.3902C10.1157 11.7781 10.3062 12.1345 10.5859 12.4142C10.8656 12.6939 11.2219 12.8844 11.6099 12.9616C11.9979 13.0387 12.4 12.9991 12.7655 12.8478C13.1309 12.6964 13.4433 12.44 13.663 12.1111C13.8828 11.7822 14.0001 11.3956 14.0001 11C14.0001 10.4696 13.7894 9.96086 13.4143 9.58579C13.0392 9.21071 12.5305 9 12.0001 9ZM12.0001 4C10.962 4.00142 9.9373 4.2337 9.00009 4.68V3C9.00009 2.73478 8.89473 2.48043 8.7072 2.29289C8.51966 2.10536 8.26531 2 8.00009 2C7.73487 2 7.48052 2.10536 7.29298 2.29289C7.10545 2.48043 7.00009 2.73478 7.00009 3V6C6.99541 6.02982 6.99541 6.06018 7.00009 6.09C5.70991 7.39749 4.9907 9.16315 5.00009 11V19C5.00009 19.7956 5.31616 20.5587 5.87877 21.1213C6.44138 21.6839 7.20444 22 8.00009 22H16.0001C16.7957 22 17.5588 21.6839 18.1214 21.1213C18.684 20.5587 19.0001 19.7956 19.0001 19V11C19.0001 9.14348 18.2626 7.36301 16.9498 6.05025C15.6371 4.7375 13.8566 4 12.0001 4ZM9.00009 19C8.80231 19 8.60897 18.9414 8.44452 18.8315C8.28007 18.7216 8.1519 18.5654 8.07621 18.3827C8.00052 18.2 7.98072 17.9989 8.01931 17.8049C8.05789 17.6109 8.15313 17.4327 8.29298 17.2929C8.43284 17.153 8.61102 17.0578 8.805 17.0192C8.99898 16.9806 9.20005 17.0004 9.38277 17.0761C9.5655 17.1518 9.72168 17.28 9.83156 17.4444C9.94144 17.6089 10.0001 17.8022 10.0001 18C10.0001 18.2652 9.89473 18.5196 9.7072 18.7071C9.51966 18.8946 9.26531 19 9.00009 19ZM15.0001 19H13.0001C12.7349 19 12.4805 18.8946 12.293 18.7071C12.1054 18.5196 12.0001 18.2652 12.0001 18C12.0001 17.7348 12.1054 17.4804 12.293 17.2929C12.4805 17.1054 12.7349 17 13.0001 17H15.0001C15.2653 17 15.5197 17.1054 15.7072 17.2929C15.8947 17.4804 16.0001 17.7348 16.0001 18C16.0001 18.2652 15.8947 18.5196 15.7072 18.7071C15.5197 18.8946 15.2653 19 15.0001 19ZM12.0001 15C11.209 15 10.4356 14.7654 9.77781 14.3259C9.12001 13.8864 8.60732 13.2616 8.30457 12.5307C8.00182 11.7998 7.92261 10.9956 8.07695 10.2196C8.23129 9.44371 8.61225 8.73098 9.17166 8.17157C9.73107 7.61216 10.4438 7.2312 11.2197 7.07686C11.9957 6.92252 12.7999 7.00173 13.5308 7.30448C14.2617 7.60723 14.8864 8.11992 15.326 8.77772C15.7655 9.43552 16.0001 10.2089 16.0001 11C16.0001 12.0609 15.5787 13.0783 14.8285 13.8284C14.0784 14.5786 13.061 15 12.0001 15Z" fill="#141414"/>
</svg>
