<svg width="24" height="24" viewBox="0 0 24 24" fill="none" xmlns="http://www.w3.org/2000/svg">
<path d="M16.24 8.76C16.3723 8.75945 16.5032 8.73265 16.6251 8.68116C16.7469 8.62966 16.8574 8.55449 16.95 8.46L19.07 6.34C19.1747 6.25035 19.2597 6.14004 19.3197 6.01597C19.3797 5.89191 19.4135 5.75677 19.4188 5.61905C19.4241 5.48133 19.4009 5.344 19.3506 5.21568C19.3004 5.08735 19.2241 4.9708 19.1266 4.87335C19.0292 4.77589 18.9126 4.69964 18.7843 4.64936C18.656 4.59909 18.5187 4.57588 18.3809 4.5812C18.2432 4.58652 18.1081 4.62025 17.984 4.68027C17.86 4.7403 17.7496 4.82532 17.66 4.93L15.54 7.05C15.3537 7.23736 15.2492 7.49081 15.2492 7.755C15.2492 8.01919 15.3537 8.27264 15.54 8.46C15.7246 8.64841 15.9762 8.75624 16.24 8.76ZM7.05 15.54L4.93 17.66C4.74375 17.8474 4.63921 18.1008 4.63921 18.365C4.63921 18.6292 4.74375 18.8826 4.93 19.07C5.11736 19.2563 5.37081 19.3608 5.635 19.3608C5.89919 19.3608 6.15264 19.2563 6.34 19.07L8.46 17C8.64625 16.8126 8.75079 16.5592 8.75079 16.295C8.75079 16.0308 8.64625 15.7774 8.46 15.59C8.27933 15.397 8.02956 15.2833 7.76532 15.2739C7.50108 15.2646 7.24389 15.3602 7.05 15.54ZM7 12C7 11.7348 6.89464 11.4804 6.70711 11.2929C6.51957 11.1054 6.26522 11 6 11H3C2.73478 11 2.48043 11.1054 2.29289 11.2929C2.10536 11.4804 2 11.7348 2 12C2 12.2652 2.10536 12.5196 2.29289 12.7071C2.48043 12.8946 2.73478 13 3 13H6C6.26522 13 6.51957 12.8946 6.70711 12.7071C6.89464 12.5196 7 12.2652 7 12ZM7 8.46C7.09261 8.55449 7.20306 8.62966 7.32493 8.68116C7.44681 8.73265 7.57769 8.75945 7.71 8.76C7.97377 8.75624 8.22537 8.64841 8.41 8.46C8.59625 8.27264 8.70079 8.01919 8.70079 7.755C8.70079 7.49081 8.59625 7.23736 8.41 7.05L6.34 4.93C6.1487 4.76617 5.90262 4.68057 5.65095 4.69029C5.39927 4.70001 5.16053 4.80434 4.98244 4.98244C4.80434 5.16053 4.70001 5.39927 4.69029 5.65095C4.68057 5.90262 4.76617 6.1487 4.93 6.34L7 8.46ZM12 7C12.2652 7 12.5196 6.89464 12.7071 6.70711C12.8946 6.51957 13 6.26522 13 6V3C13 2.73478 12.8946 2.48043 12.7071 2.29289C12.5196 2.10536 12.2652 2 12 2C11.7348 2 11.4804 2.10536 11.2929 2.29289C11.1054 2.48043 11 2.73478 11 3V6C11 6.26522 11.1054 6.51957 11.2929 6.70711C11.4804 6.89464 11.7348 7 12 7ZM17 15.54C16.8126 15.3537 16.5592 15.2492 16.295 15.2492C16.0308 15.2492 15.7774 15.3537 15.59 15.54C15.4037 15.7274 15.2992 15.9808 15.2992 16.245C15.2992 16.5092 15.4037 16.7626 15.59 16.95L17.71 19.07C17.8974 19.2563 18.1508 19.3608 18.415 19.3608C18.6792 19.3608 18.9326 19.2563 19.12 19.07C19.3063 18.8826 19.4108 18.6292 19.4108 18.365C19.4108 18.1008 19.3063 17.8474 19.12 17.66L17 15.54ZM21 11H18C17.7348 11 17.4804 11.1054 17.2929 11.2929C17.1054 11.4804 17 11.7348 17 12C17 12.2652 17.1054 12.5196 17.2929 12.7071C17.4804 12.8946 17.7348 13 18 13H21C21.2652 13 21.5196 12.8946 21.7071 12.7071C21.8946 12.5196 22 12.2652 22 12C22 11.7348 21.8946 11.4804 21.7071 11.2929C21.5196 11.1054 21.2652 11 21 11ZM12 8C11.2089 8 10.4355 8.2346 9.77772 8.67412C9.11992 9.11365 8.60723 9.73836 8.30448 10.4693C8.00173 11.2002 7.92252 12.0044 8.07686 12.7804C8.2312 13.5563 8.61216 14.269 9.17157 14.8284C9.73098 15.3878 10.4437 15.7688 11.2196 15.9231C11.9956 16.0775 12.7998 15.9983 13.5307 15.6955C14.2616 15.3928 14.8864 14.8801 15.3259 14.2223C15.7654 13.5645 16 12.7911 16 12C16 10.9391 15.5786 9.92172 14.8284 9.17157C14.0783 8.42143 13.0609 8 12 8ZM12 14V10C12.5304 10 13.0391 10.2107 13.4142 10.5858C13.7893 10.9609 14 11.4696 14 12C14 12.5304 13.7893 13.0391 13.4142 13.4142C13.0391 13.7893 12.5304 14 12 14ZM12 17C11.7348 17 11.4804 17.1054 11.2929 17.2929C11.1054 17.4804 11 17.7348 11 18V21C11 21.2652 11.1054 21.5196 11.2929 21.7071C11.4804 21.8946 11.7348 22 12 22C12.2652 22 12.5196 21.8946 12.7071 21.7071C12.8946 21.5196 13 21.2652 13 21V18C13 17.7348 12.8946 17.4804 12.7071 17.2929C12.5196 17.1054 12.2652 17 12 17Z" fill="#141414"/>
</svg>
