<svg width="24" height="24" viewBox="0 0 24 24" fill="none" xmlns="http://www.w3.org/2000/svg">
<path d="M12.9998 2C8.67982 2 5.14982 5.45 5.00982 9.74L3.09982 13.56C2.84982 14.05 3.04982 14.65 3.54982 14.9L4.99982 15.62V17C4.99982 18.1 5.89982 19 6.99982 19H8.99982V20C8.99982 21.1 9.89982 22 10.9998 22H15.9998C17.0998 22 17.9998 21.1 17.9998 20V16.24C19.8298 14.77 20.9998 12.52 20.9998 10C20.9998 5.59 17.4098 2 12.9998 2ZM17.9998 10C17.9998 10.74 17.5998 11.38 16.9998 11.72V13C16.9998 13.55 16.5498 14 15.9998 14C15.4498 14 14.9998 13.55 14.9998 13V12H12.9998C11.8998 12 10.9998 11.1 10.9998 10H8.99982C8.44982 10 7.99982 9.55 7.99982 9C7.99982 8.45 8.44982 8 8.99982 8C8.99982 7.19 9.48982 6.49 10.1798 6.18C10.4898 5.49 11.1898 5 11.9998 5C12.3698 5 12.6998 5.11 12.9998 5.28C13.2998 5.11 13.6298 5 13.9998 5C14.7498 5 15.3898 5.42 15.7398 6.03C15.8298 6.02 15.9098 6 15.9998 6C17.0998 6 17.9998 6.9 17.9998 8C17.9998 8.37 17.8898 8.7 17.7198 9C17.8898 9.3 17.9998 9.63 17.9998 10Z" fill="#141414"/>
</svg>
