<svg width="24" height="24" viewBox="0 0 24 24" fill="none" xmlns="http://www.w3.org/2000/svg">
<path d="M16 2H12C9.24 2 7 3.24 7 6V10C7 10.2652 7.10536 10.5196 7.29289 10.7071C7.48043 10.8946 7.73478 11 8 11H15V10C15 9.73478 15.1054 9.48043 15.2929 9.29289C15.4804 9.10536 15.7348 9 16 9C16.2652 9 16.5196 9.10536 16.7071 9.29289C16.8946 9.48043 17 9.73478 17 10V11C17 11.5304 16.7893 12.0391 16.4142 12.4142C16.0391 12.7893 15.5304 13 15 13H8C7.20435 13 6.44129 12.6839 5.87868 12.1213C5.31607 11.5587 5 10.7956 5 10V6C4.20435 6 3.44129 6.31607 2.87868 6.87868C2.31607 7.44129 2 8.20435 2 9V13C2 14.0609 2.42143 15.0783 3.17157 15.8284C3.92172 16.5786 4.93913 17 6 17V19C6 19.7956 6.31607 20.5587 6.87868 21.1213C7.44129 21.6839 8.20435 22 9 22H15C15.7956 22 16.5587 21.6839 17.1213 21.1213C17.6839 20.5587 18 19.7956 18 19V16L20.12 13.88C20.6828 13.3179 20.9993 12.5554 21 11.76V7C21 5.67392 20.4732 4.40215 19.5355 3.46447C18.5979 2.52678 17.3261 2 16 2Z" fill="#141414"/>
</svg>
