<svg width="24" height="24" viewBox="0 0 24 24" fill="none" xmlns="http://www.w3.org/2000/svg">
<path d="M9 4.00008C9.00045 3.80064 8.94124 3.60562 8.83 3.44008C8.71858 3.27853 8.56208 3.15333 8.38 3.08008C8.19898 2.99615 7.99699 2.96829 7.8 3.00008C7.60716 3.03801 7.42977 3.13192 7.29 3.27008L5.29 5.27008C5.19646 5.36135 5.12172 5.47007 5.07 5.59008C5.02007 5.72086 4.99629 5.86015 5 6.00008V10.0001H9V4.00008ZM4 19.0001C4 19.5305 4.21071 20.0392 4.58579 20.4143C4.96086 20.7894 5.46957 21.0001 6 21.0001H8C8.53043 21.0001 9.03914 20.7894 9.41421 20.4143C9.78929 20.0392 10 19.5305 10 19.0001V12.0001H4V19.0001ZM14 19.0001C14 19.5305 14.2107 20.0392 14.5858 20.4143C14.9609 20.7894 15.4696 21.0001 16 21.0001C16.5304 21.0001 17.0391 20.7894 17.4142 20.4143C17.7893 20.0392 18 19.5305 18 19.0001V12.0001H14V19.0001ZM20.89 5.56008C20.391 4.7135 19.6677 4.02134 18.8 3.56008C17.9265 3.14736 16.9651 2.95508 16 3.00008C15.0286 2.96954 14.0642 3.17544 13.19 3.60008C12.3192 4.0607 11.5925 4.75279 11.09 5.60008C11.0198 5.7605 10.989 5.93534 11 6.11008C11.0206 6.28531 11.0822 6.45321 11.18 6.60008L13.74 10.0001H18.25L20.8 6.61008C20.9114 6.45745 20.9804 6.27804 21 6.09008C21.0128 5.90666 20.9747 5.72328 20.89 5.56008Z" fill="#141414"/>
</svg>
