<svg width="24" height="24" viewBox="0 0 24 24" fill="none" xmlns="http://www.w3.org/2000/svg">
<path d="M19 7.00009C18.5419 6.36804 17.9406 5.85354 17.2453 5.49875C16.55 5.14396 15.7806 4.95898 15 4.95898C14.2194 4.95898 13.45 5.14396 12.7547 5.49875C12.0594 5.85354 11.4581 6.36804 11 7.00009H5C4.20435 7.00009 3.44129 7.31616 2.87868 7.87877C2.31607 8.44138 2 9.20444 2 10.0001V14.0001C2.00174 14.619 2.19488 15.2223 2.55294 15.7272C2.911 16.232 3.41645 16.6138 4 16.8201V18.0001C4 18.2653 4.10536 18.5197 4.29289 18.7072C4.48043 18.8947 4.73478 19.0001 5 19.0001C5.26522 19.0001 5.51957 18.8947 5.70711 18.7072C5.89464 18.5197 6 18.2653 6 18.0001V17.0001H17V18.0001C17 18.2653 17.1054 18.5197 17.2929 18.7072C17.4804 18.8947 17.7348 19.0001 18 19.0001C18.2652 19.0001 18.5196 18.8947 18.7071 18.7072C18.8946 18.5197 19 18.2653 19 18.0001V17.0001C19.7956 17.0001 20.5587 16.684 21.1213 16.1214C21.6839 15.5588 22 14.7957 22 14.0001V10.0001C22 9.20444 21.6839 8.44138 21.1213 7.87877C20.5587 7.31616 19.7956 7.00009 19 7.00009ZM15 13.0001C14.4067 13.0001 13.8266 12.8241 13.3333 12.4945C12.8399 12.1649 12.4554 11.6963 12.2284 11.1481C12.0013 10.6 11.9419 9.99676 12.0576 9.41482C12.1734 8.83287 12.4591 8.29833 12.8787 7.87877C13.2982 7.45921 13.8328 7.17349 14.4147 7.05773C14.9967 6.94198 15.5999 7.00139 16.1481 7.22845C16.6962 7.45551 17.1648 7.84003 17.4944 8.33338C17.8241 8.82672 18 9.40674 18 10.0001C18 10.7957 17.6839 11.5588 17.1213 12.1214C16.5587 12.684 15.7956 13.0001 15 13.0001Z" fill="#141414"/>
</svg>
