<svg width="24" height="24" viewBox="0 0 24 24" fill="none" xmlns="http://www.w3.org/2000/svg">
<path d="M7.4 7.9C7.58625 7.71264 7.69079 7.45919 7.69079 7.195C7.69079 6.93081 7.58625 6.67736 7.4 6.49L6.7 5.78C6.60676 5.68676 6.49607 5.6128 6.37425 5.56234C6.25243 5.51188 6.12186 5.48591 5.99 5.48591C5.7237 5.48591 5.4683 5.5917 5.28 5.78C5.18676 5.87324 5.1128 5.98393 5.06234 6.10575C5.01188 6.22757 4.98591 6.35814 4.98591 6.49C4.98591 6.7563 5.0917 7.0117 5.28 7.2L6 7.9C6.18736 8.08625 6.44081 8.19079 6.705 8.19079C6.96919 8.19079 7.22264 8.08625 7.41 7.9H7.4ZM4.5 11.5H3.5C3.23478 11.5 2.98043 11.6054 2.79289 11.7929C2.60536 11.9804 2.5 12.2348 2.5 12.5C2.5 12.7652 2.60536 13.0196 2.79289 13.2071C2.98043 13.3946 3.23478 13.5 3.5 13.5H4.5C4.76522 13.5 5.01957 13.3946 5.20711 13.2071C5.39464 13.0196 5.5 12.7652 5.5 12.5C5.5 12.2348 5.39464 11.9804 5.20711 11.7929C5.01957 11.6054 4.76522 11.5 4.5 11.5ZM12 6C12.2652 6 12.5196 5.89464 12.7071 5.70711C12.8946 5.51957 13 5.26522 13 5V4C13 3.73478 12.8946 3.48043 12.7071 3.29289C12.5196 3.10536 12.2652 3 12 3C11.7348 3 11.4804 3.10536 11.2929 3.29289C11.1054 3.48043 11 3.73478 11 4V5C11 5.26522 11.1054 5.51957 11.2929 5.70711C11.4804 5.89464 11.7348 6 12 6ZM14 19H10C9.73478 19 9.48043 19.1054 9.29289 19.2929C9.10536 19.4804 9 19.7348 9 20C9 20.2652 9.10536 20.5196 9.29289 20.7071C9.48043 20.8946 9.73478 21 10 21H14C14.2652 21 14.5196 20.8946 14.7071 20.7071C14.8946 20.5196 15 20.2652 15 20C15 19.7348 14.8946 19.4804 14.7071 19.2929C14.5196 19.1054 14.2652 19 14 19ZM20.5 11.5H19.5C19.2348 11.5 18.9804 11.6054 18.7929 11.7929C18.6054 11.9804 18.5 12.2348 18.5 12.5C18.5 12.7652 18.6054 13.0196 18.7929 13.2071C18.9804 13.3946 19.2348 13.5 19.5 13.5H20.5C20.7652 13.5 21.0196 13.3946 21.2071 13.2071C21.3946 13.0196 21.5 12.7652 21.5 12.5C21.5 12.2348 21.3946 11.9804 21.2071 11.7929C21.0196 11.6054 20.7652 11.5 20.5 11.5ZM18.72 5.78C18.627 5.68627 18.5164 5.61188 18.3946 5.56111C18.2727 5.51034 18.142 5.4842 18.01 5.4842C17.878 5.4842 17.7473 5.51034 17.6254 5.56111C17.5036 5.61188 17.393 5.68627 17.3 5.78L16.6 6.49C16.4137 6.67736 16.3092 6.93081 16.3092 7.195C16.3092 7.45919 16.4137 7.71264 16.6 7.9C16.7869 8.08323 17.0382 8.18586 17.3 8.18586C17.5618 8.18586 17.8131 8.08323 18 7.9L18.71 7.2C18.8044 7.1077 18.8796 6.99762 18.9312 6.87612C18.9828 6.75462 19.0099 6.6241 19.0108 6.49208C19.0117 6.36007 18.9865 6.22918 18.9366 6.10696C18.8867 5.98475 18.8131 5.87362 18.72 5.78ZM12 7C10.7257 7.00162 9.48648 7.4179 8.46961 8.18594C7.45274 8.95399 6.71342 10.0321 6.36334 11.2574C6.01325 12.4827 6.07141 13.7886 6.52903 14.978C6.98666 16.1673 7.81888 17.1754 8.9 17.85C9.05914 17.9486 9.24277 18.0006 9.43 18H14.57C14.7572 18.0006 14.9409 17.9486 15.1 17.85C16.1811 17.1754 17.0133 16.1673 17.471 14.978C17.9286 13.7886 17.9867 12.4827 17.6367 11.2574C17.2866 10.0321 16.5473 8.95399 15.5304 8.18594C14.5135 7.4179 13.2743 7.00162 12 7Z" fill="#141414"/>
</svg>
