<svg width="24" height="24" viewBox="0 0 24 24" fill="none" xmlns="http://www.w3.org/2000/svg">
<path d="M19 11C19.2652 11 19.5196 10.8946 19.7071 10.7071C19.8946 10.5196 20 10.2652 20 10V5C20 4.73478 19.8946 4.48043 19.7071 4.29289C19.5196 4.10536 19.2652 4 19 4H14.5C14.2348 4 13.9804 4.10536 13.7929 4.29289C13.6054 4.48043 13.5 4.73478 13.5 5C13.5 9.75 17.1 11 19 11ZM21 12H3C2.73478 12 2.48043 12.1054 2.29289 12.2929C2.10536 12.4804 2 12.7348 2 13C2 13.2652 2.10536 13.5196 2.29289 13.7071C2.48043 13.8946 2.73478 14 3 14V18C3.02086 18.5482 3.25745 19.066 3.65826 19.4406C4.05907 19.8151 4.59164 20.0162 5.14 20H18.86C19.4084 20.0162 19.9409 19.8151 20.3417 19.4406C20.7425 19.066 20.9791 18.5482 21 18V14C21.2652 14 21.5196 13.8946 21.7071 13.7071C21.8946 13.5196 22 13.2652 22 13C22 12.7348 21.8946 12.4804 21.7071 12.2929C21.5196 12.1054 21.2652 12 21 12ZM7 18H5.14H5V14.05C5.03945 14.0176 5.08895 13.9999 5.14 14H7V18ZM11 18H9V14H11V18ZM15 18H13V14H15V18ZM18.86 18H17V14H18.86C18.94 14 19 14 19 14V18C18.9546 18.0152 18.9054 18.0152 18.86 18ZM5 11C6.9 11 10.5 9.75 10.5 5C10.5 4.73478 10.3946 4.48043 10.2071 4.29289C10.0196 4.10536 9.76522 4 9.5 4H5C4.73478 4 4.48043 4.10536 4.29289 4.29289C4.10536 4.48043 4 4.73478 4 5V10C4 10.2652 4.10536 10.5196 4.29289 10.7071C4.48043 10.8946 4.73478 11 5 11Z" fill="#141414"/>
</svg>
