<svg width="24" height="24" viewBox="0 0 24 24" fill="none" xmlns="http://www.w3.org/2000/svg">
<path d="M20 4H14C12.9 4 12 4.9 12 6V11C12 12.1 12.9 13 14 13H16V16.5C16 17.88 14.88 19 13.5 19C12.12 19 11 17.88 11 16.5V11C11 8.79 9.21 7 7 7C4.79 7 3 8.79 3 11V11.28C2.4 11.63 2 12.26 2 13V16C2 17.1 2.9 18 4 18C5.1 18 6 17.1 6 16V13C6 12.26 5.6 11.62 5 11.28V11C5 9.9 5.9 9 7 9C8.1 9 9 9.9 9 11V16.5C9 18.98 11.02 21 13.5 21C15.98 21 18 18.98 18 16.5V13H20C21.1 13 22 12.1 22 11V6C22 4.9 21.1 4 20 4ZM18 9V8.5C18 7.95 17.55 7.5 17 7.5C16.45 7.5 16 7.95 16 8.5V9H14C14 7.35 15.35 6 17 6C18.65 6 20 7.35 20 9H18Z" fill="#141414"/>
</svg>
