<svg width="24" height="24" viewBox="0 0 24 24" fill="none" xmlns="http://www.w3.org/2000/svg">
<path d="M21 13V6C21 5.20435 20.6839 4.44129 20.1213 3.87868C19.5587 3.31607 18.7956 3 18 3H6C5.20435 3 4.44129 3.31607 3.87868 3.87868C3.31607 4.44129 3 5.20435 3 6V17.5C3 18.4283 3.36875 19.3185 4.02513 19.9749C4.6815 20.6313 5.57174 21 6.5 21H20C20.2652 21 20.5196 20.8946 20.7071 20.7071C20.8946 20.5196 21 20.2652 21 20C21 19.7348 20.8946 19.4804 20.7071 19.2929C20.5196 19.1054 20.2652 19 20 19H19V15.82C19.5835 15.6137 20.089 15.2319 20.4471 14.7271C20.8051 14.2222 20.9983 13.6189 21 13ZM17 19H6.5C6.10218 19 5.72064 18.842 5.43934 18.5607C5.15804 18.2794 5 17.8978 5 17.5C5 17.1022 5.15804 16.7206 5.43934 16.4393C5.72064 16.158 6.10218 16 6.5 16H17V19Z" fill="#141414"/>
</svg>
