<svg width="24" height="24" viewBox="0 0 24 24" fill="none" xmlns="http://www.w3.org/2000/svg">
<path d="M17.7002 10.3996L12.8502 2.47961C12.4902 1.88961 11.5102 1.88961 11.1402 2.47961L6.29023 10.3996C5.44023 11.7796 4.99023 13.3696 4.99023 14.9996C4.99023 18.8596 8.13023 21.9996 11.9902 21.9996C15.8502 21.9996 18.9902 18.8596 18.9902 14.9996C18.9902 13.3796 18.5402 11.7896 17.6902 10.3996H17.7002ZM16.0002 15.9996H15.0002V16.9996C15.0002 17.5496 14.5502 17.9996 14.0002 17.9996C13.4502 17.9996 13.0002 17.5496 13.0002 16.9996V15.9996H12.0002C11.4502 15.9996 11.0002 15.5496 11.0002 14.9996C11.0002 14.4496 11.4502 13.9996 12.0002 13.9996H13.0002V12.9996C13.0002 12.4496 13.4502 11.9996 14.0002 11.9996C14.5502 11.9996 15.0002 12.4496 15.0002 12.9996V13.9996H16.0002C16.5502 13.9996 17.0002 14.4496 17.0002 14.9996C17.0002 15.5496 16.5502 15.9996 16.0002 15.9996Z" fill="#141414"/>
</svg>
