<svg width="24" height="24" viewBox="0 0 24 24" fill="none" xmlns="http://www.w3.org/2000/svg">
<path d="M12 9C11.45 9 11 9.45 11 10V13C11 13.55 11.45 14 12 14C12.55 14 13 13.55 13 13V10C13 9.45 12.55 9 12 9ZM11.29 15.29C11.11 15.48 11 15.73 11 16C11 16.13 11.03 16.26 11.08 16.38C11.13 16.5 11.2 16.61 11.29 16.71C11.39 16.8 11.5 16.87 11.62 16.92C11.74 16.98 11.87 17 12 17C12.13 17 12.26 16.98 12.38 16.92C12.5 16.87 12.61 16.8 12.71 16.71C12.9 16.52 13 16.27 13 16C13 15.73 12.89 15.48 12.71 15.29C12.34 14.92 11.66 14.92 11.29 15.29ZM16 4C16 2.9 15.1 2 14 2H10C8.9 2 8 2.9 8 4C6.35 4 5 5.35 5 7V19C5 20.65 6.35 22 8 22H16C17.65 22 19 20.65 19 19V7C19 5.35 17.65 4 16 4ZM17 19C17 19.55 16.55 20 16 20H8C7.45 20 7 19.55 7 19V7C7 6.45 7.45 6 8 6H9C9.55 6 10 5.55 10 5V4H14V5C14 5.55 14.45 6 15 6H16C16.55 6 17 6.45 17 7V19Z" fill="#141414"/>
</svg>
