<svg width="24" height="24" viewBox="0 0 24 24" fill="none" xmlns="http://www.w3.org/2000/svg">
<path d="M14.4 13.44C13.75 13.2 13.19 13 11.99 13C10.79 13 10.23 13.2 9.58 13.44C8.86 13.7 8.04 14 6.49 14C6.21 14 5.97 13.99 5.73 13.97C6.9 16.13 9.23 17.32 10.99 17.8V20C10.99 20.55 11.44 21 11.99 21C12.54 21 12.99 20.55 12.99 20V17.8C14.75 17.32 17.09 16.14 18.25 13.97C18.01 13.99 17.76 14 17.48 14C15.93 14 15.11 13.7 14.39 13.44H14.4ZM20 3C19.45 3 19 3.45 19 4V6C19 6.8 18.52 7.49 17.84 7.81C16.71 6.62 14.77 6 12 6C9.23 6 7.28 6.61 6.16 7.81C5.48 7.49 5 6.8 5 6V4C5 3.45 4.55 3 4 3C3.45 3 3 3.45 3 4V6C3 7.56 3.9 8.89 5.2 9.55C5.08 10 5 10.47 5 11C5 11.3 5.02 11.58 5.06 11.86C5.44 11.94 5.88 12 6.49 12C7.69 12 8.25 11.8 8.9 11.56C9.62 11.3 10.44 11 11.99 11C13.54 11 14.36 11.3 15.08 11.56C15.73 11.8 16.29 12 17.49 12C18.11 12 18.56 11.95 18.93 11.86C18.97 11.58 18.99 11.3 18.99 11C18.99 10.47 18.91 10 18.79 9.55C20.09 8.89 20.99 7.55 20.99 6V4C20.99 3.45 20.54 3 19.99 3H20Z" fill="#141414"/>
</svg>
