<svg width="24" height="24" viewBox="0 0 24 24" fill="none" xmlns="http://www.w3.org/2000/svg">
<path d="M19.5 16C19.7967 16 20.0867 15.912 20.3334 15.7472C20.58 15.5824 20.7723 15.3481 20.8858 15.074C20.9993 14.7999 21.0291 14.4983 20.9712 14.2074C20.9133 13.9164 20.7704 13.6491 20.5607 13.4393C20.3509 13.2296 20.0836 13.0867 19.7926 13.0288C19.5017 12.9709 19.2001 13.0007 18.926 13.1142C18.6519 13.2277 18.4176 13.42 18.2528 13.6666C18.088 13.9133 18 14.2033 18 14.5C18 14.8978 18.158 15.2794 18.4393 15.5607C18.7206 15.842 19.1022 16 19.5 16ZM8.5 6C8.79667 6 9.08668 5.91203 9.33335 5.7472C9.58003 5.58238 9.77228 5.34811 9.88582 5.07403C9.99935 4.79994 10.0291 4.49834 9.97117 4.20737C9.9133 3.91639 9.77044 3.64912 9.56066 3.43934C9.35088 3.22956 9.0836 3.0867 8.79263 3.02882C8.50166 2.97094 8.20006 3.00065 7.92597 3.11418C7.65188 3.22771 7.41761 3.41997 7.25279 3.66665C7.08797 3.91332 7 4.20333 7 4.5C7 4.89783 7.15803 5.27936 7.43934 5.56066C7.72064 5.84197 8.10217 6 8.5 6ZM12 9C12 8.73478 11.8946 8.48043 11.7071 8.29289C11.5196 8.10536 11.2652 8 11 8H8.42L6.71 6.29C6.59555 6.17117 6.45347 6.0825 6.29644 6.0319C6.13941 5.98131 5.97229 5.97035 5.81 6C5.64723 6.03306 5.49526 6.10614 5.36781 6.21263C5.24036 6.31913 5.14145 6.4557 5.08 6.61L3.08 11.61C3.02579 11.7328 2.99851 11.8658 3 12V20C3 20.2652 3.10535 20.5196 3.29289 20.7071C3.48043 20.8946 3.73478 21 4 21C4.26521 21 4.51957 20.8946 4.7071 20.7071C4.89464 20.5196 5 20.2652 5 20V12.19L6.37 8.78L7.3 9.71C7.48626 9.89474 7.73766 9.9989 8 10H11C11.2652 10 11.5196 9.89464 11.7071 9.70711C11.8946 9.51957 12 9.26522 12 9ZM12 16H16C16.2652 16 16.5196 15.8946 16.7071 15.7071C16.8946 15.5196 17 15.2652 17 15V13C17 12.7348 16.8946 12.4804 16.7071 12.2929C16.5196 12.1054 16.2652 12 16 12C15.7348 12 15.4804 12.1054 15.2929 12.2929C15.1054 12.4804 15 12.7348 15 13V14H12.41L10.71 12.29C10.5217 12.1017 10.2663 11.9959 10 11.9959C9.7337 11.9959 9.4783 12.1017 9.29 12.29C9.10169 12.4783 8.99591 12.7337 8.99591 13C8.99591 13.2663 9.10169 13.5217 9.29 13.71L11.29 15.71C11.3834 15.8027 11.4943 15.876 11.6161 15.9258C11.7379 15.9755 11.8684 16.0008 12 16ZM20 18H12C11.7348 18 11.4804 18.1054 11.2929 18.2929C11.1054 18.4804 11 18.7348 11 19C11 19.2652 11.1054 19.5196 11.2929 19.7071C11.4804 19.8946 11.7348 20 12 20H20C20.2652 20 20.5196 19.8946 20.7071 19.7071C20.8946 19.5196 21 19.2652 21 19C21 18.7348 20.8946 18.4804 20.7071 18.2929C20.5196 18.1054 20.2652 18 20 18Z" fill="#141414"/>
</svg>
