<svg width="24" height="24" viewBox="0 0 24 24" fill="none" xmlns="http://www.w3.org/2000/svg">
<path d="M20 11H18C17.7348 11 17.4804 11.1054 17.2929 11.2929C17.1054 11.4804 17 11.7348 17 12C17 12.2652 17.1054 12.5196 17.2929 12.7071C17.4804 12.8946 17.7348 13 18 13H20C20.2652 13 20.5196 12.8946 20.7071 12.7071C20.8946 12.5196 21 12.2652 21 12C21 11.7348 20.8946 11.4804 20.7071 11.2929C20.5196 11.1054 20.2652 11 20 11ZM7.05 8.46C7.13965 8.56468 7.24997 8.6497 7.37403 8.70973C7.4981 8.76975 7.63323 8.80348 7.77095 8.8088C7.90867 8.81412 8.046 8.79091 8.17432 8.74064C8.30265 8.69036 8.4192 8.6141 8.51665 8.51665C8.6141 8.4192 8.69036 8.30265 8.74064 8.17432C8.79091 8.046 8.81412 7.90867 8.8088 7.77095C8.80348 7.63323 8.76975 7.4981 8.70973 7.37403C8.6497 7.24997 8.56468 7.13965 8.46 7.05L7.05 5.64C6.8587 5.47617 6.61262 5.39057 6.36095 5.40029C6.10927 5.41001 5.87053 5.51434 5.69244 5.69244C5.51434 5.87053 5.41001 6.10927 5.40029 6.36095C5.39057 6.61262 5.47617 6.8587 5.64 7.05L7.05 8.46ZM12 7C12.2652 7 12.5196 6.89464 12.7071 6.70711C12.8946 6.51957 13 6.26522 13 6V4C13 3.73478 12.8946 3.48043 12.7071 3.29289C12.5196 3.10536 12.2652 3 12 3C11.7348 3 11.4804 3.10536 11.2929 3.29289C11.1054 3.48043 11 3.73478 11 4V6C11 6.26522 11.1054 6.51957 11.2929 6.70711C11.4804 6.89464 11.7348 7 12 7ZM17 8.46L18.41 7.05C18.5147 6.96035 18.5997 6.85003 18.6597 6.72597C18.7197 6.60191 18.7535 6.46677 18.7588 6.32905C18.7641 6.19133 18.7409 6.054 18.6906 5.92568C18.6404 5.79735 18.5641 5.6808 18.4667 5.58335C18.3692 5.48589 18.2526 5.40964 18.1243 5.35936C17.996 5.30909 17.8587 5.28588 17.7209 5.2912C17.5832 5.29652 17.4481 5.33025 17.324 5.39027C17.2 5.4503 17.0896 5.53532 17 5.64L15.54 7.05C15.353 7.24361 15.2506 7.50356 15.2553 7.77268C15.26 8.04179 15.3714 8.29802 15.565 8.485C15.7586 8.67198 16.0186 8.77439 16.2877 8.7697C16.5568 8.76501 16.813 8.65361 17 8.46ZM7 12C7 11.7348 6.89464 11.4804 6.70711 11.2929C6.51957 11.1054 6.26522 11 6 11H4C3.73478 11 3.48043 11.1054 3.29289 11.2929C3.10536 11.4804 3 11.7348 3 12C3 12.2652 3.10536 12.5196 3.29289 12.7071C3.48043 12.8946 3.73478 13 4 13H6C6.26522 13 6.51957 12.8946 6.70711 12.7071C6.89464 12.5196 7 12.2652 7 12ZM17 15.54C16.9041 15.4441 16.7903 15.3681 16.6651 15.3162C16.5398 15.2643 16.4056 15.2376 16.27 15.2376C16.1344 15.2376 16.0002 15.2643 15.8749 15.3162C15.7497 15.3681 15.6359 15.4441 15.54 15.54C15.4441 15.6359 15.3681 15.7497 15.3162 15.8749C15.2643 16.0002 15.2376 16.1344 15.2376 16.27C15.2376 16.4056 15.2643 16.5398 15.3162 16.6651C15.3681 16.7903 15.4441 16.9041 15.54 17L17 18.36C17.0752 18.4952 17.1808 18.6112 17.3084 18.6987C17.436 18.7862 17.5822 18.8429 17.7355 18.8643C17.8887 18.8857 18.0448 18.8713 18.1916 18.8221C18.3383 18.773 18.4716 18.6904 18.581 18.581C18.6904 18.4716 18.773 18.3383 18.8221 18.1916C18.8713 18.0448 18.8857 17.8887 18.8643 17.7355C18.8429 17.5822 18.7862 17.436 18.6987 17.3084C18.6112 17.1808 18.4952 17.0752 18.36 17L17 15.54ZM12 8C11.2089 8 10.4355 8.2346 9.77772 8.67412C9.11992 9.11365 8.60723 9.73836 8.30448 10.4693C8.00173 11.2002 7.92252 12.0044 8.07686 12.7804C8.2312 13.5563 8.61216 14.269 9.17157 14.8284C9.73098 15.3878 10.4437 15.7688 11.2196 15.9231C11.9956 16.0775 12.7998 15.9983 13.5307 15.6955C14.2616 15.3928 14.8864 14.8801 15.3259 14.2223C15.7654 13.5645 16 12.7911 16 12C16 10.9391 15.5786 9.92172 14.8284 9.17157C14.0783 8.42143 13.0609 8 12 8ZM12 17C11.7348 17 11.4804 17.1054 11.2929 17.2929C11.1054 17.4804 11 17.7348 11 18V20C11 20.2652 11.1054 20.5196 11.2929 20.7071C11.4804 20.8946 11.7348 21 12 21C12.2652 21 12.5196 20.8946 12.7071 20.7071C12.8946 20.5196 13 20.2652 13 20V18C13 17.7348 12.8946 17.4804 12.7071 17.2929C12.5196 17.1054 12.2652 17 12 17ZM7.05 15.54L5.64 17C5.53532 17.0896 5.4503 17.2 5.39027 17.324C5.33025 17.4481 5.29652 17.5832 5.2912 17.7209C5.28588 17.8587 5.30909 17.996 5.35936 18.1243C5.40964 18.2526 5.48589 18.3692 5.58335 18.4667C5.6808 18.5641 5.79735 18.6404 5.92568 18.6906C6.054 18.7409 6.19133 18.7641 6.32905 18.7588C6.46677 18.7535 6.60191 18.7197 6.72597 18.6597C6.85003 18.5997 6.96035 18.5147 7.05 18.41L8.46 17C8.56468 16.9104 8.6497 16.8 8.70973 16.676C8.76975 16.5519 8.80348 16.4168 8.8088 16.2791C8.81412 16.1413 8.79091 16.004 8.74064 15.8757C8.69036 15.7474 8.6141 15.6308 8.51665 15.5333C8.4192 15.4359 8.30265 15.3596 8.17432 15.3094C8.046 15.2591 7.90867 15.2359 7.77095 15.2412C7.63323 15.2465 7.4981 15.2803 7.37403 15.3403C7.24997 15.4003 7.13965 15.4853 7.05 15.59V15.54Z" fill="#141414"/>
</svg>
