<svg width="24" height="24" viewBox="0 0 24 24" fill="none" xmlns="http://www.w3.org/2000/svg">
<path d="M2.84019 11.9999C2.65704 12.0281 2.48535 12.1067 2.34427 12.2269C2.20319 12.3471 2.09827 12.5041 2.04123 12.6804C1.98419 12.8567 1.97726 13.0454 2.02122 13.2254C2.06518 13.4054 2.1583 13.5697 2.29019 13.6999L3.29019 14.6999C3.3828 14.7944 3.49325 14.8695 3.61512 14.921C3.737 14.9725 3.86788 14.9993 4.00019 14.9999H5.00019V15.9999C4.99943 16.1315 5.02465 16.262 5.07442 16.3838C5.12418 16.5056 5.19751 16.6164 5.29019 16.7099L10.2902 21.7099C10.3836 21.8026 10.4944 21.8759 10.6163 21.9257C10.7381 21.9754 10.8686 22.0006 11.0002 21.9999C11.1054 21.9979 11.2097 21.981 11.3102 21.9499C11.4852 21.8935 11.6413 21.7899 11.7613 21.6505C11.8812 21.5111 11.9604 21.3414 11.9902 21.1599L12.6902 16.9299L7.07019 11.3099L2.84019 11.9999ZM21.4102 2.58989C21.0355 2.21738 20.5286 2.0083 20.0002 2.0083C19.4718 2.0083 18.9649 2.21738 18.5902 2.58989L11.2902 9.87989L10.7102 9.28989C10.5219 9.10158 10.2665 8.9958 10.0002 8.9958C9.73389 8.9958 9.47849 9.10158 9.29019 9.28989C9.10188 9.47819 8.9961 9.73358 8.9961 9.99989C8.9961 10.2662 9.10188 10.5216 9.29019 10.7099L13.2902 14.7099C13.3832 14.8036 13.4938 14.878 13.6156 14.9288C13.7375 14.9795 13.8682 15.0057 14.0002 15.0057C14.1322 15.0057 14.2629 14.9795 14.3848 14.9288C14.5066 14.878 14.6172 14.8036 14.7102 14.7099C14.8039 14.6169 14.8783 14.5063 14.9291 14.3845C14.9798 14.2626 15.006 14.1319 15.006 13.9999C15.006 13.8679 14.9798 13.7372 14.9291 13.6153C14.8783 13.4935 14.8039 13.3828 14.7102 13.2899L14.1202 12.7099L21.4102 5.40989C21.7827 5.03516 21.9918 4.52826 21.9918 3.99989C21.9918 3.47151 21.7827 2.96461 21.4102 2.58989Z" fill="#141414"/>
</svg>
