<svg width="24" height="24" viewBox="0 0 24 24" fill="none" xmlns="http://www.w3.org/2000/svg">
<path d="M21.6299 6.10014L12.6299 3.10014C12.22 2.96987 11.7798 2.96987 11.3699 3.10014L2.36991 6.10014C1.91762 6.2488 1.53319 6.55393 1.28574 6.96067C1.03829 7.36741 0.94406 7.84909 1.01998 8.31909C1.09591 8.7891 1.33701 9.21661 1.69994 9.52475C2.06287 9.83289 2.52382 10.0015 2.99991 10.0001V19.0001C2.7347 19.0001 2.48034 19.1055 2.29281 19.293C2.10527 19.4806 1.99991 19.7349 1.99991 20.0001C1.99991 20.2654 2.10527 20.5197 2.29281 20.7073C2.48034 20.8948 2.7347 21.0001 2.99991 21.0001H20.9999C21.2651 21.0001 21.5195 20.8948 21.707 20.7073C21.8946 20.5197 21.9999 20.2654 21.9999 20.0001C21.9999 19.7349 21.8946 19.4806 21.707 19.293C21.5195 19.1055 21.2651 19.0001 20.9999 19.0001V10.0001C21.476 10.0015 21.937 9.83289 22.2999 9.52475C22.6628 9.21661 22.9039 8.7891 22.9798 8.31909C23.0558 7.84909 22.9615 7.36741 22.7141 6.96067C22.4666 6.55393 22.0822 6.2488 21.6299 6.10014ZM10.9999 10.0001V19.0001H8.99991V10.0001H10.9999ZM12.9999 10.0001H14.9999V19.0001H12.9999V10.0001ZM4.99991 10.0001H6.99991V19.0001H4.99991V10.0001ZM18.9999 19.0001H16.9999V10.0001H18.9999V19.0001Z" fill="#141414"/>
</svg>
