<svg width="24" height="24" viewBox="0 0 24 24" fill="none" xmlns="http://www.w3.org/2000/svg">
<path d="M8.99998 21.0002H15V19.0002H8.99998V21.0002ZM8.99998 17.0002H15V15.0002H8.99998V17.0002ZM20.93 10.6402L19.1 6.00017C18.9981 5.72235 18.8358 5.47061 18.6248 5.2631C18.4138 5.05559 18.1594 4.89748 17.88 4.80017L13 3.15017C12.3825 2.94994 11.7175 2.94994 11.1 3.15017L6.11998 4.80017C5.84051 4.89748 5.58612 5.05559 5.37515 5.2631C5.16418 5.47061 5.00189 5.72235 4.89998 6.00017L3.06998 10.6402C3.01161 10.7914 2.9909 10.9546 3.00962 11.1157C3.02835 11.2767 3.08595 11.4308 3.17747 11.5646C3.26899 11.6985 3.39168 11.8081 3.53497 11.8839C3.67826 11.9598 3.83784 11.9997 3.99998 12.0002H4.99998V19.0002C4.99998 19.5306 5.21069 20.0393 5.58577 20.4144C5.96084 20.7895 6.46955 21.0002 6.99998 21.0002V14.5002C6.99998 14.1023 7.15801 13.7208 7.43932 13.4395C7.72062 13.1582 8.10215 13.0002 8.49998 13.0002H15.5C15.8978 13.0002 16.2793 13.1582 16.5606 13.4395C16.8419 13.7208 17 14.1023 17 14.5002V21.0002C17.5304 21.0002 18.0391 20.7895 18.4142 20.4144C18.7893 20.0393 19 19.5306 19 19.0002V12.0002H20C20.1621 11.9997 20.3217 11.9598 20.465 11.8839C20.6083 11.8081 20.731 11.6985 20.8225 11.5646C20.914 11.4308 20.9716 11.2767 20.9903 11.1157C21.0091 10.9546 20.9883 10.7914 20.93 10.6402ZM13 8.50017C13 8.63278 12.9473 8.75996 12.8535 8.85372C12.7598 8.94749 12.6326 9.00017 12.5 9.00017H11.5C11.3674 9.00017 11.2402 8.94749 11.1464 8.85372C11.0527 8.75996 11 8.63278 11 8.50017V7.50017C11 7.36756 11.0527 7.24039 11.1464 7.14662C11.2402 7.05285 11.3674 7.00017 11.5 7.00017H12.5C12.6326 7.00017 12.7598 7.05285 12.8535 7.14662C12.9473 7.24039 13 7.36756 13 7.50017V8.50017Z" fill="#141414"/>
</svg>
