<svg width="24" height="24" viewBox="0 0 24 24" fill="none" xmlns="http://www.w3.org/2000/svg">
<path d="M20.85 3.47C20.7599 3.32589 20.6346 3.20711 20.4859 3.12487C20.3372 3.04264 20.1699 2.99966 20 3H14C7.21 3 3 7.6 3 15C3 17.81 3.73 19.33 4.63 20.13C4.66189 20.1502 4.69793 20.1628 4.73542 20.1671C4.77291 20.1713 4.81087 20.1671 4.84646 20.1546C4.88206 20.142 4.91436 20.1216 4.94095 20.0949C4.96754 20.0681 4.98773 20.0357 5 20C5.33 14 8.54 9.71 14.57 7.13C14.6918 7.07272 14.8239 7.0406 14.9584 7.03558C15.0929 7.03056 15.227 7.05274 15.3527 7.10079C15.4784 7.14884 15.5931 7.22177 15.69 7.31521C15.7868 7.40865 15.8638 7.52068 15.9163 7.64459C15.9689 7.7685 15.9958 7.90174 15.9957 8.03632C15.9955 8.1709 15.9681 8.30406 15.9152 8.42782C15.8623 8.55158 15.785 8.66338 15.6879 8.75655C15.5908 8.84971 15.4759 8.92231 15.35 8.97C9.83 11.3 7.09 15.17 7 20.73C7.00249 20.8008 7.03173 20.8681 7.08184 20.9182C7.13194 20.9683 7.19918 20.9975 7.27 21C16 20.9 20 15.77 20 11C20 6.41 20.88 4.49 20.9 4.44C20.9748 4.28739 21.0094 4.11824 21.0007 3.94852C20.9919 3.7788 20.9401 3.61411 20.85 3.47Z" fill="#141414"/>
</svg>
