<svg width="24" height="24" viewBox="0 0 24 24" fill="none" xmlns="http://www.w3.org/2000/svg">
<path d="M12 10H8V14H12V10ZM21 10H18V7C18 6.20435 17.6839 5.44129 17.1213 4.87868C16.5587 4.31607 15.7956 4 15 4C14.2044 4 13.4413 4.31607 12.8787 4.87868C12.3161 5.44129 12 6.20435 12 7C12 7.26522 12.1054 7.51957 12.2929 7.70711C12.4804 7.89464 12.7348 8 13 8C13.2652 8 13.5196 7.89464 13.7071 7.70711C13.8946 7.51957 14 7.26522 14 7C14 6.73478 14.1054 6.48043 14.2929 6.29289C14.4804 6.10536 14.7348 6 15 6C15.2652 6 15.5196 6.10536 15.7071 6.29289C15.8946 6.48043 16 6.73478 16 7V10H14V14C14 14.5304 13.7893 15.0391 13.4142 15.4142C13.0391 15.7893 12.5304 16 12 16H8C7.46957 16 6.96086 15.7893 6.58579 15.4142C6.21071 15.0391 6 14.5304 6 14V10H3C2.73478 10 2.48043 10.1054 2.29289 10.2929C2.10536 10.4804 2 10.7348 2 11C2 11.2652 2.10536 11.5196 2.29289 11.7071C2.48043 11.8946 2.73478 12 3 12H3.15L3.6 14.66C3.73342 15.5078 4.13599 16.2902 4.74824 16.8917C5.36048 17.4931 6.14995 17.8817 7 18V19C7 19.2652 7.10536 19.5196 7.29289 19.7071C7.48043 19.8946 7.73478 20 8 20C8.26522 20 8.51957 19.8946 8.70711 19.7071C8.89464 19.5196 9 19.2652 9 19V18H15V19C15 19.2652 15.1054 19.5196 15.2929 19.7071C15.4804 19.8946 15.7348 20 16 20C16.2652 20 16.5196 19.8946 16.7071 19.7071C16.8946 19.5196 17 19.2652 17 19V18C17.843 17.8845 18.6271 17.5032 19.2386 16.9116C19.85 16.3199 20.2569 15.5487 20.4 14.71L20.85 12H21C21.2652 12 21.5196 11.8946 21.7071 11.7071C21.8946 11.5196 22 11.2652 22 11C22 10.7348 21.8946 10.4804 21.7071 10.2929C21.5196 10.1054 21.2652 10 21 10Z" fill="#141414"/>
</svg>
