<svg width="24" height="24" viewBox="0 0 24 24" fill="none" xmlns="http://www.w3.org/2000/svg">
<path d="M19 13C19.55 13 20 12.55 20 12C20 11.45 19.55 11 19 11H18V9H19C19.55 9 20 8.55 20 8C20 7.45 19.55 7 19 7H18C18 7 17.91 7.02 17.87 7.03C17.43 5.3 15.87 4 14 4V3C14 2.45 13.55 2 13 2H11C10.45 2 10 2.45 10 3V8C7.79 8 6 9.79 6 12V15H5C4.45 15 4 15.45 4 16C4 16.55 4.45 17 5 17H6V18C6 18.55 5.55 19 5 19C4.45 19 4 19.45 4 20C4 20.55 4.45 21 5 21C6.65 21 8 19.65 8 18V12C8 10.9 8.9 10 10 10V21C10 21.55 10.45 22 11 22H13C13.55 22 14 21.55 14 21V6C15.1 6 16 6.9 16 8V14C16 15.65 17.35 17 19 17C19.55 17 20 16.55 20 16C20 15.45 19.55 15 19 15C18.45 15 18 14.55 18 14V13H19Z" fill="#141414"/>
</svg>
