<svg width="24" height="24" viewBox="0 0 24 24" fill="none" xmlns="http://www.w3.org/2000/svg">
<path d="M16 7.00002H20C19.9978 6.47044 19.7856 5.96337 19.41 5.59002L16.41 2.59002C16.0367 2.21443 15.5296 2.00225 15 2.00002V6.00002C15 6.26524 15.1054 6.51959 15.2929 6.70713C15.4804 6.89466 15.7348 7.00002 16 7.00002ZM13.88 8.12002C13.3173 7.55795 13.0007 6.7954 13 6.00002V2.00002H6.50002C6.17135 1.9987 5.84566 2.06246 5.54175 2.18763C5.23784 2.3128 4.96171 2.49689 4.7293 2.7293C4.49689 2.96171 4.3128 3.23784 4.18763 3.54175C4.06246 3.84566 3.9987 4.17135 4.00002 4.50002V19.5C3.9987 19.8287 4.06246 20.1544 4.18763 20.4583C4.3128 20.7622 4.49689 21.0383 4.7293 21.2707C4.96171 21.5031 5.23784 21.6872 5.54175 21.8124C5.84566 21.9376 6.17135 22.0013 6.50002 22H17.5C17.8287 22.0013 18.1544 21.9376 18.4583 21.8124C18.7622 21.6872 19.0383 21.5031 19.2707 21.2707C19.5031 21.0383 19.6872 20.7622 19.8124 20.4583C19.9376 20.1544 20.0013 19.8287 20 19.5V9.00002H16C15.2046 8.99932 14.4421 8.68279 13.88 8.12002ZM14 14C14.0001 14.4465 13.9004 14.8874 13.7084 15.2905C13.5164 15.6936 13.2368 16.0487 12.89 16.33L14.45 17.11C14.6855 17.2299 14.864 17.4381 14.9465 17.6892C15.0289 17.9403 15.0086 18.2139 14.89 18.45C14.8069 18.6149 14.6798 18.7536 14.5227 18.8507C14.3656 18.9478 14.1847 18.9995 14 19C13.8431 19.0019 13.6883 18.9641 13.55 18.89L9.55002 16.89C9.35072 16.7879 9.19146 16.6219 9.09774 16.4185C9.00402 16.2152 8.98127 15.9862 9.03314 15.7684C9.08501 15.5505 9.20848 15.3564 9.38379 15.2171C9.5591 15.0778 9.7761 15.0013 10 15H11C11.2652 15 11.5196 14.8947 11.7071 14.7071C11.8947 14.5196 12 14.2652 12 14C12 13.7348 11.8947 13.4804 11.7071 13.2929C11.5196 13.1054 11.2652 13 11 13H9.00002C8.7348 13 8.48045 12.8947 8.29291 12.7071C8.10538 12.5196 8.00002 12.2652 8.00002 12C8.00002 11.7348 8.10538 11.4804 8.29291 11.2929C8.48045 11.1054 8.7348 11 9.00002 11H14C14.2652 11 14.5196 11.1054 14.7071 11.2929C14.8947 11.4804 15 11.7348 15 12C15 12.2652 14.8947 12.5196 14.7071 12.7071C14.5196 12.8947 14.2652 13 14 13H13.82C13.9364 13.3207 13.9973 13.6589 14 14Z" fill="#141414"/>
</svg>
