<svg width="24" height="24" viewBox="0 0 24 24" fill="none" xmlns="http://www.w3.org/2000/svg">
<path d="M3 18.0002C2.73478 18.0002 2.48043 18.1056 2.29289 18.2931C2.10536 18.4807 2 18.735 2 19.0002C2 19.2654 2.10536 19.5198 2.29289 19.7073C2.48043 19.8949 2.73478 20.0002 3 20.0002H21C21.2652 20.0002 21.5196 19.8949 21.7071 19.7073C21.8946 19.5198 22 19.2654 22 19.0002C22 18.735 21.8946 18.4807 21.7071 18.2931C21.5196 18.1056 21.2652 18.0002 21 18.0002H3ZM20.82 16.0002H21C21.2652 16.0002 21.5196 15.8949 21.7071 15.7073C21.8946 15.5198 22 15.2654 22 15.0002V12.3802C22.0024 12.0425 21.9586 11.7061 21.87 11.3802L20.47 6.00023C20.4743 5.96034 20.4743 5.92011 20.47 5.88023C20.2442 5.31912 19.8542 4.83934 19.3509 4.50385C18.8477 4.16835 18.2548 3.9928 17.65 4.00023H5C4.20435 4.00023 3.44129 4.3163 2.87868 4.87891C2.31607 5.44151 2 6.20458 2 7.00023V15.0002C2 15.2654 2.10536 15.5198 2.29289 15.7073C2.48043 15.8949 2.73478 16.0002 3 16.0002H3.18C3.3902 16.5794 3.77363 17.0798 4.27817 17.4334C4.7827 17.787 5.38388 17.9767 6 17.9767C6.61612 17.9767 7.2173 17.787 7.72183 17.4334C8.22637 17.0798 8.6098 16.5794 8.82 16.0002H15.18C15.3902 16.5794 15.7736 17.0798 16.2782 17.4334C16.7827 17.787 17.3839 17.9767 18 17.9767C18.6161 17.9767 19.2173 17.787 19.7218 17.4334C20.2264 17.0798 20.6098 16.5794 20.82 16.0002ZM6 16.0002C5.80222 16.0002 5.60888 15.9416 5.44443 15.8317C5.27998 15.7218 5.15181 15.5656 5.07612 15.3829C5.00043 15.2002 4.98063 14.9991 5.01921 14.8051C5.0578 14.6112 5.15304 14.433 5.29289 14.2931C5.43275 14.1533 5.61093 14.058 5.80491 14.0194C5.99889 13.9809 6.19996 14.0007 6.38268 14.0763C6.56541 14.152 6.72159 14.2802 6.83147 14.4447C6.94135 14.6091 7 14.8024 7 15.0002C7 15.2654 6.89464 15.5198 6.70711 15.7073C6.51957 15.8949 6.26522 16.0002 6 16.0002ZM8 9.00023H4V7.00023C4 6.73501 4.10536 6.48066 4.29289 6.29312C4.48043 6.10558 4.73478 6.00023 5 6.00023H8V9.00023ZM14 9.00023H10V6.00023H14V9.00023ZM18 16.0002C17.8022 16.0002 17.6089 15.9416 17.4444 15.8317C17.28 15.7218 17.1518 15.5656 17.0761 15.3829C17.0004 15.2002 16.9806 14.9991 17.0192 14.8051C17.0578 14.6112 17.153 14.433 17.2929 14.2931C17.4327 14.1533 17.6109 14.058 17.8049 14.0194C17.9989 13.9809 18.2 14.0007 18.3827 14.0763C18.5654 14.152 18.7216 14.2802 18.8315 14.4447C18.9414 14.6091 19 14.8024 19 15.0002C19 15.2654 18.8946 15.5198 18.7071 15.7073C18.5196 15.8949 18.2652 16.0002 18 16.0002ZM18 11.0002L16 9.00023V6.00023H17.65C17.8396 6.00165 18.0248 6.05694 18.1842 6.15963C18.3435 6.26232 18.4704 6.40818 18.55 6.58023L20 11.0002H18Z" fill="#141414"/>
</svg>
