<svg width="24" height="24" viewBox="0 0 24 24" fill="none" xmlns="http://www.w3.org/2000/svg">
<path d="M19 16.5899C19 16.5899 19 16.5299 19 16.4999C19 16.4699 19 16.4999 19 16.4399C18.9873 16.3409 18.9638 16.2437 18.93 16.1499C18.93 16.1499 18.93 16.0699 18.93 16.0299C18.8594 15.9024 18.7643 15.7902 18.65 15.6999L13.67 11.9999L18.6 8.29985C18.7113 8.2183 18.8063 8.11653 18.88 7.99985C18.88 7.99985 18.88 7.91985 18.88 7.87985C18.9332 7.77861 18.9735 7.67111 19 7.55985C19 7.55985 19 7.55985 19 7.49985C19 7.43985 19 7.43985 19 7.40985C18.9896 7.31799 18.9695 7.22748 18.94 7.13985C18.9104 7.09062 18.877 7.04381 18.84 6.99985C18.8438 6.96997 18.8438 6.93973 18.84 6.90985C18.7992 6.87032 18.7557 6.83357 18.71 6.79985C18.71 6.79985 18.71 6.72985 18.64 6.70985L12.64 2.20985C12.4926 2.08697 12.3129 2.00912 12.1224 1.98558C11.9319 1.96204 11.7387 1.99381 11.5658 2.07711C11.3929 2.1604 11.2476 2.29169 11.1473 2.45531C11.0469 2.61893 10.9958 2.80797 11 2.99985V9.99985L6.6 6.69985C6.49495 6.62106 6.3754 6.56373 6.24819 6.53114C6.12097 6.49855 5.98858 6.49133 5.85858 6.5099C5.72858 6.52847 5.60351 6.57247 5.49051 6.63938C5.37751 6.70628 5.2788 6.79479 5.2 6.89985C5.12121 7.00491 5.06388 7.12446 5.03129 7.25167C4.9987 7.37888 4.99148 7.51127 5.01005 7.64127C5.04756 7.90382 5.18783 8.14072 5.4 8.29985L10.33 11.9999L5.4 15.6999C5.18783 15.859 5.04756 16.0959 5.01005 16.3584C4.97255 16.621 5.04087 16.8877 5.2 17.0999C5.29315 17.224 5.41394 17.3249 5.55279 17.3943C5.69165 17.4637 5.84476 17.4999 6 17.4999C6.21637 17.4999 6.42691 17.4297 6.6 17.2999L11 13.9999V20.9999C11.0006 21.1845 11.0522 21.3654 11.1493 21.5225C11.2464 21.6796 11.3851 21.8068 11.55 21.8899C11.7098 21.9643 11.8865 21.9953 12.0621 21.9795C12.2377 21.9636 12.4061 21.9017 12.55 21.7999L18.55 17.2999C18.55 17.2999 18.61 17.2199 18.64 17.1899C18.67 17.1599 18.72 17.1399 18.75 17.0999C18.7538 17.07 18.7538 17.0397 18.75 17.0099C18.7805 16.962 18.8073 16.9119 18.83 16.8599C18.8975 16.7771 18.9546 16.6864 19 16.5899ZM13 4.99985L16.33 7.49985L13 9.99985V4.99985ZM13 18.9999V13.9999L16.33 16.4999L13 18.9999Z" fill="#141414"/>
</svg>
