<svg width="24" height="24" viewBox="0 0 24 24" fill="none" xmlns="http://www.w3.org/2000/svg">
<path d="M16 4C16 3.46957 15.7893 2.96086 15.4142 2.58579C15.0391 2.21071 14.5304 2 14 2H10C9.46957 2 8.96086 2.21071 8.58579 2.58579C8.21071 2.96086 8 3.46957 8 4C7.20435 4 6.44129 4.31607 5.87868 4.87868C5.31607 5.44129 5 6.20435 5 7V19C5 19.7956 5.31607 20.5587 5.87868 21.1213C6.44129 21.6839 7.20435 22 8 22H16C16.7956 22 17.5587 21.6839 18.1213 21.1213C18.6839 20.5587 19 19.7956 19 19V7C19 6.20435 18.6839 5.44129 18.1213 4.87868C17.5587 4.31607 16.7956 4 16 4ZM14.8 13.6L11.8 17.6C11.7069 17.7242 11.5861 17.825 11.4472 17.8944C11.3084 17.9639 11.1552 18 11 18C10.7836 18 10.5731 17.9298 10.4 17.8C10.1878 17.6409 10.0476 17.404 10.0101 17.1414C9.97254 16.8789 10.0409 16.6122 10.2 16.4L12 14H10C9.81533 13.9994 9.63443 13.9478 9.47733 13.8507C9.32024 13.7536 9.1931 13.6149 9.11 13.45C9.0355 13.2902 9.00459 13.1135 9.0204 12.9379C9.0362 12.7623 9.09817 12.594 9.2 12.45L12.2 8.45C12.2788 8.34494 12.3775 8.25643 12.4905 8.18953C12.6035 8.12262 12.7286 8.07862 12.8586 8.06005C12.9886 8.04148 13.121 8.04869 13.2482 8.08129C13.3754 8.11388 13.4949 8.17121 13.6 8.25C13.7051 8.32879 13.7936 8.42751 13.8605 8.54051C13.9274 8.65351 13.9714 8.77858 13.9899 8.90858C14.0085 9.03858 14.0013 9.17097 13.9687 9.29818C13.9361 9.42539 13.8788 9.54494 13.8 9.65L12 12H14C14.1847 12.0006 14.3656 12.0522 14.5227 12.1493C14.6798 12.2464 14.8069 12.3851 14.89 12.55C14.9742 12.716 15.0104 12.9023 14.9945 13.0878C14.9786 13.2733 14.9113 13.4507 14.8 13.6Z" fill="#141414"/>
</svg>
