<svg width="24" height="24" viewBox="0 0 24 24" fill="none" xmlns="http://www.w3.org/2000/svg">
<path d="M12 11.5C11.7033 11.5 11.4133 11.588 11.1667 11.7528C10.92 11.9176 10.7277 12.1519 10.6142 12.426C10.5007 12.7001 10.471 13.0017 10.5288 13.2926C10.5867 13.5836 10.7296 13.8509 10.9393 14.0607C11.1491 14.2704 11.4164 14.4133 11.7074 14.4712C11.9983 14.5291 12.2999 14.4994 12.574 14.3858C12.8481 14.2723 13.0824 14.08 13.2472 13.8334C13.412 13.5867 13.5 13.2967 13.5 13C13.5 12.6022 13.342 12.2206 13.0607 11.9393C12.7794 11.658 12.3978 11.5 12 11.5ZM12 3C10.0225 3.00042 8.08952 3.58714 6.44542 4.68598C4.80132 5.78483 3.51993 7.34646 2.76323 9.17345C2.00653 11.0005 1.8085 13.0108 2.19417 14.9503C2.57985 16.8898 3.53191 18.6715 4.93001 20.07C5.01965 20.1747 5.12997 20.2597 5.25404 20.3197C5.3781 20.3797 5.51323 20.4135 5.65095 20.4188C5.78867 20.4241 5.926 20.4009 6.05433 20.3506C6.18265 20.3004 6.2992 20.2241 6.39666 20.1266C6.49411 20.0292 6.57037 19.9126 6.62064 19.7843C6.67092 19.656 6.69412 19.5187 6.6888 19.3809C6.68348 19.2432 6.64975 19.1081 6.58973 18.984C6.52971 18.86 6.44469 18.7496 6.34001 18.66C5.22208 17.5408 4.46103 16.1153 4.15307 14.5637C3.84511 13.0121 4.00406 11.4041 4.60982 9.94277C5.21558 8.48148 6.24097 7.23258 7.55637 6.35392C8.87177 5.47526 10.4181 5.00629 12 5.00629C13.5819 5.00629 15.1282 5.47526 16.4436 6.35392C17.759 7.23258 18.7844 8.48148 19.3902 9.94277C19.996 11.4041 20.1549 13.0121 19.8469 14.5637C19.539 16.1153 18.7779 17.5408 17.66 18.66C17.4738 18.8474 17.3692 19.1008 17.3692 19.365C17.3692 19.6292 17.4738 19.8826 17.66 20.07C17.8474 20.2563 18.1008 20.3608 18.365 20.3608C18.6292 20.3608 18.8826 20.2563 19.07 20.07C20.4681 18.6715 21.4202 16.8898 21.8058 14.9503C22.1915 13.0108 21.9935 11.0005 21.2368 9.17345C20.4801 7.34646 19.1987 5.78483 17.5546 4.68598C15.9105 3.58714 13.9775 3.00042 12 3ZM12 7C10.4087 7 8.88258 7.63214 7.75736 8.75736C6.63215 9.88258 6.00001 11.4087 6.00001 13C5.99684 13.7882 6.15086 14.5692 6.45306 15.2972C6.75526 16.0252 7.19956 16.6857 7.76001 17.24C7.84965 17.3447 7.95997 17.4297 8.08404 17.4897C8.2081 17.5497 8.34323 17.5835 8.48095 17.5888C8.61867 17.5941 8.756 17.5709 8.88433 17.5206C9.01265 17.4704 9.1292 17.3941 9.22666 17.2966C9.32411 17.1992 9.40037 17.0826 9.45064 16.9543C9.50092 16.826 9.52412 16.6887 9.5188 16.5509C9.51348 16.4132 9.47975 16.2781 9.41973 16.154C9.35971 16.03 9.27469 15.9196 9.17001 15.83C8.61104 15.2704 8.23052 14.5577 8.07654 13.7819C7.92256 13.0061 8.00203 12.202 8.30491 11.4714C8.60779 10.7407 9.12049 10.1163 9.77819 9.67696C10.4359 9.23763 11.2091 9.00315 12 9.00315C12.7909 9.00315 13.5641 9.23763 14.2218 9.67696C14.8795 10.1163 15.3922 10.7407 15.6951 11.4714C15.998 12.202 16.0775 13.0061 15.9235 13.7819C15.7695 14.5577 15.389 15.2704 14.83 15.83C14.6438 16.0174 14.5392 16.2708 14.5392 16.535C14.5392 16.7992 14.6438 17.0526 14.83 17.24C15.0174 17.4263 15.2708 17.5308 15.535 17.5308C15.7992 17.5308 16.0526 17.4263 16.24 17.24C16.8004 16.6857 17.2448 16.0252 17.547 15.2972C17.8491 14.5692 18.0032 13.7882 18 13C18 11.4087 17.3679 9.88258 16.2426 8.75736C15.1174 7.63214 13.5913 7 12 7Z" fill="#141414"/>
</svg>
