<svg width="24" height="24" viewBox="0 0 24 24" fill="none" xmlns="http://www.w3.org/2000/svg">
<path d="M12 2C10.1073 2.00029 8.25366 2.53766 6.65434 3.54966C5.05501 4.56167 3.77571 6.00676 2.96511 7.717C2.1545 9.42723 1.84587 11.3324 2.07508 13.2111C2.30429 15.0898 3.06193 16.8648 4.25995 18.33L18.33 4.26C16.5439 2.79889 14.3075 2.00043 12 2ZM19.74 5.67L5.66995 19.74C7.58961 21.3062 10.0223 22.1041 12.4967 21.979C14.971 21.8538 17.3109 20.8147 19.0627 19.0628C20.8146 17.3109 21.8538 14.9711 21.9789 12.4967C22.104 10.0224 21.3062 7.58965 19.74 5.67Z" fill="#141414"/>
</svg>
