<svg width="24" height="24" viewBox="0 0 24 24" fill="none" xmlns="http://www.w3.org/2000/svg">
<path d="M21.87 11.3802L20.47 6.00023C20.4743 5.96034 20.4743 5.92011 20.47 5.88023C20.2442 5.31912 19.8542 4.83934 19.3509 4.50385C18.8477 4.16835 18.2548 3.9928 17.65 4.00023H5C4.20435 4.00023 3.44129 4.3163 2.87868 4.87891C2.31607 5.44151 2 6.20458 2 7.00023V17.0002C2 17.2654 2.10536 17.5198 2.29289 17.7073C2.48043 17.8949 2.73478 18.0002 3 18.0002H3.18C3.3902 18.5794 3.77363 19.0798 4.27817 19.4334C4.7827 19.787 5.38388 19.9767 6 19.9767C6.61612 19.9767 7.2173 19.787 7.72183 19.4334C8.22637 19.0798 8.6098 18.5794 8.82 18.0002H15.18C15.3902 18.5794 15.7736 19.0798 16.2782 19.4334C16.7827 19.787 17.3839 19.9767 18 19.9767C18.6161 19.9767 19.2173 19.787 19.7218 19.4334C20.2264 19.0798 20.6098 18.5794 20.82 18.0002H21C21.2652 18.0002 21.5196 17.8949 21.7071 17.7073C21.8946 17.5198 22 17.2654 22 17.0002V12.3802C22.0024 12.0425 21.9586 11.7061 21.87 11.3802ZM6 18.0002C5.80222 18.0002 5.60888 17.9416 5.44443 17.8317C5.27998 17.7218 5.15181 17.5656 5.07612 17.3829C5.00043 17.2002 4.98063 16.9991 5.01921 16.8051C5.0578 16.6112 5.15304 16.433 5.29289 16.2931C5.43275 16.1533 5.61093 16.058 5.80491 16.0194C5.99889 15.9809 6.19996 16.0007 6.38268 16.0763C6.56541 16.152 6.72159 16.2802 6.83147 16.4447C6.94135 16.6091 7 16.8024 7 17.0002C7 17.2654 6.89464 17.5198 6.70711 17.7073C6.51957 17.8949 6.26522 18.0002 6 18.0002ZM8 10.0002H4V7.00023C4 6.73501 4.10536 6.48066 4.29289 6.29312C4.48043 6.10558 4.73478 6.00023 5 6.00023H8V10.0002ZM14 10.0002H10V6.00023H14V10.0002ZM18 18.0002C17.8022 18.0002 17.6089 17.9416 17.4444 17.8317C17.28 17.7218 17.1518 17.5656 17.0761 17.3829C17.0004 17.2002 16.9806 16.9991 17.0192 16.8051C17.0578 16.6112 17.153 16.433 17.2929 16.2931C17.4327 16.1533 17.6109 16.058 17.8049 16.0194C17.9989 15.9809 18.2 16.0007 18.3827 16.0763C18.5654 16.152 18.7216 16.2802 18.8315 16.4447C18.9414 16.6091 19 16.8024 19 17.0002C19 17.2654 18.8946 17.5198 18.7071 17.7073C18.5196 17.8949 18.2652 18.0002 18 18.0002ZM18 12.0002L16 10.0002V6.00023H17.65C17.8396 6.00165 18.0248 6.05694 18.1842 6.15963C18.3435 6.26232 18.4704 6.40818 18.55 6.58023L19.94 11.8802C19.94 11.8802 19.94 11.9602 19.94 12.0002H18Z" fill="#141414"/>
</svg>
