<svg width="24" height="24" viewBox="0 0 24 24" fill="none" xmlns="http://www.w3.org/2000/svg">
<path d="M7 9C9.21 9 11 7.66 11 6C11 4.34 9.21 3 7 3C4.79 3 3 4.34 3 6C3 7.66 4.79 9 7 9ZM18 17C16.34 17 15 17.9 15 19C15 20.1 16.34 21 18 21C19.66 21 21 20.1 21 19C21 17.9 19.66 17 18 17ZM16.15 6.15C16.73 5.57 16.57 4.47 15.8 3.7C15.03 2.93 13.93 2.77 13.35 3.35C12.77 3.93 12.93 5.03 13.7 5.8C14.47 6.57 15.57 6.73 16.15 6.15ZM3.95 12.45C2.38 14.02 2.8 17 4.9 19.1C7 21.2 9.98 21.62 11.55 20.05C13.12 18.48 12.7 15.5 10.6 13.4C8.5 11.3 5.52 10.88 3.95 12.45ZM19.3 13.8C21.18 11.92 21.56 9.26 20.15 7.85C18.74 6.44 16.08 6.82 14.2 8.7C12.32 10.58 11.94 13.24 13.35 14.65C14.76 16.06 17.42 15.68 19.3 13.8Z" fill="#141414"/>
</svg>
