<svg width="24" height="24" viewBox="0 0 24 24" fill="none" xmlns="http://www.w3.org/2000/svg">
<path d="M21 16.5499L19.24 14.7899C19.147 14.6962 19.0364 14.6218 18.9145 14.5711C18.7927 14.5203 18.662 14.4941 18.53 14.4941C18.398 14.4941 18.2672 14.5203 18.1454 14.5711C18.0235 14.6218 17.9129 14.6962 17.82 14.7899L16 16.5499C15.3552 17.2018 14.9955 18.083 15 18.9999C14.9931 19.4561 15.0781 19.909 15.2499 20.3316C15.4217 20.7542 15.6768 21.138 16 21.4599C16.6559 22.1133 17.5441 22.4802 18.47 22.4802C19.3958 22.4802 20.284 22.1133 20.94 21.4599C21.274 21.143 21.5402 20.7616 21.7224 20.3387C21.9046 19.9159 21.9991 19.4604 22 18.9999C22.0044 18.083 21.6448 17.2018 21 16.5499ZM13 18.9999V9.99994H16V13.7599L16.38 13.3699C16.8223 12.9358 17.3882 12.6494 18 12.5499V9.99994H19C19.4615 10.0014 19.9093 9.84314 20.2675 9.55207C20.6256 9.26101 20.8721 8.85503 20.9651 8.40297C21.0581 7.95091 20.9919 7.4806 20.7777 7.07179C20.5636 6.66298 20.2146 6.34082 19.79 6.15994L12.79 3.15994C12.5396 3.05597 12.2711 3.00244 12 3.00244C11.7288 3.00244 11.4604 3.05597 11.21 3.15994L4.20996 6.15994C3.78536 6.34082 3.43638 6.66298 3.22219 7.07179C3.00801 7.4806 2.9418 7.95091 3.0348 8.40297C3.12781 8.85503 3.37429 9.26101 3.73246 9.55207C4.09063 9.84314 4.53844 10.0014 4.99996 9.99994H5.99996V18.9999H3.99996C3.73475 18.9999 3.48039 19.1053 3.29286 19.2928C3.10532 19.4804 2.99996 19.7347 2.99996 19.9999C2.99996 20.2652 3.10532 20.5195 3.29286 20.7071C3.48039 20.8946 3.73475 20.9999 3.99996 20.9999H13.38C13.1306 20.3625 13.0018 19.6844 13 18.9999ZM11 18.9999H7.99996V9.99994H11V18.9999Z" fill="#141414"/>
</svg>
