<svg width="24" height="24" viewBox="0 0 24 24" fill="none" xmlns="http://www.w3.org/2000/svg">
<path d="M18 4H16.46C15.36 2.78 13.77 2 12 2C10.23 2 8.64 2.78 7.54 4H6C4.34 4 3 5.34 3 7V18C3 19.66 4.34 21 6 21H18C19.66 21 21 19.66 21 18V7C21 5.34 19.66 4 18 4ZM13 11.86V18C13 18.55 12.55 19 12 19C11.45 19 11 18.55 11 18V11.86C9.28 11.41 8 9.86 8 8C8 5.79 9.79 4 12 4C14.21 4 16 5.79 16 8C16 9.86 14.72 11.41 13 11.86ZM12 6C11.45 6 11 6.45 11 7V8C11 8.55 11.45 9 12 9C12.55 9 13 8.55 13 8V7C13 6.45 12.55 6 12 6Z" fill="#141414"/>
</svg>
