<svg width="24" height="24" viewBox="0 0 24 24" fill="none" xmlns="http://www.w3.org/2000/svg">
<path d="M20 18.9999H18V9.99994H19C19.4615 10.0014 19.9093 9.84314 20.2675 9.55207C20.6257 9.26101 20.8722 8.85503 20.9652 8.40297C21.0582 7.95091 20.9919 7.4806 20.7778 7.07179C20.5636 6.66298 20.2146 6.34082 19.79 6.15994L12.79 3.15994C12.5396 3.05597 12.2711 3.00244 12 3.00244C11.7289 3.00244 11.4604 3.05597 11.21 3.15994L4.20999 6.15994C3.78539 6.34082 3.43641 6.66298 3.22222 7.07179C3.00804 7.4806 2.94183 7.95091 3.03483 8.40297C3.12784 8.85503 3.37432 9.26101 3.73249 9.55207C4.09066 9.84314 4.53847 10.0014 4.99999 9.99994H5.99999V18.9999H3.99999C3.73478 18.9999 3.48042 19.1053 3.29289 19.2928C3.10535 19.4804 2.99999 19.7347 2.99999 19.9999C2.99999 20.2652 3.10535 20.5195 3.29289 20.7071C3.48042 20.8946 3.73478 20.9999 3.99999 20.9999H20C20.2652 20.9999 20.5196 20.8946 20.7071 20.7071C20.8946 20.5195 21 20.2652 21 19.9999C21 19.7347 20.8946 19.4804 20.7071 19.2928C20.5196 19.1053 20.2652 18.9999 20 18.9999ZM16 18.9999H13V9.99994H16V18.9999ZM7.99999 9.99994H11V18.9999H7.99999V9.99994Z" fill="#141414"/>
</svg>
