<svg width="24" height="24" viewBox="0 0 24 24" fill="none" xmlns="http://www.w3.org/2000/svg">
<path d="M7.5 14C7.23478 14 6.98043 14.1054 6.79289 14.2929C6.60536 14.4804 6.5 14.7348 6.5 15V16C6.5 16.2652 6.60536 16.5196 6.79289 16.7071C6.98043 16.8946 7.23478 17 7.5 17C7.76522 17 8.01957 16.8946 8.20711 16.7071C8.39464 16.5196 8.5 16.2652 8.5 16V15C8.5 14.7348 8.39464 14.4804 8.20711 14.2929C8.01957 14.1054 7.76522 14 7.5 14ZM16.5 14C16.2348 14 15.9804 14.1054 15.7929 14.2929C15.6054 14.4804 15.5 14.7348 15.5 15V16C15.5 16.2652 15.6054 16.5196 15.7929 16.7071C15.9804 16.8946 16.2348 17 16.5 17C16.7652 17 17.0196 16.8946 17.2071 16.7071C17.3946 16.5196 17.5 16.2652 17.5 16V15C17.5 14.7348 17.3946 14.4804 17.2071 14.2929C17.0196 14.1054 16.7652 14 16.5 14ZM18 3H6C5.20435 3 4.44129 3.31607 3.87868 3.87868C3.31607 4.44129 3 5.20435 3 6V18C3 18.7956 3.31607 19.5587 3.87868 20.1213C4.44129 20.6839 5.20435 21 6 21H18C18.7956 21 19.5587 20.6839 20.1213 20.1213C20.6839 19.5587 21 18.7956 21 18V6C21 5.20435 20.6839 4.44129 20.1213 3.87868C19.5587 3.31607 18.7956 3 18 3ZM15.5 7C15.3674 7 15.2402 6.94732 15.1464 6.85355C15.0527 6.75979 15 6.63261 15 6.5C15 6.36739 15.0527 6.24021 15.1464 6.14645C15.2402 6.05268 15.3674 6 15.5 6H16.5C16.6326 6 16.7598 6.05268 16.8536 6.14645C16.9473 6.24021 17 6.36739 17 6.5V10H17.5C17.6326 10 17.7598 10.0527 17.8536 10.1464C17.9473 10.2402 18 10.3674 18 10.5C18 10.6326 17.9473 10.7598 17.8536 10.8536C17.7598 10.9473 17.6326 11 17.5 11H15.5C15.3674 11 15.2402 10.9473 15.1464 10.8536C15.0527 10.7598 15 10.6326 15 10.5C15 10.3674 15.0527 10.2402 15.1464 10.1464C15.2402 10.0527 15.3674 10 15.5 10H16V7H15.5ZM6.5 7C6.36739 7 6.24021 6.94732 6.14645 6.85355C6.05268 6.75979 6 6.63261 6 6.5C6 6.36739 6.05268 6.24021 6.14645 6.14645C6.24021 6.05268 6.36739 6 6.5 6H7.5C7.63261 6 7.75979 6.05268 7.85355 6.14645C7.94732 6.24021 8 6.36739 8 6.5V10H8.5C8.63261 10 8.75979 10.0527 8.85355 10.1464C8.94732 10.2402 9 10.3674 9 10.5C9 10.6326 8.94732 10.7598 8.85355 10.8536C8.75979 10.9473 8.63261 11 8.5 11H6.5C6.36739 11 6.24021 10.9473 6.14645 10.8536C6.05268 10.7598 6 10.6326 6 10.5C6 10.3674 6.05268 10.2402 6.14645 10.1464C6.24021 10.0527 6.36739 10 6.5 10H7V7H6.5ZM9.5 16C9.5 16.5304 9.28929 17.0391 8.91421 17.4142C8.53914 17.7893 8.03043 18 7.5 18C6.96957 18 6.46086 17.7893 6.08579 17.4142C5.71071 17.0391 5.5 16.5304 5.5 16V15C5.5 14.4696 5.71071 13.9609 6.08579 13.5858C6.46086 13.2107 6.96957 13 7.5 13C8.03043 13 8.53914 13.2107 8.91421 13.5858C9.28929 13.9609 9.5 14.4696 9.5 15V16ZM13 18H11C10.8674 18 10.7402 17.9473 10.6464 17.8536C10.5527 17.7598 10.5 17.6326 10.5 17.5C10.5 17.3674 10.5527 17.2402 10.6464 17.1464C10.7402 17.0527 10.8674 17 11 17H11.5V14H11C10.8674 14 10.7402 13.9473 10.6464 13.8536C10.5527 13.7598 10.5 13.6326 10.5 13.5C10.5 13.3674 10.5527 13.2402 10.6464 13.1464C10.7402 13.0527 10.8674 13 11 13H12C12.1326 13 12.2598 13.0527 12.3536 13.1464C12.4473 13.2402 12.5 13.3674 12.5 13.5V17H13C13.1326 17 13.2598 17.0527 13.3536 17.1464C13.4473 17.2402 13.5 17.3674 13.5 17.5C13.5 17.6326 13.4473 17.7598 13.3536 17.8536C13.2598 17.9473 13.1326 18 13 18ZM14 9C14 9.53043 13.7893 10.0391 13.4142 10.4142C13.0391 10.7893 12.5304 11 12 11C11.4696 11 10.9609 10.7893 10.5858 10.4142C10.2107 10.0391 10 9.53043 10 9V8C10 7.46957 10.2107 6.96086 10.5858 6.58579C10.9609 6.21071 11.4696 6 12 6C12.5304 6 13.0391 6.21071 13.4142 6.58579C13.7893 6.96086 14 7.46957 14 8V9ZM18.5 16C18.5 16.5304 18.2893 17.0391 17.9142 17.4142C17.5391 17.7893 17.0304 18 16.5 18C15.9696 18 15.4609 17.7893 15.0858 17.4142C14.7107 17.0391 14.5 16.5304 14.5 16V15C14.5 14.4696 14.7107 13.9609 15.0858 13.5858C15.4609 13.2107 15.9696 13 16.5 13C17.0304 13 17.5391 13.2107 17.9142 13.5858C18.2893 13.9609 18.5 14.4696 18.5 15V16ZM12 7C11.7348 7 11.4804 7.10536 11.2929 7.29289C11.1054 7.48043 11 7.73478 11 8V9C11 9.26522 11.1054 9.51957 11.2929 9.70711C11.4804 9.89464 11.7348 10 12 10C12.2652 10 12.5196 9.89464 12.7071 9.70711C12.8946 9.51957 13 9.26522 13 9V8C13 7.73478 12.8946 7.48043 12.7071 7.29289C12.5196 7.10536 12.2652 7 12 7Z" fill="#141414"/>
</svg>
