<svg width="24" height="24" viewBox="0 0 24 24" fill="none" xmlns="http://www.w3.org/2000/svg">
<path d="M19 9H17.56V8.67C17.56 8.07857 17.3251 7.51136 16.9068 7.09315C16.4886 6.67495 15.9214 6.44 15.33 6.44H14.22V4.22C14.22 3.63122 13.9861 3.06655 13.5698 2.65022C13.1534 2.23389 12.5888 2 12 2C11.4112 2 10.8466 2.23389 10.4302 2.65022C10.0139 3.06655 9.78 3.63122 9.78 4.22V6.44H8.67C8.07857 6.44 7.51136 6.67495 7.09315 7.09315C6.67495 7.51136 6.44 8.07857 6.44 8.67V9H5C4.73478 9 4.48043 9.10536 4.29289 9.29289C4.10536 9.48043 4 9.73478 4 10C4 10.2652 4.10536 10.5196 4.29289 10.7071C4.48043 10.8946 4.73478 11 5 11H19C19.2652 11 19.5196 10.8946 19.7071 10.7071C19.8946 10.5196 20 10.2652 20 10C20 9.73478 19.8946 9.48043 19.7071 9.29289C19.5196 9.10536 19.2652 9 19 9ZM6.44 19.78C6.44264 20.3697 6.67876 20.9343 7.09668 21.3504C7.5146 21.7664 8.0803 22 8.67 22H15.33C15.9197 22 16.4854 21.7664 16.9033 21.3504C17.3212 20.9343 17.5574 20.3697 17.56 19.78V13H6.44V19.78Z" fill="#141414"/>
</svg>
