<svg width="24" height="24" viewBox="0 0 24 24" fill="none" xmlns="http://www.w3.org/2000/svg">
<path d="M21 10H19.85L20 9.16C20.0234 9.01593 20.0149 8.86849 19.9752 8.72804C19.9355 8.58759 19.8656 8.45752 19.7703 8.34698C19.675 8.23643 19.5567 8.14809 19.4236 8.08815C19.2905 8.0282 19.1459 7.99812 19 8H13C12.8541 7.99812 12.7095 8.0282 12.5764 8.08815C12.4433 8.14809 12.325 8.23643 12.2297 8.34698C12.1344 8.45752 12.0645 8.58759 12.0248 8.72804C11.9851 8.86849 11.9766 9.01593 12 9.16L12.14 10H11C10.7348 10 10.4804 10.1054 10.2929 10.2929C10.1054 10.4804 10 10.7348 10 11C10 11.2652 10.1054 11.5196 10.2929 11.7071C10.4804 11.8946 10.7348 12 11 12H12.49L13 15.16C13.0351 15.3604 13.1305 15.5452 13.2735 15.69C13.4164 15.8347 13.6001 15.9324 13.8 15.97C14.0806 15.6703 14.4198 15.4313 14.7965 15.268C15.1732 15.1046 15.5794 15.0203 15.99 15.0203C16.4006 15.0203 16.8068 15.1046 17.1835 15.268C17.5602 15.4313 17.8994 15.6703 18.18 15.97C18.3799 15.9324 18.5636 15.8347 18.7065 15.69C18.8495 15.5452 18.9449 15.3604 18.98 15.16L19.51 12H21C21.2652 12 21.5196 11.8946 21.7071 11.7071C21.8946 11.5196 22 11.2652 22 11C22 10.7348 21.8946 10.4804 21.7071 10.2929C21.5196 10.1054 21.2652 10 21 10ZM16 12C15.8022 12 15.6089 11.9414 15.4444 11.8315C15.28 11.7216 15.1518 11.5654 15.0761 11.3827C15.0004 11.2 14.9806 10.9989 15.0192 10.8049C15.0578 10.6109 15.153 10.4327 15.2929 10.2929C15.4327 10.153 15.6109 10.0578 15.8049 10.0192C15.9989 9.98063 16.2 10.0004 16.3827 10.0761C16.5654 10.1518 16.7216 10.28 16.8315 10.4444C16.9414 10.6089 17 10.8022 17 11C17 11.2652 16.8946 11.5196 16.7071 11.7071C16.5196 11.8946 16.2652 12 16 12ZM6 7H4C3.46957 7 2.96086 7.21071 2.58579 7.58579C2.21071 7.96086 2 8.46957 2 9V14C2 14.5304 2.21071 15.0391 2.58579 15.4142C2.96086 15.7893 3.46957 16 4 16V20C4 20.2652 4.10536 20.5196 4.29289 20.7071C4.48043 20.8946 4.73478 21 5 21C5.26522 21 5.51957 20.8946 5.70711 20.7071C5.89464 20.5196 6 20.2652 6 20V16C6.53043 16 7.03914 15.7893 7.41421 15.4142C7.78929 15.0391 8 14.5304 8 14V9C8 8.46957 7.78929 7.96086 7.41421 7.58579C7.03914 7.21071 6.53043 7 6 7ZM5 6C5.29667 6 5.58668 5.91203 5.83336 5.7472C6.08003 5.58238 6.27229 5.34811 6.38582 5.07403C6.49935 4.79994 6.52906 4.49834 6.47118 4.20737C6.4133 3.91639 6.27044 3.64912 6.06066 3.43934C5.85088 3.22956 5.58361 3.0867 5.29264 3.02882C5.00166 2.97094 4.70006 3.00065 4.42597 3.11418C4.15189 3.22771 3.91762 3.41997 3.7528 3.66665C3.58797 3.91332 3.5 4.20333 3.5 4.5C3.5 4.89783 3.65804 5.27936 3.93934 5.56066C4.22064 5.84197 4.60218 6 5 6ZM16 17C15.7348 17 15.4804 17.1054 15.2929 17.2929C15.1054 17.4804 15 17.7348 15 18V20C15 20.2652 15.1054 20.5196 15.2929 20.7071C15.4804 20.8946 15.7348 21 16 21C16.2652 21 16.5196 20.8946 16.7071 20.7071C16.8946 20.5196 17 20.2652 17 20V18C17 17.7348 16.8946 17.4804 16.7071 17.2929C16.5196 17.1054 16.2652 17 16 17Z" fill="#141414"/>
</svg>
