<svg width="24" height="24" viewBox="0 0 24 24" fill="none" xmlns="http://www.w3.org/2000/svg">
<path d="M7.76 14.83L5.64 17C5.45375 17.1874 5.34921 17.4408 5.34921 17.705C5.34921 17.9692 5.45375 18.2226 5.64 18.41C5.82463 18.5984 6.07623 18.7062 6.34 18.71C6.47231 18.7094 6.60319 18.6827 6.72507 18.6312C6.84694 18.5797 6.95739 18.5045 7.05 18.41L9.17 16.29C9.33383 16.0987 9.41943 15.8526 9.40971 15.6009C9.39999 15.3493 9.29566 15.1105 9.11756 14.9324C8.93947 14.7543 8.70073 14.65 8.44905 14.6403C8.19738 14.6306 7.9513 14.7162 7.76 14.88V14.83ZM8 12C8 11.7348 7.89464 11.4804 7.70711 11.2929C7.51957 11.1054 7.26522 11 7 11H4C3.73478 11 3.48043 11.1054 3.29289 11.2929C3.10536 11.4804 3 11.7348 3 12C3 12.2652 3.10536 12.5196 3.29289 12.7071C3.48043 12.8946 3.73478 13 4 13H7C7.26522 13 7.51957 12.8946 7.70711 12.7071C7.89464 12.5196 8 12.2652 8 12ZM15.54 9.46C15.8023 9.4589 16.0537 9.35474 16.24 9.17L18.36 7.05C18.4854 6.9706 18.5915 6.86428 18.6707 6.73877C18.7499 6.61325 18.8002 6.47169 18.8179 6.32433C18.8355 6.17698 18.8202 6.02754 18.773 5.88685C18.7257 5.74616 18.6478 5.61775 18.5447 5.51093C18.4417 5.40411 18.3162 5.32156 18.1773 5.26928C18.0384 5.21699 17.8896 5.19627 17.7417 5.20863C17.5938 5.22099 17.4505 5.26611 17.3222 5.34072C17.1939 5.41533 17.0839 5.51756 17 5.64L14.83 7.76C14.6437 7.94736 14.5392 8.20081 14.5392 8.465C14.5392 8.72919 14.6437 8.98264 14.83 9.17C14.9234 9.26268 15.0343 9.33601 15.1561 9.38577C15.2779 9.43554 15.4084 9.46076 15.54 9.46ZM7.05 5.64C6.8587 5.47617 6.61262 5.39057 6.36095 5.40029C6.10927 5.41001 5.87053 5.51434 5.69244 5.69244C5.51434 5.87053 5.41001 6.10927 5.40029 6.36095C5.39057 6.61262 5.47617 6.8587 5.64 7.05L7.76 9.17C7.94736 9.35625 8.20081 9.46079 8.465 9.46079C8.72919 9.46079 8.98264 9.35625 9.17 9.17C9.35625 8.98264 9.46079 8.72919 9.46079 8.465C9.46079 8.20081 9.35625 7.94736 9.17 7.76L7.05 5.64ZM20 11H17C16.7348 11 16.4804 11.1054 16.2929 11.2929C16.1054 11.4804 16 11.7348 16 12C16 12.2652 16.1054 12.5196 16.2929 12.7071C16.4804 12.8946 16.7348 13 17 13H20C20.2652 13 20.5196 12.8946 20.7071 12.7071C20.8946 12.5196 21 12.2652 21 12C21 11.7348 20.8946 11.4804 20.7071 11.2929C20.5196 11.1054 20.2652 11 20 11ZM12 16C11.7348 16 11.4804 16.1054 11.2929 16.2929C11.1054 16.4804 11 16.7348 11 17V20C11 20.2652 11.1054 20.5196 11.2929 20.7071C11.4804 20.8946 11.7348 21 12 21C12.2652 21 12.5196 20.8946 12.7071 20.7071C12.8946 20.5196 13 20.2652 13 20V17C13 16.7348 12.8946 16.4804 12.7071 16.2929C12.5196 16.1054 12.2652 16 12 16ZM16.24 14.83C16.0487 14.6662 15.8026 14.5806 15.5509 14.5903C15.2993 14.6 15.0605 14.7043 14.8824 14.8824C14.7043 15.0605 14.6 15.2993 14.5903 15.5509C14.5806 15.8026 14.6662 16.0487 14.83 16.24L17 18.36C17.0926 18.4545 17.2031 18.5297 17.3249 18.5812C17.4468 18.6327 17.5777 18.6595 17.71 18.66C17.9738 18.6562 18.2254 18.5484 18.41 18.36C18.5963 18.1726 18.7008 17.9192 18.7008 17.655C18.7008 17.3908 18.5963 17.1374 18.41 16.95L16.24 14.83ZM12 3C11.7348 3 11.4804 3.10536 11.2929 3.29289C11.1054 3.48043 11 3.73478 11 4V7C11 7.26522 11.1054 7.51957 11.2929 7.70711C11.4804 7.89464 11.7348 8 12 8C12.2652 8 12.5196 7.89464 12.7071 7.70711C12.8946 7.51957 13 7.26522 13 7V4C13 3.73478 12.8946 3.48043 12.7071 3.29289C12.5196 3.10536 12.2652 3 12 3Z" fill="#141414"/>
</svg>
