<svg width="24" height="24" viewBox="0 0 24 24" fill="none" xmlns="http://www.w3.org/2000/svg">
<path d="M17 16C15.35 16 14 17.35 14 19C14 19.55 13.55 20 13 20H12C11.45 20 11 19.55 11 19V18C12.1 18 13 17.1 13 16V15.72L14.63 15.18C15.45 14.91 16 14.14 16 13.28V4C16 2.9 15.1 2 14 2H6C4.9 2 4 2.9 4 4V13.28C4 14.14 4.55 14.9 5.37 15.18L7 15.72V16C7 17.1 7.9 18 9 18V19C9 20.65 10.35 22 12 22H13C14.65 22 16 20.65 16 19C16 18.45 16.45 18 17 18C17.55 18 18 18.45 18 19V21C18 21.55 18.45 22 19 22C19.55 22 20 21.55 20 21V19C20 17.35 18.65 16 17 16ZM10 12C9.45 12 9 11.55 9 11V10H8C7.45 10 7 9.55 7 9C7 8.45 7.45 8 8 8H9V7C9 6.45 9.45 6 10 6C10.55 6 11 6.45 11 7V8H12C12.55 8 13 8.45 13 9C13 9.55 12.55 10 12 10H11V11C11 11.55 10.55 12 10 12Z" fill="#141414"/>
</svg>
