<svg width="24" height="24" viewBox="0 0 24 24" fill="none" xmlns="http://www.w3.org/2000/svg">
<path d="M20 8C20 7.20435 19.6839 6.44129 19.1213 5.87868C18.5587 5.31607 17.7956 5 17 5H5C4.20435 5 3.44129 5.31607 2.87868 5.87868C2.31607 6.44129 2 7.20435 2 8V16C2 16.7956 2.31607 17.5587 2.87868 18.1213C3.44129 18.6839 4.20435 19 5 19H17C17.7956 19 18.5587 18.6839 19.1213 18.1213C19.6839 17.5587 20 16.7956 20 16C20.5304 16 21.0391 15.7893 21.4142 15.4142C21.7893 15.0391 22 14.5304 22 14V10C22 9.46957 21.7893 8.96086 21.4142 8.58579C21.0391 8.21071 20.5304 8 20 8ZM20 14H19C18.7348 14 18.4804 14.1054 18.2929 14.2929C18.1054 14.4804 18 14.7348 18 15V16C18 16.2652 17.8946 16.5196 17.7071 16.7071C17.5196 16.8946 17.2652 17 17 17H5C4.73478 17 4.48043 16.8946 4.29289 16.7071C4.10536 16.5196 4 16.2652 4 16V8C4 7.73478 4.10536 7.48043 4.29289 7.29289C4.48043 7.10536 4.73478 7 5 7H17C17.2652 7 17.5196 7.10536 17.7071 7.29289C17.8946 7.48043 18 7.73478 18 8V9C18 9.26522 18.1054 9.51957 18.2929 9.70711C18.4804 9.89464 18.7348 10 19 10H20V14ZM7.5 9H6.5C6.36739 9 6.24021 9.05268 6.14645 9.14645C6.05268 9.24021 6 9.36739 6 9.5V14.5C6 14.6326 6.05268 14.7598 6.14645 14.8536C6.24021 14.9473 6.36739 15 6.5 15H7.5C7.63261 15 7.75979 14.9473 7.85355 14.8536C7.94732 14.7598 8 14.6326 8 14.5V9.5C8 9.36739 7.94732 9.24021 7.85355 9.14645C7.75979 9.05268 7.63261 9 7.5 9ZM11.5 9H10.5C10.3674 9 10.2402 9.05268 10.1464 9.14645C10.0527 9.24021 10 9.36739 10 9.5V14.5C10 14.6326 10.0527 14.7598 10.1464 14.8536C10.2402 14.9473 10.3674 15 10.5 15H11.5C11.6326 15 11.7598 14.9473 11.8536 14.8536C11.9473 14.7598 12 14.6326 12 14.5V9.5C12 9.36739 11.9473 9.24021 11.8536 9.14645C11.7598 9.05268 11.6326 9 11.5 9Z" fill="#141414"/>
</svg>
