<svg width="24" height="24" viewBox="0 0 24 24" fill="none" xmlns="http://www.w3.org/2000/svg">
<path d="M20.68 19.13L20 18.57C19.8972 18.4826 19.8252 18.3644 19.7946 18.233C19.764 18.1016 19.7764 17.9638 19.83 17.84C21.3604 14.0971 21.3604 9.90292 19.83 6.16C19.7764 6.03616 19.764 5.89839 19.7946 5.76697C19.8252 5.63555 19.8972 5.51743 20 5.43L20.62 4.91C20.7224 4.80863 20.8038 4.68794 20.8594 4.55491C20.9149 4.42188 20.9435 4.27916 20.9435 4.135C20.9435 3.99084 20.9149 3.84812 20.8594 3.71509C20.8038 3.58206 20.7224 3.46137 20.62 3.36C20.4317 3.15644 20.1757 3.02845 19.9 3H4.09995C3.8838 3.00109 3.67276 3.06584 3.49319 3.18615C3.31362 3.30647 3.17348 3.47703 3.09027 3.67652C3.00706 3.87602 2.98447 4.09561 3.02531 4.30786C3.06616 4.52012 3.16864 4.71564 3.31995 4.87L3.99995 5.43C4.10273 5.51743 4.17472 5.63555 4.20532 5.76697C4.23592 5.89839 4.22353 6.03616 4.16995 6.16C2.63946 9.90292 2.63946 14.0971 4.16995 17.84C4.22353 17.9638 4.23592 18.1016 4.20532 18.233C4.17472 18.3644 4.10273 18.4826 3.99995 18.57L3.37995 19.09C3.27745 19.1914 3.19608 19.3121 3.14055 19.4451C3.08501 19.5781 3.05642 19.7208 3.05642 19.865C3.05642 20.0092 3.08501 20.1519 3.14055 20.2849C3.19608 20.4179 3.27745 20.5386 3.37995 20.64C3.56819 20.8436 3.82416 20.9715 4.09995 21H19.9C20.1161 20.9989 20.3271 20.9342 20.5067 20.8138C20.6863 20.6935 20.8264 20.523 20.9096 20.3235C20.9928 20.124 21.0154 19.9044 20.9746 19.6921C20.9337 19.4799 20.8313 19.2844 20.68 19.13ZM11 17H10.95C10.5915 17.0328 10.23 16.9939 9.88675 16.8856C9.54346 16.7772 9.22521 16.6015 8.95058 16.3688C8.67595 16.136 8.45044 15.8509 8.28722 15.53C8.124 15.2092 8.02634 14.859 7.99995 14.5C7.98813 14.3335 7.98813 14.1665 7.99995 14C8.36211 13.9615 8.72833 13.9961 9.07687 14.1017C9.42541 14.2074 9.74918 14.382 10.029 14.6152C10.3088 14.8483 10.5389 15.1353 10.7057 15.4591C10.8725 15.7829 10.9725 16.1368 11 16.5C11.0118 16.6665 11.0118 16.8335 11 17ZM11 13H10.95C10.5915 13.0328 10.23 12.9939 9.88675 12.8856C9.54346 12.7772 9.22521 12.6015 8.95058 12.3688C8.67595 12.136 8.45044 11.8509 8.28722 11.53C8.124 11.2092 8.02634 10.859 7.99995 10.5C7.98813 10.3335 7.98813 10.1665 7.99995 10C8.36211 9.96147 8.72833 9.99608 9.07687 10.1017C9.42541 10.2074 9.74918 10.382 10.029 10.6152C10.3088 10.8483 10.5389 11.1353 10.7057 11.4591C10.8725 11.7829 10.9725 12.1368 11 12.5C11.0118 12.6665 11.0118 12.8335 11 13ZM12 11C11.8782 10.91 11.7674 10.8059 11.67 10.69C11.4333 10.4335 11.2529 10.1304 11.1405 9.80003C11.0281 9.46968 10.986 9.11944 11.0171 8.77186C11.0482 8.42428 11.1517 8.08706 11.321 7.7819C11.4903 7.47674 11.7215 7.21039 12 7C12.1192 7.08931 12.2297 7.18976 12.33 7.3C12.5698 7.55589 12.7528 7.85954 12.8671 8.19108C12.9814 8.52262 13.0244 8.87457 12.9932 9.22387C12.9621 9.57318 12.8575 9.91196 12.6863 10.218C12.5152 10.5241 12.2813 10.7906 12 11ZM13 17C12.9899 16.8468 12.9899 16.6932 13 16.54C13.0222 16.1733 13.1186 15.815 13.2831 15.4866C13.4477 15.1582 13.677 14.8665 13.9574 14.6291C14.2377 14.3918 14.5632 14.2137 14.9143 14.1055C15.2653 13.9974 15.6346 13.9615 16 14C16.01 14.1532 16.01 14.3068 16 14.46C15.9786 14.8216 15.885 15.1752 15.7246 15.5C15.5643 15.8247 15.3404 16.1141 15.0663 16.3509C14.7923 16.5877 14.4735 16.7671 14.1289 16.8786C13.7843 16.9901 13.4208 17.0314 13.06 17H13ZM13 13C12.9899 12.8468 12.9899 12.6932 13 12.54C13.0222 12.1733 13.1186 11.815 13.2831 11.4866C13.4477 11.1582 13.677 10.8665 13.9574 10.6291C14.2377 10.3918 14.5632 10.2137 14.9143 10.1055C15.2653 9.99741 15.6346 9.96151 16 10C16.01 10.1532 16.01 10.3068 16 10.46C15.9786 10.8216 15.885 11.1752 15.7246 11.5C15.5643 11.8247 15.3404 12.1141 15.0663 12.3509C14.7923 12.5877 14.4735 12.7671 14.1289 12.8786C13.7843 12.9901 13.4208 13.0314 13.06 13H13Z" fill="#141414"/>
</svg>
