<svg width="24" height="24" viewBox="0 0 24 24" fill="none" xmlns="http://www.w3.org/2000/svg">
<path d="M9 3C7.9 3 7 3.9 7 5C5.55 5 4.34 6.03 4.06 7.39C4.66 7.14 5.31 7 6 7C6.96 7 7.85 7.27 8.61 7.74C9.13 8.06 9.21 8.78 8.78 9.21L8.7 9.29C8.38 9.61 7.9 9.63 7.51 9.4C7.07 9.14 6.55 8.99 6 8.99C5.41 8.99 4.86 9.17 4.4 9.46C4.19 9.59 4 9.75 3.83 9.93H3.82C3.67 10.1 3.54 10.28 3.43 10.47C3.4 10.52 3.37 10.57 3.35 10.62C3.27 10.77 3.2 10.94 3.15 11.11C3.13 11.17 3.11 11.23 3.09 11.29C3.03 11.52 3 11.75 3 12C3 13.07 3.56 14 4.4 14.53C4.15 14.97 4 15.46 4 16C4 17.66 5.34 19 7 19C7 20.1 7.9 21 9 21C10.1 21 11 20.1 11 19V5C11 3.9 10.1 3 9 3ZM19.6 9.47C19.85 9.03 20 8.54 20 8C20 6.34 18.66 5 17 5C17 3.9 16.1 3 15 3C13.9 3 13 3.9 13 5V13.5C13 14.6 13.9 15.5 15 15.5C15.38 15.5 15.74 15.39 16.05 15.2C16.44 14.96 16.95 15.01 17.27 15.34C17.72 15.79 17.64 16.55 17.1 16.89C16.49 17.28 15.77 17.5 14.99 17.5C14.26 17.5 13.58 17.29 12.99 16.94V19C12.99 20.1 13.89 21 14.99 21C16.09 21 16.99 20.1 16.99 19C18.65 19 19.99 17.66 19.99 16C19.99 15.85 19.97 15.71 19.95 15.56C19.94 15.47 19.92 15.39 19.9 15.31C19.9 15.27 19.88 15.23 19.87 15.19C19.8 14.96 19.71 14.74 19.59 14.53C19.2 13.84 18.56 13.32 17.78 13.11C17.32 12.98 16.98 12.61 16.98 12.13C16.98 11.48 17.6 10.99 18.23 11.16C19.28 11.43 20.19 12.04 20.85 12.85C20.93 12.58 20.98 12.3 20.98 12C20.98 10.93 20.42 10 19.58 9.47H19.6Z" fill="#141414"/>
</svg>
