<svg width="24" height="24" viewBox="0 0 24 24" fill="none" xmlns="http://www.w3.org/2000/svg">
<path d="M3.65005 6.49005C2.75957 7.84173 2.21052 9.38938 2.05005 11H5.78005C5.575 9.30635 4.82784 7.72434 3.65005 6.49005ZM2.05005 13C2.21052 14.6107 2.75957 16.1584 3.65005 17.51C4.82784 16.2758 5.575 14.6937 5.78005 13H2.05005ZM22 11C21.8396 9.38938 21.2905 7.84173 20.4 6.49005C19.204 7.71752 18.4389 9.30025 18.22 11H22ZM19.07 4.93005C17.4428 3.29393 15.2966 2.27561 13 2.05005V11.05H16.2C16.4173 8.73876 17.432 6.57507 19.07 4.93005ZM4.93005 19.07C6.5499 20.7245 8.69699 21.7609 11 22V13H7.80005C7.57154 15.2937 6.55769 17.4379 4.93005 19.07ZM4.93005 4.93005C6.55769 6.56215 7.57154 8.70642 7.80005 11H11V2.05005C8.70355 2.27561 6.55729 3.29393 4.93005 4.93005ZM20.35 17.51C21.2582 16.1631 21.8246 14.6151 22 13H18.22C18.4251 14.6937 19.1723 16.2758 20.35 17.51ZM13 13V22C15.2966 21.7745 17.4428 20.7562 19.07 19.1201C17.432 17.475 16.4173 15.3113 16.2 13H13Z" fill="#141414"/>
</svg>
