<svg width="24" height="24" viewBox="0 0 24 24" fill="none" xmlns="http://www.w3.org/2000/svg">
<path d="M10 22C10 22.55 10.45 23 11 23H13C13.55 23 14 22.55 14 22V21H10V22ZM17 3H7C5.34 3 4 4.34 4 6V14C4 17.31 6.69 20 10 20H14C17.31 20 20 17.31 20 14V6C20 4.34 18.66 3 17 3ZM13 16H11C10.45 16 10 15.55 10 15C10 14.45 10.45 14 11 14H13C13.55 14 14 14.45 14 15C14 15.55 13.55 16 13 16ZM16 10C16 10.55 15.55 11 15 11H9C8.45 11 8 10.55 8 10V8C8 7.45 8.45 7 9 7H15C15.55 7 16 7.45 16 8V10Z" fill="#141414"/>
</svg>
