<svg width="24" height="24" viewBox="0 0 24 24" fill="none" xmlns="http://www.w3.org/2000/svg">
<path d="M22 12C22 10.69 21.15 9.59 19.98 9.18C19.98 9.12 20 9.06 20 9C20 7.34 18.66 6 17 6C16.76 6 16.52 6.04 16.3 6.09C15.75 5.43 14.93 5 14 5C13.23 5 12.53 5.3 12 5.78C11.47 5.3 10.77 5 10 5C9.07 5 8.25 5.43 7.7 6.09C7.47 6.04 7.24 6 7 6C5.34 6 4 7.34 4 9C4 9.06 4.01 9.12 4.02 9.18C2.85 9.59 2 10.69 2 12C2 13.66 3.34 15 5 15H9.01C9.01 16.66 10.34 18 12 18H13V20C13 20.55 13.45 21 14 21C14.55 21 15 20.55 15 20V19.83C15 18.82 15.82 18 16.83 18C18.45 18 19.91 16.78 20 15.16C20 15.04 19.99 14.93 19.98 14.82C21.15 14.41 22 13.31 22 12ZM16.45 12.11C16.74 12.25 16.94 12.53 16.99 12.84C17.04 13.16 16.94 13.48 16.71 13.71L14.71 15.71C14.51 15.91 14.26 16 14 16C13.74 16 13.49 15.9 13.29 15.71C12.9 15.32 12.9 14.69 13.29 14.3L14.31 13.28L13.55 12.9C13.26 12.76 13.06 12.48 13.01 12.17C12.96 11.85 13.06 11.53 13.29 11.3L15.29 9.3C15.68 8.91 16.31 8.91 16.7 9.3C17.09 9.69 17.09 10.32 16.7 10.71L15.68 11.73L16.44 12.11H16.45Z" fill="#141414"/>
</svg>
