<svg width="24" height="24" viewBox="0 0 24 24" fill="none" xmlns="http://www.w3.org/2000/svg">
<path d="M19.4201 8.10989C19.5013 8.04862 19.5781 7.98179 19.6501 7.90989C20.5612 6.81445 21.0413 5.42414 21.0001 3.99989C20.9924 3.77846 20.9113 3.56586 20.7697 3.39547C20.6281 3.22508 20.4339 3.10654 20.2176 3.05848C20.0013 3.01042 19.7752 3.03554 19.5747 3.12992C19.3743 3.22429 19.2108 3.38256 19.1101 3.57989C18.7647 4.07168 18.2945 4.4625 17.7478 4.71209C17.2012 4.96169 16.5979 5.06103 16.0001 4.99989H8.00007C7.39979 5.05464 6.79572 4.94929 6.2494 4.69458C5.70308 4.43986 5.23405 4.04489 4.89007 3.54989C4.79419 3.34877 4.6339 3.18544 4.43462 3.0858C4.23534 2.98616 4.00849 2.95592 3.79007 2.99989C3.56264 3.04868 3.35934 3.17522 3.21514 3.35774C3.07095 3.54027 2.9949 3.76734 3.00007 3.99989C2.92726 5.44932 3.39396 6.87434 4.31007 7.99989C4.39007 8.07989 4.48007 8.13989 4.56007 8.20989C4.12224 8.34893 3.73775 8.61922 3.4587 8.98413C3.17965 9.34904 3.01954 9.79092 3.00007 10.2499C3.00266 10.448 3.08251 10.6373 3.22261 10.7774C3.3627 10.9174 3.55197 10.9973 3.75007 10.9999H5.25007C5.50648 10.999 5.7606 10.9515 6.00007 10.8599V13.9999C6.86279 13.3455 7.91728 12.994 9.00007 12.9999H15.0001C16.0829 12.994 17.1374 13.3455 18.0001 13.9999V10.8599C18.2395 10.9515 18.4937 10.999 18.7501 10.9999H20.2501C20.4482 10.9973 20.6374 10.9174 20.7775 10.7774C20.9176 10.6373 20.9975 10.448 21.0001 10.2499C20.9984 9.77156 20.8443 9.30621 20.5602 8.92139C20.2761 8.53658 19.8767 8.25232 19.4201 8.10989ZM9.00007 10.9999C8.80229 10.9999 8.60895 10.9412 8.4445 10.8314C8.28005 10.7215 8.15188 10.5653 8.07619 10.3826C8.00051 10.1998 7.9807 9.99878 8.01929 9.8048C8.05787 9.61082 8.15311 9.43263 8.29297 9.29278C8.43282 9.15293 8.611 9.05769 8.80498 9.0191C8.99896 8.98052 9.20003 9.00032 9.38276 9.07601C9.56548 9.1517 9.72166 9.27987 9.83154 9.44432C9.94142 9.60877 10.0001 9.80211 10.0001 9.99989C10.0001 10.2651 9.89472 10.5195 9.70718 10.707C9.51964 10.8945 9.26529 10.9999 9.00007 10.9999ZM15.0001 10.9999C14.8023 10.9999 14.609 10.9412 14.4445 10.8314C14.2801 10.7215 14.1519 10.5653 14.0762 10.3826C14.0005 10.1998 13.9807 9.99878 14.0193 9.8048C14.0579 9.61082 14.1531 9.43263 14.293 9.29278C14.4328 9.15293 14.611 9.05769 14.805 9.0191C14.999 8.98052 15.2 9.00032 15.3828 9.07601C15.5655 9.1517 15.7217 9.27987 15.8315 9.44432C15.9414 9.60877 16.0001 9.80211 16.0001 9.99989C16.0001 10.2651 15.8947 10.5195 15.7072 10.707C15.5196 10.8945 15.2653 10.9999 15.0001 10.9999ZM15.0001 14.9999H9.00007C8.20442 14.9999 7.44136 15.316 6.87875 15.8786C6.31614 16.4412 6.00007 17.2042 6.00007 17.9999C6.00007 18.7955 6.31614 19.5586 6.87875 20.1212C7.44136 20.6838 8.20442 20.9999 9.00007 20.9999H15.0001C15.7957 20.9999 16.5588 20.6838 17.1214 20.1212C17.684 19.5586 18.0001 18.7955 18.0001 17.9999C18.0001 17.2042 17.684 16.4412 17.1214 15.8786C16.5588 15.316 15.7957 14.9999 15.0001 14.9999Z" fill="#141414"/>
</svg>
