<svg width="24" height="24" viewBox="0 0 24 24" fill="none" xmlns="http://www.w3.org/2000/svg">
<path d="M6 9.5C6 10.33 6.67 11 7.5 11C8.33 11 9 10.33 9 9.5C9 8.67 8.33 8 7.5 8C6.67 8 6 8.67 6 9.5ZM19 4H13.6L11.29 6H18.99C19.54 6 19.99 6.45 19.99 7V13.7L16.16 10.25C15.78 9.91 15.2 9.91 14.82 10.25L12.81 12.08L13.35 12.98C13.6 13.4 13.51 13.95 13.13 14.26L11.05 15.99L13.13 17.72C13.36 17.91 13.49 18.19 13.49 18.49C13.49 18.79 13.36 19.07 13.13 19.26L12.25 19.99H18.99C20.64 19.99 21.99 18.64 21.99 16.99V7C21.99 5.35 20.64 4 18.99 4H19ZM8.5 16C8.5 15.7 8.63 15.42 8.86 15.23L9.71 14.52L8.14 13.22C7.76 12.91 7.21 12.92 6.84 13.24L4 15.76V7C4 6.45 4.45 6 5 6H8.24L10.55 4H5C3.35 4 2 5.35 2 7V17C2 18.65 3.35 20 5 20H9.14L10.94 18.5L8.86 16.77C8.63 16.58 8.5 16.3 8.5 16Z" fill="#141414"/>
</svg>
