<svg width="24" height="24" viewBox="0 0 24 24" fill="none" xmlns="http://www.w3.org/2000/svg">
<path d="M20.49 3.51C20.09 3.11 19.45 3.11 19.05 3.51L3.50996 19.04C3.10996 19.44 3.10996 20.08 3.50996 20.48C3.90996 20.88 4.54996 20.88 4.94996 20.48L5.23996 20.19C5.69996 21.25 6.75996 22 7.98996 22H15.99C17.64 22 18.99 20.65 18.99 19V7C18.99 6.83 18.97 6.66 18.94 6.49L20.48 4.95C20.88 4.55 20.88 3.91 20.48 3.51H20.49ZM17 19C17 19.55 16.55 20 16 20H7.99996C7.44996 20 6.99996 19.55 6.99996 19V18.44L7.99996 17.44V18.5C7.99996 18.78 8.21996 19 8.49996 19H15.5C15.78 19 16 18.78 16 18.5V9.44L17 8.44V19ZM6.99996 7C6.99996 6.45 7.44996 6 7.99996 6H8.99996C9.54996 6 9.99996 5.55 9.99996 5V4H14V5C14 5.21 14.08 5.4 14.2 5.56L15.98 3.78C15.87 2.78 15.03 2 14 2H9.99996C8.89996 2 7.99996 2.9 7.99996 4C6.34996 4 4.99996 5.35 4.99996 7V14.76L6.99996 12.76V7ZM7.99996 8.5V11.76L11.76 8H8.49996C8.21996 8 7.99996 8.22 7.99996 8.5Z" fill="#141414"/>
</svg>
