<svg width="24" height="24" viewBox="0 0 24 24" fill="none" xmlns="http://www.w3.org/2000/svg">
<path d="M19 5H5C4.20435 5 3.44129 5.31607 2.87868 5.87868C2.31607 6.44129 2 7.20435 2 8V16C2 16.7956 2.31607 17.5587 2.87868 18.1213C3.44129 18.6839 4.20435 19 5 19H19C19.7956 19 20.5587 18.6839 21.1213 18.1213C21.6839 17.5587 22 16.7956 22 16V8C22 7.20435 21.6839 6.44129 21.1213 5.87868C20.5587 5.31607 19.7956 5 19 5ZM8 8C8.29667 8 8.58668 8.08797 8.83335 8.2528C9.08003 8.41762 9.27229 8.65189 9.38582 8.92597C9.49935 9.20006 9.52906 9.50166 9.47118 9.79264C9.4133 10.0836 9.27044 10.3509 9.06066 10.5607C8.85088 10.7704 8.58361 10.9133 8.29264 10.9712C8.00166 11.0291 7.70006 10.9994 7.42597 10.8858C7.15189 10.7723 6.91762 10.58 6.7528 10.3334C6.58797 10.0867 6.5 9.79667 6.5 9.5C6.5 9.10218 6.65804 8.72064 6.93934 8.43934C7.22064 8.15804 7.60218 8 8 8ZM10 16H6C5.73478 16 5.48043 15.8946 5.29289 15.7071C5.10536 15.5196 5 15.2652 5 15C5 14.2044 5.31607 13.4413 5.87868 12.8787C6.44129 12.3161 7.20435 12 8 12C8.79565 12 9.55871 12.3161 10.1213 12.8787C10.6839 13.4413 11 14.2044 11 15C11 15.2652 10.8946 15.5196 10.7071 15.7071C10.5196 15.8946 10.2652 16 10 16ZM15 15C15 15.2652 14.8946 15.5196 14.7071 15.7071C14.5196 15.8946 14.2652 16 14 16C13.7348 16 13.4804 15.8946 13.2929 15.7071C13.1054 15.5196 13 15.2652 13 15V13C13 12.7348 13.1054 12.4804 13.2929 12.2929C13.4804 12.1054 13.7348 12 14 12C14.2652 12 14.5196 12.1054 14.7071 12.2929C14.8946 12.4804 15 12.7348 15 13V15ZM19 15C19 15.2652 18.8946 15.5196 18.7071 15.7071C18.5196 15.8946 18.2652 16 18 16C17.7348 16 17.4804 15.8946 17.2929 15.7071C17.1054 15.5196 17 15.2652 17 15V13C17 12.7348 17.1054 12.4804 17.2929 12.2929C17.4804 12.1054 17.7348 12 18 12C18.2652 12 18.5196 12.1054 18.7071 12.2929C18.8946 12.4804 19 12.7348 19 13V15ZM20 10.18C19.9574 10.413 19.8335 10.6232 19.6504 10.7734C19.4673 10.9236 19.2368 11.0039 19 11H13C12.7641 11.0021 12.535 10.9207 12.3532 10.7702C12.1715 10.6197 12.0488 10.4098 12.007 10.1776C11.9651 9.94538 12.0066 9.70583 12.1243 9.50131C12.242 9.2968 12.4282 9.14048 12.65 9.06L15 8.18C15.6432 7.92996 16.3568 7.92996 17 8.18L19.37 9.06C19.5899 9.14292 19.7735 9.30061 19.8887 9.50541C20.0039 9.71022 20.0433 9.94905 20 10.18Z" fill="#141414"/>
</svg>
