<svg width="24" height="24" viewBox="0 0 24 24" fill="none" xmlns="http://www.w3.org/2000/svg">
<path d="M14.9999 20.0002C14.8683 20.0009 14.7379 19.9757 14.616 19.926C14.4942 19.8762 14.3834 19.8029 14.2899 19.7102L7.28994 12.7102C7.19621 12.6172 7.12182 12.5066 7.07105 12.3848C7.02028 12.2629 6.99414 12.1322 6.99414 12.0002C6.99414 11.8682 7.02028 11.7375 7.07105 11.6156C7.12182 11.4937 7.19621 11.3831 7.28994 11.2902L14.2899 4.29019C14.3832 4.19695 14.4939 4.12299 14.6157 4.07253C14.7375 4.02207 14.8681 3.99609 14.9999 3.99609C15.1318 3.99609 15.2624 4.02207 15.3842 4.07253C15.506 4.12299 15.6167 4.19695 15.7099 4.29019C15.8032 4.38342 15.8771 4.49411 15.9276 4.61594C15.9781 4.73776 16.004 4.86833 16.004 5.00019C16.004 5.13204 15.9781 5.26261 15.9276 5.38443C15.8771 5.50626 15.8032 5.61695 15.7099 5.71019L9.40994 12.0002L15.7099 18.2902C15.8037 18.3831 15.8781 18.4937 15.9288 18.6156C15.9796 18.7375 16.0057 18.8682 16.0057 19.0002C16.0057 19.1322 15.9796 19.2629 15.9288 19.3848C15.8781 19.5066 15.8037 19.6172 15.7099 19.7102C15.6165 19.8029 15.5057 19.8762 15.3838 19.926C15.262 19.9757 15.1315 20.0009 14.9999 20.0002Z" fill="#141414"/>
</svg>
