<svg width="24" height="24" viewBox="0 0 24 24" fill="none" xmlns="http://www.w3.org/2000/svg">
<path d="M10 17C10.0014 15.962 10.2337 14.9372 10.68 14H5V6.5C5 6.36739 5.05268 6.24021 5.14645 6.14645C5.24021 6.05268 5.36739 6 5.5 6H18.5C18.6326 6 18.7598 6.05268 18.8536 6.14645C18.9473 6.24021 19 6.36739 19 6.5V10.29C19.7151 10.5161 20.3901 10.8536 21 11.29V6C21 5.46957 20.7893 4.96086 20.4142 4.58579C20.0391 4.21071 19.5304 4 19 4H5C4.46957 4 3.96086 4.21071 3.58579 4.58579C3.21071 4.96086 3 5.46957 3 6V16C3 16.5304 3.21071 17.0391 3.58579 17.4142C3.96086 17.7893 4.46957 18 5 18H10.08C10.0281 17.6692 10.0014 17.3349 10 17ZM17 12C16.0111 12 15.0444 12.2932 14.2221 12.8427C13.3999 13.3921 12.759 14.173 12.3806 15.0866C12.0022 16.0002 11.9031 17.0055 12.0961 17.9755C12.289 18.9454 12.7652 19.8363 13.4645 20.5355C14.1637 21.2348 15.0546 21.711 16.0245 21.9039C16.9945 22.0969 17.9998 21.9978 18.9134 21.6194C19.827 21.241 20.6079 20.6001 21.1573 19.7779C21.7068 18.9556 22 17.9889 22 17C22 15.6739 21.4732 14.4021 20.5355 13.4645C19.5979 12.5268 18.3261 12 17 12ZM18.5 18C18.5 18.2652 18.3946 18.5196 18.2071 18.7071C18.0196 18.8946 17.7652 19 17.5 19H15.5C15.2348 19 14.9804 18.8946 14.7929 18.7071C14.6054 18.5196 14.5 18.2652 14.5 18C14.5 17.7348 14.6054 17.4804 14.7929 17.2929C14.9804 17.1054 15.2348 17 15.5 17H16.5V15.5C16.5 15.2348 16.6054 14.9804 16.7929 14.7929C16.9804 14.6054 17.2348 14.5 17.5 14.5C17.7652 14.5 18.0196 14.6054 18.2071 14.7929C18.3946 14.9804 18.5 15.2348 18.5 15.5V18ZM9 20C8.73478 20 8.48043 20.1054 8.29289 20.2929C8.10536 20.4804 8 20.7348 8 21C8 21.2652 8.10536 21.5196 8.29289 21.7071C8.48043 21.8946 8.73478 22 9 22H12.11C11.5191 21.4229 11.0349 20.7458 10.68 20H9Z" fill="#141414"/>
</svg>
