<svg width="24" height="24" viewBox="0 0 24 24" fill="none" xmlns="http://www.w3.org/2000/svg">
<path d="M11.9999 8C6.7099 8 4.2799 10.28 3.3999 11.4C3.13555 11.7437 2.99464 12.1664 2.9999 12.6V14C2.9999 14.5304 3.21061 15.0391 3.58568 15.4142C3.96076 15.7893 4.46946 16 4.9999 16H5.9999C6.53033 16 7.03904 15.7893 7.41411 15.4142C7.78918 15.0391 7.9999 14.5304 7.9999 14V13C7.9999 12.7348 8.10525 12.4804 8.29279 12.2929C8.48033 12.1054 8.73468 12 8.9999 12H14.9999C15.2651 12 15.5195 12.1054 15.707 12.2929C15.8945 12.4804 15.9999 12.7348 15.9999 13V14C15.9999 14.5304 16.2106 15.0391 16.5857 15.4142C16.9608 15.7893 17.4695 16 17.9999 16H18.9999C19.5303 16 20.039 15.7893 20.4141 15.4142C20.7892 15.0391 20.9999 14.5304 20.9999 14V12.6C21.0051 12.1664 20.8642 11.7437 20.5999 11.4C19.7199 10.28 17.2899 8 11.9999 8Z" fill="#141414"/>
</svg>
