<svg width="24" height="24" viewBox="0 0 24 24" fill="none" xmlns="http://www.w3.org/2000/svg">
<path d="M20.7099 3.28994C20.617 3.19621 20.5064 3.12182 20.3845 3.07105C20.2627 3.02028 20.132 2.99414 19.9999 2.99414C19.8679 2.99414 19.7372 3.02028 19.6154 3.07105C19.4935 3.12182 19.3829 3.19621 19.2899 3.28994L3.28994 19.2899C3.19621 19.3829 3.12182 19.4935 3.07105 19.6154C3.02028 19.7372 2.99414 19.8679 2.99414 19.9999C2.99414 20.132 3.02028 20.2627 3.07105 20.3845C3.12182 20.5064 3.19621 20.617 3.28994 20.7099C3.3829 20.8037 3.4935 20.8781 3.61536 20.9288C3.73722 20.9796 3.86793 21.0057 3.99994 21.0057C4.13195 21.0057 4.26266 20.9796 4.38452 20.9288C4.50638 20.8781 4.61698 20.8037 4.70994 20.7099L8.99994 16.4199C12.4399 19.4899 15.4399 19.5699 16.7599 19.4199C17.1909 19.3654 17.59 19.1642 17.8899 18.8499L18.8899 17.8499C19.0759 17.6642 19.2234 17.4436 19.3241 17.2008C19.4247 16.958 19.4765 16.6978 19.4765 16.4349C19.4765 16.1721 19.4247 15.9119 19.3241 15.6691C19.2234 15.4263 19.0759 15.2057 18.8899 15.0199L18.1799 14.3099C17.8052 13.9374 17.2983 13.7284 16.7699 13.7284C16.2416 13.7284 15.7347 13.9374 15.3599 14.3099L14.6499 15.0199C14.557 15.1137 14.4464 15.1881 14.3245 15.2388C14.2027 15.2896 14.0719 15.3157 13.9399 15.3157C13.8079 15.3157 13.6772 15.2896 13.5554 15.2388C13.4335 15.1881 13.3229 15.1137 13.2299 15.0199L11.7999 13.6099L20.7099 4.70994C20.8037 4.61698 20.8781 4.50638 20.9288 4.38452C20.9796 4.26266 21.0057 4.13195 21.0057 3.99994C21.0057 3.86793 20.9796 3.73722 20.9288 3.61536C20.8781 3.4935 20.8037 3.3829 20.7099 3.28994ZM8.99994 10.7899C8.90621 10.697 8.83182 10.5864 8.78105 10.4645C8.73028 10.3427 8.70414 10.212 8.70414 10.0799C8.70414 9.94793 8.73028 9.81722 8.78105 9.69536C8.83182 9.5735 8.90621 9.4629 8.99994 9.36994L9.70994 8.65994C10.0824 8.28521 10.2915 7.77831 10.2915 7.24994C10.2915 6.72157 10.0824 6.21466 9.70994 5.83994L8.99994 5.12994C8.81419 4.94399 8.59362 4.79647 8.35082 4.69582C8.10802 4.59517 7.84777 4.54337 7.58494 4.54337C7.32211 4.54337 7.06185 4.59517 6.81906 4.69582C6.57626 4.79647 6.35569 4.94399 6.16994 5.12994L5.16994 6.12994C4.85572 6.42991 4.65443 6.82896 4.59994 7.25994C4.41951 9.4573 5.04119 11.6456 6.34994 13.4199L8.99994 10.7899Z" fill="#141414"/>
</svg>
