<svg width="24" height="24" viewBox="0 0 24 24" fill="none" xmlns="http://www.w3.org/2000/svg">
<path d="M14.5 13.9999C14.6326 13.9999 14.7598 13.9472 14.8536 13.8534C14.9473 13.7597 15 13.6325 15 13.4999C15 13.1021 14.842 12.7205 14.5607 12.4392C14.2794 12.1579 13.8978 11.9999 13.5 11.9999H13.37C14.87 10.2999 15 9.28988 15 8.99988C14.9995 8.78729 14.9313 8.58038 14.8052 8.40921C14.6791 8.23803 14.5018 8.11149 14.2989 8.04795C14.096 7.98441 13.8781 7.98718 13.677 8.05586C13.4758 8.12454 13.3017 8.25555 13.18 8.42988C12.7615 8.93043 12.244 9.339 11.66 9.62988C11.19 9.24472 10.6072 9.02351 10 8.99988H8C7.39283 9.02351 6.80997 9.24472 6.34 9.62988C5.76201 9.33841 5.24851 8.93373 4.83 8.43988C4.71036 8.26185 4.53665 8.127 4.3345 8.05525C4.13236 7.9835 3.9125 7.97865 3.70738 8.04141C3.50227 8.10418 3.32278 8.23124 3.1954 8.40382C3.06803 8.57641 2.99952 8.78538 3 8.99988C3 9.28988 3.13 10.2999 4.63 11.9999H4.5C4.10218 11.9999 3.72065 12.1579 3.43934 12.4392C3.15804 12.7205 3 13.1021 3 13.4999C3 13.6325 3.05268 13.7597 3.14645 13.8534C3.24022 13.9472 3.36739 13.9999 3.5 13.9999H4.5C4.69206 14.0002 4.88231 13.9628 5.06 13.8899C5.14037 14.4308 5.27093 14.9631 5.45 15.4799C5.84842 16.6094 6.03487 17.8027 6 18.9999C6 19.5303 6.21072 20.039 6.58579 20.4141C6.96086 20.7892 7.46957 20.9999 8 20.9999H10C10.5304 20.9999 11.0391 20.7892 11.4142 20.4141C11.7893 20.039 12 19.5303 12 18.9999C11.9651 17.8027 12.1516 16.6094 12.55 15.4799C12.7291 14.9631 12.8596 14.4308 12.94 13.8899C13.1177 13.9628 13.3079 14.0002 13.5 13.9999H14.5ZM19.42 8.10988C20.3629 6.93849 20.9155 5.50126 21 3.99988C21 3.99988 21 3.93988 21 3.89988C21.0037 3.8366 21.0037 3.77316 21 3.70988C20.981 3.64828 20.9576 3.58812 20.93 3.52988L20.83 3.37988C20.7859 3.33075 20.7391 3.28402 20.69 3.23988C20.69 3.23988 20.69 3.18988 20.62 3.16988H20.53L20.36 3.09988H20.14L20 2.99988H19.92C19.847 2.98962 19.773 2.98962 19.7 2.99988L19.55 3.04988L19.37 3.17988L19.25 3.28988L19.17 3.36988C18.6851 4.075 18.1251 4.72547 17.5 5.30988C16.5255 4.47209 15.2851 4.00781 14 3.99988H10C9.39023 4.01719 8.79302 4.17729 8.25636 4.46733C7.7197 4.75737 7.25856 5.16925 6.91 5.66988C6.12148 5.0214 5.42209 4.27158 4.83 3.43988L4.76 3.37988C4.7186 3.32522 4.67169 3.27495 4.62 3.22988L4.47 3.12988L4.29 3.05988L4.1 2.99988H4H3.91H3.72C3.65276 3.01611 3.5886 3.04312 3.53 3.07988H3.44L3.38 3.13988C3.32 3.13988 3.28 3.23988 3.23 3.28988L3.13 3.43988C3.10237 3.49812 3.07898 3.55828 3.06 3.61988C3.03178 3.71126 3.0117 3.80496 3 3.89988V3.99988C3.02905 4.70553 3.17434 5.40154 3.43 6.05988C3.61815 6.02509 3.80873 6.00503 4 5.99988C4.47336 5.99866 4.94029 6.10946 5.36263 6.32323C5.78497 6.53701 6.15072 6.84769 6.43 7.22988V7.28988C6.93133 7.0985 7.46338 7.00022 8 6.99988H10C10.52 7.00406 11.035 7.10231 11.52 7.28988L11.58 7.22988C11.8583 6.84906 12.2224 6.53921 12.6429 6.3255C13.0634 6.11179 13.5283 6.00023 14 5.99988C14.309 5.99583 14.6165 6.04314 14.91 6.13988C15.5168 6.33305 16.0464 6.71432 16.4222 7.22849C16.7979 7.74266 17.0003 8.36305 17 8.99988C16.9669 9.84163 16.719 10.6609 16.28 11.3799C16.747 11.9879 17.0001 12.7332 17 13.4999C17 14.1629 16.7366 14.7988 16.2678 15.2677C15.7989 15.7365 15.163 15.9999 14.5 15.9999V16.0999C14.1518 17.0263 13.9821 18.0103 14 18.9999C13.997 19.7048 13.8036 20.3959 13.44 20.9999H15C15.7957 20.9999 16.5587 20.6838 17.1213 20.1212C17.6839 19.5586 18 18.7955 18 17.9999C17.9767 16.1474 18.168 14.2984 18.57 12.4899C18.67 11.9899 18.77 11.4899 18.85 10.9999H20.25C20.4481 10.9973 20.6374 10.9174 20.7775 10.7773C20.9176 10.6373 20.9974 10.448 21 10.2499C20.9968 9.77193 20.8421 9.30732 20.5582 8.9228C20.2743 8.53829 19.8758 8.25368 19.42 8.10988Z" fill="#141414"/>
</svg>
