<svg width="24" height="24" viewBox="0 0 24 24" fill="none" xmlns="http://www.w3.org/2000/svg">
<path d="M12.71 14.29C12.617 14.1963 12.5064 14.1219 12.3846 14.0711C12.2627 14.0203 12.132 13.9942 12 13.9942C11.868 13.9942 11.7373 14.0203 11.6154 14.0711C11.4936 14.1219 11.383 14.1963 11.29 14.29L7.29 18.29C7.15124 18.4306 7.05725 18.6092 7.01987 18.8032C6.9825 18.9972 7.00342 19.1979 7.08 19.38C7.15502 19.5626 7.28242 19.7189 7.44614 19.8293C7.60986 19.9396 7.80257 19.999 8 20H16C16.1974 19.999 16.3901 19.9396 16.5539 19.8293C16.7176 19.7189 16.845 19.5626 16.92 19.38C16.9966 19.1979 17.0175 18.9972 16.9801 18.8032C16.9428 18.6092 16.8488 18.4306 16.71 18.29L12.71 14.29ZM19 5H5C4.20435 5 3.44129 5.31607 2.87868 5.87868C2.31607 6.44129 2 7.20435 2 8V15C2 15.7956 2.31607 16.5587 2.87868 17.1213C3.44129 17.6839 4.20435 18 5 18C5.26522 18 5.51957 17.8946 5.70711 17.7071C5.89464 17.5196 6 17.2652 6 17C6 16.7348 5.89464 16.4804 5.70711 16.2929C5.51957 16.1054 5.26522 16 5 16C4.73478 16 4.48043 15.8946 4.29289 15.7071C4.10536 15.5196 4 15.2652 4 15V8C4 7.73478 4.10536 7.48043 4.29289 7.29289C4.48043 7.10536 4.73478 7 5 7H19C19.2652 7 19.5196 7.10536 19.7071 7.29289C19.8946 7.48043 20 7.73478 20 8V15C20 15.2652 19.8946 15.5196 19.7071 15.7071C19.5196 15.8946 19.2652 16 19 16C18.7348 16 18.4804 16.1054 18.2929 16.2929C18.1054 16.4804 18 16.7348 18 17C18 17.2652 18.1054 17.5196 18.2929 17.7071C18.4804 17.8946 18.7348 18 19 18C19.7956 18 20.5587 17.6839 21.1213 17.1213C21.6839 16.5587 22 15.7956 22 15V8C22 7.20435 21.6839 6.44129 21.1213 5.87868C20.5587 5.31607 19.7956 5 19 5Z" fill="#141414"/>
</svg>
