<svg width="24" height="24" viewBox="0 0 24 24" fill="none" xmlns="http://www.w3.org/2000/svg">
<path d="M10.54 9.43997C10.3899 9.27787 10.2054 9.15145 10 9.06997C9.76534 8.99079 9.51552 8.96683 9.27005 8.99997C9.04005 9.03194 8.82081 9.11758 8.63005 9.24997C8.43933 9.3821 8.28187 9.55668 8.17005 9.75997L3.17005 18.76C3.04308 18.9894 2.97763 19.2478 2.98005 19.51C2.98011 19.7713 3.05281 20.0275 3.19005 20.25C3.3205 20.4769 3.51074 20.6637 3.74005 20.79C3.96468 20.9209 4.22003 20.9899 4.48005 20.99C4.73606 20.9936 4.98829 20.928 5.21005 20.8L14.21 15.8C14.4133 15.6881 14.5879 15.5307 14.72 15.34C14.8524 15.1492 14.9381 14.93 14.97 14.7C15.0003 14.4683 14.9799 14.2329 14.91 14.01C14.834 13.7903 14.7072 13.5916 14.54 13.43L10.54 9.43997ZM15.48 9.49997C15.6101 9.50156 15.7391 9.47778 15.86 9.42997C15.9836 9.3794 16.0958 9.3046 16.19 9.20997L18.19 7.20997C18.3783 7.02166 18.4841 6.76627 18.4841 6.49997C18.4841 6.23367 18.3783 5.97827 18.19 5.78997C18.0017 5.60166 17.7463 5.49588 17.48 5.49588C17.2137 5.49588 16.9583 5.60166 16.77 5.78997L14.77 7.78997C14.6754 7.88418 14.6006 7.99638 14.55 8.11997C14.4971 8.23967 14.4698 8.3691 14.4698 8.49997C14.4698 8.63084 14.4971 8.76027 14.55 8.87997C14.6003 9.00373 14.6749 9.11617 14.7694 9.21063C14.8638 9.3051 14.9763 9.37968 15.1 9.42997C15.221 9.47778 15.35 9.50156 15.48 9.49997ZM11.9 8.85997C12.0544 8.95156 12.2306 8.99991 12.41 8.99997C12.5845 8.99583 12.7557 8.95133 12.91 8.86997C13.0591 8.78304 13.1831 8.65902 13.27 8.50997C13.7284 7.75662 13.9708 6.89178 13.9708 6.00997C13.9708 5.12816 13.7284 4.26331 13.27 3.50997C13.2003 3.39626 13.1085 3.29766 13 3.21997C12.8975 3.13789 12.7779 3.07981 12.65 3.04997C12.5218 3.0201 12.3883 3.0201 12.26 3.04997C12.1293 3.06845 12.0036 3.11264 11.89 3.17997C11.663 3.31355 11.4979 3.53131 11.4304 3.78596C11.363 4.0406 11.3988 4.31156 11.53 4.53997C11.8112 4.98977 11.9603 5.50953 11.9603 6.03997C11.9603 6.57041 11.8112 7.09017 11.53 7.53997C11.402 7.76745 11.3679 8.03601 11.4352 8.28827C11.5024 8.54052 11.6657 8.75647 11.89 8.88997L11.9 8.85997ZM20 4.99997C20.1995 5.00041 20.3945 4.94121 20.56 4.82997C20.7242 4.72136 20.8501 4.56396 20.92 4.37997C21.004 4.19895 21.0318 3.99695 21 3.79997C20.9618 3.59867 20.8626 3.41399 20.716 3.27091C20.5693 3.12782 20.3822 3.03324 20.18 2.99997C19.985 2.96191 19.7831 2.98279 19.6 3.05997C19.4161 3.12989 19.2587 3.25581 19.15 3.41997C19.019 3.61251 18.9593 3.84473 18.9812 4.07659C19.0032 4.30844 19.1053 4.52537 19.27 4.68997C19.4635 4.88476 19.7255 4.99604 20 4.99997ZM20.51 10.71C19.7567 10.2516 18.8919 10.0092 18.01 10.0092C17.1282 10.0092 16.2634 10.2516 15.51 10.71C15.3821 10.7665 15.2691 10.8521 15.18 10.96C15.0802 11.0599 15.0079 11.1839 14.97 11.32C14.9399 11.455 14.9399 11.595 14.97 11.73C14.9827 11.8683 15.0272 12.0017 15.1 12.12C15.1684 12.2434 15.2642 12.3495 15.38 12.43C15.4934 12.5127 15.6229 12.5706 15.76 12.6C15.895 12.6301 16.035 12.6301 16.17 12.6C16.3072 12.5706 16.4367 12.5127 16.55 12.43C16.9998 12.1488 17.5196 11.9997 18.05 11.9997C18.5805 11.9997 19.1002 12.1488 19.55 12.43C19.7044 12.5216 19.8806 12.5699 20.06 12.57C20.281 12.5693 20.4955 12.4954 20.67 12.36C20.8453 12.2298 20.9692 12.0422 21.02 11.83C21.0773 11.6197 21.0643 11.3966 20.9831 11.1944C20.9019 10.9923 20.7568 10.8221 20.57 10.71H20.51ZM18 14C17.8006 13.9995 17.6056 14.0587 17.44 14.17C17.2759 14.2786 17.15 14.436 17.08 14.62C17.0029 14.803 16.982 15.005 17.02 15.2C17.0599 15.3935 17.1563 15.5708 17.2969 15.7097C17.4375 15.8485 17.616 15.9425 17.81 15.98C18.0016 16.0205 18.2011 15.9995 18.38 15.92C18.564 15.85 18.7214 15.7241 18.83 15.56C18.9318 15.4095 18.9906 15.2341 19.0002 15.0527C19.0097 14.8712 18.9697 14.6906 18.8844 14.5303C18.799 14.3699 18.6716 14.2358 18.5158 14.1423C18.36 14.0489 18.1817 13.9997 18 14ZM9.00005 6.99997C9.19949 7.00041 9.39451 6.94121 9.56005 6.82997C9.7242 6.72136 9.85012 6.56396 9.92005 6.37997C10.004 6.19895 10.0318 5.99695 10 5.79997C9.96179 5.59867 9.86262 5.41399 9.71596 5.27091C9.56929 5.12782 9.38222 5.03324 9.18005 4.99997C8.98504 4.96191 8.78313 4.98279 8.60005 5.05997C8.41605 5.12989 8.25865 5.25581 8.15004 5.41997C8.01904 5.61251 7.95934 5.84473 7.98124 6.07659C8.00315 6.30844 8.10529 6.52537 8.27005 6.68997C8.4635 6.88476 8.72554 6.99604 9.00005 6.99997Z" fill="#141414"/>
</svg>
