<svg width="24" height="24" viewBox="0 0 24 24" fill="none" xmlns="http://www.w3.org/2000/svg">
<path d="M18.1599 14.32C17.7852 13.9475 17.2783 13.7384 16.7499 13.7384C16.2216 13.7384 15.7147 13.9475 15.3399 14.32L14.6299 15.03C14.537 15.1237 14.4264 15.1981 14.3045 15.2489C14.1827 15.2997 14.0519 15.3258 13.9199 15.3258C13.7879 15.3258 13.6572 15.2997 13.5354 15.2489C13.4135 15.1981 13.3029 15.1237 13.2099 15.03L8.99994 10.79C8.90621 10.697 8.83181 10.5864 8.78104 10.4646C8.73028 10.3427 8.70414 10.212 8.70414 10.08C8.70414 9.94799 8.73028 9.81728 8.78104 9.69542C8.83181 9.57356 8.90621 9.46296 8.99994 9.37L9.70994 8.66C10.0824 8.28527 10.2915 7.77837 10.2915 7.25C10.2915 6.72163 10.0824 6.21473 9.70994 5.84L8.99994 5.13C8.81419 4.94405 8.59361 4.79653 8.35082 4.69588C8.10802 4.59523 7.84777 4.54343 7.58494 4.54343C7.32211 4.54343 7.06185 4.59523 6.81906 4.69588C6.57626 4.79653 6.35568 4.94405 6.16994 5.13L5.16994 6.13C4.85572 6.42997 4.65443 6.82902 4.59994 7.26C4.41994 8.66 4.51994 12 8.26994 15.73C12.0199 19.46 15.3399 19.58 16.7499 19.41C17.1809 19.3555 17.58 19.1542 17.8799 18.84L18.8799 17.84C19.0659 17.6543 19.2134 17.4337 19.3141 17.1909C19.4147 16.9481 19.4665 16.6878 19.4665 16.425C19.4665 16.1622 19.4147 15.9019 19.3141 15.6591C19.2134 15.4163 19.0659 15.1957 18.8799 15.01L18.1599 14.32ZM13.4999 10.5C13.7652 10.5 14.0195 10.6054 14.207 10.7929C14.3946 10.9804 14.4999 11.2348 14.4999 11.5C14.4999 11.6326 14.5526 11.7598 14.6464 11.8536C14.7402 11.9473 14.8673 12 14.9999 12C15.1325 12 15.2597 11.9473 15.3535 11.8536C15.4473 11.7598 15.4999 11.6326 15.4999 11.5C15.4999 11.2348 15.6053 10.9804 15.7928 10.7929C15.9804 10.6054 16.2347 10.5 16.4999 10.5C16.6325 10.5 16.7597 10.4473 16.8535 10.3536C16.9473 10.2598 16.9999 10.1326 16.9999 10C16.9999 9.86739 16.9473 9.74021 16.8535 9.64645C16.7597 9.55268 16.6325 9.5 16.4999 9.5C16.2347 9.5 15.9804 9.39464 15.7928 9.20711C15.6053 9.01957 15.4999 8.76522 15.4999 8.5C15.4999 8.36739 15.4473 8.24021 15.3535 8.14645C15.2597 8.05268 15.1325 8 14.9999 8C14.8673 8 14.7402 8.05268 14.6464 8.14645C14.5526 8.24021 14.4999 8.36739 14.4999 8.5C14.4999 8.76522 14.3946 9.01957 14.207 9.20711C14.0195 9.39464 13.7652 9.5 13.4999 9.5C13.3673 9.5 13.2402 9.55268 13.1464 9.64645C13.0526 9.74021 12.9999 9.86739 12.9999 10C12.9999 10.1326 13.0526 10.2598 13.1464 10.3536C13.2402 10.4473 13.3673 10.5 13.4999 10.5ZM20.4999 4.5C19.9695 4.5 19.4608 4.28929 19.0857 3.91421C18.7107 3.53914 18.4999 3.03043 18.4999 2.5C18.4999 2.36739 18.4473 2.24021 18.3535 2.14645C18.2597 2.05268 18.1325 2 17.9999 2C17.8673 2 17.7402 2.05268 17.6464 2.14645C17.5526 2.24021 17.4999 2.36739 17.4999 2.5C17.4999 3.03043 17.2892 3.53914 16.9141 3.91421C16.5391 4.28929 16.0304 4.5 15.4999 4.5C15.3673 4.5 15.2402 4.55268 15.1464 4.64645C15.0526 4.74021 14.9999 4.86739 14.9999 5C14.9999 5.13261 15.0526 5.25979 15.1464 5.35355C15.2402 5.44732 15.3673 5.5 15.4999 5.5C16.0304 5.5 16.5391 5.71071 16.9141 6.08579C17.2892 6.46086 17.4999 6.96957 17.4999 7.5C17.4999 7.63261 17.5526 7.75979 17.6464 7.85355C17.7402 7.94732 17.8673 8 17.9999 8C18.1325 8 18.2597 7.94732 18.3535 7.85355C18.4473 7.75979 18.4999 7.63261 18.4999 7.5C18.4999 6.96957 18.7107 6.46086 19.0857 6.08579C19.4608 5.71071 19.9695 5.5 20.4999 5.5C20.6325 5.5 20.7597 5.44732 20.8535 5.35355C20.9473 5.25979 20.9999 5.13261 20.9999 5C20.9999 4.86739 20.9473 4.74021 20.8535 4.64645C20.7597 4.55268 20.6325 4.5 20.4999 4.5Z" fill="#141414"/>
</svg>
