<svg width="24" height="24" viewBox="0 0 24 24" fill="none" xmlns="http://www.w3.org/2000/svg">
<path d="M20.0002 11.5398C20.0101 11.36 20.0101 11.1797 20.0002 10.9998C20.0016 9.67781 19.5664 8.3923 18.7622 7.34304C17.9579 6.29379 16.8296 5.53954 15.5526 5.19748C14.2756 4.85542 12.9213 4.94471 11.7003 5.45146C10.4792 5.95822 9.45972 6.85408 8.80017 7.99985C8.11461 8.0364 7.45 8.2488 6.87029 8.61659C6.29059 8.98438 5.8153 9.49518 5.49017 10.0998C4.3938 10.2745 3.40132 10.85 2.70514 11.7147C2.00896 12.5795 1.65867 13.672 1.72219 14.7804C1.7857 15.8887 2.25849 16.9341 3.0489 17.7137C3.83931 18.4933 4.89103 18.9516 6.00017 18.9998H18.0002C18.8794 18.9983 19.7336 18.7071 20.4307 18.1713C21.1278 17.6355 21.629 16.8849 21.8567 16.0357C22.0843 15.1864 22.0259 14.2858 21.6903 13.4732C21.3547 12.6605 20.7607 11.981 20.0002 11.5398Z" fill="#141414"/>
</svg>
