<svg width="24" height="24" viewBox="0 0 24 24" fill="none" xmlns="http://www.w3.org/2000/svg">
<path d="M14.44 8.32C14.6636 8.45474 14.931 8.49669 15.1851 8.4369C15.4393 8.3771 15.6599 8.22031 15.8 8L16.3 7.14C16.3723 7.02618 16.4209 6.8989 16.4428 6.76582C16.4647 6.63274 16.4594 6.49661 16.4274 6.36561C16.3953 6.23462 16.337 6.11146 16.2561 6.00357C16.1752 5.89567 16.0733 5.80525 15.9565 5.73776C15.8398 5.67026 15.7105 5.62708 15.5767 5.61082C15.4428 5.59456 15.307 5.60555 15.1775 5.64312C15.0479 5.6807 14.9273 5.74409 14.8229 5.82948C14.7185 5.91487 14.6325 6.02049 14.57 6.14L14.07 7C13.9519 7.22575 13.9244 7.48806 13.9932 7.73338C14.062 7.97869 14.2218 8.18851 14.44 8.32ZM18.94 11.59H17.94C17.6748 11.59 17.4204 11.6954 17.2329 11.8829C17.0453 12.0704 16.94 12.3248 16.94 12.59C16.94 12.8552 17.0453 13.1096 17.2329 13.2971C17.4204 13.4846 17.6748 13.59 17.94 13.59H18.94C19.2052 13.59 19.4596 13.4846 19.6471 13.2971C19.8346 13.1096 19.94 12.8552 19.94 12.59C19.94 12.3248 19.8346 12.0704 19.6471 11.8829C19.4596 11.6954 19.2052 11.59 18.94 11.59ZM12 7C12.2652 7 12.5196 6.89464 12.7071 6.70711C12.8946 6.51957 13 6.26522 13 6V4C13 3.73478 12.8946 3.48043 12.7071 3.29289C12.5196 3.10536 12.2652 3 12 3C11.7348 3 11.4804 3.10536 11.2929 3.29289C11.1053 3.48043 11 3.73478 11 4V6C11 6.26522 11.1053 6.51957 11.2929 6.70711C11.4804 6.89464 11.7348 7 12 7ZM16.17 9.33C16.1359 9.45703 16.1271 9.58955 16.1443 9.71996C16.1614 9.85038 16.2042 9.97612 16.27 10.09C16.4021 10.3159 16.6175 10.4811 16.87 10.55C16.997 10.5841 17.1295 10.5929 17.26 10.5757C17.3904 10.5586 17.5161 10.5158 17.63 10.45L19.37 9.45C19.5959 9.3179 19.7611 9.10249 19.83 8.85C19.8647 8.72261 19.8739 8.58961 19.8569 8.45866C19.84 8.32772 19.7973 8.20142 19.7313 8.08707C19.6653 7.97272 19.5773 7.87257 19.4723 7.7924C19.3674 7.71224 19.2477 7.65364 19.12 7.62C18.8665 7.55382 18.5972 7.58972 18.37 7.72L16.63 8.72C16.402 8.85444 16.2365 9.0738 16.17 9.33ZM12 18C11.7348 18 11.4804 18.1054 11.2929 18.2929C11.1053 18.4804 11 18.7348 11 19V21C11 21.2652 11.1053 21.5196 11.2929 21.7071C11.4804 21.8946 11.7348 22 12 22C12.2652 22 12.5196 21.8946 12.7071 21.7071C12.8946 21.5196 13 21.2652 13 21V19C13 18.7348 12.8946 18.4804 12.7071 18.2929C12.5196 18.1054 12.2652 18 12 18ZM19.37 15.72L17.63 14.72C17.4004 14.5896 17.1285 14.5554 16.8737 14.6247C16.6189 14.694 16.4019 14.8613 16.27 15.09C16.2042 15.2039 16.1614 15.3296 16.1443 15.46C16.1271 15.5905 16.1359 15.723 16.17 15.85C16.2389 16.1025 16.404 16.3179 16.63 16.45L18.37 17.45C18.5984 17.5812 18.8694 17.617 19.124 17.5496C19.3786 17.4822 19.5964 17.317 19.73 17.09C19.7965 16.9765 19.84 16.8509 19.8579 16.7205C19.8758 16.5902 19.8678 16.4575 19.8344 16.3303C19.8009 16.203 19.7427 16.0836 19.663 15.9789C19.5833 15.8741 19.4837 15.7862 19.37 15.72ZM15.8 17.35C15.6648 17.1247 15.4463 16.9616 15.1918 16.8961C14.9373 16.8306 14.6672 16.8679 14.44 17C14.3254 17.0653 14.2249 17.1527 14.1442 17.257C14.0635 17.3614 14.0043 17.4807 13.9699 17.608C13.9355 17.7353 13.9266 17.8682 13.9438 17.999C13.961 18.1298 14.0039 18.2559 14.07 18.37L14.57 19.23C14.6325 19.3495 14.7185 19.4551 14.8229 19.5405C14.9273 19.6259 15.0479 19.6893 15.1775 19.7269C15.307 19.7645 15.4428 19.7754 15.5767 19.7592C15.7105 19.7429 15.8398 19.6997 15.9565 19.6322C16.0733 19.5648 16.1752 19.4743 16.2561 19.3664C16.337 19.2585 16.3953 19.1354 16.4274 19.0044C16.4594 18.8734 16.4647 18.7373 16.4428 18.6042C16.4209 18.4711 16.3723 18.3438 16.3 18.23L15.8 17.35ZM15.94 12.59C15.9341 11.7185 15.6437 10.8727 15.113 10.1814C14.5823 9.49004 13.8404 8.99094 13 8.76V16.41C13.8387 16.1795 14.5795 15.6819 15.11 14.9926C15.6406 14.3033 15.9319 13.4598 15.94 12.59ZM11 10.27L8.52999 8.84L7.89999 6.51C7.83192 6.25434 7.66531 6.03607 7.43665 5.903C7.20798 5.76992 6.9359 5.73289 6.67999 5.8C6.43426 5.87447 6.22659 6.04061 6.1 6.264C5.97341 6.4874 5.9376 6.75093 5.99999 7L6.10999 7.4L4.73999 6.6C4.50925 6.46739 4.23528 6.43188 3.97836 6.50126C3.72144 6.57065 3.5026 6.73926 3.36999 6.97C3.23738 7.20074 3.20186 7.4747 3.27125 7.73163C3.34064 7.98855 3.50925 8.20739 3.73999 8.34L5.10999 9.13L4.70999 9.24C4.44477 9.27448 4.20412 9.4129 4.04096 9.62482C3.8778 9.83673 3.80551 10.1048 3.83999 10.37C3.87447 10.6352 4.01289 10.8759 4.22481 11.039C4.43672 11.2022 4.70477 11.2745 4.96999 11.24H5.22999L7.55999 10.61L9.99999 12L7.52999 13.43L5.19999 12.8C5.07168 12.7607 4.93676 12.7476 4.80327 12.7615C4.66979 12.7754 4.54047 12.816 4.42302 12.8809C4.30557 12.9459 4.20239 13.0338 4.11964 13.1395C4.03688 13.2451 3.97624 13.3663 3.94132 13.4959C3.90641 13.6255 3.89794 13.7608 3.91641 13.8937C3.93488 14.0267 3.97993 14.1545 4.04885 14.2697C4.11778 14.3848 4.20918 14.4849 4.31761 14.564C4.42604 14.6431 4.54928 14.6995 4.67999 14.73L5.07999 14.84L3.70999 15.63C3.47925 15.7626 3.31064 15.9814 3.24125 16.2384C3.17186 16.4953 3.20738 16.7693 3.33999 17C3.4726 17.2307 3.69144 17.3993 3.94836 17.4687C4.20528 17.5381 4.47925 17.5026 4.70999 17.37L6.07999 16.57L5.99999 17C5.96526 17.1274 5.95611 17.2604 5.97305 17.3913C5.99 17.5223 6.03271 17.6486 6.09872 17.7629C6.16472 17.8773 6.25273 17.9774 6.35764 18.0576C6.46256 18.1378 6.58231 18.1964 6.70999 18.23C6.79638 18.2398 6.8836 18.2398 6.96999 18.23C7.19575 18.2377 7.41748 18.1688 7.59907 18.0344C7.78065 17.9001 7.91139 17.7082 7.96999 17.49L8.59999 15.16L11 13.73V10.27Z" fill="#141414"/>
</svg>
