<svg width="24" height="24" viewBox="0 0 24 24" fill="none" xmlns="http://www.w3.org/2000/svg">
<path d="M9.00019 19.0002C8.86858 19.0009 8.73812 18.9757 8.61628 18.926C8.49444 18.8762 8.38363 18.8029 8.29018 18.7102L3.29019 13.7102C3.10188 13.5219 2.99609 13.2665 2.99609 13.0002C2.99609 12.7339 3.10188 12.4785 3.29019 12.2902C3.47849 12.1019 3.73388 11.9961 4.00019 11.9961C4.26649 11.9961 4.52188 12.1019 4.71019 12.2902L9.00019 16.5902L19.2902 6.29019C19.4785 6.10188 19.7339 5.99609 20.0002 5.99609C20.2665 5.99609 20.5219 6.10188 20.7102 6.29019C20.8985 6.47849 21.0043 6.73388 21.0043 7.00019C21.0043 7.26649 20.8985 7.52188 20.7102 7.71019L9.71019 18.7102C9.61674 18.8029 9.50593 18.8762 9.38409 18.926C9.26225 18.9757 9.13179 19.0009 9.00019 19.0002Z" fill="#141414"/>
</svg>
