<svg width="24" height="24" viewBox="0 0 24 24" fill="none" xmlns="http://www.w3.org/2000/svg">
<path d="M7 15H5C4.73478 15 4.48043 15.1054 4.29289 15.2929C4.10536 15.4804 4 15.7348 4 16V21C4 21.2652 4.10536 21.5196 4.29289 21.7071C4.48043 21.8946 4.73478 22 5 22H7C7.26522 22 7.51957 21.8946 7.70711 21.7071C7.89464 21.5196 8 21.2652 8 21V16C8 15.7348 7.89464 15.4804 7.70711 15.2929C7.51957 15.1054 7.26522 15 7 15ZM9 6H7L8.8 3.6C8.95913 3.38783 9.02746 3.12113 8.98995 2.85858C8.95244 2.59603 8.81217 2.35913 8.6 2.2C8.38783 2.04087 8.12113 1.97255 7.85858 2.01005C7.59603 2.04756 7.35913 2.18783 7.2 2.4L4.2 6.4C4.09817 6.54395 4.03621 6.71227 4.0204 6.88789C4.00459 7.06351 4.03551 7.24018 4.11 7.4C4.18597 7.57427 4.31005 7.72327 4.46768 7.82953C4.62531 7.9358 4.80996 7.99493 5 8H7L5.2 10.4C5.12121 10.5051 5.06388 10.6246 5.03129 10.7518C4.99869 10.879 4.99148 11.0114 5.01005 11.1414C5.02862 11.2714 5.07262 11.3965 5.13953 11.5095C5.20643 11.6225 5.29494 11.7212 5.4 11.8C5.5731 11.9298 5.78363 12 6 12C6.15525 12 6.30836 11.9639 6.44721 11.8944C6.58607 11.825 6.70685 11.7242 6.8 11.6L9.8 7.6C9.90183 7.45605 9.9638 7.28774 9.9796 7.11212C9.99541 6.9365 9.9645 6.75982 9.89 6.6C9.81403 6.42574 9.68995 6.27674 9.53232 6.17048C9.37469 6.06421 9.19004 6.00507 9 6ZM13 11H11C10.7348 11 10.4804 11.1054 10.2929 11.2929C10.1054 11.4804 10 11.7348 10 12V21C10 21.2652 10.1054 21.5196 10.2929 21.7071C10.4804 21.8946 10.7348 22 11 22H13C13.2652 22 13.5196 21.8946 13.7071 21.7071C13.8946 21.5196 14 21.2652 14 21V12C14 11.7348 13.8946 11.4804 13.7071 11.2929C13.5196 11.1054 13.2652 11 13 11ZM19 7H17C16.7348 7 16.4804 7.10536 16.2929 7.2929C16.1054 7.48043 16 7.73479 16 8V21C16 21.2652 16.1054 21.5196 16.2929 21.7071C16.4804 21.8946 16.7348 22 17 22H19C19.2652 22 19.5196 21.8946 19.7071 21.7071C19.8946 21.5196 20 21.2652 20 21V8C20 7.73479 19.8946 7.48043 19.7071 7.2929C19.5196 7.10536 19.2652 7 19 7Z" fill="#141414"/>
</svg>
