<svg width="24" height="24" viewBox="0 0 24 24" fill="none" xmlns="http://www.w3.org/2000/svg">
<path d="M19.6901 5.72002C19.8589 5.53236 19.9504 5.28784 19.9464 5.03549C19.9424 4.78314 19.8432 4.54164 19.6686 4.35943C19.4939 4.17721 19.2569 4.06776 19.0049 4.05304C18.753 4.03831 18.5048 4.11939 18.3101 4.28002L14.8201 7.61002L16.0001 3.25002C16.0664 2.9848 16.0246 2.70411 15.884 2.46969C15.7433 2.23527 15.5153 2.06632 15.2501 2.00002C14.9849 1.93371 14.7042 1.97548 14.4698 2.11613C14.2354 2.25679 14.0664 2.4848 14.0001 2.75002L12.0001 10.26L9.81011 12.41C9.65703 11.8819 9.37922 11.3983 9.00011 11C8.33145 10.3477 7.43428 9.98252 6.50011 9.98252C5.56594 9.98252 4.66877 10.3477 4.00011 11C3.50028 11.4896 3.15865 12.1178 3.01932 12.8034C2.87999 13.489 2.94935 14.2007 3.21845 14.8465C3.48755 15.4924 3.94404 16.0427 4.52899 16.4266C5.11395 16.8105 5.80053 17.0102 6.50011 17C6.96213 17.0061 7.4208 16.9209 7.84981 16.7493C8.27882 16.5777 8.66973 16.323 9.00011 16L11.1301 14L10.1301 17.68C9.89469 18.5737 10.0223 19.5242 10.485 20.3241C10.9477 21.1241 11.7081 21.7085 12.6001 21.95C12.9004 22.0292 13.2096 22.0695 13.5201 22.07C14.2882 22.0679 15.0343 21.8132 15.6433 21.3451C16.2523 20.8771 16.6904 20.2217 16.8901 19.48C17.1288 18.5837 17.003 17.6293 16.5402 16.8254C16.0773 16.0216 15.3151 15.4336 14.4201 15.19C13.907 15.0706 13.3732 15.0706 12.8601 15.19L13.8601 11.38L19.6901 5.72002ZM5.44011 14.56C5.15921 14.2788 5.00143 13.8975 5.00143 13.5C5.00143 13.1025 5.15921 12.7213 5.44011 12.44C5.57743 12.2926 5.74303 12.1744 5.92703 12.0925C6.11103 12.0105 6.30966 11.9664 6.51106 11.9628C6.71247 11.9593 6.91253 11.9963 7.0993 12.0718C7.28608 12.1472 7.45575 12.2595 7.59819 12.4019C7.74062 12.5444 7.85291 12.714 7.92835 12.9008C8.0038 13.0876 8.04084 13.2877 8.03729 13.4891C8.03374 13.6905 7.98965 13.8891 7.90767 14.0731C7.82569 14.2571 7.70748 14.4227 7.56011 14.56C7.27514 14.8338 6.89529 14.9867 6.50011 14.9867C6.10493 14.9867 5.72508 14.8338 5.44011 14.56ZM13.8901 17.09C14.2487 17.2249 14.5426 17.491 14.7123 17.8345C14.882 18.178 14.9148 18.5731 14.8041 18.9399C14.6933 19.3066 14.4473 19.6176 14.1159 19.8097C13.7844 20.0019 13.3923 20.0608 13.019 19.9747C12.6457 19.8886 12.3191 19.6637 12.1054 19.3458C11.8917 19.0278 11.8068 18.6405 11.8679 18.2623C11.9291 17.8841 12.1317 17.5433 12.4348 17.3089C12.7379 17.0745 13.1187 16.9641 13.5001 17C13.6331 17.0149 13.764 17.0451 13.8901 17.09Z" fill="#141414"/>
</svg>
