<svg width="24" height="24" viewBox="0 0 24 24" fill="none" xmlns="http://www.w3.org/2000/svg">
<path d="M13.9999 7C14.2966 7 14.5866 6.91203 14.8333 6.7472C15.08 6.58238 15.2722 6.34811 15.3858 6.07403C15.4993 5.79994 15.529 5.49834 15.4711 5.20737C15.4132 4.91639 15.2704 4.64912 15.0606 4.43934C14.8508 4.22956 14.5836 4.0867 14.2926 4.02882C14.0016 3.97094 13.7 4.00065 13.4259 4.11418C13.1518 4.22771 12.9176 4.41997 12.7527 4.66665C12.5879 4.91332 12.4999 5.20333 12.4999 5.5C12.4999 5.89783 12.658 6.27936 12.9393 6.56066C13.2206 6.84197 13.6021 7 13.9999 7ZM17.9999 6C18.2966 6 18.5866 5.91203 18.8333 5.7472C19.08 5.58238 19.2722 5.34811 19.3858 5.07403C19.4993 4.79994 19.529 4.49834 19.4711 4.20737C19.4132 3.91639 19.2704 3.64912 19.0606 3.43934C18.8508 3.22956 18.5835 3.0867 18.2926 3.02882C18.0016 2.97094 17.7 3.00065 17.4259 3.11418C17.1518 3.22771 16.9176 3.41997 16.7527 3.66665C16.5879 3.91332 16.4999 4.20333 16.4999 4.5C16.4999 4.89783 16.658 5.27936 16.9393 5.56066C17.2206 5.84197 17.6021 6 17.9999 6ZM17.9999 7C17.4944 7.0013 16.9974 7.13032 16.5551 7.37508C16.1128 7.61983 15.7395 7.97238 15.4699 8.4C15.0146 8.14402 14.5002 8.01138 13.9778 8.01523C13.4554 8.01907 12.9431 8.15926 12.4915 8.42192C12.04 8.68458 11.6648 9.0606 11.4032 9.51277C11.1416 9.96495 11.0026 10.4776 10.9999 11C10.9999 11.2652 11.1053 11.5196 11.2928 11.7071C11.4804 11.8946 11.7347 12 11.9999 12H15.9999C16.2652 12 16.5195 11.8946 16.7071 11.7071C16.8946 11.5196 16.9999 11.2652 16.9999 11H19.9999C20.2652 11 20.5195 10.8946 20.7071 10.7071C20.8946 10.5196 20.9999 10.2652 20.9999 10C20.9999 9.20435 20.6839 8.44129 20.1213 7.87868C19.5587 7.31607 18.7956 7 17.9999 7ZM15.6099 15.86C15.4242 15.674 15.2036 15.5265 14.9608 15.4259C14.718 15.3252 14.4578 15.2734 14.1949 15.2734C13.9321 15.2734 13.6719 15.3252 13.4291 15.4259C13.1863 15.5265 12.9657 15.674 12.7799 15.86L12.0799 16.57C11.987 16.6637 11.8764 16.7381 11.7545 16.7889C11.6327 16.8397 11.502 16.8658 11.3699 16.8658C11.2379 16.8658 11.1072 16.8397 10.9854 16.7889C10.8635 16.7381 10.7529 16.6637 10.6599 16.57L6.42994 12.33C6.33622 12.237 6.26182 12.1264 6.21105 12.0046C6.16028 11.8827 6.13415 11.752 6.13415 11.62C6.13415 11.488 6.16028 11.3573 6.21105 11.2354C6.26182 11.1136 6.33622 11.003 6.42994 10.91L7.13994 10.21C7.3259 10.0243 7.47341 9.80368 7.57406 9.56088C7.67471 9.31809 7.72652 9.05783 7.72652 8.795C7.72652 8.53217 7.67471 8.27192 7.57406 8.02912C7.47341 7.78632 7.3259 7.56575 7.13994 7.38L6.42994 6.67C6.2442 6.48405 6.02362 6.33653 5.78082 6.23588C5.53803 6.13523 5.27777 6.08343 5.01494 6.08343C4.75211 6.08343 4.49186 6.13523 4.24906 6.23588C4.00627 6.33653 3.78569 6.48405 3.59994 6.67L2.59994 7.67C2.2963 7.97642 2.09986 8.3728 2.03994 8.8C1.87994 10.2 1.99994 13.54 5.71994 17.28C9.43994 21.02 12.7999 21.12 14.2099 21C14.6371 20.9401 15.0335 20.7436 15.3399 20.44L16.3399 19.44C16.5259 19.2543 16.6734 19.0337 16.7741 18.7909C16.8747 18.5481 16.9265 18.2878 16.9265 18.025C16.9265 17.7622 16.8747 17.5019 16.7741 17.2591C16.6734 17.0163 16.5259 16.7957 16.3399 16.61L15.6099 15.86Z" fill="#141414"/>
</svg>
