<svg width="24" height="24" viewBox="0 0 24 24" fill="none" xmlns="http://www.w3.org/2000/svg">
<path d="M15.5599 15.86C15.3742 15.674 15.1536 15.5265 14.9108 15.4259C14.668 15.3252 14.4078 15.2734 14.1449 15.2734C13.8821 15.2734 13.6219 15.3252 13.3791 15.4259C13.1363 15.5265 12.9157 15.674 12.7299 15.86L12.0299 16.57C11.937 16.6637 11.8264 16.7381 11.7045 16.7889C11.5827 16.8397 11.452 16.8658 11.3199 16.8658C11.1879 16.8658 11.0572 16.8397 10.9354 16.7889C10.8135 16.7381 10.7029 16.6637 10.6099 16.57L6.36995 12.33C6.27622 12.237 6.20183 12.1264 6.15106 12.0046C6.10029 11.8827 6.07415 11.752 6.07415 11.62C6.07415 11.488 6.10029 11.3573 6.15106 11.2354C6.20183 11.1136 6.27622 11.003 6.36995 10.91L7.07995 10.21C7.2659 10.0243 7.41342 9.80368 7.51407 9.56088C7.61472 9.31808 7.66652 9.05783 7.66652 8.795C7.66652 8.53217 7.61472 8.27192 7.51407 8.02912C7.41342 7.78632 7.2659 7.56575 7.07995 7.38L6.36995 6.67C6.1842 6.48405 5.96362 6.33653 5.72083 6.23588C5.47803 6.13523 5.21778 6.08343 4.95495 6.08343C4.69212 6.08343 4.43186 6.13523 4.18907 6.23588C3.94627 6.33653 3.72569 6.48405 3.53995 6.67L2.53995 7.67C2.24552 7.97648 2.05638 8.36878 1.99995 8.79C1.82995 10.2 1.92995 13.54 5.66995 17.28C9.40995 21.02 12.7499 21.12 14.1599 20.95C14.5872 20.8901 14.9835 20.6936 15.2899 20.39L16.2899 19.39C16.4759 19.2043 16.6234 18.9837 16.7241 18.7409C16.8247 18.4981 16.8765 18.2378 16.8765 17.975C16.8765 17.7122 16.8247 17.4519 16.7241 17.2091C16.6234 16.9663 16.4759 16.7457 16.2899 16.56L15.5599 15.86ZM18.2499 7.5H17.7499V10.5H18.2499C18.6478 10.5 19.0293 10.342 19.3106 10.0607C19.5919 9.77936 19.7499 9.39782 19.7499 9C19.7499 8.60218 19.5919 8.22064 19.3106 7.93934C19.0293 7.65804 18.6478 7.5 18.2499 7.5ZM19.9999 5H11.9999C11.4695 5 10.9608 5.21071 10.5857 5.58579C10.2107 5.96086 9.99995 6.46957 9.99995 7V11C9.99995 11.5304 10.2107 12.0391 10.5857 12.4142C10.9608 12.7893 11.4695 13 11.9999 13H19.9999C20.5304 13 21.0391 12.7893 21.4142 12.4142C21.7892 12.0391 21.9999 11.5304 21.9999 11V7C21.9999 6.46957 21.7892 5.96086 21.4142 5.58579C21.0391 5.21071 20.5304 5 19.9999 5ZM15.7499 11C15.7499 11.1326 15.6973 11.2598 15.6035 11.3536C15.5097 11.4473 15.3826 11.5 15.2499 11.5C15.1173 11.5 14.9902 11.4473 14.8964 11.3536C14.8026 11.2598 14.7499 11.1326 14.7499 11V9.5H12.7499V11C12.7499 11.1326 12.6973 11.2598 12.6035 11.3536C12.5097 11.4473 12.3826 11.5 12.2499 11.5C12.1173 11.5 11.9902 11.4473 11.8964 11.3536C11.8026 11.2598 11.7499 11.1326 11.7499 11V7C11.7499 6.86739 11.8026 6.74021 11.8964 6.64645C11.9902 6.55268 12.1173 6.5 12.2499 6.5C12.3826 6.5 12.5097 6.55268 12.6035 6.64645C12.6973 6.74021 12.7499 6.86739 12.7499 7V8.5H14.7499V7C14.7499 6.86739 14.8026 6.74021 14.8964 6.64645C14.9902 6.55268 15.1173 6.5 15.2499 6.5C15.3826 6.5 15.5097 6.55268 15.6035 6.64645C15.6973 6.74021 15.7499 6.86739 15.7499 7V11ZM18.2499 11.5H17.2499C17.1173 11.5 16.9902 11.4473 16.8964 11.3536C16.8026 11.2598 16.7499 11.1326 16.7499 11V7C16.7499 6.86739 16.8026 6.74021 16.8964 6.64645C16.9902 6.55268 17.1173 6.5 17.2499 6.5H18.2499C18.913 6.5 19.5489 6.76339 20.0177 7.23223C20.4866 7.70107 20.7499 8.33696 20.7499 9C20.7499 9.66304 20.4866 10.2989 20.0177 10.7678C19.5489 11.2366 18.913 11.5 18.2499 11.5Z" fill="#141414"/>
</svg>
