<svg width="24" height="24" viewBox="0 0 24 24" fill="none" xmlns="http://www.w3.org/2000/svg">
<path d="M17 2H7C6.20435 2 5.44129 2.31607 4.87868 2.87868C4.31607 3.44129 4 4.20435 4 5V19C4 19.7956 4.31607 20.5587 4.87868 21.1213C5.44129 21.6839 6.20435 22 7 22H17C17.7956 22 18.5587 21.6839 19.1213 21.1213C19.6839 20.5587 20 19.7956 20 19V5C20 4.20435 19.6839 3.44129 19.1213 2.87868C18.5587 2.31607 17.7956 2 17 2ZM8 19C7.80222 19 7.60888 18.9414 7.44443 18.8315C7.27998 18.7216 7.15181 18.5654 7.07612 18.3827C7.00043 18.2 6.98063 17.9989 7.01921 17.8049C7.0578 17.6109 7.15304 17.4327 7.29289 17.2929C7.43275 17.153 7.61093 17.0578 7.80491 17.0192C7.99889 16.9806 8.19996 17.0004 8.38268 17.0761C8.56541 17.1518 8.72159 17.28 8.83147 17.4444C8.94135 17.6089 9 17.8022 9 18C9 18.2652 8.89464 18.5196 8.70711 18.7071C8.51957 18.8946 8.26522 19 8 19ZM8 15.5C7.80222 15.5 7.60888 15.4414 7.44443 15.3315C7.27998 15.2216 7.15181 15.0654 7.07612 14.8827C7.00043 14.7 6.98063 14.4989 7.01921 14.3049C7.0578 14.1109 7.15304 13.9327 7.29289 13.7929C7.43275 13.653 7.61093 13.5578 7.80491 13.5192C7.99889 13.4806 8.19996 13.5004 8.38268 13.5761C8.56541 13.6518 8.72159 13.78 8.83147 13.9444C8.94135 14.1089 9 14.3022 9 14.5C9 14.7652 8.89464 15.0196 8.70711 15.2071C8.51957 15.3946 8.26522 15.5 8 15.5ZM8 12C7.80222 12 7.60888 11.9414 7.44443 11.8315C7.27998 11.7216 7.15181 11.5654 7.07612 11.3827C7.00043 11.2 6.98063 10.9989 7.01921 10.8049C7.0578 10.6109 7.15304 10.4327 7.29289 10.2929C7.43275 10.153 7.61093 10.0578 7.80491 10.0192C7.99889 9.98063 8.19996 10.0004 8.38268 10.0761C8.56541 10.1518 8.72159 10.28 8.83147 10.4444C8.94135 10.6089 9 10.8022 9 11C9 11.2652 8.89464 11.5196 8.70711 11.7071C8.51957 11.8946 8.26522 12 8 12ZM12 19C11.8022 19 11.6089 18.9414 11.4444 18.8315C11.28 18.7216 11.1518 18.5654 11.0761 18.3827C11.0004 18.2 10.9806 17.9989 11.0192 17.8049C11.0578 17.6109 11.153 17.4327 11.2929 17.2929C11.4327 17.153 11.6109 17.0578 11.8049 17.0192C11.9989 16.9806 12.2 17.0004 12.3827 17.0761C12.5654 17.1518 12.7216 17.28 12.8315 17.4444C12.9414 17.6089 13 17.8022 13 18C13 18.2652 12.8946 18.5196 12.7071 18.7071C12.5196 18.8946 12.2652 19 12 19ZM12 15.5C11.8022 15.5 11.6089 15.4414 11.4444 15.3315C11.28 15.2216 11.1518 15.0654 11.0761 14.8827C11.0004 14.7 10.9806 14.4989 11.0192 14.3049C11.0578 14.1109 11.153 13.9327 11.2929 13.7929C11.4327 13.653 11.6109 13.5578 11.8049 13.5192C11.9989 13.4806 12.2 13.5004 12.3827 13.5761C12.5654 13.6518 12.7216 13.78 12.8315 13.9444C12.9414 14.1089 13 14.3022 13 14.5C13 14.7652 12.8946 15.0196 12.7071 15.2071C12.5196 15.3946 12.2652 15.5 12 15.5ZM12 12C11.8022 12 11.6089 11.9414 11.4444 11.8315C11.28 11.7216 11.1518 11.5654 11.0761 11.3827C11.0004 11.2 10.9806 10.9989 11.0192 10.8049C11.0578 10.6109 11.153 10.4327 11.2929 10.2929C11.4327 10.153 11.6109 10.0578 11.8049 10.0192C11.9989 9.98063 12.2 10.0004 12.3827 10.0761C12.5654 10.1518 12.7216 10.28 12.8315 10.4444C12.9414 10.6089 13 10.8022 13 11C13 11.2652 12.8946 11.5196 12.7071 11.7071C12.5196 11.8946 12.2652 12 12 12ZM16 19C15.8022 19 15.6089 18.9414 15.4444 18.8315C15.28 18.7216 15.1518 18.5654 15.0761 18.3827C15.0004 18.2 14.9806 17.9989 15.0192 17.8049C15.0578 17.6109 15.153 17.4327 15.2929 17.2929C15.4327 17.153 15.6109 17.0578 15.8049 17.0192C15.9989 16.9806 16.2 17.0004 16.3827 17.0761C16.5654 17.1518 16.7216 17.28 16.8315 17.4444C16.9414 17.6089 17 17.8022 17 18C17 18.2652 16.8946 18.5196 16.7071 18.7071C16.5196 18.8946 16.2652 19 16 19ZM16 15.5C15.8022 15.5 15.6089 15.4414 15.4444 15.3315C15.28 15.2216 15.1518 15.0654 15.0761 14.8827C15.0004 14.7 14.9806 14.4989 15.0192 14.3049C15.0578 14.1109 15.153 13.9327 15.2929 13.7929C15.4327 13.653 15.6109 13.5578 15.8049 13.5192C15.9989 13.4806 16.2 13.5004 16.3827 13.5761C16.5654 13.6518 16.7216 13.78 16.8315 13.9444C16.9414 14.1089 17 14.3022 17 14.5C17 14.7652 16.8946 15.0196 16.7071 15.2071C16.5196 15.3946 16.2652 15.5 16 15.5ZM16 12C15.8022 12 15.6089 11.9414 15.4444 11.8315C15.28 11.7216 15.1518 11.5654 15.0761 11.3827C15.0004 11.2 14.9806 10.9989 15.0192 10.8049C15.0578 10.6109 15.153 10.4327 15.2929 10.2929C15.4327 10.153 15.6109 10.0578 15.8049 10.0192C15.9989 9.98063 16.2 10.0004 16.3827 10.0761C16.5654 10.1518 16.7216 10.28 16.8315 10.4444C16.9414 10.6089 17 10.8022 17 11C17 11.2652 16.8946 11.5196 16.7071 11.7071C16.5196 11.8946 16.2652 12 16 12ZM17 7C17 7.26522 16.8946 7.51957 16.7071 7.70711C16.5196 7.89464 16.2652 8 16 8H8C7.73478 8 7.48043 7.89464 7.29289 7.70711C7.10536 7.51957 7 7.26522 7 7V6C7 5.73478 7.10536 5.48043 7.29289 5.29289C7.48043 5.10536 7.73478 5 8 5H16C16.2652 5 16.5196 5.10536 16.7071 5.29289C16.8946 5.48043 17 5.73478 17 6V7Z" fill="#141414"/>
</svg>
