<svg width="24" height="24" viewBox="0 0 24 24" fill="none" xmlns="http://www.w3.org/2000/svg">
<path d="M3 6V18C3 18.7956 3.31607 19.5587 3.87868 20.1213C4.44129 20.6839 5.20435 21 6 21H7V3H6C5.20435 3 4.44129 3.31607 3.87868 3.87868C3.31607 4.44129 3 5.20435 3 6ZM18 3H9V21H18C18.7956 21 19.5587 20.6839 20.1213 20.1213C20.6839 19.5587 21 18.7956 21 18V6C21 5.20435 20.6839 4.44129 20.1213 3.87868C19.5587 3.31607 18.7956 3 18 3ZM15 8C15.2967 8 15.5867 8.08797 15.8334 8.2528C16.08 8.41762 16.2723 8.65189 16.3858 8.92597C16.4993 9.20006 16.5291 9.50166 16.4712 9.79264C16.4133 10.0836 16.2704 10.3509 16.0607 10.5607C15.8509 10.7704 15.5836 10.9133 15.2926 10.9712C15.0017 11.0291 14.7001 10.9994 14.426 10.8858C14.1519 10.7723 13.9176 10.58 13.7528 10.3334C13.588 10.0867 13.5 9.79667 13.5 9.5C13.5 9.10218 13.658 8.72064 13.9393 8.43934C14.2206 8.15804 14.6022 8 15 8ZM17 16H13C12.7348 16 12.4804 15.8946 12.2929 15.7071C12.1054 15.5196 12 15.2652 12 15C12 14.2044 12.3161 13.4413 12.8787 12.8787C13.4413 12.3161 14.2044 12 15 12C15.7956 12 16.5587 12.3161 17.1213 12.8787C17.6839 13.4413 18 14.2044 18 15C18 15.2652 17.8946 15.5196 17.7071 15.7071C17.5196 15.8946 17.2652 16 17 16Z" fill="#141414"/>
</svg>
