<svg width="24" height="24" viewBox="0 0 24 24" fill="none" xmlns="http://www.w3.org/2000/svg">
<path d="M20.71 4.70994C20.8983 4.52164 21.0041 4.26624 21.0041 3.99994C21.0041 3.73364 20.8983 3.47825 20.71 3.28994C20.5217 3.10164 20.2663 2.99585 20 2.99585C19.7337 2.99585 19.4783 3.10164 19.29 3.28994L3.29 19.2899C3.19627 19.3829 3.12188 19.4935 3.07111 19.6154C3.02034 19.7372 2.9942 19.8679 2.9942 19.9999C2.9942 20.132 3.02034 20.2627 3.07111 20.3845C3.12188 20.5064 3.19627 20.617 3.29 20.7099C3.38296 20.8037 3.49356 20.8781 3.61542 20.9288C3.73728 20.9796 3.86799 21.0057 4 21.0057C4.13201 21.0057 4.26272 20.9796 4.38458 20.9288C4.50644 20.8781 4.61704 20.8037 4.71 20.7099L7.71 17.7099C8.11308 17.9013 8.55378 18.0004 9 17.9999H15C15.7956 17.9999 16.5587 17.6839 17.1213 17.1213C17.6839 16.5587 18 15.7956 18 14.9999V8.99994C17.9974 8.55296 17.8949 8.11222 17.7 7.70994L20.71 4.70994ZM12 13.9999C11.8278 13.9977 11.6565 13.9742 11.49 13.9299L13.93 11.4899C13.9743 11.6564 13.9978 11.8277 14 11.9999C14 12.5304 13.7893 13.0391 13.4142 13.4142C13.0391 13.7892 12.5304 13.9999 12 13.9999ZM9 5.99994C8.20435 5.99994 7.44129 6.31601 6.87868 6.87862C6.31607 7.44123 6 8.20429 6 8.99994V13.7599L13.76 5.99994H9ZM4 14.9999V8.99994H3C2.73478 8.99994 2.48043 9.1053 2.29289 9.29283C2.10536 9.48037 2 9.73472 2 9.99994V13.9999C2 14.2652 2.10536 14.5195 2.29289 14.707C2.48043 14.8946 2.73478 14.9999 3 14.9999H4ZM21 8.99994H20V14.9999H21C21.2652 14.9999 21.5196 14.8946 21.7071 14.707C21.8946 14.5195 22 14.2652 22 13.9999V9.99994C22 9.73472 21.8946 9.48037 21.7071 9.29283C21.5196 9.1053 21.2652 8.99994 21 8.99994Z" fill="#141414"/>
</svg>
