<svg width="24" height="24" viewBox="0 0 24 24" fill="none" xmlns="http://www.w3.org/2000/svg">
<path d="M7.00022 14.9998H17.0002C17.8826 15.002 18.7411 14.7124 19.4418 14.1761C20.1425 13.6397 20.6462 12.8867 20.8744 12.0343C21.1026 11.1819 21.0426 10.2779 20.7036 9.4632C20.3646 8.64848 19.7657 7.96871 19.0002 7.52976C18.8846 6.53145 18.4708 5.59114 17.8129 4.83149C17.1549 4.07183 16.2833 3.52807 15.3117 3.27114C14.3401 3.01421 13.3136 3.05603 12.3662 3.39114C11.4187 3.72625 10.5942 4.3391 10.0002 5.14976C9.67778 5.04354 9.33964 4.99282 9.00022 4.99976C8.3651 5.0016 7.74695 5.20495 7.23479 5.58053C6.72262 5.95612 6.34287 6.48456 6.15022 7.08976C5.1845 7.29815 4.33006 7.85656 3.75152 8.6574C3.17298 9.45824 2.91128 10.4448 3.01684 11.4271C3.12239 12.4094 3.58774 13.3179 4.32322 13.9776C5.0587 14.6372 6.01227 15.0013 7.00022 14.9998ZM8.00022 15.9998C7.735 15.9998 7.48065 16.1051 7.29311 16.2927C7.10558 16.4802 7.00022 16.7345 7.00022 16.9998V18.4998H5.61022C5.4077 18.2733 5.14119 18.1137 4.84598 18.0421C4.55076 17.9704 4.24074 17.9901 3.95695 18.0985C3.67316 18.2069 3.42898 18.3989 3.2567 18.6491C3.08443 18.8993 2.99219 19.196 2.99219 19.4998C2.99219 19.8036 3.08443 20.1002 3.2567 20.3504C3.42898 20.6006 3.67316 20.7926 3.95695 20.901C4.24074 21.0094 4.55076 21.0291 4.84598 20.9574C5.14119 20.8858 5.4077 20.7262 5.61022 20.4998H7.00022C7.53065 20.4998 8.03936 20.289 8.41443 19.914C8.78951 19.5389 9.00022 19.0302 9.00022 18.4998V16.9998C9.00022 16.7345 8.89486 16.4802 8.70733 16.2927C8.51979 16.1051 8.26544 15.9998 8.00022 15.9998ZM19.5002 17.9998C19.2905 18.0009 19.0834 18.046 18.8922 18.1321C18.701 18.2182 18.53 18.3435 18.3902 18.4998H17.0002V16.9998C17.0002 16.7345 16.8949 16.4802 16.7073 16.2927C16.5198 16.1051 16.2654 15.9998 16.0002 15.9998C15.735 15.9998 15.4807 16.1051 15.2931 16.2927C15.1056 16.4802 15.0002 16.7345 15.0002 16.9998V18.4998C15.0002 19.0302 15.2109 19.5389 15.586 19.914C15.9611 20.289 16.4698 20.4998 17.0002 20.4998H18.3902C18.5573 20.6865 18.7684 20.8284 19.0044 20.9126C19.2404 20.9967 19.4937 21.0205 19.7412 20.9815C19.9887 20.9426 20.2225 20.8423 20.4213 20.6898C20.6201 20.5373 20.7775 20.3374 20.8792 20.1084C20.9809 19.8794 21.0235 19.6286 21.0034 19.3789C20.9832 19.1292 20.9008 18.8885 20.7636 18.6788C20.6265 18.4691 20.439 18.2971 20.2183 18.1785C19.9977 18.0599 19.7508 17.9984 19.5002 17.9998ZM13.0002 16.9998C13.0002 16.7345 12.8949 16.4802 12.7073 16.2927C12.5198 16.1051 12.2654 15.9998 12.0002 15.9998C11.735 15.9998 11.4807 16.1051 11.2931 16.2927C11.1056 16.4802 11.0002 16.7345 11.0002 16.9998V18.3898C10.7738 18.5923 10.6142 18.8588 10.5425 19.154C10.4709 19.4492 10.4906 19.7592 10.599 20.043C10.7074 20.3268 10.8994 20.571 11.1496 20.7433C11.3998 20.9156 11.6964 21.0078 12.0002 21.0078C12.304 21.0078 12.6006 20.9156 12.8509 20.7433C13.1011 20.571 13.2931 20.3268 13.4015 20.043C13.5099 19.7592 13.5296 19.4492 13.4579 19.154C13.3863 18.8588 13.2267 18.5923 13.0002 18.3898V16.9998Z" fill="#141414"/>
</svg>
