<svg width="24" height="24" viewBox="0 0 24 24" fill="none" xmlns="http://www.w3.org/2000/svg">
<path d="M18 3H6C5.20435 3 4.44129 3.31607 3.87868 3.87868C3.31607 4.44129 3 5.20435 3 6V15C3 15.7956 3.31607 16.5587 3.87868 17.1213C4.44129 17.6839 5.20435 18 6 18V20C5.99962 20.1836 6.0498 20.3638 6.14506 20.5208C6.24031 20.6778 6.37695 20.8055 6.54 20.89C6.68321 20.9605 6.84038 20.9981 7 21C7.20841 20.9987 7.41119 20.9322 7.58 20.81L11.52 18H18C18.7956 18 19.5587 17.6839 20.1213 17.1213C20.6839 16.5587 21 15.7956 21 15V6C21 5.20435 20.6839 4.44129 20.1213 3.87868C19.5587 3.31607 18.7956 3 18 3ZM11 11C11 11.7956 10.6839 12.5587 10.1213 13.1213C9.55871 13.6839 8.79565 14 8 14C7.73478 14 7.48043 13.8946 7.29289 13.7071C7.10536 13.5196 7 13.2652 7 13C7 12.7348 7.10536 12.4804 7.29289 12.2929C7.48043 12.1054 7.73478 12 8 12C8.26522 12 8.51957 11.8946 8.70711 11.7071C8.89464 11.5196 9 11.2652 9 11C8.73736 10.9777 8.48168 10.9038 8.24757 10.7827C8.01347 10.6616 7.80551 10.4955 7.63558 10.294C7.46565 10.0925 7.33707 9.8595 7.25718 9.60831C7.1773 9.35711 7.14768 9.09264 7.17 8.83C7.19232 8.56736 7.26616 8.31168 7.3873 8.07757C7.50843 7.84347 7.67449 7.63551 7.87599 7.46558C8.0775 7.29565 8.3105 7.16707 8.56169 7.08718C8.81289 7.0073 9.07736 6.97768 9.34 7C9.82136 7.09893 10.2521 7.3651 10.556 7.75132C10.8599 8.13754 11.0171 8.61888 11 9.11V11ZM17 11C17 11.7956 16.6839 12.5587 16.1213 13.1213C15.5587 13.6839 14.7956 14 14 14C13.7348 14 13.4804 13.8946 13.2929 13.7071C13.1054 13.5196 13 13.2652 13 13C13 12.7348 13.1054 12.4804 13.2929 12.2929C13.4804 12.1054 13.7348 12 14 12C14.2652 12 14.5196 11.8946 14.7071 11.7071C14.8946 11.5196 15 11.2652 15 11C14.7374 10.9777 14.4817 10.9038 14.2476 10.7827C14.0135 10.6616 13.8055 10.4955 13.6356 10.294C13.4656 10.0925 13.3371 9.8595 13.2572 9.60831C13.1773 9.35711 13.1477 9.09264 13.17 8.83C13.1923 8.56736 13.2662 8.31168 13.3873 8.07757C13.5084 7.84347 13.6745 7.63551 13.876 7.46558C14.0775 7.29565 14.3105 7.16707 14.5617 7.08718C14.8129 7.0073 15.0774 6.97768 15.34 7C15.8214 7.09893 16.2521 7.3651 16.556 7.75132C16.8599 8.13754 17.0171 8.61888 17 9.11V11Z" fill="#141414"/>
</svg>
