<svg width="24" height="24" viewBox="0 0 24 24" fill="none" xmlns="http://www.w3.org/2000/svg">
<path d="M21 10C20.7348 10 20.4804 10.1054 20.2929 10.2929C20.1054 10.4804 20 10.7348 20 11H18.92C18.7532 9.84314 18.2994 8.74645 17.6 7.81L18.36 7.05C18.453 7.14373 18.5636 7.21812 18.6854 7.26889C18.8073 7.31966 18.938 7.3458 19.07 7.3458C19.202 7.3458 19.3327 7.31966 19.4546 7.26889C19.5764 7.21812 19.687 7.14373 19.78 7.05C19.9663 6.86264 20.0708 6.60919 20.0708 6.345C20.0708 6.08081 19.9663 5.82736 19.78 5.64L18.36 4.22C18.1726 4.03375 17.9192 3.92921 17.655 3.92921C17.3908 3.92921 17.1374 4.03375 16.95 4.22C16.8563 4.31296 16.7819 4.42356 16.7311 4.54542C16.6803 4.66728 16.6542 4.79799 16.6542 4.93C16.6542 5.06201 16.6803 5.19272 16.7311 5.31458C16.7819 5.43644 16.8563 5.54704 16.95 5.64L16.19 6.4C15.2535 5.70058 14.1569 5.24678 13 5.08V4C13.2652 4 13.5196 3.89464 13.7071 3.70711C13.8946 3.51957 14 3.26522 14 3C14 2.73478 13.8946 2.48043 13.7071 2.29289C13.5196 2.10536 13.2652 2 13 2H11C10.7348 2 10.4804 2.10536 10.2929 2.29289C10.1054 2.48043 10 2.73478 10 3C10 3.26522 10.1054 3.51957 10.2929 3.70711C10.4804 3.89464 10.7348 4 11 4V5.08C9.84314 5.24678 8.74645 5.70058 7.81 6.4L7.05 5.64C7.14373 5.54704 7.21812 5.43644 7.26889 5.31458C7.31966 5.19272 7.3458 5.06201 7.3458 4.93C7.3458 4.79799 7.31966 4.66728 7.26889 4.54542C7.21812 4.42356 7.14373 4.31296 7.05 4.22C6.86264 4.03375 6.60919 3.92921 6.345 3.92921C6.08081 3.92921 5.82736 4.03375 5.64 4.22L4.22 5.64C4.03375 5.82736 3.92921 6.08081 3.92921 6.345C3.92921 6.60919 4.03375 6.86264 4.22 7.05C4.31296 7.14373 4.42356 7.21812 4.54542 7.26889C4.66728 7.31966 4.79799 7.3458 4.93 7.3458C5.06201 7.3458 5.19272 7.31966 5.31458 7.26889C5.43644 7.21812 5.54704 7.14373 5.64 7.05L6.4 7.81C5.70058 8.74645 5.24678 9.84314 5.08 11H4C4 10.7348 3.89464 10.4804 3.70711 10.2929C3.51957 10.1054 3.26522 10 3 10C2.73478 10 2.48043 10.1054 2.29289 10.2929C2.10536 10.4804 2 10.7348 2 11V13C2 13.2652 2.10536 13.5196 2.29289 13.7071C2.48043 13.8946 2.73478 14 3 14C3.26522 14 3.51957 13.8946 3.70711 13.7071C3.89464 13.5196 4 13.2652 4 13H5.08C5.24678 14.1569 5.70058 15.2535 6.4 16.19L5.64 17C5.54704 16.9063 5.43644 16.8319 5.31458 16.7811C5.19272 16.7303 5.06201 16.7042 4.93 16.7042C4.79799 16.7042 4.66728 16.7303 4.54542 16.7811C4.42356 16.8319 4.31296 16.9063 4.22 17C4.03375 17.1874 3.92921 17.4408 3.92921 17.705C3.92921 17.9692 4.03375 18.2226 4.22 18.41L5.64 19.83C5.82736 20.0163 6.08081 20.1208 6.345 20.1208C6.60919 20.1208 6.86264 20.0163 7.05 19.83C7.14373 19.737 7.21812 19.6264 7.26889 19.5046C7.31966 19.3827 7.3458 19.252 7.3458 19.12C7.3458 18.988 7.31966 18.8573 7.26889 18.7354C7.21812 18.6136 7.14373 18.503 7.05 18.41L7.81 17.65C8.75141 18.3316 9.84772 18.7681 11 18.92V20C10.7348 20 10.4804 20.1054 10.2929 20.2929C10.1054 20.4804 10 20.7348 10 21C10 21.2652 10.1054 21.5196 10.2929 21.7071C10.4804 21.8946 10.7348 22 11 22H13C13.2652 22 13.5196 21.8946 13.7071 21.7071C13.8946 21.5196 14 21.2652 14 21C14 20.7348 13.8946 20.4804 13.7071 20.2929C13.5196 20.1054 13.2652 20 13 20V18.92C14.1569 18.7532 15.2535 18.2994 16.19 17.6L16.95 18.36C16.8563 18.453 16.7819 18.5636 16.7311 18.6854C16.6803 18.8073 16.6542 18.938 16.6542 19.07C16.6542 19.202 16.6803 19.3327 16.7311 19.4546C16.7819 19.5764 16.8563 19.687 16.95 19.78C17.1374 19.9663 17.3908 20.0708 17.655 20.0708C17.9192 20.0708 18.1726 19.9663 18.36 19.78L19.78 18.36C19.9663 18.1726 20.0708 17.9192 20.0708 17.655C20.0708 17.3908 19.9663 17.1374 19.78 16.95C19.687 16.8563 19.5764 16.7819 19.4546 16.7311C19.3327 16.6803 19.202 16.6542 19.07 16.6542C18.938 16.6542 18.8073 16.6803 18.6854 16.7311C18.5636 16.7819 18.453 16.8563 18.36 16.95L17.6 16.19C18.2994 15.2535 18.7532 14.1569 18.92 13H20C20 13.2652 20.1054 13.5196 20.2929 13.7071C20.4804 13.8946 20.7348 14 21 14C21.2652 14 21.5196 13.8946 21.7071 13.7071C21.8946 13.5196 22 13.2652 22 13V11C22 10.7348 21.8946 10.4804 21.7071 10.2929C21.5196 10.1054 21.2652 10 21 10ZM10 12C9.60444 12 9.21776 11.8827 8.88886 11.6629C8.55996 11.4432 8.30362 11.1308 8.15224 10.7654C8.00087 10.3999 7.96126 9.99778 8.03843 9.60982C8.1156 9.22186 8.30608 8.86549 8.58579 8.58579C8.86549 8.30608 9.22186 8.1156 9.60982 8.03843C9.99778 7.96126 10.3999 8.00087 10.7654 8.15224C11.1308 8.30362 11.4432 8.55996 11.6629 8.88886C11.8827 9.21776 12 9.60444 12 10C12 10.5304 11.7893 11.0391 11.4142 11.4142C11.0391 11.7893 10.5304 12 10 12ZM12 17C11.8022 17 11.6089 16.9414 11.4444 16.8315C11.28 16.7216 11.1518 16.5654 11.0761 16.3827C11.0004 16.2 10.9806 15.9989 11.0192 15.8049C11.0578 15.6109 11.153 15.4327 11.2929 15.2929C11.4327 15.153 11.6109 15.0578 11.8049 15.0192C11.9989 14.9806 12.2 15.0004 12.3827 15.0761C12.5654 15.1518 12.7216 15.28 12.8315 15.4444C12.9414 15.6089 13 15.8022 13 16C13 16.2652 12.8946 16.5196 12.7071 16.7071C12.5196 16.8946 12.2652 17 12 17ZM16 12C15.8022 12 15.6089 11.9414 15.4444 11.8315C15.28 11.7216 15.1518 11.5654 15.0761 11.3827C15.0004 11.2 14.9806 10.9989 15.0192 10.8049C15.0578 10.6109 15.153 10.4327 15.2929 10.2929C15.4327 10.153 15.6109 10.0578 15.8049 10.0192C15.9989 9.98063 16.2 10.0004 16.3827 10.0761C16.5654 10.1518 16.7216 10.28 16.8315 10.4444C16.9414 10.6089 17 10.8022 17 11C17 11.2652 16.8946 11.5196 16.7071 11.7071C16.5196 11.8946 16.2652 12 16 12Z" fill="#141414"/>
</svg>
