<svg width="24" height="24" viewBox="0 0 24 24" fill="none" xmlns="http://www.w3.org/2000/svg">
<path d="M19.9199 4.62C19.8185 4.37565 19.6243 4.18147 19.3799 4.08C19.2597 4.02876 19.1306 4.00158 18.9999 4H15.9999C15.7347 4 15.4804 4.10536 15.2928 4.29289C15.1053 4.48043 14.9999 4.73478 14.9999 5C14.9999 5.26522 15.1053 5.51957 15.2928 5.70711C15.4804 5.89464 15.7347 6 15.9999 6H16.5899L14.2899 8.29C14.1962 8.38296 14.1218 8.49356 14.071 8.61542C14.0203 8.73728 13.9941 8.86799 13.9941 9C13.9941 9.13201 14.0203 9.26272 14.071 9.38458C14.1218 9.50644 14.1962 9.61704 14.2899 9.71C14.3829 9.80373 14.4935 9.87812 14.6154 9.92889C14.7372 9.97966 14.8679 10.0058 14.9999 10.0058C15.1319 10.0058 15.2627 9.97966 15.3845 9.92889C15.5064 9.87812 15.617 9.80373 15.7099 9.71L17.9999 7.41V8C17.9999 8.26522 18.1053 8.51957 18.2928 8.70711C18.4804 8.89464 18.7347 9 18.9999 9C19.2652 9 19.5195 8.89464 19.707 8.70711C19.8946 8.51957 19.9999 8.26522 19.9999 8V5C19.9984 4.86932 19.9712 4.74022 19.9199 4.62ZM18.1599 14.32C17.7852 13.9475 17.2783 13.7384 16.7499 13.7384C16.2216 13.7384 15.7147 13.9475 15.3399 14.32L14.6299 15.03C14.537 15.1237 14.4264 15.1981 14.3045 15.2489C14.1827 15.2997 14.0519 15.3258 13.9199 15.3258C13.7879 15.3258 13.6572 15.2997 13.5354 15.2489C13.4135 15.1981 13.3029 15.1237 13.2099 15.03L8.99994 10.79C8.90621 10.697 8.83181 10.5864 8.78104 10.4646C8.73028 10.3427 8.70414 10.212 8.70414 10.08C8.70414 9.94799 8.73028 9.81728 8.78104 9.69542C8.83181 9.57356 8.90621 9.46296 8.99994 9.37L9.70994 8.66C10.0824 8.28527 10.2915 7.77837 10.2915 7.25C10.2915 6.72163 10.0824 6.21473 9.70994 5.84L8.99994 5.13C8.81419 4.94405 8.59361 4.79653 8.35082 4.69588C8.10802 4.59523 7.84777 4.54343 7.58494 4.54343C7.32211 4.54343 7.06185 4.59523 6.81906 4.69588C6.57626 4.79653 6.35568 4.94405 6.16994 5.13L5.16994 6.13C4.85572 6.42997 4.65443 6.82902 4.59994 7.26C4.41994 8.66 4.51994 12 8.26994 15.73C12.0199 19.46 15.3399 19.58 16.7499 19.41C17.1809 19.3555 17.58 19.1542 17.8799 18.84L18.8799 17.84C19.0659 17.6543 19.2134 17.4337 19.3141 17.1909C19.4147 16.9481 19.4665 16.6878 19.4665 16.425C19.4665 16.1622 19.4147 15.9019 19.3141 15.6591C19.2134 15.4163 19.0659 15.1957 18.8799 15.01L18.1599 14.32Z" fill="#141414"/>
</svg>
