<svg width="24" height="24" viewBox="0 0 24 24" fill="none" xmlns="http://www.w3.org/2000/svg">
<path d="M7.99994 6.99989C8.3955 6.99989 8.78218 6.88259 9.11108 6.66283C9.43998 6.44306 9.69632 6.13071 9.8477 5.76525C9.99907 5.3998 10.0387 4.99767 9.96151 4.60971C9.88434 4.22174 9.69386 3.86538 9.41415 3.58567C9.13445 3.30597 8.77808 3.11549 8.39012 3.03832C8.00216 2.96115 7.60002 3.00075 7.23457 3.15213C6.86912 3.3035 6.55676 3.55985 6.337 3.88875C6.11724 4.21764 5.99994 4.60432 5.99994 4.99989C5.99994 5.53032 6.21065 6.03903 6.58573 6.4141C6.9608 6.78917 7.46951 6.99989 7.99994 6.99989ZM21.4099 4.58989L19.4099 2.58989C19.0352 2.21738 18.5283 2.0083 17.9999 2.0083C17.4716 2.0083 16.9647 2.21738 16.5899 2.58989L6.58994 12.5899C6.21435 12.9632 6.00217 13.4703 5.99994 13.9999V15.9999C6.00217 16.1721 6.02568 16.3434 6.06994 16.5099L2.28994 20.2899C2.19621 20.3828 2.12182 20.4935 2.07105 20.6153C2.02028 20.7372 1.99414 20.8679 1.99414 20.9999C1.99414 21.1319 2.02028 21.2626 2.07105 21.3845C2.12182 21.5063 2.19621 21.6169 2.28994 21.7099C2.3829 21.8036 2.4935 21.878 2.61536 21.9288C2.73722 21.9795 2.86793 22.0057 2.99994 22.0057C3.13195 22.0057 3.26266 21.9795 3.38452 21.9288C3.50637 21.878 3.61698 21.8036 3.70994 21.7099L7.48994 17.9299C7.6564 17.9741 7.8277 17.9977 7.99994 17.9999H9.99994C10.5295 17.9977 11.0366 17.7855 11.4099 17.4099L21.4099 7.40989C21.7824 7.03516 21.9915 6.52826 21.9915 5.99989C21.9915 5.47151 21.7824 4.96461 21.4099 4.58989Z" fill="#141414"/>
</svg>
