<svg width="24" height="24" viewBox="0 0 24 24" fill="none" xmlns="http://www.w3.org/2000/svg">
<path d="M20.9999 2.99987C20.9066 2.90309 20.7948 2.82611 20.6711 2.77353C20.5474 2.72095 20.4143 2.69385 20.2799 2.69385C20.1455 2.69385 20.0124 2.72095 19.8887 2.77353C19.765 2.82611 19.6532 2.90309 19.5599 2.99987L2.99989 19.5599C2.90534 19.6544 2.83034 19.7667 2.77917 19.8902C2.728 20.0138 2.70166 20.1462 2.70166 20.2799C2.70166 20.4136 2.728 20.546 2.77917 20.6695C2.83034 20.7931 2.90534 20.9053 2.99989 20.9999C3.09445 21.0944 3.20669 21.1694 3.33023 21.2206C3.45377 21.2718 3.58618 21.2981 3.71989 21.2981C3.85361 21.2981 3.98602 21.2718 4.10956 21.2206C4.23309 21.1694 4.34534 21.0944 4.43989 20.9999L20.9999 4.43987C21.0967 4.34659 21.1737 4.23475 21.2262 4.11104C21.2788 3.98733 21.3059 3.85429 21.3059 3.71987C21.3059 3.58545 21.2788 3.45241 21.2262 3.3287C21.1737 3.205 21.0967 3.09316 20.9999 2.99987ZM5.99989 2.99987C5.20424 2.99987 4.44118 3.31594 3.87857 3.87855C3.31596 4.44116 2.99989 5.20422 2.99989 5.99987V16.7599L16.7599 2.99987H5.99989ZM17.9999 20.9999C18.7955 20.9999 19.5586 20.6838 20.1212 20.1212C20.6838 19.5586 20.9999 18.7955 20.9999 17.9999V7.23987L7.23989 20.9999H17.9999Z" fill="#141414"/>
</svg>
