<svg width="24" height="24" viewBox="0 0 24 24" fill="none" xmlns="http://www.w3.org/2000/svg">
<path d="M21.5 15H20.05L21.43 13.37C21.84 12.88 21.89 12.19 21.54 11.66C21.3 11.29 20.92 11.05 20.48 11.01C20.04 10.97 19.62 11.11 19.31 11.42L19.14 11.59C18.95 11.79 18.95 12.1 19.14 12.3C19.34 12.49 19.65 12.49 19.85 12.3L20.02 12.13C20.12 12.04 20.25 12 20.38 12C20.46 12 20.6 12.05 20.7 12.2C20.8 12.36 20.79 12.58 20.67 12.72L18.59 15.17C18.46 15.32 18.44 15.53 18.52 15.7C18.6 15.87 18.78 15.99 18.97 15.99H21.5C21.78 15.99 22 15.77 22 15.49C22 15.21 21.78 14.99 21.5 14.99V15ZM7.5 9H8.5C9.05 9 9.5 8.55 9.5 8C9.5 7.45 9.05 7 8.5 7H7.5C5.02 7 3 9.02 3 11.5C3 13.98 5.02 16 7.5 16H8.5C9.05 16 9.5 15.55 9.5 15C9.5 14.45 9.05 14 8.5 14H7.5C6.12 14 5 12.88 5 11.5C5 10.12 6.12 9 7.5 9ZM14 7C11.79 7 10 9.02 10 11.5C10 13.98 11.79 16 14 16C16.21 16 18 13.98 18 11.5C18 9.02 16.21 7 14 7ZM14 14C12.9 14 12 12.88 12 11.5C12 10.12 12.9 9 14 9C15.1 9 16 10.12 16 11.5C16 12.88 15.1 14 14 14Z" fill="#141414"/>
</svg>
