<svg width="24" height="24" viewBox="0 0 24 24" fill="none" xmlns="http://www.w3.org/2000/svg">
<path d="M5 17C4.60444 17 4.21776 17.1173 3.88886 17.3371C3.55996 17.5568 3.30362 17.8692 3.15224 18.2346C3.00087 18.6001 2.96126 19.0022 3.03843 19.3902C3.1156 19.7781 3.30608 20.1345 3.58579 20.4142C3.86549 20.6939 4.22186 20.8844 4.60982 20.9616C4.99778 21.0387 5.39992 20.9991 5.76537 20.8478C6.13082 20.6964 6.44318 20.44 6.66294 20.1111C6.8827 19.7822 7 19.3956 7 19C7 18.4696 6.78929 17.9609 6.41421 17.5858C6.03914 17.2107 5.53043 17 5 17ZM6 15V9C6 8.73478 5.89464 8.48043 5.70711 8.29289C5.51957 8.10536 5.26522 8 5 8C4.73478 8 4.48043 8.10536 4.29289 8.29289C4.10536 8.48043 4 8.73478 4 9V15C4 15.2652 4.10536 15.5196 4.29289 15.7071C4.48043 15.8946 4.73478 16 5 16C5.26522 16 5.51957 15.8946 5.70711 15.7071C5.89464 15.5196 6 15.2652 6 15ZM19 7C19.3956 7 19.7822 6.8827 20.1111 6.66294C20.44 6.44318 20.6964 6.13082 20.8478 5.76537C20.9991 5.39992 21.0387 4.99778 20.9616 4.60982C20.8844 4.22186 20.6939 3.86549 20.4142 3.58579C20.1345 3.30608 19.7781 3.1156 19.3902 3.03843C19.0022 2.96126 18.6001 3.00087 18.2346 3.15224C17.8692 3.30362 17.5568 3.55996 17.3371 3.88886C17.1173 4.21776 17 4.60444 17 5C17 5.53043 17.2107 6.03914 17.5858 6.41421C17.9609 6.78929 18.4696 7 19 7ZM18 9V15C18 15.2652 18.1054 15.5196 18.2929 15.7071C18.4804 15.8946 18.7348 16 19 16C19.2652 16 19.5196 15.8946 19.7071 15.7071C19.8946 15.5196 20 15.2652 20 15V9C20 8.73478 19.8946 8.48043 19.7071 8.29289C19.5196 8.10536 19.2652 8 19 8C18.7348 8 18.4804 8.10536 18.2929 8.29289C18.1054 8.48043 18 8.73478 18 9ZM19 17C18.6044 17 18.2178 17.1173 17.8889 17.3371C17.56 17.5568 17.3036 17.8692 17.1522 18.2346C17.0009 18.6001 16.9613 19.0022 17.0384 19.3902C17.1156 19.7781 17.3061 20.1345 17.5858 20.4142C17.8655 20.6939 18.2219 20.8844 18.6098 20.9616C18.9978 21.0387 19.3999 20.9991 19.7654 20.8478C20.1308 20.6964 20.4432 20.44 20.6629 20.1111C20.8827 19.7822 21 19.3956 21 19C21 18.4696 20.7893 17.9609 20.4142 17.5858C20.0391 17.2107 19.5304 17 19 17ZM15 4H9C8.73478 4 8.48043 4.10536 8.29289 4.29289C8.10536 4.48043 8 4.73478 8 5C8 5.26522 8.10536 5.51957 8.29289 5.70711C8.48043 5.89464 8.73478 6 9 6H15C15.2652 6 15.5196 5.89464 15.7071 5.70711C15.8946 5.51957 16 5.26522 16 5C16 4.73478 15.8946 4.48043 15.7071 4.29289C15.5196 4.10536 15.2652 4 15 4ZM5 3C4.60444 3 4.21776 3.1173 3.88886 3.33706C3.55996 3.55682 3.30362 3.86918 3.15224 4.23463C3.00087 4.60009 2.96126 5.00222 3.03843 5.39018C3.1156 5.77814 3.30608 6.13451 3.58579 6.41421C3.86549 6.69392 4.22186 6.8844 4.60982 6.96157C4.99778 7.03874 5.39992 6.99914 5.76537 6.84776C6.13082 6.69638 6.44318 6.44004 6.66294 6.11114C6.8827 5.78224 7 5.39556 7 5C7 4.46957 6.78929 3.96086 6.41421 3.58579C6.03914 3.21071 5.53043 3 5 3ZM15 18H9C8.73478 18 8.48043 18.1054 8.29289 18.2929C8.10536 18.4804 8 18.7348 8 19C8 19.2652 8.10536 19.5196 8.29289 19.7071C8.48043 19.8946 8.73478 20 9 20H15C15.2652 20 15.5196 19.8946 15.7071 19.7071C15.8946 19.5196 16 19.2652 16 19C16 18.7348 15.8946 18.4804 15.7071 18.2929C15.5196 18.1054 15.2652 18 15 18Z" fill="#141414"/>
</svg>
