<svg width="24" height="24" viewBox="0 0 24 24" fill="none" xmlns="http://www.w3.org/2000/svg">
<path d="M19 3H17C16.4696 3 15.9609 3.21071 15.5858 3.58579C15.2107 3.96086 15 4.46957 15 5V11H9V9C9 8.46957 8.78929 7.96086 8.41421 7.58579C8.03914 7.21071 7.53043 7 7 7H5C4.46957 7 3.96086 7.21071 3.58579 7.58579C3.21071 7.96086 3 8.46957 3 9V19C3 19.5304 3.21071 20.0391 3.58579 20.4142C3.96086 20.7893 4.46957 21 5 21H19C19.5304 21 20.0391 20.7893 20.4142 20.4142C20.7893 20.0391 21 19.5304 21 19V5C21 4.46957 20.7893 3.96086 20.4142 3.58579C20.0391 3.21071 19.5304 3 19 3ZM6 19C5.80222 19 5.60888 18.9414 5.44443 18.8315C5.27998 18.7216 5.15181 18.5654 5.07612 18.3827C5.00043 18.2 4.98063 17.9989 5.01921 17.8049C5.0578 17.6109 5.15304 17.4327 5.29289 17.2929C5.43275 17.153 5.61093 17.0578 5.80491 17.0192C5.99889 16.9806 6.19996 17.0004 6.38268 17.0761C6.56541 17.1518 6.72159 17.28 6.83147 17.4444C6.94135 17.6089 7 17.8022 7 18C7 18.2652 6.89464 18.5196 6.70711 18.7071C6.51957 18.8946 6.26522 19 6 19ZM6 15C5.80222 15 5.60888 14.9414 5.44443 14.8315C5.27998 14.7216 5.15181 14.5654 5.07612 14.3827C5.00043 14.2 4.98063 13.9989 5.01921 13.8049C5.0578 13.6109 5.15304 13.4327 5.29289 13.2929C5.43275 13.153 5.61093 13.0578 5.80491 13.0192C5.99889 12.9806 6.19996 13.0004 6.38268 13.0761C6.56541 13.1518 6.72159 13.28 6.83147 13.4444C6.94135 13.6089 7 13.8022 7 14C7 14.2652 6.89464 14.5196 6.70711 14.7071C6.51957 14.8946 6.26522 15 6 15ZM6 11C5.80222 11 5.60888 10.9414 5.44443 10.8315C5.27998 10.7216 5.15181 10.5654 5.07612 10.3827C5.00043 10.2 4.98063 9.99889 5.01921 9.80491C5.0578 9.61093 5.15304 9.43275 5.29289 9.29289C5.43275 9.15304 5.61093 9.0578 5.80491 9.01921C5.99889 8.98063 6.19996 9.00043 6.38268 9.07612C6.56541 9.15181 6.72159 9.27998 6.83147 9.44443C6.94135 9.60888 7 9.80222 7 10C7 10.2652 6.89464 10.5196 6.70711 10.7071C6.51957 10.8946 6.26522 11 6 11ZM10 19C9.80222 19 9.60888 18.9414 9.44443 18.8315C9.27998 18.7216 9.15181 18.5654 9.07612 18.3827C9.00043 18.2 8.98063 17.9989 9.01921 17.8049C9.0578 17.6109 9.15304 17.4327 9.29289 17.2929C9.43275 17.153 9.61093 17.0578 9.80491 17.0192C9.99889 16.9806 10.2 17.0004 10.3827 17.0761C10.5654 17.1518 10.7216 17.28 10.8315 17.4444C10.9414 17.6089 11 17.8022 11 18C11 18.2652 10.8946 18.5196 10.7071 18.7071C10.5196 18.8946 10.2652 19 10 19ZM10 15C9.80222 15 9.60888 14.9414 9.44443 14.8315C9.27998 14.7216 9.15181 14.5654 9.07612 14.3827C9.00043 14.2 8.98063 13.9989 9.01921 13.8049C9.0578 13.6109 9.15304 13.4327 9.29289 13.2929C9.43275 13.153 9.61093 13.0578 9.80491 13.0192C9.99889 12.9806 10.2 13.0004 10.3827 13.0761C10.5654 13.1518 10.7216 13.28 10.8315 13.4444C10.9414 13.6089 11 13.8022 11 14C11 14.2652 10.8946 14.5196 10.7071 14.7071C10.5196 14.8946 10.2652 15 10 15ZM14 19C13.8022 19 13.6089 18.9414 13.4444 18.8315C13.28 18.7216 13.1518 18.5654 13.0761 18.3827C13.0004 18.2 12.9806 17.9989 13.0192 17.8049C13.0578 17.6109 13.153 17.4327 13.2929 17.2929C13.4327 17.153 13.6109 17.0578 13.8049 17.0192C13.9989 16.9806 14.2 17.0004 14.3827 17.0761C14.5654 17.1518 14.7216 17.28 14.8315 17.4444C14.9414 17.6089 15 17.8022 15 18C15 18.2652 14.8946 18.5196 14.7071 18.7071C14.5196 18.8946 14.2652 19 14 19ZM14 15C13.8022 15 13.6089 14.9414 13.4444 14.8315C13.28 14.7216 13.1518 14.5654 13.0761 14.3827C13.0004 14.2 12.9806 13.9989 13.0192 13.8049C13.0578 13.6109 13.153 13.4327 13.2929 13.2929C13.4327 13.153 13.6109 13.0578 13.8049 13.0192C13.9989 12.9806 14.2 13.0004 14.3827 13.0761C14.5654 13.1518 14.7216 13.28 14.8315 13.4444C14.9414 13.6089 15 13.8022 15 14C15 14.2652 14.8946 14.5196 14.7071 14.7071C14.5196 14.8946 14.2652 15 14 15ZM18 19C17.8022 19 17.6089 18.9414 17.4444 18.8315C17.28 18.7216 17.1518 18.5654 17.0761 18.3827C17.0004 18.2 16.9806 17.9989 17.0192 17.8049C17.0578 17.6109 17.153 17.4327 17.2929 17.2929C17.4327 17.153 17.6109 17.0578 17.8049 17.0192C17.9989 16.9806 18.2 17.0004 18.3827 17.0761C18.5654 17.1518 18.7216 17.28 18.8315 17.4444C18.9414 17.6089 19 17.8022 19 18C19 18.2652 18.8946 18.5196 18.7071 18.7071C18.5196 18.8946 18.2652 19 18 19ZM18 15C17.8022 15 17.6089 14.9414 17.4444 14.8315C17.28 14.7216 17.1518 14.5654 17.0761 14.3827C17.0004 14.2 16.9806 13.9989 17.0192 13.8049C17.0578 13.6109 17.153 13.4327 17.2929 13.2929C17.4327 13.153 17.6109 13.0578 17.8049 13.0192C17.9989 12.9806 18.2 13.0004 18.3827 13.0761C18.5654 13.1518 18.7216 13.28 18.8315 13.4444C18.9414 13.6089 19 13.8022 19 14C19 14.2652 18.8946 14.5196 18.7071 14.7071C18.5196 14.8946 18.2652 15 18 15ZM18 11C17.8022 11 17.6089 10.9414 17.4444 10.8315C17.28 10.7216 17.1518 10.5654 17.0761 10.3827C17.0004 10.2 16.9806 9.99889 17.0192 9.80491C17.0578 9.61093 17.153 9.43275 17.2929 9.29289C17.4327 9.15304 17.6109 9.0578 17.8049 9.01921C17.9989 8.98063 18.2 9.00043 18.3827 9.07612C18.5654 9.15181 18.7216 9.27998 18.8315 9.44443C18.9414 9.60888 19 9.80222 19 10C19 10.2652 18.8946 10.5196 18.7071 10.7071C18.5196 10.8946 18.2652 11 18 11ZM18 7C17.8022 7 17.6089 6.94135 17.4444 6.83147C17.28 6.72159 17.1518 6.56541 17.0761 6.38268C17.0004 6.19996 16.9806 5.99889 17.0192 5.80491C17.0578 5.61093 17.153 5.43275 17.2929 5.29289C17.4327 5.15304 17.6109 5.0578 17.8049 5.01921C17.9989 4.98063 18.2 5.00043 18.3827 5.07612C18.5654 5.15181 18.7216 5.27998 18.8315 5.44443C18.9414 5.60888 19 5.80222 19 6C19 6.26522 18.8946 6.51957 18.7071 6.70711C18.5196 6.89464 18.2652 7 18 7Z" fill="#141414"/>
</svg>
