<svg width="24" height="24" viewBox="0 0 24 24" fill="none" xmlns="http://www.w3.org/2000/svg">
<path d="M12 11C12.89 11 13.76 10.7361 14.5001 10.2416C15.2401 9.74715 15.8169 9.04434 16.1575 8.22208C16.4981 7.39981 16.5872 6.49501 16.4135 5.6221C16.2399 4.74918 15.8113 3.94736 15.182 3.31802C14.5526 2.68868 13.7508 2.2601 12.8779 2.08647C12.005 1.91283 11.1002 2.00195 10.2779 2.34254C9.45566 2.68314 8.75285 3.25991 8.25839 3.99994C7.76392 4.73996 7.5 5.60999 7.5 6.5C7.50264 7.69266 7.9776 8.83572 8.82094 9.67906C9.66428 10.5224 10.8073 10.9974 12 11ZM14.47 12.39L12.57 13.8C12.3969 13.9298 12.1864 14 11.97 14C11.7536 14 11.5431 13.9298 11.37 13.8L9.49 12.41C7.89332 12.9376 6.50348 13.9549 5.51794 15.3174C4.5324 16.68 4.00127 18.3184 4 20C4 20.5304 4.21071 21.0391 4.58579 21.4142C4.96086 21.7893 5.46957 22 6 22H18C18.5304 22 19.0391 21.7893 19.4142 21.4142C19.7893 21.0391 20 20.5304 20 20C20.0002 18.31 19.4652 16.6634 18.4717 15.2963C17.4783 13.9292 16.0774 12.9118 14.47 12.39ZM17 20H13C12.7348 20 12.4804 19.8946 12.2929 19.7071C12.1054 19.5196 12 19.2652 12 19C12 18.7348 12.1054 18.4804 12.2929 18.2929C12.4804 18.1054 12.7348 18 13 18H17C17.2652 18 17.5196 18.1054 17.7071 18.2929C17.8946 18.4804 18 18.7348 18 19C18 19.2652 17.8946 19.5196 17.7071 19.7071C17.5196 19.8946 17.2652 20 17 20Z" fill="#141414"/>
</svg>
