<svg width="24" height="24" viewBox="0 0 24 24" fill="none" xmlns="http://www.w3.org/2000/svg">
<path d="M10.5001 12.5001H4.50007C3.95007 12.5001 3.50007 12.9501 3.50007 13.5001C3.50007 14.0501 3.95007 14.5001 4.50007 14.5001H8.09007L2.80007 19.7901C2.41007 20.1801 2.41007 20.8101 2.80007 21.2001C3.00007 21.4001 3.25007 21.4901 3.51007 21.4901C3.77007 21.4901 4.02007 21.3901 4.22007 21.2001L9.51007 15.9101V19.5001C9.51007 20.0501 9.96007 20.5001 10.5101 20.5001C11.0601 20.5001 11.5101 20.0501 11.5101 19.5001V13.5001C11.5101 12.9501 11.0601 12.5001 10.5101 12.5001H10.5001ZM21.2101 2.79006C20.8201 2.40006 20.1901 2.40006 19.8001 2.79006L14.5101 8.08006V4.49006C14.5101 3.94006 14.0601 3.49006 13.5101 3.49006C12.9601 3.49006 12.5101 3.94006 12.5101 4.49006V10.4901C12.5101 11.0401 12.9601 11.4901 13.5101 11.4901H19.5101C20.0601 11.4901 20.5101 11.0401 20.5101 10.4901C20.5101 9.94006 20.0601 9.49006 19.5101 9.49006H15.9201L21.2101 4.20006C21.6001 3.81006 21.6001 3.18006 21.2101 2.79006Z" fill="#141414"/>
</svg>
