<svg width="24" height="24" viewBox="0 0 24 24" fill="none" xmlns="http://www.w3.org/2000/svg">
<path d="M12 2C10.0222 2 8.08879 2.58649 6.4443 3.6853C4.79981 4.78412 3.51809 6.3459 2.76121 8.17317C2.00433 10.0004 1.8063 12.0111 2.19215 13.9509C2.578 15.8907 3.53041 17.6725 4.92894 19.0711C6.32746 20.4696 8.10929 21.422 10.0491 21.8079C11.9889 22.1937 13.9996 21.9957 15.8268 21.2388C17.6541 20.4819 19.2159 19.2002 20.3147 17.5557C21.4135 15.9112 22 13.9778 22 12C22 10.6868 21.7413 9.38642 21.2388 8.17317C20.7363 6.95991 19.9997 5.85752 19.0711 4.92893C18.1425 4.00035 17.0401 3.26375 15.8268 2.7612C14.6136 2.25866 13.3132 2 12 2ZM16.71 14.21C16.617 14.3037 16.5064 14.3781 16.3846 14.4289C16.2627 14.4797 16.132 14.5058 16 14.5058C15.868 14.5058 15.7373 14.4797 15.6154 14.4289C15.4936 14.3781 15.383 14.3037 15.29 14.21L12 10.91L8.71 14.21C8.61677 14.3032 8.50608 14.3772 8.38425 14.4277C8.26243 14.4781 8.13186 14.5041 8 14.5041C7.86814 14.5041 7.73758 14.4781 7.61576 14.4277C7.49393 14.3772 7.38324 14.3032 7.29 14.21C7.19677 14.1168 7.12281 14.0061 7.07234 13.8842C7.02188 13.7624 6.99591 13.6319 6.99591 13.5C6.99591 13.3681 7.02188 13.2376 7.07234 13.1158C7.12281 12.9939 7.19677 12.8832 7.29 12.79L11.29 8.79C11.383 8.69627 11.4936 8.62188 11.6154 8.57111C11.7373 8.52034 11.868 8.4942 12 8.4942C12.132 8.4942 12.2627 8.52034 12.3846 8.57111C12.5064 8.62188 12.617 8.69627 12.71 8.79L16.71 12.79C16.8037 12.883 16.8781 12.9936 16.9289 13.1154C16.9797 13.2373 17.0058 13.368 17.0058 13.5C17.0058 13.632 16.9797 13.7627 16.9289 13.8846C16.8781 14.0064 16.8037 14.117 16.71 14.21Z" fill="#141414"/>
</svg>
