<svg width="24" height="24" viewBox="0 0 24 24" fill="none" xmlns="http://www.w3.org/2000/svg">
<path d="M18 3H6C5.20435 3 4.44129 3.31607 3.87868 3.87868C3.31607 4.44129 3 5.20435 3 6V18C3 18.7956 3.31607 19.5587 3.87868 20.1213C4.44129 20.6839 5.20435 21 6 21H18C18.7956 21 19.5587 20.6839 20.1213 20.1213C20.6839 19.5587 21 18.7956 21 18V6C21 5.20435 20.6839 4.44129 20.1213 3.87868C19.5587 3.31607 18.7956 3 18 3ZM15 7C15.3956 7 15.7822 7.1173 16.1111 7.33706C16.44 7.55682 16.6964 7.86918 16.8478 8.23463C16.9991 8.60009 17.0387 9.00222 16.9616 9.39018C16.8844 9.77814 16.6939 10.1345 16.4142 10.4142C16.1345 10.6939 15.7781 10.8844 15.3902 10.9616C15.0022 11.0387 14.6001 10.9991 14.2346 10.8478C13.8692 10.6964 13.5568 10.44 13.3371 10.1111C13.1173 9.78224 13 9.39556 13 9C13 8.46957 13.2107 7.96086 13.5858 7.58579C13.9609 7.21071 14.4696 7 15 7ZM7 8C7 7.73478 7.10536 7.48043 7.29289 7.29289C7.48043 7.10536 7.73478 7 8 7H10C10.2652 7 10.5196 7.10536 10.7071 7.29289C10.8946 7.48043 11 7.73478 11 8V10C11 10.2652 10.8946 10.5196 10.7071 10.7071C10.5196 10.8946 10.2652 11 10 11H8C7.73478 11 7.48043 10.8946 7.29289 10.7071C7.10536 10.5196 7 10.2652 7 10V8ZM11.14 15.39L10.39 16.64C10.3231 16.7498 10.2291 16.8406 10.1171 16.9037C10.005 16.9667 9.87859 16.9999 9.75 17H8.25C8.12141 16.9999 7.99501 16.9667 7.88293 16.9037C7.77085 16.8406 7.67687 16.7498 7.61 16.64L6.86 15.39C6.78624 15.2733 6.74709 15.1381 6.74709 15C6.74709 14.8619 6.78624 14.7267 6.86 14.61L7.61 13.36C7.67687 13.2502 7.77085 13.1594 7.88293 13.0963C7.99501 13.0333 8.12141 13.0001 8.25 13H9.75C9.87859 13.0001 10.005 13.0333 10.1171 13.0963C10.2291 13.1594 10.3231 13.2502 10.39 13.36L11.14 14.61C11.2138 14.7267 11.2529 14.8619 11.2529 15C11.2529 15.1381 11.2138 15.2733 11.14 15.39ZM17 16.63C16.9351 16.7424 16.8418 16.8357 16.7295 16.9006C16.6172 16.9656 16.4898 16.9998 16.36 17H13.62C13.4902 16.9998 13.3628 16.9656 13.2505 16.9006C13.1382 16.8357 13.0449 16.7424 12.98 16.63C12.9141 16.5178 12.8793 16.3901 12.8793 16.26C12.8793 16.1299 12.9141 16.0022 12.98 15.89L14.35 13.39C14.4219 13.2807 14.5199 13.1909 14.6351 13.1288C14.7503 13.0667 14.8791 13.0342 15.01 13.0342C15.1409 13.0342 15.2697 13.0667 15.3849 13.1288C15.5001 13.1909 15.5981 13.2807 15.67 13.39L17 15.89C17.0659 16.0022 17.1007 16.1299 17.1007 16.26C17.1007 16.3901 17.0659 16.5178 17 16.63Z" fill="#141414"/>
</svg>
