<svg width="24" height="24" viewBox="0 0 24 24" fill="none" xmlns="http://www.w3.org/2000/svg">
<path d="M15.7102 13.2098C15.6172 13.3036 15.5066 13.378 15.3847 13.4287C15.2629 13.4795 15.1322 13.5056 15.0002 13.5056C14.8682 13.5056 14.7375 13.4795 14.6156 13.4287C14.4937 13.378 14.3831 13.3036 14.2902 13.2098L14.0002 12.9098V15.4998C14.0002 15.7651 13.8948 16.0194 13.7073 16.207C13.5197 16.3945 13.2654 16.4998 13.0002 16.4998C12.735 16.4998 12.4806 16.3945 12.2931 16.207C12.1055 16.0194 12.0002 15.7651 12.0002 15.4998V12.9098L11.7102 13.2098C11.5219 13.3982 11.2665 13.5039 11.0002 13.5039C10.7339 13.5039 10.4785 13.3982 10.2902 13.2098C10.1019 13.0215 9.99608 12.7661 9.99608 12.4998C9.99608 12.2335 10.1019 11.9782 10.2902 11.7898L12.2902 9.78985C12.3831 9.69612 12.4937 9.62172 12.6156 9.57096C12.7375 9.52019 12.8682 9.49405 13.0002 9.49405C13.1322 9.49405 13.2629 9.52019 13.3847 9.57096C13.5066 9.62172 13.6172 9.69612 13.7102 9.78985L15.7102 11.7898C15.8039 11.8828 15.8783 11.9934 15.9291 12.1153C15.9798 12.2371 16.006 12.3678 16.006 12.4998C16.006 12.6319 15.9798 12.7626 15.9291 12.8844C15.8783 13.0063 15.8039 13.1169 15.7102 13.2098ZM20.0002 11.5398C20.0101 11.36 20.0101 11.1797 20.0002 10.9998C20.0016 9.67781 19.5664 8.3923 18.7622 7.34304C17.9579 6.29379 16.8296 5.53954 15.5526 5.19748C14.2756 4.85542 12.9213 4.94471 11.7003 5.45146C10.4792 5.95822 9.45972 6.85408 8.80017 7.99985C8.11461 8.0364 7.45 8.2488 6.87029 8.61659C6.29059 8.98438 5.8153 9.49518 5.49017 10.0998C4.3938 10.2745 3.40132 10.85 2.70514 11.7147C2.00896 12.5795 1.65867 13.672 1.72219 14.7804C1.7857 15.8887 2.25849 16.9341 3.0489 17.7137C3.83931 18.4933 4.89103 18.9516 6.00017 18.9998H18.0002C18.8794 18.9983 19.7336 18.7071 20.4307 18.1713C21.1278 17.6355 21.629 16.8849 21.8567 16.0357C22.0843 15.1864 22.0259 14.2858 21.6903 13.4732C21.3547 12.6605 20.7607 11.981 20.0002 11.5398Z" fill="#141414"/>
</svg>
