<svg width="24" height="24" viewBox="0 0 24 24" fill="none" xmlns="http://www.w3.org/2000/svg">
<path d="M9 16.0001H8C7.73478 16.0001 7.48043 15.8948 7.29289 15.7072C7.10536 15.5197 7 15.2654 7 15.0001V9.00014C7 8.73493 7.10536 8.48057 7.29289 8.29304C7.48043 8.1055 7.73478 8.00014 8 8.00014H9C9.53043 8.00014 10.0391 7.78943 10.4142 7.41436C10.7893 7.03928 11 6.53057 11 6.00014V5.00014C11 4.46971 10.7893 3.961 10.4142 3.58593C10.0391 3.21086 9.53043 3.00014 9 3.00014H7.6C7.16642 2.99489 6.74371 3.13579 6.4 3.40014C5.28 4.28014 3 6.71014 3 12.0001C3 17.2901 5.28 19.7201 6.4 20.6001C6.74371 20.8645 7.16642 21.0054 7.6 21.0001H9C9.53043 21.0001 10.0391 20.7894 10.4142 20.4144C10.7893 20.0393 11 19.5306 11 19.0001V18.0001C11 17.4697 10.7893 16.961 10.4142 16.5859C10.0391 16.2109 9.53043 16.0001 9 16.0001ZM20 16.0001C19.7348 16.0001 19.4804 16.1055 19.2929 16.293C19.1054 16.4806 19 16.7349 19 17.0001V17.6001C17.8929 16.5738 16.4396 16.0025 14.93 16.0001H14C13.7348 16.0001 13.4804 16.1055 13.2929 16.293C13.1054 16.4806 13 16.7349 13 17.0001C13 17.2654 13.1054 17.5197 13.2929 17.7072C13.4804 17.8948 13.7348 18.0001 14 18.0001H14.93C15.8964 18.0009 16.8289 18.3568 17.55 19.0001H17C16.7348 19.0001 16.4804 19.1055 16.2929 19.293C16.1054 19.4806 16 19.7349 16 20.0001C16 20.2654 16.1054 20.5197 16.2929 20.7072C16.4804 20.8948 16.7348 21.0001 17 21.0001H20C20.2652 21.0001 20.5196 20.8948 20.7071 20.7072C20.8946 20.5197 21 20.2654 21 20.0001V17.0001C21 16.7349 20.8946 16.4806 20.7071 16.293C20.5196 16.1055 20.2652 16.0001 20 16.0001ZM20 3.00014H17C16.7348 3.00014 16.4804 3.1055 16.2929 3.29303C16.1054 3.48057 16 3.73493 16 4.00014C16 4.26536 16.1054 4.51971 16.2929 4.70725C16.4804 4.89478 16.7348 5.00014 17 5.00014H17.55C16.8289 5.64352 15.8964 5.99941 14.93 6.00014H14C13.7348 6.00014 13.4804 6.1055 13.2929 6.29304C13.1054 6.48057 13 6.73493 13 7.00014C13 7.26536 13.1054 7.51971 13.2929 7.70725C13.4804 7.89478 13.7348 8.00014 14 8.00014H14.93C16.4396 7.99782 17.8929 7.4265 19 6.40014V7.00014C19 7.26536 19.1054 7.51971 19.2929 7.70725C19.4804 7.89478 19.7348 8.00014 20 8.00014C20.2652 8.00014 20.5196 7.89478 20.7071 7.70725C20.8946 7.51971 21 7.26536 21 7.00014V4.00014C21 3.73493 20.8946 3.48057 20.7071 3.29303C20.5196 3.1055 20.2652 3.00014 20 3.00014ZM18.71 9.29014C18.5217 9.10184 18.2663 8.99605 18 8.99605C17.7337 8.99605 17.4783 9.10184 17.29 9.29014C17.1017 9.47845 16.9959 9.73384 16.9959 10.0001C16.9959 10.2664 17.1017 10.5218 17.29 10.7101L17.59 11.0001H11C10.7348 11.0001 10.4804 11.1055 10.2929 11.293C10.1054 11.4806 10 11.7349 10 12.0001C10 12.2654 10.1054 12.5197 10.2929 12.7072C10.4804 12.8948 10.7348 13.0001 11 13.0001H17.59L17.29 13.2901C17.1963 13.3831 17.1219 13.4937 17.0711 13.6156C17.0203 13.7374 16.9942 13.8681 16.9942 14.0001C16.9942 14.1322 17.0203 14.2629 17.0711 14.3847C17.1219 14.5066 17.1963 14.6172 17.29 14.7101C17.383 14.8039 17.4936 14.8783 17.6154 14.929C17.7373 14.9798 17.868 15.0059 18 15.0059C18.132 15.0059 18.2627 14.9798 18.3846 14.929C18.5064 14.8783 18.617 14.8039 18.71 14.7101L20.71 12.7101C20.8037 12.6172 20.8781 12.5066 20.9289 12.3847C20.9797 12.2629 21.0058 12.1322 21.0058 12.0001C21.0058 11.8681 20.9797 11.7374 20.9289 11.6156C20.8781 11.4937 20.8037 11.3831 20.71 11.2901L18.71 9.29014Z" fill="#141414"/>
</svg>
