<svg width="24" height="24" viewBox="0 0 24 24" fill="none" xmlns="http://www.w3.org/2000/svg">
<path d="M10 11C10.89 11 11.76 10.7361 12.5001 10.2416C13.2401 9.74715 13.8169 9.04434 14.1575 8.22208C14.4981 7.39981 14.5872 6.49501 14.4135 5.6221C14.2399 4.74918 13.8113 3.94736 13.182 3.31802C12.5526 2.68868 11.7508 2.2601 10.8779 2.08647C10.005 1.91283 9.10019 2.00195 8.27792 2.34254C7.45566 2.68314 6.75285 3.25991 6.25839 3.99994C5.76392 4.73996 5.5 5.60999 5.5 6.5C5.50264 7.69266 5.9776 8.83572 6.82094 9.67906C7.66428 10.5224 8.80734 10.9974 10 11ZM10 12C7.87827 12 5.84344 12.8429 4.34315 14.3431C2.84285 15.8434 2 17.8783 2 20C2 20.5304 2.21071 21.0391 2.58579 21.4142C2.96086 21.7893 3.46957 22 4 22H16C16.5304 22 17.0391 21.7893 17.4142 21.4142C17.7893 21.0391 18 20.5304 18 20C18 17.8783 17.1571 15.8434 15.6569 14.3431C14.1566 12.8429 12.1217 12 10 12ZM21.92 9.62C21.8724 9.49725 21.801 9.38511 21.71 9.29L19.71 7.29C19.6168 7.19676 19.5061 7.1228 19.3842 7.07234C19.2624 7.02188 19.1319 6.99591 19 6.99591C18.7337 6.99591 18.4783 7.1017 18.29 7.29C18.1017 7.47831 17.9959 7.7337 17.9959 8C17.9959 8.2663 18.1017 8.5217 18.29 8.71L18.59 9H18C17.2044 9 16.4413 9.31607 15.8787 9.87868C15.3161 10.4413 15 11.2044 15 12C15 12.2652 15.1054 12.5196 15.2929 12.7071C15.4804 12.8946 15.7348 13 16 13C16.2652 13 16.5196 12.8946 16.7071 12.7071C16.8946 12.5196 17 12.2652 17 12C17 11.7348 17.1054 11.4804 17.2929 11.2929C17.4804 11.1054 17.7348 11 18 11H18.59L18.29 11.29C18.1963 11.383 18.1219 11.4936 18.0711 11.6154C18.0203 11.7373 17.9942 11.868 17.9942 12C17.9942 12.132 18.0203 12.2627 18.0711 12.3846C18.1219 12.5064 18.1963 12.617 18.29 12.71C18.383 12.8037 18.4936 12.8781 18.6154 12.9289C18.7373 12.9797 18.868 13.0058 19 13.0058C19.132 13.0058 19.2627 12.9797 19.3846 12.9289C19.5064 12.8781 19.617 12.8037 19.71 12.71L21.71 10.71C21.801 10.6149 21.8724 10.5028 21.92 10.38C22.02 10.1365 22.02 9.86346 21.92 9.62Z" fill="#141414"/>
</svg>
