<svg width="24" height="24" viewBox="0 0 24 24" fill="none" xmlns="http://www.w3.org/2000/svg">
<path d="M12.0002 15.0002C11.8686 15.0009 11.7381 14.9757 11.6163 14.926C11.4944 14.8762 11.3836 14.8029 11.2902 14.7102L7.29019 10.7102C7.10188 10.5219 6.99609 10.2665 6.99609 10.0002C6.99609 9.73388 7.10188 9.47849 7.29019 9.29018C7.47849 9.10188 7.73388 8.99609 8.00019 8.99609C8.26649 8.99609 8.52188 9.10188 8.71019 9.29018L12.0002 12.5902L15.2902 9.29018C15.4785 9.10188 15.7339 8.99609 16.0002 8.99609C16.2665 8.99609 16.5219 9.10188 16.7102 9.29018C16.8985 9.47849 17.0043 9.73388 17.0043 10.0002C17.0043 10.2665 16.8985 10.5219 16.7102 10.7102L12.7102 14.7102C12.6167 14.8029 12.5059 14.8762 12.3841 14.926C12.2623 14.9757 12.1318 15.0009 12.0002 15.0002Z" fill="#141414"/>
</svg>
