<svg width="24" height="24" viewBox="0 0 24 24" fill="none" xmlns="http://www.w3.org/2000/svg">
<path d="M9 7.99986C8.80222 7.99986 8.60888 8.05851 8.44443 8.16839C8.27998 8.27827 8.15181 8.43445 8.07612 8.61717C8.00043 8.7999 7.98063 9.00097 8.01921 9.19495C8.0578 9.38893 8.15304 9.56711 8.29289 9.70696C8.43275 9.84682 8.61093 9.94206 8.80491 9.98064C8.99889 10.0192 9.19996 9.99942 9.38268 9.92374C9.56541 9.84805 9.72159 9.71988 9.83147 9.55543C9.94135 9.39098 10 9.19764 10 8.99986C10 8.73464 9.89464 8.48029 9.70711 8.29275C9.51957 8.10521 9.26522 7.99986 9 7.99986ZM20.78 12.1599L19.4 7.04986C19.1926 6.46309 18.8077 5.95536 18.2989 5.59702C17.7901 5.23868 17.1824 5.04746 16.56 5.04986H7.41C6.77396 5.04609 6.15318 5.24457 5.6373 5.61665C5.12143 5.98872 4.73717 6.51513 4.54 7.11986L3.21 12.1699C2.85194 12.3238 2.54666 12.579 2.33169 12.9041C2.11672 13.2293 2.00144 13.6101 2 13.9999V15.9999C2.00211 16.3489 2.09552 16.6913 2.27095 16.993C2.44638 17.2948 2.69772 17.5453 3 17.7199V18.9999C3 19.2651 3.10536 19.5194 3.29289 19.707C3.48043 19.8945 3.73478 19.9999 4 19.9999C4.26522 19.9999 4.51957 19.8945 4.70711 19.707C4.89464 19.5194 5 19.2651 5 18.9999V17.9999H19V18.9999C19 19.2651 19.1054 19.5194 19.2929 19.707C19.4804 19.8945 19.7348 19.9999 20 19.9999C20.2652 19.9999 20.5196 19.8945 20.7071 19.707C20.8946 19.5194 21 19.2651 21 18.9999V17.7199C21.3023 17.5453 21.5536 17.2948 21.7291 16.993C21.9045 16.6913 21.9979 16.3489 22 15.9999V13.9999C21.9997 13.6073 21.8838 13.2235 21.6669 12.8963C21.4499 12.5691 21.1415 12.313 20.78 12.1599ZM6.71 15.7099C6.54541 15.8746 6.32847 15.9768 6.09662 15.9987C5.86477 16.0206 5.63254 15.9609 5.44 15.8299C5.27585 15.7212 5.14993 15.5638 5.08 15.3799C4.99607 15.1988 4.9682 14.9968 5 14.7999C5.03698 14.6013 5.13319 14.4186 5.27599 14.2758C5.41879 14.133 5.60147 14.0368 5.8 13.9999C5.995 13.9618 6.19692 13.9827 6.38 14.0599C6.56399 14.1298 6.72139 14.2557 6.83 14.4199C6.96101 14.6124 7.02071 14.8446 6.9988 15.0765C6.97689 15.3083 6.87475 15.5253 6.71 15.6899V15.7099ZM15 10.9999C14.651 11.002 14.3086 11.0954 14.0068 11.2708C13.7051 11.4462 13.4545 11.6976 13.28 11.9999H10.72C10.5429 11.7014 10.2912 11.4542 9.98965 11.2825C9.68809 11.1107 9.34703 11.0204 9 11.0204C8.65297 11.0204 8.31191 11.1107 8.01035 11.2825C7.70878 11.4542 7.45709 11.7014 7.28 11.9999H5.28L6.46 7.68986C6.52781 7.48101 6.66247 7.30029 6.8432 7.17558C7.02393 7.05088 7.24068 6.98913 7.46 6.99986H16.61C16.8103 6.99966 17.006 7.05961 17.1718 7.17194C17.3376 7.28426 17.4659 7.44379 17.54 7.62986L18.67 11.9999H16.67C16.4998 11.7047 16.2571 11.458 15.9649 11.283C15.6726 11.108 15.3405 11.0105 15 10.9999ZM18.71 15.7099C18.5454 15.8746 18.3285 15.9768 18.0966 15.9987C17.8648 16.0206 17.6325 15.9609 17.44 15.8299C17.2758 15.7212 17.1499 15.5638 17.08 15.3799C16.9961 15.1988 16.9682 14.9968 17 14.7999C17.037 14.6013 17.1332 14.4186 17.276 14.2758C17.4188 14.133 17.6015 14.0368 17.8 13.9999C17.995 13.9618 18.1969 13.9827 18.38 14.0599C18.564 14.1298 18.7214 14.2557 18.83 14.4199C18.961 14.6124 19.0207 14.8446 18.9988 15.0765C18.9769 15.3083 18.8748 15.5253 18.71 15.6899V15.7099ZM15 7.99986C14.8022 7.99986 14.6089 8.05851 14.4444 8.16839C14.28 8.27827 14.1518 8.43445 14.0761 8.61717C14.0004 8.7999 13.9806 9.00097 14.0192 9.19495C14.0578 9.38893 14.153 9.56711 14.2929 9.70696C14.4327 9.84682 14.6109 9.94206 14.8049 9.98064C14.9989 10.0192 15.2 9.99942 15.3827 9.92374C15.5654 9.84805 15.7216 9.71988 15.8315 9.55543C15.9414 9.39098 16 9.19764 16 8.99986C16 8.73464 15.8946 8.48029 15.7071 8.29275C15.5196 8.10521 15.2652 7.99986 15 7.99986Z" fill="#141414"/>
</svg>
