<svg width="24" height="24" viewBox="0 0 24 24" fill="none" xmlns="http://www.w3.org/2000/svg">
<path d="M3.5 16C3.20333 16 2.91332 16.088 2.66665 16.2528C2.41997 16.4176 2.22771 16.6519 2.11418 16.926C2.00065 17.2001 1.97094 17.5017 2.02882 17.7926C2.0867 18.0836 2.22956 18.3509 2.43934 18.5607C2.64912 18.7704 2.91639 18.9133 3.20737 18.9712C3.49834 19.0291 3.79994 18.9993 4.07403 18.8858C4.34811 18.7723 4.58238 18.58 4.7472 18.3334C4.91203 18.0867 5 17.7967 5 17.5C5 17.1022 4.84197 16.7206 4.56066 16.4393C4.27936 16.158 3.89783 16 3.5 16ZM3.5 13H3C2.73478 13 2.48043 13.1054 2.29289 13.2929C2.10536 13.4804 2 13.7348 2 14C2 14.2652 2.10536 14.5196 2.29289 14.7071C2.48043 14.8946 2.73478 15 3 15H3.5C3.82831 15 4.15339 15.0647 4.45671 15.1903C4.76002 15.3159 5.03562 15.5001 5.26777 15.7322C5.49991 15.9644 5.68406 16.24 5.8097 16.5433C5.93534 16.8466 6 17.1717 6 17.5V18C6 18.2652 6.10536 18.5196 6.29289 18.7071C6.48043 18.8946 6.73478 19 7 19C7.26522 19 7.51957 18.8946 7.70711 18.7071C7.89464 18.5196 8 18.2652 8 18V17.5C7.99736 16.3073 7.52241 15.1643 6.67906 14.3209C5.83572 13.4776 4.69266 13.0026 3.5 13ZM19 5H5C4.20435 5 3.44129 5.31607 2.87868 5.87868C2.31607 6.44129 2 7.20435 2 8C2 8.26522 2.10536 8.51957 2.29289 8.70711C2.48043 8.89464 2.73478 9 3 9C3.26522 9 3.51957 8.89464 3.70711 8.70711C3.89464 8.51957 4 8.26522 4 8C4 7.73478 4.10536 7.48043 4.29289 7.29289C4.48043 7.10536 4.73478 7 5 7H19C19.2652 7 19.5196 7.10536 19.7071 7.29289C19.8946 7.48043 20 7.73478 20 8V16C20 16.2652 19.8946 16.5196 19.7071 16.7071C19.5196 16.8946 19.2652 17 19 17H13C12.7348 17 12.4804 17.1054 12.2929 17.2929C12.1054 17.4804 12 17.7348 12 18C12 18.2652 12.1054 18.5196 12.2929 18.7071C12.4804 18.8946 12.7348 19 13 19H19C19.7956 19 20.5587 18.6839 21.1213 18.1213C21.6839 17.5587 22 16.7956 22 16V8C22 7.20435 21.6839 6.44129 21.1213 5.87868C20.5587 5.31607 19.7956 5 19 5ZM3.5 10H3C2.73478 10 2.48043 10.1054 2.29289 10.2929C2.10536 10.4804 2 10.7348 2 11C2 11.2652 2.10536 11.5196 2.29289 11.7071C2.48043 11.8946 2.73478 12 3 12H3.5C4.95788 12.0026 6.35529 12.583 7.38617 13.6138C8.41705 14.6447 8.99736 16.0421 9 17.5V18C9 18.2652 9.10536 18.5196 9.29289 18.7071C9.48043 18.8946 9.73478 19 10 19C10.2652 19 10.5196 18.8946 10.7071 18.7071C10.8946 18.5196 11 18.2652 11 18V17.5C11 15.5109 10.2098 13.6032 8.8033 12.1967C7.39678 10.7902 5.48912 10 3.5 10Z" fill="#141414"/>
</svg>
