<svg width="24" height="24" viewBox="0 0 24 24" fill="none" xmlns="http://www.w3.org/2000/svg">
<path d="M18.1599 14.3202C17.7852 13.9477 17.2783 13.7386 16.7499 13.7386C16.2216 13.7386 15.7147 13.9477 15.3399 14.3202L14.6299 15.0302C14.537 15.1239 14.4264 15.1983 14.3045 15.2491C14.1827 15.2999 14.0519 15.326 13.9199 15.326C13.7879 15.326 13.6572 15.2999 13.5354 15.2491C13.4135 15.1983 13.3029 15.1239 13.2099 15.0302L8.99994 10.7902C8.90621 10.6972 8.83181 10.5866 8.78104 10.4648C8.73028 10.3429 8.70414 10.2122 8.70414 10.0802C8.70414 9.9482 8.73028 9.81749 8.78104 9.69564C8.83181 9.57378 8.90621 9.46318 8.99994 9.37021L9.70994 8.66021C10.0824 8.28549 10.2915 7.77858 10.2915 7.25021C10.2915 6.72184 10.0824 6.21494 9.70994 5.84021L8.99994 5.13021C8.81419 4.94426 8.59361 4.79674 8.35082 4.69609C8.10802 4.59544 7.84777 4.54364 7.58494 4.54364C7.32211 4.54364 7.06185 4.59544 6.81906 4.69609C6.57626 4.79674 6.35568 4.94426 6.16994 5.13021L5.16994 6.13021C4.85572 6.43018 4.65443 6.82923 4.59994 7.26021C4.41994 8.66021 4.51994 12.0002 8.26994 15.7302C12.0199 19.4602 15.3399 19.5802 16.7499 19.4102C17.1809 19.3557 17.58 19.1544 17.8799 18.8402L18.8799 17.8402C19.0659 17.6545 19.2134 17.4339 19.3141 17.1911C19.4147 16.9483 19.4665 16.688 19.4665 16.4252C19.4665 16.1624 19.4147 15.9021 19.3141 15.6593C19.2134 15.4165 19.0659 15.196 18.8799 15.0102L18.1599 14.3202ZM19.7099 4.32021C19.617 4.22648 19.5064 4.15209 19.3845 4.10132C19.2627 4.05055 19.1319 4.02441 18.9999 4.02441C18.8679 4.02441 18.7372 4.05055 18.6154 4.10132C18.4935 4.15209 18.3829 4.22648 18.2899 4.32021L15.9999 6.59021V6.00021C15.9999 5.735 15.8946 5.48064 15.707 5.29311C15.5195 5.10557 15.2652 5.00021 14.9999 5.00021C14.7347 5.00021 14.4804 5.10557 14.2928 5.29311C14.1053 5.48064 13.9999 5.735 13.9999 6.00021V9.00021C14.0015 9.13089 14.0287 9.25999 14.0799 9.38021C14.1814 9.62456 14.3756 9.81874 14.6199 9.92021C14.7402 9.97145 14.8693 9.99863 14.9999 10.0002H17.9999C18.2652 10.0002 18.5195 9.89486 18.707 9.70732C18.8946 9.51978 18.9999 9.26543 18.9999 9.00021C18.9999 8.735 18.8946 8.48064 18.707 8.29311C18.5195 8.10557 18.2652 8.00021 17.9999 8.00021H17.4099L19.7099 5.71021C19.8037 5.61725 19.8781 5.50665 19.9288 5.38479C19.9796 5.26293 20.0057 5.13222 20.0057 5.00021C20.0057 4.8682 19.9796 4.73749 19.9288 4.61564C19.8781 4.49378 19.8037 4.38318 19.7099 4.29021V4.32021Z" fill="#141414"/>
</svg>
