<svg width="24" height="24" viewBox="0 0 24 24" fill="none" xmlns="http://www.w3.org/2000/svg">
<path d="M11 5.0002H13C13.2652 5.0002 13.5196 4.89484 13.7071 4.7073C13.8946 4.51977 14 4.26541 14 4.0002C14 3.73498 13.8946 3.48063 13.7071 3.29309C13.5196 3.10556 13.2652 3.0002 13 3.0002H11C10.7348 3.0002 10.4804 3.10556 10.2929 3.29309C10.1054 3.48063 10 3.73498 10 4.0002C10 4.26541 10.1054 4.51977 10.2929 4.7073C10.4804 4.89484 10.7348 5.0002 11 5.0002ZM4 14.0002C4.26522 14.0002 4.51957 13.8948 4.70711 13.7073C4.89464 13.5198 5 13.2654 5 13.0002V11.0002C5 10.735 4.89464 10.4806 4.70711 10.2931C4.51957 10.1056 4.26522 10.0002 4 10.0002C3.73478 10.0002 3.48043 10.1056 3.29289 10.2931C3.10536 10.4806 3 10.735 3 11.0002V13.0002C3 13.2654 3.10536 13.5198 3.29289 13.7073C3.48043 13.8948 3.73478 14.0002 4 14.0002ZM13 19.0002H11C10.7348 19.0002 10.4804 19.1056 10.2929 19.2931C10.1054 19.4806 10 19.735 10 20.0002C10 20.2654 10.1054 20.5198 10.2929 20.7073C10.4804 20.8948 10.7348 21.0002 11 21.0002H13C13.2652 21.0002 13.5196 20.8948 13.7071 20.7073C13.8946 20.5198 14 20.2654 14 20.0002C14 19.735 13.8946 19.4806 13.7071 19.2931C13.5196 19.1056 13.2652 19.0002 13 19.0002ZM16.6 15.2002L12.34 12.0002L16.6 8.8002C16.8122 8.64107 16.9524 8.40417 16.99 8.14162C17.0275 7.87907 16.9591 7.61237 16.8 7.4002C16.6409 7.18803 16.404 7.04776 16.1414 7.01025C15.8789 6.97274 15.6122 7.04107 15.4 7.2002L10.68 10.7502L7.68 8.4902C7.84107 8.38098 7.99171 8.25712 8.13 8.1202C8.54993 7.70079 8.83602 7.16625 8.95208 6.5842C9.06814 6.00216 9.00895 5.39877 8.782 4.85037C8.55504 4.30197 8.17053 3.83322 7.6771 3.50341C7.18367 3.1736 6.6035 2.99756 6.01 2.99756C5.4165 2.99756 4.83633 3.1736 4.3429 3.50341C3.84947 3.83322 3.46496 4.30197 3.238 4.85037C3.01105 5.39877 2.95186 6.00216 3.06792 6.5842C3.18398 7.16625 3.47007 7.70079 3.89 8.1202C4.05061 8.27935 4.22836 8.42021 4.42 8.5402L9 12.0002L4.41 15.4602C4.21836 15.5802 4.04061 15.721 3.88 15.8802C3.3182 16.4427 3.00264 17.2052 3.00264 18.0002C3.00264 18.7952 3.3182 19.5577 3.88 20.1202C4.4425 20.682 5.205 20.9976 6 20.9976C6.795 20.9976 7.5575 20.682 8.12 20.1202C8.6818 19.5577 8.99736 18.7952 8.99736 18.0002C8.99736 17.2052 8.6818 16.4427 8.12 15.8802C7.98171 15.7433 7.83107 15.6194 7.67 15.5102L10.67 13.2502L15.4 16.8002C15.5731 16.93 15.7836 17.0002 16 17.0002C16.1552 17.0002 16.3084 16.9641 16.4472 16.8946C16.5861 16.8252 16.7069 16.7244 16.8 16.6002C16.8788 16.4951 16.9361 16.3756 16.9687 16.2484C17.0013 16.1212 17.0085 15.9888 16.99 15.8588C16.9714 15.7288 16.9274 15.6037 16.8605 15.4907C16.7936 15.3777 16.7051 15.279 16.6 15.2002ZM6.71 6.7102C6.5217 6.8985 6.2663 7.00429 6 7.00429C5.7337 7.00429 5.4783 6.8985 5.29 6.7102C5.1017 6.52189 4.99591 6.2665 4.99591 6.0002C4.99591 5.7339 5.1017 5.4785 5.29 5.2902C5.38296 5.19647 5.49356 5.12208 5.61542 5.07131C5.73728 5.02054 5.86799 4.9944 6 4.9944C6.13201 4.9944 6.26272 5.02054 6.38458 5.07131C6.50644 5.12208 6.61704 5.19647 6.71 5.2902C6.80373 5.38316 6.87812 5.49376 6.92889 5.61562C6.97966 5.73748 7.0058 5.86819 7.0058 6.0002C7.0058 6.13221 6.97966 6.26292 6.92889 6.38478C6.87812 6.50663 6.80373 6.61724 6.71 6.7102ZM6.71 18.7102C6.5217 18.8985 6.2663 19.0043 6 19.0043C5.7337 19.0043 5.4783 18.8985 5.29 18.7102C5.1017 18.5219 4.99591 18.2665 4.99591 18.0002C4.99591 17.7339 5.1017 17.4785 5.29 17.2902C5.38296 17.1965 5.49356 17.1221 5.61542 17.0713C5.73728 17.0205 5.86799 16.9944 6 16.9944C6.13201 16.9944 6.26272 17.0205 6.38458 17.0713C6.50644 17.1221 6.61704 17.1965 6.71 17.2902C6.80373 17.3832 6.87812 17.4938 6.92889 17.6156C6.97966 17.7375 7.0058 17.8682 7.0058 18.0002C7.0058 18.1322 6.97966 18.2629 6.92889 18.3848C6.87812 18.5066 6.80373 18.6172 6.71 18.7102ZM18 3.0002H17C16.7348 3.0002 16.4804 3.10556 16.2929 3.29309C16.1054 3.48063 16 3.73498 16 4.0002C16 4.26541 16.1054 4.51977 16.2929 4.7073C16.4804 4.89484 16.7348 5.0002 17 5.0002H18C18.2652 5.0002 18.5196 5.10556 18.7071 5.29309C18.8946 5.48063 19 5.73498 19 6.0002V7.0002C19 7.26541 19.1054 7.51977 19.2929 7.7073C19.4804 7.89484 19.7348 8.0002 20 8.0002C20.2652 8.0002 20.5196 7.89484 20.7071 7.7073C20.8946 7.51977 21 7.26541 21 7.0002V6.0002C21 5.20455 20.6839 4.44149 20.1213 3.87888C19.5587 3.31627 18.7956 3.0002 18 3.0002ZM20 16.0002C19.7348 16.0002 19.4804 16.1056 19.2929 16.2931C19.1054 16.4806 19 16.735 19 17.0002V18.0002C19 18.2654 18.8946 18.5198 18.7071 18.7073C18.5196 18.8948 18.2652 19.0002 18 19.0002H17C16.7348 19.0002 16.4804 19.1056 16.2929 19.2931C16.1054 19.4806 16 19.735 16 20.0002C16 20.2654 16.1054 20.5198 16.2929 20.7073C16.4804 20.8948 16.7348 21.0002 17 21.0002H18C18.7956 21.0002 19.5587 20.6841 20.1213 20.1215C20.6839 19.5589 21 18.7958 21 18.0002V17.0002C21 16.735 20.8946 16.4806 20.7071 16.2931C20.5196 16.1056 20.2652 16.0002 20 16.0002ZM20 10.0002C19.7348 10.0002 19.4804 10.1056 19.2929 10.2931C19.1054 10.4806 19 10.735 19 11.0002V13.0002C19 13.2654 19.1054 13.5198 19.2929 13.7073C19.4804 13.8948 19.7348 14.0002 20 14.0002C20.2652 14.0002 20.5196 13.8948 20.7071 13.7073C20.8946 13.5198 21 13.2654 21 13.0002V11.0002C21 10.735 20.8946 10.4806 20.7071 10.2931C20.5196 10.1056 20.2652 10.0002 20 10.0002Z" fill="#141414"/>
</svg>
