<svg width="24" height="24" viewBox="0 0 24 24" fill="none" xmlns="http://www.w3.org/2000/svg">
<path d="M18.75 7.99989H18.66C20.93 6.04989 21 4.22989 21 3.99989C20.999 3.80246 20.9396 3.60974 20.8293 3.44602C20.719 3.2823 20.5626 3.15491 20.38 3.07989C20.1979 3.00331 19.9972 2.98238 19.8032 3.01976C19.6092 3.05713 19.4306 3.15113 19.29 3.28989C18.445 4.0813 17.4963 4.75413 16.47 5.28989C15.4993 4.46818 14.2718 4.01184 13 3.99989H11C9.7295 4.00903 8.50212 4.46179 7.53001 5.27989C6.5037 4.74413 5.55501 4.0713 4.71001 3.27989C4.56939 3.14113 4.39082 3.04713 4.19683 3.00976C4.00284 2.97238 3.80212 2.99331 3.62001 3.06989C3.43582 3.14555 3.27841 3.27449 3.16795 3.44018C3.05749 3.60586 2.99902 3.80076 3.00001 3.99989C3.00001 4.22989 3.07001 6.04989 5.34001 7.99989H5.25001C4.65328 7.99989 4.08098 8.23694 3.65902 8.6589C3.23707 9.08085 3.00001 9.65315 3.00001 10.2499C3.0026 10.448 3.08245 10.6373 3.22255 10.7774C3.36264 10.9174 3.55191 10.9973 3.75001 10.9999H5.25001C5.50642 10.999 5.76054 10.9515 6.00001 10.8599V13.9999C6.86273 13.3455 7.91722 12.994 9.00001 12.9999H15C16.0828 12.994 17.1373 13.3455 18 13.9999V10.8599C18.2395 10.9515 18.4936 10.999 18.75 10.9999H20.25C20.4481 10.9973 20.6374 10.9174 20.7775 10.7774C20.9176 10.6373 20.9974 10.448 21 10.2499C21 9.65315 20.763 9.08085 20.341 8.6589C19.919 8.23694 19.3468 7.99989 18.75 7.99989ZM9.00001 10.9999C8.80223 10.9999 8.60889 10.9412 8.44444 10.8314C8.27999 10.7215 8.15182 10.5653 8.07613 10.3826C8.00045 10.1998 7.98064 9.99878 8.01923 9.8048C8.05781 9.61081 8.15305 9.43263 8.29291 9.29278C8.43276 9.15293 8.61094 9.05769 8.80492 9.0191C8.9989 8.98052 9.19997 9.00032 9.3827 9.07601C9.56542 9.15169 9.7216 9.27987 9.83148 9.44431C9.94136 9.60876 10 9.8021 10 9.99989C10 10.2651 9.89466 10.5195 9.70712 10.707C9.51958 10.8945 9.26523 10.9999 9.00001 10.9999ZM15 10.9999C14.8022 10.9999 14.6089 10.9412 14.4444 10.8314C14.28 10.7215 14.1518 10.5653 14.0761 10.3826C14.0004 10.1998 13.9806 9.99878 14.0192 9.8048C14.0578 9.61081 14.1531 9.43263 14.2929 9.29278C14.4328 9.15293 14.6109 9.05769 14.8049 9.0191C14.9989 8.98052 15.2 9.00032 15.3827 9.07601C15.5654 9.15169 15.7216 9.27987 15.8315 9.44431C15.9414 9.60876 16 9.8021 16 9.99989C16 10.2651 15.8947 10.5195 15.7071 10.707C15.5196 10.8945 15.2652 10.9999 15 10.9999ZM15 14.9999H9.00001C8.20436 14.9999 7.4413 15.316 6.87869 15.8786C6.31608 16.4412 6.00001 17.2042 6.00001 17.9999C6.00001 18.7955 6.31608 19.5586 6.87869 20.1212C7.4413 20.6838 8.20436 20.9999 9.00001 20.9999H15C15.7957 20.9999 16.5587 20.6838 17.1213 20.1212C17.6839 19.5586 18 18.7955 18 17.9999C18 17.2042 17.6839 16.4412 17.1213 15.8786C16.5587 15.316 15.7957 14.9999 15 14.9999Z" fill="#141414"/>
</svg>
