<svg width="24" height="24" viewBox="0 0 24 24" fill="none" xmlns="http://www.w3.org/2000/svg">
<path d="M20 10H17.59L16.22 7.54C15.96 7.07326 15.58 6.68443 15.1194 6.41369C14.6588 6.14295 14.1343 6.00014 13.6 6H8.46C7.93306 5.99966 7.41533 6.13812 6.95891 6.40144C6.50249 6.66477 6.12347 7.04366 5.86 7.5L4.39 10.06C3.71423 10.2003 3.10751 10.5694 2.67214 11.105C2.23677 11.6405 1.99939 12.3098 2 13V14C2 14.5304 2.21071 15.0391 2.58579 15.4142C2.96086 15.7893 3.46957 16 4 16H4.18C4.39021 16.5792 4.77363 17.0795 5.27817 17.4332C5.7827 17.7868 6.38388 17.9765 7 17.9765C7.61612 17.9765 8.2173 17.7868 8.72184 17.4332C9.22637 17.0795 9.6098 16.5792 9.82 16H14.18C14.3902 16.5792 14.7736 17.0795 15.2782 17.4332C15.7827 17.7868 16.3839 17.9765 17 17.9765C17.6161 17.9765 18.2173 17.7868 18.7218 17.4332C19.2264 17.0795 19.6098 16.5792 19.82 16H20C20.5304 16 21.0391 15.7893 21.4142 15.4142C21.7893 15.0391 22 14.5304 22 14V12C22 11.4696 21.7893 10.9609 21.4142 10.5858C21.0391 10.2107 20.5304 10 20 10ZM7 16C6.80222 16 6.60888 15.9414 6.44443 15.8315C6.27998 15.7216 6.15181 15.5654 6.07612 15.3827C6.00043 15.2 5.98063 14.9989 6.01922 14.8049C6.0578 14.6109 6.15304 14.4327 6.29289 14.2929C6.43275 14.153 6.61093 14.0578 6.80491 14.0192C6.99889 13.9806 7.19996 14.0004 7.38268 14.0761C7.56541 14.1518 7.72159 14.28 7.83147 14.4444C7.94135 14.6089 8 14.8022 8 15C8 15.2652 7.89464 15.5196 7.70711 15.7071C7.51957 15.8946 7.26522 16 7 16ZM9 10H7L7.72 8.55C7.80386 8.38357 7.93257 8.24388 8.09159 8.14669C8.25062 8.04951 8.43364 7.9987 8.62 8H9V10ZM11 10V8H13.38C13.5664 7.9987 13.7494 8.04951 13.9084 8.14669C14.0674 8.24388 14.1961 8.38357 14.28 8.55L15 10H11ZM17 16C16.8022 16 16.6089 15.9414 16.4444 15.8315C16.28 15.7216 16.1518 15.5654 16.0761 15.3827C16.0004 15.2 15.9806 14.9989 16.0192 14.8049C16.0578 14.6109 16.153 14.4327 16.2929 14.2929C16.4327 14.153 16.6109 14.0578 16.8049 14.0192C16.9989 13.9806 17.2 14.0004 17.3827 14.0761C17.5654 14.1518 17.7216 14.28 17.8315 14.4444C17.9414 14.6089 18 14.8022 18 15C18 15.2652 17.8946 15.5196 17.7071 15.7071C17.5196 15.8946 17.2652 16 17 16Z" fill="#141414"/>
</svg>
