<svg width="24" height="24" viewBox="0 0 24 24" fill="none" xmlns="http://www.w3.org/2000/svg">
<path d="M17 19.9999H7C6.73478 19.9999 6.48043 20.1052 6.29289 20.2928C6.10536 20.4803 6 20.7347 6 20.9999C6 21.2651 6.10536 21.5195 6.29289 21.707C6.48043 21.8945 6.73478 21.9999 7 21.9999H17C17.2652 21.9999 17.5196 21.8945 17.7071 21.707C17.8946 21.5195 18 21.2651 18 20.9999C18 20.7347 17.8946 20.4803 17.7071 20.2928C17.5196 20.1052 17.2652 19.9999 17 19.9999ZM17 4.99988C16.86 4.99988 16.73 4.99988 16.6 4.99988C16.2158 4.09793 15.5749 3.32884 14.757 2.78826C13.9391 2.24769 12.9804 1.95947 12 1.95947C11.0196 1.95947 10.0609 2.24769 9.24301 2.78826C8.42513 3.32884 7.78423 4.09793 7.4 4.99988C7.27 4.99988 7.14 4.99988 7 4.99988C5.76005 4.99863 4.56387 5.45816 3.64367 6.28925C2.72347 7.12035 2.1449 8.26371 2.02029 9.49739C1.89568 10.7311 2.2339 11.967 2.96931 12.9654C3.70472 13.9637 4.78485 14.6531 6 14.8999V16.9999C6 17.2651 6.10536 17.5195 6.29289 17.707C6.48043 17.8945 6.73478 17.9999 7 17.9999H17C17.2652 17.9999 17.5196 17.8945 17.7071 17.707C17.8946 17.5195 18 17.2651 18 16.9999V14.8999C19.2152 14.6531 20.2953 13.9637 21.0307 12.9654C21.7661 11.967 22.1043 10.7311 21.9797 9.49739C21.8551 8.26371 21.2765 7.12035 20.3563 6.28925C19.4361 5.45816 18.24 4.99863 17 4.99988Z" fill="#141414"/>
</svg>
