<svg width="24" height="24" viewBox="0 0 24 24" fill="none" xmlns="http://www.w3.org/2000/svg">
<path d="M5 7.99994H16.59L16.29 8.28994C16.1963 8.3829 16.1219 8.49351 16.0711 8.61536C16.0203 8.73722 15.9942 8.86793 15.9942 8.99994C15.9942 9.13195 16.0203 9.26266 16.0711 9.38452C16.1219 9.50638 16.1963 9.61698 16.29 9.70994C16.383 9.80367 16.4936 9.87806 16.6154 9.92883C16.7373 9.9796 16.868 10.0057 17 10.0057C17.132 10.0057 17.2627 9.9796 17.3846 9.92883C17.5064 9.87806 17.617 9.80367 17.71 9.70994L19.71 7.70994C19.8037 7.61698 19.8781 7.50638 19.9289 7.38452C19.9797 7.26266 20.0058 7.13195 20.0058 6.99994C20.0058 6.86793 19.9797 6.73722 19.9289 6.61536C19.8781 6.49351 19.8037 6.3829 19.71 6.28994L17.71 4.28994C17.6168 4.1967 17.5061 4.12274 17.3842 4.07228C17.2624 4.02182 17.1319 3.99585 17 3.99585C16.7337 3.99585 16.4783 4.10164 16.29 4.28994C16.1017 4.47825 15.9959 4.73364 15.9959 4.99994C15.9959 5.26624 16.1017 5.52164 16.29 5.70994L16.59 5.99994H5C4.73478 5.99994 4.48043 6.1053 4.29289 6.29283C4.10536 6.48037 4 6.73472 4 6.99994C4 7.26516 4.10536 7.51951 4.29289 7.70705C4.48043 7.89458 4.73478 7.99994 5 7.99994ZM7 13.9999H5C4.73478 13.9999 4.48043 14.1053 4.29289 14.2928C4.10536 14.4804 4 14.7347 4 14.9999V20.9999C4 21.2652 4.10536 21.5195 4.29289 21.707C4.48043 21.8946 4.73478 21.9999 5 21.9999H7C7.26522 21.9999 7.51957 21.8946 7.70711 21.707C7.89464 21.5195 8 21.2652 8 20.9999V14.9999C8 14.7347 7.89464 14.4804 7.70711 14.2928C7.51957 14.1053 7.26522 13.9999 7 13.9999ZM13 13.9999H11C10.7348 13.9999 10.4804 14.1053 10.2929 14.2928C10.1054 14.4804 10 14.7347 10 14.9999V20.9999C10 21.2652 10.1054 21.5195 10.2929 21.707C10.4804 21.8946 10.7348 21.9999 11 21.9999H13C13.2652 21.9999 13.5196 21.8946 13.7071 21.707C13.8946 21.5195 14 21.2652 14 20.9999V14.9999C14 14.7347 13.8946 14.4804 13.7071 14.2928C13.5196 14.1053 13.2652 13.9999 13 13.9999ZM19 13.9999H17C16.7348 13.9999 16.4804 14.1053 16.2929 14.2928C16.1054 14.4804 16 14.7347 16 14.9999V20.9999C16 21.2652 16.1054 21.5195 16.2929 21.707C16.4804 21.8946 16.7348 21.9999 17 21.9999H19C19.2652 21.9999 19.5196 21.8946 19.7071 21.707C19.8946 21.5195 20 21.2652 20 20.9999V14.9999C20 14.7347 19.8946 14.4804 19.7071 14.2928C19.5196 14.1053 19.2652 13.9999 19 13.9999Z" fill="#141414"/>
</svg>
