<svg width="24" height="24" viewBox="0 0 24 24" fill="none" xmlns="http://www.w3.org/2000/svg">
<path d="M13.9999 17.0002C13.8683 17.0009 13.7379 16.9757 13.616 16.926C13.4942 16.8762 13.3834 16.8029 13.2899 16.7102L9.28994 12.7102C9.19621 12.6172 9.12182 12.5066 9.07105 12.3848C9.02028 12.2629 8.99414 12.1322 8.99414 12.0002C8.99414 11.8682 9.02028 11.7375 9.07105 11.6156C9.12182 11.4937 9.19621 11.3831 9.28994 11.2902L13.2899 7.29019C13.3832 7.19695 13.4939 7.12299 13.6157 7.07253C13.7375 7.02207 13.8681 6.99609 13.9999 6.99609C14.1318 6.99609 14.2624 7.02207 14.3842 7.07253C14.506 7.12299 14.6167 7.19695 14.7099 7.29019C14.8032 7.38342 14.8771 7.49411 14.9276 7.61594C14.9781 7.73776 15.004 7.86833 15.004 8.00019C15.004 8.13204 14.9781 8.26261 14.9276 8.38444C14.8771 8.50626 14.8032 8.61695 14.7099 8.71019L11.4099 12.0002L14.7099 15.2902C14.8037 15.3831 14.8781 15.4937 14.9288 15.6156C14.9796 15.7375 15.0057 15.8682 15.0057 16.0002C15.0057 16.1322 14.9796 16.2629 14.9288 16.3848C14.8781 16.5066 14.8037 16.6172 14.7099 16.7102C14.6165 16.8029 14.5057 16.8762 14.3838 16.926C14.262 16.9757 14.1315 17.0009 13.9999 17.0002Z" fill="#141414"/>
</svg>
