<svg width="24" height="24" viewBox="0 0 24 24" fill="none" xmlns="http://www.w3.org/2000/svg">
<path d="M8.5 19C8.20333 19 7.91332 19.088 7.66664 19.2528C7.41997 19.4176 7.22771 19.6519 7.11418 19.926C7.00065 20.2001 6.97094 20.5017 7.02882 20.7927C7.0867 21.0836 7.22956 21.3509 7.43934 21.5607C7.64912 21.7705 7.91639 21.9133 8.20736 21.9712C8.49834 22.0291 8.79994 21.9994 9.07403 21.8858C9.34811 21.7723 9.58238 21.58 9.7472 21.3334C9.91203 21.0867 10 20.7967 10 20.5C10 20.1022 9.84196 19.7207 9.56066 19.4394C9.27936 19.1581 8.89782 19 8.5 19ZM17.5 19C17.2033 19 16.9133 19.088 16.6666 19.2528C16.42 19.4176 16.2277 19.6519 16.1142 19.926C16.0007 20.2001 15.9709 20.5017 16.0288 20.7927C16.0867 21.0836 16.2296 21.3509 16.4393 21.5607C16.6491 21.7705 16.9164 21.9133 17.2074 21.9712C17.4983 22.0291 17.7999 21.9994 18.074 21.8858C18.3481 21.7723 18.5824 21.58 18.7472 21.3334C18.912 21.0867 19 20.7967 19 20.5C19 20.1022 18.842 19.7207 18.5607 19.4394C18.2794 19.1581 17.8978 19 17.5 19ZM21.62 6.83002C21.4349 6.57338 21.1915 6.36433 20.9099 6.22004C20.6283 6.07575 20.3164 6.00035 20 6.00002H6.58L6.17 4.48002C6.05525 4.05384 5.80275 3.67759 5.45185 3.40989C5.10095 3.14219 4.67135 2.99808 4.23 3.00002H3C2.73478 3.00002 2.48043 3.10538 2.29289 3.29291C2.10536 3.48045 2 3.7348 2 4.00002C2 4.26524 2.10536 4.51959 2.29289 4.70713C2.48043 4.89466 2.73478 5.00002 3 5.00002H4.23L7.06 15.48C7.1672 15.9136 7.41646 16.2989 7.76805 16.5743C8.11965 16.8498 8.55334 16.9997 9 17H17.67C18.0888 16.9983 18.4965 16.8652 18.8356 16.6194C19.1747 16.3736 19.4281 16.0275 19.56 15.63L21.9 8.63002C21.9992 8.32925 22.0255 8.00923 21.9768 7.69629C21.9282 7.38335 21.8059 7.08645 21.62 6.83002Z" fill="#141414"/>
</svg>
