<svg width="24" height="24" viewBox="0 0 24 24" fill="none" xmlns="http://www.w3.org/2000/svg">
<path d="M18 4.28V3C18 2.73478 17.8946 2.48043 17.7071 2.29289C17.5195 2.10536 17.2652 2 17 2H6.99998C6.73476 2 6.48041 2.10536 6.29287 2.29289C6.10533 2.48043 5.99998 2.73478 5.99998 3V4.28C5.09844 4.59053 4.32015 5.18181 3.7793 5.9671C3.23845 6.7524 2.96352 7.69036 2.99484 8.64336C3.02616 9.59637 3.36208 10.5142 3.95332 11.2623C4.54456 12.0104 5.35999 12.5493 6.27998 12.8C6.61232 13.8531 7.22884 14.794 8.06164 15.5192C8.89443 16.2443 9.9112 16.7256 11 16.91V20H8.99998C8.73476 20 8.48041 20.1054 8.29287 20.2929C8.10533 20.4804 7.99998 20.7348 7.99998 21C7.99998 21.2652 8.10533 21.5196 8.29287 21.7071C8.48041 21.8946 8.73476 22 8.99998 22H15C15.2652 22 15.5195 21.8946 15.7071 21.7071C15.8946 21.5196 16 21.2652 16 21C16 20.7348 15.8946 20.4804 15.7071 20.2929C15.5195 20.1054 15.2652 20 15 20H13V16.91C14.0887 16.7256 15.1055 16.2443 15.9383 15.5192C16.7711 14.794 17.3876 13.8531 17.72 12.8C18.64 12.5493 19.4554 12.0104 20.0466 11.2623C20.6379 10.5142 20.9738 9.59637 21.0051 8.64336C21.0364 7.69036 20.7615 6.7524 20.2207 5.9671C19.6798 5.18181 18.9015 4.59053 18 4.28ZM5.99998 10.49C5.68395 10.261 5.4267 9.96031 5.24931 9.61267C5.07191 9.26502 4.97943 8.88029 4.97943 8.49C4.97943 8.09971 5.07191 7.71498 5.24931 7.36733C5.4267 7.01969 5.68395 6.71903 5.99998 6.49V10.49ZM13.8 8.49L13.23 9L13.37 9.79C13.3835 9.86229 13.3807 9.93671 13.3615 10.0077C13.3424 10.0788 13.3075 10.1446 13.2595 10.2003C13.2115 10.256 13.1515 10.3002 13.0841 10.3296C13.0167 10.3589 12.9435 10.3728 12.87 10.37C12.7894 10.3705 12.7101 10.3498 12.64 10.31L11.94 9.94L11.23 10.31C11.152 10.3588 11.0619 10.3847 10.97 10.3847C10.878 10.3847 10.7879 10.3588 10.71 10.31C10.635 10.2544 10.5767 10.1794 10.5414 10.093C10.5062 10.0066 10.4953 9.91216 10.51 9.82L10.64 9L10.07 8.45C10.0235 8.38589 9.99294 8.31167 9.98077 8.23343C9.9686 8.1552 9.97518 8.07519 9.99998 8C10.0253 7.90996 10.0768 7.82951 10.1481 7.76895C10.2193 7.70838 10.307 7.67045 10.4 7.66L11.19 7.54L11.54 6.83C11.5863 6.75341 11.6516 6.69006 11.7295 6.64609C11.8075 6.60213 11.8955 6.57903 11.985 6.57903C12.0745 6.57903 12.1625 6.60213 12.2404 6.64609C12.3184 6.69006 12.3837 6.75341 12.43 6.83L12.79 7.54L13.57 7.66C13.6634 7.67227 13.7515 7.71071 13.824 7.77086C13.8966 7.83102 13.9506 7.91045 13.98 8C13.9934 8.08575 13.9838 8.17352 13.9522 8.25434C13.9206 8.33516 13.868 8.40614 13.8 8.46V8.49ZM18 10.49V6.49C18.316 6.71903 18.5733 7.01969 18.7506 7.36733C18.928 7.71498 19.0205 8.09971 19.0205 8.49C19.0205 8.88029 18.928 9.26502 18.7506 9.61267C18.5733 9.96031 18.316 10.261 18 10.49Z" fill="#141414"/>
</svg>
