<svg width="24" height="24" viewBox="0 0 24 24" fill="none" xmlns="http://www.w3.org/2000/svg">
<path d="M13 11H11C10.7348 11 10.4804 11.1054 10.2929 11.2929C10.1054 11.4804 10 11.7348 10 12V21C10 21.2652 10.1054 21.5196 10.2929 21.7071C10.4804 21.8946 10.7348 22 11 22H13C13.2652 22 13.5196 21.8946 13.7071 21.7071C13.8946 21.5196 14 21.2652 14 21V12C14 11.7348 13.8946 11.4804 13.7071 11.2929C13.5196 11.1054 13.2652 11 13 11ZM7 15H5C4.73478 15 4.48043 15.1054 4.29289 15.2929C4.10536 15.4804 4 15.7348 4 16V21C4 21.2652 4.10536 21.5196 4.29289 21.7071C4.48043 21.8946 4.73478 22 5 22H7C7.26522 22 7.51957 21.8946 7.70711 21.7071C7.89464 21.5196 8 21.2652 8 21V16C8 15.7348 7.89464 15.4804 7.70711 15.2929C7.51957 15.1054 7.26522 15 7 15ZM10.71 6.29C10.617 6.19627 10.5064 6.12188 10.3846 6.07111C10.2627 6.02034 10.132 5.9942 10 5.9942C9.86799 5.9942 9.73728 6.02034 9.61542 6.07111C9.49356 6.12188 9.38296 6.19627 9.29 6.29L8.29 7.29C8.19627 7.38296 8.12188 7.49356 8.07111 7.61542C8.02034 7.73728 7.9942 7.86799 7.9942 8C7.9942 8.13201 8.02034 8.26272 8.07111 8.38458C8.12188 8.50644 8.19627 8.61704 8.29 8.71C8.38296 8.80373 8.49356 8.87812 8.61542 8.92889C8.73728 8.97966 8.86799 9.0058 9 9.0058C9.13201 9.0058 9.26272 8.97966 9.38458 8.92889C9.50644 8.87812 9.61704 8.80373 9.71 8.71L10.71 7.71C10.8037 7.61704 10.8781 7.50644 10.9289 7.38458C10.9797 7.26272 11.0058 7.13201 11.0058 7C11.0058 6.86799 10.9797 6.73728 10.9289 6.61542C10.8781 6.49356 10.8037 6.38296 10.71 6.29ZM19 7H17C16.7348 7 16.4804 7.10536 16.2929 7.29289C16.1054 7.48043 16 7.73478 16 8V21C16 21.2652 16.1054 21.5196 16.2929 21.7071C16.4804 21.8946 16.7348 22 17 22H19C19.2652 22 19.5196 21.8946 19.7071 21.7071C19.8946 21.5196 20 21.2652 20 21V8C20 7.73478 19.8946 7.48043 19.7071 7.29289C19.5196 7.10536 19.2652 7 19 7ZM9 2C7.67392 2 6.40215 2.52678 5.46447 3.46447C4.52678 4.40215 4 5.67392 4 7C4 7.26522 4.10536 7.51957 4.29289 7.70711C4.48043 7.89464 4.73478 8 5 8C5.26522 8 5.51957 7.89464 5.70711 7.70711C5.89464 7.51957 6 7.26522 6 7C6 6.20435 6.31607 5.44129 6.87868 4.87868C7.44129 4.31607 8.20435 4 9 4C9.79565 4 10.5587 4.31607 11.1213 4.87868C11.6839 5.44129 12 6.20435 12 7C12 7.26522 12.1054 7.51957 12.2929 7.70711C12.4804 7.89464 12.7348 8 13 8C13.2652 8 13.5196 7.89464 13.7071 7.70711C13.8946 7.51957 14 7.26522 14 7C14 6.34339 13.8707 5.69321 13.6194 5.08658C13.3681 4.47995 12.9998 3.92876 12.5355 3.46447C12.0712 3.00017 11.52 2.63188 10.9134 2.3806C10.3068 2.12933 9.65661 2 9 2Z" fill="#141414"/>
</svg>
