<svg width="24" height="24" viewBox="0 0 24 24" fill="none" xmlns="http://www.w3.org/2000/svg">
<path d="M16.0002 14.9999C15.8686 15.0007 15.7381 14.9755 15.6163 14.9257C15.4944 14.8759 15.3836 14.8026 15.2902 14.7099L12.0002 11.4099L8.71019 14.7099C8.52188 14.8982 8.26649 15.004 8.00019 15.004C7.73388 15.004 7.47849 14.8982 7.29019 14.7099C7.10188 14.5216 6.99609 14.2662 6.99609 13.9999C6.99609 13.8681 7.02207 13.7375 7.07253 13.6157C7.12299 13.4939 7.19695 13.3832 7.29019 13.2899L11.2902 9.28994C11.3831 9.19621 11.4937 9.12182 11.6156 9.07105C11.7375 9.02028 11.8682 8.99414 12.0002 8.99414C12.1322 8.99414 12.2629 9.02028 12.3848 9.07105C12.5066 9.12182 12.6172 9.19621 12.7102 9.28994L16.7102 13.2899C16.8039 13.3829 16.8783 13.4935 16.9291 13.6154C16.9798 13.7372 17.006 13.8679 17.006 13.9999C17.006 14.132 16.9798 14.2627 16.9291 14.3845C16.8783 14.5064 16.8039 14.617 16.7102 14.7099C16.6167 14.8026 16.5059 14.8759 16.3841 14.9257C16.2623 14.9755 16.1318 15.0007 16.0002 14.9999Z" fill="#141414"/>
</svg>
