<svg width="24" height="24" viewBox="0 0 24 24" fill="none" xmlns="http://www.w3.org/2000/svg">
<path d="M11.12 14H12.88L12 12.24L11.12 14ZM19 7.00003H18.1C17.9318 6.99868 17.7666 6.9549 17.6197 6.87274C17.4729 6.79059 17.3492 6.67271 17.26 6.53003L16.26 4.93003C16.0787 4.64366 15.8275 4.40807 15.5302 4.24539C15.2328 4.08272 14.899 3.99828 14.56 4.00003H9.44C9.10274 3.99998 8.77094 4.08521 8.47547 4.24781C8.17999 4.41041 7.93043 4.64509 7.75 4.93003L6.75 6.53003C6.65993 6.67414 6.53462 6.79292 6.38589 6.87516C6.23717 6.95739 6.06994 7.00037 5.9 7.00003H5C4.20435 7.00003 3.44129 7.3161 2.87868 7.87871C2.31607 8.44132 2 9.20438 2 10V17C2 17.7957 2.31607 18.5587 2.87868 19.1213C3.44129 19.684 4.20435 20 5 20H19C19.7956 20 20.5587 19.684 21.1213 19.1213C21.6839 18.5587 22 17.7957 22 17V10C22 9.20438 21.6839 8.44132 21.1213 7.87871C20.5587 7.3161 19.7956 7.00003 19 7.00003ZM15.45 16.89C15.3117 16.9641 15.1569 17.0019 15 17C14.8153 16.9995 14.6344 16.9478 14.4773 16.8507C14.3202 16.7536 14.1931 16.6149 14.11 16.45L13.88 16H10.12L9.89 16.45C9.75982 16.6664 9.55261 16.8255 9.30999 16.8954C9.06736 16.9653 8.80727 16.9408 8.58194 16.8269C8.35661 16.7129 8.18272 16.518 8.09518 16.2811C8.00764 16.0443 8.01293 15.7831 8.11 15.55L11.11 9.55003C11.1939 9.38622 11.3214 9.24876 11.4784 9.15277C11.6355 9.05678 11.816 9.00599 12 9.00599C12.184 9.00599 12.3645 9.05678 12.5216 9.15277C12.6786 9.24876 12.8061 9.38622 12.89 9.55003L15.89 15.55C16.0086 15.7862 16.0289 16.0597 15.9465 16.3108C15.864 16.5619 15.6855 16.7701 15.45 16.89Z" fill="#141414"/>
</svg>
