<svg width="24" height="24" viewBox="0 0 24 24" fill="none" xmlns="http://www.w3.org/2000/svg">
<path d="M19.12 2.88C18.5579 2.31723 17.7954 2.0007 17 2H7C6.20435 2 5.44129 2.31607 4.87868 2.87868C4.31607 3.44129 4 4.20435 4 5V19C4 19.7956 4.31607 20.5587 4.87868 21.1213C5.44129 21.6839 6.20435 22 7 22H17C17.7956 22 18.5587 21.6839 19.1213 21.1213C19.6839 20.5587 20 19.7956 20 19V5C19.9993 4.20462 19.6828 3.44207 19.12 2.88ZM15.63 18.63C15.5157 18.7477 15.3789 18.8411 15.2277 18.9046C15.0765 18.9682 14.914 19.0007 14.75 19C14.5038 18.9992 14.2633 18.9257 14.0587 18.7887C13.8541 18.6517 13.6945 18.4573 13.6 18.23C13.504 18.0029 13.4762 17.7527 13.52 17.51C13.5724 17.2646 13.6947 17.0396 13.8721 16.8621C14.0496 16.6847 14.2746 16.5624 14.52 16.51C14.7627 16.4662 15.0129 16.494 15.24 16.59C15.467 16.6867 15.6604 16.8485 15.7956 17.0549C15.9309 17.2614 16.002 17.5032 16 17.75C16.0006 17.914 15.9682 18.0765 15.9046 18.2277C15.8411 18.3789 15.7477 18.5157 15.63 18.63ZM15.71 12.71L9.71 18.71C9.61704 18.8037 9.50644 18.8781 9.38458 18.9289C9.26272 18.9797 9.13201 19.0058 9 19.0058C8.86799 19.0058 8.73728 18.9797 8.61542 18.9289C8.49356 18.8781 8.38296 18.8037 8.29 18.71C8.19627 18.617 8.12188 18.5064 8.07111 18.3846C8.02034 18.2627 7.9942 18.132 7.9942 18C7.9942 17.868 8.02034 17.7373 8.07111 17.6154C8.12188 17.4936 8.19627 17.383 8.29 17.29L14.29 11.29C14.4783 11.1017 14.7337 10.9959 15 10.9959C15.2663 10.9959 15.5217 11.1017 15.71 11.29C15.8983 11.4783 16.0041 11.7337 16.0041 12C16.0041 12.2663 15.8983 12.5217 15.71 12.71ZM8 12.25C8.00261 11.9193 8.13515 11.6029 8.36901 11.369C8.60286 11.1351 8.91929 11.0026 9.25 11C9.49621 11.0008 9.7367 11.0743 9.94129 11.2113C10.1459 11.3483 10.3055 11.5427 10.4 11.77C10.496 11.9971 10.5238 12.2473 10.48 12.49C10.4276 12.7354 10.3053 12.9604 10.1279 13.1379C9.95043 13.3153 9.72542 13.4376 9.48 13.49C9.23732 13.5338 8.98714 13.506 8.76 13.41C8.53296 13.3133 8.33963 13.1515 8.20438 12.9451C8.06914 12.7386 7.99802 12.4968 8 12.25ZM17 7C17 7.26522 16.8946 7.51957 16.7071 7.70711C16.5196 7.89464 16.2652 8 16 8H8C7.73478 8 7.48043 7.89464 7.29289 7.70711C7.10536 7.51957 7 7.26522 7 7V6C7 5.73478 7.10536 5.48043 7.29289 5.29289C7.48043 5.10536 7.73478 5 8 5H16C16.2652 5 16.5196 5.10536 16.7071 5.29289C16.8946 5.48043 17 5.73478 17 6V7Z" fill="#141414"/>
</svg>
