<svg width="24" height="24" viewBox="0 0 24 24" fill="none" xmlns="http://www.w3.org/2000/svg">
<path d="M6 16.0002C6 15.4502 5.55 15.0002 5 15.0002H3C2.45 15.0002 2 15.4502 2 16.0002C2 16.5502 2.45 17.0002 3 17.0002H5C5.55 17.0002 6 16.5502 6 16.0002ZM5.29 17.7902L3.79 19.2902C3.4 19.6802 3.4 20.3102 3.79 20.7002C3.99 20.9002 4.24 20.9902 4.5 20.9902C4.76 20.9902 5.01 20.8902 5.21 20.7002L6.71 19.2002C7.1 18.8102 7.1 18.1802 6.71 17.7902C6.32 17.4002 5.69 17.4002 5.3 17.7902H5.29ZM13.5 3.00023C9.91 3.00023 7 5.91023 7 9.50023L5.45 12.9902C5.21 13.5302 5.49 14.1602 6.05 14.3402L8.01 14.9902V15.9902C8.01 17.0902 8.91 17.9902 10.01 17.9902H11.01V19.9902C11.01 20.5402 11.46 20.9902 12.01 20.9902H17.01C17.56 20.9902 18.01 20.5402 18.01 19.9902V14.1702C19.24 12.9902 20.01 11.3302 20.01 9.49023C20.01 5.90023 17.1 2.99023 13.51 2.99023L13.5 3.00023Z" fill="#141414"/>
</svg>
