<svg width="24" height="24" viewBox="0 0 24 24" fill="none" xmlns="http://www.w3.org/2000/svg">
<path d="M19.82 16.11C19.315 16.2076 18.8244 16.3689 18.36 16.59L18 16.74V14.41L20.71 11.71C20.8032 11.6168 20.8772 11.5061 20.9277 11.3842C20.9781 11.2624 21.0041 11.1319 21.0041 11C21.0041 10.8681 20.9781 10.7376 20.9277 10.6158C20.8772 10.4939 20.8032 10.3832 20.71 10.29C20.6168 10.1968 20.5061 10.1228 20.3843 10.0723C20.2624 10.0219 20.1319 9.99591 20 9.99591C19.8681 9.99591 19.7376 10.0219 19.6158 10.0723C19.4939 10.1228 19.3832 10.1968 19.29 10.29L18 11.59V9.41L19.71 7.71C19.8983 7.5217 20.0041 7.2663 20.0041 7C20.0041 6.7337 19.8983 6.4783 19.71 6.29C19.5217 6.1017 19.2663 5.99591 19 5.99591C18.7337 5.99591 18.4783 6.1017 18.29 6.29L18 6.59V4C18 3.73478 17.8946 3.48043 17.7071 3.29289C17.5196 3.10536 17.2652 3 17 3C16.7348 3 16.4804 3.10536 16.2929 3.29289C16.1054 3.48043 16 3.73478 16 4V6.59L15.71 6.29C15.5217 6.1017 15.2663 5.99591 15 5.99591C14.7337 5.99591 14.4783 6.1017 14.29 6.29C14.1017 6.4783 13.9959 6.7337 13.9959 7C13.9959 7.2663 14.1017 7.5217 14.29 7.71L16 9.41V11.59L14.71 10.29C14.5217 10.1017 14.2663 9.99591 14 9.99591C13.7337 9.99591 13.4783 10.1017 13.29 10.29C13.1017 10.4783 12.9959 10.7337 12.9959 11C12.9959 11.2663 13.1017 11.5217 13.29 11.71L16 14.41V17C15.5305 16.9573 15.0729 16.8285 14.65 16.62C13.8302 16.2009 12.9206 15.9881 12 16C11.0786 15.9775 10.1655 16.1801 9.34 16.59C8.9227 16.8088 8.46827 16.9478 8 17V14.41L9.71 12.71C9.8983 12.5217 10.0041 12.2663 10.0041 12C10.0041 11.7337 9.8983 11.4783 9.71 11.29C9.5217 11.1017 9.2663 10.9959 9 10.9959C8.7337 10.9959 8.4783 11.1017 8.29 11.29L8 11.59V9C8 8.73478 7.89464 8.48043 7.70711 8.29289C7.51957 8.10536 7.26522 8 7 8C6.73478 8 6.48043 8.10536 6.29289 8.29289C6.10536 8.48043 6 8.73478 6 9V11.59L5.71 11.29C5.5217 11.1017 5.2663 10.9959 5 10.9959C4.7337 10.9959 4.4783 11.1017 4.29 11.29C4.1017 11.4783 3.99591 11.7337 3.99591 12C3.99591 12.2663 4.1017 12.5217 4.29 12.71L6 14.41V16.74L5.63 16.59C5.16909 16.3689 4.68181 16.2076 4.18 16.11C4.03628 16.0829 3.88837 16.0877 3.74669 16.124C3.60501 16.1602 3.47301 16.2272 3.36 16.32C3.24712 16.414 3.15634 16.5318 3.09412 16.6648C3.0319 16.7979 2.99976 16.9431 3 17.09V20C3 20.2652 3.10536 20.5196 3.29289 20.7071C3.48043 20.8946 3.73478 21 4 21H20C20.2652 21 20.5196 20.8946 20.7071 20.7071C20.8946 20.5196 21 20.2652 21 20V17.09C21.0002 16.9431 20.9681 16.7979 20.9059 16.6648C20.8437 16.5318 20.7529 16.414 20.64 16.32C20.527 16.2272 20.395 16.1602 20.2533 16.124C20.1116 16.0877 19.9637 16.0829 19.82 16.11Z" fill="#141414"/>
</svg>
