<svg width="24" height="24" viewBox="0 0 24 24" fill="none" xmlns="http://www.w3.org/2000/svg">
<path d="M11.9999 7C10.6738 7 9.40202 7.52678 8.46434 8.46447C7.52666 9.40215 6.99987 10.6739 6.99987 12C6.99841 13.0201 7.3128 14.0157 7.89987 14.85C8.05685 15.0525 8.28557 15.187 8.53884 15.2258C8.79211 15.2646 9.0506 15.2047 9.26099 15.0584C9.47137 14.9122 9.6176 14.6908 9.66949 14.4399C9.72138 14.189 9.67499 13.9277 9.53987 13.71C9.22596 13.2603 9.04134 12.7331 9.00608 12.1858C8.97082 11.6385 9.08626 11.092 9.33987 10.6057C9.59347 10.1194 9.97553 9.71194 10.4445 9.4276C10.9135 9.14325 11.4514 8.99291 11.9999 8.99291C12.5483 8.99291 13.0863 9.14325 13.5552 9.4276C14.0242 9.71194 14.4063 10.1194 14.6599 10.6057C14.9135 11.092 15.0289 11.6385 14.9937 12.1858C14.9584 12.7331 14.7738 13.2603 14.4599 13.71C14.3559 13.8599 14.2949 14.0354 14.2835 14.2175C14.2721 14.3995 14.3107 14.5812 14.3951 14.743C14.4796 14.9047 14.6067 15.0402 14.7626 15.1348C14.9186 15.2295 15.0974 15.2797 15.2799 15.28C15.4411 15.2797 15.5999 15.2405 15.7426 15.1656C15.8854 15.0907 16.008 14.9825 16.0999 14.85C16.6869 14.0157 17.0013 13.0201 16.9999 12C16.9999 10.6739 16.4731 9.40215 15.5354 8.46447C14.5977 7.52678 13.326 7 11.9999 7ZM12.7099 15.29C12.6169 15.1963 12.5063 15.1219 12.3845 15.0711C12.2626 15.0203 12.1319 14.9942 11.9999 14.9942C11.8679 14.9942 11.7372 15.0203 11.6153 15.0711C11.4934 15.1219 11.3828 15.1963 11.2899 15.29L7.28987 19.29C7.15112 19.4306 7.05712 19.6092 7.01975 19.8032C6.98237 19.9972 7.00329 20.1979 7.07987 20.38C7.15489 20.5626 7.28229 20.7189 7.44601 20.8293C7.60973 20.9396 7.80245 20.999 7.99987 21H15.9999C16.1973 20.999 16.39 20.9396 16.5537 20.8293C16.7175 20.7189 16.8449 20.5626 16.9199 20.38C16.9965 20.1979 17.0174 19.9972 16.98 19.8032C16.9426 19.6092 16.8486 19.4306 16.7099 19.29L12.7099 15.29ZM11.9999 3C10.2871 2.99975 8.60987 3.48822 7.16509 4.40805C5.7203 5.32788 4.56798 6.64087 3.84346 8.19282C3.11893 9.74477 2.85229 11.4712 3.07484 13.1695C3.2974 14.8677 3.99991 16.4672 5.09987 17.78C5.27094 17.9829 5.51559 18.1095 5.78002 18.132C6.04445 18.1545 6.30698 18.0711 6.50987 17.9C6.71276 17.7289 6.83939 17.4843 6.86189 17.2199C6.8844 16.9554 6.80094 16.6929 6.62987 16.49C5.77577 15.4686 5.23069 14.2247 5.05859 12.9044C4.8865 11.5841 5.09452 10.2422 5.65825 9.03591C6.22199 7.82968 7.11805 6.80923 8.2413 6.09432C9.36456 5.3794 10.6684 4.99967 11.9999 4.99967C13.3313 4.99967 14.6352 5.3794 15.7584 6.09432C16.8817 6.80923 17.7778 7.82968 18.3415 9.03591C18.9052 10.2422 19.1133 11.5841 18.9412 12.9044C18.7691 14.2247 18.224 15.4686 17.3699 16.49C17.2851 16.5904 17.2209 16.7066 17.1811 16.8318C17.1412 16.9571 17.1265 17.0889 17.1376 17.2199C17.1487 17.3508 17.1856 17.4783 17.246 17.595C17.3065 17.7117 17.3893 17.8153 17.4899 17.9C17.6698 18.0491 17.8962 18.1305 18.1299 18.13C18.276 18.1315 18.4207 18.1009 18.5537 18.0404C18.6867 17.9799 18.8049 17.8911 18.8999 17.78C19.9998 16.4672 20.7023 14.8677 20.9249 13.1695C21.1475 11.4712 20.8808 9.74477 20.1563 8.19282C19.4318 6.64087 18.2794 5.32788 16.8347 4.40805C15.3899 3.48822 13.7126 2.99975 11.9999 3Z" fill="#141414"/>
</svg>
