<svg width="24" height="24" viewBox="0 0 24 24" fill="none" xmlns="http://www.w3.org/2000/svg">
<path d="M20.6399 16.32C20.5269 16.2272 20.3949 16.1602 20.2532 16.124C20.1115 16.0877 19.9636 16.0829 19.8199 16.11C19.3149 16.2076 18.8243 16.3689 18.3599 16.59L17.9999 16.74V13.88C18.7564 13.6647 19.4378 13.2428 19.9678 12.6617C20.4977 12.0805 20.8551 11.3631 20.9999 10.59C21.0142 10.5178 21.0117 10.4433 20.9927 10.3722C20.9736 10.3011 20.9384 10.2353 20.8899 10.18C20.8428 10.1223 20.7832 10.0762 20.7157 10.045C20.6481 10.0138 20.5743 9.99841 20.4999 10C19.5908 9.97997 18.7043 10.2849 17.9999 10.86V8.86C18.7564 8.64473 19.4378 8.22282 19.9678 7.64165C20.4977 7.06048 20.8551 6.34307 20.9999 5.57C21.0142 5.4978 21.0117 5.42327 20.9927 5.35218C20.9736 5.28109 20.9384 5.21533 20.8899 5.16C20.8409 5.10599 20.7804 5.0636 20.713 5.03592C20.6455 5.00824 20.5727 4.99597 20.4999 5C19.5908 4.97997 18.7043 5.28491 17.9999 5.86V4C17.9999 3.73478 17.8945 3.48043 17.707 3.29289C17.5195 3.10536 17.2651 3 16.9999 3C16.7347 3 16.4803 3.10536 16.2928 3.29289C16.1052 3.48043 15.9999 3.73478 15.9999 4V5.86C15.2955 5.28491 14.409 4.97997 13.4999 5C13.4272 4.99992 13.3553 5.01603 13.2896 5.04717C13.2239 5.0783 13.1659 5.12368 13.1199 5.18C13.0713 5.23533 13.0362 5.30109 13.0171 5.37218C12.998 5.44327 12.9956 5.5178 13.0099 5.59C13.1546 6.36307 13.512 7.08048 14.042 7.66165C14.5719 8.24282 15.2534 8.66473 16.0099 8.88V10.88C15.3057 10.2955 14.415 9.98318 13.4999 10C13.4272 9.99992 13.3553 10.016 13.2896 10.0472C13.2239 10.0783 13.1659 10.1237 13.1199 10.18C13.0713 10.2353 13.0362 10.3011 13.0171 10.3722C12.998 10.4433 12.9956 10.5178 13.0099 10.59C13.1546 11.3631 13.512 12.0805 14.042 12.6617C14.5719 13.2428 15.2534 13.6647 16.0099 13.88V17C15.5407 16.9557 15.0833 16.827 14.6599 16.62C13.8371 16.1993 12.9239 15.9864 11.9999 16C11.0784 15.9775 10.1654 16.1801 9.33988 16.59C8.92259 16.8088 8.46815 16.9478 7.99988 17V14.88C8.75636 14.6647 9.43784 14.2428 9.96778 13.6617C10.4977 13.0805 10.8551 12.3631 10.9999 11.59C11.0142 11.5178 11.0117 11.4433 10.9927 11.3722C10.9736 11.3011 10.9384 11.2353 10.8899 11.18C10.8428 11.1223 10.7832 11.0762 10.7157 11.045C10.6481 11.0138 10.5743 10.9984 10.4999 11C9.59075 10.98 8.70429 11.2849 7.99988 11.86V9.86C8.75636 9.64473 9.43784 9.22282 9.96778 8.64165C10.4977 8.06048 10.8551 7.34307 10.9999 6.57C11.0142 6.4978 11.0117 6.42327 10.9927 6.35218C10.9736 6.28109 10.9384 6.21533 10.8899 6.16C10.8409 6.10599 10.7804 6.0636 10.713 6.03592C10.6455 6.00824 10.5727 5.99597 10.4999 6C9.59075 5.97997 8.70429 6.28491 7.99988 6.86V5C7.99988 4.73478 7.89453 4.48043 7.70699 4.29289C7.51945 4.10536 7.2651 4 6.99988 4C6.73467 4 6.48031 4.10536 6.29278 4.29289C6.10524 4.48043 5.99988 4.73478 5.99988 5V6.86C5.29548 6.28491 4.40902 5.97997 3.49988 6C3.42716 5.99992 3.35532 6.01603 3.2896 6.04717C3.22387 6.0783 3.1659 6.12368 3.11988 6.18C3.06959 6.23444 3.03258 6.29978 3.01176 6.37091C2.99094 6.44205 2.98687 6.51703 2.99988 6.59C3.14463 7.36307 3.50205 8.08048 4.03199 8.66165C4.56193 9.24282 5.24341 9.66473 5.99988 9.88V11.88C5.29827 11.2977 4.41153 10.9856 3.49988 11C3.42716 10.9999 3.35532 11.016 3.2896 11.0472C3.22387 11.0783 3.1659 11.1237 3.11988 11.18C3.07134 11.2353 3.03617 11.3011 3.0171 11.3722C2.99802 11.4433 2.99556 11.5178 3.00988 11.59C3.15463 12.3631 3.51205 13.0805 4.04199 13.6617C4.57193 14.2428 5.25341 14.6647 6.00988 14.88V16.74L5.63988 16.59C5.17897 16.3689 4.69169 16.2076 4.18988 16.11C4.04616 16.0829 3.89825 16.0877 3.75657 16.124C3.61489 16.1602 3.48289 16.2272 3.36988 16.32C3.257 16.414 3.16622 16.5318 3.104 16.6648C3.04178 16.7979 3.00965 16.9431 3.00988 17.09V20C3.00988 20.2652 3.11524 20.5196 3.30278 20.7071C3.49031 20.8946 3.74467 21 4.00988 21H19.9999C20.2651 21 20.5195 20.8946 20.707 20.7071C20.8945 20.5196 20.9999 20.2652 20.9999 20V17.09C21.0001 16.9431 20.968 16.7979 20.9058 16.6648C20.8435 16.5318 20.7528 16.414 20.6399 16.32Z" fill="#141414"/>
</svg>
