<svg width="24" height="24" viewBox="0 0 24 24" fill="none" xmlns="http://www.w3.org/2000/svg">
<path d="M8.49994 19C8.20327 19 7.91326 19.088 7.66658 19.2528C7.41991 19.4176 7.22765 19.6519 7.11412 19.926C7.00059 20.2001 6.97088 20.5017 7.02876 20.7927C7.08664 21.0836 7.2295 21.3509 7.43928 21.5607C7.64906 21.7705 7.91633 21.9133 8.2073 21.9712C8.49827 22.0291 8.79987 21.9994 9.07396 21.8858C9.34805 21.7723 9.58232 21.58 9.74714 21.3334C9.91197 21.0867 9.99994 20.7967 9.99994 20.5C9.99994 20.1022 9.8419 19.7207 9.5606 19.4394C9.27929 19.1581 8.89776 19 8.49994 19ZM16.9999 12C16.011 12 15.0443 12.2933 14.2221 12.8427C13.3998 13.3921 12.759 14.173 12.3805 15.0866C12.0021 16.0002 11.9031 17.0056 12.096 17.9755C12.2889 18.9454 12.7651 19.8363 13.4644 20.5356C14.1637 21.2348 15.0546 21.711 16.0245 21.9039C16.9944 22.0969 17.9997 21.9979 18.9134 21.6194C19.827 21.241 20.6079 20.6001 21.1573 19.7779C21.7067 18.9556 21.9999 17.9889 21.9999 17C21.9999 15.6739 21.4732 14.4022 20.5355 13.4645C19.5978 12.5268 18.326 12 16.9999 12ZM18.4999 18C18.4999 18.2652 18.3946 18.5196 18.207 18.7071C18.0195 18.8947 17.7652 19 17.4999 19H15.4999C15.2347 19 14.9804 18.8947 14.7928 18.7071C14.6053 18.5196 14.4999 18.2652 14.4999 18C14.4999 17.7348 14.6053 17.4804 14.7928 17.2929C14.9804 17.1054 15.2347 17 15.4999 17H16.4999V15.5C16.4999 15.2348 16.6053 14.9804 16.7928 14.7929C16.9804 14.6054 17.2347 14.5 17.4999 14.5C17.7652 14.5 18.0195 14.6054 18.207 14.7929C18.3946 14.9804 18.4999 15.2348 18.4999 15.5V18ZM16.9999 10C18.4337 10.002 19.8314 10.4493 20.9999 11.28L21.8799 8.63002C22.0293 8.17512 22.0106 7.68173 21.8271 7.23949C21.6436 6.79725 21.3075 6.43551 20.8799 6.22002C20.6073 6.08025 20.3062 6.00498 19.9999 6.00002H6.57994L6.16994 4.48002C6.05468 4.05363 5.80151 3.67739 5.44994 3.41002C5.09956 3.14266 4.67067 2.99853 4.22994 3.00002H2.99994C2.86833 2.99926 2.73787 3.02448 2.61603 3.07425C2.49419 3.12401 2.38338 3.19734 2.28994 3.29002C2.19621 3.38298 2.12182 3.49358 2.07105 3.61544C2.02028 3.7373 1.99414 3.868 1.99414 4.00002C1.99414 4.13203 2.02028 4.26273 2.07105 4.38459C2.12182 4.50645 2.19621 4.61705 2.28994 4.71002C2.38338 4.8027 2.49419 4.87602 2.61603 4.92579C2.73787 4.97555 2.86833 5.00078 2.99994 5.00002H4.22994L7.05994 15.48C7.16853 15.9123 7.41842 16.296 7.76994 16.57C8.12044 16.8466 8.55343 16.998 8.99994 17H9.99994C9.99994 15.1435 10.7374 13.363 12.0502 12.0503C13.3629 10.7375 15.1434 10 16.9999 10Z" fill="#141414"/>
</svg>
