<svg width="24" height="24" viewBox="0 0 24 24" fill="none" xmlns="http://www.w3.org/2000/svg">
<path d="M21 4H17.33C16.26 4 15.19 4.35 14.33 5L13.8 5.4C12.74 6.2 11.26 6.19 10.2 5.4L9.67 5C8.81 4.36 7.74 4 6.67 4H3C2.45 4 2 4.45 2 5V19C2 19.55 2.45 20 3 20H6.67C7.74 20 8.81 19.65 9.67 19L10.2 18.6C11.26 17.81 12.74 17.81 13.8 18.6L14.33 19C15.19 19.64 16.26 20 17.33 20H21C21.55 20 22 19.55 22 19V5C22 4.45 21.55 4 21 4ZM5 12C4.45 12 4 11.55 4 11C4 10.45 4.45 10 5 10C5.55 10 6 10.45 6 11C6 11.55 5.55 12 5 12ZM8 16C7.45 16 7 15.55 7 15C7 14.45 7.45 14 8 14C8.55 14 9 14.45 9 15C9 15.55 8.55 16 8 16ZM11 12C10.45 12 10 11.55 10 11C10 10.45 10.45 10 11 10C11.55 10 12 10.45 12 11C12 11.55 11.55 12 11 12ZM19 14C18.45 14 18 13.55 18 13C18 12.45 18.45 12 19 12C19.55 12 20 12.45 20 13C20 13.55 19.55 14 19 14Z" fill="#141414"/>
</svg>
