<svg width="24" height="24" viewBox="0 0 24 24" fill="none" xmlns="http://www.w3.org/2000/svg">
<path d="M18.9598 11.9997C21.2198 9.90975 22.5498 7.62975 21.7898 5.81975C21.5798 5.31975 21.1098 4.64975 20.0498 4.27975C17.8398 3.49975 13.9898 4.34975 9.99983 6.49975C9.89983 6.54975 9.79983 6.60975 9.69983 6.66975C7.37983 5.94975 5.32983 5.78975 3.93983 6.27975C2.87983 6.64975 2.40983 7.31975 2.19983 7.81975C1.67983 9.05975 2.14983 10.5197 3.21983 11.9997C2.14983 13.4697 1.67983 14.9397 2.19983 16.1797C2.40983 16.6797 2.87983 17.3497 3.93983 17.7197C4.47983 17.9097 5.11983 17.9997 5.83983 17.9997C6.96983 17.9997 8.27983 17.7697 9.69983 17.3197C9.79983 17.3797 9.89983 17.4297 9.99983 17.4897C13.0098 19.1097 15.9398 19.9997 18.1498 19.9997C18.8698 19.9997 19.5098 19.9097 20.0498 19.7197C21.1098 19.3497 21.5798 18.6797 21.7898 18.1797C22.5498 16.3697 21.2198 14.0897 18.9598 11.9997ZM18.1798 5.99975C18.6698 5.99975 19.0798 6.05975 19.3898 6.16975C19.8398 6.32975 19.9198 6.52975 19.9498 6.59975C20.2498 7.31975 19.3698 8.93975 17.4098 10.6997C16.3598 9.89975 15.1898 9.14975 13.9898 8.50975C13.3898 8.18975 12.7998 7.89975 12.2098 7.63975C14.6698 6.48975 16.7698 6.00975 18.1798 6.00975V5.99975ZM4.04983 8.59975C4.07983 8.52975 4.15983 8.32975 4.60983 8.16975C4.91983 8.05975 5.31983 7.99975 5.81983 7.99975C6.25983 7.99975 6.76983 8.04975 7.33983 8.14975C6.31983 8.86975 5.37983 9.63975 4.58983 10.4297C4.07983 9.63975 3.88983 8.97975 4.04983 8.59975ZM4.60983 15.8297C4.15983 15.6697 4.07983 15.4697 4.04983 15.3997C3.88983 15.0097 4.07983 14.3597 4.58983 13.5697C5.37983 14.3597 6.31983 15.1297 7.32983 15.8397C6.13983 16.0497 5.18983 16.0297 4.60983 15.8297ZM9.90983 15.1397C8.19983 14.1097 6.83983 13.0097 5.85983 11.9997C6.83983 10.9897 8.19983 9.88975 9.91983 8.85975C10.8898 9.20975 11.9298 9.66975 13.0398 10.2697C14.0698 10.8297 14.9898 11.4097 15.7998 11.9997C14.9898 12.5897 14.0698 13.1797 13.0398 13.7297C11.9298 14.3297 10.8798 14.7797 9.90983 15.1297V15.1397ZM19.9398 17.3997C19.9098 17.4697 19.8298 17.6697 19.3798 17.8297C18.1998 18.2497 15.5298 17.9197 12.2098 16.3597C12.7998 16.0997 13.3898 15.8097 13.9898 15.4897C15.1898 14.8397 16.3598 14.0997 17.4098 13.2997C19.3598 15.0697 20.2498 16.6797 19.9498 17.3997H19.9398Z" fill="#141414"/>
</svg>
