<svg width="24" height="24" viewBox="0 0 24 24" fill="none" xmlns="http://www.w3.org/2000/svg">
<path d="M20.5501 11.83L20.6201 11.76C20.6748 11.7186 20.725 11.6717 20.7701 11.62L20.8701 11.47C20.8977 11.4118 20.9211 11.3516 20.9401 11.29C20.9458 11.2235 20.9458 11.1565 20.9401 11.09L21.0001 11V5C21.0001 4.73478 20.8947 4.48043 20.7072 4.29289C20.5197 4.10536 20.2653 4 20.0001 4C19.7349 4 19.4805 4.10536 19.293 4.29289C19.1055 4.48043 19.0001 4.73478 19.0001 5V6.46L18.0001 7.13V4C18.0001 3.73478 17.8947 3.48043 17.7072 3.29289C17.5197 3.10536 17.2653 3 17.0001 3C16.7349 3 16.4805 3.10536 16.293 3.29289C16.1055 3.48043 16.0001 3.73478 16.0001 4V7.13L15.0001 6.46V5C15.0001 4.73478 14.8947 4.48043 14.7072 4.29289C14.5197 4.10536 14.2653 4 14.0001 4C13.7349 4 13.4805 4.10536 13.293 4.29289C13.1055 4.48043 13.0001 4.73478 13.0001 5V11C13.0001 11 13.0001 11.06 13.0001 11.09C12.9944 11.1565 12.9944 11.2235 13.0001 11.29C13.0191 11.3516 13.0425 11.4118 13.0701 11.47C13.0999 11.5223 13.1333 11.5724 13.1701 11.62C13.2152 11.6717 13.2654 11.7186 13.3201 11.76L13.3901 11.83L16.0001 13.54V17C15.5306 16.9573 15.073 16.8285 14.6501 16.62C13.8303 16.2009 12.9207 15.9881 12.0001 16C11.0787 15.9775 10.1656 16.1801 9.34009 16.59C8.9228 16.8088 8.46836 16.9478 8.00009 17V14.54L10.5501 12.83L10.6201 12.76C10.6748 12.7186 10.725 12.6717 10.7701 12.62C10.8069 12.5724 10.8403 12.5223 10.8701 12.47C10.8977 12.4118 10.9211 12.3516 10.9401 12.29C10.9458 12.2235 10.9458 12.1565 10.9401 12.09L11.0001 12V6C11.0001 5.73478 10.8947 5.48043 10.7072 5.29289C10.5197 5.10536 10.2653 5 10.0001 5C9.73488 5 9.48052 5.10536 9.29299 5.29289C9.10545 5.48043 9.00009 5.73478 9.00009 6V7.46L8.00009 8.13V5C8.00009 4.73478 7.89474 4.48043 7.7072 4.29289C7.51966 4.10536 7.26531 4 7.00009 4C6.73488 4 6.48052 4.10536 6.29299 4.29289C6.10545 4.48043 6.00009 4.73478 6.00009 5V8.13L5.00009 7.46V6C5.00009 5.73478 4.89474 5.48043 4.7072 5.29289C4.51966 5.10536 4.26531 5 4.00009 5C3.73488 5 3.48052 5.10536 3.29299 5.29289C3.10545 5.48043 3.00009 5.73478 3.00009 6V12C3.00009 12 3.00009 12.06 3.00009 12.09C2.99443 12.1565 2.99443 12.2235 3.00009 12.29C3.01907 12.3516 3.04246 12.4118 3.07009 12.47L3.17009 12.62C3.21516 12.6717 3.26543 12.7186 3.32009 12.76L3.39009 12.83L6.00009 14.54V16.74L5.63009 16.59C5.16918 16.3689 4.6819 16.2076 4.18009 16.11C4.03637 16.0829 3.88846 16.0877 3.74678 16.124C3.6051 16.1602 3.4731 16.2272 3.36009 16.32C3.24721 16.414 3.15643 16.5318 3.09421 16.6648C3.03199 16.7979 2.99986 16.9431 3.00009 17.09V20C3.00009 20.2652 3.10545 20.5196 3.29299 20.7071C3.48052 20.8946 3.73488 21 4.00009 21H20.0001C20.2653 21 20.5197 20.8946 20.7072 20.7071C20.8947 20.5196 21.0001 20.2652 21.0001 20V17.09C21.0003 16.9431 20.9682 16.7979 20.906 16.6648C20.8438 16.5318 20.753 16.414 20.6401 16.32C20.5271 16.2272 20.3951 16.1602 20.2534 16.124C20.1117 16.0877 19.9638 16.0829 19.8201 16.11C19.3151 16.2076 18.8245 16.3689 18.3601 16.59L18.0001 16.74V13.54L20.5501 11.83ZM18.0001 9.54L19.0001 8.87V10.46L18.0001 11.13V9.54ZM8.00009 10.54L9.00009 9.87V11.46L8.00009 12.13V10.54ZM6.00009 12.13L5.00009 11.46V9.87L6.00009 10.54V12.13ZM16.0001 11.13L15.0001 10.46V8.87L16.0001 9.54V11.13Z" fill="#141414"/>
</svg>
