<svg width="24" height="24" viewBox="0 0 24 24" fill="none" xmlns="http://www.w3.org/2000/svg">
<path d="M20.6399 17.25L15.9999 9.21V5H16.9999C17.2651 5 17.5195 4.89464 17.707 4.70711C17.8945 4.51957 17.9999 4.26522 17.9999 4C17.9999 3.73478 17.8945 3.48043 17.707 3.29289C17.5195 3.10536 17.2651 3 16.9999 3H6.99989C6.73467 3 6.48032 3.10536 6.29278 3.29289C6.10524 3.48043 5.99989 3.73478 5.99989 4C5.99989 4.26522 6.10524 4.51957 6.29278 4.70711C6.48032 4.89464 6.73467 5 6.99989 5H7.99989V9.21L3.35989 17.21C3.13442 17.588 3.01538 18.0199 3.01538 18.46C3.01538 18.9001 3.13442 19.332 3.35989 19.71C3.57132 20.0988 3.88335 20.4237 4.26333 20.6506C4.64332 20.8776 5.0773 20.9982 5.51989 21H18.5199C18.9585 21.0022 19.3897 20.8875 19.7694 20.6679C20.149 20.4482 20.4633 20.1314 20.6799 19.75C20.8993 19.3684 21.0115 18.9346 21.0044 18.4945C20.9974 18.0544 20.8714 17.6244 20.6399 17.25ZM12.4999 16C12.2032 16 11.9132 15.912 11.6665 15.7472C11.4199 15.5824 11.2276 15.3481 11.1141 15.074C11.0005 14.7999 10.9708 14.4983 11.0287 14.2074C11.0866 13.9164 11.2294 13.6491 11.4392 13.4393C11.649 13.2296 11.9163 13.0867 12.2072 13.0288C12.4982 12.9709 12.7998 13.0006 13.0739 13.1142C13.348 13.2277 13.5823 13.42 13.7471 13.6666C13.9119 13.9133 13.9999 14.2033 13.9999 14.5C13.9999 14.8978 13.8419 15.2794 13.5605 15.5607C13.2792 15.842 12.8977 16 12.4999 16ZM15.4999 18.5C15.3021 18.5 15.1088 18.4414 14.9443 18.3315C14.7799 18.2216 14.6517 18.0654 14.576 17.8827C14.5003 17.7 14.4805 17.4989 14.5191 17.3049C14.5577 17.1109 14.6529 16.9327 14.7928 16.7929C14.9326 16.653 15.1108 16.5578 15.3048 16.5192C15.4988 16.4806 15.6998 16.5004 15.8826 16.5761C16.0653 16.6518 16.2215 16.78 16.3314 16.9444C16.4412 17.1089 16.4999 17.3022 16.4999 17.5C16.4999 17.7652 16.3945 18.0196 16.207 18.2071C16.0195 18.3946 15.7651 18.5 15.4999 18.5Z" fill="#141414"/>
</svg>
