<svg width="24" height="24" viewBox="0 0 24 24" fill="none" xmlns="http://www.w3.org/2000/svg">
<path d="M6.15994 19.0804L7.99994 20.0004L8.96994 21.9304L10.5899 20.3104L7.75994 17.4804L6.15994 19.0804ZM8.99994 9.00043C8.99994 8.20043 9.30994 7.45043 9.87994 6.88043C10.4599 6.30043 11.2299 6.00043 11.9999 6.00043C12.7699 6.00043 13.5399 6.29043 14.1199 6.88043C14.6899 7.45043 14.9999 8.20043 14.9999 9.00043C14.9999 9.80043 14.6899 10.5504 14.1199 11.1204L13.4099 11.8304L16.2399 14.6604L16.9499 13.9504C19.6799 11.2204 19.6799 6.78043 16.9499 4.05043C14.2199 1.32043 9.77994 1.32043 7.04994 4.05043C4.31994 6.78043 4.31994 11.2204 7.04994 13.9504L15.0299 21.9304L15.9999 20.0004L17.8399 19.0804L9.87994 11.1204C9.30994 10.5504 8.99994 9.80043 8.99994 9.00043Z" fill="#141414"/>
</svg>
