<svg width="24" height="24" viewBox="0 0 24 24" fill="none" xmlns="http://www.w3.org/2000/svg">
<path d="M17.5 2H10C9.47042 2.00223 8.96335 2.21441 8.59 2.59L5.59 5.59C5.21441 5.96335 5.00223 6.47042 5 7V19.5C5 20.163 5.26339 20.7989 5.73223 21.2678C6.20107 21.7366 6.83696 22 7.5 22H17.5C18.163 22 18.7989 21.7366 19.2678 21.2678C19.7366 20.7989 20 20.163 20 19.5V4.5C20 3.83696 19.7366 3.20107 19.2678 2.73223C18.7989 2.26339 18.163 2 17.5 2ZM10.71 13.29C10.8037 13.383 10.8781 13.4936 10.9289 13.6154C10.9797 13.7373 11.0058 13.868 11.0058 14C11.0058 14.132 10.9797 14.2627 10.9289 14.3846C10.8781 14.5064 10.8037 14.617 10.71 14.71C10.617 14.8037 10.5064 14.8781 10.3846 14.9289C10.2627 14.9797 10.132 15.0058 10 15.0058C9.86799 15.0058 9.73728 14.9797 9.61542 14.9289C9.49356 14.8781 9.38296 14.8037 9.29 14.71L7.29 12.71C7.19627 12.617 7.12188 12.5064 7.07111 12.3846C7.02034 12.2627 6.9942 12.132 6.9942 12C6.9942 11.868 7.02034 11.7373 7.07111 11.6154C7.12188 11.4936 7.19627 11.383 7.29 11.29L9.29 9.29C9.4783 9.1017 9.7337 8.99591 10 8.99591C10.2663 8.99591 10.5217 9.1017 10.71 9.29C10.8983 9.4783 11.0041 9.7337 11.0041 10C11.0041 10.2663 10.8983 10.5217 10.71 10.71L9.41 12L10.71 13.29ZM17.71 12.71L15.71 14.71C15.617 14.8037 15.5064 14.8781 15.3846 14.9289C15.2627 14.9797 15.132 15.0058 15 15.0058C14.868 15.0058 14.7373 14.9797 14.6154 14.9289C14.4936 14.8781 14.383 14.8037 14.29 14.71C14.1963 14.617 14.1219 14.5064 14.0711 14.3846C14.0203 14.2627 13.9942 14.132 13.9942 14C13.9942 13.868 14.0203 13.7373 14.0711 13.6154C14.1219 13.4936 14.1963 13.383 14.29 13.29L15.59 12L14.29 10.71C14.1017 10.5217 13.9959 10.2663 13.9959 10C13.9959 9.7337 14.1017 9.4783 14.29 9.29C14.4783 9.1017 14.7337 8.99591 15 8.99591C15.2663 8.99591 15.5217 9.1017 15.71 9.29L17.71 11.29C17.8037 11.383 17.8781 11.4936 17.9289 11.6154C17.9797 11.7373 18.0058 11.868 18.0058 12C18.0058 12.132 17.9797 12.2627 17.9289 12.3846C17.8781 12.5064 17.8037 12.617 17.71 12.71Z" fill="#141414"/>
</svg>
