<svg width="24" height="24" viewBox="0 0 24 24" fill="none" xmlns="http://www.w3.org/2000/svg">
<path d="M18.1601 14.3202C17.7853 13.9477 17.2784 13.7386 16.7501 13.7386C16.2217 13.7386 15.7148 13.9477 15.3401 14.3202L14.6301 15.0302C14.5371 15.1239 14.4265 15.1983 14.3046 15.2491C14.1828 15.2998 14.0521 15.326 13.9201 15.326C13.788 15.326 13.6573 15.2998 13.5355 15.2491C13.4136 15.1983 13.303 15.1239 13.2101 15.0302L9.00006 10.7902C8.90633 10.6972 8.83194 10.5866 8.78117 10.4648C8.7304 10.3429 8.70426 10.2122 8.70426 10.0802C8.70426 9.94817 8.7304 9.81747 8.78117 9.69561C8.83194 9.57375 8.90633 9.46315 9.00006 9.37019L9.71006 8.66019C10.0826 8.28546 10.2916 7.77856 10.2916 7.25019C10.2916 6.72181 10.0826 6.21491 9.71006 5.84019L9.00006 5.13019C8.81431 4.94423 8.59373 4.79671 8.35094 4.69607C8.10814 4.59542 7.84789 4.54361 7.58506 4.54361C7.32223 4.54361 7.06197 4.59542 6.81918 4.69607C6.57638 4.79671 6.3558 4.94423 6.17006 5.13019L5.17006 6.13019C4.85584 6.43015 4.65455 6.82921 4.60006 7.26019C4.42006 8.66019 4.52006 12.0002 8.27006 15.7302C12.0201 19.4602 15.3401 19.5802 16.7501 19.4102C17.181 19.3557 17.5801 19.1544 17.8801 18.8402L18.8801 17.8402C19.066 17.6544 19.2135 17.4339 19.3142 17.1911C19.4148 16.9483 19.4666 16.688 19.4666 16.4252C19.4666 16.1624 19.4148 15.9021 19.3142 15.6593C19.2135 15.4165 19.066 15.1959 18.8801 15.0102L18.1601 14.3202ZM20.7101 6.32019L18.7101 4.32019C18.6168 4.22695 18.5061 4.15299 18.3843 4.10253C18.2625 4.05207 18.1319 4.02609 18.0001 4.02609C17.7338 4.02609 17.4784 4.13188 17.2901 4.32019C17.1018 4.50849 16.996 4.76388 16.996 5.03019C16.996 5.16204 17.0219 5.29261 17.0724 5.41443C17.1229 5.53626 17.1968 5.64695 17.2901 5.74019L18.5901 7.00019L17.2901 8.29019C17.1963 8.38315 17.1219 8.49375 17.0712 8.61561C17.0204 8.73747 16.9943 8.86817 16.9943 9.00019C16.9943 9.1322 17.0204 9.2629 17.0712 9.38476C17.1219 9.50662 17.1963 9.61722 17.2901 9.71019C17.383 9.80391 17.4936 9.87831 17.6155 9.92908C17.7373 9.97985 17.868 10.006 18.0001 10.006C18.1321 10.006 18.2628 9.97985 18.3846 9.92908C18.5065 9.87831 18.6171 9.80391 18.7101 9.71019L20.7101 7.71019C20.8038 7.61722 20.8782 7.50662 20.929 7.38476C20.9797 7.2629 21.0059 7.1322 21.0059 7.00019C21.0059 6.86817 20.9797 6.73747 20.929 6.61561C20.8782 6.49375 20.8038 6.38315 20.7101 6.29019V6.32019ZM13.2901 9.71019C13.383 9.80391 13.4936 9.87831 13.6155 9.92908C13.7373 9.97985 13.868 10.006 14.0001 10.006C14.1321 10.006 14.2628 9.97985 14.3846 9.92908C14.5065 9.87831 14.6171 9.80391 14.7101 9.71019L16.7101 7.71019C16.8038 7.61722 16.8782 7.50662 16.929 7.38476C16.9797 7.2629 17.0059 7.1322 17.0059 7.00019C17.0059 6.86817 16.9797 6.73747 16.929 6.61561C16.8782 6.49375 16.8038 6.38315 16.7101 6.29019L14.7101 4.29019C14.6168 4.19695 14.5061 4.12299 14.3843 4.07253C14.2625 4.02207 14.1319 3.99609 14.0001 3.99609C13.7338 3.99609 13.4784 4.10188 13.2901 4.29019C13.1968 4.38342 13.1229 4.49411 13.0724 4.61594C13.0219 4.73776 12.996 4.86833 12.996 5.00019C12.996 5.26649 13.1018 5.52188 13.2901 5.71019L14.5901 7.00019L13.2901 8.29019C13.1963 8.38315 13.1219 8.49375 13.0712 8.61561C13.0204 8.73747 12.9943 8.86817 12.9943 9.00019C12.9943 9.1322 13.0204 9.2629 13.0712 9.38476C13.1219 9.50662 13.1963 9.61722 13.2901 9.71019Z" fill="#141414"/>
</svg>
