<svg width="24" height="24" viewBox="0 0 24 24" fill="none" xmlns="http://www.w3.org/2000/svg">
<path d="M9.99994 6H19.9999C20.2652 6 20.5195 5.89464 20.7071 5.70711C20.8946 5.51957 20.9999 5.26522 20.9999 5C20.9999 4.73478 20.8946 4.48043 20.7071 4.29289C20.5195 4.10536 20.2652 4 19.9999 4H9.99994C9.73473 4 9.48037 4.10536 9.29284 4.29289C9.1053 4.48043 8.99994 4.73478 8.99994 5C8.99994 5.26522 9.1053 5.51957 9.29284 5.70711C9.48037 5.89464 9.73473 6 9.99994 6ZM15.6199 15.86C15.4342 15.674 15.2136 15.5265 14.9708 15.4259C14.728 15.3252 14.4678 15.2734 14.2049 15.2734C13.9421 15.2734 13.6819 15.3252 13.4391 15.4259C13.1963 15.5265 12.9757 15.674 12.7899 15.86L12.0899 16.57C11.997 16.6637 11.8864 16.7381 11.7645 16.7889C11.6427 16.8397 11.512 16.8658 11.3799 16.8658C11.2479 16.8658 11.1172 16.8397 10.9954 16.7889C10.8735 16.7381 10.7629 16.6637 10.6699 16.57L6.42994 12.33C6.33622 12.237 6.26182 12.1264 6.21105 12.0046C6.16028 11.8827 6.13415 11.752 6.13415 11.62C6.13415 11.488 6.16028 11.3573 6.21105 11.2354C6.26182 11.1136 6.33622 11.003 6.42994 10.91L7.13994 10.21C7.3259 10.0243 7.47341 9.80368 7.57406 9.56088C7.67471 9.31808 7.72652 9.05783 7.72652 8.795C7.72652 8.53217 7.67471 8.27192 7.57406 8.02912C7.47341 7.78632 7.3259 7.56575 7.13994 7.38L6.42994 6.67C6.2442 6.48405 6.02362 6.33653 5.78082 6.23588C5.53803 6.13523 5.27777 6.08343 5.01494 6.08343C4.75211 6.08343 4.49186 6.13523 4.24906 6.23588C4.00627 6.33653 3.78569 6.48405 3.59994 6.67L2.59994 7.67C2.2963 7.97642 2.09986 8.3728 2.03994 8.8C1.87994 10.2 1.99994 13.54 5.71994 17.28C9.43994 21.02 12.7999 21.12 14.2099 21C14.6371 20.9401 15.0335 20.7436 15.3399 20.44L16.3399 19.44C16.5259 19.2543 16.6734 19.0337 16.7741 18.7909C16.8747 18.5481 16.9265 18.2878 16.9265 18.025C16.9265 17.7622 16.8747 17.5019 16.7741 17.2591C16.6734 17.0163 16.5259 16.7957 16.3399 16.61L15.6199 15.86ZM19.9999 12H17.9999C17.7347 12 17.4804 12.1054 17.2928 12.2929C17.1053 12.4804 16.9999 12.7348 16.9999 13C16.9999 13.2652 17.1053 13.5196 17.2928 13.7071C17.4804 13.8946 17.7347 14 17.9999 14H19.9999C20.2652 14 20.5195 13.8946 20.7071 13.7071C20.8946 13.5196 20.9999 13.2652 20.9999 13C20.9999 12.7348 20.8946 12.4804 20.7071 12.2929C20.5195 12.1054 20.2652 12 19.9999 12ZM19.9999 8H13.9999C13.7347 8 13.4804 8.10536 13.2928 8.29289C13.1053 8.48043 12.9999 8.73478 12.9999 9C12.9999 9.26522 13.1053 9.51957 13.2928 9.70711C13.4804 9.89464 13.7347 10 13.9999 10H19.9999C20.2652 10 20.5195 9.89464 20.7071 9.70711C20.8946 9.51957 20.9999 9.26522 20.9999 9C20.9999 8.73478 20.8946 8.48043 20.7071 8.29289C20.5195 8.10536 20.2652 8 19.9999 8Z" fill="#141414"/>
</svg>
