<svg width="24" height="24" viewBox="0 0 24 24" fill="none" xmlns="http://www.w3.org/2000/svg">
<path d="M18.1601 14.32C17.7853 13.9475 17.2784 13.7384 16.7501 13.7384C16.2217 13.7384 15.7148 13.9475 15.3401 14.32L14.6301 15.03C14.5371 15.1237 14.4265 15.1981 14.3046 15.2489C14.1828 15.2997 14.0521 15.3258 13.9201 15.3258C13.788 15.3258 13.6573 15.2997 13.5355 15.2489C13.4136 15.1981 13.303 15.1237 13.2101 15.03L9.00006 10.79C8.90633 10.697 8.83194 10.5864 8.78117 10.4646C8.7304 10.3427 8.70426 10.212 8.70426 10.08C8.70426 9.94799 8.7304 9.81728 8.78117 9.69542C8.83194 9.57356 8.90633 9.46296 9.00006 9.37L9.71006 8.66C10.0826 8.28527 10.2916 7.77837 10.2916 7.25C10.2916 6.72163 10.0826 6.21473 9.71006 5.84L9.00006 5.13C8.81431 4.94405 8.59373 4.79653 8.35094 4.69588C8.10814 4.59523 7.84789 4.54343 7.58506 4.54343C7.32223 4.54343 7.06197 4.59523 6.81918 4.69588C6.57638 4.79653 6.3558 4.94405 6.17006 5.13L5.17006 6.13C4.85584 6.42997 4.65455 6.82902 4.60006 7.26C4.42006 8.66 4.52006 12 8.27006 15.73C12.0201 19.46 15.3401 19.58 16.7501 19.41C17.181 19.3555 17.5801 19.1542 17.8801 18.84L18.8801 17.84C19.066 17.6543 19.2135 17.4337 19.3142 17.1909C19.4148 16.9481 19.4666 16.6878 19.4666 16.425C19.4666 16.1622 19.4148 15.9019 19.3142 15.6591C19.2135 15.4163 19.066 15.1957 18.8801 15.01L18.1601 14.32ZM21.7101 8.32C21.6171 8.22627 21.5065 8.15188 21.3846 8.10111C21.2628 8.05034 21.1321 8.0242 21.0001 8.0242C20.868 8.0242 20.7373 8.05034 20.6155 8.10111C20.4936 8.15188 20.383 8.22627 20.2901 8.32L20.0001 8.62V5C20.0001 4.73478 19.8947 4.48043 19.7072 4.29289C19.5196 4.10536 19.2653 4 19.0001 4C18.7348 4 18.4805 4.10536 18.293 4.29289C18.1054 4.48043 18.0001 4.73478 18.0001 5V11C18.001 11.1974 18.0604 11.3901 18.1708 11.5539C18.2811 11.7176 18.4374 11.845 18.6201 11.92C18.7387 11.976 18.8689 12.0034 19.0001 12C19.1317 12.0008 19.2621 11.9755 19.384 11.9258C19.5058 11.876 19.6166 11.8027 19.7101 11.71L21.7101 9.71C21.8038 9.61704 21.8782 9.50644 21.929 9.38458C21.9797 9.26272 22.0059 9.13201 22.0059 9C22.0059 8.86799 21.9797 8.73728 21.929 8.61542C21.8782 8.49356 21.8038 8.38296 21.7101 8.29V8.32ZM13.7101 7.74L14.0001 7.44V11C14.0001 11.2652 14.1054 11.5196 14.293 11.7071C14.4805 11.8946 14.7348 12 15.0001 12C15.2653 12 15.5196 11.8946 15.7072 11.7071C15.8947 11.5196 16.0001 11.2652 16.0001 11V5C15.9991 4.80257 15.9397 4.60986 15.8293 4.44614C15.719 4.28242 15.5627 4.15502 15.3801 4.08C15.1979 4.00342 14.9972 3.9825 14.8032 4.01987C14.6093 4.05725 14.4307 4.15124 14.2901 4.29L12.2901 6.29C12.1018 6.4783 11.996 6.7337 11.996 7C11.996 7.2663 12.1018 7.5217 12.2901 7.71C12.4784 7.8983 12.7338 8.00409 13.0001 8.00409C13.2664 8.00409 13.5218 7.8983 13.7101 7.71V7.74Z" fill="#141414"/>
</svg>
