<svg width="24" height="24" viewBox="0 0 24 24" fill="none" xmlns="http://www.w3.org/2000/svg">
<path d="M12 11C12.89 11 13.76 10.7361 14.5001 10.2416C15.2401 9.74715 15.8169 9.04434 16.1575 8.22208C16.4981 7.39981 16.5872 6.49501 16.4135 5.6221C16.2399 4.74918 15.8113 3.94736 15.182 3.31802C14.5526 2.68868 13.7508 2.2601 12.8779 2.08647C12.005 1.91283 11.1002 2.00195 10.2779 2.34254C9.45566 2.68314 8.75285 3.25991 8.25839 3.99994C7.76392 4.73996 7.5 5.60999 7.5 6.5C7.50264 7.69266 7.9776 8.83572 8.82094 9.67906C9.66428 10.5224 10.8073 10.9974 12 11ZM22 10H21V9C21 8.73479 20.8946 8.48043 20.7071 8.2929C20.5196 8.10536 20.2652 8 20 8C19.7348 8 19.4804 8.10536 19.2929 8.2929C19.1054 8.48043 19 8.73479 19 9V10H18C17.7348 10 17.4804 10.1054 17.2929 10.2929C17.1054 10.4804 17 10.7348 17 11C17 11.2652 17.1054 11.5196 17.2929 11.7071C17.4804 11.8946 17.7348 12 18 12H19V13C19 13.2652 19.1054 13.5196 19.2929 13.7071C19.4804 13.8946 19.7348 14 20 14C20.2652 14 20.5196 13.8946 20.7071 13.7071C20.8946 13.5196 21 13.2652 21 13V12H22C22.2652 12 22.5196 11.8946 22.7071 11.7071C22.8946 11.5196 23 11.2652 23 11C23 10.7348 22.8946 10.4804 22.7071 10.2929C22.5196 10.1054 22.2652 10 22 10ZM12 12C9.87827 12 7.84344 12.8429 6.34315 14.3431C4.84285 15.8434 4 17.8783 4 20C4 20.5304 4.21071 21.0391 4.58579 21.4142C4.96086 21.7893 5.46957 22 6 22H18C18.5304 22 19.0391 21.7893 19.4142 21.4142C19.7893 21.0391 20 20.5304 20 20C20 17.8783 19.1571 15.8434 17.6569 14.3431C16.1566 12.8429 14.1217 12 12 12Z" fill="#141414"/>
</svg>
