<svg width="24" height="24" viewBox="0 0 24 24" fill="none" xmlns="http://www.w3.org/2000/svg">
<path d="M12 12C9.87827 12 7.84344 12.8429 6.34315 14.3431C4.84285 15.8434 4 17.8783 4 20V21C4 21.2652 4.10536 21.5196 4.29289 21.7071C4.48043 21.8946 4.73478 22 5 22C5.26522 22 5.51957 21.8946 5.70711 21.7071C5.89464 21.5196 6 21.2652 6 21V20C6.00039 19.3541 6.10507 18.7125 6.31 18.1H6.36C7.90005 18.8373 9.2001 19.9952 10.11 21.44C10.1917 21.6068 10.3183 21.7475 10.4755 21.8464C10.6326 21.9453 10.8143 21.9985 11 22H13C13.1847 21.9994 13.3656 21.9478 13.5227 21.8507C13.6798 21.7536 13.8069 21.6149 13.89 21.45C14.7965 20.0085 16.0934 18.8538 17.63 18.12H17.69C17.8928 18.7262 17.9975 19.3608 18 20V21C18 21.2652 18.1054 21.5196 18.2929 21.7071C18.4804 21.8946 18.7348 22 19 22C19.2652 22 19.5196 21.8946 19.7071 21.7071C19.8946 21.5196 20 21.2652 20 21V20C20 17.8783 19.1571 15.8434 17.6569 14.3431C16.1566 12.8429 14.1217 12 12 12ZM12 17C10.4157 16.8943 8.84331 16.6534 7.3 16.28C7.86182 15.572 8.57633 15.0001 9.39018 14.6069C10.204 14.2138 11.0962 14.0096 12 14.0096C12.9038 14.0096 13.796 14.2138 14.6098 14.6069C15.4237 15.0001 16.1382 15.572 16.7 16.28C15.1567 16.6534 13.5843 16.8943 12 17ZM12 11C12.89 11 13.76 10.7361 14.5001 10.2416C15.2401 9.74715 15.8169 9.04434 16.1575 8.22208C16.4981 7.39981 16.5872 6.49501 16.4135 5.6221C16.2399 4.74918 15.8113 3.94736 15.182 3.31802C14.5526 2.68868 13.7508 2.2601 12.8779 2.08647C12.005 1.91283 11.1002 2.00195 10.2779 2.34254C9.45566 2.68314 8.75285 3.25991 8.25839 3.99994C7.76392 4.73996 7.5 5.60999 7.5 6.5C7.50264 7.69266 7.9776 8.83572 8.82094 9.67906C9.66428 10.5224 10.8073 10.9974 12 11Z" fill="#141414"/>
</svg>
