<svg width="24" height="24" viewBox="0 0 24 24" fill="none" xmlns="http://www.w3.org/2000/svg">
<path d="M19 5H5C4.20435 5 3.44129 5.31607 2.87868 5.87868C2.31607 6.44129 2 7.20435 2 8V16C2 16.7956 2.31607 17.5587 2.87868 18.1213C3.44129 18.6839 4.20435 19 5 19H19C19.7956 19 20.5587 18.6839 21.1213 18.1213C21.6839 17.5587 22 16.7956 22 16V8C22 7.20435 21.6839 6.44129 21.1213 5.87868C20.5587 5.31607 19.7956 5 19 5ZM9.25 8C9.49723 8 9.7389 8.07331 9.94446 8.21066C10.15 8.34801 10.3102 8.54324 10.4048 8.77165C10.4995 9.00005 10.5242 9.25139 10.476 9.49386C10.4278 9.73634 10.3087 9.95907 10.1339 10.1339C9.95907 10.3087 9.73634 10.4278 9.49386 10.476C9.25139 10.5242 9.00005 10.4995 8.77165 10.4048C8.54324 10.3102 8.34801 10.15 8.21066 9.94446C8.07331 9.7389 8 9.49723 8 9.25C8 8.91848 8.1317 8.60054 8.36612 8.36612C8.60054 8.1317 8.91848 8 9.25 8ZM14.75 16C14.5028 16 14.2611 15.9267 14.0555 15.7893C13.85 15.652 13.6898 15.4568 13.5952 15.2284C13.5005 14.9999 13.4758 14.7486 13.524 14.5061C13.5722 14.2637 13.6913 14.0409 13.8661 13.8661C14.0409 13.6913 14.2637 13.5722 14.5061 13.524C14.7486 13.4758 14.9999 13.5005 15.2284 13.5952C15.4568 13.6898 15.652 13.85 15.7893 14.0555C15.9267 14.2611 16 14.5028 16 14.75C16 15.0815 15.8683 15.3995 15.6339 15.6339C15.3995 15.8683 15.0815 16 14.75 16ZM15.75 9.71L9.75 15.71C9.65704 15.8037 9.54644 15.8781 9.42458 15.9289C9.30272 15.9797 9.17201 16.0058 9.04 16.0058C8.90799 16.0058 8.77728 15.9797 8.65542 15.9289C8.53356 15.8781 8.42296 15.8037 8.33 15.71C8.23627 15.617 8.16188 15.5064 8.11111 15.3846C8.06034 15.2627 8.0342 15.132 8.0342 15C8.0342 14.868 8.06034 14.7373 8.11111 14.6154C8.16188 14.4936 8.23627 14.383 8.33 14.29L14.33 8.29C14.5183 8.1017 14.7737 7.99591 15.04 7.99591C15.3063 7.99591 15.5617 8.1017 15.75 8.29C15.9383 8.4783 16.0441 8.7337 16.0441 9C16.0441 9.2663 15.9383 9.5217 15.75 9.71Z" fill="#141414"/>
</svg>
