<svg width="24" height="24" viewBox="0 0 24 24" fill="none" xmlns="http://www.w3.org/2000/svg">
<path d="M7.71006 7.29024C7.32006 6.90024 6.69006 6.90024 6.30006 7.29024L2.29006 11.2902C1.90006 11.6802 1.90006 12.3102 2.29006 12.7002L6.29006 16.7002C6.49006 16.9002 6.74006 16.9902 7.00006 16.9902C7.26006 16.9902 7.51006 16.8902 7.71006 16.7002C8.10006 16.3102 8.10006 15.6802 7.71006 15.2902L4.42006 12.0002L7.71006 8.71024C8.10006 8.32024 8.10006 7.69024 7.71006 7.30024V7.29024ZM21.7101 11.2902L17.7101 7.29024C17.3201 6.90024 16.6901 6.90024 16.3001 7.29024C15.9101 7.68024 15.9101 8.31024 16.3001 8.70024L19.5901 11.9902L16.3001 15.2802C15.9101 15.6702 15.9101 16.3002 16.3001 16.6902C16.5001 16.8902 16.7501 16.9802 17.0101 16.9802C17.2701 16.9802 17.5201 16.8802 17.7201 16.6902L21.7201 12.6902C22.1101 12.3002 22.1101 11.6702 21.7201 11.2802L21.7101 11.2902ZM14.2801 4.04024C13.7501 3.89024 13.2001 4.20024 13.0401 4.73024L9.04006 18.7302C8.89006 19.2602 9.20006 19.8102 9.73006 19.9702C9.82006 20.0002 9.91006 20.0102 10.0101 20.0102C10.4501 20.0102 10.8501 19.7202 10.9701 19.2802L14.9601 5.27024C15.1101 4.74024 14.8001 4.19024 14.2701 4.03024L14.2801 4.04024Z" fill="#141414"/>
</svg>
