<svg width="24" height="24" viewBox="0 0 24 24" fill="none" xmlns="http://www.w3.org/2000/svg">
<path d="M19.0001 3.41019C16.8191 2.36884 14.4141 1.88439 12.0001 2.00019C9.67265 1.90897 7.35131 2.29699 5.18007 3.14019C4.82291 3.30067 4.5207 3.56247 4.31094 3.89311C4.10118 4.22375 3.99309 4.60869 4.00007 5.00019V14.0002C4.00007 16.1219 4.84293 18.1568 6.34322 19.657C7.84351 21.1573 9.87834 22.0002 12.0001 22.0002C14.1218 22.0002 16.1566 21.1573 17.6569 19.657C19.1572 18.1568 20.0001 16.1219 20.0001 14.0002V5.15019C20.0015 4.79777 19.9097 4.45124 19.7341 4.14568C19.5585 3.84013 19.3053 3.5864 19.0001 3.41019ZM6.20007 8.40019C6.46725 8.04222 6.8143 7.75156 7.21359 7.55133C7.61288 7.35111 8.05339 7.24685 8.50007 7.24685C8.94676 7.24685 9.38727 7.35111 9.78656 7.55133C10.1859 7.75156 10.5329 8.04222 10.8001 8.40019C10.8789 8.50525 10.9362 8.6248 10.9688 8.75201C11.0014 8.87922 11.0086 9.01161 10.99 9.14161C10.9715 9.27162 10.9275 9.39669 10.8605 9.50969C10.7936 9.62268 10.7051 9.7214 10.6001 9.80019C10.427 9.93001 10.2164 10.0002 10.0001 10.0002C9.84483 10.0002 9.69172 9.96405 9.55286 9.89462C9.41401 9.82519 9.29322 9.72439 9.20007 9.60019C9.11468 9.49739 9.00769 9.41466 8.88671 9.35787C8.76572 9.30109 8.63372 9.27166 8.50007 9.27166C8.36643 9.27166 8.23443 9.30109 8.11344 9.35787C7.99246 9.41466 7.88547 9.49739 7.80007 9.60019C7.72128 9.70525 7.62257 9.79376 7.50957 9.86067C7.39657 9.92757 7.2715 9.97157 7.1415 9.99014C6.87894 10.0276 6.61225 9.95932 6.40007 9.80019C6.29502 9.7214 6.20651 9.62268 6.1396 9.50969C6.07269 9.39669 6.0287 9.27162 6.01012 9.14161C5.97262 8.87906 6.04094 8.61236 6.20007 8.40019ZM12.0001 19.0002C10.674 19.0002 9.40222 18.4734 8.46454 17.5357C7.52686 16.598 7.00007 15.3263 7.00007 14.0002C7.00007 13.735 7.10543 13.4806 7.29297 13.2931C7.4805 13.1055 7.73486 13.0002 8.00007 13.0002H16.0001C16.2653 13.0002 16.5196 13.1055 16.7072 13.2931C16.8947 13.4806 17.0001 13.735 17.0001 14.0002C17.0001 15.3263 16.4733 16.598 15.5356 17.5357C14.5979 18.4734 13.3262 19.0002 12.0001 19.0002ZM17.6001 9.80019C17.427 9.93001 17.2164 10.0002 17.0001 10.0002C16.8448 10.0002 16.6917 9.96405 16.5529 9.89462C16.414 9.82519 16.2932 9.72439 16.2001 9.60019C16.1147 9.49739 16.0077 9.41466 15.8867 9.35787C15.7657 9.30109 15.6337 9.27166 15.5001 9.27166C15.3664 9.27166 15.2344 9.30109 15.1134 9.35787C14.9925 9.41466 14.8855 9.49739 14.8001 9.60019C14.6409 9.81237 14.404 9.95263 14.1415 9.99014C13.8789 10.0276 13.6122 9.95932 13.4001 9.80019C13.1879 9.64106 13.0476 9.40416 13.0101 9.14161C12.9726 8.87906 13.0409 8.61236 13.2001 8.40019C13.4685 8.04403 13.8159 7.75506 14.2151 7.55608C14.6142 7.35709 15.0541 7.25351 15.5001 7.25351C15.9461 7.25351 16.3859 7.35709 16.7851 7.55608C17.1842 7.75506 17.5317 8.04403 17.8001 8.40019C17.8789 8.50525 17.9362 8.6248 17.9688 8.75201C18.0014 8.87922 18.0086 9.01161 17.99 9.14161C17.9715 9.27162 17.9275 9.39669 17.8605 9.50969C17.7936 9.62268 17.7051 9.7214 17.6001 9.80019Z" fill="#141414"/>
</svg>
