<svg width="24" height="24" viewBox="0 0 24 24" fill="none" xmlns="http://www.w3.org/2000/svg">
<path d="M21 18H20V6C20 5.46957 19.7893 4.96086 19.4142 4.58579C19.0391 4.21071 18.5304 4 18 4H6V3C6 2.73478 5.89464 2.48043 5.70711 2.29289C5.51957 2.10536 5.26522 2 5 2C4.73478 2 4.48043 2.10536 4.29289 2.29289C4.10536 2.48043 4 2.73478 4 3V4H3C2.73478 4 2.48043 4.10536 2.29289 4.29289C2.10536 4.48043 2 4.73478 2 5C2 5.26522 2.10536 5.51957 2.29289 5.70711C2.48043 5.89464 2.73478 6 3 6H4V18C4 18.5304 4.21071 19.0391 4.58579 19.4142C4.96086 19.7893 5.46957 20 6 20H18V21C18 21.2652 18.1054 21.5196 18.2929 21.7071C18.4804 21.8946 18.7348 22 19 22C19.2652 22 19.5196 21.8946 19.7071 21.7071C19.8946 21.5196 20 21.2652 20 21V20H21C21.2652 20 21.5196 19.8946 21.7071 19.7071C21.8946 19.5196 22 19.2652 22 19C22 18.7348 21.8946 18.4804 21.7071 18.2929C21.5196 18.1054 21.2652 18 21 18ZM18 11.09L16.21 9.29C16.117 9.19627 16.0064 9.12188 15.8846 9.07111C15.7627 9.02034 15.632 8.9942 15.5 8.9942C15.368 8.9942 15.2373 9.02034 15.1154 9.07111C14.9936 9.12188 14.883 9.19627 14.79 9.29L10.5 13.59L9.21 12.29C9.11704 12.1963 9.00644 12.1219 8.88458 12.0711C8.76272 12.0203 8.63201 11.9942 8.5 11.9942C8.36799 11.9942 8.23728 12.0203 8.11542 12.0711C7.99356 12.1219 7.88296 12.1963 7.79 12.29L6 14.09V6H18V11.09ZM8.5 10C8.69778 10 8.89112 9.94135 9.05557 9.83147C9.22002 9.72159 9.34819 9.56541 9.42388 9.38268C9.49957 9.19996 9.51937 8.99889 9.48079 8.80491C9.4422 8.61093 9.34696 8.43275 9.20711 8.29289C9.06725 8.15304 8.88907 8.0578 8.69509 8.01921C8.50111 7.98063 8.30004 8.00043 8.11732 8.07612C7.93459 8.15181 7.77841 8.27998 7.66853 8.44443C7.55865 8.60888 7.5 8.80222 7.5 9C7.5 9.26522 7.60536 9.51957 7.79289 9.70711C7.98043 9.89464 8.23478 10 8.5 10Z" fill="#141414"/>
</svg>
