<svg width="24" height="24" viewBox="0 0 24 24" fill="none" xmlns="http://www.w3.org/2000/svg">
<path d="M20.79 7.34001L19.45 4.66001C19.2006 4.16036 18.8166 3.74026 18.3414 3.44698C17.8661 3.15371 17.3185 2.99891 16.76 3.00001H11.24C10.6816 2.99891 10.1339 3.15371 9.65865 3.44698C9.18341 3.74026 8.79946 4.16036 8.55002 4.66001L7.88002 6.00001H12.76C13.6895 5.99818 14.6011 6.25548 15.3925 6.74301C16.1838 7.23054 16.8236 7.92902 17.24 8.76001L18.58 11.45C18.8541 12.0071 18.9977 12.6192 19 13.24V15C19 15.2652 19.1054 15.5196 19.2929 15.7071C19.4804 15.8946 19.7348 16 20 16C20.2652 16 20.5196 15.8946 20.7071 15.7071C20.8947 15.5196 21 15.2652 21 15V8.24001C21.0012 7.92772 20.9293 7.6195 20.79 7.34001ZM15.45 9.66001C15.2006 9.16036 14.8166 8.74026 14.3414 8.44698C13.8661 8.15371 13.3185 7.99891 12.76 8.00001H7.24002C6.68157 7.99891 6.1339 8.15371 5.65865 8.44698C5.18341 8.74026 4.79946 9.16036 4.55002 9.66001L3.21002 12.34C3.07071 12.6195 2.99879 12.9277 3.00002 13.24V20C3.00002 20.2652 3.10537 20.5196 3.29291 20.7071C3.48044 20.8946 3.7348 21 4.00002 21C4.26523 21 4.51959 20.8946 4.70712 20.7071C4.89466 20.5196 5.00002 20.2652 5.00002 20V19H15V20C15 20.2652 15.1054 20.5196 15.2929 20.7071C15.4804 20.8946 15.7348 21 16 21C16.2652 21 16.5196 20.8946 16.7071 20.7071C16.8947 20.5196 17 20.2652 17 20V13.24C17.0012 12.9277 16.9293 12.6195 16.79 12.34L15.45 9.66001ZM6.34002 10.55C6.42388 10.3836 6.55258 10.2439 6.71161 10.1467C6.87063 10.0495 7.05365 9.99871 7.24002 10H12.76C12.9464 9.99871 13.1294 10.0495 13.2884 10.1467C13.4474 10.2439 13.5762 10.3836 13.66 10.55L14.88 13H5.12002L6.34002 10.55ZM6.71002 16.71C6.54542 16.8748 6.32849 16.9769 6.09663 16.9988C5.86478 17.0207 5.63256 16.961 5.44002 16.83C5.27586 16.7214 5.14994 16.564 5.08002 16.38C4.99608 16.199 4.96822 15.997 5.00002 15.8C5.03699 15.6015 5.13321 15.4188 5.276 15.276C5.4188 15.1332 5.60148 15.037 5.80002 15C5.99502 14.9619 6.19694 14.9828 6.38002 15.06C6.56401 15.1299 6.72141 15.2559 6.83002 15.42C6.96102 15.6125 7.02072 15.8448 6.99882 16.0766C6.97691 16.3085 6.87477 16.5254 6.71002 16.69V16.71ZM14.71 16.71C14.5454 16.8748 14.3285 16.9769 14.0966 16.9988C13.8648 17.0207 13.6326 16.961 13.44 16.83C13.2759 16.7214 13.1499 16.564 13.08 16.38C12.9961 16.199 12.9682 15.997 13 15.8C13.037 15.6015 13.1332 15.4188 13.276 15.276C13.4188 15.1332 13.6015 15.037 13.8 15C13.995 14.9619 14.1969 14.9828 14.38 15.06C14.564 15.1299 14.7214 15.2559 14.83 15.42C14.961 15.6125 15.0207 15.8448 14.9988 16.0766C14.9769 16.3085 14.8748 16.5254 14.71 16.69V16.71Z" fill="#141414"/>
</svg>
