<svg width="24" height="24" viewBox="0 0 24 24" fill="none" xmlns="http://www.w3.org/2000/svg">
<path d="M14 15H10C9.20435 15 8.44129 15.3161 7.87868 15.8787C7.31607 16.4413 7 17.2044 7 18C7 18.7957 7.31607 19.5588 7.87868 20.1214C8.44129 20.684 9.20435 21 10 21H14C14.7957 21 15.5587 20.684 16.1213 20.1214C16.6839 19.5588 17 18.7957 17 18C17 17.2044 16.6839 16.4413 16.1213 15.8787C15.5587 15.3161 14.7957 15 14 15ZM18.75 9.00004H18.61C20.032 7.71167 20.8905 5.9158 21 4.00004C21.0005 3.78554 20.932 3.57657 20.8046 3.40398C20.6772 3.2314 20.4977 3.10434 20.2926 3.04157C20.0875 2.97881 19.8676 2.98366 19.6655 3.05541C19.4634 3.12716 19.2896 3.26201 19.17 3.44004C18.479 4.41836 17.6388 5.2822 16.68 6.00004C15.9266 5.37134 14.9811 5.01857 14 5.00004H10C9.01888 5.01857 8.07345 5.37134 7.32 6.00004C6.36122 5.2822 5.521 4.41836 4.83 3.44004C4.71036 3.26201 4.53665 3.12716 4.3345 3.05541C4.13236 2.98366 3.9125 2.97881 3.70738 3.04157C3.50227 3.10434 3.32278 3.2314 3.1954 3.40398C3.06803 3.57657 2.99952 3.78554 3 4.00004C3.10954 5.9158 3.96796 7.71167 5.39 9.00004H5.25C4.65327 9.00004 4.08097 9.2371 3.65901 9.65905C3.23706 10.081 3 10.6533 3 11.25C3.00259 11.4481 3.08244 11.6374 3.22254 11.7775C3.36263 11.9176 3.5519 11.9975 3.75 12H5.25C5.62891 11.9976 6.00082 11.8977 6.33 11.71C6.33 11.85 6.4 11.99 6.44 12.13C6.61574 12.7875 6.74934 13.4555 6.84 14.13C7.7317 13.4006 8.84794 13.0014 10 13H14C15.1545 13.007 16.271 13.4134 17.16 14.15C17.2507 13.4755 17.3843 12.8075 17.56 12.15C17.56 12.01 17.63 11.87 17.67 11.73C17.9992 11.9177 18.3711 12.0176 18.75 12.02H20.25C20.4481 12.0175 20.6374 11.9376 20.7775 11.7975C20.9176 11.6574 20.9974 11.4682 21 11.27C21.0026 10.9729 20.9464 10.6782 20.8345 10.4029C20.7226 10.1276 20.5573 9.87716 20.3481 9.66611C20.1389 9.45505 19.89 9.28753 19.6157 9.17321C19.3414 9.05889 19.0472 9.00003 18.75 9.00004ZM9 11C8.80222 11 8.60888 10.9414 8.44443 10.8315C8.27998 10.7216 8.15181 10.5655 8.07612 10.3827C8.00044 10.2 7.98063 9.99893 8.01922 9.80495C8.0578 9.61097 8.15304 9.43279 8.2929 9.29294C8.43275 9.15308 8.61093 9.05784 8.80491 9.01926C8.99889 8.98067 9.19996 9.00048 9.38269 9.07616C9.56541 9.15185 9.72159 9.28002 9.83147 9.44447C9.94135 9.60892 10 9.80226 10 10C10 10.2653 9.89465 10.5196 9.70711 10.7071C9.51957 10.8947 9.26522 11 9 11ZM15 11C14.8022 11 14.6089 10.9414 14.4444 10.8315C14.28 10.7216 14.1518 10.5655 14.0761 10.3827C14.0004 10.2 13.9806 9.99893 14.0192 9.80495C14.0578 9.61097 14.153 9.43279 14.2929 9.29294C14.4327 9.15308 14.6109 9.05784 14.8049 9.01926C14.9989 8.98067 15.2 9.00048 15.3827 9.07616C15.5654 9.15185 15.7216 9.28002 15.8315 9.44447C15.9414 9.60892 16 9.80226 16 10C16 10.2653 15.8946 10.5196 15.7071 10.7071C15.5196 10.8947 15.2652 11 15 11Z" fill="#141414"/>
</svg>
