<svg width="24" height="24" viewBox="0 0 24 24" fill="none" xmlns="http://www.w3.org/2000/svg">
<path d="M2.07003 7.92992L4.00003 15.1399V5.99992C4.00299 5.77162 4.02642 5.54404 4.07003 5.31992L3.48003 5.47992C2.96834 5.61811 2.53242 5.95376 2.26804 6.41314C2.00366 6.87253 1.93244 7.41807 2.07003 7.92992ZM8.71003 3.99992H8.00003C7.4696 3.99992 6.96089 4.21064 6.58582 4.58571C6.21074 4.96078 6.00003 5.46949 6.00003 5.99992V13.5899L8.29003 4.99992C8.38239 4.64853 8.52378 4.31189 8.71003 3.99992ZM20.52 6.18992L12.68 4.06992C12.4253 4.00047 12.1592 3.98216 11.8974 4.01605C11.6355 4.04994 11.3829 4.13536 11.1542 4.26737C10.9255 4.39939 10.7252 4.5754 10.5648 4.78523C10.4045 4.99506 10.2873 5.23456 10.22 5.48992L7.07003 17.3699C6.93545 17.8804 7.00816 18.4234 7.27229 18.8804C7.53642 19.3375 7.97056 19.6716 8.48003 19.8099L16.32 21.9299C16.4926 21.9777 16.671 22.0013 16.85 21.9999C17.2013 21.9993 17.5462 21.9062 17.85 21.7299C18.0777 21.5978 18.2771 21.422 18.4367 21.2126C18.5962 21.0033 18.7129 20.7645 18.78 20.5099L21.93 8.62992C22.0646 8.11946 21.9919 7.57648 21.7278 7.11941C21.4636 6.66233 21.0295 6.32821 20.52 6.18992ZM10 17.9999C9.80225 17.9999 9.60891 17.9413 9.44446 17.8314C9.28001 17.7215 9.15184 17.5653 9.07615 17.3826C9.00046 17.1999 8.98066 16.9988 9.01924 16.8048C9.05783 16.6109 9.15307 16.4327 9.29292 16.2928C9.43278 16.153 9.61096 16.0577 9.80494 16.0191C9.99892 15.9806 10.2 16.0004 10.3827 16.076C10.5654 16.1517 10.7216 16.2799 10.8315 16.4444C10.9414 16.6088 11 16.8021 11 16.9999C11 17.2651 10.8947 17.5195 10.7071 17.707C10.5196 17.8946 10.2652 17.9999 10 17.9999Z" fill="#141414"/>
</svg>
