<svg width="24" height="24" viewBox="0 0 24 24" fill="none" xmlns="http://www.w3.org/2000/svg">
<path d="M18 3.99991H14.82C14.6098 3.42076 14.2264 2.92037 13.7218 2.56676C13.2173 2.21314 12.6161 2.02344 12 2.02344C11.3839 2.02344 10.7827 2.21314 10.2782 2.56676C9.77363 2.92037 9.3902 3.42076 9.18 3.99991H6C5.46957 3.99991 4.96086 4.21063 4.58579 4.5857C4.21071 4.96077 4 5.46948 4 5.99991V19.9999C4 20.5303 4.21071 21.0391 4.58579 21.4141C4.96086 21.7892 5.46957 21.9999 6 21.9999H18C18.5304 21.9999 19.0391 21.7892 19.4142 21.4141C19.7893 21.0391 20 20.5303 20 19.9999V5.99991C20 5.46948 19.7893 4.96077 19.4142 4.5857C19.0391 4.21063 18.5304 3.99991 18 3.99991ZM12 3.99991C12.1978 3.99991 12.3911 4.05856 12.5556 4.16844C12.72 4.27833 12.8482 4.4345 12.9239 4.61723C12.9996 4.79996 13.0194 5.00102 12.9808 5.195C12.9422 5.38899 12.847 5.56717 12.7071 5.70702C12.5673 5.84687 12.3891 5.94211 12.1951 5.9807C12.0011 6.01928 11.8 5.99948 11.6173 5.92379C11.4346 5.84811 11.2784 5.71993 11.1685 5.55548C11.0586 5.39104 11 5.1977 11 4.99991C11 4.7347 11.1054 4.48034 11.2929 4.29281C11.4804 4.10527 11.7348 3.99991 12 3.99991ZM12 8.49991C12.4945 8.49991 12.9778 8.64654 13.3889 8.92124C13.8 9.19594 14.1205 9.58639 14.3097 10.0432C14.4989 10.5 14.5484 11.0027 14.452 11.4876C14.3555 11.9726 14.1174 12.418 13.7678 12.7677C13.4181 13.1173 12.9727 13.3554 12.4877 13.4519C12.0028 13.5483 11.5001 13.4988 11.0433 13.3096C10.5865 13.1204 10.196 12.8 9.92133 12.3888C9.64662 11.9777 9.5 11.4944 9.5 10.9999C9.5 10.3369 9.76339 9.70099 10.2322 9.23215C10.7011 8.76331 11.337 8.49991 12 8.49991ZM16.31 17.9999C16.2227 18.1511 16.0975 18.2767 15.9466 18.3644C15.7957 18.4522 15.6245 18.4989 15.45 18.4999H8.55C8.37497 18.4989 8.20329 18.4519 8.05211 18.3637C7.90093 18.2755 7.77554 18.1492 7.68848 17.9973C7.60143 17.8455 7.55575 17.6734 7.55602 17.4984C7.55628 17.3234 7.60248 17.1515 7.69 16.9999C8.13147 16.2492 8.76137 15.6268 9.51733 15.1944C10.2733 14.7619 11.1291 14.5345 12 14.5345C12.8709 14.5345 13.7267 14.7619 14.4827 15.1944C15.2386 15.6268 15.8685 16.2492 16.31 16.9999C16.3978 17.1519 16.444 17.3244 16.444 17.4999C16.444 17.6755 16.3978 17.8479 16.31 17.9999Z" fill="#141414"/>
</svg>
