<svg width="24" height="24" viewBox="0 0 24 24" fill="none" xmlns="http://www.w3.org/2000/svg">
<path d="M16.6199 15.8601C16.4342 15.6741 16.2136 15.5266 15.9708 15.426C15.728 15.3253 15.4678 15.2735 15.2049 15.2735C14.9421 15.2735 14.6819 15.3253 14.4391 15.426C14.1963 15.5266 13.9757 15.6741 13.7899 15.8601L13.0899 16.5701C12.997 16.6638 12.8864 16.7382 12.7645 16.789C12.6427 16.8398 12.512 16.8659 12.3799 16.8659C12.2479 16.8659 12.1172 16.8398 11.9954 16.789C11.8735 16.7382 11.7629 16.6638 11.6699 16.5701C11.6699 16.5701 8.13994 13.0001 7.42994 12.3301C7.33622 12.2371 7.26182 12.1265 7.21105 12.0047C7.16028 11.8828 7.13415 11.7521 7.13415 11.6201C7.13415 11.4881 7.16028 11.3574 7.21105 11.2355C7.26182 11.1137 7.33622 11.0031 7.42994 10.9101L8.13994 10.2101C8.3259 10.0243 8.47341 9.80377 8.57406 9.56098C8.67471 9.31818 8.72652 9.05793 8.72652 8.7951C8.72652 8.53226 8.67471 8.27201 8.57406 8.02921C8.47341 7.78642 8.3259 7.56584 8.13994 7.3801L7.42994 6.6701C7.2442 6.48414 7.02362 6.33662 6.78082 6.23598C6.53803 6.13533 6.27777 6.08352 6.01494 6.08352C5.75211 6.08352 5.49186 6.13533 5.24906 6.23598C5.00627 6.33662 4.78569 6.48414 4.59994 6.6701L3.59994 7.6701C3.2963 7.97651 3.09986 8.37289 3.03994 8.8001C2.87994 10.2001 2.99994 13.5401 6.71994 17.2801C10.4399 21.0201 13.7999 21.1201 15.2099 21.0001C15.6371 20.9402 16.0335 20.7437 16.3399 20.4401L17.3399 19.4401C17.5259 19.2544 17.6734 19.0338 17.7741 18.791C17.8747 18.5482 17.9265 18.2879 17.9265 18.0251C17.9265 17.7623 17.8747 17.502 17.7741 17.2592C17.6734 17.0164 17.5259 16.7958 17.3399 16.6101L16.6199 15.8601ZM17.4999 3.0001H14.4999C13.6746 2.99399 12.8737 3.28064 12.2397 3.80911C11.6056 4.33759 11.1794 5.07368 11.0367 5.88667C10.894 6.69966 11.0441 7.53691 11.4603 8.24971C11.8765 8.96252 12.5318 9.50475 13.3099 9.7801L12.9999 11.0901C12.9665 11.2362 12.9783 11.389 13.0337 11.5283C13.089 11.6676 13.1854 11.7868 13.3099 11.8701C13.433 11.9562 13.5798 12.0016 13.7299 12.0001C13.8803 12.003 14.0275 11.9574 14.1499 11.8701L16.8999 10.0001H17.4999C18.4282 10.0001 19.3184 9.63135 19.9748 8.97497C20.6312 8.31859 20.9999 7.42835 20.9999 6.5001C20.9999 5.57184 20.6312 4.6816 19.9748 4.02522C19.3184 3.36884 18.4282 3.0001 17.4999 3.0001Z" fill="#141414"/>
</svg>
