<svg width="24" height="24" viewBox="0 0 24 24" fill="none" xmlns="http://www.w3.org/2000/svg">
<path d="M16.0001 10C16.2653 10 16.5196 9.89464 16.7072 9.70711C16.8947 9.51957 17.0001 9.26522 17.0001 9V5C17.0001 4.73478 16.8947 4.48043 16.7072 4.29289C16.5196 4.10536 16.2653 4 16.0001 4C15.7348 4 15.4805 4.10536 15.293 4.29289C15.1054 4.48043 15.0001 4.73478 15.0001 5V9C15.0001 9.26522 15.1054 9.51957 15.293 9.70711C15.4805 9.89464 15.7348 10 16.0001 10ZM18.1601 14.32C17.7853 13.9475 17.2784 13.7384 16.7501 13.7384C16.2217 13.7384 15.7148 13.9475 15.3401 14.32L14.6301 15.03C14.5371 15.1237 14.4265 15.1981 14.3046 15.2489C14.1828 15.2997 14.0521 15.3258 13.9201 15.3258C13.788 15.3258 13.6573 15.2997 13.5355 15.2489C13.4136 15.1981 13.303 15.1237 13.2101 15.03L9.00006 10.79C8.90633 10.697 8.83194 10.5864 8.78117 10.4646C8.7304 10.3427 8.70426 10.212 8.70426 10.08C8.70426 9.94799 8.7304 9.81728 8.78117 9.69542C8.83194 9.57356 8.90633 9.46296 9.00006 9.37L9.71006 8.66C10.0826 8.28527 10.2916 7.77837 10.2916 7.25C10.2916 6.72163 10.0826 6.21473 9.71006 5.84L9.00006 5.13C8.81431 4.94405 8.59373 4.79653 8.35094 4.69588C8.10814 4.59523 7.84789 4.54343 7.58506 4.54343C7.32223 4.54343 7.06197 4.59523 6.81918 4.69588C6.57638 4.79653 6.3558 4.94405 6.17006 5.13L5.17006 6.13C4.85584 6.42997 4.65455 6.82902 4.60006 7.26C4.42006 8.66 4.52006 12 8.27006 15.73C12.0201 19.46 15.3401 19.58 16.7501 19.41C17.181 19.3555 17.5801 19.1542 17.8801 18.84L18.8801 17.84C19.066 17.6543 19.2135 17.4337 19.3142 17.1909C19.4148 16.9481 19.4666 16.6878 19.4666 16.425C19.4666 16.1622 19.4148 15.9019 19.3142 15.6591C19.2135 15.4163 19.066 15.1957 18.8801 15.01L18.1601 14.32ZM19.0001 4C18.7348 4 18.4805 4.10536 18.293 4.29289C18.1054 4.48043 18.0001 4.73478 18.0001 5V9C18.0001 9.26522 18.1054 9.51957 18.293 9.70711C18.4805 9.89464 18.7348 10 19.0001 10C19.2653 10 19.5196 9.89464 19.7072 9.70711C19.8947 9.51957 20.0001 9.26522 20.0001 9V5C20.0001 4.73478 19.8947 4.48043 19.7072 4.29289C19.5196 4.10536 19.2653 4 19.0001 4Z" fill="#141414"/>
</svg>
