<svg width="24" height="24" viewBox="0 0 24 24" fill="none" xmlns="http://www.w3.org/2000/svg">
<path d="M10.9999 9C11.1316 9.00076 11.262 8.97554 11.3839 8.92577C11.5057 8.87601 11.6165 8.80268 11.7099 8.71L13.9999 6.41V7C13.9999 7.26522 14.1053 7.51957 14.2928 7.70711C14.4804 7.89464 14.7347 8 14.9999 8C15.2652 8 15.5195 7.89464 15.7071 7.70711C15.8946 7.51957 15.9999 7.26522 15.9999 7V4C15.9984 3.86932 15.9712 3.74022 15.9199 3.62C15.8185 3.37565 15.6243 3.18147 15.3799 3.08C15.2597 3.02876 15.1306 3.00158 14.9999 3H11.9999C11.7347 3 11.4804 3.10536 11.2928 3.29289C11.1053 3.48043 10.9999 3.73478 10.9999 4C10.9999 4.26522 11.1053 4.51957 11.2928 4.70711C11.4804 4.89464 11.7347 5 11.9999 5H12.5899L10.2899 7.29C10.1962 7.38296 10.1218 7.49356 10.0711 7.61542C10.0203 7.73728 9.99415 7.86799 9.99415 8C9.99415 8.13201 10.0203 8.26272 10.0711 8.38458C10.1218 8.50644 10.1962 8.61704 10.2899 8.71C10.3834 8.80268 10.4942 8.87601 10.616 8.92577C10.7379 8.97554 10.8683 9.00076 10.9999 9ZM21.7099 8.29C21.617 8.19627 21.5064 8.12188 21.3845 8.07111C21.2627 8.02034 21.132 7.9942 20.9999 7.9942C20.8679 7.9942 20.7372 8.02034 20.6154 8.07111C20.4935 8.12188 20.3829 8.19627 20.2899 8.29L17.9999 10.59V10C17.9999 9.73478 17.8946 9.48043 17.7071 9.29289C17.5195 9.10536 17.2652 9 16.9999 9C16.7347 9 16.4804 9.10536 16.2928 9.29289C16.1053 9.48043 15.9999 9.73478 15.9999 10V13C16.0015 13.1307 16.0287 13.2598 16.0799 13.38C16.1814 13.6243 16.3756 13.8185 16.6199 13.92C16.7402 13.9712 16.8693 13.9984 16.9999 14H19.9999C20.2652 14 20.5195 13.8946 20.7071 13.7071C20.8946 13.5196 20.9999 13.2652 20.9999 13C20.9999 12.7348 20.8946 12.4804 20.7071 12.2929C20.5195 12.1054 20.2652 12 19.9999 12H19.4099L21.7099 9.71C21.8037 9.61704 21.8781 9.50644 21.9288 9.38458C21.9796 9.26272 22.0057 9.13201 22.0057 9C22.0057 8.86799 21.9796 8.73728 21.9288 8.61542C21.8781 8.49356 21.8037 8.38296 21.7099 8.29ZM15.6199 15.86C15.4342 15.674 15.2136 15.5265 14.9708 15.4259C14.728 15.3252 14.4678 15.2734 14.2049 15.2734C13.9421 15.2734 13.6819 15.3252 13.4391 15.4259C13.1963 15.5265 12.9757 15.674 12.7899 15.86L12.0899 16.57C11.997 16.6637 11.8864 16.7381 11.7645 16.7889C11.6427 16.8397 11.512 16.8658 11.3799 16.8658C11.2479 16.8658 11.1172 16.8397 10.9954 16.7889C10.8735 16.7381 10.7629 16.6637 10.6699 16.57L6.42994 12.33C6.33622 12.237 6.26182 12.1264 6.21105 12.0046C6.16028 11.8827 6.13415 11.752 6.13415 11.62C6.13415 11.488 6.16028 11.3573 6.21105 11.2354C6.26182 11.1136 6.33622 11.003 6.42994 10.91L7.13994 10.21C7.3259 10.0243 7.47341 9.80368 7.57406 9.56088C7.67471 9.31808 7.72652 9.05783 7.72652 8.795C7.72652 8.53217 7.67471 8.27192 7.57406 8.02912C7.47341 7.78632 7.3259 7.56575 7.13994 7.38L6.42994 6.67C6.2442 6.48405 6.02362 6.33653 5.78082 6.23588C5.53803 6.13523 5.27777 6.08343 5.01494 6.08343C4.75211 6.08343 4.49186 6.13523 4.24906 6.23588C4.00627 6.33653 3.78569 6.48405 3.59994 6.67L2.59994 7.67C2.2963 7.97642 2.09986 8.3728 2.03994 8.8C1.87994 10.2 1.99994 13.54 5.71994 17.28C9.43994 21.02 12.7999 21.12 14.2099 21C14.6371 20.9401 15.0335 20.7436 15.3399 20.44L16.3399 19.44C16.5259 19.2543 16.6734 19.0337 16.7741 18.7909C16.8747 18.5481 16.9265 18.2878 16.9265 18.025C16.9265 17.7622 16.8747 17.5019 16.7741 17.2591C16.6734 17.0163 16.5259 16.7957 16.3399 16.61L15.6199 15.86Z" fill="#141414"/>
</svg>
