<svg width="24" height="24" viewBox="0 0 24 24" fill="none" xmlns="http://www.w3.org/2000/svg">
<path d="M8.26994 15.73C12.0099 19.48 15.3399 19.58 16.7499 19.41C17.1809 19.3555 17.58 19.1542 17.8799 18.84L18.8799 17.84C19.0659 17.6543 19.2134 17.4337 19.3141 17.1909C19.4147 16.9481 19.4665 16.6879 19.4665 16.425C19.4665 16.1622 19.4147 15.9019 19.3141 15.6592C19.2134 15.4164 19.0659 15.1958 18.8799 15.01L18.1699 14.3C17.7952 13.9275 17.2883 13.7184 16.7599 13.7184C16.2316 13.7184 15.7247 13.9275 15.3499 14.3L14.6399 15.01C14.547 15.1038 14.4364 15.1782 14.3145 15.2289C14.1927 15.2797 14.0619 15.3058 13.9299 15.3058C13.7979 15.3058 13.6672 15.2797 13.5454 15.2289C13.4235 15.1782 13.3129 15.1038 13.2199 15.01L8.99994 10.79C8.90621 10.6971 8.83181 10.5865 8.78104 10.4646C8.73028 10.3427 8.70414 10.212 8.70414 10.08C8.70414 9.94802 8.73028 9.81731 8.78104 9.69545C8.83181 9.57359 8.90621 9.46299 8.99994 9.37003L9.70994 8.66003C10.0824 8.28531 10.2915 7.7784 10.2915 7.25003C10.2915 6.72166 10.0824 6.21476 9.70994 5.84003L8.99994 5.13003C8.81419 4.94408 8.59361 4.79656 8.35082 4.69591C8.10802 4.59526 7.84777 4.54346 7.58494 4.54346C7.32211 4.54346 7.06185 4.59526 6.81906 4.69591C6.57626 4.79656 6.35568 4.94408 6.16994 5.13003L5.16994 6.13003C4.85572 6.43 4.65443 6.82905 4.59994 7.26003C4.41994 8.66003 4.51994 12 8.26994 15.73Z" fill="#141414"/>
</svg>
