<svg width="24" height="24" viewBox="0 0 24 24" fill="none" xmlns="http://www.w3.org/2000/svg">
<path d="M15.6199 15.8601C15.4342 15.6742 15.2136 15.5266 14.9708 15.426C14.728 15.3253 14.4678 15.2735 14.2049 15.2735C13.9421 15.2735 13.6819 15.3253 13.4391 15.426C13.1963 15.5266 12.9757 15.6742 12.7899 15.8601L12.0899 16.5701C11.997 16.6638 11.8864 16.7382 11.7645 16.789C11.6427 16.8398 11.512 16.8659 11.3799 16.8659C11.2479 16.8659 11.1172 16.8398 10.9954 16.789C10.8735 16.7382 10.7629 16.6638 10.6699 16.5701L6.42994 12.3301C6.33622 12.2372 6.26182 12.1266 6.21105 12.0047C6.16028 11.8828 6.13415 11.7521 6.13415 11.6201C6.13415 11.4881 6.16028 11.3574 6.21105 11.2355C6.26182 11.1137 6.33622 11.0031 6.42994 10.9101L7.13994 10.2101C7.3259 10.0244 7.47341 9.80379 7.57406 9.561C7.67471 9.3182 7.72652 9.05795 7.72652 8.79512C7.72652 8.53228 7.67471 8.27203 7.57406 8.02924C7.47341 7.78644 7.3259 7.56586 7.13994 7.38012L6.42994 6.67012C6.2442 6.48416 6.02362 6.33664 5.78082 6.236C5.53803 6.13535 5.27777 6.08354 5.01494 6.08354C4.75211 6.08354 4.49186 6.13535 4.24906 6.236C4.00627 6.33664 3.78569 6.48416 3.59994 6.67012L2.59994 7.67012C2.2963 7.97653 2.09986 8.37291 2.03994 8.80012C1.87994 10.2001 1.99994 13.5401 5.71994 17.2801C9.43994 21.0201 12.7999 21.1201 14.2099 21.0001C14.6371 20.9402 15.0335 20.7438 15.3399 20.4401L16.3399 19.4401C16.5259 19.2544 16.6734 19.0338 16.7741 18.791C16.8747 18.5482 16.9265 18.2879 16.9265 18.0251C16.9265 17.7623 16.8747 17.502 16.7741 17.2592C16.6734 17.0164 16.5259 16.7959 16.3399 16.6101L15.6199 15.8601ZM20.9999 6.00012H20.6899L20.9399 5.35012C21.0328 5.10081 21.0228 4.82484 20.9121 4.58292C20.8015 4.341 20.5992 4.15294 20.3499 4.06012C20.1006 3.96729 19.8247 3.9773 19.5828 4.08795C19.3408 4.19859 19.1528 4.40081 19.0599 4.65012L18.5599 6.00012H16.6899L16.9399 5.35012C17.0328 5.10081 17.0228 4.82484 16.9121 4.58292C16.8015 4.341 16.5992 4.15294 16.3499 4.06012C16.1006 3.96729 15.8247 3.9773 15.5828 4.08795C15.3408 4.19859 15.1528 4.40081 15.0599 4.65012L14.5599 6.00012H12.9999C12.7347 6.00012 12.4804 6.10547 12.2928 6.29301C12.1053 6.48055 11.9999 6.7349 11.9999 7.00012C11.9999 7.26533 12.1053 7.51969 12.2928 7.70722C12.4804 7.89476 12.7347 8.00012 12.9999 8.00012H13.8099L13.0599 10.0001H11.9999C11.7347 10.0001 11.4804 10.1055 11.2928 10.293C11.1053 10.4805 10.9999 10.7349 10.9999 11.0001C10.9999 11.2653 11.1053 11.5197 11.2928 11.7072C11.4804 11.8948 11.7347 12.0001 11.9999 12.0001H12.3099L12.0599 12.6501C12.0136 12.7735 11.992 12.9049 11.9966 13.0366C12.0012 13.1684 12.0318 13.2979 12.0866 13.4178C12.1415 13.5377 12.2195 13.6456 12.3161 13.7352C12.4128 13.8249 12.5263 13.8945 12.6499 13.9401C12.7621 13.9808 12.8806 14.0012 12.9999 14.0001C13.2043 14.0008 13.4039 13.9388 13.5719 13.8226C13.74 13.7064 13.8684 13.5415 13.9399 13.3501L14.4399 12.0001H16.3099L16.0599 12.6501C16.0136 12.7735 15.992 12.9049 15.9966 13.0366C16.0012 13.1684 16.0318 13.2979 16.0866 13.4178C16.1415 13.5377 16.2195 13.6456 16.3161 13.7352C16.4128 13.8249 16.5263 13.8945 16.6499 13.9401C16.7621 13.9808 16.8806 14.0012 16.9999 14.0001C17.2043 14.0008 17.4039 13.9388 17.5719 13.8226C17.74 13.7064 17.8684 13.5415 17.9399 13.3501L18.4399 12.0001H19.9999C20.2652 12.0001 20.5195 11.8948 20.7071 11.7072C20.8946 11.5197 20.9999 11.2653 20.9999 11.0001C20.9999 10.7349 20.8946 10.4805 20.7071 10.293C20.5195 10.1055 20.2652 10.0001 19.9999 10.0001H19.1899L19.9399 8.00012H20.9999C21.2652 8.00012 21.5195 7.89476 21.7071 7.70722C21.8946 7.51969 21.9999 7.26533 21.9999 7.00012C21.9999 6.7349 21.8946 6.48055 21.7071 6.29301C21.5195 6.10547 21.2652 6.00012 20.9999 6.00012ZM17.0599 10.0001H15.1899L15.9399 8.00012H17.8099L17.0599 10.0001Z" fill="#141414"/>
</svg>
