<svg width="24" height="24" viewBox="0 0 24 24" fill="none" xmlns="http://www.w3.org/2000/svg">
<path d="M15 8H9C8.73478 8 8.48043 8.10536 8.29289 8.29289C8.10536 8.48043 8 8.73478 8 9V15C8 15.2652 8.10536 15.5196 8.29289 15.7071C8.48043 15.8946 8.73478 16 9 16H15C15.2652 16 15.5196 15.8946 15.7071 15.7071C15.8946 15.5196 16 15.2652 16 15V9C16 8.73478 15.8946 8.48043 15.7071 8.29289C15.5196 8.10536 15.2652 8 15 8ZM21 13C21.2652 13 21.5196 12.8946 21.7071 12.7071C21.8946 12.5196 22 12.2652 22 12C22 11.7348 21.8946 11.4804 21.7071 11.2929C21.5196 11.1054 21.2652 11 21 11H20V9H21C21.2652 9 21.5196 8.89464 21.7071 8.70711C21.8946 8.51957 22 8.26522 22 8C22 7.73478 21.8946 7.48043 21.7071 7.29289C21.5196 7.10536 21.2652 7 21 7H19.86C19.6804 6.31214 19.3208 5.68457 18.8181 5.18188C18.3154 4.67919 17.6879 4.31956 17 4.14V3C17 2.73478 16.8946 2.48043 16.7071 2.29289C16.5196 2.10536 16.2652 2 16 2C15.7348 2 15.4804 2.10536 15.2929 2.29289C15.1054 2.48043 15 2.73478 15 3V4H13V3C13 2.73478 12.8946 2.48043 12.7071 2.29289C12.5196 2.10536 12.2652 2 12 2C11.7348 2 11.4804 2.10536 11.2929 2.29289C11.1054 2.48043 11 2.73478 11 3V4H9V3C9 2.73478 8.89464 2.48043 8.70711 2.29289C8.51957 2.10536 8.26522 2 8 2C7.73478 2 7.48043 2.10536 7.29289 2.29289C7.10536 2.48043 7 2.73478 7 3V4.14C6.31214 4.31956 5.68457 4.67919 5.18188 5.18188C4.67919 5.68457 4.31956 6.31214 4.14 7H3C2.73478 7 2.48043 7.10536 2.29289 7.29289C2.10536 7.48043 2 7.73478 2 8C2 8.26522 2.10536 8.51957 2.29289 8.70711C2.48043 8.89464 2.73478 9 3 9H4V11H3C2.73478 11 2.48043 11.1054 2.29289 11.2929C2.10536 11.4804 2 11.7348 2 12C2 12.2652 2.10536 12.5196 2.29289 12.7071C2.48043 12.8946 2.73478 13 3 13H4V15H3C2.73478 15 2.48043 15.1054 2.29289 15.2929C2.10536 15.4804 2 15.7348 2 16C2 16.2652 2.10536 16.5196 2.29289 16.7071C2.48043 16.8946 2.73478 17 3 17H4.14C4.31956 17.6879 4.67919 18.3154 5.18188 18.8181C5.68457 19.3208 6.31214 19.6804 7 19.86V21C7 21.2652 7.10536 21.5196 7.29289 21.7071C7.48043 21.8946 7.73478 22 8 22C8.26522 22 8.51957 21.8946 8.70711 21.7071C8.89464 21.5196 9 21.2652 9 21V20H11V21C11 21.2652 11.1054 21.5196 11.2929 21.7071C11.4804 21.8946 11.7348 22 12 22C12.2652 22 12.5196 21.8946 12.7071 21.7071C12.8946 21.5196 13 21.2652 13 21V20H15V21C15 21.2652 15.1054 21.5196 15.2929 21.7071C15.4804 21.8946 15.7348 22 16 22C16.2652 22 16.5196 21.8946 16.7071 21.7071C16.8946 21.5196 17 21.2652 17 21V19.86C17.6879 19.6804 18.3154 19.3208 18.8181 18.8181C19.3208 18.3154 19.6804 17.6879 19.86 17H21C21.2652 17 21.5196 16.8946 21.7071 16.7071C21.8946 16.5196 22 16.2652 22 16C22 15.7348 21.8946 15.4804 21.7071 15.2929C21.5196 15.1054 21.2652 15 21 15H20V13H21ZM17.71 16C17.7113 16.2249 17.668 16.4479 17.5825 16.656C17.4971 16.864 17.3712 17.0531 17.2121 17.2121C17.0531 17.3712 16.864 17.4971 16.656 17.5825C16.4479 17.668 16.2249 17.7113 16 17.71H8C7.77507 17.7113 7.55211 17.668 7.34404 17.5825C7.13598 17.4971 6.94694 17.3712 6.78789 17.2121C6.62884 17.0531 6.50293 16.864 6.41746 16.656C6.332 16.4479 6.28867 16.2249 6.29 16V8C6.28867 7.77507 6.332 7.55211 6.41746 7.34404C6.50293 7.13598 6.62884 6.94694 6.78789 6.78789C6.94694 6.62884 7.13598 6.50293 7.34404 6.41746C7.55211 6.332 7.77507 6.28867 8 6.29H16C16.2249 6.28867 16.4479 6.332 16.656 6.41746C16.864 6.50293 17.0531 6.62884 17.2121 6.78789C17.3712 6.94694 17.4971 7.13598 17.5825 7.34404C17.668 7.55211 17.7113 7.77507 17.71 8V16Z" fill="#141414"/>
</svg>
