<svg width="24" height="24" viewBox="0 0 24 24" fill="none" xmlns="http://www.w3.org/2000/svg">
<path d="M15.7 2H10.3C9.30644 1.99981 8.32696 2.23539 7.44211 2.68738C6.55726 3.13936 5.79228 3.79486 5.21004 4.6C6.19262 4.20568 7.24129 4.00205 8.30004 4H13.7C15.5279 4.00544 17.3029 4.61412 18.7494 5.73158C20.196 6.84903 21.2332 8.41274 21.7 10.18C21.8969 9.57267 21.9981 8.93843 22 8.3C22 7.47267 21.8371 6.65345 21.5205 5.88909C21.2039 5.12474 20.7398 4.43024 20.1548 3.84523C19.5698 3.26022 18.8753 2.79616 18.1109 2.47956C17.3466 2.16295 16.5274 2 15.7 2ZM13.7 6H8.30004C6.71353 6.00903 5.18883 6.61632 4.03056 7.70054C2.8723 8.78476 2.16575 10.2661 2.05209 11.8485C1.93842 13.431 2.42601 14.9981 3.41743 16.2367C4.40885 17.4754 5.8311 18.2943 7.40004 18.53V20.4C7.40004 20.6507 7.46986 20.8965 7.60166 21.1097C7.73347 21.323 7.92206 21.4954 8.1463 21.6075C8.37055 21.7196 8.62158 21.7671 8.87128 21.7445C9.12098 21.722 9.35947 21.6304 9.56004 21.48L13.4 18.6H13.7C15.3709 18.6 16.9733 17.9363 18.1548 16.7548C19.3363 15.5733 20 13.9709 20 12.3C20 10.6291 19.3363 9.02671 18.1548 7.84523C16.9733 6.66375 15.3709 6 13.7 6ZM7.00004 13C6.80226 13 6.60892 12.9414 6.44447 12.8315C6.28002 12.7216 6.15185 12.5654 6.07616 12.3827C6.00047 12.2 5.98067 11.9989 6.01926 11.8049C6.05784 11.6109 6.15308 11.4327 6.29294 11.2929C6.43279 11.153 6.61097 11.0578 6.80495 11.0192C6.99893 10.9806 7.2 11.0004 7.38273 11.0761C7.56545 11.1518 7.72163 11.28 7.83151 11.4444C7.94139 11.6089 8.00004 11.8022 8.00004 12C8.00004 12.2652 7.89468 12.5196 7.70715 12.7071C7.51961 12.8946 7.26526 13 7.00004 13ZM11 13C10.8023 13 10.6089 12.9414 10.4445 12.8315C10.28 12.7216 10.1518 12.5654 10.0762 12.3827C10.0005 12.2 9.98067 11.9989 10.0193 11.8049C10.0578 11.6109 10.1531 11.4327 10.2929 11.2929C10.4328 11.153 10.611 11.0578 10.805 11.0192C10.9989 10.9806 11.2 11.0004 11.3827 11.0761C11.5655 11.1518 11.7216 11.28 11.8315 11.4444C11.9414 11.6089 12 11.8022 12 12C12 12.2652 11.8947 12.5196 11.7071 12.7071C11.5196 12.8946 11.2653 13 11 13ZM15 13C14.8023 13 14.6089 12.9414 14.4445 12.8315C14.28 12.7216 14.1518 12.5654 14.0762 12.3827C14.0005 12.2 13.9807 11.9989 14.0193 11.8049C14.0578 11.6109 14.1531 11.4327 14.2929 11.2929C14.4328 11.153 14.611 11.0578 14.805 11.0192C14.9989 10.9806 15.2 11.0004 15.3827 11.0761C15.5655 11.1518 15.7216 11.28 15.8315 11.4444C15.9414 11.6089 16 11.8022 16 12C16 12.2652 15.8947 12.5196 15.7071 12.7071C15.5196 12.8946 15.2653 13 15 13Z" fill="#141414"/>
</svg>
