<svg width="24" height="24" viewBox="0 0 24 24" fill="none" xmlns="http://www.w3.org/2000/svg">
<path d="M20.6 16.4002C19.73 15.2802 17.29 13.0002 12 13.0002C6.71 13.0002 4.28 15.2802 3.4 16.4002C3.13 16.7402 3 17.1702 3 17.6002V19.0002C3 20.1002 3.9 21.0002 5 21.0002H6C7.1 21.0002 8 20.1002 8 19.0002V18.0002C8 18.0002 8 17.0002 9 17.0002H15C15 17.0002 16 17.0002 16 18.0002V19.0002C16 20.1002 16.9 21.0002 18 21.0002H19C20.1 21.0002 21 20.1002 21 19.0002V17.6002C21 17.1602 20.87 16.7402 20.6 16.4002ZM7 8.00023C7.55 8.00023 8 7.55023 8 7.00023V6.41023L12.29 10.7002C12.49 10.9002 12.74 10.9902 13 10.9902C13.26 10.9902 13.51 10.8902 13.71 10.7002L17.71 6.70023C18.1 6.31023 18.1 5.68023 17.71 5.29023C17.32 4.90023 16.69 4.90023 16.3 5.29023L13.01 8.58023L9.42 4.99023H10.01C10.56 4.99023 11.01 4.54023 11.01 3.99023C11.01 3.44023 10.56 2.99023 10.01 2.99023H7.01C6.46 2.99023 6.01 3.44023 6.01 3.99023V6.99023C6.01 7.54023 6.46 7.99023 7.01 7.99023L7 8.00023Z" fill="#141414"/>
</svg>
