<svg width="24" height="24" viewBox="0 0 24 24" fill="none" xmlns="http://www.w3.org/2000/svg">
<path d="M15.0001 4H9.00006C7.23973 4.01356 5.54913 4.68987 4.26515 5.89418C2.98118 7.09849 2.1981 8.74235 2.07196 10.4982C1.94582 12.2541 2.48588 13.993 3.58453 15.3685C4.68318 16.7439 6.25974 17.655 8.00006 17.92V20C8.00006 20.2786 8.07763 20.5516 8.22408 20.7886C8.37053 21.0256 8.58008 21.2171 8.82924 21.3416C9.07839 21.4662 9.35732 21.519 9.63476 21.4939C9.91221 21.4689 10.1772 21.3671 10.4001 21.2L14.6701 18H15.0001C16.8566 18 18.637 17.2625 19.9498 15.9497C21.2626 14.637 22.0001 12.8565 22.0001 11C22.0001 9.14348 21.2626 7.36301 19.9498 6.05025C18.637 4.7375 16.8566 4 15.0001 4ZM8.00006 12C7.80228 12 7.60894 11.9414 7.44449 11.8315C7.28004 11.7216 7.15186 11.5654 7.07618 11.3827C7.00049 11.2 6.98069 10.9989 7.01927 10.8049C7.05786 10.6109 7.1531 10.4327 7.29295 10.2929C7.4328 10.153 7.61098 10.0578 7.80497 10.0192C7.99895 9.98063 8.20001 10.0004 8.38274 10.0761C8.56547 10.1518 8.72164 10.28 8.83153 10.4444C8.94141 10.6089 9.00006 10.8022 9.00006 11C9.00006 11.2652 8.8947 11.5196 8.70716 11.7071C8.51963 11.8946 8.26527 12 8.00006 12ZM12.0001 12C11.8023 12 11.6089 11.9414 11.4445 11.8315C11.28 11.7216 11.1519 11.5654 11.0762 11.3827C11.0005 11.2 10.9807 10.9989 11.0193 10.8049C11.0579 10.6109 11.1531 10.4327 11.2929 10.2929C11.4328 10.153 11.611 10.0578 11.805 10.0192C11.9989 9.98063 12.2 10.0004 12.3827 10.0761C12.5655 10.1518 12.7216 10.28 12.8315 10.4444C12.9414 10.6089 13.0001 10.8022 13.0001 11C13.0001 11.2652 12.8947 11.5196 12.7072 11.7071C12.5196 11.8946 12.2653 12 12.0001 12ZM16.0001 12C15.8023 12 15.6089 11.9414 15.4445 11.8315C15.28 11.7216 15.1519 11.5654 15.0762 11.3827C15.0005 11.2 14.9807 10.9989 15.0193 10.8049C15.0579 10.6109 15.1531 10.4327 15.2929 10.2929C15.4328 10.153 15.611 10.0578 15.805 10.0192C15.9989 9.98063 16.2 10.0004 16.3827 10.0761C16.5655 10.1518 16.7216 10.28 16.8315 10.4444C16.9414 10.6089 17.0001 10.8022 17.0001 11C17.0001 11.2652 16.8947 11.5196 16.7072 11.7071C16.5196 11.8946 16.2653 12 16.0001 12Z" fill="#141414"/>
</svg>
