<svg width="24" height="24" viewBox="0 0 24 24" fill="none" xmlns="http://www.w3.org/2000/svg">
<path d="M5 8H6V9C6 9.26522 6.10536 9.51957 6.29289 9.70711C6.48043 9.89464 6.73478 10 7 10C7.26522 10 7.51957 9.89464 7.70711 9.70711C7.89464 9.51957 8 9.26522 8 9V8H9C9.26522 8 9.51957 7.89464 9.70711 7.70711C9.89464 7.51957 10 7.26522 10 7C10 6.73478 9.89464 6.48043 9.70711 6.29289C9.51957 6.10536 9.26522 6 9 6H8V5C8 4.73478 7.89464 4.48043 7.70711 4.29289C7.51957 4.10536 7.26522 4 7 4C6.73478 4 6.48043 4.10536 6.29289 4.29289C6.10536 4.48043 6 4.73478 6 5V6H5C4.73478 6 4.48043 6.10536 4.29289 6.29289C4.10536 6.48043 4 6.73478 4 7C4 7.26522 4.10536 7.51957 4.29289 7.70711C4.48043 7.89464 4.73478 8 5 8ZM9.21 14.79C9.11704 14.6963 9.00644 14.6219 8.88458 14.5711C8.76272 14.5203 8.63201 14.4942 8.5 14.4942C8.36799 14.4942 8.23728 14.5203 8.11542 14.5711C7.99356 14.6219 7.88296 14.6963 7.79 14.79L7 15.59L6.21 14.79C6.11676 14.6968 6.00607 14.6228 5.88425 14.5723C5.76243 14.5219 5.63186 14.4959 5.5 14.4959C5.36814 14.4959 5.23757 14.5219 5.11575 14.5723C4.99393 14.6228 4.88324 14.6968 4.79 14.79C4.69676 14.8832 4.6228 14.9939 4.57234 15.1158C4.52188 15.2376 4.49591 15.3681 4.49591 15.5C4.49591 15.7663 4.6017 16.0217 4.79 16.21L5.59 17L4.79 17.79C4.69627 17.883 4.62188 17.9936 4.57111 18.1154C4.52034 18.2373 4.4942 18.368 4.4942 18.5C4.4942 18.632 4.52034 18.7627 4.57111 18.8846C4.62188 19.0064 4.69627 19.117 4.79 19.21C4.88296 19.3037 4.99356 19.3781 5.11542 19.4289C5.23728 19.4797 5.36799 19.5058 5.5 19.5058C5.63201 19.5058 5.76272 19.4797 5.88458 19.4289C6.00644 19.3781 6.11704 19.3037 6.21 19.21L7 18.41L7.79 19.21C7.88296 19.3037 7.99356 19.3781 8.11542 19.4289C8.23728 19.4797 8.36799 19.5058 8.5 19.5058C8.63201 19.5058 8.76272 19.4797 8.88458 19.4289C9.00644 19.3781 9.11704 19.3037 9.21 19.21C9.30373 19.117 9.37812 19.0064 9.42889 18.8846C9.47966 18.7627 9.5058 18.632 9.5058 18.5C9.5058 18.368 9.47966 18.2373 9.42889 18.1154C9.37812 17.9936 9.30373 17.883 9.21 17.79L8.41 17L9.21 16.21C9.30373 16.117 9.37812 16.0064 9.42889 15.8846C9.47966 15.7627 9.5058 15.632 9.5058 15.5C9.5058 15.368 9.47966 15.2373 9.42889 15.1154C9.37812 14.9936 9.30373 14.883 9.21 14.79ZM15 8H19C19.2652 8 19.5196 7.89464 19.7071 7.70711C19.8946 7.51957 20 7.26522 20 7C20 6.73478 19.8946 6.48043 19.7071 6.29289C19.5196 6.10536 19.2652 6 19 6H15C14.7348 6 14.4804 6.10536 14.2929 6.29289C14.1054 6.48043 14 6.73478 14 7C14 7.26522 14.1054 7.51957 14.2929 7.70711C14.4804 7.89464 14.7348 8 15 8ZM20 11H13V4C13 3.73478 12.8946 3.48043 12.7071 3.29289C12.5196 3.10536 12.2652 3 12 3C11.7348 3 11.4804 3.10536 11.2929 3.29289C11.1054 3.48043 11 3.73478 11 4V11H4C3.73478 11 3.48043 11.1054 3.29289 11.2929C3.10536 11.4804 3 11.7348 3 12C3 12.2652 3.10536 12.5196 3.29289 12.7071C3.48043 12.8946 3.73478 13 4 13H11V20C11 20.2652 11.1054 20.5196 11.2929 20.7071C11.4804 20.8946 11.7348 21 12 21C12.2652 21 12.5196 20.8946 12.7071 20.7071C12.8946 20.5196 13 20.2652 13 20V13H20C20.2652 13 20.5196 12.8946 20.7071 12.7071C20.8946 12.5196 21 12.2652 21 12C21 11.7348 20.8946 11.4804 20.7071 11.2929C20.5196 11.1054 20.2652 11 20 11ZM19 17.5H15C14.7348 17.5 14.4804 17.6054 14.2929 17.7929C14.1054 17.9804 14 18.2348 14 18.5C14 18.7652 14.1054 19.0196 14.2929 19.2071C14.4804 19.3946 14.7348 19.5 15 19.5H19C19.2652 19.5 19.5196 19.3946 19.7071 19.2071C19.8946 19.0196 20 18.7652 20 18.5C20 18.2348 19.8946 17.9804 19.7071 17.7929C19.5196 17.6054 19.2652 17.5 19 17.5ZM19 14.5H15C14.7348 14.5 14.4804 14.6054 14.2929 14.7929C14.1054 14.9804 14 15.2348 14 15.5C14 15.7652 14.1054 16.0196 14.2929 16.2071C14.4804 16.3946 14.7348 16.5 15 16.5H19C19.2652 16.5 19.5196 16.3946 19.7071 16.2071C19.8946 16.0196 20 15.7652 20 15.5C20 15.2348 19.8946 14.9804 19.7071 14.7929C19.5196 14.6054 19.2652 14.5 19 14.5Z" fill="#141414"/>
</svg>
