<svg width="24" height="24" viewBox="0 0 24 24" fill="none" xmlns="http://www.w3.org/2000/svg">
<path d="M12.33 8.82V6H4.87C4.37313 6.00264 3.89751 6.20188 3.5471 6.55416C3.19669 6.90645 2.99999 7.38312 3 7.88V20.12C2.99999 20.6169 3.19669 21.0936 3.5471 21.4458C3.89751 21.7981 4.37313 21.9974 4.87 22H15.13C15.6269 21.9974 16.1025 21.7981 16.4529 21.4458C16.8033 21.0936 17 20.6169 17 20.12V10.71H14.2C13.9531 10.7087 13.7089 10.6588 13.4813 10.5631C13.2537 10.4674 13.0472 10.3278 12.8736 10.1523C12.6999 9.97679 12.5625 9.76881 12.4693 9.54021C12.376 9.31161 12.3287 9.06689 12.33 8.82ZM20.41 5.59L17.41 2.59C17.0366 2.21441 16.5296 2.00223 16 2H8C7.46957 2 6.96086 2.21071 6.58579 2.58579C6.21071 2.96086 6 3.46957 6 4H13C13.7954 4.0007 14.5579 4.31723 15.12 4.88L18.12 7.88C18.6828 8.44207 18.9993 9.20462 19 10V19C19.5304 19 20.0391 18.7893 20.4142 18.4142C20.7893 18.0391 21 17.5304 21 17V7C20.9978 6.47042 20.7856 5.96335 20.41 5.59Z" fill="#141414"/>
</svg>
