<svg width="24" height="24" viewBox="0 0 24 24" fill="none" xmlns="http://www.w3.org/2000/svg">
<path d="M13.5 5C13.7967 5 14.0867 4.91203 14.3334 4.7472C14.58 4.58238 14.7723 4.34811 14.8858 4.07403C14.9994 3.79994 15.0291 3.49834 14.9712 3.20737C14.9133 2.91639 14.7704 2.64912 14.5607 2.43934C14.3509 2.22956 14.0836 2.0867 13.7926 2.02882C13.5017 1.97094 13.2001 2.00065 12.926 2.11418C12.6519 2.22771 12.4176 2.41997 12.2528 2.66665C12.088 2.91332 12 3.20333 12 3.5C12 3.89783 12.158 4.27936 12.4393 4.56066C12.7206 4.84197 13.1022 5 13.5 5ZM18 10H16C15.8448 10 15.6916 9.96386 15.5528 9.89443C15.4139 9.825 15.2932 9.7242 15.2 9.6L12.8 6.4C12.6864 6.24847 12.5321 6.13231 12.3551 6.06504C12.1781 5.99777 11.9856 5.98215 11.8 6.02C11.6192 6.05227 11.4507 6.13374 11.3131 6.25545C11.1755 6.37717 11.0741 6.53444 11.02 6.71L8.25 16C8.15127 16.341 7.98835 16.6601 7.77 16.94L5.2 20.4C5.04087 20.6122 4.97255 20.8789 5.01005 21.1414C5.04756 21.404 5.18783 21.6409 5.4 21.8C5.5731 21.9298 5.78363 22 6 22C6.15525 22 6.30836 21.9639 6.44722 21.8944C6.58607 21.825 6.70686 21.7242 6.8 21.6L9.37 18.17C9.72493 17.7017 9.99254 17.1732 10.16 16.61L10.9 14.14L12.41 15.14C12.6291 15.2868 12.817 15.4754 12.9628 15.6951C13.1087 15.9148 13.2097 16.1611 13.26 16.42L14 20.2C14.0468 20.4293 14.1724 20.6349 14.3551 20.7811C14.5379 20.9272 14.7661 21.0047 15 21H15.2C15.3326 20.9762 15.459 20.9259 15.5716 20.8521C15.6843 20.7783 15.7809 20.6825 15.8556 20.5704C15.9303 20.4583 15.9816 20.3323 16.0064 20.1999C16.0312 20.0676 16.0291 19.9315 16 19.8L15.22 16C15.1206 15.4845 14.919 14.9942 14.627 14.558C14.3351 14.1217 13.9586 13.7484 13.52 13.46L11.52 12.15H11.47L12.36 9.15L13.6 10.8C13.8794 11.1726 14.2418 11.475 14.6584 11.6833C15.0749 11.8916 15.5343 12 16 12H18C18.2652 12 18.5196 11.8946 18.7071 11.7071C18.8946 11.5196 19 11.2652 19 11C19 10.7348 18.8946 10.4804 18.7071 10.2929C18.5196 10.1054 18.2652 10 18 10Z" fill="#141414"/>
</svg>
