<svg width="24" height="24" viewBox="0 0 24 24" fill="none" xmlns="http://www.w3.org/2000/svg">
<path d="M12.9998 4H14.9998C15.5498 4 15.9998 3.55 15.9998 3C15.9998 2.45 15.5498 2 14.9998 2H12.9998C10.5898 2 8.56977 3.72 8.09977 6H10.1798C10.5898 4.84 11.6898 4 12.9998 4ZM11.9998 7H7.99977V7.54C7.99977 9.2 9.03977 10.7 10.5998 11.29L12.5498 12.02C14.6198 12.8 16.0098 14.8 16.0098 17.01C16.0098 17.56 15.5598 18.01 15.0098 18.01C14.4598 18.01 14.0098 17.56 14.0098 17.01C14.0098 15.63 13.1398 14.38 11.8498 13.89L11.0098 13.58V16.01C11.0098 16.56 10.5598 17.01 10.0098 17.01C9.45977 17.01 9.00977 16.56 9.00977 16.01V12.73C7.17977 11.67 6.00977 9.69 6.00977 7.54V3C6.00977 2.45 5.55977 2 5.00977 2C4.45977 2 4.00977 2.45 4.00977 3V14C4.00977 18.42 7.58977 22 12.0098 22H17.0098C18.6698 22 20.0098 20.66 20.0098 19V15C20.0098 10.58 16.4298 7 12.0098 7H11.9998Z" fill="#141414"/>
</svg>
