<svg width="24" height="24" viewBox="0 0 24 24" fill="none" xmlns="http://www.w3.org/2000/svg">
<path d="M19 7.00003H18.1C17.9318 6.99868 17.7666 6.9549 17.6197 6.87274C17.4729 6.79059 17.3492 6.67271 17.26 6.53003L16.26 4.93003C16.0787 4.64366 15.8275 4.40807 15.5302 4.24539C15.2328 4.08272 14.899 3.99828 14.56 4.00003H9.44C9.10274 3.99998 8.77094 4.08521 8.47547 4.24781C8.17999 4.41041 7.93043 4.64509 7.75 4.93003L6.75 6.53003C6.65993 6.67414 6.53462 6.79292 6.38589 6.87516C6.23717 6.95739 6.06994 7.00037 5.9 7.00003H5C4.20435 7.00003 3.44129 7.3161 2.87868 7.87871C2.31607 8.44132 2 9.20438 2 10V17C2 17.7957 2.31607 18.5587 2.87868 19.1213C3.44129 19.684 4.20435 20 5 20H19C19.7956 20 20.5587 19.684 21.1213 19.1213C21.6839 18.5587 22 17.7957 22 17V10C22 9.20438 21.6839 8.44132 21.1213 7.87871C20.5587 7.3161 19.7956 7.00003 19 7.00003ZM12 16C11.4067 16 10.8266 15.8241 10.3333 15.4944C9.83994 15.1648 9.45542 14.6963 9.22836 14.1481C9.0013 13.5999 8.94189 12.9967 9.05764 12.4148C9.1734 11.8328 9.45912 11.2983 9.87868 10.8787C10.2982 10.4591 10.8328 10.1734 11.4147 10.0577C11.9967 9.94191 12.5999 10.0013 13.1481 10.2284C13.6962 10.4555 14.1648 10.84 14.4944 11.3333C14.8241 11.8267 15 12.4067 15 13C15 13.7957 14.6839 14.5587 14.1213 15.1213C13.5587 15.684 12.7956 16 12 16ZM18 12C17.8022 12 17.6089 11.9414 17.4444 11.8315C17.28 11.7216 17.1518 11.5654 17.0761 11.3827C17.0004 11.2 16.9806 10.9989 17.0192 10.8049C17.0578 10.611 17.153 10.4328 17.2929 10.2929C17.4327 10.1531 17.6109 10.0578 17.8049 10.0192C17.9989 9.98066 18.2 10.0005 18.3827 10.0761C18.5654 10.1518 18.7216 10.28 18.8315 10.4445C18.9414 10.6089 19 10.8022 19 11C19 11.2652 18.8946 11.5196 18.7071 11.7071C18.5196 11.8947 18.2652 12 18 12Z" fill="#141414"/>
</svg>
