<svg width="24" height="24" viewBox="0 0 24 24" fill="none" xmlns="http://www.w3.org/2000/svg">
<path d="M12 2C10.0222 2 8.08879 2.58649 6.4443 3.6853C4.79981 4.78412 3.51809 6.3459 2.76121 8.17317C2.00433 10.0004 1.8063 12.0111 2.19215 13.9509C2.578 15.8907 3.53041 17.6725 4.92894 19.0711C6.32746 20.4696 8.10929 21.422 10.0491 21.8079C11.9889 22.1937 13.9996 21.9957 15.8268 21.2388C17.6541 20.4819 19.2159 19.2002 20.3147 17.5557C21.4135 15.9112 22 13.9778 22 12C22 10.6868 21.7413 9.38642 21.2388 8.17317C20.7363 6.95991 19.9997 5.85752 19.0711 4.92893C18.1425 4.00035 17.0401 3.26375 15.8268 2.7612C14.6136 2.25866 13.3132 2 12 2ZM16.71 11.21L12.71 15.21C12.617 15.3037 12.5064 15.3781 12.3846 15.4289C12.2627 15.4797 12.132 15.5058 12 15.5058C11.868 15.5058 11.7373 15.4797 11.6154 15.4289C11.4936 15.3781 11.383 15.3037 11.29 15.21L7.29 11.21C7.19677 11.1168 7.12281 11.0061 7.07234 10.8842C7.02188 10.7624 6.99591 10.6319 6.99591 10.5C6.99591 10.3681 7.02188 10.2376 7.07234 10.1158C7.12281 9.99393 7.19677 9.88324 7.29 9.79C7.38324 9.69676 7.49393 9.6228 7.61576 9.57234C7.73758 9.52188 7.86814 9.49591 8 9.49591C8.13186 9.49591 8.26243 9.52188 8.38425 9.57234C8.50608 9.6228 8.61677 9.69676 8.71 9.79L12 13.09L15.29 9.79C15.4783 9.6017 15.7337 9.49591 16 9.49591C16.2663 9.49591 16.5217 9.6017 16.71 9.79C16.8983 9.9783 17.0041 10.2337 17.0041 10.5C17.0041 10.7663 16.8983 11.0217 16.71 11.21Z" fill="#141414"/>
</svg>
