<svg width="24" height="24" viewBox="0 0 24 24" fill="none" xmlns="http://www.w3.org/2000/svg">
<path d="M12.45 5.00011C12.8812 5.04506 13.3048 5.1459 13.71 5.30011L13.11 6.52011C12.9914 6.75628 12.9711 7.0298 13.0535 7.28089C13.136 7.53198 13.3145 7.74022 13.55 7.86011C13.6855 7.94464 13.8405 7.99285 14 8.00011C14.1847 7.99955 14.3656 7.94787 14.5227 7.85079C14.6798 7.75371 14.8069 7.61502 14.89 7.45011L15.12 7.00011H17C17.2939 7.00439 17.5851 6.94386 17.8529 6.82281C18.1207 6.70176 18.3585 6.52318 18.5495 6.29976C18.7404 6.07635 18.8798 5.8136 18.9577 5.5302C19.0355 5.2468 19.05 4.94973 19 4.66011C18.9029 4.17781 18.6373 3.74585 18.2506 3.44166C17.864 3.13747 17.3816 2.98093 16.89 3.00011H12.5C12.3674 3.00011 12.2402 3.05279 12.1464 3.14656C12.0527 3.24032 12 3.3675 12 3.50011V4.50011C12.0016 4.62386 12.0481 4.74283 12.1309 4.83482C12.2137 4.92681 12.3271 4.98556 12.45 5.00011ZM20 12.0001H18L17 8.70011C16.9342 8.50004 16.807 8.32584 16.6364 8.20234C16.4658 8.07885 16.2606 8.01236 16.05 8.01236C15.8394 8.01236 15.6342 8.07885 15.4636 8.20234C15.293 8.32584 15.1658 8.50004 15.1 8.70011L14 12.0001H12V11.0001C12 10.4697 11.7893 9.96097 11.4142 9.5859C11.0391 9.21082 10.5304 9.00011 10 9.00011H8C7.46957 9.00011 6.96086 9.21082 6.58579 9.5859C6.21071 9.96097 6 10.4697 6 11.0001V12.0001H4C3.73478 12.0001 3.48043 12.1055 3.29289 12.293C3.10536 12.4805 3 12.7349 3 13.0001C3 13.2653 3.10536 13.5197 3.29289 13.7072C3.48043 13.8948 3.73478 14.0001 4 14.0001H4.13L4.89 19.2801C4.95792 19.7607 5.19827 20.2001 5.56624 20.5166C5.93421 20.833 6.40469 21.0049 6.89 21.0001H17.13C17.6153 21.0049 18.0858 20.833 18.4538 20.5166C18.8217 20.2001 19.0621 19.7607 19.13 19.2801L19.87 14.0001H20C20.2652 14.0001 20.5196 13.8948 20.7071 13.7072C20.8946 13.5197 21 13.2653 21 13.0001C21 12.7349 20.8946 12.4805 20.7071 12.293C20.5196 12.1055 20.2652 12.0001 20 12.0001ZM11 6.00011C11 5.73489 10.8946 5.48054 10.7071 5.293C10.5196 5.10547 10.2652 5.00011 10 5.00011H8C7.73478 5.00011 7.48043 5.10547 7.29289 5.293C7.10536 5.48054 7 5.73489 7 6.00011V7.00011H11V6.00011Z" fill="#141414"/>
</svg>
