<svg width="24" height="24" viewBox="0 0 24 24" fill="none" xmlns="http://www.w3.org/2000/svg">
<path d="M14 4.99988C12.9462 4.9992 11.9107 5.27612 10.9978 5.80276C10.085 6.3294 9.32696 7.08719 8.80002 7.99988C8.11446 8.03643 7.44985 8.24883 6.87015 8.61662C6.29044 8.98441 5.81515 9.49521 5.49002 10.0999C4.4956 10.3289 3.60854 10.8891 2.9744 11.6886C2.34025 12.4881 1.99667 13.4794 2.00002 14.4999C1.99857 15.3918 2.26699 16.2633 2.77002 16.9999L14.71 5.04988C14.4747 5.01795 14.2375 5.00125 14 4.99988ZM20 11.5399C20.01 11.36 20.01 11.1797 20 10.9999C19.9939 9.52109 19.442 8.09664 18.45 6.99988L20.45 4.99988C20.5479 4.90467 20.626 4.79112 20.6799 4.66572C20.7339 4.54032 20.7626 4.40552 20.7645 4.26902C20.7663 4.13252 20.7413 3.99698 20.6908 3.87016C20.6402 3.74334 20.5652 3.62771 20.47 3.52988C20.3748 3.43204 20.2613 3.35392 20.1359 3.29996C20.0105 3.24601 19.8757 3.21729 19.7392 3.21543C19.6027 3.21357 19.4671 3.23862 19.3403 3.28914C19.2135 3.33966 19.0979 3.41467 19 3.50988L3.51002 18.9999C3.41219 19.0977 3.33458 19.2139 3.28163 19.3417C3.22869 19.4695 3.20144 19.6065 3.20144 19.7449C3.20144 19.8832 3.22869 20.0202 3.28163 20.1481C3.33458 20.2759 3.41219 20.392 3.51002 20.4899C3.70761 20.6875 3.9756 20.7985 4.25502 20.7985C4.39338 20.7985 4.53039 20.7712 4.65822 20.7183C4.78604 20.6653 4.90219 20.5877 5.00002 20.4899L6.44002 18.9999H18C18.8793 18.9983 19.7335 18.7071 20.4306 18.1713C21.1277 17.6355 21.6288 16.8849 21.8565 16.0357C22.0842 15.1864 22.0257 14.2859 21.6901 13.4732C21.3546 12.6605 20.7606 11.981 20 11.5399Z" fill="#141414"/>
</svg>
