<svg width="24" height="24" viewBox="0 0 24 24" fill="none" xmlns="http://www.w3.org/2000/svg">
<path d="M6.38006 9.08C6.19795 9.00342 5.99724 8.9825 5.80325 9.01987C5.60926 9.05725 5.43068 9.15124 5.29006 9.29L3.29006 11.29C3.10381 11.4774 2.99927 11.7308 2.99927 11.995C2.99927 12.2592 3.10381 12.5126 3.29006 12.7L5.29006 14.7C5.38267 14.7945 5.49312 14.8697 5.61499 14.9212C5.73687 14.9727 5.86775 14.9995 6.00006 15C6.13124 15.0034 6.26138 14.976 6.38006 14.92C6.56268 14.845 6.71901 14.7176 6.82934 14.5539C6.93967 14.3901 6.99907 14.1974 7.00006 14V10C6.99907 9.80257 6.93967 9.60986 6.82934 9.44614C6.71901 9.28242 6.56268 9.15502 6.38006 9.08ZM10.0001 7H14.0001C14.1992 7.001 14.3941 6.94252 14.5598 6.83206C14.7255 6.7216 14.8544 6.56419 14.9301 6.38C15.002 6.19728 15.0185 5.99743 14.9776 5.80538C14.9367 5.61332 14.8402 5.43755 14.7001 5.3L12.7001 3.3C12.5109 3.11832 12.2621 3.01168 12.0001 3C11.7377 3.0011 11.4863 3.10526 11.3001 3.29L9.30006 5.29C9.15962 5.42951 9.06375 5.60756 9.02459 5.8016C8.98542 5.99564 9.00473 6.19694 9.08006 6.38C9.15508 6.56262 9.28248 6.71895 9.4462 6.82928C9.60992 6.93961 9.80263 6.99901 10.0001 7ZM14.0001 17H10.0001C9.80348 17.0008 9.61151 17.0595 9.44812 17.1689C9.28474 17.2782 9.1572 17.4332 9.08144 17.6146C9.00568 17.796 8.98507 17.9957 9.02217 18.1887C9.05927 18.3818 9.15245 18.5596 9.29006 18.7L11.2901 20.7C11.4812 20.8847 11.7343 20.9917 12.0001 21C12.1317 21.0008 12.2621 20.9755 12.384 20.9258C12.5058 20.876 12.6166 20.8027 12.7101 20.71L14.7101 18.71C14.8511 18.5701 14.9473 18.3914 14.9863 18.1967C15.0254 18.0019 15.0056 17.8 14.9294 17.6165C14.8533 17.4331 14.7242 17.2765 14.5587 17.1667C14.3932 17.0569 14.1987 16.9988 14.0001 17ZM20.7101 11.32L18.7101 9.32C18.5705 9.17956 18.3925 9.08369 18.1985 9.04453C18.0044 9.00536 17.8031 9.02467 17.6201 9.1C17.4405 9.17368 17.2863 9.298 17.1762 9.45781C17.0661 9.61762 17.0049 9.806 17.0001 10V14C17.0001 14.2652 17.1054 14.5196 17.293 14.7071C17.4805 14.8946 17.7348 15 18.0001 15C18.1317 15.0008 18.2621 14.9755 18.384 14.9258C18.5058 14.876 18.6166 14.8027 18.7101 14.71L20.7101 12.71C20.8027 12.6166 20.8761 12.5057 20.9258 12.3839C20.9756 12.2621 21.0008 12.1316 21.0001 12C20.9911 11.7432 20.8837 11.4997 20.7001 11.32H20.7101ZM12.0001 9C11.4067 9 10.8267 9.17595 10.3333 9.50559C9.84 9.83524 9.45548 10.3038 9.22842 10.8519C9.00136 11.4001 8.94195 12.0033 9.0577 12.5853C9.17346 13.1672 9.45918 13.7018 9.87874 14.1213C10.2983 14.5409 10.8328 14.8266 11.4148 14.9424C11.9967 15.0581 12.5999 14.9987 13.1481 14.7716C13.6963 14.5446 14.1648 14.1601 14.4945 13.6667C14.8241 13.1734 15.0001 12.5933 15.0001 12C15.0001 11.2044 14.684 10.4413 14.1214 9.87868C13.5588 9.31607 12.7957 9 12.0001 9Z" fill="#141414"/>
</svg>
