<svg width="24" height="24" viewBox="0 0 24 24" fill="none" xmlns="http://www.w3.org/2000/svg">
<path d="M12 2C10.0222 2 8.08879 2.58649 6.4443 3.6853C4.79981 4.78412 3.51809 6.3459 2.76121 8.17317C2.00433 10.0004 1.8063 12.0111 2.19215 13.9509C2.578 15.8907 3.53041 17.6725 4.92894 19.0711C6.32746 20.4696 8.10929 21.422 10.0491 21.8079C11.9889 22.1937 13.9996 21.9957 15.8268 21.2388C17.6541 20.4819 19.2159 19.2002 20.3147 17.5557C21.4135 15.9112 22 13.9778 22 12C22 10.6868 21.7413 9.38642 21.2388 8.17317C20.7363 6.95991 19.9997 5.85752 19.0711 4.92893C18.1425 4.00035 17.0401 3.26375 15.8268 2.7612C14.6136 2.25866 13.3132 2 12 2ZM15.21 12.71L11.21 16.71C11.117 16.8037 11.0064 16.8781 10.8846 16.9289C10.7627 16.9797 10.632 17.0058 10.5 17.0058C10.368 17.0058 10.2373 16.9797 10.1154 16.9289C9.99357 16.8781 9.88297 16.8037 9.79 16.71C9.69628 16.617 9.62188 16.5064 9.57111 16.3846C9.52034 16.2627 9.49421 16.132 9.49421 16C9.49421 15.868 9.52034 15.7373 9.57111 15.6154C9.62188 15.4936 9.69628 15.383 9.79 15.29L13.09 12L9.79 8.71C9.69677 8.61676 9.6228 8.50607 9.57234 8.38425C9.52188 8.26243 9.49591 8.13186 9.49591 8C9.49591 7.86814 9.52188 7.73757 9.57234 7.61575C9.6228 7.49393 9.69677 7.38324 9.79 7.29C9.88324 7.19676 9.99393 7.1228 10.1158 7.07234C10.2376 7.02188 10.3681 6.99591 10.5 6.99591C10.6319 6.99591 10.7624 7.02188 10.8843 7.07234C11.0061 7.1228 11.1168 7.19676 11.21 7.29L15.21 11.29C15.3037 11.383 15.3781 11.4936 15.4289 11.6154C15.4797 11.7373 15.5058 11.868 15.5058 12C15.5058 12.132 15.4797 12.2627 15.4289 12.3846C15.3781 12.5064 15.3037 12.617 15.21 12.71Z" fill="#141414"/>
</svg>
