<svg width="24" height="24" viewBox="0 0 24 24" fill="none" xmlns="http://www.w3.org/2000/svg">
<path d="M20.71 13.2901C20.617 13.1964 20.5064 13.122 20.3846 13.0712C20.2627 13.0204 20.132 12.9943 20 12.9943C19.868 12.9943 19.7373 13.0204 19.6154 13.0712C19.4936 13.122 19.383 13.1964 19.29 13.2901L16.59 16.0001H14C14.2652 16.0001 14.5196 15.8947 14.7071 15.7072C14.8946 15.5197 15 15.2653 15 15.0001C15 14.7349 14.8946 14.4805 14.7071 14.293C14.5196 14.1054 14.2652 14.0001 14 14.0001H7.83C7.56609 13.9999 7.30474 14.0519 7.06103 14.1532C6.81732 14.2544 6.59606 14.4029 6.41 14.5901L3.29 17.7101C3.10526 17.8963 3.0011 18.1477 3 18.4101V21.0001C3 21.2653 3.10536 21.5197 3.29289 21.7072C3.48043 21.8947 3.73478 22.0001 4 22.0001H4.59C4.85234 21.999 5.10374 21.8948 5.29 21.7101L6.71 20.2901C6.89626 20.1053 7.14766 20.0012 7.41 20.0001H14.59C15.1196 19.9978 15.6266 19.7857 16 19.4101L20.71 14.7101C20.8037 14.6171 20.8781 14.5065 20.9289 14.3847C20.9797 14.2628 21.0058 14.1321 21.0058 14.0001C21.0058 13.8681 20.9797 13.7374 20.9289 13.6155C20.8781 13.4936 20.8037 13.383 20.71 13.2901ZM11.14 11.5401L11.36 11.7501C11.533 11.9129 11.7624 12.0025 12 12.0001C12.2346 12.002 12.4606 11.9123 12.63 11.7501L12.86 11.5401C15 9.54008 16.24 8.14008 16.24 6.54008C16.2413 6.20531 16.1762 5.8736 16.0484 5.56417C15.9206 5.25475 15.7327 4.97377 15.4955 4.73751C15.2583 4.50125 14.9766 4.31442 14.6667 4.18783C14.3567 4.06125 14.0248 3.99743 13.69 4.00008C13.0622 4.02005 12.4624 4.26493 12 4.69008C11.5376 4.26493 10.9378 4.02005 10.31 4.00008C9.97354 3.9974 9.63992 4.06185 9.32867 4.18968C9.01742 4.31751 8.7348 4.50614 8.49734 4.74452C8.25989 4.98291 8.07237 5.26627 7.94576 5.57802C7.81915 5.88976 7.756 6.22363 7.76 6.56008C7.76 8.14008 9 9.58008 11.14 11.5401Z" fill="#141414"/>
</svg>
