<svg width="24" height="24" viewBox="0 0 24 24" fill="none" xmlns="http://www.w3.org/2000/svg">
<path d="M11 18.86V21C11 21.2652 11.1054 21.5196 11.2929 21.7071C11.4804 21.8946 11.7348 22 12 22C12.2652 22 12.5196 21.8946 12.7071 21.7071C12.8946 21.5196 13 21.2652 13 21V18.86C13.8565 18.6389 14.6155 18.1401 15.1583 17.4416C15.7011 16.7432 15.9971 15.8846 16 15H8C8.00287 15.8846 8.29887 16.7432 8.84169 17.4416C9.38451 18.1401 10.1435 18.6389 11 18.86ZM15 8.28V7.5C14.9977 7.19087 14.9006 6.8899 14.7217 6.63775C14.5429 6.38559 14.291 6.1944 14 6.09V5C14 4.73478 13.8946 4.48043 13.7071 4.29289C13.5196 4.10536 13.2652 4 13 4V3C13 2.73478 12.8946 2.48043 12.7071 2.29289C12.5196 2.10536 12.2652 2 12 2C11.7348 2 11.4804 2.10536 11.2929 2.29289C11.1054 2.48043 11 2.73478 11 3V4C10.7348 4 10.4804 4.10536 10.2929 4.29289C10.1054 4.48043 10 4.73478 10 5V6.09C9.70903 6.1944 9.45711 6.38559 9.27828 6.63775C9.09944 6.8899 9.00231 7.19087 9 7.5V8.28C8.69772 8.45451 8.44638 8.70509 8.27095 9.00683C8.09552 9.30857 8.00211 9.65097 8 10V13H16V10C15.9979 9.65097 15.9045 9.30857 15.7291 9.00683C15.5536 8.70509 15.3023 8.45451 15 8.28Z" fill="#141414"/>
</svg>
