<svg width="24" height="24" viewBox="0 0 24 24" fill="none" xmlns="http://www.w3.org/2000/svg">
<path d="M18.1601 14.3202C17.7853 13.9477 17.2784 13.7386 16.7501 13.7386C16.2217 13.7386 15.7148 13.9477 15.3401 14.3202L14.6301 15.0302C14.5371 15.1239 14.4265 15.1983 14.3046 15.2491C14.1828 15.2999 14.0521 15.326 13.9201 15.326C13.788 15.326 13.6573 15.2999 13.5355 15.2491C13.4136 15.1983 13.303 15.1239 13.2101 15.0302L9.00006 10.7902C8.90633 10.6972 8.83194 10.5866 8.78117 10.4648C8.7304 10.3429 8.70426 10.2122 8.70426 10.0802C8.70426 9.94819 8.7304 9.81749 8.78117 9.69563C8.83194 9.57377 8.90633 9.46317 9.00006 9.3702L9.71006 8.6602C10.0826 8.28548 10.2916 7.77858 10.2916 7.25021C10.2916 6.72183 10.0826 6.21493 9.71006 5.84021L9.00006 5.13021C8.81431 4.94425 8.59373 4.79673 8.35094 4.69609C8.10814 4.59544 7.84789 4.54363 7.58506 4.54363C7.32223 4.54363 7.06197 4.59544 6.81918 4.69609C6.57638 4.79673 6.3558 4.94425 6.17006 5.13021L5.17006 6.13021C4.85584 6.43017 4.65455 6.82923 4.60006 7.26021C4.42006 8.66021 4.52006 12.0002 8.27006 15.7302C12.0201 19.4602 15.3401 19.5802 16.7501 19.4102C17.181 19.3557 17.5801 19.1544 17.8801 18.8402L18.8801 17.8402C19.066 17.6545 19.2135 17.4339 19.3142 17.1911C19.4148 16.9483 19.4666 16.688 19.4666 16.4252C19.4666 16.1624 19.4148 15.9021 19.3142 15.6593C19.2135 15.4165 19.066 15.196 18.8801 15.0102L18.1601 14.3202ZM13.6701 9.1102C13.9516 9.20961 14.2073 9.37077 14.4184 9.58188C14.6295 9.79299 14.7907 10.0487 14.8901 10.3302C14.9583 10.5253 15.0853 10.6945 15.2536 10.8145C15.422 10.9345 15.6233 10.9994 15.8301 11.0002C15.9427 10.9989 16.0542 10.9786 16.1601 10.9402C16.4087 10.8519 16.6124 10.6688 16.7267 10.4309C16.841 10.193 16.8565 9.91955 16.7701 9.67021C16.5751 9.10503 16.2541 8.59162 15.8314 8.16888C15.4086 7.74614 14.8952 7.42514 14.3301 7.23021C14.0877 7.16808 13.8308 7.19908 13.6101 7.31709C13.3895 7.4351 13.2211 7.63155 13.1382 7.86765C13.0553 8.10375 13.064 8.36234 13.1624 8.59238C13.2609 8.82242 13.442 9.00718 13.6701 9.1102ZM14.1701 4.11021C13.9048 4.06644 13.6331 4.12983 13.4146 4.28643C13.1961 4.44302 13.0488 4.67999 13.0051 4.94521C12.9613 5.21042 13.0247 5.48216 13.1813 5.70064C13.3379 5.91912 13.5748 6.06644 13.8401 6.11021C14.863 6.28471 15.8062 6.77314 16.5391 7.50778C17.2719 8.24243 17.7581 9.18688 17.9301 10.2102C17.9705 10.445 18.0935 10.6576 18.2769 10.8098C18.4602 10.962 18.6918 11.0437 18.9301 11.0402H19.0901C19.2203 11.0184 19.345 10.9711 19.4569 10.9009C19.5687 10.8306 19.6656 10.739 19.7418 10.6311C19.8181 10.5233 19.8722 10.4014 19.9011 10.2725C19.9299 10.1436 19.933 10.0103 19.9101 9.88021C19.676 8.43832 18.9967 7.10577 17.9674 6.06928C16.9381 5.03278 15.6103 4.34427 14.1701 4.1002V4.11021Z" fill="#141414"/>
</svg>
