<svg width="24" height="24" viewBox="0 0 24 24" fill="none" xmlns="http://www.w3.org/2000/svg">
<path d="M18.75 7.9999H18.66C20.93 6.0499 21 4.2299 21 3.9999C20.999 3.80247 20.9396 3.60975 20.8293 3.44603C20.7189 3.28231 20.5626 3.15492 20.38 3.0799C20.1979 3.00332 19.9972 2.98239 19.8032 3.01977C19.6092 3.05714 19.4306 3.15114 19.29 3.2899C18.5007 4.02611 17.6202 4.65794 16.67 5.1699C15.9665 4.44679 15.0085 4.02698 14 3.9999H10C8.99152 4.02698 8.03348 4.44679 7.33 5.1699C6.37981 4.65794 5.49928 4.02611 4.71 3.2899C4.56938 3.15114 4.3908 3.05714 4.19681 3.01977C4.00282 2.98239 3.80211 3.00332 3.62 3.0799C3.43738 3.15492 3.28105 3.28231 3.17072 3.44603C3.06039 3.60975 3.00099 3.80247 3 3.9999C3 4.2299 3.07 6.0499 5.34 7.9999H5.25C4.65326 7.9999 4.08097 8.23695 3.65901 8.65891C3.23705 9.08086 3 9.65316 3 10.2499C3.00259 10.448 3.08244 10.6373 3.22253 10.7774C3.36263 10.9175 3.55189 10.9973 3.75 10.9999H5.25C5.55673 10.9999 5.86 10.9351 6.14 10.8099C6.22 11.2899 6.33 11.7099 6.44 12.1299C6.55 12.5499 6.66 12.9999 6.76 13.5599C7.45041 13.1949 8.21904 13.0027 9 12.9999H15C15.781 13.0027 16.5496 13.1949 17.24 13.5599C17.34 12.9999 17.45 12.5599 17.56 12.1299C17.67 11.6999 17.78 11.2899 17.86 10.8099C18.14 10.9351 18.4433 10.9999 18.75 10.9999H20.25C20.4481 10.9973 20.6374 10.9175 20.7775 10.7774C20.9176 10.6373 20.9974 10.448 21 10.2499C21 9.65316 20.7629 9.08086 20.341 8.65891C19.919 8.23695 19.3467 7.9999 18.75 7.9999ZM9 10.9999C8.80222 10.9999 8.60888 10.9412 8.44443 10.8314C8.27998 10.7215 8.15181 10.5653 8.07612 10.3826C8.00043 10.1999 7.98063 9.99879 8.01921 9.80481C8.0578 9.61082 8.15304 9.43264 8.29289 9.29279C8.43275 9.15294 8.61093 9.0577 8.80491 9.01911C8.99889 8.98053 9.19996 9.00033 9.38268 9.07602C9.56541 9.1517 9.72159 9.27988 9.83147 9.44432C9.94135 9.60877 10 9.80211 10 9.9999C10 10.2651 9.89464 10.5195 9.70711 10.707C9.51957 10.8945 9.26522 10.9999 9 10.9999ZM15 10.9999C14.8022 10.9999 14.6089 10.9412 14.4444 10.8314C14.28 10.7215 14.1518 10.5653 14.0761 10.3826C14.0004 10.1999 13.9806 9.99879 14.0192 9.80481C14.0578 9.61082 14.153 9.43264 14.2929 9.29279C14.4327 9.15294 14.6109 9.0577 14.8049 9.01911C14.9989 8.98053 15.2 9.00033 15.3827 9.07602C15.5654 9.1517 15.7216 9.27988 15.8315 9.44432C15.9414 9.60877 16 9.80211 16 9.9999C16 10.2651 15.8946 10.5195 15.7071 10.707C15.5196 10.8945 15.2652 10.9999 15 10.9999ZM15 14.9999H9C8.20435 14.9999 7.44129 15.316 6.87868 15.8786C6.31607 16.4412 6 17.2042 6 17.9999C6 18.7955 6.31607 19.5586 6.87868 20.1212C7.44129 20.6838 8.20435 20.9999 9 20.9999H15C15.7956 20.9999 16.5587 20.6838 17.1213 20.1212C17.6839 19.5586 18 18.7955 18 17.9999C18 17.2042 17.6839 16.4412 17.1213 15.8786C16.5587 15.316 15.7956 14.9999 15 14.9999Z" fill="#141414"/>
</svg>
