<svg width="24" height="24" viewBox="0 0 24 24" fill="none" xmlns="http://www.w3.org/2000/svg">
<path d="M20 16C20.2652 16 20.5196 15.8946 20.7071 15.7071C20.8946 15.5196 21 15.2652 21 15C21 14.7348 20.8946 14.4804 20.7071 14.2929C20.5196 14.1054 20.2652 14 20 14H18C18 13.7348 17.8946 13.4804 17.7071 13.2929C17.5196 13.1054 17.2652 13 17 13H16C15.2044 13 14.4413 13.3161 13.8787 13.8787C13.3161 14.4413 13 15.2044 13 16H6.19C5.88632 16.011 5.59011 15.9044 5.36305 15.7025C5.13599 15.5005 4.9956 15.2188 4.97111 14.9159C4.94662 14.613 5.03992 14.3123 5.23159 14.0765C5.42325 13.8407 5.6985 13.6879 6 13.65L18.4 11.32C19.183 11.1669 19.8812 10.7285 20.3594 10.0899C20.8376 9.45122 21.0617 8.6578 20.9882 7.86337C20.9148 7.06894 20.549 6.33006 19.9618 5.78995C19.3746 5.24984 18.6078 4.94696 17.81 4.94H14C13.9844 4.42004 13.7668 3.92661 13.3934 3.56442C13.02 3.20222 12.5202 2.99977 12 3H5C4.46957 3 3.96086 3.21071 3.58579 3.58579C3.21071 3.96086 3 4.46957 3 5V7C3 7.53043 3.21071 8.03914 3.58579 8.41421C3.96086 8.78929 4.46957 9 5 9H12C12.5304 9 13.0391 8.78929 13.4142 8.41421C13.7893 8.03914 14 7.53043 14 7V6.94H17.81C17.971 6.9412 18.1302 6.97481 18.278 7.03881C18.4257 7.10282 18.5591 7.19591 18.6702 7.31255C18.7812 7.42919 18.8676 7.56699 18.9243 7.71774C18.981 7.86849 19.0067 8.0291 19 8.19C18.9985 8.47069 18.897 8.74167 18.7138 8.95428C18.5305 9.16688 18.2774 9.30719 18 9.35L5.6 11.68C4.82449 11.8324 4.13318 12.2673 3.66005 12.9004C3.18691 13.5335 2.96563 14.3197 3.03909 15.1066C3.11256 15.8935 3.47553 16.6252 4.05767 17.1597C4.63982 17.6943 5.39968 17.9937 6.19 18H13C13 18.7956 13.3161 19.5587 13.8787 20.1213C14.4413 20.6839 15.2044 21 16 21H17C17.2652 21 17.5196 20.8946 17.7071 20.7071C17.8946 20.5196 18 20.2652 18 20H20C20.2652 20 20.5196 19.8946 20.7071 19.7071C20.8946 19.5196 21 19.2652 21 19C21 18.7348 20.8946 18.4804 20.7071 18.2929C20.5196 18.1054 20.2652 18 20 18H18V16H20Z" fill="#141414"/>
</svg>
