<svg width="24" height="24" viewBox="0 0 24 24" fill="none" xmlns="http://www.w3.org/2000/svg">
<path d="M16.73 11C16.2986 11.0072 15.8707 11.078 15.46 11.21L12.38 5H14.28C14.5452 5 14.7996 4.89464 14.9871 4.70711C15.1746 4.51957 15.28 4.26522 15.28 4C15.28 3.73478 15.1746 3.48043 14.9871 3.29289C14.7996 3.10536 14.5452 3 14.28 3H7.27999C7.01477 3 6.76042 3.10536 6.57288 3.29289C6.38534 3.48043 6.27999 3.73478 6.27999 4C6.27999 4.26522 6.38534 4.51957 6.57288 4.70711C6.76042 4.89464 7.01477 5 7.27999 5H9.39999L6.99999 12.5C5.96376 12.5705 4.98923 13.0181 4.26046 13.7581C3.53168 14.4981 3.09912 15.4794 3.04447 16.5166C2.98981 17.5537 3.31685 18.575 3.96382 19.3875C4.61079 20.2001 5.53289 20.7475 6.55596 20.9266C7.57904 21.1056 8.63226 20.9038 9.51671 20.3593C10.4012 19.8148 11.0556 18.9652 11.3564 17.9711C11.6572 16.977 11.5836 15.9072 11.1495 14.9637C10.7153 14.0201 9.95068 13.2682 8.99999 12.85L11 6.66L13.76 12.24C13.0584 12.9334 12.6191 13.8487 12.5172 14.8299C12.4153 15.811 12.6571 16.7971 13.2012 17.6199C13.7453 18.4426 14.5581 19.0511 15.5008 19.3414C16.4435 19.6316 17.4578 19.5858 18.3705 19.2116C19.2832 18.8374 20.0377 18.158 20.5053 17.2895C20.9729 16.421 21.1247 15.4171 20.9346 14.4492C20.7445 13.4812 20.2245 12.6093 19.4631 11.9821C18.7018 11.3548 17.7464 11.0113 16.76 11.01L16.73 11Z" fill="#141414"/>
</svg>
