<svg width="24" height="24" viewBox="0 0 24 24" fill="none" xmlns="http://www.w3.org/2000/svg">
<path d="M20.29 15.63L18.92 14.84L19.32 14.73C19.4507 14.6995 19.5739 14.6431 19.6824 14.564C19.7908 14.4849 19.8822 14.3848 19.9511 14.2697C20.0201 14.1545 20.0651 14.0267 20.0836 13.8937C20.102 13.7608 20.0936 13.6255 20.0587 13.4959C20.0237 13.3663 19.9631 13.2451 19.8803 13.1395C19.7976 13.0338 19.6944 12.9459 19.577 12.8809C19.4595 12.816 19.3302 12.7754 19.1967 12.7615C19.0632 12.7476 18.9283 12.7607 18.8 12.8L16.47 13.43L14 12L16.47 10.57L18.8 11.2H19.06C19.1913 11.2171 19.3247 11.2081 19.4526 11.1736C19.5804 11.1391 19.7002 11.0798 19.8052 10.999C19.9101 10.9182 19.9981 10.8176 20.0641 10.7028C20.1301 10.588 20.1729 10.4613 20.19 10.33C20.2071 10.1987 20.1981 10.0653 20.1636 9.93742C20.1291 9.80956 20.0698 9.68975 19.989 9.58482C19.9082 9.47989 19.8076 9.3919 19.6928 9.32587C19.578 9.25984 19.4513 9.21707 19.32 9.2L18.92 9.09L20.29 8.3C20.5207 8.16739 20.6893 7.94855 20.7587 7.69163C20.8281 7.4347 20.7926 7.16074 20.66 6.93C20.5274 6.69926 20.3085 6.53065 20.0516 6.46126C19.7947 6.39188 19.5207 6.42739 19.29 6.56L17.92 7.36L18 7C18.0347 6.87261 18.0439 6.73961 18.0269 6.60866C18.01 6.47772 17.9673 6.35142 17.9013 6.23707C17.8353 6.12272 17.7473 6.02257 17.6423 5.9424C17.5374 5.86224 17.4177 5.80364 17.29 5.77C17.0341 5.70289 16.762 5.73993 16.5333 5.873C16.3047 6.00607 16.1381 6.22434 16.07 6.48L15.44 8.81L13 10.27V7.41L14.71 5.71C14.8983 5.5217 15.0041 5.2663 15.0041 5C15.0041 4.7337 14.8983 4.4783 14.71 4.29C14.5217 4.1017 14.2663 3.99591 14 3.99591C13.7337 3.99591 13.4783 4.1017 13.29 4.29L13 4.59V3C13 2.73478 12.8946 2.48043 12.7071 2.29289C12.5196 2.10536 12.2652 2 12 2C11.7348 2 11.4804 2.10536 11.2929 2.29289C11.1053 2.48043 11 2.73478 11 3V4.59L10.71 4.29C10.6168 4.19676 10.5061 4.1228 10.3842 4.07234C10.2624 4.02188 10.1318 3.99591 9.99999 3.99591C9.86813 3.99591 9.73756 4.02188 9.61574 4.07234C9.49392 4.1228 9.38323 4.19676 9.28999 4.29C9.19675 4.38324 9.12279 4.49393 9.07233 4.61575C9.02187 4.73757 8.9959 4.86814 8.9959 5C8.9959 5.13186 9.02187 5.26243 9.07233 5.38425C9.12279 5.50607 9.19675 5.61676 9.28999 5.71L11 7.41V10.27L8.52999 8.84L7.89999 6.51C7.83192 6.25434 7.66531 6.03607 7.43665 5.903C7.20798 5.76992 6.9359 5.73289 6.67999 5.8C6.43426 5.87447 6.22659 6.04061 6.1 6.264C5.97341 6.4874 5.9376 6.75093 5.99999 7L6.10999 7.4L4.73999 6.6C4.50925 6.46739 4.23528 6.43188 3.97836 6.50126C3.72144 6.57065 3.5026 6.73926 3.36999 6.97C3.23738 7.20074 3.20186 7.4747 3.27125 7.73163C3.34064 7.98855 3.50925 8.20739 3.73999 8.34L5.10999 9.13L4.70999 9.24C4.44477 9.27448 4.20412 9.4129 4.04096 9.62482C3.8778 9.83673 3.80551 10.1048 3.83999 10.37C3.87447 10.6352 4.01289 10.8759 4.22481 11.039C4.43672 11.2022 4.70477 11.2745 4.96999 11.24H5.22999L7.55999 10.61L9.99999 12L7.52999 13.43L5.19999 12.8C5.07168 12.7607 4.93676 12.7476 4.80327 12.7615C4.66979 12.7754 4.54047 12.816 4.42302 12.8809C4.30557 12.9459 4.20239 13.0338 4.11964 13.1395C4.03688 13.2451 3.97624 13.3663 3.94132 13.4959C3.90641 13.6255 3.89794 13.7608 3.91641 13.8937C3.93488 14.0267 3.97993 14.1545 4.04885 14.2697C4.11778 14.3848 4.20918 14.4849 4.31761 14.564C4.42604 14.6431 4.54928 14.6995 4.67999 14.73L5.07999 14.84L3.70999 15.63C3.47925 15.7626 3.31064 15.9814 3.24125 16.2384C3.17186 16.4953 3.20738 16.7693 3.33999 17C3.4726 17.2307 3.69144 17.3993 3.94836 17.4687C4.20528 17.5381 4.47925 17.5026 4.70999 17.37L6.07999 16.57L5.99999 17C5.96526 17.1274 5.95611 17.2604 5.97305 17.3913C5.99 17.5223 6.03271 17.6486 6.09872 17.7629C6.16472 17.8773 6.25273 17.9774 6.35764 18.0576C6.46256 18.1378 6.58231 18.1964 6.70999 18.23C6.79638 18.2398 6.8836 18.2398 6.96999 18.23C7.19575 18.2377 7.41748 18.1688 7.59907 18.0344C7.78065 17.9001 7.91139 17.7082 7.96999 17.49L8.59999 15.16L11 13.73V16.59L9.28999 18.29C9.19626 18.383 9.12187 18.4936 9.0711 18.6154C9.02033 18.7373 8.99419 18.868 8.99419 19C8.99419 19.132 9.02033 19.2627 9.0711 19.3846C9.12187 19.5064 9.19626 19.617 9.28999 19.71C9.38295 19.8037 9.49355 19.8781 9.61541 19.9289C9.73727 19.9797 9.86798 20.0058 9.99999 20.0058C10.132 20.0058 10.2627 19.9797 10.3846 19.9289C10.5064 19.8781 10.617 19.8037 10.71 19.71L11 19.41V21C11 21.2652 11.1053 21.5196 11.2929 21.7071C11.4804 21.8946 11.7348 22 12 22C12.2652 22 12.5196 21.8946 12.7071 21.7071C12.8946 21.5196 13 21.2652 13 21V19.41L13.29 19.71C13.383 19.8037 13.4936 19.8781 13.6154 19.9289C13.7373 19.9797 13.868 20.0058 14 20.0058C14.132 20.0058 14.2627 19.9797 14.3846 19.9289C14.5064 19.8781 14.617 19.8037 14.71 19.71C14.8037 19.617 14.8781 19.5064 14.9289 19.3846C14.9796 19.2627 15.0058 19.132 15.0058 19C15.0058 18.868 14.9796 18.7373 14.9289 18.6154C14.8781 18.4936 14.8037 18.383 14.71 18.29L13 16.59V13.73L15.47 15.16L16.1 17.49C16.1586 17.7082 16.2893 17.9001 16.4709 18.0344C16.6525 18.1688 16.8742 18.2377 17.1 18.23C17.1864 18.2398 17.2736 18.2398 17.36 18.23C17.605 18.1475 17.8085 17.9733 17.9278 17.7439C18.0471 17.5146 18.073 17.248 18 17L17.89 16.6L19.26 17.4C19.4124 17.4864 19.5848 17.5312 19.76 17.53C19.9814 17.5315 20.1971 17.4596 20.3732 17.3253C20.5493 17.1911 20.6759 17.0022 20.733 16.7883C20.7902 16.5744 20.7748 16.3476 20.6892 16.1434C20.6036 15.9392 20.4526 15.7692 20.26 15.66L20.29 15.63Z" fill="#141414"/>
</svg>
