<svg width="24" height="24" viewBox="0 0 24 24" fill="none" xmlns="http://www.w3.org/2000/svg">
<path d="M20 5H4C3.46957 5 2.96086 5.21071 2.58579 5.58579C2.21071 5.96086 2 6.46957 2 7V9H22V7C22 6.46957 21.7893 5.96086 21.4142 5.58579C21.0391 5.21071 20.5304 5 20 5ZM2 17C2 17.5304 2.21071 18.0391 2.58579 18.4142C2.96086 18.7893 3.46957 19 4 19H20C20.5304 19 21.0391 18.7893 21.4142 18.4142C21.7893 18.0391 22 17.5304 22 17V11H2V17ZM19 13C19.1978 13 19.3911 13.0586 19.5556 13.1685C19.72 13.2784 19.8482 13.4346 19.9239 13.6173C19.9996 13.8 20.0194 14.0011 19.9808 14.1951C19.9422 14.3891 19.847 14.5673 19.7071 14.7071C19.5673 14.847 19.3891 14.9422 19.1951 14.9808C19.0011 15.0194 18.8 14.9996 18.6173 14.9239C18.4346 14.8482 18.2784 14.72 18.1685 14.5556C18.0586 14.3911 18 14.1978 18 14C18 13.7348 18.1054 13.4804 18.2929 13.2929C18.4804 13.1054 18.7348 13 19 13ZM16 13C16.1978 13 16.3911 13.0586 16.5556 13.1685C16.72 13.2784 16.8482 13.4346 16.9239 13.6173C16.9996 13.8 17.0194 14.0011 16.9808 14.1951C16.9422 14.3891 16.847 14.5673 16.7071 14.7071C16.5673 14.847 16.3891 14.9422 16.1951 14.9808C16.0011 15.0194 15.8 14.9996 15.6173 14.9239C15.4346 14.8482 15.2784 14.72 15.1685 14.5556C15.0586 14.3911 15 14.1978 15 14C15 13.7348 15.1054 13.4804 15.2929 13.2929C15.4804 13.1054 15.7348 13 16 13ZM13 13C13.1978 13 13.3911 13.0586 13.5556 13.1685C13.72 13.2784 13.8482 13.4346 13.9239 13.6173C13.9996 13.8 14.0194 14.0011 13.9808 14.1951C13.9422 14.3891 13.847 14.5673 13.7071 14.7071C13.5673 14.847 13.3891 14.9422 13.1951 14.9808C13.0011 15.0194 12.8 14.9996 12.6173 14.9239C12.4346 14.8482 12.2784 14.72 12.1685 14.5556C12.0586 14.3911 12 14.1978 12 14C12 13.7348 12.1054 13.4804 12.2929 13.2929C12.4804 13.1054 12.7348 13 13 13Z" fill="#141414"/>
</svg>
