<svg width="24" height="24" viewBox="0 0 24 24" fill="none" xmlns="http://www.w3.org/2000/svg">
<path d="M13 14.9999C12.8022 14.9999 12.6089 15.0585 12.4444 15.1684C12.28 15.2783 12.1518 15.4345 12.0761 15.6172C12.0004 15.7999 11.9806 16.001 12.0192 16.195C12.0578 16.389 12.1531 16.5671 12.2929 16.707C12.4328 16.8468 12.6109 16.9421 12.8049 16.9807C12.9989 17.0193 13.2 16.9995 13.3827 16.9238C13.5654 16.8481 13.7216 16.7199 13.8315 16.5555C13.9414 16.391 14 16.1977 14 15.9999C14 15.7347 13.8947 15.4803 13.7071 15.2928C13.5196 15.1052 13.2652 14.9999 13 14.9999ZM13 18.9999C12.8022 18.9999 12.6089 19.0585 12.4444 19.1684C12.28 19.2783 12.1518 19.4345 12.0761 19.6172C12.0004 19.7999 11.9806 20.001 12.0192 20.195C12.0578 20.389 12.1531 20.5671 12.2929 20.707C12.4328 20.8468 12.6109 20.9421 12.8049 20.9807C12.9989 21.0193 13.2 20.9995 13.3827 20.9238C13.5654 20.8481 13.7216 20.7199 13.8315 20.5555C13.9414 20.391 14 20.1977 14 19.9999C14 19.7347 13.8947 19.4803 13.7071 19.2928C13.5196 19.1052 13.2652 18.9999 13 18.9999ZM19 18.9999H16C15.7348 18.9999 15.4804 19.1052 15.2929 19.2928C15.1054 19.4803 15 19.7347 15 19.9999C15 20.2651 15.1054 20.5195 15.2929 20.707C15.4804 20.8945 15.7348 20.9999 16 20.9999H19C19.2652 20.9999 19.5196 20.8945 19.7071 20.707C19.8947 20.5195 20 20.2651 20 19.9999C20 19.7347 19.8947 19.4803 19.7071 19.2928C19.5196 19.1052 19.2652 18.9999 19 18.9999ZM18.75 7.99989H18.66C20.93 6.04989 21 4.22989 21 3.99989C20.999 3.80246 20.9396 3.60974 20.8293 3.44602C20.719 3.2823 20.5626 3.15491 20.38 3.07989C20.1979 3.00331 19.9972 2.98238 19.8032 3.01976C19.6092 3.05713 19.4306 3.15113 19.29 3.28989C18.445 4.0813 17.4963 4.75413 16.47 5.28989C15.4993 4.46818 14.2718 4.01184 13 3.99989H11C9.7295 4.00903 8.50212 4.46179 7.53001 5.27989C6.5037 4.74413 5.55501 4.0713 4.71001 3.27989C4.56939 3.14113 4.39082 3.04713 4.19683 3.00976C4.00284 2.97238 3.80212 2.99331 3.62001 3.06989C3.43582 3.14555 3.27841 3.27449 3.16795 3.44018C3.05749 3.60586 2.99902 3.80076 3.00001 3.99989C3.00001 4.22989 3.07001 6.04989 5.34001 7.99989H5.25001C4.65328 7.99989 4.08098 8.23694 3.65902 8.6589C3.23707 9.08085 3.00001 9.65315 3.00001 10.2499C3.0026 10.448 3.08245 10.6373 3.22255 10.7774C3.36264 10.9174 3.55191 10.9973 3.75001 10.9999H5.25001C5.55272 11.0022 5.85253 10.9409 6.13001 10.8199C6.21001 11.3999 6.31001 11.9399 6.43001 12.4899C6.82736 14.2992 7.01858 16.1476 7.00001 17.9999C7.00001 18.7955 7.31608 19.5586 7.87869 20.1212C8.4413 20.6838 9.20436 20.9999 10 20.9999V15.9999C10 15.2042 10.3161 14.4412 10.8787 13.8786C11.4413 13.316 12.2044 12.9999 13 12.9999H17.47C17.47 12.8199 17.54 12.6499 17.57 12.4899C17.69 11.9399 17.79 11.3999 17.87 10.8199C18.1475 10.9409 18.4473 11.0022 18.75 10.9999H20.25C20.4481 10.9973 20.6374 10.9174 20.7775 10.7774C20.9176 10.6373 20.9974 10.448 21 10.2499C21 9.65315 20.763 9.08085 20.341 8.6589C19.919 8.23694 19.3468 7.99989 18.75 7.99989ZM19 14.9999H16C15.7348 14.9999 15.4804 15.1052 15.2929 15.2928C15.1054 15.4803 15 15.7347 15 15.9999C15 16.2651 15.1054 16.5195 15.2929 16.707C15.4804 16.8945 15.7348 16.9999 16 16.9999H19C19.2652 16.9999 19.5196 16.8945 19.7071 16.707C19.8947 16.5195 20 16.2651 20 15.9999C20 15.7347 19.8947 15.4803 19.7071 15.2928C19.5196 15.1052 19.2652 14.9999 19 14.9999Z" fill="#141414"/>
</svg>
