<svg width="24" height="24" viewBox="0 0 24 24" fill="none" xmlns="http://www.w3.org/2000/svg">
<path d="M21.8001 9.99988C21.4384 8.23006 20.604 6.59127 19.3856 5.25762C18.1672 3.92396 16.6103 2.94524 14.8803 2.42542C13.1503 1.90561 11.3118 1.86411 9.56011 2.30534C7.80841 2.74657 6.20894 3.65405 4.93162 4.93137C3.65429 6.2087 2.74681 7.80817 2.30558 9.55986C1.86435 11.3116 1.90585 13.1501 2.42567 14.8801C2.94548 16.6101 3.9242 18.167 5.25786 19.3853C6.59152 20.6037 8.2303 21.4381 10.0001 21.7999C10.6586 21.9323 11.3285 21.9993 12.0001 21.9999C12.7958 21.9999 13.5588 21.6838 14.1214 21.1212C14.6841 20.5586 15.0001 19.7955 15.0001 18.9999V17.2799C14.9726 16.997 15.0034 16.7115 15.0905 16.441C15.1777 16.1705 15.3193 15.9207 15.5067 15.7071C15.6941 15.4934 15.9233 15.3204 16.1802 15.1988C16.437 15.0772 16.7161 15.0095 17.0001 14.9999H19.0001C19.7958 14.9999 20.5588 14.6838 21.1214 14.1212C21.684 13.5586 22.0001 12.7955 22.0001 11.9999C21.9995 11.3282 21.9325 10.6583 21.8001 9.99988ZM6.44012 7.43988C6.64983 7.22991 6.9171 7.08686 7.20812 7.02884C7.49914 6.97081 7.80084 7.0004 8.07504 7.11388C8.34923 7.22736 8.58361 7.41961 8.74852 7.66633C8.91342 7.91304 9.00144 8.20313 9.00144 8.49988C9.00144 8.79663 8.91342 9.08671 8.74852 9.33343C8.58361 9.58014 8.34923 9.7724 8.07504 9.88587C7.80084 9.99935 7.49914 10.0289 7.20812 9.97092C6.9171 9.91289 6.64983 9.76984 6.44012 9.55988C6.29983 9.42129 6.18845 9.25623 6.11243 9.07427C6.03641 8.89232 5.99726 8.69708 5.99726 8.49988C5.99726 8.30268 6.03641 8.10744 6.11243 7.92548C6.18845 7.74352 6.29983 7.57846 6.44012 7.43988ZM6.50012 14.9999C6.20345 14.9999 5.91344 14.9119 5.66677 14.7471C5.42009 14.5823 5.22783 14.348 5.1143 14.0739C5.00077 13.7998 4.97107 13.4982 5.02894 13.2072C5.08682 12.9163 5.22968 12.649 5.43946 12.4392C5.64924 12.2294 5.91651 12.0866 6.20749 12.0287C6.49846 11.9708 6.80006 12.0005 7.07415 12.1141C7.34824 12.2276 7.5825 12.4198 7.74733 12.6665C7.91215 12.9132 8.00012 13.2032 8.00012 13.4999C8.00012 13.8977 7.84209 14.2792 7.56078 14.5605C7.27948 14.8418 6.89795 14.9999 6.50012 14.9999ZM10.5601 18.5599C10.3504 18.7698 10.0831 18.9129 9.79212 18.9709C9.5011 19.0289 9.19941 18.9993 8.92521 18.8859C8.65101 18.7724 8.41663 18.5801 8.25173 18.3334C8.08682 18.0867 7.9988 17.7966 7.9988 17.4999C7.9988 17.2031 8.08682 16.913 8.25173 16.6663C8.41663 16.4196 8.65101 16.2274 8.92521 16.1139C9.19941 16.0004 9.5011 15.9708 9.79212 16.0288C10.0831 16.0869 10.3504 16.2299 10.5601 16.4399C10.7004 16.5785 10.8118 16.7435 10.8878 16.9255C10.9638 17.1074 11.003 17.3027 11.003 17.4999C11.003 17.6971 10.9638 17.8923 10.8878 18.0743C10.8118 18.2562 10.7004 18.4213 10.5601 18.5599ZM12.0001 7.99988C11.7034 7.99988 11.4134 7.9119 11.1668 7.74708C10.9201 7.58226 10.7278 7.34799 10.6143 7.0739C10.5008 6.79981 10.4711 6.49821 10.5289 6.20724C10.5868 5.91627 10.7297 5.649 10.9395 5.43922C11.1492 5.22944 11.4165 5.08658 11.7075 5.0287C11.9985 4.97082 12.3001 5.00053 12.5741 5.11406C12.8482 5.22759 13.0825 5.41985 13.2473 5.66652C13.4121 5.9132 13.5001 6.20321 13.5001 6.49988C13.5001 6.8977 13.3421 7.27923 13.0608 7.56054C12.7795 7.84184 12.3979 7.99988 12.0001 7.99988ZM17.5601 9.55988C17.3504 9.76984 17.0831 9.91289 16.7921 9.97092C16.5011 10.0289 16.1994 9.99935 15.9252 9.88587C15.651 9.7724 15.4166 9.58014 15.2517 9.33343C15.0868 9.08671 14.9988 8.79663 14.9988 8.49988C14.9988 8.20313 15.0868 7.91304 15.2517 7.66633C15.4166 7.41961 15.651 7.22736 15.9252 7.11388C16.1994 7.0004 16.5011 6.97081 16.7921 7.02884C17.0831 7.08686 17.3504 7.22991 17.5601 7.43988C17.7004 7.57846 17.8118 7.74352 17.8878 7.92548C17.9638 8.10744 18.003 8.30268 18.003 8.49988C18.003 8.69708 17.9638 8.89232 17.8878 9.07427C17.8118 9.25623 17.7004 9.42129 17.5601 9.55988Z" fill="#141414"/>
</svg>
