<svg width="24" height="24" viewBox="0 0 24 24" fill="none" xmlns="http://www.w3.org/2000/svg">
<path d="M19.48 13.89C19.479 13.8733 19.479 13.8567 19.48 13.84L18.98 10.84C18.9422 10.6068 18.8231 10.3945 18.6437 10.2407C18.4643 10.087 18.2363 10.0017 18 10V9C18 7.4087 17.3679 5.88258 16.2426 4.75736C15.1174 3.63214 13.5913 3 12 3C10.4087 3 8.88258 3.63214 7.75736 4.75736C6.63214 5.88258 6 7.4087 6 9V10C5.76031 9.99691 5.52749 10.08 5.34394 10.2342C5.16039 10.3884 5.03833 10.6034 5 10.84L4.5 13.84C4.50097 13.8567 4.50097 13.8733 4.5 13.89C3.85307 14.408 3.383 15.1141 3.15473 15.9107C2.92646 16.7074 2.95128 17.5553 3.22575 18.3373C3.50021 19.1192 4.01078 19.7966 4.68689 20.2759C5.363 20.7551 6.17127 21.0125 7 21.0125C7.82873 21.0125 8.637 20.7551 9.31311 20.2759C9.98922 19.7966 10.4998 19.1192 10.7743 18.3373C11.0487 17.5553 11.0735 16.7074 10.8453 15.9107C10.617 15.1141 10.1469 14.408 9.5 13.89C9.49903 13.8733 9.49903 13.8567 9.5 13.84L9 10.84C8.96167 10.6034 8.83961 10.3884 8.65606 10.2342C8.47251 10.08 8.23969 9.99691 8 10V9C8 7.93913 8.42143 6.92172 9.17157 6.17157C9.92172 5.42143 10.9391 5 12 5C13.0609 5 14.0783 5.42143 14.8284 6.17157C15.5786 6.92172 16 7.93913 16 9V10C15.7603 9.99691 15.5275 10.08 15.3439 10.2342C15.1604 10.3884 15.0383 10.6034 15 10.84L14.5 13.84C14.501 13.8567 14.501 13.8733 14.5 13.89C13.8531 14.408 13.383 15.1141 13.1547 15.9107C12.9265 16.7074 12.9513 17.5553 13.2257 18.3373C13.5002 19.1192 14.0108 19.7966 14.6869 20.2759C15.363 20.7551 16.1713 21.0125 17 21.0125C17.8287 21.0125 18.637 20.7551 19.3131 20.2759C19.9892 19.7966 20.4998 19.1192 20.7743 18.3373C21.0487 17.5553 21.0735 16.7074 20.8453 15.9107C20.617 15.1141 20.1469 14.408 19.5 13.89H19.48ZM9 17C9 17.3956 8.8827 17.7822 8.66294 18.1111C8.44318 18.44 8.13082 18.6964 7.76537 18.8478C7.39991 18.9991 6.99778 19.0387 6.60982 18.9616C6.22186 18.8844 5.86549 18.6939 5.58579 18.4142C5.30608 18.1345 5.1156 17.7781 5.03843 17.3902C4.96126 17.0022 5.00087 16.6001 5.15224 16.2346C5.30362 15.8692 5.55996 15.5568 5.88886 15.3371C6.21776 15.1173 6.60444 15 7 15C7.53043 15 8.03914 15.2107 8.41421 15.5858C8.78929 15.9609 9 16.4696 9 17ZM17 19C16.6044 19 16.2178 18.8827 15.8889 18.6629C15.56 18.4432 15.3036 18.1308 15.1522 17.7654C15.0009 17.3999 14.9613 16.9978 15.0384 16.6098C15.1156 16.2219 15.3061 15.8655 15.5858 15.5858C15.8655 15.3061 16.2219 15.1156 16.6098 15.0384C16.9978 14.9613 17.3999 15.0009 17.7654 15.1522C18.1308 15.3036 18.4432 15.56 18.6629 15.8889C18.8827 16.2178 19 16.6044 19 17C19 17.5304 18.7893 18.0391 18.4142 18.4142C18.0391 18.7893 17.5304 19 17 19Z" fill="#141414"/>
</svg>
