<svg width="24" height="24" viewBox="0 0 24 24" fill="none" xmlns="http://www.w3.org/2000/svg">
<path d="M12 2C10.0222 2 8.08879 2.58649 6.4443 3.6853C4.79981 4.78412 3.51809 6.3459 2.76121 8.17317C2.00433 10.0004 1.8063 12.0111 2.19215 13.9509C2.578 15.8907 3.53041 17.6725 4.92894 19.0711C6.32746 20.4696 8.10929 21.422 10.0491 21.8079C11.9889 22.1937 13.9996 21.9957 15.8268 21.2388C17.6541 20.4819 19.2159 19.2002 20.3147 17.5557C21.4135 15.9112 22 13.9778 22 12C22 10.6868 21.7413 9.38642 21.2388 8.17317C20.7363 6.95991 19.9997 5.85752 19.0711 4.92893C18.1425 4.00035 17.0401 3.26375 15.8268 2.7612C14.6136 2.25866 13.3132 2 12 2ZM14.21 15.29C14.3037 15.383 14.3781 15.4936 14.4289 15.6154C14.4797 15.7373 14.5058 15.868 14.5058 16C14.5058 16.132 14.4797 16.2627 14.4289 16.3846C14.3781 16.5064 14.3037 16.617 14.21 16.71C14.117 16.8037 14.0064 16.8781 13.8846 16.9289C13.7627 16.9797 13.632 17.0058 13.5 17.0058C13.368 17.0058 13.2373 16.9797 13.1154 16.9289C12.9936 16.8781 12.883 16.8037 12.79 16.71L8.79 12.71C8.69628 12.617 8.62188 12.5064 8.57111 12.3846C8.52034 12.2627 8.49421 12.132 8.49421 12C8.49421 11.868 8.52034 11.7373 8.57111 11.6154C8.62188 11.4936 8.69628 11.383 8.79 11.29L12.79 7.29C12.8832 7.19676 12.9939 7.1228 13.1158 7.07234C13.2376 7.02188 13.3681 6.99591 13.5 6.99591C13.6319 6.99591 13.7624 7.02188 13.8843 7.07234C14.0061 7.1228 14.1168 7.19676 14.21 7.29C14.3032 7.38324 14.3772 7.49393 14.4277 7.61575C14.4781 7.73757 14.5041 7.86814 14.5041 8C14.5041 8.13186 14.4781 8.26243 14.4277 8.38425C14.3772 8.50607 14.3032 8.61676 14.21 8.71L10.91 12L14.21 15.29Z" fill="#141414"/>
</svg>
