<svg width="24" height="24" viewBox="0 0 24 24" fill="none" xmlns="http://www.w3.org/2000/svg">
<path d="M13 4H15C15.55 4 16 3.55 16 3C16 2.45 15.55 2 15 2H13C10.59 2 8.57 3.72 8.1 6H10.18C10.59 4.84 11.69 4 13 4ZM17.54 16L15.84 18.55C15.65 18.83 15.34 19 15.01 19C14.99 19 14.97 19 14.95 19C14.59 18.98 14.28 18.77 14.12 18.45L11.89 13.99L10.85 15.56C10.66 15.84 10.35 16.01 10.02 16.01H8.02C7.47 16.01 7.02 15.56 7.02 15.01C7.02 14.46 7.47 14.01 8.02 14.01H9.48L11.18 11.46C11.38 11.16 11.7 11 12.07 11.02C12.43 11.04 12.74 11.25 12.9 11.57L15.13 16.03L16.17 14.46C16.36 14.18 16.67 14.01 17 14.01H19.93C19.44 10.06 16.08 7.01 12 7.01H6V3C6 2.45 5.55 2 5 2C4.45 2 4 2.45 4 3V14C4 18.42 7.58 22 12 22H17C18.66 22 20 20.66 20 19V16H17.54Z" fill="#141414"/>
</svg>
