<svg width="24" height="24" viewBox="0 0 24 24" fill="none" xmlns="http://www.w3.org/2000/svg">
<path d="M19 8H18V6C18 4.93913 17.5786 3.92172 16.8284 3.17157C16.0783 2.42143 15.0609 2 14 2H10C8.93913 2 7.92172 2.42143 7.17157 3.17157C6.42143 3.92172 6 4.93913 6 6V8H5C4.73478 8 4.48043 8.10536 4.29289 8.29289C4.10536 8.48043 4 8.73478 4 9C4 9.26522 4.10536 9.51957 4.29289 9.70711C4.48043 9.89464 4.73478 10 5 10H6V18C6 19.0609 6.42143 20.0783 7.17157 20.8284C7.92172 21.5786 8.93913 22 10 22H14C15.0609 22 16.0783 21.5786 16.8284 20.8284C17.5786 20.0783 18 19.0609 18 18V10H19C19.2652 10 19.5196 9.89464 19.7071 9.70711C19.8946 9.51957 20 9.26522 20 9C20 8.73478 19.8946 8.48043 19.7071 8.29289C19.5196 8.10536 19.2652 8 19 8ZM14.5 19H9.5C9.10218 19 8.72064 18.842 8.43934 18.5607C8.15804 18.2794 8 17.8978 8 17.5C8 17.3674 8.05268 17.2402 8.14645 17.1464C8.24021 17.0527 8.36739 17 8.5 17H15.5C15.6326 17 15.7598 17.0527 15.8536 17.1464C15.9473 17.2402 16 17.3674 16 17.5C16 17.8978 15.842 18.2794 15.5607 18.5607C15.2794 18.842 14.8978 19 14.5 19ZM15.5 11H8.5C8.36739 11 8.24021 10.9473 8.14645 10.8536C8.05268 10.7598 8 10.6326 8 10.5C8 9.57174 8.36875 8.6815 9.02513 8.02513C9.6815 7.36875 10.5717 7 11.5 7H12.5C13.4283 7 14.3185 7.36875 14.9749 8.02513C15.6313 8.6815 16 9.57174 16 10.5C16 10.6326 15.9473 10.7598 15.8536 10.8536C15.7598 10.9473 15.6326 11 15.5 11Z" fill="#141414"/>
</svg>
