<svg width="24" height="24" viewBox="0 0 24 24" fill="none" xmlns="http://www.w3.org/2000/svg">
<path d="M11.9779 13C11.7802 13 11.5868 13.0586 11.4224 13.1685C11.2579 13.2784 11.1298 13.4346 11.0541 13.6173C10.9784 13.8 10.9586 14.0011 10.9972 14.1951C11.0357 14.3891 11.131 14.5673 11.2708 14.7071C11.4107 14.847 11.5889 14.9422 11.7829 14.9808C11.9768 15.0194 12.1779 14.9996 12.3606 14.9239C12.5434 14.8482 12.6995 14.72 12.8094 14.5556C12.9193 14.3911 12.9779 14.1978 12.9779 14C12.9779 13.7348 12.8726 13.4804 12.6851 13.2929C12.4975 13.1054 12.2432 13 11.9779 13ZM21.6879 10L18.6879 5C18.5143 4.69918 18.2653 4.44876 17.9655 4.27342C17.6656 4.09807 17.3253 4.00384 16.9779 4H6.97795C6.63062 4.00384 6.29029 4.09807 5.99045 4.27342C5.69061 4.44876 5.4416 4.69918 5.26795 5L2.26795 10C2.09241 10.304 2 10.6489 2 11C2 11.3511 2.09241 11.696 2.26795 12C2.4416 12.3008 2.69061 12.5512 2.99045 12.7266C3.29029 12.9019 3.63062 12.9962 3.97795 13H4.97795V17C4.97795 17.7956 5.29402 18.5587 5.85663 19.1213C6.41924 19.6839 7.1823 20 7.97795 20H15.9779C16.7736 20 17.5367 19.6839 18.0993 19.1213C18.6619 18.5587 18.9779 17.7956 18.9779 17V13H19.9779C20.3304 13.0014 20.6769 12.9097 20.9825 12.734C21.288 12.5584 21.5417 12.3052 21.7179 12C21.8889 11.6933 21.9762 11.3471 21.9709 10.996C21.9657 10.6449 21.8681 10.3014 21.6879 10ZM11.9779 17C11.3846 17 10.8046 16.8241 10.3112 16.4944C9.81789 16.1648 9.43337 15.6962 9.20631 15.1481C8.97925 14.5999 8.91984 13.9967 9.03559 13.4147C9.15135 12.8328 9.43707 12.2982 9.85663 11.8787C10.2762 11.4591 10.8107 11.1734 11.3927 11.0576C11.9746 10.9419 12.5778 11.0013 13.126 11.2284C13.6742 11.4554 14.1427 11.8399 14.4724 12.3333C14.802 12.8266 14.9779 13.4067 14.9779 14C14.9779 14.7956 14.6619 15.5587 14.0993 16.1213C13.5367 16.6839 12.7736 17 11.9779 17Z" fill="#141414"/>
</svg>
