<svg width="24" height="24" viewBox="0 0 24 24" fill="none" xmlns="http://www.w3.org/2000/svg">
<path d="M20.77 11.1598L19.4 7.04984C19.1926 6.46307 18.8077 5.95534 18.2989 5.597C17.7901 5.23866 17.1824 5.04744 16.56 5.04984H7.41C6.78351 5.0468 6.17179 5.23996 5.66066 5.60224C5.14954 5.96451 4.76465 6.47771 4.56 7.06984L3.22 11.1598C2.8585 11.3129 2.55006 11.5691 2.33312 11.8963C2.11617 12.2234 2.00032 12.6073 2 12.9998V15.9998C2.00211 16.3489 2.09552 16.6913 2.27095 16.993C2.44638 17.2948 2.69772 17.5453 3 17.7198V18.9998C3 19.2651 3.10536 19.5194 3.29289 19.7069C3.48043 19.8945 3.73478 19.9998 4 19.9998C4.26522 19.9998 4.51957 19.8945 4.70711 19.7069C4.89464 19.5194 5 19.2651 5 18.9998V17.9998H19V18.9998C19 19.2651 19.1054 19.5194 19.2929 19.7069C19.4804 19.8945 19.7348 19.9998 20 19.9998C20.2652 19.9998 20.5196 19.8945 20.7071 19.7069C20.8946 19.5194 21 19.2651 21 18.9998V17.7198C21.3023 17.5453 21.5536 17.2948 21.7291 16.993C21.9045 16.6913 21.9979 16.3489 22 15.9998V12.9998C21.9989 12.6061 21.8815 12.2215 21.6627 11.8942C21.4439 11.5669 21.1334 11.3114 20.77 11.1598ZM6.46 7.68984C6.52781 7.48099 6.66247 7.30027 6.8432 7.17556C7.02393 7.05086 7.24068 6.98911 7.46 6.99984H16.61C16.8281 6.98846 17.0439 7.04877 17.2244 7.17155C17.405 7.29434 17.5404 7.47286 17.61 7.67984L18.61 10.9998H5.38L6.46 7.68984ZM6.71 14.6898C6.54541 14.8546 6.32847 14.9567 6.09662 14.9786C5.86477 15.0005 5.63254 14.9408 5.44 14.8098C5.27585 14.7012 5.14993 14.5438 5.08 14.3598C4.99999 14.1848 4.97221 13.9903 5 13.7998C5.03698 13.6013 5.13319 13.4186 5.27599 13.2758C5.41879 13.133 5.60147 13.0368 5.8 12.9998C5.995 12.9618 6.19692 12.9827 6.38 13.0598C6.56399 13.1298 6.72139 13.2557 6.83 13.4198C6.96101 13.6124 7.02071 13.8446 6.9988 14.0765C6.97689 14.3083 6.87475 14.5252 6.71 14.6898ZM18.71 14.6898C18.5454 14.8546 18.3285 14.9567 18.0966 14.9786C17.8648 15.0005 17.6325 14.9408 17.44 14.8098C17.2758 14.7012 17.1499 14.5438 17.08 14.3598C17 14.1848 16.9722 13.9903 17 13.7998C17.037 13.6013 17.1332 13.4186 17.276 13.2758C17.4188 13.133 17.6015 13.0368 17.8 12.9998C17.995 12.9618 18.1969 12.9827 18.38 13.0598C18.564 13.1298 18.7214 13.2557 18.83 13.4198C18.961 13.6124 19.0207 13.8446 18.9988 14.0765C18.9769 14.3083 18.8748 14.5252 18.71 14.6898Z" fill="#141414"/>
</svg>
