<svg width="24" height="24" viewBox="0 0 24 24" fill="none" xmlns="http://www.w3.org/2000/svg">
<path d="M7.21 10.7901C7.0217 10.6018 6.7663 10.496 6.5 10.496C6.2337 10.496 5.9783 10.6018 5.79 10.7901C5.6017 10.9784 5.49591 11.2338 5.49591 11.5001C5.49591 11.6319 5.52188 11.7625 5.57234 11.8843C5.6228 12.0062 5.69676 12.1168 5.79 12.2101L7 13.3701C7.14454 13.5146 7.22575 13.7107 7.22575 13.9151C7.22575 14.1195 7.14454 14.3155 7 14.4601C6.85546 14.6046 6.65942 14.6858 6.455 14.6858C6.25059 14.6858 6.05454 14.6046 5.91 14.4601L4.59 13.1701C4.21441 12.7967 4.00223 12.2897 4 11.7601V7.53008C4 7.26486 3.89464 7.01051 3.70711 6.82297C3.51957 6.63544 3.26522 6.53008 3 6.53008C2.73478 6.53008 2.48043 6.63544 2.29289 6.82297C2.10536 7.01051 2 7.26486 2 7.53008V11.7601C1.99959 12.2855 2.1027 12.8059 2.30346 13.2915C2.50421 13.7771 2.79866 14.2183 3.17 14.5901L5.71 17.1201C5.80268 17.2135 5.87601 17.3243 5.92577 17.4462C5.97554 17.568 6.00076 17.6985 6 17.8301V19.0001C6 19.2653 6.10536 19.5197 6.29289 19.7072C6.48043 19.8947 6.73479 20.0001 7 20.0001H10C10.2652 20.0001 10.5196 19.8947 10.7071 19.7072C10.8946 19.5197 11 19.2653 11 19.0001V15.8301C10.9993 15.0347 10.6828 14.2722 10.12 13.7101L7.21 10.7901ZM16.21 6.56008C16.214 6.22616 16.1518 5.89476 16.027 5.58499C15.9023 5.27522 15.7175 4.99321 15.4832 4.75522C15.2489 4.51724 14.9699 4.32798 14.6621 4.19838C14.3543 4.06877 14.0239 4.00138 13.69 4.00008C13.0622 4.02005 12.4624 4.26493 12 4.69008C11.5376 4.26493 10.9378 4.02005 10.31 4.00008C9.97354 3.9974 9.63992 4.06185 9.32867 4.18968C9.01742 4.31751 8.7348 4.50614 8.49734 4.74452C8.25989 4.98291 8.07237 5.26627 7.94576 5.57802C7.81915 5.88976 7.756 6.22363 7.76 6.56008C7.76 8.14008 9 9.56008 11.14 11.5601L11.36 11.7701C11.5361 11.9257 11.7651 12.008 12 12.0001C12.2346 12.002 12.4606 11.9123 12.63 11.7501L12.86 11.5401C15 9.58008 16.24 8.14008 16.24 6.56008H16.21ZM20.97 6.56008C20.7048 6.56008 20.4504 6.66544 20.2629 6.85297C20.0754 7.04051 19.97 7.29486 19.97 7.56008V11.7901C19.9678 12.3197 19.7556 12.8267 19.38 13.2001L18.1 14.4901C18.0265 14.5623 17.9394 14.6193 17.8438 14.6579C17.7482 14.6965 17.646 14.7159 17.5429 14.715C17.4399 14.714 17.338 14.6928 17.2431 14.6525C17.1482 14.6122 17.0622 14.5536 16.99 14.4801C16.9178 14.4065 16.8607 14.3195 16.8222 14.2239C16.7836 14.1283 16.7642 14.0261 16.7651 13.923C16.766 13.8199 16.7873 13.7181 16.8276 13.6232C16.8679 13.5283 16.9265 13.4423 17 13.3701L18.17 12.2101C18.3583 12.0218 18.4641 11.7664 18.4641 11.5001C18.4641 11.2338 18.3583 10.9784 18.17 10.7901C17.9817 10.6018 17.7263 10.496 17.46 10.496C17.1937 10.496 16.9383 10.6018 16.75 10.7901L13.84 13.7101C13.2919 14.2786 12.99 15.0404 13 15.8301V19.0001C13 19.2653 13.1054 19.5197 13.2929 19.7072C13.4804 19.8947 13.7348 20.0001 14 20.0001H17C17.2652 20.0001 17.5196 19.8947 17.7071 19.7072C17.8946 19.5197 18 19.2653 18 19.0001V17.8301C17.9992 17.6985 18.0245 17.568 18.0742 17.4462C18.124 17.3243 18.1973 17.2135 18.29 17.1201L20.83 14.5901C21.2013 14.2183 21.4958 13.7771 21.6965 13.2915C21.8973 12.8059 22.0004 12.2855 22 11.7601V7.53008C22 7.26486 21.8946 7.01051 21.7071 6.82297C21.5196 6.63544 21.2652 6.53008 21 6.53008L20.97 6.56008Z" fill="#141414"/>
</svg>
