<svg width="24" height="24" viewBox="0 0 24 24" fill="none" xmlns="http://www.w3.org/2000/svg">
<path d="M20.5 16.9998C20.3113 17.0006 20.1245 17.038 19.95 17.1098L17.74 15.9998L20 14.8898C20.1745 14.9617 20.3613 14.9991 20.55 14.9998C20.8297 15.0009 21.1041 14.9237 21.3423 14.7771C21.5804 14.6304 21.7728 14.4201 21.8977 14.1698C22.0227 13.9196 22.0751 13.6394 22.0492 13.3609C22.0233 13.0824 21.9201 12.8167 21.7511 12.5938C21.5822 12.3709 21.3543 12.1997 21.0932 12.0995C20.8321 11.9992 20.5481 11.974 20.2734 12.0266C19.9987 12.0793 19.7442 12.2077 19.5386 12.3973C19.3331 12.5869 19.1846 12.8303 19.11 13.0998L16.11 14.6098C15.9355 14.538 15.7487 14.5006 15.56 14.4998C15.1622 14.4998 14.7806 14.6579 14.4993 14.9392C14.218 15.2205 14.06 15.602 14.06 15.9998C14.06 16.3977 14.218 16.7792 14.4993 17.0605C14.7806 17.3418 15.1622 17.4998 15.56 17.4998C15.7487 17.4991 15.9355 17.4617 16.11 17.3898L19.11 18.8998C19.1853 19.1713 19.3356 19.4161 19.5436 19.6062C19.7516 19.7962 20.009 19.9239 20.2861 19.9745C20.5633 20.025 20.8492 19.9965 21.1109 19.8922C21.3726 19.7878 21.5997 19.6119 21.766 19.3845C21.9324 19.1571 22.0313 18.8874 22.0515 18.6064C22.0717 18.3253 22.0124 18.0443 21.8803 17.7954C21.7481 17.5466 21.5486 17.34 21.3045 17.1993C21.0604 17.0585 20.7816 16.9894 20.5 16.9998ZM6.5 7.68984C6.56781 7.48099 6.70247 7.30027 6.8832 7.17556C7.06393 7.05086 7.28068 6.98911 7.5 6.99984H16.65C16.8681 6.98846 17.0839 7.04877 17.2644 7.17155C17.445 7.29434 17.5804 7.47286 17.65 7.67984L18.28 9.99984H20.39L19.39 7.04984C19.1826 6.46307 18.7977 5.95534 18.2889 5.597C17.7801 5.23866 17.1724 5.04744 16.55 5.04984H7.41C6.78351 5.0468 6.17179 5.23996 5.66066 5.60224C5.14954 5.96451 4.76465 6.47771 4.56 7.06984L3.22 11.1598C2.8585 11.3129 2.55006 11.5691 2.33312 11.8963C2.11617 12.2234 2.00032 12.6073 2 12.9998V15.9998C2.00211 16.3489 2.09552 16.6913 2.27095 16.993C2.44638 17.2948 2.69772 17.5453 3 17.7198V18.9998C3 19.2651 3.10536 19.5194 3.29289 19.7069C3.48043 19.8945 3.73478 19.9998 4 19.9998C4.26522 19.9998 4.51957 19.8945 4.70711 19.7069C4.89464 19.5194 5 19.2651 5 18.9998V17.9998H12V12.9998C12.0044 12.2598 12.2822 11.5475 12.78 10.9998H5.38L6.5 7.68984ZM5.8 12.9998C5.995 12.9618 6.19692 12.9827 6.38 13.0598C6.56399 13.1298 6.72139 13.2557 6.83 13.4198C6.96172 13.6123 7.022 13.8448 7.00042 14.0771C6.97884 14.3093 6.87675 14.5267 6.71182 14.6917C6.54689 14.8566 6.32949 14.9587 6.09724 14.9803C5.86499 15.0018 5.6325 14.9416 5.44 14.8098C5.27585 14.7012 5.14993 14.5438 5.08 14.3598C4.99999 14.1848 4.97221 13.9903 5 13.7998C5.03698 13.6013 5.13319 13.4186 5.27599 13.2758C5.41879 13.133 5.60147 13.0368 5.8 12.9998Z" fill="#141414"/>
</svg>
