<svg width="24" height="24" viewBox="0 0 24 24" fill="none" xmlns="http://www.w3.org/2000/svg">
<path d="M20 19H5V17.09C5.41 17.09 5.8 17.09 6.18 17.09C13.18 17.09 16.34 13.01 18.86 7.7L19.05 8.28C19.1101 8.48608 19.2349 8.66736 19.406 8.79702C19.5771 8.92668 19.7853 8.99785 20 9C20.1062 9.01371 20.2138 9.01371 20.32 9C20.4553 8.96423 20.5816 8.90046 20.6907 8.81281C20.7998 8.72516 20.8893 8.61558 20.9534 8.49116C21.0175 8.36674 21.0548 8.23025 21.0628 8.09052C21.0708 7.95079 21.0494 7.81094 21 7.68L20 4.68C19.9583 4.55506 19.8922 4.43959 19.8057 4.34024C19.7192 4.24089 19.6139 4.1596 19.4959 4.10106C19.3779 4.04252 19.2495 4.00787 19.1181 3.99911C18.9866 3.99035 18.8547 4.00764 18.73 4.05L15.73 5.05C15.4714 5.12824 15.2545 5.306 15.127 5.54417C14.9994 5.78234 14.9718 6.06141 15.05 6.32C15.1282 6.57859 15.306 6.7955 15.5442 6.92303C15.7823 7.05055 16.0614 7.07824 16.32 7L17.16 6.72C14.68 12 11.86 15.53 5 15.07V4C5 3.73478 4.89464 3.48043 4.70711 3.29289C4.51957 3.10536 4.26522 3 4 3C3.73478 3 3.48043 3.10536 3.29289 3.29289C3.10536 3.48043 3 3.73478 3 4V20C3 20.2652 3.10536 20.5196 3.29289 20.7071C3.48043 20.8946 3.73478 21 4 21H20C20.2652 21 20.5196 20.8946 20.7071 20.7071C20.8946 20.5196 21 20.2652 21 20C21 19.7348 20.8946 19.4804 20.7071 19.2929C20.5196 19.1054 20.2652 19 20 19Z" fill="#141414"/>
</svg>
