<svg width="24" height="24" viewBox="0 0 24 24" fill="none" xmlns="http://www.w3.org/2000/svg">
<path d="M14 7.00014C13.8022 7.00014 13.6089 7.05879 13.4444 7.16867C13.28 7.27855 13.1518 7.43473 13.0761 7.61746C13.0004 7.80018 12.9806 8.00125 13.0192 8.19523C13.0578 8.38921 13.153 8.5674 13.2929 8.70725C13.4327 8.8471 13.6109 8.94234 13.8049 8.98093C13.9989 9.01951 14.2 8.99971 14.3827 8.92402C14.5654 8.84833 14.7216 8.72016 14.8315 8.55571C14.9414 8.39126 15 8.19792 15 8.00014C15 7.73493 14.8946 7.48057 14.7071 7.29304C14.5196 7.1055 14.2652 7.00014 14 7.00014ZM14 15.0001C13.8022 15.0001 13.6089 15.0588 13.4444 15.1687C13.28 15.2786 13.1518 15.4347 13.0761 15.6175C13.0004 15.8002 12.9806 16.0013 13.0192 16.1952C13.0578 16.3892 13.153 16.5674 13.2929 16.7072C13.4327 16.8471 13.6109 16.9423 13.8049 16.9809C13.9989 17.0195 14.2 16.9997 14.3827 16.924C14.5654 16.8483 14.7216 16.7202 14.8315 16.5557C14.9414 16.3913 15 16.1979 15 16.0001C15 15.7349 14.8946 15.4806 14.7071 15.293C14.5196 15.1055 14.2652 15.0001 14 15.0001ZM9 3.00014H7.6C7.16642 2.99489 6.74371 3.13579 6.4 3.40014C5.28 4.28014 3 6.71014 3 12.0001C3 17.2901 5.28 19.7201 6.4 20.6001C6.74371 20.8645 7.16642 21.0054 7.6 21.0001H9C9.53043 21.0001 10.0391 20.7894 10.4142 20.4144C10.7893 20.0393 11 19.5306 11 19.0001V18.0001C11 17.4697 10.7893 16.961 10.4142 16.5859C10.0391 16.2109 9.53043 16.0001 9 16.0001H8C7.73478 16.0001 7.48043 15.8948 7.29289 15.7072C7.10536 15.5197 7 15.2654 7 15.0001V9.00014C7 8.73493 7.10536 8.48057 7.29289 8.29304C7.48043 8.1055 7.73478 8.00014 8 8.00014H9C9.53043 8.00014 10.0391 7.78943 10.4142 7.41436C10.7893 7.03928 11 6.53057 11 6.00014V5.00014C11 4.46971 10.7893 3.961 10.4142 3.58593C10.0391 3.21086 9.53043 3.00014 9 3.00014ZM14 11.0001C13.8022 11.0001 13.6089 11.0588 13.4444 11.1687C13.28 11.2786 13.1518 11.4347 13.0761 11.6175C13.0004 11.8002 12.9806 12.0013 13.0192 12.1952C13.0578 12.3892 13.153 12.5674 13.2929 12.7072C13.4327 12.8471 13.6109 12.9423 13.8049 12.9809C13.9989 13.0195 14.2 12.9997 14.3827 12.924C14.5654 12.8483 14.7216 12.7202 14.8315 12.5557C14.9414 12.3913 15 12.1979 15 12.0001C15 11.7349 14.8946 11.4806 14.7071 11.293C14.5196 11.1055 14.2652 11.0001 14 11.0001ZM17 15.0001C16.8022 15.0001 16.6089 15.0588 16.4444 15.1687C16.28 15.2786 16.1518 15.4347 16.0761 15.6175C16.0004 15.8002 15.9806 16.0013 16.0192 16.1952C16.0578 16.3892 16.153 16.5674 16.2929 16.7072C16.4327 16.8471 16.6109 16.9423 16.8049 16.9809C16.9989 17.0195 17.2 16.9997 17.3827 16.924C17.5654 16.8483 17.7216 16.7202 17.8315 16.5557C17.9414 16.3913 18 16.1979 18 16.0001C18 15.7349 17.8946 15.4806 17.7071 15.293C17.5196 15.1055 17.2652 15.0001 17 15.0001ZM20 15.0001C19.8022 15.0001 19.6089 15.0588 19.4444 15.1687C19.28 15.2786 19.1518 15.4347 19.0761 15.6175C19.0004 15.8002 18.9806 16.0013 19.0192 16.1952C19.0578 16.3892 19.153 16.5674 19.2929 16.7072C19.4327 16.8471 19.6109 16.9423 19.8049 16.9809C19.9989 17.0195 20.2 16.9997 20.3827 16.924C20.5654 16.8483 20.7216 16.7202 20.8315 16.5557C20.9414 16.3913 21 16.1979 21 16.0001C21 15.7349 20.8946 15.4806 20.7071 15.293C20.5196 15.1055 20.2652 15.0001 20 15.0001ZM17 11.0001C16.8022 11.0001 16.6089 11.0588 16.4444 11.1687C16.28 11.2786 16.1518 11.4347 16.0761 11.6175C16.0004 11.8002 15.9806 12.0013 16.0192 12.1952C16.0578 12.3892 16.153 12.5674 16.2929 12.7072C16.4327 12.8471 16.6109 12.9423 16.8049 12.9809C16.9989 13.0195 17.2 12.9997 17.3827 12.924C17.5654 12.8483 17.7216 12.7202 17.8315 12.5557C17.9414 12.3913 18 12.1979 18 12.0001C18 11.7349 17.8946 11.4806 17.7071 11.293C17.5196 11.1055 17.2652 11.0001 17 11.0001Z" fill="#141414"/>
</svg>
