<svg width="24" height="24" viewBox="0 0 24 24" fill="none" xmlns="http://www.w3.org/2000/svg">
<path d="M21.8901 10.0998C21.7994 9.71668 21.5976 9.36882 21.3101 9.09984L13.9301 2.71984C13.3896 2.26562 12.7061 2.0166 12.0001 2.0166C11.2941 2.0166 10.6106 2.26562 10.0701 2.71984L2.6901 9.08984C2.40104 9.36125 2.19918 9.71244 2.11015 10.0988C2.02112 10.4852 2.04895 10.8893 2.1901 11.2598C2.33037 11.6298 2.57721 11.9498 2.8994 12.1794C3.22158 12.4091 3.60464 12.538 4.0001 12.5498V17.9998C4.0001 18.7955 4.31617 19.5586 4.87878 20.1212C5.44139 20.6838 6.20445 20.9998 7.0001 20.9998H17.0001C17.7957 20.9998 18.5588 20.6838 19.1214 20.1212C19.684 19.5586 20.0001 18.7955 20.0001 17.9998V12.5498C20.3956 12.538 20.7786 12.4091 21.1008 12.1794C21.423 11.9498 21.6698 11.6298 21.8101 11.2598C21.9511 10.8896 21.9789 10.4859 21.8901 10.0998ZM14.2301 9.23984C14.308 9.09724 14.4133 8.97149 14.5401 8.86984C14.7329 8.71738 14.9655 8.62365 15.2101 8.59984C15.4564 8.57792 15.7037 8.63016 15.9201 8.74984C16.1391 8.8672 16.317 9.04862 16.4301 9.26984C16.5457 9.48753 16.5945 9.73455 16.5701 9.97984C16.5394 10.2263 16.4388 10.4588 16.2801 10.6498C16.122 10.8351 15.9136 10.9706 15.6801 11.0398C15.4539 11.0872 15.2192 11.0734 15.0001 10.9998C14.7657 10.922 14.5578 10.78 14.4001 10.5898C14.3003 10.4601 14.2226 10.3148 14.1701 10.1598C14.1194 9.99445 14.1029 9.82045 14.1219 9.64849C14.1408 9.47653 14.1946 9.31025 14.2801 9.15984L14.2301 9.23984ZM7.4801 9.49984C7.52501 9.34366 7.59972 9.19765 7.7001 9.06984C7.85291 8.87445 8.06253 8.73121 8.3001 8.65984C8.53424 8.58483 8.78596 8.58483 9.0201 8.65984C9.2518 8.7124 9.46353 8.83041 9.6301 8.99984C9.79026 9.18998 9.89109 9.42294 9.9201 9.66984C9.94693 9.91412 9.90174 10.1609 9.7901 10.3798C9.67404 10.5989 9.49686 10.7796 9.2801 10.8998C9.06476 11.023 8.81744 11.0787 8.5701 11.0598C8.32547 11.036 8.09288 10.9423 7.9001 10.7898C7.77028 10.6886 7.66157 10.5629 7.5801 10.4198C7.50609 10.2896 7.45533 10.1475 7.4301 9.99984C7.41579 9.83152 7.43274 9.662 7.4801 9.49984ZM8.1301 14.6598C7.96537 14.7116 7.79172 14.7286 7.6201 14.7098C7.4473 14.6917 7.2803 14.6372 7.1301 14.5498C6.97897 14.4672 6.84894 14.3509 6.7501 14.2098C6.64607 14.0707 6.57434 13.9102 6.5401 13.7398C6.50014 13.5722 6.50014 13.3975 6.5401 13.2298C6.57101 13.0603 6.63934 12.8997 6.7401 12.7598C6.83748 12.6158 6.96342 12.4932 7.1101 12.3998C7.25538 12.308 7.4194 12.2499 7.5901 12.2298C7.75482 12.1781 7.92847 12.1611 8.1001 12.1798C8.2729 12.198 8.4399 12.2525 8.5901 12.3398C8.74122 12.4225 8.87126 12.5388 8.9701 12.6798C9.07412 12.819 9.14586 12.9795 9.1801 13.1498C9.22005 13.3175 9.22005 13.4922 9.1801 13.6598C9.14918 13.8294 9.08085 13.99 8.9801 14.1298C8.88271 14.2739 8.75677 14.3964 8.6101 14.4898C8.46481 14.5817 8.30079 14.6398 8.1301 14.6598ZM11.2801 16.8698C11.1719 17.0905 11.0016 17.2747 10.7901 17.3998C10.5771 17.5295 10.3287 17.589 10.0801 17.5698C9.83347 17.5567 9.59652 17.4696 9.4001 17.3198C9.21592 17.167 9.0775 16.9663 9.0001 16.7398C8.92282 16.4992 8.92282 16.2405 9.0001 15.9998C9.05553 15.764 9.18047 15.5502 9.35876 15.3862C9.53705 15.2222 9.76047 15.1155 10.0001 15.0798C10.2457 15.0404 10.4975 15.0788 10.7201 15.1898C10.868 15.2598 11.0005 15.3584 11.1101 15.4798C11.2157 15.6053 11.3001 15.7472 11.3601 15.8998C11.41 16.0581 11.4304 16.2242 11.4201 16.3898C11.4047 16.5573 11.3571 16.7203 11.2801 16.8698ZM11.1201 9.12984C11.0024 9.01557 10.909 8.87874 10.8455 8.72753C10.7819 8.57633 10.7494 8.41386 10.7501 8.24984C10.7509 8.00363 10.8244 7.76314 10.9614 7.55855C11.0984 7.35397 11.2928 7.19439 11.5201 7.09984C11.7452 6.99707 11.9955 6.96231 12.2401 6.99984C12.4855 7.05223 12.7105 7.17452 12.888 7.35197C13.0654 7.52941 13.1877 7.75442 13.2401 7.99984C13.2839 8.24252 13.2561 8.4927 13.1601 8.71984C13.0665 8.95063 12.906 9.14817 12.6993 9.28715C12.4926 9.42612 12.2492 9.50019 12.0001 9.49984C11.8361 9.50049 11.6736 9.46806 11.5224 9.40449C11.3712 9.34091 11.2344 9.2475 11.1201 9.12984ZM15.0001 16.7398C14.9479 16.897 14.8642 17.0419 14.7542 17.1657C14.6441 17.2895 14.5101 17.3896 14.3601 17.4598C14.2053 17.5349 14.037 17.5781 13.8652 17.5867C13.6934 17.5953 13.5216 17.5691 13.3601 17.5098C13.0504 17.4004 12.7956 17.1744 12.6501 16.8798C12.577 16.7316 12.5339 16.5704 12.5235 16.4054C12.5131 16.2404 12.5356 16.075 12.5895 15.9188C12.6434 15.7626 12.7278 15.6186 12.8378 15.4952C12.9477 15.3717 13.0811 15.2714 13.2301 15.1998C13.3779 15.1309 13.5373 15.0902 13.7001 15.0798C14.0319 15.0631 14.3575 15.174 14.6101 15.3898C14.7294 15.5038 14.8305 15.6353 14.9101 15.7798C14.9783 15.9377 15.0135 16.1079 15.0135 16.2798C15.0135 16.4518 14.9783 16.622 14.9101 16.7798L15.0001 16.7398ZM17.3601 13.7398C17.3265 13.9007 17.262 14.0535 17.1701 14.1898C16.9714 14.4531 16.6833 14.6345 16.3601 14.6998C16.1981 14.7297 16.0321 14.7297 15.8701 14.6998C15.6231 14.6511 15.3961 14.53 15.218 14.3519C15.04 14.1739 14.9189 13.9469 14.8701 13.6998C14.83 13.4562 14.8613 13.2061 14.9601 12.9798C15.0625 12.7563 15.2253 12.5658 15.4301 12.4298C15.6426 12.2974 15.8898 12.2312 16.1401 12.2398C16.3868 12.2519 16.6255 12.3315 16.8301 12.4698C17.0299 12.6121 17.183 12.8105 17.2701 13.0398C17.3747 13.2502 17.4164 13.4864 17.3901 13.7198L17.3601 13.7398Z" fill="#141414"/>
</svg>
