<svg width="24" height="24" viewBox="0 0 24 24" fill="none" xmlns="http://www.w3.org/2000/svg">
<path d="M18.75 8H17.93C17.48 4.34 14.55 3 12 3C9.45 3 6.52 4.34 6.07 8H5.25C4.65326 8 4.08097 8.23705 3.65901 8.65901C3.23705 9.08097 3 9.65326 3 10.25C3.00259 10.4481 3.08244 10.6374 3.22253 10.7775C3.36263 10.9176 3.55189 10.9974 3.75 11H5.25C5.54946 11.0021 5.84597 10.9408 6.12 10.82C6.23477 11.6977 6.39498 12.5689 6.6 13.43C6.66 13.7 6.72 13.96 6.77 14.21C7.66906 13.4363 8.81389 13.0074 10 13H14C15.1861 13.0074 16.3309 13.4363 17.23 14.21C17.28 13.96 17.34 13.7 17.4 13.43C17.605 12.5689 17.7652 11.6977 17.88 10.82C18.154 10.9408 18.4505 11.0021 18.75 11H20.25C20.4481 10.9974 20.6374 10.9176 20.7775 10.7775C20.9176 10.6374 20.9974 10.4481 21 10.25C21 9.95453 20.9418 9.66195 20.8287 9.38896C20.7157 9.11598 20.5499 8.86794 20.341 8.65901C20.1321 8.45008 19.884 8.28434 19.611 8.17127C19.3381 8.0582 19.0455 8 18.75 8ZM9 11C8.80222 11 8.60888 10.9414 8.44443 10.8315C8.27998 10.7216 8.15181 10.5654 8.07612 10.3827C8.00043 10.2 7.98063 9.99889 8.01921 9.80491C8.0578 9.61093 8.15304 9.43275 8.29289 9.29289C8.43275 9.15304 8.61093 9.0578 8.80491 9.01921C8.99889 8.98063 9.19996 9.00043 9.38268 9.07612C9.56541 9.15181 9.72159 9.27998 9.83147 9.44443C9.94135 9.60888 10 9.80222 10 10C10 10.2652 9.89464 10.5196 9.70711 10.7071C9.51957 10.8946 9.26522 11 9 11ZM15 11C14.8022 11 14.6089 10.9414 14.4444 10.8315C14.28 10.7216 14.1518 10.5654 14.0761 10.3827C14.0004 10.2 13.9806 9.99889 14.0192 9.80491C14.0578 9.61093 14.153 9.43275 14.2929 9.29289C14.4327 9.15304 14.6109 9.0578 14.8049 9.01921C14.9989 8.98063 15.2 9.00043 15.3827 9.07612C15.5654 9.15181 15.7216 9.27998 15.8315 9.44443C15.9414 9.60888 16 9.80222 16 10C16 10.2652 15.8946 10.5196 15.7071 10.7071C15.5196 10.8946 15.2652 11 15 11ZM14 15H10C9.20435 15 8.44129 15.3161 7.87868 15.8787C7.31607 16.4413 7 17.2044 7 18C7 18.7956 7.31607 19.5587 7.87868 20.1213C8.44129 20.6839 9.20435 21 10 21H14C14.7956 21 15.5587 20.6839 16.1213 20.1213C16.6839 19.5587 17 18.7956 17 18C17 17.2044 16.6839 16.4413 16.1213 15.8787C15.5587 15.3161 14.7956 15 14 15Z" fill="#141414"/>
</svg>
