<svg width="24" height="24" viewBox="0 0 24 24" fill="none" xmlns="http://www.w3.org/2000/svg">
<path d="M16.7 11.88L16.29 12.29C16.1963 12.3829 16.1219 12.4935 16.0711 12.6154C16.0203 12.7372 15.9942 12.868 15.9942 13C15.9942 13.132 16.0203 13.2627 16.0711 13.3845C16.1219 13.5064 16.1963 13.617 16.29 13.71C16.383 13.8037 16.4936 13.8781 16.6154 13.9289C16.7373 13.9796 16.868 14.0058 17 14.0058C17.132 14.0058 17.2627 13.9796 17.3846 13.9289C17.5064 13.8781 17.617 13.8037 17.71 13.71L19.71 11.71C19.8037 11.617 19.8781 11.5064 19.9289 11.3845C19.9797 11.2627 20.0058 11.132 20.0058 11C20.0058 10.868 19.9797 10.7372 19.9289 10.6154C19.8781 10.4935 19.8037 10.3829 19.71 10.29L17.71 8.28996C17.6168 8.19673 17.5061 8.12277 17.3842 8.0723C17.2624 8.02184 17.1319 7.99587 17 7.99587C16.7337 7.99587 16.4783 8.10166 16.29 8.28996C16.1968 8.3832 16.1228 8.49389 16.0723 8.61572C16.0219 8.73754 15.9959 8.86811 15.9959 8.99996C15.9959 9.26627 16.1017 9.52166 16.29 9.70996L16.42 9.83996C11.79 9.24996 8.54 6.99996 5.86 2.48996C5.71439 2.28975 5.4997 2.15067 5.25746 2.09962C5.01522 2.04857 4.76265 2.08919 4.54864 2.21362C4.33462 2.33805 4.17436 2.53744 4.09888 2.77321C4.02339 3.00898 4.03805 3.26437 4.14 3.48996C7.25 8.68996 11.19 11.33 16.7 11.88ZM7 9.99996H5C4.73478 9.99996 4.48043 10.1053 4.29289 10.2929C4.10536 10.4804 4 10.7347 4 11V21C4 21.2652 4.10536 21.5195 4.29289 21.7071C4.48043 21.8946 4.73478 22 5 22H7C7.26522 22 7.51957 21.8946 7.70711 21.7071C7.89464 21.5195 8 21.2652 8 21V11C8 10.7347 7.89464 10.4804 7.70711 10.2929C7.51957 10.1053 7.26522 9.99996 7 9.99996ZM19 17H17C16.7348 17 16.4804 17.1053 16.2929 17.2929C16.1054 17.4804 16 17.7347 16 18V21C16 21.2652 16.1054 21.5195 16.2929 21.7071C16.4804 21.8946 16.7348 22 17 22H19C19.2652 22 19.5196 21.8946 19.7071 21.7071C19.8946 21.5195 20 21.2652 20 21V18C20 17.7347 19.8946 17.4804 19.7071 17.2929C19.5196 17.1053 19.2652 17 19 17ZM13 14H11C10.7348 14 10.4804 14.1053 10.2929 14.2929C10.1054 14.4804 10 14.7347 10 15V21C10 21.2652 10.1054 21.5195 10.2929 21.7071C10.4804 21.8946 10.7348 22 11 22H13C13.2652 22 13.5196 21.8946 13.7071 21.7071C13.8946 21.5195 14 21.2652 14 21V15C14 14.7347 13.8946 14.4804 13.7071 14.2929C13.5196 14.1053 13.2652 14 13 14Z" fill="#141414"/>
</svg>
