<svg width="24" height="24" viewBox="0 0 24 24" fill="none" xmlns="http://www.w3.org/2000/svg">
<path d="M13.5 14H12.5V12C12.5 11.7348 12.3946 11.4804 12.2071 11.2929C12.0196 11.1054 11.7652 11 11.5 11C11.2348 11 10.9804 11.1054 10.7929 11.2929C10.6054 11.4804 10.5 11.7348 10.5 12V15C10.5 15.2652 10.6054 15.5196 10.7929 15.7071C10.9804 15.8946 11.2348 16 11.5 16H13.5C13.7652 16 14.0196 15.8946 14.2071 15.7071C14.3946 15.5196 14.5 15.2652 14.5 15C14.5 14.7348 14.3946 14.4804 14.2071 14.2929C14.0196 14.1054 13.7652 14 13.5 14ZM18 3H17C17 2.73478 16.8946 2.48043 16.7071 2.29289C16.5196 2.10536 16.2652 2 16 2C15.7348 2 15.4804 2.10536 15.2929 2.29289C15.1054 2.48043 15 2.73478 15 3H9C9 2.73478 8.89464 2.48043 8.70711 2.29289C8.51957 2.10536 8.26522 2 8 2C7.73478 2 7.48043 2.10536 7.29289 2.29289C7.10536 2.48043 7 2.73478 7 3H6C5.20435 3 4.44129 3.31607 3.87868 3.87868C3.31607 4.44129 3 5.20435 3 6V18C3 18.7956 3.31607 19.5587 3.87868 20.1213C4.44129 20.6839 5.20435 21 6 21H18C18.7956 21 19.5587 20.6839 20.1213 20.1213C20.6839 19.5587 21 18.7956 21 18V6C21 5.20435 20.6839 4.44129 20.1213 3.87868C19.5587 3.31607 18.7956 3 18 3ZM12 19C11.0111 19 10.0444 18.7068 9.22215 18.1573C8.3999 17.6079 7.75904 16.827 7.3806 15.9134C7.00216 14.9998 6.90315 13.9945 7.09607 13.0245C7.289 12.0546 7.7652 11.1637 8.46447 10.4645C9.16373 9.7652 10.0546 9.289 11.0245 9.09607C11.9945 8.90315 12.9998 9.00216 13.9134 9.3806C14.827 9.75904 15.6079 10.3999 16.1573 11.2221C16.7068 12.0444 17 13.0111 17 14C17 15.3261 16.4732 16.5979 15.5355 17.5355C14.5979 18.4732 13.3261 19 12 19ZM19 7H5V6C5 5.73478 5.10536 5.48043 5.29289 5.29289C5.48043 5.10536 5.73478 5 6 5H7C7 5.26522 7.10536 5.51957 7.29289 5.70711C7.48043 5.89464 7.73478 6 8 6C8.26522 6 8.51957 5.89464 8.70711 5.70711C8.89464 5.51957 9 5.26522 9 5H15C15 5.26522 15.1054 5.51957 15.2929 5.70711C15.4804 5.89464 15.7348 6 16 6C16.2652 6 16.5196 5.89464 16.7071 5.70711C16.8946 5.51957 17 5.26522 17 5H18C18.2652 5 18.5196 5.10536 18.7071 5.29289C18.8946 5.48043 19 5.73478 19 6V7Z" fill="#141414"/>
</svg>
