<svg width="24" height="24" viewBox="0 0 24 24" fill="none" xmlns="http://www.w3.org/2000/svg">
<path d="M4 6V15.76L6 13.76V6H13.76L15.76 4H6V3C6 2.73478 5.89464 2.48043 5.70711 2.29289C5.51957 2.10536 5.26522 2 5 2C4.73478 2 4.48043 2.10536 4.29289 2.29289C4.10536 2.48043 4 2.73478 4 3V4H3C2.73478 4 2.48043 4.10536 2.29289 4.29289C2.10536 4.48043 2 4.73478 2 5C2 5.26522 2.10536 5.51957 2.29289 5.70711C2.48043 5.89464 2.73478 6 3 6H4ZM21 18H20V6C19.9978 5.82776 19.9743 5.65647 19.93 5.49L20.71 4.71C20.8983 4.5217 21.0041 4.2663 21.0041 4C21.0041 3.7337 20.8983 3.4783 20.71 3.29C20.5217 3.1017 20.2663 2.99591 20 2.99591C19.7337 2.99591 19.4783 3.1017 19.29 3.29L3.29 19.29C3.19627 19.383 3.12188 19.4936 3.07111 19.6154C3.02034 19.7373 2.9942 19.868 2.9942 20C2.9942 20.132 3.02034 20.2627 3.07111 20.3846C3.12188 20.5064 3.19627 20.617 3.29 20.71C3.38296 20.8037 3.49356 20.8781 3.61542 20.9289C3.73728 20.9797 3.86799 21.0058 4 21.0058C4.13201 21.0058 4.26272 20.9797 4.38458 20.9289C4.50644 20.8781 4.61704 20.8037 4.71 20.71L5.49 19.93C5.65647 19.9743 5.82776 19.9978 6 20H18V21C18 21.2652 18.1054 21.5196 18.2929 21.7071C18.4804 21.8946 18.7348 22 19 22C19.2652 22 19.5196 21.8946 19.7071 21.7071C19.8946 21.5196 20 21.2652 20 21V20H21C21.2652 20 21.5196 19.8946 21.7071 19.7071C21.8946 19.5196 22 19.2652 22 19C22 18.7348 21.8946 18.4804 21.7071 18.2929C21.5196 18.1054 21.2652 18 21 18ZM18 18H7.41L18 7.41V18Z" fill="#141414"/>
</svg>
