<svg width="24" height="24" viewBox="0 0 24 24" fill="none" xmlns="http://www.w3.org/2000/svg">
<path d="M15 3C12.79 3 11 4.79 11 7V8C9.9 8 9 7.1 9 6V4C9 3.45 8.55 3 8 3C7.45 3 7 3.45 7 4V6C7 8.21 8.79 10 11 10V16C11 16.55 10.55 17 10 17C9.45 17 9 16.55 9 16C9 14.35 7.65 13 6 13C4.35 13 3 14.35 3 16V20C3 20.55 3.45 21 4 21C4.55 21 5 20.55 5 20V16C5 15.45 5.45 15 6 15C6.55 15 7 15.45 7 16V17C7 18.65 8.35 20 10 20H13C17.42 20 21 16.42 21 12V9C21 5.69 18.31 3 15 3ZM13 12C13 11.45 13.45 11 14 11C14.55 11 15 11.45 15 12C15 12.55 14.55 13 14 13C13.45 13 13 12.55 13 12ZM15 17C14.45 17 14 16.55 14 16C14 15.45 14.45 15 15 15C15.55 15 16 15.45 16 16C16 16.55 15.55 17 15 17ZM18 14C17.45 14 17 13.55 17 13C17 12.45 17.45 12 18 12C18.55 12 19 12.45 19 13C19 13.55 18.55 14 18 14Z" fill="#141414"/>
</svg>
