<svg width="24" height="24" viewBox="0 0 24 24" fill="none" xmlns="http://www.w3.org/2000/svg">
<path d="M18 3H17C17 2.73478 16.8946 2.48043 16.7071 2.29289C16.5196 2.10536 16.2652 2 16 2C15.7348 2 15.4804 2.10536 15.2929 2.29289C15.1054 2.48043 15 2.73478 15 3H9C9 2.73478 8.89464 2.48043 8.70711 2.29289C8.51957 2.10536 8.26522 2 8 2C7.73478 2 7.48043 2.10536 7.29289 2.29289C7.10536 2.48043 7 2.73478 7 3H6C5.20435 3 4.44129 3.31607 3.87868 3.87868C3.31607 4.44129 3 5.20435 3 6V18C3 18.7956 3.31607 19.5587 3.87868 20.1213C4.44129 20.6839 5.20435 21 6 21H18C18.7956 21 19.5587 20.6839 20.1213 20.1213C20.6839 19.5587 21 18.7956 21 18V6C21 5.20435 20.6839 4.44129 20.1213 3.87868C19.5587 3.31607 18.7956 3 18 3ZM16.21 11.71L11.21 16.71C11.117 16.8037 11.0064 16.8781 10.8846 16.9289C10.7627 16.9797 10.632 17.0058 10.5 17.0058C10.368 17.0058 10.2373 16.9797 10.1154 16.9289C9.99356 16.8781 9.88296 16.8037 9.79 16.71L7.79 14.71C7.69676 14.6168 7.6228 14.5061 7.57234 14.3842C7.52188 14.2624 7.49591 14.1319 7.49591 14C7.49591 13.8681 7.52188 13.7376 7.57234 13.6158C7.6228 13.4939 7.69676 13.3832 7.79 13.29C7.88324 13.1968 7.99393 13.1228 8.11575 13.0723C8.23757 13.0219 8.36814 12.9959 8.5 12.9959C8.63186 12.9959 8.76243 13.0219 8.88425 13.0723C9.00607 13.1228 9.11676 13.1968 9.21 13.29L10.5 14.59L14.79 10.29C14.9783 10.1017 15.2337 9.99591 15.5 9.99591C15.7663 9.99591 16.0217 10.1017 16.21 10.29C16.3983 10.4783 16.5041 10.7337 16.5041 11C16.5041 11.2663 16.3983 11.5217 16.21 11.71ZM19 7H5V6C5 5.73478 5.10536 5.48043 5.29289 5.29289C5.48043 5.10536 5.73478 5 6 5H7C7 5.26522 7.10536 5.51957 7.29289 5.70711C7.48043 5.89464 7.73478 6 8 6C8.26522 6 8.51957 5.89464 8.70711 5.70711C8.89464 5.51957 9 5.26522 9 5H15C15 5.26522 15.1054 5.51957 15.2929 5.70711C15.4804 5.89464 15.7348 6 16 6C16.2652 6 16.5196 5.89464 16.7071 5.70711C16.8946 5.51957 17 5.26522 17 5H18C18.2652 5 18.5196 5.10536 18.7071 5.29289C18.8946 5.48043 19 5.73478 19 6V7Z" fill="#141414"/>
</svg>
