<svg width="24" height="24" viewBox="0 0 24 24" fill="none" xmlns="http://www.w3.org/2000/svg">
<path d="M18 3H6C5.20435 3 4.44129 3.31607 3.87868 3.87868C3.31607 4.44129 3 5.20435 3 6V18C3 18.7956 3.31607 19.5587 3.87868 20.1213C4.44129 20.6839 5.20435 21 6 21H18C18.7956 21 19.5587 20.6839 20.1213 20.1213C20.6839 19.5587 21 18.7956 21 18V6C21 5.20435 20.6839 4.44129 20.1213 3.87868C19.5587 3.31607 18.7956 3 18 3ZM16 7C16.1978 7 16.3911 7.05865 16.5556 7.16853C16.72 7.27841 16.8482 7.43459 16.9239 7.61732C16.9996 7.80004 17.0194 8.00111 16.9808 8.19509C16.9422 8.38907 16.847 8.56725 16.7071 8.70711C16.5673 8.84696 16.3891 8.9422 16.1951 8.98079C16.0011 9.01937 15.8 8.99957 15.6173 8.92388C15.4346 8.84819 15.2784 8.72002 15.1685 8.55557C15.0586 8.39112 15 8.19778 15 8C15 7.73478 15.1054 7.48043 15.2929 7.29289C15.4804 7.10536 15.7348 7 16 7ZM12 5C12.1978 5 12.3911 5.05865 12.5556 5.16853C12.72 5.27841 12.8482 5.43459 12.9239 5.61732C12.9996 5.80004 13.0194 6.00111 12.9808 6.19509C12.9422 6.38907 12.847 6.56725 12.7071 6.70711C12.5673 6.84696 12.3891 6.9422 12.1951 6.98079C12.0011 7.01937 11.8 6.99957 11.6173 6.92388C11.4346 6.84819 11.2784 6.72002 11.1685 6.55557C11.0586 6.39112 11 6.19778 11 6C11 5.73478 11.1054 5.48043 11.2929 5.29289C11.4804 5.10536 11.7348 5 12 5ZM8 7C8.19778 7 8.39112 7.05865 8.55557 7.16853C8.72002 7.27841 8.84819 7.43459 8.92388 7.61732C8.99957 7.80004 9.01937 8.00111 8.98079 8.19509C8.9422 8.38907 8.84696 8.56725 8.70711 8.70711C8.56725 8.84696 8.38907 8.9422 8.19509 8.98079C8.00111 9.01937 7.80004 8.99957 7.61732 8.92388C7.43459 8.84819 7.27841 8.72002 7.16853 8.55557C7.05865 8.39112 7 8.19778 7 8C7 7.73478 7.10536 7.48043 7.29289 7.29289C7.48043 7.10536 7.73478 7 8 7ZM6 13C5.80222 13 5.60888 12.9414 5.44443 12.8315C5.27998 12.7216 5.15181 12.5654 5.07612 12.3827C5.00043 12.2 4.98063 11.9989 5.01921 11.8049C5.0578 11.6109 5.15304 11.4327 5.29289 11.2929C5.43275 11.153 5.61093 11.0578 5.80491 11.0192C5.99889 10.9806 6.19996 11.0004 6.38268 11.0761C6.56541 11.1518 6.72159 11.28 6.83147 11.4444C6.94135 11.6089 7 11.8022 7 12C7 12.2652 6.89464 12.5196 6.70711 12.7071C6.51957 12.8946 6.26522 13 6 13ZM8 17C7.80222 17 7.60888 16.9414 7.44443 16.8315C7.27998 16.7216 7.15181 16.5654 7.07612 16.3827C7.00043 16.2 6.98063 15.9989 7.01921 15.8049C7.0578 15.6109 7.15304 15.4327 7.29289 15.2929C7.43275 15.153 7.61093 15.0578 7.80491 15.0192C7.99889 14.9806 8.19996 15.0004 8.38268 15.0761C8.56541 15.1518 8.72159 15.28 8.83147 15.4444C8.94135 15.6089 9 15.8022 9 16C9 16.2652 8.89464 16.5196 8.70711 16.7071C8.51957 16.8946 8.26522 17 8 17ZM12 19C11.8022 19 11.6089 18.9414 11.4444 18.8315C11.28 18.7216 11.1518 18.5654 11.0761 18.3827C11.0004 18.2 10.9806 17.9989 11.0192 17.8049C11.0578 17.6109 11.153 17.4327 11.2929 17.2929C11.4327 17.153 11.6109 17.0578 11.8049 17.0192C11.9989 16.9806 12.2 17.0004 12.3827 17.0761C12.5654 17.1518 12.7216 17.28 12.8315 17.4444C12.9414 17.6089 13 17.8022 13 18C13 18.2652 12.8946 18.5196 12.7071 18.7071C12.5196 18.8946 12.2652 19 12 19ZM12 15C11.4067 15 10.8266 14.8241 10.3333 14.4944C9.83994 14.1648 9.45542 13.6962 9.22836 13.1481C9.0013 12.5999 8.94189 11.9967 9.05764 11.4147C9.1734 10.8328 9.45912 10.2982 9.87868 9.87868C10.2982 9.45912 10.8328 9.1734 11.4147 9.05764C11.9967 8.94189 12.5999 9.0013 13.1481 9.22836C13.6962 9.45542 14.1648 9.83994 14.4944 10.3333C14.8241 10.8266 15 11.4067 15 12C15 12.7956 14.6839 13.5587 14.1213 14.1213C13.5587 14.6839 12.7956 15 12 15ZM16 17C15.8022 17 15.6089 16.9414 15.4444 16.8315C15.28 16.7216 15.1518 16.5654 15.0761 16.3827C15.0004 16.2 14.9806 15.9989 15.0192 15.8049C15.0578 15.6109 15.153 15.4327 15.2929 15.2929C15.4327 15.153 15.6109 15.0578 15.8049 15.0192C15.9989 14.9806 16.2 15.0004 16.3827 15.0761C16.5654 15.1518 16.7216 15.28 16.8315 15.4444C16.9414 15.6089 17 15.8022 17 16C17 16.2652 16.8946 16.5196 16.7071 16.7071C16.5196 16.8946 16.2652 17 16 17ZM18 13C17.8022 13 17.6089 12.9414 17.4444 12.8315C17.28 12.7216 17.1518 12.5654 17.0761 12.3827C17.0004 12.2 16.9806 11.9989 17.0192 11.8049C17.0578 11.6109 17.153 11.4327 17.2929 11.2929C17.4327 11.153 17.6109 11.0578 17.8049 11.0192C17.9989 10.9806 18.2 11.0004 18.3827 11.0761C18.5654 11.1518 18.7216 11.28 18.8315 11.4444C18.9414 11.6089 19 11.8022 19 12C19 12.2652 18.8946 12.5196 18.7071 12.7071C18.5196 12.8946 18.2652 13 18 13ZM12 11C11.8022 11 11.6089 11.0586 11.4444 11.1685C11.28 11.2784 11.1518 11.4346 11.0761 11.6173C11.0004 11.8 10.9806 12.0011 11.0192 12.1951C11.0578 12.3891 11.153 12.5673 11.2929 12.7071C11.4327 12.847 11.6109 12.9422 11.8049 12.9808C11.9989 13.0194 12.2 12.9996 12.3827 12.9239C12.5654 12.8482 12.7216 12.72 12.8315 12.5556C12.9414 12.3911 13 12.1978 13 12C13 11.7348 12.8946 11.4804 12.7071 11.2929C12.5196 11.1054 12.2652 11 12 11Z" fill="#141414"/>
</svg>
