<svg width="24" height="24" viewBox="0 0 24 24" fill="none" xmlns="http://www.w3.org/2000/svg">
<path d="M19 7.00003H18.1C17.9318 6.99868 17.7666 6.9549 17.6197 6.87274C17.4729 6.79059 17.3492 6.67271 17.26 6.53003L16.26 4.93003C16.0787 4.64366 15.8275 4.40807 15.5302 4.24539C15.2328 4.08272 14.899 3.99828 14.56 4.00003H9.44C9.10274 3.99998 8.77094 4.08521 8.47547 4.24781C8.17999 4.41041 7.93043 4.64509 7.75 4.93003L6.75 6.53003C6.65993 6.67414 6.53462 6.79292 6.38589 6.87516C6.23717 6.95739 6.06994 7.00037 5.9 7.00003H5C4.20435 7.00003 3.44129 7.3161 2.87868 7.87871C2.31607 8.44132 2 9.20438 2 10V17C2 17.7957 2.31607 18.5587 2.87868 19.1213C3.44129 19.684 4.20435 20 5 20H19C19.7956 20 20.5587 19.684 21.1213 19.1213C21.6839 18.5587 22 17.7957 22 17V10C22 9.20438 21.6839 8.44132 21.1213 7.87871C20.5587 7.3161 19.7956 7.00003 19 7.00003ZM17 16C17 16.2652 16.8946 16.5196 16.7071 16.7071C16.5196 16.8947 16.2652 17 16 17C15.7348 17 15.4804 16.8947 15.2929 16.7071C15.1054 16.5196 15 16.2652 15 16V12.24L12.89 16.45C12.8061 16.6138 12.6786 16.7513 12.5216 16.8473C12.3645 16.9433 12.184 16.9941 12 16.9941C11.816 16.9941 11.6355 16.9433 11.4784 16.8473C11.3214 16.7513 11.1939 16.6138 11.11 16.45L9 12.24V16C9 16.2652 8.89464 16.5196 8.70711 16.7071C8.51957 16.8947 8.26522 17 8 17C7.73478 17 7.48043 16.8947 7.29289 16.7071C7.10536 16.5196 7 16.2652 7 16V10C7 9.73481 7.10536 9.48046 7.29289 9.29292C7.48043 9.10538 7.73478 9.00003 8 9.00003H9C9.18467 9.00059 9.36557 9.05227 9.52267 9.14935C9.67976 9.24643 9.8069 9.38511 9.89 9.55003L12 13.76L14.11 9.55003C14.1931 9.38511 14.3202 9.24643 14.4773 9.14935C14.6344 9.05227 14.8153 9.00059 15 9.00003H16C16.2652 9.00003 16.5196 9.10538 16.7071 9.29292C16.8946 9.48046 17 9.73481 17 10V16Z" fill="#141414"/>
</svg>
