<svg width="24" height="24" viewBox="0 0 24 24" fill="none" xmlns="http://www.w3.org/2000/svg">
<path d="M15.9999 12.0002C15.8022 12.0002 15.6088 12.0588 15.4444 12.1687C15.2799 12.2786 15.1518 12.4348 15.0761 12.6175C15.0004 12.8002 14.9806 13.0013 15.0192 13.1953C15.0577 13.3893 15.153 13.5674 15.2928 13.7073C15.4327 13.8471 15.6109 13.9424 15.8049 13.981C15.9988 14.0196 16.1999 13.9998 16.3826 13.9241C16.5654 13.8484 16.7215 13.7202 16.8314 13.5558C16.9413 13.3913 16.9999 13.198 16.9999 13.0002C16.9999 12.735 16.8946 12.4806 16.7071 12.2931C16.5195 12.1055 16.2652 12.0002 15.9999 12.0002ZM15.6199 15.8602C15.4342 15.6742 15.2136 15.5267 14.9708 15.4261C14.728 15.3254 14.4678 15.2736 14.2049 15.2736C13.9421 15.2736 13.6819 15.3254 13.4391 15.4261C13.1963 15.5267 12.9757 15.6742 12.7899 15.8602L12.0899 16.5702C11.997 16.6639 11.8864 16.7383 11.7645 16.7891C11.6427 16.8398 11.512 16.866 11.3799 16.866C11.2479 16.866 11.1172 16.8398 10.9954 16.7891C10.8735 16.7383 10.7629 16.6639 10.6699 16.5702L6.42994 12.3302C6.33622 12.2372 6.26182 12.1266 6.21105 12.0048C6.16028 11.8829 6.13415 11.7522 6.13415 11.6202C6.13415 11.4882 6.16028 11.3575 6.21105 11.2356C6.26182 11.1138 6.33622 11.0031 6.42994 10.9102L7.13994 10.2102C7.3259 10.0244 7.47341 9.80386 7.57406 9.56107C7.67471 9.31827 7.72652 9.05802 7.72652 8.79519C7.72652 8.53236 7.67471 8.2721 7.57406 8.02931C7.47341 7.78651 7.3259 7.56593 7.13994 7.38019L6.42994 6.67019C6.2442 6.48423 6.02362 6.33672 5.78082 6.23607C5.53803 6.13542 5.27777 6.08361 5.01494 6.08361C4.75211 6.08361 4.49186 6.13542 4.24906 6.23607C4.00627 6.33672 3.78569 6.48423 3.59994 6.67019L2.59994 7.67019C2.2963 7.9766 2.09986 8.37298 2.03994 8.80019C1.87994 10.2002 1.99994 13.5402 5.71994 17.2802C9.43994 21.0202 12.7999 21.1202 14.2099 21.0002C14.6371 20.9403 15.0335 20.7438 15.3399 20.4402L16.3399 19.4402C16.5259 19.2544 16.6734 19.0339 16.7741 18.7911C16.8747 18.5483 16.9265 18.288 16.9265 18.0252C16.9265 17.7624 16.8747 17.5021 16.7741 17.2593C16.6734 17.0165 16.5259 16.7959 16.3399 16.6102L15.6199 15.8602ZM21.5599 5.69019C19.909 4.60907 17.9784 4.0332 16.0049 4.0332C14.0315 4.0332 12.1009 4.60907 10.4499 5.69019C10.2726 5.80935 10.1381 5.98217 10.0661 6.18334C9.99414 6.3845 9.98849 6.60343 10.05 6.80804C10.1115 7.01266 10.2369 7.1922 10.4078 7.32035C10.5788 7.4485 10.7863 7.51854 10.9999 7.52019C11.1965 7.52243 11.3889 7.46298 11.5499 7.35019C12.8708 6.48463 14.4157 6.02355 15.9949 6.02355C17.5742 6.02355 19.119 6.48463 20.4399 7.35019C20.6592 7.49588 20.9271 7.54925 21.1854 7.4987C21.4438 7.44816 21.6718 7.29777 21.8199 7.08019C21.9698 6.86138 22.0265 6.59201 21.9778 6.33134C21.929 6.07068 21.7787 5.84005 21.5599 5.69019ZM18.9999 8.86019C18.0865 8.30061 17.0362 8.00446 15.9649 8.00446C14.8937 8.00446 13.8434 8.30061 12.9299 8.86019C12.7297 9.00579 12.5906 9.22049 12.5396 9.46273C12.4886 9.70497 12.5292 9.95753 12.6536 10.1715C12.778 10.3856 12.9774 10.5458 13.2132 10.6213C13.449 10.6968 13.7044 10.6821 13.9299 10.5802C14.5308 10.2083 15.2234 10.0113 15.9299 10.0113C16.6365 10.0113 17.3291 10.2083 17.9299 10.5802C18.0843 10.6718 18.2605 10.7201 18.4399 10.7202C18.6135 10.7202 18.784 10.675 18.9348 10.5891C19.0856 10.5031 19.2114 10.3795 19.2999 10.2302C19.4396 10.0081 19.4865 9.74006 19.4304 9.48378C19.3742 9.2275 19.2197 9.00354 18.9999 8.86019Z" fill="#141414"/>
</svg>
