<svg width="24" height="24" viewBox="0 0 24 24" fill="none" xmlns="http://www.w3.org/2000/svg">
<path d="M20 20H19C18.7348 20 18.4804 19.8946 18.2929 19.7071C18.1054 19.5196 18 19.2652 18 19V18C18 17.2044 17.6839 16.4413 17.1213 15.8787C16.5587 15.3161 15.7956 15 15 15C14.2044 15 13.4413 15.3161 12.8787 15.8787C12.3161 16.4413 12 17.2044 12 18V19C12 19.2652 11.8946 19.5196 11.7071 19.7071C11.5196 19.8946 11.2652 20 11 20H9C8.73478 20 8.48043 19.8946 8.29289 19.7071C8.10536 19.5196 8 19.2652 8 19V18.86C8.85647 18.6389 9.61549 18.1401 10.1583 17.4416C10.7011 16.7432 10.9971 15.8846 11 15H3C3.00287 15.8846 3.29887 16.7432 3.84169 17.4416C4.38451 18.1401 5.14352 18.6389 6 18.86V19C6 19.7956 6.31607 20.5587 6.87868 21.1213C7.44129 21.6839 8.20435 22 9 22H11C11.7956 22 12.5587 21.6839 13.1213 21.1213C13.6839 20.5587 14 19.7956 14 19V18C14 17.7348 14.1054 17.4804 14.2929 17.2929C14.4804 17.1054 14.7348 17 15 17C15.2652 17 15.5196 17.1054 15.7071 17.2929C15.8946 17.4804 16 17.7348 16 18V19C16 19.7956 16.3161 20.5587 16.8787 21.1213C17.4413 21.6839 18.2044 22 19 22H20C20.2652 22 20.5196 21.8946 20.7071 21.7071C20.8946 21.5196 21 21.2652 21 21C21 20.7348 20.8946 20.4804 20.7071 20.2929C20.5196 20.1054 20.2652 20 20 20ZM11 10C10.9979 9.65097 10.9045 9.30857 10.7291 9.00683C10.5536 8.70509 10.3023 8.45451 10 8.28V7.5C9.99769 7.19087 9.90056 6.8899 9.72172 6.63775C9.54289 6.38559 9.29097 6.1944 9 6.09V5C9 4.73478 8.89464 4.48043 8.70711 4.29289C8.51957 4.10536 8.26522 4 8 4V3C8 2.73478 7.89464 2.48043 7.70711 2.29289C7.51957 2.10536 7.26522 2 7 2C6.73478 2 6.48043 2.10536 6.29289 2.29289C6.10536 2.48043 6 2.73478 6 3V4C5.73478 4 5.48043 4.10536 5.29289 4.29289C5.10536 4.48043 5 4.73478 5 5V6.09C4.70903 6.1944 4.45711 6.38559 4.27828 6.63775C4.09944 6.8899 4.00231 7.19087 4 7.5V8.28C3.69772 8.45451 3.44638 8.70509 3.27095 9.00683C3.09552 9.30857 3.00211 9.65097 3 10V13H11V10Z" fill="#141414"/>
</svg>
