<svg width="24" height="24" viewBox="0 0 24 24" fill="none" xmlns="http://www.w3.org/2000/svg">
<path d="M14.76 5.00015H4C3.46957 5.00015 2.96086 5.21086 2.58579 5.58593C2.21071 5.96101 2 6.46971 2 7.00015V9.00015H10.76L14.76 5.00015ZM22 9.00015V7.00015C22.0086 6.52943 21.8508 6.07078 21.5545 5.70494C21.2581 5.3391 20.8422 5.08952 20.38 5.00015L20.71 4.67015C20.8032 4.57691 20.8772 4.46622 20.9277 4.3444C20.9781 4.22257 21.0041 4.09201 21.0041 3.96015C21.0041 3.82829 20.9781 3.69772 20.9277 3.5759C20.8772 3.45408 20.8032 3.34338 20.71 3.25015C20.6168 3.15691 20.5061 3.08295 20.3842 3.03249C20.2624 2.98203 20.1319 2.95605 20 2.95605C19.8681 2.95605 19.7376 2.98203 19.6158 3.03249C19.4939 3.08295 19.3832 3.15691 19.29 3.25015L3.29 19.2501C3.19627 19.3431 3.12188 19.4537 3.07111 19.5756C3.02034 19.6974 2.9942 19.8281 2.9942 19.9601C2.9942 20.0922 3.02034 20.2229 3.07111 20.3447C3.12188 20.4666 3.19627 20.5772 3.29 20.6701C3.38296 20.7639 3.49356 20.8383 3.61542 20.889C3.73728 20.9398 3.86799 20.9659 4 20.9659C4.13201 20.9659 4.26272 20.9398 4.38458 20.889C4.50644 20.8383 4.61704 20.7639 4.71 20.6701L6.41 19.0001H20C20.5304 19.0001 21.0391 18.7894 21.4142 18.4144C21.7893 18.0393 22 17.5306 22 17.0001V11.0001H14.41L16.41 9.00015H22ZM19 13.0001C19.1978 13.0001 19.3911 13.0588 19.5556 13.1687C19.72 13.2786 19.8482 13.4347 19.9239 13.6175C19.9996 13.8002 20.0194 14.0013 19.9808 14.1952C19.9422 14.3892 19.847 14.5674 19.7071 14.7073C19.5673 14.8471 19.3891 14.9423 19.1951 14.9809C19.0011 15.0195 18.8 14.9997 18.6173 14.924C18.4346 14.8483 18.2784 14.7202 18.1685 14.5557C18.0586 14.3913 18 14.1979 18 14.0001C18 13.7349 18.1054 13.4806 18.2929 13.293C18.4804 13.1055 18.7348 13.0001 19 13.0001ZM16 13.0001C16.1978 13.0001 16.3911 13.0588 16.5556 13.1687C16.72 13.2786 16.8482 13.4347 16.9239 13.6175C16.9996 13.8002 17.0194 14.0013 16.9808 14.1952C16.9422 14.3892 16.847 14.5674 16.7071 14.7073C16.5673 14.8471 16.3891 14.9423 16.1951 14.9809C16.0011 15.0195 15.8 14.9997 15.6173 14.924C15.4346 14.8483 15.2784 14.7202 15.1685 14.5557C15.0586 14.3913 15 14.1979 15 14.0001C15 13.7349 15.1054 13.4806 15.2929 13.293C15.4804 13.1055 15.7348 13.0001 16 13.0001ZM13 15.0001C12.8022 15.0001 12.6089 14.9415 12.4444 14.8316C12.28 14.7217 12.1518 14.5656 12.0761 14.3828C12.0004 14.2001 11.9806 13.999 12.0192 13.8051C12.0578 13.6111 12.153 13.4329 12.2929 13.293C12.4327 13.1532 12.6109 13.0579 12.8049 13.0194C12.9989 12.9808 13.2 13.0006 13.3827 13.0763C13.5654 13.152 13.7216 13.2801 13.8315 13.4446C13.9414 13.609 14 13.8024 14 14.0001C14 14.2654 13.8946 14.5197 13.7071 14.7073C13.5196 14.8948 13.2652 15.0001 13 15.0001ZM2 11.0001V17.0001C2.00481 17.2177 2.04188 17.4334 2.11 17.6401L8.76 11.0001H2Z" fill="#141414"/>
</svg>
