<svg width="24" height="24" viewBox="0 0 24 24" fill="none" xmlns="http://www.w3.org/2000/svg">
<path d="M18 3H17C17 2.73478 16.8946 2.48043 16.7071 2.29289C16.5196 2.10536 16.2652 2 16 2C15.7348 2 15.4804 2.10536 15.2929 2.29289C15.1054 2.48043 15 2.73478 15 3H9C9 2.73478 8.89464 2.48043 8.70711 2.29289C8.51957 2.10536 8.26522 2 8 2C7.73478 2 7.48043 2.10536 7.29289 2.29289C7.10536 2.48043 7 2.73478 7 3H6C5.20435 3 4.44129 3.31607 3.87868 3.87868C3.31607 4.44129 3 5.20435 3 6V18C3 18.7956 3.31607 19.5587 3.87868 20.1213C4.44129 20.6839 5.20435 21 6 21H18C18.7956 21 19.5587 20.6839 20.1213 20.1213C20.6839 19.5587 21 18.7956 21 18V6C21 5.20435 20.6839 4.44129 20.1213 3.87868C19.5587 3.31607 18.7956 3 18 3ZM13.5 17C13.5 17.2652 13.3946 17.5196 13.2071 17.7071C13.0196 17.8946 12.7652 18 12.5 18C12.2348 18 11.9804 17.8946 11.7929 17.7071C11.6054 17.5196 11.5 17.2652 11.5 17V13.41L11.21 13.71C11.0217 13.8983 10.7663 14.0041 10.5 14.0041C10.2337 14.0041 9.9783 13.8983 9.79 13.71C9.6017 13.5217 9.49591 13.2663 9.49591 13C9.49591 12.7337 9.6017 12.4783 9.79 12.29L11.79 10.29C11.9306 10.1512 12.1092 10.0572 12.3032 10.0199C12.4972 9.9825 12.6979 10.0034 12.88 10.08C13.0626 10.155 13.2189 10.2824 13.3293 10.4461C13.4396 10.6099 13.499 10.8026 13.5 11V17ZM19 7H5V6C5 5.73478 5.10536 5.48043 5.29289 5.29289C5.48043 5.10536 5.73478 5 6 5H7C7 5.26522 7.10536 5.51957 7.29289 5.70711C7.48043 5.89464 7.73478 6 8 6C8.26522 6 8.51957 5.89464 8.70711 5.70711C8.89464 5.51957 9 5.26522 9 5H15C15 5.26522 15.1054 5.51957 15.2929 5.70711C15.4804 5.89464 15.7348 6 16 6C16.2652 6 16.5196 5.89464 16.7071 5.70711C16.8946 5.51957 17 5.26522 17 5H18C18.2652 5 18.5196 5.10536 18.7071 5.29289C18.8946 5.48043 19 5.73478 19 6V7Z" fill="#141414"/>
</svg>
