<svg width="24" height="24" viewBox="0 0 24 24" fill="none" xmlns="http://www.w3.org/2000/svg">
<path d="M3.28994 16.29C3.19621 16.383 3.12182 16.4936 3.07105 16.6155C3.02028 16.7373 2.99414 16.868 2.99414 17C2.99414 17.1321 3.02028 17.2628 3.07105 17.3846C3.12182 17.5065 3.19621 17.6171 3.28994 17.71L5.28994 19.71C5.38338 19.8027 5.4942 19.876 5.61603 19.9258C5.73787 19.9756 5.86833 20.0008 5.99994 20H6.15994C6.3156 19.974 6.46289 19.9115 6.58976 19.8177C6.71664 19.7238 6.8195 19.6013 6.88994 19.46L7.61994 18H8.99994C9.18461 17.9995 9.36551 17.9478 9.5226 17.8507C9.6797 17.7536 9.80684 17.615 9.88994 17.45L10.6199 16H11.9999C12.1846 15.9995 12.3655 15.9478 12.5226 15.8507C12.6797 15.7536 12.8068 15.615 12.8899 15.45L13.6199 14H14.9999C15.1974 13.9991 15.3901 13.9397 15.5538 13.8293C15.7175 13.719 15.8449 13.5627 15.9199 13.38C15.9426 13.3253 15.9593 13.2683 15.9699 13.21L11.1699 8.41004L3.28994 16.29ZM20.9999 6.59004L18.4099 4.00004C18.0352 3.62754 17.5283 3.41846 16.9999 3.41846C16.4716 3.41846 15.9647 3.62754 15.5899 4.00004L14.2899 5.29004L13.9999 5.59004L12.5899 7.00004L13.9999 8.41004L14.7899 9.21004L16.5899 11C16.9647 11.3725 17.4716 11.5816 17.9999 11.5816C18.5283 11.5816 19.0352 11.3725 19.4099 11L20.9999 9.41004C21.3724 9.03532 21.5815 8.52841 21.5815 8.00004C21.5815 7.47167 21.3724 6.96477 20.9999 6.59004ZM18.7099 8.71004C18.617 8.80377 18.5064 8.87816 18.3845 8.92893C18.2627 8.9797 18.132 9.00584 17.9999 9.00584C17.8679 9.00584 17.7372 8.9797 17.6154 8.92893C17.4935 8.87816 17.3829 8.80377 17.2899 8.71004L16.2899 7.71004C16.1016 7.52174 15.9958 7.26634 15.9958 7.00004C15.9958 6.73374 16.1016 6.47835 16.2899 6.29004C16.4782 6.10174 16.7336 5.99595 16.9999 5.99595C17.2662 5.99595 17.5216 6.10174 17.7099 6.29004L18.7099 7.29004C18.8037 7.38301 18.8781 7.49361 18.9288 7.61547C18.9796 7.73732 19.0057 7.86803 19.0057 8.00004C19.0057 8.13205 18.9796 8.26276 18.9288 8.38462C18.8781 8.50648 18.8037 8.61708 18.7099 8.71004Z" fill="#141414"/>
</svg>
