<svg width="24" height="24" viewBox="0 0 24 24" fill="none" xmlns="http://www.w3.org/2000/svg">
<path d="M19 14H5C4.20435 14 3.44129 14.3161 2.87868 14.8787C2.31607 15.4413 2 16.2044 2 17C2 17.7957 2.31607 18.5587 2.87868 19.1213C3.44129 19.6839 4.20435 20 5 20H19C19.7956 20 20.5587 19.6839 21.1213 19.1213C21.6839 18.5587 22 17.7957 22 17C22 16.2044 21.6839 15.4413 21.1213 14.8787C20.5587 14.3161 19.7956 14 19 14ZM11 18H5C4.73478 18 4.48043 17.8946 4.29289 17.7071C4.10536 17.5196 4 17.2652 4 17C4 16.7348 4.10536 16.4804 4.29289 16.2929C4.48043 16.1054 4.73478 16 5 16H11C11.2652 16 11.5196 16.1054 11.7071 16.2929C11.8946 16.4804 12 16.7348 12 17C12 17.2652 11.8946 17.5196 11.7071 17.7071C11.5196 17.8946 11.2652 18 11 18ZM15 18C14.8022 18 14.6089 17.9414 14.4444 17.8315C14.28 17.7216 14.1518 17.5654 14.0761 17.3827C14.0004 17.2 13.9806 16.9989 14.0192 16.8049C14.0578 16.6109 14.153 16.4327 14.2929 16.2929C14.4327 16.153 14.6109 16.0578 14.8049 16.0192C14.9989 15.9806 15.2 16.0004 15.3827 16.0761C15.5654 16.1518 15.7216 16.28 15.8315 16.4444C15.9414 16.6089 16 16.8022 16 17C16 17.2652 15.8946 17.5196 15.7071 17.7071C15.5196 17.8946 15.2652 18 15 18ZM19 18C18.8022 18 18.6089 17.9414 18.4444 17.8315C18.28 17.7216 18.1518 17.5654 18.0761 17.3827C18.0004 17.2 17.9806 16.9989 18.0192 16.8049C18.0578 16.6109 18.153 16.4327 18.2929 16.2929C18.4327 16.153 18.6109 16.0578 18.8049 16.0192C18.9989 15.9806 19.2 16.0004 19.3827 16.0761C19.5654 16.1518 19.7216 16.28 19.8315 16.4444C19.9414 16.6089 20 16.8022 20 17C20 17.2652 19.8946 17.5196 19.7071 17.7071C19.5196 17.8946 19.2652 18 19 18ZM8 12C8.79113 12 9.56448 11.7654 10.2223 11.3259C10.8801 10.8864 11.3928 10.2616 11.6955 9.53074C11.9983 8.79983 12.0775 7.99556 11.9231 7.21964C11.7688 6.44372 11.3878 5.73098 10.8284 5.17157C10.269 4.61216 9.55629 4.2312 8.78036 4.07686C8.00444 3.92252 7.20017 4.00173 6.46927 4.30448C5.73836 4.60723 5.11365 5.11992 4.67412 5.77772C4.2346 6.43552 4 7.20888 4 8C4 9.06087 4.42143 10.0783 5.17157 10.8284C5.92172 11.5786 6.93913 12 8 12ZM8 7C8.19778 7 8.39112 7.05865 8.55557 7.16853C8.72002 7.27841 8.84819 7.43459 8.92388 7.61732C8.99957 7.80004 9.01937 8.00111 8.98079 8.19509C8.9422 8.38907 8.84696 8.56726 8.70711 8.70711C8.56725 8.84696 8.38907 8.9422 8.19509 8.98079C8.00111 9.01937 7.80004 8.99957 7.61732 8.92388C7.43459 8.84819 7.27841 8.72002 7.16853 8.55557C7.05865 8.39112 7 8.19778 7 8C7 7.73479 7.10536 7.48043 7.29289 7.2929C7.48043 7.10536 7.73478 7 8 7Z" fill="#141414"/>
</svg>
