<svg width="24" height="24" viewBox="0 0 24 24" fill="none" xmlns="http://www.w3.org/2000/svg">
<path d="M12 2.00003C10.3899 1.99633 8.80354 2.38777 7.38 3.14003L13.24 9.00003H13.59L13.29 8.71003C13.1017 8.52172 12.9959 8.26633 12.9959 8.00003C12.9959 7.86817 13.0219 7.7376 13.0723 7.61578C13.1228 7.49395 13.1968 7.38326 13.29 7.29003C13.3832 7.19679 13.4939 7.12283 13.6158 7.07237C13.7376 7.02191 13.8681 6.99593 14 6.99593C14.2663 6.99593 14.5217 7.10172 14.71 7.29003L16.71 9.29003C16.8037 9.38299 16.8781 9.49359 16.9289 9.61545C16.9797 9.73731 17.0058 9.86801 17.0058 10C17.0058 10.132 16.9797 10.2627 16.9289 10.3846C16.8781 10.5065 16.8037 10.6171 16.71 10.71L15.83 11.59L20.83 16.59C21.5879 15.1781 21.9896 13.6025 22 12C22 10.6868 21.7413 9.38645 21.2388 8.17319C20.7363 6.95994 19.9997 5.85754 19.0711 4.92896C18.1425 4.00037 17.0401 3.26378 15.8268 2.76123C14.6136 2.25868 13.3132 2.00003 12 2.00003ZM5 3.51003C4.90217 3.41219 4.78602 3.33458 4.65819 3.28164C4.53037 3.22869 4.39336 3.20144 4.255 3.20144C4.11664 3.20144 3.97964 3.22869 3.85181 3.28164C3.72398 3.33458 3.60784 3.41219 3.51 3.51003C3.41217 3.60786 3.33456 3.72401 3.28161 3.85183C3.22866 3.97966 3.20141 4.11667 3.20141 4.25503C3.20141 4.39339 3.22866 4.53039 3.28161 4.65822C3.33456 4.78604 3.41217 4.90219 3.51 5.00003L4.25 5.73003C2.7441 7.65551 1.99561 10.0659 2.14596 12.5057C2.29632 14.9455 3.33511 17.2457 5.06604 18.9717C6.79697 20.6977 9.10015 21.73 11.5404 21.8734C13.9806 22.0168 16.3888 21.2614 18.31 19.75L19.04 20.49C19.2376 20.6823 19.5035 20.7882 19.7791 20.7845C20.0548 20.7807 20.3177 20.6676 20.51 20.47C20.7023 20.2724 20.8082 20.0066 20.8044 19.7309C20.8007 19.4552 20.6876 19.1923 20.49 19L5 3.51003ZM9 13V15C9 15.2652 8.89464 15.5196 8.70711 15.7071C8.51957 15.8947 8.26522 16 8 16C7.73479 16 7.48043 15.8947 7.29289 15.7071C7.10536 15.5196 7 15.2652 7 15V13C6.97364 12.4038 7.08959 11.8099 7.33825 11.2673C7.58691 10.7248 7.96114 10.2493 8.43 9.88003L9.86 11.3C9.57197 11.4746 9.33868 11.7264 9.18665 12.0269C9.03463 12.3274 8.96996 12.6646 9 13Z" fill="#141414"/>
</svg>
