<svg width="24" height="24" viewBox="0 0 24 24" fill="none" xmlns="http://www.w3.org/2000/svg">
<path d="M16 9C17.0538 9.00187 18.0885 9.28124 19 9.81V5C19 4.20435 18.6839 3.44129 18.1213 2.87868C17.5587 2.31607 16.7956 2 16 2H8C7.20435 2 6.44129 2.31607 5.87868 2.87868C5.31607 3.44129 5 4.20435 5 5V19C5 19.7956 5.31607 20.5587 5.87868 21.1213C6.44129 21.6839 7.20435 22 8 22H10.09C10.0348 21.6694 10.0047 21.3351 10 21V15C10 13.4087 10.6321 11.8826 11.7574 10.7574C12.8826 9.63214 14.4087 9 16 9ZM8 13C7.80222 13 7.60888 12.9414 7.44443 12.8315C7.27998 12.7216 7.15181 12.5654 7.07612 12.3827C7.00043 12.2 6.98063 11.9989 7.01921 11.8049C7.0578 11.6109 7.15304 11.4327 7.29289 11.2929C7.43275 11.153 7.61093 11.0578 7.80491 11.0192C7.99889 10.9806 8.19996 11.0004 8.38268 11.0761C8.56541 11.1518 8.72159 11.28 8.83147 11.4444C8.94135 11.6089 9 11.8022 9 12C9 12.2652 8.89464 12.5196 8.70711 12.7071C8.51957 12.8946 8.26522 13 8 13ZM18 14H15C14.9992 13.8684 15.0245 13.7379 15.0742 13.6161C15.124 13.4943 15.1973 13.3834 15.29 13.29C15.4469 13.1351 15.6507 13.0364 15.8695 13.0093C16.0883 12.9821 16.31 13.0281 16.5 13.14C16.6138 13.2124 16.7411 13.2609 16.8742 13.2828C17.0073 13.3047 17.1434 13.2995 17.2744 13.2674C17.4054 13.2353 17.5285 13.177 17.6364 13.0961C17.7443 13.0152 17.8348 12.9133 17.9022 12.7965C17.9697 12.6798 18.0129 12.5506 18.0292 12.4167C18.0454 12.2828 18.0345 12.147 17.9969 12.0175C17.9593 11.8879 17.8959 11.7673 17.8105 11.663C17.7251 11.5586 17.6195 11.4725 17.5 11.41C16.9289 11.0793 16.2647 10.9461 15.6103 11.0311C14.9559 11.116 14.3477 11.4144 13.88 11.88C13.5683 12.1883 13.328 12.5612 13.176 12.9724C13.0239 13.3836 12.9639 13.8231 13 14.26C12.6948 14.4362 12.4416 14.6899 12.266 14.9955C12.0903 15.301 11.9986 15.6476 12 16V20C12 20.5304 12.2107 21.0391 12.5858 21.4142C12.9609 21.7893 13.4696 22 14 22H18C18.5304 22 19.0391 21.7893 19.4142 21.4142C19.7893 21.0391 20 20.5304 20 20V16C20 15.4696 19.7893 14.9609 19.4142 14.5858C19.0391 14.2107 18.5304 14 18 14ZM16 19C15.8022 19 15.6089 18.9414 15.4444 18.8315C15.28 18.7216 15.1518 18.5654 15.0761 18.3827C15.0004 18.2 14.9806 17.9989 15.0192 17.8049C15.0578 17.6109 15.153 17.4327 15.2929 17.2929C15.4327 17.153 15.6109 17.0578 15.8049 17.0192C15.9989 16.9806 16.2 17.0004 16.3827 17.0761C16.5654 17.1518 16.7216 17.28 16.8315 17.4444C16.9414 17.6089 17 17.8022 17 18C17 18.2652 16.8946 18.5196 16.7071 18.7071C16.5196 18.8946 16.2652 19 16 19Z" fill="#141414"/>
</svg>
