<svg width="24" height="24" viewBox="0 0 24 24" fill="none" xmlns="http://www.w3.org/2000/svg">
<path d="M8 11C7.80222 11 7.60888 11.0586 7.44443 11.1685C7.27998 11.2784 7.15181 11.4346 7.07612 11.6173C7.00043 11.8 6.98063 12.0011 7.01921 12.1951C7.0578 12.3891 7.15304 12.5673 7.29289 12.7071C7.43275 12.847 7.61093 12.9422 7.80491 12.9808C7.99889 13.0194 8.19996 12.9996 8.38268 12.9239C8.56541 12.8482 8.72159 12.72 8.83147 12.5556C8.94135 12.3911 9 12.1978 9 12C9 11.7348 8.89464 11.4804 8.70711 11.2929C8.51957 11.1054 8.26522 11 8 11ZM16 6H8C6.4087 6 4.88258 6.63214 3.75736 7.75736C2.63214 8.88258 2 10.4087 2 12C2 13.5913 2.63214 15.1174 3.75736 16.2426C4.88258 17.3679 6.4087 18 8 18H16C17.5913 18 19.1174 17.3679 20.2426 16.2426C21.3679 15.1174 22 13.5913 22 12C22 10.4087 21.3679 8.88258 20.2426 7.75736C19.1174 6.63214 17.5913 6 16 6ZM8 15C7.40666 15 6.82664 14.8241 6.33329 14.4944C5.83994 14.1648 5.45542 13.6962 5.22836 13.1481C5.0013 12.5999 4.94189 11.9967 5.05764 11.4147C5.1734 10.8328 5.45912 10.2982 5.87868 9.87868C6.29824 9.45912 6.83279 9.1734 7.41473 9.05764C7.99667 8.94189 8.59987 9.0013 9.14805 9.22836C9.69623 9.45542 10.1648 9.83994 10.4944 10.3333C10.8241 10.8266 11 11.4067 11 12C11 12.7956 10.6839 13.5587 10.1213 14.1213C9.55871 14.6839 8.79565 15 8 15ZM16 15C15.4067 15 14.8266 14.8241 14.3333 14.4944C13.8399 14.1648 13.4554 13.6962 13.2284 13.1481C13.0013 12.5999 12.9419 11.9967 13.0576 11.4147C13.1734 10.8328 13.4591 10.2982 13.8787 9.87868C14.2982 9.45912 14.8328 9.1734 15.4147 9.05764C15.9967 8.94189 16.5999 9.0013 17.1481 9.22836C17.6962 9.45542 18.1648 9.83994 18.4944 10.3333C18.8241 10.8266 19 11.4067 19 12C19 12.7956 18.6839 13.5587 18.1213 14.1213C17.5587 14.6839 16.7956 15 16 15ZM16 11C15.8022 11 15.6089 11.0586 15.4444 11.1685C15.28 11.2784 15.1518 11.4346 15.0761 11.6173C15.0004 11.8 14.9806 12.0011 15.0192 12.1951C15.0578 12.3891 15.153 12.5673 15.2929 12.7071C15.4327 12.847 15.6109 12.9422 15.8049 12.9808C15.9989 13.0194 16.2 12.9996 16.3827 12.9239C16.5654 12.8482 16.7216 12.72 16.8315 12.5556C16.9414 12.3911 17 12.1978 17 12C17 11.7348 16.8946 11.4804 16.7071 11.2929C16.5196 11.1054 16.2652 11 16 11Z" fill="#141414"/>
</svg>
