<svg width="24" height="24" viewBox="0 0 24 24" fill="none" xmlns="http://www.w3.org/2000/svg">
<path d="M12 7C12.2652 7 12.5196 6.89464 12.7071 6.70711C12.8947 6.51957 13 6.26522 13 6V4C13 3.73478 12.8947 3.48043 12.7071 3.29289C12.5196 3.10536 12.2652 3 12 3C11.7348 3 11.4804 3.10536 11.2929 3.29289C11.1054 3.48043 11 3.73478 11 4V6C11 6.26522 11.1054 6.51957 11.2929 6.70711C11.4804 6.89464 11.7348 7 12 7ZM15.55 6.89C15.6883 6.96404 15.8431 7.00188 16 7C16.1847 6.99944 16.3656 6.94776 16.5227 6.85068C16.6798 6.7536 16.8069 6.61491 16.89 6.45L17.39 5.45C17.4609 5.33217 17.5068 5.20099 17.5247 5.06465C17.5426 4.9283 17.5322 4.78973 17.4941 4.65759C17.456 4.52545 17.3911 4.40259 17.3034 4.29667C17.2157 4.19075 17.1071 4.10406 16.9844 4.04201C16.8617 3.97996 16.7275 3.94389 16.5902 3.93605C16.4529 3.92821 16.3155 3.94877 16.1865 3.99644C16.0575 4.04412 15.9397 4.11788 15.8405 4.21313C15.7414 4.30837 15.6629 4.42305 15.61 4.55L15.11 5.55C14.9914 5.78617 14.9711 6.05969 15.0536 6.31078C15.136 6.56187 15.3145 6.77011 15.55 6.89ZM7.11002 6.45C7.19312 6.61491 7.32026 6.7536 7.47735 6.85068C7.63444 6.94776 7.81535 6.99944 8.00002 7C8.15689 7.00188 8.3117 6.96404 8.45002 6.89C8.68554 6.77011 8.86403 6.56187 8.94648 6.31078C9.02893 6.05969 9.00863 5.78617 8.89002 5.55L8.39002 4.55C8.25984 4.33365 8.05263 4.17456 7.81 4.10466C7.56737 4.03476 7.30729 4.05923 7.08195 4.17317C6.85662 4.2871 6.68273 4.48205 6.5952 4.71889C6.50766 4.95572 6.51295 5.21691 6.61002 5.45L7.11002 6.45ZM20.41 11.59L17.41 8.59C17.0367 8.21441 16.5296 8.00223 16 8H8.00002C7.47044 8.00223 6.96337 8.21441 6.59002 8.59L3.59002 11.59C3.39426 11.7843 3.24079 12.0169 3.13926 12.2733C3.03772 12.5297 2.99032 12.8044 3.00002 13.08C3.01121 13.3553 3.07917 13.6253 3.19963 13.8731C3.32009 14.1209 3.49044 14.3411 3.70002 14.52L10.7 20.52C11.0623 20.8299 11.5233 21.0001 12 21.0001C12.4767 21.0001 12.9378 20.8299 13.3 20.52L20.3 14.52C20.5096 14.3411 20.6799 14.1209 20.8004 13.8731C20.9209 13.6253 20.9888 13.3553 21 13.08C21.0097 12.8044 20.9623 12.5297 20.8608 12.2733C20.7592 12.0169 20.6058 11.7843 20.41 11.59Z" fill="#141414"/>
</svg>
