<svg width="24" height="24" viewBox="0 0 24 24" fill="none" xmlns="http://www.w3.org/2000/svg">
<path d="M12.0001 5.00006C12.2953 5.00022 12.5841 4.91326 12.8301 4.75006C13.0786 4.58232 13.2731 4.34611 13.3901 4.07006C13.5011 3.79758 13.5289 3.49834 13.4701 3.21006C13.4191 2.9126 13.279 2.63763 13.0683 2.42156C12.8576 2.2055 12.5862 2.05851 12.2901 2.00006C12.0018 1.94123 11.7026 1.96907 11.4301 2.08006C11.154 2.19703 10.9178 2.39155 10.7501 2.64006C10.5917 2.86632 10.4989 3.13191 10.4818 3.40757C10.4648 3.68322 10.5242 3.95824 10.6534 4.2023C10.7827 4.44636 10.9769 4.64999 11.2145 4.79075C11.4521 4.93152 11.724 5.00395 12.0001 5.00006ZM19.7101 19.2901C19.6167 19.1974 19.5059 19.1241 19.384 19.0743C19.2622 19.0245 19.1317 18.9993 19.0001 19.0001H11.0001L16.6001 14.8001C16.7805 14.6667 16.9108 14.4765 16.9701 14.2601C17.0425 14.0494 17.0425 13.8207 16.9701 13.6101L13.9701 6.61006C13.9114 6.48016 13.8301 6.36168 13.7301 6.26006C13.6233 6.16433 13.4971 6.09271 13.3601 6.05006C13.2217 6.02033 13.0785 6.02033 12.9401 6.05006C12.7987 6.06262 12.6619 6.10707 12.5401 6.18006L8.00011 8.82006L5.55011 7.17006C5.43974 7.08862 5.31379 7.03075 5.18011 7.00006C5.0446 6.97483 4.90561 6.97483 4.77011 7.00006C4.63041 7.01983 4.49705 7.07112 4.38011 7.15006C4.26444 7.22565 4.1657 7.32439 4.09011 7.44006C4.0096 7.55245 3.95807 7.68298 3.94011 7.82006C3.90994 7.95506 3.90994 8.09506 3.94011 8.23006C3.97758 8.36313 4.03854 8.48844 4.12011 8.60006C4.20983 8.70841 4.3182 8.79985 4.44011 8.87006L7.44011 10.8701C7.59904 10.9694 7.78269 11.0221 7.97011 11.0221C8.15753 11.0221 8.34117 10.9694 8.50011 10.8701L12.5001 8.46006L14.7401 13.6801L7.40011 19.2001C7.23419 19.3262 7.11182 19.501 7.05011 19.7001C6.97999 19.9008 6.97999 20.1193 7.05011 20.3201C7.11719 20.5187 7.245 20.6912 7.41548 20.8132C7.58595 20.9352 7.79046 21.0006 8.00011 21.0001H19.0001C19.1987 21.0012 19.3932 20.9432 19.5587 20.8334C19.7242 20.7236 19.8533 20.567 19.9295 20.3835C20.0056 20.2001 20.0255 19.9981 19.9864 19.8034C19.9473 19.6086 19.8511 19.4299 19.7101 19.2901Z" fill="#141414"/>
</svg>
