<svg width="24" height="24" viewBox="0 0 24 24" fill="none" xmlns="http://www.w3.org/2000/svg">
<path d="M13 6V2H7.5C6.83696 2 6.20107 2.26339 5.73223 2.73223C5.26339 3.20107 5 3.83696 5 4.5V19.5C5 20.163 5.26339 20.7989 5.73223 21.2678C6.20107 21.7366 6.83696 22 7.5 22H17.5C18.163 22 18.7989 21.7366 19.2678 21.2678C19.7366 20.7989 20 20.163 20 19.5V9H16C15.2044 9 14.4413 8.68393 13.8787 8.12132C13.3161 7.55871 13 6.79565 13 6ZM11 19C10.7884 19 10.5815 18.9372 10.4055 18.8197C10.2296 18.7021 10.0924 18.535 10.0114 18.3395C9.93046 18.144 9.90927 17.9288 9.95056 17.7213C9.99185 17.5137 10.0938 17.323 10.2434 17.1734C10.393 17.0238 10.5837 16.9218 10.7913 16.8806C10.9988 16.8393 11.214 16.8605 11.4095 16.9414C11.605 17.0224 11.7721 17.1596 11.8897 17.3355C12.0072 17.5115 12.07 17.7184 12.07 17.93C12.07 18.0705 12.0423 18.2097 11.9886 18.3395C11.9348 18.4693 11.856 18.5872 11.7566 18.6866C11.6572 18.786 11.5393 18.8648 11.4095 18.9186C11.2797 18.9723 11.1405 19 11 19ZM12.13 15L11.85 15.21C11.8176 15.4227 11.7067 15.6156 11.5391 15.7506C11.3714 15.8855 11.1593 15.9527 10.9446 15.9389C10.7298 15.9251 10.5281 15.8312 10.3791 15.6759C10.2302 15.5206 10.1448 15.3151 10.14 15.1C10.1668 14.786 10.2725 14.4838 10.4473 14.2215C10.6221 13.9593 10.8604 13.7455 11.14 13.6C11.63 13.26 11.86 13.07 11.86 12.53C11.8311 12.312 11.7312 12.1097 11.5758 11.9542C11.4203 11.7988 11.2179 11.6989 11 11.67C10.7821 11.6989 10.5797 11.7988 10.4242 11.9542C10.2688 12.1097 10.1689 12.312 10.14 12.53C10.153 12.65 10.1406 12.7715 10.1035 12.8864C10.0665 13.0013 10.0057 13.1072 9.92501 13.197C9.84436 13.2869 9.74569 13.3588 9.63542 13.408C9.52514 13.4572 9.40575 13.4826 9.285 13.4826C9.16425 13.4826 9.04486 13.4572 8.93458 13.408C8.82431 13.3588 8.72564 13.2869 8.64499 13.197C8.56433 13.1072 8.5035 13.0013 8.46646 12.8864C8.42942 12.7715 8.417 12.65 8.43 12.53C8.47335 11.8664 8.75917 11.242 9.23306 10.7754C9.70695 10.3089 10.3358 10.0329 11 10C11.6707 10.0338 12.3049 10.3155 12.7797 10.7903C13.2545 11.2651 13.5362 11.8993 13.57 12.57C13.5638 13.0657 13.4276 13.551 13.1748 13.9775C12.9221 14.404 12.5618 14.7566 12.13 15ZM16 7H20C19.9978 6.47042 19.7856 5.96335 19.41 5.59L16.41 2.59C16.0366 2.21441 15.5296 2.00223 15 2V6C15 6.26522 15.1054 6.51957 15.2929 6.70711C15.4804 6.89464 15.7348 7 16 7Z" fill="#141414"/>
</svg>
