<svg width="24" height="24" viewBox="0 0 24 24" fill="none" xmlns="http://www.w3.org/2000/svg">
<path d="M12 15C11.8022 15 11.6089 15.0586 11.4444 15.1685C11.28 15.2784 11.1518 15.4346 11.0761 15.6173C11.0004 15.8 10.9806 16.0011 11.0192 16.1951C11.0578 16.3891 11.153 16.5673 11.2929 16.7071C11.4327 16.847 11.6109 16.9422 11.8049 16.9808C11.9989 17.0194 12.2 16.9996 12.3827 16.9239C12.5654 16.8482 12.7216 16.72 12.8315 16.5556C12.9414 16.3911 13 16.1978 13 16C13 15.7348 12.8946 15.4804 12.7071 15.2929C12.5196 15.1054 12.2652 15 12 15ZM12 2C10.4087 2 8.88258 2.63214 7.75736 3.75736C6.63214 4.88258 6 6.4087 6 8V16C6 17.5913 6.63214 19.1174 7.75736 20.2426C8.88258 21.3679 10.4087 22 12 22C13.5913 22 15.1174 21.3679 16.2426 20.2426C17.3679 19.1174 18 17.5913 18 16V8C18 6.4087 17.3679 4.88258 16.2426 3.75736C15.1174 2.63214 13.5913 2 12 2ZM12 19C11.4067 19 10.8266 18.8241 10.3333 18.4944C9.83994 18.1648 9.45542 17.6962 9.22836 17.1481C9.0013 16.5999 8.94189 15.9967 9.05764 15.4147C9.1734 14.8328 9.45912 14.2982 9.87868 13.8787C10.2982 13.4591 10.8328 13.1734 11.4147 13.0576C11.9967 12.9419 12.5999 13.0013 13.1481 13.2284C13.6962 13.4554 14.1648 13.8399 14.4944 14.3333C14.8241 14.8266 15 15.4067 15 16C15 16.7956 14.6839 17.5587 14.1213 18.1213C13.5587 18.6839 12.7956 19 12 19ZM12 11C11.4067 11 10.8266 10.8241 10.3333 10.4944C9.83994 10.1648 9.45542 9.69623 9.22836 9.14805C9.0013 8.59987 8.94189 7.99667 9.05764 7.41473C9.1734 6.83279 9.45912 6.29824 9.87868 5.87868C10.2982 5.45912 10.8328 5.1734 11.4147 5.05764C11.9967 4.94189 12.5999 5.0013 13.1481 5.22836C13.6962 5.45542 14.1648 5.83994 14.4944 6.33329C14.8241 6.82664 15 7.40666 15 8C15 8.79565 14.6839 9.55871 14.1213 10.1213C13.5587 10.6839 12.7956 11 12 11ZM12 7C11.8022 7 11.6089 7.05865 11.4444 7.16853C11.28 7.27841 11.1518 7.43459 11.0761 7.61732C11.0004 7.80004 10.9806 8.00111 11.0192 8.19509C11.0578 8.38907 11.153 8.56725 11.2929 8.70711C11.4327 8.84696 11.6109 8.9422 11.8049 8.98079C11.9989 9.01937 12.2 8.99957 12.3827 8.92388C12.5654 8.84819 12.7216 8.72002 12.8315 8.55557C12.9414 8.39112 13 8.19778 13 8C13 7.73478 12.8946 7.48043 12.7071 7.29289C12.5196 7.10536 12.2652 7 12 7Z" fill="#141414"/>
</svg>
