<svg width="24" height="24" viewBox="0 0 24 24" fill="none" xmlns="http://www.w3.org/2000/svg">
<path d="M12.0001 5C12.2968 5 12.5868 4.91203 12.8335 4.7472C13.0802 4.58238 13.2724 4.34811 13.386 4.07403C13.4995 3.79994 13.5292 3.49834 13.4713 3.20737C13.4134 2.91639 13.2706 2.64912 13.0608 2.43934C12.851 2.22956 12.5838 2.0867 12.2928 2.02882C12.0018 1.97094 11.7002 2.00065 11.4261 2.11418C11.152 2.22771 10.9178 2.41997 10.7529 2.66665C10.5881 2.91332 10.5001 3.20333 10.5001 3.5C10.5001 3.89783 10.6582 4.27936 10.9395 4.56066C11.2208 4.84197 11.6023 5 12.0001 5ZM19.7101 5.29C19.6172 5.19627 19.5066 5.12188 19.3847 5.07111C19.2629 5.02034 19.1322 4.9942 19.0001 4.9942C18.8681 4.9942 18.7374 5.02034 18.6156 5.07111C18.4937 5.12188 18.3831 5.19627 18.2901 5.29L16.2901 7.29C16.1424 7.43791 15.952 7.53579 15.7457 7.56988C15.5394 7.60396 15.3276 7.57252 15.1401 7.48L13.3201 6.57C12.904 6.36225 12.4453 6.2541 11.9801 6.2541C11.515 6.2541 11.0563 6.36225 10.6401 6.57L8.82015 7.48C8.63266 7.57252 8.42088 7.60396 8.2146 7.56988C8.00832 7.53579 7.81791 7.43791 7.67015 7.29L5.67015 5.29C5.47553 5.14812 5.23625 5.08125 4.99628 5.10167C4.75631 5.12208 4.53177 5.22842 4.36392 5.40113C4.19607 5.57385 4.09619 5.80134 4.08264 6.04179C4.06909 6.28225 4.14277 6.51952 4.29015 6.71L6.29015 8.71C6.73614 9.15644 7.31156 9.45087 7.93454 9.5514C8.55753 9.65194 9.19635 9.55347 9.76015 9.27L11.0001 8.62V12.43L7.94015 14.27C7.34821 14.6256 6.85843 15.1285 6.51846 15.7295C6.1785 16.3306 5.99993 17.0094 6.00015 17.7V21C6.00015 21.2652 6.1055 21.5196 6.29304 21.7071C6.48058 21.8946 6.73493 22 7.00015 22C7.26536 22 7.51972 21.8946 7.70725 21.7071C7.89479 21.5196 8.00015 21.2652 8.00015 21V17.7C8.00571 17.3544 8.10076 17.0161 8.27602 16.7182C8.45128 16.4202 8.70076 16.1728 9.00015 16L11.5101 14.5L14.0901 21.37C14.163 21.5529 14.2882 21.7103 14.45 21.8224C14.6119 21.9344 14.8033 21.9962 15.0001 22C15.1195 22.001 15.238 21.9807 15.3501 21.94C15.4738 21.8944 15.5873 21.8247 15.684 21.7351C15.7806 21.6455 15.8586 21.5376 15.9135 21.4177C15.9683 21.2978 15.9989 21.1683 16.0035 21.0365C16.008 20.9048 15.9865 20.7734 15.9401 20.65L13.0001 12.82V8.62L14.2601 9.25C14.68 9.45795 15.1417 9.56739 15.6101 9.57C16.4055 9.5693 17.1681 9.25277 17.7301 8.69L19.7301 6.69C19.9107 6.50047 20.0098 6.24768 20.006 5.98592C20.0023 5.72416 19.8961 5.4743 19.7101 5.29Z" fill="#141414"/>
</svg>
