<svg width="24" height="24" viewBox="0 0 24 24" fill="none" xmlns="http://www.w3.org/2000/svg">
<path d="M22 17.68L21 14.68C20.9304 14.473 20.795 14.2945 20.6144 14.1717C20.4339 14.0489 20.2181 13.9886 20 14H17.5C17.6587 13.9993 17.8149 13.9608 17.9557 13.8878C18.0965 13.8147 18.218 13.7092 18.31 13.58C18.4029 13.4518 18.4641 13.3033 18.4884 13.1469C18.5128 12.9904 18.4996 12.8304 18.45 12.68L17.45 9.68C17.3829 9.48138 17.2551 9.30887 17.0846 9.18685C16.9142 9.06482 16.7096 8.99946 16.5 9H14.5C14.6587 8.99927 14.8149 8.9608 14.9557 8.88777C15.0965 8.81474 15.218 8.70924 15.31 8.58C15.4029 8.45179 15.4641 8.30334 15.4884 8.14687C15.5128 7.9904 15.4996 7.83039 15.45 7.68L14.45 4.68C14.3829 4.48138 14.2551 4.30887 14.0846 4.18685C13.9142 4.06482 13.7096 3.99946 13.5 4H10.5C10.2904 3.99946 10.0859 4.06482 9.91538 4.18685C9.7449 4.30887 9.61709 4.48138 9.55001 4.68L8.55001 7.68C8.50042 7.83039 8.48725 7.9904 8.51159 8.14687C8.53593 8.30334 8.59708 8.45179 8.69001 8.58C8.78202 8.70924 8.90347 8.81474 9.04431 8.88777C9.18516 8.9608 9.34136 8.99927 9.50001 9H7.00001C6.78194 8.98862 6.56614 9.04893 6.38557 9.17172C6.205 9.2945 6.06959 9.47302 6.00001 9.68L5.00001 12.68C4.95042 12.8304 4.93725 12.9904 4.96159 13.1469C4.98593 13.3033 5.04708 13.4518 5.14001 13.58C5.23681 13.7163 5.36626 13.8262 5.5165 13.8996C5.66674 13.9729 5.83297 14.0075 6.00001 14H4.00001C3.78194 13.9886 3.56614 14.0489 3.38557 14.1717C3.205 14.2945 3.06959 14.473 3.00001 14.68L2.00001 17.68C1.95042 17.8304 1.93725 17.9904 1.96159 18.1469C1.98593 18.3033 2.04708 18.4518 2.14001 18.58C2.23681 18.7163 2.36626 18.8262 2.5165 18.8996C2.66674 18.9729 2.83297 19.0075 3.00001 19H21C21.1587 18.9993 21.3149 18.9608 21.4557 18.8878C21.5965 18.8147 21.718 18.7092 21.81 18.58C21.9114 18.4561 21.9816 18.3098 22.0146 18.1531C22.0477 17.9965 22.0427 17.8343 22 17.68ZM9.60001 14.68L8.78001 17H8.72001L8.00001 14.68C7.93043 14.473 7.79501 14.2945 7.61444 14.1717C7.43387 14.0489 7.21807 13.9886 7.00001 14H10.5C10.2904 13.9995 10.0859 14.0648 9.91538 14.1868C9.7449 14.3089 9.61709 14.4814 9.55001 14.68H9.60001ZM12.6 9.68L11.78 12H11.72L11 9.68C10.9304 9.47302 10.795 9.2945 10.6144 9.17172C10.4339 9.04893 10.2181 8.98862 10 9H13.5C13.2904 8.99946 13.0858 9.06482 12.9154 9.18685C12.7449 9.30887 12.6171 9.48138 12.55 9.68H12.6ZM16.1 14.68L15.28 17H15.22L14.45 14.68C14.3829 14.4814 14.2551 14.3089 14.0846 14.1868C13.9142 14.0648 13.7096 13.9995 13.5 14H17C16.7904 13.9995 16.5858 14.0648 16.4154 14.1868C16.2449 14.3089 16.1171 14.4814 16.05 14.68H16.1Z" fill="#141414"/>
</svg>
