<svg width="24" height="24" viewBox="0 0 24 24" fill="none" xmlns="http://www.w3.org/2000/svg">
<path d="M19 4H5C4.20435 4 3.44129 4.31607 2.87868 4.87868C2.31607 5.44129 2 6.20435 2 7V17C2 17.7956 2.31607 18.5587 2.87868 19.1213C3.44129 19.6839 4.20435 20 5 20H19C19.7956 20 20.5587 19.6839 21.1213 19.1213C21.6839 18.5587 22 17.7956 22 17V7C22 6.20435 21.6839 5.44129 21.1213 4.87868C20.5587 4.31607 19.7956 4 19 4ZM8 13C7.86839 13.0008 7.73793 12.9755 7.61609 12.9258C7.49426 12.876 7.38344 12.8027 7.29 12.71L5.29 10.71C5.19627 10.617 5.12188 10.5064 5.07111 10.3846C5.02034 10.2627 4.9942 10.132 4.9942 10C4.9942 9.86799 5.02034 9.73728 5.07111 9.61542C5.12188 9.49356 5.19627 9.38296 5.29 9.29L7.29 7.29C7.4783 7.1017 7.7337 6.99591 8 6.99591C8.2663 6.99591 8.5217 7.1017 8.71 7.29C8.8983 7.4783 9.00409 7.7337 9.00409 8C9.00409 8.2663 8.8983 8.5217 8.71 8.71L7.41 10L8.71 11.29C8.80373 11.383 8.87812 11.4936 8.92889 11.6154C8.97966 11.7373 9.0058 11.868 9.0058 12C9.0058 12.132 8.97966 12.2627 8.92889 12.3846C8.87812 12.5064 8.80373 12.617 8.71 12.71C8.61656 12.8027 8.50574 12.876 8.38391 12.9258C8.26207 12.9755 8.13161 13.0008 8 13ZM10.93 17.37C10.8559 17.5561 10.7276 17.7156 10.5618 17.8279C10.396 17.9402 10.2003 18.0002 10 18C9.87335 18.0003 9.74779 17.9766 9.63 17.93C9.5078 17.8815 9.39635 17.8094 9.30205 17.7178C9.20775 17.6262 9.13243 17.5169 9.08042 17.3961C9.0284 17.2754 9.00071 17.1456 8.99892 17.0141C8.99714 16.8826 9.02129 16.7521 9.07 16.63L13.07 6.63C13.1681 6.38335 13.3602 6.18578 13.604 6.08076C13.8478 5.97574 14.1233 5.97187 14.37 6.07C14.6167 6.16813 14.8142 6.36022 14.9192 6.60402C15.0243 6.84782 15.0281 7.12335 14.93 7.37L10.93 17.37ZM18.71 14.71L16.71 16.71C16.617 16.8037 16.5064 16.8781 16.3846 16.9289C16.2627 16.9797 16.132 17.0058 16 17.0058C15.868 17.0058 15.7373 16.9797 15.6154 16.9289C15.4936 16.8781 15.383 16.8037 15.29 16.71C15.1963 16.617 15.1219 16.5064 15.0711 16.3846C15.0203 16.2627 14.9942 16.132 14.9942 16C14.9942 15.868 15.0203 15.7373 15.0711 15.6154C15.1219 15.4936 15.1963 15.383 15.29 15.29L16.59 14L15.29 12.71C15.1968 12.6168 15.1228 12.5061 15.0723 12.3842C15.0219 12.2624 14.9959 12.1319 14.9959 12C14.9959 11.8681 15.0219 11.7376 15.0723 11.6158C15.1228 11.4939 15.1968 11.3832 15.29 11.29C15.3832 11.1968 15.4939 11.1228 15.6158 11.0723C15.7376 11.0219 15.8681 10.9959 16 10.9959C16.1319 10.9959 16.2624 11.0219 16.3842 11.0723C16.5061 11.1228 16.6168 11.1968 16.71 11.29L18.71 13.29C18.8037 13.383 18.8781 13.4936 18.9289 13.6154C18.9797 13.7373 19.0058 13.868 19.0058 14C19.0058 14.132 18.9797 14.2627 18.9289 14.3846C18.8781 14.5064 18.8037 14.617 18.71 14.71Z" fill="#141414"/>
</svg>
