<svg width="24" height="24" viewBox="0 0 24 24" fill="none" xmlns="http://www.w3.org/2000/svg">
<path d="M14 15C14.7956 15 15.5587 14.6839 16.1213 14.1213C16.6839 13.5587 17 12.7956 17 12V7C17 6.20435 16.6839 5.44129 16.1213 4.87868C15.5587 4.31607 14.7956 4 14 4H5C4.20435 4 3.44129 4.31607 2.87868 4.87868C2.31607 5.44129 2 6.20435 2 7V12C2 12.7956 2.31607 13.5587 2.87868 14.1213C3.44129 14.6839 4.20435 15 5 15V16C5.00056 16.1847 5.05224 16.3656 5.14932 16.5227C5.2464 16.6798 5.38509 16.8069 5.55 16.89C5.688 16.9649 5.84302 17.0028 6 17C6.21637 17 6.4269 16.9298 6.6 16.8L9 15H14ZM6 6.5H13C13.2652 6.5 13.5196 6.60536 13.7071 6.79289C13.8946 6.98043 14 7.23478 14 7.5C14 7.76522 13.8946 8.01957 13.7071 8.20711C13.5196 8.39464 13.2652 8.5 13 8.5H6C5.73478 8.5 5.48043 8.39464 5.29289 8.20711C5.10536 8.01957 5 7.76522 5 7.5C5 7.23478 5.10536 6.98043 5.29289 6.79289C5.48043 6.60536 5.73478 6.5 6 6.5ZM8 12.5H6C5.73478 12.5 5.48043 12.3946 5.29289 12.2071C5.10536 12.0196 5 11.7652 5 11.5C5 11.2348 5.10536 10.9804 5.29289 10.7929C5.48043 10.6054 5.73478 10.5 6 10.5H8C8.26522 10.5 8.51957 10.6054 8.70711 10.7929C8.89464 10.9804 9 11.2348 9 11.5C9 11.7652 8.89464 12.0196 8.70711 12.2071C8.51957 12.3946 8.26522 12.5 8 12.5ZM19 8H18.91V12C18.91 13.3022 18.3927 14.5511 17.4719 15.4719C16.5511 16.3927 15.3022 16.91 14 16.91H9.78L8 18.24C8.5506 18.7305 9.26258 19.0011 10 19H15L17.4 20.8C17.5731 20.9298 17.7836 21 18 21C18.157 21.0028 18.312 20.9649 18.45 20.89C18.6149 20.8069 18.7536 20.6798 18.8507 20.5227C18.9478 20.3656 18.9994 20.1847 19 20V19C19.7956 19 20.5587 18.6839 21.1213 18.1213C21.6839 17.5587 22 16.7956 22 16V11C22 10.2044 21.6839 9.44129 21.1213 8.87868C20.5587 8.31607 19.7956 8 19 8Z" fill="#141414"/>
</svg>
