<svg width="24" height="24" viewBox="0 0 24 24" fill="none" xmlns="http://www.w3.org/2000/svg">
<path d="M3 15.9998H21C21.2652 15.9998 21.5196 15.8944 21.7071 15.7069C21.8946 15.5194 22 15.265 22 14.9998C22 12.5207 21.0792 10.13 19.4162 8.29152C17.7533 6.45299 15.4666 5.29771 13 5.0498C13 4.78459 12.8946 4.53023 12.7071 4.3427C12.5196 4.15516 12.2652 4.0498 12 4.0498C11.7348 4.0498 11.4804 4.15516 11.2929 4.3427C11.1054 4.53023 11 4.78459 11 5.0498C8.53337 5.29771 6.24675 6.45299 4.58376 8.29152C2.92077 10.13 1.99997 12.5207 2 14.9998C2 15.265 2.10536 15.5194 2.29289 15.7069C2.48043 15.8944 2.73478 15.9998 3 15.9998ZM21 17.9998H3C2.73478 17.9998 2.48043 18.1052 2.29289 18.2927C2.10536 18.4802 2 18.7346 2 18.9998C2 19.265 2.10536 19.5194 2.29289 19.7069C2.48043 19.8944 2.73478 19.9998 3 19.9998H21C21.2652 19.9998 21.5196 19.8944 21.7071 19.7069C21.8946 19.5194 22 19.265 22 18.9998C22 18.7346 21.8946 18.4802 21.7071 18.2927C21.5196 18.1052 21.2652 17.9998 21 17.9998Z" fill="#141414"/>
</svg>
