<svg width="24" height="24" viewBox="0 0 24 24" fill="none" xmlns="http://www.w3.org/2000/svg">
<path d="M18 2.00001H11.47L14.73 3.22001C15.3958 3.47291 15.9692 3.92181 16.3745 4.50743C16.7797 5.09305 16.9979 5.78783 17 6.50001V20H18C18.5304 20 19.0391 19.7893 19.4142 19.4142C19.7893 19.0391 20 18.5304 20 18V4.00001C20 3.46957 19.7893 2.96086 19.4142 2.58579C19.0391 2.21072 18.5304 2.00001 18 2.00001ZM14 5.10001L6 2.10001C5.84093 2.03613 5.67141 2.00222 5.5 2.00001C5.19544 1.99915 4.89824 2.09355 4.65 2.27001C4.44977 2.40668 4.28591 2.59015 4.17264 2.80449C4.05936 3.01883 4.00011 3.25757 4 3.50001V16.8C4.00025 17.0861 4.08228 17.3661 4.23642 17.607C4.39057 17.848 4.6104 18.0399 4.87 18.16L12.87 21.86C13.0679 21.9501 13.2825 21.9978 13.5 22C13.897 21.9974 14.277 21.8385 14.5578 21.5578C14.8385 21.277 14.9974 20.897 15 20.5V6.50001C14.9971 6.19225 14.8996 5.89283 14.7207 5.64239C14.5418 5.39194 14.2902 5.20258 14 5.10001ZM12 13.5C11.8022 13.5 11.6089 13.4414 11.4444 13.3315C11.28 13.2216 11.1518 13.0654 11.0761 12.8827C11.0004 12.7 10.9806 12.4989 11.0192 12.3049C11.0578 12.1109 11.153 11.9328 11.2929 11.7929C11.4327 11.653 11.6109 11.5578 11.8049 11.5192C11.9989 11.4806 12.2 11.5004 12.3827 11.5761C12.5654 11.6518 12.7216 11.78 12.8315 11.9444C12.9414 12.1089 13 12.3022 13 12.5C13 12.7652 12.8946 13.0196 12.7071 13.2071C12.5196 13.3946 12.2652 13.5 12 13.5Z" fill="#141414"/>
</svg>
