<svg width="24" height="24" viewBox="0 0 24 24" fill="none" xmlns="http://www.w3.org/2000/svg">
<path d="M21.2399 8.16986C20.225 5.72069 18.2791 3.77477 15.8299 2.75986C13.6923 1.8734 11.3135 1.75575 9.09882 2.42695C6.88418 3.09815 4.97088 4.51666 3.68506 6.44066C2.39924 8.36467 1.82051 10.6751 2.04751 12.978C2.27452 15.281 3.29321 17.4339 4.92993 19.0699C6.32845 20.468 8.11009 21.42 10.0496 21.8057C11.9891 22.1914 13.9995 21.9933 15.8265 21.2366C17.6535 20.4799 19.2151 19.1985 20.314 17.5544C21.4128 15.9103 21.9995 13.9774 21.9999 11.9999C21.9981 10.6859 21.74 9.38494 21.2399 8.16986ZM13.9999 18.9999H9.99994C9.73472 18.9999 9.48036 18.8945 9.29283 18.707C9.10529 18.5194 8.99993 18.2651 8.99993 17.9999C8.99993 17.7346 9.10529 17.4803 9.29283 17.2928C9.48036 17.1052 9.73472 16.9999 9.99994 16.9999H13.9999C14.2652 16.9999 14.5195 17.1052 14.707 17.2928C14.8946 17.4803 14.9999 17.7346 14.9999 17.9999C14.9999 18.2651 14.8946 18.5194 14.707 18.707C14.5195 18.8945 14.2652 18.9999 13.9999 18.9999ZM15.7099 11.7099L12.7099 14.7099C12.6148 14.8009 12.5027 14.8723 12.3799 14.9199C12.2602 14.9728 12.1308 15.0001 11.9999 15.0001C11.8691 15.0001 11.7396 14.9728 11.6199 14.9199C11.4972 14.8723 11.385 14.8009 11.2899 14.7099L8.28993 11.7099C8.10163 11.5216 7.99584 11.2662 7.99584 10.9999C7.99584 10.7336 8.10163 10.4782 8.28993 10.2899C8.47824 10.1016 8.73363 9.99577 8.99993 9.99577C9.26624 9.99577 9.52163 10.1016 9.70993 10.2899L10.9999 11.5899V5.99986C10.9999 5.73464 11.1053 5.48029 11.2928 5.29275C11.4804 5.10522 11.7347 4.99986 11.9999 4.99986C12.2652 4.99986 12.5195 5.10522 12.707 5.29275C12.8946 5.48029 12.9999 5.73464 12.9999 5.99986V11.5899L14.2899 10.2899C14.4782 10.1016 14.7336 9.99577 14.9999 9.99577C15.2662 9.99577 15.5216 10.1016 15.7099 10.2899C15.8982 10.4782 16.004 10.7336 16.004 10.9999C16.004 11.2662 15.8982 11.5216 15.7099 11.7099Z" fill="#141414"/>
</svg>
