<svg width="24" height="24" viewBox="0 0 24 24" fill="none" xmlns="http://www.w3.org/2000/svg">
<path d="M12 2C10.0222 2 8.08879 2.58649 6.4443 3.6853C4.79981 4.78412 3.51809 6.3459 2.76121 8.17317C2.00433 10.0004 1.8063 12.0111 2.19215 13.9509C2.578 15.8907 3.53041 17.6725 4.92894 19.0711C6.32746 20.4696 8.10929 21.422 10.0491 21.8079C11.9889 22.1937 13.9996 21.9957 15.8268 21.2388C17.6541 20.4819 19.2159 19.2002 20.3147 17.5557C21.4135 15.9112 22 13.9778 22 12C22 10.6868 21.7413 9.38642 21.2388 8.17317C20.7363 6.95991 19.9997 5.85752 19.0711 4.92893C18.1425 4.00035 17.0401 3.26375 15.8268 2.7612C14.6136 2.25866 13.3132 2 12 2ZM14.8 12.6L11.8 16.6C11.7069 16.7242 11.5861 16.825 11.4472 16.8944C11.3084 16.9639 11.1552 17 11 17C10.7836 17 10.5731 16.9298 10.4 16.8C10.2949 16.7212 10.2064 16.6225 10.1395 16.5095C10.0726 16.3965 10.0286 16.2714 10.0101 16.1414C9.99148 16.0114 9.9987 15.879 10.0313 15.7518C10.0639 15.6246 10.1212 15.5051 10.2 15.4L12 13H10C9.81429 13 9.63225 12.9483 9.47427 12.8507C9.3163 12.753 9.18863 12.6133 9.10558 12.4472C9.02252 12.2811 8.98737 12.0952 9.00405 11.9102C9.02072 11.7252 9.08858 11.5486 9.2 11.4L12.2 7.4C12.3591 7.18783 12.596 7.04756 12.8586 7.01005C13.1211 6.97254 13.3878 7.04087 13.6 7.2C13.8122 7.35913 13.9524 7.59603 13.99 7.85858C14.0275 8.12113 13.9591 8.38783 13.8 8.6L12 11H14C14.1857 11 14.3678 11.0517 14.5257 11.1493C14.6837 11.247 14.8114 11.3867 14.8944 11.5528C14.9775 11.7189 15.0126 11.9048 14.996 12.0898C14.9793 12.2748 14.9114 12.4514 14.8 12.6Z" fill="#141414"/>
</svg>
