<svg width="24" height="24" viewBox="0 0 24 24" fill="none" xmlns="http://www.w3.org/2000/svg">
<path d="M16 9C17.0538 9.00187 18.0885 9.28124 19 9.81V5C19 4.20435 18.6839 3.44129 18.1213 2.87868C17.5587 2.31607 16.7956 2 16 2H8C7.20435 2 6.44129 2.31607 5.87868 2.87868C5.31607 3.44129 5 4.20435 5 5V19C5 19.7956 5.31607 20.5587 5.87868 21.1213C6.44129 21.6839 7.20435 22 8 22H10.09C10.0348 21.6694 10.0047 21.3351 10 21V15C10 13.4087 10.6321 11.8826 11.7574 10.7574C12.8826 9.63214 14.4087 9 16 9ZM8 13C7.80222 13 7.60888 12.9414 7.44443 12.8315C7.27998 12.7216 7.15181 12.5654 7.07612 12.3827C7.00043 12.2 6.98063 11.9989 7.01921 11.8049C7.0578 11.6109 7.15304 11.4327 7.29289 11.2929C7.43275 11.153 7.61093 11.0578 7.80491 11.0192C7.99889 10.9806 8.19996 11.0004 8.38268 11.0761C8.56541 11.1518 8.72159 11.28 8.83147 11.4444C8.94135 11.6089 9 11.8022 9 12C9 12.2652 8.89464 12.5196 8.70711 12.7071C8.51957 12.8946 8.26522 13 8 13ZM19 14.28V14C19 13.2044 18.6839 12.4413 18.1213 11.8787C17.5587 11.3161 16.7956 11 16 11C15.2044 11 14.4413 11.3161 13.8787 11.8787C13.3161 12.4413 13 13.2044 13 14V14.27C12.6963 14.4454 12.444 14.6975 12.2685 15.0012C12.0929 15.3048 12.0004 15.6493 12 16V20C12 20.5304 12.2107 21.0391 12.5858 21.4142C12.9609 21.7893 13.4696 22 14 22H18C18.5304 22 19.0391 21.7893 19.4142 21.4142C19.7893 21.0391 20 20.5304 20 20V16C19.9979 15.651 19.9045 15.3086 19.7291 15.0068C19.5536 14.7051 19.3023 14.4545 19 14.28ZM16 19C15.8022 19 15.6089 18.9414 15.4444 18.8315C15.28 18.7216 15.1518 18.5654 15.0761 18.3827C15.0004 18.2 14.9806 17.9989 15.0192 17.8049C15.0578 17.6109 15.153 17.4327 15.2929 17.2929C15.4327 17.153 15.6109 17.0578 15.8049 17.0192C15.9989 16.9806 16.2 17.0004 16.3827 17.0761C16.5654 17.1518 16.7216 17.28 16.8315 17.4444C16.9414 17.6089 17 17.8022 17 18C17 18.2652 16.8946 18.5196 16.7071 18.7071C16.5196 18.8946 16.2652 19 16 19ZM15 14C15 13.7348 15.1054 13.4804 15.2929 13.2929C15.4804 13.1054 15.7348 13 16 13C16.2652 13 16.5196 13.1054 16.7071 13.2929C16.8946 13.4804 17 13.7348 17 14H15Z" fill="#141414"/>
</svg>
