<svg width="24" height="24" viewBox="0 0 24 24" fill="none" xmlns="http://www.w3.org/2000/svg">
<path d="M7.71 7.71L9 6.41V12C9 12.2652 9.10536 12.5196 9.29289 12.7071C9.48043 12.8946 9.73478 13 10 13C10.2652 13 10.5196 12.8946 10.7071 12.7071C10.8946 12.5196 11 12.2652 11 12V4C10.999 3.80257 10.9396 3.60986 10.8293 3.44614C10.7189 3.28242 10.5626 3.15502 10.38 3.08C10.1979 3.00342 9.99718 2.9825 9.80319 3.01987C9.6092 3.05725 9.43062 3.15124 9.29 3.29L6.29 6.29C6.1017 6.4783 5.99591 6.7337 5.99591 7C5.99591 7.2663 6.1017 7.5217 6.29 7.71C6.4783 7.8983 6.7337 8.00409 7 8.00409C7.2663 8.00409 7.5217 7.8983 7.71 7.71ZM13.62 12.92C13.7387 12.976 13.8688 13.0034 14 13C14.1316 13.0008 14.2621 12.9755 14.3839 12.9258C14.5057 12.876 14.6166 12.8027 14.71 12.71L17.71 9.71C17.8032 9.61676 17.8772 9.50607 17.9277 9.38425C17.9781 9.26243 18.0041 9.13186 18.0041 9C18.0041 8.86814 17.9781 8.73757 17.9277 8.61575C17.8772 8.49393 17.8032 8.38324 17.71 8.29C17.6168 8.19676 17.5061 8.1228 17.3842 8.07234C17.2624 8.02188 17.1319 7.99591 17 7.99591C16.8681 7.99591 16.7376 8.02188 16.6158 8.07234C16.4939 8.1228 16.3832 8.19676 16.29 8.29L15 9.59V4C15 3.73478 14.8946 3.48043 14.7071 3.29289C14.5196 3.10536 14.2652 3 14 3C13.7348 3 13.4804 3.10536 13.2929 3.29289C13.1054 3.48043 13 3.73478 13 4V12C13.001 12.1974 13.0604 12.3901 13.1707 12.5539C13.2811 12.7176 13.4374 12.845 13.62 12.92ZM20.69 16.06C20.5026 15.8737 20.2492 15.7692 19.985 15.7692C19.7208 15.7692 19.4674 15.8737 19.28 16.06L17.11 18.34C16.9229 18.5362 16.698 18.6924 16.4487 18.7989C16.1994 18.9055 15.9311 18.9603 15.66 18.96H12C11.7348 18.96 11.4804 18.8546 11.2929 18.6671C11.1054 18.4796 11 18.2252 11 17.96C11 17.6948 11.1054 17.4404 11.2929 17.2529C11.4804 17.0654 11.7348 16.96 12 16.96H13.66C13.9252 16.96 14.1796 16.8546 14.3671 16.6671C14.5546 16.4796 14.66 16.2252 14.66 15.96C14.66 15.6948 14.5546 15.4404 14.3671 15.2529C14.1796 15.0654 13.9252 14.96 13.66 14.96H8C7.46957 14.96 6.96086 15.1707 6.58579 15.5458C6.21071 15.9209 6 16.4296 6 16.96H4C3.73478 16.96 3.48043 17.0654 3.29289 17.2529C3.10536 17.4404 3 17.6948 3 17.96V19.96C3 20.2252 3.10536 20.4796 3.29289 20.6671C3.48043 20.8546 3.73478 20.96 4 20.96H15.66C16.2005 20.9593 16.7353 20.849 17.232 20.6359C17.7287 20.4228 18.1771 20.1112 18.55 19.72L20.72 17.44C20.8933 17.2502 20.9869 17.001 20.9813 16.744C20.9757 16.487 20.8714 16.2421 20.69 16.06Z" fill="#141414"/>
</svg>
