<svg width="24" height="24" viewBox="0 0 24 24" fill="none" xmlns="http://www.w3.org/2000/svg">
<path d="M21.0002 20H18.0002C18.519 19.6117 18.9981 19.1729 19.4302 18.69C20.963 16.9871 21.8645 14.8095 21.984 12.5215C22.1034 10.2335 21.4336 7.97385 20.0866 6.12056C18.7395 4.26726 16.7969 2.93273 14.5837 2.34021C12.3706 1.74768 10.021 1.9331 7.9282 2.86544C5.83536 3.79778 4.12614 5.42051 3.08646 7.46215C2.04678 9.50379 1.73971 11.8405 2.2166 14.0815C2.69349 16.3224 3.92542 18.3316 5.70632 19.773C7.48722 21.2145 9.70907 22.0006 12.0002 22H21.0002C21.2654 22 21.5198 21.8946 21.7073 21.7071C21.8948 21.5196 22.0002 21.2652 22.0002 21C22.0002 20.7348 21.8948 20.4804 21.7073 20.2929C21.5198 20.1054 21.2654 20 21.0002 20ZM6.0002 14C5.60463 14 5.21795 13.8827 4.88906 13.6629C4.56016 13.4432 4.30381 13.1308 4.15244 12.7654C4.00106 12.3999 3.96145 11.9978 4.03863 11.6098C4.1158 11.2219 4.30628 10.8655 4.58598 10.5858C4.86569 10.3061 5.22205 10.1156 5.61002 10.0384C5.99798 9.96126 6.40011 10.0009 6.76556 10.1522C7.13102 10.3036 7.44337 10.56 7.66314 10.8889C7.8829 11.2178 8.0002 11.6044 8.0002 12C8.0002 12.5304 7.78948 13.0391 7.41441 13.4142C7.03934 13.7893 6.53063 14 6.0002 14ZM12.0002 20C11.6046 20 11.218 19.8827 10.8891 19.6629C10.5602 19.4432 10.3038 19.1308 10.1524 18.7654C10.0011 18.3999 9.96145 17.9978 10.0386 17.6098C10.1158 17.2219 10.3063 16.8655 10.586 16.5858C10.8657 16.3061 11.2221 16.1156 11.61 16.0384C11.998 15.9613 12.4001 16.0009 12.7656 16.1522C13.131 16.3036 13.4434 16.56 13.6631 16.8889C13.8829 17.2178 14.0002 17.6044 14.0002 18C14.0002 18.5304 13.7895 19.0391 13.4144 19.4142C13.0393 19.7893 12.5306 20 12.0002 20ZM11.0002 12C11.0002 11.8022 11.0588 11.6089 11.1687 11.4444C11.2786 11.28 11.4348 11.1518 11.6175 11.0761C11.8002 11.0004 12.0013 10.9806 12.1953 11.0192C12.3893 11.0578 12.5674 11.153 12.7073 11.2929C12.8472 11.4328 12.9424 11.6109 12.981 11.8049C13.0196 11.9989 12.9998 12.2 12.9241 12.3827C12.8484 12.5654 12.7202 12.7216 12.5558 12.8315C12.3913 12.9414 12.198 13 12.0002 13C11.735 13 11.4806 12.8946 11.2931 12.7071C11.1056 12.5196 11.0002 12.2652 11.0002 12ZM12.0002 8.00001C11.6046 8.00001 11.218 7.88271 10.8891 7.66294C10.5602 7.44318 10.3038 7.13082 10.1524 6.76537C10.0011 6.39992 9.96145 5.99779 10.0386 5.60982C10.1158 5.22186 10.3063 4.8655 10.586 4.58579C10.8657 4.30609 11.2221 4.11561 11.61 4.03843C11.998 3.96126 12.4001 4.00087 12.7656 4.15225C13.131 4.30362 13.4434 4.55997 13.6631 4.88887C13.8829 5.21776 14.0002 5.60444 14.0002 6.00001C14.0002 6.53044 13.7895 7.03915 13.4144 7.41422C13.0393 7.78929 12.5306 8.00001 12.0002 8.00001ZM16.0002 12C16.0002 11.6044 16.1175 11.2178 16.3373 10.8889C16.557 10.56 16.8694 10.3036 17.2348 10.1522C17.6003 10.0009 18.0024 9.96126 18.3904 10.0384C18.7783 10.1156 19.1347 10.3061 19.4144 10.5858C19.6941 10.8655 19.8846 11.2219 19.9618 11.6098C20.0389 11.9978 19.9993 12.3999 19.848 12.7654C19.6966 13.1308 19.4402 13.4432 19.1113 13.6629C18.7824 13.8827 18.3958 14 18.0002 14C17.4698 14 16.9611 13.7893 16.586 13.4142C16.2109 13.0391 16.0002 12.5304 16.0002 12Z" fill="#141414"/>
</svg>
