<svg width="24" height="24" viewBox="0 0 24 24" fill="none" xmlns="http://www.w3.org/2000/svg">
<path d="M4 19C4 19.7956 4.31607 20.5587 4.87868 21.1213C5.44129 21.6839 6.20435 22 7 22H9C9.79565 22 10.5587 21.6839 11.1213 21.1213C11.6839 20.5587 12 19.7956 12 19V9H4V19ZM9 2H7C6.20435 2 5.44129 2.31607 4.87868 2.87868C4.31607 3.44129 4 4.20435 4 5V7H12V5C12 4.20435 11.6839 3.44129 11.1213 2.87868C10.5587 2.31607 9.79565 2 9 2ZM19.6 11.2L15.6 8.2C15.456 8.09817 15.2877 8.0362 15.1121 8.0204C14.9365 8.00459 14.7598 8.0355 14.6 8.11C14.4257 8.18597 14.2767 8.31005 14.1705 8.46768C14.0642 8.62531 14.0051 8.80996 14 9V15C14.0006 15.1847 14.0522 15.3656 14.1493 15.5227C14.2464 15.6798 14.3851 15.8069 14.55 15.89C14.7098 15.9645 14.8865 15.9954 15.0621 15.9796C15.2377 15.9638 15.406 15.9018 15.55 15.8L19.55 12.8C19.6742 12.7069 19.775 12.5861 19.8444 12.4472C19.9139 12.3084 19.95 12.1552 19.95 12C19.95 11.8448 19.9139 11.6916 19.8444 11.5528C19.775 11.4139 19.6742 11.2931 19.55 11.2H19.6Z" fill="#141414"/>
</svg>
