<svg width="24" height="24" viewBox="0 0 24 24" fill="none" xmlns="http://www.w3.org/2000/svg">
<path d="M20.71 8.29C20.6166 8.19732 20.5057 8.12399 20.3839 8.07423C20.2621 8.02446 20.1316 7.99924 20 8H9C8.73478 8 8.48043 8.10536 8.29289 8.29289C8.10536 8.48043 8 8.73478 8 9V15C8 19.65 13.91 21.85 14.16 21.94C14.3797 22.0194 14.6203 22.0194 14.84 21.94C15.09 21.85 21 19.65 21 15V9C21.0008 8.86839 20.9755 8.73793 20.9258 8.61609C20.876 8.49426 20.8027 8.38344 20.71 8.29ZM10.79 11.29C10.9546 11.1252 11.1715 11.0231 11.4034 11.0012C11.6352 10.9793 11.8675 11.039 12.06 11.17C12.2242 11.2786 12.3501 11.436 12.42 11.62C12.4972 11.8031 12.5181 12.005 12.48 12.2C12.4408 12.3922 12.346 12.5686 12.2073 12.7073C12.0686 12.846 11.8922 12.9408 11.7 12.98C11.505 13.0181 11.3031 12.9972 11.12 12.92C10.936 12.8501 10.7786 12.7242 10.67 12.56C10.539 12.3675 10.4793 12.1352 10.5012 11.9034C10.5231 11.6715 10.6252 11.4546 10.79 11.29ZM18.25 16.29C17.7851 16.8306 17.2085 17.2638 16.56 17.56C15.9137 17.8565 15.2111 18.01 14.5 18.01C13.7889 18.01 13.0863 17.8565 12.44 17.56C11.7915 17.2638 11.2149 16.8306 10.75 16.29C10.6398 16.1968 10.5511 16.0808 10.49 15.95C10.4231 15.8202 10.3888 15.676 10.39 15.53C10.3892 15.3851 10.4199 15.2418 10.48 15.11C10.5399 14.9756 10.6286 14.8561 10.74 14.76C10.8519 14.6683 10.9811 14.6003 11.12 14.56C11.2612 14.5253 11.4088 14.5253 11.55 14.56C11.6951 14.5772 11.8331 14.6324 11.95 14.72C12.0714 14.8003 12.1737 14.9061 12.25 15.03C12.527 15.3474 12.8677 15.603 13.25 15.78C13.6357 15.9577 14.0553 16.0497 14.48 16.0497C14.9047 16.0497 15.3243 15.9577 15.71 15.78C16.0923 15.603 16.433 15.3474 16.71 15.03C16.8432 14.8905 17.0139 14.7925 17.2015 14.7478C17.3892 14.7031 17.5857 14.7136 17.7675 14.7781C17.9493 14.8426 18.1086 14.9582 18.2261 15.1112C18.3436 15.2641 18.4145 15.4477 18.43 15.64C18.4543 15.881 18.3904 16.1226 18.25 16.32V16.29ZM18.25 12.68C18.0854 12.8448 17.8685 12.9469 17.6366 12.9688C17.4048 12.9907 17.1725 12.931 16.98 12.8C16.8158 12.6914 16.6899 12.534 16.62 12.35C16.5428 12.1669 16.5219 11.965 16.56 11.77C16.598 11.5848 16.6876 11.4142 16.8186 11.2779C16.9496 11.1417 17.1165 11.0453 17.3 11C17.495 10.9619 17.6969 10.9828 17.88 11.06C18.064 11.1299 18.2214 11.2558 18.33 11.42C18.461 11.6125 18.5207 11.8448 18.4988 12.0766C18.4769 12.3085 18.3748 12.5254 18.21 12.69L18.25 12.68ZM16 6V3C16 2.73478 15.8946 2.48043 15.7071 2.29289C15.5196 2.10536 15.2652 2 15 2H4C3.73478 2 3.48043 2.10536 3.29289 2.29289C3.10536 2.48043 3 2.73478 3 3V9C3.05805 10.0397 3.35983 11.0512 3.88097 11.9528C4.40211 12.8544 5.128 13.6208 6 14.19V9C6.00077 8.59786 6.08239 8.19997 6.24 7.83C6.38959 7.45277 6.61802 7.11183 6.91 6.83C7.19524 6.54706 7.53563 6.32581 7.91 6.18C8.28482 6.0454 8.68206 5.98429 9.08 6H16Z" fill="#141414"/>
</svg>
