<svg width="24" height="24" viewBox="0 0 24 24" fill="none" xmlns="http://www.w3.org/2000/svg">
<path d="M6.34 7.76C6.53163 7.94273 6.78523 8.04632 7.05 8.05C7.18132 8.05 7.31136 8.02413 7.43268 7.97388C7.55401 7.92362 7.66425 7.84997 7.75711 7.75711C7.84997 7.66425 7.92362 7.55401 7.97388 7.43268C8.02413 7.31136 8.05 7.18132 8.05 7.05C8.04632 6.78523 7.94273 6.53163 7.76 6.34L7.05 5.64C6.95739 5.54551 6.84694 5.47034 6.72507 5.41885C6.60319 5.36735 6.47231 5.34055 6.34 5.34C6.07478 5.34 5.82043 5.44536 5.63289 5.63289C5.44536 5.82043 5.34 6.07478 5.34 6.34C5.34055 6.47231 5.36735 6.60319 5.41885 6.72507C5.47034 6.84694 5.54551 6.95739 5.64 7.05L6.34 7.76ZM12 6C12.2652 6 12.5196 5.89464 12.7071 5.70711C12.8946 5.51957 13 5.26522 13 5V4C13 3.73478 12.8946 3.48043 12.7071 3.29289C12.5196 3.10536 12.2652 3 12 3C11.7348 3 11.4804 3.10536 11.2929 3.29289C11.1054 3.48043 11 3.73478 11 4V5C11 5.26522 11.1054 5.51957 11.2929 5.70711C11.4804 5.89464 11.7348 6 12 6ZM6 12C6 11.7348 5.89464 11.4804 5.70711 11.2929C5.51957 11.1054 5.26522 11 5 11H4C3.73478 11 3.48043 11.1054 3.29289 11.2929C3.10536 11.4804 3 11.7348 3 12C3 12.2652 3.10536 12.5196 3.29289 12.7071C3.48043 12.8946 3.73478 13 4 13H5C5.26522 13 5.51957 12.8946 5.70711 12.7071C5.89464 12.5196 6 12.2652 6 12ZM17 8.05C17.2648 8.04632 17.5184 7.94273 17.71 7.76L18.41 7.05C18.5045 6.95739 18.5797 6.84694 18.6312 6.72507C18.6827 6.60319 18.7094 6.47231 18.71 6.34C18.71 6.07478 18.6046 5.82043 18.4171 5.63289C18.2296 5.44536 17.9752 5.34 17.71 5.34C17.5777 5.34055 17.4468 5.36735 17.3249 5.41885C17.2031 5.47034 17.0926 5.54551 17 5.64L16.29 6.34C16.1073 6.53163 16.0037 6.78523 16 7.05C16 7.31522 16.1054 7.56957 16.2929 7.75711C16.4804 7.94464 16.7348 8.05 17 8.05ZM20.76 11.29C20.6607 11.1911 20.5417 11.1142 20.4108 11.0642C20.2799 11.0143 20.1399 10.9924 20 11H19C18.7348 11 18.4804 11.1054 18.2929 11.2929C18.1054 11.4804 18 11.7348 18 12C18 12.2652 18.1054 12.5196 18.2929 12.7071C18.4804 12.8946 18.7348 13 19 13H20C20.1986 13.0012 20.3931 12.9431 20.5586 12.8333C20.7241 12.7235 20.8532 12.5669 20.9294 12.3835C21.0055 12.2 21.0254 11.9981 20.9863 11.8033C20.9472 11.6086 20.851 11.4299 20.71 11.29H20.76ZM17.71 16.24C17.5109 16.0754 17.2581 15.9899 17 16C16.7348 16 16.4804 16.1054 16.2929 16.2929C16.1054 16.4804 16 16.7348 16 17C16.0037 17.2648 16.1073 17.5184 16.29 17.71L17 18.41C17.0926 18.5045 17.2031 18.5797 17.3249 18.6312C17.4468 18.6827 17.5777 18.7094 17.71 18.71C17.9752 18.71 18.2296 18.6046 18.4171 18.4171C18.6046 18.2296 18.71 17.9752 18.71 17.71C18.7094 17.5777 18.6827 17.4468 18.6312 17.3249C18.5797 17.2031 18.5045 17.0926 18.41 17L17.71 16.24ZM12 7C11.0111 7 10.0444 7.29324 9.22215 7.84265C8.3999 8.39206 7.75904 9.17295 7.3806 10.0866C7.00216 11.0002 6.90315 12.0055 7.09607 12.9755C7.289 13.9454 7.7652 14.8363 8.46447 15.5355C9.16373 16.2348 10.0546 16.711 11.0245 16.9039C11.9945 17.0969 12.9998 16.9978 13.9134 16.6194C14.827 16.241 15.6079 15.6001 16.1573 14.7779C16.7068 13.9556 17 12.9889 17 12C17 10.6739 16.4732 9.40215 15.5355 8.46447C14.5979 7.52678 13.3261 7 12 7ZM12 15C11.2577 14.9825 10.5482 14.6902 10.0089 14.1799C9.46958 13.6695 9.13867 12.9773 9.0802 12.2371C9.02173 11.4969 9.23985 10.7613 9.69237 10.1725C10.1449 9.58385 10.7996 9.18387 11.53 9.05C11.1864 9.64269 11.0037 10.3149 11 11C11.0014 11.7734 11.227 12.5297 11.6494 13.1775C12.0718 13.8253 12.6729 14.3368 13.38 14.65C12.9556 14.878 12.4817 14.9982 12 15ZM7.05 16C6.78523 16.0037 6.53163 16.1073 6.34 16.29L5.64 17C5.54551 17.0926 5.47034 17.2031 5.41885 17.3249C5.36735 17.4468 5.34055 17.5777 5.34 17.71C5.34 17.9752 5.44536 18.2296 5.63289 18.4171C5.82043 18.6046 6.07478 18.71 6.34 18.71C6.47231 18.7094 6.60319 18.6827 6.72507 18.6312C6.84694 18.5797 6.95739 18.5045 7.05 18.41L7.76 17.71C7.94273 17.5184 8.04632 17.2648 8.05 17C8.05 16.7348 7.94464 16.4804 7.75711 16.2929C7.56957 16.1054 7.31522 16 7.05 16ZM12 18C11.7348 18 11.4804 18.1054 11.2929 18.2929C11.1054 18.4804 11 18.7348 11 19V20C11 20.2652 11.1054 20.5196 11.2929 20.7071C11.4804 20.8946 11.7348 21 12 21C12.2652 21 12.5196 20.8946 12.7071 20.7071C12.8946 20.5196 13 20.2652 13 20V19C13 18.7348 12.8946 18.4804 12.7071 18.2929C12.5196 18.1054 12.2652 18 12 18Z" fill="#141414"/>
</svg>
