<svg width="24" height="24" viewBox="0 0 24 24" fill="none" xmlns="http://www.w3.org/2000/svg">
<path d="M11 13C10.3517 13.0042 9.71216 12.8507 9.13637 12.5528C8.56058 12.2549 8.06581 11.8216 7.69468 11.29C7.32355 10.7585 7.08717 10.1447 7.0059 9.50154C6.92463 8.85837 7.0009 8.20508 7.22815 7.59793C7.45539 6.99079 7.82681 6.44797 8.3104 6.01622C8.794 5.58447 9.37529 5.27674 10.0042 5.11951C10.6331 4.96228 11.2909 4.96027 11.9207 5.11365C12.5506 5.26704 13.1338 5.57122 13.62 6H17V5C17 4.20435 16.6839 3.44129 16.1213 2.87868C15.5587 2.31607 14.7956 2 14 2H8C7.20435 2 6.44129 2.31607 5.87868 2.87868C5.31607 3.44129 5 4.20435 5 5V19C5 19.7956 5.31607 20.5587 5.87868 21.1213C6.44129 21.6839 7.20435 22 8 22H14C14.7956 22 15.5587 21.6839 16.1213 21.1213C16.6839 20.5587 17 19.7956 17 19V12H13.62C12.896 12.6386 11.9654 12.9938 11 13ZM12 17.61V19C12 19.2652 11.8946 19.5196 11.7071 19.7071C11.5196 19.8946 11.2652 20 11 20C10.7348 20 10.4804 19.8946 10.2929 19.7071C10.1054 19.5196 10 19.2652 10 19V17.61C9.77357 17.4075 9.61397 17.141 9.54232 16.8458C9.47067 16.5505 9.49034 16.2405 9.59874 15.9567C9.70714 15.6729 9.89915 15.4288 10.1494 15.2565C10.3996 15.0842 10.6962 14.992 11 14.992C11.3038 14.992 11.6004 15.0842 11.8506 15.2565C12.1008 15.4288 12.2929 15.6729 12.4013 15.9567C12.5097 16.2405 12.5293 16.5505 12.4577 16.8458C12.386 17.141 12.2264 17.4075 12 17.61ZM19 8H12.72C12.4999 7.61872 12.1601 7.32072 11.7533 7.15224C11.3466 6.98376 10.8956 6.9542 10.4703 7.06815C10.045 7.1821 9.66926 7.43319 9.40124 7.78248C9.13322 8.13177 8.98795 8.55973 8.98795 9C8.98795 9.44027 9.13322 9.86823 9.40124 10.2175C9.66926 10.5668 10.045 10.8179 10.4703 10.9319C10.8956 11.0458 11.3466 11.0162 11.7533 10.8478C12.1601 10.6793 12.4999 10.3813 12.72 10H19C19.2652 10 19.5196 9.89464 19.7071 9.70711C19.8946 9.51957 20 9.26522 20 9C20 8.73478 19.8946 8.48043 19.7071 8.29289C19.5196 8.10536 19.2652 8 19 8Z" fill="#141414"/>
</svg>
