<svg width="24" height="24" viewBox="0 0 24 24" fill="none" xmlns="http://www.w3.org/2000/svg">
<path d="M9 2H7C6.20435 2 5.44129 2.31607 4.87868 2.87868C4.31607 3.44129 4 4.20435 4 5V7H12V5C12 4.20435 11.6839 3.44129 11.1213 2.87868C10.5587 2.31607 9.79565 2 9 2ZM4 19C4 19.7956 4.31607 20.5587 4.87868 21.1213C5.44129 21.6839 6.20435 22 7 22H9C9.79565 22 10.5587 21.6839 11.1213 21.1213C11.6839 20.5587 12 19.7956 12 19V9H4V19ZM19.9 6.57C19.8291 6.42569 19.7265 6.29922 19.6 6.2C19.4748 6.09982 19.3273 6.03122 19.17 6C19.0188 5.96425 18.8612 5.96425 18.71 6L14 7.44V9.57L18 8.38V13C17.6034 13 17.2158 13.1179 16.8864 13.3387C16.557 13.5595 16.3007 13.8732 16.15 14.24C15.9993 14.6061 15.9607 15.0087 16.0391 15.3968C16.1174 15.7849 16.3091 16.141 16.59 16.42C16.8596 16.6989 17.2089 16.8875 17.59 16.96C17.9774 17.0366 18.3789 16.9967 18.7437 16.8454C19.1085 16.6941 19.4204 16.4383 19.64 16.11C19.8677 15.784 19.993 15.3976 20 15V7C19.9991 6.85101 19.965 6.70409 19.9 6.57Z" fill="#141414"/>
</svg>
