<svg width="24" height="24" viewBox="0 0 24 24" fill="none" xmlns="http://www.w3.org/2000/svg">
<path d="M10.0002 5C10.2969 5 10.5869 4.91203 10.8336 4.7472C11.0802 4.58238 11.2725 4.34811 11.386 4.07403C11.4995 3.79994 11.5293 3.49834 11.4714 3.20737C11.4135 2.91639 11.2706 2.64912 11.0609 2.43934C10.8511 2.22956 10.5838 2.0867 10.2928 2.02882C10.0019 1.97094 9.70026 2.00065 9.42617 2.11418C9.15208 2.22771 8.91781 2.41997 8.75299 2.66665C8.58817 2.91332 8.5002 3.20333 8.5002 3.5C8.5002 3.89783 8.65823 4.27936 8.93954 4.56066C9.22084 4.84197 9.60237 5 10.0002 5ZM21.8902 18.55C21.7703 18.3145 21.5621 18.136 21.311 18.0535C21.0599 17.9711 20.7864 17.9914 20.5502 18.11L19.4502 18.66L16.8902 13.55C16.8071 13.3851 16.68 13.2464 16.5229 13.1493C16.3658 13.0522 16.1849 13.0006 16.0002 13H11.0002V11H15.0002C15.2654 11 15.5198 10.8946 15.7073 10.7071C15.8948 10.5196 16.0002 10.2652 16.0002 10C16.0002 9.73478 15.8948 9.48043 15.7073 9.29289C15.5198 9.10536 15.2654 9 15.0002 9H11.0002V7C11.0002 6.73478 10.8948 6.48043 10.7073 6.29289C10.5198 6.10536 10.2654 6 10.0002 6C9.73498 6 9.48063 6.10536 9.29309 6.29289C9.10555 6.48043 9.0002 6.73478 9.0002 7V9C7.77284 9.10343 6.60026 9.55399 5.61945 10.299C4.63863 11.0441 3.89007 12.0528 3.46124 13.2075C3.0324 14.3621 2.94099 15.615 3.19768 16.8196C3.45437 18.0243 4.04856 19.131 4.91084 20.0105C5.77313 20.8901 6.86788 21.5061 8.06723 21.7866C9.26657 22.067 10.521 22.0005 11.6839 21.5946C12.8468 21.1887 13.8702 20.4602 14.6345 19.4944C15.3988 18.5285 15.8725 17.3651 16.0002 16.14L18.1402 20.42C18.2168 20.5861 18.3375 20.728 18.4891 20.8302C18.6407 20.9325 18.8175 20.9912 19.0002 21C19.1571 21.0019 19.3119 20.964 19.4502 20.89L21.4502 19.89C21.6857 19.7701 21.8642 19.5619 21.9467 19.3108C22.0291 19.0597 22.0088 18.7862 21.8902 18.55ZM14.0002 15.5C14.0045 16.3696 13.7567 17.2219 13.2868 17.9536C12.8169 18.6854 12.1451 19.2653 11.3525 19.6232C10.56 19.9812 9.68069 20.1018 8.82102 19.9706C7.96136 19.8393 7.15814 19.4618 6.50853 18.8836C5.85892 18.3055 5.39074 17.5515 5.16064 16.7128C4.93054 15.8742 4.94836 14.9869 5.21195 14.1581C5.47555 13.3294 5.97362 12.5948 6.64592 12.0432C7.31822 11.4916 8.13595 11.1466 9.0002 11.05V14C9.0002 14.2652 9.10555 14.5196 9.29309 14.7071C9.48063 14.8946 9.73498 15 10.0002 15H14.0002V15.5Z" fill="#141414"/>
</svg>
