<svg width="24" height="24" viewBox="0 0 24 24" fill="none" xmlns="http://www.w3.org/2000/svg">
<path d="M19 5H5C4.20435 5 3.44129 5.31607 2.87868 5.87868C2.31607 6.44129 2 7.20435 2 8V16C2 16.7956 2.31607 17.5587 2.87868 18.1213C3.44129 18.6839 4.20435 19 5 19H19C19.7956 19 20.5587 18.6839 21.1213 18.1213C21.6839 17.5587 22 16.7956 22 16V8C22 7.20435 21.6839 6.44129 21.1213 5.87868C20.5587 5.31607 19.7956 5 19 5ZM14 15C14 15.2652 13.8946 15.5196 13.7071 15.7071C13.5196 15.8946 13.2652 16 13 16C12.7348 16 12.4804 15.8946 12.2929 15.7071C12.1054 15.5196 12 15.2652 12 15V11.41L11.71 11.71C11.5217 11.8983 11.2663 12.0041 11 12.0041C10.7337 12.0041 10.4783 11.8983 10.29 11.71C10.1017 11.5217 9.99591 11.2663 9.99591 11C9.99591 10.7337 10.1017 10.4783 10.29 10.29L12.29 8.29C12.4306 8.15124 12.6092 8.05725 12.8032 8.01987C12.9972 7.9825 13.1979 8.00342 13.38 8.08C13.5626 8.15502 13.7189 8.28242 13.8293 8.44614C13.9396 8.60986 13.999 8.80257 14 9V15ZM19.71 13.71L17.71 15.71C17.6166 15.8027 17.5057 15.876 17.3839 15.9258C17.2621 15.9755 17.1316 16.0008 17 16C16.8688 16.0034 16.7387 15.976 16.62 15.92C16.4374 15.845 16.2811 15.7176 16.1707 15.5539C16.0604 15.3901 16.001 15.1974 16 15V9C16 8.73478 16.1054 8.48043 16.2929 8.29289C16.4804 8.10536 16.7348 8 17 8C17.2652 8 17.5196 8.10536 17.7071 8.29289C17.8946 8.48043 18 8.73478 18 9V12.59L18.29 12.29C18.4783 12.1017 18.7337 11.9959 19 11.9959C19.2663 11.9959 19.5217 12.1017 19.71 12.29C19.8983 12.4783 20.0041 12.7337 20.0041 13C20.0041 13.2663 19.8983 13.5217 19.71 13.71Z" fill="#141414"/>
</svg>
