<svg width="24" height="24" viewBox="0 0 24 24" fill="none" xmlns="http://www.w3.org/2000/svg">
<path d="M18 3H6C5.20435 3 4.44129 3.31607 3.87868 3.87868C3.31607 4.44129 3 5.20435 3 6V18C3 18.7956 3.31607 19.5587 3.87868 20.1213C4.44129 20.6839 5.20435 21 6 21H18C18.7956 21 19.5587 20.6839 20.1213 20.1213C20.6839 19.5587 21 18.7956 21 18V6C21 5.20435 20.6839 4.44129 20.1213 3.87868C19.5587 3.31607 18.7956 3 18 3ZM12 17C11.7348 17 11.4804 16.8946 11.2929 16.7071C11.1054 16.5196 11 16.2652 11 16C11 15.7348 11.1054 15.4804 11.2929 15.2929C11.4804 15.1054 11.7348 15 12 15C12.578 14.9963 13.1426 14.8257 13.626 14.5086C14.1093 14.1916 14.4908 13.7418 14.7245 13.2131C14.9582 12.6844 15.0342 12.0995 14.9434 11.5287C14.8526 10.9579 14.5988 10.4254 14.2125 9.99538C13.8263 9.56536 13.324 9.25608 12.7662 9.10473C12.2083 8.95338 11.6186 8.96641 11.068 9.14225C10.5174 9.31809 10.0293 9.64925 9.66243 10.0959C9.29555 10.5426 9.06552 11.0857 9 11.66L9.29 11.39C9.47736 11.2037 9.73081 11.0992 9.995 11.0992C10.2592 11.0992 10.5126 11.2037 10.7 11.39C10.8798 11.5839 10.9754 11.8411 10.9661 12.1053C10.9567 12.3696 10.843 12.6193 10.65 12.8L8.65 14.68C8.5897 14.7324 8.52238 14.7762 8.45 14.81L8.34 14.88C8.23547 14.9416 8.12001 14.9823 8 15C7.86932 14.9984 7.74022 14.9712 7.62 14.92C7.57983 14.9027 7.5427 14.8791 7.51 14.85C7.43087 14.8131 7.35691 14.7661 7.29 14.71L5.29 12.71C5.19676 12.6168 5.1228 12.5061 5.07234 12.3842C5.02188 12.2624 4.99591 12.1319 4.99591 12C4.99591 11.7337 5.1017 11.4783 5.29 11.29C5.4783 11.1017 5.7337 10.9959 6 10.9959C6.2663 10.9959 6.5217 11.1017 6.71 11.29L7.04 11.62C7.11402 10.649 7.46997 9.72078 8.06414 8.94926C8.65832 8.17774 9.46485 7.59652 10.3847 7.27696C11.3046 6.95739 12.2978 6.9134 13.2423 7.15037C14.1868 7.38735 15.0416 7.89498 15.7016 8.61094C16.3617 9.32689 16.7983 10.22 16.9579 11.1807C17.1175 12.1413 16.9931 13.1276 16.6 14.0185C16.2069 14.9095 15.5622 15.6662 14.745 16.1958C13.9278 16.7255 12.9738 17.005 12 17Z" fill="#141414"/>
</svg>
