<svg width="24" height="24" viewBox="0 0 24 24" fill="none" xmlns="http://www.w3.org/2000/svg">
<path d="M15.23 2.41998C14.9896 2.23298 14.7097 2.10334 14.4117 2.04095C14.1136 1.97857 13.8052 1.98507 13.51 2.05998L5.51 4.05998C5.07825 4.16908 4.69526 4.41916 4.42173 4.77058C4.14821 5.122 3.99979 5.55465 4 5.99998V18C3.99979 18.4453 4.14821 18.878 4.42173 19.2294C4.69526 19.5808 5.07825 19.8309 5.51 19.94L13.51 21.94C13.6703 21.9796 13.8348 21.9998 14 22C14.4453 22.0008 14.8782 21.853 15.23 21.58C15.4702 21.3926 15.6644 21.1529 15.7979 20.8791C15.9313 20.6053 16.0004 20.3046 16 20V3.99998C16.0004 3.69537 15.9313 3.39468 15.7979 3.12086C15.6644 2.84704 15.4702 2.60731 15.23 2.41998ZM13 13C12.8022 13 12.6089 12.9413 12.4444 12.8314C12.28 12.7216 12.1518 12.5654 12.0761 12.3827C12.0004 12.1999 11.9806 11.9989 12.0192 11.8049C12.0578 11.6109 12.153 11.4327 12.2929 11.2929C12.4327 11.153 12.6109 11.0578 12.8049 11.0192C12.9989 10.9806 13.2 11.0004 13.3827 11.0761C13.5654 11.1518 13.7216 11.28 13.8315 11.4444C13.9414 11.6089 14 11.8022 14 12C14 12.2652 13.8946 12.5195 13.7071 12.7071C13.5196 12.8946 13.2652 13 13 13ZM19 3.99998C18.7348 3.99998 18.4804 4.10533 18.2929 4.29287C18.1054 4.48041 18 4.73476 18 4.99998V19C18 19.2652 18.1054 19.5195 18.2929 19.7071C18.4804 19.8946 18.7348 20 19 20C19.2652 20 19.5196 19.8946 19.7071 19.7071C19.8946 19.5195 20 19.2652 20 19V4.99998C20 4.73476 19.8946 4.48041 19.7071 4.29287C19.5196 4.10533 19.2652 3.99998 19 3.99998Z" fill="#141414"/>
</svg>
