<svg width="24" height="24" viewBox="0 0 24 24" fill="none" xmlns="http://www.w3.org/2000/svg">
<path d="M8 20.33C8.07882 20.8014 8.32386 21.229 8.69074 21.5354C9.05762 21.8417 9.52208 22.0065 10 22H16C16.4779 22.0065 16.9424 21.8417 17.3093 21.5354C17.6761 21.229 17.9212 20.8014 18 20.33L19.36 12H6.64L8 20.33ZM21 2H17C16.7904 1.99946 16.5858 2.06482 16.4154 2.18685C16.2449 2.30887 16.1171 2.48138 16.05 2.68L15 6H10C10 5.20888 9.76541 4.43552 9.32588 3.77772C8.88635 3.11993 8.26164 2.60724 7.53074 2.30449C6.79983 2.00173 5.99556 1.92252 5.21964 2.07686C4.44372 2.2312 3.73098 2.61217 3.17157 3.17158C2.61216 3.73099 2.2312 4.44372 2.07686 5.21964C1.92252 5.99557 2.00173 6.79983 2.30448 7.53074C2.60723 8.26164 3.11992 8.88636 3.77772 9.32588C4.43552 9.76541 5.20888 10 6 10H6.3H19.69L20 8.33C20.0484 8.04422 20.0342 7.75133 19.9582 7.47161C19.8822 7.19188 19.7464 6.93202 19.56 6.71C19.3688 6.48345 19.1297 6.30222 18.8599 6.17942C18.5901 6.05663 18.2964 5.99535 18 6H17.05L17.72 4H21C21.2652 4 21.5196 3.89465 21.7071 3.70711C21.8946 3.51957 22 3.26522 22 3C22 2.73479 21.8946 2.48043 21.7071 2.2929C21.5196 2.10536 21.2652 2 21 2ZM6.47 6.71C6.16603 7.07107 5.99954 7.52802 6 8C5.60444 8 5.21776 7.88271 4.88886 7.66294C4.55996 7.44318 4.30362 7.13082 4.15224 6.76537C4.00087 6.39992 3.96126 5.99778 4.03843 5.60982C4.1156 5.22186 4.30608 4.86549 4.58579 4.58579C4.86549 4.30608 5.22186 4.1156 5.60982 4.03843C5.99778 3.96126 6.39992 4.00087 6.76537 4.15224C7.13082 4.30362 7.44318 4.55996 7.66294 4.88886C7.8827 5.21776 8 5.60444 8 6C7.70865 5.99977 7.42077 6.06318 7.15649 6.18582C6.89221 6.30846 6.65792 6.48736 6.47 6.71Z" fill="#141414"/>
</svg>
