<svg width="24" height="24" viewBox="0 0 24 24" fill="none" xmlns="http://www.w3.org/2000/svg">
<path d="M17.8941 6.55015C17.8102 6.38635 17.6827 6.24888 17.5256 6.15289C17.3686 6.0569 17.1881 6.00611 17.0041 6.00611C16.82 6.00611 16.6396 6.0569 16.4825 6.15289C16.3255 6.24888 16.198 6.38635 16.1141 6.55015C15.7992 7.15296 15.3793 7.69478 14.8741 8.15015C14.6135 6.13116 13.9322 4.18932 12.8741 2.45015C12.76 2.25513 12.5832 2.10449 12.3726 2.02277C12.162 1.94106 11.9298 1.93308 11.7141 2.00015C11.5015 2.06434 11.3164 2.19747 11.1878 2.37853C11.0592 2.55959 10.9946 2.77829 11.0041 3.00015C10.9156 3.96291 10.4653 4.85629 9.74409 5.50015L19.8041 15.5602C20.3541 12.3602 19.0541 8.86015 17.8941 6.55015ZM20.7141 19.2902L4.71409 3.29015C4.52579 3.10185 4.27039 2.99606 4.00409 2.99606C3.73779 2.99606 3.4824 3.10185 3.29409 3.29015C3.10579 3.47845 3 3.73385 3 4.00015C3 4.26645 3.10579 4.52185 3.29409 4.71015L6.63409 8.00015C5.68109 8.86246 4.94988 9.94169 4.50234 11.1465C4.0548 12.3513 3.90412 13.6461 4.06305 14.9215C4.22198 16.1968 4.68584 17.4151 5.41537 18.4732C6.14489 19.5313 7.11861 20.3981 8.25409 21.0002C8.14321 20.4818 8.16579 19.9438 8.31971 19.4365C8.47363 18.9293 8.75385 18.4695 9.13409 18.1002C10.1341 17.0202 11.0041 16.1002 11.0041 15.3702C11.0155 15.2907 11.0459 15.2152 11.0927 15.1499C11.1395 15.0847 11.2013 15.0317 11.2729 14.9954C11.3445 14.9592 11.4238 14.9406 11.5041 14.9415C11.5844 14.9423 11.6632 14.9624 11.7341 15.0002C12.7326 15.5489 13.4944 16.4459 13.8741 17.5202C14.9241 15.3902 16.2141 19.7101 15.8741 20.9701C16.6602 20.5424 17.3781 19.9997 18.0041 19.3602L19.3441 20.7101C19.4371 20.8039 19.5477 20.8783 19.6695 20.929C19.7914 20.9798 19.9221 21.0059 20.0541 21.0059C20.1861 21.0059 20.3168 20.9798 20.4387 20.929C20.5605 20.8783 20.6711 20.8039 20.7641 20.7101C20.8546 20.6139 20.9252 20.5007 20.9717 20.3771C21.0182 20.2534 21.0398 20.1218 21.0352 19.9897C21.0305 19.8577 20.9997 19.7279 20.9446 19.6078C20.8895 19.4877 20.8112 19.3798 20.7141 19.2902Z" fill="#141414"/>
</svg>
