<svg width="24" height="24" viewBox="0 0 24 24" fill="none" xmlns="http://www.w3.org/2000/svg">
<path d="M18.9998 5H7.99976C7.54586 5.00683 7.09943 5.11658 6.6941 5.32097C6.28877 5.52537 5.93511 5.81909 5.65976 6.18L2.60976 10.18C2.21076 10.7028 1.99463 11.3423 1.99463 12C1.99463 12.6577 2.21076 13.2972 2.60976 13.82L5.65976 17.82C5.93511 18.1809 6.28877 18.4746 6.6941 18.679C7.09943 18.8834 7.54586 18.9932 7.99976 19H18.9998C19.7954 19 20.5585 18.6839 21.1211 18.1213C21.6837 17.5587 21.9998 16.7956 21.9998 16V8C21.9998 7.20435 21.6837 6.44129 21.1211 5.87868C20.5585 5.31607 19.7954 5 18.9998 5ZM17.7098 13.29C17.8035 13.383 17.8779 13.4936 17.9287 13.6154C17.9794 13.7373 18.0056 13.868 18.0056 14C18.0056 14.132 17.9794 14.2627 17.9287 14.3846C17.8779 14.5064 17.8035 14.617 17.7098 14.71C17.6168 14.8037 17.5062 14.8781 17.3843 14.9289C17.2625 14.9797 17.1318 15.0058 16.9998 15.0058C16.8677 15.0058 16.737 14.9797 16.6152 14.9289C16.4933 14.8781 16.3827 14.8037 16.2898 14.71L14.9998 13.41L13.7098 14.71C13.6168 14.8037 13.5062 14.8781 13.3843 14.9289C13.2625 14.9797 13.1318 15.0058 12.9998 15.0058C12.8677 15.0058 12.737 14.9797 12.6152 14.9289C12.4933 14.8781 12.3827 14.8037 12.2898 14.71C12.196 14.617 12.1216 14.5064 12.0709 14.3846C12.0201 14.2627 11.994 14.132 11.994 14C11.994 13.868 12.0201 13.7373 12.0709 13.6154C12.1216 13.4936 12.196 13.383 12.2898 13.29L13.5898 12L12.2898 10.71C12.1015 10.5217 11.9957 10.2663 11.9957 10C11.9957 9.7337 12.1015 9.4783 12.2898 9.29C12.4781 9.1017 12.7335 8.99591 12.9998 8.99591C13.2661 8.99591 13.5215 9.1017 13.7098 9.29L14.9998 10.59L16.2898 9.29C16.4781 9.1017 16.7335 8.99591 16.9998 8.99591C17.2661 8.99591 17.5215 9.1017 17.7098 9.29C17.8981 9.4783 18.0039 9.7337 18.0039 10C18.0039 10.2663 17.8981 10.5217 17.7098 10.71L16.4098 12L17.7098 13.29Z" fill="#141414"/>
</svg>
