<svg width="24" height="24" viewBox="0 0 24 24" fill="none" xmlns="http://www.w3.org/2000/svg">
<path d="M12 2C10.0222 2 8.08879 2.58649 6.4443 3.6853C4.79981 4.78412 3.51809 6.3459 2.76121 8.17317C2.00433 10.0004 1.8063 12.0111 2.19215 13.9509C2.578 15.8907 3.53041 17.6725 4.92894 19.0711C6.32746 20.4696 8.10929 21.422 10.0491 21.8079C11.9889 22.1937 13.9996 21.9957 15.8268 21.2388C17.6541 20.4819 19.2159 19.2002 20.3147 17.5557C21.4135 15.9112 22 13.9778 22 12C22 10.6868 21.7413 9.38642 21.2388 8.17317C20.7363 6.95991 19.9997 5.85752 19.0711 4.92893C18.1425 4.00035 17.0401 3.26375 15.8268 2.7612C14.6136 2.25866 13.3132 2 12 2ZM12 20C10.0859 19.9928 8.23782 19.2995 6.79124 18.046C5.34467 16.7925 4.39548 15.0618 4.11597 13.1682C3.83647 11.2746 4.24518 9.34357 5.26791 7.72558C6.29065 6.10759 7.85961 4.90993 9.69 4.35C9.14352 5.74225 8.9163 7.23936 9.02507 8.73107C9.13385 10.2228 9.57585 11.6711 10.3185 12.9693C11.0612 14.2676 12.0856 15.3827 13.3164 16.2326C14.5471 17.0824 15.9529 17.6454 17.43 17.88C15.951 19.2444 14.0122 20.0014 12 20Z" fill="#141414"/>
</svg>
