<svg width="24" height="24" viewBox="0 0 24 24" fill="none" xmlns="http://www.w3.org/2000/svg">
<path d="M5 19C5 19.7956 5.31607 20.5587 5.87868 21.1213C6.44129 21.6839 7.20435 22 8 22H16C16.7956 22 17.5587 21.6839 18.1213 21.1213C18.6839 20.5587 19 19.7956 19 19V16H5V19ZM12 18C12.1978 18 12.3911 18.0586 12.5556 18.1685C12.72 18.2784 12.8482 18.4346 12.9239 18.6173C12.9996 18.8 13.0194 19.0011 12.9808 19.1951C12.9422 19.3891 12.847 19.5673 12.7071 19.7071C12.5673 19.847 12.3891 19.9422 12.1951 19.9808C12.0011 20.0194 11.8 19.9996 11.6173 19.9239C11.4346 19.8482 11.2784 19.72 11.1685 19.5556C11.0586 19.3911 11 19.1978 11 19C11 18.7348 11.1054 18.4804 11.2929 18.2929C11.4804 18.1054 11.7348 18 12 18ZM16 2H8C7.20435 2 6.44129 2.31607 5.87868 2.87868C5.31607 3.44129 5 4.20435 5 5V14H19V5C19 4.20435 18.6839 3.44129 18.1213 2.87868C17.5587 2.31607 16.7956 2 16 2ZM12 12C11.2089 12 10.4355 11.7654 9.77772 11.3259C9.11992 10.8864 8.60723 10.2616 8.30448 9.53073C8.00173 8.79983 7.92252 7.99556 8.07686 7.21964C8.2312 6.44371 8.61216 5.73098 9.17157 5.17157C9.73098 4.61216 10.4437 4.2312 11.2196 4.07686C11.9956 3.92252 12.7998 4.00173 13.5307 4.30448C14.2616 4.60723 14.8864 5.11992 15.3259 5.77772C15.7654 6.43552 16 7.20887 16 8C16 9.06087 15.5786 10.0783 14.8284 10.8284C14.0783 11.5786 13.0609 12 12 12ZM12 6C11.6044 6 11.2178 6.1173 10.8889 6.33706C10.56 6.55682 10.3036 6.86918 10.1522 7.23463C10.0009 7.60009 9.96126 8.00222 10.0384 8.39018C10.1156 8.77814 10.3061 9.13451 10.5858 9.41421C10.8655 9.69392 11.2219 9.8844 11.6098 9.96157C11.9978 10.0387 12.3999 9.99913 12.7654 9.84776C13.1308 9.69638 13.4432 9.44004 13.6629 9.11114C13.8827 8.78224 14 8.39556 14 8C14 7.46957 13.7893 6.96086 13.4142 6.58579C13.0391 6.21071 12.5304 6 12 6Z" fill="#141414"/>
</svg>
