<svg width="24" height="24" viewBox="0 0 24 24" fill="none" xmlns="http://www.w3.org/2000/svg">
<path d="M12 2C10.0222 2 8.08879 2.58649 6.4443 3.6853C4.79981 4.78412 3.51809 6.3459 2.76121 8.17317C2.00433 10.0004 1.8063 12.0111 2.19215 13.9509C2.578 15.8907 3.53041 17.6725 4.92894 19.0711C6.32746 20.4696 8.10929 21.422 10.0491 21.8079C11.9889 22.1937 13.9996 21.9957 15.8268 21.2388C17.6541 20.4819 19.2159 19.2002 20.3147 17.5557C21.4135 15.9112 22 13.9778 22 12C22 10.6868 21.7413 9.38642 21.2388 8.17317C20.7363 6.95991 19.9997 5.85752 19.0711 4.92893C18.1425 4.00035 17.0401 3.26375 15.8268 2.7612C14.6136 2.25866 13.3132 2 12 2ZM16.71 10.71L14.71 12.71C14.617 12.8037 14.5064 12.8781 14.3846 12.9289C14.2627 12.9797 14.132 13.0058 14 13.0058C13.868 13.0058 13.7373 12.9797 13.6154 12.9289C13.4936 12.8781 13.383 12.8037 13.29 12.71C13.1963 12.617 13.1219 12.5064 13.0711 12.3846C13.0203 12.2627 12.9942 12.132 12.9942 12C12.9942 11.868 13.0203 11.7373 13.0711 11.6154C13.1219 11.4936 13.1963 11.383 13.29 11.29L13.59 11H11C10.7328 10.9823 10.4649 11.0219 10.2142 11.1162C9.96354 11.2105 9.73591 11.3572 9.54654 11.5465C9.35718 11.7359 9.21046 11.9635 9.1162 12.2142C9.02194 12.4649 8.98233 12.7328 9 13V15C9 15.2652 8.89465 15.5196 8.70711 15.7071C8.51957 15.8946 8.26522 16 8 16C7.73479 16 7.48043 15.8946 7.2929 15.7071C7.10536 15.5196 7 15.2652 7 15V13C6.98481 12.4706 7.07788 11.9436 7.27353 11.4515C7.46917 10.9593 7.76325 10.5123 8.13776 10.1378C8.51226 9.76325 8.9593 9.46916 9.45148 9.27352C9.94365 9.07788 10.4706 8.98481 11 9H13.59L13.29 8.71C13.1017 8.5217 12.9959 8.2663 12.9959 8C12.9959 7.86814 13.0219 7.73757 13.0723 7.61575C13.1228 7.49393 13.1968 7.38324 13.29 7.29C13.3832 7.19676 13.4939 7.1228 13.6158 7.07234C13.7376 7.02188 13.8681 6.99591 14 6.99591C14.2663 6.99591 14.5217 7.1017 14.71 7.29L16.71 9.29C16.8037 9.38296 16.8781 9.49356 16.9289 9.61542C16.9797 9.73728 17.0058 9.86799 17.0058 10C17.0058 10.132 16.9797 10.2627 16.9289 10.3846C16.8781 10.5064 16.8037 10.617 16.71 10.71Z" fill="#141414"/>
</svg>
