<svg width="24" height="24" viewBox="0 0 24 24" fill="none" xmlns="http://www.w3.org/2000/svg">
<path d="M7.71409 7.71C7.9024 7.5217 8.00818 7.2663 8.00818 7C8.00818 6.7337 7.9024 6.4783 7.71409 6.29C7.52579 6.1017 7.27039 5.99591 7.00409 5.99591C6.73779 5.99591 6.4824 6.1017 6.29409 6.29L6.00409 6.59V3C6.00409 2.73478 5.89873 2.48043 5.7112 2.29289C5.52366 2.10536 5.26931 2 5.00409 2C4.73888 2 4.48452 2.10536 4.29699 2.29289C4.10945 2.48043 4.00409 2.73478 4.00409 3V6.59L3.71409 6.29C3.52579 6.1017 3.27039 5.99591 3.00409 5.99591C2.73779 5.99591 2.4824 6.1017 2.29409 6.29C2.10579 6.4783 2 6.7337 2 7C2 7.2663 2.10579 7.5217 2.29409 7.71L4.29409 9.71C4.38705 9.80373 4.49766 9.87812 4.61951 9.92889C4.74137 9.97966 4.87208 10.0058 5.00409 10.0058C5.1361 10.0058 5.26681 9.97966 5.38867 9.92889C5.51053 9.87812 5.62113 9.80373 5.71409 9.71L7.71409 7.71ZM16.5441 9.47H13.8741L15.8741 3.99C15.9894 3.6618 15.9855 3.30346 15.8629 2.97789C15.7403 2.65232 15.507 2.38033 15.2039 2.20967C14.9007 2.03901 14.5472 1.98058 14.2052 2.04464C13.8633 2.10871 13.5549 2.29117 13.3341 2.56L5.63409 12.18C5.41404 12.4731 5.27875 12.8209 5.24298 13.1857C5.20721 13.5504 5.27234 13.9179 5.43126 14.2482C5.59019 14.5784 5.83679 14.8586 6.14414 15.0582C6.45149 15.2578 6.80778 15.3691 7.17409 15.38H9.97409L8.16409 20C8.03635 20.3278 8.02954 20.6904 8.1449 21.0227C8.26025 21.355 8.49022 21.6354 8.79357 21.8136C9.09692 21.9917 9.45381 22.056 9.80025 21.9949C10.1467 21.9338 10.46 21.7512 10.6841 21.48L18.0541 12.73C18.29 12.4394 18.4396 12.0884 18.4859 11.717C18.5322 11.3456 18.4734 10.9686 18.316 10.629C18.1587 10.2893 17.9093 10.0006 17.596 9.79576C17.2828 9.59088 16.9183 9.47801 16.5441 9.47Z" fill="#141414"/>
</svg>
