<svg width="24" height="24" viewBox="0 0 24 24" fill="none" xmlns="http://www.w3.org/2000/svg">
<path d="M9.5 10C9.20333 10 8.91332 10.088 8.66665 10.2528C8.41997 10.4176 8.22771 10.6519 8.11418 10.926C8.00065 11.2001 7.97094 11.5017 8.02882 11.7926C8.0867 12.0836 8.22956 12.3509 8.43934 12.5607C8.64912 12.7704 8.91639 12.9133 9.20736 12.9712C9.49834 13.0291 9.79994 12.9994 10.074 12.8858C10.3481 12.7723 10.5824 12.58 10.7472 12.3334C10.912 12.0867 11 11.7967 11 11.5C11 11.1022 10.842 10.7206 10.5607 10.4393C10.2794 10.158 9.89782 10 9.5 10ZM16 7H20C19.9978 6.47042 19.7856 5.96335 19.41 5.59L16.41 2.59C16.0366 2.21441 15.5296 2.00223 15 2V6C15 6.26522 15.1054 6.51957 15.2929 6.70711C15.4804 6.89464 15.7348 7 16 7ZM13 6V2H6.5C5.83696 2 5.20107 2.26339 4.73223 2.73223C4.26339 3.20107 4 3.83696 4 4.5V19.5C4 20.163 4.26339 20.7989 4.73223 21.2678C5.20107 21.7366 5.83696 22 6.5 22H17.5C18.163 22 18.7989 21.7366 19.2678 21.2678C19.7366 20.7989 20 20.163 20 19.5V9H16C15.2044 9 14.4413 8.68393 13.8787 8.12132C13.3161 7.55871 13 6.79565 13 6ZM13.62 16.78C13.4441 16.9212 13.2256 16.9987 13 17C12.8498 16.9993 12.7017 16.9648 12.5666 16.899C12.4316 16.8332 12.3131 16.7379 12.22 16.62L10.73 14.76C10.3386 14.9162 9.9214 14.9976 9.5 15C8.70548 15.0073 7.93176 14.7462 7.30398 14.2592C6.67621 13.7722 6.2311 13.0876 6.04067 12.3162C5.85024 11.5448 5.92562 10.7317 6.25462 10.0085C6.58362 9.28525 7.14699 8.69416 7.8536 8.33083C8.56021 7.9675 9.36874 7.85319 10.1484 8.00638C10.928 8.15957 11.6332 8.5713 12.1498 9.17498C12.6664 9.77866 12.9642 10.539 12.9951 11.3329C13.026 12.1269 12.7881 12.908 12.32 13.55L13.78 15.38C13.9435 15.5872 14.0184 15.8507 13.9885 16.113C13.9585 16.3752 13.826 16.615 13.62 16.78Z" fill="#141414"/>
</svg>
