<svg width="24" height="24" viewBox="0 0 24 24" fill="none" xmlns="http://www.w3.org/2000/svg">
<path d="M12 2C6.49 2 2 6.49 2 12C2 17.51 6.49 22 12 22C17.51 22 22 17.51 22 12C22 6.49 17.51 2 12 2ZM14 18C11.24 18 9 15.76 9 13C9 11.35 10.35 10 12 10C13.65 10 15 11.35 15 13C15 13.55 14.55 14 14 14C13.45 14 13 13.55 13 13C13 12.45 12.55 12 12 12C11.45 12 11 12.45 11 13C11 14.65 12.35 16 14 16C15.65 16 17 14.65 17 13C17 10.24 14.76 8 12 8C9.24 8 7 10.24 7 13C7 13.55 6.55 14 6 14C5.45 14 5 13.55 5 13C5 9.14 8.14 6 12 6C15.86 6 19 9.14 19 13C19 15.76 16.76 18 14 18Z" fill="#141414"/>
</svg>
