<svg width="24" height="24" viewBox="0 0 24 24" fill="none" xmlns="http://www.w3.org/2000/svg">
<path d="M7.05001 5.63993C6.86265 5.45368 6.6092 5.34914 6.34501 5.34914C6.08083 5.34914 5.82737 5.45368 5.64001 5.63993C4.75577 6.46387 4.04654 7.45748 3.55464 8.56147C3.06274 9.66546 2.79823 10.8572 2.77691 12.0657C2.75559 13.2741 2.97789 14.4744 3.43054 15.5951C3.88319 16.7158 4.55693 17.7338 5.41155 18.5884C6.26618 19.443 7.28418 20.1167 8.40484 20.5694C9.5255 21.0221 10.7258 21.2443 11.9343 21.223C13.1427 21.2017 14.3345 20.9372 15.4385 20.4453C16.5425 19.9534 17.5361 19.2442 18.36 18.3599C18.5484 18.1753 18.6563 17.9237 18.66 17.6599C18.6595 17.5276 18.6327 17.3967 18.5812 17.2749C18.5297 17.153 18.4545 17.0425 18.36 16.9499L7.05001 5.63993ZM13.12 3.07993C12.9887 3.06417 12.8556 3.07443 12.7282 3.11013C12.6008 3.14582 12.4818 3.20625 12.3778 3.28797C12.2738 3.36968 12.1869 3.47108 12.1221 3.58638C12.0572 3.70167 12.0158 3.82861 12 3.95993C11.9843 4.09125 11.9945 4.22439 12.0302 4.35175C12.0659 4.4791 12.1263 4.59818 12.2081 4.70218C12.2898 4.80618 12.3912 4.89307 12.5065 4.95789C12.6218 5.0227 12.7487 5.06417 12.88 5.07993C14.4188 5.27581 15.8489 5.97728 16.9458 7.07414C18.0427 8.17101 18.7441 9.60114 18.94 11.1399C18.9695 11.3838 19.0877 11.6084 19.2722 11.7707C19.4566 11.933 19.6943 12.0217 19.94 12.0199H20.06C20.3223 11.9874 20.561 11.8524 20.724 11.6444C20.887 11.4364 20.9611 11.1724 20.93 10.9099C20.6852 8.92177 19.7842 7.07209 18.3695 5.65383C16.9549 4.23556 15.1075 3.32978 13.12 3.07993ZM14.89 11.2499C14.9467 11.4699 15.0766 11.6641 15.2584 11.8004C15.4402 11.9368 15.6629 12.0071 15.89 11.9999H16.14C16.2675 11.9673 16.3873 11.9098 16.4926 11.8308C16.5978 11.7518 16.6864 11.6527 16.7533 11.5394C16.8202 11.4261 16.864 11.3006 16.8824 11.1703C16.9007 11.04 16.8931 10.9073 16.86 10.7799C16.6359 9.91858 16.186 9.13265 15.5566 8.50331C14.9273 7.87397 14.1414 7.42402 13.28 7.19993C13.0228 7.13362 12.7497 7.17223 12.5209 7.30726C12.2921 7.44228 12.1263 7.66267 12.06 7.91993C11.9937 8.17719 12.0323 8.45025 12.1673 8.67905C12.3024 8.90784 12.5228 9.07362 12.78 9.13993C13.2852 9.27697 13.7458 9.54383 14.116 9.91398C14.4861 10.2841 14.753 10.7447 14.89 11.2499Z" fill="#141414"/>
</svg>
