<svg width="24" height="24" viewBox="0 0 24 24" fill="none" xmlns="http://www.w3.org/2000/svg">
<path d="M19 10C19.3956 10 19.7822 9.8827 20.1111 9.66294C20.44 9.44318 20.6964 9.13082 20.8478 8.76537C20.9991 8.39991 21.0387 7.99778 20.9616 7.60982C20.8844 7.22186 20.6939 6.86549 20.4142 6.58579C20.1345 6.30608 19.7781 6.1156 19.3902 6.03843C19.0022 5.96126 18.6001 6.00087 18.2346 6.15224C17.8692 6.30362 17.5568 6.55996 17.3371 6.88886C17.1173 7.21776 17 7.60444 17 8C16.9956 8.06326 16.9956 8.12674 17 8.19L13.7 10.54C13.4773 10.3882 13.2351 10.2671 12.98 10.18V5.72C13.286 5.54803 13.5414 5.29855 13.7204 4.99663C13.8994 4.69471 13.9959 4.35099 14 4C14 3.46957 13.7893 2.96086 13.4142 2.58579C13.0391 2.21071 12.5304 2 12 2C11.4696 2 10.9609 2.21071 10.5858 2.58579C10.2107 2.96086 10 3.46957 10 4C10.0021 4.34903 10.0955 4.69143 10.2709 4.99317C10.4464 5.29491 10.6977 5.54549 11 5.72V10.18C10.5806 10.3293 10.1997 10.5701 9.8849 10.8849C9.57011 11.1997 9.32932 11.5806 9.18 12H6.72C6.54549 11.6977 6.29491 11.4464 5.99317 11.2709C5.69143 11.0955 5.34903 11.0021 5 11C4.46957 11 3.96086 11.2107 3.58579 11.5858C3.21071 11.9609 3 12.4696 3 13C3 13.5304 3.21071 14.0391 3.58579 14.4142C3.96086 14.7893 4.46957 15 5 15C5.34903 14.9979 5.69143 14.9045 5.99317 14.7291C6.29491 14.5536 6.54549 14.3023 6.72 14H9.18C9.38966 14.5763 9.7655 15.0774 10.26 15.44L9.51 18.07C9.14654 18.1619 8.81621 18.354 8.55669 18.6246C8.29718 18.8951 8.11893 19.2331 8.04227 19.6001C7.96562 19.9671 7.99365 20.3482 8.12317 20.7C8.25269 21.0518 8.47847 21.3601 8.77478 21.5898C9.07108 21.8195 9.42597 21.9612 9.79896 21.9989C10.1719 22.0366 10.548 21.9687 10.8843 21.8029C11.2205 21.6372 11.5034 21.3803 11.7007 21.0615C11.898 20.7427 12.0017 20.3749 12 20C12.0005 19.4816 11.7998 18.9832 11.44 18.61L12.19 16C12.6602 15.9741 13.1169 15.8333 13.52 15.59L16 17.66C16 17.77 16 17.88 16 18C16 18.3956 16.1173 18.7822 16.3371 19.1111C16.5568 19.44 16.8692 19.6964 17.2346 19.8478C17.6001 19.9991 18.0022 20.0387 18.3902 19.9616C18.7781 19.8844 19.1345 19.6939 19.4142 19.4142C19.6939 19.1345 19.8844 18.7781 19.9616 18.3902C20.0387 18.0022 19.9991 17.6001 19.8478 17.2346C19.6964 16.8692 19.44 16.5568 19.1111 16.3371C18.7822 16.1173 18.3956 16 18 16C17.7673 16.0015 17.5369 16.0456 17.32 16.13L14.81 14C14.9255 13.6787 14.9896 13.3412 15 13C14.9983 12.7217 14.9544 12.4452 14.87 12.18L18.18 9.82C18.4375 9.93734 18.717 9.99869 19 10Z" fill="#141414"/>
</svg>
