<svg width="24" height="24" viewBox="0 0 24 24" fill="none" xmlns="http://www.w3.org/2000/svg">
<path d="M20 8H19.5V6H21C21.55 6 22 5.55 22 5C22 4.45 21.55 4 21 4H16C15.45 4 15 4.45 15 5C15 5.55 15.45 6 16 6H17.5V8H6.5V6H8C8.55 6 9 5.55 9 5C9 4.45 8.55 4 8 4H3C2.45 4 2 4.45 2 5C2 5.55 2.45 6 3 6H4.5V8H4C2.9 8 2 8.9 2 10C2 11.1 2.9 12 4 12H5.59L3.88 13.71C3.31 14.28 3 15.03 3 15.83V19C3 19.55 3.45 20 4 20C4.55 20 5 19.55 5 19V15.83C5 15.57 5.11 15.31 5.29 15.12L7.03 13.38C7.23 15.96 9.36 18 11.99 18C14.62 18 16.76 15.96 16.95 13.38L18.69 15.12C18.88 15.31 18.98 15.56 18.98 15.83V19C18.98 19.55 19.43 20 19.98 20C20.53 20 20.98 19.55 20.98 19V15.83C20.98 15.03 20.67 14.28 20.1 13.71L18.39 12H19.98C21.08 12 21.98 11.1 21.98 10C21.98 8.9 21.08 8 19.98 8H20ZM12 16C11.45 16 11 15.55 11 15C11 14.45 11.45 14 12 14C12.55 14 13 14.45 13 15C13 15.55 12.55 16 12 16Z" fill="#141414"/>
</svg>
