<svg width="24" height="24" viewBox="0 0 24 24" fill="none" xmlns="http://www.w3.org/2000/svg">
<path d="M21.7401 18.01L13.7401 4.01C13.3801 3.39 12.7201 3 12.0001 3C11.2801 3 10.6201 3.38 10.2601 4.01L2.26006 18.01C1.91006 18.63 1.91006 19.39 2.26006 20.01C2.62006 20.63 3.28006 21.01 3.99006 21.01H20.0001C20.7101 21.01 21.3701 20.63 21.7301 20.01C22.0901 19.39 22.0901 18.63 21.7301 18.01H21.7401ZM11.0001 16C11.0001 16.55 10.5501 17 10.0001 17C9.45006 17 9.00006 16.55 9.00006 16V13.41L8.71006 13.7C8.32006 14.09 7.69006 14.09 7.30006 13.7C6.91006 13.31 6.91006 12.68 7.30006 12.29L9.30006 10.29C9.59006 10 10.0201 9.92 10.3901 10.07C10.7601 10.22 11.0101 10.59 11.0101 10.99V15.99L11.0001 16ZM16.7101 14.71L14.7101 16.71C14.5201 16.9 14.2601 17 14.0001 17C13.8701 17 13.7401 16.98 13.6201 16.92C13.2501 16.77 13.0001 16.4 13.0001 16V11C13.0001 10.45 13.4501 10 14.0001 10C14.5501 10 15.0001 10.45 15.0001 11V13.59L15.2901 13.3C15.6801 12.91 16.3101 12.91 16.7001 13.3C17.0901 13.69 17.0901 14.32 16.7001 14.71H16.7101Z" fill="#141414"/>
</svg>
