<svg width="24" height="24" viewBox="0 0 24 24" fill="none" xmlns="http://www.w3.org/2000/svg">
<path d="M19 4H5C4.20435 4 3.44129 4.31607 2.87868 4.87868C2.31607 5.44129 2 6.20435 2 7V17C2 17.7956 2.31607 18.5587 2.87868 19.1213C3.44129 19.6839 4.20435 20 5 20H19C19.7956 20 20.5587 19.6839 21.1213 19.1213C21.6839 18.5587 22 17.7956 22 17V7C22 6.20435 21.6839 5.44129 21.1213 4.87868C20.5587 4.31607 19.7956 4 19 4ZM7 16C6.73478 16 6.48043 15.8946 6.29289 15.7071C6.10536 15.5196 6 15.2652 6 15V9C6 8.73478 6.10536 8.48043 6.29289 8.29289C6.48043 8.10536 6.73478 8 7 8C8.06087 8 9.07828 8.42143 9.82843 9.17157C10.5786 9.92172 11 10.9391 11 12C11 13.0609 10.5786 14.0783 9.82843 14.8284C9.07828 15.5786 8.06087 16 7 16ZM18 15C18 15.2652 17.8946 15.5196 17.7071 15.7071C17.5196 15.8946 17.2652 16 17 16C15.9391 16 14.9217 15.5786 14.1716 14.8284C13.4214 14.0783 13 13.0609 13 12C13 10.9391 13.4214 9.92172 14.1716 9.17157C14.9217 8.42143 15.9391 8 17 8C17.2652 8 17.5196 8.10536 17.7071 8.29289C17.8946 8.48043 18 8.73478 18 9V15Z" fill="#141414"/>
</svg>
