<svg width="24" height="24" viewBox="0 0 24 24" fill="none" xmlns="http://www.w3.org/2000/svg">
<path d="M14.5002 19.0001C14.2066 19.0012 13.9197 19.0879 13.6746 19.2495C13.4295 19.4111 13.2369 19.6407 13.1202 19.9101C12.7499 19.9701 12.3754 20.0002 12.0002 20.0001C10.4968 19.9917 9.02628 19.5598 7.75709 18.754C6.4879 17.9482 5.47146 16.801 4.82429 15.444C4.17712 14.0871 3.92541 12.5752 4.09802 11.0817C4.27063 9.58829 4.86057 8.1737 5.80022 7.00013H6.00022C6.29291 7.00143 6.57959 6.91707 6.82493 6.75744C7.07026 6.59782 7.26354 6.3699 7.38094 6.10178C7.49834 5.83367 7.53473 5.53706 7.48563 5.24851C7.43652 4.95996 7.30408 4.69209 7.10461 4.47789C6.90513 4.26369 6.64735 4.11253 6.36303 4.04304C6.0787 3.97354 5.78026 3.98875 5.50447 4.08678C5.22868 4.18482 4.9876 4.3614 4.81093 4.59477C4.63427 4.82813 4.52974 5.10808 4.51022 5.40013C3.14363 6.96015 2.29589 8.90647 2.08438 10.9696C1.87286 13.0327 2.30805 15.1106 3.32967 16.9154C4.35129 18.7203 5.9088 20.1629 7.78653 21.0434C9.66427 21.9239 11.7693 22.1989 13.8102 21.8301C14.0246 21.9378 14.2604 21.9959 14.5002 22.0001C14.8888 21.9979 15.2615 21.8459 15.5409 21.5758C15.8203 21.3058 15.9848 20.9384 16.0002 20.5501V20.5001C16.0002 20.1023 15.8422 19.7208 15.5609 19.4395C15.2796 19.1582 14.898 19.0001 14.5002 19.0001ZM9.50022 5.00013C9.79269 4.99988 10.0788 4.91469 10.3238 4.75492C10.5688 4.59515 10.7621 4.36767 10.8802 4.10013C12.8553 3.80171 14.8697 4.27043 16.5102 5.41013C16.5102 5.41013 16.5102 5.47013 16.5102 5.50013C16.5102 5.79722 16.5985 6.08763 16.7637 6.33451C16.929 6.5814 17.1639 6.77365 17.4385 6.88688C17.7132 7.00011 18.0153 7.02922 18.3066 6.97053C18.5978 6.91184 18.865 6.76798 19.0744 6.5572C19.2838 6.34642 19.4259 6.07821 19.4826 5.78659C19.5394 5.49496 19.5082 5.19305 19.3931 4.91914C19.2781 4.64523 19.0843 4.41166 18.8363 4.24805C18.5883 4.08443 18.2973 3.99815 18.0002 4.00013C16.9035 3.17557 15.6473 2.58799 14.3115 2.27468C12.9756 1.96137 11.5892 1.92917 10.2402 2.18013C10.0127 2.05871 9.75812 1.9968 9.50022 2.00013C9.1024 2.00013 8.72086 2.15816 8.43956 2.43947C8.15826 2.72077 8.00022 3.1023 8.00022 3.50013C8.00022 3.89795 8.15826 4.27948 8.43956 4.56079C8.72086 4.84209 9.1024 5.00013 9.50022 5.00013ZM21.8302 10.1901C21.9379 9.97578 21.996 9.73996 22.0002 9.50013C21.998 9.11156 21.846 8.73883 21.5759 8.45945C21.3059 8.18008 20.9385 8.01556 20.5502 8.00013H20.5002C20.1543 7.99964 19.8188 8.11873 19.5506 8.33722C19.2825 8.55572 19.098 8.8602 19.0286 9.19909C18.9592 9.53797 19.009 9.89044 19.1697 10.1968C19.3304 10.5031 19.592 10.7446 19.9102 10.8801C19.9702 11.2504 20.0003 11.625 20.0002 12.0001C19.9875 13.8232 19.3524 15.5873 18.2002 17.0001C17.9234 17.0567 17.6682 17.1903 17.464 17.3855C17.2598 17.5807 17.1149 17.8296 17.0459 18.1036C16.9769 18.3776 16.9868 18.6655 17.0742 18.9341C17.1617 19.2027 17.3232 19.4412 17.5403 19.6221C17.7573 19.803 18.021 19.9188 18.301 19.9564C18.581 19.994 18.8659 19.9517 19.123 19.8345C19.38 19.7173 19.5987 19.5298 19.7539 19.2938C19.9091 19.0577 19.9945 18.7826 20.0002 18.5001C19.9972 18.3542 19.9737 18.2094 19.9302 18.0701C20.7856 16.9654 21.3971 15.692 21.7246 14.3337C22.0521 12.9755 22.0881 11.5633 21.8302 10.1901ZM12.0002 10.0001C11.6047 10.0001 11.218 10.1174 10.8891 10.3372C10.5602 10.557 10.3038 10.8693 10.1525 11.2348C10.0011 11.6002 9.96148 12.0023 10.0386 12.3903C10.1158 12.7783 10.3063 13.1346 10.586 13.4143C10.8657 13.694 11.2221 13.8845 11.61 13.9617C11.998 14.0389 12.4001 13.9993 12.7656 13.8479C13.131 13.6965 13.4434 13.4402 13.6632 13.1113C13.8829 12.7824 14.0002 12.3957 14.0002 12.0001C14.0002 11.4697 13.7895 10.961 13.4144 10.5859C13.0394 10.2108 12.5307 10.0001 12.0002 10.0001ZM18.5002 11.5001C18.5004 11.2534 18.4398 11.0103 18.3236 10.7926C18.2074 10.5749 18.0393 10.3892 17.8342 10.252C17.6291 10.1148 17.3933 10.0303 17.1477 10.0061C16.9021 9.98181 16.6544 10.0185 16.4264 10.1129C16.1984 10.2073 15.9972 10.3565 15.8406 10.5473C15.6841 10.7381 15.5771 10.9645 15.529 11.2065C15.4809 11.4486 15.4933 11.6987 15.565 11.9349C15.6367 12.171 15.7656 12.3857 15.9402 12.5601C15.8403 13.2988 15.536 13.9948 15.0616 14.5698C14.5872 15.1447 13.9616 15.5757 13.2554 15.814C12.5491 16.0524 11.7903 16.0886 11.0646 15.9187C10.3388 15.7488 9.67495 15.3795 9.14788 14.8525C8.62081 14.3254 8.2515 13.6615 8.0816 12.9358C7.9117 12.21 7.94797 11.4512 8.18633 10.745C8.42468 10.0387 8.85563 9.41311 9.43056 8.93872C10.0055 8.46433 10.7016 8.16003 11.4402 8.06013C11.6524 8.28132 11.9268 8.43273 12.227 8.49423C12.5273 8.55572 12.8391 8.5244 13.1212 8.40442C13.4032 8.28443 13.642 8.08147 13.8059 7.8225C13.9698 7.56354 14.0511 7.26082 14.0388 6.95458C14.0266 6.64835 13.9214 6.35309 13.7374 6.10804C13.5533 5.86299 13.299 5.67975 13.0083 5.58268C12.7176 5.48561 12.4042 5.47929 12.1099 5.56457C11.8155 5.64985 11.554 5.82269 11.3602 6.06013C10.2339 6.17973 9.16438 6.61571 8.27543 7.31766C7.38647 8.01961 6.71437 8.95885 6.33684 10.0268C5.95932 11.0947 5.89179 12.2476 6.14206 13.3523C6.39234 14.457 6.95019 15.4683 7.75112 16.2692C8.55205 17.0702 9.56333 17.628 10.668 17.8783C11.7727 18.1286 12.9257 18.061 13.9936 17.6835C15.0615 17.306 16.0007 16.6339 16.7027 15.7449C17.4046 14.856 17.8406 13.7865 17.9602 12.6601C18.1313 12.5195 18.2686 12.3423 18.3621 12.1415C18.4555 11.9407 18.5027 11.7216 18.5002 11.5001Z" fill="#141414"/>
</svg>
