<svg width="24" height="24" viewBox="0 0 24 24" fill="none" xmlns="http://www.w3.org/2000/svg">
<path d="M19 3C18.4696 3 17.9609 3.21071 17.5858 3.58579C17.2107 3.96086 17 4.46957 17 5C17.0022 5.17224 17.0258 5.34353 17.07 5.51L13.41 9.17L14.83 10.59L18.49 6.93C18.6565 6.97426 18.8278 6.99777 19 7C19.5304 7 20.0392 6.78929 20.4142 6.41421C20.7893 6.03914 21 5.53043 21 5C21 4.46957 20.7893 3.96086 20.4142 3.58579C20.0392 3.21071 19.5304 3 19 3ZM7.05001 5.64C6.95657 5.54732 6.84576 5.47399 6.72392 5.42423C6.60208 5.37446 6.47162 5.34924 6.34001 5.35C6.07767 5.3511 5.82627 5.45526 5.64001 5.64C4.75577 6.46394 4.04654 7.45755 3.55464 8.56154C3.06274 9.66553 2.79823 10.8573 2.77691 12.0657C2.75559 13.2742 2.97789 14.4745 3.43054 15.5952C3.88319 16.7158 4.55693 17.7338 5.41155 18.5885C6.26618 19.4431 7.28418 20.1168 8.40484 20.5695C9.5255 21.0221 10.7258 21.2444 11.9343 21.2231C13.1427 21.2018 14.3345 20.9373 15.4385 20.4454C16.5425 19.9535 17.5361 19.2442 18.36 18.36C18.5484 18.1754 18.6563 17.9238 18.66 17.66C18.6595 17.5277 18.6327 17.3968 18.5812 17.2749C18.5297 17.1531 18.4545 17.0426 18.36 16.95L7.05001 5.64Z" fill="#141414"/>
</svg>
