<svg width="24" height="24" viewBox="0 0 24 24" fill="none" xmlns="http://www.w3.org/2000/svg">
<path d="M4 8.99999H11C11.5269 9.00141 12.045 8.864 12.5019 8.6016C12.9589 8.3392 13.3387 7.96106 13.6031 7.50524C13.8675 7.04942 14.0072 6.532 14.0081 6.00505C14.009 5.4781 13.871 4.96021 13.6082 4.5035C13.3453 4.04679 12.9668 3.66738 12.5107 3.40344C12.0546 3.13951 11.537 3.00036 11.0101 3C10.4831 2.99964 9.9654 3.13809 9.50895 3.40141C9.05251 3.66473 8.67348 4.04364 8.41 4.49999C8.29045 4.72853 8.26382 4.99443 8.33568 5.24213C8.40755 5.48984 8.57234 5.70021 8.79564 5.82928C9.01894 5.95836 9.28348 5.99616 9.534 5.9348C9.78451 5.87344 10.0016 5.71765 10.14 5.49999C10.2279 5.34775 10.3544 5.22138 10.5067 5.1336C10.659 5.04582 10.8317 4.99974 11.0075 5.00001C11.1833 5.00028 11.3559 5.04688 11.508 5.13512C11.66 5.22336 11.7861 5.35012 11.8735 5.50262C11.961 5.65513 12.0067 5.82798 12.006 6.00377C12.0053 6.17956 11.9584 6.35207 11.8698 6.50391C11.7812 6.65575 11.6541 6.78156 11.5014 6.86865C11.3487 6.95575 11.1758 7.00105 11 6.99999H4C3.73478 6.99999 3.48043 7.10535 3.29289 7.29288C3.10536 7.48042 3 7.73477 3 7.99999C3 8.26521 3.10536 8.51956 3.29289 8.7071C3.48043 8.89463 3.73478 8.99999 4 8.99999ZM18 6.99999C17.4748 7.0014 16.9591 7.14069 16.5046 7.40393C16.0501 7.66716 15.6726 8.04512 15.41 8.49999C15.2904 8.72853 15.2638 8.99443 15.3357 9.24213C15.4075 9.48984 15.5723 9.70021 15.7956 9.82928C16.0189 9.95836 16.2835 9.99616 16.534 9.9348C16.7845 9.87344 17.0016 9.71765 17.14 9.49999C17.2279 9.34775 17.3544 9.22137 17.5067 9.1336C17.659 9.04582 17.8317 8.99974 18.0075 9.00001C18.1833 9.00028 18.3559 9.04688 18.508 9.13512C18.66 9.22336 18.7861 9.35012 18.8735 9.50262C18.961 9.65513 19.0067 9.82798 19.006 10.0038C19.0053 10.1796 18.9584 10.3521 18.8698 10.5039C18.7812 10.6558 18.6541 10.7816 18.5014 10.8687C18.3487 10.9557 18.1758 11.001 18 11H4C3.73478 11 3.48043 11.1053 3.29289 11.2929C3.10536 11.4804 3 11.7348 3 12C3 12.2652 3.10536 12.5196 3.29289 12.7071C3.48043 12.8946 3.73478 13 4 13H18C18.7956 13 19.5587 12.6839 20.1213 12.1213C20.6839 11.5587 21 10.7956 21 9.99999C21 9.20434 20.6839 8.44128 20.1213 7.87867C19.5587 7.31606 18.7956 6.99999 18 6.99999ZM12 15H4C3.73478 15 3.48043 15.1053 3.29289 15.2929C3.10536 15.4804 3 15.7348 3 16C3 16.2652 3.10536 16.5196 3.29289 16.7071C3.48043 16.8946 3.73478 17 4 17H12C12.1758 16.9989 12.3487 17.0442 12.5014 17.1313C12.6541 17.2184 12.7812 17.3442 12.8698 17.4961C12.9584 17.6479 13.0053 17.8204 13.006 17.9962C13.0067 18.172 12.961 18.3449 12.8735 18.4974C12.7861 18.6499 12.66 18.7766 12.508 18.8649C12.3559 18.9531 12.1833 18.9997 12.0075 19C11.8317 19.0002 11.659 18.9542 11.5067 18.8664C11.3544 18.7786 11.2279 18.6522 11.14 18.5C11.0016 18.2823 10.7845 18.1265 10.534 18.0652C10.2835 18.0038 10.0189 18.0416 9.79564 18.1707C9.57234 18.2998 9.40755 18.5101 9.33568 18.7578C9.26382 19.0056 9.29045 19.2714 9.41 19.5C9.67348 19.9563 10.0525 20.3352 10.509 20.5986C10.9654 20.8619 11.4831 21.0003 12.0101 21C12.537 20.9996 13.0546 20.8605 13.5107 20.5965C13.9668 20.3326 14.3453 19.9532 14.6082 19.4965C14.871 19.0398 15.009 18.5219 15.0081 17.9949C15.0072 17.468 14.8675 16.9506 14.6031 16.4947C14.3387 16.0389 13.9589 15.6608 13.5019 15.3984C13.045 15.136 12.5269 14.9986 12 15Z" fill="#141414"/>
</svg>
