<svg width="24" height="24" viewBox="0 0 24 24" fill="none" xmlns="http://www.w3.org/2000/svg">
<path d="M12.8701 9.5C12.7829 9.3461 12.6564 9.21809 12.5035 9.12903C12.3507 9.03998 12.177 8.99305 12.0001 8.99305C11.8232 8.99305 11.6495 9.03998 11.4966 9.12903C11.3438 9.21809 11.2173 9.3461 11.1301 9.5L8.25009 14.5C8.16257 14.6516 8.11637 14.8235 8.1161 14.9985C8.11584 15.1735 8.16152 15.3456 8.24857 15.4974C8.33563 15.6492 8.46101 15.7756 8.6122 15.8638C8.76338 15.952 8.93506 15.9989 9.11009 16H10.0001V19C10.0001 19.2652 10.1054 19.5196 10.293 19.7071C10.4805 19.8946 10.7349 20 11.0001 20H13.0001C13.2653 20 13.5197 19.8946 13.7072 19.7071C13.8947 19.5196 14.0001 19.2652 14.0001 19V16H14.8901C15.0651 15.9989 15.2368 15.952 15.388 15.8638C15.5392 15.7756 15.6645 15.6492 15.7516 15.4974C15.8387 15.3456 15.8843 15.1735 15.8841 14.9985C15.8838 14.8235 15.8376 14.6516 15.7501 14.5L12.8701 9.5ZM20.0001 8C20.3517 8.00212 20.6976 7.91151 21.003 7.73733C21.3084 7.56314 21.5625 7.31153 21.7396 7.00785C21.9168 6.70417 22.0108 6.35915 22.0121 6.00757C22.0134 5.65599 21.9221 5.31028 21.7472 5.00527C21.5723 4.70026 21.3201 4.44674 21.016 4.27026C20.712 4.09378 20.3667 4.00057 20.0152 4.00004C19.6636 3.99951 19.3181 4.09166 19.0135 4.26722C18.7088 4.44277 18.4559 4.69553 18.2801 5H14.0001C14.0001 4.73478 13.8947 4.48043 13.7072 4.29289C13.5197 4.10536 13.2653 4 13.0001 4H11.0001C10.7349 4 10.4805 4.10536 10.293 4.29289C10.1054 4.48043 10.0001 4.73478 10.0001 5H5.72009C5.49995 4.61872 5.16016 4.32073 4.7534 4.15224C4.34665 3.98376 3.89567 3.9542 3.4704 4.06815C3.04513 4.1821 2.66935 4.43319 2.40133 4.78248C2.13331 5.13177 1.98804 5.55973 1.98804 6C1.98804 6.44027 2.13331 6.86824 2.40133 7.21752C2.66935 7.56681 3.04513 7.8179 3.4704 7.93185C3.89567 8.0458 4.34665 8.01624 4.7534 7.84776C5.16016 7.67928 5.49995 7.38128 5.72009 7H6.88009C6.09941 7.70917 5.47553 8.57364 5.04846 9.538C4.62139 10.5024 4.40055 11.5453 4.40009 12.6V14.85C3.96003 15.0746 3.60837 15.4407 3.40174 15.8895C3.19512 16.3382 3.14555 16.8435 3.26103 17.3238C3.37652 17.8042 3.65032 18.2317 4.03835 18.5375C4.42638 18.8433 4.90604 19.0096 5.40009 19.0096C5.89413 19.0096 6.3738 18.8433 6.76183 18.5375C7.14985 18.2317 7.42366 17.8042 7.53914 17.3238C7.65462 16.8435 7.60506 16.3382 7.39843 15.8895C7.19181 15.4407 6.84015 15.0746 6.40009 14.85V12.6C6.4015 11.4546 6.7541 10.3372 7.41033 9.39846C8.06657 8.4597 8.99488 7.74475 10.0701 7.35C10.141 7.53981 10.2679 7.70359 10.434 7.81967C10.6001 7.93575 10.7975 7.99863 11.0001 8H13.0001C13.2027 7.99863 13.4001 7.93575 13.5662 7.81967C13.7323 7.70359 13.8592 7.53981 13.9301 7.35C15.0053 7.74475 15.9336 8.4597 16.5898 9.39846C17.2461 10.3372 17.5987 11.4546 17.6001 12.6V14.85C17.16 15.0746 16.8084 15.4407 16.6017 15.8895C16.3951 16.3382 16.3456 16.8435 16.461 17.3238C16.5765 17.8042 16.8503 18.2317 17.2383 18.5375C17.6264 18.8433 18.106 19.0096 18.6001 19.0096C19.0941 19.0096 19.5738 18.8433 19.9618 18.5375C20.3499 18.2317 20.6237 17.8042 20.7391 17.3238C20.8546 16.8435 20.8051 16.3382 20.5984 15.8895C20.3918 15.4407 20.0401 15.0746 19.6001 14.85V12.6C19.5996 11.5453 19.3788 10.5024 18.9517 9.538C18.5246 8.57364 17.9008 7.70917 17.1201 7H18.2801C18.4546 7.30228 18.7052 7.55362 19.0069 7.72905C19.3087 7.90448 19.6511 7.99789 20.0001 8Z" fill="#141414"/>
</svg>
