<svg width="24" height="24" viewBox="0 0 24 24" fill="none" xmlns="http://www.w3.org/2000/svg">
<path d="M18 3H6C5.20435 3 4.44129 3.31607 3.87868 3.87868C3.31607 4.44129 3 5.20435 3 6V18C3 18.7956 3.31607 19.5587 3.87868 20.1213C4.44129 20.6839 5.20435 21 6 21H18C18.7956 21 19.5587 20.6839 20.1213 20.1213C20.6839 19.5587 21 18.7956 21 18V6C21 5.20435 20.6839 4.44129 20.1213 3.87868C19.5587 3.31607 18.7956 3 18 3ZM11 15.75C11 16.0152 10.8946 16.2696 10.7071 16.4571C10.5196 16.6446 10.2652 16.75 10 16.75C9.73478 16.75 9.48043 16.6446 9.29289 16.4571C9.10536 16.2696 9 16.0152 9 15.75V11.1L7.78 12.62C7.70334 12.7353 7.60357 12.8335 7.48701 12.9082C7.37044 12.983 7.23962 13.0327 7.10284 13.0542C6.96605 13.0758 6.82628 13.0687 6.69237 13.0334C6.55847 12.9981 6.43336 12.9354 6.32496 12.8492C6.21656 12.7631 6.12723 12.6553 6.06264 12.5329C5.99805 12.4104 5.95961 12.2758 5.94974 12.1377C5.93988 11.9996 5.9588 11.8609 6.00532 11.7305C6.05185 11.6 6.12495 11.4807 6.22 11.38L9.22 7.62C9.34982 7.45818 9.52676 7.34074 9.72629 7.28396C9.92583 7.22717 10.1381 7.23385 10.3337 7.30307C10.5292 7.37229 10.6984 7.50062 10.8178 7.67028C10.9372 7.83995 11.0009 8.04254 11 8.25V15.75ZM17.78 12.62L14.78 16.38C14.6859 16.496 14.567 16.5895 14.432 16.6535C14.297 16.7175 14.1494 16.7505 14 16.75C13.8874 16.7487 13.7758 16.7284 13.67 16.69C13.4749 16.6218 13.3057 16.4948 13.1857 16.3264C13.0657 16.1581 13.0008 15.9567 13 15.75V8.25C13 7.98478 13.1054 7.73043 13.2929 7.54289C13.4804 7.35536 13.7348 7.25 14 7.25C14.2652 7.25 14.5196 7.35536 14.7071 7.54289C14.8946 7.73043 15 7.98478 15 8.25V12.9L16.22 11.38C16.392 11.1978 16.6261 11.0868 16.8759 11.069C17.1258 11.0511 17.3733 11.1277 17.5694 11.2836C17.7656 11.4395 17.896 11.6633 17.935 11.9108C17.974 12.1583 17.9187 12.4114 17.78 12.62Z" fill="#141414"/>
</svg>
