<svg width="24" height="24" viewBox="0 0 24 24" fill="none" xmlns="http://www.w3.org/2000/svg">
<path d="M12 2C10.0222 2 8.08879 2.58649 6.4443 3.6853C4.79981 4.78412 3.51809 6.3459 2.76121 8.17317C2.00433 10.0004 1.8063 12.0111 2.19215 13.9509C2.578 15.8907 3.53041 17.6725 4.92894 19.0711C6.32746 20.4696 8.10929 21.422 10.0491 21.8079C11.9889 22.1937 13.9996 21.9957 15.8268 21.2388C17.6541 20.4819 19.2159 19.2002 20.3147 17.5557C21.4135 15.9112 22 13.9778 22 12C22 10.6868 21.7413 9.38642 21.2388 8.17317C20.7363 6.95991 19.9997 5.85752 19.0711 4.92893C18.1425 4.00035 17.0401 3.26375 15.8268 2.7612C14.6136 2.25866 13.3132 2 12 2ZM11 15.75C11 16.0152 10.8946 16.2696 10.7071 16.4571C10.5196 16.6446 10.2652 16.75 10 16.75C9.73479 16.75 9.48043 16.6446 9.2929 16.4571C9.10536 16.2696 9 16.0152 9 15.75V11.1L7.78 12.62C7.70335 12.7353 7.60358 12.8335 7.48701 12.9082C7.37045 12.983 7.23963 13.0327 7.10284 13.0542C6.96605 13.0758 6.82628 13.0687 6.69238 13.0334C6.55848 12.9981 6.43336 12.9354 6.32496 12.8492C6.21656 12.7631 6.12724 12.6553 6.06265 12.5329C5.99806 12.4104 5.95961 12.2758 5.94975 12.1377C5.93988 11.9996 5.95881 11.8609 6.00533 11.7305C6.05185 11.6 6.12495 11.4807 6.22 11.38L9.22 7.62C9.34983 7.45818 9.52676 7.34074 9.7263 7.28396C9.92584 7.22717 10.1381 7.23385 10.3337 7.30307C10.5292 7.37229 10.6984 7.50062 10.8178 7.67028C10.9372 7.83995 11.0009 8.04254 11 8.25V15.75ZM17.78 12.62L14.78 16.38C14.6859 16.496 14.567 16.5895 14.432 16.6535C14.297 16.7175 14.1494 16.7505 14 16.75C13.8874 16.7487 13.7758 16.7284 13.67 16.69C13.4749 16.6218 13.3057 16.4948 13.1857 16.3264C13.0657 16.1581 13.0008 15.9567 13 15.75V8.25C13 7.98478 13.1054 7.73043 13.2929 7.54289C13.4804 7.35536 13.7348 7.25 14 7.25C14.2652 7.25 14.5196 7.35536 14.7071 7.54289C14.8946 7.73043 15 7.98478 15 8.25V12.9L16.22 11.38C16.392 11.1978 16.6261 11.0868 16.876 11.069C17.1258 11.0511 17.3733 11.1277 17.5694 11.2836C17.7656 11.4395 17.896 11.6633 17.935 11.9108C17.974 12.1583 17.9187 12.4114 17.78 12.62Z" fill="#141414"/>
</svg>
