<svg width="24" height="24" viewBox="0 0 24 24" fill="none" xmlns="http://www.w3.org/2000/svg">
<path d="M8.29 18.29C8.19732 18.3834 8.12399 18.4943 8.07423 18.6161C8.02446 18.7379 7.99924 18.8684 8 19C7.99924 19.1316 8.02446 19.2621 8.07423 19.3839C8.12399 19.5057 8.19732 19.6166 8.29 19.71C8.38344 19.8027 8.49426 19.876 8.61609 19.9258C8.73793 19.9755 8.86839 20.0008 9 20H12V18H9C8.86839 17.9992 8.73793 18.0245 8.61609 18.0742C8.49426 18.124 8.38344 18.1973 8.29 18.29ZM20 7C20.7068 7.00899 21.398 7.20943 22 7.58V6C22 5.46957 21.7893 4.96086 21.4142 4.58579C21.0391 4.21071 20.5304 4 20 4H4C3.46957 4 2.96086 4.21071 2.58579 4.58579C2.21071 4.96086 2 5.46957 2 6V15C2 15.5304 2.21071 16.0391 2.58579 16.4142C2.96086 16.7893 3.46957 17 4 17H12V11.16C11.9839 10.0794 12.3951 9.03608 13.1441 8.25705C13.8932 7.47801 14.9196 7.02624 16 7H20ZM21.45 9.67C21.07 9.26959 20.5512 9.02985 20 9H16C15.4488 9.02985 14.93 9.26959 14.55 9.67C14.179 10.0797 13.9818 10.6176 14 11.17V19.83C13.9796 20.3828 14.1771 20.9214 14.55 21.33C14.7356 21.5317 14.9593 21.6948 15.2081 21.8097C15.457 21.9247 15.7261 21.9894 16 22H20C20.2739 21.9894 20.543 21.9247 20.7919 21.8097C21.0407 21.6948 21.2644 21.5317 21.45 21.33C21.8229 20.9214 22.0204 20.3828 22 19.83V11.16C22.0182 10.6076 21.821 10.0697 21.45 9.66V9.67ZM18.71 19.67C18.6199 19.7699 18.5106 19.8507 18.3886 19.9074C18.2666 19.9641 18.1345 19.9956 18 20C17.8006 20.0004 17.6055 19.9412 17.44 19.83C17.3186 19.7476 17.2168 19.6395 17.1419 19.5134C17.067 19.3872 17.0207 19.2462 17.0064 19.1002C16.9921 18.9541 17.01 18.8068 17.0591 18.6685C17.1081 18.5302 17.1869 18.4044 17.29 18.3C17.4258 18.1508 17.6036 18.0463 17.8 18C17.995 17.9619 18.1969 17.9828 18.38 18.06C18.5665 18.1307 18.7246 18.2607 18.83 18.43C18.9432 18.5984 19.0025 18.7972 19 19C18.9989 19.2623 18.8947 19.5137 18.71 19.7V19.67Z" fill="#141414"/>
</svg>
