<svg width="24" height="24" viewBox="0 0 24 24" fill="none" xmlns="http://www.w3.org/2000/svg">
<path d="M10.2899 14.2899L7.99994 16.5899V5.99994C7.99994 5.73472 7.89458 5.48037 7.70705 5.29283C7.51951 5.1053 7.26516 4.99994 6.99994 4.99994C6.73472 4.99994 6.48037 5.1053 6.29283 5.29283C6.1053 5.48037 5.99994 5.73472 5.99994 5.99994V16.5899L3.70994 14.2899C3.52164 14.1016 3.26624 13.9958 2.99994 13.9958C2.73364 13.9958 2.47824 14.1016 2.28994 14.2899C2.10164 14.4782 1.99585 14.7336 1.99585 14.9999C1.99585 15.2662 2.10164 15.5216 2.28994 15.7099L6.28994 19.7099C6.3829 19.8037 6.49351 19.8781 6.61536 19.9288C6.73722 19.9796 6.86793 20.0057 6.99994 20.0057C7.13195 20.0057 7.26266 19.9796 7.38452 19.9288C7.50638 19.8781 7.61698 19.8037 7.70994 19.7099L11.7099 15.7099C11.8037 15.617 11.8781 15.5064 11.9288 15.3845C11.9796 15.2627 12.0057 15.132 12.0057 14.9999C12.0057 14.8679 11.9796 14.7372 11.9288 14.6154C11.8781 14.4935 11.8037 14.3829 11.7099 14.2899C11.617 14.1962 11.5064 14.1218 11.3845 14.071C11.2627 14.0203 11.132 13.9941 10.9999 13.9941C10.8679 13.9941 10.7372 14.0203 10.6154 14.071C10.4935 14.1218 10.3829 14.1962 10.2899 14.2899ZM21.7099 8.28994L17.7099 4.28994C17.617 4.19621 17.5064 4.12182 17.3845 4.07105C17.2627 4.02028 17.132 3.99414 16.9999 3.99414C16.8679 3.99414 16.7372 4.02028 16.6154 4.07105C16.4935 4.12182 16.3829 4.19621 16.2899 4.28994L12.2899 8.28994C12.1962 8.3829 12.1218 8.4935 12.071 8.61536C12.0203 8.73722 11.9941 8.86793 11.9941 8.99994C11.9941 9.13195 12.0203 9.26266 12.071 9.38452C12.1218 9.50637 12.1962 9.61698 12.2899 9.70994C12.3829 9.80367 12.4935 9.87806 12.6154 9.92883C12.7372 9.9796 12.8679 10.0057 12.9999 10.0057C13.132 10.0057 13.2627 9.9796 13.3845 9.92883C13.5064 9.87806 13.617 9.80367 13.7099 9.70994L15.9999 7.40994V17.9999C15.9999 18.2652 16.1053 18.5195 16.2928 18.707C16.4804 18.8946 16.7347 18.9999 16.9999 18.9999C17.2652 18.9999 17.5195 18.8946 17.707 18.707C17.8946 18.5195 17.9999 18.2652 17.9999 17.9999V7.40994L20.2899 9.70994C20.4782 9.89824 20.7336 10.004 20.9999 10.004C21.2662 10.004 21.5216 9.89824 21.7099 9.70994C21.8982 9.52164 22.004 9.26624 22.004 8.99994C22.004 8.73364 21.8982 8.47824 21.7099 8.28994Z" fill="#141414"/>
</svg>
