<svg width="24" height="24" viewBox="0 0 24 24" fill="none" xmlns="http://www.w3.org/2000/svg">
<path d="M19.4999 10.4999C19.2903 10.5011 19.0831 10.5462 18.8919 10.6323C18.7008 10.7184 18.5297 10.8436 18.3899 10.9999H14.3899L17.3899 7.99995H17.4699C17.7678 8.00591 18.0607 7.92302 18.3113 7.76187C18.5619 7.60071 18.7588 7.36858 18.877 7.09507C18.9951 6.82155 19.0291 6.51906 18.9747 6.22614C18.9202 5.93322 18.7798 5.66315 18.5713 5.45036C18.3627 5.23756 18.0956 5.0917 17.8038 5.03134C17.512 4.97099 17.2089 4.99889 16.9331 5.11149C16.6572 5.22409 16.4212 5.41628 16.255 5.66356C16.0888 5.91084 16 6.20201 15.9999 6.49995C15.9999 6.49995 15.9999 6.49995 15.9999 6.57995L12.9999 9.57995V5.57995C13.2264 5.37742 13.386 5.11092 13.4576 4.8157C13.5293 4.52049 13.5096 4.21047 13.4012 3.92668C13.2928 3.64289 13.1008 3.3987 12.8506 3.22643C12.6004 3.05415 12.3037 2.96191 11.9999 2.96191C11.6962 2.96191 11.3995 3.05415 11.1493 3.22643C10.8991 3.3987 10.7071 3.64289 10.5987 3.92668C10.4903 4.21047 10.4706 4.52049 10.5423 4.8157C10.6139 5.11092 10.7735 5.37742 10.9999 5.57995V9.57995L7.99995 6.57995C7.99995 6.57995 7.99995 6.57995 7.99995 6.49995C7.99995 6.20328 7.91197 5.91327 7.74715 5.66659C7.58233 5.41992 7.34806 5.22766 7.07397 5.11413C6.79988 5.0006 6.49828 4.97089 6.20731 5.02877C5.91634 5.08665 5.64907 5.22951 5.43929 5.43929C5.22951 5.64907 5.08665 5.91634 5.02877 6.20731C4.97089 6.49828 5.0006 6.79988 5.11413 7.07397C5.22766 7.34806 5.41992 7.58233 5.66659 7.74715C5.91327 7.91197 6.20328 7.99995 6.49995 7.99995H6.57995L9.57995 10.9999H5.57995C5.37742 10.7735 5.11092 10.6139 4.8157 10.5423C4.52049 10.4706 4.21047 10.4903 3.92668 10.5987C3.64289 10.7071 3.3987 10.8991 3.22643 11.1493C3.05415 11.3995 2.96191 11.6962 2.96191 11.9999C2.96191 12.3037 3.05415 12.6004 3.22643 12.8506C3.3987 13.1008 3.64289 13.2928 3.92668 13.4012C4.21047 13.5096 4.52049 13.5293 4.8157 13.4576C5.11092 13.386 5.37742 13.2264 5.57995 12.9999H9.57995L6.57995 15.9999H6.49995C6.20328 15.9999 5.91327 16.0879 5.66659 16.2527C5.41992 16.4176 5.22766 16.6518 5.11413 16.9259C5.0006 17.2 4.97089 17.5016 5.02877 17.7926C5.08665 18.0836 5.22951 18.3508 5.43929 18.5606C5.64907 18.7704 5.91634 18.9132 6.20731 18.9711C6.49828 19.029 6.79988 18.9993 7.07397 18.8858C7.34806 18.7722 7.58233 18.58 7.74715 18.3333C7.91197 18.0866 7.99995 17.7966 7.99995 17.4999C7.99995 17.4999 7.99995 17.4499 7.99995 17.4199L10.9999 14.4199V18.4199C10.7735 18.6225 10.6139 18.889 10.5423 19.1842C10.4706 19.4794 10.4903 19.7894 10.5987 20.0732C10.7071 20.357 10.8991 20.6012 11.1493 20.7735C11.3995 20.9457 11.6962 21.038 11.9999 21.038C12.3037 21.038 12.6004 20.9457 12.8506 20.7735C13.1008 20.6012 13.2928 20.357 13.4012 20.0732C13.5096 19.7894 13.5293 19.4794 13.4576 19.1842C13.386 18.889 13.2264 18.6225 12.9999 18.4199V14.4199L15.9999 17.4199C15.9999 17.4199 15.9999 17.4199 15.9999 17.4999C15.9999 17.7966 16.0879 18.0866 16.2527 18.3333C16.4176 18.58 16.6518 18.7722 16.9259 18.8858C17.2 18.9993 17.5016 19.029 17.7926 18.9711C18.0836 18.9132 18.3508 18.7704 18.5606 18.5606C18.7704 18.3508 18.9132 18.0836 18.9711 17.7926C19.029 17.5016 18.9993 17.2 18.8858 16.9259C18.7722 16.6518 18.58 16.4176 18.3333 16.2527C18.0866 16.0879 17.7966 15.9999 17.4999 15.9999H17.4199L14.4199 12.9999H18.4199C18.587 13.1867 18.7981 13.3286 19.0341 13.4128C19.2701 13.4969 19.5234 13.5206 19.7709 13.4817C20.0184 13.4428 20.2523 13.3425 20.451 13.19C20.6498 13.0375 20.8072 12.8376 20.9089 12.6086C21.0106 12.3796 21.0533 12.1288 21.0331 11.8791C21.0129 11.6294 20.9305 11.3887 20.7934 11.179C20.6562 10.9693 20.4688 10.7973 20.2481 10.6787C20.0274 10.5601 19.7805 10.4986 19.5299 10.4999H19.4999ZM12.7099 12.7099C12.5698 12.849 12.3916 12.9434 12.1978 12.9813C12.0041 13.0193 11.8034 12.999 11.6212 12.923C11.4389 12.8471 11.2832 12.7189 11.1737 12.5547C11.0642 12.3904 11.0057 12.1974 11.0057 11.9999C11.0057 11.8025 11.0642 11.6095 11.1737 11.4452C11.2832 11.281 11.4389 11.1528 11.6212 11.0769C11.8034 11.0009 12.0041 10.9806 12.1978 11.0186C12.3916 11.0565 12.5698 11.1509 12.7099 11.2899C12.8037 11.3829 12.8781 11.4935 12.9288 11.6154C12.9796 11.7372 13.0057 11.8679 13.0057 11.9999C13.0057 12.132 12.9796 12.2627 12.9288 12.3845C12.8781 12.5064 12.8037 12.617 12.7099 12.7099Z" fill="#141414"/>
</svg>
