<svg width="24" height="24" viewBox="0 0 24 24" fill="none" xmlns="http://www.w3.org/2000/svg">
<path d="M3.56821 6.67L3.01821 11.67C2.97182 12.0891 3.01431 12.5133 3.14289 12.9148C3.27147 13.3164 3.48327 13.6864 3.76445 14.0006C4.04564 14.3148 4.3899 14.5662 4.77479 14.7384C5.15968 14.9106 5.57655 14.9997 5.99821 15H9.99821V18.92C9.98205 19.3083 10.0794 19.6929 10.2783 20.0268C10.4772 20.3606 10.769 20.6293 11.1182 20.8C11.3865 20.9311 11.6808 21.0004 11.9794 21.0028C12.278 21.0053 12.5734 20.9409 12.8438 20.8143C13.1143 20.6877 13.353 20.5021 13.5423 20.2712C13.7317 20.0404 13.867 19.77 13.9382 19.48L14.9382 15.48C14.9776 15.323 14.9977 15.1618 14.9982 15V4H6.54821C5.81 4.00044 5.09788 4.27304 4.54808 4.76565C3.99828 5.25826 3.64941 5.93628 3.56821 6.67ZM18.9982 4H16.9982V15H18.9982C19.5286 15 20.0373 14.7893 20.4124 14.4142C20.7875 14.0391 20.9982 13.5304 20.9982 13V6C20.9982 5.46957 20.7875 4.96086 20.4124 4.58579C20.0373 4.21071 19.5286 4 18.9982 4Z" fill="#141414"/>
</svg>
