<svg width="24" height="24" viewBox="0 0 24 24" fill="none" xmlns="http://www.w3.org/2000/svg">
<path d="M4 7H10C10.2652 7 10.5196 6.89464 10.7071 6.70711C10.8946 6.51957 11 6.26522 11 6C11 5.73478 10.8946 5.48043 10.7071 5.29289C10.5196 5.10536 10.2652 5 10 5H4C3.73478 5 3.48043 5.10536 3.29289 5.29289C3.10536 5.48043 3 5.73478 3 6C3 6.26522 3.10536 6.51957 3.29289 6.70711C3.48043 6.89464 3.73478 7 4 7ZM4 13H10C10.2652 13 10.5196 12.8946 10.7071 12.7071C10.8946 12.5196 11 12.2652 11 12C11 11.7348 10.8946 11.4804 10.7071 11.2929C10.5196 11.1054 10.2652 11 10 11H4C3.73478 11 3.48043 11.1054 3.29289 11.2929C3.10536 11.4804 3 11.7348 3 12C3 12.2652 3.10536 12.5196 3.29289 12.7071C3.48043 12.8946 3.73478 13 4 13ZM20.21 10.29C20.117 10.1963 20.0064 10.1219 19.8846 10.0711C19.7627 10.0203 19.632 9.9942 19.5 9.9942C19.368 9.9942 19.2373 10.0203 19.1154 10.0711C18.9936 10.1219 18.883 10.1963 18.79 10.29L17.5 11.59V6C17.5 5.73478 17.3946 5.48043 17.2071 5.29289C17.0196 5.10536 16.7652 5 16.5 5C16.2348 5 15.9804 5.10536 15.7929 5.29289C15.6054 5.48043 15.5 5.73478 15.5 6V11.59L14.21 10.29C14.0217 10.1017 13.7663 9.99591 13.5 9.99591C13.2337 9.99591 12.9783 10.1017 12.79 10.29C12.6017 10.4783 12.4959 10.7337 12.4959 11C12.4959 11.2663 12.6017 11.5217 12.79 11.71L15.79 14.71C15.883 14.8037 15.9936 14.8781 16.1154 14.9289C16.2373 14.9797 16.368 15.0058 16.5 15.0058C16.632 15.0058 16.7627 14.9797 16.8846 14.9289C17.0064 14.8781 17.117 14.8037 17.21 14.71L20.21 11.71C20.3037 11.617 20.3781 11.5064 20.4289 11.3846C20.4797 11.2627 20.5058 11.132 20.5058 11C20.5058 10.868 20.4797 10.7373 20.4289 10.6154C20.3781 10.4936 20.3037 10.383 20.21 10.29ZM19 17H4C3.73478 17 3.48043 17.1054 3.29289 17.2929C3.10536 17.4804 3 17.7348 3 18C3 18.2652 3.10536 18.5196 3.29289 18.7071C3.48043 18.8946 3.73478 19 4 19H19C19.2652 19 19.5196 18.8946 19.7071 18.7071C19.8946 18.5196 20 18.2652 20 18C20 17.7348 19.8946 17.4804 19.7071 17.2929C19.5196 17.1054 19.2652 17 19 17Z" fill="#141414"/>
</svg>
