<svg width="24" height="24" viewBox="0 0 24 24" fill="none" xmlns="http://www.w3.org/2000/svg">
<path d="M19 4.99992H15.86C15.6071 4.06845 15.026 3.25983 14.2238 2.72318C13.4216 2.18652 12.4523 1.95803 11.4949 2.07985C10.5374 2.20166 9.65629 2.66556 9.014 3.386C8.37171 4.10643 8.01157 5.03481 8 5.99992V6.99992H19C19.2652 6.99992 19.5196 6.89456 19.7071 6.70703C19.8946 6.51949 20 6.26514 20 5.99992C20 5.7347 19.8946 5.48035 19.7071 5.29281C19.5196 5.10528 19.2652 4.99992 19 4.99992ZM14.41 13.4299L12.6 14.7999C12.4269 14.9297 12.2164 14.9999 12 14.9999C11.7882 15.0007 11.5816 14.9341 11.41 14.8099L9.55 13.4499C8.215 13.9487 7.06404 14.8431 6.25098 16.0136C5.43791 17.184 5.00148 18.5748 5 19.9999C5 20.5304 5.21071 21.0391 5.58579 21.4141C5.96086 21.7892 6.46957 21.9999 7 21.9999H17C17.5304 21.9999 18.0391 21.7892 18.4142 21.4141C18.7893 21.0391 19 20.5304 19 19.9999C18.9996 18.5666 18.5592 17.168 17.7383 15.993C16.9174 14.818 15.7557 13.9234 14.41 13.4299ZM16 19.9999H14C13.7348 19.9999 13.4804 19.8946 13.2929 19.707C13.1054 19.5195 13 19.2651 13 18.9999C13 18.7347 13.1054 18.4803 13.2929 18.2928C13.4804 18.1053 13.7348 17.9999 14 17.9999H16C16.2652 17.9999 16.5196 18.1053 16.7071 18.2928C16.8946 18.4803 17 18.7347 17 18.9999C17 19.2651 16.8946 19.5195 16.7071 19.707C16.5196 19.8946 16.2652 19.9999 16 19.9999ZM15.86 8.99992H8.14C8.37028 9.84729 8.873 10.5953 9.5706 11.1287C10.2682 11.662 11.1219 11.9509 12 11.9509C12.8781 11.9509 13.7318 11.662 14.4294 11.1287C15.127 10.5953 15.6297 9.84729 15.86 8.99992Z" fill="#141414"/>
</svg>
