<svg width="24" height="24" viewBox="0 0 24 24" fill="none" xmlns="http://www.w3.org/2000/svg">
<path d="M18 6V16C18 17.0609 17.5786 18.0783 16.8284 18.8284C16.0783 19.5786 15.0609 20 14 20H8C8 20.5304 8.21071 21.0391 8.58579 21.4142C8.96086 21.7893 9.46957 22 10 22H15C16.3261 22 17.5979 21.4732 18.5355 20.5355C19.4732 19.5979 20 18.3261 20 17V8C20 7.46957 19.7893 6.96086 19.4142 6.58579C19.0391 6.21071 18.5304 6 18 6ZM16 16V4C16 3.46957 15.7893 2.96086 15.4142 2.58579C15.0391 2.21071 14.5304 2 14 2H9.79C9.389 2.00029 8.99213 2.08097 8.62285 2.23727C8.25356 2.39358 7.91936 2.62233 7.64 2.91L4.85 5.78C4.30551 6.33952 4.00059 7.08927 4 7.87V16C4 16.5304 4.21071 17.0391 4.58579 17.4142C4.96086 17.7893 5.46957 18 6 18H14C14.5304 18 15.0391 17.7893 15.4142 17.4142C15.7893 17.0391 16 16.5304 16 16ZM6 10H8V12H6V10ZM10 16H6.5C6.36739 16 6.24021 15.9473 6.14645 15.8536C6.05268 15.7598 6 15.6326 6 15.5V14H10V16ZM10 10H14V12H10V10ZM13.5 16H12V14H14V15.5C14 15.6326 13.9473 15.7598 13.8536 15.8536C13.7598 15.9473 13.6326 16 13.5 16Z" fill="#141414"/>
</svg>
