<svg width="24" height="24" viewBox="0 0 24 24" fill="none" xmlns="http://www.w3.org/2000/svg">
<path d="M21.7099 6.28992C21.617 6.19619 21.5064 6.1218 21.3845 6.07103C21.2627 6.02026 21.132 5.99412 20.9999 5.99412C20.8679 5.99412 20.7372 6.02026 20.6154 6.07103C20.4935 6.1218 20.3829 6.19619 20.2899 6.28992C20.1942 6.38831 20.0905 6.47862 19.9799 6.55992L17.4399 3.99992C17.5236 3.88802 17.6137 3.78117 17.7099 3.67992C17.8962 3.49256 18.0007 3.2391 18.0007 2.97492C18.0007 2.71073 17.8962 2.45728 17.7099 2.26992C17.617 2.17619 17.5064 2.1018 17.3845 2.05103C17.2627 2.00026 17.132 1.97412 16.9999 1.97412C16.8679 1.97412 16.7372 2.00026 16.6154 2.05103C16.4935 2.1018 16.3829 2.17619 16.2899 2.26992C15.624 2.94233 15.1147 3.75346 14.7983 4.64542C14.482 5.53737 14.3664 6.48816 14.4599 7.42992C13.5172 7.33466 12.565 7.45027 11.6724 7.76837C10.7799 8.08647 9.9692 8.5991 9.29917 9.26914C8.62913 9.93917 8.1165 10.7498 7.7984 11.6424C7.4803 12.535 7.36469 13.4872 7.45995 14.4299C6.51768 14.3412 5.5674 14.4599 4.67594 14.7778C3.78448 15.0957 2.97348 15.605 2.29995 16.2699C2.20622 16.3629 2.13183 16.4735 2.08106 16.5953C2.03029 16.7172 2.00415 16.8479 2.00415 16.9799C2.00415 17.1119 2.03029 17.2426 2.08106 17.3645C2.13183 17.4864 2.20622 17.597 2.29995 17.6899C2.39291 17.7836 2.50351 17.858 2.62537 17.9088C2.74723 17.9596 2.87794 17.9857 3.00995 17.9857C3.14196 17.9857 3.27267 17.9596 3.39453 17.9088C3.51638 17.858 3.62699 17.7836 3.71995 17.6899C3.80686 17.5997 3.90046 17.5161 3.99995 17.4399L6.55995 19.9999C6.47865 20.1105 6.38834 20.2142 6.28995 20.3099C6.19622 20.4029 6.12183 20.5135 6.07106 20.6353C6.02029 20.7572 5.99415 20.8879 5.99415 21.0199C5.99415 21.1519 6.02029 21.2826 6.07106 21.4045C6.12183 21.5264 6.19622 21.637 6.28995 21.7299C6.38291 21.8236 6.49351 21.898 6.61537 21.9488C6.73723 21.9996 6.86794 22.0257 6.99995 22.0257C7.13196 22.0257 7.26267 21.9996 7.38453 21.9488C7.50638 21.898 7.61699 21.8236 7.70995 21.7299C8.37486 21.0564 8.88416 20.2454 9.20205 19.3539C9.51993 18.4625 9.63868 17.5122 9.54995 16.5699C10.4927 16.6652 11.4449 16.5496 12.3375 16.2315C13.23 15.9134 14.0407 15.4007 14.7107 14.7307C15.3808 14.0607 15.8934 13.25 16.2115 12.3574C16.5296 11.4648 16.6452 10.5127 16.5499 9.56992C17.4923 9.65934 18.4427 9.54092 19.3343 9.223C20.2259 8.90507 21.0368 8.3954 21.7099 7.72992C21.8067 7.63664 21.8837 7.5248 21.9363 7.40109C21.9889 7.27738 22.016 7.14434 22.016 7.00992C22.016 6.8755 21.9889 6.74246 21.9363 6.61875C21.8837 6.49504 21.8067 6.3832 21.7099 6.28992ZM7.46995 18.0499L5.99995 16.5299C6.5295 16.4522 7.06528 16.4254 7.59995 16.4499C7.60798 16.9862 7.56444 17.522 7.46995 18.0499ZM9.46995 14.5399C9.4422 14.0258 9.46229 13.5103 9.52995 12.9999L11.0499 14.5199C10.5188 14.5825 9.98251 14.5892 9.44995 14.5399H9.46995ZM13.3099 13.2899C13.2142 13.3883 13.1105 13.4786 12.9999 13.5599L10.4399 10.9999C10.6058 10.7809 10.801 10.5858 11.0199 10.4199L13.5599 12.9999C13.4778 13.1036 13.3875 13.2006 13.2899 13.2899H13.3099ZM14.4899 11.0499L12.9999 9.52992C13.5294 9.45067 14.0656 9.42721 14.5999 9.45992C14.6127 9.99302 14.5692 10.526 14.4699 11.0499H14.4899ZM16.4899 7.53992C16.4542 7.02622 16.4709 6.51022 16.5399 5.99992L18.0499 7.51992C17.5221 7.58231 16.9892 7.58902 16.4599 7.53992H16.4899Z" fill="#141414"/>
</svg>
