<svg width="24" height="24" viewBox="0 0 24 24" fill="none" xmlns="http://www.w3.org/2000/svg">
<path d="M11.2902 17.71C11.3831 17.8037 11.4937 17.8781 11.6156 17.9289C11.7375 17.9797 11.8682 18.0058 12.0002 18.0058C12.1322 18.0058 12.2629 17.9797 12.3848 17.9289C12.5066 17.8781 12.6172 17.8037 12.7102 17.71L17.7102 12.71C17.8034 12.6168 17.8774 12.5061 17.9278 12.3842C17.9783 12.2624 18.0043 12.1319 18.0043 12C18.0043 11.8681 17.9783 11.7376 17.9278 11.6158C17.8774 11.4939 17.8034 11.3832 17.7102 11.29C17.6169 11.1968 17.5063 11.1228 17.3844 11.0723C17.2626 11.0219 17.132 10.9959 17.0002 10.9959C16.8683 10.9959 16.7378 11.0219 16.6159 11.0723C16.4941 11.1228 16.3834 11.1968 16.2902 11.29L13.0002 14.59V3C13.0002 2.73478 12.8948 2.48043 12.7073 2.29289C12.5198 2.10536 12.2654 2 12.0002 2C11.735 2 11.4806 2.10536 11.2931 2.29289C11.1055 2.48043 11.0002 2.73478 11.0002 3V14.59L7.71019 11.29C7.52188 11.1017 7.26649 10.9959 7.00019 10.9959C6.73388 10.9959 6.47849 11.1017 6.29019 11.29C6.10188 11.4783 5.99609 11.7337 5.99609 12C5.99609 12.2663 6.10188 12.5217 6.29019 12.71L11.2902 17.71ZM17.0002 20H7.00019C6.73497 20 6.48062 20.1054 6.29308 20.2929C6.10554 20.4804 6.00019 20.7348 6.00019 21C6.00019 21.2652 6.10554 21.5196 6.29308 21.7071C6.48062 21.8946 6.73497 22 7.00019 22H17.0002C17.2654 22 17.5198 21.8946 17.7073 21.7071C17.8948 21.5196 18.0002 21.2652 18.0002 21C18.0002 20.7348 17.8948 20.4804 17.7073 20.2929C17.5198 20.1054 17.2654 20 17.0002 20Z" fill="#141414"/>
</svg>
