<svg width="24" height="24" viewBox="0 0 24 24" fill="none" xmlns="http://www.w3.org/2000/svg">
<path d="M12.2601 22.0002C12.0827 22.003 11.9066 21.9689 11.743 21.9C11.5795 21.8312 11.4321 21.7291 11.3101 21.6002C10.2101 20.5102 11.6201 18.9002 15.0201 15.0302C16.2401 13.6502 18.1801 11.4502 19.2501 9.91019C18.0001 11.0002 16.2301 12.6402 14.8301 14.0002C9.11008 19.4902 6.00008 22.2802 4.37008 20.6202C2.74008 18.9602 5.06008 16.2602 11.0001 9.75019C12.4601 8.15019 14.2901 6.15019 15.3301 4.75019C13.2803 6.27012 11.311 7.89565 9.43008 9.62019C4.82008 13.6202 3.43008 14.7802 2.43008 13.7202C1.43008 12.6602 2.80008 10.8602 5.86008 7.45019C6.74008 6.42019 8.00008 5.00019 8.67008 4.09019C6.90489 4.73131 5.25645 5.65686 3.79008 6.83019C3.60315 7.01342 3.35184 7.11605 3.09008 7.11605C2.82833 7.11605 2.57701 7.01342 2.39008 6.83019C2.20984 6.64373 2.10909 6.39453 2.10909 6.13519C2.10909 5.87586 2.20984 5.62666 2.39008 5.44019C3.52334 4.46987 4.77701 3.64978 6.12008 3.00019C8.47008 1.83019 9.94008 1.65019 10.7301 2.44019C11.8901 3.59019 10.3601 5.31019 7.30008 8.72019L6.90008 9.16019L8.12008 8.14019C13.5301 3.40019 15.8801 1.54019 17.4201 2.30019C17.5989 2.38909 17.7544 2.51859 17.8742 2.67834C17.994 2.83809 18.0748 3.02365 18.1101 3.22019C18.3501 4.47019 16.8401 6.22019 12.4601 11.0702C10.2701 13.4802 6.76008 17.3302 6.00008 19.0002C7.57008 18.2402 11.1701 14.7802 13.4201 12.6202C18.0001 8.25019 19.6501 6.76019 20.8901 7.00019C21.0899 7.03332 21.2792 7.11305 21.4425 7.23292C21.6058 7.3528 21.7386 7.50945 21.8301 7.69019C22.5901 9.21019 20.8301 11.4902 16.5201 16.3602C15.8701 17.0902 15.1201 17.9502 14.5201 18.7302L15.9301 17.7302C18.8401 15.5702 20.5901 14.2602 21.6901 15.3602C21.8341 15.5248 21.9202 15.7322 21.9351 15.9504C21.95 16.1687 21.8929 16.3858 21.7726 16.5685C21.6523 16.7512 21.4755 16.8894 21.2691 16.962C21.0627 17.0345 20.8382 17.0374 20.6301 16.9702C19.3911 17.6375 18.2161 18.4175 17.1201 19.3002C14.8901 20.8602 13.3601 22.0002 12.2601 22.0002Z" fill="#141414"/>
</svg>
