<svg width="24" height="24" viewBox="0 0 24 24" fill="none" xmlns="http://www.w3.org/2000/svg">
<path d="M5 7H3C2.73478 7 2.48043 7.10536 2.29289 7.29289C2.10536 7.48043 2 7.73478 2 8C2 8.26522 2.10536 8.51957 2.29289 8.70711C2.48043 8.89464 2.73478 9 3 9H5C5 9.53043 5.21071 10.0391 5.58579 10.4142C5.96086 10.7893 6.46957 11 7 11H9V5H7C6.46957 5 5.96086 5.21071 5.58579 5.58579C5.21071 5.96086 5 6.46957 5 7ZM19.3 11.77C20.1862 11.4559 20.9334 10.8397 21.4104 10.0295C21.8875 9.21937 22.0639 8.26706 21.9088 7.33977C21.7537 6.41248 21.2768 5.56946 20.562 4.95872C19.8472 4.34798 18.9401 4.00855 18 4H13C12.4696 4 11.9609 4.21071 11.5858 4.58579C11.2107 4.96086 11 5.46957 11 6V10C11 10.5304 11.2107 11.0391 11.5858 11.4142C11.9609 11.7893 12.4696 12 13 12H14.28L15.61 16H14C13.4696 16 12.9609 16.2107 12.5858 16.5858C12.2107 16.9609 12 17.4696 12 18C12 18.5304 12.2107 19.0391 12.5858 19.4142C12.9609 19.7893 13.4696 20 14 20H18.38C19.0749 20 19.7413 19.724 20.2326 19.2326C20.724 18.7413 21 18.0749 21 17.38C21.0005 17.0035 20.9186 16.6315 20.76 16.29L19.3 11.77Z" fill="#141414"/>
</svg>
