<svg width="24" height="24" viewBox="0 0 24 24" fill="none" xmlns="http://www.w3.org/2000/svg">
<path d="M16.92 15.4298C16.1899 16.4777 15.1444 17.2653 13.9356 17.678C12.7269 18.0907 11.4181 18.1068 10.1995 17.7242C8.98097 17.3415 7.91631 16.58 7.16048 15.5505C6.40465 14.5209 5.99708 13.277 5.99708 11.9998C5.99708 10.7226 6.40465 9.47868 7.16048 8.44912C7.91631 7.41955 8.98097 6.65804 10.1995 6.27539C11.4181 5.89275 12.7269 5.90893 13.9356 6.32159C15.1444 6.73425 16.1899 7.52185 16.92 8.56979C17.077 8.7723 17.3057 8.90682 17.559 8.9456C17.8122 8.98439 18.0707 8.92448 18.2811 8.77824C18.4915 8.63199 18.6377 8.41057 18.6896 8.15966C18.7415 7.90875 18.6951 7.64749 18.56 7.42979C17.6343 6.10685 16.3301 5.09495 14.8186 4.52713C13.3071 3.95931 11.6591 3.86214 10.0914 4.2484C8.52365 4.63465 7.10947 5.48626 6.03476 6.69126C4.96006 7.89625 4.27512 9.39825 4.07 10.9998H3C2.73478 10.9998 2.48043 11.1052 2.29289 11.2927C2.10536 11.4802 2 11.7346 2 11.9998C2 12.265 2.10536 12.5194 2.29289 12.7069C2.48043 12.8944 2.73478 12.9998 3 12.9998H4.07C4.27512 14.6013 4.96006 16.1033 6.03476 17.3083C7.10947 18.5133 8.52365 19.3649 10.0914 19.7512C11.6591 20.1374 13.3071 20.0403 14.8186 19.4725C16.3301 18.9046 17.6343 17.8927 18.56 16.5698C18.6951 16.3521 18.7415 16.0908 18.6896 15.8399C18.6377 15.589 18.4915 15.3676 18.2811 15.2214C18.0707 15.0751 17.8122 15.0152 17.559 15.054C17.3057 15.0928 17.077 15.2273 16.92 15.4298ZM21 10.9998H15.86C15.6166 10.0571 15.0378 9.2356 14.232 8.68919C13.4262 8.14278 12.4488 7.909 11.483 8.03168C10.5172 8.15435 9.62927 8.62506 8.98568 9.35556C8.34209 10.0861 7.98702 11.0262 7.98702 11.9998C7.98702 12.9734 8.34209 13.9135 8.98568 14.644C9.62927 15.3745 10.5172 15.8452 11.483 15.9679C12.4488 16.0906 13.4262 15.8568 14.232 15.3104C15.0378 14.764 15.6166 13.9425 15.86 12.9998H21C21.2652 12.9998 21.5196 12.8944 21.7071 12.7069C21.8946 12.5194 22 12.265 22 11.9998C22 11.7346 21.8946 11.4802 21.7071 11.2927C21.5196 11.1052 21.2652 10.9998 21 10.9998Z" fill="#141414"/>
</svg>
