<svg width="24" height="24" viewBox="0 0 24 24" fill="none" xmlns="http://www.w3.org/2000/svg">
<path d="M22 12C22 10.0222 21.4135 8.08879 20.3147 6.4443C19.2159 4.79981 17.6541 3.51809 15.8268 2.76121C13.9996 2.00433 11.9889 1.8063 10.0491 2.19215C8.10929 2.578 6.32746 3.53041 4.92894 4.92894C3.53041 6.32746 2.578 8.10929 2.19215 10.0491C1.8063 11.9889 2.00433 13.9996 2.76121 15.8268C3.51809 17.6541 4.79981 19.2159 6.4443 20.3147C8.08879 21.4135 10.0222 22 12 22C14.6522 22 17.1957 20.9464 19.0711 19.0711C20.9464 17.1957 22 14.6522 22 12ZM11.29 16.71L8.29 13.71C8.19628 13.617 8.12188 13.5064 8.07111 13.3846C8.02034 13.2627 7.99421 13.132 7.99421 13C7.99421 12.868 8.02034 12.7373 8.07111 12.6154C8.12188 12.4936 8.19628 12.383 8.29 12.29C8.38297 12.1963 8.49357 12.1219 8.61543 12.0711C8.73729 12.0203 8.86799 11.9942 9 11.9942C9.13202 11.9942 9.26272 12.0203 9.38458 12.0711C9.50644 12.1219 9.61704 12.1963 9.71 12.29L11 13.59V8C11 7.73479 11.1054 7.48043 11.2929 7.2929C11.4804 7.10536 11.7348 7 12 7C12.2652 7 12.5196 7.10536 12.7071 7.2929C12.8946 7.48043 13 7.73479 13 8V13.59L14.29 12.29C14.4783 12.1017 14.7337 11.9959 15 11.9959C15.2663 11.9959 15.5217 12.1017 15.71 12.29C15.8983 12.4783 16.0041 12.7337 16.0041 13C16.0041 13.2663 15.8983 13.5217 15.71 13.71L12.71 16.71C12.6149 16.801 12.5028 16.8724 12.38 16.92C12.1365 17.02 11.8635 17.02 11.62 16.92C11.4973 16.8724 11.3851 16.801 11.29 16.71Z" fill="#141414"/>
</svg>
