<svg width="24" height="24" viewBox="0 0 24 24" fill="none" xmlns="http://www.w3.org/2000/svg">
<path d="M16.88 7.1199C17.27 7.5099 17.9 7.5099 18.29 7.1199L19 6.4099L19.71 7.1199C20.1 7.5099 20.73 7.5099 21.12 7.1199C21.51 6.7299 21.51 6.0999 21.12 5.7099L20.41 4.9999L21.12 4.2899C21.51 3.8999 21.51 3.2699 21.12 2.8799C20.73 2.4899 20.1 2.4899 19.71 2.8799L19 3.5899L18.29 2.8799C17.9 2.4899 17.27 2.4899 16.88 2.8799C16.49 3.2699 16.49 3.8999 16.88 4.2899L17.59 4.9999L16.88 5.7099C16.49 6.0999 16.49 6.7299 16.88 7.1199ZM21.75 9.1699C20.96 9.6899 20.02 9.9999 19 9.9999C16.24 9.9999 14 7.7599 14 4.9999C14 4.6599 14.04 4.3199 14.1 3.9999H9C5.13 3.9999 2 7.1299 2 10.9999C2 14.5299 4.61 17.4299 8 17.9199V19.9999C8 21.2399 9.41 21.9399 10.4 21.1999L14.67 17.9999H15C18.87 17.9999 22 14.8699 22 10.9999C22 10.3699 21.91 9.7499 21.75 9.1699Z" fill="#141414"/>
</svg>
