<svg width="24" height="24" viewBox="0 0 24 24" fill="none" xmlns="http://www.w3.org/2000/svg">
<path opacity="0.2" d="M7.7125 7.28859C7.3225 6.89859 6.6925 6.89859 6.3025 7.28859L2.2925 11.2886C1.9025 11.6786 1.9025 12.3086 2.2925 12.6986L6.2925 16.6986C6.4925 16.8986 6.7425 16.9886 7.0025 16.9886C7.2625 16.9886 7.5125 16.8886 7.7125 16.6986C8.1025 16.3086 8.1025 15.6786 7.7125 15.2886L4.4225 11.9986L7.7125 8.70859C8.1025 8.31859 8.1025 7.68859 7.7125 7.29859V7.28859ZM21.7125 11.2886L17.7125 7.28859C17.3225 6.89859 16.6925 6.89859 16.3025 7.28859C15.9125 7.67859 15.9125 8.30859 16.3025 8.69859L19.5925 11.9886L16.3025 15.2786C15.9125 15.6686 15.9125 16.2986 16.3025 16.6886C16.5025 16.8886 16.7525 16.9786 17.0125 16.9786C17.2725 16.9786 17.5225 16.8786 17.7225 16.6886L21.7225 12.6886C22.1125 12.2986 22.1125 11.6686 21.7225 11.2786L21.7125 11.2886Z" fill="#141414"/>
<path d="M13.25 16.17C13.09 15.92 12.85 15.73 12.58 15.62C12.31 15.51 12 15.48 11.71 15.53C11.42 15.59 11.15 15.73 10.94 15.94C10.73 16.15 10.59 16.42 10.53 16.71C10.47 17 10.5 17.3 10.62 17.58C10.74 17.86 10.93 18.09 11.17 18.25C11.42 18.41 11.71 18.5 12 18.5C12.4 18.5 12.78 18.34 13.06 18.06C13.34 17.78 13.5 17.4 13.5 17C13.5 16.7 13.41 16.41 13.25 16.17ZM12 13.5C12.27 13.5 12.52 13.39 12.71 13.21C12.9 13.03 13 12.77 13 12.5V6.5C13 6.23 12.89 5.98 12.71 5.79C12.52 5.6 12.27 5.5 12 5.5C11.73 5.5 11.48 5.61 11.29 5.79C11.1 5.98 11 6.23 11 6.5V12.5C11 12.77 11.11 13.02 11.29 13.21C11.47 13.4 11.73 13.5 12 13.5Z" fill="#141414"/>
</svg>
