<svg width="24" height="24" viewBox="0 0 24 24" fill="none" xmlns="http://www.w3.org/2000/svg">
<path d="M19.4999 4.5C18.8363 3.83805 17.9372 3.46631 16.9999 3.46631C16.0626 3.46631 15.1635 3.83805 14.4999 4.5L14.2099 4.79L19.2099 9.79L19.4999 9.5C20.1618 8.83638 20.5336 7.93732 20.5336 7C20.5336 6.06268 20.1618 5.16362 19.4999 4.5ZM5.5499 13.5C5.19016 13.8617 4.92859 14.3091 4.7899 14.8L3.7899 18.45C3.72963 18.6998 3.73453 18.9608 3.80413 19.2082C3.87373 19.4555 4.0057 19.6808 4.18739 19.8625C4.36907 20.0442 4.59438 20.1762 4.84172 20.2458C5.08905 20.3154 5.35012 20.3203 5.5999 20.26L9.2499 19.21C9.7408 19.0713 10.1882 18.8097 10.5499 18.45L17.7899 11.21L12.7899 6.21L5.5499 13.5Z" fill="#141414"/>
</svg>
