<svg width="24" height="24" viewBox="0 0 24 24" fill="none" xmlns="http://www.w3.org/2000/svg">
<path d="M16.9999 13C16.6614 13.0053 16.3251 13.0558 15.9999 13.15L10.8499 8C10.9441 7.67481 10.9945 7.33852 10.9999 7C10.9999 5.93913 10.5785 4.92172 9.82831 4.17157C9.07817 3.42143 8.06075 3 6.99989 3H6.78989C6.5984 3.01194 6.41439 3.07872 6.2598 3.19236C6.10522 3.306 5.98659 3.46172 5.91807 3.64092C5.84955 3.82013 5.83403 4.01527 5.87336 4.20305C5.91269 4.39084 6.00521 4.56335 6.13989 4.7L6.99989 5.59L5.58989 7L4.71989 6.14C4.58748 6.01832 4.42472 5.93459 4.24873 5.89763C4.07275 5.86068 3.89005 5.87186 3.71989 5.93C3.53053 5.98363 3.36122 6.09194 3.23314 6.24136C3.10506 6.39078 3.02393 6.57467 2.99989 6.77C2.99496 6.84659 2.99496 6.92341 2.99989 7C2.99989 8.06087 3.42131 9.07828 4.17146 9.82843C4.9216 10.5786 5.93902 11 6.99989 11C7.3384 10.9947 7.6747 10.9442 7.99989 10.85L13.1499 16C13.0557 16.3252 13.0052 16.6615 12.9999 17C12.9999 17.7911 13.2345 18.5645 13.674 19.2223C14.1135 19.8801 14.7382 20.3928 15.4692 20.6955C16.2001 20.9983 17.0043 21.0775 17.7802 20.9231C18.5562 20.7688 19.2689 20.3878 19.8283 19.8284C20.3877 19.269 20.7687 18.5563 20.923 17.7804C21.0774 17.0044 20.9982 16.2002 20.6954 15.4693C20.3927 14.7384 19.88 14.1136 19.2222 13.6741C18.5644 13.2346 17.791 13 16.9999 13ZM16.9999 19C16.6043 19 16.2176 18.8827 15.8887 18.6629C15.5598 18.4432 15.3035 18.1308 15.1521 17.7654C15.0008 17.3999 14.9611 16.9978 15.0383 16.6098C15.1155 16.2219 15.306 15.8655 15.5857 15.5858C15.8654 15.3061 16.2217 15.1156 16.6097 15.0384C16.9977 14.9613 17.3998 15.0009 17.7653 15.1522C18.1307 15.3036 18.4431 15.56 18.6628 15.8889C18.8826 16.2178 18.9999 16.6044 18.9999 17C18.9999 17.5304 18.7892 18.0391 18.4141 18.4142C18.039 18.7893 17.5303 19 16.9999 19ZM16.9999 11C18.0608 11 19.0782 10.5786 19.8283 9.82843C20.5785 9.07828 20.9999 8.06087 20.9999 7C21.0066 6.9335 21.0066 6.8665 20.9999 6.8C20.9897 6.60767 20.9242 6.42236 20.8113 6.26635C20.6983 6.11034 20.5427 5.99027 20.3632 5.92056C20.1836 5.85086 19.9878 5.83448 19.7992 5.87341C19.6105 5.91234 19.4372 6.00491 19.2999 6.14L18.4099 7L16.9999 5.59L17.8599 4.72C17.9816 4.5876 18.0653 4.42483 18.1023 4.24885C18.1392 4.07286 18.128 3.89017 18.0699 3.72C18.0163 3.53065 17.9079 3.36133 17.7585 3.23325C17.6091 3.10518 17.4252 3.02404 17.2299 3H16.9999C15.939 3 14.9216 3.42143 14.1715 4.17157C13.4213 4.92172 12.9999 5.93913 12.9999 7C12.9999 8.06087 13.4213 9.07828 14.1715 9.82843C14.9216 10.5786 15.939 11 16.9999 11ZM6.99989 13C5.93902 13 4.9216 13.4214 4.17146 14.1716C3.42131 14.9217 2.99989 15.9391 2.99989 17C2.9932 17.0665 2.9932 17.1335 2.99989 17.2C3.01005 17.3923 3.07554 17.5776 3.18849 17.7336C3.30143 17.8897 3.45703 18.0097 3.63658 18.0794C3.81612 18.1491 4.01198 18.1655 4.2006 18.1266C4.38923 18.0877 4.5626 17.9951 4.69989 17.86L5.58989 17L6.99989 18.41L6.13989 19.28C6.0182 19.4124 5.93448 19.5752 5.89752 19.7512C5.86056 19.9271 5.87174 20.1098 5.92989 20.28C5.99162 20.46 6.10346 20.6187 6.25225 20.7374C6.40105 20.8561 6.58063 20.9298 6.76989 20.95L6.99989 21C8.06075 21 9.07817 20.5786 9.82831 19.8284C10.5785 19.0783 10.9999 18.0609 10.9999 17C10.9999 15.9391 10.5785 14.9217 9.82831 14.1716C9.07817 13.4214 8.06075 13 6.99989 13Z" fill="#141414"/>
</svg>
