<svg width="24" height="24" viewBox="0 0 24 24" fill="none" xmlns="http://www.w3.org/2000/svg">
<path d="M18.7099 15.2902C18.5216 15.1019 18.2662 14.9961 17.9999 14.9961C17.7336 14.9961 17.4782 15.1019 17.2899 15.2902C17.1016 15.4785 16.9958 15.7339 16.9958 16.0002C16.9958 16.2665 17.1016 16.5219 17.2899 16.7102L17.5899 17.0002H6.99994C6.46951 17.0002 5.9608 16.7895 5.58573 16.4144C5.21065 16.0393 4.99994 15.5306 4.99994 15.0002C4.99994 14.735 4.89458 14.4806 4.70705 14.2931C4.51951 14.1055 4.26516 14.0002 3.99994 14.0002C3.73472 14.0002 3.48037 14.1055 3.29283 14.2931C3.1053 14.4806 2.99994 14.735 2.99994 15.0002C2.99994 16.0611 3.42137 17.0785 4.17151 17.8286C4.92166 18.5788 5.93907 19.0002 6.99994 19.0002H17.5899L17.2899 19.2902C17.1962 19.3831 17.1218 19.4937 17.071 19.6156C17.0203 19.7375 16.9941 19.8682 16.9941 20.0002C16.9941 20.1322 17.0203 20.2629 17.071 20.3848C17.1218 20.5066 17.1962 20.6172 17.2899 20.7102C17.3829 20.8039 17.4935 20.8783 17.6154 20.9291C17.7372 20.9798 17.8679 21.006 17.9999 21.006C18.132 21.006 18.2627 20.9798 18.3845 20.9291C18.5064 20.8783 18.617 20.8039 18.7099 20.7102L20.7099 18.7102C20.8037 18.6172 20.8781 18.5066 20.9288 18.3848C20.9796 18.2629 21.0057 18.1322 21.0057 18.0002C21.0057 17.8682 20.9796 17.7375 20.9288 17.6156C20.8781 17.4937 20.8037 17.3831 20.7099 17.2902L18.7099 15.2902ZM5.28994 8.71019C5.3829 8.80391 5.4935 8.87831 5.61536 8.92908C5.73722 8.97985 5.86793 9.00598 5.99994 9.00598C6.13195 9.00598 6.26266 8.97985 6.38452 8.92908C6.50638 8.87831 6.61698 8.80391 6.70994 8.71019C6.80367 8.61722 6.87806 8.50662 6.92883 8.38476C6.9796 8.2629 7.00574 8.1322 7.00574 8.00019C7.00574 7.86817 6.9796 7.73747 6.92883 7.61561C6.87806 7.49375 6.80367 7.38315 6.70994 7.29019L6.40994 7.00019H16.9999C17.5304 7.00019 18.0391 7.2109 18.4142 7.58597C18.7892 7.96104 18.9999 8.46975 18.9999 9.00019C18.9999 9.2654 19.1053 9.51976 19.2928 9.70729C19.4804 9.89483 19.7347 10.0002 19.9999 10.0002C20.2652 10.0002 20.5195 9.89483 20.707 9.70729C20.8946 9.51976 20.9999 9.2654 20.9999 9.00019C20.9999 7.93932 20.5785 6.9219 19.8284 6.17176C19.0782 5.42161 18.0608 5.00019 16.9999 5.00019H6.40994L6.70994 4.71019C6.89824 4.52188 7.00403 4.26649 7.00403 4.00019C7.00403 3.73388 6.89824 3.47849 6.70994 3.29019C6.52164 3.10188 6.26624 2.99609 5.99994 2.99609C5.73364 2.99609 5.47824 3.10188 5.28994 3.29019L3.28994 5.29019C3.19621 5.38315 3.12182 5.49375 3.07105 5.61561C3.02028 5.73747 2.99414 5.86817 2.99414 6.00019C2.99414 6.1322 3.02028 6.2629 3.07105 6.38476C3.12182 6.50662 3.19621 6.61722 3.28994 6.71019L5.28994 8.71019Z" fill="#141414"/>
</svg>
