<svg width="24" height="24" viewBox="0 0 24 24" fill="none" xmlns="http://www.w3.org/2000/svg">
<path d="M9.71 6.70994L11 5.40994V15.9999C11 16.2652 11.1054 16.5195 11.2929 16.707C11.4804 16.8946 11.7348 16.9999 12 16.9999C12.2652 16.9999 12.5196 16.8946 12.7071 16.707C12.8946 16.5195 13 16.2652 13 15.9999V5.40994L14.29 6.70994C14.383 6.80367 14.4936 6.87806 14.6154 6.92883C14.7373 6.9796 14.868 7.00574 15 7.00574C15.132 7.00574 15.2627 6.9796 15.3846 6.92883C15.5064 6.87806 15.617 6.80367 15.71 6.70994C15.8037 6.61698 15.8781 6.50637 15.9289 6.38452C15.9797 6.26266 16.0058 6.13195 16.0058 5.99994C16.0058 5.86793 15.9797 5.73722 15.9289 5.61536C15.8781 5.4935 15.8037 5.3829 15.71 5.28994L12.71 2.28994C12.617 2.19621 12.5064 2.12182 12.3846 2.07105C12.2627 2.02028 12.132 1.99414 12 1.99414C11.868 1.99414 11.7373 2.02028 11.6154 2.07105C11.4936 2.12182 11.383 2.19621 11.29 2.28994L8.29 5.28994C8.1017 5.47824 7.99591 5.73364 7.99591 5.99994C7.99591 6.26624 8.1017 6.52164 8.29 6.70994C8.4783 6.89824 8.7337 7.00403 9 7.00403C9.2663 7.00403 9.5217 6.89824 9.71 6.70994ZM20 11.9999C19.7348 11.9999 19.4804 12.1053 19.2929 12.2928C19.1054 12.4804 19 12.7347 19 12.9999V18.9999C19 19.2652 18.8946 19.5195 18.7071 19.707C18.5196 19.8946 18.2652 19.9999 18 19.9999H6C5.73478 19.9999 5.48043 19.8946 5.29289 19.707C5.10536 19.5195 5 19.2652 5 18.9999V12.9999C5 12.7347 4.89464 12.4804 4.70711 12.2928C4.51957 12.1053 4.26522 11.9999 4 11.9999C3.73478 11.9999 3.48043 12.1053 3.29289 12.2928C3.10536 12.4804 3 12.7347 3 12.9999V18.9999C3 19.7956 3.31607 20.5587 3.87868 21.1213C4.44129 21.6839 5.20435 21.9999 6 21.9999H18C18.7956 21.9999 19.5587 21.6839 20.1213 21.1213C20.6839 20.5587 21 19.7956 21 18.9999V12.9999C21 12.7347 20.8946 12.4804 20.7071 12.2928C20.5196 12.1053 20.2652 11.9999 20 11.9999Z" fill="#141414"/>
</svg>
