<svg width="24" height="24" viewBox="0 0 24 24" fill="none" xmlns="http://www.w3.org/2000/svg">
<path d="M12.46 8L15.13 4H11.54L8.87 8H12.46ZM9.13 4H7C6.20435 4 5.44129 4.31607 4.87868 4.87868C4.31607 5.44129 4 6.20435 4 7V8H6.46L9.13 4ZM4 17C4 17.7956 4.31607 18.5587 4.87868 19.1213C5.44129 19.6839 6.20435 20 7 20H17C17.7956 20 18.5587 19.6839 19.1213 19.1213C19.6839 18.5587 20 17.7956 20 17V10H4V17ZM19.29 5.07C18.8293 4.53678 18.1956 4.18276 17.5 4.07L14.87 8H20V7C19.9981 6.29311 19.7467 5.60959 19.29 5.07Z" fill="#141414"/>
</svg>
