<svg width="24" height="24" viewBox="0 0 24 24" fill="none" xmlns="http://www.w3.org/2000/svg">
<path d="M12 11C11.8022 11 11.6089 11.0586 11.4444 11.1685C11.28 11.2784 11.1518 11.4346 11.0761 11.6173C11.0004 11.8 10.9806 12.0011 11.0192 12.1951C11.0578 12.3891 11.153 12.5673 11.2929 12.7071C11.4328 12.847 11.6109 12.9422 11.8049 12.9808C11.9989 13.0194 12.2 12.9996 12.3827 12.9239C12.5654 12.8482 12.7216 12.72 12.8315 12.5556C12.9414 12.3911 13 12.1978 13 12C13 11.7348 12.8946 11.4804 12.7071 11.2929C12.5196 11.1054 12.2652 11 12 11ZM12 2C10.0222 2 8.08879 2.58649 6.4443 3.6853C4.79981 4.78412 3.51809 6.3459 2.76121 8.17317C2.00433 10.0004 1.8063 12.0111 2.19215 13.9509C2.578 15.8907 3.53041 17.6725 4.92894 19.0711C6.32746 20.4696 8.10929 21.422 10.0491 21.8079C11.9889 22.1937 13.9996 21.9957 15.8268 21.2388C17.6541 20.4819 19.2159 19.2002 20.3147 17.5557C21.4135 15.9112 22 13.9778 22 12C22 10.6868 21.7413 9.38642 21.2388 8.17317C20.7363 6.95991 19.9997 5.85752 19.0711 4.92893C18.1425 4.00035 17.0401 3.26375 15.8268 2.7612C14.6136 2.25866 13.3132 2 12 2ZM15.89 9.45L14 13.15C13.8069 13.5347 13.4947 13.8468 13.11 14.04L9.41 15.89C9.28365 15.9578 9.14332 15.9954 9 16C8.8684 16.0008 8.73794 15.9755 8.6161 15.9258C8.49426 15.876 8.38344 15.8027 8.29 15.71C8.14155 15.5603 8.04421 15.3675 8.01189 15.1592C7.97956 14.9509 8.0139 14.7376 8.11 14.55L10 10.85C10.1932 10.4653 10.5053 10.1532 10.89 9.96L14.59 8.11C14.7775 8.0171 14.9894 7.98536 15.1959 8.01926C15.4024 8.05316 15.5931 8.15098 15.7411 8.29895C15.889 8.44692 15.9868 8.63757 16.0207 8.84407C16.0546 9.05057 16.0229 9.26249 15.93 9.45H15.89Z" fill="#141414"/>
</svg>
