<svg width="24" height="24" viewBox="0 0 24 24" fill="none" xmlns="http://www.w3.org/2000/svg">
<path d="M3 5V19C3 19.5304 3.21071 20.0391 3.58579 20.4142C3.96086 20.7893 4.46957 21 5 21H11V3H5C4.46957 3 3.96086 3.21071 3.58579 3.58579C3.21071 3.96086 3 4.46957 3 5ZM5.17 11.77L6.42 10.27C6.49397 10.19 6.58367 10.1262 6.68349 10.0826C6.7833 10.0389 6.89106 10.0164 7 10.0164C7.10894 10.0164 7.2167 10.0389 7.31651 10.0826C7.41633 10.1262 7.50603 10.19 7.58 10.27L8.83 11.77C8.91897 11.8811 8.97542 12.0146 8.99307 12.1559C9.01072 12.2971 8.98889 12.4404 8.93 12.57C8.86921 12.6989 8.77296 12.8077 8.65254 12.8839C8.53211 12.96 8.39248 13.0003 8.25 13H5.75C5.60752 13.0003 5.46789 12.96 5.34746 12.8839C5.22704 12.8077 5.13079 12.6989 5.07 12.57C5.01111 12.4404 4.98928 12.2971 5.00693 12.1559C5.02458 12.0146 5.08103 11.8811 5.17 11.77ZM19 3H13V21H19C19.5304 21 20.0391 20.7893 20.4142 20.4142C20.7893 20.0391 21 19.5304 21 19V5C21 4.46957 20.7893 3.96086 20.4142 3.58579C20.0391 3.21071 19.5304 3 19 3ZM18.83 12.23L17.58 13.73C17.5087 13.8143 17.4198 13.882 17.3196 13.9284C17.2195 13.9748 17.1104 13.9989 17 13.9989C16.8896 13.9989 16.7805 13.9748 16.6804 13.9284C16.5802 13.882 16.4913 13.8143 16.42 13.73L15.17 12.23C15.081 12.1189 15.0246 11.9854 15.0069 11.8441C14.9893 11.7029 15.0111 11.5596 15.07 11.43C15.1308 11.3011 15.227 11.1923 15.3475 11.1161C15.4679 11.04 15.6075 10.9997 15.75 11H18.25C18.3925 10.9997 18.5321 11.04 18.6525 11.1161C18.773 11.1923 18.8692 11.3011 18.93 11.43C18.9889 11.5596 19.0107 11.7029 18.9931 11.8441C18.9754 11.9854 18.919 12.1189 18.83 12.23Z" fill="#141414"/>
</svg>
