<svg width="24" height="24" viewBox="0 0 24 24" fill="none" xmlns="http://www.w3.org/2000/svg">
<path d="M12 4C6.48 4 2 7.58 2 12C2 16.42 6.48 20 12 20C17.52 20 22 16.42 22 12C22 7.58 17.52 4 12 4ZM5.88 12.82C5.81951 13.0363 5.68797 13.2259 5.50656 13.3584C5.32515 13.4908 5.10445 13.5583 4.88 13.55C4.78696 13.5604 4.69304 13.5604 4.6 13.55C4.35076 13.4597 4.14756 13.2742 4.03505 13.0342C3.92255 12.7942 3.90994 12.5193 4 12.27C4.06705 12.0962 4.06705 11.9038 4 11.73C3.92707 11.4741 3.95879 11.1996 4.08819 10.9671C4.21759 10.7346 4.43407 10.5629 4.69 10.49C4.94593 10.4171 5.22036 10.4488 5.4529 10.5782C5.68545 10.7076 5.85707 10.9241 5.93 11.18C6.0901 11.7149 6.0901 12.2851 5.93 12.82H5.88ZM9.73 13.92C9.66951 14.1363 9.53797 14.3259 9.35656 14.4584C9.17515 14.5908 8.95445 14.6583 8.73 14.65C8.63724 14.6646 8.54276 14.6646 8.45 14.65C8.32303 14.6143 8.20438 14.5538 8.10088 14.472C7.99738 14.3903 7.91108 14.2889 7.84694 14.1736C7.78281 14.0583 7.74211 13.9315 7.72719 13.8005C7.71227 13.6694 7.72342 13.5367 7.76 13.41C8.0268 12.5162 8.0268 11.5638 7.76 10.67C7.68707 10.4141 7.71879 10.1396 7.84819 9.9071C7.97759 9.67455 8.19407 9.50293 8.45 9.43C8.70593 9.35707 8.98036 9.38879 9.2129 9.51819C9.44545 9.64759 9.61706 9.86407 9.69 10.12C10.0479 11.375 10.0479 12.705 9.69 13.96L9.73 13.92ZM13.57 15C13.5095 15.2163 13.378 15.4059 13.1966 15.5384C13.0152 15.6708 12.7944 15.7383 12.57 15.73C12.4803 15.7397 12.3897 15.7397 12.3 15.73C12.173 15.6943 12.0544 15.6338 11.9509 15.552C11.8474 15.4703 11.7611 15.3689 11.6969 15.2536C11.6328 15.1383 11.5921 15.0115 11.5772 14.8805C11.5623 14.7494 11.5734 14.6167 11.61 14.49C12.0767 12.8764 12.0767 11.1636 11.61 9.55C11.5739 9.4213 11.5635 9.28676 11.5794 9.15404C11.5952 9.02132 11.6371 8.89303 11.7026 8.77649C11.768 8.65995 11.8558 8.55745 11.9609 8.47484C12.066 8.39222 12.1863 8.33111 12.315 8.295C12.4437 8.25889 12.5782 8.24848 12.711 8.26436C12.8437 8.28025 12.972 8.32212 13.0885 8.38758C13.205 8.45305 13.3076 8.54082 13.3902 8.6459C13.4728 8.75098 13.5339 8.8713 13.57 9C14.1356 10.96 14.1356 13.04 13.57 15ZM17.41 16.1C17.3476 16.3144 17.2153 16.5018 17.0341 16.6323C16.8528 16.7628 16.6331 16.8289 16.41 16.82C16.3203 16.8298 16.2297 16.8298 16.14 16.82C16.013 16.7843 15.8944 16.7238 15.7909 16.642C15.6874 16.5603 15.6011 16.4589 15.5369 16.3436C15.4728 16.2283 15.4321 16.1015 15.4172 15.9705C15.4023 15.8394 15.4134 15.7067 15.45 15.58C16.13 13.2486 16.13 10.7714 15.45 8.44C15.4134 8.31328 15.4023 8.18057 15.4172 8.04952C15.4321 7.91846 15.4728 7.79166 15.5369 7.6764C15.6011 7.56115 15.6874 7.45972 15.7909 7.37796C15.8944 7.29619 16.013 7.23571 16.14 7.2C16.3946 7.12915 16.6669 7.16196 16.8973 7.29125C17.1278 7.42054 17.2978 7.6358 17.37 7.89C18.1567 10.5803 18.1567 13.4397 17.37 16.13L17.41 16.1Z" fill="#141414"/>
</svg>
