<svg width="24" height="24" viewBox="0 0 24 24" fill="none" xmlns="http://www.w3.org/2000/svg">
<path d="M21.07 7.61006L12.57 4.11006C12.2 3.96006 11.79 3.96006 11.43 4.11006L2.93 7.61006C2.37 7.84006 2 8.39006 2 9.00006V16.0001C2 16.5501 2.45 17.0001 3 17.0001C3.55 17.0001 4 16.5501 4 16.0001V10.8301L11.43 13.8901C11.61 13.9701 11.81 14.0001 12 14.0001C12.19 14.0001 12.39 13.9601 12.57 13.8901L21.07 10.3901C21.63 10.1601 22 9.61006 22 9.00006C22 8.39006 21.63 7.84006 21.07 7.61006ZM12 16.0001C11.54 16.0001 11.09 15.9101 10.67 15.7401L6 13.8201V17.5101C6 18.1001 6.36 18.6401 6.9 18.8801L11.4 20.8401C11.59 20.9201 11.79 20.9601 12 20.9601C12.21 20.9601 12.41 20.9201 12.6 20.8401L17.1 18.8801C17.65 18.6401 18 18.1101 18 17.5101V13.8201L13.33 15.7401C12.9 15.9201 12.46 16.0001 12 16.0001Z" fill="#141414"/>
</svg>
