<svg width="24" height="24" viewBox="0 0 24 24" fill="none" xmlns="http://www.w3.org/2000/svg">
<path d="M4.37997 16.0001C3.70997 16.6701 3.37997 18.6001 3.25997 19.8001C3.24364 19.9274 3.25672 20.0568 3.29819 20.1783C3.33965 20.2997 3.40841 20.4101 3.49918 20.5009C3.58995 20.5916 3.70031 20.6604 3.82179 20.7019C3.94327 20.7433 4.07264 20.7564 4.19997 20.7401C5.39997 20.6101 7.32997 20.2901 7.99997 19.6201C8.46848 19.1377 8.72836 18.4903 8.72344 17.8178C8.71853 17.1454 8.44921 16.5019 7.9737 16.0263C7.49819 15.5508 6.85467 15.2815 6.18222 15.2766C5.50976 15.2717 4.86238 15.5316 4.37997 16.0001ZM21 4.09008C21.0139 3.94347 20.9952 3.79561 20.9454 3.65704C20.8955 3.51847 20.8157 3.39263 20.7115 3.2885C20.6074 3.18437 20.4816 3.10452 20.343 3.05466C20.2044 3.0048 20.0566 2.98617 19.91 3.00008C19.27 3.06008 13.59 3.63008 11.17 6.00008C10.4376 6.7557 9.79649 7.59479 9.25997 8.50008C8.62563 8.26528 7.94022 8.20359 7.27415 8.32133C6.60808 8.43908 5.98536 8.73203 5.46997 9.17008L3.28997 11.3501C3.16143 11.4784 3.07024 11.6392 3.0262 11.8154C2.98215 11.9916 2.98691 12.1764 3.03997 12.3501C3.08928 12.5224 3.18398 12.6782 3.31416 12.8014C3.44434 12.9245 3.60522 13.0104 3.77997 13.0501L8.50997 14.1201L9.88997 15.5001L11 20.2201C11.0396 20.3948 11.1255 20.5557 11.2487 20.6859C11.3718 20.8161 11.5277 20.9108 11.7 20.9601C11.7927 20.9747 11.8872 20.9747 11.98 20.9601C12.1116 20.9608 12.242 20.9356 12.3639 20.8858C12.4857 20.8361 12.5965 20.7628 12.69 20.6701L14.87 18.4901C15.1776 18.1571 15.4163 17.7665 15.5725 17.3409C15.7287 16.9153 15.7992 16.463 15.78 16.0101C15.7737 15.5631 15.6926 15.1203 15.54 14.7001C16.4292 14.1735 17.2546 13.546 18 12.8301C20.37 10.4101 20.94 4.73008 21 4.09008ZM16.8 9.32008C16.5903 9.53004 16.323 9.67309 16.032 9.73112C15.7409 9.78915 15.4393 9.75955 15.1651 9.64608C14.8909 9.5326 14.6565 9.34034 14.4916 9.09363C14.3267 8.84691 14.2386 8.55683 14.2386 8.26008C14.2386 7.96333 14.3267 7.67324 14.4916 7.42653C14.6565 7.17981 14.8909 6.98756 15.1651 6.87408C15.4393 6.7606 15.7409 6.73101 16.032 6.78904C16.323 6.84707 16.5903 6.99011 16.8 7.20008C17.0784 7.48261 17.2346 7.86338 17.2346 8.26008C17.2346 8.65678 17.0784 9.03755 16.8 9.32008Z" fill="#141414"/>
</svg>
