<svg width="24" height="24" viewBox="0 0 24 24" fill="none" xmlns="http://www.w3.org/2000/svg">
<path d="M17 3H13C11.9391 3 10.9217 3.42143 10.1716 4.17157C9.42143 4.92172 9 5.93913 9 7C9.001 7.33815 9.0481 7.67458 9.14 8C9.19781 8.23525 9.28166 8.46333 9.39 8.68C9.43409 8.79104 9.48762 8.8981 9.55 9C9.63357 9.15489 9.73061 9.30212 9.84 9.44C9.9 9.51 9.95 9.59 10.02 9.66C10.2026 9.86749 10.4034 10.0583 10.62 10.23C10.7258 10.3081 10.8152 10.4062 10.8831 10.5188C10.9509 10.6315 10.9959 10.7564 11.0154 10.8864C11.0349 11.0165 11.0285 11.1491 10.9967 11.2767C10.9649 11.4043 10.9083 11.5243 10.83 11.63C10.7369 11.7542 10.6161 11.855 10.4772 11.9244C10.3384 11.9939 10.1852 12.03 10.03 12.03C9.81363 12.03 9.6031 11.9598 9.43 11.83C8.18389 10.9041 7.34515 9.53131 7.09 8H6C5.20435 8 4.44129 8.31607 3.87868 8.87868C3.31607 9.44129 3 10.2044 3 11V20C3 20.2652 3.10536 20.5196 3.29289 20.7071C3.48043 20.8946 3.73478 21 4 21H6C6.26522 21 6.51957 20.8946 6.70711 20.7071C6.89464 20.5196 7 20.2652 7 20V18H11V20C11 20.2652 11.1054 20.5196 11.2929 20.7071C11.4804 20.8946 11.7348 21 12 21H14C14.2652 21 14.5196 20.8946 14.7071 20.7071C14.8946 20.5196 15 20.2652 15 20V13C15 12.7348 15.1054 12.4804 15.2929 12.2929C15.4804 12.1054 15.7348 12 16 12C16.2652 12 16.5196 12.1054 16.7071 12.2929C16.8946 12.4804 17 12.7348 17 13V16C17 16.5304 17.2107 17.0391 17.5858 17.4142C17.9609 17.7893 18.4696 18 19 18C19.5304 18 20.0391 17.7893 20.4142 17.4142C20.7893 17.0391 21 16.5304 21 16V7C21 5.93913 20.5786 4.92172 19.8284 4.17157C19.0783 3.42143 18.0609 3 17 3ZM16 8C15.8022 8 15.6089 7.94135 15.4444 7.83147C15.28 7.72159 15.1518 7.56541 15.0761 7.38268C15.0004 7.19996 14.9806 6.99889 15.0192 6.80491C15.0578 6.61093 15.153 6.43275 15.2929 6.29289C15.4327 6.15304 15.6109 6.0578 15.8049 6.01921C15.9989 5.98063 16.2 6.00043 16.3827 6.07612C16.5654 6.15181 16.7216 6.27998 16.8315 6.44443C16.9414 6.60888 17 6.80222 17 7C17 7.26522 16.8946 7.51957 16.7071 7.70711C16.5196 7.89464 16.2652 8 16 8Z" fill="#141414"/>
</svg>
