<svg width="24" height="24" viewBox="0 0 24 24" fill="none" xmlns="http://www.w3.org/2000/svg">
<path d="M20.06 3.99953C18.76 3.97953 17.55 4.54953 16.73 5.48953C16.23 6.06953 15.94 6.80953 15.81 7.56953L15.16 11.1095C15.07 11.6295 14.61 11.9995 14.09 11.9995C13.49 11.9995 13 11.5095 13 10.9095V8.99953C13 8.44953 12.55 7.99953 12 7.99953C11.45 7.99953 11 8.44953 11 8.99953V10.9095C11 11.5095 10.51 11.9995 9.91 11.9995C9.38 11.9995 8.93 11.6195 8.84 11.1095L8.19 7.56953C8.05 6.80953 7.77 6.06953 7.27 5.48953C6.45 4.54953 5.24 3.97953 3.94 3.99953C2.86 4.01953 2 4.91953 2 5.99953V17.9995C2 19.0795 2.87 19.9895 3.95 19.9995C5.81 20.0195 7.51 18.9795 8.34 17.3195C8.74 16.5095 9.57 15.9995 10.47 15.9995H13.53C14.43 15.9995 15.26 16.5095 15.66 17.3195C16.49 18.9795 18.19 20.0195 20.05 19.9995C21.13 19.9895 22 19.0795 22 17.9995V5.99953C22 4.91953 21.14 4.01953 20.06 3.99953Z" fill="#141414"/>
</svg>
