<svg width="24" height="24" viewBox="0 0 24 24" fill="none" xmlns="http://www.w3.org/2000/svg">
<path d="M7 18H17V12C17 10.6739 16.4732 9.40215 15.5355 8.46447C14.5979 7.52678 13.3261 7 12 7C10.6739 7 9.40215 7.52678 8.46447 8.46447C7.52678 9.40215 7 10.6739 7 12V18ZM10 12H11V11C11 10.7348 11.1054 10.4804 11.2929 10.2929C11.4804 10.1054 11.7348 10 12 10C12.2652 10 12.5196 10.1054 12.7071 10.2929C12.8946 10.4804 13 10.7348 13 11V12H14C14.2652 12 14.5196 12.1054 14.7071 12.2929C14.8946 12.4804 15 12.7348 15 13C15 13.2652 14.8946 13.5196 14.7071 13.7071C14.5196 13.8946 14.2652 14 14 14H13V15C13 15.2652 12.8946 15.5196 12.7071 15.7071C12.5196 15.8946 12.2652 16 12 16C11.7348 16 11.4804 15.8946 11.2929 15.7071C11.1054 15.5196 11 15.2652 11 15V14H10C9.73478 14 9.48043 13.8946 9.29289 13.7071C9.10536 13.5196 9 13.2652 9 13C9 12.7348 9.10536 12.4804 9.29289 12.2929C9.48043 12.1054 9.73478 12 10 12ZM12 6C12.2652 6 12.5196 5.89464 12.7071 5.70711C12.8946 5.51957 13 5.26522 13 5V4C13 3.73478 12.8946 3.48043 12.7071 3.29289C12.5196 3.10536 12.2652 3 12 3C11.7348 3 11.4804 3.10536 11.2929 3.29289C11.1054 3.48043 11 3.73478 11 4V5C11 5.26522 11.1054 5.51957 11.2929 5.70711C11.4804 5.89464 11.7348 6 12 6ZM17.66 7.76L18.36 7.05C18.4854 6.9706 18.5915 6.86428 18.6707 6.73877C18.7499 6.61325 18.8002 6.47169 18.8179 6.32433C18.8355 6.17698 18.8202 6.02754 18.773 5.88685C18.7257 5.74616 18.6478 5.61775 18.5447 5.51093C18.4417 5.40411 18.3162 5.32156 18.1773 5.26928C18.0384 5.21699 17.8896 5.19627 17.7417 5.20863C17.5938 5.22099 17.4505 5.26611 17.3222 5.34072C17.1939 5.41533 17.0839 5.51756 17 5.64L16.29 6.34C16.1017 6.5283 15.9959 6.7837 15.9959 7.05C15.9959 7.3163 16.1017 7.5717 16.29 7.76C16.4783 7.9483 16.7337 8.05409 17 8.05409C17.2663 8.05409 17.5217 7.9483 17.71 7.76H17.66ZM6.34 7.76C6.5283 7.9483 6.7837 8.05409 7.05 8.05409C7.3163 8.05409 7.5717 7.9483 7.76 7.76C7.9483 7.5717 8.05409 7.3163 8.05409 7.05C8.05409 6.7837 7.9483 6.5283 7.76 6.34L7.05 5.64C6.8587 5.47617 6.61262 5.39057 6.36095 5.40029C6.10927 5.41001 5.87053 5.51434 5.69244 5.69244C5.51434 5.87053 5.41001 6.10927 5.40029 6.36095C5.39057 6.61262 5.47617 6.8587 5.64 7.05L6.34 7.76ZM6 12C6 11.7348 5.89464 11.4804 5.70711 11.2929C5.51957 11.1054 5.26522 11 5 11H4C3.73478 11 3.48043 11.1054 3.29289 11.2929C3.10536 11.4804 3 11.7348 3 12C3 12.2652 3.10536 12.5196 3.29289 12.7071C3.48043 12.8946 3.73478 13 4 13H5C5.26522 13 5.51957 12.8946 5.70711 12.7071C5.89464 12.5196 6 12.2652 6 12ZM20 11H19C18.7348 11 18.4804 11.1054 18.2929 11.2929C18.1054 11.4804 18 11.7348 18 12C18 12.2652 18.1054 12.5196 18.2929 12.7071C18.4804 12.8946 18.7348 13 19 13H20C20.2652 13 20.5196 12.8946 20.7071 12.7071C20.8946 12.5196 21 12.2652 21 12C21 11.7348 20.8946 11.4804 20.7071 11.2929C20.5196 11.1054 20.2652 11 20 11ZM18 19H6C5.73478 19 5.48043 19.1054 5.29289 19.2929C5.10536 19.4804 5 19.7348 5 20C5 20.2652 5.10536 20.5196 5.29289 20.7071C5.48043 20.8946 5.73478 21 6 21H18C18.2652 21 18.5196 20.8946 18.7071 20.7071C18.8946 20.5196 19 20.2652 19 20C19 19.7348 18.8946 19.4804 18.7071 19.2929C18.5196 19.1054 18.2652 19 18 19Z" fill="#141414"/>
</svg>
