<svg width="24" height="24" viewBox="0 0 24 24" fill="none" xmlns="http://www.w3.org/2000/svg">
<path d="M15.4999 5H11.9999C11.7347 5 11.4804 5.10536 11.2928 5.29289C11.1053 5.48043 10.9999 5.73478 10.9999 6C10.9999 6.26522 11.1053 6.51957 11.2928 6.70711C11.4804 6.89464 11.7347 7 11.9999 7H15.4999C16.4282 7 17.3184 7.36875 17.9748 8.02513C18.6312 8.6815 18.9999 9.57174 18.9999 10.5C18.9999 11.4283 18.6312 12.3185 17.9748 12.9749C17.3184 13.6313 16.4282 14 15.4999 14H6.40994L8.70994 11.71C8.89824 11.5217 9.00403 11.2663 9.00403 11C9.00403 10.7337 8.89824 10.4783 8.70994 10.29C8.52164 10.1017 8.26624 9.99591 7.99994 9.99591C7.73364 9.99591 7.47824 10.1017 7.28994 10.29L3.28994 14.29C3.19621 14.383 3.12182 14.4936 3.07105 14.6154C3.02028 14.7373 2.99414 14.868 2.99414 15C2.99414 15.132 3.02028 15.2627 3.07105 15.3846C3.12182 15.5064 3.19621 15.617 3.28994 15.71L7.28994 19.71C7.3829 19.8037 7.4935 19.8781 7.61536 19.9289C7.73722 19.9797 7.86793 20.0058 7.99994 20.0058C8.13195 20.0058 8.26266 19.9797 8.38452 19.9289C8.50637 19.8781 8.61698 19.8037 8.70994 19.71C8.80367 19.617 8.87806 19.5064 8.92883 19.3846C8.9796 19.2627 9.00574 19.132 9.00574 19C9.00574 18.868 8.9796 18.7373 8.92883 18.6154C8.87806 18.4936 8.80367 18.383 8.70994 18.29L6.40994 16H15.4999C16.9586 16 18.3576 15.4205 19.389 14.3891C20.4205 13.3576 20.9999 11.9587 20.9999 10.5C20.9999 9.04131 20.4205 7.64236 19.389 6.61091C18.3576 5.57946 16.9586 5 15.4999 5Z" fill="#141414"/>
</svg>
