<svg width="24" height="24" viewBox="0 0 24 24" fill="none" xmlns="http://www.w3.org/2000/svg">
<path d="M15.4099 15.9999L20.7099 10.7099C20.8037 10.617 20.8781 10.5064 20.9288 10.3845C20.9796 10.2627 21.0057 10.132 21.0057 9.99994C21.0057 9.86793 20.9796 9.73722 20.9288 9.61536C20.8781 9.4935 20.8037 9.3829 20.7099 9.28994L14.7099 3.28994C14.617 3.19621 14.5064 3.12182 14.3845 3.07105C14.2627 3.02028 14.132 2.99414 13.9999 2.99414C13.8679 2.99414 13.7372 3.02028 13.6154 3.07105C13.4935 3.12182 13.3829 3.19621 13.2899 3.28994L7.37994 9.20994L14.1699 15.9999H15.4099ZM19.9999 17.9999H13.7299H13.3299L5.99994 10.6199L3.28994 13.2899C3.19621 13.3829 3.12182 13.4935 3.07105 13.6154C3.02028 13.7372 2.99414 13.8679 2.99414 13.9999C2.99414 14.132 3.02028 14.2627 3.07105 14.3845C3.12182 14.5064 3.19621 14.617 3.28994 14.7099L8.28994 19.7099C8.38338 19.8026 8.49419 19.8759 8.61603 19.9257C8.73787 19.9755 8.86833 20.0007 8.99994 19.9999H19.9999C20.2652 19.9999 20.5195 19.8946 20.707 19.707C20.8946 19.5195 20.9999 19.2652 20.9999 18.9999C20.9999 18.7347 20.8946 18.4804 20.707 18.2928C20.5195 18.1053 20.2652 17.9999 19.9999 17.9999Z" fill="#141414"/>
</svg>
