<svg width="24" height="24" viewBox="0 0 24 24" fill="none" xmlns="http://www.w3.org/2000/svg">
<path d="M20 3H14C13.45 3 13 3.45 13 4C13 4.55 13.45 5 14 5H17.59L12.8 9.79C12.41 10.18 12.41 10.81 12.8 11.2C13 11.4 13.25 11.49 13.51 11.49C13.77 11.49 14.02 11.39 14.22 11.2L19.01 6.41V10C19.01 10.55 19.46 11 20.01 11C20.56 11 21.01 10.55 21.01 10V4C21.01 3.45 20.56 3 20.01 3H20ZM9.79 12.79L5 17.58V13.99C5 13.44 4.55 12.99 4 12.99C3.45 12.99 3 13.44 3 13.99V19.99C3 20.54 3.45 20.99 4 20.99H10C10.55 20.99 11 20.54 11 19.99C11 19.44 10.55 18.99 10 18.99H6.41L11.2 14.2C11.59 13.81 11.59 13.18 11.2 12.79C10.81 12.4 10.18 12.4 9.79 12.79Z" fill="#141414"/>
</svg>
