<svg width="24" height="24" viewBox="0 0 24 24" fill="none" xmlns="http://www.w3.org/2000/svg">
<path d="M12 17C12.2652 17 12.5196 16.8946 12.7071 16.7071C12.8946 16.5196 13 16.2652 13 16V3C13 2.73478 12.8946 2.48043 12.7071 2.29289C12.5196 2.10536 12.2652 2 12 2C11.7348 2 11.4804 2.10536 11.2929 2.29289C11.1054 2.48043 11 2.73478 11 3V16C11 16.2652 11.1054 16.5196 11.2929 16.7071C11.4804 16.8946 11.7348 17 12 17ZM12 19C11.7033 19 11.4133 19.088 11.1666 19.2528C10.92 19.4176 10.7277 19.6519 10.6142 19.926C10.5006 20.2001 10.4709 20.5017 10.5288 20.7926C10.5867 21.0836 10.7296 21.3509 10.9393 21.5607C11.1491 21.7704 11.4164 21.9133 11.7074 21.9712C11.9983 22.0291 12.2999 21.9993 12.574 21.8858C12.8481 21.7723 13.0824 21.58 13.2472 21.3334C13.412 21.0867 13.5 20.7967 13.5 20.5C13.5 20.1022 13.342 19.7206 13.0607 19.4393C12.7794 19.158 12.3978 19 12 19Z" fill="#141414"/>
</svg>
