<svg width="24" height="24" viewBox="0 0 24 24" fill="none" xmlns="http://www.w3.org/2000/svg">
<path d="M13 2C8.58 2 5 5.58 5 10V17C5 19.76 7.24 22 10 22C12.5 22 14.56 20.16 14.92 17.76C18.41 16.9 21 13.76 21 10C21 5.58 17.42 2 13 2ZM10 20C9.45 20 9 19.55 9 19C9 18.45 9.45 18 10 18C10.55 18 11 17.55 11 17C11 16.45 11.45 16 12 16C12.55 16 13 16.45 13 17C13 18.65 11.65 20 10 20ZM17.24 14.24C17.04 14.44 16.79 14.53 16.53 14.53C16.27 14.53 16.02 14.43 15.82 14.24C15.43 13.85 15.43 13.22 15.82 12.83C16.58 12.07 16.99 11.07 16.99 10C16.99 7.79 15.2 6 12.99 6C11.06 6 9.44 7.38 9.07 9.21C10.19 9.65 10.99 10.73 10.99 12C10.99 13.65 9.64 15 7.99 15C7.44 15 6.99 14.55 6.99 14C6.99 13.45 7.44 13 7.99 13C8.54 13 8.99 12.55 8.99 12C8.99 11.45 8.54 11 7.99 11C7.44 11 6.99 10.55 6.99 10C6.99 6.69 9.68 4 12.99 4C16.3 4 18.99 6.69 18.99 10C18.99 11.6 18.37 13.11 17.23 14.24H17.24Z" fill="#141414"/>
</svg>
