<svg width="24" height="24" viewBox="0 0 24 24" fill="none" xmlns="http://www.w3.org/2000/svg">
<path d="M18 3H6C5.20435 3 4.44129 3.31607 3.87868 3.87868C3.31607 4.44129 3 5.20435 3 6V18C3 18.7956 3.31607 19.5587 3.87868 20.1213C4.44129 20.6839 5.20435 21 6 21H18C18.7956 21 19.5587 20.6839 20.1213 20.1213C20.6839 19.5587 21 18.7956 21 18V6C21 5.20435 20.6839 4.44129 20.1213 3.87868C19.5587 3.31607 18.7956 3 18 3ZM17 18H14C13.7348 18 13.4804 17.8946 13.2929 17.7071C13.1054 17.5196 13 17.2652 13 17C13 16.7348 13.1054 16.4804 13.2929 16.2929C13.4804 16.1054 13.7348 16 14 16H17C17.2652 16 17.5196 16.1054 17.7071 16.2929C17.8946 16.4804 18 16.7348 18 17C18 17.2652 17.8946 17.5196 17.7071 17.7071C17.5196 17.8946 17.2652 18 17 18ZM18.53 5.43L5.42 17.61C5.38454 17.6429 5.3403 17.6648 5.29264 17.673C5.24498 17.6813 5.19596 17.6756 5.1515 17.6565C5.10704 17.6375 5.06907 17.6059 5.04218 17.5657C5.01529 17.5255 5.00064 17.4784 5 17.43V6C5 5.73478 5.10536 5.48043 5.29289 5.29289C5.48043 5.10536 5.73478 5 6 5H18.36C18.4095 5.00069 18.4578 5.01608 18.4985 5.04422C18.5393 5.07236 18.5708 5.11199 18.589 5.15806C18.6072 5.20414 18.6114 5.25458 18.6008 5.303C18.5903 5.35142 18.5657 5.39562 18.53 5.43ZM11 8H10V7C10 6.73478 9.89464 6.48043 9.70711 6.29289C9.51957 6.10536 9.26522 6 9 6C8.73478 6 8.48043 6.10536 8.29289 6.29289C8.10536 6.48043 8 6.73478 8 7V8H7C6.73478 8 6.48043 8.10536 6.29289 8.29289C6.10536 8.48043 6 8.73478 6 9C6 9.26522 6.10536 9.51957 6.29289 9.70711C6.48043 9.89464 6.73478 10 7 10H8V11C8 11.2652 8.10536 11.5196 8.29289 11.7071C8.48043 11.8946 8.73478 12 9 12C9.26522 12 9.51957 11.8946 9.70711 11.7071C9.89464 11.5196 10 11.2652 10 11V10H11C11.2652 10 11.5196 9.89464 11.7071 9.70711C11.8946 9.51957 12 9.26522 12 9C12 8.73478 11.8946 8.48043 11.7071 8.29289C11.5196 8.10536 11.2652 8 11 8Z" fill="#141414"/>
</svg>
