<svg width="24" height="24" viewBox="0 0 24 24" fill="none" xmlns="http://www.w3.org/2000/svg">
<path d="M14.71 8.71C14.851 8.57013 14.9472 8.39143 14.9863 8.19668C15.0253 8.00193 15.0055 7.79996 14.9294 7.61652C14.8532 7.43307 14.7241 7.27647 14.5586 7.16667C14.3931 7.05687 14.1986 6.99884 14 7H11.28L11.78 5H13C13.2652 5 13.5196 4.89464 13.7071 4.70711C13.8946 4.51957 14 4.26522 14 4C14 3.73478 13.8946 3.48043 13.7071 3.29289C13.5196 3.10536 13.2652 3 13 3H11.78C11.3335 3.00201 10.9005 3.15338 10.55 3.43C10.1985 3.70407 9.94859 4.0877 9.84 4.52L9.22 7H4C3.73478 7 3.48043 7.10536 3.29289 7.29289C3.10536 7.48043 3 7.73478 3 8C3 8.26522 3.10536 8.51957 3.29289 8.70711C3.48043 8.89464 3.73478 9 4 9H14C14.1316 9.00076 14.2621 8.97554 14.3839 8.92577C14.5057 8.87601 14.6166 8.80268 14.71 8.71ZM9 16C9.00264 15.0692 9.18957 14.1482 9.55 13.29C9.91043 12.4318 10.4372 11.6535 11.1 11H4.3L5 20.08C5.01922 20.3326 5.13359 20.5685 5.32 20.74C5.50595 20.909 5.74872 21.0019 6 21H11.11C10.4454 20.3473 9.91677 19.5694 9.55461 18.7112C9.19245 17.853 9.00395 16.9315 9 16ZM20.45 13.73C19.8801 12.6158 18.9131 11.7559 17.74 11.32C18.2149 11.1715 18.6471 10.9108 19 10.56C19.6361 9.85826 19.992 8.94712 20 8C19.9951 7.87162 19.9418 7.74984 19.851 7.659C19.7602 7.56815 19.6384 7.51494 19.51 7.51C19.0423 7.49098 18.5758 7.5693 18.14 7.74C17.708 7.9236 17.3196 8.19619 17 8.54C16.3964 9.21746 16.062 10.0926 16.06 11C14.811 10.9857 13.6019 11.4394 12.6706 12.2717C11.7394 13.1041 11.1534 14.2549 11.028 15.4977C10.9026 16.7404 11.2468 17.9851 11.993 18.9868C12.7393 19.9884 13.8333 20.6745 15.06 20.91C16.29 21.1413 17.5619 20.9029 18.6247 20.2419C19.6874 19.5809 20.4636 18.5455 20.8 17.34C21.1356 16.1359 21.0145 14.8503 20.46 13.73H20.45Z" fill="#141414"/>
</svg>
