<svg width="24" height="24" viewBox="0 0 24 24" fill="none" xmlns="http://www.w3.org/2000/svg">
<path d="M9.56001 12.9999C8.89208 13.0294 8.26143 13.3161 7.80001 13.7999C7.50908 14.0566 7.28443 14.3798 7.14515 14.7419C7.00587 15.104 6.95608 15.4944 7.00001 15.8799C6.99599 15.9501 6.97695 16.0185 6.94416 16.0806C6.91138 16.1427 6.86563 16.1971 6.81001 16.2399C6.66001 16.3699 6.60001 16.3799 6.27001 16.3699C5.59444 16.3202 4.92654 16.5391 4.41156 16.9792C3.89658 17.4193 3.57617 18.0449 3.52001 18.7199C3.47001 19.0499 3.46001 19.1099 3.31001 19.2399C3.10845 19.4123 2.98362 19.6577 2.96299 19.9222C2.94236 20.1866 3.02762 20.4484 3.20001 20.6499C3.3724 20.8515 3.61781 20.9763 3.88223 20.997C4.14666 21.0176 4.40845 20.9323 4.61001 20.7599C4.87386 20.5428 5.09194 20.2754 5.25159 19.9732C5.41124 19.6711 5.50928 19.3403 5.54001 18.9999C5.54001 18.6699 5.60001 18.6099 5.75001 18.4799C5.90001 18.3499 5.97001 18.3499 6.30001 18.3499C6.97744 18.3961 7.64575 18.1733 8.16001 17.7299C8.41145 17.5285 8.62191 17.2807 8.78001 16.9999C9.32051 16.8994 9.81659 16.6339 10.2 16.2399C10.4101 16.0824 10.5871 15.8849 10.721 15.6589C10.8548 15.4329 10.9428 15.1828 10.9799 14.9228C11.0171 14.6628 11.0026 14.398 10.9374 14.1436C10.8723 13.8891 10.7576 13.6501 10.6 13.4399C10.4653 13.3003 10.3037 13.1894 10.1249 13.1137C9.94623 13.0381 9.75407 12.9994 9.56001 12.9999ZM14 2.99994C12.9337 3.00037 11.8815 3.24442 10.9239 3.71346C9.96623 4.18249 9.1284 4.86411 8.47433 5.7063C7.82027 6.54848 7.36725 7.52897 7.14987 8.57292C6.93248 9.61686 6.95647 10.6967 7.22001 11.7299C7.91342 11.2663 8.72598 11.0128 9.56001 10.9999C10.0128 10.9957 10.4619 11.082 10.8809 11.2538C11.2999 11.4255 11.6804 11.6792 12 11.9999C12.3911 12.386 12.6855 12.8589 12.8593 13.3802C13.0331 13.9015 13.0813 14.4565 13 14.9999C12.9003 15.6359 12.6649 16.2429 12.31 16.7799C13.2742 17.0274 14.2801 17.0665 15.2605 16.8944C16.241 16.7223 17.1734 16.3431 17.9957 15.7821C18.818 15.221 19.5111 14.4911 20.0289 13.6409C20.5467 12.7907 20.8772 11.8399 20.9984 10.8519C21.1196 9.86383 21.0286 8.86131 20.7316 7.91122C20.4346 6.96112 19.9384 6.0853 19.2761 5.34219C18.6137 4.59908 17.8005 4.00578 16.8907 3.60188C15.9809 3.19798 14.9954 2.99276 14 2.99994ZM14 11.4999C13.7033 11.4999 13.4133 11.412 13.1667 11.2471C12.92 11.0823 12.7277 10.8481 12.6142 10.574C12.5007 10.2999 12.471 9.99827 12.5288 9.7073C12.5867 9.41633 12.7296 9.14906 12.9394 8.93928C13.1491 8.7295 13.4164 8.58664 13.7074 8.52876C13.9983 8.47088 14.2999 8.50059 14.574 8.61412C14.8481 8.72765 15.0824 8.91991 15.2472 9.16658C15.412 9.41326 15.5 9.70327 15.5 9.99994C15.5 10.3978 15.342 10.7793 15.0607 11.0606C14.7794 11.3419 14.3978 11.4999 14 11.4999Z" fill="#141414"/>
</svg>
