<svg width="24" height="24" viewBox="0 0 24 24" fill="none" xmlns="http://www.w3.org/2000/svg">
<path d="M12 2C6.48 2 2 6.48 2 12C2 17.52 6.48 22 12 22C17.52 22 22 17.52 22 12C22 6.48 17.52 2 12 2ZM11.5 16.5C11.5 16.9 11.26 17.27 10.88 17.42C10.76 17.47 10.63 17.5 10.5 17.5C10.24 17.5 9.98 17.4 9.79 17.21L6.79 14.21C6.5 13.92 6.42 13.49 6.57 13.12C6.72 12.75 7.09 12.5 7.49 12.5H10.49C11.04 12.5 11.49 12.95 11.49 13.5V16.5H11.5ZM17.42 10.88C17.27 11.25 16.9 11.5 16.5 11.5H13.5C12.95 11.5 12.5 11.05 12.5 10.5V7.5C12.5 7.1 12.74 6.73 13.12 6.58C13.5 6.42 13.92 6.51 14.21 6.8L17.21 9.8C17.5 10.09 17.58 10.52 17.43 10.89L17.42 10.88Z" fill="#141414"/>
</svg>
