<svg width="24" height="24" viewBox="0 0 24 24" fill="none" xmlns="http://www.w3.org/2000/svg">
<path d="M18.65 6.07C17.73 4.87 15.1 4 12 4C8.9 4 6.27 4.87 5.35 6.07C3.45 6.38 2 8.02 2 10V16C2 18.21 3.79 20 6 20H7C8.1 20 9 19.1 9 18C9 16.9 8.1 16 7 16C5.99 16 5.16 16.76 5.03 17.74C4.42 17.4 4 16.75 4 16V10C4 9.08 4.63 8.31 5.48 8.08C5.94 8.59 6.7 9.03 7.68 9.36C8.49 9.63 9 10.42 9 11.27V13.83C9 15.16 9.82 16.36 11 16.8V20.99C11 21.54 11.45 21.99 12 21.99C12.55 21.99 13 21.54 13 20.99V16.81C14.16 16.4 15 15.29 15 13.99V11.26C15 10.41 15.52 9.62 16.32 9.35C17.3 9.02 18.06 8.58 18.52 8.07C19.37 8.3 20 9.07 20 9.99V15.99C20 16.74 19.58 17.38 18.97 17.73C18.84 16.75 18.01 15.99 17 15.99C15.9 15.99 15 16.89 15 17.99C15 19.09 15.9 19.99 17 19.99H18C20.21 19.99 22 18.2 22 15.99V9.99C22 8.01 20.55 6.37 18.65 6.06V6.07Z" fill="#141414"/>
</svg>
