<svg width="24" height="24" viewBox="0 0 24 24" fill="none" xmlns="http://www.w3.org/2000/svg">
<path d="M5.05005 18C5.06419 18.1348 5.04805 18.271 5.0028 18.3988C4.95754 18.5266 4.88432 18.6426 4.78849 18.7384C4.69265 18.8343 4.57661 18.9075 4.44885 18.9527C4.3211 18.998 4.18484 19.0141 4.05005 19H3.05005C2.78483 19 2.53048 19.1054 2.34294 19.2929C2.15541 19.4804 2.05005 19.7348 2.05005 20C2.05005 20.2652 2.15541 20.5196 2.34294 20.7071C2.53048 20.8946 2.78483 21 3.05005 21H4.05005C4.44701 21.011 4.84206 20.941 5.21102 20.7941C5.57999 20.6473 5.91512 20.4267 6.19593 20.1459C6.47673 19.8651 6.69731 19.5299 6.84417 19.161C6.99103 18.792 7.06108 18.397 7.05005 18C7.0359 17.8652 7.05205 17.729 7.0973 17.6012C7.14255 17.4734 7.21577 17.3574 7.31161 17.2616C7.40745 17.1657 7.52349 17.0925 7.65124 17.0473C7.779 17.002 7.91525 16.9859 8.05005 17C8.49408 17.0062 8.93197 16.8959 9.32005 16.68L7.66005 15C6.92084 15.0638 6.23537 15.4124 5.74837 15.9722C5.26138 16.532 5.01098 17.2591 5.05005 18ZM20.6201 3.58C20.6028 3.53052 20.5793 3.48347 20.55 3.44C20.4891 3.3427 20.4223 3.24919 20.35 3.16C20.3133 3.10432 20.2732 3.05089 20.23 3L20.17 2.94L20.1201 2.88C20.0579 2.82127 19.991 2.76776 19.92 2.72C19.8513 2.65465 19.7777 2.59448 19.7001 2.54C19.6127 2.47396 19.5189 2.417 19.42 2.37C19.34 2.37 19.26 2.28 19.18 2.25C19.0801 2.20453 18.9763 2.16773 18.8701 2.14L18.6201 2.07H18.2901L18 2H17.7H17.46C17.3439 2.02272 17.23 2.0562 17.12 2.1C17.042 2.11408 16.9651 2.13414 16.89 2.16C16.7683 2.2134 16.6512 2.27696 16.54 2.35L16.36 2.44C16.1867 2.5527 16.0258 2.68343 15.88 2.83L7.29005 11.46C7.19632 11.553 7.12193 11.6636 7.07116 11.7854C7.02039 11.9073 6.99425 12.038 6.99425 12.17C6.99425 12.302 7.02039 12.4327 7.07116 12.5546C7.12193 12.6764 7.19632 12.787 7.29005 12.88L10.12 15.71C10.213 15.8037 10.3236 15.8781 10.4455 15.9289C10.5673 15.9797 10.698 16.0058 10.83 16.0058C10.9621 16.0058 11.0928 15.9797 11.2146 15.9289C11.3365 15.8781 11.4471 15.8037 11.54 15.71L20 7.24L20.1201 7.12C20.5722 6.6617 20.8649 6.07009 20.955 5.43262C21.045 4.79514 20.9276 4.1456 20.6201 3.58Z" fill="#141414"/>
</svg>
