<svg width="24" height="24" viewBox="0 0 24 24" fill="none" xmlns="http://www.w3.org/2000/svg">
<path d="M7.70994 11.2901C7.61698 11.1964 7.50638 11.122 7.38452 11.0712C7.26266 11.0204 7.13195 10.9943 6.99994 10.9943C6.86793 10.9943 6.73722 11.0204 6.61536 11.0712C6.49351 11.122 6.3829 11.1964 6.28994 11.2901L6.06994 11.5101C6.16431 10.3697 6.5828 9.28012 7.27607 8.36977C7.96933 7.45943 8.90845 6.7663 9.98268 6.37214C11.0569 5.97797 12.2215 5.89921 13.339 6.14512C14.4565 6.39104 15.4804 6.95139 16.2899 7.76008C16.4782 7.94839 16.7336 8.05417 16.9999 8.05417C17.2662 8.05417 17.5216 7.94839 17.7099 7.76008C17.8982 7.57178 18.004 7.31638 18.004 7.05008C18.004 6.78378 17.8982 6.52839 17.7099 6.34008C16.6116 5.24518 15.2186 4.49314 13.7006 4.17548C12.1826 3.85781 10.605 3.98823 9.15982 4.55085C7.71459 5.11347 6.46406 6.08404 5.5604 7.34444C4.65674 8.60485 4.13891 10.1007 4.06994 11.6501L3.70994 11.2901C3.52164 11.1018 3.26624 10.996 2.99994 10.996C2.73364 10.996 2.47824 11.1018 2.28994 11.2901C2.10164 11.4784 1.99585 11.7338 1.99585 12.0001C1.99585 12.2664 2.10164 12.5218 2.28994 12.7101L4.28994 14.7101C4.3829 14.8038 4.49351 14.8782 4.61536 14.929C4.73722 14.9797 4.86793 15.0059 4.99994 15.0059C5.13195 15.0059 5.26266 14.9797 5.38452 14.929C5.50638 14.8782 5.61698 14.8038 5.70994 14.7101L7.70994 12.7101C7.80367 12.6171 7.87806 12.5065 7.92883 12.3847C7.9796 12.2628 8.00574 12.1321 8.00574 12.0001C8.00574 11.8681 7.9796 11.7374 7.92883 11.6155C7.87806 11.4936 7.80367 11.383 7.70994 11.2901ZM21.7099 11.2901L19.7099 9.29008C19.617 9.19635 19.5064 9.12196 19.3845 9.07119C19.2627 9.02042 19.132 8.99428 18.9999 8.99428C18.8679 8.99428 18.7372 9.02042 18.6154 9.07119C18.4935 9.12196 18.3829 9.19635 18.2899 9.29008L16.2899 11.2901C16.1967 11.3833 16.1227 11.494 16.0723 11.6158C16.0218 11.7377 15.9958 11.8682 15.9958 12.0001C15.9958 12.2664 16.1016 12.5218 16.2899 12.7101C16.4782 12.8984 16.7336 13.0042 16.9999 13.0042C17.1318 13.0042 17.2624 12.9782 17.3842 12.9277C17.506 12.8773 17.6167 12.8033 17.7099 12.7101L17.9799 12.4401C17.8689 13.9505 17.1908 15.363 16.0816 16.3942C14.9725 17.4255 13.5144 17.9991 11.9999 18.0001C11.2117 18.0032 10.4307 17.8492 9.70272 17.547C8.9747 17.2448 8.31423 16.8005 7.75994 16.2401C7.6667 16.1468 7.55601 16.0729 7.43419 16.0224C7.31237 15.972 7.1818 15.946 7.04994 15.946C6.91808 15.946 6.78751 15.972 6.66569 16.0224C6.54387 16.0729 6.43318 16.1468 6.33994 16.2401C6.2467 16.3333 6.17274 16.444 6.12228 16.5658C6.07182 16.6877 6.04585 16.8182 6.04585 16.9501C6.04585 17.0819 6.07182 17.2125 6.12228 17.3343C6.17274 17.4562 6.2467 17.5668 6.33994 17.6601C7.43488 18.7597 8.82598 19.5171 10.3438 19.84C11.8615 20.163 13.4405 20.0375 14.8883 19.479C16.336 18.9205 17.5901 17.9529 18.4977 16.6943C19.4053 15.4356 19.9272 13.9401 19.9999 12.3901L20.3099 12.7101C20.4029 12.8038 20.5135 12.8782 20.6354 12.929C20.7572 12.9797 20.8879 13.0059 21.0199 13.0059C21.152 13.0059 21.2827 12.9797 21.4045 12.929C21.5264 12.8782 21.637 12.8038 21.7299 12.7101C21.8224 12.6158 21.8952 12.5042 21.9443 12.3816C21.9933 12.259 22.0176 12.1279 22.0158 11.9959C22.0139 11.8639 21.9859 11.7336 21.9334 11.6124C21.881 11.4913 21.805 11.3817 21.7099 11.2901ZM11.9999 9.51008C11.6498 9.19602 11.2001 9.01545 10.7299 9.00008C10.4775 8.99738 10.2271 9.04527 9.99351 9.14093C9.7599 9.23659 9.54782 9.37807 9.36978 9.55704C9.19175 9.736 9.05138 9.94882 8.95694 10.1829C8.8625 10.417 8.81592 10.6677 8.81994 10.9201C8.81994 12.1101 9.74994 13.1901 11.3499 14.6601L11.5199 14.8101C11.5851 14.8766 11.6629 14.9294 11.7488 14.9655C11.8346 15.0016 11.9268 15.0202 12.0199 15.0202C12.1131 15.0202 12.2053 15.0016 12.2911 14.9655C12.377 14.9294 12.4548 14.8766 12.5199 14.8101L12.6899 14.6601C14.2899 13.1901 15.2199 12.1101 15.2199 10.9201C15.2241 10.6642 15.1763 10.4102 15.0794 10.1734C14.9825 9.93657 14.8386 9.72189 14.6562 9.54237C14.4739 9.36285 14.257 9.22221 14.0187 9.129C13.7804 9.03578 13.5257 8.99193 13.2699 9.00008C12.7998 9.01545 12.3501 9.19602 11.9999 9.51008Z" fill="#141414"/>
</svg>
