<svg width="24" height="24" viewBox="0 0 24 24" fill="none" xmlns="http://www.w3.org/2000/svg">
<path d="M5.06982 8L10.2698 11C10.4222 11.0864 10.5946 11.1312 10.7698 11.13C10.9443 11.1289 11.1155 11.0822 11.2664 10.9945C11.4173 10.9068 11.5426 10.7811 11.6298 10.63C11.8985 10.1315 12.0068 9.56229 11.9398 9C11.8365 8.35214 11.5754 7.73964 11.1795 7.21648C10.7837 6.69332 10.2652 6.27555 9.66982 6C6.92982 4.42 5.21982 5.69 4.66982 6.59C4.60399 6.70388 4.56127 6.82962 4.54411 6.96004C4.52695 7.09045 4.53569 7.22297 4.56982 7.35C4.60249 7.48753 4.66394 7.61657 4.75013 7.72861C4.83631 7.84065 4.94527 7.93315 5.06982 8ZM10.7298 12.39C10.764 12.263 10.7727 12.1305 10.7555 12C10.7384 11.8696 10.6957 11.7439 10.6298 11.63C10.1198 10.74 8.40982 9.46 5.62982 11.04C5.04691 11.3169 4.53965 11.7307 4.15134 12.2462C3.76302 12.7616 3.50518 13.3633 3.39982 14C3.32435 14.5754 3.43286 15.16 3.70982 15.67C3.79708 15.8211 3.92237 15.9468 4.07324 16.0345C4.22411 16.1222 4.39531 16.1689 4.56982 16.17C4.745 16.1712 4.91742 16.1264 5.06982 16.04L10.2698 13.04C10.3869 12.9689 10.4882 12.8746 10.5673 12.7628C10.6464 12.6509 10.7018 12.5241 10.7298 12.39ZM10.9998 13C9.99982 13 7.99982 13.84 7.99982 17C7.99982 20.16 9.99982 21 10.9998 21C11.265 21 11.5194 20.8946 11.7069 20.7071C11.8945 20.5196 11.9998 20.2652 11.9998 20V14C11.9998 13.7348 11.8945 13.4804 11.7069 13.2929C11.5194 13.1054 11.265 13 10.9998 13ZM20.2898 8.37C20.1579 8.14127 19.9409 7.974 19.6861 7.90468C19.4313 7.83536 19.1594 7.86963 18.9298 8L13.7298 11C13.5018 11.1344 13.3364 11.3538 13.2698 11.61C13.2357 11.737 13.2269 11.8695 13.2441 12C13.2613 12.1304 13.304 12.2561 13.3698 12.37C13.6356 12.7923 14.0069 13.138 14.4471 13.3729C14.8872 13.6079 15.3811 13.7241 15.8798 13.71C16.7452 13.6962 17.5911 13.451 18.3298 13C18.9252 12.7244 19.4437 12.3067 19.8395 11.7835C20.2354 11.2604 20.4965 10.6479 20.5998 10C20.6668 9.43771 20.5585 8.86846 20.2898 8.37ZM18.9298 16L13.7298 13C13.5002 12.8696 13.2283 12.8354 12.9736 12.9047C12.7188 12.974 12.5017 13.1413 12.3698 13.37C12.1011 13.8685 11.9929 14.4377 12.0598 15C12.1632 15.6479 12.4243 16.2604 12.8201 16.7835C13.216 17.3067 13.7344 17.7244 14.3298 18C15.0645 18.4651 15.9107 18.7241 16.7798 18.75C17.2786 18.7641 17.7724 18.6479 18.2126 18.4129C18.6527 18.178 19.024 17.8323 19.2898 17.41C19.3557 17.2961 19.3984 17.1704 19.4155 17.04C19.4327 16.9095 19.424 16.777 19.3898 16.65C19.3618 16.5159 19.3064 16.3891 19.2273 16.2772C19.1482 16.1654 19.0469 16.0711 18.9298 16ZM12.9998 11C13.9998 11 15.9998 10.16 15.9998 7C15.9998 3.84 13.9998 3 12.9998 3C12.7346 3 12.4803 3.10536 12.2927 3.29289C12.1052 3.48043 11.9998 3.73478 11.9998 4V10C11.9998 10.2652 12.1052 10.5196 12.2927 10.7071C12.4803 10.8946 12.7346 11 12.9998 11Z" fill="#141414"/>
</svg>
