<svg width="24" height="24" viewBox="0 0 24 24" fill="none" xmlns="http://www.w3.org/2000/svg">
<path d="M19 6H12.41L11.29 4.88C10.7279 4.31723 9.96538 4.0007 9.17 4H5C4.20435 4 3.44129 4.31607 2.87868 4.87868C2.31607 5.44129 2 6.20435 2 7V17C2 17.7956 2.31607 18.5587 2.87868 19.1213C3.44129 19.6839 4.20435 20 5 20H19C19.7956 20 20.5587 19.6839 21.1213 19.1213C21.6839 18.5587 22 17.7956 22 17V9C22 8.20435 21.6839 7.44129 21.1213 6.87868C20.5587 6.31607 19.7956 6 19 6ZM12.76 16.1L12.56 16.28C12.4081 16.422 12.2079 16.501 12 16.501C11.7921 16.501 11.5919 16.422 11.44 16.28L11.24 16.1C9.38 14.39 8.24 13.1 8.24 11.74C8.23579 11.4413 8.2922 11.1448 8.4058 10.8685C8.51941 10.5922 8.68785 10.3418 8.90096 10.1324C9.11407 9.92304 9.36742 9.75905 9.6457 9.65035C9.92397 9.54166 10.2214 9.49051 10.52 9.5C11.069 9.51769 11.5937 9.73041 12 10.1C12.4063 9.73041 12.931 9.51769 13.48 9.5C13.7744 9.49731 14.0665 9.55348 14.3389 9.66523C14.6113 9.77697 14.8587 9.94203 15.0664 10.1507C15.2741 10.3594 15.4381 10.6075 15.5486 10.8804C15.6591 11.1533 15.714 11.4456 15.71 11.74C15.71 13.12 14.62 14.39 12.76 16.1Z" fill="#141414"/>
</svg>
