<svg width="24" height="24" viewBox="0 0 24 24" fill="none" xmlns="http://www.w3.org/2000/svg">
<path d="M20.41 5.34L18.66 3.59C18.2866 3.21441 17.7796 3.00223 17.25 3H6.75C6.22042 3.00223 5.71335 3.21441 5.34 3.59L3.59 5.34C3.21441 5.71335 3.00223 6.22042 3 6.75V9H21V6.75C20.9978 6.22042 20.7856 5.71335 20.41 5.34ZM8 7C7.80222 7 7.60888 6.94135 7.44443 6.83147C7.27998 6.72159 7.15181 6.56541 7.07612 6.38268C7.00043 6.19996 6.98063 5.99889 7.01921 5.80491C7.0578 5.61093 7.15304 5.43275 7.29289 5.29289C7.43275 5.15304 7.61093 5.0578 7.80491 5.01921C7.99889 4.98063 8.19996 5.00043 8.38268 5.07612C8.56541 5.15181 8.72159 5.27998 8.83147 5.44443C8.94135 5.60888 9 5.80222 9 6C9 6.26522 8.89464 6.51957 8.70711 6.70711C8.51957 6.89464 8.26522 7 8 7ZM12 7C11.8022 7 11.6089 6.94135 11.4444 6.83147C11.28 6.72159 11.1518 6.56541 11.0761 6.38268C11.0004 6.19996 10.9806 5.99889 11.0192 5.80491C11.0578 5.61093 11.153 5.43275 11.2929 5.29289C11.4327 5.15304 11.6109 5.0578 11.8049 5.01921C11.9989 4.98063 12.2 5.00043 12.3827 5.07612C12.5654 5.15181 12.7216 5.27998 12.8315 5.44443C12.9414 5.60888 13 5.80222 13 6C13 6.26522 12.8946 6.51957 12.7071 6.70711C12.5196 6.89464 12.2652 7 12 7ZM16 7C15.8022 7 15.6089 6.94135 15.4444 6.83147C15.28 6.72159 15.1518 6.56541 15.0761 6.38268C15.0004 6.19996 14.9806 5.99889 15.0192 5.80491C15.0578 5.61093 15.153 5.43275 15.2929 5.29289C15.4327 5.15304 15.6109 5.0578 15.8049 5.01921C15.9989 4.98063 16.2 5.00043 16.3827 5.07612C16.5654 5.15181 16.7216 5.27998 16.8315 5.44443C16.9414 5.60888 17 5.80222 17 6C17 6.26522 16.8946 6.51957 16.7071 6.70711C16.5196 6.89464 16.2652 7 16 7ZM3 14.62C3.01007 15.1391 3.22165 15.634 3.59 16L8 20.41C8.36597 20.7783 8.86085 20.9899 9.38 21H14.62C15.1391 20.9899 15.634 20.7783 16 20.41L20.41 16C20.7783 15.634 20.9899 15.1391 21 14.62V11H3V14.62Z" fill="#141414"/>
</svg>
