<svg width="24" height="24" viewBox="0 0 24 24" fill="none" xmlns="http://www.w3.org/2000/svg">
<path d="M19.44 18.65C19.3522 18.498 19.306 18.3255 19.306 18.15C19.306 17.9745 19.3522 17.802 19.44 17.65C20.4822 15.9514 21.023 13.9927 21 12C21.0407 10.001 20.5137 8.03148 19.48 6.32001C19.3922 6.16799 19.346 5.99555 19.346 5.82001C19.346 5.64447 19.3922 5.47203 19.48 5.32001L19.93 4.42001C20.0014 4.2659 20.0323 4.09615 20.0199 3.92677C20.0075 3.75738 19.9522 3.59395 19.8591 3.45187C19.7661 3.30979 19.6384 3.19376 19.4881 3.1147C19.3378 3.03564 19.1698 2.99617 19 3.00001H5C4.82953 3.00053 4.66203 3.04461 4.5134 3.12807C4.36476 3.21154 4.23993 3.33161 4.15076 3.47689C4.06159 3.62217 4.01103 3.78784 4.0039 3.95815C3.99677 4.12847 4.03329 4.29778 4.11 4.45001L4.56 5.35001C4.64777 5.50203 4.69397 5.67447 4.69397 5.85001C4.69397 6.02555 4.64777 6.19799 4.56 6.35001C3.51777 8.04862 2.97697 10.0073 3 12C2.95926 13.999 3.48632 15.9685 4.52 17.68C4.60777 17.832 4.65397 18.0045 4.65397 18.18C4.65397 18.3555 4.60777 18.528 4.52 18.68L4.07 19.58C3.99862 19.7341 3.96768 19.9039 3.98007 20.0733C3.99247 20.2426 4.0478 20.4061 4.14085 20.5482C4.2339 20.6902 4.3616 20.8063 4.51192 20.8853C4.66223 20.9644 4.8302 21.0038 5 21H19C19.1705 20.9995 19.338 20.9554 19.4866 20.8719C19.6352 20.7885 19.7601 20.6684 19.8492 20.5231C19.9384 20.3778 19.989 20.2122 19.9961 20.0419C20.0032 19.8716 19.9667 19.7022 19.89 19.55L19.44 18.65ZM8.5 7.00001C9.16304 7.00001 9.79892 7.2634 10.2678 7.73224C10.7366 8.20109 11 8.83697 11 9.50001C11 9.63262 10.9473 9.7598 10.8536 9.85356C10.7598 9.94733 10.6326 10 10.5 10C9.83696 10 9.20107 9.73662 8.73223 9.26778C8.26339 8.79894 8 8.16305 8 7.50001C8 7.3674 8.05268 7.24023 8.14644 7.14646C8.24021 7.05269 8.36739 7.00001 8.5 7.00001ZM15 18H9C8.73478 18 8.48043 17.8947 8.29289 17.7071C8.10536 17.5196 8 17.2652 8 17C8 16.7348 8.10536 16.4804 8.29289 16.2929C8.48043 16.1054 8.73478 16 9 16H15C15.2652 16 15.5196 16.1054 15.7071 16.2929C15.8946 16.4804 16 16.7348 16 17C16 17.2652 15.8946 17.5196 15.7071 17.7071C15.5196 17.8947 15.2652 18 15 18ZM13.5 14C13.3674 14 13.2402 13.9473 13.1464 13.8536C13.0527 13.7598 13 13.6326 13 13.5C13 12.837 13.2634 12.2011 13.7322 11.7322C14.2011 11.2634 14.837 11 15.5 11C15.6326 11 15.7598 11.0527 15.8536 11.1465C15.9473 11.2402 16 11.3674 16 11.5C16 12.1631 15.7366 12.7989 15.2678 13.2678C14.7989 13.7366 14.163 14 13.5 14Z" fill="#141414"/>
</svg>
