<svg width="24" height="24" viewBox="0 0 24 24" fill="none" xmlns="http://www.w3.org/2000/svg">
<path d="M4 6.99991H13.18C13.3902 7.57907 13.7736 8.07945 14.2782 8.43307C14.7827 8.78669 15.3839 8.97639 16 8.97639C16.6161 8.97639 17.2173 8.78669 17.7218 8.43307C18.2264 8.07945 18.6098 7.57907 18.82 6.99991H20C20.2652 6.99991 20.5196 6.89456 20.7071 6.70702C20.8946 6.51948 21 6.26513 21 5.99991C21 5.7347 20.8946 5.48034 20.7071 5.29281C20.5196 5.10527 20.2652 4.99991 20 4.99991H18.82C18.6098 4.42076 18.2264 3.92037 17.7218 3.56676C17.2173 3.21314 16.6161 3.02344 16 3.02344C15.3839 3.02344 14.7827 3.21314 14.2782 3.56676C13.7736 3.92037 13.3902 4.42076 13.18 4.99991H4C3.73478 4.99991 3.48043 5.10527 3.29289 5.29281C3.10536 5.48034 3 5.7347 3 5.99991C3 6.26513 3.10536 6.51948 3.29289 6.70702C3.48043 6.89456 3.73478 6.99991 4 6.99991ZM16 4.99991C16.1978 4.99991 16.3911 5.05856 16.5556 5.16844C16.72 5.27833 16.8482 5.4345 16.9239 5.61723C16.9996 5.79996 17.0194 6.00102 16.9808 6.195C16.9422 6.38899 16.847 6.56717 16.7071 6.70702C16.5673 6.84687 16.3891 6.94211 16.1951 6.9807C16.0011 7.01928 15.8 6.99948 15.6173 6.92379C15.4346 6.84811 15.2784 6.71993 15.1685 6.55548C15.0586 6.39104 15 6.1977 15 5.99991C15 5.7347 15.1054 5.48034 15.2929 5.29281C15.4804 5.10527 15.7348 4.99991 16 4.99991ZM20 16.9999H18.82C18.6098 16.4208 18.2264 15.9204 17.7218 15.5668C17.2173 15.2131 16.6161 15.0234 16 15.0234C15.3839 15.0234 14.7827 15.2131 14.2782 15.5668C13.7736 15.9204 13.3902 16.4208 13.18 16.9999H4C3.73478 16.9999 3.48043 17.1053 3.29289 17.2928C3.10536 17.4803 3 17.7347 3 17.9999C3 18.2651 3.10536 18.5195 3.29289 18.707C3.48043 18.8946 3.73478 18.9999 4 18.9999H13.18C13.3902 19.5791 13.7736 20.0795 14.2782 20.4331C14.7827 20.7867 15.3839 20.9764 16 20.9764C16.6161 20.9764 17.2173 20.7867 17.7218 20.4331C18.2264 20.0795 18.6098 19.5791 18.82 18.9999H20C20.2652 18.9999 20.5196 18.8946 20.7071 18.707C20.8946 18.5195 21 18.2651 21 17.9999C21 17.7347 20.8946 17.4803 20.7071 17.2928C20.5196 17.1053 20.2652 16.9999 20 16.9999ZM16 18.9999C15.8022 18.9999 15.6089 18.9413 15.4444 18.8314C15.28 18.7215 15.1518 18.5653 15.0761 18.3826C15.0004 18.1999 14.9806 17.9988 15.0192 17.8048C15.0578 17.6108 15.153 17.4327 15.2929 17.2928C15.4327 17.153 15.6109 17.0577 15.8049 17.0191C15.9989 16.9805 16.2 17.0003 16.3827 17.076C16.5654 17.1517 16.7216 17.2799 16.8315 17.4443C16.9414 17.6088 17 17.8021 17 17.9999C17 18.2651 16.8946 18.5195 16.7071 18.707C16.5196 18.8946 16.2652 18.9999 16 18.9999ZM20 10.9999H10.82C10.6098 10.4208 10.2264 9.92037 9.72184 9.56676C9.2173 9.21314 8.61612 9.02344 8 9.02344C7.38388 9.02344 6.7827 9.21314 6.27817 9.56676C5.77363 9.92037 5.3902 10.4208 5.18 10.9999H4C3.73478 10.9999 3.48043 11.1053 3.29289 11.2928C3.10536 11.4803 3 11.7347 3 11.9999C3 12.2651 3.10536 12.5195 3.29289 12.707C3.48043 12.8946 3.73478 12.9999 4 12.9999H5.18C5.3902 13.5791 5.77363 14.0795 6.27817 14.4331C6.7827 14.7867 7.38388 14.9764 8 14.9764C8.61612 14.9764 9.2173 14.7867 9.72184 14.4331C10.2264 14.0795 10.6098 13.5791 10.82 12.9999H20C20.2652 12.9999 20.5196 12.8946 20.7071 12.707C20.8946 12.5195 21 12.2651 21 11.9999C21 11.7347 20.8946 11.4803 20.7071 11.2928C20.5196 11.1053 20.2652 10.9999 20 10.9999ZM8 12.9999C7.80222 12.9999 7.60888 12.9413 7.44443 12.8314C7.27998 12.7215 7.15181 12.5653 7.07612 12.3826C7.00043 12.1999 6.98063 11.9988 7.01921 11.8048C7.0578 11.6108 7.15304 11.4327 7.29289 11.2928C7.43275 11.153 7.61093 11.0577 7.80491 11.0191C7.99889 10.9805 8.19996 11.0003 8.38268 11.076C8.56541 11.1517 8.72159 11.2799 8.83147 11.4443C8.94135 11.6088 9 11.8021 9 11.9999C9 12.2651 8.89464 12.5195 8.70711 12.707C8.51957 12.8946 8.26522 12.9999 8 12.9999Z" fill="#141414"/>
</svg>
