<svg width="24" height="24" viewBox="0 0 24 24" fill="none" xmlns="http://www.w3.org/2000/svg">
<path d="M7.74 8H16.26C16.7994 7.07134 17.045 6.00119 16.9647 4.93027C16.8844 3.85936 16.4818 2.83782 15.81 2L14.4 2.38C14.2706 2.41648 14.1499 2.47867 14.0451 2.56286C13.9403 2.64705 13.8535 2.75152 13.79 2.87C13.6241 3.20281 13.3688 3.48279 13.0526 3.67849C12.7364 3.8742 12.3719 3.97787 12 3.97787C11.6281 3.97787 11.2636 3.8742 10.9474 3.67849C10.6312 3.48279 10.3759 3.20281 10.21 2.87C10.1465 2.75152 10.0597 2.64705 9.95491 2.56286C9.8501 2.47867 9.72939 2.41648 9.6 2.38L8.19 2C7.51816 2.83782 7.11561 3.85936 7.0353 4.93027C6.95498 6.00119 7.20065 7.07134 7.74 8ZM16.4 11C16.2092 10.6927 16.0738 10.3542 16 10H8.05C7.96082 10.3575 7.80842 10.6962 7.6 11C6.12 13.09 4 16.28 4 19C4 23 20 23 20 19C20 16.28 17.88 13.09 16.4 11Z" fill="#141414"/>
</svg>
