<svg width="24" height="24" viewBox="0 0 24 24" fill="none" xmlns="http://www.w3.org/2000/svg">
<path d="M16.5401 9.4702H13.8701L15.8701 3.9902C15.9854 3.662 15.9815 3.30366 15.8589 2.9781C15.7363 2.65253 15.503 2.38054 15.1999 2.20987C14.8967 2.03921 14.5432 1.98078 14.2012 2.04485C13.8593 2.10891 13.5509 2.29138 13.3301 2.5602L5.6301 12.1802C5.41005 12.4733 5.27476 12.8212 5.23899 13.1859C5.20322 13.5506 5.26835 13.9181 5.42727 14.2484C5.58619 14.5786 5.8328 14.8588 6.14015 15.0584C6.4475 15.258 6.80378 15.3693 7.1701 15.3802H9.9701L8.1601 20.0002C8.03236 20.328 8.02555 20.6906 8.14091 21.0229C8.25626 21.3552 8.48623 21.6356 8.78958 21.8138C9.09293 21.992 9.44982 22.0562 9.79626 21.9951C10.1427 21.934 10.456 21.7514 10.6801 21.4802L18.0501 12.7302C18.286 12.4396 18.4356 12.0886 18.4819 11.7172C18.5282 11.3458 18.4694 10.9688 18.3121 10.6292C18.1547 10.2895 17.9053 10.0008 17.592 9.79596C17.2788 9.59108 16.9143 9.47822 16.5401 9.4702ZM6.0001 7.6802C6.03962 7.77905 6.10908 7.86306 6.19874 7.92045C6.28841 7.97783 6.39379 8.00572 6.5001 8.0002C6.55972 8.00974 6.62048 8.00974 6.6801 8.0002C6.74669 7.97789 6.80807 7.94231 6.86054 7.89563C6.913 7.84894 6.95547 7.79211 6.98537 7.72857C7.01528 7.66502 7.032 7.59608 7.03453 7.52589C7.03706 7.45571 7.02535 7.38574 7.0001 7.3202L5.5001 3.3202C5.45797 3.2312 5.39143 3.15599 5.30823 3.10332C5.22502 3.05065 5.12857 3.02269 5.0301 3.02269C4.93163 3.02269 4.83518 3.05065 4.75198 3.10332C4.66877 3.15599 4.60223 3.2312 4.5601 3.3202L3.0001 7.3202C2.97485 7.38574 2.96314 7.45571 2.96567 7.52589C2.9682 7.59608 2.98492 7.66502 3.01483 7.72857C3.04473 7.79211 3.0872 7.84894 3.13966 7.89563C3.19213 7.94231 3.25351 7.97789 3.3201 8.0002C3.3855 8.02697 3.45574 8.03985 3.52637 8.03804C3.59701 8.03622 3.6665 8.01975 3.73043 7.98966C3.79437 7.95958 3.85135 7.91653 3.89777 7.86326C3.9442 7.80999 3.97904 7.74765 4.0001 7.6802L4.2201 7.0002H5.7801L6.0001 7.6802ZM4.6001 6.0002L5.0001 4.9202L5.4001 6.0002H4.6001Z" fill="#141414"/>
</svg>
