<svg width="24" height="24" viewBox="0 0 24 24" fill="none" xmlns="http://www.w3.org/2000/svg">
<path d="M5 2C4.73478 2 4.48043 2.10536 4.29289 2.29289C4.10536 2.48043 4 2.73478 4 3V22H6V3C6 2.73478 5.89464 2.48043 5.70711 2.29289C5.51957 2.10536 5.26522 2 5 2ZM19.37 3.07C16.62 1.97 14.37 2.49 12.26 3C10.8755 3.39631 9.43988 3.58503 8 3.56V15.56H8.45C9.89044 15.5424 11.3237 15.3544 12.72 15C14.72 14.52 16.47 14.11 18.63 15C18.7814 15.0604 18.9453 15.0829 19.1074 15.0654C19.2695 15.048 19.4249 14.9912 19.56 14.9C19.706 14.8019 19.8236 14.6671 19.9008 14.5091C19.9781 14.3511 20.0123 14.1755 20 14V4C20.0002 3.79972 19.9402 3.604 19.8279 3.43818C19.7156 3.27237 19.5561 3.1441 19.37 3.07Z" fill="#141414"/>
</svg>
