<svg width="24" height="24" viewBox="0 0 24 24" fill="none" xmlns="http://www.w3.org/2000/svg">
<path d="M11.73 2.77002L11.21 2.29002C11.0608 2.13757 10.8667 2.03684 10.6562 2.00252C10.4457 1.96821 10.2297 2.00212 10.0398 2.0993C9.84988 2.19648 9.69604 2.35184 9.60073 2.54268C9.50541 2.73351 9.47362 2.94982 9.50999 3.16002C9.6653 4.72262 9.352 6.29608 8.60999 7.68002C8.14748 8.50226 7.60842 9.27903 6.99999 10C5.7414 11.3642 5.0294 13.1442 4.99999 15C4.98093 15.9245 5.14896 16.8433 5.49399 17.7012C5.83902 18.5591 6.35393 19.3384 7.00778 19.9922C7.66163 20.6461 8.44092 21.161 9.29882 21.506C10.1567 21.8511 11.0755 22.0191 12 22C12.9245 22.0191 13.8433 21.8511 14.7012 21.506C15.5591 21.161 16.3384 20.6461 16.9922 19.9922C17.6461 19.3384 18.161 18.5591 18.506 17.7012C18.851 16.8433 19.0191 15.9245 19 15C19 9.26002 13.72 4.54001 11.73 2.77002ZM12 20C11.5173 20.0129 11.0417 19.8817 10.634 19.6231C10.2262 19.3645 9.90468 18.9903 9.71047 18.5483C9.51626 18.1062 9.45815 17.6163 9.54356 17.1411C9.62896 16.6658 9.85401 16.2268 10.19 15.88C10.4014 15.631 10.5733 15.3511 10.7 15.05C10.8739 14.5504 10.9749 14.0284 11 13.5C11.0005 13.4013 11.0302 13.3049 11.0854 13.2231C11.1405 13.1412 11.2187 13.0775 11.31 13.04C11.4001 12.9992 11.5008 12.9878 11.5978 13.0076C11.6948 13.0273 11.783 13.0772 11.85 13.15L12.02 13.3C12.7 13.9 14.5 15.51 14.5 17.5C14.5068 17.8302 14.4468 18.1583 14.3236 18.4647C14.2003 18.7711 14.0164 19.0494 13.7829 19.2829C13.5494 19.5165 13.2711 19.7004 12.9647 19.8236C12.6583 19.9468 12.3302 20.0068 12 20Z" fill="#141414"/>
</svg>
