<svg width="24" height="24" viewBox="0 0 24 24" fill="none" xmlns="http://www.w3.org/2000/svg">
<path d="M9.5 16C10.7856 16 12.0423 15.6188 13.1112 14.9046C14.1801 14.1903 15.0132 13.1752 15.5052 11.9874C15.9972 10.7997 16.1259 9.49279 15.8751 8.23192C15.6243 6.97104 15.0052 5.81285 14.0962 4.90381C13.1872 3.99477 12.029 3.3757 10.7681 3.1249C9.50721 2.87409 8.20028 3.00282 7.01256 3.49479C5.82484 3.98676 4.80968 4.81988 4.09545 5.8888C3.38122 6.95772 3 8.21442 3 9.5C3.00264 11.2231 3.68831 12.8749 4.90673 14.0933C6.12514 15.3117 7.77691 15.9974 9.5 16ZM9.5 7.5C9.89556 7.5 10.2822 7.6173 10.6111 7.83706C10.94 8.05683 11.1964 8.36918 11.3478 8.73464C11.4991 9.10009 11.5387 9.50222 11.4616 9.89018C11.3844 10.2781 11.1939 10.6345 10.9142 10.9142C10.6345 11.1939 10.2781 11.3844 9.89018 11.4616C9.50222 11.5387 9.10009 11.4991 8.73463 11.3478C8.36918 11.1964 8.05682 10.94 7.83706 10.6111C7.6173 10.2822 7.5 9.89557 7.5 9.5C7.5 8.96957 7.71071 8.46086 8.08579 8.08579C8.46086 7.71072 8.96957 7.5 9.5 7.5ZM19 7C18.4696 7 17.9609 7.21072 17.5858 7.58579C17.2107 7.96086 17 8.46957 17 9C17 9.53044 17.2107 10.0391 17.5858 10.4142C17.9609 10.7893 18.4696 11 19 11V14C19 15.0609 18.5786 16.0783 17.8284 16.8284C17.0783 17.5786 16.0609 18 15 18H14.5V16.36C13.0507 17.4257 11.2989 18.0005 9.5 18.0005C7.7011 18.0005 5.94925 17.4257 4.5 16.36V19C4.5 19.5304 4.71071 20.0391 5.08579 20.4142C5.46086 20.7893 5.96957 21 6.5 21H12.5C12.849 20.9979 13.1914 20.9045 13.4932 20.7291C13.7949 20.5536 14.0455 20.3023 14.22 20H15C16.5913 20 18.1174 19.3679 19.2426 18.2426C20.3679 17.1174 21 15.5913 21 14V9C21 8.46957 20.7893 7.96086 20.4142 7.58579C20.0391 7.21072 19.5304 7 19 7Z" fill="#141414"/>
</svg>
