<svg width="24" height="24" viewBox="0 0 24 24" fill="none" xmlns="http://www.w3.org/2000/svg">
<path d="M21.12 6.88C20.5579 6.31723 19.7954 6.0007 19 6H12.41L11.29 4.88C10.7279 4.31723 9.96538 4.0007 9.17 4H5C4.20435 4 3.44129 4.31607 2.87868 4.87868C2.31607 5.44129 2 6.20435 2 7V17C2 17.7956 2.31607 18.5587 2.87868 19.1213C3.44129 19.6839 4.20435 20 5 20H19C19.7956 20 20.5587 19.6839 21.1213 19.1213C21.6839 18.5587 22 17.7956 22 17V9C21.9993 8.20462 21.6828 7.44207 21.12 6.88ZM14 14H10C9.73478 14 9.48043 13.8946 9.29289 13.7071C9.10536 13.5196 9 13.2652 9 13C9 12.7348 9.10536 12.4804 9.29289 12.2929C9.48043 12.1054 9.73478 12 10 12H14C14.2652 12 14.5196 12.1054 14.7071 12.2929C14.8946 12.4804 15 12.7348 15 13C15 13.2652 14.8946 13.5196 14.7071 13.7071C14.5196 13.8946 14.2652 14 14 14Z" fill="#141414"/>
</svg>
