<svg width="24" height="24" viewBox="0 0 24 24" fill="none" xmlns="http://www.w3.org/2000/svg">
<path d="M21.4098 9.58999L16.4098 4.58999C16.1308 4.30912 15.7747 4.11737 15.3866 4.03905C14.9985 3.96072 14.5959 3.99933 14.2298 4.14999C13.8649 4.30223 13.5533 4.55923 13.3343 4.88851C13.1154 5.21779 12.999 5.60458 12.9998 5.99999V7.99999C12.9998 7.99999 2.74982 9.85999 1.99982 19.84C1.99032 19.9872 2.01082 20.1349 2.06008 20.274C2.10933 20.4131 2.18631 20.5407 2.28636 20.6492C2.3864 20.7576 2.50743 20.8447 2.6421 20.905C2.77677 20.9653 2.92228 20.9976 3.06982 21C3.29746 20.992 3.51676 20.9123 3.69637 20.7722C3.87597 20.6321 4.00668 20.4389 4.06982 20.22C4.67982 18.39 6.66982 14 12.9998 14V16C12.999 16.3954 13.1154 16.7822 13.3343 17.1115C13.5533 17.4408 13.8649 17.6978 14.2298 17.85C14.4746 17.9486 14.7359 17.9995 14.9998 18C15.5294 17.9978 16.0365 17.7856 16.4098 17.41L21.4098 12.41C21.7823 12.0353 21.9914 11.5284 21.9914 11C21.9914 10.4716 21.7823 9.96472 21.4098 9.58999Z" fill="#141414"/>
</svg>
