<svg width="24" height="24" viewBox="0 0 24 24" fill="none" xmlns="http://www.w3.org/2000/svg">
<path d="M12 2C6.48 2 2 6.48 2 12C2 17.52 6.48 22 12 22C17.52 22 22 17.52 22 12C22 6.48 17.52 2 12 2ZM12.92 15.38C12.77 15.75 12.4 16 12 16H9C8.45 16 8 15.55 8 15V12C8 11.6 8.24 11.23 8.62 11.08C9 10.92 9.42 11.01 9.71 11.3L12.71 14.3C13 14.59 13.08 15.02 12.93 15.39L12.92 15.38ZM16 12C16 12.4 15.76 12.77 15.38 12.92C15.26 12.97 15.13 13 15 13C14.74 13 14.48 12.9 14.29 12.71L11.29 9.71C11 9.42 10.92 8.99 11.07 8.62C11.22 8.25 11.59 8 11.99 8H14.99C15.54 8 15.99 8.45 15.99 9V12H16Z" fill="#141414"/>
</svg>
