<svg width="24" height="24" viewBox="0 0 24 24" fill="none" xmlns="http://www.w3.org/2000/svg">
<path d="M16 16.0002H13V13.9102C14.4834 13.6595 15.8185 12.8606 16.7407 11.672C17.6628 10.4833 18.1048 8.99155 17.979 7.49238C17.8532 5.99321 17.1688 4.59601 16.0614 3.57766C14.954 2.55932 13.5045 1.99414 12 1.99414C10.4956 1.99414 9.04603 2.55932 7.93864 3.57766C6.83125 4.59601 6.14684 5.99321 6.02103 7.49238C5.89522 8.99155 6.33719 10.4833 7.25937 11.672C8.18154 12.8606 9.51661 13.6595 11 13.9102V16.0002H8.00001C7.73479 16.0002 7.48044 16.1056 7.2929 16.2931C7.10537 16.4806 7.00001 16.735 7.00001 17.0002C7.00001 17.2654 7.10537 17.5198 7.2929 17.7073C7.48044 17.8949 7.73479 18.0002 8.00001 18.0002H11V21.0002C11 21.2654 11.1054 21.5198 11.2929 21.7073C11.4804 21.8949 11.7348 22.0002 12 22.0002C12.2652 22.0002 12.5196 21.8949 12.7071 21.7073C12.8947 21.5198 13 21.2654 13 21.0002V18.0002H16C16.2652 18.0002 16.5196 17.8949 16.7071 17.7073C16.8947 17.5198 17 17.2654 17 17.0002C17 16.735 16.8947 16.4806 16.7071 16.2931C16.5196 16.1056 16.2652 16.0002 16 16.0002ZM8.00001 8.00022C8.00001 7.2091 8.23461 6.43574 8.67413 5.77794C9.11366 5.12014 9.73837 4.60745 10.4693 4.3047C11.2002 4.00195 12.0044 3.92274 12.7804 4.07708C13.5563 4.23142 14.269 4.61238 14.8284 5.17179C15.3878 5.7312 15.7688 6.44393 15.9232 7.21986C16.0775 7.99578 15.9983 8.80005 15.6955 9.53095C15.3928 10.2619 14.8801 10.8866 14.2223 11.3261C13.5645 11.7656 12.7911 12.0002 12 12.0002C10.9391 12.0002 9.92173 11.5788 9.17158 10.8286C8.42144 10.0785 8.00001 9.06109 8.00001 8.00022Z" fill="#141414"/>
</svg>
