<svg width="24" height="24" viewBox="0 0 24 24" fill="none" xmlns="http://www.w3.org/2000/svg">
<path d="M8.00002 16C7.7348 16 7.48045 16.1054 7.29291 16.2929C7.10537 16.4804 7.00002 16.7348 7.00002 17V20C7.00002 20.2652 7.10537 20.5196 7.29291 20.7071C7.48045 20.8946 7.7348 21 8.00002 21C8.26523 21 8.51959 20.8946 8.70712 20.7071C8.89466 20.5196 9.00002 20.2652 9.00002 20V17C9.00002 16.7348 8.89466 16.4804 8.70712 16.2929C8.51959 16.1054 8.26523 16 8.00002 16ZM5.66002 6C5.43313 5.86392 5.16156 5.82329 4.90479 5.88702C4.64801 5.95074 4.42695 6.11363 4.29002 6.34C3.44299 7.74658 2.99689 9.35808 3.00002 11V18C3.00002 18.2652 3.10537 18.5196 3.29291 18.7071C3.48045 18.8946 3.7348 19 4.00002 19C4.26523 19 4.51959 18.8946 4.70712 18.7071C4.89466 18.5196 5.00002 18.2652 5.00002 18V11C5.00351 9.7319 5.34898 8.48822 6.00002 7.4C6.07215 7.28648 6.12064 7.15957 6.14259 7.02686C6.16454 6.89416 6.15949 6.7584 6.12775 6.62769C6.09601 6.49699 6.03822 6.37403 5.95785 6.26618C5.87749 6.15832 5.77619 6.06779 5.66002 6ZM12 17C11.7348 17 11.4804 17.1054 11.2929 17.2929C11.1054 17.4804 11 17.7348 11 18V21C11 21.2652 11.1054 21.5196 11.2929 21.7071C11.4804 21.8946 11.7348 22 12 22C12.2652 22 12.5196 21.8946 12.7071 21.7071C12.8947 21.5196 13 21.2652 13 21V18C13 17.7348 12.8947 17.4804 12.7071 17.2929C12.5196 17.1054 12.2652 17 12 17ZM12 6C10.6739 6 9.40216 6.52678 8.46448 7.46447C7.5268 8.40215 7.00002 9.67392 7.00002 11V13C7.00002 13.2652 7.10537 13.5196 7.29291 13.7071C7.48045 13.8946 7.7348 14 8.00002 14C8.26523 14 8.51959 13.8946 8.70712 13.7071C8.89466 13.5196 9.00002 13.2652 9.00002 13V11C9.00002 10.2044 9.31609 9.44129 9.8787 8.87868C10.4413 8.31607 11.2044 8 12 8C12.7957 8 13.5587 8.31607 14.1213 8.87868C14.6839 9.44129 15 10.2044 15 11V20C15 20.2652 15.1054 20.5196 15.2929 20.7071C15.4804 20.8946 15.7348 21 16 21C16.2652 21 16.5196 20.8946 16.7071 20.7071C16.8947 20.5196 17 20.2652 17 20V11C17 9.67392 16.4732 8.40215 15.5356 7.46447C14.5979 6.52678 13.3261 6 12 6ZM12 10C11.7348 10 11.4804 10.1054 11.2929 10.2929C11.1054 10.4804 11 10.7348 11 11V14C11 14.2652 11.1054 14.5196 11.2929 14.7071C11.4804 14.8946 11.7348 15 12 15C12.2652 15 12.5196 14.8946 12.7071 14.7071C12.8947 14.5196 13 14.2652 13 14V11C13 10.7348 12.8947 10.4804 12.7071 10.2929C12.5196 10.1054 12.2652 10 12 10ZM20 15C19.7348 15 19.4804 15.1054 19.2929 15.2929C19.1054 15.4804 19 15.7348 19 16V18C19 18.2652 19.1054 18.5196 19.2929 18.7071C19.4804 18.8946 19.7348 19 20 19C20.2652 19 20.5196 18.8946 20.7071 18.7071C20.8947 18.5196 21 18.2652 21 18V16C21 15.7348 20.8947 15.4804 20.7071 15.2929C20.5196 15.1054 20.2652 15 20 15ZM12 2C10.4198 2.00129 8.86778 2.41861 7.50002 3.21C7.38543 3.27533 7.2849 3.36268 7.20421 3.46703C7.12353 3.57138 7.06429 3.69066 7.02989 3.818C6.9955 3.94534 6.98664 4.07822 7.00383 4.209C7.02101 4.33978 7.0639 4.46587 7.13002 4.58C7.19618 4.69375 7.28414 4.79333 7.38887 4.87302C7.49359 4.95271 7.61301 5.01094 7.74029 5.04439C7.86756 5.07783 8.00018 5.08583 8.13056 5.06791C8.26093 5.05 8.38648 5.00653 8.50002 4.94C9.56555 4.32875 10.7716 4.00484 12 4C13.8565 4 15.637 4.7375 16.9498 6.05025C18.2625 7.36301 19 9.14348 19 11V12C19 12.2652 19.1054 12.5196 19.2929 12.7071C19.4804 12.8946 19.7348 13 20 13C20.2652 13 20.5196 12.8946 20.7071 12.7071C20.8947 12.5196 21 12.2652 21 12V11C21 8.61305 20.0518 6.32387 18.364 4.63604C16.6761 2.94821 14.387 2 12 2Z" fill="#141414"/>
</svg>
