<svg width="24" height="24" viewBox="0 0 24 24" fill="none" xmlns="http://www.w3.org/2000/svg">
<path d="M12 10.9999C15.87 10.9999 19 9.6599 19 7.9999C19 7.0599 18 6.2199 16.42 5.6699C16.2235 4.64161 15.6746 3.71402 14.8678 3.04684C14.061 2.37966 13.0469 2.01465 12 2.01465C10.9531 2.01465 9.93896 2.37966 9.13219 3.04684C8.32543 3.71402 7.77653 4.64161 7.58 5.6699C6 6.2199 5 7.0599 5 7.9999C5 9.6599 8.13 10.9999 12 10.9999ZM12 3.9999C12.1978 3.9999 12.3911 4.05855 12.5556 4.16843C12.72 4.27831 12.8482 4.43449 12.9239 4.61722C12.9996 4.79994 13.0194 5.00101 12.9808 5.19499C12.9422 5.38897 12.847 5.56715 12.7071 5.70701C12.5673 5.84686 12.3891 5.9421 12.1951 5.98069C12.0011 6.01927 11.8 5.99947 11.6173 5.92378C11.4346 5.84809 11.2784 5.71992 11.1685 5.55547C11.0586 5.39102 11 5.19768 11 4.9999C11 4.73468 11.1054 4.48033 11.2929 4.29279C11.4804 4.10526 11.7348 3.9999 12 3.9999ZM14.47 12.3899L12.57 13.7999C12.3969 13.9297 12.1864 13.9999 11.97 13.9999C11.7536 13.9999 11.5431 13.9297 11.37 13.7999L9.49 12.4099C7.89332 12.9375 6.50348 13.9548 5.51794 15.3173C4.5324 16.6799 4.00127 18.3183 4 19.9999C4 20.5303 4.21071 21.039 4.58579 21.4141C4.96086 21.7892 5.46957 21.9999 6 21.9999H18C18.5304 21.9999 19.0391 21.7892 19.4142 21.4141C19.7893 21.039 20 20.5303 20 19.9999C20.0002 18.3099 19.4652 16.6633 18.4717 15.2962C17.4783 13.9291 16.0774 12.9117 14.47 12.3899ZM16 19.9999C15.8022 19.9999 15.6089 19.9413 15.4444 19.8314C15.28 19.7215 15.1518 19.5653 15.0761 19.3826C15.0004 19.1999 14.9806 18.9988 15.0192 18.8048C15.0578 18.6108 15.153 18.4326 15.2929 18.2928C15.4327 18.1529 15.6109 18.0577 15.8049 18.0191C15.9989 17.9805 16.2 18.0003 16.3827 18.076C16.5654 18.1517 16.7216 18.2799 16.8315 18.4443C16.9414 18.6088 17 18.8021 17 18.9999C17 19.2651 16.8946 19.5195 16.7071 19.707C16.5196 19.8945 16.2652 19.9999 16 19.9999Z" fill="#141414"/>
</svg>
