<svg width="24" height="24" viewBox="0 0 24 24" fill="none" xmlns="http://www.w3.org/2000/svg">
<path d="M5.58989 12.1802L13.2899 2.56024C13.5104 2.28796 13.8204 2.10275 14.1646 2.03756C14.5089 1.97237 14.8651 2.03143 15.1699 2.20423C15.4747 2.37703 15.7083 2.65237 15.8292 2.98124C15.95 3.31011 15.9503 3.6712 15.8299 4.00024L13.8299 9.48024H16.4999C16.8706 9.49109 17.2309 9.60479 17.5407 9.80862C17.8505 10.0125 18.0975 10.2984 18.2542 10.6345C18.4108 10.9707 18.4709 11.3437 18.4278 11.712C18.3847 12.0803 18.24 12.4294 18.0099 12.7202L10.6399 21.4702C10.4088 21.7116 10.1027 21.8676 9.77162 21.9129C9.44051 21.9583 9.10381 21.8902 8.81633 21.7198C8.52884 21.5494 8.30749 21.2867 8.1883 20.9745C8.06911 20.6622 8.0591 20.3189 8.15989 20.0002L9.92989 15.4002H7.12989C6.76015 15.392 6.39992 15.2814 6.08925 15.0808C5.77857 14.8801 5.52962 14.5973 5.37005 14.2636C5.21048 13.93 5.14655 13.5586 5.18536 13.1909C5.22417 12.8231 5.3642 12.4732 5.58989 12.1802Z" fill="#141414"/>
</svg>
