<svg width="24" height="24" viewBox="0 0 24 24" fill="none" xmlns="http://www.w3.org/2000/svg">
<path d="M18 15C16.169 14.977 14.392 15.6203 13 16.81V14.81C12.3549 15.0498 11.6451 15.0498 11 14.81V16.81C9.60798 15.6203 7.83102 14.977 6 15C5.73478 15 5.48043 15.1054 5.29289 15.2929C5.10536 15.4804 5 15.7348 5 16C5 19.31 8.14 22 12 22C15.86 22 19 19.31 19 16C19 15.7348 18.8946 15.4804 18.7071 15.2929C18.5196 15.1054 18.2652 15 18 15ZM6.8 11C6.9315 11.2283 7.10681 11.4284 7.31589 11.5888C7.52496 11.7492 7.76366 11.8667 8.01827 11.9345C8.27288 12.0023 8.53839 12.0192 8.79954 11.9841C9.06069 11.949 9.31233 11.8626 9.54 11.73L10 11.46V12C10 12.5304 10.2107 13.0391 10.5858 13.4142C10.9609 13.7893 11.4696 14 12 14C12.5304 14 13.0391 13.7893 13.4142 13.4142C13.7893 13.0391 14 12.5304 14 12V11.46L14.46 11.73C14.6877 11.8626 14.9393 11.949 15.2005 11.9841C15.4616 12.0192 15.7271 12.0023 15.9817 11.9345C16.2363 11.8667 16.475 11.7492 16.6841 11.5888C16.8932 11.4284 17.0685 11.2283 17.2 11C17.3307 10.7722 17.4152 10.5208 17.4487 10.2603C17.4823 9.9998 17.4641 9.73524 17.3954 9.48173C17.3267 9.22823 17.2087 8.99074 17.0482 8.78283C16.8877 8.57492 16.6878 8.40066 16.46 8.27L16 8L16.46 7.73C16.699 7.60497 16.9103 7.43288 17.081 7.2241C17.2518 7.01531 17.3786 6.77413 17.4538 6.51507C17.5289 6.25602 17.5509 5.98444 17.5184 5.71667C17.4858 5.4489 17.3995 5.19047 17.2645 4.95694C17.1295 4.72341 16.9487 4.5196 16.7329 4.35777C16.5171 4.19594 16.2708 4.07943 16.0088 4.01526C15.7468 3.95108 15.4745 3.94057 15.2084 3.98435C14.9422 4.02813 14.6876 4.12529 14.46 4.27L14 4.54V4C14 3.46957 13.7893 2.96086 13.4142 2.58579C13.0391 2.21071 12.5304 2 12 2C11.4696 2 10.9609 2.21071 10.5858 2.58579C10.2107 2.96086 10 3.46957 10 4V4.54L9.54 4.27C9.31236 4.12529 9.05781 4.02813 8.79165 3.98435C8.52549 3.94057 8.25322 3.95108 7.99123 4.01526C7.72923 4.07943 7.48293 4.19594 7.26713 4.35777C7.05133 4.5196 6.8705 4.72341 6.73551 4.95694C6.60052 5.19047 6.51417 5.4489 6.48164 5.71667C6.44912 5.98444 6.47109 6.25602 6.54625 6.51507C6.6214 6.77413 6.74818 7.01531 6.91896 7.2241C7.08974 7.43288 7.30099 7.60497 7.54 7.73L8 8L7.54 8.27C7.31215 8.40066 7.11227 8.57492 6.95177 8.78283C6.79127 8.99074 6.67329 9.22823 6.60457 9.48173C6.53586 9.73524 6.51775 9.9998 6.55128 10.2603C6.58481 10.5208 6.66933 10.7722 6.8 11ZM12 6.5C12.2967 6.5 12.5867 6.58797 12.8334 6.7528C13.08 6.91762 13.2723 7.15189 13.3858 7.42597C13.4994 7.70006 13.5291 8.00166 13.4712 8.29264C13.4133 8.58361 13.2704 8.85088 13.0607 9.06066C12.8509 9.27044 12.5836 9.4133 12.2926 9.47118C12.0017 9.52906 11.7001 9.49935 11.426 9.38582C11.1519 9.27229 10.9176 9.08003 10.7528 8.83335C10.588 8.58668 10.5 8.29667 10.5 8C10.5 7.60218 10.658 7.22064 10.9393 6.93934C11.2206 6.65804 11.6022 6.5 12 6.5Z" fill="#141414"/>
</svg>
