<svg width="24" height="24" viewBox="0 0 24 24" fill="none" xmlns="http://www.w3.org/2000/svg">
<path d="M21.12 7.88C20.55 7.31 19.79 7 19 7H18.1C17.93 7 17.76 6.95 17.62 6.87C17.47 6.79 17.34 6.67 17.26 6.53L16.26 4.93C16.07 4.64 15.82 4.41 15.53 4.24C15.23 4.08 14.89 4 14.56 4H9.44C9.1 4 8.77 4.08 8.47 4.25C8.18 4.41 7.93 4.64 7.75 4.93L6.75 6.53C6.66 6.67 6.53 6.79 6.38 6.87C6.23 6.96 6.07 7 5.9 7H5C4.2 7 3.44 7.31 2.87 7.88C2.3 8.45 2 9.2 2 10V17C2 17.79 2.31 18.56 2.87 19.12C3.44 19.68 4.2 20 5 20H19C19.79 20 20.55 19.68 21.12 19.12C21.68 18.56 22 17.79 22 17V10C22 9.2 21.68 8.44 21.12 7.88ZM8 16C7.74 16 7.49 15.9 7.29 15.71L5.29 13.71C4.9 13.32 4.9 12.69 5.29 12.3C5.68 11.91 6.31 11.91 6.7 12.3L7.03 12.63C7.23 10.05 9.36 8.01 11.99 8.01C12.38 8.01 12.79 8.07 13.24 8.18C13.77 8.32 14.09 8.86 13.96 9.4C13.82 9.94 13.27 10.25 12.74 10.12C12.45 10.05 12.22 10.01 11.99 10.01C10.49 10.01 9.26 11.11 9.04 12.55L9.29 12.3C9.68 11.91 10.31 11.91 10.7 12.3C11.09 12.69 11.09 13.32 10.7 13.71L8.7 15.71C8.5 15.91 8.25 16 7.99 16H8ZM18.71 13.71C18.51 13.91 18.26 14 18 14C17.74 14 17.49 13.9 17.29 13.71L16.96 13.38C16.76 15.96 14.63 18 12 18C11.61 18 11.2 17.94 10.75 17.83C10.22 17.69 9.9 17.15 10.03 16.61C10.17 16.07 10.71 15.76 11.25 15.89C11.54 15.96 11.77 16 12 16C13.5 16 14.73 14.9 14.95 13.46L14.7 13.71C14.31 14.1 13.68 14.1 13.29 13.71C12.9 13.32 12.9 12.69 13.29 12.3L15.29 10.3C15.68 9.91 16.31 9.91 16.7 10.3L18.7 12.3C19.09 12.69 19.09 13.32 18.7 13.71H18.71Z" fill="#141414"/>
</svg>
