<svg width="24" height="24" viewBox="0 0 24 24" fill="none" xmlns="http://www.w3.org/2000/svg">
<path d="M22 8.99994C21.9998 8.05391 21.7312 7.12735 21.2255 6.32786C20.7197 5.52838 19.9975 4.88878 19.1427 4.48337C18.288 4.07795 17.3358 3.92334 16.3966 4.0375C15.4575 4.15166 14.5701 4.5299 13.8373 5.1283C13.1046 5.7267 12.5567 6.52069 12.2572 7.41806C11.9577 8.31543 11.9189 9.27936 12.1454 10.1979C12.3718 11.1164 12.8542 11.9518 13.5366 12.6071C14.2189 13.2624 15.0731 13.7107 16 13.8999V15.9999H15C14.7348 15.9999 14.4804 16.1053 14.2929 16.2928C14.1054 16.4804 14 16.7347 14 16.9999C14 17.2652 14.1054 17.5195 14.2929 17.707C14.4804 17.8946 14.7348 17.9999 15 17.9999H16V19.9999C16 20.2652 16.1054 20.5195 16.2929 20.707C16.4804 20.8946 16.7348 20.9999 17 20.9999C17.2652 20.9999 17.5196 20.8946 17.7071 20.707C17.8946 20.5195 18 20.2652 18 19.9999V17.9999H19C19.2652 17.9999 19.5196 17.8946 19.7071 17.707C19.8946 17.5195 20 17.2652 20 16.9999C20 16.7347 19.8946 16.4804 19.7071 16.2928C19.5196 16.1053 19.2652 15.9999 19 15.9999H18V13.8999C19.1294 13.6694 20.1444 13.0558 20.8733 12.1628C21.6022 11.2699 22.0002 10.1526 22 8.99994ZM17 11.9999C16.4067 11.9999 15.8266 11.824 15.3333 11.4943C14.8399 11.1647 14.4554 10.6962 14.2284 10.148C14.0013 9.59981 13.9419 8.99661 14.0576 8.41467C14.1734 7.83273 14.4591 7.29818 14.8787 6.87862C15.2982 6.45906 15.8328 6.17334 16.4147 6.05758C16.9967 5.94183 17.5999 6.00124 18.1481 6.2283C18.6962 6.45536 19.1648 6.83988 19.4944 7.33323C19.8241 7.82658 20 8.4066 20 8.99994C20 9.79559 19.6839 10.5587 19.1213 11.1213C18.5587 11.6839 17.7957 11.9999 17 11.9999ZM8 11.0999V6.40994L8.29 6.70994C8.38297 6.80367 8.49357 6.87806 8.61543 6.92883C8.73729 6.9796 8.86799 7.00574 9 7.00574C9.13202 7.00574 9.26272 6.9796 9.38458 6.92883C9.50644 6.87806 9.61704 6.80367 9.71 6.70994C9.80373 6.61698 9.87813 6.50638 9.92889 6.38452C9.97966 6.26266 10.0058 6.13195 10.0058 5.99994C10.0058 5.86793 9.97966 5.73722 9.92889 5.61536C9.87813 5.4935 9.80373 5.3829 9.71 5.28994L7.71 3.28994C7.61704 3.19621 7.50644 3.12182 7.38458 3.07105C7.26272 3.02028 7.13202 2.99414 7 2.99414C6.86799 2.99414 6.73729 3.02028 6.61543 3.07105C6.49357 3.12182 6.38297 3.19621 6.29 3.28994L4.29 5.28994C4.1017 5.47824 3.99591 5.73364 3.99591 5.99994C3.99591 6.26624 4.1017 6.52164 4.29 6.70994C4.47831 6.89824 4.7337 7.00403 5 7.00403C5.26631 7.00403 5.5217 6.89824 5.71 6.70994L6 6.40994V11.0999C4.78596 11.3478 3.70718 12.0375 2.97281 13.0355C2.23843 14.0335 1.90078 15.2687 2.02532 16.5015C2.14986 17.7343 2.72771 18.8769 3.64685 19.7079C4.56599 20.5388 5.76093 20.9989 7 20.9989C8.23908 20.9989 9.43402 20.5388 10.3532 19.7079C11.2723 18.8769 11.8501 17.7343 11.9747 16.5015C12.0992 15.2687 11.7616 14.0335 11.0272 13.0355C10.2928 12.0375 9.21405 11.3478 8 11.0999ZM7 18.9999C6.40666 18.9999 5.82664 18.824 5.33329 18.4943C4.83995 18.1647 4.45543 17.6962 4.22837 17.148C4.0013 16.5998 3.94189 15.9966 4.05765 15.4147C4.1734 14.8327 4.45913 14.2982 4.87868 13.8786C5.29824 13.4591 5.83279 13.1733 6.41473 13.0576C6.99668 12.9418 7.59988 13.0012 8.14805 13.2283C8.69623 13.4554 9.16477 13.8399 9.49441 14.3332C9.82406 14.8266 10 15.4066 10 15.9999C10 16.7956 9.68393 17.5587 9.12132 18.1213C8.55871 18.6839 7.79565 18.9999 7 18.9999Z" fill="#141414"/>
</svg>
