<svg width="24" height="24" viewBox="0 0 24 24" fill="none" xmlns="http://www.w3.org/2000/svg">
<path d="M20 3H4C3.73478 3 3.48043 3.10536 3.29289 3.29289C3.10536 3.48043 3 3.73478 3 4V20C3 20.2652 3.10536 20.5196 3.29289 20.7071C3.48043 20.8946 3.73478 21 4 21H12.61V14H10.28V11.32H12.61V9.32C12.5634 8.8439 12.6216 8.36338 12.7804 7.91213C12.9391 7.46087 13.1947 7.04981 13.5291 6.70776C13.8636 6.36571 14.2688 6.10096 14.7163 5.93205C15.1639 5.76315 15.643 5.69419 16.12 5.73C16.8185 5.71175 17.5173 5.74853 18.21 5.84V8.25H16.78C15.65 8.25 15.43 8.79 15.43 9.58V11.31H18.13L17.78 14H15.43V21H20C20.2652 21 20.5196 20.8946 20.7071 20.7071C20.8946 20.5196 21 20.2652 21 20V4C21 3.73478 20.8946 3.48043 20.7071 3.29289C20.5196 3.10536 20.2652 3 20 3Z" fill="#141414"/>
</svg>
