<svg width="24" height="24" viewBox="0 0 24 24" fill="none" xmlns="http://www.w3.org/2000/svg">
<path d="M12.5 2.00002C10.9 1.99873 9.32568 2.40201 7.92333 3.17236C6.52098 3.94271 5.33617 5.05512 4.47904 6.40617C3.6219 7.75723 3.12028 9.30307 3.0208 10.9C2.92132 12.4969 3.22722 14.093 3.91004 15.54L3.35004 18.93C3.30985 19.1649 3.32656 19.4059 3.39878 19.633C3.471 19.8601 3.59662 20.0665 3.7651 20.235C3.93358 20.4034 4.14001 20.5291 4.36707 20.6013C4.59413 20.6735 4.83519 20.6902 5.07004 20.65L8.46004 20.09C9.74846 20.6986 11.1573 21.0095 12.5821 20.9998C14.007 20.9901 15.4114 20.6599 16.6914 20.0339C17.9714 19.4078 19.0942 18.5018 19.9766 17.383C20.859 16.2642 21.4784 14.9613 21.7889 13.5706C22.0995 12.18 22.0933 10.7373 21.7707 9.34936C21.4481 7.96146 20.8175 6.66389 19.9255 5.55275C19.0334 4.44161 17.9029 3.54536 16.6175 2.93038C15.3322 2.31539 13.9249 1.99742 12.5 2.00002ZM12.5 17.5C12.2528 17.5 12.0111 17.4267 11.8056 17.2894C11.6 17.152 11.4398 16.9568 11.3452 16.7284C11.2506 16.5 11.2258 16.2486 11.2741 16.0062C11.3223 15.7637 11.4413 15.5409 11.6162 15.3661C11.791 15.1913 12.0137 15.0723 12.2562 15.024C12.4987 14.9758 12.75 15.0006 12.9784 15.0952C13.2068 15.1898 13.402 15.35 13.5394 15.5556C13.6767 15.7611 13.75 16.0028 13.75 16.25C13.75 16.5815 13.6183 16.8995 13.3839 17.1339C13.1495 17.3683 12.8316 17.5 12.5 17.5ZM14.27 12.14C13.61 12.56 13.5 12.68 13.5 13C13.5 13.2652 13.3947 13.5196 13.2072 13.7071C13.0196 13.8947 12.7653 14 12.5 14C12.2348 14 11.9805 13.8947 11.7929 13.7071C11.6054 13.5196 11.5 13.2652 11.5 13C11.5195 12.4605 11.6876 11.9369 11.9858 11.4869C12.284 11.037 12.7008 10.6781 13.19 10.45C13.84 10.04 14 9.89002 14 9.50002C14 9.10219 13.842 8.72066 13.5607 8.43936C13.2794 8.15805 12.8979 8.00002 12.5 8.00002C12.1022 8.00002 11.7207 8.15805 11.4394 8.43936C11.1581 8.72066 11 9.10219 11 9.50002C11 9.76523 10.8947 10.0196 10.7072 10.2071C10.5196 10.3947 10.2653 10.5 10 10.5C9.73483 10.5 9.48047 10.3947 9.29294 10.2071C9.1054 10.0196 9.00004 9.76523 9.00004 9.50002C9.00004 8.57176 9.36879 7.68152 10.0252 7.02514C10.6815 6.36876 11.5718 6.00002 12.5 6.00002C13.4283 6.00002 14.3185 6.36876 14.9749 7.02514C15.6313 7.68152 16 8.57176 16 9.50002C15.9855 10.0574 15.8159 10.5996 15.5103 11.0659C15.2047 11.5322 14.7752 11.9042 14.27 12.14Z" fill="#141414"/>
</svg>
