<svg width="24" height="24" viewBox="0 0 24 24" fill="none" xmlns="http://www.w3.org/2000/svg">
<path d="M18.48 10L20.59 7.21C20.8152 6.91358 20.9533 6.56018 20.9885 6.18958C21.0238 5.81897 20.955 5.44588 20.7897 5.11228C20.6245 4.77868 20.3694 4.49782 20.0532 4.30132C19.737 4.10481 19.3723 4.00046 19 4H5V3C5 2.73478 4.89464 2.48043 4.70711 2.29289C4.51957 2.10536 4.26522 2 4 2C3.73478 2 3.48043 2.10536 3.29289 2.29289C3.10536 2.48043 3 2.73478 3 3V21C3 21.2652 3.10536 21.5196 3.29289 21.7071C3.48043 21.8946 3.73478 22 4 22C4.26522 22 4.51957 21.8946 4.70711 21.7071C4.89464 21.5196 5 21.2652 5 21V16H19C19.3723 15.9995 19.737 15.8952 20.0532 15.6987C20.3694 15.5022 20.6245 15.2213 20.7897 14.8877C20.955 14.5541 21.0238 14.181 20.9885 13.8104C20.9533 13.4398 20.8152 13.0864 20.59 12.79L18.48 10Z" fill="#141414"/>
</svg>
