<svg width="24" height="24" viewBox="0 0 24 24" fill="none" xmlns="http://www.w3.org/2000/svg">
<path d="M10 16H14C14.5304 16 15.0391 15.7893 15.4142 15.4142C15.7893 15.0391 16 14.5304 16 14V10C16 9.46957 15.7893 8.96086 15.4142 8.58579C15.0391 8.21071 14.5304 8 14 8H10C9.46957 8 8.96086 8.21071 8.58579 8.58579C8.21071 8.96086 8 9.46957 8 10V14C8 14.5304 8.21071 15.0391 8.58579 15.4142C8.96086 15.7893 9.46957 16 10 16ZM21 18H20V6H21C21.2652 6 21.5196 5.89464 21.7071 5.70711C21.8946 5.51957 22 5.26522 22 5C22 4.73478 21.8946 4.48043 21.7071 4.29289C21.5196 4.10536 21.2652 4 21 4H20V3C20 2.73478 19.8946 2.48043 19.7071 2.29289C19.5196 2.10536 19.2652 2 19 2C18.7348 2 18.4804 2.10536 18.2929 2.29289C18.1054 2.48043 18 2.73478 18 3V4H6V3C6 2.73478 5.89464 2.48043 5.70711 2.29289C5.51957 2.10536 5.26522 2 5 2C4.73478 2 4.48043 2.10536 4.29289 2.29289C4.10536 2.48043 4 2.73478 4 3V4H3C2.73478 4 2.48043 4.10536 2.29289 4.29289C2.10536 4.48043 2 4.73478 2 5C2 5.26522 2.10536 5.51957 2.29289 5.70711C2.48043 5.89464 2.73478 6 3 6H4V18H3C2.73478 18 2.48043 18.1054 2.29289 18.2929C2.10536 18.4804 2 18.7348 2 19C2 19.2652 2.10536 19.5196 2.29289 19.7071C2.48043 19.8946 2.73478 20 3 20H4V21C4 21.2652 4.10536 21.5196 4.29289 21.7071C4.48043 21.8946 4.73478 22 5 22C5.26522 22 5.51957 21.8946 5.70711 21.7071C5.89464 21.5196 6 21.2652 6 21V20H18V21C18 21.2652 18.1054 21.5196 18.2929 21.7071C18.4804 21.8946 18.7348 22 19 22C19.2652 22 19.5196 21.8946 19.7071 21.7071C19.8946 21.5196 20 21.2652 20 21V20H21C21.2652 20 21.5196 19.8946 21.7071 19.7071C21.8946 19.5196 22 19.2652 22 19C22 18.7348 21.8946 18.4804 21.7071 18.2929C21.5196 18.1054 21.2652 18 21 18ZM18 18H6V6H18V18Z" fill="#141414"/>
</svg>
