<svg width="24" height="24" viewBox="0 0 24 24" fill="none" xmlns="http://www.w3.org/2000/svg">
<path d="M13.77 3.00007H6.23C5.40406 2.97034 4.60006 3.26954 3.99449 3.83199C3.38892 4.39444 3.03125 5.17418 3 6.00007V18.0001C3.03125 18.826 3.38892 19.6057 3.99449 20.1682C4.60006 20.7306 5.40406 21.0298 6.23 21.0001H13.77C14.5959 21.0298 15.3999 20.7306 16.0055 20.1682C16.6111 19.6057 16.9687 18.826 17 18.0001V6.00007C16.9687 5.17418 16.6111 4.39444 16.0055 3.83199C15.3999 3.26954 14.5959 2.97034 13.77 3.00007ZM7 6.00007H9.5C9.76522 6.00007 10.0196 6.10543 10.2071 6.29296C10.3946 6.4805 10.5 6.73485 10.5 7.00007C10.5 7.26528 10.3946 7.51964 10.2071 7.70717C10.0196 7.89471 9.76522 8.00007 9.5 8.00007H7C6.73478 8.00007 6.48043 7.89471 6.29289 7.70717C6.10536 7.51964 6 7.26528 6 7.00007C6 6.73485 6.10536 6.4805 6.29289 6.29296C6.48043 6.10543 6.73478 6.00007 7 6.00007ZM13 18.0001H7C6.73478 18.0001 6.48043 17.8947 6.29289 17.7072C6.10536 17.5196 6 17.2653 6 17.0001C6 16.7349 6.10536 16.4805 6.29289 16.293C6.48043 16.1054 6.73478 16.0001 7 16.0001H13C13.2652 16.0001 13.5196 16.1054 13.7071 16.293C13.8946 16.4805 14 16.7349 14 17.0001C14 17.2653 13.8946 17.5196 13.7071 17.7072C13.5196 17.8947 13.2652 18.0001 13 18.0001ZM13 13.0001H7C6.73478 13.0001 6.48043 12.8947 6.29289 12.7072C6.10536 12.5196 6 12.2653 6 12.0001C6 11.7349 6.10536 11.4805 6.29289 11.293C6.48043 11.1054 6.73478 11.0001 7 11.0001H13C13.2652 11.0001 13.5196 11.1054 13.7071 11.293C13.8946 11.4805 14 11.7349 14 12.0001C14 12.2653 13.8946 12.5196 13.7071 12.7072C13.5196 12.8947 13.2652 13.0001 13 13.0001ZM18.66 4.00007C18.9435 4.62837 19.0868 5.31082 19.08 6.00007V18.0001C19.0868 18.6893 18.9435 19.3718 18.66 20.0001C19.3146 19.9099 19.9137 19.5837 20.3446 19.0828C20.7755 18.5819 21.0086 17.9408 21 17.2801V6.72007C21.0086 6.05936 20.7755 5.41826 20.3446 4.91735C19.9137 4.41644 19.3146 4.09023 18.66 4.00007Z" fill="#141414"/>
</svg>
