<svg width="24" height="24" viewBox="0 0 24 24" fill="none" xmlns="http://www.w3.org/2000/svg">
<path d="M4.99998 6.99977H19C19.1913 7.00024 19.3786 6.94585 19.5399 6.84305C19.7012 6.74025 19.8297 6.59335 19.91 6.41977C19.9901 6.24578 20.0185 6.05245 19.9919 5.86276C19.9653 5.67308 19.8848 5.49502 19.76 5.34977C18.7799 4.27073 17.5805 3.41363 16.2421 2.83587C14.9038 2.25811 13.4575 1.97304 12 1.99977C10.5425 1.97304 9.09616 2.25811 7.75783 2.83587C6.4195 3.41363 5.2201 4.27073 4.23998 5.34977C4.11513 5.49502 4.03463 5.67308 4.00804 5.86276C3.98145 6.05245 4.00989 6.24578 4.08999 6.41977C4.17032 6.59335 4.29874 6.74025 4.46004 6.84305C4.62133 6.94585 4.80872 7.00024 4.99998 6.99977ZM9.99998 8.99977H4.99998C4.73477 8.99977 4.48041 9.10512 4.29288 9.29266C4.10534 9.4802 3.99998 9.73455 3.99998 9.99977V20.9998C3.99998 21.265 4.10534 21.5193 4.29288 21.7069C4.48041 21.8944 4.73477 21.9998 4.99998 21.9998H9.99998C10.2652 21.9998 10.5196 21.8944 10.7071 21.7069C10.8946 21.5193 11 21.265 11 20.9998V9.99977C11 9.73455 10.8946 9.4802 10.7071 9.29266C10.5196 9.10512 10.2652 8.99977 9.99998 8.99977ZM7.99998 15.9998C7.8022 15.9998 7.60886 15.9411 7.44441 15.8312C7.27997 15.7214 7.15179 15.5652 7.07611 15.3825C7.00042 15.1997 6.98061 14.9987 7.0192 14.8047C7.05778 14.6107 7.15303 14.4325 7.29288 14.2927C7.43273 14.1528 7.61091 14.0576 7.80489 14.019C7.99888 13.9804 8.19994 14.0002 8.38267 14.0759C8.56539 14.1516 8.72157 14.2797 8.83145 14.4442C8.94134 14.6086 8.99998 14.802 8.99998 14.9998C8.99998 15.265 8.89463 15.5193 8.70709 15.7069C8.51956 15.8944 8.2652 15.9998 7.99998 15.9998ZM19 8.99977H14C13.7348 8.99977 13.4804 9.10512 13.2929 9.29266C13.1053 9.4802 13 9.73455 13 9.99977V20.9998C13 21.265 13.1053 21.5193 13.2929 21.7069C13.4804 21.8944 13.7348 21.9998 14 21.9998H19C19.2652 21.9998 19.5196 21.8944 19.7071 21.7069C19.8946 21.5193 20 21.265 20 20.9998V9.99977C20 9.73455 19.8946 9.4802 19.7071 9.29266C19.5196 9.10512 19.2652 8.99977 19 8.99977ZM16 15.9998C15.8022 15.9998 15.6089 15.9411 15.4444 15.8312C15.28 15.7214 15.1518 15.5652 15.0761 15.3825C15.0004 15.1997 14.9806 14.9987 15.0192 14.8047C15.0578 14.6107 15.153 14.4325 15.2929 14.2927C15.4327 14.1528 15.6109 14.0576 15.8049 14.019C15.9989 13.9804 16.1999 14.0002 16.3827 14.0759C16.5654 14.1516 16.7216 14.2797 16.8315 14.4442C16.9413 14.6086 17 14.802 17 14.9998C17 15.265 16.8946 15.5193 16.7071 15.7069C16.5196 15.8944 16.2652 15.9998 16 15.9998Z" fill="#141414"/>
</svg>
