<svg width="24" height="24" viewBox="0 0 24 24" fill="none" xmlns="http://www.w3.org/2000/svg">
<path d="M16 7C16 3.84 14 3 13 3C12.7348 3 12.4804 3.10536 12.2929 3.29289C12.1054 3.48043 12 3.73478 12 4V10C12 10.2652 12.1054 10.5196 12.2929 10.7071C12.4804 10.8946 12.7348 11 13 11C14 11 16 10.16 16 7ZM20 12H14C13.7348 12 13.4804 12.1054 13.2929 12.2929C13.1054 12.4804 13 12.7348 13 13C13 14 13.84 16 17 16C20.16 16 21 14 21 13C21 12.7348 20.8946 12.4804 20.7071 12.2929C20.5196 12.1054 20.2652 12 20 12ZM17.32 10C17.3854 10.0268 17.4556 10.0396 17.5263 10.0378C17.5969 10.036 17.6664 10.0195 17.7303 9.98946C17.7943 9.95937 17.8513 9.91633 17.8977 9.86306C17.9441 9.80979 17.9789 9.74745 18 9.68L18.22 9H19.78L20.03 9.68C20.0677 9.77397 20.1326 9.85459 20.2163 9.91158C20.3 9.96856 20.3987 9.99935 20.5 10H20.68C20.7474 9.97894 20.8098 9.9441 20.8631 9.89767C20.9163 9.85125 20.9594 9.79427 20.9895 9.73033C21.0195 9.6664 21.036 9.59691 21.0378 9.52627C21.0396 9.45564 21.0268 9.38539 21 9.32L19.5 5.32C19.4579 5.231 19.3913 5.15578 19.3081 5.10312C19.2249 5.05045 19.1285 5.02249 19.03 5.02249C18.9315 5.02249 18.8351 5.05045 18.7519 5.10312C18.6687 5.15578 18.6021 5.231 18.56 5.32L17.06 9.32C17.0318 9.38162 17.0161 9.44826 17.0139 9.516C17.0117 9.58375 17.0231 9.65125 17.0473 9.71457C17.0715 9.77788 17.1081 9.83573 17.1549 9.88474C17.2017 9.93375 17.2579 9.97293 17.32 10ZM19 6.92L19.4 8H18.6L19 6.92ZM11 13C10 13 8 13.84 8 17C8 20.16 10 21 11 21C11.2652 21 11.5196 20.8946 11.7071 20.7071C11.8946 20.5196 12 20.2652 12 20V14C12 13.7348 11.8946 13.4804 11.7071 13.2929C11.5196 13.1054 11.2652 13 11 13ZM11 11C11 10 10.16 8 7 8C3.84 8 3 10 3 11C3 11.2652 3.10536 11.5196 3.29289 11.7071C3.48043 11.8946 3.73478 12 4 12H10C10.2652 12 10.5196 11.8946 10.7071 11.7071C10.8946 11.5196 11 11.2652 11 11Z" fill="#141414"/>
</svg>
