<svg width="24" height="24" viewBox="0 0 24 24" fill="none" xmlns="http://www.w3.org/2000/svg">
<g clip-path="url(#clip0_1700_106)">
<mask id="mask0_1700_106" style="mask-type:alpha" maskUnits="userSpaceOnUse" x="0" y="0" width="24" height="24">
<circle cx="12" cy="12" r="12" fill="#C4C4C4"/>
</mask>
<g mask="url(#mask0_1700_106)">
<path d="M30.2143 0H-6.21423V24.2143H30.2143V0Z" fill="white"/>
<path d="M30.2143 0H-6.21423V8.07143H30.2143V0Z" fill="#FF9932"/>
<path d="M30.2142 16.1431H-6.21436V24.2145H30.2142V16.1431Z" fill="#128808"/>
<path d="M12.5558 12.0807C12.5545 12.0499 12.5506 12.0192 12.5441 11.9891L13.0916 11.913L14.6359 11.4029L13.0426 11.731L12.5306 11.9378C12.5212 11.9084 12.5094 11.8799 12.4953 11.8525L13.0039 11.6378L14.3633 10.7467L12.9106 11.4747L12.4688 11.8065C12.4521 11.7805 12.4334 11.756 12.4128 11.733L12.8479 11.3948L13.9296 10.1831L12.7143 11.2616L12.3751 11.6955C12.3523 11.6747 12.3277 11.6559 12.3017 11.6392L12.6342 11.2001L13.3644 9.75066L12.4704 11.1061L12.2555 11.6123C12.2281 11.5981 12.1995 11.5863 12.1701 11.5768L12.3771 11.0675L12.7062 9.47885L12.1946 11.0187L12.1185 11.5635C12.0883 11.5569 12.0575 11.5528 12.0266 11.5514L12.0944 11.0066L11.9999 9.38623L11.9054 11.0056L11.9732 11.5504C11.9423 11.5518 11.9115 11.5559 11.8813 11.5625L11.8052 11.0177L11.2936 9.47885L11.6227 11.0675L11.8297 11.5768C11.8003 11.5863 11.7717 11.5981 11.7443 11.6123L11.5294 11.1061L10.6355 9.75066L11.3656 11.2001L11.6982 11.6392C11.6721 11.6559 11.6476 11.6747 11.6247 11.6955L11.2855 11.2616L10.0702 10.1831L11.1519 11.3948L11.587 11.733C11.5664 11.756 11.5477 11.7805 11.531 11.8065L11.0902 11.4747L9.6365 10.7467L10.9959 11.6378L11.5045 11.8525C11.4904 11.8799 11.4786 11.9084 11.4693 11.9378L10.9572 11.731L9.36389 11.4029L10.9083 11.913L11.4557 11.9891C11.4492 12.0192 11.4453 12.0499 11.444 12.0807L10.8951 12.0129L9.271 12.1071L10.8951 12.2013L11.4442 12.1335C11.4457 12.1643 11.4498 12.1949 11.4565 12.225L10.9083 12.3012L9.36389 12.8113L10.9572 12.4832L11.4703 12.2758C11.4797 12.3052 11.4917 12.3337 11.5061 12.361L10.9959 12.5763L9.6365 13.4676L11.0902 12.7395L11.5326 12.4064C11.5493 12.4323 11.5682 12.4568 11.5891 12.4796L11.1519 12.8194L10.0702 14.0311L11.2855 12.9526L11.6263 12.5165C11.6493 12.5373 11.6739 12.556 11.7 12.5726L11.3656 13.0151L10.6355 14.4646L11.5294 13.1092L11.7455 12.5997C11.773 12.6139 11.8016 12.6258 11.8311 12.6352L11.6227 13.1477L11.2936 14.7354L11.8052 13.1955L11.8819 12.6475C11.9121 12.654 11.9428 12.658 11.9736 12.6594L11.9054 13.2087L11.9999 14.828L12.0944 13.2087L12.0262 12.6594C12.0571 12.658 12.0877 12.654 12.1179 12.6475L12.1946 13.1955L12.7062 14.7354L12.3771 13.1467L12.1687 12.6342C12.1982 12.6248 12.2268 12.6129 12.2543 12.5987L12.4704 13.1082L13.3644 14.4636L12.6342 13.0151L12.2998 12.5736C12.3259 12.557 12.3506 12.5383 12.3735 12.5175L12.7143 12.9526L13.9296 14.0311L12.8479 12.8194L12.4107 12.4796C12.4316 12.4568 12.4505 12.4323 12.4672 12.4064L12.9106 12.7395L14.3643 13.4676L13.0049 12.5763L12.4937 12.361C12.5081 12.3337 12.5201 12.3052 12.5295 12.2758L13.0426 12.4832L14.6359 12.8113L13.0916 12.3012L12.5433 12.225C12.55 12.1949 12.5541 12.1643 12.5556 12.1335L13.1047 12.2013L14.7288 12.1071L13.1047 12.0129L12.5558 12.0807Z" fill="#000089"/>
<path d="M15.2102 11.6857C15.1267 11.0526 14.8567 10.4584 14.4344 9.97832C14.0122 9.49822 13.4566 9.15374 12.838 8.98845C12.2194 8.82317 11.5655 8.84449 10.9591 9.04973C10.3526 9.25497 9.8208 9.63491 9.43091 10.1415C9.04102 10.6481 8.81056 11.2586 8.76866 11.8958C8.72676 12.5329 8.8753 13.1682 9.19551 13.7212C9.51572 14.2742 9.99321 14.7201 10.5676 15.0026C11.142 15.285 11.7875 15.3913 12.4224 15.3079C13.2739 15.1962 14.0459 14.7518 14.5687 14.0725C15.0915 13.3932 15.3223 12.5346 15.2102 11.6857ZM14.8257 12.3274C14.7867 12.3239 14.7479 12.3355 14.7174 12.3599C14.6868 12.3843 14.6669 12.4195 14.6618 12.4582C14.6567 12.4969 14.6668 12.536 14.69 12.5675C14.7132 12.5989 14.7477 12.6202 14.7862 12.6268C14.7594 12.7702 14.7213 12.9113 14.6725 13.0488C14.6358 13.0352 14.5952 13.0363 14.5593 13.0519C14.5234 13.0675 14.4949 13.0963 14.4799 13.1324C14.4648 13.1685 14.4644 13.2089 14.4786 13.2453C14.4928 13.2817 14.5206 13.3112 14.5561 13.3276C14.4928 13.459 14.4194 13.5854 14.3366 13.7056C14.3046 13.6834 14.2652 13.6744 14.2268 13.6804C14.1883 13.6864 14.1536 13.7069 14.1299 13.7377C14.1061 13.7685 14.0952 13.8072 14.0994 13.8458C14.1035 13.8845 14.1225 13.92 14.1522 13.9451C14.0571 14.0558 13.9535 14.159 13.8425 14.2538C13.8173 14.2243 13.7817 14.2056 13.743 14.2015C13.7043 14.1975 13.6656 14.2084 13.6348 14.232C13.6039 14.2557 13.5834 14.2902 13.5774 14.3285C13.5714 14.3668 13.5804 14.406 13.6025 14.4378C13.4819 14.5203 13.355 14.5933 13.2231 14.6562C13.2066 14.6208 13.1771 14.5932 13.1407 14.5791C13.1042 14.5649 13.0638 14.5653 13.0277 14.5802C12.9915 14.5951 12.9626 14.6233 12.9469 14.659C12.9311 14.6946 12.9298 14.735 12.9432 14.7716C12.8052 14.8199 12.6637 14.8576 12.52 14.8842C12.513 14.8459 12.4915 14.8118 12.46 14.789C12.4284 14.7661 12.3892 14.7563 12.3506 14.7615C12.3119 14.7667 12.2768 14.7865 12.2524 14.8169C12.2281 14.8473 12.2164 14.8858 12.2198 14.9246C12.0741 14.9358 11.9277 14.9358 11.7819 14.9246C11.7853 14.8857 11.7735 14.8471 11.7491 14.8167C11.7246 14.7864 11.6893 14.7666 11.6505 14.7615C11.6118 14.7565 11.5726 14.7665 11.5411 14.7896C11.5096 14.8127 11.4883 14.847 11.4816 14.8854C11.3378 14.8588 11.1964 14.821 11.0586 14.7724C11.0719 14.7358 11.0706 14.6956 11.0549 14.66C11.0392 14.6244 11.0103 14.5962 10.9742 14.5812C10.9382 14.5663 10.8978 14.5658 10.8614 14.5799C10.825 14.5939 10.7955 14.6214 10.7789 14.6566C10.647 14.5936 10.5202 14.5206 10.3996 14.4382C10.4242 14.4063 10.435 14.366 10.4297 14.3261C10.4244 14.2863 10.4034 14.2501 10.3714 14.2257C10.3394 14.2012 10.2989 14.1904 10.2589 14.1957C10.219 14.201 10.1827 14.2219 10.1582 14.2538C10.0471 14.1591 9.94341 14.056 9.84814 13.9455C9.87812 13.9204 9.89724 13.8848 9.90148 13.846C9.90572 13.8073 9.89476 13.7684 9.8709 13.7374C9.84704 13.7065 9.81212 13.686 9.77344 13.6802C9.73476 13.6744 9.69532 13.6837 9.66337 13.7062C9.58049 13.586 9.50714 13.4596 9.44399 13.328C9.47921 13.3115 9.5067 13.2821 9.52076 13.2459C9.53483 13.2097 9.53438 13.1695 9.51953 13.1336C9.50467 13.0977 9.47654 13.0689 9.44096 13.0532C9.40538 13.0374 9.36509 13.0359 9.32843 13.049C9.27977 12.9114 9.24188 12.7702 9.21509 12.6268C9.25405 12.6205 9.28898 12.5992 9.31248 12.5676C9.33597 12.536 9.34616 12.4965 9.34089 12.4575C9.33562 12.4185 9.31529 12.3831 9.28424 12.3588C9.25319 12.3345 9.21387 12.3232 9.17462 12.3274C9.16329 12.1819 9.16329 12.0358 9.17462 11.8903C9.214 11.8945 9.25348 11.8832 9.2846 11.8588C9.31573 11.8344 9.33603 11.7988 9.34116 11.7596C9.34629 11.7204 9.33585 11.6808 9.31206 11.6493C9.28827 11.6177 9.25303 11.5966 9.21388 11.5906C9.24051 11.4472 9.2784 11.306 9.32721 11.1685C9.36391 11.1817 9.4043 11.1803 9.43998 11.1646C9.47566 11.1488 9.5039 11.12 9.51885 11.0841C9.53379 11.0482 9.53429 11.0079 9.52024 10.9716C9.50619 10.9353 9.47866 10.9058 9.44338 10.8892C9.50655 10.7576 9.57982 10.6311 9.66256 10.5107C9.69457 10.5336 9.73425 10.5431 9.7732 10.5374C9.81216 10.5316 9.84733 10.5109 9.87126 10.4797C9.8952 10.4485 9.90602 10.4093 9.90144 10.3703C9.89686 10.3313 9.87724 10.2956 9.84673 10.2708C9.94183 10.1598 10.0454 10.0563 10.1564 9.96123C10.1809 9.99299 10.2171 10.0137 10.2569 10.0189C10.2968 10.0241 10.3371 10.0132 10.369 9.98877C10.4008 9.96432 10.4216 9.92824 10.4268 9.88849C10.432 9.84874 10.4211 9.80856 10.3966 9.7768C10.5174 9.69424 10.6444 9.62111 10.7765 9.55806C10.793 9.5931 10.8225 9.62045 10.8587 9.63447C10.8949 9.64848 10.9352 9.6481 10.9711 9.63339C11.0071 9.61868 11.036 9.59077 11.0519 9.55543C11.0678 9.52008 11.0694 9.48 11.0566 9.44345C11.1947 9.39497 11.3364 9.35726 11.4803 9.33065C11.4862 9.36982 11.5073 9.40511 11.539 9.42894C11.5708 9.45277 11.6106 9.46324 11.65 9.45808C11.6894 9.45292 11.7252 9.43256 11.7496 9.40137C11.7741 9.37018 11.7853 9.33066 11.7809 9.2913C11.9269 9.28 12.0735 9.28 12.2194 9.2913C12.2141 9.33104 12.2248 9.37127 12.2491 9.40315C12.2735 9.43504 12.3096 9.45595 12.3495 9.46131C12.3893 9.46666 12.4297 9.456 12.4617 9.43169C12.4936 9.40738 12.5146 9.37139 12.52 9.33166C12.6639 9.35791 12.8055 9.39529 12.9436 9.44345C12.929 9.4803 12.9294 9.5214 12.9449 9.55789C12.9604 9.59438 12.9896 9.62336 13.0263 9.63857C13.063 9.65378 13.1043 9.65402 13.1411 9.63922C13.178 9.62443 13.2076 9.59579 13.2235 9.55947C13.3554 9.62266 13.4822 9.69586 13.6029 9.77841C13.5807 9.81034 13.5716 9.84959 13.5775 9.88803C13.5835 9.92646 13.6041 9.96112 13.635 9.98482C13.666 10.0085 13.7049 10.0194 13.7436 10.0153C13.7824 10.0112 13.8181 9.99232 13.8434 9.96264C13.9545 10.0572 14.0582 10.1603 14.1534 10.2708C14.1224 10.2955 14.1024 10.3313 14.0976 10.3706C14.0929 10.4099 14.1037 10.4494 14.1279 10.4808C14.152 10.5122 14.1876 10.5329 14.2268 10.5384C14.2661 10.544 14.306 10.5339 14.338 10.5105C14.4208 10.6308 14.4941 10.7573 14.5571 10.889C14.5213 10.9052 14.4932 10.9346 14.4787 10.9711C14.4642 11.0075 14.4645 11.0481 14.4795 11.0844C14.4945 11.1206 14.523 11.1497 14.5591 11.1653C14.5951 11.181 14.6359 11.182 14.6727 11.1683C14.7212 11.306 14.7589 11.4472 14.7854 11.5906C14.7462 11.5965 14.7108 11.6175 14.6869 11.6492C14.663 11.6808 14.6525 11.7205 14.6576 11.7598C14.6628 11.7991 14.6832 11.8347 14.7145 11.8591C14.7458 11.8835 14.7854 11.8947 14.8249 11.8903C14.8362 12.0358 14.8362 12.1819 14.8249 12.3274H14.8257Z" fill="#000089"/>
</g>
</g>
<defs>
<clipPath id="clip0_1700_106">
<rect width="24" height="24" fill="white"/>
</clipPath>
</defs>
</svg>
