<svg width="24" height="24" viewBox="0 0 24 24" fill="none" xmlns="http://www.w3.org/2000/svg">
<path d="M3.71 8.56998L8.27 11.49L12.88 6.87998L4.7 5.80998C4.36021 5.76509 4.0153 5.83791 3.72266 6.01632C3.43002 6.19474 3.20731 6.468 3.09159 6.79061C2.97587 7.11322 2.97412 7.46573 3.08664 7.78948C3.19915 8.11322 3.41914 8.38867 3.71 8.56998ZM3.71 16.04L6.21 13.54L4.78 13.67C4.52408 13.6997 4.28012 13.7947 4.07163 13.9461C3.86313 14.0974 3.69713 14.2999 3.58961 14.534C3.4821 14.7681 3.4367 15.026 3.45778 15.2828C3.47887 15.5395 3.56573 15.7865 3.71 16V16.04ZM20.5 3.49998L20.37 3.39998L20.49 3.50998C20.3966 3.41164 20.2841 3.33334 20.1595 3.27983C20.0349 3.22632 19.9006 3.19873 19.765 3.19873C19.6294 3.19873 19.4951 3.22632 19.3705 3.27983C19.2459 3.33334 19.1334 3.41164 19.04 3.50998L3.51 19C3.41216 19.0978 3.33456 19.214 3.28161 19.3418C3.22866 19.4696 3.20141 19.6066 3.20141 19.745C3.20141 19.8833 3.22866 20.0203 3.28161 20.1482C3.33456 20.276 3.41216 20.3921 3.51 20.49C3.70758 20.6876 3.97557 20.7986 4.255 20.7986C4.39336 20.7986 4.53036 20.7713 4.65819 20.7184C4.78602 20.6654 4.90216 20.5878 5 20.49L6.84 18.6L7.53 19.82C7.68713 20.0984 7.92911 20.3193 8.22064 20.4505C8.51216 20.5817 8.83799 20.6164 9.15059 20.5494C9.46318 20.4824 9.7462 20.3173 9.95837 20.0782C10.1705 19.839 10.3007 19.5383 10.33 19.22L10.6 16.22L12 14.82L15.42 20.29C15.6014 20.5824 15.8778 20.8036 16.203 20.9164C16.5281 21.0292 16.8821 21.0268 17.2056 20.9096C17.5292 20.7923 17.8026 20.5674 17.98 20.2725C18.1574 19.9777 18.228 19.6307 18.18 19.29L17 9.86998L20.5 6.32998C20.6859 6.14424 20.8335 5.92366 20.9341 5.68086C21.0348 5.43807 21.0866 5.17781 21.0866 4.91498C21.0866 4.65215 21.0348 4.3919 20.9341 4.1491C20.8335 3.9063 20.6859 3.68573 20.5 3.49998Z" fill="#141414"/>
</svg>
