<svg width="24" height="24" viewBox="0 0 24 24" fill="none" xmlns="http://www.w3.org/2000/svg">
<path d="M19 6H12.41L11.29 4.88C10.7279 4.31723 9.96538 4.0007 9.17 4H5C4.20435 4 3.44129 4.31607 2.87868 4.87868C2.31607 5.44129 2 6.20435 2 7V17C2 17.7956 2.31607 18.5587 2.87868 19.1213C3.44129 19.6839 4.20435 20 5 20H19C19.7956 20 20.5587 19.6839 21.1213 19.1213C21.6839 18.5587 22 17.7956 22 17V9C22 8.20435 21.6839 7.44129 21.1213 6.87868C20.5587 6.31607 19.7956 6 19 6ZM15.38 12.49L14.31 13.49L14.56 15C14.5886 15.1575 14.5722 15.3199 14.5126 15.4685C14.4529 15.6171 14.3526 15.7458 14.223 15.8399C14.0934 15.9339 13.9399 15.9895 13.7802 16.0001C13.6204 16.0107 13.4609 15.976 13.32 15.9L12 15.21L10.68 15.9C10.5391 15.976 10.3796 16.0107 10.2198 16.0001C10.0601 15.9895 9.90659 15.9339 9.77702 15.8399C9.64744 15.7458 9.54706 15.6171 9.48744 15.4685C9.42782 15.3199 9.41137 15.1575 9.44 15L9.69 13.53L8.62 12.53C8.48453 12.4218 8.38494 12.2751 8.33431 12.1093C8.28367 11.9434 8.28435 11.7661 8.33626 11.6007C8.38816 11.4352 8.48887 11.2893 8.62516 11.1821C8.76146 11.0749 8.92698 11.0115 9.1 11L10.57 10.78L11.23 9.45C11.3013 9.30673 11.4111 9.18619 11.5471 9.10192C11.6831 9.01766 11.84 8.97301 12 8.97301C12.16 8.97301 12.3169 9.01766 12.4529 9.10192C12.5889 9.18619 12.6987 9.30673 12.77 9.45L13.43 10.78L14.9 11C15.0639 11.019 15.2189 11.0848 15.3465 11.1895C15.4741 11.2943 15.5688 11.4335 15.6194 11.5906C15.67 11.7476 15.6743 11.916 15.6319 12.0755C15.5894 12.235 15.502 12.3789 15.38 12.49Z" fill="#141414"/>
</svg>
