<svg width="24" height="24" viewBox="0 0 24 24" fill="none" xmlns="http://www.w3.org/2000/svg">
<path d="M20.12 7.71L17.71 5.29C17.6168 5.19676 17.5061 5.1228 17.3842 5.07234C17.2624 5.02188 17.1319 4.99591 17 4.99591C16.7337 4.99591 16.4783 5.1017 16.29 5.29C16.1017 5.4783 15.9959 5.7337 15.9959 6C15.9959 6.2663 16.1017 6.5217 16.29 6.71L17.78 8.19C17.4907 8.35132 17.263 8.60384 17.1323 8.90817C17.0016 9.21249 16.9754 9.55152 17.0576 9.87235C17.1398 10.1932 17.3258 10.4778 17.5868 10.6818C17.8477 10.8858 18.1688 10.9977 18.5 11C18.6703 10.9962 18.839 10.9658 19 10.91V18C19 18.2652 18.8946 18.5196 18.7071 18.7071C18.5196 18.8946 18.2652 19 18 19C17.7348 19 17.4804 18.8946 17.2929 18.7071C17.1054 18.5196 17 18.2652 17 18V16C17 15.2044 16.6839 14.4413 16.1213 13.8787C15.5587 13.3161 14.7956 13 14 13H13V6C13 5.20435 12.6839 4.44129 12.1213 3.87868C11.5587 3.31607 10.7956 3 10 3H6C5.20435 3 4.44129 3.31607 3.87868 3.87868C3.31607 4.44129 3 5.20435 3 6V20C3 20.2652 3.10536 20.5196 3.29289 20.7071C3.48043 20.8946 3.73478 21 4 21H12C12.2652 21 12.5196 20.8946 12.7071 20.7071C12.8946 20.5196 13 20.2652 13 20V15H14C14.2652 15 14.5196 15.1054 14.7071 15.2929C14.8946 15.4804 15 15.7348 15 16V18C15 18.7956 15.3161 19.5587 15.8787 20.1213C16.4413 20.6839 17.2044 21 18 21C18.7956 21 19.5587 20.6839 20.1213 20.1213C20.6839 19.5587 21 18.7956 21 18V9.83C20.9993 9.03462 20.6828 8.27207 20.12 7.71ZM11 9C11 9.26522 10.8946 9.51957 10.7071 9.70711C10.5196 9.89464 10.2652 10 10 10H6C5.73478 10 5.48043 9.89464 5.29289 9.70711C5.10536 9.51957 5 9.26522 5 9V7C5 6.73478 5.10536 6.48043 5.29289 6.29289C5.48043 6.10536 5.73478 6 6 6H10C10.2652 6 10.5196 6.10536 10.7071 6.29289C10.8946 6.48043 11 6.73478 11 7V9Z" fill="#141414"/>
</svg>
