<svg width="24" height="24" viewBox="0 0 24 24" fill="none" xmlns="http://www.w3.org/2000/svg">
<path d="M20.89 4.21004L16.89 2.21004C16.6143 2.07012 16.3092 1.99812 16 2.00004H15.88C15.6265 2.00815 15.3805 2.0875 15.17 2.22898C14.9595 2.37047 14.7932 2.56838 14.69 2.80004C14.4422 3.3019 14.059 3.72444 13.5836 4.01989C13.1082 4.31534 12.5597 4.47192 12 4.47192C11.4403 4.47192 10.8918 4.31534 10.4164 4.01989C9.94102 3.72444 9.55778 3.3019 9.31 2.80004C9.20681 2.56838 9.04045 2.37047 8.82999 2.22898C8.61953 2.0875 8.37347 2.00815 8.11999 2.00004H7.99999C7.68771 1.99881 7.37949 2.07073 7.09999 2.21004L3.09999 4.21004C2.67021 4.4258 2.33257 4.78919 2.14891 5.23364C1.96525 5.67809 1.94789 6.17383 2.09999 6.63004L3.09999 9.63004C3.25896 10.1101 3.59387 10.5121 4.03731 10.7552C4.48075 10.9982 4.99981 11.0643 5.48999 10.94L6.99999 10.56V17C6.99999 17.2653 7.10535 17.5196 7.29289 17.7071C7.48042 17.8947 7.73478 18 7.99999 18C8.53043 18 9.03913 18.2108 9.41421 18.5858C9.78928 18.9609 10 19.4696 10 20V21C10 21.2653 10.1054 21.5196 10.2929 21.7071C10.4804 21.8947 10.7348 22 11 22H13C13.2652 22 13.5196 21.8947 13.7071 21.7071C13.8946 21.5196 14 21.2653 14 21V20C14 19.4696 14.2107 18.9609 14.5858 18.5858C14.9609 18.2108 15.4696 18 16 18C16.2652 18 16.5196 17.8947 16.7071 17.7071C16.8946 17.5196 17 17.2653 17 17V10.56L18.51 10.94C19.0002 11.0643 19.5192 10.9982 19.9627 10.7552C20.4061 10.5121 20.741 10.1101 20.9 9.63004L21.9 6.63004C22.0513 6.17266 22.0325 5.67601 21.847 5.23141C21.6614 4.78681 21.3216 4.42412 20.89 4.21004Z" fill="#141414"/>
</svg>
