<svg width="24" height="24" viewBox="0 0 24 24" fill="none" xmlns="http://www.w3.org/2000/svg">
<path d="M10 8C10.1978 8 10.3911 7.94135 10.5556 7.83147C10.72 7.72159 10.8482 7.56541 10.9239 7.38268C10.9996 7.19996 11.0194 6.99889 10.9808 6.80491C10.9422 6.61093 10.847 6.43275 10.7071 6.29289C10.5673 6.15304 10.3891 6.0578 10.1951 6.01921C10.0011 5.98063 9.80004 6.00043 9.61732 6.07612C9.43459 6.15181 9.27841 6.27998 9.16853 6.44443C9.05865 6.60888 9 6.80222 9 7C9 7.26522 9.10536 7.51957 9.29289 7.70711C9.48043 7.89464 9.73478 8 10 8ZM7 13C6.80222 13 6.60888 13.0586 6.44443 13.1685C6.27998 13.2784 6.15181 13.4346 6.07612 13.6173C6.00043 13.8 5.98063 14.0011 6.01921 14.1951C6.0578 14.3891 6.15304 14.5673 6.29289 14.7071C6.43275 14.847 6.61093 14.9422 6.80491 14.9808C6.99889 15.0194 7.19996 14.9996 7.38268 14.9239C7.56541 14.8482 7.72159 14.72 7.83147 14.5556C7.94135 14.3911 8 14.1978 8 14C8 13.7348 7.89464 13.4804 7.70711 13.2929C7.51957 13.1054 7.26522 13 7 13ZM11 11C11 10 10.16 8 7 8C3.84 8 3 10 3 11C3 11.2652 3.10536 11.5196 3.29289 11.7071C3.48043 11.8946 3.73478 12 4 12H10C10.2652 12 10.5196 11.8946 10.7071 11.7071C10.8946 11.5196 11 11.2652 11 11ZM17 11C17.1978 11 17.3911 10.9414 17.5556 10.8315C17.72 10.7216 17.8482 10.5654 17.9239 10.3827C17.9996 10.2 18.0194 9.99889 17.9808 9.80491C17.9422 9.61093 17.847 9.43275 17.7071 9.29289C17.5673 9.15304 17.3891 9.0578 17.1951 9.01921C17.0011 8.98063 16.8 9.00043 16.6173 9.07612C16.4346 9.15181 16.2784 9.27998 16.1685 9.44443C16.0586 9.60888 16 9.80222 16 10C16 10.2652 16.1054 10.5196 16.2929 10.7071C16.4804 10.8946 16.7348 11 17 11ZM14 16C13.8022 16 13.6089 16.0586 13.4444 16.1685C13.28 16.2784 13.1518 16.4346 13.0761 16.6173C13.0004 16.8 12.9806 17.0011 13.0192 17.1951C13.0578 17.3891 13.153 17.5673 13.2929 17.7071C13.4327 17.847 13.6109 17.9422 13.8049 17.9808C13.9989 18.0194 14.2 17.9996 14.3827 17.9239C14.5654 17.8482 14.7216 17.72 14.8315 17.5556C14.9414 17.3911 15 17.1978 15 17C15 16.7348 14.8946 16.4804 14.7071 16.2929C14.5196 16.1054 14.2652 16 14 16ZM20 12H14C13.7348 12 13.4804 12.1054 13.2929 12.2929C13.1054 12.4804 13 12.7348 13 13C13 14 13.84 16 17 16C20.16 16 21 14 21 13C21 12.7348 20.8946 12.4804 20.7071 12.2929C20.5196 12.1054 20.2652 12 20 12ZM16 7C16 3.84 14 3 13 3C12.7348 3 12.4804 3.10536 12.2929 3.29289C12.1054 3.48043 12 3.73478 12 4V10C12 10.2652 12.1054 10.5196 12.2929 10.7071C12.4804 10.8946 12.7348 11 13 11C14 11 16 10.16 16 7ZM11 13C10 13 8 13.84 8 17C8 20.16 10 21 11 21C11.2652 21 11.5196 20.8946 11.7071 20.7071C11.8946 20.5196 12 20.2652 12 20V14C12 13.7348 11.8946 13.4804 11.7071 13.2929C11.5196 13.1054 11.2652 13 11 13Z" fill="#141414"/>
</svg>
