<svg width="24" height="24" viewBox="0 0 24 24" fill="none" xmlns="http://www.w3.org/2000/svg">
<path d="M10 3.00002C9.72054 3.01762 9.4588 3.14311 9.27005 3.35002C9.08342 3.55788 8.98639 3.831 9.00005 4.11002V11H8.00005V4.00002C8.00081 3.86841 7.97558 3.73795 7.92582 3.61611C7.87606 3.49427 7.80273 3.38346 7.71005 3.29002C7.51841 3.10728 7.26482 3.0037 7.00005 3.00002C6.86844 2.99926 6.73798 3.02448 6.61614 3.07425C6.4943 3.12401 6.38349 3.19734 6.29005 3.29002C6.19737 3.38346 6.12404 3.49427 6.07428 3.61611C6.02451 3.73795 5.99929 3.86841 6.00005 4.00002V11H5.00005V4.11002C5.00852 3.83179 4.91216 3.56053 4.73005 3.35002C4.5413 3.14311 4.27956 3.01762 4.00005 3.00002C3.72054 3.01762 3.4588 3.14311 3.27005 3.35002C3.08342 3.55788 2.98639 3.831 3.00005 4.11002V12C2.99929 12.1316 3.02451 12.2621 3.07428 12.3839C3.12404 12.5058 3.19737 12.6166 3.29005 12.71C3.38349 12.8027 3.4943 12.876 3.61614 12.9258C3.73798 12.9756 3.86844 13.0008 4.00005 13H6.00005V20C5.99929 20.1316 6.02451 20.2621 6.07428 20.3839C6.12404 20.5058 6.19737 20.6166 6.29005 20.71C6.38349 20.8027 6.4943 20.876 6.61614 20.9258C6.73798 20.9756 6.86844 21.0008 7.00005 21C7.26482 20.9963 7.51841 20.8927 7.71005 20.71C7.80273 20.6166 7.87606 20.5058 7.92582 20.3839C7.97558 20.2621 8.00081 20.1316 8.00005 20V13H10C10.2648 12.9963 10.5184 12.8928 10.71 12.71C10.8027 12.6166 10.8761 12.5058 10.9258 12.3839C10.9756 12.2621 11.0008 12.1316 11 12V4.11002C11.0085 3.83179 10.9122 3.56053 10.73 3.35002C10.5413 3.14311 10.2796 3.01762 10 3.00002ZM17 3.00002C14.79 3.00002 13 5.46002 13 8.50002C13 11.06 14.28 13.21 16 13.82V20C16 20.2652 16.1054 20.5196 16.2929 20.7071C16.4805 20.8947 16.7348 21 17 21C17.2653 21 17.5196 20.8947 17.7072 20.7071C17.8947 20.5196 18 20.2652 18 20V13.82C19.72 13.21 21 11.06 21 8.50002C21 5.46002 19.21 3.00002 17 3.00002Z" fill="#141414"/>
</svg>
