<svg width="24" height="24" viewBox="0 0 24 24" fill="none" xmlns="http://www.w3.org/2000/svg">
<path d="M22 4.23986C21.9645 4.13553 21.9009 4.04301 21.8162 3.97245C21.7315 3.90189 21.629 3.85601 21.52 3.83986L20.18 3.63986L19.57 2.34986C19.5239 2.24508 19.4483 2.15598 19.3524 2.09342C19.2565 2.03087 19.1445 1.99756 19.03 1.99756C18.9155 1.99756 18.8035 2.03087 18.7076 2.09342C18.6117 2.15598 18.5361 2.24508 18.49 2.34986L17.88 3.63986L16.54 3.83986C16.4332 3.85784 16.3333 3.90438 16.2508 3.97454C16.1684 4.0447 16.1064 4.13588 16.0716 4.23839C16.0367 4.34091 16.0302 4.45094 16.0529 4.55684C16.0755 4.66273 16.1263 4.76052 16.2 4.83986L17.2 5.83986L16.92 7.29986C16.9028 7.41172 16.9171 7.52614 16.9613 7.63033C17.0054 7.73453 17.0777 7.82438 17.17 7.88986C17.2732 7.96044 17.395 7.99873 17.52 7.99986C17.6211 8.00176 17.7209 7.97765 17.81 7.92986L19 7.26986L20.19 7.92986C20.2791 7.97765 20.3789 8.00176 20.48 7.99986C20.605 7.99873 20.7268 7.96044 20.83 7.88986C20.9223 7.82438 20.9946 7.73453 21.0387 7.63033C21.0829 7.52614 21.0972 7.41172 21.08 7.29986L20.84 5.86986L21.84 4.86986C21.9254 4.79206 21.9861 4.69088 22.0146 4.57888C22.043 4.46689 22.038 4.349 22 4.23986ZM10 5.99986C8.41775 5.99986 6.87103 6.46905 5.55544 7.3481C4.23985 8.22716 3.21447 9.47659 2.60897 10.9384C2.00347 12.4002 1.84504 14.0087 2.15372 15.5606C2.4624 17.1124 3.22433 18.5379 4.34315 19.6567C5.46197 20.7755 6.88743 21.5375 8.43928 21.8461C9.99113 22.1548 11.5997 21.9964 13.0615 21.3909C14.5233 20.7854 15.7727 19.76 16.6518 18.4444C17.5308 17.1288 18 15.5821 18 13.9999C18 11.8781 17.1571 9.8433 15.6569 8.34301C14.1566 6.84272 12.1217 5.99986 10 5.99986ZM6 11.9999C6 11.8021 6.05865 11.6087 6.16853 11.4443C6.27842 11.2798 6.43459 11.1517 6.61732 11.076C6.80005 11.0003 7.00111 10.9805 7.19509 11.0191C7.38908 11.0577 7.56726 11.1529 7.70711 11.2928C7.84696 11.4326 7.9422 11.6108 7.98079 11.8048C8.01937 11.9988 7.99957 12.1998 7.92388 12.3825C7.8482 12.5653 7.72002 12.7214 7.55557 12.8313C7.39112 12.9412 7.19778 12.9999 7 12.9999C6.73479 12.9999 6.48043 12.8945 6.2929 12.707C6.10536 12.5194 6 12.2651 6 11.9999ZM13.25 17.7499C12.3588 18.5545 11.2007 18.9999 10 18.9999C8.79929 18.9999 7.64126 18.5545 6.75 17.7499C6.63727 17.6684 6.54277 17.5643 6.47253 17.4443C6.4023 17.3242 6.35788 17.1909 6.34211 17.0527C6.32634 16.9145 6.33958 16.7745 6.38096 16.6417C6.42235 16.509 6.49098 16.3863 6.58247 16.2815C6.67395 16.1768 6.78629 16.0922 6.91229 16.0333C7.0383 15.9745 7.1752 15.9425 7.31425 15.9395C7.4533 15.9366 7.59144 15.9626 7.71985 16.0161C7.84826 16.0695 7.96411 16.1491 8.06 16.2499C8.59045 16.7333 9.2823 17.0013 10 17.0013C10.7177 17.0013 11.4096 16.7333 11.94 16.2499C12.0359 16.1491 12.1517 16.0695 12.2802 16.0161C12.4086 15.9626 12.5467 15.9366 12.6858 15.9395C12.8248 15.9425 12.9617 15.9745 13.0877 16.0333C13.2137 16.0922 13.3261 16.1768 13.4175 16.2815C13.509 16.3863 13.5777 16.509 13.619 16.6417C13.6604 16.7745 13.6737 16.9145 13.6579 17.0527C13.6421 17.1909 13.5977 17.3242 13.5275 17.4443C13.4572 17.5643 13.3627 17.6684 13.25 17.7499ZM13 12.9999C12.8022 12.9999 12.6089 12.9412 12.4444 12.8313C12.28 12.7214 12.1518 12.5653 12.0761 12.3825C12.0004 12.1998 11.9806 11.9988 12.0192 11.8048C12.0578 11.6108 12.153 11.4326 12.2929 11.2928C12.4327 11.1529 12.6109 11.0577 12.8049 11.0191C12.9989 10.9805 13.2 11.0003 13.3827 11.076C13.5654 11.1517 13.7216 11.2798 13.8315 11.4443C13.9414 11.6087 14 11.8021 14 11.9999C14 12.2651 13.8946 12.5194 13.7071 12.707C13.5196 12.8945 13.2652 12.9999 13 12.9999Z" fill="#141414"/>
</svg>
