<svg width="24" height="24" viewBox="0 0 24 24" fill="none" xmlns="http://www.w3.org/2000/svg">
<path d="M20 9.28V5C20 4.73479 19.8946 4.48043 19.7071 4.2929C19.5196 4.10536 19.2652 4 19 4C18.7348 4 18.4804 4.10536 18.2929 4.2929C18.1054 4.48043 18 4.73479 18 5V9.28C17.6977 9.45451 17.4464 9.70509 17.2709 10.0068C17.0955 10.3086 17.0021 10.651 17 11C17 11.5304 17.2107 12.0391 17.5858 12.4142C17.9609 12.7893 18.4696 13 19 13C19.5304 13 20.0391 12.7893 20.4142 12.4142C20.7893 12.0391 21 11.5304 21 11C20.9979 10.651 20.9045 10.3086 20.7291 10.0068C20.5536 9.70509 20.3023 9.45451 20 9.28ZM11 11C11.89 11 12.76 10.7361 13.5001 10.2416C14.2401 9.74715 14.8169 9.04434 15.1575 8.22208C15.4981 7.39981 15.5872 6.49501 15.4135 5.6221C15.2399 4.74918 14.8113 3.94736 14.182 3.31802C13.5526 2.68868 12.7508 2.2601 11.8779 2.08647C11.005 1.91283 10.1002 2.00195 9.27792 2.34254C8.45566 2.68314 7.75285 3.25991 7.25839 3.99994C6.76392 4.73996 6.5 5.60999 6.5 6.5C6.50264 7.69266 6.9776 8.83572 7.82094 9.67906C8.66428 10.5224 9.80734 10.9974 11 11ZM10 7H12C12.2652 7 12.5196 7.10536 12.7071 7.2929C12.8946 7.48043 13 7.73479 13 8C13 8.26522 12.8946 8.51957 12.7071 8.70711C12.5196 8.89464 12.2652 9 12 9H10C9.73478 9 9.48043 8.89464 9.29289 8.70711C9.10536 8.51957 9 8.26522 9 8C9 7.73479 9.10536 7.48043 9.29289 7.2929C9.48043 7.10536 9.73478 7 10 7ZM11 12C8.87827 12 6.84344 12.8429 5.34315 14.3431C3.84285 15.8434 3 17.8783 3 20C3 20.5304 3.21071 21.0391 3.58579 21.4142C3.96086 21.7893 4.46957 22 5 22H17C17.5304 22 18.0391 21.7893 18.4142 21.4142C18.7893 21.0391 19 20.5304 19 20C19 17.8783 18.1571 15.8434 16.6569 14.3431C15.1566 12.8429 13.1217 12 11 12Z" fill="#141414"/>
</svg>
