<svg width="24" height="24" viewBox="0 0 24 24" fill="none" xmlns="http://www.w3.org/2000/svg">
<path d="M20 15C19.7348 15 19.4804 15.1054 19.2929 15.2929C19.1054 15.4804 19 15.7348 19 16V19H5V16C5 15.7348 4.89464 15.4804 4.70711 15.2929C4.51957 15.1054 4.26522 15 4 15C3.73478 15 3.48043 15.1054 3.29289 15.2929C3.10536 15.4804 3 15.7348 3 16V20C3 20.2652 3.10536 20.5196 3.29289 20.7071C3.48043 20.8946 3.73478 21 4 21H20C20.2652 21 20.5196 20.8946 20.7071 20.7071C20.8946 20.5196 21 20.2652 21 20V16C21 15.7348 20.8946 15.4804 20.7071 15.2929C20.5196 15.1054 20.2652 15 20 15ZM18 9C18 7.4087 17.3679 5.88258 16.2426 4.75736C15.1174 3.63214 13.5913 3 12 3C10.4087 3 8.88258 3.63214 7.75736 4.75736C6.63214 5.88258 6 7.4087 6 9V18H18V9ZM15 12C14.8022 12 14.6089 11.9414 14.4444 11.8315C14.28 11.7216 14.1518 11.5654 14.0761 11.3827C14.0004 11.2 13.9806 10.9989 14.0192 10.8049C14.0578 10.6109 14.153 10.4327 14.2929 10.2929C14.4327 10.153 14.6109 10.0578 14.8049 10.0192C14.9989 9.98063 15.2 10.0004 15.3827 10.0761C15.5654 10.1518 15.7216 10.28 15.8315 10.4444C15.9414 10.6089 16 10.8022 16 11C16 11.2652 15.8946 11.5196 15.7071 11.7071C15.5196 11.8946 15.2652 12 15 12Z" fill="#141414"/>
</svg>
