<svg width="24" height="24" viewBox="0 0 24 24" fill="none" xmlns="http://www.w3.org/2000/svg">
<path d="M20.7002 4.9402L15.7002 3.0702C15.4939 2.9911 15.2672 2.98254 15.0556 3.04586C14.8439 3.10917 14.6592 3.24081 14.5302 3.4202C14.2565 3.83275 13.885 4.17116 13.4488 4.40527C13.0126 4.63937 12.5252 4.76189 12.0302 4.76189C11.5351 4.76189 11.0478 4.63937 10.6116 4.40527C10.1753 4.17116 9.80384 3.83275 9.53019 3.4202C9.40123 3.24081 9.21649 3.10917 9.00482 3.04586C8.79316 2.98254 8.56648 2.9911 8.36019 3.0702L3.36019 4.9402C2.8625 5.1091 2.45129 5.46712 2.2155 5.93683C1.97971 6.40654 1.93829 6.95019 2.10019 7.4502L3.10019 10.4502C3.23265 10.8493 3.48755 11.1965 3.82864 11.4425C4.16973 11.6884 4.57967 11.8206 5.00019 11.8202H5.28019L6.00019 11.6902V19.0002C6.00019 19.5306 6.2109 20.0393 6.58598 20.4144C6.96105 20.7895 7.46976 21.0002 8.00019 21.0002H16.0002C16.5306 21.0002 17.0393 20.7895 17.4144 20.4144C17.7895 20.0393 18.0002 19.5306 18.0002 19.0002V11.6902L18.7202 11.8002H19.0002C19.4207 11.8006 19.8306 11.6684 20.1717 11.4225C20.5128 11.1765 20.7677 10.8293 20.9002 10.4302L21.9002 7.4302C22.0591 6.94049 22.0231 6.40835 21.7995 5.94454C21.576 5.48074 21.1823 5.121 20.7002 4.9402Z" fill="#141414"/>
</svg>
