<svg width="24" height="24" viewBox="0 0 24 24" fill="none" xmlns="http://www.w3.org/2000/svg">
<path d="M3 13.9999C2.73562 13.9957 2.48034 14.0964 2.29 14.2799C2.19611 14.3745 2.12209 14.487 2.07229 14.6106C2.02249 14.7343 1.99791 14.8666 2 14.9999V15.9999C2.00626 16.2553 2.11002 16.4986 2.29 16.6799C2.38296 16.7736 2.49356 16.848 2.61542 16.8988C2.73728 16.9496 2.86799 16.9757 3 16.9757C3.13201 16.9757 3.26272 16.9496 3.38458 16.8988C3.50644 16.848 3.61704 16.7736 3.71 16.6799C3.88998 16.4986 3.99374 16.2553 4 15.9999V14.9999C3.99374 14.7445 3.88998 14.5012 3.71 14.3199C3.61907 14.2218 3.50939 14.1429 3.38743 14.0879C3.26548 14.033 3.13373 14.003 3 13.9999ZM3 8.9999C3.26438 9.00411 3.51966 8.90343 3.71 8.7199C3.80389 8.62528 3.87791 8.51283 3.92771 8.38919C3.97751 8.26554 4.00209 8.13319 4 7.9999V6.9999C3.99374 6.74451 3.88998 6.50121 3.71 6.3199C3.61704 6.22617 3.50644 6.15178 3.38458 6.10101C3.26272 6.05024 3.13201 6.0241 3 6.0241C2.86799 6.0241 2.73728 6.05024 2.61542 6.10101C2.49356 6.15178 2.38296 6.22617 2.29 6.3199C2.11002 6.50121 2.00626 6.74451 2 6.9999V7.9999C2.00626 8.25529 2.11002 8.4986 2.29 8.6799C2.38093 8.77802 2.49061 8.85689 2.61257 8.91186C2.73452 8.96682 2.86627 8.99676 3 8.9999ZM18 18.9999C17.8022 18.9999 17.6089 19.0586 17.4444 19.1684C17.28 19.2783 17.1518 19.4345 17.0761 19.6172C17.0004 19.7999 16.9806 20.001 17.0192 20.195C17.0578 20.389 17.153 20.5672 17.2929 20.707C17.4327 20.8469 17.6109 20.9421 17.8049 20.9807C17.9989 21.0193 18.2 20.9995 18.3827 20.9238C18.5654 20.8481 18.7216 20.7199 18.8315 20.5555C18.9414 20.391 19 20.1977 19 19.9999C19 19.7347 18.8946 19.4803 18.7071 19.2928C18.5196 19.1053 18.2652 18.9999 18 18.9999ZM15 15.9999C14.8022 15.9999 14.6089 16.0586 14.4444 16.1684C14.28 16.2783 14.1518 16.4345 14.0761 16.6172C14.0004 16.7999 13.9806 17.001 14.0192 17.195C14.0578 17.389 14.153 17.5672 14.2929 17.707C14.4327 17.8469 14.6109 17.9421 14.8049 17.9807C14.9989 18.0193 15.2 17.9995 15.3827 17.9238C15.5654 17.8481 15.7216 17.7199 15.8315 17.5555C15.9414 17.391 16 17.1977 16 16.9999C16 16.7347 15.8946 16.4803 15.7071 16.2928C15.5196 16.1053 15.2652 15.9999 15 15.9999ZM21.81 5.4199C21.6895 5.24824 21.5181 5.1188 21.32 5.0499C21.1193 4.97979 20.9007 4.97979 20.7 5.0499C20.5009 5.11162 20.3261 5.23398 20.2 5.3999L18 8.3999H15.8L14.15 6.7099C13.6492 6.20331 13.0168 5.84684 12.3241 5.68074C11.6314 5.51463 10.9061 5.54552 10.23 5.7699C9.63042 5.95525 9.08932 6.2933 8.6598 6.75087C8.23029 7.20844 7.9271 7.76981 7.78 8.3799H7.72C7.03624 8.38181 6.37051 8.59933 5.81752 9.0015C5.26454 9.40367 4.85249 9.97 4.64 10.6199H3C2.86839 10.6191 2.73793 10.6444 2.61609 10.6941C2.49426 10.7439 2.38344 10.8172 2.29 10.9099C2.10727 11.1015 2.00368 11.3551 2 11.6199C1.99924 11.7515 2.02446 11.882 2.07423 12.0038C2.12399 12.1256 2.19732 12.2365 2.29 12.3299C2.38344 12.4226 2.49426 12.4959 2.61609 12.5457C2.73793 12.5954 2.86839 12.6207 3 12.6199H4.64C4.86142 13.2799 5.2847 13.8536 5.85 14.2599C6.43127 14.678 7.13434 14.8924 7.85 14.8699L21.13 13.7499C21.3811 13.7298 21.6154 13.6156 21.7859 13.4302C21.9565 13.2448 22.0508 13.0018 22.05 12.7499V5.9999C22.0388 5.78478 21.9541 5.58003 21.81 5.4199ZM9.91 8.4199C10.13 8.07997 10.4629 7.82855 10.85 7.7099C11.1773 7.62012 11.5227 7.62012 11.85 7.7099C12.1834 7.78771 12.4883 7.95747 12.73 8.1999L12.98 8.4599L9.91 8.4199Z" fill="#141414"/>
</svg>
