<svg width="24" height="24" viewBox="0 0 24 24" fill="none" xmlns="http://www.w3.org/2000/svg">
<path d="M15.6001 4.00015C14.2643 4.04167 12.9875 4.55952 12.0001 5.46015C11.0128 4.55952 9.73588 4.04167 8.40011 4.00015C7.68608 3.99475 6.97817 4.13206 6.31795 4.40403C5.65773 4.676 5.0585 5.07715 4.55546 5.58392C4.05242 6.09069 3.6557 6.69286 3.38861 7.35507C3.12152 8.01728 2.98943 8.72619 3.00011 9.44015C3.00011 12.8102 5.63011 15.8702 10.1601 20.0002L10.6501 20.4502C11.0188 20.7875 11.5004 20.9745 12.0001 20.9745C12.4998 20.9745 12.9814 20.7875 13.3501 20.4502L13.8401 20.0102C18.3701 15.8602 21.0001 12.8002 21.0001 9.44015C21.0108 8.72619 20.8787 8.01728 20.6116 7.35507C20.3445 6.69286 19.9478 6.09069 19.4448 5.58392C18.9417 5.07715 18.3425 4.676 17.6823 4.40403C17.022 4.13206 16.3141 3.99475 15.6001 4.00015Z" fill="#141414"/>
</svg>
