<svg width="24" height="24" viewBox="0 0 24 24" fill="none" xmlns="http://www.w3.org/2000/svg">
<path d="M18.05 12.7102C18.2801 12.4194 18.4248 12.0703 18.4679 11.702C18.511 11.3337 18.4509 10.9606 18.2943 10.6245C18.1376 10.2884 17.8906 10.0024 17.5808 9.79859C17.271 9.59475 16.9107 9.48106 16.54 9.4702H13.87L15.87 3.9902C15.9853 3.662 15.9814 3.30366 15.8588 2.9781C15.7362 2.65253 15.5029 2.38054 15.1998 2.20987C14.8966 2.03921 14.5431 1.98078 14.2012 2.04485C13.8592 2.10891 13.5508 2.29138 13.33 2.5602L10.45 6.1602L17.59 13.3002L18.05 12.7102ZM20.49 19.0002L5.00001 3.5102C4.90217 3.41237 4.78602 3.33476 4.6582 3.28181C4.53037 3.22887 4.39336 3.20161 4.25501 3.20161C4.11665 3.20161 3.97964 3.22887 3.85181 3.28181C3.72399 3.33476 3.60784 3.41237 3.51001 3.5102C3.41217 3.60804 3.33456 3.72418 3.28162 3.85201C3.22867 3.97984 3.20142 4.11684 3.20142 4.2552C3.20142 4.39356 3.22867 4.53057 3.28162 4.65839C3.33456 4.78622 3.41217 4.90237 3.51001 5.0002L7.88001 9.3202L5.59001 12.1802C5.36996 12.4733 5.23466 12.8212 5.19889 13.1859C5.16312 13.5506 5.22826 13.9181 5.38718 14.2484C5.5461 14.5786 5.7927 14.8588 6.10005 15.0584C6.4074 15.258 6.76369 15.3693 7.13001 15.3802H9.93001L8.16001 20.0002C8.03226 20.328 8.02546 20.6906 8.14081 21.0229C8.25617 21.3552 8.48613 21.6356 8.78948 21.8138C9.09283 21.992 9.44972 22.0562 9.79617 21.9951C10.1426 21.934 10.456 21.7514 10.68 21.4802L15 16.3902L19 20.4902C19.1976 20.6878 19.4656 20.7988 19.745 20.7988C20.0244 20.7988 20.2924 20.6878 20.49 20.4902C20.6876 20.2926 20.7986 20.0246 20.7986 19.7452C20.7986 19.4658 20.6876 19.1978 20.49 19.0002Z" fill="#141414"/>
</svg>
