<svg width="24" height="24" viewBox="0 0 24 24" fill="none" xmlns="http://www.w3.org/2000/svg">
<path d="M21.12 6.88C20.5579 6.31723 19.7954 6.0007 19 6H12.41L11.29 4.88C10.7279 4.31723 9.96538 4.0007 9.17 4H5C4.20435 4 3.44129 4.31607 2.87868 4.87868C2.31607 5.44129 2 6.20435 2 7V17C2 17.7956 2.31607 18.5587 2.87868 19.1213C3.44129 19.6839 4.20435 20 5 20H19C19.7956 20 20.5587 19.6839 21.1213 19.1213C21.6839 18.5587 22 17.7956 22 17V9C21.9993 8.20462 21.6828 7.44207 21.12 6.88ZM13 9C13.2967 9 13.5867 9.08797 13.8334 9.2528C14.08 9.41762 14.2723 9.65189 14.3858 9.92597C14.4994 10.2001 14.5291 10.5017 14.4712 10.7926C14.4133 11.0836 14.2704 11.3509 14.0607 11.5607C13.8509 11.7704 13.5836 11.9133 13.2926 11.9712C13.0017 12.0291 12.7001 11.9994 12.426 11.8858C12.1519 11.7723 11.9176 11.58 11.7528 11.3334C11.588 11.0867 11.5 10.7967 11.5 10.5C11.5 10.1022 11.658 9.72064 11.9393 9.43934C12.2206 9.15804 12.6022 9 13 9ZM8 9C8.29667 9 8.58668 9.08797 8.83335 9.2528C9.08003 9.41762 9.27229 9.65189 9.38582 9.92597C9.49935 10.2001 9.52906 10.5017 9.47118 10.7926C9.4133 11.0836 9.27044 11.3509 9.06066 11.5607C8.85088 11.7704 8.58361 11.9133 8.29264 11.9712C8.00166 12.0291 7.70006 11.9994 7.42597 11.8858C7.15189 11.7723 6.91762 11.58 6.7528 11.3334C6.58797 11.0867 6.5 10.7967 6.5 10.5C6.5 10.1022 6.65804 9.72064 6.93934 9.43934C7.22064 9.15804 7.60218 9 8 9ZM15 17H6C5.73478 17 5.48043 16.8946 5.29289 16.7071C5.10536 16.5196 5 16.2652 5 16C5.00178 15.3562 5.21059 14.7301 5.59559 14.2142C5.98058 13.6982 6.52133 13.3198 7.13794 13.1348C7.75456 12.9498 8.41432 12.9681 9.01974 13.1869C9.62517 13.4058 10.1442 13.8135 10.5 14.35C10.8558 13.8135 11.3748 13.4058 11.9803 13.1869C12.5857 12.9681 13.2454 12.9498 13.8621 13.1348C14.4787 13.3198 15.0194 13.6982 15.4044 14.2142C15.7894 14.7301 15.9982 15.3562 16 16C16 16.2652 15.8946 16.5196 15.7071 16.7071C15.5196 16.8946 15.2652 17 15 17Z" fill="#141414"/>
</svg>
