<svg width="24" height="24" viewBox="0 0 24 24" fill="none" xmlns="http://www.w3.org/2000/svg">
<path d="M19 4H5C4.20435 4 3.44129 4.31607 2.87868 4.87868C2.31607 5.44129 2 6.20435 2 7V15C2 15.7956 2.31607 16.5587 2.87868 17.1213C3.44129 17.6839 4.20435 18 5 18H8V19C8.0002 19.3721 8.10419 19.7367 8.30028 20.053C8.49637 20.3692 8.77679 20.6244 9.11 20.79C9.38647 20.9278 9.6911 20.9997 10 21C10.4327 21 10.8538 20.8596 11.2 20.6L14.67 18H19C19.7956 18 20.5587 17.6839 21.1213 17.1213C21.6839 16.5587 22 15.7956 22 15V7C22 6.20435 21.6839 5.44129 21.1213 4.87868C20.5587 4.31607 19.7956 4 19 4ZM12 13.71L10.68 14.4C10.5391 14.476 10.3796 14.5107 10.2198 14.5001C10.0601 14.4895 9.90659 14.4339 9.77702 14.3399C9.64744 14.2458 9.54706 14.1171 9.48744 13.9685C9.42782 13.8199 9.41137 13.6575 9.44 13.5L9.69 12L8.62 11C8.50411 10.8879 8.42207 10.7455 8.38324 10.589C8.34441 10.4325 8.35036 10.2682 8.40041 10.1149C8.45046 9.96165 8.54259 9.82553 8.66629 9.72211C8.79 9.61868 8.94028 9.55211 9.1 9.53L10.57 9.31L11.23 8C11.3013 7.85673 11.4111 7.73619 11.5471 7.65192C11.6831 7.56766 11.84 7.52301 12 7.52301C12.16 7.52301 12.3169 7.56766 12.4529 7.65192C12.5889 7.73619 12.6987 7.85673 12.77 8L13.43 9.33L14.9 9.55C15.0557 9.57482 15.2015 9.64196 15.3216 9.74407C15.4418 9.84618 15.5315 9.97935 15.581 10.129C15.6306 10.2787 15.638 10.4391 15.6026 10.5927C15.5671 10.7463 15.4901 10.8872 15.38 11L14.31 12L14.56 13.47C14.5886 13.6275 14.5722 13.7899 14.5126 13.9385C14.4529 14.0871 14.3526 14.2158 14.223 14.3099C14.0934 14.4039 13.9399 14.4595 13.7802 14.4701C13.6204 14.4807 13.4609 14.446 13.32 14.37L12 13.71Z" fill="#141414"/>
</svg>
