<svg width="24" height="24" viewBox="0 0 24 24" fill="none" xmlns="http://www.w3.org/2000/svg">
<path d="M3.36 13.29C1.75 14.89 2 19.18 2 20C2.01838 20.2379 2.12121 20.4614 2.28992 20.6301C2.45864 20.7988 2.68211 20.9016 2.92 20.92C3.16 20.92 3.67 20.97 4.3 20.97C5.95 20.97 8.51 20.76 9.67 19.6C10.3783 18.925 10.8455 18.0362 11 17.07L5.92 12C4.94773 12.1359 4.04768 12.5894 3.36 13.29ZM6 7.00001C6.19778 7.00001 6.39112 6.94136 6.55557 6.83148C6.72002 6.7216 6.84819 6.56542 6.92388 6.38269C6.99957 6.19997 7.01937 5.9989 6.98079 5.80492C6.9422 5.61094 6.84696 5.43276 6.70711 5.2929C6.56725 5.15305 6.38907 5.05781 6.19509 5.01923C6.00111 4.98064 5.80004 5.00044 5.61732 5.07613C5.43459 5.15182 5.27841 5.27999 5.16853 5.44444C5.05865 5.60889 5 5.80223 5 6.00001C5 6.26523 5.10536 6.51958 5.29289 6.70712C5.48043 6.89465 5.73478 7.00001 6 7.00001ZM13 5.00001C13.1978 5.00001 13.3911 4.94136 13.5556 4.83148C13.72 4.7216 13.8482 4.56542 13.9239 4.38269C13.9996 4.19997 14.0194 3.9989 13.9808 3.80492C13.9422 3.61094 13.847 3.43276 13.7071 3.2929C13.5673 3.15305 13.3891 3.05781 13.1951 3.01923C13.0011 2.98064 12.8 3.00044 12.6173 3.07613C12.4346 3.15182 12.2784 3.27999 12.1685 3.44444C12.0586 3.60889 12 3.80223 12 4.00001C12 4.26523 12.1054 4.51958 12.2929 4.70712C12.4804 4.89465 12.7348 5.00001 13 5.00001ZM17.5 13C17.2033 13 16.9133 13.088 16.6666 13.2528C16.42 13.4176 16.2277 13.6519 16.1142 13.926C16.0007 14.2001 15.9709 14.5017 16.0288 14.7926C16.0867 15.0836 16.2296 15.3509 16.4393 15.5607C16.6491 15.7705 16.9164 15.9133 17.2074 15.9712C17.4983 16.0291 17.7999 15.9994 18.074 15.8858C18.3481 15.7723 18.5824 15.58 18.7472 15.3334C18.912 15.0867 19 14.7967 19 14.5C19 14.1022 18.842 13.7207 18.5607 13.4394C18.2794 13.158 17.8978 13 17.5 13ZM20 3.78001C19.9481 3.52834 19.8013 3.30632 19.59 3.16001C19.4791 3.08268 19.3537 3.02864 19.2214 3.00114C19.089 2.97364 18.9525 2.97325 18.82 3.00001C18.5631 3.05202 18.3368 3.20285 18.19 3.42001L16.33 6.22001L12.58 8.09001C12.4232 8.16434 12.2912 8.28242 12.2 8.43001L10.92 10.34L10.74 10.15C10.6494 10.0511 10.5362 9.9756 10.41 9.93001C10.2805 9.87478 10.1408 9.84752 10 9.85001C9.86619 9.85251 9.73399 9.87963 9.61 9.93001C9.48812 9.9783 9.37873 10.0535 9.29 10.15L8.78 10.67L7.57 9.44001C7.3785 9.27585 7.13204 9.19013 6.88 9.20001C6.6316 9.21126 6.39629 9.31465 6.22 9.49001C6.03868 9.66724 5.93145 9.90672 5.92 10.16C5.91265 10.4086 5.99821 10.6511 6.16 10.84L12.16 16.84C12.3463 17.0248 12.5977 17.1289 12.86 17.13C12.9916 17.1308 13.1221 17.1055 13.2439 17.0558C13.3657 17.006 13.4766 16.9327 13.57 16.84C13.7563 16.6526 13.8608 16.3992 13.8608 16.135C13.8608 15.8708 13.7563 15.6174 13.57 15.43L12.34 14.2L12.86 13.69C12.9502 13.5922 13.0244 13.4809 13.08 13.36C13.173 13.1152 13.173 12.8448 13.08 12.6C13.0269 12.4778 12.9524 12.366 12.86 12.27L12.36 11.78L13.71 9.78001L17.47 7.90001C17.6317 7.80495 17.7633 7.66634 17.85 7.50001L19.85 4.50001C19.9896 4.28778 20.0433 4.03035 20 3.78001Z" fill="#141414"/>
</svg>
