<svg width="24" height="24" viewBox="0 0 24 24" fill="none" xmlns="http://www.w3.org/2000/svg">
<path d="M11.23 9.64C11.42 9.87 11.7 10 12 10C12.3 10 12.58 9.87 12.77 9.64L17.77 3.64C18.02 3.34 18.07 2.93 17.91 2.58C17.75 2.23 17.39 2 17 2H7C6.61 2 6.26 2.22 6.09 2.58C5.93 2.93 5.98 3.35 6.23 3.64L11.23 9.64ZM14.86 4L12 7.44L9.14 4H14.87H14.86ZM20 11H4C3.45 11 3 11.45 3 12C3 12.55 3.45 13 4 13H20C20.55 13 21 12.55 21 12C21 11.45 20.55 11 20 11ZM12.77 14.36C12.39 13.9 11.61 13.9 11.23 14.36L6.23 20.36C5.98 20.66 5.93 21.07 6.09 21.42C6.25 21.77 6.61 22 7 22H17C17.39 22 17.74 21.78 17.91 21.42C18.07 21.07 18.02 20.65 17.77 20.36L12.77 14.36Z" fill="#141414"/>
</svg>
