<svg width="24" height="24" viewBox="0 0 24 24" fill="none" xmlns="http://www.w3.org/2000/svg">
<path d="M14.7099 11.2902L7.70994 4.29019C7.52164 4.10188 7.26624 3.99609 6.99994 3.99609C6.73364 3.99609 6.47824 4.10188 6.28994 4.29019C6.10164 4.47849 5.99585 4.73388 5.99585 5.00019C5.99585 5.26649 6.10164 5.52188 6.28994 5.71019L12.5899 12.0002L6.28994 18.2902C6.19621 18.3831 6.12182 18.4937 6.07105 18.6156C6.02028 18.7375 5.99414 18.8682 5.99414 19.0002C5.99414 19.1322 6.02028 19.2629 6.07105 19.3848C6.12182 19.5066 6.19621 19.6172 6.28994 19.7102C6.3829 19.8039 6.4935 19.8783 6.61536 19.9291C6.73722 19.9798 6.86793 20.006 6.99994 20.006C7.13195 20.006 7.26266 19.9798 7.38452 19.9291C7.50638 19.8783 7.61698 19.8039 7.70994 19.7102L14.7099 12.7102C14.8037 12.6172 14.8781 12.5066 14.9288 12.3848C14.9796 12.2629 15.0057 12.1322 15.0057 12.0002C15.0057 11.8682 14.9796 11.7375 14.9288 11.6156C14.8781 11.4937 14.8037 11.3831 14.7099 11.2902ZM19.7099 11.2902L12.7099 4.29019C12.6167 4.19695 12.506 4.12299 12.3842 4.07253C12.2624 4.02207 12.1318 3.99609 11.9999 3.99609C11.7336 3.99609 11.4782 4.10188 11.2899 4.29019C11.1967 4.38342 11.1227 4.49411 11.0723 4.61594C11.0218 4.73776 10.9958 4.86833 10.9958 5.00019C10.9958 5.26649 11.1016 5.52188 11.2899 5.71019L17.5899 12.0002L11.2899 18.2902C11.1962 18.3831 11.1218 18.4937 11.071 18.6156C11.0203 18.7375 10.9941 18.8682 10.9941 19.0002C10.9941 19.1322 11.0203 19.2629 11.071 19.3848C11.1218 19.5066 11.1962 19.6172 11.2899 19.7102C11.3829 19.8039 11.4935 19.8783 11.6154 19.9291C11.7372 19.9798 11.8679 20.006 11.9999 20.006C12.132 20.006 12.2627 19.9798 12.3845 19.9291C12.5064 19.8783 12.617 19.8039 12.7099 19.7102L19.7099 12.7102C19.8037 12.6172 19.8781 12.5066 19.9288 12.3848C19.9796 12.2629 20.0057 12.1322 20.0057 12.0002C20.0057 11.8682 19.9796 11.7375 19.9288 11.6156C19.8781 11.4937 19.8037 11.3831 19.7099 11.2902Z" fill="#141414"/>
</svg>
