<svg width="24" height="24" viewBox="0 0 24 24" fill="none" xmlns="http://www.w3.org/2000/svg">
<path d="M12 2C10.0222 2 8.08879 2.58649 6.4443 3.6853C4.79981 4.78412 3.51809 6.3459 2.76121 8.17317C2.00433 10.0004 1.8063 12.0111 2.19215 13.9509C2.578 15.8907 3.53041 17.6725 4.92894 19.0711C6.32746 20.4696 8.10929 21.422 10.0491 21.8079C11.9889 22.1937 13.9996 21.9957 15.8268 21.2388C17.6541 20.4819 19.2159 19.2002 20.3147 17.5557C21.4135 15.9112 22 13.9778 22 12C22 10.6868 21.7413 9.38642 21.2388 8.17317C20.7363 6.95991 19.9997 5.85752 19.0711 4.92893C18.1425 4.00035 17.0401 3.26375 15.8268 2.7612C14.6136 2.25866 13.3132 2 12 2ZM5.21 9.78L4.15 10.44C4.28282 9.79648 4.49442 9.17177 4.78 8.58L5.21 9.78ZM6.57 11.3L8 11.72L8.93 14.58L8.09 15.78L5.09 15.88C4.55864 14.9573 4.21855 13.937 4.09 12.88L6.57 11.3ZM7.81 17.79L8.1 19C7.53728 18.6783 7.01378 18.2924 6.54 17.85L7.81 17.79ZM16.23 17.79L17.4 17.87C16.9424 18.3086 16.4318 18.6882 15.88 19L16.23 17.79ZM16.03 15.79L15.12 14.56L16.05 11.72L17.44 11.27L19.94 12.97C19.807 14.026 19.4672 15.0454 18.94 15.97L16.03 15.79ZM18.83 9.79L19.28 8.7C19.5415 9.26802 19.7329 9.86575 19.85 10.48L18.83 9.79ZM18 6.67L16.9 9.35L15.41 9.83L13 8.12V6.61L15.39 4.76C16.379 5.21568 17.2665 5.86517 18 6.67ZM13 4.07L12 4.84L11.07 4.05C11.3789 4.01678 11.6893 4.00009 12 4C12.3344 4.00345 12.6684 4.02683 13 4.07ZM8.75 4.7L11 6.59V8.12L8.63 9.84L7.2 9.4L6.2 6.54C6.91991 5.76401 7.78665 5.13859 8.75 4.7ZM10.37 19.83L9.67 17L10.5 15.8H13.5L14.36 16.97L13.51 19.88C12.4607 20.0928 11.3793 20.0928 10.33 19.88L10.37 19.83Z" fill="#141414"/>
</svg>
