<svg width="24" height="24" viewBox="0 0 24 24" fill="none" xmlns="http://www.w3.org/2000/svg">
<path d="M3.99997 12H9.99997C10.2652 12 10.5195 11.8946 10.7071 11.7071C10.8946 11.5195 11 11.2652 11 11C11 9.99997 10.16 7.99997 6.99997 7.99997C3.83997 7.99997 2.99997 9.99997 2.99997 11C2.99997 11.2652 3.10533 11.5195 3.29287 11.7071C3.4804 11.8946 3.73476 12 3.99997 12ZM4.99997 6.99997C5.19775 6.99997 5.39109 6.94132 5.55554 6.83144C5.71999 6.72156 5.84816 6.56538 5.92385 6.38266C5.99954 6.19993 6.01934 5.99886 5.98076 5.80488C5.94217 5.6109 5.84693 5.43272 5.70708 5.29287C5.56723 5.15301 5.38904 5.05777 5.19506 5.01919C5.00108 4.9806 4.80001 5.0004 4.61729 5.07609C4.43456 5.15178 4.27838 5.27995 4.1685 5.4444C4.05862 5.60885 3.99997 5.80219 3.99997 5.99997C3.99997 6.26519 4.10533 6.51954 4.29287 6.70708C4.4804 6.89462 4.73476 6.99997 4.99997 6.99997ZM7.99997 4.99997C8.13437 4.98768 8.26983 5.0051 8.39674 5.051C8.52365 5.09691 8.63891 5.17018 8.73434 5.26561C8.82977 5.36104 8.90303 5.47629 8.94894 5.60321C8.99485 5.73012 9.01227 5.86557 8.99997 5.99997C8.99997 6.26519 9.10533 6.51954 9.29287 6.70708C9.4804 6.89462 9.73476 6.99997 9.99997 6.99997C10.2652 6.99997 10.5195 6.89462 10.7071 6.70708C10.8946 6.51954 11 6.26519 11 5.99997C11.0125 5.60263 10.9434 5.20693 10.7971 4.83731C10.6507 4.46768 10.4302 4.13196 10.1491 3.85085C9.86798 3.56975 9.53226 3.34922 9.16264 3.20288C8.79301 3.05654 8.39732 2.98748 7.99997 2.99997C7.73476 2.99997 7.4804 3.10533 7.29287 3.29287C7.10533 3.4804 6.99997 3.73476 6.99997 3.99997C6.99997 4.26519 7.10533 4.51954 7.29287 4.70708C7.4804 4.89462 7.73476 4.99997 7.99997 4.99997ZM5.99997 18C5.80219 18 5.60885 18.0586 5.4444 18.1685C5.27995 18.2784 5.15178 18.4346 5.07609 18.6173C5.0004 18.8 4.9806 19.0011 5.01919 19.1951C5.05777 19.389 5.15301 19.5672 5.29287 19.7071C5.43272 19.8469 5.6109 19.9422 5.80488 19.9808C5.99886 20.0193 6.19993 19.9995 6.38266 19.9239C6.56538 19.8482 6.72156 19.72 6.83144 19.5555C6.94132 19.3911 6.99997 19.1978 6.99997 19C6.99997 18.7348 6.89462 18.4804 6.70708 18.2929C6.51954 18.1053 6.26519 18 5.99997 18ZM18 11C18.3973 11.0125 18.793 10.9434 19.1626 10.7971C19.5323 10.6507 19.868 10.4302 20.1491 10.1491C20.4302 9.86798 20.6507 9.53226 20.7971 9.16264C20.9434 8.79301 21.0125 8.39732 21 7.99997C21 7.73476 20.8946 7.4804 20.7071 7.29287C20.5195 7.10533 20.2652 6.99997 20 6.99997C19.7348 6.99997 19.4804 7.10533 19.2929 7.29287C19.1053 7.4804 19 7.73476 19 7.99997C19.0123 8.13437 18.9948 8.26983 18.9489 8.39674C18.903 8.52365 18.8298 8.63891 18.7343 8.73434C18.6389 8.82977 18.5237 8.90303 18.3967 8.94894C18.2698 8.99485 18.1344 9.01227 18 8.99997C17.7348 8.99997 17.4804 9.10533 17.2929 9.29287C17.1053 9.4804 17 9.73476 17 9.99997C17 10.2652 17.1053 10.5195 17.2929 10.7071C17.4804 10.8946 17.7348 11 18 11ZM18 5.99997C18.1978 5.99997 18.3911 5.94132 18.5555 5.83144C18.72 5.72156 18.8482 5.56538 18.9239 5.38266C18.9995 5.19993 19.0193 4.99886 18.9808 4.80488C18.9422 4.6109 18.8469 4.43272 18.7071 4.29287C18.5672 4.15301 18.389 4.05777 18.1951 4.01919C18.0011 3.9806 17.8 4.0004 17.6173 4.07609C17.4346 4.15178 17.2784 4.27995 17.1685 4.4444C17.0586 4.60885 17 4.80219 17 4.99997C17 5.26519 17.1053 5.51954 17.2929 5.70708C17.4804 5.89462 17.7348 5.99997 18 5.99997ZM16 19C15.8656 19.0123 15.7301 18.9948 15.6032 18.9489C15.4763 18.903 15.361 18.8298 15.2656 18.7343C15.1702 18.6389 15.0969 18.5237 15.051 18.3967C15.0051 18.2698 14.9877 18.1344 15 18C15 17.7348 14.8946 17.4804 14.7071 17.2929C14.5195 17.1053 14.2652 17 14 17C13.7348 17 13.4804 17.1053 13.2929 17.2929C13.1053 17.4804 13 17.7348 13 18C12.9875 18.3973 13.0565 18.793 13.2029 19.1626C13.3492 19.5323 13.5697 19.868 13.8509 20.1491C14.132 20.4302 14.4677 20.6507 14.8373 20.7971C15.2069 20.9434 15.6026 21.0125 16 21C16.2652 21 16.5195 20.8946 16.7071 20.7071C16.8946 20.5195 17 20.2652 17 20C17 19.7348 16.8946 19.4804 16.7071 19.2929C16.5195 19.1053 16.2652 19 16 19ZM19 17C18.8022 17 18.6089 17.0586 18.4444 17.1685C18.28 17.2784 18.1518 17.4346 18.0761 17.6173C18.0004 17.8 17.9806 18.0011 18.0192 18.1951C18.0578 18.389 18.153 18.5672 18.2929 18.7071C18.4327 18.8469 18.6109 18.9422 18.8049 18.9808C18.9989 19.0193 19.1999 18.9995 19.3827 18.9239C19.5654 18.8482 19.7216 18.72 19.8314 18.5555C19.9413 18.3911 20 18.1978 20 18C20 17.7348 19.8946 17.4804 19.7071 17.2929C19.5195 17.1053 19.2652 17 19 17ZM5.99997 13C5.60263 12.9875 5.20693 13.0565 4.83731 13.2029C4.46768 13.3492 4.13196 13.5697 3.85085 13.8509C3.56975 14.132 3.34922 14.4677 3.20288 14.8373C3.05654 15.2069 2.98748 15.6026 2.99997 16C2.99997 16.2652 3.10533 16.5195 3.29287 16.7071C3.4804 16.8946 3.73476 17 3.99997 17C4.26519 17 4.51954 16.8946 4.70708 16.7071C4.89462 16.5195 4.99997 16.2652 4.99997 16C4.98768 15.8656 5.0051 15.7301 5.051 15.6032C5.09691 15.4763 5.17018 15.361 5.26561 15.2656C5.36104 15.1702 5.47629 15.0969 5.60321 15.051C5.73012 15.0051 5.86557 14.9877 5.99997 15C6.26519 15 6.51954 14.8946 6.70708 14.7071C6.89462 14.5195 6.99997 14.2652 6.99997 14C6.99997 13.7348 6.89462 13.4804 6.70708 13.2929C6.51954 13.1053 6.26519 13 5.99997 13ZM20 12H14C13.7348 12 13.4804 12.1053 13.2929 12.2929C13.1053 12.4804 13 12.7348 13 13C13 14 13.84 16 17 16C20.16 16 21 14 21 13C21 12.7348 20.8946 12.4804 20.7071 12.2929C20.5195 12.1053 20.2652 12 20 12ZM16 6.99997C16 3.83997 14 2.99997 13 2.99997C12.7348 2.99997 12.4804 3.10533 12.2929 3.29287C12.1053 3.4804 12 3.73476 12 3.99997V9.99997C12 10.2652 12.1053 10.5195 12.2929 10.7071C12.4804 10.8946 12.7348 11 13 11C14 11 16 10.16 16 6.99997ZM11 13C9.99997 13 7.99997 13.84 7.99997 17C7.99997 20.16 9.99997 21 11 21C11.2652 21 11.5195 20.8946 11.7071 20.7071C11.8946 20.5195 12 20.2652 12 20V14C12 13.7348 11.8946 13.4804 11.7071 13.2929C11.5195 13.1053 11.2652 13 11 13Z" fill="#141414"/>
</svg>
