<svg width="24" height="24" viewBox="0 0 24 24" fill="none" xmlns="http://www.w3.org/2000/svg">
<path d="M20.5 3.50015C20.3143 3.31419 20.0937 3.16668 19.8509 3.06603C19.6081 2.96538 19.3479 2.91357 19.085 2.91357C18.8222 2.91357 18.5619 2.96538 18.3191 3.06603C18.0763 3.16668 17.8558 3.31419 17.67 3.50015L14.13 7.00015L4.70002 5.81015C4.35926 5.76213 4.01234 5.83274 3.71746 6.01015C3.42258 6.18755 3.19766 6.46095 3.08044 6.7845C2.96321 7.10805 2.9608 7.46207 3.07361 7.78719C3.18642 8.1123 3.40759 8.38874 3.70002 8.57015L9.18002 12.0001L7.77002 13.4001L4.77002 13.6701C4.45167 13.6994 4.15099 13.8296 3.91185 14.0418C3.6727 14.2539 3.50759 14.537 3.44061 14.8496C3.37362 15.1622 3.40826 15.488 3.53948 15.7795C3.67069 16.071 3.89161 16.313 4.17002 16.4701L6.31002 17.6801L7.52002 19.8201C7.67716 20.0986 7.91914 20.3195 8.21066 20.4507C8.50219 20.5819 8.82801 20.6166 9.14061 20.5496C9.45321 20.4826 9.73623 20.3175 9.94839 20.0783C10.1606 19.8392 10.2908 19.5385 10.32 19.2201L10.59 16.2201L12 14.8201L15.42 20.2901C15.6014 20.5826 15.8779 20.8038 16.203 20.9166C16.5281 21.0294 16.8821 21.027 17.2057 20.9097C17.5292 20.7925 17.8026 20.5676 17.98 20.2727C18.1574 19.9778 18.228 19.6309 18.18 19.2901L17 9.87015L20.5 6.33015C20.686 6.1444 20.8335 5.92382 20.9341 5.68103C21.0348 5.43823 21.0866 5.17798 21.0866 4.91515C21.0866 4.65232 21.0348 4.39206 20.9341 4.14927C20.8335 3.90647 20.686 3.68589 20.5 3.50015Z" fill="#141414"/>
</svg>
