<svg width="24" height="24" viewBox="0 0 24 24" fill="none" xmlns="http://www.w3.org/2000/svg">
<path d="M7 8C7.49445 8 7.9778 7.85338 8.38893 7.57867C8.80005 7.30397 9.12048 6.91352 9.3097 6.45671C9.49892 5.99989 9.54843 5.49723 9.45196 5.01228C9.3555 4.52732 9.1174 4.08187 8.76777 3.73223C8.41814 3.3826 7.97268 3.1445 7.48773 3.04804C7.00277 2.95157 6.50011 3.00108 6.04329 3.1903C5.58648 3.37952 5.19603 3.69995 4.92133 4.11108C4.64662 4.5222 4.5 5.00555 4.5 5.5C4.5 6.16304 4.76339 6.79893 5.23223 7.26777C5.70107 7.73661 6.33696 8 7 8ZM12 15C12.4945 15 12.9778 14.8534 13.3889 14.5787C13.8 14.304 14.1205 13.9135 14.3097 13.4567C14.4989 12.9999 14.5484 12.4972 14.452 12.0123C14.3555 11.5273 14.1174 11.0819 13.7678 10.7322C13.4181 10.3826 12.9727 10.1445 12.4877 10.048C12.0028 9.95157 11.5001 10.0011 11.0433 10.1903C10.5865 10.3795 10.196 10.7 9.92133 11.1111C9.64662 11.5222 9.5 12.0055 9.5 12.5C9.5 13.163 9.76339 13.7989 10.2322 14.2678C10.7011 14.7366 11.337 15 12 15ZM17 8C17.4945 8 17.9778 7.85338 18.3889 7.57867C18.8 7.30397 19.1205 6.91352 19.3097 6.45671C19.4989 5.99989 19.5484 5.49723 19.452 5.01228C19.3555 4.52732 19.1174 4.08187 18.7678 3.73223C18.4181 3.3826 17.9727 3.1445 17.4877 3.04804C17.0028 2.95157 16.5001 3.00108 16.0433 3.1903C15.5865 3.37952 15.196 3.69995 14.9213 4.11108C14.6466 4.5222 14.5 5.00555 14.5 5.5C14.5 6.16304 14.7634 6.79893 15.2322 7.26777C15.7011 7.73661 16.337 8 17 8ZM19.72 9.93C18.9695 9.27674 17.9933 8.94295 17 9C16.3898 9.00054 15.7866 9.13003 15.23 9.38C15.9782 10.144 16.4255 11.1523 16.4898 12.2196C16.5541 13.287 16.2311 14.3417 15.58 15.19C16.3302 15.7478 16.9397 16.4732 17.3599 17.3083C17.78 18.1434 17.9992 19.0651 18 20C18.0004 20.3414 17.9394 20.6801 17.82 21H19C19.2517 21.0121 19.5033 20.9742 19.7403 20.8887C19.9773 20.8031 20.195 20.6714 20.3809 20.5013C20.5669 20.3312 20.7173 20.126 20.8235 19.8975C20.9298 19.669 20.9897 19.4218 21 19.17V12.5C20.9279 11.5083 20.4681 10.585 19.72 9.93ZM7.51 12.23C7.57067 11.1616 8.01862 10.152 8.77 9.39C8.21412 9.13659 7.61091 9.00368 7 9C6.00554 8.93415 5.02563 9.26581 4.27558 9.9221C3.52554 10.5784 3.06674 11.5056 3 12.5V19.17C3.01026 19.4218 3.07025 19.669 3.17649 19.8975C3.28274 20.126 3.43315 20.3312 3.61906 20.5013C3.80496 20.6714 4.02269 20.8031 4.2597 20.8887C4.49671 20.9742 4.7483 21.0121 5 21H6.18C6.06059 20.6801 5.99962 20.3414 6 20C6.00233 19.0668 6.22228 18.1471 6.64238 17.3138C7.06248 16.4806 7.67114 15.7568 8.42 15.2C7.7665 14.3531 7.44309 13.2976 7.51 12.23ZM12 16C10.9391 16 9.92172 16.4214 9.17157 17.1716C8.42143 17.9217 8 18.9391 8 20C8 20.2652 8.10536 20.5196 8.29289 20.7071C8.48043 20.8946 8.73478 21 9 21H15C15.2652 21 15.5196 20.8946 15.7071 20.7071C15.8946 20.5196 16 20.2652 16 20C16 18.9391 15.5786 17.9217 14.8284 17.1716C14.0783 16.4214 13.0609 16 12 16Z" fill="#141414"/>
</svg>
