<svg width="24" height="24" viewBox="0 0 24 24" fill="none" xmlns="http://www.w3.org/2000/svg">
<path d="M12 9C11.6044 9 11.2178 9.1173 10.8889 9.33706C10.56 9.55682 10.3036 9.86918 10.1522 10.2346C10.0009 10.6001 9.96126 11.0022 10.0384 11.3902C10.1156 11.7781 10.3061 12.1345 10.5858 12.4142C10.8655 12.6939 11.2219 12.8844 11.6098 12.9616C11.9978 13.0387 12.3999 12.9991 12.7654 12.8478C13.1308 12.6964 13.4432 12.44 13.6629 12.1111C13.8827 11.7822 14 11.3956 14 11C14 10.4696 13.7893 9.96086 13.4142 9.58579C13.0391 9.21071 12.5304 9 12 9ZM19 4H5C4.20435 4 3.44129 4.31607 2.87868 4.87868C2.31607 5.44129 2 6.20435 2 7V15C2.00174 15.6189 2.19488 16.2222 2.55294 16.7271C2.911 17.2319 3.41645 17.6137 4 17.82V19C4 19.2652 4.10536 19.5196 4.29289 19.7071C4.48043 19.8946 4.73478 20 5 20H6C6.26522 20 6.51957 19.8946 6.70711 19.7071C6.89464 19.5196 7 19.2652 7 19V18H17V19C17 19.2652 17.1054 19.5196 17.2929 19.7071C17.4804 19.8946 17.7348 20 18 20H19C19.2652 20 19.5196 19.8946 19.7071 19.7071C19.8946 19.5196 20 19.2652 20 19V17.82C20.5835 17.6137 21.089 17.2319 21.4471 16.7271C21.8051 16.2222 21.9983 15.6189 22 15V7C22 6.20435 21.6839 5.44129 21.1213 4.87868C20.5587 4.31607 19.7956 4 19 4ZM18 12H15.86C15.6166 12.9427 15.0378 13.7642 14.232 14.3106C13.4262 14.857 12.4488 15.0908 11.483 14.9681C10.5172 14.8454 9.62927 14.3747 8.98568 13.6442C8.34209 12.9137 7.98702 11.9736 7.98702 11C7.98702 10.0264 8.34209 9.08627 8.98568 8.35577C9.62927 7.62526 10.5172 7.15456 11.483 7.03188C12.4488 6.90921 13.4262 7.14299 14.232 7.6894C15.0378 8.23581 15.6166 9.05734 15.86 10H18C18.2652 10 18.5196 10.1054 18.7071 10.2929C18.8946 10.4804 19 10.7348 19 11C19 11.2652 18.8946 11.5196 18.7071 11.7071C18.5196 11.8946 18.2652 12 18 12Z" fill="#141414"/>
</svg>
