<svg width="24" height="24" viewBox="0 0 24 24" fill="none" xmlns="http://www.w3.org/2000/svg">
<path d="M17 19.0001H15C14.7348 19.0001 14.4804 19.1055 14.2929 19.293C14.1053 19.4805 14 19.7349 14 20.0001C14 20.2653 14.1053 20.5197 14.2929 20.7072C14.4804 20.8947 14.7348 21.0001 15 21.0001H17C17.2652 21.0001 17.5195 20.8947 17.7071 20.7072C17.8946 20.5197 18 20.2653 18 20.0001C18 19.7349 17.8946 19.4805 17.7071 19.293C17.5195 19.1055 17.2652 19.0001 17 19.0001ZM7.99997 19.0001H5.99997C5.73476 19.0001 5.4804 19.1055 5.29287 19.293C5.10533 19.4805 4.99997 19.7349 4.99997 20.0001C4.99997 20.2653 5.10533 20.5197 5.29287 20.7072C5.4804 20.8947 5.73476 21.0001 5.99997 21.0001H7.99997C8.26519 21.0001 8.51954 20.8947 8.70708 20.7072C8.89462 20.5197 8.99997 20.2653 8.99997 20.0001C8.99997 19.7349 8.89462 19.4805 8.70708 19.293C8.51954 19.1055 8.26519 19.0001 7.99997 19.0001ZM19.77 14.1501L15.54 12.3401L17.68 7.0001H19C19.1846 6.99954 19.3655 6.94785 19.5226 6.85077C19.6797 6.75369 19.8069 6.61501 19.89 6.4501L20.89 4.4501C20.987 4.217 20.9923 3.95582 20.9048 3.71898C20.8173 3.48215 20.6434 3.28719 20.418 3.17326C20.1927 3.05933 19.9326 3.03486 19.69 3.10476C19.4474 3.17465 19.2402 3.33375 19.11 3.5501L18.38 5.0001H15C14.7348 5.0001 14.4804 5.10545 14.2929 5.29299C14.1053 5.48053 14 5.73488 14 6.0001C14 6.26531 14.1053 6.51967 14.2929 6.7072C14.4804 6.89474 14.7348 7.0001 15 7.0001H15.52L13.7 11.5501L8.76997 9.4501C8.41922 9.29054 8.04958 9.17629 7.66997 9.1101L6.61997 7.0001H7.99997C8.26519 7.0001 8.51954 6.89474 8.70708 6.7072C8.89462 6.51967 8.99997 6.26531 8.99997 6.0001C8.99997 5.73488 8.89462 5.48053 8.70708 5.29299C8.51954 5.10545 8.26519 5.0001 7.99997 5.0001H3.99997C3.73476 5.0001 3.4804 5.10545 3.29287 5.29299C3.10533 5.48053 2.99997 5.73488 2.99997 6.0001C2.99997 6.26531 3.10533 6.51967 3.29287 6.7072C3.4804 6.89474 3.73476 7.0001 3.99997 7.0001H4.37997L5.53997 9.3101C5.02783 9.49706 4.56096 9.79013 4.16997 10.1701C3.79807 10.5416 3.50303 10.9827 3.30173 11.4683C3.10044 11.9539 2.99683 12.4744 2.99683 13.0001C2.99683 13.5258 3.10044 14.0463 3.30173 14.5319C3.50303 15.0174 3.79807 15.4586 4.16997 15.8301C4.84829 16.513 5.75011 16.9284 6.70997 17.0001H6.82997L18.83 18.0001H19C19.4641 18.0024 19.9145 17.8433 20.2742 17.55C20.6338 17.2567 20.8802 16.8474 20.9713 16.3924C21.0623 15.9373 20.9922 15.4647 20.773 15.0556C20.5539 14.6466 20.1993 14.3264 19.77 14.1501ZM6.99997 14.5001C6.7033 14.5001 6.41329 14.4121 6.16662 14.2473C5.91994 14.0825 5.72768 13.8482 5.61415 13.5741C5.50062 13.3 5.47092 12.9984 5.52879 12.7075C5.58667 12.4165 5.72953 12.1492 5.93931 11.9394C6.14909 11.7297 6.41637 11.5868 6.70734 11.5289C6.99831 11.471 7.29991 11.5007 7.574 11.6143C7.84809 11.7278 8.08236 11.9201 8.24718 12.1667C8.412 12.4134 8.49997 12.7034 8.49997 13.0001C8.49997 13.3979 8.34194 13.7795 8.06063 14.0608C7.77933 14.3421 7.3978 14.5001 6.99997 14.5001Z" fill="#141414"/>
</svg>
