<svg width="24" height="24" viewBox="0 0 24 24" fill="none" xmlns="http://www.w3.org/2000/svg">
<path d="M19 9.99997H18.79C19.1515 8.94922 19.0942 7.79957 18.63 6.78997C17.94 5.39997 16.45 4.46997 14.2 3.99997C13.6227 3.82257 13.0811 3.54501 12.6 3.17997L12.51 3.12997C12.4869 3.13455 12.4631 3.13455 12.44 3.12997H12.29H12.17H11.9C11.8534 3.1253 11.8066 3.1253 11.76 3.12997H11.63L11.55 3.17997H11.46C10.9717 3.56297 10.4102 3.84203 9.81 3.99997C7.57 4.41997 6.07 5.33997 5.38 6.71997C4.89795 7.74935 4.83695 8.92628 5.21 9.99997H5C4.46957 9.99997 3.96086 10.2107 3.58579 10.5858C3.21071 10.9608 3 11.4695 3 12V19C3 19.5304 3.21071 20.0391 3.58579 20.4142C3.96086 20.7893 4.46957 21 5 21H10V17C10 16.4695 10.2107 15.9608 10.5858 15.5858C10.9609 15.2107 11.4696 15 12 15C12.5304 15 13.0391 15.2107 13.4142 15.5858C13.7893 15.9608 14 16.4695 14 17V21H19C19.5304 21 20.0391 20.7893 20.4142 20.4142C20.7893 20.0391 21 19.5304 21 19V12C21 11.4695 20.7893 10.9608 20.4142 10.5858C20.0391 10.2107 19.5304 9.99997 19 9.99997Z" fill="#141414"/>
</svg>
