<svg width="24" height="24" viewBox="0 0 24 24" fill="none" xmlns="http://www.w3.org/2000/svg">
<path d="M19 6H12.41L11.29 4.88C10.7279 4.31723 9.96538 4.0007 9.17 4H5C4.20435 4 3.44129 4.31607 2.87868 4.87868C2.31607 5.44129 2 6.20435 2 7V17C2 17.7956 2.31607 18.5587 2.87868 19.1213C3.44129 19.6839 4.20435 20 5 20H19C19.7956 20 20.5587 19.6839 21.1213 19.1213C21.6839 18.5587 22 17.7956 22 17V9C22 8.20435 21.6839 7.44129 21.1213 6.87868C20.5587 6.31607 19.7956 6 19 6ZM16.71 13.71L13.71 16.71C13.5217 16.8983 13.2663 17.0041 13 17.0041C12.7337 17.0041 12.4783 16.8983 12.29 16.71C12.1017 16.5217 11.9959 16.2663 11.9959 16C11.9959 15.7337 12.1017 15.4783 12.29 15.29L13.59 14H8C7.73478 14 7.48043 13.8946 7.29289 13.7071C7.10536 13.5196 7 13.2652 7 13C7 12.7348 7.10536 12.4804 7.29289 12.2929C7.48043 12.1054 7.73478 12 8 12H13.59L12.29 10.71C12.1963 10.617 12.1219 10.5064 12.0711 10.3846C12.0203 10.2627 11.9942 10.132 11.9942 10C11.9942 9.86799 12.0203 9.73728 12.0711 9.61542C12.1219 9.49356 12.1963 9.38296 12.29 9.29C12.383 9.19627 12.4936 9.12188 12.6154 9.07111C12.7373 9.02034 12.868 8.9942 13 8.9942C13.132 8.9942 13.2627 9.02034 13.3846 9.07111C13.5064 9.12188 13.617 9.19627 13.71 9.29L16.71 12.29C16.8037 12.383 16.8781 12.4936 16.9289 12.6154C16.9797 12.7373 17.0058 12.868 17.0058 13C17.0058 13.132 16.9797 13.2627 16.9289 13.3846C16.8781 13.5064 16.8037 13.617 16.71 13.71Z" fill="#141414"/>
</svg>
