<svg width="24" height="24" viewBox="0 0 24 24" fill="none" xmlns="http://www.w3.org/2000/svg">
<path d="M7 15H5C4.73478 15 4.48043 15.1054 4.29289 15.2929C4.10536 15.4804 4 15.7348 4 16V21C4 21.2652 4.10536 21.5196 4.29289 21.7071C4.48043 21.8946 4.73478 22 5 22H7C7.26522 22 7.51957 21.8946 7.70711 21.7071C7.89464 21.5196 8 21.2652 8 21V16C8 15.7348 7.89464 15.4804 7.70711 15.2929C7.51957 15.1054 7.26522 15 7 15ZM13 11H11C10.7348 11 10.4804 11.1054 10.2929 11.2929C10.1054 11.4804 10 11.7348 10 12V21C10 21.2652 10.1054 21.5196 10.2929 21.7071C10.4804 21.8946 10.7348 22 11 22H13C13.2652 22 13.5196 21.8946 13.7071 21.7071C13.8946 21.5196 14 21.2652 14 21V12C14 11.7348 13.8946 11.4804 13.7071 11.2929C13.5196 11.1054 13.2652 11 13 11ZM19 7H17C16.7348 7 16.4804 7.10536 16.2929 7.29289C16.1054 7.48043 16 7.73478 16 8V21C16 21.2652 16.1054 21.5196 16.2929 21.7071C16.4804 21.8946 16.7348 22 17 22H19C19.2652 22 19.5196 21.8946 19.7071 21.7071C19.8946 21.5196 20 21.2652 20 21V8C20 7.73478 19.8946 7.48043 19.7071 7.29289C19.5196 7.10536 19.2652 7 19 7ZM6 9C5.60444 9 5.21776 9.1173 4.88886 9.33706C4.55996 9.55682 4.30362 9.86918 4.15224 10.2346C4.00087 10.6001 3.96126 11.0022 4.03843 11.3902C4.1156 11.7781 4.30608 12.1345 4.58579 12.4142C4.86549 12.6939 5.22186 12.8844 5.60982 12.9616C5.99778 13.0387 6.39992 12.9991 6.76537 12.8478C7.13082 12.6964 7.44318 12.44 7.66294 12.1111C7.8827 11.7822 8 11.3956 8 11C8 10.4696 7.78929 9.96086 7.41421 9.58579C7.03914 9.21071 6.53043 9 6 9Z" fill="#141414"/>
</svg>
