<svg width="24" height="24" viewBox="0 0 24 24" fill="none" xmlns="http://www.w3.org/2000/svg">
<path d="M7.00002 9.99999H17C17.5305 9.99999 18.0392 9.78927 18.4142 9.4142C18.7893 9.03913 19 8.53042 19 7.99999C19 7.46955 18.7893 6.96085 18.4142 6.58577C18.0392 6.2107 17.5305 5.99999 17 5.99999C16.9925 5.1179 16.6936 4.26304 16.1498 3.56845C15.606 2.87386 14.8479 2.3785 13.9934 2.15946C13.1389 1.94042 12.236 2.00998 11.4251 2.35732C10.6143 2.70467 9.94098 3.3103 9.51002 4.07999C9.34509 4.02751 9.1731 4.00054 9.00002 3.99999C8.46959 3.99999 7.96088 4.2107 7.58581 4.58577C7.21074 4.96085 7.00002 5.46955 7.00002 5.99999C6.46959 5.99999 5.96088 6.2107 5.58581 6.58577C5.21074 6.96085 5.00002 7.46955 5.00002 7.99999C5.00002 8.53042 5.21074 9.03913 5.58581 9.4142C5.96088 9.78927 6.46959 9.99999 7.00002 9.99999ZM22 16.51C21.842 15.2457 21.2209 14.0848 20.2567 13.2518C19.2926 12.4188 18.0539 11.9728 16.78 12H7.22002C5.94617 11.9728 4.70746 12.4188 3.74333 13.2518C2.77919 14.0848 2.15807 15.2457 2.00002 16.51C1.90222 17.5522 2.13402 18.5989 2.66273 19.5024C3.19145 20.4059 3.99041 21.1207 4.94697 21.546C5.90354 21.9712 6.96945 22.0855 7.99443 21.8727C9.01941 21.66 9.95176 21.1308 10.66 20.36C10.754 20.2471 10.8718 20.1563 11.0049 20.0941C11.138 20.0319 11.2831 19.9997 11.43 20H12.53C12.6769 19.9997 12.8221 20.0319 12.9552 20.0941C13.0883 20.1563 13.206 20.2471 13.3 20.36C14.0046 21.1477 14.9405 21.6919 15.9736 21.9145C17.0067 22.1371 18.0838 22.0266 19.0502 21.5989C20.0166 21.1713 20.8226 20.4484 21.3526 19.5341C21.8826 18.6198 22.1092 17.5611 22 16.51ZM9.00002 18H8.00002V19C8.00002 19.2652 7.89467 19.5196 7.70713 19.7071C7.51959 19.8946 7.26524 20 7.00002 20C6.73481 20 6.48045 19.8946 6.29292 19.7071C6.10538 19.5196 6.00002 19.2652 6.00002 19V18H5.00002C4.73481 18 4.48045 17.8946 4.29292 17.7071C4.10538 17.5196 4.00002 17.2652 4.00002 17C4.00002 16.7348 4.10538 16.4804 4.29292 16.2929C4.48045 16.1053 4.73481 16 5.00002 16H6.00002V15C6.00002 14.7348 6.10538 14.4804 6.29292 14.2929C6.48045 14.1053 6.73481 14 7.00002 14C7.26524 14 7.51959 14.1053 7.70713 14.2929C7.89467 14.4804 8.00002 14.7348 8.00002 15V16H9.00002C9.26524 16 9.51959 16.1053 9.70713 16.2929C9.89467 16.4804 10 16.7348 10 17C10 17.2652 9.89467 17.5196 9.70713 17.7071C9.51959 17.8946 9.26524 18 9.00002 18ZM17 14C17.1978 14 17.3911 14.0586 17.5556 14.1685C17.72 14.2784 17.8482 14.4346 17.9239 14.6173C17.9996 14.8 18.0194 15.0011 17.9808 15.1951C17.9422 15.3891 17.847 15.5672 17.7071 15.7071C17.5673 15.8469 17.3891 15.9422 17.1951 15.9808C17.0011 16.0194 16.8001 15.9996 16.6173 15.9239C16.4346 15.8482 16.2784 15.72 16.1686 15.5556C16.0587 15.3911 16 15.1978 16 15C16 14.7348 16.1054 14.4804 16.2929 14.2929C16.4805 14.1053 16.7348 14 17 14ZM15 18C14.8022 18 14.6089 17.9413 14.4445 17.8315C14.28 17.7216 14.1518 17.5654 14.0761 17.3827C14.0005 17.1999 13.9807 16.9989 14.0192 16.8049C14.0578 16.6109 14.1531 16.4327 14.2929 16.2929C14.4328 16.153 14.611 16.0578 14.8049 16.0192C14.9989 15.9806 15.2 16.0004 15.3827 16.0761C15.5654 16.1518 15.7216 16.28 15.8315 16.4444C15.9414 16.6089 16 16.8022 16 17C16 17.2652 15.8947 17.5196 15.7071 17.7071C15.5196 17.8946 15.2652 18 15 18ZM17 20C16.8022 20 16.6089 19.9413 16.4445 19.8315C16.28 19.7216 16.1518 19.5654 16.0761 19.3827C16.0005 19.1999 15.9807 18.9989 16.0192 18.8049C16.0578 18.6109 16.1531 18.4327 16.2929 18.2929C16.4328 18.153 16.6109 18.0578 16.8049 18.0192C16.9989 17.9806 17.2 18.0004 17.3827 18.0761C17.5654 18.1518 17.7216 18.28 17.8315 18.4444C17.9414 18.6089 18 18.8022 18 19C18 19.2652 17.8947 19.5196 17.7071 19.7071C17.5196 19.8946 17.2652 20 17 20ZM19 18C18.8022 18 18.6089 17.9413 18.4445 17.8315C18.28 17.7216 18.1518 17.5654 18.0761 17.3827C18.0005 17.1999 17.9807 16.9989 18.0192 16.8049C18.0578 16.6109 18.1531 16.4327 18.2929 16.2929C18.4328 16.153 18.611 16.0578 18.8049 16.0192C18.9989 15.9806 19.2 16.0004 19.3827 16.0761C19.5654 16.1518 19.7216 16.28 19.8315 16.4444C19.9414 16.6089 20 16.8022 20 17C20 17.2652 19.8947 17.5196 19.7071 17.7071C19.5196 17.8946 19.2652 18 19 18Z" fill="#141414"/>
</svg>
