<svg width="24" height="24" viewBox="0 0 24 24" fill="none" xmlns="http://www.w3.org/2000/svg">
<path d="M19.0001 14.9999H5.00008C4.73487 14.9999 4.48051 15.1053 4.29298 15.2928C4.10544 15.4803 4.00008 15.7347 4.00008 15.9999V16.9999C4.00093 17.1646 4.04246 17.3266 4.12096 17.4714C4.19947 17.6162 4.31252 17.7393 4.45008 17.8299L6.69008 19.3299C7.34769 19.7676 8.12016 20.0007 8.91008 19.9999H15.0901C15.88 20.0007 16.6525 19.7676 17.3101 19.3299L19.5501 17.8299C19.6876 17.7393 19.8007 17.6162 19.8792 17.4714C19.9577 17.3266 19.9992 17.1646 20.0001 16.9999V15.9999C20.0001 15.7347 19.8947 15.4803 19.7072 15.2928C19.5197 15.1053 19.2653 14.9999 19.0001 14.9999ZM21.8601 8.26992C21.7574 8.00925 21.601 7.77307 21.4012 7.57668C21.2014 7.38029 20.9625 7.22809 20.7001 7.12992L12.7001 4.12992C12.2487 3.96125 11.7515 3.96125 11.3001 4.12992L3.30008 7.12992C3.03826 7.22812 2.79994 7.38013 2.60051 7.57614C2.40108 7.77216 2.24497 8.00781 2.14225 8.2679C2.03954 8.52798 1.9925 8.80671 2.00419 9.0861C2.01587 9.36549 2.08601 9.63932 2.21008 9.88992L3.21008 11.8899C3.37566 12.2231 3.63091 12.5035 3.94713 12.6996C4.26335 12.8957 4.628 12.9997 5.00008 12.9999H19.0001C19.3722 12.9997 19.7368 12.8957 20.053 12.6996C20.3693 12.5035 20.6245 12.2231 20.7901 11.8899L21.7901 9.88992C21.9142 9.63974 21.9846 9.36635 21.9966 9.08733C22.0087 8.80831 21.9622 8.52987 21.8601 8.26992ZM13.5001 8.49992C13.5001 8.89774 13.342 9.27927 13.0607 9.56058C12.7794 9.84188 12.3979 9.99992 12.0001 9.99992C11.6023 9.99992 11.2207 9.84188 10.9394 9.56058C10.6581 9.27927 10.5001 8.89774 10.5001 8.49992V7.99992C10.5001 7.7347 10.6054 7.48035 10.793 7.29281C10.9805 7.10528 11.2349 6.99992 11.5001 6.99992H12.5001C12.7653 6.99992 13.0197 7.10528 13.2072 7.29281C13.3947 7.48035 13.5001 7.7347 13.5001 7.99992V8.49992Z" fill="#141414"/>
</svg>
