<svg width="24" height="24" viewBox="0 0 24 24" fill="none" xmlns="http://www.w3.org/2000/svg">
<path d="M6 16C5.86839 16.0008 5.73793 15.9755 5.61609 15.9258C5.49426 15.876 5.38344 15.8027 5.29 15.71C5.19627 15.617 5.12188 15.5064 5.07111 15.3846C5.02034 15.2627 4.9942 15.132 4.9942 15C4.9942 14.868 5.02034 14.7373 5.07111 14.6154C5.12188 14.4936 5.19627 14.383 5.29 14.29L6.59 13H2V16C2 16.7956 2.31607 17.5587 2.87868 18.1213C3.44129 18.6839 4.20435 19 5 19H8V14.41L6.71 15.71C6.61656 15.8027 6.50574 15.876 6.38391 15.9258C6.26207 15.9755 6.13161 16.0008 6 16ZM12.71 14.29C12.8037 14.383 12.8781 14.4936 12.9289 14.6154C12.9797 14.7373 13.0058 14.868 13.0058 15C13.0058 15.132 12.9797 15.2627 12.9289 15.3846C12.8781 15.5064 12.8037 15.617 12.71 15.71C12.617 15.8037 12.5064 15.8781 12.3846 15.9289C12.2627 15.9797 12.132 16.0058 12 16.0058C11.868 16.0058 11.7373 15.9797 11.6154 15.9289C11.4936 15.8781 11.383 15.8037 11.29 15.71L10 14.41V19H19C19.7956 19 20.5587 18.6839 21.1213 18.1213C21.6839 17.5587 22 16.7956 22 16V13H11.41L12.71 14.29ZM19 5H10V7.18C10.5326 6.99443 11.1068 6.96277 11.6566 7.08865C12.2063 7.21453 12.7095 7.49284 13.1083 7.89166C13.5072 8.29049 13.7855 8.79366 13.9113 9.34345C14.0372 9.89324 14.0056 10.4674 13.82 11H22V8C22 7.20435 21.6839 6.44129 21.1213 5.87868C20.5587 5.31607 19.7956 5 19 5ZM12 10C12 9.73478 11.8946 9.48043 11.7071 9.29289C11.5196 9.10536 11.2652 9 11 9C10.7348 9 10.4804 9.10536 10.2929 9.29289C10.1054 9.48043 10 9.73478 10 10V11H11C11.2652 11 11.5196 10.8946 11.7071 10.7071C11.8946 10.5196 12 10.2652 12 10ZM2 8V11H4.18C3.99443 10.4674 3.96277 9.89324 4.08865 9.34345C4.21453 8.79366 4.49284 8.29049 4.89166 7.89166C5.29049 7.49284 5.79366 7.21453 6.34345 7.08865C6.89324 6.96277 7.46738 6.99443 8 7.18V5H5C4.20435 5 3.44129 5.31607 2.87868 5.87868C2.31607 6.44129 2 7.20435 2 8ZM7 9C6.73478 9 6.48043 9.10536 6.29289 9.29289C6.10536 9.48043 6 9.73478 6 10C6 10.2652 6.10536 10.5196 6.29289 10.7071C6.48043 10.8946 6.73478 11 7 11H8V10C8 9.73478 7.89464 9.48043 7.70711 9.29289C7.51957 9.10536 7.26522 9 7 9Z" fill="#141414"/>
</svg>
