<svg width="24" height="24" viewBox="0 0 24 24" fill="none" xmlns="http://www.w3.org/2000/svg">
<path d="M12 2C10.0222 2 8.08879 2.58649 6.4443 3.6853C4.79981 4.78412 3.51809 6.3459 2.76121 8.17317C2.00433 10.0004 1.8063 12.0111 2.19215 13.9509C2.578 15.8907 3.53041 17.6725 4.92894 19.0711C6.32746 20.4696 8.10929 21.422 10.0491 21.8079C11.9889 22.1937 13.9996 21.9957 15.8268 21.2388C17.6541 20.4819 19.2159 19.2002 20.3147 17.5557C21.4135 15.9112 22 13.9778 22 12C22 10.6868 21.7413 9.38642 21.2388 8.17317C20.7363 6.95991 19.9997 5.85752 19.0711 4.92893C18.1425 4.00035 17.0401 3.26375 15.8268 2.7612C14.6136 2.25866 13.3132 2 12 2ZM11 19.93C9.06798 19.6866 7.29108 18.7469 6.0024 17.287C4.71373 15.8271 4.00177 13.9473 4 12C4.00337 11.3974 4.0738 10.797 4.21 10.21L9 15V16C9 16.2652 9.10536 16.5196 9.2929 16.7071C9.48043 16.8946 9.73479 17 10 17H11V19.93ZM18.72 16.32C18.6279 16.2207 18.5166 16.1411 18.3928 16.0861C18.2691 16.0311 18.1354 16.0018 18 16H15V13C15 12.7348 14.8946 12.4804 14.7071 12.2929C14.5196 12.1054 14.2652 12 14 12H9V10H11C11.2652 10 11.5196 9.89464 11.7071 9.70711C11.8946 9.51957 12 9.26522 12 9V7H15V4.59C16.4763 5.18719 17.7408 6.2114 18.6315 7.53149C19.5223 8.85159 19.9988 10.4075 20 12C20.0012 13.5336 19.5564 15.0345 18.72 16.32Z" fill="#141414"/>
</svg>
