<svg width="24" height="24" viewBox="0 0 24 24" fill="none" xmlns="http://www.w3.org/2000/svg">
<path d="M10 11C10.89 11 11.7601 10.7361 12.5001 10.2416C13.2401 9.74715 13.8169 9.04434 14.1575 8.22208C14.4981 7.39981 14.5872 6.49501 14.4135 5.6221C14.2399 4.74918 13.8113 3.94736 13.182 3.31802C12.5527 2.68868 11.7508 2.2601 10.8779 2.08647C10.005 1.91283 9.1002 2.00195 8.27794 2.34254C7.45567 2.68314 6.75287 3.25991 6.2584 3.99994C5.76393 4.73996 5.50001 5.60999 5.50001 6.5C5.50265 7.69266 5.97761 8.83572 6.82095 9.67906C7.66429 10.5224 8.80735 10.9974 10 11ZM18 12C18.5934 12 19.1734 11.8241 19.6667 11.4944C20.1601 11.1648 20.5446 10.6962 20.7717 10.1481C20.9987 9.59987 21.0581 8.99667 20.9424 8.41473C20.8266 7.83279 20.5409 7.29824 20.1213 6.87868C19.7018 6.45912 19.1672 6.1734 18.5853 6.05765C18.0033 5.94189 17.4001 6.0013 16.852 6.22836C16.3038 6.45543 15.8352 6.83994 15.5056 7.33329C15.176 7.82664 15 8.40666 15 9C15 9.79565 15.3161 10.5587 15.8787 11.1213C16.4413 11.6839 17.2044 12 18 12ZM18 13C17.0174 12.9941 16.067 13.35 15.33 14C14.1765 12.9694 12.7489 12.2953 11.2201 12.0594C9.69131 11.8234 8.12691 12.0358 6.71634 12.6707C5.30576 13.3056 4.10952 14.3359 3.27245 15.6367C2.43538 16.9375 1.99339 18.4531 2.00001 20C2.00001 20.5304 2.21073 21.0391 2.5858 21.4142C2.96087 21.7893 3.46958 22 4.00001 22H16C16.5304 22 17.0392 21.7893 17.4142 21.4142C17.7893 21.0391 18 20.5304 18 20C17.9969 19.6656 17.9736 19.3316 17.93 19H20C20.5304 19 21.0392 18.7893 21.4142 18.4142C21.7893 18.0391 22 17.5304 22 17C22 15.9391 21.5786 14.9217 20.8284 14.1716C20.0783 13.4214 19.0609 13 18 13Z" fill="#141414"/>
</svg>
