<svg width="24" height="24" viewBox="0 0 24 24" fill="none" xmlns="http://www.w3.org/2000/svg">
<path d="M21 9C20.7348 9 20.4804 9.10536 20.2929 9.29289C20.1054 9.48043 20 9.73478 20 10H16.46C15.5555 8.99086 14.3359 8.31765 13 8.09V6H14C14.2652 6 14.5196 5.89464 14.7071 5.70711C14.8946 5.51957 15 5.26522 15 5C15 4.73478 14.8946 4.48043 14.7071 4.29289C14.5196 4.10536 14.2652 4 14 4H10C9.73478 4 9.48043 4.10536 9.29289 4.29289C9.10536 4.48043 9 4.73478 9 5C9 5.26522 9.10536 5.51957 9.29289 5.70711C9.48043 5.89464 9.73478 6 10 6H11V8.09C9.66406 8.31765 8.44453 8.99086 7.54 10H4C4 9.73478 3.89464 9.48043 3.70711 9.29289C3.51957 9.10536 3.26522 9 3 9C2.73478 9 2.48043 9.10536 2.29289 9.29289C2.10536 9.48043 2 9.73478 2 10V18C2 18.2652 2.10536 18.5196 2.29289 18.7071C2.48043 18.8946 2.73478 19 3 19C3.26522 19 3.51957 18.8946 3.70711 18.7071C3.89464 18.5196 4 18.2652 4 18H7.54C8.10264 18.6252 8.79046 19.1252 9.55881 19.4674C10.3272 19.8096 11.1589 19.9865 12 19.9865C12.8411 19.9865 13.6728 19.8096 14.4412 19.4674C15.2095 19.1252 15.8974 18.6252 16.46 18H20C20 18.2652 20.1054 18.5196 20.2929 18.7071C20.4804 18.8946 20.7348 19 21 19C21.2652 19 21.5196 18.8946 21.7071 18.7071C21.8946 18.5196 22 18.2652 22 18V10C22 9.73478 21.8946 9.48043 21.7071 9.29289C21.5196 9.10536 21.2652 9 21 9ZM12 15.5C11.6022 15.5 11.2206 15.342 10.9393 15.0607C10.658 14.7794 10.5 14.3978 10.5 14C10.5 14 10.5 13.95 10.5 13.92L9.29 12.71C9.1017 12.5217 8.99591 12.2663 8.99591 12C8.99591 11.7337 9.1017 11.4783 9.29 11.29C9.4783 11.1017 9.7337 10.9959 10 10.9959C10.2663 10.9959 10.5217 11.1017 10.71 11.29L11.92 12.51H12C12.3978 12.51 12.7794 12.668 13.0607 12.9493C13.342 13.2306 13.5 13.6122 13.5 14.01C13.5 14.4078 13.342 14.7894 13.0607 15.0707C12.7794 15.352 12.3978 15.51 12 15.51V15.5Z" fill="#141414"/>
</svg>
