<svg width="24" height="24" viewBox="0 0 24 24" fill="none" xmlns="http://www.w3.org/2000/svg">
<path d="M12 10.0002C10.8133 10.0002 9.65328 10.3521 8.66659 11.0113C7.67989 11.6706 6.91086 12.6077 6.45673 13.7041C6.00261 14.8004 5.88379 16.0068 6.1153 17.1707C6.34681 18.3346 6.91825 19.4037 7.75737 20.2428C8.59648 21.0819 9.66558 21.6534 10.8295 21.8849C11.9934 22.1164 13.1998 21.9976 14.2961 21.5434C15.3925 21.0893 16.3295 20.3203 16.9888 19.3336C17.6481 18.3469 18 17.1869 18 16.0002C18 14.4089 17.3679 12.8827 16.2427 11.7575C15.1174 10.6323 13.5913 10.0002 12 10.0002ZM12 20.0002C11.4767 19.9781 10.9807 19.7603 10.6103 19.3899C10.2399 19.0195 10.0221 18.5235 10 18.0002C10.0115 17.6818 10.0885 17.3692 10.2262 17.0819C10.3638 16.7946 10.5591 16.5387 10.8 16.3302C10.9257 16.2437 11.0325 16.1325 11.1137 16.0034C11.1949 15.8742 11.2488 15.7298 11.2722 15.5791C11.2957 15.4283 11.288 15.2744 11.2498 15.1267C11.2116 14.979 11.1436 14.8406 11.05 14.7202C11.0036 14.6264 10.9877 14.5204 11.0046 14.4172C11.0216 14.314 11.0705 14.2186 11.1445 14.1446C11.2185 14.0707 11.3138 14.0217 11.417 14.0048C11.5203 13.9878 11.6263 14.0037 11.72 14.0502C12.4218 14.4408 13.0044 15.0144 13.4059 15.71C13.8075 16.4056 14.0128 17.1971 14 18.0002C13.9779 18.5235 13.7601 19.0195 13.3897 19.3899C13.0193 19.7603 12.5234 19.9781 12 20.0002ZM9.61001 8.82016C10.3006 8.30559 11.1388 8.02764 12 8.02764C12.8612 8.02764 13.6994 8.30559 14.39 8.82016C14.6009 8.98195 14.8673 9.05334 15.1308 9.01865C15.3943 8.98396 15.6332 8.84601 15.795 8.63517C15.9568 8.42432 16.0282 8.15784 15.9935 7.89435C15.9588 7.63086 15.8209 7.39195 15.61 7.23017C14.5696 6.44649 13.3025 6.02265 12 6.02265C10.6975 6.02265 9.43038 6.44649 8.39001 7.23017C8.28561 7.31027 8.19801 7.41016 8.13221 7.52412C8.06641 7.63808 8.0237 7.76388 8.00652 7.89435C7.98934 8.02482 7.99803 8.15739 8.03209 8.2845C8.06614 8.41161 8.1249 8.53076 8.20501 8.63517C8.36679 8.84601 8.60571 8.98396 8.86919 9.01865C8.99966 9.03583 9.13223 9.02714 9.25934 8.99309C9.38645 8.95903 9.50561 8.90027 9.61001 8.82016ZM18.67 4.56016C16.8362 2.91847 14.4613 2.01074 12 2.01074C9.53869 2.01074 7.16383 2.91847 5.33001 4.56016C5.13242 4.73786 5.01352 4.98677 4.99945 5.25213C4.98539 5.5175 5.07731 5.77758 5.25501 5.97516C5.4327 6.17275 5.68161 6.29166 5.94698 6.30572C6.21234 6.31979 6.47242 6.22786 6.67001 6.05017C8.13632 4.74013 10.0337 4.01599 12 4.01599C13.9663 4.01599 15.8637 4.74013 17.33 6.05017C17.5149 6.21323 17.7535 6.30227 18 6.30017C18.1373 6.30367 18.2739 6.27885 18.4013 6.22723C18.5286 6.17562 18.6439 6.09832 18.74 6.00016C18.8324 5.90226 18.9041 5.7867 18.9507 5.66041C18.9974 5.53413 19.0181 5.39973 19.0116 5.26526C19.005 5.1308 18.9714 4.99903 18.9127 4.87787C18.854 4.75671 18.7715 4.64865 18.67 4.56016Z" fill="#141414"/>
</svg>
