<svg width="24" height="24" viewBox="0 0 24 24" fill="none" xmlns="http://www.w3.org/2000/svg">
<path d="M5 18C5 18.7956 5.31607 19.5587 5.87868 20.1213C6.44129 20.6839 7.20435 21 8 21H11V13H5V18ZM20 7H18.82C18.9797 6.54818 19.0289 6.06466 18.9634 5.58993C18.8979 5.11519 18.7196 4.66306 18.4435 4.27138C18.1674 3.8797 17.8014 3.55988 17.3763 3.33868C16.9512 3.11748 16.4792 3.00135 16 3H14C13.2599 3.00441 12.5476 3.28221 12 3.78C11.4524 3.28221 10.7401 3.00441 10 3H8C7.52077 3.00135 7.04884 3.11748 6.62371 3.33868C6.19858 3.55988 5.83263 3.8797 5.5565 4.27138C5.28037 4.66306 5.10208 5.11519 5.03658 5.58993C4.97108 6.06466 5.02025 6.54818 5.18 7H4C3.73478 7 3.48043 7.10536 3.29289 7.29289C3.10536 7.48043 3 7.73478 3 8V10C3 10.2652 3.10536 10.5196 3.29289 10.7071C3.48043 10.8946 3.73478 11 4 11H20C20.2652 11 20.5196 10.8946 20.7071 10.7071C20.8946 10.5196 21 10.2652 21 10V8C21 7.73478 20.8946 7.48043 20.7071 7.29289C20.5196 7.10536 20.2652 7 20 7ZM11 7H8C7.73478 7 7.48043 6.89464 7.29289 6.70711C7.10536 6.51957 7 6.26522 7 6C7 5.73478 7.10536 5.48043 7.29289 5.29289C7.48043 5.10536 7.73478 5 8 5H10C10.2652 5 10.5196 5.10536 10.7071 5.29289C10.8946 5.48043 11 5.73478 11 6V7ZM16 7H13V6C13 5.73478 13.1054 5.48043 13.2929 5.29289C13.4804 5.10536 13.7348 5 14 5H16C16.2652 5 16.5196 5.10536 16.7071 5.29289C16.8946 5.48043 17 5.73478 17 6C17 6.26522 16.8946 6.51957 16.7071 6.70711C16.5196 6.89464 16.2652 7 16 7ZM13 21H16C16.7956 21 17.5587 20.6839 18.1213 20.1213C18.6839 19.5587 19 18.7956 19 18V13H13V21Z" fill="#141414"/>
</svg>
