<svg width="24" height="24" viewBox="0 0 24 24" fill="none" xmlns="http://www.w3.org/2000/svg">
<path d="M11.9999 7.00015C10.276 7.00015 8.62272 7.68497 7.40374 8.90396C6.18475 10.1229 5.49993 11.7762 5.49993 13.5002V14.0002H9.55993C9.69254 13.9736 9.83025 14.0009 9.94277 14.0759C10.0553 14.1509 10.1334 14.2675 10.1599 14.4002C10.1865 14.5328 10.1592 14.6705 10.0842 14.783C10.0092 14.8955 9.89254 14.9736 9.75993 15.0002L5.49993 16.7902V19.4902C5.49939 19.7957 5.56887 20.0973 5.70301 20.3718C5.83716 20.6463 6.03242 20.8864 6.2738 21.0737C6.51518 21.261 6.79626 21.3906 7.09548 21.4523C7.3947 21.5141 7.7041 21.5065 7.99993 21.4302L16.2199 19.5402C16.8829 19.3882 17.4746 19.0155 17.898 18.4832C18.3214 17.9508 18.5512 17.2903 18.5499 16.6102V13.5002C18.55 12.6423 18.3802 11.793 18.0504 11.0011C17.7206 10.2092 17.2374 9.49043 16.6285 8.88619C16.0196 8.28195 15.2971 7.80421 14.5027 7.48051C13.7083 7.15681 12.8577 6.99356 11.9999 7.00015ZM21.8399 10.2602C21.4585 8.18609 20.4311 6.28569 18.9047 4.83062C17.3783 3.37555 15.4309 2.44028 13.341 2.15852C11.251 1.87676 9.12551 2.26291 7.26823 3.2618C5.41096 4.26068 3.91701 5.82115 2.99993 7.72015C2.88263 7.92925 2.84436 8.17352 2.89208 8.40847C2.93981 8.64341 3.07035 8.8534 3.25993 9.00015L3.83993 9.45015C3.95013 9.53403 4.07656 9.5941 4.21119 9.62655C4.34583 9.65901 4.48573 9.66315 4.62205 9.63871C4.75837 9.61426 4.88812 9.56177 5.00309 9.48456C5.11806 9.40735 5.21573 9.30709 5.28993 9.19015C6.0896 7.95148 7.21602 6.95788 8.54482 6.31906C9.87362 5.68025 11.3531 5.42108 12.8199 5.57015C14.5261 5.76885 16.1246 6.50612 17.3833 7.67495C18.6421 8.84377 19.4956 10.3833 19.8199 12.0702C20.0149 13.3705 20.0752 14.6875 19.9999 16.0002C20.4682 15.8273 20.8833 15.5353 21.2042 15.153C21.5251 14.7707 21.7408 14.3113 21.8299 13.8202C22.0536 12.6443 22.0569 11.4372 21.8399 10.2602Z" fill="#141414"/>
</svg>
