<svg width="24" height="24" viewBox="0 0 24 24" fill="none" xmlns="http://www.w3.org/2000/svg">
<path d="M8.4 9.21982C8.29494 9.29861 8.20643 9.39733 8.13953 9.51032C8.07262 9.62332 8.02862 9.74839 8.01005 9.8784C7.99148 10.0084 7.99869 10.1408 8.03129 10.268C8.06388 10.3952 8.12121 10.5148 8.2 10.6198C8.27879 10.7249 8.37751 10.8134 8.49051 10.8803C8.60351 10.9472 8.72858 10.9912 8.85858 11.0098C8.98858 11.0283 9.12097 11.0211 9.24818 10.9885C9.37539 10.9559 9.49494 10.8986 9.6 10.8198C10.2924 10.3005 11.1345 10.0198 12 10.0198C12.8655 10.0198 13.7076 10.3005 14.4 10.8198C14.5731 10.9496 14.7836 11.0198 15 11.0198C15.1552 11.0198 15.3084 10.9837 15.4472 10.9142C15.5861 10.8448 15.7069 10.744 15.8 10.6198C15.8788 10.5148 15.9361 10.3952 15.9687 10.268C16.0013 10.1408 16.0085 10.0084 15.9899 9.8784C15.9714 9.74839 15.9274 9.62332 15.8605 9.51032C15.7936 9.39733 15.7051 9.29861 15.6 9.21982C14.5614 8.44089 13.2982 8.01982 12 8.01982C10.7018 8.01982 9.43858 8.44089 8.4 9.21982ZM5.78 8.99982C6.52995 8.07265 7.47769 7.32486 8.55388 6.81117C9.63007 6.29748 10.8075 6.03088 12 6.03088C13.1925 6.03088 14.3699 6.29748 15.4461 6.81117C16.5223 7.32486 17.4701 8.07265 18.22 8.99982C18.3141 9.11584 18.433 9.2093 18.568 9.27333C18.703 9.33736 18.8506 9.37033 19 9.36982C19.1892 9.37046 19.3748 9.3174 19.535 9.2168C19.6953 9.11619 19.8238 8.97217 19.9055 8.80148C19.9871 8.63078 20.0187 8.4404 19.9965 8.25248C19.9743 8.06455 19.8992 7.88678 19.78 7.73982C18.8426 6.57906 17.6574 5.64276 16.3112 4.99953C14.965 4.35631 13.492 4.02246 12 4.02246C10.508 4.02246 9.03496 4.35631 7.68876 4.99953C6.34256 5.64276 5.15735 6.57906 4.22 7.73982C4.05291 7.94669 3.97485 8.21146 4.00298 8.47588C4.03111 8.74031 4.16313 8.98273 4.37 9.14982C4.57687 9.3169 4.84164 9.39497 5.10607 9.36684C5.37049 9.33871 5.61291 9.20669 5.78 8.99982ZM21.12 12.8998C20.8433 12.6175 20.5136 12.3927 20.1498 12.2383C19.786 12.0838 19.3952 12.0028 19 11.9998H5C4.20435 11.9998 3.44129 12.3159 2.87868 12.8785C2.31607 13.4411 2 14.2042 2 14.9998V16.9998C2 17.7955 2.31607 18.5585 2.87868 19.1211C3.44129 19.6837 4.20435 19.9998 5 19.9998H19C19.7956 19.9998 20.5587 19.6837 21.1213 19.1211C21.6839 18.5585 22 17.7955 22 16.9998V14.9998C21.9993 14.2044 21.6828 13.4419 21.12 12.8798V12.8998ZM9 16.9998H6C5.73478 16.9998 5.48043 16.8945 5.29289 16.7069C5.10536 16.5194 5 16.265 5 15.9998C5 15.7346 5.10536 15.4802 5.29289 15.2927C5.48043 15.1052 5.73478 14.9998 6 14.9998H9C9.26522 14.9998 9.51957 15.1052 9.70711 15.2927C9.89464 15.4802 10 15.7346 10 15.9998C10 16.265 9.89464 16.5194 9.70711 16.7069C9.51957 16.8945 9.26522 16.9998 9 16.9998ZM13 16.9998C12.8022 16.9998 12.6089 16.9412 12.4444 16.8313C12.28 16.7214 12.1518 16.5652 12.0761 16.3825C12.0004 16.1998 11.9806 15.9987 12.0192 15.8047C12.0578 15.6107 12.153 15.4326 12.2929 15.2927C12.4327 15.1529 12.6109 15.0576 12.8049 15.019C12.9989 14.9804 13.2 15.0003 13.3827 15.0759C13.5654 15.1516 13.7216 15.2798 13.8315 15.4442C13.9414 15.6087 14 15.802 14 15.9998C14 16.265 13.8946 16.5194 13.7071 16.7069C13.5196 16.8945 13.2652 16.9998 13 16.9998ZM17 16.9998C16.8022 16.9998 16.6089 16.9412 16.4444 16.8313C16.28 16.7214 16.1518 16.5652 16.0761 16.3825C16.0004 16.1998 15.9806 15.9987 16.0192 15.8047C16.0578 15.6107 16.153 15.4326 16.2929 15.2927C16.4327 15.1529 16.6109 15.0576 16.8049 15.019C16.9989 14.9804 17.2 15.0003 17.3827 15.0759C17.5654 15.1516 17.7216 15.2798 17.8315 15.4442C17.9414 15.6087 18 15.802 18 15.9998C18 16.265 17.8946 16.5194 17.7071 16.7069C17.5196 16.8945 17.2652 16.9998 17 16.9998Z" fill="#141414"/>
</svg>
