<svg width="24" height="24" viewBox="0 0 24 24" fill="none" xmlns="http://www.w3.org/2000/svg">
<path d="M18.71 11.71C18.617 11.8037 18.5064 11.8781 18.3846 11.9289C18.2627 11.9797 18.132 12.0058 18 12.0058C17.868 12.0058 17.7373 11.9797 17.6154 11.9289C17.4936 11.8781 17.383 11.8037 17.29 11.71L16 10.41L14.71 11.71C14.617 11.8037 14.5064 11.8781 14.3846 11.9289C14.2627 11.9797 14.132 12.0058 14 12.0058C13.868 12.0058 13.7373 11.9797 13.6154 11.9289C13.4936 11.8781 13.383 11.8037 13.29 11.71L12 10.41L10.71 11.71C10.617 11.8037 10.5064 11.8781 10.3846 11.9289C10.2627 11.9797 10.132 12.0058 10 12.0058C9.86799 12.0058 9.73728 11.9797 9.61542 11.9289C9.49356 11.8781 9.38296 11.8037 9.29 11.71L8 10.41L6.71 11.71C6.61704 11.8037 6.50644 11.8781 6.38458 11.9289C6.26272 11.9797 6.13201 12.0058 6 12.0058C5.86799 12.0058 5.73728 11.9797 5.61542 11.9289C5.49356 11.8781 5.38296 11.8037 5.29 11.71L4 10.41V20C4 20.5304 4.21071 21.0391 4.58579 21.4142C4.96086 21.7893 5.46957 22 6 22H18C18.5304 22 19.0391 21.7893 19.4142 21.4142C19.7893 21.0391 20 20.5304 20 20V10.41L18.71 11.71ZM16.71 8.29L18 9.59L19 8.59V3C19 2.73478 18.8946 2.48043 18.7071 2.29289C18.5196 2.10536 18.2652 2 18 2H16C15.7348 2 15.4804 2.10536 15.2929 2.29289C15.1054 2.48043 15 2.73478 15 3V8.59L15.29 8.29C15.383 8.19627 15.4936 8.12188 15.6154 8.07111C15.7373 8.02034 15.868 7.9942 16 7.9942C16.132 7.9942 16.2627 8.02034 16.3846 8.07111C16.5064 8.12188 16.617 8.19627 16.71 8.29ZM7.29 8.29C7.38296 8.19627 7.49356 8.12188 7.61542 8.07111C7.73728 8.02034 7.86799 7.9942 8 7.9942C8.13201 7.9942 8.26272 8.02034 8.38458 8.07111C8.50644 8.12188 8.61704 8.19627 8.71 8.29L10 9.59L11.29 8.29C11.383 8.19627 11.4936 8.12188 11.6154 8.07111C11.7373 8.02034 11.868 7.9942 12 7.9942C12.132 7.9942 12.2627 8.02034 12.3846 8.07111C12.5064 8.12188 12.617 8.19627 12.71 8.29L13 8.59V6C13 4.93913 12.5786 3.92172 11.8284 3.17157C11.0783 2.42143 10.0609 2 9 2C7.93913 2 6.92172 2.42143 6.17157 3.17157C5.42143 3.92172 5 4.93913 5 6V8.59L6 9.59L7.29 8.29Z" fill="#141414"/>
</svg>
