<svg width="24" height="24" viewBox="0 0 24 24" fill="none" xmlns="http://www.w3.org/2000/svg">
<path d="M7 21.0001H17V19.0001H7V21.0001ZM7 17.0001H17V15.0001H7V17.0001ZM7 13.0001H17V11.0001H7V13.0001ZM20.06 7.6801L13.06 3.3001C12.7421 3.10143 12.3748 2.99609 12 2.99609C11.6252 2.99609 11.2579 3.10143 10.94 3.3001L3.94 7.6801C3.65178 7.86024 3.41422 8.11086 3.24975 8.40831C3.08528 8.70576 2.99932 9.04021 3 9.3801V19.0001C3 19.5305 3.21072 20.0392 3.58579 20.4143C3.96086 20.7894 4.46957 21.0001 5 21.0001V10.5001C5 10.1023 5.15804 9.72074 5.43934 9.43944C5.72065 9.15813 6.10218 9.0001 6.5 9.0001H17.5C17.8978 9.0001 18.2794 9.15813 18.5607 9.43944C18.842 9.72074 19 10.1023 19 10.5001V21.0001C19.5304 21.0001 20.0391 20.7894 20.4142 20.4143C20.7893 20.0392 21 19.5305 21 19.0001V9.3801C21.0007 9.04021 20.9147 8.70576 20.7503 8.40831C20.5858 8.11086 20.3482 7.86024 20.06 7.6801Z" fill="#141414"/>
</svg>
