<svg width="24" height="24" viewBox="0 0 24 24" fill="none" xmlns="http://www.w3.org/2000/svg">
<path d="M12 2C9.87828 2 7.84345 2.84285 6.34316 4.34315C4.84287 5.84344 4.00001 7.87827 4.00001 10V19.82C3.99837 19.9495 4.02351 20.0779 4.07384 20.1973C4.12417 20.3166 4.19862 20.4242 4.29251 20.5134C4.38641 20.6026 4.49772 20.6715 4.61947 20.7156C4.74121 20.7598 4.87077 20.7783 5.00001 20.77C5.14256 20.7721 5.28348 20.7395 5.41064 20.675C5.53781 20.6106 5.64741 20.5162 5.73001 20.4L5.97001 20.09C6.05982 19.9791 6.17232 19.8887 6.29996 19.8249C6.42759 19.7611 6.56741 19.7253 6.71001 19.72C6.8621 19.7202 7.01183 19.7576 7.14607 19.8291C7.28031 19.9006 7.39498 20.0039 7.48001 20.13L8.48001 21.55C8.5711 21.6747 8.68982 21.7766 8.82688 21.8477C8.96395 21.9189 9.11562 21.9573 9.27002 21.96C9.41033 21.9612 9.54906 21.9303 9.67558 21.8696C9.80211 21.8089 9.91308 21.7201 10 21.61L11.3 20.03C11.3874 19.9211 11.4988 19.8338 11.6254 19.7749C11.7519 19.7159 11.8904 19.6869 12.03 19.69C12.1794 19.6915 12.3262 19.7286 12.4584 19.7981C12.5905 19.8677 12.7042 19.9677 12.79 20.09L13.79 21.56C13.8762 21.6842 13.9913 21.7856 14.1255 21.8553C14.2597 21.925 14.4088 21.9609 14.56 21.96C14.7003 21.9612 14.8391 21.9303 14.9656 21.8696C15.0921 21.8089 15.2031 21.7201 15.29 21.61L16.55 20C16.6406 19.894 16.7523 19.8081 16.878 19.7478C17.0037 19.6875 17.1407 19.6542 17.28 19.65C17.424 19.648 17.5663 19.6805 17.6951 19.7449C17.8238 19.8093 17.9353 19.9036 18.02 20.02L18.31 20.4C18.3953 20.5158 18.5069 20.6096 18.6355 20.674C18.7642 20.7383 18.9062 20.7712 19.05 20.77C19.1751 20.7713 19.2993 20.7477 19.4151 20.7004C19.531 20.6531 19.6363 20.5832 19.7247 20.4947C19.8132 20.4062 19.8832 20.301 19.9304 20.1851C19.9777 20.0693 20.0014 19.9451 20 19.82V10C20 7.87827 19.1572 5.84344 17.6569 4.34315C16.1566 2.84285 14.1217 2 12 2ZM8.71001 12.16C8.21316 12.162 7.7269 12.0165 7.31282 11.7419C6.89874 11.4673 6.57547 11.0759 6.38396 10.6175C6.19245 10.159 6.14131 9.65403 6.23703 9.16648C6.33275 8.67893 6.57101 8.23076 6.92164 7.87873C7.27227 7.5267 7.71949 7.28665 8.20665 7.18899C8.69381 7.09132 9.199 7.14044 9.65823 7.33012C10.1175 7.5198 10.5101 7.8415 10.7863 8.25449C11.0625 8.66747 11.21 9.15314 11.21 9.65C11.21 10.314 10.9469 10.9509 10.4784 11.4213C10.0098 11.8917 9.37397 12.1574 8.71001 12.16ZM15.28 12.16C14.7832 12.162 14.2969 12.0165 13.8828 11.7419C13.4687 11.4673 13.1455 11.0759 12.954 10.6175C12.7624 10.159 12.7113 9.65403 12.807 9.16648C12.9027 8.67893 13.141 8.23076 13.4916 7.87873C13.8423 7.5267 14.2895 7.28665 14.7766 7.18899C15.2638 7.09132 15.769 7.14044 16.2282 7.33012C16.6875 7.5198 17.0801 7.8415 17.3563 8.25449C17.6325 8.66747 17.78 9.15314 17.78 9.65C17.78 10.314 17.5169 10.9509 17.0484 11.4213C16.5798 11.8917 15.944 12.1574 15.28 12.16Z" fill="#141414"/>
</svg>
