<svg width="24" height="24" viewBox="0 0 24 24" fill="none" xmlns="http://www.w3.org/2000/svg">
<path d="M19 12.0002C18.7348 12.0002 18.4804 12.1055 18.2929 12.2931C18.1054 12.4806 18 12.7349 18 13.0002C17.9969 14.1674 17.6533 15.3084 17.0114 16.2833C16.3696 17.2583 15.4573 18.0248 14.3863 18.4891C13.3154 18.9533 12.1323 19.0951 10.9819 18.897C9.8316 18.6989 8.76403 18.1696 7.91 17.374C7.05596 16.5783 6.45257 15.5508 6.17373 14.4173C5.89489 13.2839 5.95272 12.0937 6.34014 10.9926C6.72755 9.89151 7.42772 8.92733 8.35487 8.2182C9.28202 7.50907 10.3959 7.08577 11.56 7.00017L11.29 7.27017C11.1963 7.36313 11.1219 7.47373 11.0711 7.59559C11.0203 7.71745 10.9942 7.84815 10.9942 7.98017C10.9942 8.11218 11.0203 8.24288 11.0711 8.36474C11.1219 8.4866 11.1963 8.5972 11.29 8.69017C11.383 8.78389 11.4936 8.85829 11.6154 8.90906C11.7373 8.95983 11.868 8.98596 12 8.98596C12.132 8.98596 12.2627 8.95983 12.3846 8.90906C12.5064 8.85829 12.617 8.78389 12.71 8.69017L14.71 6.69017C14.8037 6.5972 14.8781 6.4866 14.9289 6.36474C14.9797 6.24288 15.0058 6.11218 15.0058 5.98017C15.0058 5.84815 14.9797 5.71745 14.9289 5.59559C14.8781 5.47373 14.8037 5.36313 14.71 5.27017L12.71 3.27017C12.6168 3.17693 12.5061 3.10297 12.3842 3.05251C12.2624 3.00205 12.1319 2.97607 12 2.97607C11.8681 2.97607 11.7376 3.00205 11.6157 3.05251C11.4939 3.10297 11.3832 3.17693 11.29 3.27017C11.1017 3.45847 10.9959 3.71386 10.9959 3.98017C10.9959 4.24647 11.1017 4.50186 11.29 4.69017L11.61 5.00017C10.0466 5.07647 8.53998 5.60972 7.27668 6.53386C6.01338 7.458 5.04893 8.73243 4.50278 10.1993C3.95664 11.6662 3.8528 13.261 4.20413 14.7863C4.55545 16.3116 5.34651 17.7003 6.47932 18.7805C7.61212 19.8606 9.0369 20.5847 10.5772 20.8631C12.1175 21.1415 13.7056 20.9619 15.1448 20.3466C16.584 19.7313 17.8111 18.7074 18.6741 17.4015C19.5372 16.0957 19.9981 14.5654 20 13.0002C20 12.7349 19.8946 12.4806 19.7071 12.2931C19.5196 12.1055 19.2652 12.0002 19 12.0002Z" fill="#141414"/>
</svg>
