<svg width="24" height="24" viewBox="0 0 24 24" fill="none" xmlns="http://www.w3.org/2000/svg">
<path d="M21.12 12.8798C20.5579 12.3171 19.7954 12.0005 19 11.9998V8.99984C19 8.73463 18.8946 8.48027 18.7071 8.29274C18.5196 8.1052 18.2652 7.99984 18 7.99984C17.7348 7.99984 17.4804 8.1052 17.2929 8.29274C17.1054 8.48027 17 8.73463 17 8.99984V11.9998H7V8.99984C7 8.73463 6.89464 8.48027 6.70711 8.29274C6.51957 8.1052 6.26522 7.99984 6 7.99984C5.73478 7.99984 5.48043 8.1052 5.29289 8.29274C5.10536 8.48027 5 8.73463 5 8.99984V11.9998C4.20435 11.9998 3.44129 12.3159 2.87868 12.8785C2.31607 13.4411 2 14.2042 2 14.9998V16.9998C2 17.7955 2.31607 18.5586 2.87868 19.1212C3.44129 19.6838 4.20435 19.9998 5 19.9998H19C19.7956 19.9998 20.5587 19.6838 21.1213 19.1212C21.6839 18.5586 22 17.7955 22 16.9998V14.9998C21.9993 14.2045 21.6828 13.4419 21.12 12.8798ZM9 16.9998H6C5.73478 16.9998 5.48043 16.8945 5.29289 16.7069C5.10536 16.5194 5 16.2651 5 15.9998C5 15.7346 5.10536 15.4803 5.29289 15.2927C5.48043 15.1052 5.73478 14.9998 6 14.9998H9C9.26522 14.9998 9.51957 15.1052 9.70711 15.2927C9.89464 15.4803 10 15.7346 10 15.9998C10 16.2651 9.89464 16.5194 9.70711 16.7069C9.51957 16.8945 9.26522 16.9998 9 16.9998ZM13 16.9998C12.8022 16.9998 12.6089 16.9412 12.4444 16.8313C12.28 16.7214 12.1518 16.5653 12.0761 16.3825C12.0004 16.1998 11.9806 15.9987 12.0192 15.8048C12.0578 15.6108 12.153 15.4326 12.2929 15.2927C12.4327 15.1529 12.6109 15.0576 12.8049 15.0191C12.9989 14.9805 13.2 15.0003 13.3827 15.076C13.5654 15.1516 13.7216 15.2798 13.8315 15.4443C13.9414 15.6087 14 15.8021 14 15.9998C14 16.2651 13.8946 16.5194 13.7071 16.7069C13.5196 16.8945 13.2652 16.9998 13 16.9998ZM17 16.9998C16.8022 16.9998 16.6089 16.9412 16.4444 16.8313C16.28 16.7214 16.1518 16.5653 16.0761 16.3825C16.0004 16.1998 15.9806 15.9987 16.0192 15.8048C16.0578 15.6108 16.153 15.4326 16.2929 15.2927C16.4327 15.1529 16.6109 15.0576 16.8049 15.0191C16.9989 14.9805 17.2 15.0003 17.3827 15.076C17.5654 15.1516 17.7216 15.2798 17.8315 15.4443C17.9414 15.6087 18 15.8021 18 15.9998C18 16.2651 17.8946 16.5194 17.7071 16.7069C17.5196 16.8945 17.2652 16.9998 17 16.9998ZM8.36 6.88984C9.48526 6.30846 10.7334 6.00507 12 6.00507C13.2666 6.00507 14.5147 6.30846 15.64 6.88984C15.7793 6.96123 15.9335 6.9989 16.09 6.99984C16.3148 7.00075 16.5333 6.92591 16.7103 6.78738C16.8873 6.64886 17.0125 6.45474 17.0657 6.23633C17.1188 6.01793 17.0969 5.78799 17.0033 5.58361C16.9097 5.37923 16.7501 5.21233 16.55 5.10984C15.1427 4.38531 13.5828 4.00732 12 4.00732C10.4172 4.00732 8.85725 4.38531 7.45 5.10984C7.22202 5.23504 7.05178 5.44413 6.97542 5.69276C6.89905 5.94139 6.92255 6.20999 7.04095 6.44158C7.15934 6.67316 7.36331 6.84951 7.60957 6.9332C7.85583 7.01689 8.12501 7.00133 8.36 6.88984ZM9.59 8.52984C9.34733 8.63858 9.15779 8.83927 9.06308 9.08775C8.96838 9.33624 8.97626 9.61217 9.085 9.85484C9.19374 10.0975 9.39443 10.2871 9.64291 10.3818C9.8914 10.4765 10.1673 10.4686 10.41 10.3598C10.9065 10.1228 11.4498 9.99971 12 9.99971C12.5502 9.99971 13.0935 10.1228 13.59 10.3598C13.7188 10.4185 13.8585 10.4492 14 10.4498C14.1924 10.4494 14.3805 10.3936 14.5419 10.2889C14.7033 10.1843 14.8311 10.0353 14.91 9.85984C14.9651 9.73978 14.9959 9.60998 15.0006 9.47795C15.0053 9.34592 14.9838 9.21426 14.9373 9.0906C14.8908 8.96693 14.8203 8.8537 14.7298 8.75745C14.6393 8.6612 14.5306 8.58384 14.41 8.52984C13.6537 8.18364 12.8317 8.00444 12 8.00444C11.1683 8.00444 10.3463 8.18364 9.59 8.52984Z" fill="#141414"/>
</svg>
