<svg width="24" height="24" viewBox="0 0 24 24" fill="none" xmlns="http://www.w3.org/2000/svg">
<path d="M9.75 14.0002H9C8.86739 14.0002 8.74021 14.0528 8.64645 14.1466C8.55268 14.2404 8.5 14.3676 8.5 14.5002C8.5 14.6328 8.55268 14.76 8.64645 14.8537C8.74021 14.9475 8.86739 15.0002 9 15.0002H9.75C10.0815 15.0002 10.3995 14.8685 10.6339 14.634C10.8683 14.3996 11 14.0817 11 13.7502C10.9969 13.4752 10.8979 13.2099 10.72 13.0002C10.8979 12.7904 10.9969 12.5252 11 12.2502C11 11.9186 10.8683 11.6007 10.6339 11.3663C10.3995 11.1319 10.0815 11.0002 9.75 11.0002H9C8.86739 11.0002 8.74021 11.0528 8.64645 11.1466C8.55268 11.2404 8.5 11.3676 8.5 11.5002C8.5 11.6328 8.55268 11.76 8.64645 11.8537C8.74021 11.9475 8.86739 12.0002 9 12.0002H9.75C9.8163 12.0002 9.87989 12.0265 9.92678 12.0734C9.97366 12.1203 10 12.1839 10 12.2502C10 12.3165 9.97366 12.3801 9.92678 12.4269C9.87989 12.4738 9.8163 12.5002 9.75 12.5002H9.44C9.30739 12.5002 9.18021 12.5528 9.08645 12.6466C8.99268 12.7404 8.94 12.8676 8.94 13.0002C8.94 13.1328 8.99268 13.26 9.08645 13.3537C9.18021 13.4475 9.30739 13.5002 9.44 13.5002H9.75C9.8163 13.5002 9.87989 13.5265 9.92678 13.5734C9.97366 13.6203 10 13.6839 10 13.7502C10 13.8165 9.97366 13.8801 9.92678 13.9269C9.87989 13.9738 9.8163 14.0002 9.75 14.0002ZM15 13.5002V12.5002C15 12.1023 14.842 11.7208 14.5607 11.4395C14.2794 11.1582 13.8978 11.0002 13.5 11.0002C13.1022 11.0002 12.7206 11.1582 12.4393 11.4395C12.158 11.7208 12 12.1023 12 12.5002V13.5002C12 13.898 12.158 14.2795 12.4393 14.5608C12.7206 14.8421 13.1022 15.0002 13.5 15.0002C13.8978 15.0002 14.2794 14.8421 14.5607 14.5608C14.842 14.2795 15 13.898 15 13.5002ZM13 13.5002V12.5002C13 12.3676 13.0527 12.2404 13.1464 12.1466C13.2402 12.0528 13.3674 12.0002 13.5 12.0002C13.6326 12.0002 13.7598 12.0528 13.8536 12.1466C13.9473 12.2404 14 12.3676 14 12.5002V13.5002C14 13.6328 13.9473 13.76 13.8536 13.8537C13.7598 13.9475 13.6326 14.0002 13.5 14.0002C13.3674 14.0002 13.2402 13.9475 13.1464 13.8537C13.0527 13.76 13 13.6328 13 13.5002ZM12.39 5.00017L12.71 4.69017C12.8032 4.59693 12.8772 4.48624 12.9277 4.36442C12.9781 4.24259 13.0041 4.11203 13.0041 3.98017C13.0041 3.84831 12.9781 3.71774 12.9277 3.59592C12.8772 3.47409 12.8032 3.3634 12.71 3.27017C12.6168 3.17693 12.5061 3.10297 12.3842 3.05251C12.2624 3.00205 12.1319 2.97607 12 2.97607C11.7337 2.97607 11.4783 3.08186 11.29 3.27017L9.29 5.27017C9.19627 5.36313 9.12188 5.47373 9.07111 5.59559C9.02034 5.71745 8.9942 5.84815 8.9942 5.98017C8.9942 6.11218 9.02034 6.24288 9.07111 6.36474C9.12188 6.4866 9.19627 6.5972 9.29 6.69017L11.29 8.69017C11.383 8.78389 11.4936 8.85829 11.6154 8.90906C11.7373 8.95983 11.868 8.98596 12 8.98596C12.132 8.98596 12.2627 8.95983 12.3846 8.90906C12.5064 8.85829 12.617 8.78389 12.71 8.69017C12.8037 8.5972 12.8781 8.4866 12.9289 8.36474C12.9797 8.24288 13.0058 8.11218 13.0058 7.98017C13.0058 7.84815 12.9797 7.71745 12.9289 7.59559C12.8781 7.47373 12.8037 7.36313 12.71 7.27017L12.44 7.00017C13.6041 7.08577 14.718 7.50907 15.6451 8.2182C16.5723 8.92733 17.2724 9.89151 17.6599 10.9926C18.0473 12.0937 18.1051 13.2839 17.8263 14.4173C17.5474 15.5508 16.944 16.5783 16.09 17.374C15.236 18.1696 14.1684 18.6989 13.0181 18.897C11.8677 19.0951 10.6846 18.9533 9.61366 18.4891C8.5427 18.0248 7.6304 17.2583 6.98855 16.2833C6.34669 15.3084 6.00314 14.1674 6 13.0002C6 12.7349 5.89464 12.4806 5.70711 12.2931C5.51957 12.1055 5.26522 12.0002 5 12.0002C4.73478 12.0002 4.48043 12.1055 4.29289 12.2931C4.10536 12.4806 4 12.7349 4 13.0002C4.00186 14.5654 4.46284 16.0957 5.32585 17.4015C6.18886 18.7074 7.41597 19.7313 8.8552 20.3466C10.2944 20.9619 11.8825 21.1415 13.4228 20.8631C14.9631 20.5847 16.3879 19.8606 17.5207 18.7805C18.6535 17.7003 19.4445 16.3116 19.7959 14.7863C20.1472 13.261 20.0434 11.6662 19.4972 10.1993C18.9511 8.73243 17.9866 7.458 16.7233 6.53386C15.46 5.60972 13.9534 5.07647 12.39 5.00017Z" fill="#141414"/>
</svg>
