<svg width="24" height="24" viewBox="0 0 24 24" fill="none" xmlns="http://www.w3.org/2000/svg">
<path d="M22 16.5099C21.842 15.2456 21.2209 14.0848 20.2567 13.2518C19.2926 12.4188 18.0539 11.9728 16.78 11.9999H13V10.9999C13 10.7347 13.1054 10.4804 13.2929 10.2928C13.4805 10.1053 13.7348 9.99994 14 9.99994H15.88C16.5883 10.0128 17.2793 9.78112 17.8367 9.34396C18.3941 8.90679 18.7837 8.29086 18.94 7.59994C19.029 7.16402 19.0199 6.71376 18.9134 6.28179C18.8069 5.84981 18.6057 5.44693 18.3242 5.10233C18.0428 4.75774 17.6883 4.48005 17.2863 4.28938C16.8843 4.09872 16.4449 3.99985 16 3.99994H14C13.7348 3.99994 13.4805 3.89458 13.2929 3.70705C13.1054 3.51951 13 3.26516 13 2.99994C12.9963 2.73517 12.8928 2.48157 12.71 2.28994C12.6171 2.19621 12.5065 2.12182 12.3846 2.07105C12.2627 2.02028 12.132 1.99414 12 1.99414C11.868 1.99414 11.7373 2.02028 11.6154 2.07105C11.4936 2.12182 11.383 2.19621 11.29 2.28994C11.1073 2.48157 11.0037 2.73517 11 2.99994C11 3.79559 11.3161 4.55865 11.8787 5.12126C12.4413 5.68387 13.2044 5.99994 14 5.99994H16C16.2652 5.99994 16.5196 6.1053 16.7071 6.29283C16.8947 6.48037 17 6.73472 17 6.99994C17 7.26516 16.8947 7.51951 16.7071 7.70705C16.5196 7.89458 16.2652 7.99994 16 7.99994H14C13.2044 7.99994 12.4413 8.31601 11.8787 8.87862C11.3161 9.44123 11 10.2043 11 10.9999V11.9999H7.22002C5.94617 11.9728 4.70746 12.4188 3.74333 13.2518C2.77919 14.0848 2.15807 15.2456 2.00002 16.5099C1.90222 17.5522 2.13402 18.5989 2.66273 19.5024C3.19145 20.4059 3.99041 21.1206 4.94697 21.5459C5.90354 21.9712 6.96945 22.0855 7.99443 21.8727C9.01941 21.6599 9.95176 21.1308 10.66 20.3599C10.754 20.2471 10.8718 20.1563 11.0049 20.0941C11.138 20.0318 11.2831 19.9997 11.43 19.9999H12.53C12.6769 19.9997 12.8221 20.0318 12.9552 20.0941C13.0883 20.1563 13.206 20.2471 13.3 20.3599C14.0046 21.1476 14.9405 21.6918 15.9736 21.9144C17.0067 22.137 18.0838 22.0265 19.0502 21.5989C20.0166 21.1712 20.8226 20.4484 21.3526 19.5341C21.8826 18.6198 22.1092 17.5611 22 16.5099ZM9.00002 17.9999H8.00002V18.9999C8.00002 19.2652 7.89467 19.5195 7.70713 19.707C7.51959 19.8946 7.26524 19.9999 7.00002 19.9999C6.73481 19.9999 6.48045 19.8946 6.29292 19.707C6.10538 19.5195 6.00002 19.2652 6.00002 18.9999V17.9999H5.00002C4.73481 17.9999 4.48045 17.8946 4.29292 17.707C4.10538 17.5195 4.00002 17.2652 4.00002 16.9999C4.00002 16.7347 4.10538 16.4804 4.29292 16.2928C4.48045 16.1053 4.73481 15.9999 5.00002 15.9999H6.00002V14.9999C6.00002 14.7347 6.10538 14.4804 6.29292 14.2928C6.48045 14.1053 6.73481 13.9999 7.00002 13.9999C7.26524 13.9999 7.51959 14.1053 7.70713 14.2928C7.89467 14.4804 8.00002 14.7347 8.00002 14.9999V15.9999H9.00002C9.26524 15.9999 9.51959 16.1053 9.70713 16.2928C9.89467 16.4804 10 16.7347 10 16.9999C10 17.2652 9.89467 17.5195 9.70713 17.707C9.51959 17.8946 9.26524 17.9999 9.00002 17.9999ZM17 13.9999C17.1978 13.9999 17.3911 14.0586 17.5556 14.1685C17.72 14.2784 17.8482 14.4345 17.9239 14.6173C17.9996 14.8 18.0194 15.001 17.9808 15.195C17.9422 15.389 17.847 15.5672 17.7071 15.707C17.5673 15.8469 17.3891 15.9421 17.1951 15.9807C17.0011 16.0193 16.8001 15.9995 16.6173 15.9238C16.4346 15.8481 16.2784 15.72 16.1686 15.5555C16.0587 15.3911 16 15.1977 16 14.9999C16 14.7347 16.1054 14.4804 16.2929 14.2928C16.4805 14.1053 16.7348 13.9999 17 13.9999ZM15 17.9999C14.8022 17.9999 14.6089 17.9413 14.4445 17.8314C14.28 17.7215 14.1518 17.5653 14.0761 17.3826C14.0005 17.1999 13.9807 16.9988 14.0192 16.8048C14.0578 16.6109 14.1531 16.4327 14.2929 16.2928C14.4328 16.153 14.611 16.0577 14.8049 16.0192C14.9989 15.9806 15.2 16.0004 15.3827 16.0761C15.5654 16.1517 15.7216 16.2799 15.8315 16.4444C15.9414 16.6088 16 16.8022 16 16.9999C16 17.2652 15.8947 17.5195 15.7071 17.707C15.5196 17.8946 15.2652 17.9999 15 17.9999ZM17 19.9999C16.8022 19.9999 16.6089 19.9413 16.4445 19.8314C16.28 19.7215 16.1518 19.5653 16.0761 19.3826C16.0005 19.1999 15.9807 18.9988 16.0192 18.8048C16.0578 18.6109 16.1531 18.4327 16.2929 18.2928C16.4328 18.153 16.6109 18.0577 16.8049 18.0192C16.9989 17.9806 17.2 18.0004 17.3827 18.0761C17.5654 18.1517 17.7216 18.2799 17.8315 18.4444C17.9414 18.6088 18 18.8022 18 18.9999C18 19.2652 17.8947 19.5195 17.7071 19.707C17.5196 19.8946 17.2652 19.9999 17 19.9999ZM19 17.9999C18.8022 17.9999 18.6089 17.9413 18.4445 17.8314C18.28 17.7215 18.1518 17.5653 18.0761 17.3826C18.0005 17.1999 17.9807 16.9988 18.0192 16.8048C18.0578 16.6109 18.1531 16.4327 18.2929 16.2928C18.4328 16.153 18.611 16.0577 18.8049 16.0192C18.9989 15.9806 19.2 16.0004 19.3827 16.0761C19.5654 16.1517 19.7216 16.2799 19.8315 16.4444C19.9414 16.6088 20 16.8022 20 16.9999C20 17.2652 19.8947 17.5195 19.7071 17.707C19.5196 17.8946 19.2652 17.9999 19 17.9999Z" fill="#141414"/>
</svg>
