<svg width="24" height="24" viewBox="0 0 24 24" fill="none" xmlns="http://www.w3.org/2000/svg">
<path d="M21 12C21 11.337 20.7366 10.7011 20.2678 10.2322C19.7989 9.76339 19.163 9.5 18.5 9.5H18L18.32 9.17C18.7458 8.69372 18.973 8.07252 18.9552 7.43393C18.9373 6.79534 18.6756 6.18783 18.2239 5.7361C17.7722 5.28438 17.1647 5.02272 16.5261 5.00485C15.8875 4.98698 15.2663 5.21425 14.79 5.64L14.5 6V5.5C14.5 4.83696 14.2366 4.20107 13.7678 3.73223C13.2989 3.26339 12.663 3 12 3C11.337 3 10.7011 3.26339 10.2322 3.73223C9.76339 4.20107 9.5 4.83696 9.5 5.5V6L9.17 5.68C8.69133 5.30001 8.09004 5.10853 7.47979 5.14173C6.86953 5.17494 6.29257 5.43054 5.85796 5.86023C5.42335 6.28992 5.16119 6.86392 5.12103 7.47376C5.08087 8.0836 5.26549 8.68703 5.64 9.17L6 9.5H5.5C4.83696 9.5 4.20107 9.76339 3.73223 10.2322C3.26339 10.7011 3 11.337 3 12C3 12.663 3.26339 13.2989 3.73223 13.7678C4.20107 14.2366 4.83696 14.5 5.5 14.5H6L5.68 14.83C5.25425 15.3063 5.02698 15.9275 5.04485 16.5661C5.06272 17.2047 5.32438 17.8122 5.7761 18.2639C6.22783 18.7156 6.83534 18.9773 7.47393 18.9952C8.11252 19.013 8.73372 18.7858 9.21 18.36L9.5 18V18.46C9.5 19.123 9.76339 19.7589 10.2322 20.2278C10.7011 20.6966 11.337 20.96 12 20.96C12.663 20.96 13.2989 20.6966 13.7678 20.2278C14.2366 19.7589 14.5 19.123 14.5 18.46V18L14.83 18.32C15.3063 18.7458 15.9275 18.973 16.5661 18.9552C17.2047 18.9373 17.8122 18.6756 18.2639 18.2239C18.7156 17.7722 18.9773 17.1647 18.9952 16.5261C19.013 15.8875 18.7858 15.2663 18.36 14.79L18 14.5H18.46C18.7917 14.5053 19.1211 14.4446 19.429 14.3213C19.7369 14.198 20.0173 14.0147 20.2537 13.7821C20.4901 13.5494 20.6778 13.272 20.8059 12.966C20.9341 12.6601 21 12.3317 21 12ZM12 15C11.4067 15 10.8266 14.8241 10.3333 14.4944C9.83994 14.1648 9.45542 13.6962 9.22836 13.1481C9.0013 12.5999 8.94189 11.9967 9.05764 11.4147C9.1734 10.8328 9.45912 10.2982 9.87868 9.87868C10.2982 9.45912 10.8328 9.1734 11.4147 9.05764C11.9967 8.94189 12.5999 9.0013 13.1481 9.22836C13.6962 9.45542 14.1648 9.83994 14.4944 10.3333C14.8241 10.8266 15 11.4067 15 12C15 12.7956 14.6839 13.5587 14.1213 14.1213C13.5587 14.6839 12.7956 15 12 15Z" fill="#141414"/>
</svg>
