<svg width="24" height="24" viewBox="0 0 24 24" fill="none" xmlns="http://www.w3.org/2000/svg">
<path d="M3.99997 13.9999H4.10997L6.48997 13.7399C6.71892 13.7207 6.93266 13.6174 7.08997 13.4499L13.71 6.83994C13.8037 6.74698 13.8781 6.63637 13.9289 6.51452C13.9796 6.39266 14.0058 6.26195 14.0058 6.12994C14.0058 5.99793 13.9796 5.86722 13.9289 5.74536C13.8781 5.6235 13.8037 5.5129 13.71 5.41994L11.59 3.28994C11.497 3.19621 11.3864 3.12182 11.2645 3.07105C11.1427 3.02028 11.012 2.99414 10.88 2.99414C10.748 2.99414 10.6172 3.02028 10.4954 3.07105C10.3735 3.12182 10.2629 3.19621 10.17 3.28994L3.55997 9.90994C3.3925 10.0672 3.2892 10.281 3.26997 10.5099L2.99997 12.8899C2.98444 13.0302 2.99878 13.1722 3.04203 13.3065C3.08529 13.4408 3.15648 13.5644 3.25094 13.6693C3.34539 13.7741 3.46096 13.8578 3.59006 13.9148C3.71916 13.9718 3.85885 14.0008 3.99997 13.9999ZM20.38 3.07994C20.1979 3.00336 19.9971 2.98244 19.8032 3.01981C19.6092 3.05719 19.4306 3.15118 19.29 3.28994L3.28997 19.2899C3.15121 19.4306 3.05721 19.6091 3.01984 19.8031C2.98246 19.9971 3.00339 20.1978 3.07997 20.3799C3.15499 20.5626 3.28238 20.7189 3.44611 20.8292C3.60983 20.9396 3.80254 20.999 3.99997 20.9999H20C20.2652 20.9999 20.5195 20.8946 20.7071 20.707C20.8946 20.5195 21 20.2652 21 19.9999V3.99994C20.999 3.80251 20.9396 3.6098 20.8292 3.44608C20.7189 3.28236 20.5626 3.15496 20.38 3.07994ZM17 15.9999C17 16.2652 16.8946 16.5195 16.7071 16.707C16.5195 16.8946 16.2652 16.9999 16 16.9999H13C12.8025 16.999 12.6098 16.9396 12.4461 16.8292C12.2824 16.7189 12.155 16.5626 12.08 16.3799C12.0034 16.1978 11.9825 15.9971 12.0198 15.8031C12.0572 15.6091 12.1512 15.4306 12.29 15.2899L15.29 12.2899C15.4306 12.1512 15.6092 12.0572 15.8032 12.0198C15.9971 11.9824 16.1979 12.0034 16.38 12.0799C16.5626 12.155 16.7189 12.2824 16.8292 12.4461C16.9396 12.6098 16.999 12.8025 17 12.9999V15.9999Z" fill="#141414"/>
</svg>
