<svg width="24" height="24" viewBox="0 0 24 24" fill="none" xmlns="http://www.w3.org/2000/svg">
<path d="M20.79 11.5098C20.7692 11.1072 20.7224 10.7063 20.65 10.3098H12.18V13.8198H17.08C16.9829 14.378 16.7744 14.911 16.4668 15.3869C16.1593 15.8628 15.7591 16.2719 15.29 16.5898C14.6877 16.9915 14.0053 17.2576 13.29 17.3698C12.5792 17.4992 11.8508 17.4992 11.14 17.3698C10.2647 17.1839 9.44845 16.7857 8.76315 16.2103C8.07786 15.6348 7.5445 14.8998 7.21001 14.0698C7.16067 13.9656 7.11727 13.8588 7.08001 13.7498C6.6899 12.6191 6.6899 11.3904 7.08001 10.2598C7.35379 9.45932 7.80504 8.73116 8.40001 8.12977C9.12935 7.37769 10.0656 6.85911 11.09 6.63977C11.9646 6.45231 12.8721 6.48669 13.73 6.73977C14.4588 6.96359 15.1239 7.3578 15.67 7.88977L17.32 6.22977C17.62 5.93977 17.92 5.64977 18.2 5.34977C17.3634 4.56432 16.3771 3.95554 15.3 3.55977C13.2195 2.79589 10.9303 2.82653 8.87102 3.64582C6.81172 4.46512 5.12713 6.01544 4.14001 7.99977C3.77955 8.71459 3.51718 9.47478 3.36001 10.2598C3.031 11.8854 3.15759 13.5703 3.72581 15.1285C4.29403 16.6867 5.28178 18.0576 6.58001 19.0898C7.55028 19.8415 8.66259 20.3891 9.85001 20.6998C11.3638 21.0746 12.9462 21.0746 14.46 20.6998C15.8819 20.3983 17.1935 19.7119 18.2516 18.7154C19.3098 17.719 20.0737 16.4509 20.46 15.0498C20.7789 13.8986 20.8906 12.7 20.79 11.5098Z" fill="#141414"/>
</svg>
