<svg width="24" height="24" viewBox="0 0 24 24" fill="none" xmlns="http://www.w3.org/2000/svg">
<path d="M18.5 13.0001C18.2628 13.0058 18.0275 13.0427 17.8 13.1101L13.1 7.74011C13.6073 7.49156 14.0154 7.07853 14.2579 6.56833C14.5004 6.05813 14.563 5.48084 14.4354 4.93053C14.3078 4.38023 13.9977 3.88935 13.5554 3.53789C13.1131 3.18643 12.5649 2.99512 12 2.99512C11.4351 2.99512 10.8869 3.18643 10.4446 3.53789C10.0023 3.88935 9.69216 4.38023 9.56459 4.93053C9.43701 5.48084 9.49957 6.05813 9.74208 6.56833C9.98458 7.07853 10.3927 7.49156 10.9 7.74011L6.2 13.1101C5.97254 13.0427 5.73716 13.0058 5.5 13.0001C5.00555 13.0001 4.5222 13.1467 4.11108 13.4214C3.69995 13.6961 3.37952 14.0866 3.1903 14.5434C3.00108 15.0002 2.95157 15.5029 3.04804 15.9878C3.1445 16.4728 3.3826 16.9182 3.73223 17.2679C4.08187 17.6175 4.52732 17.8556 5.01228 17.9521C5.49723 18.0485 5.99989 17.999 6.45671 17.8098C6.91352 17.6206 7.30397 17.3002 7.57867 16.889C7.85338 16.4779 8 15.9946 8 15.5001C7.99944 15.1171 7.90684 14.7398 7.73 14.4001L11 10.6601V16.2101C10.4736 16.4399 10.0424 16.8438 9.77879 17.3541C9.51521 17.8644 9.43539 18.4499 9.55274 19.0122C9.67008 19.5744 9.97744 20.0791 10.4231 20.4414C10.8688 20.8036 11.4257 21.0014 12 21.0014C12.5744 21.0014 13.1312 20.8036 13.5769 20.4414C14.0226 20.0791 14.3299 19.5744 14.4473 19.0122C14.5646 18.4499 14.4848 17.8644 14.2212 17.3541C13.9576 16.8438 13.5264 16.4399 13 16.2101V10.6601L16.27 14.4001C16.0932 14.7398 16.0006 15.1171 16 15.5001C16 15.9946 16.1466 16.4779 16.4213 16.889C16.696 17.3002 17.0865 17.6206 17.5433 17.8098C18.0001 17.999 18.5028 18.0485 18.9877 17.9521C19.4727 17.8556 19.9181 17.6175 20.2678 17.2679C20.6174 16.9182 20.8555 16.4728 20.952 15.9878C21.0484 15.5029 20.9989 15.0002 20.8097 14.5434C20.6205 14.0866 20.3001 13.6961 19.8889 13.4214C19.4778 13.1467 18.9945 13.0001 18.5 13.0001Z" fill="#141414"/>
</svg>
