<svg width="24" height="24" viewBox="0 0 24 24" fill="none" xmlns="http://www.w3.org/2000/svg">
<path d="M17 2H7C6.20435 2 5.44129 2.31607 4.87868 2.87868C4.31607 3.44129 4 4.20435 4 5V8H8.14C8.37028 7.15263 8.873 6.40458 9.5706 5.87126C10.2682 5.33795 11.1219 5.049 12 5.049C12.8781 5.049 13.7318 5.33795 14.4294 5.87126C15.127 6.40458 15.6297 7.15263 15.86 8H20V5C20 4.20435 19.6839 3.44129 19.1213 2.87868C18.5587 2.31607 17.7956 2 17 2ZM12 13C11.1154 12.9971 10.2568 12.7011 9.55836 12.1583C8.85993 11.6155 8.36114 10.8565 8.14 10H4V17C4 17.7956 4.31607 18.5587 4.87868 19.1213C5.44129 19.6839 6.20435 20 7 20H8V21C8 21.2652 8.10536 21.5196 8.29289 21.7071C8.48043 21.8946 8.73478 22 9 22C9.26522 22 9.51957 21.8946 9.70711 21.7071C9.89464 21.5196 10 21.2652 10 21V20H14V21C14 21.2652 14.1054 21.5196 14.2929 21.7071C14.4804 21.8946 14.7348 22 15 22C15.2652 22 15.5196 21.8946 15.7071 21.7071C15.8946 21.5196 16 21.2652 16 21V20H17C17.7956 20 18.5587 19.6839 19.1213 19.1213C19.6839 18.5587 20 17.7956 20 17V10H15.86C15.6389 10.8565 15.1401 11.6155 14.4416 12.1583C13.7432 12.7011 12.8846 12.9971 12 13ZM14 17H10C9.73478 17 9.48043 16.8946 9.29289 16.7071C9.10536 16.5196 9 16.2652 9 16C9 15.7348 9.10536 15.4804 9.29289 15.2929C9.48043 15.1054 9.73478 15 10 15H14C14.2652 15 14.5196 15.1054 14.7071 15.2929C14.8946 15.4804 15 15.7348 15 16C15 16.2652 14.8946 16.5196 14.7071 16.7071C14.5196 16.8946 14.2652 17 14 17ZM14 9C14 8.60444 13.8827 8.21776 13.6629 7.88886C13.4432 7.55996 13.1308 7.30362 12.7654 7.15224C12.3999 7.00087 11.9978 6.96126 11.6098 7.03843C11.2219 7.1156 10.8655 7.30608 10.5858 7.58579C10.3061 7.86549 10.1156 8.22186 10.0384 8.60982C9.96126 8.99778 10.0009 9.39991 10.1522 9.76537C10.3036 10.1308 10.56 10.4432 10.8889 10.6629C11.2178 10.8827 11.6044 11 12 11C12.5304 11 13.0391 10.7893 13.4142 10.4142C13.7893 10.0391 14 9.53043 14 9Z" fill="#141414"/>
</svg>
