<svg width="24" height="24" viewBox="0 0 24 24" fill="none" xmlns="http://www.w3.org/2000/svg">
<path d="M21.6998 8.52979C21.301 7.37543 20.5562 6.37204 19.5666 5.65628C18.5771 4.94051 17.3909 4.54715 16.1698 4.52979H7.99979C6.43751 4.52916 4.93659 5.13791 3.81614 6.22662C2.69568 7.31533 2.04405 8.79813 1.99979 10.3598C1.90979 13.7498 4.55979 19.5298 7.82979 19.5298C9.99979 19.5298 9.88979 16.2398 10.7398 15.7298C11.1241 15.5067 11.5605 15.3893 12.0048 15.3893C12.4491 15.3893 12.8855 15.5067 13.2698 15.7298C14.2698 16.2998 14.0098 19.5298 16.5598 19.5298C19.1098 19.5298 21.7998 13.8898 21.9998 10.9198C22.0715 10.1108 21.9692 9.29591 21.6998 8.52979ZM9.69979 11.2098C9.51352 11.3945 9.26213 11.4987 8.99979 11.4998H7.99979V12.4998C8.00055 12.6314 7.97532 12.7619 7.92556 12.8837C7.87579 13.0055 7.80247 13.1163 7.70979 13.2098C7.61635 13.3025 7.50553 13.3758 7.38369 13.4256C7.26185 13.4753 7.13139 13.5005 6.99979 13.4998C6.73457 13.4998 6.48022 13.3944 6.29268 13.2069C6.10514 13.0194 5.99979 12.765 5.99979 12.4998V11.4998H4.99979C4.73457 11.4998 4.48022 11.3944 4.29268 11.2069C4.10514 11.0194 3.99979 10.765 3.99979 10.4998C3.99979 10.2346 4.10514 9.98022 4.29268 9.79268C4.48022 9.60514 4.73457 9.49979 4.99979 9.49979H5.99979V8.49979C5.99979 8.23457 6.10514 7.98022 6.29268 7.79268C6.48022 7.60514 6.73457 7.49979 6.99979 7.49979C7.13139 7.49902 7.26185 7.52425 7.38369 7.57401C7.50553 7.62378 7.61635 7.6971 7.70979 7.78979C7.80247 7.88323 7.87579 7.99404 7.92556 8.11588C7.97532 8.23772 8.00055 8.36818 7.99979 8.49979V9.49979H8.99979C9.13139 9.49902 9.26185 9.52425 9.38369 9.57401C9.50553 9.62378 9.61635 9.6971 9.70979 9.78979C9.80351 9.88275 9.87791 9.99335 9.92868 10.1152C9.97945 10.2371 10.0056 10.3678 10.0056 10.4998C10.0056 10.6318 9.97945 10.7625 9.92868 10.8844C9.87791 11.0062 9.80351 11.1168 9.70979 11.2098H9.69979ZM15.6998 11.2098C15.6063 11.3025 15.4955 11.3758 15.3737 11.4256C15.2519 11.4753 15.1214 11.5005 14.9898 11.4998C14.7938 11.4983 14.6025 11.4391 14.4398 11.3298C14.2705 11.2244 14.1405 11.0663 14.0698 10.8798C13.9892 10.6977 13.9649 10.4958 13.9998 10.2998C14.0405 10.1058 14.138 9.92828 14.2798 9.78979C14.3842 9.68671 14.51 9.60786 14.6483 9.55884C14.7866 9.50983 14.9339 9.49184 15.0799 9.50615C15.226 9.52047 15.367 9.56674 15.4932 9.64168C15.6193 9.71662 15.7274 9.81839 15.8098 9.93979C15.921 10.1053 15.9802 10.3003 15.9798 10.4998C15.9867 10.7628 15.8897 11.0178 15.7098 11.2098H15.6998ZM16.2898 7.78979C16.3832 7.6971 16.494 7.62378 16.6159 7.57401C16.7377 7.52425 16.8682 7.49902 16.9998 7.49979C17.1989 7.49879 17.3938 7.55726 17.5595 7.66772C17.7252 7.77818 17.8541 7.93559 17.9298 8.11979C18.0103 8.30184 18.0347 8.50379 17.9998 8.69979C17.9606 8.89196 17.8657 9.06837 17.7271 9.20706C17.5884 9.34575 17.412 9.44059 17.2198 9.47978C17.0248 9.51785 16.8229 9.49696 16.6398 9.41979C16.4577 9.34654 16.3012 9.22134 16.1898 9.05979C16.0714 8.89654 16.0052 8.70134 15.9998 8.49979C16.0003 8.36748 16.0271 8.2366 16.0786 8.11472C16.1301 7.99285 16.2053 7.8824 16.2998 7.78979H16.2898ZM17.6998 13.2098C17.6063 13.3025 17.4955 13.3758 17.3737 13.4256C17.2519 13.4753 17.1214 13.5005 16.9898 13.4998C16.7938 13.4983 16.6025 13.4391 16.4398 13.3298C16.2705 13.2244 16.1405 13.0663 16.0698 12.8798C15.9892 12.6977 15.9649 12.4958 15.9998 12.2998C16.0405 12.1058 16.138 11.9283 16.2798 11.7898C16.3842 11.6867 16.51 11.6079 16.6483 11.5588C16.7866 11.5098 16.9339 11.4918 17.0799 11.5062C17.226 11.5205 17.367 11.5667 17.4932 11.6417C17.6193 11.7166 17.7274 11.8184 17.8098 11.9398C17.921 12.1053 17.9802 12.3003 17.9798 12.4998C17.9867 12.7628 17.8897 13.0178 17.7098 13.2098H17.6998ZM19.6998 11.2098C19.6063 11.3025 19.4955 11.3758 19.3737 11.4256C19.2519 11.4753 19.1214 11.5005 18.9898 11.4998C18.7938 11.4983 18.6025 11.4391 18.4398 11.3298C18.2705 11.2244 18.1405 11.0663 18.0698 10.8798C17.9892 10.6977 17.9649 10.4958 17.9998 10.2998C18.0405 10.1058 18.138 9.92828 18.2798 9.78979C18.3842 9.68671 18.51 9.60786 18.6483 9.55884C18.7866 9.50983 18.9339 9.49184 19.0799 9.50615C19.226 9.52047 19.367 9.56674 19.4932 9.64168C19.6193 9.71662 19.7274 9.81839 19.8098 9.93979C19.921 10.1053 19.9802 10.3003 19.9798 10.4998C19.9867 10.7628 19.8897 11.0178 19.7098 11.2098H19.6998Z" fill="#141414"/>
</svg>
