<svg width="24" height="24" viewBox="0 0 24 24" fill="none" xmlns="http://www.w3.org/2000/svg">
<path d="M16 8H13C13 7.20435 12.6839 6.44129 12.1213 5.87868C11.5587 5.31607 10.7956 5 10 5C9.73478 5 9.48043 4.89464 9.29289 4.70711C9.10536 4.51957 9 4.26522 9 4C9 3.73478 8.89464 3.48043 8.70711 3.29289C8.51957 3.10536 8.26522 3 8 3C7.73478 3 7.48043 3.10536 7.29289 3.29289C7.10536 3.48043 7 3.73478 7 4C7 4.79565 7.31607 5.55871 7.87868 6.12132C8.44129 6.68393 9.20435 7 10 7C10.2652 7 10.5196 7.10536 10.7071 7.29289C10.8946 7.48043 11 7.73478 11 8H8C6.4087 8 4.88258 8.63214 3.75736 9.75736C2.63214 10.8826 2 12.4087 2 14C2 15.5913 2.63214 17.1174 3.75736 18.2426C4.88258 19.3679 6.4087 20 8 20C9.16795 19.997 10.309 19.6491 11.28 19H12.72C13.691 19.6491 14.832 19.997 16 20C17.5913 20 19.1174 19.3679 20.2426 18.2426C21.3679 17.1174 22 15.5913 22 14C22 12.4087 21.3679 10.8826 20.2426 9.75736C19.1174 8.63214 17.5913 8 16 8ZM9 15H8V16C8 16.2652 7.89464 16.5196 7.70711 16.7071C7.51957 16.8946 7.26522 17 7 17C6.73478 17 6.48043 16.8946 6.29289 16.7071C6.10536 16.5196 6 16.2652 6 16V15H5C4.73478 15 4.48043 14.8946 4.29289 14.7071C4.10536 14.5196 4 14.2652 4 14C4 13.7348 4.10536 13.4804 4.29289 13.2929C4.48043 13.1054 4.73478 13 5 13H6V12C6 11.7348 6.10536 11.4804 6.29289 11.2929C6.48043 11.1054 6.73478 11 7 11C7.26522 11 7.51957 11.1054 7.70711 11.2929C7.89464 11.4804 8 11.7348 8 12V13H9C9.26522 13 9.51957 13.1054 9.70711 13.2929C9.89464 13.4804 10 13.7348 10 14C10 14.2652 9.89464 14.5196 9.70711 14.7071C9.51957 14.8946 9.26522 15 9 15ZM16.07 11.62C16.1256 11.4992 16.1998 11.3878 16.29 11.29C16.4064 11.1747 16.5494 11.0898 16.7063 11.0427C16.8632 10.9956 17.0293 10.9878 17.19 11.02C17.2562 11.0293 17.3205 11.0496 17.38 11.08C17.4414 11.1 17.4989 11.1304 17.55 11.17C17.6072 11.2046 17.6608 11.2448 17.71 11.29C17.801 11.3851 17.8724 11.4972 17.92 11.62C17.9712 11.7402 17.9984 11.8693 18 12C18.0008 12.1316 17.9755 12.2621 17.9258 12.3839C17.876 12.5057 17.8027 12.6166 17.71 12.71C17.6128 12.7983 17.5012 12.8694 17.38 12.92C17.2603 12.9729 17.1309 13.0002 17 13.0002C16.8691 13.0002 16.7397 12.9729 16.62 12.92C16.4972 12.8724 16.3851 12.801 16.29 12.71C16.1496 12.5705 16.0537 12.3924 16.0145 12.1984C15.9754 12.0044 15.9947 11.8031 16.07 11.62ZM15.71 14.71C15.6128 14.7983 15.5012 14.8694 15.38 14.92C15.2603 14.9729 15.1309 15.0002 15 15.0002C14.8691 15.0002 14.7397 14.9729 14.62 14.92C14.4972 14.8724 14.3851 14.801 14.29 14.71C14.1973 14.6166 14.124 14.5057 14.0742 14.3839C14.0245 14.2621 13.9992 14.1316 14 14C13.9992 13.8684 14.0245 13.7379 14.0742 13.6161C14.124 13.4943 14.1973 13.3834 14.29 13.29C14.4299 13.149 14.6086 13.0528 14.8033 13.0137C14.9981 12.9747 15.2 12.9945 15.3835 13.0706C15.5669 13.1468 15.7235 13.2759 15.8333 13.4414C15.9431 13.6069 16.0012 13.8014 16 14C16.0008 14.1316 15.9755 14.2621 15.9258 14.3839C15.876 14.5057 15.8027 14.6166 15.71 14.71ZM17.92 16.38C17.8694 16.5012 17.7983 16.6128 17.71 16.71C17.5694 16.8488 17.3908 16.9428 17.1968 16.9801C17.0028 17.0175 16.8021 16.9966 16.62 16.92C16.4972 16.8724 16.3851 16.801 16.29 16.71C16.1496 16.5705 16.0537 16.3924 16.0145 16.1984C15.9754 16.0044 15.9947 15.8031 16.07 15.62C16.1256 15.4992 16.1998 15.3878 16.29 15.29C16.4306 15.1512 16.6092 15.0572 16.8032 15.0199C16.9972 14.9825 17.1979 15.0034 17.38 15.08C17.5012 15.1306 17.6128 15.2017 17.71 15.29C17.801 15.3851 17.8724 15.4972 17.92 15.62C17.9729 15.7397 18.0002 15.8691 18.0002 16C18.0002 16.1309 17.9729 16.2603 17.92 16.38ZM19.7 14.71C19.5596 14.8476 19.3818 14.9408 19.1887 14.9779C18.9957 15.015 18.796 14.9944 18.6146 14.9186C18.4332 14.8429 18.2782 14.7153 18.1689 14.5519C18.0595 14.3886 18.0008 14.1966 18 14C17.9992 13.8684 18.0245 13.7379 18.0742 13.6161C18.124 13.4943 18.1973 13.3834 18.29 13.29L18.44 13.17C18.4957 13.1322 18.5563 13.1019 18.62 13.08C18.6755 13.0442 18.7362 13.0172 18.8 13C18.9607 12.9678 19.1268 12.9756 19.2837 13.0227C19.4406 13.0698 19.5836 13.1547 19.7 13.27C19.7969 13.365 19.8735 13.4787 19.9251 13.6042C19.9766 13.7297 20.0021 13.8643 20 14C19.9995 14.1323 19.9727 14.2632 19.9212 14.3851C19.8697 14.5069 19.7945 14.6174 19.7 14.71Z" fill="#141414"/>
</svg>
