<svg width="24" height="24" viewBox="0 0 24 24" fill="none" xmlns="http://www.w3.org/2000/svg">
<path d="M15.6001 3.99991C14.2643 4.04142 12.9875 4.55927 12.0001 5.45991C11.0128 4.55927 9.73588 4.04142 8.40011 3.99991C7.68608 3.9945 6.97817 4.13181 6.31795 4.40379C5.65773 4.67576 5.0585 5.07691 4.55546 5.58367C4.05242 6.09044 3.6557 6.69261 3.38861 7.35483C3.12152 8.01704 2.98943 8.72594 3.00011 9.43991C3.00198 9.96618 3.06916 10.4902 3.20011 10.9999H5.46011L7.17011 8.44991C7.26611 8.30358 7.39883 8.18501 7.55501 8.10604C7.71119 8.02708 7.88536 7.99048 8.06011 7.99991C8.23445 8.0111 8.40281 8.06777 8.54843 8.16426C8.69405 8.26076 8.81186 8.39372 8.89011 8.54991L11.1201 12.9999L12.1701 11.4399C12.2618 11.3042 12.3855 11.1931 12.5302 11.1164C12.675 11.0397 12.8363 10.9997 13.0001 10.9999H15.0001C15.2653 10.9999 15.5197 11.1053 15.7072 11.2928C15.8948 11.4803 16.0001 11.7347 16.0001 11.9999C16.0001 12.2651 15.8948 12.5195 15.7072 12.707C15.5197 12.8946 15.2653 12.9999 15.0001 12.9999H13.5401L11.8301 15.5499C11.7395 15.6875 11.6164 15.8005 11.4716 15.879C11.3268 15.9575 11.1648 15.9991 11.0001 15.9999H10.9401C10.7658 15.9887 10.5974 15.9321 10.4518 15.8356C10.3062 15.7391 10.1884 15.6061 10.1101 15.4499L7.88011 10.9999L6.88011 12.5599C6.7838 12.7029 6.65215 12.8185 6.49797 12.8956C6.34378 12.9727 6.17228 13.0086 6.00011 12.9999H4.00011C5.15011 15.1399 7.27011 17.3499 10.1801 19.9999L10.6701 20.4499C11.0388 20.7872 11.5204 20.9743 12.0201 20.9743C12.5198 20.9743 13.0014 20.7872 13.3701 20.4499L13.8601 20.0099C18.3701 15.8599 21.0001 12.7999 21.0001 9.43991C21.0108 8.72594 20.8787 8.01704 20.6116 7.35483C20.3445 6.69261 19.9478 6.09044 19.4448 5.58367C18.9417 5.07691 18.3425 4.67576 17.6823 4.40379C17.022 4.13181 16.3141 3.9945 15.6001 3.99991Z" fill="#141414"/>
</svg>
