<svg width="24" height="24" viewBox="0 0 24 24" fill="none" xmlns="http://www.w3.org/2000/svg">
<path d="M20.69 15.0599C20.5026 14.8737 20.2492 14.7691 19.985 14.7691C19.7208 14.7691 19.4674 14.8737 19.28 15.0599L17.11 17.3399C16.9229 17.5362 16.698 17.6923 16.4487 17.7989C16.1994 17.9055 15.9311 17.9603 15.66 17.9599H12C11.7348 17.9599 11.4804 17.8546 11.2929 17.667C11.1054 17.4795 11 17.2252 11 16.9599C11 16.6947 11.1054 16.4404 11.2929 16.2528C11.4804 16.0653 11.7348 15.9599 12 15.9599H13.66C13.9252 15.9599 14.1796 15.8546 14.3671 15.667C14.5546 15.4795 14.66 15.2252 14.66 14.9599C14.66 14.6947 14.5546 14.4404 14.3671 14.2528C14.1796 14.0653 13.9252 13.9599 13.66 13.9599H8C7.46957 13.9599 6.96086 14.1707 6.58579 14.5457C6.21071 14.9208 6 15.4295 6 15.9599H4C3.73478 15.9599 3.48043 16.0653 3.29289 16.2528C3.10536 16.4404 3 16.6947 3 16.9599V18.9599C3 19.2252 3.10536 19.4795 3.29289 19.667C3.48043 19.8546 3.73478 19.9599 4 19.9599H15.66C16.2005 19.9592 16.7353 19.849 17.232 19.6359C17.7287 19.4227 18.1771 19.1112 18.55 18.7199L20.72 16.4399C20.8933 16.2501 20.9869 16.0009 20.9813 15.7439C20.9757 15.487 20.8714 15.242 20.69 15.0599ZM14 8.99994V10.9999C14 11.2652 14.1054 11.5195 14.2929 11.707C14.4804 11.8946 14.7348 11.9999 15 11.9999H19C19.2652 11.9999 19.5196 11.8946 19.7071 11.707C19.8946 11.5195 20 11.2652 20 10.9999V8.99994C20.1974 8.99895 20.3901 8.93955 20.5539 8.82922C20.7176 8.71888 20.845 8.56256 20.92 8.37994C20.9966 8.19783 21.0175 7.99711 20.9801 7.80313C20.9428 7.60914 20.8488 7.43056 20.71 7.28994L17.71 4.28994C17.617 4.19621 17.5064 4.12182 17.3846 4.07105C17.2627 4.02028 17.132 3.99414 17 3.99414C16.868 3.99414 16.7373 4.02028 16.6154 4.07105C16.4936 4.12182 16.383 4.19621 16.29 4.28994L13.29 7.28994C13.1512 7.43056 13.0572 7.60914 13.0199 7.80313C12.9825 7.99711 13.0034 8.19783 13.08 8.37994C13.155 8.56256 13.2824 8.71888 13.4461 8.82922C13.6099 8.93955 13.8026 8.99895 14 8.99994Z" fill="#141414"/>
</svg>
