<svg width="24" height="24" viewBox="0 0 24 24" fill="none" xmlns="http://www.w3.org/2000/svg">
<path d="M18 11V10.24C18.0012 9.92772 17.9293 9.61949 17.79 9.34L17 7.76V7H18C18.2652 7 18.5196 6.89464 18.7071 6.70711C18.8946 6.51957 19 6.26522 19 6C19 5.73478 18.8946 5.48043 18.7071 5.29289C18.5196 5.10536 18.2652 5 18 5H17V4.5C16.9892 4.32111 16.9304 4.14842 16.83 4C16.7 3.75 15.44 2 12 2C8.56 2 7.3 3.75 7.17 4C7.06955 4.14842 7.01084 4.32111 7 4.5V5H6C5.73478 5 5.48043 5.10536 5.29289 5.29289C5.10536 5.48043 5 5.73478 5 6C5 6.26522 5.10536 6.51957 5.29289 6.70711C5.48043 6.89464 5.73478 7 6 7H7V7.76L6.21 9.34C6.0707 9.61949 5.99878 9.92772 6 10.24V11C5.46957 11 4.96086 11.2107 4.58579 11.5858C4.21071 11.9609 4 12.4696 4 13V17C4 17.5304 4.21071 18.0391 4.58579 18.4142C4.96086 18.7893 5.46957 19 6 19C6 19.7956 6.31607 20.5587 6.87868 21.1213C7.44129 21.6839 8.20435 22 9 22H15C15.7956 22 16.5587 21.6839 17.1213 21.1213C17.6839 20.5587 18 19.7956 18 19C18.5304 19 19.0391 18.7893 19.4142 18.4142C19.7893 18.0391 20 17.5304 20 17V13C20 12.4696 19.7893 11.9609 19.4142 11.5858C19.0391 11.2107 18.5304 11 18 11ZM11 18C11 18.2652 10.8946 18.5196 10.7071 18.7071C10.5196 18.8946 10.2652 19 10 19C9.73478 19 9.48043 18.8946 9.29289 18.7071C9.10536 18.5196 9 18.2652 9 18V10C9 9.73478 9.10536 9.48043 9.29289 9.29289C9.48043 9.10536 9.73478 9 10 9C10.2652 9 10.5196 9.10536 10.7071 9.29289C10.8946 9.48043 11 9.73478 11 10V18ZM15 18C15 18.2652 14.8946 18.5196 14.7071 18.7071C14.5196 18.8946 14.2652 19 14 19C13.7348 19 13.4804 18.8946 13.2929 18.7071C13.1054 18.5196 13 18.2652 13 18V10C13 9.73478 13.1054 9.48043 13.2929 9.29289C13.4804 9.10536 13.7348 9 14 9C14.2652 9 14.5196 9.10536 14.7071 9.29289C14.8946 9.48043 15 9.73478 15 10V18ZM14.67 6H9.33C9.24248 6 9.15854 5.96523 9.09665 5.90335C9.03477 5.84146 9 5.75752 9 5.67C9 5.22709 9.17595 4.80232 9.48913 4.48913C9.80232 4.17595 10.2271 4 10.67 4H13.33C13.7729 4 14.1977 4.17595 14.5109 4.48913C14.8241 4.80232 15 5.22709 15 5.67C15 5.75752 14.9652 5.84146 14.9033 5.90335C14.8415 5.96523 14.7575 6 14.67 6Z" fill="#141414"/>
</svg>
