<svg width="24" height="24" viewBox="0 0 24 24" fill="none" xmlns="http://www.w3.org/2000/svg">
<path d="M10 8H19C19.2652 8 19.5196 7.89464 19.7071 7.70711C19.8946 7.51957 20 7.26522 20 7C20 6.20435 19.6839 5.44129 19.1213 4.87868C18.5587 4.31607 17.7956 4 17 4H12C11.2044 4 10.4413 4.31607 9.87868 4.87868C9.31607 5.44129 9 6.20435 9 7C9 7.26522 9.10536 7.51957 9.29289 7.70711C9.48043 7.89464 9.73478 8 10 8ZM6.5 8C6.79667 8 7.08668 7.91203 7.33336 7.7472C7.58003 7.58238 7.77229 7.34811 7.88582 7.07403C7.99935 6.79994 8.02906 6.49834 7.97118 6.20736C7.9133 5.91639 7.77044 5.64912 7.56066 5.43934C7.35088 5.22956 7.08361 5.0867 6.79264 5.02882C6.50166 4.97094 6.20006 5.00065 5.92597 5.11418C5.65189 5.22771 5.41762 5.41997 5.2528 5.66664C5.08797 5.91332 5 6.20333 5 6.5C5 6.89782 5.15804 7.27936 5.43934 7.56066C5.72064 7.84196 6.10218 8 6.5 8ZM18 9H6C5.20435 9 4.44129 9.31607 3.87868 9.87868C3.31607 10.4413 3 11.2044 3 12C3 12.2652 3.10536 12.5196 3.29289 12.7071C3.48043 12.8946 3.73478 13 4 13H4.5V18.39C4.27357 18.5925 4.11397 18.859 4.04232 19.1542C3.97067 19.4495 3.99034 19.7595 4.09874 20.0433C4.20714 20.3271 4.39915 20.5712 4.64937 20.7435C4.89958 20.9158 5.19621 21.008 5.5 21.008C5.80379 21.008 6.10042 20.9158 6.35063 20.7435C6.60085 20.5712 6.79286 20.3271 6.90126 20.0433C7.00966 19.7595 7.02933 19.4495 6.95768 19.1542C6.88603 18.859 6.72643 18.5925 6.5 18.39V17H17.5V18.39C17.2736 18.5925 17.114 18.859 17.0423 19.1542C16.9707 19.4495 16.9903 19.7595 17.0987 20.0433C17.2071 20.3271 17.3992 20.5712 17.6494 20.7435C17.8996 20.9158 18.1962 21.008 18.5 21.008C18.8038 21.008 19.1004 20.9158 19.3506 20.7435C19.6008 20.5712 19.7929 20.3271 19.9013 20.0433C20.0097 19.7595 20.0293 19.4495 19.9577 19.1542C19.886 18.859 19.7264 18.5925 19.5 18.39V13H20C20.2652 13 20.5196 12.8946 20.7071 12.7071C20.8946 12.5196 21 12.2652 21 12C21 11.2044 20.6839 10.4413 20.1213 9.87868C19.5587 9.31607 18.7956 9 18 9ZM17.5 15H6.5V13H17.5V15Z" fill="#141414"/>
</svg>
