<svg width="24" height="24" viewBox="0 0 24 24" fill="none" xmlns="http://www.w3.org/2000/svg">
<path d="M19.25 5.47001L18.92 5.15001C18.2413 4.46739 17.4341 3.92595 16.5451 3.55693C15.656 3.18791 14.7027 2.99863 13.74 3.00001C13.6422 3.00138 13.5469 3.03145 13.4659 3.08648C13.385 3.14151 13.322 3.21908 13.2847 3.30958C13.2475 3.40008 13.2376 3.49953 13.2563 3.5956C13.275 3.69166 13.3215 3.78012 13.39 3.85001L17.17 7.63001C17.6298 8.07006 17.9115 8.664 17.9613 9.2985C18.0111 9.93299 17.8256 10.5636 17.44 11.07C17.2176 11.3431 16.9401 11.5662 16.6257 11.725C16.3113 11.8838 15.967 11.9746 15.6152 11.9916C15.2634 12.0086 14.9119 11.9513 14.5837 11.8236C14.2555 11.6958 13.9578 11.5004 13.71 11.25L13.2 10.76C12.9209 10.4828 12.5435 10.3272 12.15 10.3272C11.7566 10.3272 11.3792 10.4828 11.1 10.76L8.94005 12.94L8.59005 12.59C8.49708 12.4963 8.38648 12.4219 8.26462 12.3711C8.14276 12.3203 8.01206 12.2942 7.88005 12.2942C7.74803 12.2942 7.61733 12.3203 7.49547 12.3711C7.37361 12.4219 7.26301 12.4963 7.17005 12.59L4.88005 14.88L3.88005 15.88C3.31824 16.4425 3.00269 17.205 3.00269 18C3.00269 18.795 3.31824 19.5575 3.88005 20.12C4.44255 20.6818 5.20504 20.9974 6.00005 20.9974C6.79505 20.9974 7.55754 20.6818 8.12005 20.12L9.12005 19.12L11.41 16.83C11.5038 16.737 11.5782 16.6264 11.6289 16.5046C11.6797 16.3827 11.7058 16.252 11.7058 16.12C11.7058 15.988 11.6797 15.8573 11.6289 15.7354C11.5782 15.6136 11.5038 15.503 11.41 15.41L11.06 15.06L12.21 13.91C12.7929 14.3436 13.4558 14.6576 14.1605 14.8341C14.8653 15.0105 15.5979 15.0458 16.3163 14.938C17.0348 14.8302 17.7248 14.5814 18.3467 14.2059C18.9686 13.8304 19.5101 13.3356 19.94 12.75C20.7105 11.6531 21.0644 10.3172 20.9379 8.98273C20.8114 7.64823 20.2129 6.40264 19.25 5.47001Z" fill="#141414"/>
</svg>
