<svg width="24" height="24" viewBox="0 0 24 24" fill="none" xmlns="http://www.w3.org/2000/svg">
<path d="M20.06 7.6801L13.06 3.3001C12.7421 3.10143 12.3748 2.99609 12 2.99609C11.6252 2.99609 11.2579 3.10143 10.94 3.3001L3.94 7.6801C3.65321 7.85934 3.41656 8.10838 3.25216 8.40394C3.08777 8.69949 3.00101 9.0319 3 9.3701V19.0001C3 19.5305 3.21071 20.0392 3.58579 20.4143C3.96086 20.7894 4.46957 21.0001 5 21.0001H19C19.5304 21.0001 20.0391 20.7894 20.4142 20.4143C20.7893 20.0392 21 19.5305 21 19.0001V9.3701C20.999 9.0319 20.9122 8.69949 20.7478 8.40394C20.5834 8.10838 20.3468 7.85934 20.06 7.6801ZM15 14.0001H13V16.0001C13 16.2653 12.8946 16.5197 12.7071 16.7072C12.5196 16.8947 12.2652 17.0001 12 17.0001C11.7348 17.0001 11.4804 16.8947 11.2929 16.7072C11.1054 16.5197 11 16.2653 11 16.0001V14.0001H9C8.73478 14.0001 8.48043 13.8947 8.29289 13.7072C8.10536 13.5197 8 13.2653 8 13.0001C8 12.7349 8.10536 12.4805 8.29289 12.293C8.48043 12.1055 8.73478 12.0001 9 12.0001H11V10.0001C11 9.73488 11.1054 9.48053 11.2929 9.29299C11.4804 9.10546 11.7348 9.0001 12 9.0001C12.2652 9.0001 12.5196 9.10546 12.7071 9.29299C12.8946 9.48053 13 9.73488 13 10.0001V12.0001H15C15.2652 12.0001 15.5196 12.1055 15.7071 12.293C15.8946 12.4805 16 12.7349 16 13.0001C16 13.2653 15.8946 13.5197 15.7071 13.7072C15.5196 13.8947 15.2652 14.0001 15 14.0001Z" fill="#141414"/>
</svg>
