<svg width="24" height="24" viewBox="0 0 24 24" fill="none" xmlns="http://www.w3.org/2000/svg">
<path d="M16.0002 13.9999H8.00018C7.20454 13.9999 6.44147 14.316 5.87886 14.8786C5.31626 15.4412 5.00018 16.2043 5.00018 16.9999V20.9999C5.00018 21.2651 5.10554 21.5195 5.29308 21.707C5.48061 21.8946 5.73497 21.9999 6.00018 21.9999H18.0002C18.2654 21.9999 18.5198 21.8946 18.7073 21.707C18.8948 21.5195 19.0002 21.2651 19.0002 20.9999V16.9999C19.0002 16.2043 18.6841 15.4412 18.1215 14.8786C17.5589 14.316 16.7958 13.9999 16.0002 13.9999ZM15.1802 9.59992C15.2733 9.72412 15.3941 9.82492 15.533 9.89435C15.6718 9.96378 15.8249 9.99992 15.9802 9.99992C16.1966 9.99992 16.4071 9.92975 16.5802 9.79992C16.7924 9.64079 16.9326 9.40389 16.9701 9.14134C17.0076 8.87879 16.9393 8.6121 16.7802 8.39992C16.2206 7.66232 15.4979 7.06423 14.6686 6.65247C13.8393 6.2407 12.926 6.02644 12.0002 6.02644C11.0743 6.02644 10.161 6.2407 9.33177 6.65247C8.50251 7.06423 7.77979 7.66232 7.22018 8.39992C7.14139 8.50498 7.08406 8.62453 7.05147 8.75174C7.01888 8.87895 7.01166 9.01134 7.03023 9.14134C7.04881 9.27135 7.0928 9.39642 7.15971 9.50942C7.22662 9.62242 7.31513 9.72113 7.42018 9.79992C7.52524 9.87872 7.64479 9.93604 7.772 9.96864C7.89922 10.0012 8.0316 10.0084 8.16161 9.98987C8.29161 9.9713 8.41668 9.92731 8.52968 9.8604C8.64268 9.79349 8.74139 9.70498 8.82018 9.59992C9.19348 9.1107 9.67462 8.71419 10.2262 8.44127C10.7777 8.16835 11.3848 8.02636 12.0002 8.02636C12.6156 8.02636 13.2226 8.16835 13.7742 8.44127C14.3257 8.71419 14.8069 9.1107 15.1802 9.59992ZM19.4402 5.32992C18.5024 4.28569 17.3552 3.45056 16.0734 2.87887C14.7916 2.30717 13.4037 2.01172 12.0002 2.01172C10.5966 2.01172 9.20881 2.30717 7.92698 2.87887C6.64514 3.45056 5.498 4.28569 4.56018 5.32992C4.38249 5.52751 4.29056 5.78759 4.30463 6.05296C4.31869 6.31832 4.4376 6.56723 4.63518 6.74492C4.83277 6.92262 5.09285 7.01454 5.35822 7.00048C5.62358 6.98641 5.87249 6.86751 6.05018 6.66992C6.80042 5.83519 7.71789 5.16765 8.74299 4.7107C9.76808 4.25374 10.8779 4.01759 12.0002 4.01759C13.1225 4.01759 14.2323 4.25374 15.2574 4.7107C16.2825 5.16765 17.2 5.83519 17.9502 6.66992C18.0448 6.77477 18.1606 6.85839 18.2898 6.91527C18.4191 6.97215 18.559 7.001 18.7002 6.99992C18.9446 6.99682 19.1793 6.90433 19.3602 6.73992C19.5574 6.56336 19.6766 6.31577 19.6916 6.05146C19.7066 5.78714 19.6162 5.52767 19.4402 5.32992ZM11.0002 10.9999C11.0002 11.1977 11.0588 11.391 11.1687 11.5555C11.2786 11.7199 11.4348 11.8481 11.6175 11.9238C11.8002 11.9995 12.0013 12.0193 12.1953 11.9807C12.3893 11.9421 12.5674 11.8469 12.7073 11.707C12.8471 11.5672 12.9424 11.389 12.981 11.195C13.0196 11.001 12.9998 10.8 12.9241 10.6172C12.8484 10.4345 12.7202 10.2783 12.5558 10.1685C12.3913 10.0586 12.198 9.99992 12.0002 9.99992C11.735 9.99992 11.4806 10.1053 11.2931 10.2928C11.1055 10.4804 11.0002 10.7347 11.0002 10.9999Z" fill="#141414"/>
</svg>
