<svg width="24" height="24" viewBox="0 0 24 24" fill="none" xmlns="http://www.w3.org/2000/svg">
<path d="M21 11H19C18.7348 11 18.4804 11.1054 18.2929 11.2929C18.1054 11.4804 18 11.7348 18 12C18 12.2652 18.1054 12.5196 18.2929 12.7071C18.4804 12.8946 18.7348 13 19 13H21C21.2652 13 21.5196 12.8946 21.7071 12.7071C21.8946 12.5196 22 12.2652 22 12C22 11.7348 21.8946 11.4804 21.7071 11.2929C21.5196 11.1054 21.2652 11 21 11ZM12 6C12.2652 6 12.5196 5.89464 12.7071 5.70711C12.8946 5.51957 13 5.26522 13 5V3C13 2.73478 12.8946 2.48043 12.7071 2.29289C12.5196 2.10536 12.2652 2 12 2C11.7348 2 11.4804 2.10536 11.2929 2.29289C11.1054 2.48043 11 2.73478 11 3V5C11 5.26522 11.1054 5.51957 11.2929 5.70711C11.4804 5.89464 11.7348 6 12 6ZM17.66 7.76L19.07 6.34C19.1747 6.25035 19.2597 6.14004 19.3197 6.01597C19.3797 5.89191 19.4135 5.75677 19.4188 5.61905C19.4241 5.48133 19.4009 5.344 19.3506 5.21568C19.3004 5.08735 19.2241 4.9708 19.1266 4.87335C19.0292 4.77589 18.9126 4.69964 18.7843 4.64936C18.656 4.59909 18.5187 4.57588 18.3809 4.5812C18.2432 4.58652 18.1081 4.62025 17.984 4.68027C17.86 4.7403 17.7496 4.82532 17.66 4.93L16.24 6.34C16.1468 6.43324 16.0728 6.54393 16.0223 6.66575C15.9719 6.78757 15.9459 6.91814 15.9459 7.05C15.9459 7.18186 15.9719 7.31243 16.0223 7.43425C16.0728 7.55607 16.1468 7.66676 16.24 7.76C16.4283 7.9483 16.6837 8.05409 16.95 8.05409C17.0819 8.05409 17.2124 8.02812 17.3342 7.97766C17.4561 7.9272 17.5668 7.85324 17.66 7.76ZM6 12C6 11.7348 5.89464 11.4804 5.70711 11.2929C5.51957 11.1054 5.26522 11 5 11H3C2.73478 11 2.48043 11.1054 2.29289 11.2929C2.10536 11.4804 2 11.7348 2 12C2 12.2652 2.10536 12.5196 2.29289 12.7071C2.48043 12.8946 2.73478 13 3 13H5C5.26522 13 5.51957 12.8946 5.70711 12.7071C5.89464 12.5196 6 12.2652 6 12ZM11.31 7.07L16.93 12.69C16.9687 12.4618 16.992 12.2313 17 12C17 10.6739 16.4732 9.40215 15.5355 8.46447C14.5979 7.52678 13.3261 7 12 7C11.7687 7.00795 11.5382 7.03134 11.31 7.07ZM6.31 16.24L4.93 17.66C4.82532 17.7496 4.7403 17.86 4.68027 17.984C4.62025 18.1081 4.58652 18.2432 4.5812 18.3809C4.57588 18.5187 4.59909 18.656 4.64936 18.7843C4.69964 18.9126 4.77589 19.0292 4.87335 19.1266C4.9708 19.2241 5.08735 19.3004 5.21568 19.3506C5.344 19.4009 5.48133 19.4241 5.61905 19.4188C5.75677 19.4135 5.89191 19.3797 6.01597 19.3197C6.14004 19.2597 6.25035 19.1747 6.34 19.07L7.76 17.66C7.9483 17.4717 8.05409 17.2163 8.05409 16.95C8.05409 16.6837 7.9483 16.4283 7.76 16.24C7.5717 16.0517 7.3163 15.9459 7.05 15.9459C6.7837 15.9459 6.5283 16.0517 6.34 16.24H6.31ZM4.71 3.29C4.61676 3.19676 4.50607 3.1228 4.38425 3.07234C4.26243 3.02188 4.13186 2.99591 4 2.99591C3.86814 2.99591 3.73757 3.02188 3.61575 3.07234C3.49393 3.1228 3.38324 3.19676 3.29 3.29C3.1017 3.4783 2.99591 3.7337 2.99591 4C2.99591 4.2663 3.1017 4.5217 3.29 4.71L7.83 9.25C7.20272 10.211 6.92508 11.3584 7.04369 12.4999C7.16229 13.6413 7.66992 14.7072 8.48138 15.5186C9.29283 16.3301 10.3587 16.8377 11.5001 16.9563C12.6416 17.0749 13.789 16.7973 14.75 16.17L19.29 20.71C19.383 20.8037 19.4936 20.8781 19.6154 20.9289C19.7373 20.9797 19.868 21.0058 20 21.0058C20.132 21.0058 20.2627 20.9797 20.3846 20.9289C20.5064 20.8781 20.617 20.8037 20.71 20.71C20.8037 20.617 20.8781 20.5064 20.9289 20.3846C20.9797 20.2627 21.0058 20.132 21.0058 20C21.0058 19.868 20.9797 19.7373 20.9289 19.6154C20.8781 19.4936 20.8037 19.383 20.71 19.29L4.71 3.29ZM12 18C11.7348 18 11.4804 18.1054 11.2929 18.2929C11.1054 18.4804 11 18.7348 11 19V21C11 21.2652 11.1054 21.5196 11.2929 21.7071C11.4804 21.8946 11.7348 22 12 22C12.2652 22 12.5196 21.8946 12.7071 21.7071C12.8946 21.5196 13 21.2652 13 21V19C13 18.7348 12.8946 18.4804 12.7071 18.2929C12.5196 18.1054 12.2652 18 12 18Z" fill="#141414"/>
</svg>
