<svg width="24" height="24" viewBox="0 0 24 24" fill="none" xmlns="http://www.w3.org/2000/svg">
<path d="M15 8.00009V7.00009C15 6.73488 14.8946 6.48052 14.7071 6.29299C14.5196 6.10545 14.2652 6.00009 14 6.00009H13V4.00009H13.51C13.7274 3.99843 13.9435 4.0322 14.15 4.10009L16.68 5.00009C16.7862 5.0138 16.8938 5.0138 17 5.00009C17.2181 5.01148 17.4339 4.95117 17.6144 4.82838C17.795 4.70559 17.9304 4.52707 18 4.32009C18.0424 4.19536 18.0597 4.06348 18.0509 3.93203C18.0421 3.80059 18.0075 3.67218 17.9489 3.55416C17.8904 3.43615 17.8091 3.33087 17.7098 3.24437C17.6104 3.15786 17.4949 3.09184 17.37 3.05009L14.83 2.21009C14.4052 2.06524 13.9588 1.99421 13.51 2.00009H9C8.73478 2.00009 8.48043 2.10545 8.29289 2.29299C8.10536 2.48052 8 2.73488 8 3.00009C8 3.26531 8.10536 3.51966 8.29289 3.7072C8.48043 3.89474 8.73478 4.00009 9 4.00009H11V6.00009H10C9.73478 6.00009 9.48043 6.10545 9.29289 6.29299C9.10536 6.48052 9 6.73488 9 7.00009V8.00009C8.20435 8.00009 7.44129 8.31616 6.87868 8.87877C6.31607 9.44138 6 10.2044 6 11.0001V19.0001C6 19.7957 6.31607 20.5588 6.87868 21.1214C7.44129 21.684 8.20435 22.0001 9 22.0001H15C15.7956 22.0001 16.5587 21.684 17.1213 21.1214C17.6839 20.5588 18 19.7957 18 19.0001V11.0001C18 10.2044 17.6839 9.44138 17.1213 8.87877C16.5587 8.31616 15.7956 8.00009 15 8.00009Z" fill="#141414"/>
</svg>
