<svg width="24" height="24" viewBox="0 0 24 24" fill="none" xmlns="http://www.w3.org/2000/svg">
<path d="M10.6 2.13985C9.44804 2.37247 8.37319 2.89138 7.47455 3.64873C6.57592 4.40608 5.88242 5.37749 5.45801 6.47339C5.0336 7.56929 4.89193 8.75441 5.04607 9.91946C5.20021 11.0845 5.6452 12.192 6.34 13.1398C7.39137 14.5446 7.97233 16.2455 8 17.9998C8 19.0607 8.42143 20.0781 9.17157 20.8283C9.92172 21.5784 10.9391 21.9998 12 21.9998C13.0609 21.9998 14.0783 21.5784 14.8284 20.8283C15.5786 20.0781 16 19.0607 16 17.9998C15.9848 16.2852 16.5328 14.6129 17.56 13.2398C18.4271 12.1047 18.9261 10.7314 18.9901 9.30445C19.0542 7.87745 18.6801 6.46503 17.9181 5.25679C17.1562 4.04855 16.0428 3.10234 14.7275 2.54518C13.4123 1.98801 11.958 1.84658 10.56 2.13985H10.6ZM9 10.9998C8.60217 10.9998 8.22064 10.8418 7.93934 10.5605C7.65803 10.2792 7.5 9.89767 7.5 9.49985V8.49985C7.5 8.10203 7.65803 7.72049 7.93934 7.43919C8.22064 7.15789 8.60217 6.99985 9 6.99985C9.39782 6.99985 9.77936 7.15789 10.0607 7.43919C10.342 7.72049 10.5 8.10203 10.5 8.49985V9.49985C10.5 9.89767 10.342 10.2792 10.0607 10.5605C9.77936 10.8418 9.39782 10.9998 9 10.9998ZM14 17.9998C14 18.5303 13.7893 19.039 13.4142 19.4141C13.0391 19.7891 12.5304 19.9998 12 19.9998C11.4696 19.9998 10.9609 19.7891 10.5858 19.4141C10.2107 19.039 10 18.5303 10 17.9998V14.9998C10 14.4694 10.2107 13.9607 10.5858 13.5856C10.9609 13.2106 11.4696 12.9998 12 12.9998C12.5304 12.9998 13.0391 13.2106 13.4142 13.5856C13.7893 13.9607 14 14.4694 14 14.9998V17.9998ZM16.5 9.49985C16.5 9.89767 16.342 10.2792 16.0607 10.5605C15.7794 10.8418 15.3978 10.9998 15 10.9998C14.6022 10.9998 14.2206 10.8418 13.9393 10.5605C13.658 10.2792 13.5 9.89767 13.5 9.49985V8.49985C13.5 8.10203 13.658 7.72049 13.9393 7.43919C14.2206 7.15789 14.6022 6.99985 15 6.99985C15.3978 6.99985 15.7794 7.15789 16.0607 7.43919C16.342 7.72049 16.5 8.10203 16.5 8.49985V9.49985Z" fill="#141414"/>
</svg>
