<svg width="24" height="24" viewBox="0 0 24 24" fill="none" xmlns="http://www.w3.org/2000/svg">
<path d="M12.27 8.00019L14.82 10.5502C14.7169 9.91108 14.415 9.32072 13.9572 8.86296C13.4995 8.4052 12.9091 8.10332 12.27 8.00019ZM4.71 3.29019C4.61676 3.19695 4.50607 3.12299 4.38425 3.07253C4.26243 3.02207 4.13186 2.99609 4 2.99609C3.86814 2.99609 3.73757 3.02207 3.61575 3.07253C3.49393 3.12299 3.38324 3.19695 3.29 3.29019C3.1017 3.47849 2.99591 3.73388 2.99591 4.00019C2.99591 4.26649 3.1017 4.52188 3.29 4.71019L6.66 8.07019C6.46832 8.13947 6.3024 8.26567 6.18444 8.43188C6.06648 8.5981 6.00213 8.79638 6 9.00019V11.0002H4V9.00019C4 8.73497 3.89464 8.48062 3.70711 8.29308C3.51957 8.10554 3.26522 8.00019 3 8.00019C2.73478 8.00019 2.48043 8.10554 2.29289 8.29308C2.10536 8.48062 2 8.73497 2 9.00019V15.0002C2 15.2654 2.10536 15.5198 2.29289 15.7073C2.48043 15.8948 2.73478 16.0002 3 16.0002C3.26522 16.0002 3.51957 15.8948 3.70711 15.7073C3.89464 15.5198 4 15.2654 4 15.0002V13.0002H6V15.0002C6 15.2654 6.10536 15.5198 6.29289 15.7073C6.48043 15.8948 6.73478 16.0002 7 16.0002C7.26522 16.0002 7.51957 15.8948 7.70711 15.7073C7.89464 15.5198 8 15.2654 8 15.0002V9.41019L9 10.4102V15.0002C9 15.2654 9.10536 15.5198 9.29289 15.7073C9.48043 15.8948 9.73478 16.0002 10 16.0002H12C12.6774 15.9745 13.3217 15.7004 13.81 15.2302L19.29 20.7102C19.383 20.8039 19.4936 20.8783 19.6154 20.9291C19.7373 20.9798 19.868 21.006 20 21.006C20.132 21.006 20.2627 20.9798 20.3846 20.9291C20.5064 20.8783 20.617 20.8039 20.71 20.7102C20.8037 20.6172 20.8781 20.5066 20.9289 20.3848C20.9797 20.2629 21.0058 20.1322 21.0058 20.0002C21.0058 19.8682 20.9797 19.7375 20.9289 19.6156C20.8781 19.4937 20.8037 19.3831 20.71 19.2902L4.71 3.29019ZM12 14.0002H11V12.4102L12.4 13.8202C12.2842 13.9134 12.1465 13.9753 12 14.0002ZM21.18 13.0802C21.5891 12.6551 21.8637 12.1187 21.9695 11.5383C22.0754 10.9579 22.0077 10.3592 21.7751 9.81706C21.5424 9.2749 21.1551 8.81338 20.6615 8.49022C20.1679 8.16706 19.59 7.99661 19 8.00019H17C16.7348 8.00019 16.4804 8.10554 16.2929 8.29308C16.1054 8.48062 16 8.73497 16 9.00019V11.7602L18.24 14.0002H19C19.1198 14.01 19.2402 14.01 19.36 14.0002L20.11 15.4902C20.1985 15.6476 20.3279 15.7782 20.4846 15.868C20.6413 15.9578 20.8194 16.0035 21 16.0002C21.1569 16.0021 21.3117 15.9642 21.45 15.8902C21.6855 15.7703 21.864 15.5621 21.9465 15.311C22.0289 15.0599 22.0086 14.7864 21.89 14.5502L21.18 13.0802ZM19 12.0002H18V10.0002H19C19.2652 10.0002 19.5196 10.1055 19.7071 10.2931C19.8946 10.4806 20 10.735 20 11.0002C20 11.2654 19.8946 11.5198 19.7071 11.7073C19.5196 11.8948 19.2652 12.0002 19 12.0002Z" fill="#141414"/>
</svg>
