<svg width="24" height="24" viewBox="0 0 24 24" fill="none" xmlns="http://www.w3.org/2000/svg">
<path d="M21.7098 11.2901L20.9998 10.5901C20.6265 10.2145 20.1194 10.0023 19.5898 10.0001H18.9998C19.1892 9.46694 19.224 8.89111 19.1001 8.33905C18.9763 7.78699 18.6988 7.28121 18.2998 6.88008L14.7098 3.29008C13.9901 2.57318 13.0156 2.17065 11.9998 2.17065C10.984 2.17065 10.0095 2.57318 9.2898 3.29008C9.19607 3.38305 9.12168 3.49365 9.07091 3.61551C9.02014 3.73737 8.994 3.86807 8.994 4.00008C8.994 4.1321 9.02014 4.2628 9.07091 4.38466C9.12168 4.50652 9.19607 4.61712 9.2898 4.71008L10.2898 5.71008C10.4609 5.87852 10.5968 6.07931 10.6896 6.30078C10.7824 6.52225 10.8302 6.75997 10.8302 7.00008C10.8302 7.2402 10.7824 7.47791 10.6896 7.69938C10.5968 7.92086 10.4609 8.12165 10.2898 8.29008C10.1961 8.38305 10.1217 8.49365 10.0709 8.61551C10.0201 8.73737 9.994 8.86807 9.994 9.00008C9.994 9.1321 10.0201 9.2628 10.0709 9.38466C10.1217 9.50652 10.1961 9.61712 10.2898 9.71008L12.8798 12.2901C13.4419 12.8529 14.2044 13.1694 14.9998 13.1701C15.3402 13.1687 15.6781 13.1113 15.9998 13.0001V13.6001C16.0047 14.1262 16.2166 14.6292 16.5898 15.0001L17.2898 15.7101C17.3828 15.8038 17.4934 15.8782 17.6152 15.929C17.7371 15.9797 17.8678 16.0059 17.9998 16.0059C18.1318 16.0059 18.2625 15.9797 18.3844 15.929C18.5062 15.8782 18.6168 15.8038 18.7098 15.7101L21.7098 12.7101C21.8035 12.6171 21.8779 12.5065 21.9287 12.3847C21.9795 12.2628 22.0056 12.1321 22.0056 12.0001C22.0056 11.8681 21.9795 11.7374 21.9287 11.6155C21.8779 11.4936 21.8035 11.383 21.7098 11.2901ZM9.4498 11.6901L3.5898 17.5401C3.30643 17.8016 3.10471 18.1395 3.00895 18.5131C2.91318 18.8866 2.92744 19.2799 3.05002 19.6455C3.1726 20.0111 3.39827 20.3335 3.69984 20.5738C4.00142 20.8142 4.36604 20.9622 4.7498 21.0001H4.9998C5.28058 21.0008 5.55836 20.9424 5.81507 20.8287C6.07179 20.715 6.30169 20.5485 6.4898 20.3401L12.0498 14.2301C11.8319 14.0707 11.6247 13.8969 11.4298 13.7101L9.4498 11.6901Z" fill="#141414"/>
</svg>
