<svg width="24" height="24" viewBox="0 0 24 24" fill="none" xmlns="http://www.w3.org/2000/svg">
<path d="M17.7 10.4001L12.85 2.48005C12.7603 2.33534 12.6352 2.21593 12.4864 2.13311C12.3377 2.0503 12.1702 2.00684 12 2.00684C11.8298 2.00684 11.6623 2.0503 11.5136 2.13311C11.3648 2.21593 11.2397 2.33534 11.15 2.48005L6.3 10.4001C5.4515 11.7845 5.00164 13.3763 5 15.0001C5 16.8566 5.7375 18.637 7.05025 19.9498C8.36301 21.2626 10.1435 22.0001 12 22.0001C13.8565 22.0001 15.637 21.2626 16.9497 19.9498C18.2625 18.637 19 16.8566 19 15.0001C18.9984 13.3763 18.5485 11.7845 17.7 10.4001ZM9.25 10.0001C9.49723 10.0001 9.7389 10.0734 9.94446 10.2107C10.15 10.3481 10.3102 10.5433 10.4048 10.7717C10.4995 11.0001 10.5242 11.2514 10.476 11.4939C10.4278 11.7364 10.3087 11.9591 10.1339 12.1339C9.95907 12.3088 9.73634 12.4278 9.49386 12.476C9.25139 12.5243 9.00005 12.4995 8.77165 12.4049C8.54324 12.3103 8.34801 12.1501 8.21066 11.9445C8.07331 11.739 8 11.4973 8 11.2501C8 10.9185 8.1317 10.6006 8.36612 10.3662C8.60054 10.1317 8.91848 10.0001 9.25 10.0001ZM14.75 18.0001C14.5028 18.0001 14.2611 17.9267 14.0555 17.7894C13.85 17.652 13.6898 17.4568 13.5952 17.2284C13.5005 17 13.4758 16.7487 13.524 16.5062C13.5722 16.2637 13.6913 16.041 13.8661 15.8662C14.0409 15.6914 14.2637 15.5723 14.5061 15.5241C14.7486 15.4758 14.9999 15.5006 15.2284 15.5952C15.4568 15.6898 15.652 15.85 15.7893 16.0556C15.9267 16.2612 16 16.5028 16 16.7501C16 17.0816 15.8683 17.3995 15.6339 17.6339C15.3995 17.8684 15.0815 18.0001 14.75 18.0001ZM15.75 11.7101L9.75 17.7101C9.65704 17.8038 9.54644 17.8782 9.42458 17.9289C9.30272 17.9797 9.17201 18.0059 9.04 18.0059C8.90799 18.0059 8.77728 17.9797 8.65542 17.9289C8.53356 17.8782 8.42296 17.8038 8.33 17.7101C8.23627 17.6171 8.16188 17.5065 8.11111 17.3846C8.06034 17.2628 8.0342 17.1321 8.0342 17.0001C8.0342 16.868 8.06034 16.7373 8.11111 16.6155C8.16188 16.4936 8.23627 16.383 8.33 16.2901L14.33 10.2901C14.5183 10.1017 14.7737 9.99596 15.04 9.99596C15.3063 9.99596 15.5617 10.1017 15.75 10.2901C15.9383 10.4784 16.0441 10.7338 16.0441 11.0001C16.0441 11.2664 15.9383 11.5217 15.75 11.7101Z" fill="#141414"/>
</svg>
