<svg width="24" height="24" viewBox="0 0 24 24" fill="none" xmlns="http://www.w3.org/2000/svg">
<path d="M12.0947 1.61719C6.30473 1.61719 1.59473 6.32719 1.59473 12.1172C1.59473 17.9072 6.30473 22.6172 12.0947 22.6172C17.8847 22.6172 22.5947 17.9072 22.5947 12.1172C22.5947 6.32719 17.8847 1.61719 12.0947 1.61719ZM12.7797 15.9947C12.7797 16.3972 12.4547 16.7272 12.0572 16.7272H12.0022C11.6047 16.7272 11.2797 16.3997 11.2797 15.9947V15.9597C11.2797 15.5572 11.6047 15.2272 12.0022 15.2272H12.0572C12.4547 15.2272 12.7797 15.5547 12.7797 15.9597V15.9947ZM14.0597 11.7822C13.7197 12.1622 13.3122 12.4872 13.0197 12.9072C12.8672 13.1272 12.8572 13.0922 12.7622 13.3497C12.6847 13.5597 12.7322 13.8497 12.6222 14.0547C12.4447 14.3847 12.0772 14.4822 11.7272 14.3347C11.3172 14.1597 11.2547 13.7472 11.2822 13.3497C11.3122 12.8972 11.3822 12.7047 11.6072 12.3022C11.8222 11.9197 12.1397 11.6122 12.4422 11.3022C12.9522 10.7797 13.7222 9.86719 12.8897 9.23469C12.1572 8.67719 11.1622 9.08969 10.9647 9.94969C10.8747 10.3422 10.7447 10.6822 10.3522 10.8122C10.0597 10.9097 9.74723 10.8397 9.56473 10.5897C9.08473 9.93219 9.70223 8.75469 10.1897 8.26969C11.4372 7.02719 13.9297 7.33219 14.6047 9.03719C14.6022 9.03219 14.5997 9.02469 14.5972 9.01969C14.5797 8.97969 14.5722 8.95469 14.5697 8.94719C14.5722 8.95719 14.5847 8.98719 14.5972 9.01969C14.5997 9.02719 14.6022 9.02969 14.6047 9.03719C14.6247 9.08969 14.6347 9.11469 14.6372 9.12219C14.6322 9.10969 14.6197 9.07469 14.6047 9.03969C14.9997 10.0272 14.7522 11.0097 14.0597 11.7822Z" fill="#141414"/>
</svg>
