<svg width="24" height="24" viewBox="0 0 24 24" fill="none" xmlns="http://www.w3.org/2000/svg">
<path d="M4.5 14.0001H7.5C7.89782 14.0001 8.27936 13.842 8.56066 13.5607C8.84196 13.2794 9 12.8979 9 12.5001V11.5001C9 11.1023 8.84196 10.7207 8.56066 10.4394C8.27936 10.1581 7.89782 10.0001 7.5 10.0001H4.5C4.10218 10.0001 3.72064 10.1581 3.43934 10.4394C3.15804 10.7207 3 11.1023 3 11.5001V12.5001C3 12.8979 3.15804 13.2794 3.43934 13.5607C3.72064 13.842 4.10218 14.0001 4.5 14.0001ZM20.5 3.11008C20.2645 2.99051 19.9913 2.96894 19.74 3.05008C19.6152 3.09123 19.4998 3.15657 19.4002 3.24236C19.3007 3.32815 19.2191 3.43272 19.16 3.55008L12.88 16.0001H5C4.46957 16.0001 3.96086 16.2108 3.58579 16.5859C3.21071 16.9609 3 17.4696 3 18.0001V19.0001C3 19.5305 3.21071 20.0392 3.58579 20.4143C3.96086 20.7894 4.46957 21.0001 5 21.0001H10.76C11.3184 21.0012 11.8661 20.8464 12.3414 20.5531C12.8166 20.2598 13.2006 19.8397 13.45 19.3401L20.89 4.45008C20.9575 4.3369 21.002 4.21149 21.0209 4.08106C21.0397 3.95063 21.0326 3.81776 21 3.69008C20.9588 3.56529 20.8935 3.44984 20.8077 3.35032C20.7219 3.2508 20.6174 3.16917 20.5 3.11008Z" fill="#141414"/>
</svg>
