<svg width="24" height="24" viewBox="0 0 24 24" fill="none" xmlns="http://www.w3.org/2000/svg">
<path d="M18 6.0001C18.1978 6.0001 18.3912 5.94145 18.5556 5.83157C18.7201 5.72169 18.8482 5.56551 18.9239 5.38278C18.9996 5.20006 19.0194 4.99899 18.9808 4.80501C18.9422 4.61103 18.847 4.43285 18.7071 4.29299C18.5673 4.15314 18.3891 4.0579 18.1951 4.01931C18.0012 3.98073 17.8001 4.00053 17.6174 4.07622C17.4346 4.15191 17.2785 4.28008 17.1686 4.44453C17.0587 4.60898 17 4.80232 17 5.0001C17 5.26532 17.1054 5.51967 17.2929 5.70721C17.4805 5.89474 17.7348 6.0001 18 6.0001ZM12 9.0001C12.1978 9.0001 12.3912 8.94145 12.5556 8.83157C12.7201 8.72169 12.8482 8.56551 12.9239 8.38278C12.9996 8.20006 13.0194 7.99899 12.9808 7.80501C12.9422 7.61103 12.847 7.43285 12.7071 7.29299C12.5673 7.15314 12.3891 7.0579 12.1951 7.01931C12.0012 6.98073 11.8001 7.00053 11.6174 7.07622C11.4346 7.15191 11.2785 7.28008 11.1686 7.44453C11.0587 7.60898 11 7.80232 11 8.0001C11 8.26532 11.1054 8.51967 11.2929 8.70721C11.4805 8.89474 11.7348 9.0001 12 9.0001ZM3.92004 8.0801C4.28658 8.4408 4.73659 8.70532 5.23004 8.8501C5.92401 9.07446 6.67496 9.04612 7.35004 8.7701C8.02826 8.49991 8.5907 8.00115 8.94004 7.3601C8.97979 7.27566 9.00029 7.18343 9.00004 7.0901C8.99138 6.99434 8.96057 6.9019 8.91004 6.8201C8.85138 6.74412 8.77613 6.68256 8.69004 6.6401C8.59499 6.6151 8.49509 6.6151 8.40004 6.6401C7.77625 6.69179 7.15342 6.52992 6.63374 6.18104C6.11406 5.83217 5.7284 5.31701 5.54004 4.7201C5.40846 4.35888 5.36059 3.97251 5.40004 3.5901C5.41269 3.49384 5.39523 3.39603 5.35004 3.3101C5.31036 3.22226 5.24828 3.14639 5.17004 3.0901C5.08824 3.03957 4.9958 3.00876 4.90004 3.0001C4.80589 2.98982 4.71098 3.01091 4.63004 3.0601C3.98979 3.40924 3.49154 3.97098 3.22132 4.64833C2.95111 5.32569 2.9259 6.07614 3.15004 6.7701C3.29483 7.26355 3.55934 7.71356 3.92004 8.0801ZM19.72 15.0001H20C20.2097 15.0006 20.4142 14.9353 20.5847 14.8133C20.7551 14.6912 20.883 14.5187 20.95 14.3201C20.9924 14.1947 21.0093 14.0621 21 13.9301C20.9755 13.6639 20.8503 13.4172 20.65 13.2401C20.5503 13.1551 20.4347 13.0905 20.31 13.0501L18.25 12.3701L18.95 10.3701C18.9916 10.2442 19.0077 10.1113 18.9974 9.97907C18.9871 9.84688 18.9506 9.71806 18.89 9.6001C18.7719 9.36282 18.5644 9.18214 18.3132 9.09776C18.0619 9.01338 17.7874 9.03221 17.55 9.1501C17.4308 9.20814 17.3243 9.2893 17.2368 9.38888C17.1492 9.48845 17.0824 9.60444 17.04 9.7301L16.36 11.7901L14.3 11.1001C14.1713 11.0745 14.0388 11.0745 13.91 11.1001C13.778 11.108 13.6488 11.142 13.53 11.2001C13.2969 11.3244 13.1186 11.5312 13.03 11.7801C12.9885 11.906 12.9724 12.0389 12.9827 12.1711C12.993 12.3033 13.0295 12.4321 13.09 12.5501C13.2143 12.7832 13.4212 12.9615 13.67 13.0501L15.67 13.7301L14.42 17.4901C13.793 17.1821 13.0938 17.051 12.3978 17.1109C11.7017 17.1708 11.0352 17.4195 10.47 17.8301L9.57004 15.7201L11.3 15.0001C11.4229 14.951 11.5347 14.8779 11.6292 14.7852C11.7236 14.6925 11.7986 14.582 11.85 14.4601C11.9539 14.2173 11.9575 13.9433 11.8601 13.6979C11.7626 13.4525 11.5721 13.2556 11.33 13.1501C11.2081 13.0992 11.0772 13.073 10.945 13.073C10.8129 13.073 10.682 13.0992 10.56 13.1501L8.78004 13.8601L8.00004 11.6101C7.9518 11.4847 7.88058 11.3694 7.79004 11.2701C7.69064 11.1597 7.57206 11.0682 7.44004 11.0001C7.31526 10.9465 7.18086 10.9188 7.04504 10.9188C6.90922 10.9188 6.77482 10.9465 6.65004 11.0001C6.5256 11.0536 6.41333 11.1319 6.32004 11.2301C6.22788 11.3281 6.15645 11.4438 6.11004 11.5701C6.04163 11.7034 6.00403 11.8503 6.00004 12.0001C6.0084 12.1353 6.04233 12.2676 6.10004 12.3901L7.00004 14.5301L5.64004 15.0701C5.5164 15.1159 5.40391 15.1875 5.31004 15.2801C5.21354 15.3688 5.13833 15.4782 5.09004 15.6001C5.03376 15.7206 5.00459 15.8521 5.00459 15.9851C5.00459 16.1181 5.03376 16.2496 5.09004 16.3701C5.16328 16.5522 5.28848 16.7087 5.45004 16.8201C5.60988 16.9364 5.80234 16.9994 6.00004 17.0001C6.1267 17.0004 6.25225 16.9767 6.37004 16.9301L7.78004 16.3601L8.50004 18.0001H8.44004C7.95716 17.9989 7.48085 18.112 7.05004 18.3301C6.62901 18.5537 6.26866 18.8763 6.00004 19.2701C5.66508 19.0753 5.28072 18.982 4.89371 19.0015C4.5067 19.021 4.1337 19.1525 3.82004 19.3801C3.47706 19.6278 3.22148 19.9779 3.09004 20.3801C3.07523 20.4527 3.07523 20.5275 3.09004 20.6001C3.10675 20.6769 3.14098 20.7487 3.19004 20.8101C3.23208 20.8721 3.2911 20.9207 3.36004 20.9501C3.42948 20.9808 3.50417 20.9977 3.58004 21.0001H20.48C20.5565 21.0028 20.6323 20.9856 20.7 20.9501C20.7702 20.9182 20.8319 20.8703 20.88 20.8101C20.927 20.7511 20.961 20.683 20.98 20.6101C20.9951 20.5342 20.9951 20.456 20.98 20.3801C20.8433 19.9752 20.5805 19.6247 20.23 19.3801C19.8731 19.1213 19.4407 18.9877 19 19.0001C18.7648 18.9992 18.5312 19.0398 18.31 19.1201C17.8395 18.5169 17.1562 18.1162 16.4 18.0001L17.66 14.2201L19.72 15.0001Z" fill="#141414"/>
</svg>
