<svg width="24" height="24" viewBox="0 0 24 24" fill="none" xmlns="http://www.w3.org/2000/svg">
<path d="M7 8C6.73478 8 6.48043 8.10536 6.29289 8.29289C6.10536 8.48043 6 8.73478 6 9V11H4V9C4 8.73478 3.89464 8.48043 3.70711 8.29289C3.51957 8.10536 3.26522 8 3 8C2.73478 8 2.48043 8.10536 2.29289 8.29289C2.10536 8.48043 2 8.73478 2 9V15C2 15.2652 2.10536 15.5196 2.29289 15.7071C2.48043 15.8946 2.73478 16 3 16C3.26522 16 3.51957 15.8946 3.70711 15.7071C3.89464 15.5196 4 15.2652 4 15V13H6V15C6 15.2652 6.10536 15.5196 6.29289 15.7071C6.48043 15.8946 6.73478 16 7 16C7.26522 16 7.51957 15.8946 7.70711 15.7071C7.89464 15.5196 8 15.2652 8 15V9C8 8.73478 7.89464 8.48043 7.70711 8.29289C7.51957 8.10536 7.26522 8 7 8ZM21.16 13.08C21.5679 12.6561 21.8421 12.1216 21.9486 11.5431C22.0551 10.9646 21.9891 10.3675 21.7589 9.82612C21.5288 9.28476 21.1445 8.82303 20.654 8.49835C20.1634 8.17366 19.5883 8.00036 19 8H17C16.7348 8 16.4804 8.10536 16.2929 8.29289C16.1054 8.48043 16 8.73478 16 9V15C16 15.2652 16.1054 15.5196 16.2929 15.7071C16.4804 15.8946 16.7348 16 17 16C17.2652 16 17.5196 15.8946 17.7071 15.7071C17.8946 15.5196 18 15.2652 18 15V14H19C19.1198 14.0098 19.2402 14.0098 19.36 14L20.11 15.49C20.1985 15.6475 20.3279 15.778 20.4846 15.8678C20.6413 15.9576 20.8194 16.0033 21 16C21.1569 16.0019 21.3117 15.964 21.45 15.89C21.6855 15.7701 21.864 15.5619 21.9465 15.3108C22.0289 15.0597 22.0086 14.7862 21.89 14.55L21.16 13.08ZM19 12H18V10H19C19.2652 10 19.5196 10.1054 19.7071 10.2929C19.8946 10.4804 20 10.7348 20 11C20 11.2652 19.8946 11.5196 19.7071 11.7071C19.5196 11.8946 19.2652 12 19 12ZM12 8H10C9.73478 8 9.48043 8.10536 9.29289 8.29289C9.10536 8.48043 9 8.73478 9 9V15C9 15.2652 9.10536 15.5196 9.29289 15.7071C9.48043 15.8946 9.73478 16 10 16H12C13 16 15 15.16 15 12C15 8.84 13 8 12 8ZM12 14H11V10H12C12.17 10 13 10.16 13 12C13 13.84 12.17 14 12 14Z" fill="#141414"/>
</svg>
