<svg width="24" height="24" viewBox="0 0 24 24" fill="none" xmlns="http://www.w3.org/2000/svg">
<path d="M9.99998 9.99991C9.73476 9.99991 9.48041 10.1053 9.29287 10.2928C9.10534 10.4803 8.99998 10.7347 8.99998 10.9999V13.9999C8.99998 14.2651 8.89462 14.5195 8.70709 14.707C8.51955 14.8946 8.2652 14.9999 7.99998 14.9999C7.73476 14.9999 7.48041 14.8946 7.29287 14.707C7.10534 14.5195 6.99998 14.2651 6.99998 13.9999V9.90991C7.00108 9.51443 7.1194 9.12816 7.33998 8.79991L10.83 3.54991C10.9478 3.33034 10.9793 3.07472 10.9185 2.83309C10.8577 2.59147 10.7088 2.38126 10.5011 2.24362C10.2934 2.10599 10.0418 2.05085 9.79561 2.08901C9.54939 2.12717 9.32628 2.25587 9.16998 2.44991L5.66998 7.68991C5.23234 8.34752 4.99921 9.11999 4.99998 9.90991V16.9999C4.99876 17.5371 4.91096 18.0706 4.73998 18.5799L4.48998 19.3399C4.38425 19.6423 4.35272 19.9658 4.39805 20.2829C4.44338 20.6001 4.56424 20.9017 4.75046 21.1624C4.93668 21.4231 5.18281 21.6353 5.46813 21.781C5.75345 21.9268 6.0696 22.0018 6.38998 21.9999H8.21998C8.66664 21.9996 9.10033 21.8497 9.45193 21.5742C9.80352 21.2988 10.0528 20.9135 10.16 20.4799L10.7 18.3199C10.8999 17.5254 11.0007 16.7092 11 15.8899V10.9999C11 10.7347 10.8946 10.4803 10.7071 10.2928C10.5196 10.1053 10.2652 9.99991 9.99998 9.99991ZM19.51 19.3699L19.26 18.6099C19.0858 18.0911 18.998 17.5472 19 16.9999V9.90991C19.0008 9.11999 18.7676 8.34752 18.33 7.68991L14.83 2.44991C14.7642 2.3273 14.6736 2.21976 14.5639 2.13417C14.4542 2.04858 14.3278 1.98683 14.1929 1.95286C14.0579 1.9189 13.9174 1.91346 13.7803 1.9369C13.6431 1.96035 13.5124 2.01216 13.3964 2.08902C13.2804 2.16587 13.1817 2.26609 13.1067 2.38326C13.0316 2.50043 12.9819 2.63197 12.9606 2.76947C12.9392 2.90697 12.9469 3.0474 12.9829 3.18178C13.019 3.31617 13.0827 3.44155 13.17 3.54991L16.66 8.79991C16.8806 9.12816 16.9989 9.51443 17 9.90991V13.9999C17 14.2651 16.8946 14.5195 16.7071 14.707C16.5196 14.8946 16.2652 14.9999 16 14.9999C15.7348 14.9999 15.4804 14.8946 15.2929 14.707C15.1053 14.5195 15 14.2651 15 13.9999V10.9999C15 10.7347 14.8946 10.4803 14.7071 10.2928C14.5196 10.1053 14.2652 9.99991 14 9.99991C13.7348 9.99991 13.4804 10.1053 13.2929 10.2928C13.1053 10.4803 13 10.7347 13 10.9999V15.8899C12.9993 16.7092 13.1 17.5254 13.3 18.3199L13.84 20.4799C13.9472 20.9135 14.1964 21.2988 14.548 21.5742C14.8996 21.8497 15.3333 21.9996 15.78 21.9999H17.61C17.9268 22.0002 18.2392 21.9252 18.5214 21.7811C18.8035 21.637 19.0475 21.4279 19.233 21.1711C19.4185 20.9143 19.5404 20.6171 19.5886 20.3039C19.6367 19.9907 19.6098 19.6706 19.51 19.3699Z" fill="#141414"/>
</svg>
