<svg width="24" height="24" viewBox="0 0 24 24" fill="none" xmlns="http://www.w3.org/2000/svg">
<path d="M11.47 2C9.41026 2.17923 7.49476 3.13182 6.10886 4.66613C4.72297 6.20045 3.96951 8.20266 4.00004 10.27V18.39C3.99985 18.8849 4.12211 19.3722 4.35591 19.8084C4.58972 20.2446 4.9278 20.6162 5.34004 20.89L6.00004 21.3C6.12529 21.3834 6.26774 21.4374 6.41678 21.4581C6.56582 21.4788 6.7176 21.4656 6.86082 21.4194C7.00404 21.3733 7.135 21.2954 7.24395 21.1916C7.35289 21.0878 7.43701 20.9608 7.49004 20.82L9.54004 15.35C9.59804 15.1953 9.61678 15.0285 9.59459 14.8648C9.5724 14.701 9.50998 14.5453 9.4129 14.4116C9.31582 14.2779 9.18711 14.1703 9.03828 14.0984C8.88945 14.0266 8.72514 13.9928 8.56004 14H8.00004C7.46961 14 6.9609 13.7893 6.58582 13.4142C6.21075 13.0391 6.00004 12.5304 6.00004 12H10C10.2653 12 10.5196 12.1054 10.7071 12.2929C10.8947 12.4804 11 12.7348 11 13V17C11 17.2652 11.1054 17.5196 11.2929 17.7071C11.4805 17.8946 11.7348 18 12 18C12.2653 18 12.5196 17.8946 12.7071 17.7071C12.8947 17.5196 13 17.2652 13 17V13C13 12.7348 13.1054 12.4804 13.2929 12.2929C13.4805 12.1054 13.7348 12 14 12H18C18 12.5304 17.7893 13.0391 17.4143 13.4142C17.0392 13.7893 16.5305 14 16 14H15.44C15.2791 14.0011 15.1209 14.041 14.9787 14.1163C14.8365 14.1916 14.7146 14.3002 14.6233 14.4327C14.532 14.5652 14.474 14.7178 14.4543 14.8775C14.4346 15.0372 14.4537 15.1993 14.51 15.35L16.51 20.82C16.5631 20.9608 16.6472 21.0878 16.7561 21.1916C16.8651 21.2954 16.996 21.3733 17.1393 21.4194C17.2825 21.4656 17.4343 21.4788 17.5833 21.4581C17.7323 21.4374 17.8748 21.3834 18 21.3L18.61 20.89C19.0315 20.622 19.3794 20.2529 19.6222 19.8163C19.8649 19.3798 19.9948 18.8895 20 18.39V10C20.0024 8.9033 19.7793 7.81782 19.3446 6.81097C18.9098 5.80413 18.2727 4.89743 17.4727 4.14719C16.6728 3.39696 15.7271 2.81921 14.6945 2.44983C13.6619 2.08045 12.5643 1.92734 11.47 2Z" fill="#141414"/>
</svg>
