<svg width="24" height="24" viewBox="0 0 24 24" fill="none" xmlns="http://www.w3.org/2000/svg">
<path d="M21.12 4.88C20.5579 4.31723 19.7954 4.0007 19 4H5C4.20435 4 3.44129 4.31607 2.87868 4.87868C2.31607 5.44129 2 6.20435 2 7V17C2 17.7956 2.31607 18.5587 2.87868 19.1213C3.44129 19.6839 4.20435 20 5 20H19C19.7956 20 20.5587 19.6839 21.1213 19.1213C21.6839 18.5587 22 17.7956 22 17V7C21.9993 6.20462 21.6828 5.44207 21.12 4.88ZM11.5 15C11.5 15.2652 11.3946 15.5196 11.2071 15.7071C11.0196 15.8946 10.7652 16 10.5 16C10.2348 16 9.98043 15.8946 9.79289 15.7071C9.60536 15.5196 9.5 15.2652 9.5 15V13H7.5V15C7.501 15.1991 7.44252 15.394 7.33206 15.5597C7.2216 15.7254 7.0642 15.8543 6.88 15.93C6.69789 16.0066 6.49718 16.0275 6.30319 15.9901C6.1092 15.9528 5.93062 15.8588 5.79 15.72C5.69656 15.6248 5.62192 15.5129 5.57 15.39C5.52089 15.266 5.49709 15.1334 5.5 15V9C5.499 8.80087 5.55748 8.60598 5.66794 8.44029C5.7784 8.2746 5.93581 8.14567 6.12 8.07C6.30211 7.99342 6.50282 7.9725 6.69681 8.00987C6.8908 8.04725 7.06938 8.14124 7.21 8.28C7.30344 8.37518 7.37808 8.48714 7.43 8.61C7.47911 8.73403 7.50291 8.86663 7.5 9V11H9.5V9C9.5 8.73478 9.60536 8.48043 9.79289 8.29289C9.98043 8.10536 10.2348 8 10.5 8C10.7652 8 11.0196 8.10536 11.2071 8.29289C11.3946 8.48043 11.5 8.73478 11.5 9V15ZM16 16H14C13.7348 16 13.4804 15.8946 13.2929 15.7071C13.1054 15.5196 13 15.2652 13 15V9C13 8.73478 13.1054 8.48043 13.2929 8.29289C13.4804 8.10536 13.7348 8 14 8H16C17 8 19 8.84 19 12C19 15.16 17 16 16 16ZM16 10H15V14H16C16.19 14 17 13.84 17 12C17 10.16 16.17 10 16 10Z" fill="#141414"/>
</svg>
