<svg width="24" height="24" viewBox="0 0 24 24" fill="none" xmlns="http://www.w3.org/2000/svg">
<path d="M16.5 2.00001C15.4876 2.00053 14.495 2.28102 13.632 2.81046C12.769 3.33991 12.0692 4.09768 11.61 5.00001H11C10.7348 5.00001 10.4804 5.10536 10.2929 5.2929C10.1054 5.48044 10 5.73479 10 6.00001V6.50001H9.5C8.70435 6.50001 7.94129 6.81608 7.37868 7.37869C6.81607 7.9413 6.5 8.70436 6.5 9.50001V10H6C5.73479 10 5.48043 10.1054 5.2929 10.2929C5.10536 10.4804 5 10.7348 5 11V11.61C3.89986 12.1714 3.02071 13.0868 2.50414 14.2087C1.98757 15.3306 1.86367 16.5937 2.15237 17.7946C2.44107 18.9955 3.12559 20.0643 4.09566 20.8288C5.06573 21.5933 6.26489 22.009 7.5 22.009C8.73511 22.009 9.93428 21.5933 10.9043 20.8288C11.8744 20.0643 12.5589 18.9955 12.8476 17.7946C13.1363 16.5937 13.0124 15.3306 12.4959 14.2087C11.9793 13.0868 11.1001 12.1714 10 11.61V11C10 10.7348 9.89465 10.4804 9.70711 10.2929C9.51957 10.1054 9.26522 10 9 10H8.5V9.50001C8.5 9.23479 8.60536 8.98044 8.7929 8.7929C8.98043 8.60536 9.23479 8.50001 9.5 8.50001H10V9.00001C10 9.26522 10.1054 9.51958 10.2929 9.70711C10.4804 9.89465 10.7348 10 11 10H11.61C12.0545 10.871 12.7232 11.6078 13.5472 12.1344C14.3712 12.661 15.3207 12.9584 16.2979 12.9959C17.275 13.0335 18.2446 12.8098 19.1065 12.348C19.9685 11.8861 20.6917 11.2028 21.2017 10.3685C21.7117 9.53408 21.9901 8.57882 22.0081 7.60109C22.026 6.62336 21.783 5.65851 21.304 4.80596C20.825 3.95341 20.1274 3.24399 19.2829 2.75078C18.4385 2.25757 17.4779 1.99841 16.5 2.00001ZM11 16.5C11 17.1922 10.7947 17.8689 10.4101 18.4445C10.0256 19.0201 9.47894 19.4687 8.8394 19.7336C8.19985 19.9985 7.49612 20.0678 6.81719 19.9328C6.13825 19.7977 5.51461 19.4644 5.02513 18.9749C4.53565 18.4854 4.2023 17.8618 4.06726 17.1828C3.93221 16.5039 4.00152 15.8002 4.26643 15.1606C4.53133 14.5211 4.97994 13.9744 5.55551 13.5899C6.13108 13.2053 6.80777 13 7.5 13C8.42826 13 9.3185 13.3688 9.97488 14.0251C10.6313 14.6815 11 15.5717 11 16.5ZM16.5 11C15.8078 11 15.1311 10.7947 14.5555 10.4102C13.9799 10.0256 13.5313 9.47894 13.2664 8.8394C13.0015 8.19986 12.9322 7.49612 13.0673 6.81719C13.2023 6.13826 13.5356 5.51462 14.0251 5.02513C14.5146 4.53565 15.1383 4.20231 15.8172 4.06726C16.4961 3.93221 17.1999 4.00152 17.8394 4.26643C18.4789 4.53134 19.0256 4.97994 19.4101 5.55551C19.7947 6.13108 20 6.80777 20 7.50001C20 8.42826 19.6313 9.3185 18.9749 9.97488C18.3185 10.6313 17.4283 11 16.5 11Z" fill="#141414"/>
</svg>
