<svg width="24" height="24" viewBox="0 0 24 24" fill="none" xmlns="http://www.w3.org/2000/svg">
<path d="M19 4C19.2652 4 19.5196 3.89464 19.7071 3.70711C19.8946 3.51957 20 3.26522 20 3C20 2.73478 19.8946 2.48043 19.7071 2.29289C19.5196 2.10536 19.2652 2 19 2H5C4.73478 2 4.48043 2.10536 4.29289 2.29289C4.10536 2.48043 4 2.73478 4 3C4 3.26522 4.10536 3.51957 4.29289 3.70711C4.48043 3.89464 4.73478 4 5 4C5.38 8.49 8.35 12 12 12C15.65 12 18.57 8.49 19 4ZM8.51 8C7.68315 6.81747 7.18298 5.43769 7.06 4H16.94C16.817 5.43769 16.3169 6.81747 15.49 8H8.51ZM19 20C18.62 15.51 15.65 12 12.05 12C8.45 12 5.48 15.51 5.1 20H5C4.73478 20 4.48043 20.1054 4.29289 20.2929C4.10536 20.4804 4 20.7348 4 21C4 21.2652 4.10536 21.5196 4.29289 21.7071C4.48043 21.8946 4.73478 22 5 22H19C19.2652 22 19.5196 21.8946 19.7071 21.7071C19.8946 21.5196 20 21.2652 20 21C20 20.7348 19.8946 20.4804 19.7071 20.2929C19.5196 20.1054 19.2652 20 19 20ZM8.51 16C8.88902 15.4115 9.40386 14.9226 10.0112 14.5746C10.6185 14.2265 11.3006 14.0295 12 14C12.6994 14.0295 13.3814 14.2265 13.9888 14.5746C14.5961 14.9226 15.111 15.4115 15.49 16H8.51Z" fill="#141414"/>
</svg>
