<svg width="24" height="24" viewBox="0 0 24 24" fill="none" xmlns="http://www.w3.org/2000/svg">
<path d="M12 10C13.5913 10 15.1174 9.36786 16.2426 8.24264C17.3679 7.11742 18 5.5913 18 4C18 3.73478 17.8946 3.48043 17.7071 3.29289C17.5196 3.10536 17.2652 3 17 3H7C6.73478 3 6.48043 3.10536 6.29289 3.29289C6.10536 3.48043 6 3.73478 6 4C6 5.5913 6.63214 7.11742 7.75736 8.24264C8.88258 9.36786 10.4087 10 12 10ZM8.71 12.29C8.61704 12.1963 8.50644 12.1219 8.38458 12.0711C8.26272 12.0203 8.13201 11.9942 8 11.9942C7.86799 11.9942 7.73728 12.0203 7.61542 12.0711C7.49356 12.1219 7.38296 12.1963 7.29 12.29L5 14.59V14C5 13.7348 4.89464 13.4804 4.70711 13.2929C4.51957 13.1054 4.26522 13 4 13C3.73478 13 3.48043 13.1054 3.29289 13.2929C3.10536 13.4804 3 13.7348 3 14V17C3 17.2652 3.10536 17.5196 3.29289 17.7071C3.48043 17.8946 3.73478 18 4 18H7C7.26522 18 7.51957 17.8946 7.70711 17.7071C7.89464 17.5196 8 17.2652 8 17C8 16.7348 7.89464 16.4804 7.70711 16.2929C7.51957 16.1054 7.26522 16 7 16H6.41L8.71 13.71C8.80373 13.617 8.87812 13.5064 8.92889 13.3846C8.97966 13.2627 9.0058 13.132 9.0058 13C9.0058 12.868 8.97966 12.7373 8.92889 12.6154C8.87812 12.4936 8.80373 12.383 8.71 12.29ZM20 13C19.7348 13 19.4804 13.1054 19.2929 13.2929C19.1054 13.4804 19 13.7348 19 14V14.59L16.71 12.29C16.5217 12.1017 16.2663 11.9959 16 11.9959C15.7337 11.9959 15.4783 12.1017 15.29 12.29C15.1017 12.4783 14.9959 12.7337 14.9959 13C14.9959 13.2663 15.1017 13.5217 15.29 13.71L17.59 16H17C16.7348 16 16.4804 16.1054 16.2929 16.2929C16.1054 16.4804 16 16.7348 16 17C16 17.2652 16.1054 17.5196 16.2929 17.7071C16.4804 17.8946 16.7348 18 17 18H20C20.2652 18 20.5196 17.8946 20.7071 17.7071C20.8946 17.5196 21 17.2652 21 17V14C21 13.7348 20.8946 13.4804 20.7071 13.2929C20.5196 13.1054 20.2652 13 20 13ZM13.29 17.29L13 17.59V13C13 12.7348 12.8946 12.4804 12.7071 12.2929C12.5196 12.1054 12.2652 12 12 12C11.7348 12 11.4804 12.1054 11.2929 12.2929C11.1054 12.4804 11 12.7348 11 13V17.59L10.71 17.29C10.6168 17.1968 10.5061 17.1228 10.3842 17.0723C10.2624 17.0219 10.1319 16.9959 10 16.9959C9.86814 16.9959 9.73757 17.0219 9.61575 17.0723C9.49393 17.1228 9.38324 17.1968 9.29 17.29C9.19676 17.3832 9.1228 17.4939 9.07234 17.6158C9.02188 17.7376 8.99591 17.8681 8.99591 18C8.99591 18.1319 9.02188 18.2624 9.07234 18.3842C9.1228 18.5061 9.19676 18.6168 9.29 18.71L11.29 20.71C11.383 20.8037 11.4936 20.8781 11.6154 20.9289C11.7373 20.9797 11.868 21.0058 12 21.0058C12.132 21.0058 12.2627 20.9797 12.3846 20.9289C12.5064 20.8781 12.617 20.8037 12.71 20.71L14.71 18.71C14.8983 18.5217 15.0041 18.2663 15.0041 18C15.0041 17.7337 14.8983 17.4783 14.71 17.29C14.5217 17.1017 14.2663 16.9959 14 16.9959C13.7337 16.9959 13.4783 17.1017 13.29 17.29Z" fill="#141414"/>
</svg>
