<svg width="24" height="24" viewBox="0 0 24 24" fill="none" xmlns="http://www.w3.org/2000/svg">
<path d="M18.75 8.00003H18.09C18.6415 6.73555 18.9502 5.37863 19 4.00003C18.9987 3.77611 18.9222 3.55911 18.7829 3.3838C18.6436 3.20849 18.4495 3.08502 18.2316 3.03315C18.0138 2.98129 17.7849 3.00403 17.5815 3.09775C17.3781 3.19147 17.2121 3.35073 17.11 3.55003C16.9006 3.95993 16.6421 4.34275 16.34 4.69003C15.7658 4.13328 15.086 3.69697 14.3407 3.40674C13.5954 3.11652 12.7995 2.97823 12 3.00003C11.2005 2.97823 10.4046 3.11652 9.65933 3.40674C8.91401 3.69697 8.23425 4.13328 7.66 4.69003C7.35917 4.34181 7.1007 3.95914 6.89 3.55003C6.78791 3.35073 6.62188 3.19147 6.41851 3.09775C6.21514 3.00403 5.9862 2.98129 5.76836 3.03315C5.55053 3.08502 5.3564 3.20849 5.21709 3.3838C5.07777 3.55911 5.00133 3.77611 5 4.00003C5.04983 5.37863 5.35853 6.73555 5.91 8.00003H5.25C4.65326 8.00003 4.08097 8.23708 3.65901 8.65904C3.23705 9.081 3 9.65329 3 10.25C3.00259 10.4481 3.08244 10.6374 3.22253 10.7775C3.36263 10.9176 3.55189 10.9974 3.75 11H5.25C5.55673 11 5.86 10.9353 6.14 10.81C6.22952 11.2864 6.34638 11.7571 6.49 12.22C6.67986 12.8373 6.81702 13.4696 6.9 14.11C7.77837 13.4006 8.87098 13.0094 10 13H14C15.129 13.0094 16.2216 13.4006 17.1 14.11C17.183 13.4696 17.3201 12.8373 17.51 12.22C17.6536 11.7571 17.7705 11.2864 17.86 10.81C18.14 10.9353 18.4433 11 18.75 11H20.25C20.4481 10.9974 20.6374 10.9176 20.7775 10.7775C20.9176 10.6374 20.9974 10.4481 21 10.25C21 9.65329 20.7629 9.081 20.341 8.65904C19.919 8.23708 19.3467 8.00003 18.75 8.00003ZM9 11C8.80222 11 8.60888 10.9414 8.44443 10.8315C8.27998 10.7216 8.15181 10.5654 8.07612 10.3827C8.00043 10.2 7.98063 9.99892 8.01921 9.80494C8.0578 9.61096 8.15304 9.43278 8.29289 9.29292C8.43275 9.15307 8.61093 9.05783 8.80491 9.01925C8.99889 8.98066 9.19996 9.00046 9.38268 9.07615C9.56541 9.15184 9.72159 9.28001 9.83147 9.44446C9.94135 9.60891 10 9.80225 10 10C10 10.2652 9.89464 10.5196 9.70711 10.7071C9.51957 10.8947 9.26522 11 9 11ZM15 11C14.8022 11 14.6089 10.9414 14.4444 10.8315C14.28 10.7216 14.1518 10.5654 14.0761 10.3827C14.0004 10.2 13.9806 9.99892 14.0192 9.80494C14.0578 9.61096 14.153 9.43278 14.2929 9.29292C14.4327 9.15307 14.6109 9.05783 14.8049 9.01925C14.9989 8.98066 15.2 9.00046 15.3827 9.07615C15.5654 9.15184 15.7216 9.28001 15.8315 9.44446C15.9414 9.60891 16 9.80225 16 10C16 10.2652 15.8946 10.5196 15.7071 10.7071C15.5196 10.8947 15.2652 11 15 11ZM14 15H10C9.20435 15 8.44129 15.3161 7.87868 15.8787C7.31607 16.4413 7 17.2044 7 18C7 18.7957 7.31607 19.5587 7.87868 20.1214C8.44129 20.684 9.20435 21 10 21H14C14.7956 21 15.5587 20.684 16.1213 20.1214C16.6839 19.5587 17 18.7957 17 18C17 17.2044 16.6839 16.4413 16.1213 15.8787C15.5587 15.3161 14.7956 15 14 15Z" fill="#141414"/>
</svg>
