<svg width="24" height="24" viewBox="0 0 24 24" fill="none" xmlns="http://www.w3.org/2000/svg">
<path d="M12 13H10C9.73478 13 9.48043 13.1054 9.29289 13.2929C9.10536 13.4804 9 13.7348 9 14V20C9 20.2652 9.10536 20.5196 9.29289 20.7071C9.48043 20.8946 9.73478 21 10 21H12C13 21 15 20.16 15 17C15 13.84 13 13 12 13ZM12 19H11V15H12C12.17 15 13 15.16 13 17C13 18.84 12.17 19 12 19ZM7 13C6.73478 13 6.48043 13.1054 6.29289 13.2929C6.10536 13.4804 6 13.7348 6 14V16H4V14C4 13.7348 3.89464 13.4804 3.70711 13.2929C3.51957 13.1054 3.26522 13 3 13C2.73478 13 2.48043 13.1054 2.29289 13.2929C2.10536 13.4804 2 13.7348 2 14V20C2 20.2652 2.10536 20.5196 2.29289 20.7071C2.48043 20.8946 2.73478 21 3 21C3.26522 21 3.51957 20.8946 3.70711 20.7071C3.89464 20.5196 4 20.2652 4 20V18H6V20C6 20.2652 6.10536 20.5196 6.29289 20.7071C6.48043 20.8946 6.73478 21 7 21C7.26522 21 7.51957 20.8946 7.70711 20.7071C7.89464 20.5196 8 20.2652 8 20V14C8 13.7348 7.89464 13.4804 7.70711 13.2929C7.51957 13.1054 7.26522 13 7 13ZM19 13H17C16.7348 13 16.4804 13.1054 16.2929 13.2929C16.1054 13.4804 16 13.7348 16 14V20C16 20.2652 16.1054 20.5196 16.2929 20.7071C16.4804 20.8946 16.7348 21 17 21C17.2652 21 17.5196 20.8946 17.7071 20.7071C17.8946 20.5196 18 20.2652 18 20V19H19C19.1198 19.0098 19.2402 19.0098 19.36 19L20.11 20.49C20.1985 20.6475 20.3279 20.778 20.4846 20.8678C20.6413 20.9576 20.8194 21.0033 21 21C21.1569 21.0019 21.3117 20.964 21.45 20.89C21.6855 20.7701 21.864 20.5619 21.9465 20.3108C22.0289 20.0597 22.0086 19.7862 21.89 19.55L21.16 18.08C21.5679 17.6561 21.8421 17.1216 21.9486 16.5431C22.0551 15.9646 21.9891 15.3675 21.7589 14.8261C21.5288 14.2848 21.1445 13.823 20.654 13.4983C20.1634 13.1737 19.5883 13.0004 19 13ZM19 17H18V15H19C19.2652 15 19.5196 15.1054 19.7071 15.2929C19.8946 15.4804 20 15.7348 20 16C20 16.2652 19.8946 16.5196 19.7071 16.7071C19.5196 16.8946 19.2652 17 19 17ZM20 3H16C15.4696 3 14.9609 3.21071 14.5858 3.58579C14.2107 3.96086 14 4.46957 14 5V9C14 9.53043 14.2107 10.0391 14.5858 10.4142C14.9609 10.7893 15.4696 11 16 11H20C20.5304 11 21.0391 10.7893 21.4142 10.4142C21.7893 10.0391 22 9.53043 22 9V5C22 4.46957 21.7893 3.96086 21.4142 3.58579C21.0391 3.21071 20.5304 3 20 3ZM19.68 9.47H19.5C19.3971 9.47793 19.2942 9.45445 19.205 9.40267C19.1157 9.35089 19.0442 9.27325 19 9.18L18.75 8.5H17.22L17 9.18C16.9508 9.30353 16.8554 9.40297 16.734 9.45714C16.6125 9.51131 16.4748 9.51592 16.35 9.47C16.2842 9.45054 16.2229 9.41824 16.1696 9.37497C16.1164 9.3317 16.0722 9.27831 16.0396 9.21789C16.0071 9.15746 15.9869 9.09119 15.98 9.02291C15.9732 8.95462 15.98 8.88566 16 8.82L17.5 4.82C17.5421 4.731 17.6087 4.65578 17.6919 4.60312C17.7751 4.55045 17.8715 4.52249 17.97 4.52249C18.0685 4.52249 18.1649 4.55045 18.2481 4.60312C18.3313 4.65578 18.3979 4.731 18.44 4.82L19.94 8.82C19.9878 8.94106 19.9875 9.07581 19.9391 9.19666C19.8908 9.3175 19.7981 9.41529 19.68 9.47ZM17.6 7.47H18.4L18 6.42L17.6 7.47Z" fill="#141414"/>
</svg>
