<svg width="24" height="24" viewBox="0 0 24 24" fill="none" xmlns="http://www.w3.org/2000/svg">
<path d="M19.47 2.64C19.2824 2.4377 19.0549 2.2764 18.8019 2.16626C18.5489 2.05611 18.2759 1.99951 18 2H5.99999C5.72407 1.99951 5.45103 2.05611 5.19805 2.16626C4.94507 2.2764 4.71761 2.4377 4.52999 2.64C4.34245 2.84165 4.19858 3.07985 4.10738 3.33968C4.01618 3.59952 3.97962 3.87538 3.99999 4.15L4.99999 17.15C5.02847 17.4714 5.13429 17.7812 5.30842 18.0528C5.48255 18.3244 5.71983 18.5499 5.99999 18.71L11 21.71C11.311 21.8969 11.6671 21.9956 12.03 21.9956C12.3929 21.9956 12.7489 21.8969 13.06 21.71L18.06 18.71C18.3401 18.5499 18.5774 18.3244 18.7516 18.0528C18.9257 17.7812 19.0315 17.4714 19.06 17.15L20.06 4.15C20.0725 3.87107 20.0265 3.59261 19.9248 3.33254C19.8232 3.07248 19.6683 2.83657 19.47 2.64ZM13.5 16H9.49999C9.23477 16 8.98042 15.8946 8.79288 15.7071C8.60534 15.5196 8.49999 15.2652 8.49999 15C8.49999 14.7348 8.60534 14.4804 8.79288 14.2929C8.98042 14.1054 9.23477 14 9.49999 14H13.5C13.6348 14.0141 13.771 13.998 13.8988 13.9528C14.0265 13.9075 14.1426 13.8343 14.2384 13.7384C14.3343 13.6426 14.4075 13.5266 14.4527 13.3988C14.498 13.2711 14.5141 13.1348 14.5 13C14.5141 12.8652 14.498 12.729 14.4527 12.6012C14.4075 12.4734 14.3343 12.3574 14.2384 12.2616C14.1426 12.1657 14.0265 12.0925 13.8988 12.0473C13.771 12.002 13.6348 11.9859 13.5 12H9.49999C9.23477 12 8.98042 11.8946 8.79288 11.7071C8.60534 11.5196 8.49999 11.2652 8.49999 11V7C8.49999 6.73479 8.60534 6.48043 8.79288 6.2929C8.98042 6.10536 9.23477 6 9.49999 6H15C15.2652 6 15.5196 6.10536 15.7071 6.2929C15.8946 6.48043 16 6.73479 16 7C16 7.26522 15.8946 7.51957 15.7071 7.70711C15.5196 7.89465 15.2652 8 15 8H10.5V10H13.5C13.8973 9.98751 14.293 10.0566 14.6627 10.2029C15.0323 10.3493 15.368 10.5698 15.6491 10.8509C15.9302 11.132 16.1507 11.4677 16.2971 11.8373C16.4434 12.207 16.5125 12.6027 16.5 13C16.5125 13.3973 16.4434 13.793 16.2971 14.1627C16.1507 14.5323 15.9302 14.868 15.6491 15.1491C15.368 15.4302 15.0323 15.6508 14.6627 15.7971C14.293 15.9434 13.8973 16.0125 13.5 16Z" fill="#141414"/>
</svg>
