<svg width="24" height="24" viewBox="0 0 24 24" fill="none" xmlns="http://www.w3.org/2000/svg">
<path d="M21.4701 9.31017L13.8501 2.70017C13.3389 2.25018 12.6812 2.00195 12.0001 2.00195C11.3191 2.00195 10.6614 2.25018 10.1501 2.70017L2.53013 9.31017C2.2976 9.5094 2.1302 9.77382 2.04958 10.0692C1.96897 10.3646 1.97884 10.6774 2.07793 10.9671C2.17702 11.2569 2.36077 11.5102 2.6054 11.6944C2.85003 11.8785 3.1443 11.9851 3.45013 12.0002H4.00013V19.0002C4.00013 19.7958 4.3162 20.5589 4.87881 21.1215C5.44142 21.6841 6.20448 22.0002 7.00013 22.0002H10.0001V16.0002H14.0001V22.0002H17.0001C17.7958 22.0002 18.5588 21.6841 19.1214 21.1215C19.6841 20.5589 20.0001 19.7958 20.0001 19.0002V12.0002H20.5501C20.856 11.9851 21.1502 11.8785 21.3949 11.6944C21.6395 11.5102 21.8232 11.2569 21.9223 10.9671C22.0214 10.6774 22.0313 10.3646 21.9507 10.0692C21.8701 9.77382 21.7027 9.5094 21.4701 9.31017Z" fill="#141414"/>
</svg>
