<svg width="24" height="24" viewBox="0 0 24 24" fill="none" xmlns="http://www.w3.org/2000/svg">
<path d="M4.00001 11C4.00436 9.03165 4.73424 7.13398 6.05001 5.67001C6.21308 5.48513 6.30211 5.24652 6.30001 5.00001C6.30352 4.86267 6.27869 4.72608 6.22708 4.59877C6.17546 4.47145 6.09817 4.35613 6.00001 4.26001C5.80355 4.08275 5.54483 3.99059 5.28055 4.00371C5.01627 4.01683 4.76795 4.13416 4.59001 4.33001C2.94831 6.16383 2.04059 8.53869 2.04059 11C2.04059 13.4613 2.94831 15.8362 4.59001 17.67C4.678 17.7678 4.78439 17.8474 4.90312 17.9041C5.02185 17.9608 5.15058 17.9936 5.28198 18.0006C5.41337 18.0075 5.54485 17.9885 5.66891 17.9447C5.79297 17.9008 5.90718 17.833 6.00501 17.745C6.10285 17.657 6.18239 17.5506 6.23911 17.4319C6.29583 17.3132 6.3286 17.1844 6.33557 17.053C6.34253 16.9216 6.32355 16.7902 6.2797 16.6661C6.23585 16.5421 6.168 16.4278 6.08001 16.33C4.75334 14.8705 4.01259 12.9723 4.00001 11ZM12 13C12.3956 13 12.7823 12.8827 13.1112 12.6629C13.4401 12.4432 13.6964 12.1308 13.8478 11.7654C13.9991 11.3999 14.0388 10.9978 13.9616 10.6098C13.8844 10.2219 13.6939 9.8655 13.4142 9.5858C13.1345 9.30609 12.7782 9.11561 12.3902 9.03844C12.0022 8.96127 11.6001 9.00087 11.2346 9.15225C10.8692 9.30362 10.5568 9.55997 10.3371 9.88887C10.1173 10.2178 10 10.6044 10 11C10 11.5304 10.2107 12.0391 10.5858 12.4142C10.9609 12.7893 11.4696 13 12 13ZM8.82001 13.39C8.30544 12.6994 8.02749 11.8612 8.02749 11C8.02749 10.1388 8.30544 9.30059 8.82001 8.61001C8.90012 8.50561 8.95888 8.38645 8.99293 8.25934C9.02699 8.13223 9.03568 7.99966 9.0185 7.86919C9.00132 7.73873 8.95861 7.61292 8.89281 7.49896C8.82701 7.385 8.73941 7.28511 8.63501 7.20501C8.53061 7.1249 8.41145 7.06614 8.28434 7.03209C8.15724 6.99803 8.02466 6.98934 7.8942 7.00652C7.76373 7.0237 7.63793 7.06641 7.52396 7.13221C7.41 7.19801 7.31012 7.28561 7.23001 7.39001C6.44634 8.43038 6.0225 9.69751 6.0225 11C6.0225 12.3025 6.44634 13.5696 7.23001 14.61C7.39179 14.8209 7.63071 14.9588 7.8942 14.9935C8.15769 15.0282 8.42416 14.9568 8.63501 14.795C8.84586 14.6332 8.9838 14.3943 9.0185 14.1308C9.05319 13.8673 8.98179 13.6009 8.82001 13.39ZM16.82 7.39001C16.6582 7.17916 16.4193 7.04122 16.1558 7.00652C15.8923 6.97183 15.6259 7.04323 15.415 7.20501C15.2042 7.36679 15.0662 7.60571 15.0315 7.86919C14.9968 8.13268 15.0682 8.39916 15.23 8.61001C15.7446 9.30059 16.0225 10.1388 16.0225 11C16.0225 11.8612 15.7446 12.6994 15.23 13.39C15.0682 13.6009 14.9968 13.8673 15.0315 14.1308C15.0662 14.3943 15.2042 14.6332 15.415 14.795C15.6259 14.9568 15.8923 15.0282 16.1558 14.9935C16.4193 14.9588 16.6582 14.8209 16.82 14.61C17.5965 13.5642 18.0116 12.2942 18.0026 10.9916C17.9935 9.68914 17.5609 8.42494 16.77 7.39001H16.82ZM19.49 4.33001C19.3123 4.13242 19.0634 4.01352 18.798 3.99945C18.5327 3.98539 18.2726 4.07731 18.075 4.25501C17.8774 4.4327 17.7585 4.68161 17.7445 4.94698C17.7304 5.21234 17.8223 5.47242 18 5.67001C19.31 7.13632 20.0342 9.03373 20.0342 11C20.0342 12.9663 19.31 14.8637 18 16.33C17.8369 16.5149 17.7479 16.7535 17.75 17C17.7503 17.1396 17.7799 17.2775 17.8367 17.4049C17.8935 17.5324 17.9764 17.6465 18.08 17.74C18.2765 17.9173 18.5352 18.0094 18.7995 17.9963C19.0638 17.9832 19.3121 17.8659 19.49 17.67C21.1317 15.8362 22.0394 13.4613 22.0394 11C22.0394 8.53869 21.1317 6.16383 19.49 4.33001ZM13.15 14.54C13.0055 14.3778 12.8284 14.248 12.6302 14.1591C12.432 14.0702 12.2172 14.0243 12 14.0243C11.7828 14.0243 11.568 14.0702 11.3698 14.1591C11.1716 14.248 10.9945 14.3778 10.85 14.54L8.35001 17.54C8.16771 17.7589 8.05149 18.0251 8.01496 18.3076C7.97843 18.5901 8.02309 18.8772 8.14372 19.1352C8.26435 19.3933 8.45597 19.6117 8.69615 19.7648C8.93634 19.9179 9.21516 19.9995 9.50001 20H14.5C14.7845 19.9983 15.0627 19.9168 15.3031 19.7647C15.5436 19.6127 15.7365 19.3963 15.86 19.14C15.9824 18.8813 16.0276 18.5929 15.9904 18.3091C15.9531 18.0254 15.835 17.7584 15.65 17.54L13.15 14.54Z" fill="#141414"/>
</svg>
