<svg width="24" height="24" viewBox="0 0 24 24" fill="none" xmlns="http://www.w3.org/2000/svg">
<path d="M20 10.9999H19C19 10.7347 18.8946 10.4803 18.7071 10.2928C18.5196 10.1052 18.2652 9.99989 18 9.99989H17V7.99989C17.2652 7.99989 17.5196 7.89453 17.7071 7.70699C17.8946 7.51946 18 7.2651 18 6.99989C18 6.73467 17.8946 6.48032 17.7071 6.29278C17.5196 6.10524 17.2652 5.99989 17 5.99989H16.9C16.6705 4.8696 16.0573 3.85341 15.1643 3.12351C14.2712 2.3936 13.1534 1.99487 12 1.99487C10.8466 1.99487 9.72875 2.3936 8.83574 3.12351C7.94273 3.85341 7.32951 4.8696 7.1 5.99989H7C6.73478 5.99989 6.48043 6.10524 6.29289 6.29278C6.10536 6.48032 6 6.73467 6 6.99989C6 7.2651 6.10536 7.51946 6.29289 7.70699C6.48043 7.89453 6.73478 7.99989 7 7.99989V9.99989H6C5.73478 9.99989 5.48043 10.1052 5.29289 10.2928C5.10536 10.4803 5 10.7347 5 10.9999H4C3.73478 10.9999 3.48043 11.1052 3.29289 11.2928C3.10536 11.4803 3 11.7347 3 11.9999V13.9999C3 14.2651 3.10536 14.5195 3.29289 14.707C3.48043 14.8945 3.73478 14.9999 4 14.9999H5C5 15.2651 5.10536 15.5195 5.29289 15.707C5.48043 15.8945 5.73478 15.9999 6 15.9999H7V20.9999C7 21.2651 7.10536 21.5195 7.29289 21.707C7.48043 21.8945 7.73478 21.9999 8 21.9999H16C16.2652 21.9999 16.5196 21.8945 16.7071 21.707C16.8946 21.5195 17 21.2651 17 20.9999V15.9999H18C18.2652 15.9999 18.5196 15.8945 18.7071 15.707C18.8946 15.5195 19 15.2651 19 14.9999H20C20.2652 14.9999 20.5196 14.8945 20.7071 14.707C20.8946 14.5195 21 14.2651 21 13.9999V11.9999C21 11.7347 20.8946 11.4803 20.7071 11.2928C20.5196 11.1052 20.2652 10.9999 20 10.9999ZM12 14.9999C11.6044 14.9999 11.2178 14.8826 10.8889 14.6628C10.56 14.4431 10.3036 14.1307 10.1522 13.7653C10.0009 13.3998 9.96126 12.9977 10.0384 12.6097C10.1156 12.2217 10.3061 11.8654 10.5858 11.5857C10.8655 11.306 11.2219 11.1155 11.6098 11.0383C11.9978 10.9611 12.3999 11.0008 12.7654 11.1521C13.1308 11.3035 13.4432 11.5598 13.6629 11.8887C13.8827 12.2176 14 12.6043 14 12.9999C14 13.5303 13.7893 14.039 13.4142 14.4141C13.0391 14.7892 12.5304 14.9999 12 14.9999Z" fill="#141414"/>
</svg>
