<svg width="24" height="24" viewBox="0 0 24 24" fill="none" xmlns="http://www.w3.org/2000/svg">
<path d="M22.0001 10.0701C21.9198 9.77441 21.7526 9.50965 21.5201 9.31009L13.8501 2.70009C13.3398 2.24809 12.6817 1.99854 12.0001 1.99854C11.3184 1.99854 10.6603 2.24809 10.1501 2.70009L2.53007 9.31009C2.29135 9.51205 2.12025 9.7823 2.0398 10.0845C1.95934 10.3866 1.97339 10.7062 2.08007 11.0001C2.1777 11.2893 2.36293 11.5409 2.61007 11.7201C2.85166 11.9071 3.14491 12.0153 3.45007 12.0301H4.00007V19.0301C4.00007 19.8257 4.31614 20.5888 4.87875 21.1514C5.44135 21.714 6.20442 22.0301 7.00007 22.0301H17.0001C17.7957 22.0301 18.5588 21.714 19.1214 21.1514C19.684 20.5888 20.0001 19.8257 20.0001 19.0301V12.0001H20.5501C20.8552 11.9853 21.1485 11.8771 21.3901 11.6901C21.6372 11.5109 21.8224 11.2593 21.9201 10.9701C22.0361 10.6848 22.064 10.3713 22.0001 10.0701ZM16.4601 18.4101C16.0853 18.7826 15.5784 18.9917 15.0501 18.9917C14.5217 18.9917 14.0148 18.7826 13.6401 18.4101L12.0001 16.8501C11.6749 16.9443 11.3386 16.9947 11.0001 17.0001C9.9392 17.0001 8.92178 16.5787 8.17164 15.8285C7.42149 15.0784 7.00007 14.061 7.00007 13.0001C6.99514 12.9235 6.99514 12.8467 7.00007 12.7701C7.02676 12.5831 7.10295 12.4066 7.22075 12.2589C7.33854 12.1112 7.49367 11.9977 7.67007 11.9301C7.84023 11.8719 8.02293 11.8608 8.19891 11.8977C8.3749 11.9347 8.53766 12.0184 8.67007 12.1401L10.2401 13.7101L11.6601 12.2901L10.0901 10.7201C9.94616 10.5814 9.84711 10.4028 9.80571 10.2072C9.76431 10.0117 9.78245 9.80824 9.85779 9.62312C9.93313 9.43799 10.0622 9.2797 10.2284 9.16864C10.3946 9.05759 10.5902 8.99888 10.7901 9.00009H11.0001C12.0609 9.00009 13.0783 9.42152 13.8285 10.1717C14.5786 10.9218 15.0001 11.9392 15.0001 13.0001C14.9947 13.3386 14.9443 13.6749 14.8501 14.0001L16.4101 15.5701C16.5975 15.756 16.7463 15.9772 16.8478 16.2209C16.9494 16.4647 17.0017 16.7261 17.0017 16.9901C17.0017 17.2541 16.9494 17.5155 16.8478 17.7592C16.7463 18.003 16.5975 18.2242 16.4101 18.4101H16.4601Z" fill="#141414"/>
</svg>
