<svg width="24" height="24" viewBox="0 0 24 24" fill="none" xmlns="http://www.w3.org/2000/svg">
<path d="M9.84 14.0804C9.89 14.1404 9.96 14.1904 10.01 14.2404C10.51 14.7104 11.16 15.0004 11.87 15.0004C11.89 15.0004 11.91 15.0004 11.93 15.0004C11.95 15.0004 11.97 15.0004 11.99 15.0004C13.42 15.0004 14.61 14.0004 14.91 12.6704C14.91 12.6704 14.91 12.6504 14.91 12.6404C14.95 12.4304 14.98 12.2204 14.98 12.0004C14.98 11.8004 14.96 11.6004 14.92 11.4004V11.3804C14.82 10.8904 14.64 10.4204 14.45 9.96035C13.94 8.69035 13.42 7.39035 14.68 5.17035C15.05 4.63035 15.42 4.09035 15.79 3.57035C16.1 3.13035 16.01 2.52035 15.58 2.19035C15.15 1.86035 14.53 1.94035 14.2 2.36035C13.74 2.93035 13.37 3.47035 13.07 3.98035C11.43 6.39035 8.99 10.2504 8.99 11.8404C8.99 11.8604 8.99 11.8904 8.99 11.9104C8.99 11.9304 8.99 11.9604 8.99 11.9804C8.99 12.7904 9.31 13.5204 9.83 14.0604L9.84 14.0804ZM7 12.0004V11.8604C7 11.4804 7 10.7404 7.8 9.00035H4C2.9 9.00035 2 9.90035 2 11.0004V13.0004H7.11C7.04 12.6704 7 12.3404 7 12.0004ZM20 9.00035H16.24C16.27 9.07035 16.3 9.14035 16.33 9.22035C16.56 9.78035 16.77 10.3404 16.89 10.9404V10.9804L16.91 11.0104V11.0404C16.98 11.3804 17.01 11.6904 17.01 12.0004C17.01 12.3204 16.97 12.6604 16.9 13.0004H22.01V11.0004C22.01 9.90035 21.11 9.00035 20.01 9.00035H20ZM12.02 17.0004H11.88C10.7 17.0004 9.56 16.5404 8.67 15.7104C8.65 15.6904 8.62 15.6704 8.6 15.6504L8.56 15.6204L8.43 15.4904L8.33 15.3904L8.31 15.3604C8.21 15.2504 8.13 15.1304 8.05 15.0104H2V17.0104C2 18.1104 2.9 19.0104 4 19.0104H20C21.1 19.0104 22 18.1104 22 17.0104V15.0104H15.98C15.07 16.2304 13.63 17.0004 12.02 17.0104V17.0004Z" fill="#141414"/>
</svg>
