<svg width="24" height="24" viewBox="0 0 24 24" fill="none" xmlns="http://www.w3.org/2000/svg">
<path d="M21.93 12.8298C21.6842 10.5941 20.6919 8.50642 19.1132 6.90421C17.5346 5.30199 15.4619 4.27877 13.23 3.99983C11.7517 3.82013 10.2519 3.97287 8.84013 4.44692C7.42838 4.92096 6.14033 5.70434 5.07003 6.73983C3.99347 7.77196 3.16295 9.03311 2.64003 10.4298C2.11496 11.8219 1.90713 13.3136 2.03169 14.7962C2.15625 16.2788 2.61006 17.7149 3.36003 18.9998C3.53982 19.2993 3.79052 19.55 4.09003 19.7298C4.39387 19.9061 4.73878 19.9992 5.09003 19.9998H18.92C19.271 19.9969 19.6153 19.904 19.92 19.7298C20.2194 19.5532 20.4675 19.3016 20.64 18.9998C21.7336 17.1397 22.1867 14.9722 21.93 12.8298ZM6.57003 16.5898C6.68338 16.8286 6.69757 17.1026 6.60949 17.3518C6.52142 17.6011 6.33825 17.8053 6.10003 17.9198C5.96594 17.9848 5.81903 18.019 5.67003 18.0198C5.48281 18.0204 5.29918 17.9685 5.14003 17.8698C4.97554 17.7694 4.84358 17.6235 4.76004 17.4498C4.25278 16.3708 3.99312 15.1921 4.00003 13.9998C4.00365 12.6506 4.34845 11.3242 5.00235 10.1441C5.65625 8.96391 6.59801 7.96829 7.74003 7.24983C8.87952 6.53211 10.1817 6.11365 11.526 6.03324C12.8703 5.95282 14.2131 6.21306 15.43 6.78983C15.559 6.84142 15.6776 6.91596 15.78 7.00983C15.8715 7.11035 15.9458 7.22521 16 7.34983C16.0483 7.48105 16.072 7.62003 16.07 7.75983C16.0617 7.89499 16.0277 8.02733 15.97 8.14983C15.9135 8.27777 15.8279 8.39076 15.72 8.47983C15.6186 8.56796 15.4992 8.63281 15.37 8.66983C15.2383 8.71485 15.0987 8.73188 14.96 8.71983C14.8231 8.70094 14.6909 8.65686 14.57 8.58983C13.4506 8.05498 12.1929 7.8803 10.97 8.08983C9.74883 8.29715 8.62299 8.88105 7.75003 9.75983C6.87096 10.6363 6.28539 11.7639 6.07405 12.9872C5.86271 14.2105 6.036 15.4692 6.57003 16.5898ZM13.4 16.0598C13.3208 16.2419 13.209 16.408 13.07 16.5498C12.9354 16.6974 12.7674 16.8106 12.58 16.8798C12.3972 16.9599 12.1996 17.0007 12 16.9998C11.6028 16.9973 11.2223 16.8394 10.94 16.5598C10.6591 16.2786 10.5014 15.8973 10.5014 15.4998C10.5014 15.1023 10.6591 14.7211 10.94 14.4398C11.2223 14.1603 11.6028 14.0023 12 13.9998H12.14L17.32 9.24983C17.419 9.16125 17.5345 9.09327 17.66 9.04983C17.782 8.99895 17.9129 8.97275 18.045 8.97275C18.1772 8.97275 18.3081 8.99895 18.43 9.04983C18.5493 9.10232 18.6552 9.18092 18.74 9.27983C18.8284 9.37704 18.8994 9.48865 18.95 9.60983C18.9861 9.73661 19.0029 9.86807 19 9.99983C18.9903 10.1305 18.9599 10.2587 18.91 10.3798C18.8507 10.5005 18.7693 10.609 18.67 10.6998L13.5 15.4798C13.5076 15.678 13.4735 15.8756 13.4 16.0598ZM19.22 17.4298C19.1392 17.6022 19.0108 17.7479 18.85 17.8498C18.688 17.9503 18.5007 18.0023 18.31 17.9998C18.1615 17.9954 18.0153 17.9614 17.88 17.8998C17.6412 17.7849 17.4578 17.5799 17.37 17.3298C17.2751 17.0854 17.2751 16.8143 17.37 16.5698C17.7729 15.7723 17.9884 14.8933 18 13.9998C18 13.7346 18.1054 13.4803 18.2929 13.2927C18.4805 13.1052 18.7348 12.9998 19 12.9998C19.1316 12.9991 19.2621 13.0243 19.3839 13.0741C19.5058 13.1238 19.6166 13.1972 19.71 13.2898C19.8027 13.3833 19.876 13.4941 19.9258 13.6159C19.9756 13.7378 20.0008 13.8682 20 13.9998C20.0085 15.1881 19.7415 16.3621 19.22 17.4298Z" fill="#141414"/>
</svg>
