<svg width="24" height="24" viewBox="0 0 24 24" fill="none" xmlns="http://www.w3.org/2000/svg">
<path d="M18.29 15.29L16 17.59L15.71 17.29C15.6168 17.1968 15.5061 17.1228 15.3842 17.0724C15.2624 17.0219 15.1319 16.9959 15 16.9959C14.8681 16.9959 14.7376 17.0219 14.6158 17.0724C14.4939 17.1228 14.3832 17.1968 14.29 17.29C14.1968 17.3833 14.1228 17.494 14.0723 17.6158C14.0219 17.7376 13.9959 17.8682 13.9959 18C13.9959 18.1319 14.0219 18.2625 14.0723 18.3843C14.1228 18.5061 14.1968 18.6168 14.29 18.71L15.29 19.71C15.383 19.8038 15.4936 19.8782 15.6154 19.9289C15.7373 19.9797 15.868 20.0058 16 20.0058C16.132 20.0058 16.2627 19.9797 16.3846 19.9289C16.5064 19.8782 16.617 19.8038 16.71 19.71L19.71 16.71C19.8983 16.5217 20.0041 16.2663 20.0041 16C20.0041 15.7337 19.8983 15.4783 19.71 15.29C19.5217 15.1017 19.2663 14.9959 19 14.9959C18.7337 14.9959 18.4783 15.1017 18.29 15.29ZM10 15C9.20435 15 8.44129 15.3161 7.87868 15.8787C7.31607 16.4413 7 17.2044 7 18C7 18.7957 7.31607 19.5587 7.87868 20.1214C8.44129 20.684 9.20435 21 10 21H13C12.3383 20.1399 11.9795 19.0852 11.9795 18C11.9795 16.9149 12.3383 15.8601 13 15H10ZM18.75 8.00003H18.09C18.6415 6.73555 18.9502 5.37863 19 4.00003C18.9987 3.77611 18.9222 3.55911 18.7829 3.3838C18.6436 3.20849 18.4495 3.08502 18.2316 3.03315C18.0138 2.98129 17.7849 3.00403 17.5815 3.09775C17.3781 3.19147 17.2121 3.35073 17.11 3.55003C16.9006 3.95993 16.6421 4.34275 16.34 4.69003C15.7658 4.13328 15.086 3.69697 14.3407 3.40674C13.5954 3.11652 12.7995 2.97823 12 3.00003C11.2005 2.97823 10.4046 3.11652 9.65933 3.40674C8.91401 3.69697 8.23425 4.13328 7.66 4.69003C7.35917 4.34181 7.1007 3.95914 6.89 3.55003C6.78791 3.35073 6.62188 3.19147 6.41851 3.09775C6.21514 3.00403 5.9862 2.98129 5.76836 3.03315C5.55053 3.08502 5.3564 3.20849 5.21709 3.3838C5.07777 3.55911 5.00133 3.77611 5 4.00003C5.04983 5.37863 5.35853 6.73555 5.91 8.00003H5.25C4.65326 8.00003 4.08097 8.23708 3.65901 8.65904C3.23705 9.081 3 9.65329 3 10.25C3.00259 10.4481 3.08244 10.6374 3.22253 10.7775C3.36263 10.9176 3.55189 10.9974 3.75 11H5.25C5.55673 11 5.86 10.9353 6.14 10.81C6.22952 11.2864 6.34638 11.7571 6.49 12.22C6.67986 12.8373 6.81702 13.4696 6.9 14.11C7.77837 13.4006 8.87098 13.0094 10 13H14C14.5099 13.005 15.016 13.0893 15.5 13.25C15.9843 13.0907 16.4902 13.0064 17 13H17.3C17.36 12.71 17.44 12.44 17.51 12.19C17.6536 11.7271 17.7705 11.2564 17.86 10.78C18.14 10.9053 18.4433 10.97 18.75 10.97H20.25C20.4481 10.9674 20.6374 10.8876 20.7775 10.7475C20.9176 10.6074 20.9974 10.4181 21 10.22C20.9921 9.62851 20.7516 9.06389 20.3305 8.6484C19.9094 8.23291 19.3416 7.99998 18.75 8.00003ZM9 11C8.80222 11 8.60888 10.9414 8.44443 10.8315C8.27998 10.7216 8.15181 10.5654 8.07612 10.3827C8.00043 10.2 7.98063 9.99892 8.01921 9.80494C8.0578 9.61096 8.15304 9.43278 8.29289 9.29292C8.43275 9.15307 8.61093 9.05783 8.80491 9.01925C8.99889 8.98066 9.19996 9.00046 9.38268 9.07615C9.56541 9.15184 9.72159 9.28001 9.83147 9.44446C9.94135 9.60891 10 9.80225 10 10C10 10.2652 9.89464 10.5196 9.70711 10.7071C9.51957 10.8947 9.26522 11 9 11ZM15 11C14.8022 11 14.6089 10.9414 14.4444 10.8315C14.28 10.7216 14.1518 10.5654 14.0761 10.3827C14.0004 10.2 13.9806 9.99892 14.0192 9.80494C14.0578 9.61096 14.153 9.43278 14.2929 9.29292C14.4327 9.15307 14.6109 9.05783 14.8049 9.01925C14.9989 8.98066 15.2 9.00046 15.3827 9.07615C15.5654 9.15184 15.7216 9.28001 15.8315 9.44446C15.9414 9.60891 16 9.80225 16 10C16 10.2652 15.8946 10.5196 15.7071 10.7071C15.5196 10.8947 15.2652 11 15 11Z" fill="#141414"/>
</svg>
