<svg width="24" height="24" viewBox="0 0 24 24" fill="none" xmlns="http://www.w3.org/2000/svg">
<path d="M7.63001 15.07L2.63001 17.07C2.41335 17.1556 2.23338 17.3142 2.12118 17.5184C2.00898 17.7225 1.97158 17.9595 2.01545 18.1883C2.05931 18.4171 2.18168 18.6234 2.36143 18.7716C2.54119 18.9198 2.76704 19.0006 3.00001 19C3.12666 19.0003 3.25222 18.9766 3.37001 18.93L8.37001 16.93C8.49214 16.8814 8.6035 16.8092 8.69774 16.7176C8.79198 16.626 8.86725 16.5167 8.91925 16.396C8.97125 16.2753 8.99896 16.1455 9.00081 16.0141C9.00266 15.8826 8.9786 15.7521 8.93001 15.63C8.88142 15.5079 8.80925 15.3965 8.71762 15.3023C8.626 15.208 8.5167 15.1328 8.39599 15.0808C8.27527 15.0288 8.1455 15.001 8.01407 14.9992C7.88264 14.9974 7.75214 15.0214 7.63001 15.07ZM14 4H13C12.4696 4 11.9609 4.21071 11.5858 4.58579C11.2107 4.96086 11 5.46957 11 6V18C11 18.5304 11.2107 19.0391 11.5858 19.4142C11.9609 19.7893 12.4696 20 13 20H14C16.1217 20 18.1566 19.1571 19.6569 17.6569C21.1572 16.1566 22 14.1217 22 12C22 9.87827 21.1572 7.84344 19.6569 6.34315C18.1566 4.84285 16.1217 4 14 4ZM8.00001 13C8.26522 13 8.51958 12.8946 8.70712 12.7071C8.89465 12.5196 9.00001 12.2652 9.00001 12C9.00001 11.7348 8.89465 11.4804 8.70712 11.2929C8.51958 11.1054 8.26522 11 8.00001 11H3.00001C2.73479 11 2.48044 11.1054 2.2929 11.2929C2.10537 11.4804 2.00001 11.7348 2.00001 12C2.00001 12.2652 2.10537 12.5196 2.2929 12.7071C2.48044 12.8946 2.73479 13 3.00001 13H8.00001ZM8.37001 7.07L3.37001 5.07C3.12336 4.97187 2.84783 4.97574 2.60403 5.08076C2.36023 5.18578 2.16814 5.38335 2.07001 5.63C1.97188 5.87665 1.97575 6.15218 2.08077 6.39598C2.18579 6.63978 2.38336 6.83187 2.63001 6.93L7.63001 8.93C7.7478 8.97655 7.87336 9.00031 8.00001 9C8.23298 9.00057 8.45883 8.91978 8.63858 8.77159C8.81834 8.62339 8.94071 8.41708 8.98457 8.18828C9.02843 7.95948 8.99104 7.72255 8.87884 7.51838C8.76663 7.31421 8.58667 7.15563 8.37001 7.07Z" fill="#141414"/>
</svg>
