<svg width="24" height="24" viewBox="0 0 24 24" fill="none" xmlns="http://www.w3.org/2000/svg">
<path d="M12 11.5C12.2967 11.5 12.5867 11.412 12.8334 11.2472C13.08 11.0824 13.2723 10.8481 13.3858 10.574C13.4994 10.2999 13.5291 9.99834 13.4712 9.70736C13.4133 9.41639 13.2704 9.14912 13.0607 8.93934C12.8509 8.72956 12.5836 8.5867 12.2926 8.52882C12.0017 8.47094 11.7001 8.50065 11.426 8.61418C11.1519 8.72771 10.9176 8.91997 10.7528 9.16665C10.588 9.41332 10.5 9.70333 10.5 10C10.5 10.3978 10.658 10.7794 10.9393 11.0607C11.2206 11.342 11.6022 11.5 12 11.5ZM17 2H7C6.20435 2 5.44129 2.31607 4.87868 2.87868C4.31607 3.44129 4 4.20435 4 5V19C4 19.7956 4.31607 20.5587 4.87868 21.1213C5.44129 21.6839 6.20435 22 7 22H17C17.7956 22 18.5587 21.6839 19.1213 21.1213C19.6839 20.5587 20 19.7956 20 19V5C20 4.20435 19.6839 3.44129 19.1213 2.87868C18.5587 2.31607 17.7956 2 17 2ZM12 6C12.5872 5.9925 13.1689 6.11441 13.7037 6.35705C14.2385 6.59969 14.7134 6.95713 15.0945 7.40396C15.4756 7.85079 15.7536 8.37606 15.9088 8.94246C16.064 9.50885 16.0926 10.1025 15.9926 10.6812C15.8925 11.2599 15.6663 11.8094 15.3299 12.2908C14.9935 12.7722 14.5552 13.1736 14.0462 13.4666C13.5372 13.7595 12.9699 13.9368 12.3847 13.9857C11.7995 14.0347 11.2106 13.9542 10.66 13.75H10.71C10.8983 13.5617 11.0041 13.3063 11.0041 13.04C11.0041 12.7737 10.8983 12.5183 10.71 12.33C10.5217 12.1417 10.2663 12.0359 10 12.0359C9.7337 12.0359 9.4783 12.1417 9.29 12.33L9 12.6C8.50512 12.0215 8.18561 11.3138 8.07899 10.56C7.97237 9.80621 8.08308 9.03765 8.3981 8.34459C8.71313 7.65154 9.21939 7.06277 9.85742 6.64746C10.4954 6.23215 11.2387 6.00753 12 6ZM18 19C18 19.2652 17.8946 19.5196 17.7071 19.7071C17.5196 19.8946 17.2652 20 17 20H7C6.73478 20 6.48043 19.8946 6.29289 19.7071C6.10536 19.5196 6 19.2652 6 19V18C6 17.7348 6.10536 17.4804 6.29289 17.2929C6.48043 17.1054 6.73478 17 7 17H17C17.2652 17 17.5196 17.1054 17.7071 17.2929C17.8946 17.4804 18 17.7348 18 18V19Z" fill="#141414"/>
</svg>
