<svg width="24" height="24" viewBox="0 0 24 24" fill="none" xmlns="http://www.w3.org/2000/svg">
<path d="M20 11H19V10C19 8.14348 18.2625 6.36301 16.9497 5.05025C15.637 3.7375 13.8565 3 12 3C10.1435 3 8.36301 3.7375 7.05025 5.05025C5.7375 6.36301 5 8.14348 5 10V11H4C3.46957 11 2.96086 11.2107 2.58579 11.5858C2.21071 11.9609 2 12.4696 2 13V17C2 17.5304 2.21071 18.0391 2.58579 18.4142C2.96086 18.7893 3.46957 19 4 19H5C5.53043 19 6.03914 18.7893 6.41421 18.4142C6.78929 18.0391 7 17.5304 7 17V10C7 8.67392 7.52678 7.40215 8.46447 6.46447C9.40215 5.52678 10.6739 5 12 5C13.3261 5 14.5979 5.52678 15.5355 6.46447C16.4732 7.40215 17 8.67392 17 10V17C17 17.5304 17.2107 18.0391 17.5858 18.4142C17.9609 18.7893 18.4696 19 19 19H20C20.5304 19 21.0391 18.7893 21.4142 18.4142C21.7893 18.0391 22 17.5304 22 17V13C22 12.4696 21.7893 11.9609 21.4142 11.5858C21.0391 11.2107 20.5304 11 20 11ZM15.55 17.17L13.05 15.5L15.55 13.83C15.68 13.7376 15.786 13.6153 15.8592 13.4736C15.9324 13.3318 15.9705 13.1745 15.9705 13.015C15.9705 12.8555 15.9324 12.6982 15.8592 12.5564C15.786 12.4147 15.68 12.2924 15.55 12.2L11.55 9.2C11.406 9.09817 11.2377 9.0362 11.0621 9.0204C10.8865 9.00459 10.7098 9.0355 10.55 9.11C10.3851 9.1931 10.2464 9.32024 10.1493 9.47733C10.0522 9.63443 10.0006 9.81533 10 10V13.46L9.55 13.17C9.33043 13.0522 9.0748 13.0207 8.83318 13.0815C8.59156 13.1423 8.38134 13.2911 8.24371 13.4988C8.10608 13.7065 8.05094 13.9581 8.0891 14.2044C8.12726 14.4506 8.25596 14.6737 8.45 14.83L9.45 15.5L8.45 16.17C8.24572 16.3237 8.10803 16.5497 8.06522 16.8017C8.02241 17.0537 8.07773 17.3125 8.21982 17.525C8.3619 17.7375 8.57997 17.8875 8.82921 17.9443C9.07846 18.001 9.33996 17.9601 9.56 17.83L10.01 17.53V21C10.0106 21.1847 10.0622 21.3656 10.1593 21.5227C10.2564 21.6798 10.3951 21.8069 10.56 21.89C10.695 21.9632 10.8464 22.0011 11 22C11.2164 22 11.4269 21.9298 11.6 21.8L15.6 18.8C15.73 18.7076 15.836 18.5853 15.9092 18.4436C15.9824 18.3018 16.0205 18.1445 16.0205 17.985C16.0205 17.8255 15.9824 17.6682 15.9092 17.5264C15.836 17.3847 15.73 17.2624 15.6 17.17H15.55ZM12 12L13.27 12.95L12 13.8V12ZM12 19V17.2L13.27 18.05L12 19Z" fill="#141414"/>
</svg>
