<svg width="24" height="24" viewBox="0 0 24 24" fill="none" xmlns="http://www.w3.org/2000/svg">
<path d="M19.5499 9.59C19.5072 9.08956 19.2778 8.6235 18.9073 8.28445C18.5367 7.9454 18.0522 7.75818 17.5499 7.76H16.0499V7.05C16.0499 5.97587 15.6232 4.94574 14.8637 4.18622C14.1042 3.42669 13.0741 3 11.9999 3C10.9258 3 9.89568 3.42669 9.13616 4.18622C8.37663 4.94574 7.94994 5.97587 7.94994 7.05V7.76H6.43994C5.93769 7.75818 5.45314 7.9454 5.08259 8.28445C4.71204 8.6235 4.48263 9.08956 4.43994 9.59L3.74994 17.75C3.71528 18.1645 3.76718 18.5816 3.90234 18.975C4.03751 19.3683 4.25298 19.7292 4.53509 20.0349C4.8172 20.3405 5.15978 20.5841 5.54106 20.7502C5.92235 20.9164 6.33402 21.0014 6.74994 21H17.2499C17.6659 21.0014 18.0775 20.9164 18.4588 20.7502C18.8401 20.5841 19.1827 20.3405 19.4648 20.0349C19.7469 19.7292 19.9624 19.3683 20.0975 18.975C20.2327 18.5816 20.2846 18.1645 20.2499 17.75L19.5499 9.59ZM14.0499 7.76H9.99994V7.05C9.99994 6.50631 10.2159 5.98488 10.6004 5.60043C10.9848 5.21598 11.5062 5 12.0499 5C12.5936 5 13.1151 5.21598 13.4995 5.60043C13.884 5.98488 14.0999 6.50631 14.0999 7.05L14.0499 7.76Z" fill="#141414"/>
</svg>
