<svg width="24" height="24" viewBox="0 0 24 24" fill="none" xmlns="http://www.w3.org/2000/svg">
<path d="M22.0001 10.0701C21.9198 9.77441 21.7526 9.50965 21.5201 9.31009L13.8501 2.70009C13.3398 2.24809 12.6817 1.99854 12.0001 1.99854C11.3184 1.99854 10.6603 2.24809 10.1501 2.70009L2.53007 9.31009C2.29135 9.51205 2.12025 9.7823 2.0398 10.0845C1.95934 10.3866 1.97339 10.7062 2.08007 11.0001C2.1777 11.2893 2.36293 11.5409 2.61007 11.7201C2.85166 11.9071 3.14491 12.0153 3.45007 12.0301H4.00007V19.0301C4.00007 19.8257 4.31614 20.5888 4.87875 21.1514C5.44135 21.714 6.20442 22.0301 7.00007 22.0301H17.0001C17.7957 22.0301 18.5588 21.714 19.1214 21.1514C19.684 20.5888 20.0001 19.8257 20.0001 19.0301V12.0001H20.5501C20.8552 11.9853 21.1485 11.8771 21.3901 11.6901C21.6372 11.5109 21.8224 11.2593 21.9201 10.9701C22.0361 10.6848 22.064 10.3713 22.0001 10.0701ZM12.0001 19.0001C11.8023 19.0001 11.6089 18.9414 11.4445 18.8316C11.28 18.7217 11.1519 18.5655 11.0762 18.3828C11.0005 18.2 10.9807 17.999 11.0193 17.805C11.0579 17.611 11.1531 17.4328 11.293 17.293C11.4328 17.1531 11.611 17.0579 11.805 17.0193C11.999 16.9807 12.2 17.0005 12.3827 17.0762C12.5655 17.1519 12.7217 17.2801 12.8315 17.4445C12.9414 17.609 13.0001 17.8023 13.0001 18.0001C13.0001 18.2653 12.8947 18.5197 12.7072 18.7072C12.5196 18.8947 12.2653 19.0001 12.0001 19.0001ZM15.3801 15.2301C15.2916 15.3794 15.1657 15.503 15.0149 15.589C14.8642 15.6749 14.6936 15.7201 14.5201 15.7201C14.341 15.7173 14.1655 15.6691 14.0101 15.5801C13.4097 15.2071 12.7169 15.0094 12.0101 15.0094C11.3032 15.0094 10.6105 15.2071 10.0101 15.5801C9.78447 15.682 9.52908 15.6967 9.29331 15.6212C9.05754 15.5457 8.85815 15.3855 8.73372 15.1715C8.60929 14.9574 8.56867 14.7049 8.61972 14.4626C8.67077 14.2204 8.80985 14.0057 9.01007 13.8601C9.92541 13.3007 10.9773 13.0048 12.0501 13.0048C13.1228 13.0048 14.1747 13.3007 15.0901 13.8601C15.3081 14.005 15.4607 14.2297 15.5149 14.4859C15.5691 14.742 15.5207 15.0092 15.3801 15.2301ZM17.8301 12.0801C17.7383 12.2158 17.6147 12.3269 17.4699 12.4036C17.3252 12.4803 17.1639 12.5203 17.0001 12.5201C16.8006 12.5205 16.6056 12.4613 16.4401 12.3501C15.1212 11.4842 13.5778 11.0228 12.0001 11.0228C10.4223 11.0228 8.87898 11.4842 7.56007 12.3501C7.33994 12.4986 7.06982 12.5536 6.80915 12.503C6.54847 12.4523 6.31859 12.3002 6.17007 12.0801C6.02154 11.86 5.96655 11.5898 6.01719 11.3292C6.06782 11.0685 6.21994 10.8386 6.44007 10.6901C8.09257 9.6081 10.0249 9.03179 12.0001 9.03179C13.9753 9.03179 15.9076 9.6081 17.5601 10.6901C17.6692 10.7635 17.7628 10.8578 17.8354 10.9674C17.9081 11.0771 17.9584 11.2 17.9835 11.3291C18.0085 11.4582 18.0079 11.591 17.9816 11.7199C17.9553 11.8487 17.9038 11.9711 17.8301 12.0801Z" fill="#141414"/>
</svg>
