<svg width="24" height="24" viewBox="0 0 24 24" fill="none" xmlns="http://www.w3.org/2000/svg">
<path d="M9.84 15.08L10.02 15.24C10.5186 15.7241 11.1851 15.9965 11.88 16H12C12.6785 15.9991 13.3366 15.7682 13.8669 15.345C14.3972 14.9218 14.7685 14.3314 14.92 13.67C14.9689 13.4499 14.9957 13.2255 15 13C14.9999 12.7985 14.9798 12.5976 14.94 12.4C14.8275 11.9197 14.6701 11.451 14.47 11C14.0719 10.2567 13.8839 9.41889 13.9261 8.5767C13.9684 7.73451 14.2394 6.91977 14.71 6.22003C15.07 5.67003 15.45 5.14003 15.81 4.62003C15.9421 4.40804 15.99 4.1543 15.9444 3.90874C15.8988 3.66319 15.763 3.44358 15.5636 3.29312C15.3643 3.14267 15.1158 3.07226 14.8672 3.09574C14.6185 3.11923 14.3877 3.23491 14.22 3.42003C13.8058 3.92112 13.4249 4.44893 13.08 5.00003C11.44 7.41003 9 11.27 9 12.86C9 12.86 9 12.91 9 12.93C9 12.95 9 13 9 13C9.0005 13.7759 9.30157 14.5214 9.84 15.08ZM20 11H16.58C16.8579 11.6301 17.0009 12.3114 17 13C17 14.3261 16.4732 15.5979 15.5355 16.5356C14.5979 17.4732 13.3261 18 12 18C10.6739 18 9.40215 17.4732 8.46447 16.5356C7.52678 15.5979 7 14.3261 7 13C6.99907 12.3114 7.14213 11.6301 7.42 11H4C3.46957 11 2.96086 11.2107 2.58579 11.5858C2.21071 11.9609 2 12.4696 2 13V18C2 18.5305 2.21071 19.0392 2.58579 19.4142C2.96086 19.7893 3.46957 20 4 20H20C20.5304 20 21.0391 19.7893 21.4142 19.4142C21.7893 19.0392 22 18.5305 22 18V13C22 12.4696 21.7893 11.9609 21.4142 11.5858C21.0391 11.2107 20.5304 11 20 11Z" fill="#141414"/>
</svg>
