<svg width="24" height="24" viewBox="0 0 24 24" fill="none" xmlns="http://www.w3.org/2000/svg">
<path d="M21.5799 6.19003C21.4517 6.09711 21.3033 6.03596 21.1468 6.01162C20.9903 5.98728 20.8303 6.00044 20.6799 6.05003L16.4599 7.46003L15.9999 11.12C15.9822 11.2695 15.9309 11.4131 15.8499 11.54L19.3699 10.54C20.131 10.3118 20.7981 9.84396 21.272 9.20615C21.7458 8.56833 22.0011 7.7946 21.9999 7.00003C21.9992 6.84138 21.9607 6.68518 21.8877 6.54434C21.8147 6.40349 21.7092 6.28205 21.5799 6.19003ZM12.7799 15.25L13.0499 12.6L14.4499 11.89C14.5962 11.8158 14.7219 11.7068 14.8161 11.5725C14.9103 11.4382 14.97 11.2828 14.9899 11.12L15.9899 3.12003C16.007 2.98045 15.9945 2.83884 15.9531 2.70443C15.9118 2.57003 15.8425 2.44586 15.7499 2.34003C15.6562 2.23336 15.5409 2.14787 15.4116 2.08925C15.2822 2.03062 15.1419 2.00021 14.9999 2.00003C14.2034 1.9965 13.4344 2.2911 12.844 2.82591C12.2537 3.36071 11.8848 4.09701 11.8099 4.89003L11.2099 10.8L8.43994 11.61C7.9846 10.9065 7.2913 10.3903 6.48674 10.1557C5.68217 9.92118 4.82008 9.98398 4.05801 10.3327C3.29593 10.6813 2.68477 11.2926 2.33621 12.0547C1.98765 12.8168 1.92497 13.6789 2.15962 14.4835C2.39428 15.288 2.91059 15.9812 3.61422 16.4365C4.31784 16.8917 5.16179 17.0785 5.99181 16.9628C6.82184 16.8471 7.58252 16.4366 8.13484 15.8064C8.68716 15.1761 8.99423 14.3681 8.99994 13.53L10.9999 12.94L10.7899 15.07C9.96105 15.2376 9.2202 15.698 8.7029 16.367C8.18561 17.036 7.92644 17.8689 7.97282 18.7133C8.0192 19.5577 8.36802 20.3571 8.95547 20.9654C9.54292 21.5738 10.3297 21.9502 11.172 22.026C12.0143 22.1018 12.8557 21.8719 13.5423 21.3783C14.2289 20.8846 14.7149 20.1603 14.9113 19.3377C15.1077 18.5152 15.0014 17.6494 14.6119 16.8988C14.2223 16.1482 13.5756 15.5629 12.7899 15.25H12.7799ZM5.49994 15C5.20327 15 4.91326 14.9121 4.66659 14.7472C4.41991 14.5824 4.22765 14.3481 4.11412 14.0741C4.00059 13.8 3.97088 13.4984 4.02876 13.2074C4.08664 12.9164 4.2295 12.6491 4.43928 12.4394C4.64906 12.2296 4.91633 12.0867 5.20731 12.0289C5.49828 11.971 5.79988 12.0007 6.07397 12.1142C6.34805 12.2277 6.58232 12.42 6.74714 12.6667C6.91197 12.9134 6.99994 13.2034 6.99994 13.5C6.99994 13.8979 6.84191 14.2794 6.5606 14.5607C6.2793 14.842 5.89777 15 5.49994 15ZM11.4999 20C11.2033 20 10.9133 19.9121 10.6666 19.7472C10.4199 19.5824 10.2277 19.3481 10.1141 19.0741C10.0006 18.8 9.97088 18.4984 10.0288 18.2074C10.0866 17.9164 10.2295 17.6492 10.4393 17.4394C10.6491 17.2296 10.9163 17.0867 11.2073 17.0289C11.4983 16.971 11.7999 17.0007 12.074 17.1142C12.3481 17.2277 12.5823 17.42 12.7471 17.6667C12.912 17.9134 12.9999 18.2034 12.9999 18.5C12.9999 18.8979 12.8419 19.2794 12.5606 19.5607C12.2793 19.842 11.8978 20 11.4999 20Z" fill="#141414"/>
</svg>
