<svg width="24" height="24" viewBox="0 0 24 24" fill="none" xmlns="http://www.w3.org/2000/svg">
<path d="M19.12 2.88C18.56 2.32 17.79 2 17 2H7C6.2 2 5.44 2.32 4.88 2.88C4.32 3.44 4 4.21 4 5V19C4 19.8 4.32 20.56 4.88 21.12C5.44 21.68 6.21 22 7 22H17C17.8 22 18.56 21.68 19.12 21.12C19.68 20.56 20 19.79 20 19V5C20 4.2 19.68 3.44 19.12 2.88ZM9.29 7.29C9.48 7.1 9.73 7 10 7H11V6C11 5.73 11.11 5.48 11.29 5.29C11.47 5.1 11.73 5 12 5C12.27 5 12.52 5.11 12.71 5.29C12.9 5.47 13 5.73 13 6V7H14C14.27 7 14.52 7.11 14.71 7.29C14.9 7.48 15 7.73 15 8C15 8.27 14.89 8.52 14.71 8.71C14.53 8.9 14.27 9 14 9H13V10C13 10.27 12.89 10.52 12.71 10.71C12.52 10.9 12.27 11 12 11C11.73 11 11.48 10.89 11.29 10.71C11.1 10.52 11 10.27 11 10V9H10C9.73 9 9.48 8.89 9.29 8.71C9.1 8.52 9 8.27 9 8C9 7.73 9.11 7.48 9.29 7.29ZM15.7 18.7C15.51 18.89 15.26 18.99 14.99 18.99H8.99C8.72 18.99 8.47 18.88 8.28 18.7C8.09 18.51 7.99 18.26 7.99 17.99C7.99 17.72 8.1 17.47 8.28 17.28C8.47 17.09 8.72 16.99 8.99 16.99H14.99C15.26 16.99 15.51 17.1 15.7 17.28C15.89 17.46 15.99 17.72 15.99 17.99C15.99 18.26 15.88 18.51 15.7 18.7ZM16.7 14.7C16.51 14.89 16.26 14.99 15.99 14.99H8C7.73 14.99 7.48 14.88 7.29 14.7C7.1 14.51 7 14.26 7 13.99C7 13.72 7.11 13.47 7.29 13.28C7.48 13.09 7.73 12.99 8 12.99H16C16.27 12.99 16.52 13.1 16.71 13.28C16.9 13.46 17 13.72 17 13.99C17 14.26 16.89 14.51 16.71 14.7H16.7Z" fill="#141414"/>
</svg>
