<svg width="24" height="24" viewBox="0 0 24 24" fill="none" xmlns="http://www.w3.org/2000/svg">
<path d="M19.4999 12C19.1782 11.9985 18.8651 12.104 18.6099 12.3L15.9999 11.78C15.9469 10.7823 15.5224 9.84049 14.8099 9.14L15.9999 7C16.4403 7.00045 16.8685 6.85556 17.2181 6.5878C17.5677 6.32004 17.8192 5.94439 17.9335 5.51913C18.0478 5.09386 18.0185 4.64277 17.8502 4.23582C17.682 3.82888 17.3841 3.48884 17.0029 3.26847C16.6216 3.04809 16.1783 2.9597 15.7417 3.01701C15.3051 3.07432 14.8996 3.27413 14.5881 3.58543C14.2767 3.89672 14.0767 4.30211 14.0191 4.7387C13.9616 5.17528 14.0498 5.61864 14.2699 6L13.0499 8.16C12.7094 8.05659 12.3558 8.0027 11.9999 8C11.3994 8.00165 10.8074 8.14196 10.2699 8.41L7.99995 5.7C8.00486 5.63343 8.00486 5.56658 7.99995 5.5C7.99984 5.20506 7.91279 4.91669 7.74966 4.67095C7.58654 4.42522 7.3546 4.23303 7.08283 4.11842C6.81106 4.00381 6.51154 3.97186 6.22171 4.02657C5.93188 4.08128 5.66462 4.22022 5.45333 4.42601C5.24205 4.63181 5.09613 4.89533 5.03381 5.18361C4.97149 5.4719 4.99555 5.77216 5.10297 6.04685C5.21039 6.32154 5.39642 6.55846 5.63777 6.72799C5.87913 6.89752 6.16511 6.99214 6.45995 7L8.73995 9.69C8.26013 10.3648 8.00157 11.172 7.99995 12C8.00455 12.2012 8.02461 12.4018 8.05995 12.6L6.18995 13.4C5.84649 13.1424 5.42926 13.0022 4.99995 13C4.61525 13.0028 4.23952 13.1165 3.9178 13.3274C3.59608 13.5383 3.34202 13.8376 3.18608 14.1893C3.03014 14.5409 2.97894 14.9301 3.03861 15.3102C3.09829 15.6902 3.26631 16.045 3.52253 16.332C3.77875 16.6189 4.1123 16.8259 4.48319 16.9281C4.85407 17.0303 5.24656 17.0233 5.6136 16.9081C5.98063 16.7928 6.30664 16.5742 6.55253 16.2783C6.79843 15.9824 6.95377 15.6219 6.99995 15.24L8.86995 14.44C9.23947 14.9201 9.71321 15.31 10.2554 15.5802C10.7976 15.8504 11.3942 15.994 11.9999 16H12.0999L12.5599 17.62C12.2026 17.9908 12.002 18.4851 11.9999 19C11.9999 19.5304 12.2107 20.0391 12.5857 20.4142C12.9608 20.7893 13.4695 21 13.9999 21C14.5304 21 15.0391 20.7893 15.4142 20.4142C15.7892 20.0391 15.9999 19.5304 15.9999 19C15.9979 18.5564 15.8485 18.126 15.5751 17.7767C15.3018 17.4273 14.92 17.1787 14.4899 17.07L13.9999 15.43C14.6779 15.0331 15.2239 14.4453 15.5699 13.74L18.1899 14.26C18.3228 14.486 18.5125 14.6732 18.7401 14.803C18.9678 14.9328 19.2256 15.0007 19.4877 14.9999C19.7498 14.9991 20.0071 14.9296 20.234 14.7985C20.4609 14.6673 20.6494 14.4789 20.7808 14.2521C20.9123 14.0254 20.982 13.7681 20.9831 13.5061C20.9842 13.244 20.9165 12.9862 20.787 12.7583C20.6574 12.5305 20.4704 12.3406 20.2446 12.2076C20.0188 12.0745 19.762 12.0029 19.4999 12Z" fill="#141414"/>
</svg>
