<svg width="24" height="24" viewBox="0 0 24 24" fill="none" xmlns="http://www.w3.org/2000/svg">
<path d="M17 2H7C6.20435 2 5.44129 2.31607 4.87868 2.87868C4.31607 3.44129 4 4.20435 4 5V15C4.86271 14.3456 5.9172 13.9941 7 14H17C18.0828 13.9941 19.1373 14.3456 20 15V5C20 4.20435 19.6839 3.44129 19.1213 2.87868C18.5587 2.31607 17.7956 2 17 2ZM17 16H7C6.20435 16 5.44129 16.3161 4.87868 16.8787C4.31607 17.4413 4 18.2044 4 19C4 19.7956 4.31607 20.5587 4.87868 21.1213C5.44129 21.6839 6.20435 22 7 22H17C17.7956 22 18.5587 21.6839 19.1213 21.1213C19.6839 20.5587 20 19.7956 20 19C20 18.2044 19.6839 17.4413 19.1213 16.8787C18.5587 16.3161 17.7956 16 17 16ZM17 20C16.8022 20 16.6089 19.9414 16.4444 19.8315C16.28 19.7216 16.1518 19.5654 16.0761 19.3827C16.0004 19.2 15.9806 18.9989 16.0192 18.8049C16.0578 18.6109 16.153 18.4327 16.2929 18.2929C16.4327 18.153 16.6109 18.0578 16.8049 18.0192C16.9989 17.9806 17.2 18.0004 17.3827 18.0761C17.5654 18.1518 17.7216 18.28 17.8315 18.4444C17.9414 18.6089 18 18.8022 18 19C18 19.2652 17.8946 19.5196 17.7071 19.7071C17.5196 19.8946 17.2652 20 17 20Z" fill="#141414"/>
</svg>
