<svg width="24" height="24" viewBox="0 0 24 24" fill="none" xmlns="http://www.w3.org/2000/svg">
<path d="M15 2H9C8.20435 2 7.44129 2.31607 6.87868 2.87868C6.31607 3.44129 6 4.20435 6 5V19C6 19.7956 6.31607 20.5587 6.87868 21.1213C7.44129 21.6839 8.20435 22 9 22H15C15.7956 22 16.5587 21.6839 17.1213 21.1213C17.6839 20.5587 18 19.7956 18 19V5C18 4.20435 17.6839 3.44129 17.1213 2.87868C16.5587 2.31607 15.7956 2 15 2ZM10 5C10.1978 5 10.3911 5.05865 10.5556 5.16853C10.72 5.27841 10.8482 5.43459 10.9239 5.61732C10.9996 5.80004 11.0194 6.00111 10.9808 6.19509C10.9422 6.38907 10.847 6.56725 10.7071 6.70711C10.5673 6.84696 10.3891 6.9422 10.1951 6.98079C10.0011 7.01937 9.80004 6.99957 9.61732 6.92388C9.43459 6.84819 9.27841 6.72002 9.16853 6.55557C9.05865 6.39112 9 6.19778 9 6C9 5.73478 9.10536 5.48043 9.29289 5.29289C9.48043 5.10536 9.73478 5 10 5ZM16 19C16 19.2652 15.8946 19.5196 15.7071 19.7071C15.5196 19.8946 15.2652 20 15 20H9C8.73478 20 8.48043 19.8946 8.29289 19.7071C8.10536 19.5196 8 19.2652 8 19V11C7.99924 10.8684 8.02446 10.7379 8.07423 10.6161C8.12399 10.4943 8.19732 10.3834 8.29 10.29L9.29 9.29C9.38296 9.19627 9.49356 9.12188 9.61542 9.07111C9.73728 9.02034 9.86799 8.9942 10 8.9942C10.132 8.9942 10.2627 9.02034 10.3846 9.07111C10.5064 9.12188 10.617 9.19627 10.71 9.29L12 10.59L14.29 8.29C14.4306 8.15124 14.6092 8.05725 14.8032 8.01987C14.9972 7.9825 15.1979 8.00342 15.38 8.08C15.5626 8.15502 15.7189 8.28242 15.8293 8.44614C15.9396 8.60986 15.999 8.80257 16 9V19ZM12 16C11.8022 16 11.6089 16.0586 11.4444 16.1685C11.28 16.2784 11.1518 16.4346 11.0761 16.6173C11.0004 16.8 10.9806 17.0011 11.0192 17.1951C11.0578 17.3891 11.153 17.5673 11.2929 17.7071C11.4327 17.847 11.6109 17.9422 11.8049 17.9808C11.9989 18.0194 12.2 17.9996 12.3827 17.9239C12.5654 17.8482 12.7216 17.72 12.8315 17.5556C12.9414 17.3911 13 17.1978 13 17C13 16.7348 12.8946 16.4804 12.7071 16.2929C12.5196 16.1054 12.2652 16 12 16Z" fill="#141414"/>
</svg>
