<svg width="24" height="24" viewBox="0 0 24 24" fill="none" xmlns="http://www.w3.org/2000/svg">
<path d="M11.29 16.71C11.383 16.8037 11.4936 16.8781 11.6154 16.9289C11.7373 16.9797 11.868 17.0058 12 17.0058C12.132 17.0058 12.2627 16.9797 12.3846 16.9289C12.5064 16.8781 12.617 16.8037 12.71 16.71L15.71 13.71C15.8983 13.5217 16.0041 13.2663 16.0041 13C16.0041 12.7337 15.8983 12.4783 15.71 12.29C15.5217 12.1017 15.2663 11.9959 15 11.9959C14.7337 11.9959 14.4783 12.1017 14.29 12.29L13 13.59V3C13 2.73478 12.8946 2.48043 12.7071 2.29289C12.5196 2.10536 12.2652 2 12 2C11.7348 2 11.4804 2.10536 11.2929 2.29289C11.1054 2.48043 11 2.73478 11 3V13.59L9.71 12.29C9.5217 12.1017 9.2663 11.9959 9 11.9959C8.7337 11.9959 8.4783 12.1017 8.29 12.29C8.1017 12.4783 7.99591 12.7337 7.99591 13C7.99591 13.2663 8.1017 13.5217 8.29 13.71L11.29 16.71ZM20 12C19.7348 12 19.4804 12.1054 19.2929 12.2929C19.1054 12.4804 19 12.7348 19 13V19C19 19.2652 18.8946 19.5196 18.7071 19.7071C18.5196 19.8946 18.2652 20 18 20H6C5.73478 20 5.48043 19.8946 5.29289 19.7071C5.10536 19.5196 5 19.2652 5 19V13C5 12.7348 4.89464 12.4804 4.70711 12.2929C4.51957 12.1054 4.26522 12 4 12C3.73478 12 3.48043 12.1054 3.29289 12.2929C3.10536 12.4804 3 12.7348 3 13V19C3 19.7956 3.31607 20.5587 3.87868 21.1213C4.44129 21.6839 5.20435 22 6 22H18C18.7956 22 19.5587 21.6839 20.1213 21.1213C20.6839 20.5587 21 19.7956 21 19V13C21 12.7348 20.8946 12.4804 20.7071 12.2929C20.5196 12.1054 20.2652 12 20 12Z" fill="#141414"/>
</svg>
