<svg width="24" height="24" viewBox="0 0 24 24" fill="none" xmlns="http://www.w3.org/2000/svg">
<path d="M6 3H4C3.46957 3 2.96086 3.21071 2.58579 3.58579C2.21071 3.96086 2 4.46957 2 5V19C2 19.5304 2.21071 20.0391 2.58579 20.4142C2.96086 20.7893 3.46957 21 4 21H6C6.53043 21 7.03914 20.7893 7.41421 20.4142C7.78929 20.0391 8 19.5304 8 19V5C8 4.46957 7.78929 3.96086 7.41421 3.58579C7.03914 3.21071 6.53043 3 6 3ZM21.12 4.88C20.5579 4.31723 19.7954 4.0007 19 4H9V20H19C19.7956 20 20.5587 19.6839 21.1213 19.1213C21.6839 18.5587 22 17.7956 22 17V7C21.9993 6.20462 21.6828 5.44207 21.12 4.88ZM13.21 17.71C13.0454 17.8748 12.8285 17.9769 12.5966 17.9988C12.3648 18.0207 12.1325 17.961 11.94 17.83C11.7758 17.7214 11.6499 17.564 11.58 17.38C11.5028 17.1969 11.4819 16.995 11.52 16.8C11.5556 16.6042 11.6489 16.4234 11.7878 16.2809C11.9268 16.1384 12.1051 16.0406 12.3 16C12.495 15.9619 12.6969 15.9828 12.88 16.06C13.064 16.1299 13.2214 16.2558 13.33 16.42C13.461 16.6125 13.5207 16.8448 13.4988 17.0766C13.4769 17.3085 13.3748 17.5254 13.21 17.69V17.71ZM13.21 14.71C13.0454 14.8748 12.8285 14.9769 12.5966 14.9988C12.3648 15.0207 12.1325 14.961 11.94 14.83C11.7758 14.7214 11.6499 14.564 11.58 14.38C11.5028 14.1969 11.4819 13.995 11.52 13.8C11.5556 13.6042 11.6489 13.4234 11.7878 13.2809C11.9268 13.1384 12.1051 13.0406 12.3 13C12.495 12.9619 12.6969 12.9828 12.88 13.06C13.064 13.1299 13.2214 13.2558 13.33 13.42C13.461 13.6125 13.5207 13.8448 13.4988 14.0766C13.4769 14.3085 13.3748 14.5254 13.21 14.69V14.71ZM16.21 17.71C16.0454 17.8748 15.8285 17.9769 15.5966 17.9988C15.3648 18.0207 15.1325 17.961 14.94 17.83C14.7758 17.7214 14.6499 17.564 14.58 17.38C14.5028 17.1969 14.4819 16.995 14.52 16.8C14.5556 16.6042 14.6489 16.4234 14.7878 16.2809C14.9268 16.1384 15.1051 16.0406 15.3 16C15.495 15.9619 15.6969 15.9828 15.88 16.06C16.064 16.1299 16.2214 16.2558 16.33 16.42C16.461 16.6125 16.5207 16.8448 16.4988 17.0766C16.4769 17.3085 16.3748 17.5254 16.21 17.69V17.71ZM16.21 14.71C16.0454 14.8748 15.8285 14.9769 15.5966 14.9988C15.3648 15.0207 15.1325 14.961 14.94 14.83C14.7758 14.7214 14.6499 14.564 14.58 14.38C14.5028 14.1969 14.4819 13.995 14.52 13.8C14.5556 13.6042 14.6489 13.4234 14.7878 13.2809C14.9268 13.1384 15.1051 13.0406 15.3 13C15.495 12.9619 15.6969 12.9828 15.88 13.06C16.064 13.1299 16.2214 13.2558 16.33 13.42C16.461 13.6125 16.5207 13.8448 16.4988 14.0766C16.4769 14.3085 16.3748 14.5254 16.21 14.69V14.71ZM19.21 17.71C19.0454 17.8748 18.8285 17.9769 18.5966 17.9988C18.3648 18.0207 18.1325 17.961 17.94 17.83C17.7758 17.7214 17.6499 17.564 17.58 17.38C17.5028 17.1969 17.4819 16.995 17.52 16.8C17.5556 16.6042 17.6489 16.4234 17.7878 16.2809C17.9268 16.1384 18.1051 16.0406 18.3 16C18.495 15.9619 18.6969 15.9828 18.88 16.06C19.064 16.1299 19.2214 16.2558 19.33 16.42C19.461 16.6125 19.5207 16.8448 19.4988 17.0766C19.4769 17.3085 19.3748 17.5254 19.21 17.69V17.71ZM19.21 14.71C19.0454 14.8748 18.8285 14.9769 18.5966 14.9988C18.3648 15.0207 18.1325 14.961 17.94 14.83C17.7758 14.7214 17.6499 14.564 17.58 14.38C17.5028 14.1969 17.4819 13.995 17.52 13.8C17.5556 13.6042 17.6489 13.4234 17.7878 13.2809C17.9268 13.1384 18.1051 13.0406 18.3 13C18.495 12.9619 18.6969 12.9828 18.88 13.06C19.064 13.1299 19.2214 13.2558 19.33 13.42C19.461 13.6125 19.5207 13.8448 19.4988 14.0766C19.4769 14.3085 19.3748 14.5254 19.21 14.69V14.71ZM19.5 9C19.5 9.26522 19.3946 9.51957 19.2071 9.70711C19.0196 9.89464 18.7652 10 18.5 10H12.5C12.2348 10 11.9804 9.89464 11.7929 9.70711C11.6054 9.51957 11.5 9.26522 11.5 9V7C11.5 6.73478 11.6054 6.48043 11.7929 6.29289C11.9804 6.10536 12.2348 6 12.5 6H18.5C18.7652 6 19.0196 6.10536 19.2071 6.29289C19.3946 6.48043 19.5 6.73478 19.5 7V9Z" fill="#141414"/>
</svg>
