<svg width="24" height="24" viewBox="0 0 24 24" fill="none" xmlns="http://www.w3.org/2000/svg">
<path d="M5 6.00019C4.86839 6.00095 4.73793 5.97572 4.61609 5.92596C4.49426 5.87619 4.38344 5.80287 4.29 5.71019C4.19627 5.61722 4.12188 5.50662 4.07111 5.38476C4.02034 5.2629 3.9942 5.1322 3.9942 5.00019C3.9942 4.86817 4.02034 4.73747 4.07111 4.61561C4.12188 4.49375 4.19627 4.38315 4.29 4.29019C4.80725 3.7828 5.46312 3.43987 6.17494 3.30462C6.88677 3.16938 7.6227 3.24786 8.29 3.53019C9.29 3.78019 9.77 3.87019 10.29 3.29019C10.3832 3.19695 10.4939 3.12299 10.6158 3.07253C10.7376 3.02207 10.8681 2.99609 11 2.99609C11.1319 2.99609 11.2624 3.02207 11.3842 3.07253C11.5061 3.12299 11.6168 3.19695 11.71 3.29019C11.8032 3.38342 11.8772 3.49411 11.9277 3.61594C11.9781 3.73776 12.0041 3.86833 12.0041 4.00019C12.0041 4.13204 11.9781 4.26261 11.9277 4.38443C11.8772 4.50626 11.8032 4.61695 11.71 4.71019C11.1928 5.21757 10.5369 5.5605 9.82506 5.69575C9.11323 5.83099 8.3773 5.75251 7.71 5.47019C6.71 5.22019 6.23 5.13019 5.71 5.71019C5.61656 5.80287 5.50574 5.87619 5.38391 5.92596C5.26207 5.97572 5.13161 6.00095 5 6.00019Z" fill="#141414"/>
<path d="M20.55 10.17C20.4129 10.0787 20.2553 10.0228 20.0913 10.0071C19.9273 9.99136 19.762 10.0164 19.61 10.08L16 11.63V11C15.9999 10.8349 15.9589 10.6725 15.8807 10.5271C15.8025 10.3818 15.6896 10.258 15.5519 10.1669C15.4143 10.0758 15.2562 10.0202 15.0919 10.005C14.9275 9.98988 14.762 10.0156 14.61 10.08L11 11.63V11C10.9999 10.8349 10.9589 10.6725 10.8807 10.5271C10.8025 10.3818 10.6896 10.258 10.5519 10.1669C10.4143 10.0758 10.2562 10.0202 10.0919 10.005C9.92754 9.98988 9.76198 10.0156 9.61 10.08L7 11.2V8C7 7.73478 6.89464 7.48043 6.70711 7.29289C6.51957 7.10536 6.26522 7 6 7H4C3.73478 7 3.48043 7.10536 3.29289 7.29289C3.10536 7.48043 3 7.73478 3 8V19C3 19.5304 3.21071 20.0391 3.58579 20.4142C3.96086 20.7893 4.46957 21 5 21H19C19.5304 21 20.0391 20.7893 20.4142 20.4142C20.7893 20.0391 21 19.5304 21 19V11C20.9991 10.8353 20.9576 10.6733 20.8791 10.5285C20.8006 10.3838 20.6876 10.2606 20.55 10.17ZM9 16.5C9 16.6326 8.94732 16.7598 8.85355 16.8536C8.75979 16.9473 8.63261 17 8.5 17H7.5C7.36739 17 7.24021 16.9473 7.14645 16.8536C7.05268 16.7598 7 16.6326 7 16.5V15.5C7 15.3674 7.05268 15.2402 7.14645 15.1464C7.24021 15.0527 7.36739 15 7.5 15H8.5C8.63261 15 8.75979 15.0527 8.85355 15.1464C8.94732 15.2402 9 15.3674 9 15.5V16.5ZM13 16.5C13 16.6326 12.9473 16.7598 12.8536 16.8536C12.7598 16.9473 12.6326 17 12.5 17H11.5C11.3674 17 11.2402 16.9473 11.1464 16.8536C11.0527 16.7598 11 16.6326 11 16.5V15.5C11 15.3674 11.0527 15.2402 11.1464 15.1464C11.2402 15.0527 11.3674 15 11.5 15H12.5C12.6326 15 12.7598 15.0527 12.8536 15.1464C12.9473 15.2402 13 15.3674 13 15.5V16.5ZM17 16.5C17 16.6326 16.9473 16.7598 16.8536 16.8536C16.7598 16.9473 16.6326 17 16.5 17H15.5C15.3674 17 15.2402 16.9473 15.1464 16.8536C15.0527 16.7598 15 16.6326 15 16.5V15.5C15 15.3674 15.0527 15.2402 15.1464 15.1464C15.2402 15.0527 15.3674 15 15.5 15H16.5C16.6326 15 16.7598 15.0527 16.8536 15.1464C16.9473 15.2402 17 15.3674 17 15.5V16.5Z" fill="#141414"/>
</svg>
