<svg width="24" height="24" viewBox="0 0 24 24" fill="none" xmlns="http://www.w3.org/2000/svg">
<path d="M19 5H5C4.20435 5 3.44129 5.31607 2.87868 5.87868C2.31607 6.44129 2 7.20435 2 8V16C2 16.7956 2.31607 17.5587 2.87868 18.1213C3.44129 18.6839 4.20435 19 5 19H19C19.7956 19 20.5587 18.6839 21.1213 18.1213C21.6839 17.5587 22 16.7956 22 16V8C22 7.20435 21.6839 6.44129 21.1213 5.87868C20.5587 5.31607 19.7956 5 19 5ZM8 8C8.29667 8 8.58668 8.08797 8.83335 8.2528C9.08003 8.41762 9.27229 8.65189 9.38582 8.92597C9.49935 9.20006 9.52906 9.50166 9.47118 9.79264C9.4133 10.0836 9.27044 10.3509 9.06066 10.5607C8.85088 10.7704 8.58361 10.9133 8.29264 10.9712C8.00166 11.0291 7.70006 10.9994 7.42597 10.8858C7.15189 10.7723 6.91762 10.58 6.7528 10.3334C6.58797 10.0867 6.5 9.79667 6.5 9.5C6.5 9.10218 6.65804 8.72064 6.93934 8.43934C7.22064 8.15804 7.60218 8 8 8ZM10 16H6C5.73478 16 5.48043 15.8946 5.29289 15.7071C5.10536 15.5196 5 15.2652 5 15C5 14.2044 5.31607 13.4413 5.87868 12.8787C6.44129 12.3161 7.20435 12 8 12C8.79565 12 9.55871 12.3161 10.1213 12.8787C10.6839 13.4413 11 14.2044 11 15C11 15.2652 10.8946 15.5196 10.7071 15.7071C10.5196 15.8946 10.2652 16 10 16ZM19.71 10.71L15.71 14.71C15.617 14.8037 15.5064 14.8781 15.3846 14.9289C15.2627 14.9797 15.132 15.0058 15 15.0058C14.868 15.0058 14.7373 14.9797 14.6154 14.9289C14.4936 14.8781 14.383 14.8037 14.29 14.71L12.29 12.71C12.1017 12.5217 11.9959 12.2663 11.9959 12C11.9959 11.7337 12.1017 11.4783 12.29 11.29C12.4783 11.1017 12.7337 10.9959 13 10.9959C13.2663 10.9959 13.5217 11.1017 13.71 11.29L15 12.59L18.29 9.29C18.4783 9.1017 18.7337 8.99591 19 8.99591C19.2663 8.99591 19.5217 9.1017 19.71 9.29C19.8983 9.4783 20.0041 9.7337 20.0041 10C20.0041 10.2663 19.8983 10.5217 19.71 10.71Z" fill="#141414"/>
</svg>
