<svg width="24" height="24" viewBox="0 0 24 24" fill="none" xmlns="http://www.w3.org/2000/svg">
<path d="M19.9999 12.9999C20.2651 12.9999 20.5194 12.8946 20.707 12.707C20.8945 12.5195 20.9999 12.2651 20.9999 11.9999C20.9999 11.7347 20.8945 11.4804 20.707 11.2928C20.5194 11.1053 20.2651 10.9999 19.9999 10.9999H17.2199C17.2199 10.9999 17.2199 10.9299 17.2199 10.8999L19.1199 6.99992C19.6503 6.98401 20.1527 6.75804 20.5165 6.37171C20.8803 5.98539 21.0758 5.47036 21.0599 4.93992C21.044 4.40949 20.818 3.9071 20.4317 3.54328C20.0453 3.17946 19.5303 2.98401 18.9999 2.99992C18.6508 3.00203 18.3084 3.09544 18.0067 3.27087C17.705 3.4463 17.4544 3.69765 17.2799 3.99992H13.7199C13.5428 3.70148 13.2911 3.45425 12.9895 3.28253C12.688 3.11081 12.3469 3.02051 11.9999 3.02051C11.6528 3.02051 11.3118 3.11081 11.0102 3.28253C10.7086 3.45425 10.457 3.70148 10.2799 3.99992H6.71987C6.54535 3.69765 6.29478 3.4463 5.99303 3.27087C5.69129 3.09544 5.34889 3.00203 4.99987 2.99992C4.46943 2.98401 3.9544 3.17946 3.56808 3.54328C3.18175 3.9071 2.95578 4.40949 2.93987 4.93992C2.92395 5.47036 3.11941 5.98539 3.48323 6.37171C3.84705 6.75804 4.34943 6.98401 4.87987 6.99992L6.87987 10.9099C6.87987 10.9099 6.87987 10.9799 6.87987 11.0099H3.99987C3.73465 11.0099 3.4803 11.1153 3.29276 11.3028C3.10522 11.4904 2.99987 11.7447 2.99987 12.0099C2.99987 12.2751 3.10522 12.5295 3.29276 12.717C3.4803 12.9046 3.73465 13.0099 3.99987 13.0099H6.77987C6.77987 13.0099 6.77987 13.0799 6.77987 13.1099L4.87987 16.9999C4.34943 17.0158 3.84705 17.2418 3.48323 17.6281C3.11941 18.0145 2.92395 18.5295 2.93987 19.0599C2.95578 19.5904 3.18175 20.0927 3.56808 20.4566C3.9544 20.8204 4.46943 21.0158 4.99987 20.9999C5.34889 20.9978 5.69129 20.9044 5.99303 20.729C6.29478 20.5535 6.54535 20.3022 6.71987 19.9999H10.2799C10.457 20.2984 10.7086 20.5456 11.0102 20.7173C11.3118 20.889 11.6528 20.9793 11.9999 20.9793C12.3469 20.9793 12.688 20.889 12.9895 20.7173C13.2911 20.5456 13.5428 20.2984 13.7199 19.9999H17.2799C17.4544 20.3022 17.705 20.5535 18.0067 20.729C18.3084 20.9044 18.6508 20.9978 18.9999 20.9999C19.5303 21.0158 20.0453 20.8204 20.4317 20.4566C20.818 20.0927 21.044 19.5904 21.0599 19.0599C21.0758 18.5295 20.8803 18.0145 20.5165 17.6281C20.1527 17.2418 19.6503 17.0158 19.1199 16.9999L17.1699 13.0999C17.1699 13.0999 17.1699 13.0299 17.1699 12.9999H19.9999ZM11.9999 7.23992L13.8299 10.8999C13.8299 10.8999 13.8299 10.9699 13.7799 10.9999H10.2199C10.2199 10.9999 10.2199 10.9299 10.1699 10.8999L11.9999 7.23992ZM6.66987 6.09992C6.66987 6.09992 6.66987 6.02992 6.66987 5.99992H10.2299C10.2299 5.99992 10.2299 6.06992 10.2799 6.09992L8.49987 9.75992L6.66987 6.09992ZM10.2799 17.9999H6.71987C6.71987 17.9999 6.71987 17.9299 6.71987 17.8999L8.49987 14.2399L10.3299 17.8999C10.3299 17.8999 10.2999 17.9999 10.2799 17.9999ZM11.9999 16.7599L10.1699 13.0999C10.1699 13.0999 10.1699 13.0299 10.2199 12.9999H13.7799C13.7799 12.9999 13.7799 13.0699 13.8299 13.0999L11.9999 16.7599ZM17.3299 17.8999C17.3299 17.8999 17.3299 17.9699 17.3299 17.9999H13.7199C13.7199 17.9999 13.7199 17.9299 13.6699 17.8999L15.4999 14.2399L17.3299 17.8999ZM15.4999 9.75992L13.6699 6.09992C13.6699 6.09992 13.6699 6.02992 13.7199 5.99992H17.2799C17.2799 5.99992 17.2799 6.06992 17.2799 6.09992L15.4999 9.75992Z" fill="#141414"/>
</svg>
