<svg width="24" height="24" viewBox="0 0 24 24" fill="none" xmlns="http://www.w3.org/2000/svg">
<path d="M16 14C15.8684 13.9992 15.7379 14.0245 15.6161 14.0742C15.4943 14.124 15.3834 14.1973 15.29 14.29C15.1973 14.3834 15.124 14.4943 15.0742 14.6161C15.0245 14.7379 14.9992 14.8684 15 15V18.59L14.71 18.29C14.6166 18.1973 14.5057 18.124 14.3839 18.0742C14.2621 18.0245 14.1316 17.9992 14 18C13.8014 17.9988 13.6069 18.0569 13.4414 18.1667C13.2759 18.2765 13.1468 18.4331 13.0706 18.6165C12.9945 18.8 12.9747 19.0019 13.0137 19.1967C13.0528 19.3914 13.149 19.5701 13.29 19.71L15.29 21.71C15.3813 21.8035 15.49 21.8783 15.61 21.93C15.7345 21.9774 15.8668 22.0012 16 22C16.1312 22.0034 16.2613 21.976 16.38 21.92C16.5634 21.8441 16.7201 21.7153 16.83 21.55C16.9394 21.3873 16.9985 21.196 17 21V15C17.0008 14.8684 16.9755 14.7379 16.9258 14.6161C16.876 14.4943 16.8027 14.3834 16.71 14.29C16.5184 14.1073 16.2648 14.0037 16 14ZM21.71 16.29L19.71 14.29C19.5675 14.1501 19.3864 14.0561 19.19 14.02C18.9984 13.9795 18.799 14.0005 18.62 14.08C18.4366 14.1559 18.28 14.2847 18.17 14.45C18.0607 14.6127 18.0015 14.804 18 15V21C17.9992 21.1316 18.0245 21.2621 18.0742 21.3839C18.124 21.5057 18.1973 21.6166 18.29 21.71C18.3834 21.8027 18.4943 21.876 18.6161 21.9258C18.7379 21.9755 18.8684 22.0008 19 22C19.2648 21.9963 19.5184 21.8927 19.71 21.71C19.8027 21.6166 19.876 21.5057 19.9258 21.3839C19.9755 21.2621 20.0008 21.1316 20 21V17.41L20.29 17.71C20.3834 17.8027 20.4943 17.876 20.6161 17.9258C20.7379 17.9755 20.8684 18.0008 21 18C21.1316 18.0008 21.2621 17.9755 21.3839 17.9258C21.5057 17.876 21.6166 17.8027 21.71 17.71C21.8037 17.617 21.8781 17.5064 21.9289 17.3846C21.9797 17.2627 22.0058 17.132 22.0058 17C22.0058 16.868 21.9797 16.7373 21.9289 16.6154C21.8781 16.4936 21.8037 16.383 21.71 16.29ZM11 19.46C10.2112 18.449 9.67931 17.2617 9.45 16H13V15C12.9996 14.6586 13.0606 14.3199 13.18 14H9.11C8.95997 12.6709 8.95997 11.3291 9.11 10H14.89C14.9618 10.6643 14.9985 11.3319 15 12V12.19C15.6439 11.9438 16.3561 11.9438 17 12.19V12C17.0161 11.3321 16.986 10.6638 16.91 10H19.74C19.9063 10.6539 19.9936 11.3253 20 12V12.18C20.4269 12.3203 20.8143 12.5603 21.13 12.88L21.87 13.61C21.9534 13.0773 21.9969 12.5392 22 12C22 10.0222 21.4135 8.08879 20.3147 6.4443C19.2159 4.79981 17.6541 3.51809 15.8268 2.76121C13.9996 2.00433 11.9889 1.8063 10.0491 2.19215C8.10929 2.578 6.32746 3.53041 4.92894 4.92894C3.53041 6.32746 2.578 8.10929 2.19215 10.0491C1.8063 11.9889 2.00433 13.9996 2.76121 15.8268C3.51809 17.6541 4.79981 19.2159 6.4443 20.3147C8.08879 21.4135 10.0222 22 12 22H12.72L11.88 21.12C11.4112 20.6792 11.1017 20.0954 11 19.46ZM18.92 8H16.61C16.4137 6.91134 16.0775 5.85258 15.61 4.85C16.9928 5.5606 18.1418 6.65411 18.92 8ZM12 4C12.84 4 13.95 5.48 14.55 8H9.45C10.05 5.48 11.16 4 12 4ZM4.26 10H7.09C7.01399 10.6638 6.98392 11.3321 7 12C6.98392 12.6679 7.01399 13.3362 7.09 14H4.26C3.90999 12.6896 3.90999 11.3104 4.26 10ZM5.08 16H7.39C7.58164 17.0898 7.91795 18.1492 8.39 19.15C7.00724 18.4394 5.85818 17.3459 5.08 16ZM7.39 8H5.08C5.87161 6.647 7.03879 5.55276 8.44 4.85C7.95203 5.84887 7.59895 6.90813 7.39 8Z" fill="#141414"/>
</svg>
