<svg width="24" height="24" viewBox="0 0 24 24" fill="none" xmlns="http://www.w3.org/2000/svg">
<path d="M11.9998 7.3798C11.0861 7.3798 10.1928 7.65076 9.43307 8.15841C8.67332 8.66607 8.08116 9.38761 7.73148 10.2318C7.3818 11.076 7.29031 12.0049 7.46858 12.9011C7.64684 13.7973 8.08685 14.6205 8.73297 15.2666C9.37909 15.9128 10.2023 16.3528 11.0985 16.531C11.9947 16.7093 12.9236 16.6178 13.7678 16.2681C14.612 15.9185 15.3335 15.3263 15.8412 14.5665C16.3488 13.8068 16.6198 12.9136 16.6198 11.9998C16.6198 10.7745 16.1331 9.59939 15.2666 8.73297C14.4002 7.86655 13.2251 7.3798 11.9998 7.3798ZM11.9998 14.9998C11.4065 14.9998 10.8264 14.8239 10.3331 14.4942C9.83975 14.1646 9.45523 13.696 9.22817 13.1479C9.0011 12.5997 8.94169 11.9965 9.05745 11.4145C9.1732 10.8326 9.45893 10.298 9.87848 9.87848C10.298 9.45893 10.8326 9.1732 11.4145 9.05745C11.9965 8.94169 12.5997 9.0011 13.1479 9.22817C13.696 9.45523 14.1646 9.83975 14.4942 10.3331C14.8239 10.8264 14.9998 11.4065 14.9998 11.9998C14.9998 12.7955 14.6837 13.5585 14.1211 14.1211C13.5585 14.6837 12.7955 14.9998 11.9998 14.9998ZM20.9998 8.2898C20.9811 7.54169 20.8392 6.80177 20.5798 6.0998C20.3399 5.49952 19.9778 4.9557 19.5164 4.50293C19.055 4.05015 18.5045 3.69832 17.8998 3.4698C17.1978 3.21043 16.4579 3.06852 15.7098 3.0498C14.7098 3.0498 14.4398 3.0498 11.9998 3.0498C9.5598 3.0498 9.2498 3.0498 8.2898 3.0498C7.54169 3.06852 6.80177 3.21043 6.0998 3.4698C5.50434 3.70412 4.96352 4.05856 4.51104 4.51104C4.05856 4.96352 3.70412 5.50434 3.4698 6.0998C3.21043 6.80177 3.06852 7.54169 3.0498 8.2898C3.0498 9.2898 3.0498 9.5598 3.0498 11.9998C3.0498 14.4398 3.0498 14.7498 3.0498 15.7098C3.06852 16.4579 3.21043 17.1978 3.4698 17.8998C3.70412 18.4953 4.05856 19.0361 4.51104 19.4886C4.96352 19.941 5.50434 20.2955 6.0998 20.5298C6.79886 20.8063 7.53887 20.9651 8.2898 20.9998C9.2898 20.9998 9.5598 21.0498 11.9998 21.0498C14.4398 21.0498 14.7498 21.0498 15.7098 20.9998C16.4579 20.9811 17.1978 20.8392 17.8998 20.5798C18.4953 20.3455 19.0361 19.9911 19.4886 19.5386C19.941 19.0861 20.2955 18.5453 20.5298 17.9498C20.8117 17.235 20.9706 16.4776 20.9998 15.7098C20.9998 14.7098 21.0498 14.4398 21.0498 11.9998C21.0498 9.5598 20.9998 9.2498 20.9998 8.2898ZM19.3798 15.6398C19.3445 16.2134 19.2162 16.7774 18.9998 17.3098C18.8459 17.6905 18.617 18.0363 18.3266 18.3266C18.0363 18.617 17.6905 18.8459 17.3098 18.9998C16.7734 19.1922 16.2095 19.2969 15.6398 19.3098C14.6398 19.3098 14.3998 19.3598 11.9998 19.3598C9.5998 19.3598 9.3098 19.3598 8.3598 19.3098C7.79009 19.2969 7.22619 19.1922 6.6898 18.9998C6.30913 18.8459 5.96333 18.617 5.67299 18.3266C5.38264 18.0363 5.1537 17.6905 4.9998 17.3098C4.80736 16.7734 4.70269 16.2095 4.6898 15.6398C4.6898 14.6398 4.6898 14.3998 4.6898 11.9998C4.6898 9.5998 4.6898 9.3098 4.6898 8.3598C4.70269 7.79009 4.80736 7.22619 4.9998 6.6898C5.1537 6.30913 5.38264 5.96333 5.67299 5.67299C5.96333 5.38264 6.30913 5.1537 6.6898 4.9998C7.22619 4.80736 7.79009 4.70269 8.3598 4.6898C9.3598 4.6898 9.5998 4.6898 11.9998 4.6898C14.3998 4.6898 14.6898 4.6898 15.6398 4.6898C16.2095 4.70269 16.7734 4.80736 17.3098 4.9998C17.6905 5.1537 18.0363 5.38264 18.3266 5.67299C18.617 5.96333 18.8459 6.30913 18.9998 6.6898C19.1922 7.22619 19.2969 7.79009 19.3098 8.3598C19.3098 9.3598 19.3598 9.5998 19.3598 11.9998C19.3598 14.3998 19.3698 14.6898 19.3298 15.6398H19.3798ZM16.7998 6.1198C16.5862 6.1198 16.3774 6.18315 16.1998 6.30182C16.0222 6.42049 15.8838 6.58916 15.802 6.78651C15.7203 6.98385 15.6989 7.201 15.7406 7.4105C15.7822 7.62 15.8851 7.81244 16.0361 7.96348C16.1872 8.11452 16.3796 8.21738 16.5891 8.25905C16.7986 8.30072 17.0158 8.27934 17.2131 8.19759C17.4104 8.11585 17.5791 7.97743 17.6978 7.79982C17.8165 7.62222 17.8798 7.41341 17.8798 7.1998C17.8798 6.91337 17.766 6.63867 17.5635 6.43613C17.3609 6.23359 17.0862 6.1198 16.7998 6.1198Z" fill="#141414"/>
</svg>
