<svg width="24" height="24" viewBox="0 0 24 24" fill="none" xmlns="http://www.w3.org/2000/svg">
<path d="M9 11H8.5V12H9C9.13261 12 9.25979 11.9473 9.35356 11.8536C9.44733 11.7598 9.5 11.6326 9.5 11.5C9.5 11.3674 9.44733 11.2402 9.35356 11.1464C9.25979 11.0527 9.13261 11 9 11ZM12.5 12.5C12.5 12.5989 12.5293 12.6956 12.5843 12.7778C12.6392 12.86 12.7173 12.9241 12.8087 12.9619C12.9 12.9998 13.0006 13.0097 13.0976 12.9904C13.1945 12.9711 13.2836 12.9235 13.3536 12.8536C13.4235 12.7836 13.4711 12.6945 13.4904 12.5975C13.5097 12.5006 13.4998 12.4 13.4619 12.3087C13.4241 12.2173 13.36 12.1392 13.2778 12.0843C13.1956 12.0293 13.0989 12 13 12C12.8674 12 12.7402 12.0527 12.6465 12.1464C12.5527 12.2402 12.5 12.3674 12.5 12.5ZM12 2C10.0222 2 8.08879 2.58649 6.4443 3.6853C4.79981 4.78412 3.51809 6.3459 2.76121 8.17317C2.00433 10.0004 1.8063 12.0111 2.19215 13.9509C2.578 15.8907 3.53041 17.6725 4.92894 19.0711C6.32746 20.4696 8.10929 21.422 10.0491 21.8079C11.9889 22.1937 13.9996 21.9957 15.8268 21.2388C17.6541 20.4819 19.2159 19.2002 20.3147 17.5557C21.4135 15.9112 22 13.9778 22 12C22 10.6868 21.7413 9.38642 21.2388 8.17317C20.7363 6.95991 19.9997 5.85752 19.0711 4.92893C18.1425 4.00035 17.0401 3.26375 15.8268 2.7612C14.6136 2.25866 13.3132 2 12 2ZM6.5 13.5C6.5 13.6326 6.44733 13.7598 6.35356 13.8536C6.25979 13.9473 6.13261 14 6 14C5.8674 14 5.74022 13.9473 5.64645 13.8536C5.55268 13.7598 5.5 13.6326 5.5 13.5V10.5C5.5 10.3674 5.55268 10.2402 5.64645 10.1464C5.74022 10.0527 5.8674 10 6 10C6.13261 10 6.25979 10.0527 6.35356 10.1464C6.44733 10.2402 6.5 10.3674 6.5 10.5V13.5ZM9 13H8.5V13.5C8.5 13.6326 8.44733 13.7598 8.35356 13.8536C8.25979 13.9473 8.13261 14 8 14C7.8674 14 7.74022 13.9473 7.64645 13.8536C7.55268 13.7598 7.5 13.6326 7.5 13.5V10.5C7.5 10.3674 7.55268 10.2402 7.64645 10.1464C7.74022 10.0527 7.8674 10 8 10H9C9.39783 10 9.77936 10.158 10.0607 10.4393C10.342 10.7206 10.5 11.1022 10.5 11.5C10.5 11.8978 10.342 12.2794 10.0607 12.5607C9.77936 12.842 9.39783 13 9 13ZM14.5 12.5C14.5 12.8978 14.342 13.2794 14.0607 13.5607C13.7794 13.842 13.3978 14 13 14C12.6022 14 12.2206 13.842 11.9393 13.5607C11.658 13.2794 11.5 12.8978 11.5 12.5V12C11.5 11.4696 11.7107 10.9609 12.0858 10.5858C12.4609 10.2107 12.9696 10 13.5 10H14C14.1326 10 14.2598 10.0527 14.3536 10.1464C14.4473 10.2402 14.5 10.3674 14.5 10.5C14.5 10.6326 14.4473 10.7598 14.3536 10.8536C14.2598 10.9473 14.1326 11 14 11H13.5C13.4404 10.9906 13.3796 10.9906 13.32 11C13.6611 11.0724 13.9661 11.2622 14.1817 11.5363C14.3973 11.8104 14.5099 12.1514 14.5 12.5ZM18.45 10.72L16.95 13.72C16.9088 13.8042 16.8447 13.875 16.7652 13.9245C16.6856 13.974 16.5937 14.0002 16.5 14C16.424 13.999 16.349 13.982 16.28 13.95C16.1623 13.8899 16.0726 13.7864 16.0297 13.6614C15.9868 13.5365 15.9941 13.3997 16.05 13.28L17.19 11H16C15.8674 11 15.7402 10.9473 15.6465 10.8536C15.5527 10.7598 15.5 10.6326 15.5 10.5C15.5 10.3674 15.5527 10.2402 15.6465 10.1464C15.7402 10.0527 15.8674 10 16 10H18C18.0859 10.0014 18.1702 10.024 18.2452 10.0659C18.3203 10.1078 18.3837 10.1676 18.43 10.24C18.4725 10.3122 18.4966 10.3938 18.5001 10.4775C18.5036 10.5612 18.4864 10.6445 18.45 10.72Z" fill="#141414"/>
</svg>
