<svg width="24" height="24" viewBox="0 0 24 24" fill="none" xmlns="http://www.w3.org/2000/svg">
<path d="M9 20C8.47499 19.9936 7.95078 19.9568 7.43 19.89C8.22573 20.8254 9.2893 21.494 10.4771 21.8057C11.6649 22.1174 12.9198 22.0571 14.0723 21.633C15.2247 21.2088 16.2193 20.4413 16.9217 19.434C17.6241 18.4266 18.0004 17.228 18 16V15.91C16.8764 17.1918 15.4926 18.2196 13.9407 18.9248C12.3889 19.6301 10.7046 19.9966 9 20ZM16.52 14.58C14.9131 15.6961 12.9508 16.1796 11.0093 15.9379C9.06791 15.6961 7.28407 14.7461 6 13.27V16C6.00089 16.5408 6.07489 17.079 6.22 17.6C7.12292 17.8649 8.05902 17.9996 9 18C10.4248 17.9986 11.8327 17.6927 13.1297 17.1028C14.4266 16.513 15.5825 15.6529 16.52 14.58ZM12 14C13.1867 14 14.3467 13.6481 15.3334 12.9888C16.3201 12.3295 17.0892 11.3925 17.5433 10.2961C17.9974 9.19975 18.1162 7.99335 17.8847 6.82946C17.6532 5.66558 17.0818 4.59648 16.2426 3.75736C15.4035 2.91825 14.3344 2.3468 13.1705 2.11529C12.0067 1.88378 10.8003 2.0026 9.7039 2.45673C8.60754 2.91085 7.67047 3.67989 7.01118 4.66658C6.35189 5.65328 6 6.81331 6 8C6 9.5913 6.63214 11.1174 7.75736 12.2426C8.88258 13.3679 10.4087 14 12 14ZM14.5 6C14.6978 6 14.8911 6.05865 15.0556 6.16853C15.22 6.27841 15.3482 6.43459 15.4239 6.61732C15.4996 6.80005 15.5194 7.00111 15.4808 7.19509C15.4422 7.38907 15.347 7.56726 15.2071 7.70711C15.0673 7.84696 14.8891 7.9422 14.6951 7.98079C14.5011 8.01937 14.3 7.99957 14.1173 7.92388C13.9346 7.8482 13.7784 7.72002 13.6685 7.55557C13.5586 7.39112 13.5 7.19778 13.5 7C13.5 6.73479 13.6054 6.48043 13.7929 6.2929C13.9804 6.10536 14.2348 6 14.5 6ZM14.22 9C14.4141 8.99847 14.6044 9.05344 14.7677 9.1582C14.9311 9.26296 15.0604 9.413 15.14 9.59C15.2235 9.7643 15.2548 9.95906 15.2299 10.1507C15.2051 10.3424 15.1252 10.5228 15 10.67C14.6251 11.0825 14.1681 11.412 13.6584 11.6376C13.1486 11.8631 12.5974 11.9796 12.04 11.9796C11.4826 11.9796 10.9314 11.8631 10.4216 11.6376C9.91189 11.412 9.45491 11.0825 9.08 10.67C8.94823 10.527 8.86103 10.3486 8.82906 10.1568C8.79709 9.96501 8.82174 9.76803 8.9 9.59C8.9767 9.41911 9.09986 9.2732 9.25544 9.16889C9.41103 9.06457 9.59278 9.00606 9.78 9H14.22ZM9.5 6C9.69778 6 9.89112 6.05865 10.0556 6.16853C10.22 6.27841 10.3482 6.43459 10.4239 6.61732C10.4996 6.80005 10.5194 7.00111 10.4808 7.19509C10.4422 7.38907 10.347 7.56726 10.2071 7.70711C10.0673 7.84696 9.88907 7.9422 9.69509 7.98079C9.50111 8.01937 9.30004 7.99957 9.11732 7.92388C8.93459 7.8482 8.77841 7.72002 8.66853 7.55557C8.55865 7.39112 8.5 7.19778 8.5 7C8.5 6.73479 8.60536 6.48043 8.79289 6.2929C8.98043 6.10536 9.23478 6 9.5 6Z" fill="#141414"/>
</svg>
