<svg width="24" height="24" viewBox="0 0 24 24" fill="none" xmlns="http://www.w3.org/2000/svg">
<path d="M8.81995 14.39C8.30538 13.6994 8.02743 12.8612 8.02743 12C8.02743 11.1388 8.30538 10.3005 8.81995 9.60997C8.90006 9.50557 8.95882 9.38641 8.99287 9.2593C9.02693 9.1322 9.03561 8.99962 9.01844 8.86916C9.00126 8.73869 8.95855 8.61288 8.89275 8.49892C8.82695 8.38496 8.73935 8.28508 8.63495 8.20497C8.53055 8.12486 8.41139 8.06611 8.28428 8.03205C8.15717 7.99799 8.0246 7.98931 7.89414 8.00649C7.76367 8.02366 7.63786 8.06637 7.5239 8.13217C7.40994 8.19797 7.31006 8.28557 7.22995 8.38997C6.44628 9.43034 6.02243 10.6975 6.02243 12C6.02243 13.3025 6.44628 14.5696 7.22995 15.61C7.39173 15.8208 7.63065 15.9588 7.89414 15.9935C8.15762 16.0282 8.4241 15.9568 8.63495 15.795C8.8458 15.6332 8.98374 15.3943 9.01844 15.1308C9.05313 14.8673 8.98173 14.6008 8.81995 14.39ZM3.99995 12C4.0043 10.0316 4.73417 8.13394 6.04995 6.66997C6.21302 6.48509 6.30205 6.24648 6.29995 5.99997C6.30346 5.86263 6.27863 5.72605 6.22702 5.59873C6.1754 5.47141 6.0981 5.35609 5.99995 5.25997C5.80348 5.08271 5.54477 4.99055 5.28049 5.00367C5.0162 5.01679 4.76789 5.13413 4.58995 5.32997C2.94825 7.16379 2.04053 9.53865 2.04053 12C2.04053 14.4613 2.94825 16.8361 4.58995 18.67C4.67794 18.7678 4.78433 18.8474 4.90306 18.9041C5.02179 18.9608 5.15052 18.9936 5.28192 19.0005C5.41331 19.0075 5.54479 18.9885 5.66885 18.9447C5.79291 18.9008 5.90712 18.833 6.00495 18.745C6.10279 18.657 6.18233 18.5506 6.23905 18.4319C6.29577 18.3131 6.32854 18.1844 6.33551 18.053C6.34247 17.9216 6.32349 17.7901 6.27964 17.6661C6.23579 17.542 6.16794 17.4278 6.07995 17.33C4.75328 15.8705 4.01253 13.9723 3.99995 12ZM11.43 8.88997C11.7024 9.00096 12.0017 9.0288 12.29 8.96997C12.5819 8.91351 12.8504 8.77095 13.0606 8.56066C13.2709 8.35037 13.4135 8.08196 13.47 7.78997C13.5288 7.50169 13.5009 7.20245 13.39 6.92997C13.273 6.65391 13.0785 6.41771 12.83 6.24997C12.5414 6.05775 12.1952 5.97141 11.8502 6.00562C11.5053 6.03983 11.1828 6.19249 10.9376 6.43764C10.6925 6.68278 10.5398 7.00527 10.5056 7.35027C10.4714 7.69526 10.5577 8.04145 10.75 8.32997C10.9177 8.57847 11.1539 8.773 11.43 8.88997ZM19.43 5.32997C19.2419 5.19661 19.0135 5.13232 18.7835 5.148C18.5535 5.16367 18.336 5.25834 18.1677 5.41599C17.9995 5.57363 17.8909 5.78456 17.8603 6.01307C17.8298 6.24159 17.8791 6.47365 18 6.66997C19.31 8.13628 20.0341 10.0337 20.0341 12C20.0341 13.9662 19.31 15.8637 18 17.33C17.8369 17.5149 17.7478 17.7535 17.75 18C17.7503 18.1395 17.7798 18.2774 17.8366 18.4049C17.8935 18.5323 17.9764 18.6465 18.08 18.74C18.2764 18.9172 18.5351 19.0094 18.7994 18.9963C19.0637 18.9831 19.312 18.8658 19.49 18.67C21.1316 16.8361 22.0394 14.4613 22.0394 12C22.0394 9.53865 21.1316 7.16379 19.49 5.32997H19.43ZM16.77 8.38997C16.6082 8.17912 16.3693 8.04118 16.1058 8.00649C15.8423 7.97179 15.5758 8.04319 15.365 8.20497C15.1541 8.36675 15.0162 8.60567 14.9815 8.86916C14.9468 9.13265 15.0182 9.39912 15.18 9.60997C15.6945 10.3005 15.9725 11.1388 15.9725 12C15.9725 12.8612 15.6945 13.6994 15.18 14.39C15.0182 14.6008 14.9468 14.8673 14.9815 15.1308C15.0162 15.3943 15.1541 15.6332 15.365 15.795C15.5758 15.9568 15.8423 16.0282 16.1058 15.9935C16.3693 15.9588 16.6082 15.8208 16.77 15.61C17.5536 14.5696 17.9775 13.3025 17.9775 12C17.9775 10.6975 17.5536 9.43034 16.77 8.38997ZM14 16H13V12C13 11.7348 12.8946 11.4804 12.7071 11.2929C12.5195 11.1053 12.2652 11 12 11H11C10.7347 11 10.4804 11.1053 10.2928 11.2929C10.1053 11.4804 9.99995 11.7348 9.99995 12C9.99995 12.2652 10.1053 12.5195 10.2928 12.7071C10.4804 12.8946 10.7347 13 11 13V16H9.99995C9.73473 16 9.48038 16.1053 9.29284 16.2929C9.10531 16.4804 8.99995 16.7348 8.99995 17C8.99995 17.2652 9.10531 17.5195 9.29284 17.7071C9.48038 17.8946 9.73473 18 9.99995 18H14C14.2652 18 14.5195 17.8946 14.7071 17.7071C14.8946 17.5195 15 17.2652 15 17C15 16.7348 14.8946 16.4804 14.7071 16.2929C14.5195 16.1053 14.2652 16 14 16Z" fill="#141414"/>
</svg>
