<svg width="24" height="24" viewBox="0 0 24 24" fill="none" xmlns="http://www.w3.org/2000/svg">
<path d="M7 11C7.39556 11 7.78224 10.8827 8.11114 10.6629C8.44004 10.4432 8.69638 10.1308 8.84776 9.76537C8.99913 9.39991 9.03874 8.99778 8.96157 8.60982C8.8844 8.22186 8.69392 7.86549 8.41421 7.58579C8.13451 7.30608 7.77814 7.1156 7.39018 7.03843C7.00222 6.96126 6.60009 7.00087 6.23463 7.15224C5.86918 7.30362 5.55682 7.55996 5.33706 7.88886C5.1173 8.21776 5 8.60444 5 9C5 9.53043 5.21071 10.0391 5.58579 10.4142C5.96086 10.7893 6.46957 11 7 11ZM8 12H4V5C4 4.73478 3.89464 4.48043 3.70711 4.29289C3.51957 4.10536 3.26522 4 3 4C2.73478 4 2.48043 4.10536 2.29289 4.29289C2.10536 4.48043 2 4.73478 2 5V19C2 19.2652 2.10536 19.5196 2.29289 19.7071C2.48043 19.8946 2.73478 20 3 20C3.26522 20 3.51957 19.8946 3.70711 19.7071C3.89464 19.5196 4 19.2652 4 19V18H20V19C20 19.2652 20.1054 19.5196 20.2929 19.7071C20.4804 19.8946 20.7348 20 21 20C21.2652 20 21.5196 19.8946 21.7071 19.7071C21.8946 19.5196 22 19.2652 22 19V15H11C10.2044 15 9.44129 14.6839 8.87868 14.1213C8.31607 13.5587 8 12.7956 8 12ZM19 8H13C12.2044 8 11.4413 8.31607 10.8787 8.87868C10.3161 9.44129 10 10.2044 10 11V12C10 12.2652 10.1054 12.5196 10.2929 12.7071C10.4804 12.8946 10.7348 13 11 13H22V11C22 10.2044 21.6839 9.44129 21.1213 8.87868C20.5587 8.31607 19.7956 8 19 8Z" fill="#141414"/>
</svg>
