<svg width="24" height="24" viewBox="0 0 24 24" fill="none" xmlns="http://www.w3.org/2000/svg">
<path d="M12 7.9999C11.8022 7.9999 11.6089 8.05855 11.4444 8.16843C11.28 8.27831 11.1518 8.43449 11.0761 8.61722C11.0004 8.79994 10.9806 9.00101 11.0192 9.19499C11.0578 9.38897 11.1531 9.56716 11.2929 9.70701C11.4328 9.84686 11.6109 9.9421 11.8049 9.98069C11.9989 10.0193 12.2 9.99947 12.3827 9.92378C12.5654 9.84809 12.7216 9.71992 12.8315 9.55547C12.9414 9.39102 13 9.19768 13 8.9999C13 8.73469 12.8947 8.48033 12.7071 8.2928C12.5196 8.10526 12.2652 7.9999 12 7.9999ZM15 17.9999H13V15.9199C14.7516 15.6671 16.3424 14.7602 17.4523 13.3817C18.5622 12.0033 19.1088 10.2556 18.982 8.49041C18.8553 6.72522 18.0647 5.07354 16.7692 3.86778C15.4738 2.66203 13.7698 1.9917 12 1.9917C10.2303 1.9917 8.52622 2.66203 7.23079 3.86778C5.93536 5.07354 5.14472 6.72522 5.01798 8.49041C4.89125 10.2556 5.43783 12.0033 6.54772 13.3817C7.65761 14.7602 9.24842 15.6671 11 15.9199V17.9999H9.00001C8.20436 17.9999 7.4413 18.316 6.87869 18.8786C6.31608 19.4412 6.00001 20.2043 6.00001 20.9999C6.00001 21.2651 6.10537 21.5195 6.2929 21.707C6.48044 21.8945 6.73479 21.9999 7.00001 21.9999H17C17.2652 21.9999 17.5196 21.8945 17.7071 21.707C17.8947 21.5195 18 21.2651 18 20.9999C18 20.2043 17.6839 19.4412 17.1213 18.8786C16.5587 18.316 15.7957 17.9999 15 17.9999ZM9.00001 8.9999C9.00001 8.40656 9.17596 7.82654 9.5056 7.33319C9.83525 6.83984 10.3038 6.45533 10.852 6.22826C11.4001 6.0012 12.0033 5.94179 12.5853 6.05755C13.1672 6.1733 13.7018 6.45902 14.1213 6.87858C14.5409 7.29814 14.8266 7.83269 14.9424 8.41463C15.0581 8.99657 14.9987 9.59977 14.7717 10.148C14.5446 10.6961 14.1601 11.1647 13.6667 11.4943C13.1734 11.824 12.5934 11.9999 12 11.9999C11.2044 11.9999 10.4413 11.6838 9.87869 11.1212C9.31608 10.5586 9.00001 9.79555 9.00001 8.9999Z" fill="#141414"/>
</svg>
