<svg width="24" height="24" viewBox="0 0 24 24" fill="none" xmlns="http://www.w3.org/2000/svg">
<path d="M16 16.0077C16 16.273 16.1054 16.5273 16.2929 16.7148C16.4804 16.9024 16.7348 17.0077 17 17.0077H20C20.2652 17.0077 20.5196 16.9024 20.7071 16.7148C20.8946 16.5273 21 16.273 21 16.0077V13.0077C21 12.7425 20.8946 12.4882 20.7071 12.3006C20.5196 12.1131 20.2652 12.0077 20 12.0077C19.7348 12.0077 19.4804 12.1131 19.2929 12.3006C19.1054 12.4882 19 12.7425 19 13.0077V13.5977L15.71 10.2977C15.617 10.204 15.5064 10.1296 15.3846 10.0788C15.2627 10.0281 15.132 10.0019 15 10.0019C14.868 10.0019 14.7373 10.0281 14.6154 10.0788C14.4936 10.1296 14.383 10.204 14.29 10.2977L12 12.5877L4.79 3.38774C4.74337 3.33675 4.68946 3.29294 4.63 3.25774C4.58662 3.21541 4.53575 3.18151 4.48 3.15774C4.42562 3.13177 4.36863 3.11166 4.31 3.09774H4.11H4L3.88 3.00774C3.81373 2.99742 3.74627 2.99742 3.68 3.00774C3.61226 3.02739 3.54812 3.05778 3.49 3.09774H3.38C3.32901 3.14436 3.2852 3.19828 3.25 3.25774C3.20768 3.30112 3.17377 3.35198 3.15 3.40774C3.12403 3.46212 3.10392 3.5191 3.09 3.57774C3.0853 3.64432 3.0853 3.71115 3.09 3.77774L3 4.00774V20.0077C3 20.273 3.10536 20.5273 3.29289 20.7148C3.48043 20.9024 3.73478 21.0077 4 21.0077H20C20.2652 21.0077 20.5196 20.9024 20.7071 20.7148C20.8946 20.5273 21 20.273 21 20.0077C21 19.7425 20.8946 19.4882 20.7071 19.3006C20.5196 19.1131 20.2652 19.0077 20 19.0077H5V6.89774L11.13 14.7077C11.2178 14.8192 11.3282 14.9108 11.4541 14.9763C11.58 15.0418 11.7183 15.0798 11.86 15.0877C12.0016 15.0968 12.1434 15.0756 12.2762 15.0256C12.409 14.9756 12.5296 14.8979 12.63 14.7977L15 12.4177L17.59 15.0077H17C16.7348 15.0077 16.4804 15.1131 16.2929 15.3006C16.1054 15.4882 16 15.7425 16 16.0077Z" fill="#141414"/>
</svg>
