<svg width="24" height="24" viewBox="0 0 24 24" fill="none" xmlns="http://www.w3.org/2000/svg">
<path d="M18.29 4.29019L6 16.5902V9.00019C6 8.73497 5.89464 8.48062 5.70711 8.29308C5.51957 8.10554 5.26522 8.00019 5 8.00019C4.73478 8.00019 4.48043 8.10554 4.29289 8.29308C4.10536 8.48062 4 8.73497 4 9.00019V19.0002C4.00158 19.1309 4.02876 19.26 4.08 19.3802C4.18147 19.6245 4.37565 19.8187 4.62 19.9202C4.74022 19.9714 4.86932 19.9986 5 20.0002H15C15.2652 20.0002 15.5196 19.8948 15.7071 19.7073C15.8946 19.5198 16 19.2654 16 19.0002C16 18.735 15.8946 18.4806 15.7071 18.2931C15.5196 18.1055 15.2652 18.0002 15 18.0002H7.41L19.71 5.71019C19.8983 5.52188 20.0041 5.26649 20.0041 5.00019C20.0041 4.73388 19.8983 4.47849 19.71 4.29019C19.5217 4.10188 19.2663 3.99609 19 3.99609C18.7337 3.99609 18.4783 4.10188 18.29 4.29019Z" fill="#141414"/>
</svg>
