<svg width="24" height="24" viewBox="0 0 24 24" fill="none" xmlns="http://www.w3.org/2000/svg">
<path d="M8 5C8 4.46957 7.78929 3.96086 7.41421 3.58579C7.03914 3.21071 6.53043 3 6 3H4C3.46957 3 2.96086 3.21071 2.58579 3.58579C2.21071 3.96086 2 4.46957 2 5V5.56C2.60399 5.19645 3.29504 5.00296 4 5H8ZM8 7H4C3.46957 7 2.96086 7.21071 2.58579 7.58579C2.21071 7.96086 2 8.46957 2 9V19C2 19.5304 2.21071 20.0391 2.58579 20.4142C2.96086 20.7893 3.46957 21 4 21H8C8.53043 21 9.03914 20.7893 9.41421 20.4142C9.78929 20.0391 10 19.5304 10 19V9C10 8.46957 9.78929 7.96086 9.41421 7.58579C9.03914 7.21071 8.53043 7 8 7ZM6 19C5.80222 19 5.60888 18.9414 5.44443 18.8315C5.27998 18.7216 5.15181 18.5654 5.07612 18.3827C5.00043 18.2 4.98063 17.9989 5.01921 17.8049C5.0578 17.6109 5.15304 17.4327 5.29289 17.2929C5.43275 17.153 5.61093 17.0578 5.80491 17.0192C5.99889 16.9806 6.19996 17.0004 6.38268 17.0761C6.56541 17.1518 6.72159 17.28 6.83147 17.4444C6.94135 17.6089 7 17.8022 7 18C7 18.2652 6.89464 18.5196 6.70711 18.7071C6.51957 18.8946 6.26522 19 6 19ZM21.12 4.88C20.5579 4.31723 19.7954 4.0007 19 4H9V5.14C9.53561 5.28076 10.0362 5.53121 10.4699 5.87548C10.9037 6.21975 11.2613 6.65035 11.52 7.14C11.6656 7.05344 11.8307 7.00527 12 7H18C18.2652 7 18.5196 7.10536 18.7071 7.29289C18.8946 7.48043 19 7.73478 19 8V10C19 10.2652 18.8946 10.5196 18.7071 10.7071C18.5196 10.8946 18.2652 11 18 11H12V13C12.2652 13 12.5196 13.1054 12.7071 13.2929C12.8946 13.4804 13 13.7348 13 14C13 14.2652 12.8946 14.5196 12.7071 14.7071C12.5196 14.8946 12.2652 15 12 15V16C12.2652 16 12.5196 16.1054 12.7071 16.2929C12.8946 16.4804 13 16.7348 13 17C13 17.2652 12.8946 17.5196 12.7071 17.7071C12.5196 17.8946 12.2652 18 12 18V19C11.9948 19.3378 11.9478 19.6737 11.86 20H19C19.7956 20 20.5587 19.6839 21.1213 19.1213C21.6839 18.5587 22 17.7956 22 17V7C21.9993 6.20462 21.6828 5.44207 21.12 4.88ZM15 18C14.8022 18 14.6089 17.9414 14.4444 17.8315C14.28 17.7216 14.1518 17.5654 14.0761 17.3827C14.0004 17.2 13.9806 16.9989 14.0192 16.8049C14.0578 16.6109 14.153 16.4327 14.2929 16.2929C14.4327 16.153 14.6109 16.0578 14.8049 16.0192C14.9989 15.9806 15.2 16.0004 15.3827 16.0761C15.5654 16.1518 15.7216 16.28 15.8315 16.4444C15.9414 16.6089 16 16.8022 16 17C16 17.2652 15.8946 17.5196 15.7071 17.7071C15.5196 17.8946 15.2652 18 15 18ZM15 15C14.8022 15 14.6089 14.9414 14.4444 14.8315C14.28 14.7216 14.1518 14.5654 14.0761 14.3827C14.0004 14.2 13.9806 13.9989 14.0192 13.8049C14.0578 13.6109 14.153 13.4327 14.2929 13.2929C14.4327 13.153 14.6109 13.0578 14.8049 13.0192C14.9989 12.9806 15.2 13.0004 15.3827 13.0761C15.5654 13.1518 15.7216 13.28 15.8315 13.4444C15.9414 13.6089 16 13.8022 16 14C16 14.2652 15.8946 14.5196 15.7071 14.7071C15.5196 14.8946 15.2652 15 15 15ZM18 18C17.8022 18 17.6089 17.9414 17.4444 17.8315C17.28 17.7216 17.1518 17.5654 17.0761 17.3827C17.0004 17.2 16.9806 16.9989 17.0192 16.8049C17.0578 16.6109 17.153 16.4327 17.2929 16.2929C17.4327 16.153 17.6109 16.0578 17.8049 16.0192C17.9989 15.9806 18.2 16.0004 18.3827 16.0761C18.5654 16.1518 18.7216 16.28 18.8315 16.4444C18.9414 16.6089 19 16.8022 19 17C19 17.2652 18.8946 17.5196 18.7071 17.7071C18.5196 17.8946 18.2652 18 18 18ZM18 15C17.8022 15 17.6089 14.9414 17.4444 14.8315C17.28 14.7216 17.1518 14.5654 17.0761 14.3827C17.0004 14.2 16.9806 13.9989 17.0192 13.8049C17.0578 13.6109 17.153 13.4327 17.2929 13.2929C17.4327 13.153 17.6109 13.0578 17.8049 13.0192C17.9989 12.9806 18.2 13.0004 18.3827 13.0761C18.5654 13.1518 18.7216 13.28 18.8315 13.4444C18.9414 13.6089 19 13.8022 19 14C19 14.2652 18.8946 14.5196 18.7071 14.7071C18.5196 14.8946 18.2652 15 18 15Z" fill="#141414"/>
</svg>
