<svg width="24" height="24" viewBox="0 0 24 24" fill="none" xmlns="http://www.w3.org/2000/svg">
<path d="M20 4.00003C18.32 2.31003 15.25 2.74003 13 5.00003C11.09 6.91003 10.51 9.43003 11.43 11.17L11.29 11.29C10.9827 11.6357 10.769 12.0543 10.6692 12.5059C10.5695 12.9575 10.5869 13.4271 10.72 13.87C10.82 14.45 10.82 14.59 10.72 14.7C10.62 14.81 10.46 14.81 9.88996 14.7C9.44753 14.5621 8.97672 14.5421 8.52418 14.642C8.07164 14.742 7.65308 14.9585 7.30996 15.27C6.99929 15.6137 6.78266 16.0318 6.68104 16.4838C6.57943 16.9359 6.59628 17.4064 6.72996 17.85C6.82996 18.43 6.82996 18.57 6.72996 18.69C6.62996 18.81 6.46996 18.8 5.89996 18.69C5.45568 18.5542 4.98388 18.5353 4.53015 18.6351C4.07643 18.735 3.65615 18.9502 3.30996 19.26C3.21623 19.353 3.14184 19.4636 3.09107 19.5855C3.0403 19.7073 3.01416 19.838 3.01416 19.97C3.01416 20.102 3.0403 20.2327 3.09107 20.3546C3.14184 20.4765 3.21623 20.5871 3.30996 20.68C3.40292 20.7738 3.51352 20.8482 3.63538 20.8989C3.75724 20.9497 3.88795 20.9758 4.01996 20.9758C4.15197 20.9758 4.28268 20.9497 4.40454 20.8989C4.52639 20.8482 4.637 20.7738 4.72996 20.68C4.83996 20.57 4.98996 20.56 5.55996 20.68C6.00239 20.818 6.4732 20.838 6.92574 20.738C7.37827 20.638 7.79684 20.4216 8.13996 20.11C8.45062 19.7663 8.66726 19.3482 8.76887 18.8962C8.87049 18.4442 8.85364 17.9736 8.71996 17.53C8.61996 16.95 8.61996 16.8 8.71996 16.69C8.81996 16.58 8.97996 16.58 9.54996 16.69C9.9926 16.826 10.4629 16.845 10.9151 16.7451C11.3672 16.6452 11.7858 16.4298 12.13 16.12C12.4406 15.7763 12.6573 15.3582 12.7589 14.9062C12.8605 14.4542 12.8436 13.9836 12.71 13.54C12.61 12.96 12.61 12.81 12.71 12.71C12.7401 12.6801 12.776 12.6566 12.8156 12.6411C12.8552 12.6257 12.8975 12.6185 12.94 12.62C13.4666 12.8759 14.0444 13.0092 14.63 13.01C16.2936 12.9379 17.8626 12.2163 19 11C21.23 8.77003 21.67 5.70003 20 4.00003Z" fill="#141414"/>
</svg>
