<svg width="24" height="24" viewBox="0 0 24 24" fill="none" xmlns="http://www.w3.org/2000/svg">
<path d="M20 17H18.89C18.6778 16.4242 18.2942 15.9273 17.7909 15.5764C17.2875 15.2254 16.6886 15.0372 16.075 15.0372C15.4614 15.0372 14.8625 15.2254 14.3591 15.5764C13.8558 15.9273 13.4722 16.4242 13.26 17H10.82C10.6098 16.4209 10.2264 15.9205 9.72184 15.5669C9.2173 15.2133 8.61612 15.0236 8 15.0236C7.38388 15.0236 6.7827 15.2133 6.27817 15.5669C5.77363 15.9205 5.3902 16.4209 5.18 17H4C3.73478 17 3.48043 17.1054 3.29289 17.2929C3.10536 17.4805 3 17.7348 3 18C3 18.2652 3.10536 18.5196 3.29289 18.7071C3.48043 18.8947 3.73478 19 4 19H5.18C5.3902 19.5792 5.77363 20.0796 6.27817 20.4332C6.7827 20.7868 7.38388 20.9765 8 20.9765C8.61612 20.9765 9.2173 20.7868 9.72184 20.4332C10.2264 20.0796 10.6098 19.5792 10.82 19H13.26C13.4722 19.5758 13.8558 20.0727 14.3591 20.4237C14.8625 20.7747 15.4614 20.9628 16.075 20.9628C16.6886 20.9628 17.2875 20.7747 17.7909 20.4237C18.2942 20.0727 18.6778 19.5758 18.89 19H20C20.2652 19 20.5196 18.8947 20.7071 18.7071C20.8946 18.5196 21 18.2652 21 18C21 17.7348 20.8946 17.4805 20.7071 17.2929C20.5196 17.1054 20.2652 17 20 17ZM21 11H19.44L16.93 4.25003C16.8289 3.97956 16.6687 3.73507 16.4611 3.53439C16.2535 3.33371 16.0037 3.1819 15.73 3.09003C15.4716 3.00459 15.1973 2.97821 14.9273 3.01282C14.6573 3.04744 14.3985 3.14216 14.17 3.29003C13.4902 3.60589 12.7496 3.76953 12 3.76953C11.2504 3.76953 10.5098 3.60589 9.83 3.29003C9.60148 3.14216 9.3427 3.04744 9.07272 3.01282C8.80274 2.97821 8.52843 3.00459 8.27 3.09003C7.99626 3.1819 7.74648 3.33371 7.53888 3.53439C7.33128 3.73507 7.17109 3.97956 7.07 4.25003L4.56 11H3C2.73478 11 2.48043 11.1054 2.29289 11.2929C2.10536 11.4805 2 11.7348 2 12C2 12.2652 2.10536 12.5196 2.29289 12.7071C2.48043 12.8947 2.73478 13 3 13H21C21.2652 13 21.5196 12.8947 21.7071 12.7071C21.8946 12.5196 22 12.2652 22 12C22 11.7348 21.8946 11.4805 21.7071 11.2929C21.5196 11.1054 21.2652 11 21 11Z" fill="#141414"/>
</svg>
