<svg width="24" height="24" viewBox="0 0 24 24" fill="none" xmlns="http://www.w3.org/2000/svg">
<path d="M8.5 7C8.20333 7 7.91332 7.08797 7.66664 7.2528C7.41997 7.41762 7.22771 7.65189 7.11418 7.92597C7.00065 8.20006 6.97094 8.50166 7.02882 8.79264C7.0867 9.08361 7.22956 9.35088 7.43934 9.56066C7.64912 9.77044 7.91639 9.9133 8.20736 9.97118C8.49834 10.0291 8.79994 9.99935 9.07403 9.88582C9.34811 9.77229 9.58238 9.58003 9.7472 9.33335C9.91203 9.08668 10 8.79667 10 8.5C10 8.10218 9.84196 7.72064 9.56066 7.43934C9.27936 7.15804 8.89782 7 8.5 7ZM18 3H6C5.20435 3 4.44129 3.31607 3.87868 3.87868C3.31607 4.44129 3 5.20435 3 6V18C3 18.7956 3.31607 19.5587 3.87868 20.1213C4.44129 20.6839 5.20435 21 6 21H18C18.7956 21 19.5587 20.6839 20.1213 20.1213C20.6839 19.5587 21 18.7956 21 18V6C21 5.20435 20.6839 4.44129 20.1213 3.87868C19.5587 3.31607 18.7956 3 18 3ZM19 12.09L16.21 9.29C16.117 9.19627 16.0064 9.12188 15.8846 9.07111C15.7627 9.02034 15.632 8.9942 15.5 8.9942C15.368 8.9942 15.2373 9.02034 15.1154 9.07111C14.9936 9.12188 14.883 9.19627 14.79 9.29L10.5 13.59L9.21 12.29C9.11704 12.1963 9.00644 12.1219 8.88458 12.0711C8.76272 12.0203 8.63201 11.9942 8.5 11.9942C8.36799 11.9942 8.23728 12.0203 8.11542 12.0711C7.99356 12.1219 7.88296 12.1963 7.79 12.29L5 15.09V6C5 5.73478 5.10536 5.48043 5.29289 5.29289C5.48043 5.10536 5.73478 5 6 5H18C18.2652 5 18.5196 5.10536 18.7071 5.29289C18.8946 5.48043 19 5.73478 19 6V12.09Z" fill="#141414"/>
</svg>
