<svg width="24" height="24" viewBox="0 0 24 24" fill="none" xmlns="http://www.w3.org/2000/svg">
<path d="M16 10H6V9C6 8.73478 6.10536 8.48043 6.29289 8.29289C6.48043 8.10536 6.73478 8 7 8H13C13.5304 8 14.0391 7.78929 14.4142 7.41421C14.7893 7.03914 15 6.53043 15 6C15 5.46957 14.7893 4.96086 14.4142 4.58579C14.0391 4.21071 13.5304 4 13 4H7C5.67392 4 4.40215 4.52678 3.46447 5.46447C2.52678 6.40215 2 7.67392 2 9V15C2 15.2652 2.10536 15.5196 2.29289 15.7071C2.48043 15.8946 2.73478 16 3 16H22C22 14.4087 21.3679 12.8826 20.2426 11.7574C19.1174 10.6321 17.5913 10 16 10ZM4 19C4 19.2652 4.10536 19.5196 4.29289 19.7071C4.48043 19.8946 4.73478 20 5 20H22V18H4V19Z" fill="#141414"/>
</svg>
