<svg width="24" height="24" viewBox="0 0 24 24" fill="none" xmlns="http://www.w3.org/2000/svg">
<path d="M18 5H15V4C15 3.45 14.55 3 14 3H10C9.45 3 9 3.45 9 4V5H6C3.79 5 2 6.79 2 9V10C2 10.55 2.45 11 3 11H6V20C6 20.55 6.45 21 7 21H17C17.55 21 18 20.55 18 20V11H21C21.55 11 22 10.55 22 10V9C22 6.79 20.21 5 18 5ZM11 17C10.45 17 10 16.55 10 16C10 15.45 10.45 15 11 15C11.55 15 12 15.45 12 16C12 16.55 11.55 17 11 17ZM11 12C10.45 12 10 11.55 10 11C10 10.45 10.45 10 11 10C11.55 10 12 10.45 12 11C12 11.55 11.55 12 11 12ZM15 14C14.45 14 14 13.55 14 13C14 12.45 14.45 12 15 12C15.55 12 16 12.45 16 13C16 13.55 15.55 14 15 14Z" fill="#141414"/>
</svg>
