<svg width="24" height="24" viewBox="0 0 24 24" fill="none" xmlns="http://www.w3.org/2000/svg">
<path d="M12 6C12.1978 6 12.3911 5.94135 12.5556 5.83147C12.72 5.72159 12.8482 5.56541 12.9239 5.38268C12.9996 5.19996 13.0194 4.99889 12.9808 4.80491C12.9422 4.61093 12.847 4.43275 12.7071 4.29289C12.5673 4.15304 12.3891 4.0578 12.1951 4.01922C12.0011 3.98063 11.8 4.00043 11.6173 4.07612C11.4346 4.15181 11.2784 4.27998 11.1685 4.44443C11.0586 4.60888 11 4.80222 11 5C11 5.26522 11.1054 5.51957 11.2929 5.70711C11.4804 5.89464 11.7348 6 12 6ZM15 5C15.1978 5 15.3911 4.94135 15.5556 4.83147C15.72 4.72159 15.8482 4.56541 15.9239 4.38268C15.9996 4.19996 16.0194 3.99889 15.9808 3.80491C15.9422 3.61093 15.847 3.43275 15.7071 3.29289C15.5673 3.15304 15.3891 3.0578 15.1951 3.01922C15.0011 2.98063 14.8 3.00043 14.6173 3.07612C14.4346 3.15181 14.2784 3.27998 14.1685 3.44443C14.0586 3.60888 14 3.80222 14 4C14 4.26522 14.1054 4.51957 14.2929 4.70711C14.4804 4.89464 14.7348 5 15 5ZM20 7C20.1978 7 20.3911 6.94135 20.5556 6.83147C20.72 6.72159 20.8482 6.56541 20.9239 6.38268C20.9996 6.19996 21.0194 5.99889 20.9808 5.80491C20.9422 5.61093 20.847 5.43275 20.7071 5.29289C20.5673 5.15304 20.3891 5.0578 20.1951 5.01922C20.0011 4.98063 19.8 5.00043 19.6173 5.07612C19.4346 5.15181 19.2784 5.27998 19.1685 5.44443C19.0586 5.60888 19 5.80222 19 6C19 6.26522 19.1054 6.51957 19.2929 6.70711C19.4804 6.89464 19.7348 7 20 7ZM20 9C19.8022 9 19.6089 9.05865 19.4444 9.16853C19.28 9.27841 19.1518 9.43459 19.0761 9.61732C19.0004 9.80004 18.9806 10.0011 19.0192 10.1951C19.0578 10.3891 19.153 10.5673 19.2929 10.7071C19.4327 10.847 19.6109 10.9422 19.8049 10.9808C19.9989 11.0194 20.2 10.9996 20.3827 10.9239C20.5654 10.8482 20.7216 10.72 20.8315 10.5556C20.9414 10.3911 21 10.1978 21 10C21 9.73478 20.8946 9.48043 20.7071 9.29289C20.5196 9.10536 20.2652 9 20 9ZM9 5C9.19778 5 9.39112 4.94135 9.55557 4.83147C9.72002 4.72159 9.84819 4.56541 9.92388 4.38268C9.99957 4.19996 10.0194 3.99889 9.98079 3.80491C9.9422 3.61093 9.84696 3.43275 9.70711 3.29289C9.56725 3.15304 9.38907 3.0578 9.19509 3.01922C9.00111 2.98063 8.80004 3.00043 8.61732 3.07612C8.43459 3.15181 8.27841 3.27998 8.16853 3.44443C8.05865 3.60888 8 3.80222 8 4C8 4.26522 8.10536 4.51957 8.29289 4.70711C8.48043 4.89464 8.73478 5 9 5ZM18 9C18.1978 9 18.3911 8.94135 18.5556 8.83147C18.72 8.72159 18.8482 8.56541 18.9239 8.38268C18.9996 8.19996 19.0194 7.99889 18.9808 7.80491C18.9422 7.61093 18.847 7.43275 18.7071 7.29289C18.5673 7.15304 18.3891 7.0578 18.1951 7.01922C18.0011 6.98063 17.8 7.00043 17.6173 7.07612C17.4346 7.15181 17.2784 7.27998 17.1685 7.44443C17.0586 7.60888 17 7.80222 17 8C17 8.26522 17.1054 8.51957 17.2929 8.70711C17.4804 8.89464 17.7348 9 18 9ZM4 11C4.19778 11 4.39112 10.9414 4.55557 10.8315C4.72002 10.7216 4.84819 10.5654 4.92388 10.3827C4.99957 10.2 5.01937 9.99889 4.98079 9.80491C4.9422 9.61093 4.84696 9.43275 4.70711 9.29289C4.56725 9.15304 4.38907 9.0578 4.19509 9.01922C4.00111 8.98063 3.80004 9.00043 3.61732 9.07612C3.43459 9.15181 3.27841 9.27998 3.16853 9.44443C3.05865 9.60888 3 9.80222 3 10C3 10.2652 3.10536 10.5196 3.29289 10.7071C3.48043 10.8946 3.73478 11 4 11ZM20 19H14V16H15C15.2652 16 15.5196 15.8946 15.7071 15.7071C15.8946 15.5196 16 15.2652 16 15V13C16 12.7348 15.8946 12.4804 15.7071 12.2929C15.5196 12.1054 15.2652 12 15 12H9C8.73478 12 8.48043 12.1054 8.29289 12.2929C8.10536 12.4804 8 12.7348 8 13V15C8 15.2652 8.10536 15.5196 8.29289 15.7071C8.48043 15.8946 8.73478 16 9 16H10V19H4C3.73478 19 3.48043 19.1054 3.29289 19.2929C3.10536 19.4804 3 19.7348 3 20C3 20.2652 3.10536 20.5196 3.29289 20.7071C3.48043 20.8946 3.73478 21 4 21H20C20.2652 21 20.5196 20.8946 20.7071 20.7071C20.8946 20.5196 21 20.2652 21 20C21 19.7348 20.8946 19.4804 20.7071 19.2929C20.5196 19.1054 20.2652 19 20 19ZM6 9C6.19778 9 6.39112 8.94135 6.55557 8.83147C6.72002 8.72159 6.84819 8.56541 6.92388 8.38268C6.99957 8.19996 7.01937 7.99889 6.98079 7.80491C6.9422 7.61093 6.84696 7.43275 6.70711 7.29289C6.56725 7.15304 6.38907 7.0578 6.19509 7.01922C6.00111 6.98063 5.80004 7.00043 5.61732 7.07612C5.43459 7.15181 5.27841 7.27998 5.16853 7.44443C5.05865 7.60888 5 7.80222 5 8C5 8.26522 5.10536 8.51957 5.29289 8.70711C5.48043 8.89464 5.73478 9 6 9ZM9 9H10V10C10 10.2652 10.1054 10.5196 10.2929 10.7071C10.4804 10.8946 10.7348 11 11 11H13C13.2652 11 13.5196 10.8946 13.7071 10.7071C13.8946 10.5196 14 10.2652 14 10V9H15C15.2652 9 15.5196 8.89464 15.7071 8.70711C15.8946 8.51957 16 8.26522 16 8C16 7.73478 15.8946 7.48043 15.7071 7.29289C15.5196 7.10536 15.2652 7 15 7H9C8.73478 7 8.48043 7.10536 8.29289 7.29289C8.10536 7.48043 8 7.73478 8 8C8 8.26522 8.10536 8.51957 8.29289 8.70711C8.48043 8.89464 8.73478 9 9 9ZM4 7C4.19778 7 4.39112 6.94135 4.55557 6.83147C4.72002 6.72159 4.84819 6.56541 4.92388 6.38268C4.99957 6.19996 5.01937 5.99889 4.98079 5.80491C4.9422 5.61093 4.84696 5.43275 4.70711 5.29289C4.56725 5.15304 4.38907 5.0578 4.19509 5.01922C4.00111 4.98063 3.80004 5.00043 3.61732 5.07612C3.43459 5.15181 3.27841 5.27998 3.16853 5.44443C3.05865 5.60888 3 5.80222 3 6C3 6.26522 3.10536 6.51957 3.29289 6.70711C3.48043 6.89464 3.73478 7 4 7Z" fill="#141414"/>
</svg>
