<svg width="24" height="24" viewBox="0 0 24 24" fill="none" xmlns="http://www.w3.org/2000/svg">
<path d="M17.5 6C17.7967 6 18.0867 5.91203 18.3334 5.7472C18.58 5.58238 18.7723 5.34811 18.8858 5.07403C18.9993 4.79994 19.0291 4.49834 18.9712 4.20737C18.9133 3.91639 18.7704 3.64912 18.5607 3.43934C18.3509 3.22956 18.0836 3.0867 17.7926 3.02882C17.5017 2.97094 17.2001 3.00065 16.926 3.11418C16.6519 3.22771 16.4176 3.41997 16.2528 3.66665C16.088 3.91332 16 4.20333 16 4.5C16 4.89783 16.158 5.27936 16.4393 5.56066C16.7206 5.84197 17.1022 6 17.5 6ZM20 17C19.7348 17 19.4804 17.1054 19.2929 17.2929C19.1054 17.4804 19 17.7348 19 18V19H17V14C16.9991 13.8353 16.9576 13.6733 16.8791 13.5286C16.8006 13.3838 16.6876 13.2606 16.55 13.17L13.77 11.31L15.77 8.6C15.8718 8.45605 15.9338 8.28773 15.9496 8.11211C15.9654 7.9365 15.9345 7.75982 15.86 7.6C15.7862 7.43018 15.6668 7.28417 15.515 7.17823C15.3631 7.0723 15.1848 7.0106 15 7H8C7.73478 7 7.48043 7.10536 7.29289 7.29289C7.10536 7.48043 7 7.73478 7 8C7 8.26522 7.10536 8.51957 7.29289 8.70711C7.48043 8.89464 7.73478 9 8 9H13L8.5 15H5V13C5 12.7348 4.89464 12.4804 4.70711 12.2929C4.51957 12.1054 4.26522 12 4 12C3.73478 12 3.48043 12.1054 3.29289 12.2929C3.10536 12.4804 3 12.7348 3 13V19C3 19.5304 3.21071 20.0391 3.58579 20.4142C3.96086 20.7893 4.46957 21 5 21H6C6.26522 21 6.51957 20.8946 6.70711 20.7071C6.89464 20.5196 7 20.2652 7 20C7 19.7348 6.89464 19.4804 6.70711 19.2929C6.51957 19.1054 6.26522 19 6 19H5V17H9C9.15525 17 9.30836 16.9639 9.44721 16.8944C9.58607 16.825 9.70685 16.7242 9.8 16.6L12.57 12.91L15 14.54V19H13C12.7348 19 12.4804 19.1054 12.2929 19.2929C12.1054 19.4804 12 19.7348 12 20C12 20.2652 12.1054 20.5196 12.2929 20.7071C12.4804 20.8946 12.7348 21 13 21H19C19.5304 21 20.0391 20.7893 20.4142 20.4142C20.7893 20.0391 21 19.5304 21 19V18C21 17.7348 20.8946 17.4804 20.7071 17.2929C20.5196 17.1054 20.2652 17 20 17Z" fill="#141414"/>
</svg>
