<svg width="24" height="24" viewBox="0 0 24 24" fill="none" xmlns="http://www.w3.org/2000/svg">
<path d="M12 2C10.0222 2 8.08879 2.58649 6.4443 3.6853C4.79981 4.78412 3.51809 6.3459 2.76121 8.17317C2.00433 10.0004 1.8063 12.0111 2.19215 13.9509C2.578 15.8907 3.53041 17.6725 4.92894 19.0711C6.32746 20.4696 8.10929 21.422 10.0491 21.8079C11.9889 22.1937 13.9996 21.9957 15.8268 21.2388C17.6541 20.4819 19.2159 19.2002 20.3147 17.5557C21.4135 15.9112 22 13.9778 22 12C22 10.6868 21.7413 9.38642 21.2388 8.17317C20.7363 6.95991 19.9997 5.85752 19.0711 4.92893C18.1425 4.00035 17.0401 3.26375 15.8268 2.7612C14.6136 2.25866 13.3132 2 12 2ZM12 20C11.16 20 10.05 18.52 9.45 16H14.55C14 18.52 12.84 20 12 20ZM9.11 14C8.96336 12.6707 8.96336 11.3293 9.11 10H14.89C14.9638 10.6641 15.0005 11.3318 15 12C15.0005 12.6682 14.9638 13.3359 14.89 14H9.11ZM4 12C4.00445 11.3252 4.09177 10.6535 4.26 10H7.09C7 10.64 7 11.31 7 12C7 12.69 7 13.36 7.09 14H4.26C4.09177 13.3465 4.00445 12.6748 4 12ZM12 4C12.84 4 13.95 5.48 14.55 8H9.45C10.05 5.48 11.16 4 12 4ZM16.91 10H19.74C20.0868 11.3108 20.0868 12.6892 19.74 14H16.91C16.97 13.36 17 12.69 17 12C17 11.31 17 10.64 16.91 10ZM18.91 8H16.61C16.4143 6.91117 16.0782 5.85233 15.61 4.85C16.9928 5.56059 18.1418 6.65411 18.92 8H18.91ZM8.44 4.85C7.95462 5.84991 7.60164 6.90884 7.39 8H5.08C5.87161 6.647 7.03879 5.55276 8.44 4.85ZM5.08 16H7.39C7.5857 17.0888 7.92184 18.1477 8.39 19.15C7.00724 18.4394 5.85818 17.3459 5.08 16ZM15.56 19.15C16.0282 18.1477 16.3643 17.0888 16.56 16H18.87C18.0918 17.3459 16.9428 18.4394 15.56 19.15Z" fill="#141414"/>
</svg>
