<svg width="24" height="24" viewBox="0 0 24 24" fill="none" xmlns="http://www.w3.org/2000/svg">
<path d="M16 7.00002H20C19.9978 6.47044 19.7856 5.96337 19.41 5.59002L16.41 2.59002C16.0367 2.21443 15.5296 2.00225 15 2.00002V6.00002C15 6.26524 15.1054 6.51959 15.2929 6.70713C15.4804 6.89466 15.7348 7.00002 16 7.00002ZM13.88 8.12002C13.3172 7.55795 13.0007 6.7954 13 6.00002V2.00002H6.50001C6.17133 1.9987 5.84564 2.06246 5.54173 2.18763C5.23782 2.3128 4.9617 2.49689 4.72929 2.7293C4.49688 2.96171 4.31278 3.23784 4.18761 3.54175C4.06244 3.84566 3.99868 4.17135 4 4.50002V19.5C3.99868 19.8287 4.06244 20.1544 4.18761 20.4583C4.31278 20.7622 4.49688 21.0383 4.72929 21.2707C4.9617 21.5031 5.23782 21.6872 5.54173 21.8124C5.84564 21.9376 6.17133 22.0013 6.50001 22H17.5C17.8287 22.0013 18.1544 21.9376 18.4583 21.8124C18.7622 21.6872 19.0383 21.5031 19.2707 21.2707C19.5031 21.0383 19.6872 20.7622 19.8124 20.4583C19.9376 20.1544 20.0013 19.8287 20 19.5V9.00002H16C15.2046 8.99932 14.4421 8.68279 13.88 8.12002ZM8 18C7.80222 18 7.60888 17.9414 7.44443 17.8315C7.27999 17.7216 7.15181 17.5654 7.07613 17.3827C7.00044 17.2 6.98063 16.9989 7.01922 16.8049C7.0578 16.6109 7.15305 16.4328 7.2929 16.2929C7.43275 16.1531 7.61093 16.0578 7.80491 16.0192C7.9989 15.9806 8.19996 16.0005 8.38269 16.0761C8.56541 16.1518 8.72159 16.28 8.83147 16.4444C8.94136 16.6089 9 16.8022 9 17C9 17.2652 8.89465 17.5196 8.70711 17.7071C8.51958 17.8947 8.26522 18 8 18ZM8 14C7.80222 14 7.60888 13.9414 7.44443 13.8315C7.27999 13.7216 7.15181 13.5654 7.07613 13.3827C7.00044 13.2 6.98063 12.9989 7.01922 12.8049C7.0578 12.6109 7.15305 12.4328 7.2929 12.2929C7.43275 12.1531 7.61093 12.0578 7.80491 12.0192C7.9989 11.9806 8.19996 12.0005 8.38269 12.0761C8.56541 12.1518 8.72159 12.28 8.83147 12.4444C8.94136 12.6089 9 12.8022 9 13C9 13.2652 8.89465 13.5196 8.70711 13.7071C8.51958 13.8947 8.26522 14 8 14ZM12 18C11.8022 18 11.6089 17.9414 11.4444 17.8315C11.28 17.7216 11.1518 17.5654 11.0761 17.3827C11.0004 17.2 10.9806 16.9989 11.0192 16.8049C11.0578 16.6109 11.153 16.4328 11.2929 16.2929C11.4328 16.1531 11.6109 16.0578 11.8049 16.0192C11.9989 15.9806 12.2 16.0005 12.3827 16.0761C12.5654 16.1518 12.7216 16.28 12.8315 16.4444C12.9414 16.6089 13 16.8022 13 17C13 17.2652 12.8946 17.5196 12.7071 17.7071C12.5196 17.8947 12.2652 18 12 18ZM12 14C11.8022 14 11.6089 13.9414 11.4444 13.8315C11.28 13.7216 11.1518 13.5654 11.0761 13.3827C11.0004 13.2 10.9806 12.9989 11.0192 12.8049C11.0578 12.6109 11.153 12.4328 11.2929 12.2929C11.4328 12.1531 11.6109 12.0578 11.8049 12.0192C11.9989 11.9806 12.2 12.0005 12.3827 12.0761C12.5654 12.1518 12.7216 12.28 12.8315 12.4444C12.9414 12.6089 13 12.8022 13 13C13 13.2652 12.8946 13.5196 12.7071 13.7071C12.5196 13.8947 12.2652 14 12 14ZM16 18C15.8022 18 15.6089 17.9414 15.4444 17.8315C15.28 17.7216 15.1518 17.5654 15.0761 17.3827C15.0004 17.2 14.9806 16.9989 15.0192 16.8049C15.0578 16.6109 15.153 16.4328 15.2929 16.2929C15.4328 16.1531 15.6109 16.0578 15.8049 16.0192C15.9989 15.9806 16.2 16.0005 16.3827 16.0761C16.5654 16.1518 16.7216 16.28 16.8315 16.4444C16.9414 16.6089 17 16.8022 17 17C17 17.2652 16.8946 17.5196 16.7071 17.7071C16.5196 17.8947 16.2652 18 16 18ZM17 13C17 13.1978 16.9414 13.3911 16.8315 13.5556C16.7216 13.72 16.5654 13.8482 16.3827 13.9239C16.2 13.9996 15.9989 14.0194 15.8049 13.9808C15.6109 13.9422 15.4328 13.847 15.2929 13.7071C15.153 13.5673 15.0578 13.3891 15.0192 13.1951C14.9806 13.0011 15.0004 12.8001 15.0761 12.6173C15.1518 12.4346 15.28 12.2784 15.4444 12.1686C15.6089 12.0587 15.8022 12 16 12C16.2652 12 16.5196 12.1054 16.7071 12.2929C16.8946 12.4804 17 12.7348 17 13Z" fill="#141414"/>
</svg>
