<svg width="24" height="24" viewBox="0 0 24 24" fill="none" xmlns="http://www.w3.org/2000/svg">
<path d="M18 3H6C5.20435 3 4.44129 3.31607 3.87868 3.87868C3.31607 4.44129 3 5.20435 3 6V18C3 18.7956 3.31607 19.5587 3.87868 20.1213C4.44129 20.6839 5.20435 21 6 21H18C18.7956 21 19.5587 20.6839 20.1213 20.1213C20.6839 19.5587 21 18.7956 21 18V6C21 5.20435 20.6839 4.44129 20.1213 3.87868C19.5587 3.31607 18.7956 3 18 3ZM12 17C11.8022 17 11.6089 16.9414 11.4444 16.8315C11.28 16.7216 11.1518 16.5654 11.0761 16.3827C11.0004 16.2 10.9806 15.9989 11.0192 15.8049C11.0578 15.6109 11.153 15.4327 11.2929 15.2929C11.4327 15.153 11.6109 15.0578 11.8049 15.0192C11.9989 14.9806 12.2 15.0004 12.3827 15.0761C12.5654 15.1518 12.7216 15.28 12.8315 15.4444C12.9414 15.6089 13 15.8022 13 16C13 16.2652 12.8946 16.5196 12.7071 16.7071C12.5196 16.8946 12.2652 17 12 17ZM15.38 13.23C15.2915 13.3793 15.1657 13.503 15.0149 13.5889C14.8641 13.6748 14.6935 13.72 14.52 13.72C14.3409 13.7172 14.1654 13.669 14.01 13.58C13.4096 13.207 12.7168 13.0093 12.01 13.0093C11.3032 13.0093 10.6104 13.207 10.01 13.58C9.78441 13.682 9.52902 13.6966 9.29325 13.6211C9.05748 13.5456 8.85808 13.3854 8.73366 13.1714C8.60923 12.9573 8.56861 12.7048 8.61965 12.4625C8.6707 12.2203 8.80979 12.0056 9.01 11.86C9.92534 11.3006 10.9773 11.0047 12.05 11.0047C13.1227 11.0047 14.1747 11.3006 15.09 11.86C15.3081 12.0049 15.4606 12.2296 15.5148 12.4858C15.5691 12.7419 15.5206 13.0091 15.38 13.23ZM17.83 10.08C17.7383 10.2157 17.6146 10.3268 17.4699 10.4035C17.3252 10.4803 17.1638 10.5202 17 10.52C16.8006 10.5204 16.6055 10.4612 16.44 10.35C15.1211 9.48408 13.5778 9.02273 12 9.02273C10.4222 9.02273 8.87891 9.48408 7.56 10.35C7.33987 10.4985 7.06976 10.5535 6.80908 10.5029C6.54841 10.4522 6.31852 10.3001 6.17 10.08C6.02148 9.85987 5.96649 9.58976 6.01712 9.32908C6.06776 9.06841 6.21987 8.83852 6.44 8.69C8.0925 7.60801 10.0248 7.0317 12 7.0317C13.9752 7.0317 15.9075 7.60801 17.56 8.69C17.6691 8.76343 17.7627 8.85767 17.8353 8.96731C17.908 9.07696 17.9583 9.19986 17.9834 9.32898C18.0085 9.4581 18.0078 9.5909 17.9815 9.71977C17.9552 9.84864 17.9037 9.97106 17.83 10.08Z" fill="#141414"/>
</svg>
