<svg width="24" height="24" viewBox="0 0 24 24" fill="none" xmlns="http://www.w3.org/2000/svg">
<path d="M18 3H6C5.20435 3 4.44129 3.31607 3.87868 3.87868C3.31607 4.44129 3 5.20435 3 6V18C3 18.7956 3.31607 19.5587 3.87868 20.1213C4.44129 20.6839 5.20435 21 6 21H18C18.7956 21 19.5587 20.6839 20.1213 20.1213C20.6839 19.5587 21 18.7956 21 18V6C21 5.20435 20.6839 4.44129 20.1213 3.87868C19.5587 3.31607 18.7956 3 18 3ZM16.5 8C16.5083 8.22445 16.4408 8.44515 16.3084 8.62656C16.1759 8.80797 15.9863 8.93951 15.77 9L13 9.75V15.5C13 15.9945 12.8534 16.4778 12.5787 16.8889C12.304 17.3 11.9135 17.6205 11.4567 17.8097C10.9999 17.9989 10.4972 18.0484 10.0123 17.952C9.52732 17.8555 9.08186 17.6174 8.73223 17.2678C8.3826 16.9181 8.1445 16.4727 8.04804 15.9877C7.95157 15.5028 8.00108 15.0001 8.1903 14.5433C8.37952 14.0865 8.69995 13.696 9.11107 13.4213C9.5222 13.1466 10.0055 13 10.5 13C10.6678 13.0013 10.8352 13.018 11 13.05V8C10.9917 7.77555 11.0592 7.55485 11.1916 7.37344C11.3241 7.19203 11.5137 7.06049 11.73 7L15.23 6C15.3776 5.95816 15.5328 5.95083 15.6837 5.97857C15.8345 6.00631 15.977 6.06839 16.1 6.16C16.2242 6.25315 16.325 6.37393 16.3944 6.51279C16.4639 6.65164 16.5 6.80475 16.5 6.96V8Z" fill="#141414"/>
</svg>
