<svg width="24" height="24" viewBox="0 0 24 24" fill="none" xmlns="http://www.w3.org/2000/svg">
<path d="M9.34006 10.9302C10.0201 11.0802 10.6701 10.9902 11.2301 10.7302C11.7201 10.5102 12.2801 10.5102 12.7701 10.7302C13.3301 10.9902 13.9701 11.0802 14.6601 10.9302C15.8101 10.6802 16.7301 9.73023 16.9501 8.58023C17.1601 7.47023 16.7601 6.45023 16.0201 5.79023C15.4101 5.24023 15.0001 4.50023 15.0001 3.68023V3.10023C15.0001 2.44023 14.5501 1.99023 14.0001 1.99023H10.0001C9.45006 1.99023 9.00006 2.44023 9.00006 2.99023V3.67023C9.00006 4.49023 8.59006 5.23023 7.98006 5.78023C7.25006 6.44023 6.85006 7.46023 7.05006 8.57023C7.27006 9.72023 8.19006 10.6702 9.34006 10.9202V10.9302ZM16.9401 15.4202C16.7201 14.2702 15.8001 13.3202 14.6501 13.0702C13.9701 12.9202 13.3201 13.0102 12.7601 13.2702C12.2701 13.4902 11.7101 13.4902 11.2201 13.2702C10.6601 13.0102 10.0201 12.9202 9.33006 13.0702C8.18006 13.3202 7.26006 14.2702 7.04006 15.4202C6.83006 16.5302 7.23006 17.5502 7.97006 18.2102C8.58006 18.7602 8.99006 19.5002 8.99006 20.3202V21.0002C8.99006 21.5502 9.44006 22.0002 9.99006 22.0002H13.9901C14.5401 22.0002 14.9901 21.5502 14.9901 21.0002V20.3202C14.9901 19.5002 15.4001 18.7602 16.0101 18.2102C16.7401 17.5502 17.1401 16.5302 16.9401 15.4202Z" fill="#141414"/>
</svg>
