<svg width="24" height="24" viewBox="0 0 24 24" fill="none" xmlns="http://www.w3.org/2000/svg">
<path fill-rule="evenodd" clip-rule="evenodd" d="M22 12C22 17.5228 17.5228 22 12 22C7.52236 22 3.73207 19.0571 2.4578 15H6C6.55228 15 7 14.5523 7 14C7 13.4477 6.55228 13 6 13H2.04938C2.01672 12.6711 2 12.3375 2 12C2 11.6625 2.01672 11.3289 2.04938 11H14C14.5523 11 15 10.5523 15 10C15 9.44772 14.5523 9 14 9H2.4578C2.6787 8.29667 2.97522 7.62683 3.33782 7H11C11.5523 7 12 6.55228 12 6C12 5.44772 11.5523 5 11 5H4.85857C6.67349 3.14864 9.20261 2 12 2C17.5228 2 22 6.47715 22 12Z" fill="#141414"/>
</svg>
