<svg width="24" height="24" viewBox="0 0 24 24" fill="none" xmlns="http://www.w3.org/2000/svg">
<path d="M13 2H11C9.93913 2 8.92172 2.42143 8.17157 3.17157C7.42143 3.92172 7 4.93913 7 6V18C7 19.0609 7.42143 20.0783 8.17157 20.8284C8.92172 21.5786 9.93913 22 11 22H13C14.0609 22 15.0783 21.5786 15.8284 20.8284C16.5786 20.0783 17 19.0609 17 18V6C17 4.93913 16.5786 3.92172 15.8284 3.17157C15.0783 2.42143 14.0609 2 13 2ZM14 9C14 9.26522 13.8946 9.51957 13.7071 9.70711C13.5196 9.89464 13.2652 10 13 10H11C10.7348 10 10.4804 9.89464 10.2929 9.70711C10.1054 9.51957 10 9.26522 10 9V7C10 6.73478 10.1054 6.48043 10.2929 6.29289C10.4804 6.10536 10.7348 6 11 6H13C13.2652 6 13.5196 6.10536 13.7071 6.29289C13.8946 6.48043 14 6.73478 14 7V9Z" fill="#141414"/>
</svg>
