<svg width="24" height="24" viewBox="0 0 24 24" fill="none" xmlns="http://www.w3.org/2000/svg">
<path d="M21.1401 8.66001L17.5401 4.66001C17.3519 4.45157 17.122 4.28508 16.8653 4.17137C16.6086 4.05765 16.3308 3.99927 16.0501 4.00001H8.00005C7.71928 3.99927 7.4415 4.05765 7.18478 4.17137C6.92807 4.28508 6.69817 4.45157 6.51005 4.66001L2.91005 8.66001C2.57837 9.02751 2.39478 9.50496 2.39478 10C2.39478 10.4951 2.57837 10.9725 2.91005 11.34L11.3101 20.67C11.4038 20.7731 11.518 20.8555 11.6455 20.9119C11.7729 20.9683 11.9107 20.9974 12.0501 20.9974C12.1894 20.9974 12.3272 20.9683 12.4546 20.9119C12.5821 20.8555 12.6963 20.7731 12.7901 20.67L21.1901 11.34C21.5149 10.9664 21.6897 10.4855 21.6805 9.99039C21.6712 9.49532 21.4787 9.02128 21.1401 8.66001Z" fill="#141414"/>
</svg>
