<svg width="24" height="24" viewBox="0 0 24 24" fill="none" xmlns="http://www.w3.org/2000/svg">
<path d="M20 4C19.7348 4 19.4804 4.10536 19.2929 4.29289C19.1054 4.48043 19 4.73478 19 5V6H5V5C5 4.73478 4.89464 4.48043 4.70711 4.29289C4.51957 4.10536 4.26522 4 4 4C3.73478 4 3.48043 4.10536 3.29289 4.29289C3.10536 4.48043 3 4.73478 3 5V19.5C3 19.6326 3.05268 19.7598 3.14645 19.8536C3.24021 19.9473 3.36739 20 3.5 20H4.5C4.63261 20 4.75979 19.9473 4.85355 19.8536C4.94732 19.7598 5 19.6326 5 19.5V18H19V19.5C19 19.6326 19.0527 19.7598 19.1464 19.8536C19.2402 19.9473 19.3674 20 19.5 20H20.5C20.6326 20 20.7598 19.9473 20.8536 19.8536C20.9473 19.7598 21 19.6326 21 19.5V5C21 4.73478 20.8946 4.48043 20.7071 4.29289C20.5196 4.10536 20.2652 4 20 4ZM7 14H5V8H7V14ZM11 14H9V8H11V14ZM15 14H13V8H15V14ZM19 14H17V8H19V14Z" fill="#141414"/>
</svg>
