<svg width="24" height="24" viewBox="0 0 24 24" fill="none" xmlns="http://www.w3.org/2000/svg">
<path d="M20.6801 5.65968C19.8201 3.92968 17.5101 3.39968 15.9501 4.79968C14.9301 5.70968 14.8301 7.20968 15.3701 8.45968C15.4401 8.62968 15.5001 8.80968 15.5501 8.99968H15.0001C13.8001 8.99968 12.7301 9.53968 12.0001 10.3797C11.2701 9.53968 10.2001 8.99968 9.00006 8.99968H8.45006C8.50006 8.80968 8.56006 8.62968 8.63006 8.45968C9.17006 7.20968 9.06006 5.70968 8.05006 4.79968C6.49006 3.39968 4.19006 3.92968 3.32006 5.65968C1.89006 8.50968 1.89006 12.4897 3.32006 15.3397C3.85006 16.3897 4.90006 16.9997 6.01006 16.9997C6.76006 16.9997 7.54006 16.7097 8.17006 16.0897C9.09006 15.1797 9.21006 13.7697 8.66006 12.5997C8.45006 12.1597 8.33006 11.5897 8.28006 10.9997H9.01006C10.1101 10.9997 11.0101 11.8997 11.0101 12.9997V15.9997C9.91006 15.9997 9.01006 16.8997 9.01006 17.9997C9.01006 19.0997 9.91006 19.9997 11.0101 19.9997C11.0101 20.5497 11.4601 20.9997 12.0101 20.9997C12.5601 20.9997 13.0101 20.5497 13.0101 19.9997C14.1101 19.9997 15.0101 19.0997 15.0101 17.9997C15.0101 16.8997 14.1101 15.9997 13.0101 15.9997V12.9997C13.0101 11.8997 13.9101 10.9997 15.0101 10.9997H15.7401C15.6901 11.5897 15.5701 12.1497 15.3601 12.5997C14.8101 13.7697 14.9301 15.1897 15.8501 16.0897C16.4801 16.7097 17.2601 16.9997 18.0101 16.9997C19.1101 16.9997 20.1701 16.3897 20.7001 15.3397C22.1301 12.4897 22.1301 8.50968 20.7001 5.65968H20.6801Z" fill="#141414"/>
</svg>
