<svg width="24" height="24" viewBox="0 0 24 24" fill="none" xmlns="http://www.w3.org/2000/svg">
<path d="M20.6801 5.65987C19.9401 4.17987 18.1401 3.57987 16.6601 4.31987C15.1801 5.05987 14.5801 6.85987 15.3201 8.33987C15.4201 8.53987 15.4901 8.75987 15.5601 8.99987H15.0101C13.8101 8.99987 12.7401 9.53987 12.0101 10.3799C11.2801 9.53987 10.2101 8.99987 9.01008 8.99987H8.46008C8.52008 8.75987 8.60008 8.53987 8.70008 8.33987C9.44008 6.85987 8.84008 5.05987 7.36008 4.31987C5.88008 3.57987 4.08008 4.17987 3.34008 5.65987C1.91008 8.50987 1.91008 12.4899 3.34008 15.3399C3.87008 16.3899 4.92008 16.9999 6.03008 16.9999C6.48008 16.9999 6.94008 16.8999 7.37008 16.6799C8.85008 15.9399 9.45008 14.1399 8.71008 12.6599C8.48008 12.2099 8.35008 11.6199 8.30008 10.9999H9.03008C10.1301 10.9999 11.0301 11.8999 11.0301 12.9999V19.9999C11.0301 20.5499 11.4801 20.9999 12.0301 20.9999C12.5801 20.9999 13.0301 20.5499 13.0301 19.9999V12.9999C13.0301 11.8999 13.9301 10.9999 15.0301 10.9999H15.7601C15.7101 11.6199 15.5801 12.2099 15.3501 12.6599C14.6101 14.1399 15.2101 15.9399 16.6901 16.6799C17.1201 16.8999 17.5801 16.9999 18.0301 16.9999C19.1301 16.9999 20.1901 16.3899 20.7201 15.3399C22.1501 12.4899 22.1501 8.50987 20.7201 5.65987H20.6801Z" fill="#141414"/>
</svg>
