<svg width="24" height="24" viewBox="0 0 24 24" fill="none" xmlns="http://www.w3.org/2000/svg">
<path d="M20.71 16.71L12.83 8.83C12.9424 8.39559 12.9995 7.94872 13 7.5C13 6.41221 12.6774 5.34884 12.0731 4.44437C11.4687 3.5399 10.6098 2.83495 9.60476 2.41867C8.59977 2.00238 7.4939 1.89346 6.42701 2.10568C5.36011 2.3179 4.3801 2.84173 3.61092 3.61092C2.84173 4.3801 2.3179 5.36011 2.10568 6.42701C1.89346 7.4939 2.00238 8.59977 2.41867 9.60476C2.83495 10.6098 3.5399 11.4687 4.44437 12.0731C5.34884 12.6774 6.41221 13 7.5 13C7.94872 12.9995 8.39559 12.9424 8.83 12.83L10 14H12V16H14V18H16V20L16.71 20.71C16.8963 20.8947 17.1477 20.9989 17.41 21H20C20.2652 21 20.5196 20.8946 20.7071 20.7071C20.8946 20.5196 21 20.2652 21 20V17.41C20.9989 17.1477 20.8947 16.8963 20.71 16.71ZM6.5 8C6.20333 8 5.91332 7.91203 5.66665 7.74721C5.41997 7.58238 5.22771 7.34812 5.11418 7.07403C5.00065 6.79994 4.97095 6.49834 5.02882 6.20737C5.0867 5.9164 5.22956 5.64912 5.43934 5.43934C5.64912 5.22956 5.9164 5.0867 6.20737 5.02882C6.49834 4.97095 6.79994 5.00065 7.07403 5.11418C7.34812 5.22771 7.58238 5.41997 7.74721 5.66665C7.91203 5.91332 8 6.20333 8 6.5C8 6.89783 7.84197 7.27936 7.56066 7.56066C7.27936 7.84197 6.89783 8 6.5 8Z" fill="#141414"/>
</svg>
