<svg width="24" height="24" viewBox="0 0 24 24" fill="none" xmlns="http://www.w3.org/2000/svg">
<path d="M19 4H5C4.20435 4 3.44129 4.31607 2.87868 4.87868C2.31607 5.44129 2 6.20435 2 7V17C2 17.7956 2.31607 18.5587 2.87868 19.1213C3.44129 19.6839 4.20435 20 5 20H19C19.7956 20 20.5587 19.6839 21.1213 19.1213C21.6839 18.5587 22 17.7956 22 17V7C22 6.20435 21.6839 5.44129 21.1213 4.87868C20.5587 4.31607 19.7956 4 19 4ZM14 7C14.1978 7 14.3911 7.05865 14.5556 7.16853C14.72 7.27841 14.8482 7.43459 14.9239 7.61732C14.9996 7.80004 15.0194 8.00111 14.9808 8.19509C14.9422 8.38907 14.847 8.56725 14.7071 8.70711C14.5673 8.84696 14.3891 8.9422 14.1951 8.98079C14.0011 9.01937 13.8 8.99957 13.6173 8.92388C13.4346 8.84819 13.2784 8.72002 13.1685 8.55557C13.0586 8.39112 13 8.19778 13 8C13 7.73478 13.1054 7.48043 13.2929 7.29289C13.4804 7.10536 13.7348 7 14 7ZM10 7C10.1978 7 10.3911 7.05865 10.5556 7.16853C10.72 7.27841 10.8482 7.43459 10.9239 7.61732C10.9996 7.80004 11.0194 8.00111 10.9808 8.19509C10.9422 8.38907 10.847 8.56725 10.7071 8.70711C10.5673 8.84696 10.3891 8.9422 10.1951 8.98079C10.0011 9.01937 9.80004 8.99957 9.61732 8.92388C9.43459 8.84819 9.27841 8.72002 9.16853 8.55557C9.05865 8.39112 9 8.19778 9 8C9 7.73478 9.10536 7.48043 9.29289 7.29289C9.48043 7.10536 9.73478 7 10 7ZM10 11C10.1978 11 10.3911 11.0586 10.5556 11.1685C10.72 11.2784 10.8482 11.4346 10.9239 11.6173C10.9996 11.8 11.0194 12.0011 10.9808 12.1951C10.9422 12.3891 10.847 12.5673 10.7071 12.7071C10.5673 12.847 10.3891 12.9422 10.1951 12.9808C10.0011 13.0194 9.80004 12.9996 9.61732 12.9239C9.43459 12.8482 9.27841 12.72 9.16853 12.5556C9.05865 12.3911 9 12.1978 9 12C9 11.7348 9.10536 11.4804 9.29289 11.2929C9.48043 11.1054 9.73478 11 10 11ZM6 17C5.80222 17 5.60888 16.9414 5.44443 16.8315C5.27998 16.7216 5.15181 16.5654 5.07612 16.3827C5.00043 16.2 4.98063 15.9989 5.01921 15.8049C5.0578 15.6109 5.15304 15.4327 5.29289 15.2929C5.43275 15.153 5.61093 15.0578 5.80491 15.0192C5.99889 14.9806 6.19996 15.0004 6.38268 15.0761C6.56541 15.1518 6.72159 15.28 6.83147 15.4444C6.94135 15.6089 7 15.8022 7 16C7 16.2652 6.89464 16.5196 6.70711 16.7071C6.51957 16.8946 6.26522 17 6 17ZM6 13C5.80222 13 5.60888 12.9414 5.44443 12.8315C5.27998 12.7216 5.15181 12.5654 5.07612 12.3827C5.00043 12.2 4.98063 11.9989 5.01921 11.8049C5.0578 11.6109 5.15304 11.4327 5.29289 11.2929C5.43275 11.153 5.61093 11.0578 5.80491 11.0192C5.99889 10.9806 6.19996 11.0004 6.38268 11.0761C6.56541 11.1518 6.72159 11.28 6.83147 11.4444C6.94135 11.6089 7 11.8022 7 12C7 12.2652 6.89464 12.5196 6.70711 12.7071C6.51957 12.8946 6.26522 13 6 13ZM6 9C5.80222 9 5.60888 8.94135 5.44443 8.83147C5.27998 8.72159 5.15181 8.56541 5.07612 8.38268C5.00043 8.19996 4.98063 7.99889 5.01921 7.80491C5.0578 7.61093 5.15304 7.43275 5.29289 7.29289C5.43275 7.15304 5.61093 7.0578 5.80491 7.01921C5.99889 6.98063 6.19996 7.00043 6.38268 7.07612C6.56541 7.15181 6.72159 7.27998 6.83147 7.44443C6.94135 7.60888 7 7.80222 7 8C7 8.26522 6.89464 8.51957 6.70711 8.70711C6.51957 8.89464 6.26522 9 6 9ZM14 17H10C9.73478 17 9.48043 16.8946 9.29289 16.7071C9.10536 16.5196 9 16.2652 9 16C9 15.7348 9.10536 15.4804 9.29289 15.2929C9.48043 15.1054 9.73478 15 10 15H14C14.2652 15 14.5196 15.1054 14.7071 15.2929C14.8946 15.4804 15 15.7348 15 16C15 16.2652 14.8946 16.5196 14.7071 16.7071C14.5196 16.8946 14.2652 17 14 17ZM18 17C17.8022 17 17.6089 16.9414 17.4444 16.8315C17.28 16.7216 17.1518 16.5654 17.0761 16.3827C17.0004 16.2 16.9806 15.9989 17.0192 15.8049C17.0578 15.6109 17.153 15.4327 17.2929 15.2929C17.4327 15.153 17.6109 15.0578 17.8049 15.0192C17.9989 14.9806 18.2 15.0004 18.3827 15.0761C18.5654 15.1518 18.7216 15.28 18.8315 15.4444C18.9414 15.6089 19 15.8022 19 16C19 16.2652 18.8946 16.5196 18.7071 16.7071C18.5196 16.8946 18.2652 17 18 17ZM19 12C19 12.2652 18.8946 12.5196 18.7071 12.7071C18.5196 12.8946 18.2652 13 18 13H14C13.7348 13 13.4804 12.8946 13.2929 12.7071C13.1054 12.5196 13 12.2652 13 12C13 11.7348 13.1054 11.4804 13.2929 11.2929C13.4804 11.1054 13.7348 11 14 11H17V8C17 7.73478 17.1054 7.48043 17.2929 7.29289C17.4804 7.10536 17.7348 7 18 7C18.2652 7 18.5196 7.10536 18.7071 7.29289C18.8946 7.48043 19 7.73478 19 8V12Z" fill="#141414"/>
</svg>
