<svg width="24" height="24" viewBox="0 0 24 24" fill="none" xmlns="http://www.w3.org/2000/svg">
<path d="M5.99999 17C5.73478 17 5.48042 17.1054 5.29289 17.2929C5.10535 17.4804 4.99999 17.7348 4.99999 18C4.99999 18.2652 5.10535 18.5196 5.29289 18.7071C5.48042 18.8946 5.73478 19 5.99999 19C6.26521 19 6.51956 19.1054 6.7071 19.2929C6.89464 19.4804 6.99999 19.7348 6.99999 20V21C6.99999 21.2652 7.10535 21.5196 7.29289 21.7071C7.48042 21.8946 7.73478 22 7.99999 22C8.26521 22 8.51956 21.8946 8.7071 21.7071C8.89464 21.5196 8.99999 21.2652 8.99999 21V20C8.99999 19.2044 8.68392 18.4413 8.12132 17.8787C7.55871 17.3161 6.79564 17 5.99999 17ZM12 17C11.7348 17 11.4804 17.1054 11.2929 17.2929C11.1054 17.4804 11 17.7348 11 18V21C11 21.2652 11.1054 21.5196 11.2929 21.7071C11.4804 21.8946 11.7348 22 12 22C12.2652 22 12.5196 21.8946 12.7071 21.7071C12.8946 21.5196 13 21.2652 13 21V18C13 17.7348 12.8946 17.4804 12.7071 17.2929C12.5196 17.1054 12.2652 17 12 17ZM19.41 11.59L16.41 8.59C16.2918 8.46429 16.1532 8.35947 16 8.28V4C16 3.46957 15.7893 2.96086 15.4142 2.58579C15.0391 2.21071 14.5304 2 14 2H9.99999C9.46956 2 8.96085 2.21071 8.58578 2.58579C8.21071 2.96086 7.99999 3.46957 7.99999 4V8.28C7.84682 8.35947 7.7082 8.46429 7.58999 8.59L4.58999 11.59C4.30912 11.869 4.11737 12.2251 4.03905 12.6132C3.96072 13.0013 3.99933 13.4039 4.14999 13.77C4.30223 14.1349 4.55923 14.4466 4.88851 14.6655C5.21779 14.8844 5.60458 15.0008 5.99999 15H18C18.3954 15.0008 18.7822 14.8844 19.1115 14.6655C19.4408 14.4466 19.6978 14.1349 19.85 13.77C20.0007 13.4039 20.0393 13.0013 19.9609 12.6132C19.8826 12.2251 19.6909 11.869 19.41 11.59ZM18 17C17.2043 17 16.4413 17.3161 15.8787 17.8787C15.3161 18.4413 15 19.2044 15 20V21C15 21.2652 15.1054 21.5196 15.2929 21.7071C15.4804 21.8946 15.7348 22 16 22C16.2652 22 16.5196 21.8946 16.7071 21.7071C16.8946 21.5196 17 21.2652 17 21V20C17 19.7348 17.1054 19.4804 17.2929 19.2929C17.4804 19.1054 17.7348 19 18 19C18.2652 19 18.5196 18.8946 18.7071 18.7071C18.8946 18.5196 19 18.2652 19 18C19 17.7348 18.8946 17.4804 18.7071 17.2929C18.5196 17.1054 18.2652 17 18 17Z" fill="#141414"/>
</svg>
