<svg width="24" height="24" viewBox="0 0 24 24" fill="none" xmlns="http://www.w3.org/2000/svg">
<path d="M17 3H7C6.20435 3 5.44129 3.31607 4.87868 3.87868C4.31607 4.44129 4 5.20435 4 6V10C4 10.2652 4.10536 10.5196 4.29289 10.7071C4.48043 10.8946 4.73478 11 5 11C5.67969 10.9987 6.33229 10.7334 6.82 10.26C7.07 10.04 7.13 10 7.34 10C7.55 10 7.6 10 7.85 10.26C8.33771 10.7334 8.99031 10.9987 9.67 11C10.3505 11.003 11.0047 10.737 11.49 10.26C11.75 10.04 11.8 10 12.01 10C12.22 10 12.27 10 12.52 10.26C13.0072 10.734 13.6602 10.9993 14.34 10.9993C15.0198 10.9993 15.6728 10.734 16.16 10.26C16.41 10.04 16.46 10 16.67 10C16.88 10 16.93 10 17.18 10.26C17.6677 10.7334 18.3203 10.9987 19 11C19.2652 11 19.5196 10.8946 19.7071 10.7071C19.8946 10.5196 20 10.2652 20 10V6C20 5.20435 19.6839 4.44129 19.1213 3.87868C18.5587 3.31607 17.7956 3 17 3Z" fill="#141414"/>
<path d="M20 19H19V13C18.3067 13.0039 17.622 12.8464 17 12.54V15H7V12.54C6.37803 12.8464 5.69332 13.0039 5 13V19H4C3.73478 19 3.48043 19.1054 3.29289 19.2929C3.10536 19.4805 3 19.7348 3 20C3 20.2653 3.10536 20.5196 3.29289 20.7071C3.48043 20.8947 3.73478 21 4 21H20C20.2652 21 20.5196 20.8947 20.7071 20.7071C20.8946 20.5196 21 20.2653 21 20C21 19.7348 20.8946 19.4805 20.7071 19.2929C20.5196 19.1054 20.2652 19 20 19Z" fill="#141414"/>
</svg>
