<svg width="24" height="24" viewBox="0 0 24 24" fill="none" xmlns="http://www.w3.org/2000/svg">
<path d="M16.5001 7.00006C16.7954 7.00022 17.0841 6.91326 17.3301 6.75006C17.5786 6.58232 17.7731 6.34611 17.8901 6.07006C18.0112 5.80063 18.0495 5.50129 18.0001 5.21006C17.9472 4.90849 17.8026 4.63054 17.5861 4.41404C17.3696 4.19753 17.0917 4.05299 16.7901 4.00006C16.5018 3.94123 16.2026 3.96907 15.9301 4.08006C15.6541 4.19703 15.4178 4.39155 15.2501 4.64006C15.0917 4.86632 14.9989 5.13191 14.9819 5.40757C14.9648 5.68322 15.0242 5.95824 15.1534 6.2023C15.2827 6.44636 15.4769 6.64999 15.7145 6.79075C15.9521 6.93152 16.224 7.00395 16.5001 7.00006ZM8.50011 7.00006C8.79535 7.00022 9.08408 6.91326 9.33011 6.75006C9.57862 6.58232 9.77314 6.34611 9.89011 6.07006C10.0112 5.80063 10.0495 5.50129 10.0001 5.21006C9.94718 4.90849 9.80263 4.63054 9.58613 4.41404C9.36963 4.19753 9.09168 4.05299 8.79011 4.00006C8.50183 3.94123 8.20259 3.96907 7.93011 4.08006C7.65405 4.19703 7.41785 4.39155 7.25011 4.64006C7.09174 4.86632 6.99891 5.13191 6.98185 5.40757C6.9648 5.68322 7.02418 5.95824 7.15345 6.2023C7.28271 6.44636 7.47686 6.64999 7.71447 6.79075C7.95209 6.93152 8.22396 7.00395 8.50011 7.00006ZM22.0001 18.7101L19.0001 8.71006C18.9362 8.49589 18.8024 8.3093 18.6201 8.18006C18.439 8.05316 18.221 7.98986 18.0001 8.00006H13.0001C12.8685 7.9993 12.738 8.02452 12.6162 8.07429C12.4944 8.12405 12.3836 8.19738 12.2901 8.29006C12.1074 8.48169 12.0038 8.73529 12.0001 9.00006C11.9993 9.13166 12.0246 9.26213 12.0743 9.38396C12.1241 9.5058 12.1974 9.61662 12.2901 9.71006C12.3836 9.80274 12.4944 9.87606 12.6162 9.92583C12.738 9.97559 12.8685 10.0008 13.0001 10.0001H17.2601L18.0001 12.4701L15.4501 14.1701C15.2731 14.2794 15.1346 14.4413 15.054 14.6331C14.9733 14.8249 14.9545 15.0371 15.0001 15.2401L16.0001 19.2401C16.0294 19.3723 16.0853 19.4973 16.1644 19.6073C16.2435 19.7173 16.3441 19.8101 16.4601 19.8801C16.695 20.019 16.9744 20.0619 17.2401 20.0001C17.3724 19.9707 17.4973 19.9148 17.6073 19.8358C17.7174 19.7567 17.8102 19.6561 17.8801 19.5401C18.019 19.3052 18.062 19.0258 18.0001 18.7601L17.1701 15.4401L18.6301 14.4401L20.0001 19.2901C20.0381 19.4218 20.1028 19.5444 20.1901 19.6501C20.2713 19.7601 20.3776 19.8493 20.5001 19.9101C20.6204 19.9784 20.7529 20.0226 20.8901 20.0401C21.0223 20.0647 21.1579 20.0647 21.2901 20.0401C21.4219 20.0021 21.5444 19.9374 21.6501 19.8501C21.7602 19.7689 21.8493 19.6626 21.9101 19.5401C21.9783 19.4241 22.0193 19.2942 22.0301 19.1601C22.0568 19.0098 22.0465 18.8554 22.0001 18.7101ZM12.4901 11.1401L7.49011 8.14006C7.34044 8.05461 7.17234 8.00658 7.00011 8.00006C6.83847 7.99158 6.67719 8.02246 6.53011 8.09006C6.38078 8.15742 6.25029 8.26044 6.15011 8.39006C6.06676 8.5268 6.01548 8.68065 6.00011 8.84006L5.00011 14.5901L2.19011 18.4001C2.03133 18.6119 1.96301 18.878 2.00011 19.1401C2.01851 19.2703 2.06243 19.3957 2.12935 19.5089C2.19628 19.6222 2.28489 19.7211 2.39011 19.8001C2.56594 19.932 2.78032 20.0022 3.00011 20.0001C3.15536 20.0001 3.30847 19.9639 3.44732 19.8945C3.58618 19.8251 3.70696 19.7243 3.80011 19.6001L6.80011 15.6001C6.90175 15.472 6.97042 15.3209 7.00011 15.1601L7.11011 14.5101L8.01011 15.4101V19.0001C8.01011 19.2653 8.11547 19.5196 8.303 19.7072C8.49054 19.8947 8.74489 20.0001 9.01011 20.0001C9.27533 20.0001 9.52968 19.8947 9.71722 19.7072C9.90475 19.5196 10.0101 19.2653 10.0101 19.0001V15.0001C10.0117 14.87 9.98793 14.741 9.94011 14.6201C9.88955 14.4965 9.81474 14.3843 9.72011 14.2901L7.72011 12.2901C7.65061 12.2376 7.57704 12.1908 7.50011 12.1501L7.76011 10.6101L11.5001 12.8601C11.7263 12.9629 11.9826 12.978 12.2193 12.9022C12.4559 12.8264 12.6558 12.6652 12.7801 12.4501C12.9035 12.2352 12.9427 11.9822 12.8901 11.7401C12.836 11.4973 12.6934 11.2834 12.4901 11.1401Z" fill="#141414"/>
</svg>
