<svg width="24" height="24" viewBox="0 0 24 24" fill="none" xmlns="http://www.w3.org/2000/svg">
<path d="M16.44 11.5399L17.05 11.7399C17.3861 11.8513 17.7448 11.8762 18.0931 11.8125C18.4414 11.7487 18.7681 11.5984 19.043 11.3753C19.3179 11.1521 19.5323 10.8634 19.6663 10.5357C19.8004 10.208 19.8498 9.85178 19.81 9.49994C19.7775 9.17834 19.6701 8.86883 19.4964 8.5962C19.3228 8.32357 19.0877 8.09539 18.81 7.92994L13.31 4.61994L13.9 3.44994C13.987 3.27538 14.021 3.07918 13.9979 2.88551C13.9748 2.69184 13.8956 2.50916 13.77 2.35994C13.6494 2.20105 13.484 2.08187 13.2951 2.01772C13.1062 1.95357 12.9024 1.94738 12.71 1.99994C10.1436 2.89702 8.00418 4.71912 6.71 7.10994C5.28 9.84994 5.19 13.1899 6.42 17.0299C5.73362 17.1652 5.11607 17.536 4.67417 18.0783C4.23227 18.6207 3.9938 19.3004 4 19.9999V20.9999C4 21.2652 4.10535 21.5195 4.29289 21.7071C4.48043 21.8946 4.73478 21.9999 5 21.9999H18C18.2652 21.9999 18.5196 21.8946 18.7071 21.7071C18.8946 21.5195 19 21.2652 19 20.9999V19.9999C19.0015 19.2361 18.7117 18.5005 18.1895 17.9431C17.6674 17.3856 16.9523 17.0483 16.19 16.9999C16.61 15.9299 16.04 14.3899 14.38 12.1599C14.3637 12.1402 14.3548 12.1155 14.3548 12.0899C14.3548 12.0644 14.3637 12.0396 14.38 12.0199C14.6442 11.7554 14.9772 11.5702 15.3413 11.4853C15.7055 11.4005 16.0861 11.4194 16.44 11.5399Z" fill="#141414"/>
</svg>
