<svg width="24" height="24" viewBox="0 0 24 24" fill="none" xmlns="http://www.w3.org/2000/svg">
<path d="M20.66 3.25C20.461 3.0752 20.2007 2.9865 19.9364 3.00337C19.672 3.02025 19.4252 3.14131 19.25 3.34L12.86 10.64L10.11 8.58L12.16 7.11C12.4185 6.92597 12.6295 6.68307 12.7755 6.40139C12.9216 6.1197 12.9985 5.8073 13 5.49V4C13 3.73478 12.8946 3.48043 12.7071 3.29289C12.5196 3.10536 12.2652 3 12 3C11.7348 3 11.4804 3.10536 11.2929 3.29289C11.1054 3.48043 11 3.73478 11 4V5.49L4.84 9.89C4.58152 10.074 4.37053 10.3169 4.22447 10.5986C4.07841 10.8803 4.00147 11.1927 4 11.51V14C4 14.2652 4.10536 14.5196 4.29289 14.7071C4.48043 14.8946 4.73478 15 5 15C5.26522 15 5.51957 14.8946 5.70711 14.7071C5.89464 14.5196 6 14.2652 6 14V11.51L8.4 9.8L12 12.5V20C12 20.2652 12.1054 20.5196 12.2929 20.7071C12.4804 20.8946 12.7348 21 13 21C13.2652 21 13.5196 20.8946 13.7071 20.7071C13.8946 20.5196 14 20.2652 14 20V12.38L20.75 4.66C20.9248 4.46098 21.0135 4.20073 20.9966 3.93639C20.9798 3.67204 20.8587 3.42518 20.66 3.25ZM6 6.5C6 6.20333 5.91203 5.91332 5.7472 5.66664C5.58238 5.41997 5.34811 5.22771 5.07403 5.11418C4.79994 5.00065 4.49834 4.97094 4.20737 5.02882C3.91639 5.0867 3.64912 5.22956 3.43934 5.43934C3.22956 5.64912 3.0867 5.91639 3.02882 6.20736C2.97094 6.49834 3.00065 6.79994 3.11418 7.07403C3.22771 7.34811 3.41997 7.58238 3.66665 7.7472C3.91332 7.91203 4.20333 8 4.5 8C4.89783 8 5.27936 7.84196 5.56066 7.56066C5.84197 7.27936 6 6.89782 6 6.5Z" fill="#141414"/>
</svg>
