<svg width="24" height="24" viewBox="0 0 24 24" fill="none" xmlns="http://www.w3.org/2000/svg">
<path d="M17.66 4.33995C16.5412 3.21986 15.1151 2.45692 13.5625 2.14772C12.0098 1.83852 10.4003 1.99695 8.93768 2.60297C7.4751 3.20899 6.22521 4.23534 5.34624 5.55209C4.46727 6.86885 3.99876 8.41679 4 9.99995C4 15 9.94 20.8 10.62 21.45C10.992 21.8045 11.4861 22.0023 12 22.0023C12.5139 22.0023 13.008 21.8045 13.38 21.45C14.06 20.8 20 15 20 9.99995C20.0008 8.94907 19.7946 7.90832 19.3931 6.93715C18.9916 5.96599 18.4027 5.08345 17.66 4.33995ZM12 16C10.8132 15.9988 9.65335 15.6457 8.66723 14.9853C7.6811 14.3249 6.91297 13.3869 6.46 12.29C5.99927 11.1976 5.88072 9.99112 6.12 8.82995C6.35132 7.66705 6.92201 6.59876 7.76 5.75995C8.60039 4.92214 9.66758 4.34857 10.83 4.10995C11.6499 3.95079 12.4941 3.96458 13.3084 4.15042C14.1227 4.33626 14.8892 4.69007 15.5589 5.1892C16.2286 5.68832 16.7867 6.32177 17.1975 7.049C17.6083 7.77623 17.8627 8.58122 17.9445 9.41244C18.0263 10.2437 17.9336 11.0828 17.6725 11.8761C17.4113 12.6695 16.9874 13.3996 16.4278 14.0197C15.8682 14.6398 15.1854 15.1362 14.4229 15.4772C13.6605 15.8182 12.8352 15.9962 12 16ZM12 12C11.8006 11.9995 11.6055 12.0587 11.44 12.17C11.2758 12.2786 11.1499 12.436 11.08 12.62C11.0005 12.7989 10.9795 12.9984 11.02 13.19C11.0574 13.384 11.1515 13.5625 11.2903 13.7031C11.4291 13.8437 11.6065 13.9401 11.8 13.98C11.995 14.018 12.1969 13.9971 12.38 13.92C12.5665 13.8493 12.7246 13.7193 12.83 13.55C12.9394 13.3872 12.9985 13.196 13 13C13.0008 12.8683 12.9755 12.7379 12.9258 12.616C12.876 12.4942 12.8027 12.3834 12.71 12.29C12.6166 12.1973 12.5057 12.1239 12.3839 12.0742C12.2621 12.0244 12.1316 11.9992 12 12ZM12 8.99995C11.0174 8.99402 10.067 9.34998 9.33 9.99995C9.22312 10.0845 9.13464 10.19 9.07 10.31C9.02089 10.434 8.99709 10.5666 9 10.7C8.97486 10.8321 8.97486 10.9678 9 11.1C9.04057 11.2297 9.10881 11.3491 9.2 11.45C9.29635 11.5472 9.40779 11.6283 9.53 11.69C9.65659 11.7445 9.79224 11.775 9.93 11.78C10.0644 11.7834 10.1978 11.7561 10.32 11.7C10.4472 11.6506 10.5629 11.5757 10.66 11.48C11.0263 11.1538 11.4996 10.9736 11.99 10.9736C12.4804 10.9736 12.9537 11.1538 13.32 11.48C13.5034 11.6466 13.7422 11.7393 13.99 11.74C14.1285 11.7411 14.2654 11.7103 14.39 11.65C14.5202 11.597 14.6365 11.5149 14.73 11.41C14.9085 11.2148 15.0024 10.9568 14.9912 10.6926C14.9799 10.4283 14.8644 10.1793 14.67 9.99995C13.933 9.34998 12.9826 8.99402 12 8.99995ZM15.5 6.89995C14.432 6.29709 13.2264 5.98031 12 5.98031C10.7736 5.98031 9.568 6.29709 8.5 6.89995C8.38245 6.96402 8.28012 7.0527 8.2 7.15995C8.10715 7.25957 8.03869 7.37938 8 7.50995C7.97976 7.63916 7.97976 7.77074 8 7.89995C8.0184 8.03021 8.06232 8.15555 8.12925 8.26881C8.19617 8.38206 8.28478 8.481 8.39 8.55995C8.49252 8.64202 8.61211 8.70011 8.74 8.72995C8.86874 8.75555 9.00126 8.75555 9.13 8.72995C9.26071 8.71146 9.38646 8.66728 9.5 8.59995C10.262 8.1669 11.1235 7.93922 12 7.93922C12.8765 7.93922 13.738 8.1669 14.5 8.59995C14.6712 8.69948 14.868 8.74596 15.0656 8.7335C15.2632 8.72104 15.4527 8.6502 15.61 8.52995C15.8002 8.40672 15.9389 8.21824 16 7.99995C16.0724 7.78933 16.0724 7.56057 16 7.34995C15.8872 7.14918 15.7115 6.99106 15.5 6.89995Z" fill="#141414"/>
</svg>
