<svg width="24" height="24" viewBox="0 0 24 24" fill="none" xmlns="http://www.w3.org/2000/svg">
<path d="M21.7102 4.28979C21.6168 4.19711 21.506 4.12378 21.3842 4.07402C21.2623 4.02425 21.1319 3.99903 21.0002 3.99979H18.7702C18.6386 3.99903 18.5082 4.02425 18.3863 4.07402C18.2645 4.12378 18.1537 4.19711 18.0602 4.28979C17.9676 4.38323 17.8942 4.49405 17.8445 4.61588C17.7947 4.73772 17.7695 4.86818 17.7702 4.99979C17.7702 5.26501 17.8756 5.51936 18.0631 5.7069C18.2507 5.89443 18.505 5.99979 18.7702 5.99979H19.0002V7.47979C18.7267 7.57069 18.4368 7.60139 18.1502 7.56979C17.8677 7.54049 17.5931 7.45912 17.3402 7.32979C17.4926 7.03384 17.5787 6.70822 17.5924 6.37562C17.606 6.04302 17.547 5.71143 17.4195 5.40396C17.2919 5.09649 17.0989 4.82052 16.8538 4.59529C16.6087 4.37005 16.3174 4.20096 16.0002 4.09979C15.5251 3.94473 15.0123 3.9487 14.5395 4.11109C14.0668 4.27348 13.6598 4.58545 13.3802 4.99979C13.2328 5.22004 13.1789 5.48979 13.2302 5.74979C13.2847 6.00835 13.4393 6.23485 13.6602 6.37979C13.8805 6.5272 14.1502 6.58115 14.4102 6.52979C14.5401 6.50404 14.6635 6.45277 14.7734 6.37895C14.8832 6.30514 14.9773 6.21025 15.0502 6.09979C15.0881 6.05563 15.1362 6.02132 15.1902 5.99979C15.2498 5.98972 15.3107 5.98972 15.3702 5.99979C15.4272 6.02128 15.4785 6.05548 15.5202 6.09979C15.5621 6.14696 15.5867 6.20686 15.5902 6.26979C15.5898 6.34716 15.5614 6.42176 15.5102 6.47979C15.4813 6.50853 15.447 6.53127 15.4092 6.54671C15.3715 6.56216 15.331 6.57 15.2902 6.56979C15.0279 6.5709 14.7765 6.67505 14.5902 6.85979C14.4958 6.95241 14.4206 7.06285 14.3691 7.18473C14.3176 7.3066 14.2908 7.43748 14.2902 7.56979C14.294 7.83356 14.4018 8.08516 14.5902 8.26979C14.7749 8.45821 15.0265 8.56603 15.2902 8.56979C15.439 8.56783 15.585 8.60955 15.7102 8.68979C15.834 8.77164 15.9286 8.89071 15.9802 9.02979C16.0372 9.16553 16.0545 9.31461 16.0302 9.45979C16.001 9.60505 15.9277 9.73775 15.8202 9.83979C15.7148 9.9407 15.5831 10.01 15.4402 10.0398C15.2931 10.0736 15.1389 10.0596 15.0002 9.99979C14.8647 9.94197 14.7473 9.8487 14.6602 9.72979C14.5816 9.60385 14.54 9.45829 14.5402 9.30979C14.5394 9.11202 14.48 8.91893 14.3694 8.75495C14.2588 8.59096 14.1021 8.46345 13.9191 8.38852C13.7361 8.3136 13.5349 8.29463 13.3411 8.33401C13.1473 8.3734 12.9695 8.46937 12.8302 8.60979C12.6455 8.79605 12.5414 9.04745 12.5402 9.30979C12.5355 9.84 12.6853 10.3601 12.9713 10.8066C13.2573 11.2531 13.6671 11.6066 14.1508 11.824C14.6344 12.0414 15.1708 12.1133 15.6946 12.0309C16.2184 11.9484 16.7068 11.7152 17.1002 11.3598C17.6216 10.8945 17.9439 10.2463 18.0002 9.54979C18.1334 9.55972 18.2671 9.55972 18.4002 9.54979C18.6004 9.56434 18.8015 9.55764 19.0002 9.52979V11.0898C19.0039 11.3546 19.1075 11.6082 19.2902 11.7998C19.3832 11.8935 19.4938 11.9679 19.6157 12.0187C19.7375 12.0695 19.8682 12.0956 20.0002 12.0956C20.1323 12.0956 20.263 12.0695 20.3848 12.0187C20.5067 11.9679 20.6173 11.8935 20.7102 11.7998C20.893 11.6082 20.9966 11.3546 21.0002 11.0898V5.99979C21.1319 6.00055 21.2623 5.97533 21.3842 5.92556C21.506 5.8758 21.6168 5.80247 21.7102 5.70979C21.893 5.51816 21.9966 5.26456 22.0002 4.99979C22.001 4.86818 21.9758 4.73772 21.926 4.61588C21.8763 4.49405 21.8029 4.38323 21.7102 4.28979ZM9.43025 4.62979C9.35602 4.44272 9.22706 4.2824 9.06025 4.16979C8.89488 4.05801 8.69985 3.99828 8.50025 3.99828C8.30065 3.99828 8.10561 4.05801 7.94025 4.16979C7.77343 4.2824 7.64448 4.44272 7.57025 4.62979L2.07025 18.6298C2.01936 18.7518 1.99316 18.8826 1.99316 19.0148C1.99316 19.147 2.01936 19.2778 2.07025 19.3998C2.18054 19.6392 2.37688 19.8284 2.62025 19.9298C2.74223 19.9807 2.87308 20.0069 3.00525 20.0069C3.13741 20.0069 3.26827 19.9807 3.39025 19.9298C3.6297 19.8195 3.81889 19.6232 3.92025 19.3798L5.65025 14.9998H11.3502L13.0702 19.3698C13.119 19.489 13.1903 19.5976 13.2802 19.6898C13.3706 19.7869 13.4794 19.8651 13.6002 19.9198C13.7267 19.9737 13.8628 20.0009 14.0002 19.9998C14.1335 20.0009 14.2657 19.9772 14.3902 19.9298C14.5094 19.881 14.6181 19.8097 14.7102 19.7198C14.8074 19.6294 14.8856 19.5207 14.9402 19.3998C14.9873 19.2719 15.0077 19.1358 15.0002 18.9998C15.0014 18.8666 14.9777 18.7343 14.9302 18.6098L9.43025 4.62979ZM6.43025 12.9998L8.50025 7.72979L10.5702 12.9998H6.43025Z" fill="#141414"/>
</svg>
