<svg width="24" height="24" viewBox="0 0 24 24" fill="none" xmlns="http://www.w3.org/2000/svg">
<path d="M3 11.0001V18.0001C3 18.5305 3.21071 19.0392 3.58579 19.4143C3.96086 19.7894 4.46957 20.0001 5 20.0001H7V9.00007H5C4.46957 9.00007 3.96086 9.21079 3.58579 9.58586C3.21071 9.96093 3 10.4696 3 11.0001ZM20.24 10.0001C19.9582 9.68497 19.6129 9.43299 19.2269 9.26066C18.8409 9.08832 18.4228 8.99952 18 9.00007H14V5.08007C14.0162 4.69178 13.9188 4.30718 13.7199 3.97331C13.521 3.63943 13.2292 3.37074 12.88 3.20007C12.6123 3.06894 12.3188 2.99928 12.0207 2.9962C11.7227 2.99312 11.4278 3.05668 11.1574 3.18225C10.8871 3.30782 10.6483 3.49221 10.4584 3.72195C10.2686 3.95169 10.1324 4.22096 10.06 4.51008L9.06 8.51008C9.02099 8.67051 9.00085 8.83496 9 9.00007V20.0001H17.44C18.1816 20.0046 18.8987 19.7342 19.4527 19.2411C20.0067 18.748 20.3584 18.0672 20.44 17.3301L20.99 12.3301C21.0358 11.9108 20.9927 11.4866 20.8634 11.0851C20.7342 10.6836 20.5218 10.3139 20.24 10.0001Z" fill="#141414"/>
</svg>
