<svg width="24" height="24" viewBox="0 0 24 24" fill="none" xmlns="http://www.w3.org/2000/svg">
<path d="M17.87 3.91C17.7637 3.83225 17.6431 3.77626 17.5152 3.74523C17.3872 3.7142 17.2544 3.70875 17.1243 3.72919C16.9942 3.74963 16.8695 3.79556 16.7572 3.86434C16.6449 3.93312 16.5473 4.0234 16.47 4.13C16.3923 4.23627 16.3363 4.35685 16.3052 4.48482C16.2742 4.61278 16.2687 4.74562 16.2892 4.8757C16.3096 5.00578 16.3556 5.13054 16.4243 5.24282C16.4931 5.3551 16.5834 5.4527 16.69 5.53C18.0597 6.52119 19.0802 7.92085 19.6049 9.52809C20.1297 11.1353 20.1317 12.8675 19.6108 14.476C19.0899 16.0844 18.0727 17.4865 16.7053 18.4809C15.338 19.4754 13.6907 20.011 12 20.011C10.3093 20.011 8.66201 19.4754 7.29465 18.4809C5.92729 17.4865 4.91015 16.0844 4.38921 14.476C3.86827 12.8675 3.87032 11.1353 4.39507 9.52809C4.91982 7.92085 5.94029 6.52119 7.31 5.53C7.52483 5.37352 7.66869 5.13811 7.70995 4.87556C7.75121 4.61301 7.68648 4.34483 7.53 4.13C7.37352 3.91517 7.13811 3.77131 6.87556 3.73005C6.61301 3.68879 6.34483 3.75352 6.13 3.91C4.41965 5.15011 3.14598 6.90003 2.49169 8.90878C1.83739 10.9175 1.83608 13.0819 2.48794 15.0914C3.1398 17.101 4.41134 18.8524 6.12019 20.0946C7.82903 21.3368 9.88738 22.0059 12 22.0059C14.1126 22.0059 16.171 21.3368 17.8798 20.0946C19.5887 18.8524 20.8602 17.101 21.5121 15.0914C22.1639 13.0819 22.1626 10.9175 21.5083 8.90878C20.854 6.90003 19.5804 5.15011 17.87 3.91ZM12 8C12.2652 8 12.5196 7.89464 12.7071 7.70711C12.8946 7.51957 13 7.26522 13 7V3C13 2.73478 12.8946 2.48043 12.7071 2.29289C12.5196 2.10536 12.2652 2 12 2C11.7348 2 11.4804 2.10536 11.2929 2.29289C11.1054 2.48043 11 2.73478 11 3V7C11 7.26522 11.1054 7.51957 11.2929 7.70711C11.4804 7.89464 11.7348 8 12 8Z" fill="#141414"/>
</svg>
