<svg width="24" height="24" viewBox="0 0 24 24" fill="none" xmlns="http://www.w3.org/2000/svg">
<path d="M19 3H5C4.20435 3 3.44129 3.31607 2.87868 3.87868C2.31607 4.44129 2 5.20435 2 6V14C2 14.7956 2.31607 15.5587 2.87868 16.1213C3.44129 16.6839 4.20435 17 5 17H13V10C13 8.93913 13.4214 7.92172 14.1716 7.17157C14.9217 6.42143 15.9391 6 17 6H20C20.705 6.00296 21.396 6.19645 22 6.56V6C22 5.20435 21.6839 4.44129 21.1213 3.87868C20.5587 3.31607 19.7956 3 19 3ZM3 19C2.73478 19 2.48043 19.1054 2.29289 19.2929C2.10536 19.4804 2 19.7348 2 20C2 20.2652 2.10536 20.5196 2.29289 20.7071C2.48043 20.8946 2.73478 21 3 21H13.56C13.1964 20.396 13.003 19.705 13 19H3ZM20 8H17C16.4696 8 15.9609 8.21071 15.5858 8.58579C15.2107 8.96086 15 9.46957 15 10V19C15 19.5304 15.2107 20.0391 15.5858 20.4142C15.9609 20.7893 16.4696 21 17 21H20C20.5304 21 21.0391 20.7893 21.4142 20.4142C21.7893 20.0391 22 19.5304 22 19V10C22 9.46957 21.7893 8.96086 21.4142 8.58579C21.0391 8.21071 20.5304 8 20 8ZM18.5 19C18.3022 19 18.1089 18.9414 17.9444 18.8315C17.78 18.7216 17.6518 18.5654 17.5761 18.3827C17.5004 18.2 17.4806 17.9989 17.5192 17.8049C17.5578 17.6109 17.653 17.4327 17.7929 17.2929C17.9327 17.153 18.1109 17.0578 18.3049 17.0192C18.4989 16.9806 18.7 17.0004 18.8827 17.0761C19.0654 17.1518 19.2216 17.28 19.3315 17.4444C19.4414 17.6089 19.5 17.8022 19.5 18C19.5 18.2652 19.3946 18.5196 19.2071 18.7071C19.0196 18.8946 18.7652 19 18.5 19Z" fill="#141414"/>
</svg>
