<svg width="24" height="24" viewBox="0 0 24 24" fill="none" xmlns="http://www.w3.org/2000/svg">
<path d="M4 3C3.46957 3 2.96086 3.21071 2.58579 3.58579C2.21071 3.96086 2 4.46957 2 5V19C2 19.5304 2.21071 20.0391 2.58579 20.4142C2.96086 20.7893 3.46957 21 4 21C4.53043 21 5.03914 20.7893 5.41421 20.4142C5.78929 20.0391 6 19.5304 6 19V5C6 4.46957 5.78929 3.96086 5.41421 3.58579C5.03914 3.21071 4.53043 3 4 3ZM10 3C9.46957 3 8.96086 3.21071 8.58579 3.58579C8.21071 3.96086 8 4.46957 8 5V19C8 19.5304 8.21071 20.0391 8.58579 20.4142C8.96086 20.7893 9.46957 21 10 21C10.5304 21 11.0391 20.7893 11.4142 20.4142C11.7893 20.0391 12 19.5304 12 19V5C12 4.46957 11.7893 3.96086 11.4142 3.58579C11.0391 3.21071 10.5304 3 10 3ZM21.88 18.32L17.09 5.16C16.9083 4.66139 16.536 4.25538 16.055 4.03127C15.574 3.80717 15.0236 3.78333 14.525 3.965C14.0264 4.14667 13.6204 4.51898 13.3963 5.00001C13.1722 5.48104 13.1483 6.03139 13.33 6.53L18.12 19.68C18.2038 19.9339 18.3377 20.1685 18.5137 20.3698C18.6897 20.5711 18.9044 20.735 19.1448 20.8519C19.3853 20.9688 19.6468 21.0363 19.9139 21.0504C20.1809 21.0645 20.4481 21.0249 20.6995 20.9339C20.951 20.843 21.1816 20.7025 21.3779 20.5209C21.5741 20.3392 21.7319 20.1201 21.842 19.8764C21.952 19.6327 22.0121 19.3694 22.0186 19.102C22.0252 18.8347 21.978 18.5688 21.88 18.32Z" fill="#141414"/>
</svg>
