<svg width="24" height="24" viewBox="0 0 24 24" fill="none" xmlns="http://www.w3.org/2000/svg">
<path d="M17 7.00018H10V6.07018C9.98563 5.61599 10.1264 5.17046 10.399 4.80693C10.6716 4.4434 11.06 4.18355 11.5 4.07018C11.859 3.97979 12.2361 3.99083 12.5892 4.10206C12.9423 4.21329 13.2576 4.42035 13.5 4.70018C13.5929 4.79768 13.7046 4.8754 13.8284 4.92867C13.9521 4.98194 14.0853 5.00966 14.22 5.01018C14.4205 5.02178 14.6199 4.97273 14.7922 4.86941C14.9644 4.76609 15.1016 4.61329 15.1857 4.43091C15.2699 4.24853 15.2972 4.04502 15.2641 3.84691C15.231 3.64879 15.1389 3.46525 15 3.32018C14.5595 2.81783 14.0001 2.43383 13.373 2.20326C12.7459 1.97268 12.071 1.90286 11.41 2.00018C10.4367 2.17218 9.55729 2.68757 8.93159 3.45272C8.30588 4.21788 7.97535 5.18207 8 6.17018V7.00018H7C6.20435 7.00018 5.44129 7.31625 4.87868 7.87886C4.31607 8.44147 4 9.20453 4 10.0002V19.0002C4 19.7958 4.31607 20.5589 4.87868 21.1215C5.44129 21.6841 6.20435 22.0002 7 22.0002H17C17.7956 22.0002 18.5587 21.6841 19.1213 21.1215C19.6839 20.5589 20 19.7958 20 19.0002V10.0002C20 9.20453 19.6839 8.44147 19.1213 7.87886C18.5587 7.31625 17.7956 7.00018 17 7.00018ZM12 16.0002C11.6044 16.0002 11.2178 15.8829 10.8889 15.6631C10.56 15.4434 10.3036 15.131 10.1522 14.7655C10.0009 14.4001 9.96126 13.998 10.0384 13.61C10.1156 13.222 10.3061 12.8657 10.5858 12.586C10.8655 12.3063 11.2219 12.1158 11.6098 12.0386C11.9978 11.9614 12.3999 12.001 12.7654 12.1524C13.1308 12.3038 13.4432 12.5601 13.6629 12.889C13.8827 13.2179 14 13.6046 14 14.0002C14 14.5306 13.7893 15.0393 13.4142 15.4144C13.0391 15.7895 12.5304 16.0002 12 16.0002Z" fill="#141414"/>
</svg>
