<svg width="24" height="24" viewBox="0 0 24 24" fill="none" xmlns="http://www.w3.org/2000/svg">
<path d="M20 17H9C8.73478 17 8.48043 17.1054 8.29289 17.2929C8.10536 17.4804 8 17.7348 8 18C8 18.2652 8.10536 18.5196 8.29289 18.7071C8.48043 18.8946 8.73478 19 9 19H20C20.2652 19 20.5196 18.8946 20.7071 18.7071C20.8946 18.5196 21 18.2652 21 18C21 17.7348 20.8946 17.4804 20.7071 17.2929C20.5196 17.1054 20.2652 17 20 17ZM20 11H9C8.73478 11 8.48043 11.1054 8.29289 11.2929C8.10536 11.4804 8 11.7348 8 12C8 12.2652 8.10536 12.5196 8.29289 12.7071C8.48043 12.8946 8.73478 13 9 13H20C20.2652 13 20.5196 12.8946 20.7071 12.7071C20.8946 12.5196 21 12.2652 21 12C21 11.7348 20.8946 11.4804 20.7071 11.2929C20.5196 11.1054 20.2652 11 20 11ZM9 7H20C20.2652 7 20.5196 6.89464 20.7071 6.70711C20.8946 6.51957 21 6.26522 21 6C21 5.73478 20.8946 5.48043 20.7071 5.29289C20.5196 5.10536 20.2652 5 20 5H9C8.73478 5 8.48043 5.10536 8.29289 5.29289C8.10536 5.48043 8 5.73478 8 6C8 6.26522 8.10536 6.51957 8.29289 6.70711C8.48043 6.89464 8.73478 7 9 7ZM4.5 4.5C4.20333 4.5 3.91332 4.58797 3.66665 4.7528C3.41997 4.91762 3.22771 5.15189 3.11418 5.42597C3.00065 5.70006 2.97094 6.00166 3.02882 6.29264C3.0867 6.58361 3.22956 6.85088 3.43934 7.06066C3.64912 7.27044 3.91639 7.4133 4.20737 7.47118C4.49834 7.52906 4.79994 7.49935 5.07403 7.38582C5.34811 7.27229 5.58238 7.08003 5.7472 6.83336C5.91203 6.58668 6 6.29667 6 6C6 5.60218 5.84197 5.22064 5.56066 4.93934C5.27936 4.65804 4.89783 4.5 4.5 4.5ZM4.5 10.5C4.20333 10.5 3.91332 10.588 3.66665 10.7528C3.41997 10.9176 3.22771 11.1519 3.11418 11.426C3.00065 11.7001 2.97094 12.0017 3.02882 12.2926C3.0867 12.5836 3.22956 12.8509 3.43934 13.0607C3.64912 13.2704 3.91639 13.4133 4.20737 13.4712C4.49834 13.5291 4.79994 13.4994 5.07403 13.3858C5.34811 13.2723 5.58238 13.08 5.7472 12.8334C5.91203 12.5867 6 12.2967 6 12C6 11.6022 5.84197 11.2206 5.56066 10.9393C5.27936 10.658 4.89783 10.5 4.5 10.5ZM4.5 16.5C4.20333 16.5 3.91332 16.588 3.66665 16.7528C3.41997 16.9176 3.22771 17.1519 3.11418 17.426C3.00065 17.7001 2.97094 18.0017 3.02882 18.2926C3.0867 18.5836 3.22956 18.8509 3.43934 19.0607C3.64912 19.2704 3.91639 19.4133 4.20737 19.4712C4.49834 19.5291 4.79994 19.4993 5.07403 19.3858C5.34811 19.2723 5.58238 19.08 5.7472 18.8334C5.91203 18.5867 6 18.2967 6 18C6 17.6022 5.84197 17.2206 5.56066 16.9393C5.27936 16.658 4.89783 16.5 4.5 16.5Z" fill="#141414"/>
</svg>
