<svg width="24" height="24" viewBox="0 0 24 24" fill="none" xmlns="http://www.w3.org/2000/svg">
<path d="M4.72995 3.31988C4.54496 3.14678 4.30117 3.05034 4.04782 3.05005C3.79447 3.04976 3.55045 3.14564 3.36507 3.31833C3.17969 3.49101 3.06677 3.72762 3.04911 3.98035C3.03145 4.23309 3.11038 4.4831 3.26995 4.67988L9.26995 11.0699L8.27995 13.9999H5.99995C5.79967 13.9997 5.60395 14.0596 5.43813 14.172C5.27232 14.2843 5.14405 14.4438 5.06995 14.6299L3.06995 19.6299C3.02124 19.752 2.99708 19.8825 2.99887 20.014C3.00066 20.1454 3.02835 20.2753 3.08037 20.396C3.13238 20.5168 3.20769 20.6261 3.302 20.7177C3.3963 20.8093 3.50774 20.8814 3.62995 20.9299C3.74774 20.9764 3.87329 21.0002 3.99995 20.9999C4.20023 21.0001 4.39595 20.9401 4.56176 20.8278C4.72758 20.7155 4.85584 20.556 4.92995 20.3699L6.67995 15.9999H8.99995C9.20959 16.0004 9.4141 15.9351 9.58458 15.813C9.75505 15.691 9.88286 15.5185 9.94995 15.3199L10.8099 12.7299L11.9999 13.9999V16.9999H8.99995C8.73473 16.9999 8.48038 17.1052 8.29284 17.2928C8.10531 17.4803 7.99995 17.7347 7.99995 17.9999V19.9999C7.99995 20.2651 8.10531 20.5195 8.29284 20.707C8.48038 20.8945 8.73473 20.9999 8.99995 20.9999H18.9999C19.2526 20.999 19.4955 20.9025 19.6799 20.7299C19.873 20.5492 19.9866 20.2994 19.996 20.0352C20.0054 19.771 19.9097 19.5138 19.7299 19.3199L4.72995 3.31988ZM11.4999 6.99988C11.7966 6.99988 12.0866 6.91191 12.3333 6.74709C12.58 6.58227 12.7722 6.348 12.8858 6.07391C12.9993 5.79982 13.029 5.49822 12.9711 5.20725C12.9132 4.91628 12.7704 4.649 12.5606 4.43922C12.3508 4.22945 12.0836 4.08658 11.7926 4.02871C11.5016 3.97083 11.2 4.00053 10.9259 4.11407C10.6518 4.2276 10.4176 4.41986 10.2527 4.66653C10.0879 4.9132 9.99995 5.20321 9.99995 5.49988C9.99995 5.89771 10.158 6.27924 10.4393 6.56054C10.7206 6.84185 11.1021 6.99988 11.4999 6.99988ZM18.9999 8.99988H16.9999C16.7347 8.99988 16.4804 9.10524 16.2928 9.29278C16.1053 9.48031 15.9999 9.73467 15.9999 9.99988V12.4099L16.5499 12.9999L19.9999 16.6799V9.99988C19.9999 9.73467 19.8946 9.48031 19.7071 9.29278C19.5195 9.10524 19.2652 8.99988 18.9999 8.99988Z" fill="#141414"/>
</svg>
