<svg width="24" height="24" viewBox="0 0 24 24" fill="none" xmlns="http://www.w3.org/2000/svg">
<path d="M16 6C15.4696 6 14.9609 6.21071 14.5858 6.58579C14.2107 6.96086 14 7.46957 14 8V8.59L13 7.59V4C13 3.73478 12.8946 3.48043 12.7071 3.29289C12.5196 3.10536 12.2652 3 12 3C11.7348 3 11.4804 3.10536 11.2929 3.29289C11.1054 3.48043 11 3.73478 11 4V7.59L10 8.59V8C10 7.46957 9.78929 6.96086 9.41421 6.58579C9.03914 6.21071 8.53043 6 8 6C6.67392 6 5.40215 6.52678 4.46447 7.46447C3.52678 8.40215 3 9.67392 3 11V19C3.00011 19.3645 3.09985 19.7221 3.28844 20.0341C3.47702 20.346 3.74728 20.6005 4.07 20.77C4.35679 20.9209 4.67594 20.9998 5 21C5.40782 20.999 5.80559 20.8734 6.14 20.64L6.55 20.36C7.61435 19.624 8.48428 18.6408 9.08518 17.4948C9.68607 16.3487 9.99999 15.074 10 13.78V11.41L12 9.41L14 11.41V13.78C14 15.074 14.3139 16.3487 14.9148 17.4948C15.5157 18.6408 16.3857 19.624 17.45 20.36L17.86 20.64C18.1944 20.8734 18.5922 20.999 19 21C19.3241 20.9998 19.6432 20.9209 19.93 20.77C20.2527 20.6005 20.523 20.346 20.7116 20.0341C20.9001 19.7221 20.9999 19.3645 21 19V11C21 9.67392 20.4732 8.40215 19.5355 7.46447C18.5979 6.52678 17.3261 6 16 6Z" fill="#141414"/>
</svg>
