<svg width="24" height="24" viewBox="0 0 24 24" fill="none" xmlns="http://www.w3.org/2000/svg">
<path d="M17 13.0002C17.1316 13.0009 17.2621 12.9757 17.3839 12.9259C17.5057 12.8762 17.6166 12.8029 17.71 12.7102C18 12.3702 21 9.34017 21 6.80017C20.966 5.76834 20.5274 4.79132 19.7789 4.08026C19.0304 3.36921 18.0322 2.98123 17 3.00017C15.9678 2.98123 14.9696 3.36921 14.2211 4.08026C13.4726 4.79132 13.034 5.76834 13 6.80017C13 9.34017 16 12.3702 16.29 12.7102C16.3834 12.8029 16.4943 12.8762 16.6161 12.9259C16.7379 12.9757 16.8684 13.0009 17 13.0002ZM16 7.00017C16 6.80239 16.0586 6.60905 16.1685 6.4446C16.2784 6.28016 16.4346 6.15198 16.6173 6.07629C16.8 6.00061 17.0011 5.9808 17.1951 6.01939C17.3891 6.05797 17.5673 6.15322 17.7071 6.29307C17.847 6.43292 17.9422 6.6111 17.9808 6.80508C18.0194 6.99907 17.9996 7.20013 17.9239 7.38286C17.8482 7.56558 17.72 7.72176 17.5556 7.83164C17.3911 7.94153 17.1978 8.00017 17 8.00017C16.7348 8.00017 16.4804 7.89482 16.2929 7.70728C16.1054 7.51974 16 7.26539 16 7.00017ZM17 15.0002C16.7348 15.0002 16.4804 15.1055 16.2929 15.2931C16.1054 15.4806 16 15.735 16 16.0002V18.0002H13C12.7348 18.0002 12.4804 18.1055 12.2929 18.2931C12.1054 18.4806 12 18.735 12 19.0002C12 19.2654 12.1054 19.5197 12.2929 19.7073C12.4804 19.8948 12.7348 20.0002 13 20.0002H16C16.5304 20.0002 17.0391 19.7895 17.4142 19.4144C17.7893 19.0393 18 18.5306 18 18.0002V16.0002C18 15.735 17.8946 15.4806 17.7071 15.2931C17.5196 15.1055 17.2652 15.0002 17 15.0002ZM11 4.00017H8C7.46957 4.00017 6.96086 4.21089 6.58579 4.58596C6.21071 4.96103 6 5.46974 6 6.00017V7.00017C6 7.26539 6.10536 7.51974 6.29289 7.70728C6.48043 7.89482 6.73478 8.00017 7 8.00017C7.26522 8.00017 7.51957 7.89482 7.70711 7.70728C7.89464 7.51974 8 7.26539 8 7.00017V6.00017H11C11.2652 6.00017 11.5196 5.89482 11.7071 5.70728C11.8946 5.51974 12 5.26539 12 5.00017C12 4.73496 11.8946 4.4806 11.7071 4.29307C11.5196 4.10553 11.2652 4.00017 11 4.00017ZM8 9.00017H5C4.46957 9.00017 3.96086 9.21089 3.58579 9.58596C3.21071 9.96103 3 10.4697 3 11.0002V19.0002C3 19.5306 3.21071 20.0393 3.58579 20.4144C3.96086 20.7895 4.46957 21.0002 5 21.0002H8C8.53043 21.0002 9.03914 20.7895 9.41421 20.4144C9.78929 20.0393 10 19.5306 10 19.0002V11.0002C10 10.4697 9.78929 9.96103 9.41421 9.58596C9.03914 9.21089 8.53043 9.00017 8 9.00017ZM6.5 19.0002C6.30222 19.0002 6.10888 18.9415 5.94443 18.8316C5.77998 18.7218 5.65181 18.5656 5.57612 18.3829C5.50043 18.2001 5.48063 17.9991 5.51921 17.8051C5.5578 17.6111 5.65304 17.4329 5.79289 17.2931C5.93275 17.1532 6.11093 17.058 6.30491 17.0194C6.49889 16.9808 6.69996 17.0006 6.88268 17.0763C7.06541 17.152 7.22159 17.2802 7.33147 17.4446C7.44135 17.6091 7.5 17.8024 7.5 18.0002C7.5 18.2654 7.39464 18.5197 7.20711 18.7073C7.01957 18.8948 6.76522 19.0002 6.5 19.0002Z" fill="#141414"/>
</svg>
