<svg width="24" height="24" viewBox="0 0 24 24" fill="none" xmlns="http://www.w3.org/2000/svg">
<path d="M12 8H6C5.20435 8 4.44129 8.31607 3.87868 8.87868C3.31607 9.44129 3 10.2044 3 11V19C3 19.7956 3.31607 20.5587 3.87868 21.1213C4.44129 21.6839 5.20435 22 6 22H12C12.7956 22 13.5587 21.6839 14.1213 21.1213C14.6839 20.5587 15 19.7956 15 19V11C15 10.2044 14.6839 9.44129 14.1213 8.87868C13.5587 8.31607 12.7956 8 12 8ZM7.94 11.44C8.18471 11.1951 8.50661 11.0423 8.85109 11.0077C9.19558 10.9731 9.54144 11.0587 9.83 11.25C10.0785 11.4177 10.273 11.6539 10.39 11.93C10.501 12.2025 10.5288 12.5017 10.47 12.79C10.419 13.0875 10.2789 13.3624 10.0682 13.5785C9.85745 13.7946 9.58609 13.9415 9.29 14C9.00172 14.0588 8.70248 14.031 8.43 13.92C8.15394 13.803 7.91774 13.6085 7.75 13.36C7.55868 13.0714 7.47308 12.7256 7.50771 12.3811C7.54234 12.0366 7.69508 11.7147 7.94 11.47V11.44ZM11.71 18.71C11.6166 18.8027 11.5057 18.876 11.3839 18.9258C11.2621 18.9755 11.1316 19.0008 11 19H7C6.73478 19 6.48043 18.8946 6.29289 18.7071C6.10536 18.5196 6 18.2652 6 18C6 17.2044 6.31607 16.4413 6.87868 15.8787C7.44129 15.3161 8.20435 15 9 15C9.79565 15 10.5587 15.3161 11.1213 15.8787C11.6839 16.4413 12 17.2044 12 18C12.0008 18.1316 11.9755 18.2621 11.9258 18.3839C11.876 18.5057 11.8027 18.6166 11.71 18.71ZM18 2H12C11.2044 2 10.4413 2.31607 9.87868 2.87868C9.31607 3.44129 9 4.20435 9 5V6H12C13.3261 6 14.5979 6.52678 15.5355 7.46447C16.4732 8.40215 17 9.67392 17 11V16H18C18.7956 16 19.5587 15.6839 20.1213 15.1213C20.6839 14.5587 21 13.7956 21 13V5C21 4.20435 20.6839 3.44129 20.1213 2.87868C19.5587 2.31607 18.7956 2 18 2Z" fill="#141414"/>
</svg>
