<svg width="24" height="24" viewBox="0 0 24 24" fill="none" xmlns="http://www.w3.org/2000/svg">
<path d="M17 7H16V6C16 4.93913 15.5786 3.92172 14.8284 3.17157C14.0783 2.42143 13.0609 2 12 2C10.9391 2 9.92172 2.42143 9.17157 3.17157C8.42143 3.92172 8 4.93913 8 6V7H7C6.20435 7 5.44129 7.31607 4.87868 7.87868C4.31607 8.44129 4 9.20435 4 10V19C4 19.7956 4.31607 20.5587 4.87868 21.1213C5.44129 21.6839 6.20435 22 7 22H17C17.7956 22 18.5587 21.6839 19.1213 21.1213C19.6839 20.5587 20 19.7956 20 19V10C20 9.20435 19.6839 8.44129 19.1213 7.87868C18.5587 7.31607 17.7956 7 17 7ZM12 16C11.6044 16 11.2178 15.8827 10.8889 15.6629C10.56 15.4432 10.3036 15.1308 10.1522 14.7654C10.0009 14.3999 9.96126 13.9978 10.0384 13.6098C10.1156 13.2219 10.3061 12.8655 10.5858 12.5858C10.8655 12.3061 11.2219 12.1156 11.6098 12.0384C11.9978 11.9613 12.3999 12.0009 12.7654 12.1522C13.1308 12.3036 13.4432 12.56 13.6629 12.8889C13.8827 13.2178 14 13.6044 14 14C14 14.5304 13.7893 15.0391 13.4142 15.4142C13.0391 15.7893 12.5304 16 12 16ZM14 7H10V6C10 5.46957 10.2107 4.96086 10.5858 4.58579C10.9609 4.21071 11.4696 4 12 4C12.5304 4 13.0391 4.21071 13.4142 4.58579C13.7893 4.96086 14 5.46957 14 6V7Z" fill="#141414"/>
</svg>
