<svg width="24" height="24" viewBox="0 0 24 24" fill="none" xmlns="http://www.w3.org/2000/svg">
<path d="M16.5 5.50019C16.6326 5.50019 16.7598 5.55286 16.8536 5.64663C16.9473 5.7404 17 5.86758 17 6.00019C17 6.2654 17.1054 6.51976 17.2929 6.70729C17.4804 6.89483 17.7348 7.00019 18 7.00019C18.2652 7.00019 18.5196 6.89483 18.7071 6.70729C18.8946 6.51976 19 6.2654 19 6.00019C19 5.33714 18.7366 4.70126 18.2678 4.23242C17.7989 3.76358 17.163 3.50019 16.5 3.50019C16.2348 3.50019 15.9804 3.60554 15.7929 3.79308C15.6054 3.98061 15.5 4.23497 15.5 4.50019C15.5 4.7654 15.6054 5.01976 15.7929 5.20729C15.9804 5.39483 16.2348 5.50019 16.5 5.50019ZM5 7.00019C5.26522 7.00019 5.51957 6.89483 5.70711 6.70729C5.89464 6.51976 6 6.2654 6 6.00019C6 5.86758 6.05268 5.7404 6.14645 5.64663C6.24021 5.55286 6.36739 5.50019 6.5 5.50019C6.76522 5.50019 7.01957 5.39483 7.20711 5.20729C7.39464 5.01976 7.5 4.7654 7.5 4.50019C7.5 4.23497 7.39464 3.98061 7.20711 3.79308C7.01957 3.60554 6.76522 3.50019 6.5 3.50019C5.83696 3.50019 5.20107 3.76358 4.73223 4.23242C4.26339 4.70126 4 5.33714 4 6.00019C4 6.2654 4.10536 6.51976 4.29289 6.70729C4.48043 6.89483 4.73478 7.00019 5 7.00019ZM19 8.00019H15C14.4696 8.00019 13.9609 8.2109 13.5858 8.58597C13.2107 8.96105 13 9.46975 13 10.0002V19.0002C13 19.5306 13.2107 20.0393 13.5858 20.4144C13.9609 20.7895 14.4696 21.0002 15 21.0002H19C19.5304 21.0002 20.0391 20.7895 20.4142 20.4144C20.7893 20.0393 21 19.5306 21 19.0002V10.0002C21 9.46975 20.7893 8.96105 20.4142 8.58597C20.0391 8.2109 19.5304 8.00019 19 8.00019ZM17 19.0002C16.8022 19.0002 16.6089 18.9415 16.4444 18.8317C16.28 18.7218 16.1518 18.5656 16.0761 18.3829C16.0004 18.2001 15.9806 17.9991 16.0192 17.8051C16.0578 17.6111 16.153 17.4329 16.2929 17.2931C16.4327 17.1532 16.6109 17.058 16.8049 17.0194C16.9989 16.9808 17.2 17.0006 17.3827 17.0763C17.5654 17.152 17.7216 17.2802 17.8315 17.4446C17.9414 17.6091 18 17.8024 18 18.0002C18 18.2654 17.8946 18.5198 17.7071 18.7073C17.5196 18.8948 17.2652 19.0002 17 19.0002ZM14.21 6.71019C14.3037 6.61722 14.3781 6.50662 14.4289 6.38476C14.4797 6.2629 14.5058 6.1322 14.5058 6.00019C14.5058 5.86817 14.4797 5.73747 14.4289 5.61561C14.3781 5.49375 14.3037 5.38315 14.21 5.29019L13.41 4.50019L14.21 3.71019C14.3032 3.61695 14.3772 3.50626 14.4277 3.38443C14.4781 3.26261 14.5041 3.13204 14.5041 3.00019C14.5041 2.86833 14.4781 2.73776 14.4277 2.61594C14.3772 2.49411 14.3032 2.38342 14.21 2.29019C14.1168 2.19695 14.0061 2.12299 13.8842 2.07253C13.7624 2.02207 13.6319 1.99609 13.5 1.99609C13.3681 1.99609 13.2376 2.02207 13.1158 2.07253C12.9939 2.12299 12.8832 2.19695 12.79 2.29019L12 3.09019L11.21 2.29019C11.0217 2.10188 10.7663 1.99609 10.5 1.99609C10.2337 1.99609 9.9783 2.10188 9.79 2.29019C9.6017 2.47849 9.49591 2.73388 9.49591 3.00019C9.49591 3.26649 9.6017 3.52188 9.79 3.71019L10.59 4.50019L9.79 5.29019C9.69627 5.38315 9.62188 5.49375 9.57111 5.61561C9.52034 5.73747 9.4942 5.86817 9.4942 6.00019C9.4942 6.1322 9.52034 6.2629 9.57111 6.38476C9.62188 6.50662 9.69627 6.61722 9.79 6.71019C9.88296 6.80391 9.99356 6.87831 10.1154 6.92908C10.2373 6.97985 10.368 7.00598 10.5 7.00598C10.632 7.00598 10.7627 6.97985 10.8846 6.92908C11.0064 6.87831 11.117 6.80391 11.21 6.71019L12 5.91019L12.79 6.71019C12.883 6.80391 12.9936 6.87831 13.1154 6.92908C13.2373 6.97985 13.368 7.00598 13.5 7.00598C13.632 7.00598 13.7627 6.97985 13.8846 6.92908C14.0064 6.87831 14.117 6.80391 14.21 6.71019ZM9 8.00019H5C4.46957 8.00019 3.96086 8.2109 3.58579 8.58597C3.21071 8.96105 3 9.46975 3 10.0002V19.0002C3 19.5306 3.21071 20.0393 3.58579 20.4144C3.96086 20.7895 4.46957 21.0002 5 21.0002H9C9.53043 21.0002 10.0391 20.7895 10.4142 20.4144C10.7893 20.0393 11 19.5306 11 19.0002V10.0002C11 9.46975 10.7893 8.96105 10.4142 8.58597C10.0391 8.2109 9.53043 8.00019 9 8.00019ZM7 19.0002C6.80222 19.0002 6.60888 18.9415 6.44443 18.8317C6.27998 18.7218 6.15181 18.5656 6.07612 18.3829C6.00043 18.2001 5.98063 17.9991 6.01921 17.8051C6.0578 17.6111 6.15304 17.4329 6.29289 17.2931C6.43275 17.1532 6.61093 17.058 6.80491 17.0194C6.99889 16.9808 7.19996 17.0006 7.38268 17.0763C7.56541 17.152 7.72159 17.2802 7.83147 17.4446C7.94135 17.6091 8 17.8024 8 18.0002C8 18.2654 7.89464 18.5198 7.70711 18.7073C7.51957 18.8948 7.26522 19.0002 7 19.0002Z" fill="#141414"/>
</svg>
