<svg width="24" height="24" viewBox="0 0 24 24" fill="none" xmlns="http://www.w3.org/2000/svg">
<path d="M17.66 4.33995C16.5412 3.21986 15.1151 2.45692 13.5625 2.14772C12.0098 1.83852 10.4003 1.99695 8.93768 2.60297C7.4751 3.20899 6.22521 4.23534 5.34624 5.55209C4.46727 6.86885 3.99876 8.41679 4 9.99995C4 15 9.94 20.8 10.62 21.45C10.992 21.8045 11.4861 22.0023 12 22.0023C12.5139 22.0023 13.008 21.8045 13.38 21.45C14.06 20.8 20 15 20 9.99995C20.0008 8.94907 19.7946 7.90832 19.3931 6.93715C18.9916 5.96599 18.4027 5.08345 17.66 4.33995ZM12 16C10.8133 16 9.65328 15.6481 8.66658 14.9888C7.67989 14.3295 6.91085 13.3924 6.45673 12.2961C6.0026 11.1997 5.88378 9.9933 6.11529 8.82941C6.3468 7.66552 6.91825 6.59643 7.75736 5.75731C8.59648 4.9182 9.66557 4.34675 10.8295 4.11524C11.9933 3.88373 13.1997 4.00255 14.2961 4.45667C15.3925 4.9108 16.3295 5.67984 16.9888 6.66653C17.6481 7.65323 18 8.81326 18 9.99995C18 11.5913 17.3679 13.1174 16.2426 14.2426C15.1174 15.3678 13.5913 16 12 16Z" fill="#141414"/>
</svg>
