<svg width="24" height="24" viewBox="0 0 24 24" fill="none" xmlns="http://www.w3.org/2000/svg">
<path d="M11.5 6C11.7967 6 12.0867 5.91203 12.3334 5.7472C12.58 5.58238 12.7723 5.34811 12.8858 5.07403C12.9994 4.79994 13.0291 4.49834 12.9712 4.20737C12.9133 3.91639 12.7704 3.64912 12.5607 3.43934C12.3509 3.22956 12.0836 3.0867 11.7926 3.02882C11.5017 2.97094 11.2001 3.00065 10.926 3.11418C10.6519 3.22771 10.4176 3.41997 10.2528 3.66665C10.088 3.91332 10 4.20333 10 4.5C10 4.89783 10.158 5.27936 10.4393 5.56066C10.7206 5.84197 11.1022 6 11.5 6ZM20 17H15.49C14.5793 15.4904 13.5775 14.0377 12.49 12.65V9.8C13.8776 10.5501 15.4231 10.9613 17 11C17.2652 11 17.5196 10.8946 17.7071 10.7071C17.8946 10.5196 18 10.2652 18 10C18 9.73478 17.8946 9.48043 17.7071 9.29289C17.5196 9.10536 17.2652 9 17 9C15.2337 8.89919 13.5364 8.28007 12.12 7.22C12.089 7.19638 12.0554 7.17626 12.02 7.16C11.9608 7.12197 11.8969 7.09172 11.83 7.07H11.65H11.46C11.3937 7.05968 11.3263 7.05968 11.26 7.07C11.2168 7.06446 11.1732 7.06446 11.13 7.07C9.08234 8.02729 7.34848 9.54615 6.13 11.45C5.98527 11.6705 5.93349 11.9392 5.98593 12.1976C6.03837 12.4561 6.19079 12.6834 6.41 12.83C6.58209 12.9511 6.78985 13.011 7 13C7.16471 12.9991 7.32665 12.9576 7.47145 12.8791C7.61625 12.8006 7.73941 12.6876 7.83 12.55C8.54987 11.4681 9.4535 10.5205 10.5 9.75V12.94C10.2811 14.3922 9.74511 15.7784 8.93 17H4C3.73478 17 3.48043 17.1054 3.29289 17.2929C3.10536 17.4804 3 17.7348 3 18C3 18.2652 3.10536 18.5196 3.29289 18.7071C3.48043 18.8946 3.73478 19 4 19H6.74C6.67456 19.0329 6.61111 19.0696 6.55 19.11C6.31448 19.2299 6.13598 19.4381 6.05354 19.6892C5.97109 19.9403 5.99139 20.2138 6.11 20.45C6.1931 20.6149 6.32024 20.7536 6.47733 20.8507C6.63443 20.9478 6.81533 20.9994 7 21C7.15688 21.0019 7.31168 20.964 7.45 20.89C8.38013 20.4227 9.21186 19.781 9.9 19H14.34C14.6 19.46 14.86 19.95 15.11 20.45C15.1931 20.6149 15.3202 20.7536 15.4773 20.8507C15.6344 20.9478 15.8153 20.9994 16 21C16.1569 21.0019 16.3117 20.964 16.45 20.89C16.6855 20.7701 16.864 20.5619 16.9465 20.3108C17.0289 20.0597 17.0086 19.7862 16.89 19.55C16.8 19.37 16.71 19.18 16.61 19H20C20.2652 19 20.5196 18.8946 20.7071 18.7071C20.8946 18.5196 21 18.2652 21 18C21 17.7348 20.8946 17.4804 20.7071 17.2929C20.5196 17.1054 20.2652 17 20 17ZM11.27 17C11.558 16.4501 11.8021 15.8784 12 15.29C12.35 15.78 12.74 16.35 13.15 17H11.27Z" fill="#141414"/>
</svg>
