<svg width="24" height="24" viewBox="0 0 24 24" fill="none" xmlns="http://www.w3.org/2000/svg">
<path d="M12 6C12.2652 6 12.5196 5.89464 12.7071 5.70711C12.8946 5.51957 13 5.26522 13 5V4C13 3.73478 12.8946 3.48043 12.7071 3.29289C12.5196 3.10536 12.2652 3 12 3C11.7348 3 11.4804 3.10536 11.2929 3.29289C11.1054 3.48043 11 3.73478 11 4V5C11 5.26522 11.1054 5.51957 11.2929 5.70711C11.4804 5.89464 11.7348 6 12 6ZM7.4 7.9C7.58625 7.71264 7.69079 7.45919 7.69079 7.195C7.69079 6.93081 7.58625 6.67736 7.4 6.49L6.7 5.78C6.51374 5.59526 6.26234 5.4911 6 5.49C5.73478 5.49 5.48043 5.59536 5.29289 5.78289C5.10536 5.97043 5 6.22478 5 6.49C5.00055 6.62231 5.02735 6.75319 5.07885 6.87507C5.13034 6.99694 5.20551 7.10739 5.3 7.2L6 7.9C6.18693 8.08323 6.43825 8.18586 6.7 8.18586C6.96175 8.18586 7.21307 8.08323 7.4 7.9ZM4.5 11.5H3.5C3.23478 11.5 2.98043 11.6054 2.79289 11.7929C2.60536 11.9804 2.5 12.2348 2.5 12.5C2.5 12.7652 2.60536 13.0196 2.79289 13.2071C2.98043 13.3946 3.23478 13.5 3.5 13.5H4.5C4.76522 13.5 5.01957 13.3946 5.20711 13.2071C5.39464 13.0196 5.5 12.7652 5.5 12.5C5.5 12.2348 5.39464 11.9804 5.20711 11.7929C5.01957 11.6054 4.76522 11.5 4.5 11.5ZM21.21 11.79C21.1166 11.6973 21.0057 11.624 20.8839 11.5742C20.7621 11.5245 20.6316 11.4992 20.5 11.5H19.5C19.2348 11.5 18.9804 11.6054 18.7929 11.7929C18.6054 11.9804 18.5 12.2348 18.5 12.5C18.5 12.7652 18.6054 13.0196 18.7929 13.2071C18.9804 13.3946 19.2348 13.5 19.5 13.5H20.5C20.6986 13.5012 20.8931 13.4431 21.0586 13.3333C21.2241 13.2235 21.3532 13.0669 21.4294 12.8835C21.5055 12.7 21.5254 12.4981 21.4863 12.3033C21.4472 12.1086 21.351 11.9299 21.21 11.79ZM19 6.49C19.0012 6.29138 18.9431 6.09691 18.8333 5.93139C18.7235 5.76587 18.5669 5.6368 18.3835 5.56063C18.2 5.48446 17.9981 5.46465 17.8033 5.50372C17.6086 5.54279 17.4299 5.63897 17.29 5.78L16.59 6.49C16.4037 6.67736 16.2992 6.93081 16.2992 7.195C16.2992 7.45919 16.4037 7.71264 16.59 7.9C16.7769 8.08323 17.0282 8.18586 17.29 8.18586C17.5518 8.18586 17.8031 8.08323 17.99 7.9L18.71 7.2C18.8027 7.10656 18.876 6.99574 18.9258 6.87391C18.9755 6.75207 19.0008 6.62161 19 6.49ZM14 19H10C9.73478 19 9.48043 19.1054 9.29289 19.2929C9.10536 19.4804 9 19.7348 9 20C9 20.2652 9.10536 20.5196 9.29289 20.7071C9.48043 20.8946 9.73478 21 10 21H14C14.2652 21 14.5196 20.8946 14.7071 20.7071C14.8946 20.5196 15 20.2652 15 20C15 19.7348 14.8946 19.4804 14.7071 19.2929C14.5196 19.1054 14.2652 19 14 19ZM15.56 8.15C14.5315 7.3968 13.2898 6.99076 12.015 6.99076C10.7402 6.99076 9.49851 7.3968 8.47 8.15C7.71109 8.72391 7.10306 9.4737 6.69829 10.3348C6.29352 11.1959 6.10413 12.1425 6.14644 13.093C6.18876 14.0435 6.4615 14.9695 6.94118 15.7913C7.42086 16.613 8.0931 17.3058 8.9 17.81C9.05914 17.9086 9.24277 17.9606 9.43 17.96H11V14.75L10 13.75C9.90537 13.6558 9.83056 13.5436 9.78 13.42C9.72709 13.3003 9.69977 13.1709 9.69977 13.04C9.69977 12.9091 9.72709 12.7797 9.78 12.66C9.83056 12.5364 9.90537 12.4242 10 12.33C10.1874 12.1437 10.4408 12.0392 10.705 12.0392C10.9692 12.0392 11.2226 12.1437 11.41 12.33L12 13L12.63 12.37C12.8174 12.1837 13.0708 12.0792 13.335 12.0792C13.5992 12.0792 13.8526 12.1837 14.04 12.37C14.1346 12.4642 14.2094 12.5764 14.26 12.7C14.3129 12.8197 14.3402 12.9491 14.3402 13.08C14.3402 13.2109 14.3129 13.3403 14.26 13.46C14.2094 13.5836 14.1346 13.6958 14.04 13.79L13.04 14.79V18H14.61C14.7972 18.0006 14.9809 17.9486 15.14 17.85C15.9539 17.3447 16.6315 16.6475 17.1135 15.8196C17.5955 14.9916 17.8671 14.0581 17.9046 13.1009C17.9421 12.1436 17.7443 11.1917 17.3286 10.3286C16.9129 9.46547 16.2919 8.71744 15.52 8.15H15.56Z" fill="#141414"/>
</svg>
