<svg width="24" height="24" viewBox="0 0 24 24" fill="none" xmlns="http://www.w3.org/2000/svg">
<path d="M6.12998 7.10004C6.56119 6.15993 7.08016 5.26262 7.67998 4.42004C7.1303 4.24158 6.56897 4.10125 5.99998 4.00004C5.77794 3.96842 5.55171 4.01236 5.35765 4.12481C5.16359 4.23725 5.01297 4.41167 4.92998 4.62004C4.63249 5.39223 4.40165 6.18847 4.23998 7.00004C4.87135 6.99802 5.50235 7.0314 6.12998 7.10004ZM19.76 7.00004C19.6108 6.19307 19.3933 5.40022 19.11 4.63004C19.0274 4.41214 18.8712 4.22995 18.6686 4.11492C18.4659 3.9999 18.2294 3.95926 18 4.00004C17.4214 4.09795 16.8501 4.23493 16.29 4.41004C16.9007 5.25459 17.4298 6.15531 17.87 7.10004C18.4976 7.0314 19.1286 6.99802 19.76 7.00004ZM21.94 9.94004C21.9143 9.7155 21.8134 9.50627 21.6536 9.34646C21.4937 9.18666 21.2845 9.0857 21.06 9.06004C20.6281 9.01568 20.1941 8.99565 19.76 9.00004C19.42 9.00004 19.02 9.00004 18.59 9.05004C18.8562 10.011 18.9941 11.0029 19 12C18.857 15.2212 17.6066 18.2942 15.46 20.7C16.9606 20.3684 18.3431 19.6357 19.46 18.58C22.56 15.51 22 10.16 21.94 9.94004ZM5.40998 9.05004C4.99998 9.00004 4.57998 9.00004 4.23998 9.00004C3.80587 8.99565 3.37185 9.01568 2.93998 9.06004C2.71544 9.0857 2.50621 9.18666 2.34641 9.34646C2.1866 9.50627 2.08564 9.7155 2.05998 9.94004C2.05998 10.16 1.43998 15.51 4.49998 18.58C5.6189 19.6329 7.00056 20.3651 8.49998 20.7C6.36787 18.2886 5.13182 15.2162 4.99998 12C5.00589 11.0029 5.14376 10.011 5.40998 9.05004ZM12.67 3.25004C12.4851 3.08697 12.2465 2.99794 12 3.00004C11.7535 2.99794 11.5149 3.08697 11.33 3.25004C11.15 3.41004 6.99998 7.19004 6.99998 12C6.99998 16.81 11.15 20.59 11.33 20.75C11.5149 20.9131 11.7535 21.0021 12 21C12.2465 21.0021 12.4851 20.9131 12.67 20.75C12.84 20.59 17 16.81 17 12C17 7.19004 12.84 3.41004 12.67 3.25004Z" fill="#141414"/>
</svg>
