<svg width="24" height="24" viewBox="0 0 24 24" fill="none" xmlns="http://www.w3.org/2000/svg">
<path d="M14 7.00015C13.7348 7.00015 13.4804 7.10551 13.2929 7.29304C13.1054 7.48058 13 7.73493 13 8.00015V9.00015H11V8.00015C11 7.73493 10.8946 7.48058 10.7071 7.29304C10.5196 7.10551 10.2652 7.00015 10 7.00015C9.73478 7.00015 9.48043 7.10551 9.29289 7.29304C9.10536 7.48058 9 7.73493 9 8.00015V12.0001C9 12.2654 9.10536 12.5197 9.29289 12.7073C9.48043 12.8948 9.73478 13.0001 10 13.0001C10.2652 13.0001 10.5196 12.8948 10.7071 12.7073C10.8946 12.5197 11 12.2654 11 12.0001V11.0001H13V12.0001C13 12.2654 13.1054 12.5197 13.2929 12.7073C13.4804 12.8948 13.7348 13.0001 14 13.0001C14.2652 13.0001 14.5196 12.8948 14.7071 12.7073C14.8946 12.5197 15 12.2654 15 12.0001V8.00015C15 7.73493 14.8946 7.48058 14.7071 7.29304C14.5196 7.10551 14.2652 7.00015 14 7.00015ZM17.57 4.08015C16.8286 3.37311 15.9549 2.81927 14.9992 2.45034C14.0434 2.08141 13.0242 1.90464 12 1.93015C9.93261 1.88175 7.93021 2.65421 6.43094 4.07851C4.93168 5.50282 4.05761 7.46299 4 9.53015C4 14.6101 9.91 20.6702 10.59 21.3402C10.9647 21.7127 11.4716 21.9217 12 21.9217C12.5284 21.9217 13.0353 21.7127 13.41 21.3402C14.09 20.6702 20 14.6101 20 9.53015C19.9433 7.46346 19.0694 5.50357 17.57 4.08015ZM12 15.8601C10.5241 15.866 9.0991 15.3212 8.00347 14.3323C6.90784 13.3435 6.22034 11.9816 6.07533 10.5128C5.93033 9.04403 6.33825 7.57399 7.21937 6.38997C8.10049 5.20594 9.39147 4.39305 10.84 4.11015C11.992 3.88557 13.1845 4.00378 14.27 4.45015C15.5384 4.97464 16.5856 5.92291 17.233 7.13325C17.8804 8.34359 18.0879 9.74102 17.8201 11.0872C17.5522 12.4335 16.8257 13.6451 15.7644 14.5155C14.703 15.3858 13.3726 15.8611 12 15.8601Z" fill="#141414"/>
</svg>
