<svg width="24" height="24" viewBox="0 0 24 24" fill="none" xmlns="http://www.w3.org/2000/svg">
<path d="M20.73 7.34C20.5642 7.14842 20.3319 7.0269 20.08 7C18.9791 6.87984 17.907 6.57206 16.91 6.09C16.7833 6.02426 16.6427 5.98994 16.5 5.98994C16.3573 5.98994 16.2167 6.02426 16.09 6.09C15.1 6.57191 14.0345 6.87974 12.94 7C12.6874 7.01922 12.4515 7.13359 12.28 7.32C12.1093 7.50647 12.0101 7.74737 12 8V10.5C12 13.88 15.38 16 16.5 16C17.62 16 21 13.88 21 10.51V8C20.9942 7.7543 20.898 7.51935 20.73 7.34ZM10 11.5V7C10 6.20435 10.3161 5.44129 10.8787 4.87868C11.4413 4.31607 12.2044 4 13 4H17.82C17.6137 3.41645 17.2319 2.911 16.7271 2.55294C16.2222 2.19488 15.6189 2.00174 15 2H9C8.20435 2 7.44129 2.31607 6.87868 2.87868C6.31607 3.44129 6 4.20435 6 5V19C6 19.7956 6.31607 20.5587 6.87868 21.1213C7.44129 21.6839 8.20435 22 9 22H15C15.7956 22 16.5587 21.6839 17.1213 21.1213C17.6839 20.5587 18 19.7956 18 19V17.82C17.5084 17.9364 17.0052 17.9968 16.5 18C14.7761 18 13.1228 17.3152 11.9038 16.0962C10.6848 14.8772 10 13.2239 10 11.5ZM12 20C11.8022 20 11.6089 19.9414 11.4444 19.8315C11.28 19.7216 11.1518 19.5654 11.0761 19.3827C11.0004 19.2 10.9806 18.9989 11.0192 18.8049C11.0578 18.6109 11.153 18.4327 11.2929 18.2929C11.4327 18.153 11.6109 18.0578 11.8049 18.0192C11.9989 17.9806 12.2 18.0004 12.3827 18.0761C12.5654 18.1518 12.7216 18.28 12.8315 18.4444C12.9414 18.6089 13 18.8022 13 19C13 19.2652 12.8946 19.5196 12.7071 19.7071C12.5196 19.8946 12.2652 20 12 20Z" fill="#141414"/>
</svg>
