<svg width="24" height="24" viewBox="0 0 24 24" fill="none" xmlns="http://www.w3.org/2000/svg">
<path d="M16.5 12C17.1922 12 17.8689 11.7947 18.4445 11.4101C19.0201 11.0256 19.4687 10.4789 19.7336 9.83939C19.9985 9.19985 20.0678 8.49612 19.9328 7.81719C19.7977 7.13825 19.4644 6.51461 18.9749 6.02513C18.4854 5.53564 17.8618 5.2023 17.1828 5.06725C16.5039 4.93221 15.8002 5.00152 15.1606 5.26642C14.5211 5.53133 13.9744 5.97993 13.5899 6.55551C13.2053 7.13108 13 7.80777 13 8.5C13 9.42826 13.3688 10.3185 14.0251 10.9749C14.6815 11.6313 15.5717 12 16.5 12ZM19.55 14.72L18 15.5V14C18 13.7348 17.8946 13.4804 17.7071 13.2929C17.5196 13.1054 17.2652 13 17 13H7C6.73479 13 6.48043 13.1054 6.2929 13.2929C6.10536 13.4804 6 13.7348 6 14V20C6 20.2652 6.10536 20.5196 6.2929 20.7071C6.48043 20.8946 6.73479 21 7 21H17C17.2652 21 17.5196 20.8946 17.7071 20.7071C17.8946 20.5196 18 20.2652 18 20V18.5L19.55 19.28C19.703 19.3571 19.8732 19.3936 20.0444 19.386C20.2155 19.3784 20.3818 19.327 20.5274 19.2366C20.6729 19.1463 20.7928 19.0201 20.8756 18.8701C20.9584 18.7201 21.0012 18.5513 21 18.38V15.62C21.0012 15.4487 20.9584 15.2799 20.8756 15.1299C20.7928 14.9799 20.6729 14.8537 20.5274 14.7634C20.3818 14.673 20.2155 14.6216 20.0444 14.614C19.8732 14.6064 19.703 14.6429 19.55 14.72ZM12 7.5C12 6.60999 11.7361 5.73996 11.2416 4.99994C10.7471 4.25991 10.0443 3.68314 9.22208 3.34254C8.39981 3.00195 7.49501 2.91283 6.6221 3.08647C5.74918 3.2601 4.94736 3.68868 4.31802 4.31802C3.68868 4.94736 3.2601 5.74918 3.08647 6.6221C2.91283 7.49501 3.00195 8.39981 3.34254 9.22208C3.68314 10.0443 4.25991 10.7471 4.99994 11.2416C5.73996 11.7361 6.60999 12 7.5 12C8.09132 12.0013 8.67708 11.8858 9.22364 11.6601C9.7702 11.4345 10.2668 11.103 10.6849 10.6849C11.103 10.2668 11.4345 9.7702 11.6601 9.22364C11.8858 8.67708 12.0013 8.09132 12 7.5Z" fill="#141414"/>
</svg>
