<svg width="24" height="24" viewBox="0 0 24 24" fill="none" xmlns="http://www.w3.org/2000/svg">
<path d="M18.45 6.11L17 5.38V4.5C16.9891 4.32111 16.9304 4.14842 16.83 4C16.7 3.75 15.44 2 12 2C8.55997 2 7.29997 3.75 7.16997 4C7.06953 4.14842 7.01081 4.32111 6.99997 4.5V5.38L5.54997 6.11C5.31445 6.22989 5.13596 6.43813 5.05351 6.68922C4.97106 6.94031 4.99136 7.21383 5.10997 7.45C5.19307 7.61491 5.32022 7.7536 5.47731 7.85068C5.6344 7.94776 5.81531 7.99944 5.99997 8C6.15685 8.00188 6.31165 7.96404 6.44997 7.89L6.99997 7.62V7.76L6.20997 9.34C6.07067 9.61949 5.99875 9.92772 5.99997 10.24V19C5.99997 19.7956 6.31604 20.5587 6.87865 21.1213C7.44126 21.6839 8.20432 22 8.99997 22H15C15.7956 22 16.5587 21.6839 17.1213 21.1213C17.6839 20.5587 18 19.7956 18 19V10.24C18.0012 9.92772 17.9293 9.61949 17.79 9.34L17 7.76V7.62L17.55 7.89C17.6883 7.96404 17.8431 8.00188 18 8C18.1846 7.99944 18.3655 7.94776 18.5226 7.85068C18.6797 7.7536 18.8069 7.61491 18.89 7.45C19.0086 7.21383 19.0289 6.94031 18.9464 6.68922C18.864 6.43813 18.6855 6.22989 18.45 6.11ZM10.67 4H13.33C13.7729 4 14.1977 4.17595 14.5108 4.48913C14.824 4.80232 15 5.22709 15 5.67C15 5.75752 14.9652 5.84146 14.9033 5.90335C14.8414 5.96523 14.7575 6 14.67 6H9.32997C9.24245 6 9.15852 5.96523 9.09663 5.90335C9.03474 5.84146 8.99997 5.75752 8.99997 5.67C8.99997 5.22709 9.17592 4.80232 9.48911 4.48913C9.80229 4.17595 10.2271 4 10.67 4ZM14.5 12H9.49997C9.10215 12 8.72062 11.842 8.43931 11.5607C8.15801 11.2794 7.99997 10.8978 7.99997 10.5C7.99997 10.3674 8.05265 10.2402 8.14642 10.1464C8.24019 10.0527 8.36737 10 8.49997 10H15.5C15.6326 10 15.7598 10.0527 15.8535 10.1464C15.9473 10.2402 16 10.3674 16 10.5C16 10.8978 15.8419 11.2794 15.5606 11.5607C15.2793 11.842 14.8978 12 14.5 12Z" fill="#141414"/>
</svg>
