<svg width="24" height="24" viewBox="0 0 24 24" fill="none" xmlns="http://www.w3.org/2000/svg">
<path d="M20.45 13.2799C20.17 13.1399 18.56 12.4999 14.63 14.0699C12.93 14.7499 12.17 14.0699 10.75 12.4799C9.33 10.8899 7.4 8.80994 3.68 10.0499C3.48138 10.117 3.30887 10.2448 3.18685 10.4153C3.06482 10.5858 2.99946 10.7903 3 10.9999V19.9999C3 20.2652 3.10536 20.5195 3.2929 20.707C3.48043 20.8946 3.73479 20.9999 4 20.9999H20C20.2652 20.9999 20.5196 20.8946 20.7071 20.707C20.8946 20.5195 21 20.2652 21 19.9999V14.1699C20.9994 13.9853 20.9478 13.8044 20.8507 13.6473C20.7536 13.4902 20.6149 13.363 20.45 13.2799ZM14 11.9999H15.17C15.9654 11.9992 16.7279 11.6827 17.29 11.1199L19.71 8.70994C19.8037 8.61698 19.8781 8.50638 19.9289 8.38452C19.9797 8.26266 20.0058 8.13195 20.0058 7.99994C20.0058 7.86793 19.9797 7.73722 19.9289 7.61536C19.8781 7.49351 19.8037 7.3829 19.71 7.28994L18.91 6.49994L20.71 4.70994C20.8983 4.52164 21.0041 4.26624 21.0041 3.99994C21.0041 3.73364 20.8983 3.47825 20.71 3.28994C20.5217 3.10164 20.2663 2.99585 20 2.99585C19.7337 2.99585 19.4783 3.10164 19.29 3.28994L17.5 5.08994L16.71 4.28994C16.617 4.19621 16.5064 4.12182 16.3846 4.07105C16.2627 4.02028 16.132 3.99414 16 3.99414C15.868 3.99414 15.7373 4.02028 15.6154 4.07105C15.4936 4.12182 15.383 4.19621 15.29 4.28994L12.88 6.70994C12.3172 7.27201 12.0007 8.03456 12 8.82994V9.99994C12 10.5304 12.2107 11.0391 12.5858 11.4142C12.9609 11.7892 13.4696 11.9999 14 11.9999Z" fill="#141414"/>
</svg>
