<svg width="24" height="24" viewBox="0 0 24 24" fill="none" xmlns="http://www.w3.org/2000/svg">
<path d="M6.71007 4.29006C6.32007 3.90006 5.69007 3.90006 5.30007 4.29006C4.91007 4.68006 4.91007 5.31006 5.30007 5.70006L11.5901 11.9901L5.30007 18.2801C4.91007 18.6701 4.91007 19.3001 5.30007 19.6901C5.50007 19.8901 5.75007 19.9801 6.01007 19.9801C6.27007 19.9801 6.52007 19.8801 6.72007 19.6901L13.7201 12.6901C14.1101 12.3001 14.1101 11.6701 13.7201 11.2801L6.71007 4.29006ZM17.0001 4.00006C16.4501 4.00006 16.0001 4.45006 16.0001 5.00006V19.0001C16.0001 19.5501 16.4501 20.0001 17.0001 20.0001C17.5501 20.0001 18.0001 19.5501 18.0001 19.0001V5.00006C18.0001 4.45006 17.5501 4.00006 17.0001 4.00006Z" fill="#141414"/>
</svg>
