<svg width="24" height="24" viewBox="0 0 24 24" fill="none" xmlns="http://www.w3.org/2000/svg">
<path d="M10.29 14.29C10.1963 14.383 10.1219 14.4936 10.0711 14.6154C10.0203 14.7373 9.9942 14.868 9.9942 15C9.9942 15.132 10.0203 15.2627 10.0711 15.3846C10.1219 15.5064 10.1963 15.617 10.29 15.71C10.383 15.8037 10.4936 15.8781 10.6154 15.9289C10.7373 15.9797 10.868 16.0058 11 16.0058C11.132 16.0058 11.2627 15.9797 11.3846 15.9289C11.5064 15.8781 11.617 15.8037 11.71 15.71L14.71 12.71C14.8037 12.617 14.8781 12.5064 14.9289 12.3846C14.9797 12.2627 15.0058 12.132 15.0058 12C15.0058 11.868 14.9797 11.7373 14.9289 11.6154C14.8781 11.4936 14.8037 11.383 14.71 11.29L11.71 8.29C11.5217 8.1017 11.2663 7.99591 11 7.99591C10.7337 7.99591 10.4783 8.1017 10.29 8.29C10.1017 8.47831 9.99591 8.7337 9.99591 9C9.99591 9.2663 10.1017 9.5217 10.29 9.71L11.59 11H3C2.73478 11 2.48043 11.1054 2.29289 11.2929C2.10536 11.4804 2 11.7348 2 12C2 12.2652 2.10536 12.5196 2.29289 12.7071C2.48043 12.8946 2.73478 13 3 13H11.59L10.29 14.29ZM12 2C10.4221 2.00572 8.8677 2.38253 7.46234 3.09997C6.05699 3.81741 4.8401 4.85538 3.91 6.13C3.83225 6.23627 3.77626 6.35685 3.74523 6.48482C3.7142 6.61279 3.70875 6.74562 3.72919 6.8757C3.74963 7.00578 3.79556 7.13054 3.86434 7.24282C3.93312 7.35511 4.0234 7.4527 4.13 7.53C4.23627 7.60775 4.35685 7.66375 4.48482 7.69478C4.61278 7.7258 4.74562 7.73125 4.8757 7.71081C5.00578 7.69037 5.13054 7.64444 5.24282 7.57566C5.3551 7.50688 5.4527 7.4166 5.53 7.31C6.52119 5.94029 7.92085 4.91982 9.52809 4.39507C11.1353 3.87032 12.8675 3.86827 14.476 4.38921C16.0844 4.91015 17.4865 5.92729 18.4809 7.29465C19.4754 8.66201 20.011 10.3093 20.011 12C20.011 13.6907 19.4754 15.338 18.4809 16.7054C17.4865 18.0727 16.0844 19.0899 14.476 19.6108C12.8675 20.1317 11.1353 20.1297 9.52809 19.6049C7.92085 19.0802 6.52119 18.0597 5.53 16.69C5.37352 16.4752 5.13811 16.3313 4.87556 16.2901C4.61301 16.2488 4.34483 16.3135 4.13 16.47C3.91517 16.6265 3.77131 16.8619 3.73005 17.1244C3.68879 17.387 3.75352 17.6552 3.91 17.87C4.91474 19.2557 6.25836 20.3604 7.81223 21.0782C9.3661 21.796 11.0782 22.1029 12.7847 21.9696C14.4911 21.8363 16.1348 21.2672 17.5584 20.3168C18.9819 19.3664 20.1377 18.0666 20.9151 16.5416C21.6924 15.0167 22.0654 13.3177 21.9982 11.6074C21.931 9.89704 21.4259 8.23258 20.5312 6.77333C19.6366 5.31408 18.3824 4.10889 16.8887 3.27312C15.3949 2.43736 13.7117 1.999 12 2Z" fill="#141414"/>
</svg>
