<svg width="24" height="24" viewBox="0 0 24 24" fill="none" xmlns="http://www.w3.org/2000/svg">
<path d="M12 2.00019C9.93261 1.95179 7.93021 2.72425 6.43094 4.14855C4.93168 5.57286 4.05761 7.53304 4 9.60019C4 14.6802 9.91 20.7402 10.59 21.4102C10.9647 21.7827 11.4716 21.9918 12 21.9918C12.5284 21.9918 13.0353 21.7827 13.41 21.4102C14.09 20.7402 20 14.6802 20 9.60019C19.9424 7.53304 19.0683 5.57286 17.5691 4.14855C16.0698 2.72425 14.0674 1.95179 12 2.00019ZM12 13.0002C11.4067 13.0002 10.8266 12.8242 10.3333 12.4946C9.83994 12.165 9.45542 11.6964 9.22836 11.1482C9.0013 10.6001 8.94189 9.99686 9.05764 9.41492C9.1734 8.83298 9.45912 8.29843 9.87868 7.87887C10.2982 7.45931 10.8328 7.17359 11.4147 7.05784C11.9967 6.94208 12.5999 7.00149 13.1481 7.22855C13.6962 7.45562 14.1648 7.84013 14.4944 8.33348C14.8241 8.82683 15 9.40685 15 10.0002C15 10.7958 14.6839 11.5589 14.1213 12.1215C13.5587 12.6841 12.7956 13.0002 12 13.0002Z" fill="#141414"/>
</svg>
