<svg width="24" height="24" viewBox="0 0 24 24" fill="none" xmlns="http://www.w3.org/2000/svg">
<path d="M20.4898 3.51019C20.3963 3.41185 20.2839 3.33355 20.1593 3.28004C20.0346 3.22653 19.9004 3.19894 19.7648 3.19894C19.6291 3.19894 19.4949 3.22653 19.3703 3.28004C19.2456 3.33355 19.1332 3.41185 19.0398 3.51019L3.50976 19.0002C3.41193 19.098 3.33432 19.2142 3.28137 19.342C3.22842 19.4698 3.20117 19.6068 3.20117 19.7452C3.20117 19.8836 3.22842 20.0206 3.28137 20.1484C3.33432 20.2762 3.41193 20.3924 3.50976 20.4902C3.70735 20.6878 3.97533 20.7988 4.25476 20.7988C4.39312 20.7988 4.53012 20.7715 4.65795 20.7186C4.78578 20.6656 4.90193 20.588 4.99976 20.4902L7.59976 17.8802C8.51706 19.1247 9.51946 20.3042 10.5998 21.4102C10.9745 21.7827 11.4814 21.9918 12.0098 21.9918C12.5381 21.9918 13.045 21.7827 13.4198 21.4102C14.0898 20.7402 19.9998 14.6802 19.9998 9.60019C19.999 8.4403 19.7177 7.2978 19.1798 6.27019L20.4898 5.00019C20.5945 4.9064 20.6783 4.79157 20.7357 4.6632C20.793 4.53482 20.8227 4.3958 20.8227 4.25519C20.8227 4.11458 20.793 3.97556 20.7357 3.84719C20.6783 3.71882 20.5945 3.60399 20.4898 3.51019ZM9.07976 10.6702C9.02738 10.4507 9.00054 10.2259 8.99976 10.0002C8.99976 9.20454 9.31583 8.44148 9.87844 7.87887C10.441 7.31626 11.2041 7.00019 11.9998 7.00019C12.2254 7.00097 12.4503 7.02781 12.6698 7.08019L16.4598 3.30019C15.1293 2.44651 13.5806 1.9951 11.9998 2.00019C9.93237 1.95179 7.92997 2.72425 6.4307 4.14855C4.93144 5.57286 4.05737 7.53304 3.99976 9.60019C4.07527 11.2808 4.54089 12.9207 5.35976 14.3902L9.07976 10.6702Z" fill="#141414"/>
</svg>
