<svg width="24" height="24" viewBox="0 0 24 24" fill="none" xmlns="http://www.w3.org/2000/svg">
<path d="M19.94 11.51L17.94 3.51C17.8309 3.07825 17.5808 2.69526 17.2294 2.42173C16.878 2.14821 16.4453 1.99979 16 2H7.99998C7.55465 1.99979 7.122 2.14821 6.77058 2.42173C6.41916 2.69526 6.16908 3.07825 6.05998 3.51L4.05998 11.51C3.98539 11.8052 3.97917 12.1135 4.04179 12.4114C4.10442 12.7093 4.23423 12.989 4.42134 13.2292C4.60845 13.4694 4.84792 13.6636 5.1215 13.7972C5.39507 13.9308 5.69553 14.0001 5.99998 14H11V20H7.99998C7.73476 20 7.48041 20.1054 7.29287 20.2929C7.10533 20.4804 6.99998 20.7348 6.99998 21C6.99998 21.2652 7.10533 21.5196 7.29287 21.7071C7.48041 21.8946 7.73476 22 7.99998 22H16C16.2652 22 16.5195 21.8946 16.7071 21.7071C16.8946 21.5196 17 21.2652 17 21C17 20.7348 16.8946 20.4804 16.7071 20.2929C16.5195 20.1054 16.2652 20 16 20H13V14H18C18.3044 14.0001 18.6049 13.9308 18.8785 13.7972C19.152 13.6636 19.3915 13.4694 19.5786 13.2292C19.7657 12.989 19.8955 12.7093 19.9582 12.4114C20.0208 12.1135 20.0146 11.8052 19.94 11.51Z" fill="#141414"/>
</svg>
