<svg width="24" height="24" viewBox="0 0 24 24" fill="none" xmlns="http://www.w3.org/2000/svg">
<path d="M19.65 3.00015H4.35C4.17534 2.99751 4.00186 3.02929 3.83949 3.0937C3.67711 3.1581 3.52901 3.25387 3.40365 3.37551C3.27828 3.49716 3.17811 3.64232 3.10885 3.80268C3.0396 3.96305 3.00261 4.13549 3 4.31015V19.6902C3.00261 19.8648 3.0396 20.0373 3.10885 20.1976C3.17811 20.358 3.27828 20.5031 3.40365 20.6248C3.52901 20.7464 3.67711 20.8422 3.83949 20.9066C4.00186 20.971 4.17534 21.0028 4.35 21.0002H19.65C19.8247 21.0028 19.9981 20.971 20.1605 20.9066C20.3229 20.8422 20.471 20.7464 20.5964 20.6248C20.7217 20.5031 20.8219 20.358 20.8911 20.1976C20.9604 20.0373 20.9974 19.8648 21 19.6902V4.31015C20.9974 4.13549 20.9604 3.96305 20.8911 3.80268C20.8219 3.64232 20.7217 3.49716 20.5964 3.37551C20.471 3.25387 20.3229 3.1581 20.1605 3.0937C19.9981 3.02929 19.8247 2.99751 19.65 3.00015ZM8.33 18.3402H5.7V9.79015H8.33V18.3402ZM7.05 8.59015C6.63004 8.58751 6.22818 8.41883 5.93216 8.12093C5.63614 7.82303 5.46999 7.42012 5.47 7.00015C5.46724 6.79283 5.50637 6.58708 5.58505 6.39525C5.66373 6.20342 5.78033 6.02945 5.92788 5.88377C6.07542 5.7381 6.25086 5.62371 6.44368 5.54748C6.6365 5.47126 6.84273 5.43475 7.05 5.44015C7.44604 5.47174 7.81565 5.65136 8.08519 5.94325C8.35472 6.23514 8.5044 6.61785 8.5044 7.01515C8.5044 7.41245 8.35472 7.79517 8.08519 8.08706C7.81565 8.37894 7.44604 8.55857 7.05 8.59015ZM18.45 18.2602H15.75V14.0602C15.75 13.0602 15.75 11.7402 14.33 11.7402C12.91 11.7402 12.75 12.8602 12.75 13.9102V18.1902H10.12V9.79015H12.6V10.9102H12.67C12.939 10.476 13.3144 10.1176 13.7607 9.86914C14.2069 9.62064 14.7092 9.49019 15.22 9.49015C17.92 9.49015 18.45 11.2902 18.45 13.6102V18.2602Z" fill="#141414"/>
</svg>
