<svg width="24" height="24" viewBox="0 0 24 24" fill="none" xmlns="http://www.w3.org/2000/svg">
<path d="M21 3.99997C20.0786 3.97751 19.1655 4.18002 18.34 4.58997C17.7705 4.8782 17.138 5.01916 16.5 4.99997C15.8588 5.01999 15.2227 4.87903 14.65 4.58997C13.8276 4.18123 12.9181 3.97873 12 3.99997C11.0786 3.97751 10.1655 4.18002 9.34 4.58997C8.77055 4.8782 8.13795 5.01916 7.5 4.99997C6.85877 5.01999 6.22274 4.87903 5.65 4.58997C4.82857 4.17853 3.9184 3.97588 3 3.99997C2.73478 3.99997 2.48043 4.10533 2.29289 4.29286C2.10536 4.4804 2 4.73475 2 4.99997V19C2 19.2652 2.10536 19.5195 2.29289 19.7071C2.48043 19.8946 2.73478 20 3 20H21C21.2652 20 21.5196 19.8946 21.7071 19.7071C21.8946 19.5195 22 19.2652 22 19V4.99997C22 4.73475 21.8946 4.4804 21.7071 4.29286C21.5196 4.10533 21.2652 3.99997 21 3.99997ZM4 8.99997C4 8.73475 4.10536 8.4804 4.29289 8.29286C4.48043 8.10533 4.73478 7.99997 5 7.99997H7C7.26522 7.99997 7.51957 8.10533 7.70711 8.29286C7.89464 8.4804 8 8.73475 8 8.99997C8 9.26518 7.89464 9.51954 7.70711 9.70707C7.51957 9.89461 7.26522 9.99997 7 9.99997H5C4.73478 9.99997 4.48043 9.89461 4.29289 9.70707C4.10536 9.51954 4 9.26518 4 8.99997ZM10 14H8C7.73478 14 7.48043 13.8946 7.29289 13.7071C7.10536 13.5195 7 13.2652 7 13C7 12.7348 7.10536 12.4804 7.29289 12.2929C7.48043 12.1053 7.73478 12 8 12H10C10.2652 12 10.5196 12.1053 10.7071 12.2929C10.8946 12.4804 11 12.7348 11 13C11 13.2652 10.8946 13.5195 10.7071 13.7071C10.5196 13.8946 10.2652 14 10 14ZM10 8.99997C10 8.73475 10.1054 8.4804 10.2929 8.29286C10.4804 8.10533 10.7348 7.99997 11 7.99997H13C13.2652 7.99997 13.5196 8.10533 13.7071 8.29286C13.8946 8.4804 14 8.73475 14 8.99997C14 9.26518 13.8946 9.51954 13.7071 9.70707C13.5196 9.89461 13.2652 9.99997 13 9.99997H11C10.7348 9.99997 10.4804 9.89461 10.2929 9.70707C10.1054 9.51954 10 9.26518 10 8.99997ZM16 14H14C13.7348 14 13.4804 13.8946 13.2929 13.7071C13.1054 13.5195 13 13.2652 13 13C13 12.7348 13.1054 12.4804 13.2929 12.2929C13.4804 12.1053 13.7348 12 14 12H16C16.2652 12 16.5196 12.1053 16.7071 12.2929C16.8946 12.4804 17 12.7348 17 13C17 13.2652 16.8946 13.5195 16.7071 13.7071C16.5196 13.8946 16.2652 14 16 14ZM19 9.99997H17C16.7348 9.99997 16.4804 9.89461 16.2929 9.70707C16.1054 9.51954 16 9.26518 16 8.99997C16 8.73475 16.1054 8.4804 16.2929 8.29286C16.4804 8.10533 16.7348 7.99997 17 7.99997H19C19.2652 7.99997 19.5196 8.10533 19.7071 8.29286C19.8946 8.4804 20 8.73475 20 8.99997C20 9.26518 19.8946 9.51954 19.7071 9.70707C19.5196 9.89461 19.2652 9.99997 19 9.99997Z" fill="#141414"/>
</svg>
