<svg width="24" height="24" viewBox="0 0 24 24" fill="none" xmlns="http://www.w3.org/2000/svg">
<path d="M16 7C16 6.20888 15.7654 5.43552 15.3259 4.77772C14.8864 4.11992 14.2616 3.60723 13.5307 3.30448C12.7998 3.00173 11.9956 2.92252 11.2196 3.07686C10.4437 3.2312 9.73098 3.61216 9.17157 4.17157C8.61216 4.73098 8.2312 5.44372 8.07686 6.21964C7.92252 6.99556 8.00173 7.79983 8.30448 8.53074C8.60723 9.26164 9.11992 9.88635 9.77772 10.3259C10.4355 10.7654 11.2089 11 12 11C13.0609 11 14.0783 10.5786 14.8284 9.82843C15.5786 9.07828 16 8.06087 16 7ZM7.21 10.79C7.0217 10.6017 6.7663 10.4959 6.5 10.4959C6.2337 10.4959 5.9783 10.6017 5.79 10.79C5.6017 10.9783 5.49591 11.2337 5.49591 11.5C5.49591 11.6319 5.52188 11.7624 5.57234 11.8843C5.6228 12.0061 5.69676 12.1168 5.79 12.21L7 13.37C7.14454 13.5145 7.22575 13.7106 7.22575 13.915C7.22575 14.1194 7.14454 14.3155 7 14.46C6.85546 14.6045 6.65942 14.6857 6.455 14.6857C6.25059 14.6857 6.05454 14.6045 5.91 14.46L4.59 13.17C4.21441 12.7967 4.00223 12.2896 4 11.76V7.53C4 7.26479 3.89464 7.01043 3.70711 6.82289C3.51957 6.63536 3.26522 6.53 3 6.53C2.73478 6.53 2.48043 6.63536 2.29289 6.82289C2.10536 7.01043 2 7.26479 2 7.53V11.76C1.99959 12.2854 2.1027 12.8058 2.30346 13.2914C2.50421 13.777 2.79866 14.2183 3.17 14.59L5.71 17.12C5.80268 17.2134 5.87601 17.3243 5.92577 17.4461C5.97554 17.5679 6.00076 17.6984 6 17.83V19C6 19.2652 6.10536 19.5196 6.29289 19.7071C6.48043 19.8946 6.73479 20 7 20H10C10.2652 20 10.5196 19.8946 10.7071 19.7071C10.8946 19.5196 11 19.2652 11 19V15.83C10.9993 15.0346 10.6828 14.2721 10.12 13.71L7.21 10.79ZM21 6.53C20.7348 6.53 20.4804 6.63536 20.2929 6.82289C20.1054 7.01043 20 7.26479 20 7.53V11.76C19.9978 12.2896 19.7856 12.7967 19.41 13.17L18.13 14.46C17.9855 14.6098 17.7873 14.6961 17.5791 14.6999C17.371 14.7036 17.1698 14.6245 17.02 14.48C16.8702 14.3355 16.7839 14.1373 16.7801 13.9291C16.7764 13.721 16.8555 13.5198 17 13.37L18.17 12.21C18.3583 12.0217 18.4641 11.7663 18.4641 11.5C18.4641 11.2337 18.3583 10.9783 18.17 10.79C17.9817 10.6017 17.7263 10.4959 17.46 10.4959C17.1937 10.4959 16.9383 10.6017 16.75 10.79L13.84 13.71C13.2919 14.2786 12.99 15.0403 13 15.83V19C13 19.2652 13.1054 19.5196 13.2929 19.7071C13.4804 19.8946 13.7348 20 14 20H17C17.2652 20 17.5196 19.8946 17.7071 19.7071C17.8946 19.5196 18 19.2652 18 19V17.83C17.9992 17.6984 18.0245 17.5679 18.0742 17.4461C18.124 17.3243 18.1973 17.2134 18.29 17.12L20.83 14.59C21.2013 14.2183 21.4958 13.777 21.6965 13.2914C21.8973 12.8058 22.0004 12.2854 22 11.76V7.53C22 7.26479 21.8946 7.01043 21.7071 6.82289C21.5196 6.63536 21.2652 6.53 21 6.53Z" fill="#141414"/>
</svg>
