<svg width="24" height="24" viewBox="0 0 24 24" fill="none" xmlns="http://www.w3.org/2000/svg">
<path d="M14 14H13V13C13 12.7348 12.8946 12.4804 12.7071 12.2929C12.5196 12.1054 12.2652 12 12 12C11.7348 12 11.4804 12.1054 11.2929 12.2929C11.1054 12.4804 11 12.7348 11 13V14H10C9.73478 14 9.48043 14.1054 9.29289 14.2929C9.10536 14.4804 9 14.7348 9 15C9 15.2652 9.10536 15.5196 9.29289 15.7071C9.48043 15.8946 9.73478 16 10 16H11V17C11 17.2652 11.1054 17.5196 11.2929 17.7071C11.4804 17.8946 11.7348 18 12 18C12.2652 18 12.5196 17.8946 12.7071 17.7071C12.8946 17.5196 13 17.2652 13 17V16H14C14.2652 16 14.5196 15.8946 14.7071 15.7071C14.8946 15.5196 15 15.2652 15 15C15 14.7348 14.8946 14.4804 14.7071 14.2929C14.5196 14.1054 14.2652 14 14 14ZM19.12 3.88C18.5579 3.31723 17.7954 3.0007 17 3H15.72C15.5475 2.69824 15.2994 2.44663 15 2.27C14.6962 2.09375 14.3513 2.00062 14 2H10C9.64874 2.00062 9.30384 2.09375 9 2.27C8.70064 2.44663 8.45249 2.69824 8.28 3H7C6.20435 3 5.44129 3.31607 4.87868 3.87868C4.31607 4.44129 4 5.20435 4 6V19C4 19.7956 4.31607 20.5587 4.87868 21.1213C5.44129 21.6839 6.20435 22 7 22H17C17.7956 22 18.5587 21.6839 19.1213 21.1213C19.6839 20.5587 20 19.7956 20 19V6C19.9993 5.20462 19.6828 4.44207 19.12 3.88ZM15.54 18.54C14.9581 19.1223 14.2414 19.552 13.4535 19.7908C12.6657 20.0296 11.8311 20.0701 11.0238 19.9089C10.2165 19.7476 9.46147 19.3895 8.82582 18.8664C8.19017 18.3432 7.69353 17.6712 7.38 16.91C6.9946 15.9906 6.89697 14.976 7.1 14C7.29597 13.0391 7.77018 12.1571 8.46362 11.4636C9.15706 10.7702 10.0391 10.296 11 10.1C11.9696 9.90111 12.9766 9.99867 13.89 10.38C14.6512 10.6935 15.3232 11.1902 15.8464 11.8258C16.3695 12.4615 16.7276 13.2165 16.8889 14.0238C17.0501 14.8311 17.0096 15.6657 16.7708 16.4535C16.532 17.2414 16.1023 17.9581 15.52 18.54H15.54ZM18 8H6V6C6 5.73478 6.10536 5.48043 6.29289 5.29289C6.48043 5.10536 6.73478 5 7 5H8.28C8.45249 5.30176 8.70064 5.55337 9 5.73C9.30384 5.90625 9.64874 5.99938 10 6H14C14.3513 5.99938 14.6962 5.90625 15 5.73C15.2994 5.55337 15.5475 5.30176 15.72 5H17C17.2652 5 17.5196 5.10536 17.7071 5.29289C17.8946 5.48043 18 5.73478 18 6V8Z" fill="#141414"/>
</svg>
