<svg width="24" height="24" viewBox="0 0 24 24" fill="none" xmlns="http://www.w3.org/2000/svg">
<path d="M19.7102 6.28994C19.6172 6.19621 19.5066 6.12182 19.3848 6.07105C19.2629 6.02028 19.1322 5.99414 19.0002 5.99414C18.8682 5.99414 18.7375 6.02028 18.6156 6.07105C18.4937 6.12182 18.3831 6.19621 18.2902 6.28994L8.00019 16.5899L3.71019 12.2899C3.52188 12.1016 3.26649 11.9958 3.00019 11.9958C2.73388 11.9958 2.47849 12.1016 2.29019 12.2899C2.10188 12.4782 1.99609 12.7336 1.99609 12.9999C1.99609 13.2662 2.10188 13.5216 2.29019 13.7099L7.29019 18.7099C7.38315 18.8037 7.49375 18.8781 7.61561 18.9288C7.73747 18.9796 7.86817 19.0057 8.00019 19.0057C8.1322 19.0057 8.2629 18.9796 8.38476 18.9288C8.50662 18.8781 8.61722 18.8037 8.71019 18.7099L19.7102 7.70994C19.8039 7.61698 19.8783 7.50638 19.9291 7.38452C19.9798 7.26266 20.006 7.13195 20.006 6.99994C20.006 6.86793 19.9798 6.73722 19.9291 6.61536C19.8783 6.4935 19.8039 6.3829 19.7102 6.28994ZM20.5002 15.9999C20.2035 15.9999 19.9135 16.0879 19.6668 16.2527C19.4202 16.4176 19.2279 16.6518 19.1144 16.9259C19.0008 17.2 18.9711 17.5016 19.029 17.7926C19.0869 18.0835 19.2297 18.3508 19.4395 18.5606C19.6493 18.7704 19.9166 18.9132 20.2076 18.9711C20.4985 19.029 20.8001 18.9993 21.0742 18.8858C21.3483 18.7722 21.5826 18.58 21.7474 18.3333C21.9122 18.0866 22.0002 17.7966 22.0002 17.4999C22.0002 17.1021 21.8421 16.7206 21.5608 16.4393C21.2795 16.158 20.898 15.9999 20.5002 15.9999ZM15.5002 15.9999C15.2035 15.9999 14.9135 16.0879 14.6668 16.2527C14.4202 16.4176 14.2279 16.6518 14.1144 16.9259C14.0008 17.2 13.9711 17.5016 14.029 17.7926C14.0869 18.0835 14.2297 18.3508 14.4395 18.5606C14.6493 18.7704 14.9166 18.9132 15.2075 18.9711C15.4985 19.029 15.8001 18.9993 16.0742 18.8858C16.3483 18.7722 16.5826 18.58 16.7474 18.3333C16.9122 18.0866 17.0002 17.7966 17.0002 17.4999C17.0002 17.1021 16.8421 16.7206 16.5608 16.4393C16.2795 16.158 15.898 15.9999 15.5002 15.9999Z" fill="#141414"/>
</svg>
