<svg width="24" height="24" viewBox="0 0 24 24" fill="none" xmlns="http://www.w3.org/2000/svg">
<path d="M12.59 11.34L20.59 5.49C20.1168 5.18003 19.5656 5.01016 19 5H5C4.42076 5.00255 3.85463 5.17273 3.37 5.49L11.37 11.34C11.5449 11.4746 11.7593 11.5476 11.98 11.5476C12.2007 11.5476 12.4151 11.4746 12.59 11.34ZM21.84 7.08L13.76 13C13.2481 13.3708 12.6321 13.5705 12 13.5705C11.3679 13.5705 10.7519 13.3708 10.24 13L2.16 7.08C2.05591 7.37564 2.00184 7.68657 2 8V16C2 16.7956 2.31607 17.5587 2.87868 18.1213C3.44129 18.6839 4.20435 19 5 19H19C19.7956 19 20.5587 18.6839 21.1213 18.1213C21.6839 17.5587 22 16.7956 22 16V8C21.9982 7.68657 21.9441 7.37564 21.84 7.08Z" fill="#141414"/>
</svg>
