<svg width="24" height="24" viewBox="0 0 24 24" fill="none" xmlns="http://www.w3.org/2000/svg">
<path d="M21.12 6.88C20.5579 6.31723 19.7954 6.0007 19 6H12.41L11.29 4.88C10.7279 4.31723 9.96538 4.0007 9.17 4H5C4.20435 4 3.44129 4.31607 2.87868 4.87868C2.31607 5.44129 2 6.20435 2 7V17C2 17.7956 2.31607 18.5587 2.87868 19.1213C3.44129 19.6839 4.20435 20 5 20H19C19.7956 20 20.5587 19.6839 21.1213 19.1213C21.6839 18.5587 22 17.7956 22 17V9C21.9993 8.20462 21.6828 7.44207 21.12 6.88ZM15.54 16.54C14.9581 17.1223 14.2414 17.552 13.4535 17.7908C12.6657 18.0296 11.8311 18.0701 11.0238 17.9089C10.2165 17.7476 9.46147 17.3895 8.82582 16.8664C8.19017 16.3432 7.69353 15.6712 7.38 14.91C6.9946 13.9906 6.89697 12.976 7.1 12C7.29597 11.0391 7.77018 10.1571 8.46362 9.46362C9.15706 8.77018 10.0391 8.29597 11 8.1C11.9696 7.90111 12.9766 7.99867 13.89 8.38C14.6512 8.69353 15.3232 9.19017 15.8464 9.82582C16.3695 10.4615 16.7276 11.2165 16.8889 12.0238C17.0501 12.8311 17.0096 13.6657 16.7708 14.4535C16.532 15.2414 16.1023 15.9581 15.52 16.54H15.54ZM14 12H13V11C13 10.7348 12.8946 10.4804 12.7071 10.2929C12.5196 10.1054 12.2652 10 12 10C11.7348 10 11.4804 10.1054 11.2929 10.2929C11.1054 10.4804 11 10.7348 11 11V12H10C9.73478 12 9.48043 12.1054 9.29289 12.2929C9.10536 12.4804 9 12.7348 9 13C9 13.2652 9.10536 13.5196 9.29289 13.7071C9.48043 13.8946 9.73478 14 10 14H11V15C11 15.2652 11.1054 15.5196 11.2929 15.7071C11.4804 15.8946 11.7348 16 12 16C12.2652 16 12.5196 15.8946 12.7071 15.7071C12.8946 15.5196 13 15.2652 13 15V14H14C14.2652 14 14.5196 13.8946 14.7071 13.7071C14.8946 13.5196 15 13.2652 15 13C15 12.7348 14.8946 12.4804 14.7071 12.2929C14.5196 12.1054 14.2652 12 14 12Z" fill="#141414"/>
</svg>
