<svg width="24" height="24" viewBox="0 0 24 24" fill="none" xmlns="http://www.w3.org/2000/svg">
<path d="M11.9999 7.00005C12.1315 7.00081 12.2619 6.97558 12.3838 6.92582C12.5056 6.87606 12.6164 6.80273 12.7099 6.71005C12.8026 6.61661 12.8759 6.50579 12.9256 6.38395C12.9754 6.26212 13.0006 6.13165 12.9999 6.00005C12.9962 5.73528 12.8926 5.48168 12.7099 5.29005C12.6164 5.19737 12.5056 5.12404 12.3838 5.07428C12.2619 5.02451 12.1315 4.99929 11.9999 5.00005H6.99988C6.7835 4.98914 6.56943 5.0488 6.38988 5.17005C6.20736 5.29256 6.07029 5.4718 5.99988 5.68005L4.69988 9.74005L3.82988 8.45005C3.6789 8.22669 3.45115 8.06655 3.18988 8.00005C3.05488 7.96988 2.91488 7.96988 2.77988 8.00005C2.6428 8.01801 2.51227 8.06954 2.39988 8.15005C2.28421 8.22564 2.18547 8.32438 2.10988 8.44005C2.05278 8.54215 2.01546 8.65411 1.99988 8.77005C1.97465 8.90555 1.97465 9.04455 1.99988 9.18005C2.03658 9.31534 2.10131 9.44139 2.18988 9.55005L4.18988 12.55C4.28076 12.6881 4.40445 12.8015 4.54988 12.88C4.68834 12.9549 4.84252 12.996 4.99988 13H5.12988C5.32564 12.9846 5.51253 12.9119 5.66724 12.791C5.82196 12.6701 5.93765 12.5063 5.99988 12.32L7.71988 7.00005H11.9999ZM8.99988 12.5C8.99988 12.7967 9.08785 13.0867 9.25267 13.3334C9.4175 13.5801 9.65176 13.7723 9.92585 13.8859C10.1999 13.9994 10.5015 14.0291 10.7925 13.9712C11.0835 13.9133 11.3508 13.7705 11.5605 13.5607C11.7703 13.3509 11.9132 13.0837 11.9711 12.7927C12.0289 12.5017 11.9992 12.2001 11.8857 11.926C11.7722 11.6519 11.5799 11.4177 11.3332 11.2528C11.0866 11.088 10.7965 11 10.4999 11C10.1021 11 9.72052 11.1581 9.43922 11.4394C9.15791 11.7207 8.99988 12.1022 8.99988 12.5ZM13.9999 15H6.99988C6.73466 15 6.48031 15.1054 6.29277 15.2929C6.10524 15.4805 5.99988 15.7348 5.99988 16C5.99988 16.2653 6.10524 16.5196 6.29277 16.7072C6.48031 16.8947 6.73466 17 6.99988 17H13.9999C14.2651 17 14.5194 16.8947 14.707 16.7072C14.8945 16.5196 14.9999 16.2653 14.9999 16C14.9999 15.7348 14.8945 15.4805 14.707 15.2929C14.5194 15.1054 14.2651 15 13.9999 15ZM10.4999 18C10.2032 18 9.9132 18.088 9.66652 18.2528C9.41985 18.4177 9.22759 18.6519 9.11406 18.926C9.00053 19.2001 8.97082 19.5017 9.0287 19.7927C9.08658 20.0837 9.22944 20.3509 9.43922 20.5607C9.649 20.7705 9.91627 20.9133 10.2072 20.9712C10.4982 21.0291 10.7998 20.9994 11.0739 20.8859C11.348 20.7723 11.5823 20.5801 11.7471 20.3334C11.9119 20.0867 11.9999 19.7967 11.9999 19.5C11.9999 19.1022 11.8418 18.7207 11.5605 18.4394C11.2792 18.1581 10.8977 18 10.4999 18ZM21.7099 9.29005C21.6164 9.19737 21.5056 9.12404 21.3838 9.07428C21.2619 9.02451 21.1315 8.99929 20.9999 9.00005H18.9999V7.00005C18.9999 6.73483 18.8945 6.48048 18.707 6.29294C18.5194 6.10541 18.2651 6.00005 17.9999 6.00005C17.7347 6.00005 17.4803 6.10541 17.2928 6.29294C17.1052 6.48048 16.9999 6.73483 16.9999 7.00005V9.00005H14.9999C14.7347 9.00005 14.4803 9.10541 14.2928 9.29294C14.1052 9.48048 13.9999 9.73483 13.9999 10C13.9999 10.2653 14.1052 10.5196 14.2928 10.7072C14.4803 10.8947 14.7347 11 14.9999 11H16.9999V13C16.9999 13.2653 17.1052 13.5196 17.2928 13.7072C17.4803 13.8947 17.7347 14 17.9999 14C18.2651 14 18.5194 13.8947 18.707 13.7072C18.8945 13.5196 18.9999 13.2653 18.9999 13V11H20.9999C21.1985 11.0012 21.393 10.9432 21.5585 10.8334C21.724 10.7236 21.8531 10.567 21.9292 10.3835C22.0054 10.2001 22.0252 9.99811 21.9862 9.80337C21.9471 9.60862 21.8509 9.42992 21.7099 9.29005Z" fill="#141414"/>
</svg>
