<svg width="24" height="24" viewBox="0 0 24 24" fill="none" xmlns="http://www.w3.org/2000/svg">
<path d="M10.9999 6.13L10.6099 6.37L13.3699 9.13C14.8462 9.70374 16.4161 9.99872 17.9999 10C18.2652 10 18.5195 9.89464 18.707 9.70711C18.8946 9.51957 18.9999 9.26522 18.9999 9C18.9999 8.73478 18.8946 8.48043 18.707 8.29289C18.5195 8.10536 18.2652 8 17.9999 8C15.9046 8.01798 13.8535 7.39708 12.1199 6.22C11.9638 6.09453 11.7735 6.01887 11.5738 6.00283C11.3741 5.98678 11.1742 6.03108 10.9999 6.13ZM11.4999 5C11.7966 5 12.0866 4.91203 12.3333 4.7472C12.58 4.58238 12.7722 4.34811 12.8858 4.07403C12.9993 3.79994 13.029 3.49834 12.9711 3.20737C12.9132 2.91639 12.7704 2.64912 12.5606 2.43934C12.3508 2.22956 12.0835 2.0867 11.7926 2.02882C11.5016 1.97094 11.2 2.00065 10.9259 2.11418C10.6518 2.22771 10.4176 2.41997 10.2527 2.66665C10.0879 2.91332 9.99994 3.20333 9.99994 3.5C9.99994 3.89783 10.158 4.27936 10.4393 4.56066C10.7206 4.84197 11.1021 5 11.4999 5ZM20.7099 19.29L4.70994 3.29C4.52164 3.1017 4.26624 2.99591 3.99994 2.99591C3.73364 2.99591 3.47824 3.1017 3.28994 3.29C3.10164 3.4783 2.99585 3.7337 2.99585 4C2.99585 4.2663 3.10164 4.5217 3.28994 4.71L7.41994 8.84C6.57324 9.62172 5.81837 10.4974 5.16994 11.45C5.02521 11.6705 4.97343 11.9392 5.02587 12.1976C5.07831 12.4561 5.23073 12.6834 5.44994 12.83C5.61098 12.9428 5.80334 13.0022 5.99994 13C6.16465 12.9991 6.32659 12.9576 6.47139 12.8791C6.61619 12.8006 6.73935 12.6876 6.82994 12.55C7.40792 11.7105 8.07883 10.9389 8.82994 10.25L10.4899 11.91V12.91C10.0199 16.44 5.40994 20.17 5.36994 20.21C5.16389 20.375 5.03144 20.6148 5.00147 20.877C4.97149 21.1393 5.04643 21.4028 5.20994 21.61C5.3031 21.731 5.42274 21.8291 5.55968 21.8967C5.69662 21.9643 5.84722 21.9996 5.99994 22C6.22551 21.9987 6.444 21.9212 6.61994 21.78C6.80994 21.63 10.4999 18.64 11.9499 15.07C13.3199 16.72 15.4399 19.47 16.0499 21.32C16.117 21.5186 16.2448 21.6911 16.4153 21.8132C16.5858 21.9352 16.7903 22.0005 16.9999 22C17.1083 21.9973 17.2159 21.9805 17.3199 21.95C17.4494 21.9135 17.5701 21.8512 17.6749 21.767C17.7798 21.6827 17.8665 21.5782 17.93 21.4596C17.9935 21.341 18.0324 21.2109 18.0444 21.0769C18.0564 20.943 18.0413 20.808 17.9999 20.68C17.6314 19.7387 17.162 18.8402 16.5999 18L19.2899 20.7C19.3829 20.7937 19.4935 20.8681 19.6154 20.9189C19.7372 20.9697 19.8679 20.9958 19.9999 20.9958C20.132 20.9958 20.2627 20.9697 20.3845 20.9189C20.5064 20.8681 20.617 20.7937 20.7099 20.7C20.8962 20.5126 21.0007 20.2592 21.0007 19.995C21.0007 19.7308 20.8962 19.4774 20.7099 19.29Z" fill="#141414"/>
</svg>
