<svg width="24" height="24" viewBox="0 0 24 24" fill="none" xmlns="http://www.w3.org/2000/svg">
<path d="M10 13C10 12.7348 9.89464 12.4804 9.70711 12.2929C9.51957 12.1053 9.26522 12 9 12V5.99999C9 5.73477 8.89464 5.48042 8.70711 5.29288C8.51957 5.10534 8.26522 4.99999 8 4.99999C7.73478 4.99999 7.48043 5.10534 7.29289 5.29288C7.10536 5.48042 7 5.73477 7 5.99999V12H6V9.99999C6 9.73477 5.89464 9.48042 5.70711 9.29288C5.51957 9.10534 5.26522 8.99999 5 8.99999C4.73478 8.99999 4.48043 9.10534 4.29289 9.29288C4.10536 9.48042 4 9.73477 4 9.99999V12C3.73478 12 3.48043 12.1053 3.29289 12.2929C3.10536 12.4804 3 12.7348 3 13C3 13.2652 3.10536 13.5196 3.29289 13.7071C3.48043 13.8946 3.73478 14 4 14H9C9.26522 14 9.51957 13.8946 9.70711 13.7071C9.89464 13.5196 10 13.2652 10 13ZM20.71 4.28999L19.71 3.28999C19.5391 3.1311 19.3179 3.03701 19.0849 3.02401C18.8519 3.01102 18.6217 3.07993 18.4341 3.21881C18.2465 3.3577 18.1135 3.55781 18.0579 3.78449C18.0024 4.01117 18.0279 4.25013 18.13 4.45999L16.37 6.20999C15.99 5.98618 15.5467 5.89425 15.109 5.94851C14.6713 6.00276 14.2639 6.20016 13.95 6.50999L10.23 10.23C10.1363 10.3229 10.0619 10.4336 10.0111 10.5554C9.96034 10.6773 9.9342 10.808 9.9342 10.94C9.9342 11.072 9.96034 11.2027 10.0111 11.3246C10.0619 11.4464 10.1363 11.557 10.23 11.65L12.35 13.77C12.443 13.8637 12.5536 13.9381 12.6754 13.9889C12.7973 14.0396 12.928 14.0658 13.06 14.0658C13.192 14.0658 13.3227 14.0396 13.4446 13.9889C13.5664 13.9381 13.677 13.8637 13.77 13.77L15.48 12.06C15.9237 12.8817 16.066 13.8329 15.882 14.7485C15.698 15.6641 15.1995 16.4865 14.4728 17.0731C13.7461 17.6597 12.837 17.9735 11.9032 17.9602C10.9694 17.9468 10.0696 17.6071 9.36 17H10C10.2652 17 10.5196 16.8946 10.7071 16.7071C10.8946 16.5196 11 16.2652 11 16C11 15.7348 10.8946 15.4804 10.7071 15.2929C10.5196 15.1053 10.2652 15 10 15H6C5.73478 15 5.48043 15.1053 5.29289 15.2929C5.10536 15.4804 5 15.7348 5 16C5 16.2652 5.10536 16.5196 5.29289 16.7071C5.48043 16.8946 5.73478 17 6 17H6.82C7.28086 17.8019 7.92085 18.4864 8.69 19H7.5C7.23478 19 6.98043 19.1053 6.79289 19.2929C6.60536 19.4804 6.5 19.7348 6.5 20C6.5 20.2652 6.60536 20.5196 6.79289 20.7071C6.98043 20.8946 7.23478 21 7.5 21H16.5C16.7652 21 17.0196 20.8946 17.2071 20.7071C17.3946 20.5196 17.5 20.2652 17.5 20C17.5 19.7348 17.3946 19.4804 17.2071 19.2929C17.0196 19.1053 16.7652 19 16.5 19H15.31C16.1363 18.4534 16.8145 17.7108 17.2838 16.8383C17.7532 15.9658 17.9993 14.9907 18 14C17.9997 12.787 17.6261 11.6034 16.93 10.61L17.49 10.05C17.7998 9.73613 17.9972 9.32867 18.0515 8.891C18.1057 8.45333 18.0138 8.01 17.79 7.62999L19.54 5.86999C19.6806 5.94987 19.8384 5.99448 20 5.99999C20.1316 6.00075 20.2621 5.97552 20.3839 5.92576C20.5057 5.87599 20.6166 5.80267 20.71 5.70999C20.8037 5.61702 20.8781 5.50642 20.9289 5.38456C20.9797 5.2627 21.0058 5.132 21.0058 4.99999C21.0058 4.86797 20.9797 4.73727 20.9289 4.61541C20.8781 4.49355 20.8037 4.38295 20.71 4.28999Z" fill="#141414"/>
</svg>
