<svg width="24" height="24" viewBox="0 0 24 24" fill="none" xmlns="http://www.w3.org/2000/svg">
<path d="M17 2H7C6.20435 2 5.44129 2.31607 4.87868 2.87868C4.31607 3.44129 4 4.20435 4 5V19C4 19.7956 4.31607 20.5587 4.87868 21.1213C5.44129 21.6839 6.20435 22 7 22H17C17.7956 22 18.5587 21.6839 19.1213 21.1213C19.6839 20.5587 20 19.7956 20 19V5C20 4.20435 19.6839 3.44129 19.1213 2.87868C18.5587 2.31607 17.7956 2 17 2ZM14 18H10C9.73478 18 9.48043 17.8946 9.29289 17.7071C9.10536 17.5196 9 17.2652 9 17C9 16.7348 9.10536 16.4804 9.29289 16.2929C9.48043 16.1054 9.73478 16 10 16H14C14.2652 16 14.5196 16.1054 14.7071 16.2929C14.8946 16.4804 15 16.7348 15 17C15 17.2652 14.8946 17.5196 14.7071 17.7071C14.5196 17.8946 14.2652 18 14 18ZM15 12V13C15 13.2652 14.8946 13.5196 14.7071 13.7071C14.5196 13.8946 14.2652 14 14 14H10C9.73478 14 9.48043 13.8946 9.29289 13.7071C9.10536 13.5196 9 13.2652 9 13V12C8.46957 12 7.96086 11.7893 7.58579 11.4142C7.21071 11.0391 7 10.5304 7 10C7 9.46957 7.21071 8.96086 7.58579 8.58579C7.96086 8.21071 8.46957 8 9 8H9.18C9.3902 7.42085 9.77363 6.92046 10.2782 6.56684C10.7827 6.21322 11.3839 6.02352 12 6.02352C12.6161 6.02352 13.2173 6.21322 13.7218 6.56684C14.2264 6.92046 14.6098 7.42085 14.82 8H15C15.5304 8 16.0391 8.21071 16.4142 8.58579C16.7893 8.96086 17 9.46957 17 10C17 10.5304 16.7893 11.0391 16.4142 11.4142C16.0391 11.7893 15.5304 12 15 12Z" fill="#141414"/>
</svg>
