<svg width="24" height="24" viewBox="0 0 24 24" fill="none" xmlns="http://www.w3.org/2000/svg">
<path d="M6.67 8.04995C8.13631 6.73992 10.0337 6.01578 12 6.01578C13.9663 6.01578 15.8637 6.73992 17.33 8.04995C17.5149 8.21302 17.7535 8.30205 18 8.29995C18.1373 8.30346 18.2739 8.27863 18.4012 8.22702C18.5286 8.1754 18.6439 8.0981 18.74 7.99995C18.9173 7.80348 19.0094 7.54477 18.9963 7.28049C18.9832 7.0162 18.8658 6.76789 18.67 6.58995C16.8362 4.94825 14.4613 4.04053 12 4.04053C9.53868 4.04053 7.16382 4.94825 5.33 6.58995C5.17551 6.77603 5.09369 7.01178 5.0997 7.25355C5.1057 7.49533 5.19912 7.72673 5.36266 7.90491C5.52619 8.08309 5.74875 8.19596 5.98912 8.22263C6.2295 8.2493 6.47139 8.18795 6.67 8.04995ZM8.39 9.22995C8.17915 9.39173 8.04121 9.63065 8.00651 9.89414C7.97182 10.1576 8.04322 10.4241 8.205 10.635C8.36678 10.8458 8.6057 10.9837 8.86919 11.0184C9.13267 11.0531 9.39915 10.9817 9.61 10.82C10.3006 10.3054 11.1388 10.0274 12 10.0274C12.8612 10.0274 13.6994 10.3054 14.39 10.82C14.6008 10.9817 14.8673 11.0531 15.1308 11.0184C15.3943 10.9837 15.6332 10.8458 15.795 10.635C15.9568 10.4241 16.0282 10.1576 15.9935 9.89414C15.9588 9.63065 15.8208 9.39173 15.61 9.22995C14.5696 8.44628 13.3025 8.02243 12 8.02243C10.6975 8.02243 9.43037 8.44628 8.39 9.22995ZM21.12 12.88C20.5579 12.3172 19.7954 12.0007 19 12H5C4.20435 12 3.44129 12.316 2.87868 12.8786C2.31607 13.4412 2 14.2043 2 15V17C2 17.7956 2.31607 18.5587 2.87868 19.1213C3.44129 19.6839 4.20435 20 5 20H19C19.7956 20 20.5587 19.6839 21.1213 19.1213C21.6839 18.5587 22 17.7956 22 17V15C21.9993 14.2046 21.6828 13.442 21.12 12.88ZM6.71 16.7099C6.54541 16.8747 6.32847 16.9768 6.09662 16.9988C5.86477 17.0207 5.63254 16.961 5.44 16.83C5.27585 16.7213 5.14993 16.5639 5.08 16.3799C4.99607 16.1989 4.9682 15.9969 5 15.8C5.03698 15.6014 5.13319 15.4187 5.27599 15.2759C5.41879 15.1331 5.60147 15.0369 5.8 15C5.995 14.9619 6.19692 14.9828 6.38 15.06C6.56399 15.1299 6.72139 15.2558 6.83 15.42C6.96101 15.6125 7.02071 15.8447 6.9988 16.0766C6.97689 16.3084 6.87475 16.5254 6.71 16.69V16.7099ZM10 17C9.80222 17 9.60888 16.9413 9.44443 16.8314C9.27998 16.7215 9.15181 16.5654 9.07612 16.3826C9.00043 16.1999 8.98063 15.9988 9.01921 15.8049C9.0578 15.6109 9.15304 15.4327 9.29289 15.2928C9.43275 15.153 9.61093 15.0578 9.80491 15.0192C9.99889 14.9806 10.2 15.0004 10.3827 15.0761C10.5654 15.1518 10.7216 15.2799 10.8315 15.4444C10.9414 15.6088 11 15.8022 11 16C11 16.2652 10.8946 16.5195 10.7071 16.7071C10.5196 16.8946 10.2652 17 10 17Z" fill="#141414"/>
</svg>
