<svg width="24" height="24" viewBox="0 0 24 24" fill="none" xmlns="http://www.w3.org/2000/svg">
<path d="M17.5 5.50008C17.7652 5.50008 18.0196 5.60544 18.2071 5.79297C18.3946 5.98051 18.5 6.23486 18.5 6.50008C18.5 6.63269 18.5527 6.75987 18.6464 6.85363C18.7402 6.9474 18.8674 7.00008 19 7.00008C19.1326 7.00008 19.2598 6.9474 19.3536 6.85363C19.4473 6.75987 19.5 6.63269 19.5 6.50008C19.5 6.23486 19.6054 5.98051 19.7929 5.79297C19.9804 5.60544 20.2348 5.50008 20.5 5.50008C20.5979 5.49871 20.6932 5.46864 20.7741 5.41361C20.855 5.35858 20.9181 5.28101 20.9553 5.1905C20.9926 5.1 21.0025 5.00056 20.9837 4.90449C20.965 4.80843 20.9185 4.71997 20.85 4.65008C20.8054 4.60204 20.7512 4.56388 20.6909 4.53805C20.6306 4.51221 20.5656 4.49928 20.5 4.50008C20.2348 4.50008 19.9804 4.39472 19.7929 4.20719C19.6054 4.01965 19.5 3.7653 19.5 3.50008C19.5 3.36747 19.4473 3.2403 19.3536 3.14653C19.2598 3.05276 19.1326 3.00008 19 3.00008C18.8674 3.00008 18.7402 3.05276 18.6464 3.14653C18.5527 3.2403 18.5 3.36747 18.5 3.50008C18.5 3.7653 18.3946 4.01965 18.2071 4.20719C18.0196 4.39472 17.7652 4.50008 17.5 4.50008C17.4021 4.50146 17.3068 4.53152 17.2259 4.58655C17.145 4.64158 17.0819 4.71916 17.0447 4.80966C17.0074 4.90016 16.9975 4.9996 17.0163 5.09567C17.035 5.19174 17.0815 5.28019 17.15 5.35008C17.1946 5.39812 17.2489 5.43628 17.3091 5.46211C17.3694 5.48795 17.4344 5.50088 17.5 5.50008ZM8.5 18.5001C8.23478 18.5001 7.98043 18.3947 7.79289 18.2072C7.60536 18.0197 7.5 17.7653 7.5 17.5001C7.5 17.3675 7.44732 17.2403 7.35355 17.1465C7.25979 17.0528 7.13261 17.0001 7 17.0001C6.86739 17.0001 6.74022 17.0528 6.64645 17.1465C6.55268 17.2403 6.5 17.3675 6.5 17.5001C6.5 17.7653 6.39464 18.0197 6.20711 18.2072C6.01957 18.3947 5.76522 18.5001 5.5 18.5001C5.36739 18.5001 5.24022 18.5528 5.14645 18.6465C5.05268 18.7403 5 18.8675 5 19.0001C5 19.1327 5.05268 19.2599 5.14645 19.3536C5.24022 19.4474 5.36739 19.5001 5.5 19.5001C5.76522 19.5001 6.01957 19.6054 6.20711 19.793C6.39464 19.9805 6.5 20.2349 6.5 20.5001C6.5 20.6327 6.55268 20.7599 6.64645 20.8536C6.74022 20.9474 6.86739 21.0001 7 21.0001C7.13261 21.0001 7.25979 20.9474 7.35355 20.8536C7.44732 20.7599 7.5 20.6327 7.5 20.5001C7.5 20.2349 7.60536 19.9805 7.79289 19.793C7.98043 19.6054 8.23478 19.5001 8.5 19.5001C8.63261 19.5001 8.75979 19.4474 8.85355 19.3536C8.94732 19.2599 9 19.1327 9 19.0001C9 18.8675 8.94732 18.7403 8.85355 18.6465C8.75979 18.5528 8.63261 18.5001 8.5 18.5001ZM20.58 10.1801C20.4503 10.0916 20.304 10.0304 20.15 10.0001C19.9953 9.96491 19.8347 9.96491 19.68 10.0001L16.68 11.0001C16.4819 11.069 16.3105 11.1984 16.19 11.3701C16.0528 11.5503 15.9854 11.774 16 12.0001V17.0001C15.7387 17.0274 15.4846 17.102 15.25 17.2201C15.0128 17.3406 14.802 17.5071 14.63 17.7101C14.4636 17.9105 14.3379 18.1415 14.26 18.3901C14.181 18.6421 14.1505 18.9067 14.17 19.1701C14.1877 19.4363 14.2627 19.6956 14.39 19.9301C14.5086 20.1628 14.6717 20.37 14.87 20.5401C15.0744 20.7085 15.3084 20.8374 15.56 20.9201C15.8115 21.0013 16.0773 21.0285 16.34 21.0001C16.8253 20.9092 17.2598 20.6421 17.56 20.2501C17.865 19.8603 18.021 19.3745 18 18.8801V13.7101L20.32 13.0001C20.5268 12.9323 20.7059 12.7989 20.83 12.6201C20.9534 12.4378 21.0131 12.2198 21 12.0001V11.0001C20.9991 10.8435 20.9614 10.6894 20.89 10.5501C20.8159 10.4049 20.7099 10.2784 20.58 10.1801ZM13.58 3.18008C13.4621 3.08041 13.3212 3.01167 13.17 2.98008C13.0193 2.94023 12.8607 2.94023 12.71 2.98008L5.71 4.98008C5.49359 5.03934 5.30339 5.16966 5.17 5.35008C5.04007 5.54066 4.98001 5.77029 5 6.00008V11.0001C4.60444 11.0001 4.21776 11.1174 3.88886 11.3371C3.55996 11.5569 3.30362 11.8693 3.15224 12.2347C3.00087 12.6002 2.96126 13.0023 3.03843 13.3903C3.1156 13.7782 3.30608 14.1346 3.58579 14.4143C3.86549 14.694 4.22186 14.8845 4.60982 14.9617C4.99778 15.0388 5.39992 14.9992 5.76537 14.8478C6.13082 14.6965 6.44318 14.4401 6.66294 14.1112C6.8827 13.7823 7 13.3956 7 13.0001V7.75008L12 6.33008V10.0001C11.6044 10.0001 11.2178 10.1174 10.8889 10.3371C10.56 10.5569 10.3036 10.8693 10.1522 11.2347C10.0009 11.6002 9.96126 12.0023 10.0384 12.3903C10.1156 12.7782 10.3061 13.1346 10.5858 13.4143C10.8655 13.694 11.2219 13.8845 11.6098 13.9617C11.9978 14.0388 12.3999 13.9992 12.7654 13.8478C13.1308 13.6965 13.4432 13.4401 13.6629 13.1112C13.8827 12.7823 14 12.3956 14 12.0001V4.00008C13.9991 3.84354 13.9614 3.6894 13.89 3.55008C13.8249 3.41052 13.725 3.29001 13.6 3.20008L13.58 3.18008Z" fill="#141414"/>
</svg>
