<svg width="24" height="24" viewBox="0 0 24 24" fill="none" xmlns="http://www.w3.org/2000/svg">
<path d="M19.83 13.1298L18.6 7.59981C18.7273 8.00452 18.9799 8.35827 19.3215 8.60994C19.663 8.8616 20.0758 8.99814 20.5 8.99981C20.6326 8.99981 20.7598 8.94713 20.8536 8.85336C20.9473 8.7596 21 8.63242 21 8.49981V5.49981C21 5.3672 20.9473 5.24003 20.8536 5.14626C20.7598 5.05249 20.6326 4.99981 20.5 4.99981C19.9696 4.99981 19.4609 5.21052 19.0858 5.5856C18.7107 5.96067 18.5 6.46938 18.5 6.99981C18.4902 7.0862 18.4902 7.17342 18.5 7.25981L18 4.77981C17.9492 4.55423 17.8218 4.35322 17.6395 4.21101C17.4571 4.0688 17.2312 3.99416 17 3.99981H15C14.7348 3.99981 14.4804 4.10517 14.2929 4.2927C14.1054 4.48024 14 4.73459 14 4.99981C14 5.26503 14.1054 5.51938 14.2929 5.70692C14.4804 5.89445 14.7348 5.99981 15 5.99981H16.2L16.57 7.69981C15.9758 7.24506 15.2482 6.99902 14.5 6.99981H12.5C11.8398 7.00213 11.1936 7.19115 10.6363 7.54504C10.0789 7.89894 9.63296 8.40327 9.35 8.99981H4C3.46957 8.99981 2.96086 9.21052 2.58579 9.5856C2.21071 9.96067 2 10.4694 2 10.9998C2 11.5302 2.21071 12.039 2.58579 12.414C2.96086 12.7891 3.46957 12.9998 4 12.9998H5C4.44965 12.9983 3.90948 13.1481 3.4386 13.433C2.96773 13.7179 2.5843 14.1269 2.33027 14.6151C2.07624 15.1033 1.96141 15.652 1.99834 16.2011C2.03527 16.7502 2.22254 17.2786 2.53966 17.7284C2.85677 18.1782 3.29151 18.5321 3.79629 18.7514C4.30108 18.9707 4.85645 19.0469 5.40164 18.9716C5.94683 18.8964 6.46082 18.6727 6.88736 18.3249C7.3139 17.9771 7.63655 17.5187 7.82 16.9998H13.17C13.9654 16.9991 14.7279 16.6826 15.29 16.1198L16.08 15.3298C15.9463 15.9013 15.9832 16.4995 16.1862 17.0502C16.3891 17.601 16.7491 18.0801 17.2216 18.4283C17.6942 18.7764 18.2584 18.9783 18.8446 19.009C19.4307 19.0396 20.013 18.8976 20.5192 18.6006C21.0255 18.3036 21.4335 17.8646 21.6927 17.3381C21.9519 16.8115 22.051 16.2204 21.9776 15.6381C21.9043 15.0557 21.6617 14.5077 21.28 14.0619C20.8982 13.616 20.3941 13.292 19.83 13.1298ZM5 16.9998C4.80222 16.9998 4.60888 16.9412 4.44443 16.8313C4.27998 16.7214 4.15181 16.5652 4.07612 16.3825C4.00043 16.1998 3.98063 15.9987 4.01922 15.8047C4.0578 15.6107 4.15304 15.4326 4.29289 15.2927C4.43275 15.1529 4.61093 15.0576 4.80491 15.019C4.99889 14.9804 5.19996 15.0002 5.38268 15.0759C5.56541 15.1516 5.72159 15.2798 5.83147 15.4442C5.94135 15.6087 6 15.802 6 15.9998C6 16.265 5.89464 16.5194 5.70711 16.7069C5.51957 16.8945 5.26522 16.9998 5 16.9998ZM19 16.9998C18.8022 16.9998 18.6089 16.9412 18.4444 16.8313C18.28 16.7214 18.1518 16.5652 18.0761 16.3825C18.0004 16.1998 17.9806 15.9987 18.0192 15.8047C18.0578 15.6107 18.153 15.4326 18.2929 15.2927C18.4327 15.1529 18.6109 15.0576 18.8049 15.019C18.9989 14.9804 19.2 15.0002 19.3827 15.0759C19.5654 15.1516 19.7216 15.2798 19.8315 15.4442C19.9414 15.6087 20 15.802 20 15.9998C20 16.265 19.8946 16.5194 19.7071 16.7069C19.5196 16.8945 19.2652 16.9998 19 16.9998Z" fill="#141414"/>
</svg>
