<svg width="24" height="24" viewBox="0 0 24 24" fill="none" xmlns="http://www.w3.org/2000/svg">
<path d="M19.89 9.67994C19.5897 7.89718 18.6944 6.2687 17.35 5.05994L18.71 3.70994C18.8983 3.52164 19.0041 3.26624 19.0041 2.99994C19.0041 2.73364 18.8983 2.47824 18.71 2.28994C18.5217 2.10164 18.2663 1.99585 18 1.99585C17.7337 1.99585 17.4783 2.10164 17.29 2.28994L15.68 3.89994C14.5428 3.31079 13.2808 3.00329 12 3.00329C10.7193 3.00329 9.45723 3.31079 8.32002 3.89994L6.71002 2.28994C6.61582 2.19531 6.50361 2.12051 6.38002 2.06994C6.13523 1.97694 5.86482 1.97694 5.62002 2.06994C5.49644 2.12051 5.38423 2.19531 5.29002 2.28994C5.14959 2.42945 5.05371 2.6075 5.01455 2.80154C4.97539 2.99558 4.99469 3.19688 5.07003 3.37994C5.12059 3.50353 5.19539 3.61573 5.29002 3.70994L6.65002 5.05994C5.30796 6.26874 4.41444 7.89612 4.11485 9.6773C3.81527 11.4585 4.12725 13.2886 5.00002 14.8699V18.9999C4.99887 19.1986 5.05689 19.393 5.16669 19.5586C5.27649 19.7241 5.4331 19.8531 5.61654 19.9293C5.79999 20.0055 6.00196 20.0253 6.19671 19.9862C6.39145 19.9472 6.57015 19.851 6.71002 19.7099C6.80271 19.6165 6.87603 19.5057 6.9258 19.3838C6.97556 19.262 7.00079 19.1315 7.00002 18.9999V17.2399C7.60548 17.7262 8.27941 18.1205 9.00002 18.4099V20.9999C9.00002 21.2652 9.10538 21.5195 9.29292 21.707C9.48045 21.8946 9.73481 21.9999 10 21.9999C10.2652 21.9999 10.5196 21.8946 10.7071 21.707C10.8947 21.5195 11 21.2652 11 20.9999V18.9299C11.3317 18.9732 11.6656 18.9965 12 18.9999C12.3345 18.9965 12.6684 18.9732 13 18.9299V20.9999C13 21.2652 13.1054 21.5195 13.2929 21.707C13.4805 21.8946 13.7348 21.9999 14 21.9999C14.2652 21.9999 14.5196 21.8946 14.7071 21.707C14.8947 21.5195 15 21.2652 15 20.9999V18.4099C15.7206 18.1205 16.3946 17.7262 17 17.2399V18.9999C17 19.2652 17.1054 19.5195 17.2929 19.707C17.4805 19.8946 17.7348 19.9999 18 19.9999C18.2652 19.9999 18.5196 19.8946 18.7071 19.707C18.8947 19.5195 19 19.2652 19 18.9999V14.8699C19.8686 13.2881 20.182 11.4608 19.89 9.67994ZM7.29002 10.6799C7.12527 10.5153 7.02313 10.2984 7.00122 10.0666C6.97932 9.83471 7.03902 9.60248 7.17002 9.40994C7.27863 9.24579 7.43603 9.11987 7.62002 9.04994C7.80412 8.97612 8.00601 8.95872 8.20002 8.99994C8.39856 9.03692 8.58124 9.13313 8.72404 9.27593C8.86683 9.41873 8.96305 9.60141 9.00002 9.79994C9.03809 9.99494 9.0172 10.1969 8.94002 10.3799C8.8701 10.5639 8.74418 10.7213 8.58002 10.8299C8.38748 10.9609 8.15526 11.0206 7.92341 10.9987C7.69155 10.9768 7.47462 10.8747 7.31002 10.7099L7.29002 10.6799ZM15.59 14.2099C15.541 14.4075 15.4329 14.5855 15.28 14.7199C14.377 15.5247 13.2096 15.9694 12 15.9694C10.7904 15.9694 9.62306 15.5247 8.72003 14.7199C8.56719 14.5855 8.45904 14.4075 8.41002 14.2099C8.35526 14.0171 8.35526 13.8128 8.41002 13.6199C8.47984 13.4305 8.60534 13.2667 8.77003 13.1499C8.95197 13.0357 9.16586 12.9831 9.38002 12.9999H14.62C14.8239 13.0004 15.0228 13.0632 15.19 13.1799C15.3547 13.2967 15.4802 13.4605 15.55 13.6499C15.618 13.8391 15.6318 14.0434 15.59 14.2399V14.2099ZM16.71 10.6799C16.5454 10.8447 16.3285 10.9468 16.0966 10.9687C15.8648 10.9907 15.6326 10.931 15.44 10.7999C15.2759 10.6913 15.15 10.5339 15.08 10.3499C15.0019 10.1779 14.9742 9.98715 15 9.79994C15.037 9.60141 15.1332 9.41873 15.276 9.27593C15.4188 9.13313 15.6015 9.03692 15.8 8.99994C15.995 8.96188 16.1969 8.98277 16.38 9.05994C16.564 9.12987 16.7214 9.25579 16.83 9.41994C16.961 9.61248 17.0207 9.84471 16.9988 10.0766C16.9769 10.3084 16.8748 10.5253 16.71 10.6899V10.6799Z" fill="#141414"/>
</svg>
