<svg width="24" height="24" viewBox="0 0 24 24" fill="none" xmlns="http://www.w3.org/2000/svg">
<path d="M16 2H10.24C9.44462 2.0007 8.68207 2.31723 8.12 2.88L5.88 5.12C5.31723 5.68207 5.0007 6.44462 5 7.24V19C5 19.7956 5.31607 20.5587 5.87868 21.1213C6.44129 21.6839 7.20435 22 8 22H16C16.7956 22 17.5587 21.6839 18.1213 21.1213C18.6839 20.5587 19 19.7956 19 19V5C19 4.20435 18.6839 3.44129 18.1213 2.87868C17.5587 2.31607 16.7956 2 16 2ZM13 7C13 7.26522 12.8946 7.51957 12.7071 7.70711C12.5196 7.89464 12.2652 8 12 8C11.7348 8 11.4804 7.89464 11.2929 7.70711C11.1054 7.51957 11 7.26522 11 7V5C11 4.73478 11.1054 4.48043 11.2929 4.29289C11.4804 4.10536 11.7348 4 12 4C12.2652 4 12.5196 4.10536 12.7071 4.29289C12.8946 4.48043 13 4.73478 13 5V7ZM17 7C17 7.26522 16.8946 7.51957 16.7071 7.70711C16.5196 7.89464 16.2652 8 16 8C15.7348 8 15.4804 7.89464 15.2929 7.70711C15.1054 7.51957 15 7.26522 15 7V5C15 4.73478 15.1054 4.48043 15.2929 4.29289C15.4804 4.10536 15.7348 4 16 4C16.2652 4 16.5196 4.10536 16.7071 4.29289C16.8946 4.48043 17 4.73478 17 5V7Z" fill="#141414"/>
</svg>
