<svg width="24" height="24" viewBox="0 0 24 24" fill="none" xmlns="http://www.w3.org/2000/svg">
<path d="M12 10C12.2084 9.99865 12.4112 9.93223 12.58 9.81L19.58 4.81C19.6993 4.73936 19.8026 4.64469 19.8833 4.53201C19.964 4.41933 20.0205 4.29109 20.049 4.15544C20.0775 4.01978 20.0776 3.87968 20.0491 3.74402C20.0206 3.60836 19.9642 3.4801 19.8835 3.36739C19.8028 3.25469 19.6995 3.15999 19.5803 3.08931C19.461 3.01864 19.3284 2.97353 19.1907 2.95685C19.0531 2.94017 18.9136 2.95228 18.7809 2.99242C18.6482 3.03255 18.5253 3.09984 18.42 3.19L11.42 8.19C11.2493 8.3136 11.122 8.48799 11.0562 8.68826C10.9905 8.88854 10.9898 9.10445 11.0541 9.30518C11.1184 9.5059 11.2445 9.68117 11.4144 9.80595C11.5843 9.93074 11.7892 9.99865 12 10ZM19 11H5C4.73478 11 4.48043 11.1054 4.29289 11.2929C4.10536 11.4804 4 11.7348 4 12C4 12.2652 4.10536 12.5196 4.29289 12.7071C4.48043 12.8946 4.73478 13 5 13H19C19.2652 13 19.5196 12.8946 19.7071 12.7071C19.8946 12.5196 20 12.2652 20 12C20 11.7348 19.8946 11.4804 19.7071 11.2929C19.5196 11.1054 19.2652 11 19 11ZM8 9C8.19778 9 8.39112 8.94135 8.55557 8.83147C8.72002 8.72159 8.84819 8.56541 8.92388 8.38268C8.99957 8.19996 9.01937 7.99889 8.98079 7.80491C8.9422 7.61093 8.84696 7.43275 8.70711 7.29289C8.56725 7.15304 8.38907 7.0578 8.19509 7.01922C8.00111 6.98063 7.80004 7.00043 7.61732 7.07612C7.43459 7.15181 7.27841 7.27998 7.16853 7.44443C7.05865 7.60888 7 7.80222 7 8C7 8.26522 7.10536 8.51957 7.29289 8.70711C7.48043 8.89464 7.73478 9 8 9ZM6 20C6 20.5304 6.21071 21.0391 6.58579 21.4142C6.96086 21.7893 7.46957 22 8 22H16C16.5304 22 17.0391 21.7893 17.4142 21.4142C17.7893 21.0391 18 20.5304 18 20V15H6V20ZM5.5 5C5.79667 5 6.08668 4.91203 6.33336 4.7472C6.58003 4.58238 6.77229 4.34811 6.88582 4.07403C6.99935 3.79994 7.02906 3.49834 6.97118 3.20737C6.9133 2.91639 6.77044 2.64912 6.56066 2.43934C6.35088 2.22956 6.08361 2.0867 5.79264 2.02882C5.50166 1.97094 5.20006 2.00065 4.92597 2.11418C4.65189 2.22771 4.41762 2.41997 4.2528 2.66665C4.08797 2.91332 4 3.20333 4 3.5C4 3.89783 4.15804 4.27936 4.43934 4.56066C4.72064 4.84197 5.10218 5 5.5 5Z" fill="#141414"/>
</svg>
