<svg width="24" height="24" viewBox="0 0 24 24" fill="none" xmlns="http://www.w3.org/2000/svg">
<path d="M19 11C17.6739 11 16.4021 10.4732 15.4645 9.53555C14.5268 8.59787 14 7.3261 14 6.00002C14.0026 5.66432 14.0361 5.32958 14.1 5.00002H5C4.20435 5.00002 3.44129 5.31609 2.87868 5.8787C2.31607 6.44131 2 7.20437 2 8.00002V16C2 16.7957 2.31607 17.5587 2.87868 18.1213C3.44129 18.6839 4.20435 19 5 19H19C19.7956 19 20.5587 18.6839 21.1213 18.1213C21.6839 17.5587 22 16.7957 22 16V10C21.1345 10.6491 20.0819 11 19 11ZM11 11C11 11.4465 10.9004 11.8874 10.7084 12.2905C10.5163 12.6936 10.2367 13.0487 9.89 13.33L11.45 14.11C11.6855 14.2299 11.864 14.4381 11.9465 14.6892C12.0289 14.9403 12.0086 15.2138 11.89 15.45C11.8069 15.6149 11.6798 15.7536 11.5227 15.8507C11.3656 15.9478 11.1847 15.9995 11 16C10.8431 16.0019 10.6883 15.9641 10.55 15.89L6.55 13.89C6.3507 13.7879 6.19144 13.6219 6.09772 13.4185C6.004 13.2152 5.98125 12.9862 6.03312 12.7684C6.08499 12.5505 6.20846 12.3564 6.38377 12.2171C6.55908 12.0778 6.77608 12.0013 7 12H8C8.26522 12 8.51957 11.8947 8.70711 11.7071C8.89464 11.5196 9 11.2652 9 11C9 10.7348 8.89464 10.4804 8.70711 10.2929C8.51957 10.1054 8.26522 10 8 10H6C5.73478 10 5.48043 9.89466 5.29289 9.70712C5.10536 9.51959 5 9.26523 5 9.00002C5 8.7348 5.10536 8.48045 5.29289 8.29291C5.48043 8.10537 5.73478 8.00002 6 8.00002H11C11.2652 8.00002 11.5196 8.10537 11.7071 8.29291C11.8946 8.48045 12 8.7348 12 9.00002C12 9.26523 11.8946 9.51959 11.7071 9.70712C11.5196 9.89466 11.2652 10 11 10H10.82C10.9364 10.3207 10.9973 10.6589 11 11ZM16.29 6.71002L18.29 8.71002C18.4783 8.89832 18.7337 9.00411 19 9.00411C19.2663 9.00411 19.5217 8.89832 19.71 8.71002C19.8983 8.52171 20.0041 8.26632 20.0041 8.00002C20.0041 7.73372 19.8983 7.47832 19.71 7.29002L19.41 7.00002H21C21.2652 7.00002 21.5196 6.89466 21.7071 6.70712C21.8946 6.51959 22 6.26523 22 6.00002C22 5.7348 21.8946 5.48045 21.7071 5.29291C21.5196 5.10537 21.2652 5.00002 21 5.00002H19.41L19.71 4.71002C19.8037 4.61705 19.8781 4.50645 19.9289 4.38459C19.9797 4.26273 20.0058 4.13203 20.0058 4.00002C20.0058 3.868 19.9797 3.7373 19.9289 3.61544C19.8781 3.49358 19.8037 3.38298 19.71 3.29002C19.6166 3.19734 19.5057 3.12401 19.3839 3.07425C19.2621 3.02448 19.1316 2.99926 19 3.00002C18.8684 2.99926 18.7379 3.02448 18.6161 3.07425C18.4943 3.12401 18.3834 3.19734 18.29 3.29002L16.29 5.29002C16.199 5.38512 16.1276 5.49727 16.08 5.62002C16.0259 5.73939 15.9979 5.86894 15.9979 6.00002C15.9979 6.13109 16.0259 6.26065 16.08 6.38002C16.1276 6.50277 16.199 6.61491 16.29 6.71002Z" fill="#141414"/>
</svg>
