<svg width="24" height="24" viewBox="0 0 24 24" fill="none" xmlns="http://www.w3.org/2000/svg">
<path d="M2 9L2 15C2 15.7956 2.31607 16.5587 2.87868 17.1213C3.44129 17.6839 4.20435 18 5 18L19 18C19.7956 18 20.5587 17.6839 21.1213 17.1213C21.6839 16.5587 22 15.7956 22 15L22 9C22 8.20435 21.6839 7.44129 21.1213 6.87868C20.5587 6.31607 19.7956 6 19 6L5 6C4.20435 6 3.44129 6.31607 2.87868 6.87868C2.31607 7.44129 2 8.20435 2 9ZM20 12C20 12.2472 19.9267 12.4889 19.7893 12.6945C19.652 12.9 19.4568 13.0602 19.2284 13.1548C18.9999 13.2495 18.7486 13.2742 18.5061 13.226C18.2637 13.1777 18.0409 13.0587 17.8661 12.8839C17.6913 12.7091 17.5723 12.4863 17.524 12.2439C17.4758 12.0014 17.5005 11.7501 17.5951 11.5216C17.6898 11.2932 17.85 11.098 18.0555 10.9607C18.2611 10.8233 18.5028 10.75 18.75 10.75C19.0815 10.75 19.3995 10.8817 19.6339 11.1161C19.8683 11.3505 20 11.6685 20 12Z" fill="#141414"/>
</svg>
