<svg width="24" height="24" viewBox="0 0 24 24" fill="none" xmlns="http://www.w3.org/2000/svg">
<path d="M3.99998 7H4.99998V8C4.99998 8.26522 5.10533 8.51957 5.29287 8.70711C5.48041 8.89464 5.73476 9 5.99998 9C6.26519 9 6.51955 8.89464 6.70708 8.70711C6.89462 8.51957 6.99998 8.26522 6.99998 8V7H7.99998C8.26519 7 8.51955 6.89464 8.70708 6.70711C8.89462 6.51957 8.99998 6.26522 8.99998 6C8.99998 5.73478 8.89462 5.48043 8.70708 5.29289C8.51955 5.10536 8.26519 5 7.99998 5H6.99998V4C6.99998 3.73478 6.89462 3.48043 6.70708 3.29289C6.51955 3.10536 6.26519 3 5.99998 3C5.73476 3 5.48041 3.10536 5.29287 3.29289C5.10533 3.48043 4.99998 3.73478 4.99998 4V5H3.99998C3.73476 5 3.48041 5.10536 3.29287 5.29289C3.10533 5.48043 2.99998 5.73478 2.99998 6C2.99998 6.26522 3.10533 6.51957 3.29287 6.70711C3.48041 6.89464 3.73476 7 3.99998 7ZM20 5C19.6145 4.53638 19.1387 4.15612 18.6015 3.88242C18.0642 3.60871 17.4769 3.44728 16.8752 3.40799C16.2736 3.36869 15.6703 3.45234 15.102 3.65384C14.5337 3.85534 14.0125 4.17046 13.57 4.58L9.56998 8.18L15.86 14.47L19.57 11.11C20.4125 10.3416 20.9272 9.27853 21.0072 8.14102C21.0873 7.00351 20.7266 5.87881 20 5ZM4.39998 12.89C3.93569 13.274 3.55443 13.7485 3.2794 14.2846C3.00437 14.8207 2.84133 15.4072 2.80021 16.0083C2.75909 16.6094 2.84074 17.2126 3.04021 17.7812C3.23967 18.3497 3.55276 18.8717 3.96043 19.3154C4.36809 19.7591 4.86179 20.1151 5.41147 20.3619C5.96114 20.6086 6.55529 20.7409 7.15773 20.7507C7.76018 20.7605 8.35831 20.6476 8.91571 20.4188C9.47311 20.19 9.97812 19.8502 10.4 19.42L14.4 15.82L8.10998 9.53L4.39998 12.89Z" fill="#141414"/>
</svg>
