<svg width="24" height="24" viewBox="0 0 24 24" fill="none" xmlns="http://www.w3.org/2000/svg">
<path d="M19.5 12C19.3508 12.003 19.2027 12.0265 19.06 12.07L16.44 10.5L19.06 8.93C19.2027 8.97349 19.3508 8.99704 19.5 9C19.7835 8.99501 20.0598 8.90976 20.2968 8.75413C20.5339 8.59851 20.7219 8.37889 20.8392 8.12073C20.9565 7.86257 20.9983 7.57645 20.9596 7.29555C20.9209 7.01465 20.8033 6.75046 20.6206 6.53363C20.4379 6.3168 20.1975 6.1562 19.9272 6.07046C19.6569 5.98471 19.3678 5.97733 19.0935 6.04918C18.8192 6.12102 18.5709 6.26914 18.3774 6.47637C18.1838 6.68359 18.053 6.94144 18 7.22L16.84 7.91L14.94 9.07C14.7973 9.02651 14.6492 9.00296 14.5 9C14.1022 9 13.7206 9.15804 13.4393 9.43934C13.158 9.72064 13 10.1022 13 10.5C13 10.8978 13.158 11.2794 13.4393 11.5607C13.7206 11.842 14.1022 12 14.5 12C14.6492 11.997 14.7973 11.9735 14.94 11.93L16.87 13.09L18.03 13.78C18.0832 14.0598 18.2149 14.3187 18.4098 14.5265C18.6048 14.7342 18.8548 14.8821 19.1307 14.9529C19.4066 15.0237 19.6969 15.0145 19.9678 14.9264C20.2387 14.8382 20.4788 14.6748 20.6602 14.4552C20.8416 14.2355 20.9567 13.9688 20.992 13.6861C21.0274 13.4035 20.9815 13.1166 20.8598 12.8591C20.7381 12.6016 20.5456 12.384 20.3048 12.2319C20.064 12.0797 19.7848 11.9993 19.5 12ZM12.7 13.5C12.1823 13.1889 11.7539 12.7491 11.4565 12.2234C11.1591 11.6977 11.0028 11.104 11.0028 10.5C11.0028 9.89601 11.1591 9.30229 11.4565 8.77659C11.7539 8.25089 12.1823 7.81111 12.7 7.5L17.7 4.5C17.7781 4.45923 17.8582 4.42252 17.94 4.39C17.7997 3.71423 17.4306 3.10751 16.895 2.67214C16.3595 2.23677 15.6902 1.99939 15 2H9C8.20435 2 7.44129 2.31607 6.87868 2.87868C6.31607 3.44129 6 4.20435 6 5V19C6 19.7957 6.31607 20.5587 6.87868 21.1213C7.44129 21.6839 8.20435 22 9 22H15C15.7956 22 16.5587 21.6839 17.1213 21.1213C17.6839 20.5587 18 19.7957 18 19V16.65C17.8962 16.6081 17.7958 16.5579 17.7 16.5L12.7 13.5ZM12 20C11.8022 20 11.6089 19.9414 11.4444 19.8315C11.28 19.7216 11.1518 19.5654 11.0761 19.3827C11.0004 19.2 10.9806 18.9989 11.0192 18.8049C11.0578 18.6109 11.153 18.4327 11.2929 18.2929C11.4327 18.153 11.6109 18.0578 11.8049 18.0192C11.9989 17.9806 12.2 18.0004 12.3827 18.0761C12.5654 18.1518 12.7216 18.28 12.8315 18.4444C12.9414 18.6089 13 18.8022 13 19C13 19.2652 12.8946 19.5196 12.7071 19.7071C12.5196 19.8946 12.2652 20 12 20Z" fill="#141414"/>
</svg>
