<svg width="24" height="24" viewBox="0 0 24 24" fill="none" xmlns="http://www.w3.org/2000/svg">
<path d="M9.61001 8.82016C10.3006 8.30559 11.1388 8.02764 12 8.02764C12.8612 8.02764 13.6994 8.30559 14.39 8.82016C14.6009 8.98195 14.8673 9.05334 15.1308 9.01865C15.3943 8.98396 15.6332 8.84601 15.795 8.63517C15.9568 8.42432 16.0282 8.15784 15.9935 7.89435C15.9588 7.63086 15.8209 7.39195 15.61 7.23017C14.5696 6.44649 13.3025 6.02265 12 6.02265C10.6975 6.02265 9.43038 6.44649 8.39001 7.23017C8.28561 7.31027 8.19801 7.41016 8.13221 7.52412C8.06641 7.63808 8.0237 7.76388 8.00652 7.89435C7.98934 8.02482 7.99803 8.15739 8.03209 8.2845C8.06614 8.41161 8.1249 8.53076 8.20501 8.63517C8.36679 8.84601 8.60571 8.98396 8.86919 9.01865C8.99966 9.03583 9.13223 9.02714 9.25934 8.99309C9.38645 8.95903 9.50561 8.90027 9.61001 8.82016ZM15 10.0002H9.00001C8.20436 10.0002 7.4413 10.3162 6.87869 10.8788C6.31608 11.4415 6.00001 12.2045 6.00001 13.0002V19.0002C6.00001 19.7958 6.31608 20.5589 6.87869 21.1215C7.4413 21.6841 8.20436 22.0002 9.00001 22.0002H15C15.7957 22.0002 16.5587 21.6841 17.1213 21.1215C17.6839 20.5589 18 19.7958 18 19.0002V13.0002C18 12.2045 17.6839 11.4415 17.1213 10.8788C16.5587 10.3162 15.7957 10.0002 15 10.0002ZM10 19.0002C9.80223 19.0002 9.60889 18.9415 9.44444 18.8316C9.27999 18.7218 9.15182 18.5656 9.07613 18.3828C9.00044 18.2001 8.98064 17.9991 9.01922 17.8051C9.05781 17.6111 9.15305 17.4329 9.2929 17.2931C9.43275 17.1532 9.61094 17.058 9.80492 17.0194C9.9989 16.9808 10.2 17.0006 10.3827 17.0763C10.5654 17.152 10.7216 17.2801 10.8315 17.4446C10.9414 17.609 11 17.8024 11 18.0002C11 18.2654 10.8947 18.5197 10.7071 18.7073C10.5196 18.8948 10.2652 19.0002 10 19.0002ZM10 15.0002C9.80223 15.0002 9.60889 14.9415 9.44444 14.8316C9.27999 14.7218 9.15182 14.5656 9.07613 14.3828C9.00044 14.2001 8.98064 13.9991 9.01922 13.8051C9.05781 13.6111 9.15305 13.4329 9.2929 13.2931C9.43275 13.1532 9.61094 13.058 9.80492 13.0194C9.9989 12.9808 10.2 13.0006 10.3827 13.0763C10.5654 13.152 10.7216 13.2801 10.8315 13.4446C10.9414 13.609 11 13.8024 11 14.0002C11 14.2654 10.8947 14.5197 10.7071 14.7073C10.5196 14.8948 10.2652 15.0002 10 15.0002ZM14 19.0002C13.8022 19.0002 13.6089 18.9415 13.4444 18.8316C13.28 18.7218 13.1518 18.5656 13.0761 18.3828C13.0004 18.2001 12.9806 17.9991 13.0192 17.8051C13.0578 17.6111 13.153 17.4329 13.2929 17.2931C13.4328 17.1532 13.6109 17.058 13.8049 17.0194C13.9989 16.9808 14.2 17.0006 14.3827 17.0763C14.5654 17.152 14.7216 17.2801 14.8315 17.4446C14.9414 17.609 15 17.8024 15 18.0002C15 18.2654 14.8947 18.5197 14.7071 18.7073C14.5196 18.8948 14.2652 19.0002 14 19.0002ZM14 15.0002C13.8022 15.0002 13.6089 14.9415 13.4444 14.8316C13.28 14.7218 13.1518 14.5656 13.0761 14.3828C13.0004 14.2001 12.9806 13.9991 13.0192 13.8051C13.0578 13.6111 13.153 13.4329 13.2929 13.2931C13.4328 13.1532 13.6109 13.058 13.8049 13.0194C13.9989 12.9808 14.2 13.0006 14.3827 13.0763C14.5654 13.152 14.7216 13.2801 14.8315 13.4446C14.9414 13.609 15 13.8024 15 14.0002C15 14.2654 14.8947 14.5197 14.7071 14.7073C14.5196 14.8948 14.2652 15.0002 14 15.0002ZM18.67 4.56016C16.8362 2.91847 14.4613 2.01074 12 2.01074C9.53869 2.01074 7.16383 2.91847 5.33001 4.56016C5.13242 4.73786 5.01352 4.98677 4.99945 5.25213C4.98539 5.5175 5.07731 5.77758 5.25501 5.97516C5.4327 6.17275 5.68161 6.29166 5.94698 6.30572C6.21234 6.31979 6.47242 6.22786 6.67001 6.05017C8.13632 4.74013 10.0337 4.01599 12 4.01599C13.9663 4.01599 15.8637 4.74013 17.33 6.05017C17.5149 6.21323 17.7535 6.30227 18 6.30017C18.1373 6.30367 18.2739 6.27885 18.4013 6.22723C18.5286 6.17562 18.6439 6.09832 18.74 6.00016C18.8324 5.90226 18.9041 5.7867 18.9507 5.66041C18.9974 5.53413 19.0181 5.39973 19.0116 5.26526C19.005 5.1308 18.9714 4.99903 18.9127 4.87787C18.854 4.75671 18.7715 4.64865 18.67 4.56016Z" fill="#141414"/>
</svg>
