<svg width="24" height="24" viewBox="0 0 24 24" fill="none" xmlns="http://www.w3.org/2000/svg">
<path d="M5.76 13.9999H5C4.73478 13.9999 4.48043 13.8946 4.29289 13.707C4.10536 13.5195 4 13.2652 4 12.9999V10.9999C4 10.7347 4.10536 10.4804 4.29289 10.2928C4.48043 10.1053 4.73478 9.99994 5 9.99994H6V13.7599L14.76 4.99994L12.76 4.15994C12.5132 4.05543 12.248 4.00157 11.98 4.00157C11.712 4.00157 11.4468 4.05543 11.2 4.15994L7.2 5.84994C6.84224 6.00608 6.538 6.26349 6.32477 6.59044C6.11154 6.9174 5.99864 7.2996 6 7.68994V7.99994H5C4.20435 7.99994 3.44129 8.31601 2.87868 8.87862C2.31607 9.44123 2 10.2043 2 10.9999V12.9999C2.00584 13.6155 2.20088 14.2143 2.55866 14.7152C2.91645 15.2161 3.41965 15.5948 4 15.7999L5.76 13.9999ZM19 7.99994H18V7.68994C18.0049 7.60668 18.0049 7.5232 18 7.43994L20.73 4.70994C20.8232 4.6167 20.8972 4.50601 20.9477 4.38419C20.9981 4.26237 21.0241 4.1318 21.0241 3.99994C21.0241 3.86808 20.9981 3.73751 20.9477 3.61569C20.8972 3.49387 20.8232 3.38318 20.73 3.28994C20.6368 3.1967 20.5261 3.12274 20.4042 3.07228C20.2824 3.02182 20.1519 2.99585 20.02 2.99585C19.8881 2.99585 19.7576 3.02182 19.6357 3.07228C19.5139 3.12274 19.4032 3.1967 19.31 3.28994L3.31 19.2899C3.21627 19.3829 3.14188 19.4935 3.09111 19.6154C3.04034 19.7372 3.0142 19.8679 3.0142 19.9999C3.0142 20.132 3.04034 20.2627 3.09111 20.3845C3.14188 20.5064 3.21627 20.617 3.31 20.7099C3.40296 20.8037 3.51356 20.8781 3.63542 20.9288C3.75728 20.9796 3.88799 21.0057 4.02 21.0057C4.15201 21.0057 4.28272 20.9796 4.40458 20.9288C4.52644 20.8781 4.63704 20.8037 4.73 20.7099L7.07 18.3599C7.46634 18.8657 7.97149 19.2758 8.54796 19.5597C9.12443 19.8436 9.75743 19.9941 10.4 19.9999H13.6C14.6983 19.9955 15.7559 19.5841 16.5685 18.8453C17.3812 18.1065 17.8912 17.0928 18 15.9999H19C19.7956 15.9999 20.5587 15.6839 21.1213 15.1213C21.6839 14.5587 22 13.7956 22 12.9999V10.9999C22 10.2043 21.6839 9.44123 21.1213 8.87862C20.5587 8.31601 19.7956 7.99994 19 7.99994ZM20 12.9999C20 13.2652 19.8946 13.5195 19.7071 13.707C19.5196 13.8946 19.2652 13.9999 19 13.9999H18V9.99994H19C19.2652 9.99994 19.5196 10.1053 19.7071 10.2928C19.8946 10.4804 20 10.7347 20 10.9999V12.9999Z" fill="#141414"/>
</svg>
