<svg width="24" height="24" viewBox="0 0 24 24" fill="none" xmlns="http://www.w3.org/2000/svg">
<path d="M16.83 6.41L15.6 5.19C15.8576 4.84655 15.9978 4.42932 16 4C16 3.46957 15.7893 2.96086 15.4142 2.58579C15.0391 2.21071 14.5304 2 14 2H10C9.46957 2 8.96086 2.21071 8.58579 2.58579C8.21072 2.96086 8 3.46957 8 4C8.00216 4.42932 8.1424 4.84655 8.4 5.19L7.17 6.41C6.79866 6.78175 6.50421 7.22302 6.30346 7.7086C6.1027 8.19418 5.99959 8.71456 6 9.24V19C6 19.7956 6.31607 20.5587 6.87868 21.1213C7.44129 21.6839 8.20435 22 9 22H15C15.7957 22 16.5587 21.6839 17.1213 21.1213C17.6839 20.5587 18 19.7956 18 19V9.24C18.0004 8.71456 17.8973 8.19418 17.6965 7.7086C17.4958 7.22302 17.2013 6.78175 16.83 6.41ZM16 10C12.29 10.23 11.71 11.71 8 11.94V9.24C8.00223 8.71042 8.21441 8.20335 8.59 7.83L10.41 6H13.59L15.41 7.83C15.7856 8.20335 15.9978 8.71042 16 9.24V10Z" fill="#141414"/>
</svg>
