<svg width="24" height="24" viewBox="0 0 24 24" fill="none" xmlns="http://www.w3.org/2000/svg">
<path d="M15 2H9C8.20436 2 7.44129 2.31607 6.87868 2.87868C6.31608 3.44129 6.00001 4.20435 6.00001 5V13.76L17 2.76C16.4494 2.26947 15.7374 1.99892 15 2ZM20.49 3.51C20.3966 3.41167 20.2841 3.33336 20.1595 3.27985C20.0349 3.22635 19.9006 3.19875 19.765 3.19875C19.6294 3.19875 19.4951 3.22635 19.3705 3.27985C19.2459 3.33336 19.1334 3.41167 19.04 3.51L3.51 19C3.41217 19.0978 3.33456 19.214 3.28162 19.3418C3.22867 19.4696 3.20142 19.6066 3.20142 19.745C3.20142 19.8834 3.22867 20.0204 3.28162 20.1482C3.33456 20.276 3.41217 20.3922 3.51 20.49C3.70759 20.6876 3.97558 20.7986 4.25501 20.7986C4.39336 20.7986 4.53037 20.7713 4.6582 20.7184C4.78602 20.6654 4.90217 20.5878 5.00001 20.49L6.00001 19.4C6.09744 20.1245 6.45604 20.7884 7.00844 21.2672C7.56085 21.7459 8.26904 22.0065 9 22H15C15.7957 22 16.5587 21.6839 17.1213 21.1213C17.6839 20.5587 18 19.7957 18 19V7.44L20.49 5C20.5948 4.90621 20.6786 4.79138 20.7359 4.66301C20.7933 4.53464 20.8229 4.39561 20.8229 4.255C20.8229 4.1144 20.7933 3.97537 20.7359 3.847C20.6786 3.71863 20.5948 3.6038 20.49 3.51ZM12 20C11.7528 20 11.5111 19.9267 11.3055 19.7893C11.1 19.652 10.9398 19.4568 10.8452 19.2284C10.7505 19 10.7258 18.7486 10.774 18.5061C10.8223 18.2637 10.9413 18.0409 11.1161 17.8661C11.2909 17.6913 11.5137 17.5723 11.7561 17.524C11.9986 17.4758 12.25 17.5005 12.4784 17.5952C12.7068 17.6898 12.902 17.85 13.0393 18.0555C13.1767 18.2611 13.25 18.5028 13.25 18.75C13.25 19.0815 13.1183 19.3995 12.8839 19.6339C12.6495 19.8683 12.3315 20 12 20Z" fill="#141414"/>
</svg>
