<svg width="24" height="24" viewBox="0 0 24 24" fill="none" xmlns="http://www.w3.org/2000/svg">
<path d="M12.0002 15.0002C12.1318 15.0009 12.2623 14.9757 12.3841 14.926C12.5059 14.8762 12.6167 14.8029 12.7102 14.7102L19.7102 7.71019C19.8985 7.52188 20.0043 7.26649 20.0043 7.00019C20.0043 6.73388 19.8985 6.47849 19.7102 6.29019C19.5219 6.10188 19.2665 5.99609 19.0002 5.99609C18.7339 5.99609 18.4785 6.10188 18.2902 6.29019L11.2902 13.2902C11.1965 13.3831 11.1221 13.4937 11.0713 13.6156C11.0205 13.7375 10.9944 13.8682 10.9944 14.0002C10.9944 14.1322 11.0205 14.2629 11.0713 14.3848C11.1221 14.5066 11.1965 14.6172 11.2902 14.7102C11.3836 14.8029 11.4944 14.8762 11.6163 14.926C11.7381 14.9757 11.8686 15.0009 12.0002 15.0002ZM3.71019 12.2902C3.52188 12.1019 3.26649 11.9961 3.00019 11.9961C2.73388 11.9961 2.47849 12.1019 2.29019 12.2902C2.10188 12.4785 1.99609 12.7339 1.99609 13.0002C1.99609 13.2665 2.10188 13.5219 2.29019 13.7102L7.29019 18.7102C7.38315 18.8039 7.49375 18.8783 7.61561 18.9291C7.73747 18.9798 7.86817 19.006 8.00019 19.006C8.1322 19.006 8.2629 18.9798 8.38476 18.9291C8.50662 18.8783 8.61722 18.8039 8.71019 18.7102C8.80391 18.6172 8.87831 18.5066 8.92908 18.3848C8.97985 18.2629 9.00598 18.1322 9.00598 18.0002C9.00598 17.8682 8.97985 17.7375 8.92908 17.6156C8.87831 17.4937 8.80391 17.3831 8.71019 17.2902L3.71019 12.2902ZM21.7102 8.29019C21.6172 8.19646 21.5066 8.12206 21.3848 8.07129C21.2629 8.02053 21.1322 7.99439 21.0002 7.99439C20.8682 7.99439 20.7375 8.02053 20.6156 8.07129C20.4937 8.12206 20.3831 8.19646 20.2902 8.29019L12.0002 16.5902L7.71019 12.2902C7.52188 12.1019 7.26649 11.9961 7.00019 11.9961C6.73388 11.9961 6.47849 12.1019 6.29019 12.2902C6.10188 12.4785 5.99609 12.7339 5.99609 13.0002C5.99609 13.2665 6.10188 13.5219 6.29019 13.7102L11.2902 18.7102C11.3831 18.8039 11.4937 18.8783 11.6156 18.9291C11.7375 18.9798 11.8682 19.006 12.0002 19.006C12.1322 19.006 12.2629 18.9798 12.3848 18.9291C12.5066 18.8783 12.6172 18.8039 12.7102 18.7102L21.7102 9.71019C21.8039 9.61722 21.8783 9.50662 21.9291 9.38476C21.9798 9.2629 22.006 9.1322 22.006 9.00019C22.006 8.86817 21.9798 8.73747 21.9291 8.61561C21.8783 8.49375 21.8039 8.38315 21.7102 8.29019Z" fill="#141414"/>
</svg>
