<svg width="24" height="24" viewBox="0 0 24 24" fill="none" xmlns="http://www.w3.org/2000/svg">
<path d="M13 10.0899V5.40994L15.29 7.70994C15.383 7.80367 15.4936 7.87806 15.6154 7.92883C15.7373 7.9796 15.868 8.00574 16 8.00574C16.132 8.00574 16.2627 7.9796 16.3846 7.92883C16.5064 7.87806 16.617 7.80367 16.71 7.70994C16.8037 7.61698 16.8781 7.50637 16.9289 7.38452C16.9797 7.26266 17.0058 7.13195 17.0058 6.99994C17.0058 6.86793 16.9797 6.73722 16.9289 6.61536C16.8781 6.4935 16.8037 6.3829 16.71 6.28994L12.71 2.28994C12.617 2.19621 12.5064 2.12182 12.3846 2.07105C12.2627 2.02028 12.132 1.99414 12 1.99414C11.868 1.99414 11.7373 2.02028 11.6154 2.07105C11.4936 2.12182 11.383 2.19621 11.29 2.28994L7.29 6.28994C7.19676 6.38318 7.1228 6.49387 7.07234 6.61569C7.02188 6.73751 6.9959 6.86808 6.9959 6.99994C6.9959 7.1318 7.02188 7.26237 7.07234 7.38419C7.1228 7.50601 7.19676 7.6167 7.29 7.70994C7.38323 7.80318 7.49393 7.87714 7.61575 7.9276C7.73757 7.97806 7.86814 8.00403 8 8.00403C8.13186 8.00403 8.26242 7.97806 8.38425 7.9276C8.50607 7.87714 8.61676 7.80318 8.71 7.70994L11 5.40994V10.0899C9.5166 10.3407 8.18153 11.1395 7.25935 12.3282C6.33718 13.5169 5.8952 15.0086 6.02101 16.5078C6.14682 18.0069 6.83124 19.4041 7.93863 20.4225C9.04601 21.4408 10.4956 22.006 12 22.006C13.5044 22.006 14.954 21.4408 16.0614 20.4225C17.1688 19.4041 17.8532 18.0069 17.979 16.5078C18.1048 15.0086 17.6628 13.5169 16.7406 12.3282C15.8185 11.1395 14.4834 10.3407 13 10.0899ZM12 19.9999C11.2089 19.9999 10.4355 19.7653 9.77772 19.3258C9.11992 18.8863 8.60723 18.2616 8.30448 17.5307C8.00173 16.7998 7.92251 15.9955 8.07685 15.2196C8.2312 14.4437 8.61216 13.7309 9.17157 13.1715C9.73098 12.6121 10.4437 12.2311 11.2196 12.0768C11.9956 11.9225 12.7998 12.0017 13.5307 12.3044C14.2616 12.6072 14.8863 13.1199 15.3259 13.7777C15.7654 14.4355 16 15.2088 16 15.9999C16 17.0608 15.5786 18.0782 14.8284 18.8284C14.0783 19.5785 13.0609 19.9999 12 19.9999Z" fill="#141414"/>
</svg>
