<svg width="24" height="24" viewBox="0 0 24 24" fill="none" xmlns="http://www.w3.org/2000/svg">
<path d="M19 4H5C4.20435 4 3.44129 4.31607 2.87868 4.87868C2.31607 5.44129 2 6.20435 2 7V17C2 17.7956 2.31607 18.5587 2.87868 19.1213C3.44129 19.6839 4.20435 20 5 20H19C19.7956 20 20.5587 19.6839 21.1213 19.1213C21.6839 18.5587 22 17.7956 22 17V7C22 6.20435 21.6839 5.44129 21.1213 4.87868C20.5587 4.31607 19.7956 4 19 4ZM17 8C17.2967 8 17.5867 8.08797 17.8334 8.2528C18.08 8.41762 18.2723 8.65189 18.3858 8.92597C18.4993 9.20006 18.5291 9.50166 18.4712 9.79264C18.4133 10.0836 18.2704 10.3509 18.0607 10.5607C17.8509 10.7704 17.5836 10.9133 17.2926 10.9712C17.0017 11.0291 16.7001 10.9994 16.426 10.8858C16.1519 10.7723 15.9176 10.58 15.7528 10.3334C15.588 10.0867 15.5 9.79667 15.5 9.5C15.5 9.10218 15.658 8.72064 15.9393 8.43934C16.2206 8.15804 16.6022 8 17 8ZM12 8C12.2967 8 12.5867 8.08797 12.8334 8.2528C13.08 8.41762 13.2723 8.65189 13.3858 8.92597C13.4994 9.20006 13.5291 9.50166 13.4712 9.79264C13.4133 10.0836 13.2704 10.3509 13.0607 10.5607C12.8509 10.7704 12.5836 10.9133 12.2926 10.9712C12.0017 11.0291 11.7001 10.9994 11.426 10.8858C11.1519 10.7723 10.9176 10.58 10.7528 10.3334C10.588 10.0867 10.5 9.79667 10.5 9.5C10.5 9.10218 10.658 8.72064 10.9393 8.43934C11.2206 8.15804 11.6022 8 12 8ZM7 8C7.29667 8 7.58668 8.08797 7.83336 8.2528C8.08003 8.41762 8.27229 8.65189 8.38582 8.92597C8.49935 9.20006 8.52906 9.50166 8.47118 9.79264C8.4133 10.0836 8.27044 10.3509 8.06066 10.5607C7.85088 10.7704 7.58361 10.9133 7.29264 10.9712C7.00166 11.0291 6.70006 10.9994 6.42597 10.8858C6.15189 10.7723 5.91762 10.58 5.7528 10.3334C5.58797 10.0867 5.5 9.79667 5.5 9.5C5.5 9.10218 5.65804 8.72064 5.93934 8.43934C6.22064 8.15804 6.60218 8 7 8ZM19 16H5C4.73478 16 4.48043 15.8946 4.29289 15.7071C4.10536 15.5196 4 15.2652 4 15C4.00178 14.3562 4.21059 13.7301 4.59559 13.2142C4.98058 12.6982 5.52133 12.3198 6.13794 12.1348C6.75456 11.9498 7.41432 11.9681 8.01974 12.1869C8.62517 12.4058 9.14415 12.8135 9.5 13.35C9.77365 12.9375 10.1452 12.599 10.5814 12.3649C11.0176 12.1308 11.5049 12.0083 12 12.0083C12.4951 12.0083 12.9824 12.1308 13.4186 12.3649C13.8548 12.599 14.2263 12.9375 14.5 13.35C14.8558 12.8135 15.3748 12.4058 15.9803 12.1869C16.5857 11.9681 17.2454 11.9498 17.8621 12.1348C18.4787 12.3198 19.0194 12.6982 19.4044 13.2142C19.7894 13.7301 19.9982 14.3562 20 15C20 15.2652 19.8946 15.5196 19.7071 15.7071C19.5196 15.8946 19.2652 16 19 16Z" fill="#141414"/>
</svg>
