<svg width="24" height="24" viewBox="0 0 24 24" fill="none" xmlns="http://www.w3.org/2000/svg">
<path d="M19 3.99982H15C14.06 3.99982 13.16 4.44982 12.6 5.19982L10.6 7.86982C10.21 8.38982 10 9.01982 10 9.66982V17.9998C10 19.6498 11.35 20.9998 13 20.9998H19C20.65 20.9998 22 19.6498 22 17.9998V6.99982C22 5.34982 20.65 3.99982 19 3.99982ZM12 10.9998H14V13.9998H12V10.9998ZM16 18.9998H13C12.45 18.9998 12 18.5498 12 17.9998V15.9998H16V18.9998ZM20 17.9998C20 18.5498 19.55 18.9998 19 18.9998H18V15.9998H20V17.9998ZM20 13.9998H16V10.9998H20V13.9998ZM8 9.18982C8 9.12982 8.01 9.06982 8.02 8.99982H8C7.06 8.99982 6.16 9.44982 5.6 10.1998L3.6 12.8698C3.21 13.3898 3 14.0198 3 14.6698V17.9998C3 19.6498 4.35 20.9998 6 20.9998H9.03C8.4 20.1598 8 19.1298 8 17.9998V9.18982ZM9.71 4.29982L7.71 2.29982C7.32 1.90982 6.69 1.90982 6.3 2.29982C5.91 2.68982 5.91 3.31982 6.3 3.70982L6.59 3.99982H3C2.45 3.99982 2 4.44982 2 4.99982C2 5.54982 2.45 5.99982 3 5.99982H6.59L6.3 6.28982C5.91 6.67982 5.91 7.30982 6.3 7.69982C6.5 7.89982 6.75 7.98982 7.01 7.98982C7.27 7.98982 7.52 7.88982 7.72 7.69982L9.72 5.69982C10.11 5.30982 10.11 4.67982 9.72 4.28982L9.71 4.29982Z" fill="#141414"/>
</svg>
