<svg width="24" height="24" viewBox="0 0 24 24" fill="none" xmlns="http://www.w3.org/2000/svg">
<path d="M17 7H18V8C18 8.26522 18.1054 8.51957 18.2929 8.70711C18.4804 8.89464 18.7348 9 19 9C19.2652 9 19.5196 8.89464 19.7071 8.70711C19.8946 8.51957 20 8.26522 20 8V7H21C21.2652 7 21.5196 6.89464 21.7071 6.70711C21.8946 6.51957 22 6.26522 22 6C22 5.73478 21.8946 5.48043 21.7071 5.29289C21.5196 5.10536 21.2652 5 21 5H20V4C20 3.73478 19.8946 3.48043 19.7071 3.29289C19.5196 3.10536 19.2652 3 19 3C18.7348 3 18.4804 3.10536 18.2929 3.29289C18.1054 3.48043 18 3.73478 18 4V5H17C16.7348 5 16.4804 5.10536 16.2929 5.29289C16.1054 5.48043 16 5.73478 16 6C16 6.26522 16.1054 6.51957 16.2929 6.70711C16.4804 6.89464 16.7348 7 17 7ZM14 6C14.0026 5.6643 14.0361 5.32956 14.1 5H5C4.20435 5 3.44129 5.31607 2.87868 5.87868C2.31607 6.44129 2 7.20435 2 8V16C2 16.7956 2.31607 17.5587 2.87868 18.1213C3.44129 18.6839 4.20435 19 5 19H19C19.7956 19 20.5587 18.6839 21.1213 18.1213C21.6839 17.5587 22 16.7956 22 16V10C21.2572 10.5571 20.3738 10.8964 19.449 10.9798C18.5242 11.0632 17.5945 10.8874 16.7639 10.4721C15.9334 10.0569 15.2349 9.41854 14.7467 8.62866C14.2586 7.83878 14 6.92856 14 6ZM11 11C11 11.4465 10.9004 11.8874 10.7084 12.2905C10.5163 12.6936 10.2367 13.0487 9.89 13.33L11.45 14.11C11.6855 14.2299 11.864 14.4381 11.9465 14.6892C12.0289 14.9403 12.0086 15.2138 11.89 15.45C11.8069 15.6149 11.6798 15.7536 11.5227 15.8507C11.3656 15.9478 11.1847 15.9994 11 16C10.8431 16.0019 10.6883 15.964 10.55 15.89L6.55 13.89C6.3507 13.7879 6.19144 13.6219 6.09772 13.4185C6.004 13.2151 5.98125 12.9862 6.03312 12.7684C6.08499 12.5505 6.20846 12.3564 6.38377 12.2171C6.55908 12.0778 6.77608 12.0013 7 12H8C8.26522 12 8.51957 11.8946 8.70711 11.7071C8.89464 11.5196 9 11.2652 9 11C9 10.7348 8.89464 10.4804 8.70711 10.2929C8.51957 10.1054 8.26522 10 8 10H6C5.73478 10 5.48043 9.89464 5.29289 9.70711C5.10536 9.51957 5 9.26522 5 9C5 8.73478 5.10536 8.48043 5.29289 8.29289C5.48043 8.10536 5.73478 8 6 8H11C11.2652 8 11.5196 8.10536 11.7071 8.29289C11.8946 8.48043 12 8.73478 12 9C12 9.26522 11.8946 9.51957 11.7071 9.70711C11.5196 9.89464 11.2652 10 11 10H10.82C10.9364 10.3207 10.9973 10.6589 11 11Z" fill="#141414"/>
</svg>
