<svg width="24" height="24" viewBox="0 0 24 24" fill="none" xmlns="http://www.w3.org/2000/svg">
<path d="M15 4C15 3.73478 14.8946 3.48043 14.7071 3.29289C14.5196 3.10536 14.2652 3 14 3C13.7348 3 13.4804 3.10536 13.2929 3.29289C13.1054 3.48043 13 3.73478 13 4V6.76L15 4.76V4ZM4.71 10.71L9 6.41V10.76L11 8.76V4C10.999 3.80257 10.9396 3.60986 10.8293 3.44614C10.7189 3.28242 10.5626 3.15502 10.38 3.08C10.1979 3.00342 9.99718 2.9825 9.80319 3.01987C9.6092 3.05725 9.43063 3.15124 9.29 3.29L3.29 9.29C3.1017 9.4783 2.99591 9.7337 2.99591 10C2.99591 10.2663 3.1017 10.5217 3.29 10.71C3.47831 10.8983 3.7337 11.0041 4 11.0041C4.2663 11.0041 4.5217 10.8983 4.71 10.71ZM20.71 13.29C20.617 13.1963 20.5064 13.1219 20.3846 13.0711C20.2627 13.0203 20.132 12.9942 20 12.9942C19.868 12.9942 19.7373 13.0203 19.6154 13.0711C19.4936 13.1219 19.383 13.1963 19.29 13.29L15 17.59V10.44L20.49 5C20.5878 4.90217 20.6654 4.78602 20.7184 4.65819C20.7713 4.53036 20.7986 4.39336 20.7986 4.255C20.7986 4.11664 20.7713 3.97964 20.7184 3.85181C20.6654 3.72398 20.5878 3.60783 20.49 3.51C20.3922 3.41217 20.276 3.33456 20.1482 3.28161C20.0204 3.22866 19.8834 3.20141 19.745 3.20141C19.6066 3.20141 19.4696 3.22866 19.3418 3.28161C19.214 3.33456 19.0978 3.41217 19 3.51L3.51 19C3.41217 19.0978 3.33456 19.214 3.28161 19.3418C3.22867 19.4696 3.20141 19.6066 3.20141 19.745C3.20141 19.8834 3.22867 20.0204 3.28161 20.1482C3.33456 20.276 3.41217 20.3922 3.51 20.49C3.70759 20.6876 3.97557 20.7986 4.255 20.7986C4.39336 20.7986 4.53037 20.7713 4.65819 20.7184C4.78602 20.6654 4.90217 20.5878 5 20.49L9 16.49V20C9 20.2652 9.10536 20.5196 9.2929 20.7071C9.48043 20.8946 9.73479 21 10 21C10.2652 21 10.5196 20.8946 10.7071 20.7071C10.8946 20.5196 11 20.2652 11 20V14.44L13 12.44V20C13.001 20.1974 13.0604 20.3901 13.1707 20.5539C13.2811 20.7176 13.4374 20.845 13.62 20.92C13.7387 20.976 13.8688 21.0034 14 21C14.1316 21.0008 14.2621 20.9755 14.3839 20.9258C14.5057 20.876 14.6166 20.8027 14.71 20.71L20.71 14.71C20.8037 14.617 20.8781 14.5064 20.9289 14.3846C20.9797 14.2627 21.0058 14.132 21.0058 14C21.0058 13.868 20.9797 13.7373 20.9289 13.6154C20.8781 13.4936 20.8037 13.383 20.71 13.29Z" fill="#141414"/>
</svg>
