<svg width="24" height="24" viewBox="0 0 24 24" fill="none" xmlns="http://www.w3.org/2000/svg">
<path d="M12 15C12.7956 15 13.5587 14.6839 14.1213 14.1213C14.6839 13.5587 15 12.7956 15 12V5C15 4.20435 14.6839 3.44129 14.1213 2.87868C13.5587 2.31607 12.7956 2 12 2C11.2044 2 10.4413 2.31607 9.87868 2.87868C9.31607 3.44129 9 4.20435 9 5V12C9 12.7956 9.31607 13.5587 9.87868 14.1213C10.4413 14.6839 11.2044 15 12 15ZM18 10C17.7348 10 17.4804 10.1054 17.2929 10.2929C17.1054 10.4804 17 10.7348 17 11V12C17 13.3261 16.4732 14.5979 15.5355 15.5355C14.5979 16.4732 13.3261 17 12 17C10.6739 17 9.40215 16.4732 8.46447 15.5355C7.52678 14.5979 7 13.3261 7 12V11C7 10.7348 6.89464 10.4804 6.70711 10.2929C6.51957 10.1054 6.26522 10 6 10C5.73478 10 5.48043 10.1054 5.29289 10.2929C5.10536 10.4804 5 10.7348 5 11V12C5 13.8565 5.7375 15.637 7.05025 16.9497C8.36301 18.2625 10.1435 19 12 19C13.8565 19 15.637 18.2625 16.9497 16.9497C18.2625 15.637 19 13.8565 19 12V11C19 10.7348 18.8946 10.4804 18.7071 10.2929C18.5196 10.1054 18.2652 10 18 10ZM15 20H9C8.73478 20 8.48043 20.1054 8.29289 20.2929C8.10536 20.4804 8 20.7348 8 21C8 21.2652 8.10536 21.5196 8.29289 21.7071C8.48043 21.8946 8.73478 22 9 22H15C15.2652 22 15.5196 21.8946 15.7071 21.7071C15.8946 21.5196 16 21.2652 16 21C16 20.7348 15.8946 20.4804 15.7071 20.2929C15.5196 20.1054 15.2652 20 15 20Z" fill="#141414"/>
</svg>
