<svg width="24" height="24" viewBox="0 0 24 24" fill="none" xmlns="http://www.w3.org/2000/svg">
<path d="M9.5 5H11.5C11.7652 5 12.0196 5.10536 12.2071 5.29289C12.3946 5.48043 12.5 5.73478 12.5 6C12.5 6.26522 12.3946 6.51957 12.2071 6.70711C12.0196 6.89464 11.7652 7 11.5 7H10.5C10.2761 7.00133 10.0591 7.07777 9.88377 7.21709C9.70846 7.3564 9.58499 7.55053 9.53312 7.76836C9.48125 7.9862 9.504 8.21514 9.59772 8.41851C9.69144 8.62188 9.8507 8.78791 10.05 8.89L14.05 10.89C14.1883 10.964 14.3431 11.0019 14.5 11C14.6847 10.9994 14.8656 10.9478 15.0227 10.8507C15.1798 10.7536 15.3069 10.6149 15.39 10.45C15.5125 10.2199 15.5403 9.95102 15.4674 9.70072C15.3946 9.45042 15.2268 9.23846 15 9.11L13.44 8.33C13.9109 7.93253 14.2481 7.39967 14.4055 6.80387C14.563 6.20807 14.5331 5.57824 14.32 5H14.5C14.7652 5 15.0196 4.89464 15.2071 4.70711C15.3946 4.51957 15.5 4.26522 15.5 4C15.5 3.73478 15.3946 3.48043 15.2071 3.29289C15.0196 3.10536 14.7652 3 14.5 3H9.5C9.23478 3 8.98043 3.10536 8.79289 3.29289C8.60536 3.48043 8.5 3.73478 8.5 4C8.5 4.26522 8.60536 4.51957 8.79289 4.70711C8.98043 4.89464 9.23478 5 9.5 5ZM20.69 16.06C20.5026 15.8737 20.2492 15.7692 19.985 15.7692C19.7208 15.7692 19.4674 15.8737 19.28 16.06L17.11 18.34C16.9229 18.5362 16.698 18.6924 16.4487 18.7989C16.1994 18.9055 15.9311 18.9603 15.66 18.96H12C11.7348 18.96 11.4804 18.8546 11.2929 18.6671C11.1054 18.4796 11 18.2252 11 17.96C11 17.6948 11.1054 17.4404 11.2929 17.2529C11.4804 17.0654 11.7348 16.96 12 16.96H13.66C13.9252 16.96 14.1796 16.8546 14.3671 16.6671C14.5546 16.4796 14.66 16.2252 14.66 15.96C14.66 15.6948 14.5546 15.4404 14.3671 15.2529C14.1796 15.0654 13.9252 14.96 13.66 14.96H8C7.46957 14.96 6.96086 15.1707 6.58579 15.5458C6.21071 15.9209 6 16.4296 6 16.96H4C3.73478 16.96 3.48043 17.0654 3.29289 17.2529C3.10536 17.4404 3 17.6948 3 17.96V19.96C3 20.2252 3.10536 20.4796 3.29289 20.6671C3.48043 20.8546 3.73478 20.96 4 20.96H15.66C16.2005 20.9593 16.7353 20.849 17.232 20.6359C17.7287 20.4228 18.1771 20.1112 18.55 19.72L20.72 17.44C20.8933 17.2502 20.9869 17.001 20.9813 16.744C20.9757 16.487 20.8714 16.2421 20.69 16.06Z" fill="#141414"/>
</svg>
