<svg width="24" height="24" viewBox="0 0 24 24" fill="none" xmlns="http://www.w3.org/2000/svg">
<path d="M19 20.0001H18C15.24 20.0001 13 17.7601 13 15.0001V5.41006L15.29 7.70006C15.49 7.90006 15.74 7.99006 16 7.99006C16.26 7.99006 16.51 7.89006 16.71 7.70006C17.1 7.31006 17.1 6.68006 16.71 6.29006L12.71 2.29006C12.32 1.90006 11.69 1.90006 11.3 2.29006L7.28999 6.29006C6.89999 6.68006 6.89999 7.31006 7.28999 7.70006C7.67999 8.09006 8.30999 8.09006 8.69999 7.70006L10.99 5.41006V15.0001C10.99 17.7601 8.74999 20.0001 5.98999 20.0001H4.98999C4.43999 20.0001 3.98999 20.4501 3.98999 21.0001C3.98999 21.5501 4.43999 22.0001 4.98999 22.0001H5.98999C8.53999 22.0001 10.77 20.6301 11.99 18.5901C13.21 20.6301 15.44 22.0001 17.99 22.0001H18.99C19.54 22.0001 19.99 21.5501 19.99 21.0001C19.99 20.4501 19.54 20.0001 18.99 20.0001H19Z" fill="#141414"/>
</svg>
