<svg width="24" height="24" viewBox="0 0 24 24" fill="none" xmlns="http://www.w3.org/2000/svg">
<path d="M7.06976 12.69C7.0311 12.4618 7.00771 12.2313 6.99976 12V11C6.99976 10.7348 6.8944 10.4804 6.70687 10.2929C6.51933 10.1054 6.26498 10 5.99976 10C5.73454 10 5.48019 10.1054 5.29265 10.2929C5.10512 10.4804 4.99976 10.7348 4.99976 11V12C5.0021 12.7977 5.14077 13.5891 5.40976 14.34L7.06976 12.69ZM11.9998 2.00002C11.2041 2.00002 10.441 2.31609 9.87844 2.8787C9.31583 3.4413 8.99976 4.20437 8.99976 5.00002V10.76L14.9998 4.76002C14.9393 4.00667 14.5967 3.3039 14.0405 2.79221C13.4844 2.28051 12.7555 1.99759 11.9998 2.00002ZM14.9998 20H8.99976C8.73454 20 8.48019 20.1054 8.29265 20.2929C8.10512 20.4804 7.99976 20.7348 7.99976 21C7.99976 21.2652 8.10512 21.5196 8.29265 21.7071C8.48019 21.8947 8.73454 22 8.99976 22H14.9998C15.265 22 15.5193 21.8947 15.7069 21.7071C15.8944 21.5196 15.9998 21.2652 15.9998 21C15.9998 20.7348 15.8944 20.4804 15.7069 20.2929C15.5193 20.1054 15.265 20 14.9998 20ZM11.9998 15C12.7954 15 13.5585 14.6839 14.1211 14.1213C14.6837 13.5587 14.9998 12.7957 14.9998 12V10.44L20.4898 5.00002C20.5876 4.90218 20.6652 4.78603 20.7182 4.65821C20.7711 4.53038 20.7984 4.39337 20.7984 4.25502C20.7984 4.11666 20.7711 3.97965 20.7182 3.85182C20.6652 3.724 20.5876 3.60785 20.4898 3.51002C20.3919 3.41218 20.2758 3.33457 20.148 3.28163C20.0201 3.22868 19.8831 3.20143 19.7448 3.20143C19.6064 3.20143 19.4694 3.22868 19.3416 3.28163C19.2137 3.33457 19.0976 3.41218 18.9998 3.51002L3.50976 19C3.41193 19.0979 3.33432 19.214 3.28137 19.3418C3.22842 19.4697 3.20117 19.6067 3.20117 19.745C3.20117 19.8834 3.22842 20.0204 3.28137 20.1482C3.33432 20.276 3.41193 20.3922 3.50976 20.49C3.70735 20.6876 3.97533 20.7986 4.25476 20.7986C4.39312 20.7986 4.53012 20.7714 4.65795 20.7184C4.78578 20.6655 4.90193 20.5879 4.99976 20.49L7.86976 17.61C8.91053 18.3706 10.1411 18.829 11.4258 18.9347C12.7105 19.0404 13.9995 18.7893 15.1506 18.2091C16.3017 17.6289 17.2702 16.7421 17.9494 15.6465C18.6286 14.5509 18.9921 13.289 18.9998 12V11C18.9998 10.7348 18.8944 10.4804 18.7069 10.2929C18.5193 10.1054 18.265 10 17.9998 10C17.7345 10 17.4802 10.1054 17.2927 10.2929C17.1051 10.4804 16.9998 10.7348 16.9998 11V12C16.9982 12.8998 16.7538 13.7825 16.2923 14.5551C15.8309 15.3276 15.1696 15.9612 14.3781 16.3892C13.5866 16.8172 12.6942 17.0237 11.7952 16.9869C10.8961 16.9501 10.0236 16.6713 9.26976 16.18L10.7298 14.71C11.1267 14.8985 11.5603 14.9975 11.9998 15Z" fill="#141414"/>
</svg>
