<svg width="24" height="24" viewBox="0 0 24 24" fill="none" xmlns="http://www.w3.org/2000/svg">
<path d="M19 5H5C4.20435 5 3.44129 5.31607 2.87868 5.87868C2.31607 6.44129 2 7.20435 2 8V16C2 16.7956 2.31607 17.5587 2.87868 18.1213C3.44129 18.6839 4.20435 19 5 19H19C19.7956 19 20.5587 18.6839 21.1213 18.1213C21.6839 17.5587 22 16.7956 22 16V8C22 7.20435 21.6839 6.44129 21.1213 5.87868C20.5587 5.31607 19.7956 5 19 5ZM5.42 7H6.42C6.68522 7 6.93957 7.10536 7.12711 7.29289C7.31464 7.48043 7.42 7.73478 7.42 8C7.42 8.26522 7.31464 8.51957 7.12711 8.70711C6.93957 8.89464 6.68522 9 6.42 9H5.42C5.15478 9 4.90043 8.89464 4.71289 8.70711C4.52536 8.51957 4.42 8.26522 4.42 8C4.42 7.73478 4.52536 7.48043 4.71289 7.29289C4.90043 7.10536 5.15478 7 5.42 7ZM6.5 17H5.5C5.23478 17 4.98043 16.8946 4.79289 16.7071C4.60536 16.5196 4.5 16.2652 4.5 16C4.5 15.7348 4.60536 15.4804 4.79289 15.2929C4.98043 15.1054 5.23478 15 5.5 15H6.5C6.76522 15 7.01957 15.1054 7.20711 15.2929C7.39464 15.4804 7.5 15.7348 7.5 16C7.5 16.2652 7.39464 16.5196 7.20711 16.7071C7.01957 16.8946 6.76522 17 6.5 17ZM12.5 17H11.5C11.2348 17 10.9804 16.8946 10.7929 16.7071C10.6054 16.5196 10.5 16.2652 10.5 16C10.5 15.7348 10.6054 15.4804 10.7929 15.2929C10.9804 15.1054 11.2348 15 11.5 15H12.5C12.7652 15 13.0196 15.1054 13.2071 15.2929C13.3946 15.4804 13.5 15.7348 13.5 16C13.5 16.2652 13.3946 16.5196 13.2071 16.7071C13.0196 16.8946 12.7652 17 12.5 17ZM12.5 9H11.5C11.2348 9 10.9804 8.89464 10.7929 8.70711C10.6054 8.51957 10.5 8.26522 10.5 8C10.5 7.73478 10.6054 7.48043 10.7929 7.29289C10.9804 7.10536 11.2348 7 11.5 7H12.5C12.7652 7 13.0196 7.10536 13.2071 7.29289C13.3946 7.48043 13.5 7.73478 13.5 8C13.5 8.26522 13.3946 8.51957 13.2071 8.70711C13.0196 8.89464 12.7652 9 12.5 9ZM18.5 17H17.5C17.2348 17 16.9804 16.8946 16.7929 16.7071C16.6054 16.5196 16.5 16.2652 16.5 16C16.5 15.7348 16.6054 15.4804 16.7929 15.2929C16.9804 15.1054 17.2348 15 17.5 15H18.5C18.7652 15 19.0196 15.1054 19.2071 15.2929C19.3946 15.4804 19.5 15.7348 19.5 16C19.5 16.2652 19.3946 16.5196 19.2071 16.7071C19.0196 16.8946 18.7652 17 18.5 17ZM18.5 9H17.5C17.2348 9 16.9804 8.89464 16.7929 8.70711C16.6054 8.51957 16.5 8.26522 16.5 8C16.5 7.73478 16.6054 7.48043 16.7929 7.29289C16.9804 7.10536 17.2348 7 17.5 7H18.5C18.7652 7 19.0196 7.10536 19.2071 7.29289C19.3946 7.48043 19.5 7.73478 19.5 8C19.5 8.26522 19.3946 8.51957 19.2071 8.70711C19.0196 8.89464 18.7652 9 18.5 9Z" fill="#141414"/>
</svg>
