<svg width="24" height="24" viewBox="0 0 24 24" fill="none" xmlns="http://www.w3.org/2000/svg">
<path d="M22 10.0701C21.9197 9.77441 21.7525 9.50965 21.52 9.31009L13.85 2.70009C13.3397 2.24809 12.6817 1.99854 12 1.99854C11.3183 1.99854 10.6603 2.24809 10.15 2.70009L2.53001 9.31009C2.29129 9.51205 2.12019 9.7823 2.03974 10.0845C1.95928 10.3866 1.97333 10.7062 2.08 11.0001C2.17763 11.2893 2.36287 11.5409 2.61 11.7201C2.8516 11.9071 3.14485 12.0153 3.45001 12.0301H4.00001V19.0301C4.00001 19.8257 4.31608 20.5888 4.87868 21.1514C5.44129 21.714 6.20436 22.0301 7.00001 22.0301H17C17.7957 22.0301 18.5587 21.714 19.1213 21.1514C19.6839 20.5888 20 19.8257 20 19.0301V12.0001H20.55C20.8552 11.9853 21.1484 11.8771 21.39 11.6901C21.6371 11.5109 21.8224 11.2593 21.92 10.9701C22.0361 10.6848 22.0639 10.3713 22 10.0701ZM14.5 14.0001C14.5 14.4466 14.4004 14.8875 14.2084 15.2906C14.0163 15.6937 13.7368 16.0488 13.39 16.3301L14.95 17.1101C15.1855 17.23 15.364 17.4382 15.4465 17.6893C15.5289 17.9404 15.5086 18.2139 15.39 18.4501C15.3069 18.615 15.1798 18.7537 15.0227 18.8508C14.8656 18.9478 14.6847 18.9995 14.5 19.0001C14.3431 19.002 14.1883 18.9641 14.05 18.8901L10.05 16.8901C9.85071 16.788 9.69144 16.622 9.59773 16.4186C9.50401 16.2152 9.48126 15.9863 9.53313 15.7685C9.58499 15.5506 9.70847 15.3565 9.88378 15.2172C10.0591 15.0779 10.2761 15.0014 10.5 15.0001H11.5C11.7652 15.0001 12.0196 14.8947 12.2071 14.7072C12.3946 14.5197 12.5 14.2653 12.5 14.0001C12.5 13.7349 12.3946 13.4805 12.2071 13.293C12.0196 13.1054 11.7652 13.0001 11.5 13.0001H9.50001C9.23479 13.0001 8.98043 12.8947 8.7929 12.7072C8.60536 12.5197 8.50001 12.2653 8.50001 12.0001C8.50001 11.7349 8.60536 11.4805 8.7929 11.293C8.98043 11.1054 9.23479 11.0001 9.50001 11.0001H14.5C14.7652 11.0001 15.0196 11.1054 15.2071 11.293C15.3946 11.4805 15.5 11.7349 15.5 12.0001C15.5 12.2653 15.3946 12.5197 15.2071 12.7072C15.0196 12.8947 14.7652 13.0001 14.5 13.0001H14.32C14.4364 13.3208 14.4973 13.6589 14.5 14.0001Z" fill="#141414"/>
</svg>
