<svg width="24" height="24" viewBox="0 0 24 24" fill="none" xmlns="http://www.w3.org/2000/svg">
<path d="M19 5H5C4.20435 5 3.44129 5.31607 2.87868 5.87868C2.31607 6.44129 2 7.20435 2 8V16C2 16.7956 2.31607 17.5587 2.87868 18.1213C3.44129 18.6839 4.20435 19 5 19V20C5 20.2652 5.10536 20.5196 5.29289 20.7071C5.48043 20.8946 5.73478 21 6 21C6.26522 21 6.51957 20.8946 6.70711 20.7071C6.89464 20.5196 7 20.2652 7 20V19H17V20C17 20.2652 17.1054 20.5196 17.2929 20.7071C17.4804 20.8946 17.7348 21 18 21C18.2652 21 18.5196 20.8946 18.7071 20.7071C18.8946 20.5196 19 20.2652 19 20V19C19.7956 19 20.5587 18.6839 21.1213 18.1213C21.6839 17.5587 22 16.7956 22 16V8C22 7.20435 21.6839 6.44129 21.1213 5.87868C20.5587 5.31607 19.7956 5 19 5ZM15 15C15 15.2652 14.8946 15.5196 14.7071 15.7071C14.5196 15.8946 14.2652 16 14 16H5C4.73478 16 4.48043 15.8946 4.29289 15.7071C4.10536 15.5196 4 15.2652 4 15V9C4 8.73478 4.10536 8.48043 4.29289 8.29289C4.48043 8.10536 4.73478 8 5 8H14C14.2652 8 14.5196 8.10536 14.7071 8.29289C14.8946 8.48043 15 8.73478 15 9V15ZM18 15C17.8022 15 17.6089 14.9414 17.4444 14.8315C17.28 14.7216 17.1518 14.5654 17.0761 14.3827C17.0004 14.2 16.9806 13.9989 17.0192 13.8049C17.0578 13.6109 17.153 13.4327 17.2929 13.2929C17.4327 13.153 17.6109 13.0578 17.8049 13.0192C17.9989 12.9806 18.2 13.0004 18.3827 13.0761C18.5654 13.1518 18.7216 13.28 18.8315 13.4444C18.9414 13.6089 19 13.8022 19 14C19 14.2652 18.8946 14.5196 18.7071 14.7071C18.5196 14.8946 18.2652 15 18 15ZM18 11C17.8022 11 17.6089 10.9414 17.4444 10.8315C17.28 10.7216 17.1518 10.5654 17.0761 10.3827C17.0004 10.2 16.9806 9.99889 17.0192 9.80491C17.0578 9.61093 17.153 9.43275 17.2929 9.29289C17.4327 9.15304 17.6109 9.0578 17.8049 9.01921C17.9989 8.98063 18.2 9.00043 18.3827 9.07612C18.5654 9.15181 18.7216 9.27998 18.8315 9.44443C18.9414 9.60888 19 9.80222 19 10C19 10.2652 18.8946 10.5196 18.7071 10.7071C18.5196 10.8946 18.2652 11 18 11Z" fill="#141414"/>
</svg>
