<svg width="24" height="24" viewBox="0 0 24 24" fill="none" xmlns="http://www.w3.org/2000/svg">
<path d="M10.16 5.86989L9.92 7.29989C9.90284 7.41174 9.91714 7.52617 9.96129 7.63036C10.0054 7.73455 10.0777 7.82441 10.17 7.88989C10.2732 7.96047 10.395 7.99876 10.52 7.99989C10.6211 8.00179 10.7209 7.97768 10.81 7.92989L12 7.26989L13.19 7.92989C13.2791 7.97768 13.3789 8.00179 13.48 7.99989C13.605 7.99876 13.7268 7.96047 13.83 7.88989C13.9223 7.82441 13.9946 7.73455 14.0387 7.63036C14.0829 7.52617 14.0972 7.41174 14.08 7.29989L13.84 5.86989L14.84 4.86989C14.9137 4.79055 14.9645 4.69276 14.9871 4.58686C15.0098 4.48097 15.0033 4.37094 14.9684 4.26842C14.9336 4.1659 14.8716 4.07473 14.7892 4.00457C14.7067 3.93441 14.6068 3.88787 14.5 3.86989L13.16 3.66989L12.55 2.37989C12.5039 2.27511 12.4283 2.18601 12.3324 2.12345C12.2365 2.0609 12.1245 2.02759 12.01 2.02759C11.8955 2.02759 11.7835 2.0609 11.6876 2.12345C11.5917 2.18601 11.5161 2.27511 11.47 2.37989L10.86 3.66989L9.52 3.86989C9.41322 3.88787 9.3133 3.93441 9.23083 4.00457C9.14836 4.07473 9.08641 4.1659 9.05156 4.26842C9.0167 4.37094 9.01024 4.48097 9.03285 4.58686C9.05546 4.69276 9.10631 4.79055 9.18 4.86989L10.16 5.86989ZM18 9.99989H6C5.46957 9.99989 4.96086 10.2106 4.58579 10.5857C4.21071 10.9607 4 11.4695 4 11.9999C4 12.5303 4.21071 13.039 4.58579 13.4141C4.96086 13.7892 5.46957 13.9999 6 13.9999V19.9999C6 20.5303 6.21071 21.039 6.58579 21.4141C6.96086 21.7892 7.46957 21.9999 8 21.9999H16C16.5304 21.9999 17.0391 21.7892 17.4142 21.4141C17.7893 21.039 18 20.5303 18 19.9999V13.9999C18.5304 13.9999 19.0391 13.7892 19.4142 13.4141C19.7893 13.039 20 12.5303 20 11.9999C20 11.4695 19.7893 10.9607 19.4142 10.5857C19.0391 10.2106 18.5304 9.99989 18 9.99989Z" fill="#141414"/>
</svg>
