<svg width="24" height="24" viewBox="0 0 24 24" fill="none" xmlns="http://www.w3.org/2000/svg">
<path d="M16 6H17C17 5.20435 16.6839 4.44129 16.1213 3.87868C15.5587 3.31607 14.7956 3 14 3H6C5.20435 3 4.44129 3.31607 3.87868 3.87868C3.31607 4.44129 3 5.20435 3 6V18C3 18.7956 3.31607 19.5587 3.87868 20.1213C4.44129 20.6839 5.20435 21 6 21H12.56C12.1964 20.396 12.003 19.705 12 19V10C12 8.93913 12.4214 7.92172 13.1716 7.17157C13.9217 6.42143 14.9391 6 16 6ZM10 19C9.80222 19 9.60888 18.9414 9.44443 18.8315C9.27998 18.7216 9.15181 18.5654 9.07612 18.3827C9.00043 18.2 8.98063 17.9989 9.01921 17.8049C9.0578 17.6109 9.15304 17.4327 9.29289 17.2929C9.43275 17.153 9.61093 17.0578 9.80491 17.0192C9.99889 16.9806 10.2 17.0004 10.3827 17.0761C10.5654 17.1518 10.7216 17.28 10.8315 17.4444C10.9414 17.6089 11 17.8022 11 18C11 18.2652 10.8946 18.5196 10.7071 18.7071C10.5196 18.8946 10.2652 19 10 19ZM19 8H16C15.4696 8 14.9609 8.21071 14.5858 8.58579C14.2107 8.96086 14 9.46957 14 10V19C14 19.5304 14.2107 20.0391 14.5858 20.4142C14.9609 20.7893 15.4696 21 16 21H19C19.5304 21 20.0391 20.7893 20.4142 20.4142C20.7893 20.0391 21 19.5304 21 19V10C21 9.46957 20.7893 8.96086 20.4142 8.58579C20.0391 8.21071 19.5304 8 19 8ZM17.5 19C17.3022 19 17.1089 18.9414 16.9444 18.8315C16.78 18.7216 16.6518 18.5654 16.5761 18.3827C16.5004 18.2 16.4806 17.9989 16.5192 17.8049C16.5578 17.6109 16.653 17.4327 16.7929 17.2929C16.9327 17.153 17.1109 17.0578 17.3049 17.0192C17.4989 16.9806 17.7 17.0004 17.8827 17.0761C18.0654 17.1518 18.2216 17.28 18.3315 17.4444C18.4414 17.6089 18.5 17.8022 18.5 18C18.5 18.2652 18.3946 18.5196 18.2071 18.7071C18.0196 18.8946 17.7652 19 17.5 19Z" fill="#141414"/>
</svg>
