<svg width="24" height="24" viewBox="0 0 24 24" fill="none" xmlns="http://www.w3.org/2000/svg">
<path d="M17 7.00019H18.59L18.29 7.29019C18.1963 7.38315 18.1219 7.49375 18.0711 7.61561C18.0203 7.73747 17.9942 7.86817 17.9942 8.00019C17.9942 8.1322 18.0203 8.2629 18.0711 8.38476C18.1219 8.50662 18.1963 8.61722 18.29 8.71019C18.383 8.80391 18.4936 8.87831 18.6154 8.92908C18.7373 8.97985 18.868 9.00598 19 9.00598C19.132 9.00598 19.2627 8.97985 19.3846 8.92908C19.5064 8.87831 19.617 8.80391 19.71 8.71019L21.71 6.71019C21.801 6.61508 21.8724 6.50294 21.92 6.38019C22.02 6.13672 22.02 5.86365 21.92 5.62019C21.8724 5.49743 21.801 5.38529 21.71 5.29019L19.71 3.29019C19.6168 3.19695 19.5061 3.12299 19.3842 3.07253C19.2624 3.02207 19.1319 2.99609 19 2.99609C18.7337 2.99609 18.4783 3.10188 18.29 3.29019C18.1017 3.47849 17.9959 3.73388 17.9959 4.00019C17.9959 4.26649 18.1017 4.52188 18.29 4.71019L18.59 5.00019H17C16.7348 5.00019 16.4804 5.10554 16.2929 5.29308C16.1054 5.48062 16 5.73497 16 6.00019C16 6.2654 16.1054 6.51976 16.2929 6.70729C16.4804 6.89483 16.7348 7.00019 17 7.00019ZM19 11.0002C17.6739 11.0002 16.4021 10.4734 15.4645 9.53572C14.5268 8.59804 14 7.32627 14 6.00019C14.0026 5.66449 14.0361 5.32974 14.1 5.00019H5C4.20435 5.00019 3.44129 5.31626 2.87868 5.87887C2.31607 6.44147 2 7.20454 2 8.00019V16.0002C2 16.7958 2.31607 17.5589 2.87868 18.1215C3.44129 18.6841 4.20435 19.0002 5 19.0002H19C19.7956 19.0002 20.5587 18.6841 21.1213 18.1215C21.6839 17.5589 22 16.7958 22 16.0002V10.0002C21.1345 10.6493 20.0819 11.0002 19 11.0002ZM11 11.0002C11 11.4467 10.9004 11.8876 10.7084 12.2907C10.5163 12.6937 10.2367 13.0489 9.89 13.3302L11.45 14.1102C11.6855 14.2301 11.864 14.4383 11.9465 14.6894C12.0289 14.9405 12.0086 15.214 11.89 15.4502C11.8069 15.6151 11.6798 15.7538 11.5227 15.8509C11.3656 15.9479 11.1847 15.9996 11 16.0002C10.8431 16.0021 10.6883 15.9642 10.55 15.8902L6.55 13.8902C6.3507 13.7881 6.19144 13.6221 6.09772 13.4187C6.004 13.2153 5.98125 12.9864 6.03312 12.7685C6.08499 12.5507 6.20846 12.3566 6.38377 12.2173C6.55908 12.078 6.77608 12.0015 7 12.0002H8C8.26522 12.0002 8.51957 11.8948 8.70711 11.7073C8.89464 11.5198 9 11.2654 9 11.0002C9 10.735 8.89464 10.4806 8.70711 10.2931C8.51957 10.1055 8.26522 10.0002 8 10.0002H6C5.73478 10.0002 5.48043 9.89483 5.29289 9.70729C5.10536 9.51976 5 9.2654 5 9.00019C5 8.73497 5.10536 8.48062 5.29289 8.29308C5.48043 8.10554 5.73478 8.00019 6 8.00019H11C11.2652 8.00019 11.5196 8.10554 11.7071 8.29308C11.8946 8.48062 12 8.73497 12 9.00019C12 9.2654 11.8946 9.51976 11.7071 9.70729C11.5196 9.89483 11.2652 10.0002 11 10.0002H10.82C10.9364 10.3209 10.9973 10.659 11 11.0002Z" fill="#141414"/>
</svg>
