<svg width="24" height="24" viewBox="0 0 24 24" fill="none" xmlns="http://www.w3.org/2000/svg">
<path d="M19 8.00008H18V7.69008C17.9997 7.2975 17.8838 6.91369 17.6669 6.58649C17.4499 6.2593 17.1415 6.00319 16.78 5.85008L12.78 4.16008C12.5332 4.05557 12.268 4.00171 12 4.00171C11.732 4.00171 11.4668 4.05557 11.22 4.16008L7.22 5.85008C6.8585 6.00319 6.55006 6.2593 6.33312 6.58649C6.11617 6.91369 6.00032 7.2975 6 7.69008V8.00008H5C4.20435 8.00008 3.44129 8.31615 2.87868 8.87876C2.31607 9.44137 2 10.2044 2 11.0001V13.0001C2 13.7957 2.31607 14.5588 2.87868 15.1214C3.44129 15.684 4.20435 16.0001 5 16.0001H6C6.10786 17.0844 6.61074 18.0913 7.41288 18.8289C8.21502 19.5665 9.26041 19.9833 10.35 20.0001H13.55C14.6569 20.008 15.7268 19.6022 16.55 18.8623C17.3732 18.1223 17.8903 17.1015 18 16.0001H19C19.7956 16.0001 20.5587 15.684 21.1213 15.1214C21.6839 14.5588 22 13.7957 22 13.0001V11.0001C22 10.2044 21.6839 9.44137 21.1213 8.87876C20.5587 8.31615 19.7956 8.00008 19 8.00008ZM6 14.0001H5C4.73478 14.0001 4.48043 13.8947 4.29289 13.7072C4.10536 13.5196 4 13.2653 4 13.0001V11.0001C4 10.7349 4.10536 10.4805 4.29289 10.293C4.48043 10.1054 4.73478 10.0001 5 10.0001H6V14.0001ZM20 13.0001C20 13.2653 19.8946 13.5196 19.7071 13.7072C19.5196 13.8947 19.2652 14.0001 19 14.0001H18V10.0001H19C19.2652 10.0001 19.5196 10.1054 19.7071 10.293C19.8946 10.4805 20 10.7349 20 11.0001V13.0001Z" fill="#141414"/>
</svg>
