<svg width="24" height="24" viewBox="0 0 24 24" fill="none" xmlns="http://www.w3.org/2000/svg">
<path d="M18.56 3.16995C18.4249 3.07873 18.2695 3.02194 18.1074 3.00451C17.9453 2.98708 17.7814 3.00955 17.63 3.06995L7.62999 7.06995C7.44392 7.14405 7.2844 7.27232 7.17207 7.43813C7.05974 7.60395 6.99979 7.79967 6.99999 7.99995V15.1799C6.39924 14.9676 5.74647 14.952 5.13626 15.1354C4.52606 15.3189 3.99011 15.6918 3.60608 16.2003C3.22205 16.7088 3.00989 17.3263 3.00034 17.9634C2.99078 18.6005 3.18434 19.2241 3.55295 19.7439C3.92156 20.2636 4.44609 20.6525 5.05052 20.8542C5.65495 21.0558 6.3079 21.0598 6.91474 20.8655C7.52159 20.6712 8.05081 20.2888 8.42573 19.7736C8.80064 19.2583 9.00178 18.6371 8.99999 17.9999V8.67995L17 5.47995V12.1799C16.3992 11.9676 15.7465 11.952 15.1363 12.1354C14.5261 12.3189 13.9901 12.6918 13.6061 13.2003C13.2221 13.7088 13.0099 14.3263 13.0003 14.9634C12.9908 15.6005 13.1843 16.2241 13.553 16.7439C13.9216 17.2636 14.4461 17.6525 15.0505 17.8542C15.655 18.0558 16.3079 18.0598 16.9147 17.8655C17.5216 17.6712 18.0508 17.2888 18.4257 16.7736C18.8006 16.2583 19.0018 15.6371 19 14.9999V3.99995C19.0002 3.83614 18.9602 3.67479 18.8835 3.53006C18.8068 3.38534 18.6957 3.26168 18.56 3.16995Z" fill="#141414"/>
</svg>
