<svg width="24" height="24" viewBox="0 0 24 24" fill="none" xmlns="http://www.w3.org/2000/svg">
<path d="M20.19 2.40016C19.9407 2.21555 19.652 2.09145 19.3465 2.03764C19.0411 1.98384 18.7273 2.00182 18.43 2.09016L10.43 4.49016C10.0181 4.61263 9.65653 4.86454 9.39896 5.20856C9.1414 5.55257 9.0015 5.97041 8.99998 6.40016V14.5502C8.23689 14.1096 7.34968 13.9333 6.47613 14.0487C5.60258 14.1641 4.79158 14.5647 4.16907 15.1884C3.54656 15.812 3.14739 16.6237 3.03354 17.4974C2.91968 18.3712 3.09753 19.2581 3.53945 20.0204C3.98136 20.7827 4.66263 21.3778 5.47744 21.7132C6.29225 22.0486 7.195 22.1055 8.04551 21.8752C8.89602 21.6449 9.64668 21.1402 10.1809 20.4395C10.7152 19.7388 11.0031 18.8813 11 18.0002V6.40016L19 4.00016V12.5502C18.2369 12.1096 17.3497 11.9333 16.4761 12.0487C15.6026 12.1641 14.7916 12.5647 14.1691 13.1884C13.5466 13.812 13.1474 14.6237 13.0335 15.4974C12.9197 16.3712 13.0975 17.2581 13.5394 18.0204C13.9814 18.7827 14.6626 19.3778 15.4774 19.7132C16.2922 20.0486 17.195 20.1055 18.0455 19.8752C18.896 19.6449 19.6467 19.1402 20.1809 18.4395C20.7152 17.7388 21.0031 16.8813 21 16.0002V4.00016C20.9988 3.68882 20.925 3.38205 20.7844 3.10428C20.6437 2.82651 20.4402 2.5854 20.19 2.40016Z" fill="#141414"/>
</svg>
