<svg width="24" height="24" viewBox="0 0 24 24" fill="none" xmlns="http://www.w3.org/2000/svg">
<path d="M6 19C5.46957 19 4.96086 18.7893 4.58579 18.4142C4.21071 18.0391 4 17.5304 4 17V7C4 6.46957 4.21071 5.96086 4.58579 5.58579C4.96086 5.21071 5.46957 5 6 5H20C20.5663 4.9995 21.126 5.12235 21.64 5.36C21.3245 4.6582 20.8133 4.06228 20.1677 3.64369C19.5221 3.2251 18.7694 3.00161 18 3H6C4.93913 3 3.92172 3.42143 3.17157 4.17157C2.42143 4.92172 2 5.93913 2 7V17C2 18.0609 2.42143 19.0783 3.17157 19.8284C3.92172 20.5786 4.93913 21 6 21H12.56C12.1964 20.396 12.003 19.705 12 19H6ZM20 7H16C15.4696 7 14.9609 7.21071 14.5858 7.58579C14.2107 7.96086 14 8.46957 14 9V19C14 19.5304 14.2107 20.0391 14.5858 20.4142C14.9609 20.7893 15.4696 21 16 21H20C20.5304 21 21.0391 20.7893 21.4142 20.4142C21.7893 20.0391 22 19.5304 22 19V9C22 8.46957 21.7893 7.96086 21.4142 7.58579C21.0391 7.21071 20.5304 7 20 7ZM18 19C17.8022 19 17.6089 18.9414 17.4444 18.8315C17.28 18.7216 17.1518 18.5654 17.0761 18.3827C17.0004 18.2 16.9806 17.9989 17.0192 17.8049C17.0578 17.6109 17.153 17.4327 17.2929 17.2929C17.4327 17.153 17.6109 17.0578 17.8049 17.0192C17.9989 16.9806 18.2 17.0004 18.3827 17.0761C18.5654 17.1518 18.7216 17.28 18.8315 17.4444C18.9414 17.6089 19 17.8022 19 18C19 18.2652 18.8946 18.5196 18.7071 18.7071C18.5196 18.8946 18.2652 19 18 19ZM6.37 8V16C6.37 16.2652 6.47536 16.5196 6.66289 16.7071C6.85043 16.8946 7.10478 17 7.37 17H12V9C12.003 8.29504 12.1964 7.60399 12.56 7H7.37C7.10478 7 6.85043 7.10536 6.66289 7.29289C6.47536 7.48043 6.37 7.73478 6.37 8Z" fill="#141414"/>
</svg>
