<svg width="24" height="24" viewBox="0 0 24 24" fill="none" xmlns="http://www.w3.org/2000/svg">
<path d="M19.2701 2.72992C18.7985 2.26457 18.1626 2.00366 17.5001 2.00366C16.8376 2.00366 16.2017 2.26457 15.7301 2.72992L14.2301 4.22992C13.8873 4.57446 13.6519 5.01111 13.5525 5.48685C13.4531 5.96258 13.494 6.45695 13.6701 6.90992L12.2901 8.28992C12.1633 8.41924 12.074 8.58058 12.0317 8.75671C11.9894 8.93283 11.9958 9.11713 12.0501 9.28992L12.8601 11.6999L11.2101 13.3499L9.4101 11.5599C9.03538 11.1874 8.52847 10.9783 8.0001 10.9783C7.47173 10.9783 6.96483 11.1874 6.5901 11.5599L5.5901 12.5599C5.27925 12.8569 5.07236 13.2461 5.0001 13.6699L4.0001 19.6699C3.95174 19.9588 3.96743 20.2548 4.04605 20.5369C4.12466 20.8191 4.26429 21.0805 4.45506 21.3028C4.64584 21.525 4.8831 21.7027 5.15007 21.8231C5.41705 21.9436 5.70723 22.0039 6.0001 21.9999C6.10988 22.0098 6.22032 22.0098 6.3301 21.9999L12.3301 20.9999C12.7395 20.9299 13.117 20.7342 13.4101 20.4399L14.4101 19.4399C14.7826 19.0652 14.9917 18.5583 14.9917 18.0299C14.9917 17.5016 14.7826 16.9946 14.4101 16.6199L12.6201 14.8199L14.7101 12.7399C14.8369 12.6106 14.9262 12.4493 14.9685 12.2731C15.0108 12.097 15.0044 11.9127 14.9501 11.7399L14.1401 9.32992L15.0901 8.38992C15.3844 8.48061 15.6926 8.51787 16.0001 8.49992C16.3287 8.50106 16.6543 8.43714 16.9581 8.31185C17.2619 8.18656 17.5378 8.00238 17.7701 7.76992L19.2701 6.26992C19.7355 5.79833 19.9964 5.16245 19.9964 4.49992C19.9964 3.83739 19.7355 3.20151 19.2701 2.72992Z" fill="#141414"/>
</svg>
