<svg width="24" height="24" viewBox="0 0 24 24" fill="none" xmlns="http://www.w3.org/2000/svg">
<path d="M8 20H6C5.73478 20 5.48043 20.1054 5.29289 20.2929C5.10536 20.4804 5 20.7348 5 21C5 21.2652 5.10536 21.5196 5.29289 21.7071C5.48043 21.8946 5.73478 22 6 22H8C8.26522 22 8.51957 21.8946 8.70711 21.7071C8.89464 21.5196 9 21.2652 9 21C9 20.7348 8.89464 20.4804 8.70711 20.2929C8.51957 20.1054 8.26522 20 8 20ZM14 2H10C8.4087 2 6.88258 2.63214 5.75736 3.75736C4.63214 4.88258 4 6.4087 4 8V15C4 15.7956 4.31607 16.5587 4.87868 17.1213C5.44129 17.6839 6.20435 18 7 18H17C17.7956 18 18.5587 17.6839 19.1213 17.1213C19.6839 16.5587 20 15.7956 20 15V8C20 6.4087 19.3679 4.88258 18.2426 3.75736C17.1174 2.63214 15.5913 2 14 2ZM7 15C6.80222 15 6.60888 14.9414 6.44443 14.8315C6.27998 14.7216 6.15181 14.5654 6.07612 14.3827C6.00043 14.2 5.98063 13.9989 6.01921 13.8049C6.0578 13.6109 6.15304 13.4327 6.29289 13.2929C6.43275 13.153 6.61093 13.0578 6.80491 13.0192C6.99889 12.9806 7.19996 13.0004 7.38268 13.0761C7.56541 13.1518 7.72159 13.28 7.83147 13.4444C7.94135 13.6089 8 13.8022 8 14C8 14.2652 7.89464 14.5196 7.70711 14.7071C7.51957 14.8946 7.26522 15 7 15ZM11 10C11 10.2652 10.8946 10.5196 10.7071 10.7071C10.5196 10.8946 10.2652 11 10 11H7C6.73478 11 6.48043 10.8946 6.29289 10.7071C6.10536 10.5196 6 10.2652 6 10V8C6 7.73478 6.10536 7.48043 6.29289 7.29289C6.48043 7.10536 6.73478 7 7 7H10C10.2652 7 10.5196 7.10536 10.7071 7.29289C10.8946 7.48043 11 7.73478 11 8V10ZM17 15C16.8022 15 16.6089 14.9414 16.4444 14.8315C16.28 14.7216 16.1518 14.5654 16.0761 14.3827C16.0004 14.2 15.9806 13.9989 16.0192 13.8049C16.0578 13.6109 16.153 13.4327 16.2929 13.2929C16.4327 13.153 16.6109 13.0578 16.8049 13.0192C16.9989 12.9806 17.2 13.0004 17.3827 13.0761C17.5654 13.1518 17.7216 13.28 17.8315 13.4444C17.9414 13.6089 18 13.8022 18 14C18 14.2652 17.8946 14.5196 17.7071 14.7071C17.5196 14.8946 17.2652 15 17 15ZM18 10C18 10.2652 17.8946 10.5196 17.7071 10.7071C17.5196 10.8946 17.2652 11 17 11H14C13.7348 11 13.4804 10.8946 13.2929 10.7071C13.1054 10.5196 13 10.2652 13 10V8C13 7.73478 13.1054 7.48043 13.2929 7.29289C13.4804 7.10536 13.7348 7 14 7H17C17.2652 7 17.5196 7.10536 17.7071 7.29289C17.8946 7.48043 18 7.73478 18 8V10ZM18 20H16C15.7348 20 15.4804 20.1054 15.2929 20.2929C15.1054 20.4804 15 20.7348 15 21C15 21.2652 15.1054 21.5196 15.2929 21.7071C15.4804 21.8946 15.7348 22 16 22H18C18.2652 22 18.5196 21.8946 18.7071 21.7071C18.8946 21.5196 19 21.2652 19 21C19 20.7348 18.8946 20.4804 18.7071 20.2929C18.5196 20.1054 18.2652 20 18 20Z" fill="#141414"/>
</svg>
