<svg width="24" height="24" viewBox="0 0 24 24" fill="none" xmlns="http://www.w3.org/2000/svg">
<path d="M15 2H9C8.20435 2 7.44129 2.31607 6.87868 2.87868C6.31607 3.44129 6 4.20435 6 5V19C6 19.7956 6.31607 20.5587 6.87868 21.1213C7.44129 21.6839 8.20435 22 9 22H15C15.7956 22 16.5587 21.6839 17.1213 21.1213C17.6839 20.5587 18 19.7956 18 19V5C18 4.20435 17.6839 3.44129 17.1213 2.87868C16.5587 2.31607 15.7956 2 15 2ZM12 20C11.7528 20 11.5111 19.9267 11.3055 19.7893C11.1 19.652 10.9398 19.4568 10.8452 19.2284C10.7505 18.9999 10.7258 18.7486 10.774 18.5061C10.8222 18.2637 10.9413 18.0409 11.1161 17.8661C11.2909 17.6913 11.5137 17.5723 11.7561 17.524C11.9986 17.4758 12.2499 17.5005 12.4784 17.5951C12.7068 17.6898 12.902 17.85 13.0393 18.0555C13.1767 18.2611 13.25 18.5028 13.25 18.75C13.25 19.0815 13.1183 19.3995 12.8839 19.6339C12.6495 19.8683 12.3315 20 12 20Z" fill="#141414"/>
</svg>
