<svg width="24" height="24" viewBox="0 0 24 24" fill="none" xmlns="http://www.w3.org/2000/svg">
<path d="M20 14.1801V11.8301C19.9993 11.0347 19.6828 10.2721 19.12 9.71006L18 8.59006V8.00006H19C19.2652 8.00006 19.5196 7.8947 19.7071 7.70717C19.8946 7.51963 20 7.26528 20 7.00006V5.00006C20.0012 4.75129 19.9097 4.51099 19.7433 4.32608C19.5769 4.14118 19.3475 4.02493 19.1 4.00006C18.8291 3.9865 18.5582 4.02819 18.3039 4.12261C18.0496 4.21703 17.8171 4.3622 17.6207 4.54928C17.4242 4.73637 17.2679 4.96146 17.1612 5.21087C17.0545 5.46028 16.9997 5.72879 17 6.00006H15C14.7348 6.00006 14.4804 6.10542 14.2929 6.29295C14.1054 6.48049 14 6.73484 14 7.00006C14 7.26528 14.1054 7.51963 14.2929 7.70717C14.4804 7.8947 14.7348 8.00006 15 8.00006H16V12.5001C16 12.8979 15.842 13.2794 15.5607 13.5607C15.2794 13.842 14.8978 14.0001 14.5 14.0001H11.5C11.1022 14.0001 10.7206 13.842 10.4393 13.5607C10.158 13.2794 10 12.8979 10 12.5001V9.00006C10 8.73484 9.89464 8.48049 9.70711 8.29295C9.51957 8.10542 9.26522 8.00006 9 8.00006H4C3.73478 8.00006 3.48043 8.10542 3.29289 8.29295C3.10536 8.48049 3 8.73484 3 9.00006C3 9.26528 3.10536 9.51963 3.29289 9.70717C3.48043 9.8947 3.73478 10.0001 4 10.0001H5C4.20435 10.0001 3.44129 10.3161 2.87868 10.8787C2.31607 11.4413 2 12.2044 2 13.0001V16.0001C2 16.2653 2.10536 16.5196 2.29289 16.7072C2.48043 16.8947 2.73478 17.0001 3 17.0001H4C4 17.7957 4.31607 18.5588 4.87868 19.1214C5.44129 19.684 6.20435 20.0001 7 20.0001C7.79565 20.0001 8.55871 19.684 9.12132 19.1214C9.68393 18.5588 10 17.7957 10 17.0001H16C15.9985 17.5504 16.1483 18.0906 16.4332 18.5615C16.7181 19.0323 17.1271 19.4158 17.6153 19.6698C18.1035 19.9238 18.6522 20.0387 19.2013 20.0017C19.7504 19.9648 20.2788 19.7775 20.7286 19.4604C21.1784 19.1433 21.5323 18.7086 21.7516 18.2038C21.9709 17.699 22.0471 17.1436 21.9718 16.5984C21.8966 16.0532 21.6729 15.5392 21.3251 15.1127C20.9773 14.6862 20.5189 14.3635 20 14.1801ZM7 18.0001C6.73478 18.0001 6.48043 17.8947 6.29289 17.7072C6.10536 17.5196 6 17.2653 6 17.0001H8C8 17.2653 7.89464 17.5196 7.70711 17.7072C7.51957 17.8947 7.26522 18.0001 7 18.0001ZM19 18.0001C18.7348 18.0001 18.4804 17.8947 18.2929 17.7072C18.1054 17.5196 18 17.2653 18 17.0001H19C19.1728 16.9973 19.3419 16.9498 19.4909 16.8621C19.6399 16.7745 19.7636 16.6498 19.85 16.5001C19.9434 16.6505 19.9951 16.8231 20 17.0001C20 17.2653 19.8946 17.5196 19.7071 17.7072C19.5196 17.8947 19.2652 18.0001 19 18.0001Z" fill="#141414"/>
</svg>
