<svg width="24" height="24" viewBox="0 0 24 24" fill="none" xmlns="http://www.w3.org/2000/svg">
<path d="M5.5 10.5C5.20333 10.5 4.91332 10.588 4.66665 10.7528C4.41997 10.9176 4.22771 11.1519 4.11418 11.426C4.00065 11.7001 3.97094 12.0017 4.02882 12.2926C4.0867 12.5836 4.22956 12.8509 4.43934 13.0607C4.64912 13.2704 4.91639 13.4133 5.20737 13.4712C5.49834 13.5291 5.79994 13.4994 6.07403 13.3858C6.34811 13.2723 6.58238 13.08 6.74721 12.8334C6.91203 12.5867 7 12.2967 7 12C7 11.6022 6.84197 11.2206 6.56066 10.9393C6.27936 10.658 5.89783 10.5 5.5 10.5ZM12 10.5C11.7033 10.5 11.4133 10.588 11.1666 10.7528C10.92 10.9176 10.7277 11.1519 10.6142 11.426C10.5006 11.7001 10.4709 12.0017 10.5288 12.2926C10.5867 12.5836 10.7296 12.8509 10.9393 13.0607C11.1491 13.2704 11.4164 13.4133 11.7074 13.4712C11.9983 13.5291 12.2999 13.4994 12.574 13.3858C12.8481 13.2723 13.0824 13.08 13.2472 12.8334C13.412 12.5867 13.5 12.2967 13.5 12C13.5 11.6022 13.342 11.2206 13.0607 10.9393C12.7794 10.658 12.3978 10.5 12 10.5ZM18.5 10.5C18.2033 10.5 17.9133 10.588 17.6666 10.7528C17.42 10.9176 17.2277 11.1519 17.1142 11.426C17.0007 11.7001 16.9709 12.0017 17.0288 12.2926C17.0867 12.5836 17.2296 12.8509 17.4393 13.0607C17.6491 13.2704 17.9164 13.4133 18.2074 13.4712C18.4983 13.5291 18.7999 13.4994 19.074 13.3858C19.3481 13.2723 19.5824 13.08 19.7472 12.8334C19.912 12.5867 20 12.2967 20 12C20 11.6022 19.842 11.2206 19.5607 10.9393C19.2794 10.658 18.8978 10.5 18.5 10.5Z" fill="#141414"/>
</svg>
