<svg width="24" height="24" viewBox="0 0 24 24" fill="none" xmlns="http://www.w3.org/2000/svg">
<path d="M1.99983 4.91019V13.6202C1.99358 14.0497 2.07963 14.4755 2.25215 14.8688C2.42467 15.2622 2.67964 15.6139 2.99983 15.9002L7.80983 20.0002C8.01213 20.1694 8.24697 20.2953 8.49983 20.3702V6.64019L4.36983 3.69019C4.14561 3.53054 3.88178 3.43567 3.60724 3.41596C3.3327 3.39625 3.05802 3.45246 2.8133 3.57844C2.56857 3.70442 2.36322 3.8953 2.21974 4.1302C2.07626 4.36509 2.00018 4.63494 1.99983 4.91019ZM21.1198 8.12019L17.1198 4.12019C16.9508 3.95469 16.7546 3.8194 16.5398 3.72019V16.5002L19.4798 19.4402C19.6913 19.6365 19.955 19.7677 20.2391 19.8179C20.5233 19.8682 20.8159 19.8354 21.0819 19.7235C21.3479 19.6116 21.576 19.4254 21.7388 19.1871C21.9016 18.9488 21.9923 18.6687 21.9998 18.3802V10.2402C21.9991 9.4448 21.6826 8.68226 21.1198 8.12019ZM9.49983 6.71019V20.4002C9.77676 20.3569 10.0401 20.2508 10.2698 20.0902L15.4998 16.3602V3.52019C15.2094 3.54121 14.9266 3.62297 14.6698 3.76019L9.49983 6.71019Z" fill="#141414"/>
</svg>
