<svg width="24" height="24" viewBox="0 0 24 24" fill="none" xmlns="http://www.w3.org/2000/svg">
<path d="M14 11H13V10C13 9.73478 12.8946 9.48043 12.7071 9.29289C12.5196 9.10536 12.2652 9 12 9C11.7348 9 11.4804 9.10536 11.2929 9.29289C11.1054 9.48043 11 9.73478 11 10V11H10C9.73478 11 9.48043 11.1054 9.29289 11.2929C9.10536 11.4804 9 11.7348 9 12C9 12.2652 9.10536 12.5196 9.29289 12.7071C9.48043 12.8946 9.73478 13 10 13H11V14C11 14.2652 11.1054 14.5196 11.2929 14.7071C11.4804 14.8946 11.7348 15 12 15C12.2652 15 12.5196 14.8946 12.7071 14.7071C12.8946 14.5196 13 14.2652 13 14V13H14C14.2652 13 14.5196 12.8946 14.7071 12.7071C14.8946 12.5196 15 12.2652 15 12C15 11.7348 14.8946 11.4804 14.7071 11.2929C14.5196 11.1054 14.2652 11 14 11ZM20.46 4.68C20.1284 4.29684 19.6638 4.05381 19.16 4C16.9552 3.76898 14.8088 3.14942 12.82 2.17C12.5648 2.04466 12.2843 1.97949 12 1.97949C11.7157 1.97949 11.4352 2.04466 11.18 2.17C9.20579 3.15045 7.07225 3.77019 4.88 4C4.37562 4.04408 3.90514 4.27236 3.55837 4.64127C3.21159 5.01017 3.01282 5.49386 3 6V11C3 17.74 9.75 22 12 22C14.25 22 21 17.75 21 11V6C20.9883 5.50859 20.7961 5.03869 20.46 4.68ZM15.54 15.54C14.9581 16.1223 14.2414 16.552 13.4535 16.7908C12.6657 17.0296 11.8311 17.0701 11.0238 16.9089C10.2165 16.7476 9.46147 16.3895 8.82582 15.8664C8.19017 15.3432 7.69353 14.6712 7.38 13.91C6.9946 12.9906 6.89697 11.976 7.1 11C7.29597 10.0391 7.77018 9.15706 8.46362 8.46362C9.15706 7.77018 10.0391 7.29597 11 7.1C11.9696 6.90111 12.9766 6.99867 13.89 7.38C14.6512 7.69353 15.3232 8.19017 15.8464 8.82582C16.3695 9.46147 16.7276 10.2165 16.8889 11.0238C17.0501 11.8311 17.0096 12.6657 16.7708 13.4535C16.532 14.2414 16.1023 14.9581 15.52 15.54H15.54Z" fill="#141414"/>
</svg>
