<svg width="24" height="24" viewBox="0 0 24 24" fill="none" xmlns="http://www.w3.org/2000/svg">
<path d="M19.3202 2.16984L3.14016 9.28984C2.74915 9.45849 2.42613 9.75361 2.22294 10.1278C2.01974 10.5021 1.94815 10.9337 2.01965 11.3535C2.09116 11.7733 2.30161 12.1569 2.61723 12.4427C2.93286 12.7286 3.33537 12.9001 3.76016 12.9298L10.5302 13.4698L11.0702 20.2398C11.0999 20.6646 11.2714 21.0671 11.5573 21.3828C11.8431 21.6984 12.2267 21.9088 12.6465 21.9803C13.0663 22.0518 13.4979 21.9803 13.8722 21.7771C14.2464 21.5739 14.5415 21.2509 14.7102 20.8598L21.8302 4.67984C21.9872 4.32859 22.0339 3.93794 21.9641 3.55957C21.8942 3.18121 21.7112 2.83296 21.4391 2.56089C21.167 2.28883 20.8188 2.10578 20.4404 2.03595C20.0621 1.96612 19.6714 2.01281 19.3202 2.16984Z" fill="#141414"/>
</svg>
