<svg width="24" height="24" viewBox="0 0 24 24" fill="none" xmlns="http://www.w3.org/2000/svg">
<path d="M18.7 15.5L13.7 12.5C13.1823 12.1889 12.7539 11.7491 12.4565 11.2234C12.1591 10.6977 12.0028 10.104 12.0028 9.5C12.0028 8.896 12.1591 8.30229 12.4565 7.77659C12.7539 7.25089 13.1823 6.81111 13.7 6.5L16.2 5H4C3.46957 5 2.96086 5.21071 2.58579 5.58579C2.21071 5.96086 2 6.46957 2 7V16C2 16.5304 2.21071 17.0391 2.58579 17.4142C2.96086 17.7893 3.46957 18 4 18H20C20.5304 18 21.0391 17.7893 21.4142 17.4142C21.7893 17.0391 22 16.5304 22 16H20.5C19.8656 16.001 19.243 15.8281 18.7 15.5ZM15 19H9C8.73478 19 8.48043 19.1054 8.29289 19.2929C8.10536 19.4804 8 19.7348 8 20C8 20.2652 8.10536 20.5196 8.29289 20.7071C8.48043 20.8946 8.73478 21 9 21H15C15.2652 21 15.5196 20.8946 15.7071 20.7071C15.8946 20.5196 16 20.2652 16 20C16 19.7348 15.8946 19.4804 15.7071 19.2929C15.5196 19.1054 15.2652 19 15 19ZM20.5 11C20.3508 11.003 20.2027 11.0265 20.06 11.07L17.44 9.5L20.06 7.93C20.2027 7.97349 20.3508 7.99704 20.5 8C20.7835 7.99501 21.0598 7.90976 21.2968 7.75413C21.5339 7.59851 21.7219 7.37889 21.8392 7.12073C21.9565 6.86257 21.9983 6.57645 21.9596 6.29555C21.9209 6.01465 21.8033 5.75046 21.6206 5.53363C21.4379 5.3168 21.1975 5.1562 20.9272 5.07046C20.6569 4.98471 20.3678 4.97733 20.0935 5.04918C19.8192 5.12102 19.5709 5.26914 19.3774 5.47637C19.1838 5.68359 19.053 5.94144 19 6.22L15.94 8.07C15.7973 8.02651 15.6492 8.00296 15.5 8C15.1022 8 14.7206 8.15804 14.4393 8.43934C14.158 8.72064 14 9.10218 14 9.5C14 9.89782 14.158 10.2794 14.4393 10.5607C14.7206 10.842 15.1022 11 15.5 11C15.6492 10.997 15.7973 10.9735 15.94 10.93L19 12.78C19.053 13.0586 19.1838 13.3164 19.3774 13.5236C19.5709 13.7309 19.8192 13.879 20.0935 13.9508C20.3678 14.0227 20.6569 14.0153 20.9272 13.9295C21.1975 13.8438 21.4379 13.6832 21.6206 13.4664C21.8033 13.2495 21.9209 12.9854 21.9596 12.7044C21.9983 12.4235 21.9565 12.1374 21.8392 11.8793C21.7219 11.6211 21.5339 11.4015 21.2968 11.2459C21.0598 11.0902 20.7835 11.005 20.5 11Z" fill="#141414"/>
</svg>
