<svg width="24" height="24" viewBox="0 0 24 24" fill="none" xmlns="http://www.w3.org/2000/svg">
<path d="M18.29 8.71C18.3839 8.8026 18.4964 8.87419 18.62 8.92C18.8635 9.02002 19.1365 9.02002 19.38 8.92C19.5012 8.86936 19.6128 8.79833 19.71 8.71L21.71 6.71C21.8032 6.61676 21.8772 6.50607 21.9277 6.38425C21.9781 6.26243 22.0041 6.13186 22.0041 6C22.0041 5.86814 21.9781 5.73757 21.9277 5.61575C21.8772 5.49393 21.8032 5.38324 21.71 5.29C21.6168 5.19676 21.5061 5.1228 21.3842 5.07234C21.2624 5.02188 21.1319 4.99591 21 4.99591C20.8681 4.99591 20.7376 5.02188 20.6158 5.07234C20.4939 5.1228 20.3832 5.19676 20.29 5.29L20 5.59V4C20 3.73478 19.8946 3.48043 19.7071 3.29289C19.5196 3.10536 19.2652 3 19 3C18.7348 3 18.4804 3.10536 18.2929 3.29289C18.1054 3.48043 18 3.73478 18 4V5.59L17.71 5.29C17.617 5.19627 17.5064 5.12188 17.3846 5.07111C17.2627 5.02034 17.132 4.9942 17 4.9942C16.868 4.9942 16.7373 5.02034 16.6154 5.07111C16.4936 5.12188 16.383 5.19627 16.29 5.29C16.1963 5.38296 16.1219 5.49356 16.0711 5.61542C16.0203 5.73728 15.9942 5.86799 15.9942 6C15.9942 6.13201 16.0203 6.26272 16.0711 6.38458C16.1219 6.50644 16.1963 6.61704 16.29 6.71L18.29 8.71ZM19 11C17.6739 11 16.4021 10.4732 15.4645 9.53553C14.5268 8.59785 14 7.32608 14 6C14.0026 5.6643 14.0361 5.32956 14.1 5H5C4.20435 5 3.44129 5.31607 2.87868 5.87868C2.31607 6.44129 2 7.20435 2 8V16C2 16.7956 2.31607 17.5587 2.87868 18.1213C3.44129 18.6839 4.20435 19 5 19H19C19.7956 19 20.5587 18.6839 21.1213 18.1213C21.6839 17.5587 22 16.7956 22 16V10C21.1345 10.6491 20.0819 11 19 11ZM11 11C11 11.4465 10.9004 11.8874 10.7084 12.2905C10.5163 12.6936 10.2367 13.0487 9.89 13.33L11.45 14.11C11.6855 14.2299 11.864 14.4381 11.9465 14.6892C12.0289 14.9403 12.0086 15.2138 11.89 15.45C11.8069 15.6149 11.6798 15.7536 11.5227 15.8507C11.3656 15.9478 11.1847 15.9994 11 16C10.8431 16.0019 10.6883 15.964 10.55 15.89L6.55 13.89C6.3507 13.7879 6.19144 13.6219 6.09772 13.4185C6.004 13.2151 5.98125 12.9862 6.03312 12.7684C6.08499 12.5505 6.20846 12.3564 6.38377 12.2171C6.55908 12.0778 6.77608 12.0013 7 12H8C8.26522 12 8.51957 11.8946 8.70711 11.7071C8.89464 11.5196 9 11.2652 9 11C9 10.7348 8.89464 10.4804 8.70711 10.2929C8.51957 10.1054 8.26522 10 8 10H6C5.73478 10 5.48043 9.89464 5.29289 9.70711C5.10536 9.51957 5 9.26522 5 9C5 8.73478 5.10536 8.48043 5.29289 8.29289C5.48043 8.10536 5.73478 8 6 8H11C11.2652 8 11.5196 8.10536 11.7071 8.29289C11.8946 8.48043 12 8.73478 12 9C12 9.26522 11.8946 9.51957 11.7071 9.70711C11.5196 9.89464 11.2652 10 11 10H10.82C10.9364 10.3207 10.9973 10.6589 11 11Z" fill="#141414"/>
</svg>
