<svg width="24" height="24" viewBox="0 0 24 24" fill="none" xmlns="http://www.w3.org/2000/svg">
<path d="M21 4C20.7348 4 20.4804 4.10536 20.2929 4.29289C20.1054 4.48043 20 4.73478 20 5V5.5L4 10C4 9.73478 3.89464 9.48043 3.70711 9.29289C3.51957 9.10536 3.26522 9 3 9C2.73478 9 2.48043 9.10536 2.29289 9.29289C2.10536 9.48043 2 9.73478 2 10V14C2 14.2652 2.10536 14.5196 2.29289 14.7071C2.48043 14.8946 2.73478 15 3 15C3.26522 15 3.51957 14.8946 3.70711 14.7071C3.89464 14.5196 4 14.2652 4 14L7 14.85C6.99512 14.8999 6.99512 14.9501 7 15C6.99773 15.8824 7.28733 16.7408 7.82369 17.4416C8.36005 18.1423 9.11306 18.646 9.96547 18.8742C10.8179 19.1024 11.7218 19.0423 12.5366 18.7034C13.3513 18.3644 14.0311 17.7655 14.47 17L20 18.5V19C20 19.2652 20.1054 19.5196 20.2929 19.7071C20.4804 19.8946 20.7348 20 21 20C21.2652 20 21.5196 19.8946 21.7071 19.7071C21.8946 19.5196 22 19.2652 22 19V5C22 4.73478 21.8946 4.48043 21.7071 4.29289C21.5196 4.10536 21.2652 4 21 4ZM11 17C10.5434 16.9988 10.1011 16.8414 9.74632 16.5539C9.39159 16.2665 9.14588 15.8664 9.05 15.42L12.45 16.42C12.2596 16.609 12.0331 16.7577 11.784 16.8574C11.5348 16.957 11.2682 17.0055 11 17Z" fill="#141414"/>
</svg>
