<svg width="24" height="24" viewBox="0 0 24 24" fill="none" xmlns="http://www.w3.org/2000/svg">
<path d="M11.9998 2.00003C9.87803 2.00003 7.8432 2.84288 6.34291 4.34317C4.84262 5.84347 3.99976 7.8783 3.99976 10V15.76L16.4198 3.34003C15.1131 2.46248 13.5738 1.99581 11.9998 2.00003ZM20.9998 16H19.9998V10C19.9986 8.72658 19.6935 7.4718 19.1098 6.34003L20.4898 5.00003C20.5876 4.90219 20.6652 4.78605 20.7182 4.65822C20.7711 4.53039 20.7984 4.39339 20.7984 4.25503C20.7984 4.11667 20.7711 3.97966 20.7182 3.85184C20.6652 3.72401 20.5876 3.60786 20.4898 3.51003C20.3919 3.41219 20.2758 3.33459 20.148 3.28164C20.0201 3.22869 19.8831 3.20144 19.7448 3.20144C19.6064 3.20144 19.4694 3.22869 19.3416 3.28164C19.2137 3.33459 19.0976 3.41219 18.9998 3.51003L3.50976 19C3.41193 19.0979 3.33432 19.214 3.28137 19.3418C3.22842 19.4697 3.20117 19.6067 3.20117 19.745C3.20117 19.8834 3.22842 20.0204 3.28137 20.1482C3.33432 20.276 3.41193 20.3922 3.50976 20.49C3.70735 20.6876 3.97533 20.7986 4.25476 20.7986C4.39312 20.7986 4.53012 20.7714 4.65795 20.7184C4.78578 20.6655 4.90193 20.5879 4.99976 20.49L7.43976 18H20.9998C21.265 18 21.5193 17.8947 21.7069 17.7071C21.8944 17.5196 21.9998 17.2652 21.9998 17C21.9998 16.7348 21.8944 16.4805 21.7069 16.2929C21.5193 16.1054 21.265 16 20.9998 16ZM11.9998 22C12.7954 22 13.5585 21.684 14.1211 21.1213C14.6837 20.5587 14.9998 19.7957 14.9998 19H8.99976C8.99976 19.7957 9.31583 20.5587 9.87844 21.1213C10.441 21.684 11.2041 22 11.9998 22Z" fill="#141414"/>
</svg>
