<svg width="24" height="24" viewBox="0 0 24 24" fill="none" xmlns="http://www.w3.org/2000/svg">
<path d="M6.5 3C6.20333 3 5.91332 3.08797 5.66665 3.2528C5.41997 3.41762 5.22771 3.65189 5.11418 3.92598C5.00065 4.20006 4.97094 4.50166 5.02882 4.79264C5.0867 5.08361 5.22956 5.35088 5.43934 5.56066C5.64912 5.77044 5.91639 5.9133 6.20737 5.97118C6.49834 6.02906 6.79994 5.99935 7.07403 5.88582C7.34811 5.77229 7.58238 5.58003 7.74721 5.33336C7.91203 5.08668 8 4.79667 8 4.5C8 4.10218 7.84197 3.72065 7.56066 3.43934C7.27936 3.15804 6.89783 3 6.5 3ZM12 18C11.7033 18 11.4133 18.088 11.1666 18.2528C10.92 18.4176 10.7277 18.6519 10.6142 18.926C10.5006 19.2001 10.4709 19.5017 10.5288 19.7926C10.5867 20.0836 10.7296 20.3509 10.9393 20.5607C11.1491 20.7704 11.4164 20.9133 11.7074 20.9712C11.9983 21.0291 12.2999 20.9993 12.574 20.8858C12.8481 20.7723 13.0824 20.58 13.2472 20.3334C13.412 20.0867 13.5 19.7967 13.5 19.5C13.5 19.1022 13.342 18.7206 13.0607 18.4393C12.7794 18.158 12.3978 18 12 18ZM6.5 8C6.20333 8 5.91332 8.08797 5.66665 8.2528C5.41997 8.41762 5.22771 8.65189 5.11418 8.92598C5.00065 9.20006 4.97094 9.50167 5.02882 9.79264C5.0867 10.0836 5.22956 10.3509 5.43934 10.5607C5.64912 10.7704 5.91639 10.9133 6.20737 10.9712C6.49834 11.0291 6.79994 10.9994 7.07403 10.8858C7.34811 10.7723 7.58238 10.58 7.74721 10.3334C7.91203 10.0867 8 9.79667 8 9.5C8 9.10218 7.84197 8.72064 7.56066 8.43934C7.27936 8.15804 6.89783 8 6.5 8ZM6.5 13C6.20333 13 5.91332 13.088 5.66665 13.2528C5.41997 13.4176 5.22771 13.6519 5.11418 13.926C5.00065 14.2001 4.97094 14.5017 5.02882 14.7926C5.0867 15.0836 5.22956 15.3509 5.43934 15.5607C5.64912 15.7704 5.91639 15.9133 6.20737 15.9712C6.49834 16.0291 6.79994 15.9994 7.07403 15.8858C7.34811 15.7723 7.58238 15.58 7.74721 15.3334C7.91203 15.0867 8 14.7967 8 14.5C8 14.1022 7.84197 13.7206 7.56066 13.4393C7.27936 13.158 6.89783 13 6.5 13ZM17.5 6C17.7967 6 18.0867 5.91203 18.3334 5.7472C18.58 5.58238 18.7723 5.34811 18.8858 5.07403C18.9994 4.79994 19.0291 4.49834 18.9712 4.20737C18.9133 3.91639 18.7704 3.64912 18.5607 3.43934C18.3509 3.22956 18.0836 3.0867 17.7926 3.02882C17.5017 2.97094 17.2001 3.00065 16.926 3.11418C16.6519 3.22771 16.4176 3.41997 16.2528 3.66665C16.088 3.91332 16 4.20333 16 4.5C16 4.89783 16.158 5.27936 16.4393 5.56066C16.7206 5.84197 17.1022 6 17.5 6ZM12 13C11.7033 13 11.4133 13.088 11.1666 13.2528C10.92 13.4176 10.7277 13.6519 10.6142 13.926C10.5006 14.2001 10.4709 14.5017 10.5288 14.7926C10.5867 15.0836 10.7296 15.3509 10.9393 15.5607C11.1491 15.7704 11.4164 15.9133 11.7074 15.9712C11.9983 16.0291 12.2999 15.9994 12.574 15.8858C12.8481 15.7723 13.0824 15.58 13.2472 15.3334C13.412 15.0867 13.5 14.7967 13.5 14.5C13.5 14.1022 13.342 13.7206 13.0607 13.4393C12.7794 13.158 12.3978 13 12 13ZM17.5 13C17.2033 13 16.9133 13.088 16.6666 13.2528C16.42 13.4176 16.2277 13.6519 16.1142 13.926C16.0007 14.2001 15.9709 14.5017 16.0288 14.7926C16.0867 15.0836 16.2296 15.3509 16.4393 15.5607C16.6491 15.7704 16.9164 15.9133 17.2074 15.9712C17.4983 16.0291 17.7999 15.9994 18.074 15.8858C18.3481 15.7723 18.5824 15.58 18.7472 15.3334C18.912 15.0867 19 14.7967 19 14.5C19 14.1022 18.842 13.7206 18.5607 13.4393C18.2794 13.158 17.8978 13 17.5 13ZM17.5 8C17.2033 8 16.9133 8.08797 16.6666 8.2528C16.42 8.41762 16.2277 8.65189 16.1142 8.92598C16.0007 9.20006 15.9709 9.50167 16.0288 9.79264C16.0867 10.0836 16.2296 10.3509 16.4393 10.5607C16.6491 10.7704 16.9164 10.9133 17.2074 10.9712C17.4983 11.0291 17.7999 10.9994 18.074 10.8858C18.3481 10.7723 18.5824 10.58 18.7472 10.3334C18.912 10.0867 19 9.79667 19 9.5C19 9.10218 18.842 8.72064 18.5607 8.43934C18.2794 8.15804 17.8978 8 17.5 8ZM12 3C11.7033 3 11.4133 3.08797 11.1666 3.2528C10.92 3.41762 10.7277 3.65189 10.6142 3.92598C10.5006 4.20006 10.4709 4.50166 10.5288 4.79264C10.5867 5.08361 10.7296 5.35088 10.9393 5.56066C11.1491 5.77044 11.4164 5.9133 11.7074 5.97118C11.9983 6.02906 12.2999 5.99935 12.574 5.88582C12.8481 5.77229 13.0824 5.58003 13.2472 5.33336C13.412 5.08668 13.5 4.79667 13.5 4.5C13.5 4.10218 13.342 3.72065 13.0607 3.43934C12.7794 3.15804 12.3978 3 12 3ZM12 8C11.7033 8 11.4133 8.08797 11.1666 8.2528C10.92 8.41762 10.7277 8.65189 10.6142 8.92598C10.5006 9.20006 10.4709 9.50167 10.5288 9.79264C10.5867 10.0836 10.7296 10.3509 10.9393 10.5607C11.1491 10.7704 11.4164 10.9133 11.7074 10.9712C11.9983 11.0291 12.2999 10.9994 12.574 10.8858C12.8481 10.7723 13.0824 10.58 13.2472 10.3334C13.412 10.0867 13.5 9.79667 13.5 9.5C13.5 9.10218 13.342 8.72064 13.0607 8.43934C12.7794 8.15804 12.3978 8 12 8Z" fill="#141414"/>
</svg>
