<svg width="24" height="24" viewBox="0 0 24 24" fill="none" xmlns="http://www.w3.org/2000/svg">
<path d="M4.78483 3.28995C4.69159 3.19671 4.5809 3.12275 4.45908 3.07229C4.33726 3.02183 4.20669 2.99585 4.07483 2.99585C3.94297 2.99585 3.81241 3.02183 3.69058 3.07229C3.56876 3.12275 3.45807 3.19671 3.36483 3.28995C3.17653 3.47825 3.07074 3.73364 3.07074 3.99995C3.07074 4.26625 3.17653 4.52164 3.36483 4.70995L9.24483 10.5899L3.95483 15.8799C3.66009 16.1546 3.42368 16.4858 3.25971 16.8538C3.09574 17.2218 3.00757 17.619 3.00047 18.0219C2.99336 18.4247 3.06746 18.8248 3.21834 19.1983C3.36923 19.5719 3.5938 19.9112 3.87868 20.1961C4.16355 20.481 4.50289 20.7056 4.87644 20.8564C5.25 21.0073 5.65011 21.0814 6.05292 21.0743C6.45573 21.0672 6.85299 20.979 7.22099 20.8151C7.58898 20.6511 7.92019 20.4147 8.19483 20.1199L13.4848 14.8299L19.3648 20.7099C19.4578 20.8037 19.5684 20.8781 19.6903 20.9288C19.8121 20.9796 19.9428 21.0057 20.0748 21.0057C20.2068 21.0057 20.3376 20.9796 20.4594 20.9288C20.5813 20.8781 20.6919 20.8037 20.7848 20.7099C20.8786 20.617 20.953 20.5064 21.0037 20.3845C21.0545 20.2627 21.0806 20.132 21.0806 19.9999C21.0806 19.8679 21.0545 19.7372 21.0037 19.6154C20.953 19.4935 20.8786 19.3829 20.7848 19.2899L4.78483 3.28995ZM21.7848 3.28995L20.7848 2.28995C20.6351 2.1415 20.4424 2.04415 20.234 2.01183C20.0257 1.9795 19.8125 2.01384 19.6248 2.10995L17.6248 3.10995C17.3898 3.22694 17.2102 3.43168 17.1248 3.67995L16.2048 6.45995L13.4848 9.16995L14.9048 10.5899L17.6148 7.86995L20.3948 6.99995C20.6431 6.91457 20.8478 6.73497 20.9648 6.49995L21.9648 4.49995C22.073 4.30678 22.114 4.08319 22.0814 3.86421C22.0489 3.64524 21.9445 3.44326 21.7848 3.28995Z" fill="#141414"/>
</svg>
