<svg width="24" height="24" viewBox="0 0 24 24" fill="none" xmlns="http://www.w3.org/2000/svg">
<path d="M20.19 13.41L17.8 12.08L16.7 7.67C16.16 5.51 14.23 4 12 4C9.77 4 7.84 5.51 7.3 7.67L6.2 12.08L3.81 13.41C2.69 14.03 2 15.21 2 16.49C2 18.43 3.58 20.01 5.52 20.01H7.43C7.16 19.4 7.01 18.72 7.01 18.01H6.01C5.46 18.01 5.01 17.56 5.01 17.01C5.01 16.46 5.46 16.01 6.01 16.01H7.01C8.11 16.01 9.01 16.91 9.01 18.01C9.01 19.66 10.36 21.01 12.01 21.01C13.66 21.01 15.01 19.66 15.01 18.01C15.01 16.91 15.91 16.01 17.01 16.01H18.01C18.56 16.01 19.01 16.46 19.01 17.01C19.01 17.56 18.56 18.01 18.01 18.01H17.01C17.01 18.72 16.86 19.4 16.59 20.01H18.5C20.44 20.01 22.02 18.43 22.02 16.49C22.02 15.21 21.33 14.03 20.21 13.41H20.19Z" fill="#141414"/>
</svg>
