<svg width="24" height="24" viewBox="0 0 24 24" fill="none" xmlns="http://www.w3.org/2000/svg">
<path d="M16.12 3.64012C15.268 2.83537 14.1989 2.29775 13.0449 2.09365C11.8908 1.88954 10.7023 2.02789 9.62592 2.4916C8.5496 2.95532 7.63264 3.7241 6.98826 4.70302C6.34389 5.68195 6.00031 6.82815 5.99995 8.00012C6.00087 8.3728 6.03771 8.74451 6.10995 9.11012C5.43046 9.26825 4.80415 9.60135 4.29318 10.0763C3.78222 10.5513 3.40436 11.1517 3.19714 11.8179C2.98991 12.484 2.96052 13.1928 3.11187 13.8738C3.26323 14.5548 3.59007 15.1844 4.05995 15.7001L16.12 3.64012ZM17.8899 9.11012C17.9622 8.74451 17.999 8.3728 18 8.00012C18.0102 7.8236 18.0102 7.64664 18 7.47012L20.49 5.00012C20.5878 4.90229 20.6654 4.78614 20.7183 4.65831C20.7713 4.53049 20.7985 4.39348 20.7985 4.25512C20.7985 4.11676 20.7713 3.97976 20.7183 3.85193C20.6654 3.7241 20.5878 3.60796 20.49 3.51012C20.3921 3.41229 20.276 3.33468 20.1481 3.28173C20.0203 3.22878 19.8833 3.20153 19.745 3.20153C19.6066 3.20153 19.4696 3.22878 19.3418 3.28173C19.2139 3.33468 19.0978 3.41229 19 3.51012L3.50995 19.0001C3.41212 19.098 3.33451 19.2141 3.28156 19.3419C3.22861 19.4698 3.20136 19.6068 3.20136 19.7451C3.20136 19.8835 3.22861 20.0205 3.28156 20.1483C3.33451 20.2761 3.41212 20.3923 3.50995 20.4901C3.70754 20.6877 3.97552 20.7987 4.25495 20.7987C4.39331 20.7987 4.53031 20.7715 4.65814 20.7185C4.78597 20.6656 4.90212 20.588 4.99995 20.4901L8.43995 17.0001H11V20.0001H8.99995C8.73473 20.0001 8.48038 20.1055 8.29284 20.293C8.10531 20.4806 7.99995 20.7349 7.99995 21.0001C7.99995 21.2653 8.10531 21.5197 8.29284 21.7072C8.48038 21.8948 8.73473 22.0001 8.99995 22.0001H15C15.2652 22.0001 15.5195 21.8948 15.7071 21.7072C15.8946 21.5197 16 21.2653 16 21.0001C16 20.7349 15.8946 20.4806 15.7071 20.293C15.5195 20.1055 15.2652 20.0001 15 20.0001H13V17.0001H17C17.9761 16.9902 18.9149 16.6236 19.6396 15.9695C20.3642 15.3153 20.8246 14.4187 20.934 13.4487C21.0434 12.4786 20.7943 11.502 20.2336 10.7029C19.6729 9.90378 18.8394 9.33727 17.8899 9.11012Z" fill="#141414"/>
</svg>
