<svg width="24" height="24" viewBox="0 0 24 24" fill="none" xmlns="http://www.w3.org/2000/svg">
<path d="M12 2C10.0222 2 8.08879 2.58649 6.4443 3.6853C4.79981 4.78412 3.51809 6.3459 2.76121 8.17317C2.00433 10.0004 1.8063 12.0111 2.19215 13.9509C2.578 15.8907 3.53041 17.6725 4.92894 19.0711C6.32746 20.4696 8.10929 21.422 10.0491 21.8079C11.9889 22.1937 13.9996 21.9957 15.8268 21.2388C17.6541 20.4819 19.2159 19.2002 20.3147 17.5557C21.4135 15.9112 22 13.9778 22 12C22 10.6868 21.7413 9.38642 21.2388 8.17317C20.7363 6.95991 19.9997 5.85752 19.0711 4.92893C18.1425 4.00035 17.0401 3.26375 15.8268 2.7612C14.6136 2.25866 13.3132 2 12 2ZM16.71 12.71L13.71 15.71C13.617 15.8037 13.5064 15.8781 13.3846 15.9289C13.2627 15.9797 13.132 16.0058 13 16.0058C12.868 16.0058 12.7373 15.9797 12.6154 15.9289C12.4936 15.8781 12.383 15.8037 12.29 15.71C12.1963 15.617 12.1219 15.5064 12.0711 15.3846C12.0203 15.2627 11.9942 15.132 11.9942 15C11.9942 14.868 12.0203 14.7373 12.0711 14.6154C12.1219 14.4936 12.1963 14.383 12.29 14.29L13.59 13H8C7.73479 13 7.48043 12.8946 7.2929 12.7071C7.10536 12.5196 7 12.2652 7 12C7 11.7348 7.10536 11.4804 7.2929 11.2929C7.48043 11.1054 7.73479 11 8 11H13.59L12.29 9.71C12.1017 9.5217 11.9959 9.2663 11.9959 9C11.9959 8.7337 12.1017 8.4783 12.29 8.29C12.4783 8.1017 12.7337 7.99591 13 7.99591C13.2663 7.99591 13.5217 8.1017 13.71 8.29L16.71 11.29C16.801 11.3851 16.8724 11.4972 16.92 11.62C17.02 11.8635 17.02 12.1365 16.92 12.38C16.8724 12.5028 16.801 12.6149 16.71 12.71Z" fill="#141414"/>
</svg>
