<svg width="24" height="24" viewBox="0 0 24 24" fill="none" xmlns="http://www.w3.org/2000/svg">
<path d="M19 15H18V13C18 12.4696 17.7893 11.9609 17.4142 11.5858C17.0391 11.2107 16.5304 11 16 11H13V9H14C14.5304 9 15.0391 8.78929 15.4142 8.41421C15.7893 8.03914 16 7.53043 16 7V5C16 4.46957 15.7893 3.96086 15.4142 3.58579C15.0391 3.21071 14.5304 3 14 3H10C9.46957 3 8.96086 3.21071 8.58579 3.58579C8.21071 3.96086 8 4.46957 8 5V7C8 7.53043 8.21071 8.03914 8.58579 8.41421C8.96086 8.78929 9.46957 9 10 9H11V11H8C7.46957 11 6.96086 11.2107 6.58579 11.5858C6.21071 11.9609 6 12.4696 6 13V15H5C4.46957 15 3.96086 15.2107 3.58579 15.5858C3.21071 15.9609 3 16.4696 3 17V19C3 19.5304 3.21071 20.0391 3.58579 20.4142C3.96086 20.7893 4.46957 21 5 21H9C9.53043 21 10.0391 20.7893 10.4142 20.4142C10.7893 20.0391 11 19.5304 11 19V17C11 16.4696 10.7893 15.9609 10.4142 15.5858C10.0391 15.2107 9.53043 15 9 15H8V13H16V15H15C14.4696 15 13.9609 15.2107 13.5858 15.5858C13.2107 15.9609 13 16.4696 13 17V19C13 19.5304 13.2107 20.0391 13.5858 20.4142C13.9609 20.7893 14.4696 21 15 21H19C19.5304 21 20.0391 20.7893 20.4142 20.4142C20.7893 20.0391 21 19.5304 21 19V17C21 16.4696 20.7893 15.9609 20.4142 15.5858C20.0391 15.2107 19.5304 15 19 15Z" fill="#141414"/>
</svg>
