<svg width="24" height="24" viewBox="0 0 24 24" fill="none" xmlns="http://www.w3.org/2000/svg">
<path d="M18 3H6C5.20435 3 4.44129 3.31607 3.87868 3.87868C3.31607 4.44129 3 5.20435 3 6V18C3 18.7956 3.31607 19.5587 3.87868 20.1213C4.44129 20.6839 5.20435 21 6 21H18C18.7956 21 19.5587 20.6839 20.1213 20.1213C20.6839 19.5587 21 18.7956 21 18V6C21 5.20435 20.6839 4.44129 20.1213 3.87868C19.5587 3.31607 18.7956 3 18 3ZM10 16C10 16.2652 9.89464 16.5196 9.70711 16.7071C9.51957 16.8946 9.26522 17 9 17C8.73478 17 8.48043 16.8946 8.29289 16.7071C8.10536 16.5196 8 16.2652 8 16V8C8.00048 7.8191 8.05003 7.64171 8.14336 7.48674C8.2367 7.33177 8.37032 7.20502 8.53 7.12C8.68202 7.03223 8.85446 6.98603 9.03 6.98603C9.20554 6.98603 9.37798 7.03223 9.53 7.12L12.53 9.12C12.724 9.2763 12.8527 9.49941 12.8909 9.74563C12.9291 9.99186 12.8739 10.2435 12.7363 10.4512C12.5987 10.6589 12.3884 10.8077 12.1468 10.8685C11.9052 10.9293 11.6496 10.8978 11.43 10.78L10 9.87V16ZM16 16C15.9995 16.1809 15.95 16.3583 15.8566 16.5133C15.7633 16.6682 15.6297 16.795 15.47 16.88C15.3136 16.9603 15.1389 16.9979 14.9633 16.9892C14.7877 16.9804 14.6176 16.9255 14.47 16.83L11.47 14.83C11.3474 14.7642 11.2398 14.6736 11.1543 14.5639C11.0687 14.4542 11.0069 14.3278 10.973 14.1929C10.939 14.058 10.9335 13.9174 10.957 13.7803C10.9804 13.6431 11.0322 13.5124 11.1091 13.3964C11.186 13.2804 11.2862 13.1817 11.4033 13.1067C11.5205 13.0316 11.6521 12.9819 11.7896 12.9606C11.9271 12.9393 12.0675 12.9469 12.2019 12.9829C12.3363 13.019 12.4616 13.0827 12.57 13.17L14.02 14.17V8C14.02 7.73478 14.1254 7.48043 14.3129 7.29289C14.5004 7.10536 14.7548 7 15.02 7C15.2852 7 15.5396 7.10536 15.7271 7.29289C15.9146 7.48043 16.02 7.73478 16.02 8L16 16Z" fill="#141414"/>
</svg>
