<svg width="24" height="24" viewBox="0 0 24 24" fill="none" xmlns="http://www.w3.org/2000/svg">
<path d="M18 3H6C4.35 3 3 4.35 3 6V18C3 19.65 4.35 21 6 21H18C19.65 21 21 19.65 21 18V6C21 4.35 19.65 3 18 3ZM19 18C19 18.55 18.55 19 18 19H6C5.45 19 5 18.55 5 18V6C5 5.45 5.45 5 6 5H18C18.55 5 19 5.45 19 6V18ZM12.86 8.5C12.5 7.88 11.49 7.88 11.13 8.5L7.63 14.5C7.45 14.81 7.45 15.19 7.63 15.5C7.81 15.81 8.14 16 8.5 16H15.5C15.86 16 16.19 15.81 16.37 15.5C16.55 15.19 16.55 14.81 16.37 14.5L12.87 8.5H12.86Z" fill="#141414"/>
</svg>
