<svg width="24" height="24" viewBox="0 0 24 24" fill="none" xmlns="http://www.w3.org/2000/svg">
<path d="M12.0001 18.0001C11.2044 18.0001 10.4414 18.3162 9.87875 18.8788C9.31614 19.4414 9.00007 20.2044 9.00007 21.0001C9.00007 21.2653 9.10542 21.5197 9.29296 21.7072C9.4805 21.8947 9.73485 22.0001 10.0001 22.0001H14.0001C14.2653 22.0001 14.5196 21.8947 14.7072 21.7072C14.8947 21.5197 15.0001 21.2653 15.0001 21.0001C15.0001 20.2044 14.684 19.4414 14.1214 18.8788C13.5588 18.3162 12.7957 18.0001 12.0001 18.0001ZM13.5001 15.5001C13.5001 15.2034 13.4121 14.9134 13.2473 14.6667C13.0824 14.4201 12.8482 14.2278 12.5741 14.1143C12.3 14.0007 11.9984 13.971 11.7074 14.0289C11.4165 14.0868 11.1492 14.2297 10.9394 14.4394C10.7296 14.6492 10.5868 14.9165 10.5289 15.2075C10.471 15.4984 10.5007 15.8 10.6142 16.0741C10.7278 16.3482 10.92 16.5825 11.1667 16.7473C11.4134 16.9121 11.7034 17.0001 12.0001 17.0001C12.3979 17.0001 12.7794 16.8421 13.0607 16.5608C13.342 16.2794 13.5001 15.8979 13.5001 15.5001ZM22.0001 10.0701C21.9198 9.77441 21.7526 9.50965 21.5201 9.31009L13.8501 2.70009C13.3398 2.24809 12.6817 1.99854 12.0001 1.99854C11.3184 1.99854 10.6603 2.24809 10.1501 2.70009L2.53007 9.31009C2.29135 9.51205 2.12025 9.7823 2.0398 10.0845C1.95934 10.3866 1.97339 10.7062 2.08007 11.0001C2.1777 11.2893 2.36293 11.5409 2.61007 11.7201C2.85166 11.9071 3.14491 12.0153 3.45007 12.0301H4.00007V19.0301C4.00007 19.8257 4.31614 20.5888 4.87875 21.1514C5.44135 21.714 6.20442 22.0301 7.00007 22.0301V15.0001C7.00007 14.2044 7.31614 13.4414 7.87875 12.8788C8.44136 12.3162 9.20442 12.0001 10.0001 12.0001H14.0001C14.7957 12.0001 15.5588 12.3162 16.1214 12.8788C16.684 13.4414 17.0001 14.2044 17.0001 15.0001V22.0001C17.7957 22.0001 18.5588 21.684 19.1214 21.1214C19.684 20.5588 20.0001 19.7957 20.0001 19.0001V12.0001H20.5501C20.8552 11.9853 21.1485 11.8771 21.3901 11.6901C21.6372 11.5109 21.8224 11.2593 21.9201 10.9701C22.0361 10.6848 22.064 10.3713 22.0001 10.0701Z" fill="#141414"/>
</svg>
