<svg width="24" height="24" viewBox="0 0 24 24" fill="none" xmlns="http://www.w3.org/2000/svg">
<path d="M22 12C22 10.69 20.82 9.72 19.06 9.07C20.12 6.74 19.67 5.53 19.06 4.93C18.14 4 16.62 4.16 14.92 4.93C14.27 3.18 13.31 2 12 2C10.69 2 9.73 3.18 9.07 4.93C7.37 4.16 5.85 4 4.93 4.93C4.33 5.53 3.93 6.74 4.93 9.07C3.18 9.72 2 10.69 2 12C2 13.31 3.18 14.28 4.94 14.93C3.88 17.26 4.33 18.47 4.94 19.07C5.16389 19.2853 5.42906 19.4529 5.71951 19.5629C6.00996 19.6729 6.31969 19.723 6.63 19.71C7.48281 19.6649 8.31702 19.4436 9.08 19.06C9.72 20.82 10.69 22 12 22C13.31 22 14.28 20.82 14.93 19.06C15.693 19.4436 16.5272 19.6649 17.38 19.71C17.6903 19.723 18 19.6729 18.2905 19.5629C18.5809 19.4529 18.8461 19.2853 19.07 19.07C19.67 18.47 20.12 17.26 19.07 14.93C20.82 14.28 22 13.31 22 12ZM17.38 6.27C17.4787 6.25863 17.5782 6.2835 17.66 6.34C17.72 6.4 17.86 7.02 17.13 8.51C16.68 8.41 16.21 8.33 15.74 8.26C15.67 7.79 15.59 7.33 15.49 6.89C16.0714 6.55732 16.7145 6.34638 17.38 6.27ZM14 12C14 12.28 14 12.54 14 12.8C13.8 13.01 13.62 13.21 13.42 13.41L12.83 13.99H11.18L10.59 13.41C10.39 13.21 10.21 13.01 10.01 12.8C10.01 12.54 10.01 12.28 10.01 12C10.01 11.72 10.01 11.46 10.01 11.2C10.21 10.99 10.39 10.79 10.59 10.59C10.79 10.39 10.99 10.2 11.19 10.01H12.81C13.01 10.2 13.21 10.38 13.41 10.59C13.61 10.8 13.79 10.99 13.99 11.2C14 11.46 14 11.72 14 12ZM13.64 8.05H13.7V8.12L13.64 8.05ZM10.36 8.05V8H10.42L10.36 8.05ZM8.05 10.37V10.31H8.11L8.05 10.37ZM8.05 13.63H8V13.57L8.05 13.63ZM10.37 16H10.3C10.3049 15.9769 10.3049 15.9531 10.3 15.93L10.37 16ZM13.63 16H13.56H13.63ZM16 13.63V13.69V13.63ZM16 10.37V10.43V10.37ZM12 4C12.25 4 12.73 4.65 13.15 5.91C12.77 6.16 12.38 6.43 12 6.71C11.62 6.43 11.23 6.16 10.85 5.91C11.27 4.65 11.75 4 12 4ZM6.34 6.34C6.42176 6.2835 6.52127 6.25863 6.62 6.27C7.28552 6.34638 7.92855 6.55732 8.51 6.89C8.41 7.33 8.33 7.79 8.26 8.26C7.79 8.33 7.32 8.41 6.87 8.51C6.14 7 6.28 6.4 6.34 6.34ZM4 12C4 11.75 4.65 11.27 5.91 10.85C6.16 11.23 6.43 11.61 6.72 12C6.43 12.39 6.16 12.77 5.91 13.15C4.65 12.73 4 12.25 4 12ZM6.34 17.66C6.28 17.6 6.14 16.98 6.87 15.49C7.32 15.59 7.79 15.67 8.26 15.74C8.33 16.21 8.41 16.67 8.51 17.12C7.32 17.71 6.52 17.83 6.34 17.66ZM12 20C11.75 20 11.27 19.35 10.85 18.08C11.23 17.84 11.62 17.57 12 17.28C12.38 17.57 12.77 17.84 13.15 18.08C12.73 19.35 12.25 20 12 20ZM17.66 17.66C17.48 17.83 16.66 17.71 15.49 17.12C15.59 16.67 15.67 16.21 15.74 15.74C16.21 15.67 16.68 15.59 17.13 15.49C17.86 17 17.72 17.6 17.66 17.66ZM18.09 13.15C17.84 12.77 17.57 12.39 17.28 12C17.57 11.61 17.84 11.23 18.09 10.85C19.35 11.27 20 11.75 20 12C20 12.25 19.35 12.73 18.09 13.15Z" fill="#141414"/>
</svg>
