<svg width="24" height="24" viewBox="0 0 24 24" fill="none" xmlns="http://www.w3.org/2000/svg">
<path d="M19 2H16C15.7348 2 15.4804 2.10536 15.2929 2.29289C15.1054 2.48043 15 2.73478 15 3C15 3.26522 15.1054 3.51957 15.2929 3.70711C15.4804 3.89464 15.7348 4 16 4H16.59L14.75 5.83C14.1348 5.42264 13.4371 5.15648 12.7069 5.05062C11.9767 4.94476 11.2321 5.00181 10.5266 5.2177C9.82101 5.43358 9.17198 5.80294 8.62604 6.29928C8.0801 6.79561 7.65077 7.40662 7.36886 8.08848C7.08695 8.77034 6.95943 9.50613 6.99547 10.2431C7.03151 10.98 7.2302 11.6999 7.57729 12.351C7.92438 13.0021 8.41127 13.5683 9.00304 14.009C9.5948 14.4497 10.2768 14.754 11 14.9V17H9C8.73479 17 8.48043 17.1054 8.2929 17.2929C8.10536 17.4804 8 17.7348 8 18C8 18.2652 8.10536 18.5196 8.2929 18.7071C8.48043 18.8946 8.73479 19 9 19H11V21C11 21.2652 11.1054 21.5196 11.2929 21.7071C11.4804 21.8946 11.7348 22 12 22C12.2652 22 12.5196 21.8946 12.7071 21.7071C12.8946 21.5196 13 21.2652 13 21V19H15C15.2652 19 15.5196 18.8946 15.7071 18.7071C15.8946 18.5196 16 18.2652 16 18C16 17.7348 15.8946 17.4804 15.7071 17.2929C15.5196 17.1054 15.2652 17 15 17H13V14.9C13.8005 14.7358 14.5485 14.378 15.1786 13.8578C15.8087 13.3376 16.3018 12.6709 16.6146 11.916C16.9274 11.1611 17.0504 10.3411 16.9729 9.52769C16.8954 8.71426 16.6197 7.93222 16.17 7.25L18 5.41V6C18 6.26522 18.1054 6.51957 18.2929 6.70711C18.4804 6.89464 18.7348 7 19 7C19.2652 7 19.5196 6.89464 19.7071 6.70711C19.8946 6.51957 20 6.26522 20 6V3C20 2.73478 19.8946 2.48043 19.7071 2.29289C19.5196 2.10536 19.2652 2 19 2ZM12 13C11.4067 13 10.8266 12.8241 10.3333 12.4944C9.83995 12.1648 9.45543 11.6962 9.22836 11.1481C9.0013 10.5999 8.94189 9.99667 9.05765 9.41473C9.1734 8.83279 9.45913 8.29824 9.87868 7.87868C10.2982 7.45912 10.8328 7.1734 11.4147 7.05764C11.9967 6.94189 12.5999 7.0013 13.1481 7.22836C13.6962 7.45542 14.1648 7.83994 14.4944 8.33329C14.8241 8.82664 15 9.40666 15 10C15 10.7956 14.6839 11.5587 14.1213 12.1213C13.5587 12.6839 12.7957 13 12 13Z" fill="#141414"/>
</svg>
