<svg width="24" height="24" viewBox="0 0 24 24" fill="none" xmlns="http://www.w3.org/2000/svg">
<path d="M12 2C10.0222 2 8.08879 2.58649 6.4443 3.6853C4.79981 4.78412 3.51809 6.3459 2.76121 8.17317C2.00433 10.0004 1.8063 12.0111 2.19215 13.9509C2.578 15.8907 3.53041 17.6725 4.92894 19.0711C6.32746 20.4696 8.10929 21.422 10.0491 21.8079C11.9889 22.1937 13.9996 21.9957 15.8268 21.2388C17.6541 20.4819 19.2159 19.2002 20.3147 17.5557C21.4135 15.9112 22 13.9778 22 12C22 10.6868 21.7413 9.38642 21.2388 8.17317C20.7363 6.95991 19.9997 5.85752 19.0711 4.92893C18.1425 4.00035 17.0401 3.26375 15.8268 2.7612C14.6136 2.25866 13.3132 2 12 2ZM10 4.25C10.6533 4.08183 11.3254 3.99782 12 4C12.48 4.00104 12.9589 4.04792 13.43 4.14C12.1804 4.79305 11.0831 5.70296 10.21 6.81C10.0689 6.21706 9.9984 5.6095 10 5C10 4.75 10 4.5 10 4.25ZM10.27 11C10.508 10.9681 10.7384 10.8936 10.95 10.78C11.6281 11.3159 12.2156 11.9575 12.69 12.68C12.565 12.9459 12.5001 13.2361 12.5 13.53C12.5 13.53 12.5 13.58 12.5 13.6C11.9591 13.9701 11.3747 14.2724 10.76 14.5C10.5626 14.3347 10.3351 14.2091 10.09 14.13C10.0282 13.7565 9.99813 13.3785 10 13C10.0019 12.3244 10.0927 11.6519 10.27 11ZM8 5.09C8.00199 5.82758 8.08923 6.56246 8.26 7.28C7.44254 7.07753 6.60201 6.98339 5.76 7C6.3821 6.23026 7.14162 5.58263 8 5.09ZM4.34 14.09H4.27C3.82474 12.4689 3.91239 10.7475 4.52 9.18C5.67264 8.94968 6.8625 8.98387 8 9.28C8.04711 9.61379 8.17783 9.93026 8.38 10.2C8.11777 11.1099 7.98975 12.0531 8 13C8.00183 13.5197 8.04867 14.0383 8.14 14.55C7.99935 14.672 7.88093 14.8175 7.79 14.98C6.5909 14.9644 5.41237 14.6663 4.35 14.11L4.34 14.09ZM5.52 16.66C6.25183 16.85 7.00397 16.9507 7.76 16.96C7.92196 17.2428 8.15057 17.4817 8.42594 17.656C8.70131 17.8303 9.0151 17.9347 9.34 17.96C9.73711 18.6499 10.2137 19.291 10.76 19.87C9.72142 19.7079 8.72496 19.3428 7.82756 18.7954C6.93017 18.2481 6.14944 17.5292 5.53 16.68L5.52 16.66ZM13.52 19.66C12.5473 19.0023 11.7313 18.1385 11.13 17.13C11.2805 16.9069 11.3827 16.6549 11.43 16.39C12.1847 16.1102 12.9032 15.7409 13.57 15.29C13.6384 15.3333 13.7124 15.3669 13.79 15.39C13.9135 15.9183 13.9838 16.4577 14 17C14.001 17.8992 13.8488 18.7919 13.55 19.64L13.52 19.66ZM14.47 11.52H14.32C13.6922 10.5569 12.9081 9.70518 12 9C12.0053 8.64929 11.9155 8.3037 11.74 8C12.7803 6.6849 14.2075 5.72993 15.82 5.27C15.9427 5.83841 16.0031 6.41851 16 7C16.0011 8.61198 15.5091 10.1857 14.59 11.51L14.47 11.52ZM15.75 19.07C15.9098 18.3914 15.9937 17.6971 16 17C15.9968 16.328 15.9265 15.658 15.79 15C15.8677 14.9308 15.9381 14.8537 16 14.77C16.6576 14.9119 17.3274 14.9889 18 15C18.4821 14.9989 18.9634 14.9622 19.44 14.89C18.7545 16.6684 17.4566 18.1436 15.78 19.05L15.75 19.07ZM16.33 12.83C16.3061 12.7543 16.276 12.6807 16.24 12.61C17.3841 10.9628 17.9981 9.00557 18 7C18 6.9 18 6.81 18 6.71C19.2885 8.17102 19.9996 10.052 20 12C20 12.25 20 12.49 19.95 12.73C18.7746 13.0263 17.5475 13.0536 16.36 12.81L16.33 12.83Z" fill="#141414"/>
</svg>
