<svg width="24" height="24" viewBox="0 0 24 24" fill="none" xmlns="http://www.w3.org/2000/svg">
<path d="M17.89 9.11C17.9623 8.74439 17.9991 8.37267 18 8C18 6.4087 17.3679 4.88258 16.2427 3.75736C15.1175 2.63214 13.5913 2 12 2C10.4087 2 8.88261 2.63214 7.7574 3.75736C6.63218 4.88258 6.00004 6.4087 6.00004 8C6.00096 8.37267 6.03779 8.74439 6.11004 9.11C5.16062 9.33715 4.32705 9.90366 3.76635 10.7028C3.20566 11.5019 2.95656 12.4785 3.06599 13.4486C3.17541 14.4186 3.6358 15.3152 4.36043 15.9693C5.08505 16.6235 6.02388 16.9901 7.00004 17H11V20H9.00004C8.73482 20 8.48047 20.1054 8.29293 20.2929C8.10539 20.4804 8.00004 20.7348 8.00004 21C8.00004 21.2652 8.10539 21.5196 8.29293 21.7071C8.48047 21.8946 8.73482 22 9.00004 22H15C15.2653 22 15.5196 21.8946 15.7071 21.7071C15.8947 21.5196 16 21.2652 16 21C16 20.7348 15.8947 20.4804 15.7071 20.2929C15.5196 20.1054 15.2653 20 15 20H13V17H17C17.9762 16.9901 18.915 16.6235 19.6396 15.9693C20.3643 15.3152 20.8247 14.4186 20.9341 13.4486C21.0435 12.4785 20.7944 11.5019 20.2337 10.7028C19.673 9.90366 18.8395 9.33715 17.89 9.11Z" fill="#141414"/>
</svg>
