<svg width="24" height="24" viewBox="0 0 24 24" fill="none" xmlns="http://www.w3.org/2000/svg">
<path d="M15.94 8.46994C15.9802 8.31651 16.0003 8.15854 16 7.99994C16 7.46951 15.7893 6.9608 15.4142 6.58573C15.0391 6.21065 14.5304 5.99994 14 5.99994C13.8414 5.9996 13.6834 6.01977 13.53 6.05994L9.77 2.28994C9.67704 2.19621 9.56644 2.12182 9.44458 2.07105C9.32272 2.02028 9.19201 1.99414 9.06 1.99414C8.92799 1.99414 8.79728 2.02028 8.67542 2.07105C8.55356 2.12182 8.44296 2.19621 8.35 2.28994C7.20994 3.42549 6.4388 4.87845 6.13731 6.45906C5.83582 8.03967 6.01798 9.67446 6.66 11.1499C6.1692 11.7538 5.93781 12.5276 6.01653 13.3017C6.09526 14.0759 6.47769 14.7873 7.08 15.2799L5.31 19.9999H5C4.73478 19.9999 4.48043 20.1053 4.29289 20.2928C4.10536 20.4804 4 20.7347 4 20.9999C4 21.2652 4.10536 21.5195 4.29289 21.707C4.48043 21.8946 4.73478 21.9999 5 21.9999H13C13.2652 21.9999 13.5196 21.8946 13.7071 21.707C13.8946 21.5195 14 21.2652 14 20.9999C14 20.7347 13.8946 20.4804 13.7071 20.2928C13.5196 20.1053 13.2652 19.9999 13 19.9999H12.46L10.86 15.3399C12.3342 15.9798 13.967 16.1607 15.5455 15.8593C17.1241 15.5578 18.5753 14.788 19.71 13.6499C19.8037 13.557 19.8781 13.4464 19.9289 13.3245C19.9797 13.2027 20.0058 13.0719 20.0058 12.9399C20.0058 12.8079 19.9797 12.6772 19.9289 12.5554C19.8781 12.4335 19.8037 12.3229 19.71 12.2299L15.94 8.46994ZM7.44 19.9999L9 15.9999L10.38 19.9999H7.44ZM14 3.99994C15.0609 3.99994 16.0783 4.42137 16.8284 5.17151C17.5786 5.92166 18 6.93907 18 7.99994C18 8.26516 18.1054 8.51951 18.2929 8.70705C18.4804 8.89458 18.7348 8.99994 19 8.99994C19.2652 8.99994 19.5196 8.89458 19.7071 8.70705C19.8946 8.51951 20 8.26516 20 7.99994C20 6.40864 19.3679 4.88252 18.2426 3.7573C17.1174 2.63208 15.5913 1.99994 14 1.99994C13.7348 1.99994 13.4804 2.1053 13.2929 2.29283C13.1054 2.48037 13 2.73472 13 2.99994C13 3.26516 13.1054 3.51951 13.2929 3.70705C13.4804 3.89458 13.7348 3.99994 14 3.99994Z" fill="#141414"/>
</svg>
