<svg width="24" height="24" viewBox="0 0 24 24" fill="none" xmlns="http://www.w3.org/2000/svg">
<path d="M18 3H6C5.20435 3 4.44129 3.31607 3.87868 3.87868C3.31607 4.44129 3 5.20435 3 6V18C3 18.7956 3.31607 19.5587 3.87868 20.1213C4.44129 20.6839 5.20435 21 6 21H18C18.7956 21 19.5587 20.6839 20.1213 20.1213C20.6839 19.5587 21 18.7956 21 18V6C21 5.20435 20.6839 4.44129 20.1213 3.87868C19.5587 3.31607 18.7956 3 18 3ZM6 12C5.80222 12 5.60888 11.9414 5.44443 11.8315C5.27998 11.7216 5.15181 11.5654 5.07612 11.3827C5.00043 11.2 4.98063 10.9989 5.01921 10.8049C5.0578 10.6109 5.15304 10.4327 5.29289 10.2929C5.43275 10.153 5.61093 10.0578 5.80491 10.0192C5.99889 9.98063 6.19996 10.0004 6.38268 10.0761C6.56541 10.1518 6.72159 10.28 6.83147 10.4444C6.94135 10.6089 7 10.8022 7 11C7 11.2652 6.89464 11.5196 6.70711 11.7071C6.51957 11.8946 6.26522 12 6 12ZM6 8C5.80222 8 5.60888 7.94135 5.44443 7.83147C5.27998 7.72159 5.15181 7.56541 5.07612 7.38268C5.00043 7.19996 4.98063 6.99889 5.01921 6.80491C5.0578 6.61093 5.15304 6.43275 5.29289 6.29289C5.43275 6.15304 5.61093 6.0578 5.80491 6.01921C5.99889 5.98063 6.19996 6.00043 6.38268 6.07612C6.56541 6.15181 6.72159 6.27998 6.83147 6.44443C6.94135 6.60888 7 6.80222 7 7C7 7.26522 6.89464 7.51957 6.70711 7.70711C6.51957 7.89464 6.26522 8 6 8ZM11 19H9.5C9.36739 19 9.24021 18.9473 9.14645 18.8536C9.05268 18.7598 9 18.6326 9 18.5V5.5C9 5.36739 9.05268 5.24021 9.14645 5.14645C9.24021 5.05268 9.36739 5 9.5 5H11V19ZM15 19H13V5H15V19ZM19 18.5C19 18.6326 18.9473 18.7598 18.8536 18.8536C18.7598 18.9473 18.6326 19 18.5 19H17V5H18.5C18.6326 5 18.7598 5.05268 18.8536 5.14645C18.9473 5.24021 19 5.36739 19 5.5V18.5Z" fill="#141414"/>
</svg>
