<svg width="24" height="24" viewBox="0 0 24 24" fill="none" xmlns="http://www.w3.org/2000/svg">
<path d="M10.1001 2.99996C9.84915 2.968 9.59545 3.03232 9.39006 3.17996C9.18419 3.33227 9.0446 3.55777 9.00006 3.80996L7.08006 13.52L6.32006 14.27L5.86006 13.5C5.76828 13.3513 5.64118 13.2276 5.49006 13.14C5.34156 13.0518 5.17275 13.0035 5.00006 13H4.00006C3.82828 13.0005 3.65952 13.0453 3.51006 13.13C3.36024 13.2114 3.23571 13.3325 3.15006 13.48C3.05322 13.6362 3.00132 13.8161 3.00006 14C2.9911 14.1703 3.02916 14.3398 3.11006 14.49L6.11006 20.49C6.18014 20.632 6.28296 20.7554 6.41006 20.85C6.53874 20.9403 6.68543 21.0017 6.84006 21.03H7.00006C7.13008 21.0316 7.25915 21.0078 7.38006 20.96C7.50293 20.908 7.61488 20.8334 7.71006 20.74L8.71006 19.74C8.87897 19.5796 8.98231 19.3622 9.00006 19.13C9.02958 18.9081 8.9838 18.6827 8.87006 18.49L8.52006 17.9L10.4201 16C10.7896 15.6274 10.9979 15.1246 11.0001 14.6V3.99996C11.0019 3.74867 10.9091 3.50591 10.7401 3.31996C10.5735 3.13801 10.3456 3.02404 10.1001 2.99996ZM20.8501 13.5C20.7577 13.357 20.6303 13.24 20.4801 13.16C20.3326 13.0804 20.1676 13.0391 20.0001 13.04H19.0001C18.8283 13.0405 18.6595 13.0853 18.5101 13.17C18.3586 13.2527 18.2311 13.3733 18.1401 13.52L17.6801 14.29L16.9201 13.54L15.0001 3.89996C14.99 3.76936 14.9529 3.6423 14.8909 3.52692C14.8289 3.41154 14.7434 3.31039 14.6401 3.22996C14.5382 3.14431 14.4203 3.07986 14.2932 3.04036C14.1662 3.00087 14.0325 2.98713 13.9001 2.99996C13.7696 3.01462 13.6432 3.05484 13.5283 3.11832C13.4133 3.18181 13.312 3.26731 13.2301 3.36996C13.1457 3.47057 13.0819 3.58683 13.0425 3.71208C13.003 3.83734 12.9886 3.96914 13.0001 4.09996V14.63C13.0023 15.1546 13.2106 15.6574 13.5801 16.03L15.4801 17.92L15.1301 18.5C15.0163 18.6927 14.9706 18.9181 15.0001 19.14C15.031 19.3577 15.1288 19.5603 15.2801 19.72L16.2801 20.72C16.377 20.8112 16.4885 20.8856 16.6101 20.94C16.7348 20.9857 16.8674 21.0061 17.0001 21H17.1601C17.3147 20.9717 17.4614 20.9103 17.5901 20.82C17.7172 20.7254 17.82 20.602 17.8901 20.46L20.8901 14.46C20.963 14.3176 21.0007 14.1599 21.0001 14C20.9901 13.827 20.9387 13.6589 20.8501 13.51V13.5Z" fill="#141414"/>
</svg>
