<svg width="24" height="24" viewBox="0 0 24 24" fill="none" xmlns="http://www.w3.org/2000/svg">
<path d="M18.12 2.88022C17.5579 2.31745 16.7954 2.00092 16 2.00022H11C10.5432 1.99005 10.0905 2.08949 9.68001 2.29022C9.26734 2.48589 8.9048 2.77319 8.62001 3.13022L5.62001 6.83022C5.20873 7.36599 4.99027 8.02487 5.00001 8.70022V19.0002C5.00001 19.7959 5.31608 20.5589 5.87869 21.1215C6.4413 21.6842 7.20436 22.0002 8.00001 22.0002H16C16.7957 22.0002 17.5587 21.6842 18.1213 21.1215C18.6839 20.5589 19 19.7959 19 19.0002V5.00022C18.9993 4.20484 18.6828 3.44229 18.12 2.88022ZM14.71 16.2902C14.8037 16.3832 14.8781 16.4938 14.9289 16.6156C14.9797 16.7375 15.0058 16.8682 15.0058 17.0002C15.0058 17.1322 14.9797 17.2629 14.9289 17.3848C14.8781 17.5067 14.8037 17.6173 14.71 17.7102C14.617 17.8039 14.5064 17.8783 14.3846 17.9291C14.2627 17.9799 14.132 18.006 14 18.006C13.868 18.006 13.7373 17.9799 13.6154 17.9291C13.4936 17.8783 13.383 17.8039 13.29 17.7102L12 16.4102L10.71 17.7102C10.617 17.8039 10.5064 17.8783 10.3846 17.9291C10.2627 17.9799 10.132 18.006 10 18.006C9.86799 18.006 9.73729 17.9799 9.61543 17.9291C9.49357 17.8783 9.38297 17.8039 9.29001 17.7102C9.19628 17.6173 9.12188 17.5067 9.07112 17.3848C9.02035 17.2629 8.99421 17.1322 8.99421 17.0002C8.99421 16.8682 9.02035 16.7375 9.07112 16.6156C9.12188 16.4938 9.19628 16.3832 9.29001 16.2902L10.59 15.0002L9.29001 13.7102C9.1017 13.5219 8.99592 13.2665 8.99592 13.0002C8.99592 12.7339 9.1017 12.4785 9.29001 12.2902C9.47831 12.1019 9.73371 11.9961 10 11.9961C10.2663 11.9961 10.5217 12.1019 10.71 12.2902L12 13.5902L13.29 12.2902C13.4783 12.1019 13.7337 11.9961 14 11.9961C14.2663 11.9961 14.5217 12.1019 14.71 12.2902C14.8983 12.4785 15.0041 12.7339 15.0041 13.0002C15.0041 13.2665 14.8983 13.5219 14.71 13.7102L13.41 15.0002L14.71 16.2902Z" fill="#141414"/>
</svg>
