<svg width="24" height="24" viewBox="0 0 24 24" fill="none" xmlns="http://www.w3.org/2000/svg">
<path d="M8.99994 20.0002C8.86833 20.0009 8.73787 19.9757 8.61603 19.926C8.4942 19.8762 8.38338 19.8029 8.28994 19.7102C8.19621 19.6172 8.12182 19.5066 8.07105 19.3848C8.02028 19.2629 7.99414 19.1322 7.99414 19.0002C7.99414 18.8682 8.02028 18.7375 8.07105 18.6156C8.12182 18.4937 8.19621 18.3831 8.28994 18.2902L14.5899 12.0002L8.28994 5.71019C8.10164 5.52188 7.99585 5.26649 7.99585 5.00019C7.99585 4.73388 8.10164 4.47849 8.28994 4.29019C8.47824 4.10188 8.73364 3.99609 8.99994 3.99609C9.26624 3.99609 9.52164 4.10188 9.70994 4.29019L16.7099 11.2902C16.8037 11.3831 16.8781 11.4937 16.9288 11.6156C16.9796 11.7375 17.0057 11.8682 17.0057 12.0002C17.0057 12.1322 16.9796 12.2629 16.9288 12.3848C16.8781 12.5066 16.8037 12.6172 16.7099 12.7102L9.70994 19.7102C9.6165 19.8029 9.50568 19.8762 9.38385 19.926C9.26201 19.9757 9.13155 20.0009 8.99994 20.0002Z" fill="#141414"/>
</svg>
