<svg width="24" height="24" viewBox="0 0 24 24" fill="none" xmlns="http://www.w3.org/2000/svg">
<path d="M16.2 10.4L8.2 4.4C7.85381 4.14036 7.43274 4 7 4C6.6911 4.00033 6.38647 4.07221 6.11 4.21C5.77679 4.37558 5.49637 4.63083 5.30028 4.94704C5.10419 5.26326 5.0002 5.62792 5 6V18C5.0002 18.3721 5.10419 18.7367 5.30028 19.053C5.49637 19.3692 5.77679 19.6244 6.11 19.79C6.38647 19.9278 6.6911 19.9997 7 20C7.43274 20 7.85381 19.8596 8.2 19.6L16.2 13.6C16.4484 13.4137 16.65 13.1721 16.7889 12.8944C16.9277 12.6167 17 12.3105 17 12C17 11.6895 16.9277 11.3833 16.7889 11.1056C16.65 10.8279 16.4484 10.5863 16.2 10.4ZM18 4C17.7348 4 17.4804 4.10536 17.2929 4.29289C17.1054 4.48043 17 4.73478 17 5V19C17 19.2652 17.1054 19.5196 17.2929 19.7071C17.4804 19.8946 17.7348 20 18 20C18.2652 20 18.5196 19.8946 18.7071 19.7071C18.8946 19.5196 19 19.2652 19 19V5C19 4.73478 18.8946 4.48043 18.7071 4.29289C18.5196 4.10536 18.2652 4 18 4Z" fill="#141414"/>
</svg>
