<svg width="24" height="24" viewBox="0 0 24 24" fill="none" xmlns="http://www.w3.org/2000/svg">
<path d="M12 2C9.87827 2 7.84344 2.84285 6.34315 4.34315C4.84285 5.84344 4 7.87827 4 10C4.00207 10.3817 4.03215 10.7627 4.09 11.14C4.12713 11.4052 4.2681 11.6448 4.48189 11.8061C4.69568 11.9674 4.96478 12.0371 5.23 12C5.49522 11.9629 5.73482 11.8219 5.8961 11.6081C6.05738 11.3943 6.12713 11.1252 6.09 10.86C6.03752 10.5761 6.00743 10.2886 6 10C6 8.4087 6.63214 6.88258 7.75736 5.75736C8.88258 4.63214 10.4087 4 12 4C13.5913 4 15.1174 4.63214 16.2426 5.75736C17.3679 6.88258 18 8.4087 18 10C17.9992 10.2881 17.9758 10.5756 17.93 10.86C17.9102 10.9908 17.9165 11.1242 17.9487 11.2524C17.9808 11.3807 18.038 11.5014 18.1171 11.6074C18.1961 11.7134 18.2954 11.8027 18.4092 11.8701C18.523 11.9375 18.649 11.9817 18.78 12H18.92C19.1627 12.0024 19.3979 11.9165 19.5819 11.7582C19.7659 11.6 19.886 11.3803 19.92 11.14C19.9745 10.7625 20.0012 10.3814 20 10C20 7.87827 19.1571 5.84344 17.6569 4.34315C16.1566 2.84285 14.1217 2 12 2ZM12 6C10.9391 6 9.92172 6.42143 9.17157 7.17157C8.42143 7.92172 8 8.93913 8 10V21C8 21.2652 8.10536 21.5196 8.29289 21.7071C8.48043 21.8946 8.73478 22 9 22H15C15.2652 22 15.5196 21.8946 15.7071 21.7071C15.8946 21.5196 16 21.2652 16 21V10C16 8.93913 15.5786 7.92172 14.8284 7.17157C14.0783 6.42143 13.0609 6 12 6ZM14 11.5C14 11.6326 13.9473 11.7598 13.8536 11.8536C13.7598 11.9473 13.6326 12 13.5 12H10.5C10.3674 12 10.2402 11.9473 10.1464 11.8536C10.0527 11.7598 10 11.6326 10 11.5V10C10 9.46957 10.2107 8.96086 10.5858 8.58579C10.9609 8.21071 11.4696 8 12 8C12.5304 8 13.0391 8.21071 13.4142 8.58579C13.7893 8.96086 14 9.46957 14 10V11.5Z" fill="#141414"/>
</svg>
