<svg width="24" height="24" viewBox="0 0 24 24" fill="none" xmlns="http://www.w3.org/2000/svg">
<path d="M10 10.9998H8.24L9.11 9.49978C9.21195 9.27419 9.22661 9.0188 9.15112 8.78303C9.07564 8.54726 8.91538 8.34787 8.70136 8.22344C8.48734 8.09901 8.23478 8.05839 7.99254 8.10944C7.7503 8.16048 7.53561 8.29957 7.39 8.49978L6.5 9.99978L5.61 8.49978C5.55237 8.37228 5.46863 8.25828 5.36419 8.16517C5.25974 8.07206 5.13692 8.00191 5.00366 7.95924C4.8704 7.91658 4.72967 7.90235 4.59057 7.91749C4.45146 7.93263 4.31709 7.97679 4.19612 8.04711C4.07516 8.11744 3.9703 8.21237 3.88832 8.32577C3.80635 8.43917 3.74909 8.5685 3.72023 8.70542C3.69138 8.84234 3.69158 8.98378 3.72083 9.12062C3.75007 9.25745 3.8077 9.38662 3.89 9.49978L4.76 10.9998H3C2.73478 10.9998 2.48043 11.1051 2.29289 11.2927C2.10536 11.4802 2 11.7346 2 11.9998C2 12.265 2.10536 12.5194 2.29289 12.7069C2.48043 12.8944 2.73478 12.9998 3 12.9998H4.76L3.89 14.4998C3.75879 14.7282 3.723 14.9992 3.7904 15.2538C3.85781 15.5084 4.02297 15.7262 4.25 15.8598C4.39929 15.9546 4.5732 16.0033 4.75 15.9998C4.92451 15.9987 5.09571 15.952 5.24658 15.8643C5.39746 15.7766 5.52274 15.6509 5.61 15.4998L6.5 13.9998L7.39 15.5098C7.47726 15.6609 7.60254 15.7866 7.75342 15.8743C7.90429 15.962 8.07549 16.0087 8.25 16.0098C8.4268 16.0133 8.60071 15.9646 8.75 15.8698C8.97703 15.7362 9.14219 15.5184 9.2096 15.2638C9.277 15.0091 9.24121 14.7382 9.11 14.5098L8.24 12.9998H10C10.2652 12.9998 10.5196 12.8944 10.7071 12.7069C10.8946 12.5194 11 12.265 11 11.9998C11 11.7346 10.8946 11.4802 10.7071 11.2927C10.5196 11.1051 10.2652 10.9998 10 10.9998ZM21 10.9998H19.24L20.11 9.49978C20.1923 9.38662 20.2499 9.25745 20.2792 9.12062C20.3084 8.98378 20.3086 8.84234 20.2798 8.70542C20.2509 8.5685 20.1936 8.43917 20.1117 8.32577C20.0297 8.21237 19.9248 8.11744 19.8039 8.04711C19.6829 7.97679 19.5485 7.93263 19.4094 7.91749C19.2703 7.90235 19.1296 7.91658 18.9963 7.95924C18.8631 8.00191 18.7403 8.07206 18.6358 8.16517C18.5314 8.25828 18.4476 8.37228 18.39 8.49978L17.5 9.99978L16.61 8.49978C16.5524 8.37228 16.4686 8.25828 16.3642 8.16517C16.2597 8.07206 16.1369 8.00191 16.0037 7.95924C15.8704 7.91658 15.7297 7.90235 15.5906 7.91749C15.4515 7.93263 15.3171 7.97679 15.1961 8.04711C15.0752 8.11744 14.9703 8.21237 14.8883 8.32577C14.8063 8.43917 14.7491 8.5685 14.7202 8.70542C14.6914 8.84234 14.6916 8.98378 14.7208 9.12062C14.7501 9.25745 14.8077 9.38662 14.89 9.49978L15.76 10.9998H14C13.7348 10.9998 13.4804 11.1051 13.2929 11.2927C13.1054 11.4802 13 11.7346 13 11.9998C13 12.265 13.1054 12.5194 13.2929 12.7069C13.4804 12.8944 13.7348 12.9998 14 12.9998H15.76L14.89 14.4998C14.7588 14.7282 14.723 14.9992 14.7904 15.2538C14.8578 15.5084 15.023 15.7262 15.25 15.8598C15.3993 15.9546 15.5732 16.0033 15.75 15.9998C15.9245 15.9987 16.0957 15.952 16.2466 15.8643C16.3975 15.7766 16.5227 15.6509 16.61 15.4998L17.5 13.9998L18.39 15.5098C18.4773 15.6609 18.6025 15.7866 18.7534 15.8743C18.9043 15.962 19.0755 16.0087 19.25 16.0098C19.4268 16.0133 19.6007 15.9646 19.75 15.8698C19.977 15.7362 20.1422 15.5184 20.2096 15.2638C20.277 15.0091 20.2412 14.7382 20.11 14.5098L19.24 12.9998H21C21.2652 12.9998 21.5196 12.8944 21.7071 12.7069C21.8946 12.5194 22 12.265 22 11.9998C22 11.7346 21.8946 11.4802 21.7071 11.2927C21.5196 11.1051 21.2652 10.9998 21 10.9998Z" fill="#141414"/>
</svg>
