<svg width="24" height="24" viewBox="0 0 24 24" fill="none" xmlns="http://www.w3.org/2000/svg">
<path d="M14.54 3.88005L12.35 3.06005C12.1235 2.97998 11.8765 2.97998 11.65 3.06005L4.00001 5.93005L6.66001 6.93005L14.54 3.88005ZM7.63001 13.2201C7.63001 13.4853 7.52465 13.7396 7.33711 13.9272C7.14958 14.1147 6.89522 14.2201 6.63001 14.2201C6.36479 14.2201 6.11043 14.1147 5.9229 13.9272C5.73536 13.7396 5.63001 13.4853 5.63001 13.2201V8.68005L3.00001 7.69005V17.0001C2.99934 17.2044 3.06128 17.404 3.17749 17.5721C3.2937 17.7401 3.4586 17.8685 3.65001 17.9401L11 20.6901V10.6901L7.63001 9.43005V13.2201ZM17.36 4.94005L9.48 8.00005L12 8.93005L20 5.93005L17.36 4.94005ZM13 10.6901V20.6901L20.35 17.9401C20.5414 17.8685 20.7063 17.7401 20.8225 17.5721C20.9387 17.404 21.0007 17.2044 21 17.0001V7.69005L13 10.6901Z" fill="#141414"/>
</svg>
