<svg width="24" height="24" viewBox="0 0 24 24" fill="none" xmlns="http://www.w3.org/2000/svg">
<path d="M4.53013 15.51C3.99013 16.83 3.46013 19.18 5.08013 21.56C5.27013 21.83 5.58013 22 5.91013 22H11.0101V19.44C10.7801 19.37 10.5601 19.27 10.3501 19.14L4.54013 15.51H4.53013ZM19.2701 15.04L13.6801 19.04C13.4701 19.19 13.2401 19.3 13.0101 19.39V22H18.1101C18.4401 22 18.7501 21.84 18.9401 21.56C20.7701 18.86 19.8501 16.2 19.2801 15.04H19.2701ZM5.91013 14H5.90013L11.4101 17.44C11.7601 17.65 12.1901 17.64 12.5201 17.41L17.2901 14H5.90013H5.91013ZM6.12013 12H17.9001C18.9001 12 19.8201 11.32 19.9801 10.34C20.1501 9.31 19.5301 8.4 18.6301 8.1C18.2401 7.97 18.0101 7.57 18.0101 7.16V3C18.0101 2.45 17.5601 2 17.0101 2H7.00013C6.45013 2 6.00013 2.45 6.00013 3V7.16C6.00013 7.57 5.76013 7.97 5.38013 8.1C4.48013 8.4 3.86013 9.31 4.03013 10.34C4.19013 11.32 5.12013 12 6.11013 12H6.12013ZM12.0101 7C12.5601 7 13.0101 7.45 13.0101 8C13.0101 8.55 12.5601 9 12.0101 9C11.4601 9 11.0101 8.55 11.0101 8C11.0101 7.45 11.4601 7 12.0101 7Z" fill="#141414"/>
</svg>
