<svg width="24" height="24" viewBox="0 0 24 24" fill="none" xmlns="http://www.w3.org/2000/svg">
<path d="M18 3H6C5.20435 3 4.44129 3.31607 3.87868 3.87868C3.31607 4.44129 3 5.20435 3 6V18C3 18.7956 3.31607 19.5587 3.87868 20.1213C4.44129 20.6839 5.20435 21 6 21H18C18.7956 21 19.5587 20.6839 20.1213 20.1213C20.6839 19.5587 21 18.7956 21 18V6C21 5.20435 20.6839 4.44129 20.1213 3.87868C19.5587 3.31607 18.7956 3 18 3ZM18 11C18 11.2652 17.8946 11.5196 17.7071 11.7071C17.5196 11.8946 17.2652 12 17 12C16.7348 12 16.4804 11.8946 16.2929 11.7071C16.1054 11.5196 16 11.2652 16 11V9.41L11.71 13.71C11.617 13.8037 11.5064 13.8781 11.3846 13.9289C11.2627 13.9797 11.132 14.0058 11 14.0058C10.868 14.0058 10.7373 13.9797 10.6154 13.9289C10.4936 13.8781 10.383 13.8037 10.29 13.71C10.1963 13.617 10.1219 13.5064 10.0711 13.3846C10.0203 13.2627 9.9942 13.132 9.9942 13C9.9942 12.868 10.0203 12.7373 10.0711 12.6154C10.1219 12.4936 10.1963 12.383 10.29 12.29L14.59 8H13C12.7348 8 12.4804 7.89464 12.2929 7.70711C12.1054 7.51957 12 7.26522 12 7C12 6.73478 12.1054 6.48043 12.2929 6.29289C12.4804 6.10536 12.7348 6 13 6H17C17.2652 6 17.5196 6.10536 17.7071 6.29289C17.8946 6.48043 18 6.73478 18 7V11Z" fill="#141414"/>
</svg>
