<svg width="24" height="24" viewBox="0 0 24 24" fill="none" xmlns="http://www.w3.org/2000/svg">
<path d="M18.5 15H17.05L18.43 13.37C18.84 12.88 18.89 12.19 18.54 11.66C18.3 11.29 17.92 11.05 17.48 11.01C17.04 10.97 16.62 11.11 16.31 11.42L16.14 11.59C15.95 11.79 15.95 12.1 16.14 12.3C16.34 12.49 16.65 12.49 16.85 12.3L17.02 12.13C17.11 12.04 17.25 12 17.38 12C17.46 12 17.6 12.05 17.7 12.2C17.8 12.36 17.79 12.58 17.67 12.72L15.59 15.17C15.46 15.32 15.44 15.53 15.52 15.7C15.6 15.87 15.78 15.99 15.97 15.99H18.5C18.78 15.99 19 15.77 19 15.49C19 15.21 18.78 14.99 18.5 14.99V15ZM11 7C8.79 7 7 9.02 7 11.5C7 13.98 8.79 16 11 16C13.21 16 15 13.98 15 11.5C15 9.02 13.21 7 11 7ZM11 14C9.9 14 9 12.88 9 11.5C9 10.12 9.9 9 11 9C12.1 9 13 10.12 13 11.5C13 12.88 12.1 14 11 14Z" fill="#141414"/>
</svg>
