<svg width="24" height="24" viewBox="0 0 24 24" fill="none" xmlns="http://www.w3.org/2000/svg">
<path d="M16.71 12.29C16.6166 12.1973 16.5057 12.124 16.3839 12.0742C16.2621 12.0245 16.1316 11.9993 16 12H8C7.73478 12 7.48043 12.1054 7.29289 12.2929C7.10536 12.4804 7 12.7348 7 13V15C7 15.2652 7.10536 15.5196 7.29289 15.7071C7.48043 15.8947 7.73478 16 8 16H8.72L10 21.24C10.0551 21.4637 10.1858 21.6616 10.37 21.8C10.5513 21.9362 10.7734 22.0067 11 22H13C13.2266 22.0067 13.4487 21.9362 13.63 21.8C13.8142 21.6616 13.9449 21.4637 14 21.24L15.28 16H16C16.2652 16 16.5196 15.8947 16.7071 15.7071C16.8946 15.5196 17 15.2652 17 15V13C17.0008 12.8684 16.9755 12.738 16.9258 12.6161C16.876 12.4943 16.8027 12.3835 16.71 12.29ZM8.15 10H9C9 8.00002 10.72 8.89002 11 6.72002C11.0127 6.64754 11.0404 6.5785 11.0813 6.51731C11.1222 6.45612 11.1754 6.40411 11.2375 6.3646C11.2995 6.32509 11.3692 6.29894 11.4419 6.28782C11.5147 6.27671 11.5889 6.28086 11.66 6.30002C13.81 6.89002 14 9.00002 14 10H15C15.2652 10 15.5196 9.89466 15.7071 9.70713C15.8946 9.51959 16 9.26524 16 9.00002C15.9135 7.55311 15.4414 6.15572 14.6325 4.95292C13.8236 3.75013 12.7075 2.78579 11.4 2.16002C11.2376 2.06883 11.0529 2.02481 10.8668 2.03293C10.6807 2.04106 10.5006 2.10099 10.3467 2.20599C10.1929 2.31099 10.0714 2.45687 9.99601 2.6272C9.92061 2.79753 9.89429 2.98553 9.92 3.17002C10.31 5.29002 7.86 6.49002 7.17 8.79002C7.13864 8.93603 7.14038 9.08722 7.17509 9.23247C7.20981 9.37772 7.27661 9.51335 7.37061 9.62941C7.4646 9.74546 7.58339 9.83899 7.71826 9.90312C7.85313 9.96725 8.00066 10.0004 8.15 10Z" fill="#141414"/>
</svg>
