<svg width="24" height="24" viewBox="0 0 24 24" fill="none" xmlns="http://www.w3.org/2000/svg">
<path d="M19.7 5.74992L12.7 3.12992C12.2486 2.96125 11.7514 2.96125 11.3 3.12992L4.3 5.74992C4.2201 5.78726 4.1432 5.83072 4.07 5.87992L12 8.92992L19.93 5.92992C19.8586 5.86347 19.7817 5.80325 19.7 5.74992ZM3 7.61992V16.3799C3.00071 16.7869 3.12554 17.1839 3.35783 17.518C3.59011 17.8522 3.9188 18.1075 4.3 18.2499L11 20.7599V10.6899L3 7.60992V7.61992ZM21 7.61992L13 10.6999V20.7599L19.7 18.2499C20.0812 18.1075 20.4099 17.8522 20.6422 17.518C20.8745 17.1839 20.9993 16.7869 21 16.3799V7.61992Z" fill="#141414"/>
</svg>
