<svg width="24" height="24" viewBox="0 0 24 24" fill="none" xmlns="http://www.w3.org/2000/svg">
<path d="M10.78 10.8401C11.5508 11.0562 12.3652 11.0632 13.1396 10.8605C13.914 10.6578 14.6204 10.2526 15.1865 9.68657C15.7525 9.12054 16.1577 8.41405 16.3604 7.63966C16.5631 6.86527 16.5561 6.05087 16.34 5.2801C16.1352 4.53412 15.7399 3.85425 15.1929 3.30724C14.6459 2.76024 13.966 2.36491 13.22 2.1601C12.4492 1.94402 11.6348 1.93697 10.8604 2.13969C10.086 2.34241 9.37956 2.74759 8.81353 3.31362C8.2475 3.87966 7.84232 4.58614 7.6396 5.36053C7.43688 6.13493 7.44392 6.94933 7.66 7.7201C7.86481 8.46607 8.26014 9.14595 8.80714 9.69295C9.35415 10.24 10.034 10.6353 10.78 10.8401ZM15.27 12.7001L14.89 13.4501C14.8196 13.5913 14.7167 13.7139 14.5898 13.8077C14.4629 13.9016 14.3157 13.9641 14.16 13.9901H14C13.8684 13.9909 13.7379 13.9656 13.6161 13.9159C13.4943 13.8661 13.3834 13.7928 13.29 13.7001L12 12.4101L10.71 13.7101C10.6166 13.8028 10.5057 13.8761 10.3839 13.9259C10.2621 13.9756 10.1316 14.0009 10 14.0001H9.84C9.68434 13.9741 9.53705 13.9116 9.41018 13.8177C9.2833 13.7239 9.18044 13.6013 9.11 13.4601L8.73 12.7101C7.32298 13.3403 6.12801 14.3636 5.28887 15.6569C4.44973 16.9502 4.00215 18.4584 4 20.0001C4 20.5305 4.21071 21.0392 4.58579 21.4143C4.96086 21.7894 5.46957 22.0001 6 22.0001H18C18.5304 22.0001 19.0391 21.7894 19.4142 21.4143C19.7893 21.0392 20 20.5305 20 20.0001C19.9998 18.4567 19.5531 16.9463 18.7138 15.6511C17.8746 14.3558 16.6786 13.331 15.27 12.7001ZM16 20.0001C15.8022 20.0001 15.6089 19.9415 15.4444 19.8316C15.28 19.7217 15.1518 19.5655 15.0761 19.3828C15.0004 19.2001 14.9806 18.999 15.0192 18.805C15.0578 18.611 15.153 18.4328 15.2929 18.293C15.4327 18.1531 15.6109 18.0579 15.8049 18.0193C15.9989 17.9807 16.2 18.0005 16.3827 18.0762C16.5654 18.1519 16.7216 18.2801 16.8315 18.4445C16.9414 18.609 17 18.8023 17 19.0001C17 19.2653 16.8946 19.5197 16.7071 19.7072C16.5196 19.8947 16.2652 20.0001 16 20.0001Z" fill="#141414"/>
</svg>
