<svg width="24" height="24" viewBox="0 0 24 24" fill="none" xmlns="http://www.w3.org/2000/svg">
<path d="M4 18C4 18.7956 4.31607 19.5587 4.87868 20.1213C5.44129 20.6839 6.20435 21 7 21H17C17.7956 21 18.5587 20.6839 19.1213 20.1213C19.6839 19.5587 20 18.7956 20 18V9H4V18ZM9.29 13.71C9.1017 13.5217 8.99591 13.2663 8.99591 13C8.99591 12.7337 9.1017 12.4783 9.29 12.29C9.4783 12.1017 9.7337 11.9959 10 11.9959C10.2663 11.9959 10.5217 12.1017 10.71 12.29L12 13.59L13.29 12.29C13.4783 12.1017 13.7337 11.9959 14 11.9959C14.2663 11.9959 14.5217 12.1017 14.71 12.29C14.8983 12.4783 15.0041 12.7337 15.0041 13C15.0041 13.2663 14.8983 13.5217 14.71 13.71L13.41 15L14.71 16.29C14.8037 16.383 14.8781 16.4936 14.9289 16.6154C14.9797 16.7373 15.0058 16.868 15.0058 17C15.0058 17.132 14.9797 17.2627 14.9289 17.3846C14.8781 17.5064 14.8037 17.617 14.71 17.71C14.617 17.8037 14.5064 17.8781 14.3846 17.9289C14.2627 17.9797 14.132 18.0058 14 18.0058C13.868 18.0058 13.7373 17.9797 13.6154 17.9289C13.4936 17.8781 13.383 17.8037 13.29 17.71L12 16.41L10.71 17.71C10.617 17.8037 10.5064 17.8781 10.3846 17.9289C10.2627 17.9797 10.132 18.0058 10 18.0058C9.86799 18.0058 9.73728 17.9797 9.61542 17.9289C9.49356 17.8781 9.38296 17.8037 9.29 17.71C9.19627 17.617 9.12188 17.5064 9.07111 17.3846C9.02034 17.2627 8.9942 17.132 8.9942 17C8.9942 16.868 9.02034 16.7373 9.07111 16.6154C9.12188 16.4936 9.19627 16.383 9.29 16.29L10.59 15L9.29 13.71ZM21.41 3.59C21.0366 3.21441 20.5296 3.00223 20 3H4C3.46957 3 2.96086 3.21071 2.58579 3.58579C2.21071 3.96086 2 4.46957 2 5V6C2 6.26522 2.10536 6.51957 2.29289 6.70711C2.48043 6.89464 2.73478 7 3 7H21C21.2652 7 21.5196 6.89464 21.7071 6.70711C21.8946 6.51957 22 6.26522 22 6V5C21.9978 4.47042 21.7856 3.96335 21.41 3.59Z" fill="#141414"/>
</svg>
