<svg width="24" height="24" viewBox="0 0 24 24" fill="none" xmlns="http://www.w3.org/2000/svg">
<path d="M19.9199 4.62C19.8185 4.37565 19.6243 4.18147 19.3799 4.08C19.2597 4.02876 19.1306 4.00158 18.9999 4H8.99994C8.73472 4 8.48037 4.10536 8.29283 4.29289C8.1053 4.48043 7.99994 4.73478 7.99994 5C7.99994 5.26522 8.1053 5.51957 8.29283 5.70711C8.48037 5.89464 8.73472 6 8.99994 6H16.5899L4.28994 18.29C4.19621 18.383 4.12182 18.4936 4.07105 18.6154C4.02028 18.7373 3.99414 18.868 3.99414 19C3.99414 19.132 4.02028 19.2627 4.07105 19.3846C4.12182 19.5064 4.19621 19.617 4.28994 19.71C4.3829 19.8037 4.4935 19.8781 4.61536 19.9289C4.73722 19.9797 4.86793 20.0058 4.99994 20.0058C5.13195 20.0058 5.26266 19.9797 5.38452 19.9289C5.50638 19.8781 5.61698 19.8037 5.70994 19.71L17.9999 7.41V15C17.9999 15.2652 18.1053 15.5196 18.2928 15.7071C18.4804 15.8946 18.7347 16 18.9999 16C19.2652 16 19.5195 15.8946 19.707 15.7071C19.8946 15.5196 19.9999 15.2652 19.9999 15V5C19.9984 4.86932 19.9712 4.74022 19.9199 4.62Z" fill="#141414"/>
</svg>
