<svg width="24" height="24" viewBox="0 0 24 24" fill="none" xmlns="http://www.w3.org/2000/svg">
<path d="M12 2C10.0222 2 8.08879 2.58649 6.4443 3.6853C4.79981 4.78412 3.51809 6.3459 2.76121 8.17317C2.00433 10.0004 1.8063 12.0111 2.19215 13.9509C2.578 15.8907 3.53041 17.6725 4.92894 19.0711C6.32746 20.4696 8.10929 21.422 10.0491 21.8079C11.9889 22.1937 13.9996 21.9957 15.8268 21.2388C17.6541 20.4819 19.2159 19.2002 20.3147 17.5557C21.4135 15.9112 22 13.9778 22 12C22 10.6868 21.7413 9.38642 21.2388 8.17317C20.7363 6.95991 19.9997 5.85752 19.0711 4.92893C18.1425 4.00035 17.0401 3.26375 15.8268 2.7612C14.6136 2.25866 13.3132 2 12 2ZM9.25 8C9.49723 8 9.73891 8.07331 9.94447 8.21066C10.15 8.34801 10.3102 8.54324 10.4049 8.77165C10.4995 9.00005 10.5242 9.25139 10.476 9.49386C10.4278 9.73634 10.3087 9.95907 10.1339 10.1339C9.95907 10.3087 9.73634 10.4278 9.49387 10.476C9.25139 10.5242 9.00006 10.4995 8.77165 10.4048C8.54324 10.3102 8.34802 10.15 8.21067 9.94446C8.07332 9.7389 8 9.49723 8 9.25C8 8.91848 8.1317 8.60054 8.36612 8.36612C8.60054 8.1317 8.91848 8 9.25 8ZM14.75 16C14.5028 16 14.2611 15.9267 14.0555 15.7893C13.85 15.652 13.6898 15.4568 13.5952 15.2284C13.5005 14.9999 13.4758 14.7486 13.524 14.5061C13.5723 14.2637 13.6913 14.0409 13.8661 13.8661C14.0409 13.6913 14.2637 13.5722 14.5061 13.524C14.7486 13.4758 15 13.5005 15.2284 13.5952C15.4568 13.6898 15.652 13.85 15.7893 14.0555C15.9267 14.2611 16 14.5028 16 14.75C16 15.0815 15.8683 15.3995 15.6339 15.6339C15.3995 15.8683 15.0815 16 14.75 16ZM15.75 9.71L9.75 15.71C9.65704 15.8037 9.54644 15.8781 9.42458 15.9289C9.30272 15.9797 9.17202 16.0058 9.04 16.0058C8.90799 16.0058 8.77729 15.9797 8.65543 15.9289C8.53357 15.8781 8.42297 15.8037 8.33 15.71C8.23628 15.617 8.16188 15.5064 8.11111 15.3846C8.06034 15.2627 8.03421 15.132 8.03421 15C8.03421 14.868 8.06034 14.7373 8.11111 14.6154C8.16188 14.4936 8.23628 14.383 8.33 14.29L14.33 8.29C14.5183 8.1017 14.7737 7.99591 15.04 7.99591C15.3063 7.99591 15.5617 8.1017 15.75 8.29C15.9383 8.4783 16.0441 8.7337 16.0441 9C16.0441 9.2663 15.9383 9.5217 15.75 9.71Z" fill="#141414"/>
</svg>
