<svg width="24" height="24" viewBox="0 0 24 24" fill="none" xmlns="http://www.w3.org/2000/svg">
<path d="M15 5C13.9607 5.00046 12.935 5.23637 12 5.69C11.065 5.23637 10.0393 5.00046 9 5C7.14348 5 5.36301 5.7375 4.05025 7.05025C2.7375 8.36301 2 10.1435 2 12C2 13.8565 2.7375 15.637 4.05025 16.9497C5.36301 18.2625 7.14348 19 9 19C10.0393 18.9995 11.065 18.7636 12 18.31C12.935 18.7636 13.9607 18.9995 15 19C16.8565 19 18.637 18.2625 19.9497 16.9497C21.2625 15.637 22 13.8565 22 12C22 10.1435 21.2625 8.36301 19.9497 7.05025C18.637 5.7375 16.8565 5 15 5ZM9 17C7.67392 17 6.40215 16.4732 5.46447 15.5355C4.52678 14.5979 4 13.3261 4 12C4 10.6739 4.52678 9.40215 5.46447 8.46447C6.40215 7.52678 7.67392 7 9 7C9.33566 7.00319 9.67035 7.03666 10 7.1C8.71741 8.4085 7.999 10.1677 7.999 12C7.999 13.8323 8.71741 15.5915 10 16.9C9.67035 16.9633 9.33566 16.9968 9 17ZM12 16C11.368 15.5419 10.8534 14.9406 10.4987 14.2453C10.1439 13.55 9.9589 12.7806 9.9589 12C9.9589 11.2194 10.1439 10.45 10.4987 9.75467C10.8534 9.05938 11.368 8.45806 12 8C12.632 8.45806 13.1466 9.05938 13.5013 9.75467C13.8561 10.45 14.0411 11.2194 14.0411 12C14.0411 12.7806 13.8561 13.55 13.5013 14.2453C13.1466 14.9406 12.632 15.5419 12 16Z" fill="#141414"/>
</svg>
