<svg width="24" height="24" viewBox="0 0 24 24" fill="none" xmlns="http://www.w3.org/2000/svg">
<path d="M12 2C10.0222 2 8.08879 2.58649 6.4443 3.6853C4.79981 4.78412 3.51809 6.3459 2.76121 8.17317C2.00433 10.0004 1.8063 12.0111 2.19215 13.9509C2.578 15.8907 3.53041 17.6725 4.92894 19.0711C6.32746 20.4696 8.10929 21.422 10.0491 21.8079C11.9889 22.1937 13.9996 21.9957 15.8268 21.2388C17.6541 20.4819 19.2159 19.2002 20.3147 17.5557C21.4135 15.9112 22 13.9778 22 12C22 10.6868 21.7413 9.38642 21.2388 8.17317C20.7363 6.95991 19.9997 5.85752 19.0711 4.92893C18.1425 4.00035 17.0401 3.26375 15.8268 2.7612C14.6136 2.25866 13.3132 2 12 2ZM8 16.5C7.70333 16.5 7.41332 16.412 7.16665 16.2472C6.91998 16.0824 6.72772 15.8481 6.61418 15.574C6.50065 15.2999 6.47095 14.9983 6.52883 14.7074C6.5867 14.4164 6.72957 14.1491 6.93934 13.9393C7.14912 13.7296 7.4164 13.5867 7.70737 13.5288C7.99834 13.4709 8.29994 13.5006 8.57403 13.6142C8.84812 13.7277 9.08239 13.92 9.24721 14.1666C9.41203 14.4133 9.5 14.7033 9.5 15C9.5 15.3978 9.34197 15.7794 9.06066 16.0607C8.77936 16.342 8.39783 16.5 8 16.5ZM12 9C11.7033 9 11.4133 8.91203 11.1666 8.7472C10.92 8.58238 10.7277 8.34811 10.6142 8.07403C10.5007 7.79994 10.4709 7.49834 10.5288 7.20736C10.5867 6.91639 10.7296 6.64912 10.9393 6.43934C11.1491 6.22956 11.4164 6.0867 11.7074 6.02882C11.9983 5.97094 12.2999 6.00065 12.574 6.11418C12.8481 6.22771 13.0824 6.41997 13.2472 6.66664C13.412 6.91332 13.5 7.20333 13.5 7.5C13.5 7.89782 13.342 8.27936 13.0607 8.56066C12.7794 8.84196 12.3978 9 12 9ZM16 16.5C15.7033 16.5 15.4133 16.412 15.1666 16.2472C14.92 16.0824 14.7277 15.8481 14.6142 15.574C14.5007 15.2999 14.4709 14.9983 14.5288 14.7074C14.5867 14.4164 14.7296 14.1491 14.9393 13.9393C15.1491 13.7296 15.4164 13.5867 15.7074 13.5288C15.9983 13.4709 16.2999 13.5006 16.574 13.6142C16.8481 13.7277 17.0824 13.92 17.2472 14.1666C17.412 14.4133 17.5 14.7033 17.5 15C17.5 15.3978 17.342 15.7794 17.0607 16.0607C16.7794 16.342 16.3978 16.5 16 16.5Z" fill="#141414"/>
</svg>
