<svg width="24" height="24" viewBox="0 0 24 24" fill="none" xmlns="http://www.w3.org/2000/svg">
<path d="M17.7801 8.71031C17.9701 8.90031 18.2201 9.00031 18.4901 9.00031C18.7601 9.00031 19.0101 8.89031 19.2001 8.71031C20.0201 7.88031 20.2101 6.66031 19.7701 5.66031L20.7201 4.71031C21.1101 4.32031 21.1101 3.69031 20.7201 3.30031C20.3301 2.91031 19.7001 2.91031 19.3101 3.30031L18.3701 4.24031C17.3601 3.80031 16.1401 3.98031 15.3101 4.81031C14.9201 5.20031 14.9201 5.83031 15.3101 6.22031L17.8001 8.71031H17.7801ZM19.0001 11.0003H8.07006L6.66006 8.89031C6.05006 7.97031 4.81006 7.72031 3.89006 8.34031C2.97006 8.95031 2.72006 10.1903 3.34006 11.1103L4.75006 13.2203C5.49006 14.3403 6.74006 15.0003 8.08006 15.0003H11.0101V19.0003H9.01006C8.46006 19.0003 8.01006 19.4503 8.01006 20.0003C8.01006 20.5503 8.46006 21.0003 9.01006 21.0003H15.0101C15.5601 21.0003 16.0101 20.5503 16.0101 20.0003C16.0101 19.4503 15.5601 19.0003 15.0101 19.0003H13.0101V15.0003H19.0101C20.1101 15.0003 21.0101 14.1003 21.0101 13.0003C21.0101 11.9003 20.1101 11.0003 19.0101 11.0003H19.0001Z" fill="#141414"/>
</svg>
