<svg width="24" height="24" viewBox="0 0 24 24" fill="none" xmlns="http://www.w3.org/2000/svg">
<path d="M21 8C20.7348 8 20.4804 8.10536 20.2929 8.29289C20.1054 8.48043 20 8.73478 20 9H16.46C15.5555 7.99086 14.3359 7.31765 13 7.09V5H14C14.2652 5 14.5196 4.89464 14.7071 4.70711C14.8946 4.51957 15 4.26522 15 4C15 3.73478 14.8946 3.48043 14.7071 3.29289C14.5196 3.10536 14.2652 3 14 3H10C9.73478 3 9.48043 3.10536 9.29289 3.29289C9.10536 3.48043 9 3.73478 9 4C9 4.26522 9.10536 4.51957 9.29289 4.70711C9.48043 4.89464 9.73478 5 10 5H11V7.09C9.66406 7.31765 8.44453 7.99086 7.54 9H4C4 8.73478 3.89464 8.48043 3.70711 8.29289C3.51957 8.10536 3.26522 8 3 8C2.73478 8 2.48043 8.10536 2.29289 8.29289C2.10536 8.48043 2 8.73478 2 9V17C2 17.2652 2.10536 17.5196 2.29289 17.7071C2.48043 17.8946 2.73478 18 3 18C3.26522 18 3.51957 17.8946 3.70711 17.7071C3.89464 17.5196 4 17.2652 4 17H7.54C8.10264 17.6252 8.79046 18.1252 9.55881 18.4674C10.3272 18.8096 11.1589 18.9865 12 18.9865C12.8411 18.9865 13.6728 18.8096 14.4412 18.4674C15.2095 18.1252 15.8974 17.6252 16.46 17H20C20 17.2652 20.1054 17.5196 20.2929 17.7071C20.4804 17.8946 20.7348 18 21 18C21.2652 18 21.5196 17.8946 21.7071 17.7071C21.8946 17.5196 22 17.2652 22 17V9C22 8.73478 21.8946 8.48043 21.7071 8.29289C21.5196 8.10536 21.2652 8 21 8Z" fill="#141414"/>
</svg>
