<svg width="24" height="24" viewBox="0 0 24 24" fill="none" xmlns="http://www.w3.org/2000/svg">
<path d="M19 3H5C4.46957 3 3.96086 3.21071 3.58579 3.58579C3.21071 3.96086 3 4.46957 3 5V15C3 15.5304 3.21071 16.0391 3.58579 16.4142C3.96086 16.7893 4.46957 17 5 17H6C6 17.5304 6.21071 18.0391 6.58579 18.4142C6.96086 18.7893 7.46957 19 8 19H9C9 19.5304 9.21071 20.0391 9.58579 20.4142C9.96086 20.7893 10.4696 21 11 21H13C13.5304 21 14.0391 20.7893 14.4142 20.4142C14.7893 20.0391 15 19.5304 15 19H16C16.5304 19 17.0391 18.7893 17.4142 18.4142C17.7893 18.0391 18 17.5304 18 17H19C19.5304 17 20.0391 16.7893 20.4142 16.4142C20.7893 16.0391 21 15.5304 21 15V5C21 4.46957 20.7893 3.96086 20.4142 3.58579C20.0391 3.21071 19.5304 3 19 3ZM14.8 11.6L11.8 15.6C11.7069 15.7242 11.5861 15.825 11.4472 15.8944C11.3084 15.9639 11.1552 16 11 16C10.7836 16 10.5731 15.9298 10.4 15.8C10.2949 15.7212 10.2064 15.6225 10.1395 15.5095C10.0726 15.3965 10.0286 15.2714 10.0101 15.1414C9.99148 15.0114 9.99869 14.879 10.0313 14.7518C10.0639 14.6246 10.1212 14.5051 10.2 14.4L12 12H10C9.81533 11.9994 9.63443 11.9478 9.47733 11.8507C9.32024 11.7536 9.1931 11.6149 9.11 11.45C9.0355 11.2902 9.00459 11.1135 9.0204 10.9379C9.0362 10.7623 9.09817 10.5939 9.2 10.45L12.2 6.45C12.3591 6.23783 12.596 6.09756 12.8586 6.06005C13.1211 6.02254 13.3878 6.09087 13.6 6.25C13.8122 6.40913 13.9524 6.64603 13.9899 6.90858C14.0275 7.17113 13.9591 7.43783 13.8 7.65L12 10H14C14.1847 10.0006 14.3656 10.0522 14.5227 10.1493C14.6798 10.2464 14.8069 10.3851 14.89 10.55C14.9742 10.716 15.0104 10.9023 14.9945 11.0878C14.9786 11.2733 14.9113 11.4507 14.8 11.6Z" fill="#141414"/>
</svg>
