<svg width="24" height="24" viewBox="0 0 24 24" fill="none" xmlns="http://www.w3.org/2000/svg">
<path d="M21.61 7.82012C21.3122 7.43215 20.8862 7.16277 20.408 7.06018C19.9298 6.95758 19.4307 7.02845 19 7.26012L16.24 8.65012L9.35 6.06012C9.22041 6.01283 9.08244 5.99285 8.94477 6.00146C8.80709 6.01006 8.67268 6.04706 8.55 6.11012L6.55 7.11012C6.39381 7.18838 6.26085 7.30618 6.16435 7.4518C6.06785 7.59743 6.01119 7.76579 6 7.94012C5.99057 8.11488 6.02716 8.28904 6.10613 8.44522C6.1851 8.6014 6.30367 8.73412 6.45 8.83012L10.45 11.5201L8 12.7801L5.55 11.1701C5.40331 11.0731 5.23362 11.0164 5.05805 11.0059C4.88248 10.9953 4.70723 11.0313 4.55 11.1101L2.54999 12.1101C2.40877 12.1806 2.28622 12.2834 2.19236 12.4103C2.09851 12.5372 2.03602 12.6845 2.00999 12.8401C1.98417 12.997 1.9961 13.1577 2.04479 13.309C2.09348 13.4603 2.17754 13.5978 2.28999 13.7101L4.71 16.1201C5.27206 16.6829 6.03461 16.9994 6.83 17.0001H7C7.9684 16.9978 8.9232 16.772 9.79 16.3401L20.89 10.7901C21.1503 10.66 21.379 10.4747 21.5603 10.2471C21.7416 10.0195 21.871 9.75509 21.9396 9.4723C22.0082 9.18951 22.0142 8.89517 21.9573 8.60981C21.9003 8.32445 21.7818 8.05496 21.61 7.82012Z" fill="#141414"/>
</svg>
