<svg width="24" height="24" viewBox="0 0 24 24" fill="none" xmlns="http://www.w3.org/2000/svg">
<path d="M20 10C19.7862 10.0024 19.574 10.0361 19.37 10.1C19.2206 10.1596 19.0589 10.1823 18.8989 10.166C18.7388 10.1498 18.585 10.0953 18.4505 10.0069C18.3161 9.91858 18.2049 9.7991 18.1265 9.65863C18.048 9.51815 18.0046 9.36082 18 9.2V7C18 6.20435 17.6839 5.44129 17.1213 4.87868C16.5587 4.31607 15.7956 4 15 4H5C4.20435 4 3.44129 4.31607 2.87868 4.87868C2.31607 5.44129 2 6.20435 2 7V17C2 17.7956 2.31607 18.5587 2.87868 19.1213C3.44129 19.6839 4.20435 20 5 20H7.2C7.36082 19.9954 7.51815 19.952 7.65863 19.8735C7.7991 19.7951 7.91858 19.6839 8.00692 19.5495C8.09526 19.415 8.14984 19.2612 8.16605 19.1011C8.18225 18.9411 8.1596 18.7794 8.1 18.63C8.0361 18.426 8.00241 18.2138 8 18C8 17.4696 8.21071 16.9609 8.58579 16.5858C8.96086 16.2107 9.46957 16 10 16C10.5304 16 11.0391 16.2107 11.4142 16.5858C11.7893 16.9609 12 17.4696 12 18C11.9976 18.2138 11.9639 18.426 11.9 18.63C11.8404 18.7794 11.8177 18.9411 11.834 19.1011C11.8502 19.2612 11.9047 19.415 11.9931 19.5495C12.0814 19.6839 12.2009 19.7951 12.3414 19.8735C12.4819 19.952 12.6392 19.9954 12.8 20H15C15.7956 20 16.5587 19.6839 17.1213 19.1213C17.6839 18.5587 18 17.7956 18 17V14.8C18.0046 14.6392 18.048 14.4819 18.1265 14.3414C18.2049 14.2009 18.3161 14.0814 18.4505 13.9931C18.585 13.9047 18.7388 13.8502 18.8989 13.834C19.0589 13.8177 19.2206 13.8404 19.37 13.9C19.574 13.9639 19.7862 13.9976 20 14C20.5304 14 21.0391 13.7893 21.4142 13.4142C21.7893 13.0391 22 12.5304 22 12C22 11.4696 21.7893 10.9609 21.4142 10.5858C21.0391 10.2107 20.5304 10 20 10Z" fill="#141414"/>
</svg>
