<svg width="24" height="24" viewBox="0 0 24 24" fill="none" xmlns="http://www.w3.org/2000/svg">
<path d="M16.9829 15C16.3903 15 15.811 15.1759 15.3182 15.5056C14.8255 15.8352 14.4414 16.3038 14.2147 16.852C13.9879 17.4001 13.9285 18.0033 14.0442 18.5853C14.1598 19.1672 14.4451 19.7018 14.8642 20.1213C15.2832 20.5409 15.8171 20.8266 16.3984 20.9424C16.9796 21.0581 17.5821 20.9987 18.1296 20.7716C18.6771 20.5446 19.145 20.1601 19.4743 19.6667C19.8035 19.1734 19.9792 18.5933 19.9792 18C19.9792 17.2044 19.6636 16.4413 19.1016 15.8787C18.5397 15.3161 17.7776 15 16.9829 15ZM5.99635 9C6.58897 9 7.16828 8.82405 7.66103 8.49441C8.15377 8.16477 8.53782 7.69623 8.7646 7.14805C8.99139 6.59987 9.05073 5.99667 8.93511 5.41473C8.8195 4.83279 8.53413 4.29824 8.11508 3.87868C7.69604 3.45912 7.16214 3.1734 6.58091 3.05765C5.99967 2.94189 5.39721 3.0013 4.8497 3.22836C4.30219 3.45543 3.83423 3.83994 3.50499 4.33329C3.17575 4.82664 3.00002 5.40666 3.00002 6C3.00002 6.79565 3.3157 7.55871 3.87762 8.12132C4.43954 8.68393 5.20167 9 5.99635 9ZM18.9805 3H14.9854C14.7205 3 14.4664 3.10536 14.2791 3.29289C14.0918 3.48043 13.9866 3.73478 13.9866 4C13.9866 4.26522 14.0918 4.51957 14.2791 4.70711C14.4664 4.89464 14.7205 5 14.9854 5H16.6733L3.26969 19.32C3.08366 19.5074 2.97925 19.7608 2.97925 20.025C2.97925 20.2892 3.08366 20.5426 3.26969 20.73C3.36702 20.8215 3.48169 20.8926 3.60693 20.9389C3.73216 20.9853 3.86541 21.0061 3.99879 21C4.13574 20.9996 4.27114 20.9709 4.39657 20.9159C4.522 20.8608 4.63478 20.7805 4.7279 20.68L17.9817 6.53V8C17.9817 8.26522 18.0869 8.51957 18.2742 8.70711C18.4615 8.89464 18.7156 9 18.9805 9C19.2454 9 19.4994 8.89464 19.6867 8.70711C19.874 8.51957 19.9792 8.26522 19.9792 8V4C19.9792 3.73478 19.874 3.48043 19.6867 3.29289C19.4994 3.10536 19.2454 3 18.9805 3Z" fill="#141414"/>
</svg>
