<svg width="24" height="24" viewBox="0 0 24 24" fill="none" xmlns="http://www.w3.org/2000/svg">
<path d="M7.5 11H7V12H7.5C7.63261 12 7.75979 11.9473 7.85356 11.8536C7.94733 11.7598 8 11.6326 8 11.5C8 11.3674 7.94733 11.2402 7.85356 11.1464C7.75979 11.0527 7.63261 11 7.5 11ZM12 2C10.0222 2 8.08879 2.58649 6.4443 3.6853C4.79981 4.78412 3.51809 6.3459 2.76121 8.17317C2.00433 10.0004 1.8063 12.0111 2.19215 13.9509C2.578 15.8907 3.53041 17.6725 4.92894 19.0711C6.32746 20.4696 8.10929 21.422 10.0491 21.8079C11.9889 22.1937 13.9996 21.9957 15.8268 21.2388C17.6541 20.4819 19.2159 19.2002 20.3147 17.5557C21.4135 15.9112 22 13.9778 22 12C22 10.6868 21.7413 9.38642 21.2388 8.17317C20.7363 6.95991 19.9997 5.85752 19.0711 4.92893C18.1425 4.00035 17.0401 3.26375 15.8268 2.7612C14.6136 2.25866 13.3132 2 12 2ZM7.5 13H7V13.5C7 13.6326 6.94733 13.7598 6.85356 13.8536C6.75979 13.9473 6.63261 14 6.5 14C6.3674 14 6.24022 13.9473 6.14645 13.8536C6.05268 13.7598 6 13.6326 6 13.5V10.5C6 10.3674 6.05268 10.2402 6.14645 10.1464C6.24022 10.0527 6.3674 10 6.5 10H7.5C7.89783 10 8.27936 10.158 8.56066 10.4393C8.84197 10.7206 9 11.1022 9 11.5C9 11.8978 8.84197 12.2794 8.56066 12.5607C8.27936 12.842 7.89783 13 7.5 13ZM12.78 13.08C12.8903 13.1552 12.9667 13.2706 12.9929 13.4014C13.0191 13.5323 12.9929 13.6682 12.92 13.78C12.8724 13.8473 12.8096 13.9024 12.7365 13.9407C12.6635 13.9789 12.5824 13.9992 12.5 14C12.4013 13.998 12.3048 13.9705 12.22 13.92L11 13.1V13.5C11 13.6326 10.9473 13.7598 10.8536 13.8536C10.7598 13.9473 10.6326 14 10.5 14C10.3674 14 10.2402 13.9473 10.1465 13.8536C10.0527 13.7598 10 13.6326 10 13.5V10.5C10 10.3674 10.0527 10.2402 10.1465 10.1464C10.2402 10.0527 10.3674 10 10.5 10H11.5C11.8978 10 12.2794 10.158 12.5607 10.4393C12.842 10.7206 13 11.1022 13 11.5C13.0004 11.7523 12.9363 12.0005 12.8138 12.221C12.6912 12.4415 12.5144 12.627 12.3 12.76L12.78 13.08ZM16 14C15.6044 14 15.2178 13.8827 14.8889 13.6629C14.56 13.4432 14.3036 13.1308 14.1522 12.7654C14.0009 12.3999 13.9613 11.9978 14.0384 11.6098C14.1156 11.2219 14.3061 10.8655 14.5858 10.5858C14.8655 10.3061 15.2219 10.1156 15.6098 10.0384C15.9978 9.96126 16.3999 10.0009 16.7654 10.1522C17.1308 10.3036 17.4432 10.56 17.6629 10.8889C17.8827 11.2178 18 11.6044 18 12C18 12.5304 17.7893 13.0391 17.4142 13.4142C17.0391 13.7893 16.5304 14 16 14ZM11.5 11H11V12H11.5C11.6326 12 11.7598 11.9473 11.8536 11.8536C11.9473 11.7598 12 11.6326 12 11.5C12 11.3674 11.9473 11.2402 11.8536 11.1464C11.7598 11.0527 11.6326 11 11.5 11ZM16 11C15.8022 11 15.6089 11.0586 15.4444 11.1685C15.28 11.2784 15.1518 11.4346 15.0761 11.6173C15.0004 11.8 14.9806 12.0011 15.0192 12.1951C15.0578 12.3891 15.153 12.5673 15.2929 12.7071C15.4328 12.847 15.6109 12.9422 15.8049 12.9808C15.9989 13.0194 16.2 12.9996 16.3827 12.9239C16.5654 12.8482 16.7216 12.72 16.8315 12.5556C16.9414 12.3911 17 12.1978 17 12C17 11.7348 16.8946 11.4804 16.7071 11.2929C16.5196 11.1054 16.2652 11 16 11Z" fill="#141414"/>
</svg>
