<svg width="24" height="24" viewBox="0 0 24 24" fill="none" xmlns="http://www.w3.org/2000/svg">
<path d="M6 13C5.80222 13 5.60888 13.0586 5.44443 13.1685C5.27998 13.2784 5.15181 13.4346 5.07612 13.6173C5.00043 13.8 4.98063 14.0011 5.01921 14.1951C5.0578 14.3891 5.15304 14.5673 5.29289 14.7071C5.43275 14.847 5.61093 14.9422 5.80491 14.9808C5.99889 15.0194 6.19996 14.9996 6.38268 14.9239C6.56541 14.8482 6.72159 14.72 6.83147 14.5556C6.94135 14.3911 7 14.1978 7 14C7 13.7348 6.89464 13.4804 6.70711 13.2929C6.51957 13.1054 6.26522 13 6 13ZM20 2H9C8.46957 2 7.96086 2.21071 7.58579 2.58579C7.21071 2.96086 7 3.46957 7 4V10H4C3.46957 10 2.96086 10.2107 2.58579 10.5858C2.21071 10.9609 2 11.4696 2 12V20C2 20.5304 2.21071 21.0391 2.58579 21.4142C2.96086 21.7893 3.46957 22 4 22H15C15.5304 22 16.0391 21.7893 16.4142 21.4142C16.7893 21.0391 17 20.5304 17 20V14H20C20.5304 14 21.0391 13.7893 21.4142 13.4142C21.7893 13.0391 22 12.5304 22 12V4C22 3.46957 21.7893 2.96086 21.4142 2.58579C21.0391 2.21071 20.5304 2 20 2ZM12.71 14.29C12.617 14.1963 12.5064 14.1219 12.3846 14.0711C12.2627 14.0203 12.132 13.9942 12 13.9942C11.868 13.9942 11.7373 14.0203 11.6154 14.0711C11.4936 14.1219 11.383 14.1963 11.29 14.29L8 17.59L6.71 16.29C6.61704 16.1963 6.50644 16.1219 6.38458 16.0711C6.26272 16.0203 6.13201 15.9942 6 15.9942C5.86799 15.9942 5.73728 16.0203 5.61542 16.0711C5.49356 16.1219 5.38296 16.1963 5.29 16.29L4 17.59V12H15V16.59L12.71 14.29ZM17 12C17 11.4696 16.7893 10.9609 16.4142 10.5858C16.0391 10.2107 15.5304 10 15 10H9V4H20V12H17ZM14 6.08C13.9244 6.02889 13.8362 5.99944 13.7451 5.99486C13.6539 5.99027 13.5633 6.01072 13.4829 6.05399C13.4026 6.09726 13.3356 6.16169 13.2892 6.24031C13.2429 6.31894 13.2189 6.40874 13.22 6.5V8.5C13.2208 8.58973 13.2453 8.67766 13.2909 8.75492C13.3366 8.83217 13.4018 8.89602 13.48 8.94C13.5541 8.97865 13.6364 8.99921 13.72 9C13.8187 8.99803 13.9152 8.97046 14 8.92L15.5 7.92C15.5681 7.87312 15.6237 7.81039 15.6622 7.73723C15.7006 7.66406 15.7207 7.58265 15.7207 7.5C15.7207 7.41735 15.7006 7.33594 15.6622 7.26277C15.6237 7.18961 15.5681 7.12688 15.5 7.08L14 6.08Z" fill="#141414"/>
</svg>
