<svg width="24" height="24" viewBox="0 0 24 24" fill="none" xmlns="http://www.w3.org/2000/svg">
<path d="M12 2C10.0222 2 8.08879 2.58649 6.4443 3.6853C4.79981 4.78412 3.51809 6.3459 2.76121 8.17317C2.00433 10.0004 1.8063 12.0111 2.19215 13.9509C2.578 15.8907 3.53041 17.6725 4.92894 19.0711C6.32746 20.4696 8.10929 21.422 10.0491 21.8079C11.9889 22.1937 13.9996 21.9957 15.8268 21.2388C17.6541 20.4819 19.2159 19.2002 20.3147 17.5557C21.4135 15.9112 22 13.9778 22 12C22 10.6868 21.7413 9.38642 21.2388 8.17317C20.7363 6.95991 19.9997 5.85752 19.0711 4.92893C18.1425 4.00035 17.0401 3.26375 15.8268 2.7612C14.6136 2.25866 13.3132 2 12 2ZM13.5 13.5H10.5V15.5C10.5 15.7652 10.3946 16.0196 10.2071 16.2071C10.0196 16.3946 9.76522 16.5 9.5 16.5C9.23479 16.5 8.98043 16.3946 8.7929 16.2071C8.60536 16.0196 8.5 15.7652 8.5 15.5V8.5C8.5 8.23478 8.60536 7.98043 8.7929 7.79289C8.98043 7.60536 9.23479 7.5 9.5 7.5H13.5C14.2957 7.5 15.0587 7.81607 15.6213 8.37868C16.1839 8.94129 16.5 9.70435 16.5 10.5C16.5 11.2956 16.1839 12.0587 15.6213 12.6213C15.0587 13.1839 14.2957 13.5 13.5 13.5Z" fill="#141414"/>
<path d="M13.5 9.5H10.5V11.5H13.5C13.7652 11.5 14.0196 11.3946 14.2071 11.2071C14.3946 11.0196 14.5 10.7652 14.5 10.5C14.5 10.2348 14.3946 9.98043 14.2071 9.79289C14.0196 9.60536 13.7652 9.5 13.5 9.5Z" fill="#141414"/>
<path d="M13.5 9.5H10.5V11.5H13.5C13.7652 11.5 14.0196 11.3946 14.2071 11.2071C14.3946 11.0196 14.5 10.7652 14.5 10.5C14.5 10.2348 14.3946 9.98043 14.2071 9.79289C14.0196 9.60536 13.7652 9.5 13.5 9.5ZM12 2C10.0222 2 8.08879 2.58649 6.4443 3.6853C4.79981 4.78412 3.51809 6.3459 2.76121 8.17317C2.00433 10.0004 1.8063 12.0111 2.19215 13.9509C2.578 15.8907 3.53041 17.6725 4.92894 19.0711C6.32746 20.4696 8.10929 21.422 10.0491 21.8079C11.9889 22.1937 13.9996 21.9957 15.8268 21.2388C17.6541 20.4819 19.2159 19.2002 20.3147 17.5557C21.4135 15.9112 22 13.9778 22 12C22 10.6868 21.7413 9.38642 21.2388 8.17317C20.7363 6.95991 19.9997 5.85752 19.0711 4.92893C18.1425 4.00035 17.0401 3.26375 15.8268 2.7612C14.6136 2.25866 13.3132 2 12 2ZM13.5 13.5H10.5V15.5C10.5 15.7652 10.3946 16.0196 10.2071 16.2071C10.0196 16.3946 9.76522 16.5 9.5 16.5C9.23479 16.5 8.98043 16.3946 8.7929 16.2071C8.60536 16.0196 8.5 15.7652 8.5 15.5V8.5C8.5 8.23478 8.60536 7.98043 8.7929 7.79289C8.98043 7.60536 9.23479 7.5 9.5 7.5H13.5C14.2957 7.5 15.0587 7.81607 15.6213 8.37868C16.1839 8.94129 16.5 9.70435 16.5 10.5C16.5 11.2956 16.1839 12.0587 15.6213 12.6213C15.0587 13.1839 14.2957 13.5 13.5 13.5Z" fill="#141414"/>
</svg>
