<svg width="24" height="24" viewBox="0 0 24 24" fill="none" xmlns="http://www.w3.org/2000/svg">
<path d="M2.93 17.3C3.00463 18.0426 3.35335 18.7307 3.90808 19.23C4.4628 19.7292 5.1837 20.0038 5.93 20H18.08C18.8263 20.0038 19.5472 19.7292 20.1019 19.23C20.6567 18.7307 21.0054 18.0426 21.08 17.3L21.21 16H2.8L2.93 17.3ZM21.74 7.00003C21.5385 6.63704 21.2291 6.34576 20.8546 6.16657C20.4801 5.98738 20.0591 5.92918 19.65 6.00003C19.2442 6.07198 18.8704 6.26757 18.58 6.56003L17.72 7.41003C17.6287 7.50357 17.52 7.57831 17.4 7.63003C17.2791 7.67785 17.15 7.70163 17.02 7.70003C16.8877 7.69948 16.7568 7.67268 16.6349 7.62119C16.5131 7.56969 16.4026 7.49452 16.31 7.40003L13.53 4.60003C13.1566 4.23658 12.6561 4.0332 12.135 4.0332C11.6139 4.0332 11.1134 4.23658 10.74 4.60003L7.74 7.52003C7.64055 7.61101 7.52373 7.68093 7.39656 7.72561C7.26939 7.77029 7.13451 7.7888 7 7.78003C6.73766 7.77893 6.48626 7.67478 6.3 7.49003L5.4 6.59003C5.12161 6.29192 4.75872 6.08605 4.36 6.00003C3.94788 5.92472 3.52251 5.98072 3.14392 6.16015C2.76534 6.33957 2.45265 6.63336 2.25 7.00003C2.04743 7.36562 1.96028 7.78397 2 8.20003L2.6 14H21.4L22 8.20003C22.0373 7.7829 21.9466 7.36431 21.74 7.00003Z" fill="#141414"/>
</svg>
