<svg width="24" height="24" viewBox="0 0 24 24" fill="none" xmlns="http://www.w3.org/2000/svg">
<path d="M11.27 10.5201L5.00003 5.69013C4.72437 5.47631 4.39413 5.34431 4.04703 5.30923C3.69993 5.27415 3.34996 5.3374 3.03709 5.49175C2.72422 5.6461 2.46107 5.88532 2.27769 6.18211C2.09431 6.47889 1.99809 6.82127 2.00003 7.17013V16.8301C1.99809 17.179 2.09431 17.5214 2.27769 17.8182C2.46107 18.1149 2.72422 18.3542 3.03709 18.5085C3.34996 18.6629 3.69993 18.7261 4.04703 18.691C4.39413 18.656 4.72437 18.524 5.00003 18.3101L11.27 13.4801C11.4963 13.3054 11.6794 13.0812 11.8055 12.8246C11.9315 12.568 11.997 12.286 11.997 12.0001C11.997 11.7143 11.9315 11.4322 11.8055 11.1757C11.6794 10.9191 11.4963 10.6949 11.27 10.5201ZM15.5 6.00013C15.1022 6.00013 14.7207 6.15817 14.4394 6.43947C14.1581 6.72078 14 7.10231 14 7.50013V16.5001C14 16.898 14.1581 17.2795 14.4394 17.5608C14.7207 17.8421 15.1022 18.0001 15.5 18.0001C15.8979 18.0001 16.2794 17.8421 16.5607 17.5608C16.842 17.2795 17 16.898 17 16.5001V7.50013C17 7.10231 16.842 6.72078 16.5607 6.43947C16.2794 6.15817 15.8979 6.00013 15.5 6.00013ZM20.5 6.00013C20.1022 6.00013 19.7207 6.15817 19.4394 6.43947C19.1581 6.72078 19 7.10231 19 7.50013V16.5001C19 16.898 19.1581 17.2795 19.4394 17.5608C19.7207 17.8421 20.1022 18.0001 20.5 18.0001C20.8979 18.0001 21.2794 17.8421 21.5607 17.5608C21.842 17.2795 22 16.898 22 16.5001V7.50013C22 7.10231 21.842 6.72078 21.5607 6.43947C21.2794 6.15817 20.8979 6.00013 20.5 6.00013Z" fill="#141414"/>
</svg>
