<svg width="24" height="24" viewBox="0 0 24 24" fill="none" xmlns="http://www.w3.org/2000/svg">
<path d="M17 2H7C6.20435 2 5.44129 2.31607 4.87868 2.87868C4.31607 3.44129 4 4.20435 4 5V19C4 19.7956 4.31607 20.5587 4.87868 21.1213C5.44129 21.6839 6.20435 22 7 22H17C17.7956 22 18.5587 21.6839 19.1213 21.1213C19.6839 20.5587 20 19.7956 20 19V5C20 4.20435 19.6839 3.44129 19.1213 2.87868C18.5587 2.31607 17.7956 2 17 2ZM9.5 6H14.5C14.7652 6 15.0196 6.10536 15.2071 6.29289C15.3946 6.48043 15.5 6.73478 15.5 7C15.5 7.26522 15.3946 7.51957 15.2071 7.70711C15.0196 7.89464 14.7652 8 14.5 8H14.32C14.5275 8.58319 14.5494 9.21627 14.383 9.81245C14.2165 10.4086 13.8696 10.9387 13.39 11.33L14.95 12.11C15.1855 12.2299 15.364 12.4381 15.4465 12.6892C15.5289 12.9403 15.5086 13.2138 15.39 13.45C15.3069 13.6149 15.1798 13.7536 15.0227 13.8507C14.8656 13.9478 14.6847 13.9994 14.5 14C14.3431 14.0019 14.1883 13.964 14.05 13.89L10.05 11.89C9.8507 11.7879 9.69144 11.6219 9.59772 11.4185C9.504 11.2151 9.48125 10.9862 9.53312 10.7684C9.58499 10.5505 9.70846 10.3564 9.88377 10.2171C10.0591 10.0778 10.2761 10.0013 10.5 10H11.5C11.7652 10 12.0196 9.89464 12.2071 9.70711C12.3946 9.51957 12.5 9.26522 12.5 9C12.5 8.73478 12.3946 8.48043 12.2071 8.29289C12.0196 8.10536 11.7652 8 11.5 8H9.5C9.23478 8 8.98043 7.89464 8.79289 7.70711C8.60536 7.51957 8.5 7.26522 8.5 7C8.5 6.73478 8.60536 6.48043 8.79289 6.29289C8.98043 6.10536 9.23478 6 9.5 6ZM15 19H9C8.73478 19 8.48043 18.8946 8.29289 18.7071C8.10536 18.5196 8 18.2652 8 18C8 17.7348 8.10536 17.4804 8.29289 17.2929C8.48043 17.1054 8.73478 17 9 17H15C15.2652 17 15.5196 17.1054 15.7071 17.2929C15.8946 17.4804 16 17.7348 16 18C16 18.2652 15.8946 18.5196 15.7071 18.7071C15.5196 18.8946 15.2652 19 15 19Z" fill="#141414"/>
</svg>
