<svg width="24" height="24" viewBox="0 0 24 24" fill="none" xmlns="http://www.w3.org/2000/svg">
<path d="M10.78 10.8401C11.5508 11.0562 12.3652 11.0632 13.1396 10.8605C13.914 10.6578 14.6204 10.2526 15.1865 9.68657C15.7525 9.12054 16.1577 8.41405 16.3604 7.63966C16.5631 6.86527 16.5561 6.05087 16.34 5.2801C16.1352 4.53412 15.7399 3.85425 15.1929 3.30724C14.6459 2.76024 13.966 2.36491 13.22 2.1601C12.4492 1.94402 11.6348 1.93697 10.8604 2.13969C10.086 2.34241 9.37956 2.74759 8.81353 3.31362C8.2475 3.87966 7.84232 4.58614 7.6396 5.36053C7.43688 6.13493 7.44392 6.94933 7.66 7.7201C7.86481 8.46607 8.26014 9.14595 8.80714 9.69295C9.35415 10.24 10.034 10.6353 10.78 10.8401ZM12 12.0001C9.87827 12.0001 7.84344 12.843 6.34315 14.3432C4.84285 15.8435 4 17.8784 4 20.0001C4 20.5305 4.21071 21.0392 4.58579 21.4143C4.96086 21.7894 5.46957 22.0001 6 22.0001H18C18.5304 22.0001 19.0391 21.7894 19.4142 21.4143C19.7893 21.0392 20 20.5305 20 20.0001C20 17.8784 19.1571 15.8435 17.6569 14.3432C16.1566 12.843 14.1217 12.0001 12 12.0001Z" fill="#141414"/>
</svg>
