<svg width="24" height="24" viewBox="0 0 24 24" fill="none" xmlns="http://www.w3.org/2000/svg">
<path d="M19.25 15.1601L16.48 13.7801L14.41 6.72006C14.3701 6.58801 14.3033 6.46565 14.2138 6.36067C14.1243 6.2557 14.0141 6.17037 13.89 6.11006L11.89 5.11006C11.7335 5.03309 11.5597 4.99837 11.3856 5.00936C11.2116 5.02034 11.0435 5.07663 10.8979 5.17266C10.7524 5.26868 10.6345 5.40109 10.5559 5.55676C10.4773 5.71242 10.4408 5.88593 10.45 6.06006L10.72 10.9101L8.21001 9.65005L8.05001 6.76006C8.03957 6.58295 7.98221 6.41181 7.8838 6.2642C7.78539 6.11659 7.64948 5.99781 7.49001 5.92006L5.49001 4.92006C5.34914 4.84808 5.19321 4.81055 5.03501 4.81055C4.87682 4.81055 4.72088 4.84808 4.58001 4.92006C4.44129 4.99387 4.32192 5.09934 4.23157 5.22791C4.14123 5.35648 4.08245 5.50453 4.06001 5.66006L3.58001 9.05006C3.52354 9.44098 3.54483 9.83921 3.64264 10.2219C3.74046 10.6046 3.91288 10.9642 4.15001 11.2801L4.25001 11.4101C4.83092 12.1894 5.58829 12.82 6.46001 13.2501L17.57 18.7901C17.8206 18.9141 18.0944 18.9843 18.3738 18.996C18.6532 19.0076 18.932 18.9606 19.192 18.8579C19.4521 18.7552 19.6878 18.5991 19.8838 18.3996C20.0798 18.2002 20.2318 17.9619 20.33 17.7001C20.4939 17.218 20.4744 16.6924 20.2751 16.2238C20.0759 15.7552 19.7109 15.3765 19.25 15.1601Z" fill="#141414"/>
</svg>
