<svg width="24" height="24" viewBox="0 0 24 24" fill="none" xmlns="http://www.w3.org/2000/svg">
<path d="M16 3C16 2.73478 15.8946 2.48043 15.7071 2.29289C15.5196 2.10536 15.2652 2 15 2H9C8.73478 2 8.48043 2.10536 8.29289 2.29289C8.10536 2.48043 8 2.73478 8 3V4H16V3ZM17 6H7C6.20435 6 5.44129 6.31607 4.87868 6.87868C4.31607 7.44129 4 8.20435 4 9V20C4 20.5304 4.21071 21.0391 4.58579 21.4142C4.96086 21.7893 5.46957 22 6 22H18C18.5304 22 19.0391 21.7893 19.4142 21.4142C19.7893 21.0391 20 20.5304 20 20V9C20 8.20435 19.6839 7.44129 19.1213 6.87868C18.5587 6.31607 17.7956 6 17 6ZM18 11C18 11.5304 17.7893 12.0391 17.4142 12.4142C17.0391 12.7893 16.5304 13 16 13H15V15H16C16.5304 15 17.0391 15.2107 17.4142 15.5858C17.7893 15.9609 18 16.4696 18 17V18C18 18.2652 17.8946 18.5196 17.7071 18.7071C17.5196 18.8946 17.2652 19 17 19C16.7348 19 16.4804 18.8946 16.2929 18.7071C16.1054 18.5196 16 18.2652 16 18V17H14.82C14.6098 17.5792 14.2264 18.0795 13.7218 18.4332C13.2173 18.7868 12.6161 18.9765 12 18.9765C11.3839 18.9765 10.7827 18.7868 10.2782 18.4332C9.77363 18.0795 9.3902 17.5792 9.18 17H8V18C8 18.2652 7.89464 18.5196 7.70711 18.7071C7.51957 18.8946 7.26522 19 7 19C6.73478 19 6.48043 18.8946 6.29289 18.7071C6.10536 18.5196 6 18.2652 6 18V17C6 16.4696 6.21071 15.9609 6.58579 15.5858C6.96086 15.2107 7.46957 15 8 15H9V13H8C7.46957 13 6.96086 12.7893 6.58579 12.4142C6.21071 12.0391 6 11.5304 6 11V10C6 9.73478 6.10536 9.48043 6.29289 9.29289C6.48043 9.10536 6.73478 9 7 9C7.26522 9 7.51957 9.10536 7.70711 9.29289C7.89464 9.48043 8 9.73478 8 10V11H9.18C9.3902 10.4208 9.77363 9.92046 10.2782 9.56684C10.7827 9.21322 11.3839 9.02352 12 9.02352C12.6161 9.02352 13.2173 9.21322 13.7218 9.56684C14.2264 9.92046 14.6098 10.4208 14.82 11H16V10C16 9.73478 16.1054 9.48043 16.2929 9.29289C16.4804 9.10536 16.7348 9 17 9C17.2652 9 17.5196 9.10536 17.7071 9.29289C17.8946 9.48043 18 9.73478 18 10V11ZM12 11C11.7348 11 11.4804 11.1054 11.2929 11.2929C11.1054 11.4804 11 11.7348 11 12V16C11 16.2652 11.1054 16.5196 11.2929 16.7071C11.4804 16.8946 11.7348 17 12 17C12.2652 17 12.5196 16.8946 12.7071 16.7071C12.8946 16.5196 13 16.2652 13 16V12C13 11.7348 12.8946 11.4804 12.7071 11.2929C12.5196 11.1054 12.2652 11 12 11Z" fill="#141414"/>
</svg>
