<svg width="24" height="24" viewBox="0 0 24 24" fill="none" xmlns="http://www.w3.org/2000/svg">
<path d="M12 2C10.0222 2 8.08879 2.58649 6.4443 3.6853C4.79981 4.78412 3.51809 6.3459 2.76121 8.17317C2.00433 10.0004 1.8063 12.0111 2.19215 13.9509C2.578 15.8907 3.53041 17.6725 4.92894 19.0711C6.32746 20.4696 8.10929 21.422 10.0491 21.8079C11.9889 22.1937 13.9996 21.9957 15.8268 21.2388C17.6541 20.4819 19.2159 19.2002 20.3147 17.5557C21.4135 15.9112 22 13.9778 22 12C22 10.6868 21.7413 9.38642 21.2388 8.17317C20.7363 6.95991 19.9997 5.85752 19.0711 4.92893C18.1425 4.00035 17.0401 3.26375 15.8268 2.7612C14.6136 2.25866 13.3132 2 12 2ZM11 15C11 15.3978 10.842 15.7794 10.5607 16.0607C10.2794 16.342 9.89783 16.5 9.5 16.5C9.10218 16.5 8.72065 16.342 8.43934 16.0607C8.15804 15.7794 8 15.3978 8 15V9C8 8.60218 8.15804 8.22064 8.43934 7.93934C8.72065 7.65804 9.10218 7.5 9.5 7.5C9.89783 7.5 10.2794 7.65804 10.5607 7.93934C10.842 8.22064 11 8.60218 11 9V15ZM16 15C16 15.3978 15.842 15.7794 15.5607 16.0607C15.2794 16.342 14.8978 16.5 14.5 16.5C14.1022 16.5 13.7206 16.342 13.4393 16.0607C13.158 15.7794 13 15.3978 13 15V9C13 8.60218 13.158 8.22064 13.4393 7.93934C13.7206 7.65804 14.1022 7.5 14.5 7.5C14.8978 7.5 15.2794 7.65804 15.5607 7.93934C15.842 8.22064 16 8.60218 16 9V15Z" fill="#141414"/>
</svg>
