<svg width="24" height="24" viewBox="0 0 24 24" fill="none" xmlns="http://www.w3.org/2000/svg">
<path d="M19 2H11C10.2044 2 9.44129 2.31607 8.87868 2.87868C8.31607 3.44129 8 4.20435 8 5V8H5C4.20435 8 3.44129 8.31607 2.87868 8.87868C2.31607 9.44129 2 10.2044 2 11V19C2 19.7956 2.31607 20.5587 2.87868 21.1213C3.44129 21.6839 4.20435 22 5 22H13C13.7956 22 14.5587 21.6839 15.1213 21.1213C15.6839 20.5587 16 19.7956 16 19V16H19C19.7956 16 20.5587 15.6839 21.1213 15.1213C21.6839 14.5587 22 13.7956 22 13V5C22 4.20435 21.6839 3.44129 21.1213 2.87868C20.5587 2.31607 19.7956 2 19 2ZM20 13C20 13.2652 19.8946 13.5196 19.7071 13.7071C19.5196 13.8946 19.2652 14 19 14H16V11C16 10.2044 15.6839 9.44129 15.1213 8.87868C14.5587 8.31607 13.7956 8 13 8H10V5C10 4.73478 10.1054 4.48043 10.2929 4.29289C10.4804 4.10536 10.7348 4 11 4H19C19.2652 4 19.5196 4.10536 19.7071 4.29289C19.8946 4.48043 20 4.73478 20 5V13Z" fill="#141414"/>
</svg>
