<svg width="24" height="24" viewBox="0 0 24 24" fill="none" xmlns="http://www.w3.org/2000/svg">
<path d="M19 2C17.35 2 16 3.35 16 5C16 5.47 16.12 5.9 16.31 6.3L14.32 8.28C14.32 8.28 14.3 8.28 14.3 8.29C14.3 8.3 14.3 8.3 14.29 8.31L13.31 9.29C12.92 9.68 12.92 10.31 13.31 10.7C13.51 10.9 13.76 11 14.02 11C14.28 11 14.53 10.9 14.72 10.71L15.02 10.42L15.31 10.71C15.51 10.91 15.76 11 16.02 11C16.28 11 16.53 10.9 16.73 10.71C17.12 10.32 17.12 9.69 16.73 9.3L16.44 9.01L17.75 7.71C18.14 7.89 18.57 8 19.02 8C20.67 8 22.02 6.65 22.02 5C22.02 3.35 20.67 2 19.02 2H19ZM19 6C18.45 6 18 5.55 18 5C18 4.45 18.45 4 19 4C19.55 4 20 4.45 20 5C20 5.55 19.55 6 19 6ZM11 10V3C11 2.65 11.07 2.31 11.18 2H9C7.34 2 6 3.34 6 5V19C6 20.66 7.34 22 9 22H15C16.66 22 18 20.66 18 19V13H14C12.34 13 11 11.66 11 10ZM12 20C11.45 20 11 19.55 11 19C11 18.45 11.45 18 12 18C12.55 18 13 18.45 13 19C13 19.55 12.55 20 12 20Z" fill="#141414"/>
</svg>
