<svg width="24" height="24" viewBox="0 0 24 24" fill="none" xmlns="http://www.w3.org/2000/svg">
<path d="M16 16C14.9391 16 13.9217 15.5786 13.1716 14.8284C12.4214 14.0783 12 13.0609 12 12V11H2V17C2 17.7956 2.31607 18.5587 2.87868 19.1213C3.44129 19.6839 4.20435 20 5 20H19C19.7956 20 20.5587 19.6839 21.1213 19.1213C21.6839 18.5587 22 17.7956 22 17V15.45C21.3933 15.806 20.7034 15.9957 20 16H16ZM12 7C12.0019 5.94622 12.2812 4.91152 12.81 4H5C4.20435 4 3.44129 4.31607 2.87868 4.87868C2.31607 5.44129 2 6.20435 2 7V9H12V7ZM5 8C4.80222 8 4.60888 7.94135 4.44443 7.83147C4.27998 7.72159 4.15181 7.56541 4.07612 7.38268C4.00043 7.19996 3.98063 6.99889 4.01921 6.80491C4.0578 6.61093 4.15304 6.43275 4.29289 6.29289C4.43275 6.15304 4.61093 6.0578 4.80491 6.01921C4.99889 5.98063 5.19996 6.00043 5.38268 6.07612C5.56541 6.15181 5.72159 6.27998 5.83147 6.44443C5.94135 6.60888 6 6.80222 6 7C6 7.26522 5.89464 7.51957 5.70711 7.70711C5.51957 7.89464 5.26522 8 5 8ZM8 8C7.80222 8 7.60888 7.94135 7.44443 7.83147C7.27998 7.72159 7.15181 7.56541 7.07612 7.38268C7.00043 7.19996 6.98063 6.99889 7.01921 6.80491C7.0578 6.61093 7.15304 6.43275 7.29289 6.29289C7.43275 6.15304 7.61093 6.0578 7.80491 6.01921C7.99889 5.98063 8.19996 6.00043 8.38268 6.07612C8.56541 6.15181 8.72159 6.27998 8.83147 6.44443C8.94135 6.60888 9 6.80222 9 7C9 7.26522 8.89464 7.51957 8.70711 7.70711C8.51957 7.89464 8.26522 8 8 8ZM21 6.28V6C21 5.20435 20.6839 4.44129 20.1213 3.87868C19.5587 3.31607 18.7956 3 18 3C17.2044 3 16.4413 3.31607 15.8787 3.87868C15.3161 4.44129 15 5.20435 15 6V6.27C14.6963 6.44536 14.444 6.69752 14.2685 7.00116C14.0929 7.30481 14.0004 7.64927 14 8V12C14 12.5304 14.2107 13.0391 14.5858 13.4142C14.9609 13.7893 15.4696 14 16 14H20C20.5304 14 21.0391 13.7893 21.4142 13.4142C21.7893 13.0391 22 12.5304 22 12V8C21.9979 7.65097 21.9045 7.30857 21.7291 7.00683C21.5536 6.70509 21.3023 6.45451 21 6.28ZM18 11C17.8022 11 17.6089 10.9414 17.4444 10.8315C17.28 10.7216 17.1518 10.5654 17.0761 10.3827C17.0004 10.2 16.9806 9.99889 17.0192 9.80491C17.0578 9.61093 17.153 9.43275 17.2929 9.29289C17.4327 9.15304 17.6109 9.0578 17.8049 9.01921C17.9989 8.98063 18.2 9.00043 18.3827 9.07612C18.5654 9.15181 18.7216 9.27998 18.8315 9.44443C18.9414 9.60888 19 9.80222 19 10C19 10.2652 18.8946 10.5196 18.7071 10.7071C18.5196 10.8946 18.2652 11 18 11ZM17 6C17 5.73478 17.1054 5.48043 17.2929 5.29289C17.4804 5.10536 17.7348 5 18 5C18.2652 5 18.5196 5.10536 18.7071 5.29289C18.8946 5.48043 19 5.73478 19 6H17Z" fill="#141414"/>
</svg>
