<svg width="24" height="24" viewBox="0 0 24 24" fill="none" xmlns="http://www.w3.org/2000/svg">
<path d="M6.99633 9.00098C7.58895 9.00098 8.16826 8.82503 8.66101 8.49539C9.15375 8.16574 9.5378 7.69721 9.76459 7.14903C9.99137 6.60085 10.0507 5.99765 9.93509 5.4157C9.81948 4.83376 9.53411 4.29921 9.11506 3.87965C8.69602 3.4601 8.16212 3.17437 7.58089 3.05862C6.99966 2.94286 6.39719 3.00227 5.84968 3.22934C5.30218 3.4564 4.83421 3.84092 4.50497 4.33427C4.17573 4.82761 4 5.40763 4 6.00098C4 6.79663 4.31568 7.55969 4.8776 8.1223C5.43953 8.68491 6.20166 9.00098 6.99633 9.00098ZM17.9829 15.001C17.3903 15.001 16.811 15.1769 16.3182 15.5066C15.8255 15.8362 15.4414 16.3047 15.2146 16.8529C14.9879 17.4011 14.9285 18.0043 15.0441 18.5862C15.1597 19.1682 15.4451 19.7027 15.8642 20.1223C16.2832 20.5419 16.8171 20.8276 17.3983 20.9433C17.9796 21.0591 18.582 20.9997 19.1295 20.7726C19.6771 20.5456 20.145 20.161 20.4743 19.6677C20.8035 19.1743 20.9792 18.5943 20.9792 18.001C20.9792 17.2053 20.6635 16.4423 20.1016 15.8797C19.5397 15.317 18.7776 15.001 17.9829 15.001ZM4.99878 21.001L8.99389 21.001C9.25878 21.001 9.51283 20.8956 9.70013 20.7081C9.88744 20.5205 9.99267 20.2662 9.99267 20.001C9.99267 19.7358 9.88744 19.4814 9.70013 19.2939C9.51283 19.1063 9.25878 19.001 8.99389 19.001L7.30595 19.001L20.7096 4.68097C20.8956 4.49361 21 4.24016 21 3.97598C21 3.71179 20.8956 3.45834 20.7096 3.27098C20.6122 3.17946 20.4976 3.10841 20.3723 3.06204C20.2471 3.01566 20.1138 2.9949 19.9805 3.00097C19.8435 3.00142 19.7081 3.03005 19.5827 3.0851C19.4573 3.14015 19.3445 3.22044 19.2513 3.32097L5.99756 17.471L5.99756 16.001C5.99756 15.7358 5.89233 15.4814 5.70502 15.2939C5.51771 15.1063 5.26367 15.001 4.99878 15.001C4.73388 15.001 4.47984 15.1063 4.29253 15.2939C4.10523 15.4814 4 15.7358 4 16.001L4 20.001C4 20.2662 4.10523 20.5205 4.29253 20.7081C4.47984 20.8956 4.73388 21.001 4.99878 21.001Z" fill="#141414"/>
</svg>
