<svg width="24" height="24" viewBox="0 0 24 24" fill="none" xmlns="http://www.w3.org/2000/svg">
<path d="M16.17 8C16.1134 8.00483 16.0566 8.00483 16 8H12C11.7348 8 11.4804 7.89464 11.2929 7.70711C11.1054 7.51957 11 7.26522 11 7C11 6.73478 11.1054 6.48043 11.2929 6.29289C11.4804 6.10536 11.7348 6 12 6H14.17C14.0358 5.61506 13.9814 5.2068 14.0102 4.80014C14.039 4.39348 14.1504 3.99696 14.3375 3.63479C14.5247 3.27262 14.7837 2.9524 15.0988 2.69367C15.4139 2.43495 15.7783 2.24316 16.17 2.13C16.1676 2.08642 16.171 2.04271 16.18 2H7C6.20435 2 5.44129 2.31607 4.87868 2.87868C4.31607 3.44129 4 4.20435 4 5V19C4 19.7956 4.31607 20.5587 4.87868 21.1213C5.44129 21.6839 6.20435 22 7 22H17C17.7956 22 18.5587 21.6839 19.1213 21.1213C19.6839 20.5587 20 19.7956 20 19V9.83C19.6284 9.96152 19.2345 10.0185 18.8408 9.99771C18.4471 9.97691 18.0614 9.87873 17.7057 9.70877C17.35 9.53882 17.0313 9.30043 16.7678 9.00722C16.5043 8.71402 16.3012 8.37176 16.17 8ZM8 18.5C7.70333 18.5 7.41332 18.412 7.16664 18.2472C6.91997 18.0824 6.72771 17.8481 6.61418 17.574C6.50065 17.2999 6.47094 16.9983 6.52882 16.7074C6.5867 16.4164 6.72956 16.1491 6.93934 15.9393C7.14912 15.7296 7.41639 15.5867 7.70736 15.5288C7.99834 15.4709 8.29994 15.5006 8.57403 15.6142C8.84811 15.7277 9.08238 15.92 9.2472 16.1666C9.41203 16.4133 9.5 16.7033 9.5 17C9.5 17.3978 9.34196 17.7794 9.06066 18.0607C8.77936 18.342 8.39782 18.5 8 18.5ZM8 13.5C7.70333 13.5 7.41332 13.412 7.16664 13.2472C6.91997 13.0824 6.72771 12.8481 6.61418 12.574C6.50065 12.2999 6.47094 11.9983 6.52882 11.7074C6.5867 11.4164 6.72956 11.1491 6.93934 10.9393C7.14912 10.7296 7.41639 10.5867 7.70736 10.5288C7.99834 10.4709 8.29994 10.5006 8.57403 10.6142C8.84811 10.7277 9.08238 10.92 9.2472 11.1666C9.41203 11.4133 9.5 11.7033 9.5 12C9.5 12.3978 9.34196 12.7794 9.06066 13.0607C8.77936 13.342 8.39782 13.5 8 13.5ZM8 8.5C7.70333 8.5 7.41332 8.41203 7.16664 8.2472C6.91997 8.08238 6.72771 7.84811 6.61418 7.57403C6.50065 7.29994 6.47094 6.99834 6.52882 6.70736C6.5867 6.41639 6.72956 6.14912 6.93934 5.93934C7.14912 5.72956 7.41639 5.5867 7.70736 5.52882C7.99834 5.47094 8.29994 5.50065 8.57403 5.61418C8.84811 5.72771 9.08238 5.91997 9.2472 6.16664C9.41203 6.41332 9.5 6.70333 9.5 7C9.5 7.39782 9.34196 7.77936 9.06066 8.06066C8.77936 8.34196 8.39782 8.5 8 8.5ZM16 18H12C11.7348 18 11.4804 17.8946 11.2929 17.7071C11.1054 17.5196 11 17.2652 11 17C11 16.7348 11.1054 16.4804 11.2929 16.2929C11.4804 16.1054 11.7348 16 12 16H16C16.2652 16 16.5196 16.1054 16.7071 16.2929C16.8946 16.4804 17 16.7348 17 17C17 17.2652 16.8946 17.5196 16.7071 17.7071C16.5196 17.8946 16.2652 18 16 18ZM16 13H12C11.7348 13 11.4804 12.8946 11.2929 12.7071C11.1054 12.5196 11 12.2652 11 12C11 11.7348 11.1054 11.4804 11.2929 11.2929C11.4804 11.1054 11.7348 11 12 11H16C16.2652 11 16.5196 11.1054 16.7071 11.2929C16.8946 11.4804 17 11.7348 17 12C17 12.2652 16.8946 12.5196 16.7071 12.7071C16.5196 12.8946 16.2652 13 16 13ZM21 4H20V3C20 2.73478 19.8946 2.48043 19.7071 2.29289C19.5196 2.10536 19.2652 2 19 2C18.8026 2.00099 18.6099 2.06039 18.4461 2.17072C18.2824 2.28105 18.155 2.43738 18.08 2.62C18.0266 2.73953 17.9993 2.86908 18 3V4H17C16.7348 4 16.4804 4.10536 16.2929 4.29289C16.1054 4.48043 16 4.73478 16 5C16 5.26522 16.1054 5.51957 16.2929 5.70711C16.4804 5.89464 16.7348 6 17 6H18V7C18 7.26522 18.1054 7.51957 18.2929 7.70711C18.4804 7.89464 18.7348 8 19 8C19.2652 8 19.5196 7.89464 19.7071 7.70711C19.8946 7.51957 20 7.26522 20 7V6H21C21.2652 6 21.5196 5.89464 21.7071 5.70711C21.8946 5.51957 22 5.26522 22 5C22 4.73478 21.8946 4.48043 21.7071 4.29289C21.5196 4.10536 21.2652 4 21 4Z" fill="#141414"/>
</svg>
