<svg width="24" height="24" viewBox="0 0 24 24" fill="none" xmlns="http://www.w3.org/2000/svg">
<path d="M3.61004 6.92C3.73403 6.97038 3.86623 6.9975 4.00004 7H20C20.1339 6.9975 20.2661 6.97038 20.39 6.92C20.6287 6.81873 20.8188 6.6287 20.92 6.39C20.9723 6.26662 20.9992 6.13399 20.9992 6C20.9992 5.86601 20.9723 5.73338 20.92 5.61C20.869 5.49502 20.7979 5.39005 20.71 5.3C20.62 5.21216 20.515 5.14105 20.4 5.09C20.2736 5.03497 20.1379 5.00443 20 5H4.00004C3.86623 5.0025 3.73403 5.02962 3.61004 5.08C3.49507 5.13105 3.3901 5.20216 3.30004 5.29C3.2122 5.38005 3.14109 5.48502 3.09004 5.6C3.03779 5.72338 3.01086 5.85601 3.01086 5.99C3.01086 6.12399 3.03779 6.25662 3.09004 6.38C3.18679 6.62062 3.37324 6.81424 3.61004 6.92ZM10.39 17.08C10.2661 17.0296 10.1339 17.0025 10 17H4.00004C3.86623 17.0025 3.73403 17.0296 3.61004 17.08C3.37134 17.1813 3.18131 17.3713 3.08004 17.61C3.02779 17.7334 3.00086 17.866 3.00086 18C3.00086 18.134 3.02779 18.2666 3.08004 18.39C3.18131 18.6287 3.37134 18.8187 3.61004 18.92C3.73403 18.9704 3.86623 18.9975 4.00004 19H10C10.1339 18.9975 10.2661 18.9704 10.39 18.92C10.6287 18.8187 10.8188 18.6287 10.92 18.39C10.9723 18.2666 10.9992 18.134 10.9992 18C10.9992 17.866 10.9723 17.7334 10.92 17.61C10.8188 17.3713 10.6287 17.1813 10.39 17.08ZM10.71 11.29C10.6166 11.1973 10.5058 11.124 10.3839 11.0742C10.2621 11.0245 10.1316 10.9992 10 11H4.00004C3.73483 11 3.48047 11.1054 3.29294 11.2929C3.1054 11.4804 3.00004 11.7348 3.00004 12C2.99055 12.0864 2.99055 12.1736 3.00004 12.26C2.9955 12.2999 2.9955 12.3401 3.00004 12.38C3.0798 12.5758 3.21954 12.7412 3.39921 12.8526C3.57887 12.964 3.78922 13.0156 4.00004 13H10C10.1975 12.999 10.3902 12.9396 10.5539 12.8293C10.7176 12.7189 10.845 12.5626 10.92 12.38C10.9246 12.3401 10.9246 12.2999 10.92 12.26C10.9566 12.1767 10.9834 12.0894 11 12C11.0008 11.8684 10.9756 11.7379 10.9258 11.6161C10.876 11.4943 10.8027 11.3834 10.71 11.29ZM19.29 12.79L15.5 16.59L13.71 14.79C13.6168 14.6968 13.5061 14.6228 13.3843 14.5723C13.2625 14.5219 13.1319 14.4959 13 14.4959C12.8682 14.4959 12.7376 14.5219 12.6158 14.5723C12.494 14.6228 12.3833 14.6968 12.29 14.79C12.1968 14.8832 12.1228 14.9939 12.0724 15.1158C12.0219 15.2376 11.996 15.3681 11.996 15.5C11.996 15.6319 12.0219 15.7624 12.0724 15.8842C12.1228 16.0061 12.1968 16.1168 12.29 16.21L14.79 18.71C14.883 18.8037 14.9936 18.8781 15.1155 18.9289C15.2373 18.9797 15.368 19.0058 15.5 19.0058C15.6321 19.0058 15.7628 18.9797 15.8846 18.9289C16.0065 18.8781 16.1171 18.8037 16.21 18.71L20.71 14.21C20.8033 14.1168 20.8772 14.0061 20.9277 13.8842C20.9782 13.7624 21.0041 13.6319 21.0041 13.5C21.0041 13.3681 20.9782 13.2376 20.9277 13.1158C20.8772 12.9939 20.8033 12.8832 20.71 12.79C20.6168 12.6968 20.5061 12.6228 20.3843 12.5723C20.2625 12.5219 20.1319 12.4959 20 12.4959C19.8682 12.4959 19.7376 12.5219 19.6158 12.5723C19.494 12.6228 19.3833 12.6968 19.29 12.79Z" fill="#141414"/>
</svg>
