<svg width="24" height="24" viewBox="0 0 24 24" fill="none" xmlns="http://www.w3.org/2000/svg">
<path d="M17.12 2.88C16.5579 2.31723 15.7954 2.0007 15 2H9C8.20435 2 7.44129 2.31607 6.87868 2.87868C6.31607 3.44129 6 4.20435 6 5V19C6 19.7956 6.31607 20.5587 6.87868 21.1213C7.44129 21.6839 8.20435 22 9 22H15C15.7956 22 16.5587 21.6839 17.1213 21.1213C17.6839 20.5587 18 19.7956 18 19V5C17.9993 4.20462 17.6828 3.44207 17.12 2.88ZM12.88 19.63C12.7657 19.7477 12.6289 19.8411 12.4777 19.9046C12.3265 19.9682 12.164 20.0007 12 20C11.7538 19.9992 11.5133 19.9257 11.3087 19.7887C11.1041 19.6517 10.9445 19.4573 10.85 19.23C10.754 19.0029 10.7262 18.7527 10.77 18.51C10.8224 18.2646 10.9447 18.0396 11.1221 17.8621C11.2996 17.6847 11.5246 17.5624 11.77 17.51C12.0127 17.4662 12.2629 17.494 12.49 17.59C12.7173 17.6845 12.9117 17.8441 13.0487 18.0487C13.1857 18.2533 13.2592 18.4938 13.26 18.74C13.2607 18.9064 13.2274 19.0712 13.162 19.2243C13.0967 19.3773 13.0007 19.5154 12.88 19.63ZM15.71 9.71L12.71 12.71C12.617 12.8037 12.5064 12.8781 12.3846 12.9289C12.2627 12.9797 12.132 13.0058 12 13.0058C11.868 13.0058 11.7373 12.9797 11.6154 12.9289C11.4936 12.8781 11.383 12.8037 11.29 12.71L10 11.41L9.71 11.71C9.5217 11.8983 9.2663 12.0041 9 12.0041C8.7337 12.0041 8.4783 11.8983 8.29 11.71C8.1017 11.5217 7.99591 11.2663 7.99591 11C7.99591 10.7337 8.1017 10.4783 8.29 10.29L9.29 9.29C9.38296 9.19627 9.49356 9.12188 9.61542 9.07111C9.73728 9.02034 9.86799 8.9942 10 8.9942C10.132 8.9942 10.2627 9.02034 10.3846 9.07111C10.5064 9.12188 10.617 9.19627 10.71 9.29L12 10.59L14.29 8.29C14.4783 8.1017 14.7337 7.99591 15 7.99591C15.2663 7.99591 15.5217 8.1017 15.71 8.29C15.8983 8.4783 16.0041 8.7337 16.0041 9C16.0041 9.2663 15.8983 9.5217 15.71 9.71Z" fill="#141414"/>
</svg>
