<svg width="24" height="24" viewBox="0 0 24 24" fill="none" xmlns="http://www.w3.org/2000/svg">
<path d="M10 11C10.1978 11 10.3911 10.9414 10.5556 10.8315C10.72 10.7216 10.8482 10.5654 10.9239 10.3827C10.9996 10.2 11.0194 9.99889 10.9808 9.80491C10.9422 9.61093 10.847 9.43275 10.7071 9.29289C10.5673 9.15304 10.3891 9.0578 10.1951 9.01921C10.0011 8.98063 9.80004 9.00043 9.61732 9.07612C9.43459 9.15181 9.27841 9.27998 9.16853 9.44443C9.05865 9.60888 9 9.80222 9 10C9 10.2652 9.10536 10.5196 9.29289 10.7071C9.48043 10.8946 9.73478 11 10 11ZM7 20H5C4.73478 20 4.48043 19.8946 4.29289 19.7071C4.10536 19.5196 4 19.2652 4 19V17C4 16.7348 3.89464 16.4804 3.70711 16.2929C3.51957 16.1054 3.26522 16 3 16C2.73478 16 2.48043 16.1054 2.29289 16.2929C2.10536 16.4804 2 16.7348 2 17V19C2 19.7956 2.31607 20.5587 2.87868 21.1213C3.44129 21.6839 4.20435 22 5 22H7C7.26522 22 7.51957 21.8946 7.70711 21.7071C7.89464 21.5196 8 21.2652 8 21C8 20.7348 7.89464 20.4804 7.70711 20.2929C7.51957 20.1054 7.26522 20 7 20ZM19 2H17C16.7348 2 16.4804 2.10536 16.2929 2.29289C16.1054 2.48043 16 2.73478 16 3C16 3.26522 16.1054 3.51957 16.2929 3.70711C16.4804 3.89464 16.7348 4 17 4H19C19.2652 4 19.5196 4.10536 19.7071 4.29289C19.8946 4.48043 20 4.73478 20 5V7C20 7.26522 20.1054 7.51957 20.2929 7.70711C20.4804 7.89464 20.7348 8 21 8C21.2652 8 21.5196 7.89464 21.7071 7.70711C21.8946 7.51957 22 7.26522 22 7V5C22 4.20435 21.6839 3.44129 21.1213 2.87868C20.5587 2.31607 19.7956 2 19 2ZM16.75 6H7.25C6.91848 6 6.60054 6.1317 6.36612 6.36612C6.1317 6.60054 6 6.91848 6 7.25V16.75C6 17.0815 6.1317 17.3995 6.36612 17.6339C6.60054 17.8683 6.91848 18 7.25 18H16.75C17.0815 18 17.3995 17.8683 17.6339 17.6339C17.8683 17.3995 18 17.0815 18 16.75V7.25C18 6.91848 17.8683 6.60054 17.6339 6.36612C17.3995 6.1317 17.0815 6 16.75 6ZM16 12.09L15.21 11.29C15.1115 11.1912 14.9934 11.114 14.8632 11.0636C14.7331 11.0131 14.5939 10.9905 14.4545 10.9971C14.3151 11.0037 14.1786 11.0394 14.0538 11.1019C13.9291 11.1644 13.8187 11.2523 13.73 11.36L11.93 13.52L10.71 12.29C10.6166 12.1973 10.5057 12.124 10.3839 12.0742C10.2621 12.0245 10.1316 11.9992 10 12C9.85988 12.0055 9.72248 12.0403 9.59672 12.1024C9.47095 12.1644 9.35964 12.2522 9.27 12.36L8 13.84V8H16V12.09Z" fill="#141414"/>
</svg>
