<svg width="24" height="24" viewBox="0 0 24 24" fill="none" xmlns="http://www.w3.org/2000/svg">
<path d="M21.12 6.88C20.5579 6.31723 19.7954 6.0007 19 6H12.41L11.29 4.88C10.7279 4.31723 9.96538 4.0007 9.17 4H5C4.20435 4 3.44129 4.31607 2.87868 4.87868C2.31607 5.44129 2 6.20435 2 7V17C2 17.7956 2.31607 18.5587 2.87868 19.1213C3.44129 19.6839 4.20435 20 5 20H19C19.7956 20 20.5587 19.6839 21.1213 19.1213C21.6839 18.5587 22 17.7956 22 17V9C21.9993 8.20462 21.6828 7.44207 21.12 6.88ZM12 9C12.2967 9 12.5867 9.08797 12.8334 9.2528C13.08 9.41762 13.2723 9.65189 13.3858 9.92597C13.4994 10.2001 13.5291 10.5017 13.4712 10.7926C13.4133 11.0836 13.2704 11.3509 13.0607 11.5607C12.8509 11.7704 12.5836 11.9133 12.2926 11.9712C12.0017 12.0291 11.7001 11.9994 11.426 11.8858C11.1519 11.7723 10.9176 11.58 10.7528 11.3334C10.588 11.0867 10.5 10.7967 10.5 10.5C10.5 10.1022 10.658 9.72064 10.9393 9.43934C11.2206 9.15804 11.6022 9 12 9ZM14 17H10C9.73478 17 9.48043 16.8946 9.29289 16.7071C9.10536 16.5196 9 16.2652 9 16C9 15.2044 9.31607 14.4413 9.87868 13.8787C10.4413 13.3161 11.2044 13 12 13C12.7956 13 13.5587 13.3161 14.1213 13.8787C14.6839 14.4413 15 15.2044 15 16C15 16.2652 14.8946 16.5196 14.7071 16.7071C14.5196 16.8946 14.2652 17 14 17Z" fill="#141414"/>
</svg>
