<svg width="24" height="24" viewBox="0 0 24 24" fill="none" xmlns="http://www.w3.org/2000/svg">
<path d="M20.64 14.3201C20.527 14.2272 20.395 14.1603 20.2533 14.124C20.1116 14.0877 19.9637 14.083 19.82 14.1101C19.315 14.2077 18.8244 14.3689 18.36 14.5901C17.7833 14.878 17.1443 15.0188 16.5 15.0001C15.8588 15.0201 15.2227 14.8791 14.65 14.5901C14.1289 14.3358 13.5728 14.1605 13 14.0701V8.42006C16.94 7.80006 17 3.55006 17 3.50006C17 3.36745 16.9473 3.24028 16.8536 3.14651C16.7598 3.05274 16.6326 3.00006 16.5 3.00006C15.5484 2.92811 14.5988 3.16188 13.7893 3.66733C12.9799 4.17277 12.353 4.92347 12 5.81006C11.647 4.92347 11.0201 4.17277 10.2107 3.66733C9.40125 3.16188 8.45157 2.92811 7.5 3.00006C7.36739 3.00006 7.24022 3.05274 7.14645 3.14651C7.05268 3.24028 7 3.36745 7 3.50006C7 3.50006 7.06 7.80006 11 8.42006V14.0701C10.4237 14.1591 9.8641 14.3344 9.34 14.5901C8.77055 14.8783 8.13796 15.0193 7.5 15.0001C6.85267 15.0168 6.21096 14.8761 5.63 14.5901C5.16977 14.3673 4.68226 14.2059 4.18 14.1101C4.03628 14.083 3.88837 14.0877 3.74669 14.124C3.60501 14.1603 3.47301 14.2272 3.36 14.3201C3.24712 14.4141 3.15634 14.5318 3.09412 14.6649C3.0319 14.798 2.99976 14.9432 3 15.0901V20.0001C3 20.2653 3.10536 20.5196 3.29289 20.7072C3.48043 20.8947 3.73478 21.0001 4 21.0001H20C20.2652 21.0001 20.5196 20.8947 20.7071 20.7072C20.8946 20.5196 21 20.2653 21 20.0001V15.0901C21.0002 14.9432 20.9681 14.798 20.9059 14.6649C20.8437 14.5318 20.7529 14.4141 20.64 14.3201Z" fill="#141414"/>
</svg>
