<svg width="24" height="24" viewBox="0 0 24 24" fill="none" xmlns="http://www.w3.org/2000/svg">
<path d="M19 6H12V5C12 4.73478 11.8947 4.48043 11.7071 4.29289C11.5196 4.10536 11.2652 4 11 4H7.00001C6.73479 4 6.48044 4.10536 6.2929 4.29289C6.10536 4.48043 6.00001 4.73478 6.00001 5V6H5.00001C4.17412 6.03125 3.39437 6.38892 2.83192 6.99449C2.26947 7.60006 1.97028 8.40406 2.00001 9.23V16.77C1.97028 17.5959 2.26947 18.3999 2.83192 19.0055C3.39437 19.6111 4.17412 19.9687 5.00001 20H19C19.8259 19.9687 20.6056 19.6111 21.1681 19.0055C21.7305 18.3999 22.0297 17.5959 22 16.77V9.23C22.0297 8.40406 21.7305 7.60006 21.1681 6.99449C20.6056 6.38892 19.8259 6.03125 19 6ZM12 16C11.4067 16 10.8266 15.8241 10.3333 15.4944C9.83995 15.1648 9.45543 14.6962 9.22837 14.1481C9.00131 13.5999 8.9419 12.9967 9.05765 12.4147C9.17341 11.8328 9.45913 11.2982 9.87869 10.8787C10.2982 10.4591 10.8328 10.1734 11.4147 10.0576C11.9967 9.94189 12.5999 10.0013 13.1481 10.2284C13.6962 10.4554 14.1648 10.8399 14.4944 11.3333C14.8241 11.8266 15 12.4067 15 13C15 13.7956 14.6839 14.5587 14.1213 15.1213C13.5587 15.6839 12.7957 16 12 16Z" fill="#141414"/>
</svg>
