<svg width="24" height="24" viewBox="0 0 24 24" fill="none" xmlns="http://www.w3.org/2000/svg">
<path d="M18 3H12C11.2044 3 10.4413 3.31607 9.87868 3.87868C9.31607 4.44129 9 5.20435 9 6H7C6.73478 6 6.48043 6.10536 6.29289 6.29289C6.10536 6.48043 6 6.73478 6 7V8H4C3.73478 8 3.48043 8.10536 3.29289 8.29289C3.10536 8.48043 3 8.73478 3 9C3 9.26522 3.10536 9.51957 3.29289 9.70711C3.48043 9.89464 3.73478 10 4 10H6V12H4C3.73478 12 3.48043 12.1054 3.29289 12.2929C3.10536 12.4804 3 12.7348 3 13C3 13.2652 3.10536 13.5196 3.29289 13.7071C3.48043 13.8946 3.73478 14 4 14H6V15C6 15.2652 6.10536 15.5196 6.29289 15.7071C6.48043 15.8946 6.73478 16 7 16H9V18C9 18.7956 9.31607 19.5587 9.87868 20.1213C10.4413 20.6839 11.2044 21 12 21H18C18.7956 21 19.5587 20.6839 20.1213 20.1213C20.6839 19.5587 21 18.7956 21 18V6C21 5.20435 20.6839 4.44129 20.1213 3.87868C19.5587 3.31607 18.7956 3 18 3ZM17.8 12.6L14.8 16.6C14.7069 16.7242 14.5861 16.825 14.4472 16.8944C14.3084 16.9639 14.1552 17 14 17C13.7836 17 13.5731 16.9298 13.4 16.8C13.2949 16.7212 13.2064 16.6225 13.1395 16.5095C13.0726 16.3965 13.0286 16.2714 13.0101 16.1414C12.9915 16.0114 12.9987 15.879 13.0313 15.7518C13.0639 15.6246 13.1212 15.5051 13.2 15.4L15 13H13C12.8153 12.9994 12.6344 12.9478 12.4773 12.8507C12.3202 12.7536 12.1931 12.6149 12.11 12.45C12.0355 12.2902 12.0046 12.1135 12.0204 11.9379C12.0362 11.7623 12.0982 11.594 12.2 11.45L15.2 7.45C15.3591 7.23783 15.596 7.09756 15.8586 7.06005C15.9886 7.04148 16.121 7.04869 16.2482 7.08129C16.3754 7.11388 16.4949 7.17121 16.6 7.25C16.7051 7.32879 16.7936 7.42751 16.8605 7.54051C16.9274 7.65351 16.9714 7.77858 16.99 7.90858C17.0085 8.03858 17.0013 8.17097 16.9687 8.29818C16.9361 8.42539 16.8788 8.54494 16.8 8.65L15 11H17C17.1847 11.0006 17.3656 11.0522 17.5227 11.1493C17.6798 11.2464 17.8069 11.3851 17.89 11.55C17.9742 11.716 18.0104 11.9023 17.9945 12.0878C17.9786 12.2733 17.9113 12.4507 17.8 12.6Z" fill="#141414"/>
</svg>
