<svg width="24" height="24" viewBox="0 0 24 24" fill="none" xmlns="http://www.w3.org/2000/svg">
<path d="M21.89 13.42C21.9573 12.9495 21.994 12.4752 22 12C21.994 11.5248 21.9573 11.0505 21.89 10.58C21.697 9.24098 21.2344 7.95503 20.53 6.8C19.6986 5.4486 18.5614 4.31139 17.21 3.48C16.055 2.77564 14.769 2.31298 13.43 2.12C12.9565 2.04892 12.4788 2.00883 12 2C11.5248 2.00595 11.0505 2.0427 10.58 2.11C9.24098 2.30298 7.95503 2.76564 6.8 3.47C5.44496 4.30015 4.30423 5.43746 3.47 6.79C2.76564 7.94503 2.30298 9.23098 2.11 10.57C2.04226 11.0438 2.00552 11.5214 2 12C2.00595 12.4752 2.0427 12.9495 2.11 13.42C2.30298 14.759 2.76564 16.045 3.47 17.2C4.30139 18.5514 5.4386 19.6886 6.79 20.52C7.94503 21.2244 9.23098 21.687 10.57 21.88C11.0435 21.9511 11.5212 21.9912 12 22C12.4752 21.994 12.9495 21.9573 13.42 21.89C14.759 21.697 16.045 21.2344 17.2 20.53C18.5514 19.6986 19.6886 18.5614 20.52 17.21C21.2291 16.0527 21.6953 14.7632 21.89 13.42ZM17.6 17.7C17.2164 18.0574 16.7078 18.2499 16.1836 18.236C15.6595 18.2221 15.1618 18.0029 14.7977 17.6257C14.4335 17.2484 14.2321 16.7433 14.2367 16.219C14.2414 15.6947 14.4517 15.1932 14.8225 14.8225C15.1932 14.4517 15.6947 14.2414 16.219 14.2367C16.7433 14.2321 17.2484 14.4335 17.6257 14.7977C18.0029 15.1618 18.2221 15.6595 18.236 16.1836C18.2499 16.7078 18.0574 17.2164 17.7 17.6C17.6719 17.6382 17.6382 17.6719 17.6 17.7ZM6.3 17.6C5.9426 17.2164 5.75013 16.7078 5.76403 16.1836C5.77794 15.6595 5.9971 15.1618 6.37434 14.7977C6.75158 14.4335 7.25672 14.2321 7.78101 14.2367C8.3053 14.2414 8.8068 14.4517 9.17754 14.8225C9.54829 15.1932 9.75862 15.6947 9.76325 16.219C9.76789 16.7433 9.56646 17.2484 9.20233 17.6257C8.8382 18.0029 8.34049 18.2221 7.81637 18.236C7.29224 18.2499 6.78362 18.0574 6.4 17.7C6.36181 17.6719 6.3281 17.6382 6.3 17.6ZM4 12C3.99943 11.3729 4.07669 10.7481 4.23 10.14C4.49372 10.2364 4.73279 10.3901 4.93 10.59C5.3025 10.9647 5.51159 11.4716 5.51159 12C5.51159 12.5284 5.3025 13.0353 4.93 13.41C4.73279 13.6099 4.49372 13.7636 4.23 13.86C4.07669 13.2519 3.99943 12.6271 4 12ZM6.4 6.3C6.78362 5.9426 7.29224 5.75013 7.81637 5.76403C8.34049 5.77794 8.8382 5.9971 9.20233 6.37434C9.56646 6.75158 9.76789 7.25672 9.76325 7.78101C9.75862 8.3053 9.54829 8.8068 9.17754 9.17754C8.8068 9.54829 8.3053 9.75862 7.78101 9.76325C7.25672 9.76789 6.75158 9.56646 6.37434 9.20233C5.9971 8.8382 5.77794 8.34049 5.76403 7.81637C5.75013 7.29224 5.9426 6.78362 6.3 6.4L6.4 6.3ZM17.7 6.4C18.0574 6.78362 18.2499 7.29224 18.236 7.81637C18.2221 8.34049 18.0029 8.8382 17.6257 9.20233C17.2484 9.56646 16.7433 9.76789 16.219 9.76325C15.6947 9.75862 15.1932 9.54829 14.8225 9.17754C14.4517 8.8068 14.2414 8.3053 14.2367 7.78101C14.2321 7.25672 14.4335 6.75158 14.7977 6.37434C15.1618 5.9971 15.6595 5.77794 16.1836 5.76403C16.7078 5.75013 17.2164 5.9426 17.6 6.3C17.6382 6.3281 17.6719 6.36181 17.7 6.4ZM19.07 13.4C18.6975 13.0253 18.4884 12.5184 18.4884 11.99C18.4884 11.4616 18.6975 10.9547 19.07 10.58C19.2672 10.3801 19.5063 10.2264 19.77 10.13C20.0765 11.3511 20.0765 12.6289 19.77 13.85C19.5072 13.7565 19.2682 13.6063 19.07 13.41V13.4ZM13.86 4.23C13.7636 4.49372 13.6099 4.73279 13.41 4.93C13.0353 5.3025 12.5284 5.51159 12 5.51159C11.4716 5.51159 10.9647 5.3025 10.59 4.93C10.3901 4.73279 10.2364 4.49372 10.14 4.23C11.3611 3.9235 12.6389 3.9235 13.86 4.23ZM13.41 13.41C13.1308 13.6909 12.7744 13.8826 12.3861 13.9607C11.9979 14.0388 11.5951 13.9999 11.229 13.8489C10.8628 13.6979 10.5498 13.4415 10.3295 13.1124C10.1092 12.7832 9.99159 12.3961 9.99159 12C9.99159 11.6039 10.1092 11.2168 10.3295 10.8876C10.5498 10.5585 10.8628 10.3021 11.229 10.1511C11.5951 10.0001 11.9979 9.96117 12.3861 10.0393C12.7744 10.1174 13.1308 10.3091 13.41 10.59C13.7825 10.9647 13.9916 11.4716 13.9916 12C13.9916 12.5284 13.7825 13.0353 13.41 13.41ZM10.14 19.77C10.2364 19.5063 10.3901 19.2672 10.59 19.07C10.9647 18.6975 11.4716 18.4884 12 18.4884C12.5284 18.4884 13.0353 18.6975 13.41 19.07C13.6099 19.2672 13.7636 19.5063 13.86 19.77C12.6389 20.0765 11.3611 20.0765 10.14 19.77Z" fill="#141414"/>
</svg>
