<svg width="24" height="24" viewBox="0 0 24 24" fill="none" xmlns="http://www.w3.org/2000/svg">
<path d="M20 8V6C20 5.20435 19.6839 4.44129 19.1213 3.87868C18.5587 3.31607 17.7956 3 17 3H15.72C15.5455 2.69772 15.2949 2.44638 14.9932 2.27095C14.6914 2.09552 14.349 2.00211 14 2H10C9.65097 2.00211 9.30857 2.09552 9.00683 2.27095C8.70509 2.44638 8.45451 2.69772 8.28 3H7C6.20435 3 5.44129 3.31607 4.87868 3.87868C4.31607 4.44129 4 5.20435 4 6V19C4 19.7956 4.31607 20.5587 4.87868 21.1213C5.44129 21.6839 6.20435 22 7 22H17C17.7956 22 18.5587 21.6839 19.1213 21.1213C19.6839 20.5587 20 19.7956 20 19V18C20.5304 18 21.0391 17.7893 21.4142 17.4142C21.7893 17.0391 22 16.5304 22 16V10C22 9.46957 21.7893 8.96086 21.4142 8.58579C21.0391 8.21071 20.5304 8 20 8ZM18 8H12C11.4696 8 10.9609 8.21071 10.5858 8.58579C10.2107 8.96086 10 9.46957 10 10V16C10 16.5304 10.2107 17.0391 10.5858 17.4142C10.9609 17.7893 11.4696 18 12 18H18V19C18 19.2652 17.8946 19.5196 17.7071 19.7071C17.5196 19.8946 17.2652 20 17 20H7C6.73478 20 6.48043 19.8946 6.29289 19.7071C6.10536 19.5196 6 19.2652 6 19V6C6 5.73478 6.10536 5.48043 6.29289 5.29289C6.48043 5.10536 6.73478 5 7 5H8.28C8.45451 5.30228 8.70509 5.55362 9.00683 5.72905C9.30857 5.90448 9.65097 5.99789 10 6H14C14.349 5.99789 14.6914 5.90448 14.9932 5.72905C15.2949 5.55362 15.5455 5.30228 15.72 5H17C17.2652 5 17.5196 5.10536 17.7071 5.29289C17.8946 5.48043 18 5.73478 18 6V8Z" fill="#141414"/>
</svg>
