<svg width="24" height="24" viewBox="0 0 24 24" fill="none" xmlns="http://www.w3.org/2000/svg">
<path d="M20.55 8.17018L13.42 3.44018C13.0036 3.15902 12.5125 3.00879 12.01 3.00879C11.5075 3.00879 11.0165 3.15902 10.6 3.44018L3.45003 8.17018C3.32742 8.23595 3.21988 8.32658 3.13429 8.43629C3.0487 8.54599 2.98695 8.67235 2.95299 8.80728C2.91902 8.94221 2.91358 9.08275 2.93703 9.2199C2.96047 9.35705 3.01228 9.4878 3.08914 9.60378C3.166 9.71977 3.26621 9.81844 3.38338 9.89349C3.50055 9.96853 3.63209 10.0183 3.76959 10.0396C3.90709 10.0609 4.04752 10.0533 4.18191 10.0172C4.31629 9.98117 4.44167 9.91746 4.55003 9.83018L11.72 5.09018C11.8047 5.02989 11.9061 4.99749 12.01 4.99749C12.114 4.99749 12.2154 5.02989 12.3 5.09018L19.45 9.82018C19.6099 9.93652 19.8023 9.99951 20 10.0002C20.2137 9.99853 20.4212 9.92849 20.5921 9.80034C20.7631 9.67219 20.8885 9.49265 20.95 9.28804C21.0115 9.08342 21.0058 8.86449 20.9339 8.66333C20.8619 8.46216 20.7274 8.28934 20.55 8.17018ZM18 14.0002H17.82L17.14 10.6102C17.0486 10.1498 16.7981 9.73622 16.4325 9.44188C16.0669 9.14754 15.6093 8.99118 15.14 9.00018H8.82003C8.35073 8.99118 7.89322 9.14754 7.52758 9.44188C7.16194 9.73622 6.91148 10.1498 6.82003 10.6102L6.18003 14.0002H6.00003C5.73482 14.0002 5.48046 14.1055 5.29293 14.2931C5.10539 14.4806 5.00003 14.735 5.00003 15.0002V18.0002C5.00003 18.2654 5.10539 18.5197 5.29293 18.7073C5.48046 18.8948 5.73482 19.0002 6.00003 19.0002V20.0002C6.00003 20.2654 6.10539 20.5197 6.29293 20.7073C6.48046 20.8948 6.73482 21.0002 7.00003 21.0002C7.26525 21.0002 7.5196 20.8948 7.70714 20.7073C7.89468 20.5197 8.00003 20.2654 8.00003 20.0002V19.0002H16V20.0002C16 20.2654 16.1054 20.5197 16.2929 20.7073C16.4805 20.8948 16.7348 21.0002 17 21.0002C17.2653 21.0002 17.5196 20.8948 17.7071 20.7073C17.8947 20.5197 18 20.2654 18 20.0002V19.0002C18.2653 19.0002 18.5196 18.8948 18.7071 18.7073C18.8947 18.5197 19 18.2654 19 18.0002V15.0002C19 14.735 18.8947 14.4806 18.7071 14.2931C18.5196 14.1055 18.2653 14.0002 18 14.0002ZM8.82003 11.0002H15.18L15.78 14.0002H8.22003L8.82003 11.0002ZM8.00003 17.5002C7.80225 17.5002 7.60891 17.4415 7.44446 17.3316C7.28001 17.2218 7.15184 17.0656 7.07615 16.8829C7.00047 16.7001 6.98066 16.4991 7.01925 16.3051C7.05783 16.1111 7.15307 15.9329 7.29293 15.7931C7.43278 15.6532 7.61096 15.558 7.80494 15.5194C7.99892 15.4808 8.19999 15.5006 8.38272 15.5763C8.56544 15.652 8.72162 15.7802 8.8315 15.9446C8.94138 16.1091 9.00003 16.3024 9.00003 16.5002C9.00003 16.7654 8.89468 17.0197 8.70714 17.2073C8.5196 17.3948 8.26525 17.5002 8.00003 17.5002ZM16 17.5002C15.8023 17.5002 15.6089 17.4415 15.4445 17.3316C15.28 17.2218 15.1518 17.0656 15.0762 16.8829C15.0005 16.7001 14.9807 16.4991 15.0192 16.3051C15.0578 16.1111 15.1531 15.9329 15.2929 15.7931C15.4328 15.6532 15.611 15.558 15.8049 15.5194C15.9989 15.4808 16.2 15.5006 16.3827 15.5763C16.5654 15.652 16.7216 15.7802 16.8315 15.9446C16.9414 16.1091 17 16.3024 17 16.5002C17 16.7654 16.8947 17.0197 16.7071 17.2073C16.5196 17.3948 16.2653 17.5002 16 17.5002Z" fill="#141414"/>
</svg>
