<svg width="24" height="24" viewBox="0 0 24 24" fill="none" xmlns="http://www.w3.org/2000/svg">
<path d="M20 14H19V5H20C20.2652 5 20.5196 4.89464 20.7071 4.70711C20.8946 4.51957 21 4.26522 21 4C21 3.73478 20.8946 3.48043 20.7071 3.29289C20.5196 3.10536 20.2652 3 20 3H4C3.73478 3 3.48043 3.10536 3.29289 3.29289C3.10536 3.48043 3 3.73478 3 4C3 4.26522 3.10536 4.51957 3.29289 4.70711C3.48043 4.89464 3.73478 5 4 5H5V14H4C3.73478 14 3.48043 14.1054 3.29289 14.2929C3.10536 14.4804 3 14.7348 3 15C3 15.2652 3.10536 15.5196 3.29289 15.7071C3.48043 15.8946 3.73478 16 4 16H9.92L7.22 19.38C7.05649 19.5872 6.98155 19.8507 7.01153 20.113C7.0415 20.3752 7.17395 20.615 7.38 20.78C7.55594 20.9212 7.77444 20.9987 8 21C8.15021 20.9993 8.29832 20.9648 8.43336 20.899C8.56839 20.8332 8.68687 20.7379 8.78 20.62L11 17.85V20C11 20.2652 11.1054 20.5196 11.2929 20.7071C11.4804 20.8946 11.7348 21 12 21C12.2652 21 12.5196 20.8946 12.7071 20.7071C12.8946 20.5196 13 20.2652 13 20V17.85L15.22 20.62C15.3131 20.7379 15.4316 20.8332 15.5666 20.899C15.7017 20.9648 15.8498 20.9993 16 21C16.2256 20.9987 16.4441 20.9212 16.62 20.78C16.826 20.615 16.9585 20.3752 16.9885 20.113C17.0184 19.8507 16.9435 19.5872 16.78 19.38L14.08 16H20C20.2652 16 20.5196 15.8946 20.7071 15.7071C20.8946 15.5196 21 15.2652 21 15C21 14.7348 20.8946 14.4804 20.7071 14.2929C20.5196 14.1054 20.2652 14 20 14ZM16.71 9.21C16.617 9.30373 16.5064 9.37812 16.3846 9.42889C16.2627 9.47966 16.132 9.5058 16 9.5058C15.868 9.5058 15.7373 9.47966 15.6154 9.42889C15.4936 9.37812 15.383 9.30373 15.29 9.21L14.61 8.52L12.3 11.6C12.2142 11.7152 12.1046 11.8105 11.9786 11.8796C11.8526 11.9486 11.7133 11.9897 11.57 12C11.4272 12.0062 11.2846 11.9837 11.1507 11.9339C11.0167 11.8841 10.8941 11.808 10.79 11.71L9.61 10.52L8.8 11.6C8.70685 11.7242 8.58607 11.825 8.44721 11.8944C8.30836 11.9639 8.15525 12 8 12C7.78363 12 7.5731 11.9298 7.4 11.8C7.29494 11.7212 7.20643 11.6225 7.13953 11.5095C7.07262 11.3965 7.02862 11.2714 7.01005 11.1414C6.99148 11.0114 6.99869 10.879 7.03129 10.7518C7.06388 10.6246 7.12121 10.5051 7.2 10.4L8.7 8.4C8.78581 8.28481 8.89543 8.18946 9.0214 8.12043C9.14737 8.05141 9.28673 8.01033 9.43 8C9.57321 7.9895 9.717 8.00997 9.8516 8.06001C9.98619 8.11005 10.1084 8.18849 10.21 8.29L11.39 9.48L13.7 6.4C13.7857 6.28471 13.8953 6.18924 14.0212 6.1201C14.1472 6.05096 14.2865 6.00977 14.4298 5.99933C14.5731 5.98889 14.717 6.00945 14.8516 6.05961C14.9862 6.10977 15.1085 6.18835 15.21 6.29L16.71 7.79C16.8037 7.88296 16.8781 7.99356 16.9289 8.11542C16.9797 8.23728 17.0058 8.36799 17.0058 8.5C17.0058 8.63201 16.9797 8.76272 16.9289 8.88458C16.8781 9.00644 16.8037 9.11704 16.71 9.21Z" fill="#141414"/>
</svg>
