<svg width="24" height="24" viewBox="0 0 24 24" fill="none" xmlns="http://www.w3.org/2000/svg">
<path d="M8.5 4C8.10218 4 7.72064 4.15804 7.43934 4.43934C7.15804 4.72064 7 5.10218 7 5.5V18.5C7 18.8978 7.15804 19.2794 7.43934 19.5607C7.72064 19.842 8.10218 20 8.5 20C8.89782 20 9.27936 19.842 9.56066 19.5607C9.84196 19.2794 10 18.8978 10 18.5V5.5C10 5.10218 9.84196 4.72064 9.56066 4.43934C9.27936 4.15804 8.89782 4 8.5 4ZM15.5 4C15.1022 4 14.7206 4.15804 14.4393 4.43934C14.158 4.72064 14 5.10218 14 5.5V18.5C14 18.8978 14.158 19.2794 14.4393 19.5607C14.7206 19.842 15.1022 20 15.5 20C15.8978 20 16.2794 19.842 16.5607 19.5607C16.842 19.2794 17 18.8978 17 18.5V5.5C17 5.10218 16.842 4.72064 16.5607 4.43934C16.2794 4.15804 15.8978 4 15.5 4Z" fill="#141414"/>
</svg>
