<svg width="24" height="24" viewBox="0 0 24 24" fill="none" xmlns="http://www.w3.org/2000/svg">
<path d="M20.8901 14.5499L20.2701 13.2899C20.0928 12.9379 19.8479 12.6242 19.5494 12.3668C19.2508 12.1094 18.9044 11.9134 18.5301 11.7899L17.0001 11.2799V10.7199L18.0001 10.3999C18.5869 10.1925 19.0946 9.80769 19.4529 9.29884C19.8113 8.79 20.0025 8.1823 20.0001 7.55994V5.99994C20.0001 5.73472 19.8947 5.48037 19.7072 5.29283C19.5197 5.1053 19.2653 4.99994 19.0001 4.99994C18.7349 4.99994 18.4805 5.1053 18.293 5.29283C18.1054 5.48037 18.0001 5.73472 18.0001 5.99994V7.55994C18.0115 7.77801 17.9512 7.99381 17.8284 8.17438C17.7056 8.35495 17.5271 8.49036 17.3201 8.55994L16.5601 8.80994C16.3789 8.56504 16.1442 8.36475 15.8738 8.22438C15.6035 8.084 15.3046 8.00723 15.0001 7.99994C14.9945 7.3093 14.7508 6.64173 14.3101 6.10994L15.7101 4.70994C15.8033 4.6167 15.8773 4.50601 15.9277 4.38419C15.9782 4.26237 16.0042 4.1318 16.0042 3.99994C16.0042 3.86808 15.9782 3.73751 15.9277 3.61569C15.8773 3.49387 15.8033 3.38318 15.7101 3.28994C15.6168 3.1967 15.5062 3.12274 15.3843 3.07228C15.2625 3.02182 15.1319 2.99585 15.0001 2.99585C14.7338 2.99585 14.4784 3.10164 14.2901 3.28994L12.5301 5.04994C12.1799 4.98318 11.8203 4.98318 11.4701 5.04994L9.71008 3.28994C9.52178 3.10164 9.26639 2.99585 9.00008 2.99585C8.73378 2.99585 8.47839 3.10164 8.29008 3.28994C8.10178 3.47825 7.99599 3.73364 7.99599 3.99994C7.99599 4.26624 8.10178 4.52164 8.29008 4.70994L9.69008 6.10994C9.24938 6.64173 9.00567 7.3093 9.00008 7.99994C8.69967 8.00133 8.40343 8.07037 8.13337 8.20194C7.8633 8.33351 7.62634 8.52423 7.44008 8.75994L6.68008 8.50994C6.4731 8.44036 6.29459 8.30495 6.1718 8.12438C6.04901 7.94381 5.9887 7.72801 6.00008 7.50994V5.99994C6.00008 5.73472 5.89473 5.48037 5.70719 5.29283C5.51965 5.1053 5.2653 4.99994 5.00008 4.99994C4.73487 4.99994 4.48051 5.1053 4.29298 5.29283C4.10544 5.48037 4.00008 5.73472 4.00008 5.99994V7.55994C4.00126 8.18839 4.19977 8.80061 4.56759 9.31018C4.93541 9.81974 5.45397 10.2009 6.05008 10.3999L7.05008 10.7199V11.2799L5.52008 11.7899C5.14573 11.9134 4.79937 12.1094 4.50081 12.3668C4.20226 12.6242 3.95735 12.9379 3.78008 13.2899L3.16008 14.5499C3.04147 14.7861 3.02117 15.0596 3.10362 15.3107C3.18607 15.5618 3.36456 15.7701 3.60008 15.8899C3.72343 15.9563 3.86017 15.9939 4.00008 15.9999C4.18475 15.9994 4.36566 15.9477 4.52275 15.8506C4.67984 15.7535 4.80698 15.6149 4.89008 15.4499L5.52008 14.1899C5.57917 14.0726 5.66081 13.968 5.76033 13.8822C5.85985 13.7964 5.9753 13.7311 6.10008 13.6899L7.00008 13.3899V14.9999C7.00684 15.4364 7.07071 15.8701 7.19008 16.2899L6.19008 16.8099C5.61037 17.1001 5.14024 17.5702 4.85008 18.1499L4.15008 19.5499C4.03147 19.7861 4.01117 20.0596 4.09362 20.3107C4.17607 20.5618 4.35456 20.7701 4.59008 20.8899C4.71644 20.9577 4.85676 20.9954 5.00008 20.9999C5.18475 20.9994 5.36566 20.9477 5.52275 20.8506C5.67984 20.7535 5.80698 20.6149 5.89008 20.4499L6.60008 18.9999C6.68918 18.8287 6.82884 18.689 7.00008 18.5999L8.00008 18.0799C8.46164 18.6777 9.05409 19.1616 9.73192 19.4946C10.4097 19.8276 11.1549 20.0008 11.9101 20.0008C12.6653 20.0008 13.4104 19.8276 14.0882 19.4946C14.7661 19.1616 15.3585 18.6777 15.8201 18.0799L17.0001 18.5999C17.1924 18.6924 17.3476 18.8476 17.4401 19.0399L18.1501 20.4499C18.23 20.609 18.3509 20.7438 18.5003 20.8405C18.6498 20.9371 18.8223 20.9922 19.0001 20.9999C19.157 21.0018 19.3118 20.964 19.4501 20.8899C19.6856 20.7701 19.8641 20.5618 19.9465 20.3107C20.029 20.0596 20.0087 19.7861 19.8901 19.5499L19.1901 18.1499C18.8999 17.5702 18.4298 17.1001 17.8501 16.8099L16.8501 16.2899C16.956 15.8683 17.0064 15.4346 17.0001 14.9999V13.3899L17.9001 13.6899C18.0249 13.7311 18.1403 13.7964 18.2398 13.8822C18.3394 13.968 18.421 14.0726 18.4801 14.1899L19.1101 15.4499C19.1932 15.6149 19.3203 15.7535 19.4774 15.8506C19.6345 15.9477 19.8154 15.9994 20.0001 15.9999C20.157 16.0018 20.3118 15.964 20.4501 15.8899C20.6856 15.7701 20.8641 15.5618 20.9465 15.3107C21.029 15.0596 21.0087 14.7861 20.8901 14.5499Z" fill="#141414"/>
</svg>
