<svg width="24" height="24" viewBox="0 0 24 24" fill="none" xmlns="http://www.w3.org/2000/svg">
<path d="M7.08 7.99988C7.83638 7.97172 8.55275 7.65294 9.08 7.10988C9.33174 6.89907 9.53929 6.64056 9.69072 6.34922C9.84216 6.05787 9.93447 5.73946 9.96235 5.4123C9.99024 5.08514 9.95314 4.75569 9.85319 4.44293C9.75325 4.13016 9.59243 3.84025 9.38 3.58988C9.12963 3.37745 8.83972 3.21663 8.52696 3.11669C8.21419 3.01675 7.88474 2.97965 7.55758 3.00753C7.23042 3.03541 6.91201 3.12773 6.62067 3.27916C6.32932 3.43059 6.07081 3.63815 5.86 3.88988C5.60826 4.10069 5.40071 4.35921 5.24928 4.65055C5.09784 4.94189 5.00553 5.2603 4.97765 5.58747C4.94977 5.91463 4.98686 6.24407 5.08681 6.55684C5.18675 6.8696 5.34757 7.15951 5.56 7.40988C5.76022 7.606 5.99818 7.75943 6.25946 7.86084C6.52074 7.96226 6.7999 8.00956 7.08 7.99988ZM13.27 8.76988C14.1284 8.74655 14.9434 8.38751 15.54 7.76988C15.8186 7.53758 16.0487 7.25263 16.2171 6.93134C16.3855 6.61005 16.4889 6.25872 16.5214 5.89743C16.5539 5.53615 16.5148 5.172 16.4065 4.82581C16.2982 4.47962 16.1227 4.15819 15.89 3.87988C15.6117 3.64722 15.2903 3.47171 14.9441 3.36337C14.5979 3.25504 14.2337 3.216 13.8724 3.24851C13.5112 3.28102 13.1598 3.38442 12.8385 3.55282C12.5172 3.72121 12.2323 3.95128 12 4.22988C11.7214 4.46219 11.4913 4.74713 11.3229 5.06842C11.1545 5.38971 11.0511 5.74104 11.0186 6.10233C10.9861 6.46361 11.0252 6.82776 11.1335 7.17395C11.2418 7.52014 11.4173 7.84158 11.65 8.11988C11.8624 8.3316 12.1154 8.49829 12.3938 8.60997C12.6721 8.72166 12.9701 8.77605 13.27 8.76988ZM17.74 12.9999C18.5951 12.975 19.4065 12.616 20 11.9999C20.5301 11.4996 20.8814 10.8391 21 10.1199C21.0607 9.76125 21.0362 9.39338 20.9285 9.04596C20.8208 8.69854 20.6329 8.38131 20.38 8.11988C20.1017 7.88722 19.7803 7.71171 19.4341 7.60337C19.0879 7.49504 18.7237 7.456 18.3624 7.48851C18.0012 7.52102 17.6498 7.62442 17.3285 7.79281C17.0072 7.96121 16.7223 8.19128 16.49 8.46988C15.9634 8.97287 15.6128 9.63207 15.49 10.3499C15.4309 10.7085 15.4562 11.0759 15.5638 11.4231C15.6714 11.7703 15.8584 12.0876 16.11 12.3499C16.325 12.561 16.5798 12.7272 16.8596 12.8388C17.1395 12.9504 17.4388 13.0051 17.74 12.9999ZM20.41 14.5799C20.1596 14.3674 19.8697 14.2066 19.557 14.1067C19.2442 14.0067 18.9147 13.9696 18.5876 13.9975C18.2604 14.0254 17.942 14.1177 17.6507 14.2692C17.3593 14.4206 17.1008 14.6281 16.89 14.8799C16.6383 15.0907 16.4307 15.3492 16.2793 15.6405C16.1278 15.9319 16.0355 16.2503 16.0076 16.5775C15.9798 16.9046 16.0169 17.2341 16.1168 17.5468C16.2168 17.8596 16.3776 18.1495 16.59 18.3999C16.7867 18.5923 17.0198 18.7436 17.2756 18.8449C17.5314 18.9462 17.8049 18.9955 18.08 18.9899C18.8364 18.9617 19.5528 18.6429 20.08 18.0999C20.3325 17.8913 20.5413 17.635 20.6946 17.3456C20.8478 17.0562 20.9425 16.7394 20.9731 16.4133C21.0038 16.0873 20.9698 15.7584 20.8732 15.4455C20.7766 15.1326 20.6192 14.8419 20.41 14.5899V14.5799ZM9.14 9.04988L5.61 9.68988C4.87729 9.82338 4.21467 10.2098 3.7377 10.7818C3.26072 11.3538 2.99965 12.0751 3 12.8199V12.9999C3 13.7955 3.31607 14.5586 3.87868 15.1212C4.44129 15.6838 5.20435 15.9999 6 15.9999C6.53043 15.9999 7.03914 16.2106 7.41421 16.5857C7.78929 16.9607 8 17.4694 8 17.9999C8 18.7955 8.31607 19.5586 8.87868 20.1212C9.44129 20.6838 10.2044 20.9999 11 20.9999H11.18C11.9248 21.0002 12.6461 20.7392 13.2181 20.2622C13.7901 19.7852 14.1765 19.1226 14.31 18.3899L15 14.8599C15.1462 14.0604 15.0953 13.2372 14.8517 12.4618C14.6081 11.6864 14.1791 10.982 13.6019 10.4098C13.0247 9.83752 12.3167 9.41459 11.5393 9.17763C10.7618 8.94067 9.93825 8.89682 9.14 9.04988Z" fill="#141414"/>
</svg>
