<svg width="24" height="24" viewBox="0 0 24 24" fill="none" xmlns="http://www.w3.org/2000/svg">
<path d="M19.56 12.9L18 12L19.56 11.1C20.0184 10.8344 20.3528 10.3978 20.4897 9.886C20.6265 9.37416 20.5547 8.82893 20.29 8.37L19.29 6.63C19.0244 6.17154 18.5878 5.83717 18.076 5.70031C17.5641 5.56344 17.0189 5.63526 16.56 5.9L15 6.8V5C15 4.46957 14.7892 3.96086 14.4142 3.58579C14.0391 3.21071 13.5304 3 13 3H11C10.4695 3 9.96082 3.21071 9.58575 3.58579C9.21068 3.96086 8.99996 4.46957 8.99996 5V6.8L7.43996 5.9C6.98103 5.63526 6.4358 5.56344 5.92396 5.70031C5.41213 5.83717 4.97551 6.17154 4.70996 6.63L3.70996 8.37C3.44523 8.82893 3.37341 9.37416 3.51027 9.886C3.64714 10.3978 3.9815 10.8344 4.43996 11.1L5.99996 12L4.43996 12.9C3.9815 13.1656 3.64714 13.6022 3.51027 14.114C3.37341 14.6258 3.44523 15.1711 3.70996 15.63L4.70996 17.37C4.97551 17.8285 5.41213 18.1628 5.92396 18.2997C6.4358 18.4366 6.98103 18.3647 7.43996 18.1L8.99996 17.2V19C8.99996 19.5304 9.21068 20.0391 9.58575 20.4142C9.96082 20.7893 10.4695 21 11 21H13C13.5304 21 14.0391 20.7893 14.4142 20.4142C14.7892 20.0391 15 19.5304 15 19V17.2L16.56 18.1C17.0189 18.3647 17.5641 18.4366 18.076 18.2997C18.5878 18.1628 19.0244 17.8285 19.29 17.37L20.29 15.63C20.5547 15.1711 20.6265 14.6258 20.4897 14.114C20.3528 13.6022 20.0184 13.1656 19.56 12.9ZM14 13H13V14C13 14.2652 12.8946 14.5196 12.7071 14.7071C12.5195 14.8946 12.2652 15 12 15C11.7347 15 11.4804 14.8946 11.2929 14.7071C11.1053 14.5196 11 14.2652 11 14V13H9.99996C9.73475 13 9.48039 12.8946 9.29286 12.7071C9.10532 12.5196 8.99996 12.2652 8.99996 12C8.99996 11.7348 9.10532 11.4804 9.29286 11.2929C9.48039 11.1054 9.73475 11 9.99996 11H11V10C11 9.73478 11.1053 9.48043 11.2929 9.29289C11.4804 9.10536 11.7347 9 12 9C12.2652 9 12.5195 9.10536 12.7071 9.29289C12.8946 9.48043 13 9.73478 13 10V11H14C14.2652 11 14.5195 11.1054 14.7071 11.2929C14.8946 11.4804 15 11.7348 15 12C15 12.2652 14.8946 12.5196 14.7071 12.7071C14.5195 12.8946 14.2652 13 14 13Z" fill="#141414"/>
</svg>
