<svg width="24" height="24" viewBox="0 0 24 24" fill="none" xmlns="http://www.w3.org/2000/svg">
<path d="M20.5999 6.4C19.7199 5.28 17.2899 3 11.9999 3C6.7099 3 4.2799 5.28 3.3999 6.4C3.13555 6.74371 2.99464 7.16642 2.9999 7.6V9C2.9999 9.53043 3.21061 10.0391 3.58568 10.4142C3.96076 10.7893 4.46946 11 4.9999 11H5.9999C6.53033 11 7.03904 10.7893 7.41411 10.4142C7.78918 10.0391 7.9999 9.53043 7.9999 9V8C7.9999 7.73478 8.10525 7.48043 8.29279 7.29289C8.48033 7.10536 8.73468 7 8.9999 7H14.9999C15.2651 7 15.5195 7.10536 15.707 7.29289C15.8945 7.48043 15.9999 7.73478 15.9999 8V9C15.9999 9.53043 16.2106 10.0391 16.5857 10.4142C16.9608 10.7893 17.4695 11 17.9999 11H18.9999C19.5303 11 20.039 10.7893 20.4141 10.4142C20.7892 10.0391 20.9999 9.53043 20.9999 9V7.6C21.0051 7.16642 20.8642 6.74371 20.5999 6.4ZM17.9999 13C16.939 13 15.9216 12.5786 15.1715 11.8284C14.4213 11.0783 13.9999 10.0609 13.9999 9H9.9999C9.9999 10.0609 9.57847 11.0783 8.82832 11.8284C8.07818 12.5786 7.06076 13 5.9999 13C5.46946 13 4.96076 13.2107 4.58568 13.5858C4.21061 13.9609 3.9999 14.4696 3.9999 15V18C3.9999 18.7956 4.31597 19.5587 4.87858 20.1213C5.44119 20.6839 6.20425 21 6.9999 21H16.9999C17.7955 21 18.5586 20.6839 19.1212 20.1213C19.6838 19.5587 19.9999 18.7956 19.9999 18V15C19.9999 14.4696 19.7892 13.9609 19.4141 13.5858C19.039 13.2107 18.5303 13 17.9999 13ZM8.9999 19C8.80212 19 8.60878 18.9414 8.44433 18.8315C8.27988 18.7216 8.15171 18.5654 8.07602 18.3827C8.00033 18.2 7.98053 17.9989 8.01911 17.8049C8.0577 17.6109 8.15294 17.4327 8.29279 17.2929C8.43264 17.153 8.61083 17.0578 8.80481 17.0192C8.99879 16.9806 9.19986 17.0004 9.38258 17.0761C9.56531 17.1518 9.72149 17.28 9.83137 17.4444C9.94125 17.6089 9.9999 17.8022 9.9999 18C9.9999 18.2652 9.89454 18.5196 9.707 18.7071C9.51947 18.8946 9.26511 19 8.9999 19ZM8.9999 16C8.80212 16 8.60878 15.9414 8.44433 15.8315C8.27988 15.7216 8.15171 15.5654 8.07602 15.3827C8.00033 15.2 7.98053 14.9989 8.01911 14.8049C8.0577 14.6109 8.15294 14.4327 8.29279 14.2929C8.43264 14.153 8.61083 14.0578 8.80481 14.0192C8.99879 13.9806 9.19986 14.0004 9.38258 14.0761C9.56531 14.1518 9.72149 14.28 9.83137 14.4444C9.94125 14.6089 9.9999 14.8022 9.9999 15C9.9999 15.2652 9.89454 15.5196 9.707 15.7071C9.51947 15.8946 9.26511 16 8.9999 16ZM11.9999 19C11.8021 19 11.6088 18.9414 11.4443 18.8315C11.2799 18.7216 11.1517 18.5654 11.076 18.3827C11.0003 18.2 10.9805 17.9989 11.0191 17.8049C11.0577 17.6109 11.1529 17.4327 11.2928 17.2929C11.4326 17.153 11.6108 17.0578 11.8048 17.0192C11.9988 16.9806 12.1999 17.0004 12.3826 17.0761C12.5653 17.1518 12.7215 17.28 12.8314 17.4444C12.9412 17.6089 12.9999 17.8022 12.9999 18C12.9999 18.2652 12.8945 18.5196 12.707 18.7071C12.5195 18.8946 12.2651 19 11.9999 19ZM11.9999 16C11.8021 16 11.6088 15.9414 11.4443 15.8315C11.2799 15.7216 11.1517 15.5654 11.076 15.3827C11.0003 15.2 10.9805 14.9989 11.0191 14.8049C11.0577 14.6109 11.1529 14.4327 11.2928 14.2929C11.4326 14.153 11.6108 14.0578 11.8048 14.0192C11.9988 13.9806 12.1999 14.0004 12.3826 14.0761C12.5653 14.1518 12.7215 14.28 12.8314 14.4444C12.9412 14.6089 12.9999 14.8022 12.9999 15C12.9999 15.2652 12.8945 15.5196 12.707 15.7071C12.5195 15.8946 12.2651 16 11.9999 16ZM14.9999 19C14.8021 19 14.6088 18.9414 14.4443 18.8315C14.2799 18.7216 14.1517 18.5654 14.076 18.3827C14.0003 18.2 13.9805 17.9989 14.0191 17.8049C14.0577 17.6109 14.1529 17.4327 14.2928 17.2929C14.4326 17.153 14.6108 17.0578 14.8048 17.0192C14.9988 16.9806 15.1999 17.0004 15.3826 17.0761C15.5653 17.1518 15.7215 17.28 15.8314 17.4444C15.9412 17.6089 15.9999 17.8022 15.9999 18C15.9999 18.2652 15.8945 18.5196 15.707 18.7071C15.5195 18.8946 15.2651 19 14.9999 19ZM14.9999 16C14.8021 16 14.6088 15.9414 14.4443 15.8315C14.2799 15.7216 14.1517 15.5654 14.076 15.3827C14.0003 15.2 13.9805 14.9989 14.0191 14.8049C14.0577 14.6109 14.1529 14.4327 14.2928 14.2929C14.4326 14.153 14.6108 14.0578 14.8048 14.0192C14.9988 13.9806 15.1999 14.0004 15.3826 14.0761C15.5653 14.1518 15.7215 14.28 15.8314 14.4444C15.9412 14.6089 15.9999 14.8022 15.9999 15C15.9999 15.2652 15.8945 15.5196 15.707 15.7071C15.5195 15.8946 15.2651 16 14.9999 16Z" fill="#141414"/>
</svg>
