<svg width="24" height="24" viewBox="0 0 24 24" fill="none" xmlns="http://www.w3.org/2000/svg">
<path d="M17 2H7C6.20435 2 5.44129 2.31607 4.87868 2.87868C4.31607 3.44129 4 4.20435 4 5V19C4 19.7956 4.31607 20.5587 4.87868 21.1213C5.44129 21.6839 6.20435 22 7 22H17C17.7956 22 18.5587 21.6839 19.1213 21.1213C19.6839 20.5587 20 19.7956 20 19V5C20 4.20435 19.6839 3.44129 19.1213 2.87868C18.5587 2.31607 17.7956 2 17 2ZM8.37 6.37C8.48428 6.25234 8.62111 6.15893 8.77231 6.09536C8.92351 6.03178 9.08598 5.99935 9.25 6C9.49621 6.00082 9.7367 6.07434 9.94129 6.21132C10.1459 6.34831 10.3055 6.54266 10.4 6.77C10.496 6.99714 10.5238 7.24732 10.48 7.49C10.4276 7.73542 10.3053 7.96043 10.1279 8.13788C9.95043 8.31532 9.72542 8.43762 9.48 8.49C9.23732 8.5338 8.98714 8.506 8.76 8.41C8.53296 8.31327 8.33963 8.15149 8.20438 7.94506C8.06914 7.73863 7.99802 7.49678 8 7.25C7.99935 7.08598 8.03178 6.92351 8.09536 6.77231C8.15893 6.62111 8.25234 6.48428 8.37 6.37ZM8.29 12.29L14.29 6.29C14.3832 6.19676 14.4939 6.1228 14.6158 6.07234C14.7376 6.02188 14.8681 5.99591 15 5.99591C15.1319 5.99591 15.2624 6.02188 15.3842 6.07234C15.5061 6.1228 15.6168 6.19676 15.71 6.29C15.8032 6.38324 15.8772 6.49393 15.9277 6.61575C15.9781 6.73757 16.0041 6.86814 16.0041 7C16.0041 7.13186 15.9781 7.26243 15.9277 7.38425C15.8772 7.50607 15.8032 7.61676 15.71 7.71L9.71 13.71C9.61704 13.8037 9.50644 13.8781 9.38458 13.9289C9.26272 13.9797 9.13201 14.0058 9 14.0058C8.86799 14.0058 8.73728 13.9797 8.61542 13.9289C8.49356 13.8781 8.38296 13.8037 8.29 13.71C8.19627 13.617 8.12188 13.5064 8.07111 13.3846C8.02034 13.2627 7.9942 13.132 7.9942 13C7.9942 12.868 8.02034 12.7373 8.07111 12.6154C8.12188 12.4936 8.19627 12.383 8.29 12.29ZM16 12.75C15.9974 13.0807 15.8649 13.3971 15.631 13.631C15.3971 13.8649 15.0807 13.9974 14.75 14C14.5038 13.9992 14.2633 13.9257 14.0587 13.7887C13.8541 13.6517 13.6945 13.4573 13.6 13.23C13.504 13.0029 13.4762 12.7527 13.52 12.51C13.5724 12.2646 13.6947 12.0396 13.8721 11.8621C14.0496 11.6847 14.2746 11.5624 14.52 11.51C14.7627 11.4662 15.0129 11.494 15.24 11.59C15.467 11.6867 15.6604 11.8485 15.7956 12.0549C15.9309 12.2614 16.002 12.5032 16 12.75ZM16 19H8C7.73478 19 7.48043 18.8946 7.29289 18.7071C7.10536 18.5196 7 18.2652 7 18C7 17.7348 7.10536 17.4804 7.29289 17.2929C7.48043 17.1054 7.73478 17 8 17H16C16.2652 17 16.5196 17.1054 16.7071 17.2929C16.8946 17.4804 17 17.7348 17 18C17 18.2652 16.8946 18.5196 16.7071 18.7071C16.5196 18.8946 16.2652 19 16 19Z" fill="#141414"/>
</svg>
