<svg width="24" height="24" viewBox="0 0 24 24" fill="none" xmlns="http://www.w3.org/2000/svg">
<path d="M20.5001 8.61024C20.729 8.40945 20.8909 8.14336 20.9639 7.8478C21.037 7.55223 21.0178 7.24136 20.9089 6.95704C20.7999 6.67272 20.6065 6.4286 20.3547 6.25754C20.1028 6.08647 19.8045 5.99668 19.5001 6.00024C19.3265 6.00417 19.1545 6.03452 18.9901 6.09024L13.4501 3.14024C13.3729 2.8137 13.1877 2.52278 12.9245 2.3146C12.6614 2.10642 12.3356 1.99316 12.0001 1.99316C11.6645 1.99316 11.3388 2.10642 11.0757 2.3146C10.8125 2.52278 10.6273 2.8137 10.5501 3.14024L5.00009 6.09024C4.83884 6.03551 4.67031 6.00517 4.50009 6.00024C4.19564 5.99668 3.89741 6.08647 3.64553 6.25754C3.39366 6.4286 3.20024 6.67272 3.09131 6.95704C2.98237 7.24136 2.96315 7.55223 3.03624 7.8478C3.10933 8.14336 3.27121 8.40945 3.50009 8.61024V15.3902C3.27121 15.591 3.10933 15.8571 3.03624 16.1527C2.96315 16.4482 2.98237 16.7591 3.09131 17.0434C3.20024 17.3277 3.39366 17.5719 3.64553 17.7429C3.89741 17.914 4.19564 18.0038 4.50009 18.0002C4.67031 17.9953 4.83884 17.965 5.00009 17.9102L10.5401 20.8602C10.6173 21.1868 10.8025 21.4777 11.0657 21.6859C11.3288 21.894 11.6545 22.0073 11.9901 22.0073C12.3256 22.0073 12.6514 21.894 12.9145 21.6859C13.1777 21.4777 13.3629 21.1868 13.4401 20.8602L19.0001 17.9102C19.1645 17.966 19.3365 17.9963 19.5101 18.0002C19.8145 18.0038 20.1128 17.914 20.3646 17.7429C20.6165 17.5719 20.8099 17.3277 20.9189 17.0434C21.0278 16.7591 21.047 16.4482 20.9739 16.1527C20.9009 15.8571 20.739 15.591 20.5101 15.3902L20.5001 8.61024ZM12.0001 8.00024C12.2968 8.00024 12.5868 8.08821 12.8334 8.25303C13.0801 8.41785 13.2724 8.65212 13.3859 8.92621C13.4994 9.2003 13.5291 9.5019 13.4713 9.79287C13.4134 10.0838 13.2705 10.3511 13.0608 10.5609C12.851 10.7707 12.5837 10.9135 12.2927 10.9714C12.0018 11.0293 11.7002 10.9996 11.4261 10.8861C11.152 10.7725 10.9177 10.5803 10.7529 10.3336C10.5881 10.0869 10.5001 9.79691 10.5001 9.50024C10.5001 9.10241 10.6581 8.72088 10.9394 8.43958C11.2207 8.15827 11.6023 8.00024 12.0001 8.00024ZM14.0001 16.0002H10.0001C9.73488 16.0002 9.48052 15.8949 9.29299 15.7073C9.10545 15.5198 9.00009 15.2655 9.00009 15.0002C9.00009 14.2046 9.31616 13.4415 9.87877 12.8789C10.4414 12.3163 11.2044 12.0002 12.0001 12.0002C12.7957 12.0002 13.5588 12.3163 14.1214 12.8789C14.684 13.4415 15.0001 14.2046 15.0001 15.0002C15.0001 15.2655 14.8947 15.5198 14.7072 15.7073C14.5197 15.8949 14.2653 16.0002 14.0001 16.0002Z" fill="#141414"/>
</svg>
