<svg width="24" height="24" viewBox="0 0 24 24" fill="none" xmlns="http://www.w3.org/2000/svg">
<path d="M20.49 19L15.33 13.85L19.12 10.06C19.3295 9.85022 19.4722 9.58306 19.5299 9.29226C19.5877 9.00147 19.558 8.70007 19.4446 8.42614C19.3311 8.15222 19.1391 7.91805 18.8927 7.75321C18.6462 7.58837 18.3565 7.50025 18.06 7.49999H13.19L8.23999 2.58999C8.05424 2.40404 7.83367 2.25652 7.59087 2.15587C7.34808 2.05522 7.08782 2.00342 6.82499 2.00342C6.56216 2.00342 6.30191 2.05522 6.05911 2.15587C5.81631 2.25652 5.59574 2.40404 5.40999 2.58999L2.58999 5.40999C2.40404 5.59574 2.25652 5.81631 2.15587 6.05911C2.05522 6.30191 2.00342 6.56216 2.00342 6.82499C2.00342 7.08782 2.05522 7.34808 2.15587 7.59087C2.25652 7.83367 2.40404 8.05424 2.58999 8.23999L7.58999 13.19V18.06C7.59025 18.3565 7.67837 18.6462 7.84321 18.8927C8.00805 19.1391 8.24222 19.3311 8.51614 19.4446C8.79007 19.558 9.09147 19.5877 9.38226 19.5299C9.67306 19.4722 9.94022 19.3295 10.15 19.12L13.94 15.33L19 20.49C19.1976 20.6876 19.4656 20.7986 19.745 20.7986C20.0244 20.7986 20.2924 20.6876 20.49 20.49C20.6876 20.2924 20.7986 20.0244 20.7986 19.745C20.7986 19.4656 20.6876 19.1976 20.49 19Z" fill="#141414"/>
</svg>
