<svg width="24" height="24" viewBox="0 0 24 24" fill="none" xmlns="http://www.w3.org/2000/svg">
<path d="M18 3H6C5.20435 3 4.44129 3.31607 3.87868 3.87868C3.31607 4.44129 3 5.20435 3 6V18C3 18.7956 3.31607 19.5587 3.87868 20.1213C4.44129 20.6839 5.20435 21 6 21H18C18.7956 21 19.5587 20.6839 20.1213 20.1213C20.6839 19.5587 21 18.7956 21 18V6C21 5.20435 20.6839 4.44129 20.1213 3.87868C19.5587 3.31607 18.7956 3 18 3ZM14.86 10H16C16.2652 10 16.5196 10.1054 16.7071 10.2929C16.8946 10.4804 17 10.7348 17 11C17 11.2652 16.8946 11.5196 16.7071 11.7071C16.5196 11.8946 16.2652 12 16 12H14.86C14.6907 12.644 14.3634 13.2356 13.9076 13.721C13.4518 14.2065 12.8821 14.5705 12.25 14.78L14.51 16.14C14.6984 16.2518 14.8449 16.4224 14.9269 16.6255C15.009 16.8287 15.022 17.0531 14.9641 17.2644C14.9062 17.4757 14.7805 17.6621 14.6063 17.795C14.4321 17.9279 14.2191 17.9999 14 18C13.8205 17.9999 13.6444 17.9516 13.49 17.86L8.49 14.86C8.49 14.86 8.43 14.8 8.4 14.78C8.34311 14.7413 8.29252 14.6941 8.25 14.64L8.14 14.49C8.10747 14.4328 8.08068 14.3725 8.06 14.31C8.05434 14.2435 8.05434 14.1765 8.06 14.11L8 14C8 14 8 14 8 13.93C7.99533 13.8668 7.99533 13.8032 8 13.74C8.01727 13.6746 8.04071 13.611 8.07 13.55C8.07 13.55 8.07 13.55 8.07 13.49C8.07 13.43 8.13 13.43 8.15 13.4C8.18869 13.3431 8.23591 13.2925 8.29 13.25C8.33926 13.2077 8.3929 13.1709 8.45 13.14L8.61 13.06H8.82L9 13H11C11.349 12.9979 11.6914 12.9045 11.9932 12.7291C12.2949 12.5536 12.5455 12.3023 12.72 12H8C7.73478 12 7.48043 11.8946 7.29289 11.7071C7.10536 11.5196 7 11.2652 7 11C7 10.7348 7.10536 10.4804 7.29289 10.2929C7.48043 10.1054 7.73478 10 8 10H12.72C12.5455 9.69772 12.2949 9.44638 11.9932 9.27095C11.6914 9.09552 11.349 9.00211 11 9H8C7.73478 9 7.48043 8.89464 7.29289 8.70711C7.10536 8.51957 7 8.26522 7 8C7 7.73478 7.10536 7.48043 7.29289 7.29289C7.48043 7.10536 7.73478 7 8 7H16C16.2652 7 16.5196 7.10536 16.7071 7.29289C16.8946 7.48043 17 7.73478 17 8C17 8.26522 16.8946 8.51957 16.7071 8.70711C16.5196 8.89464 16.2652 9 16 9H14.44C14.6265 9.31184 14.7679 9.64852 14.86 10Z" fill="#141414"/>
</svg>
