<svg width="24" height="24" viewBox="0 0 24 24" fill="none" xmlns="http://www.w3.org/2000/svg">
<path d="M18 3H12C11.2044 3 10.4413 3.31607 9.87868 3.87868C9.31607 4.44129 9 5.20435 9 6H7C6.73478 6 6.48043 6.10536 6.29289 6.29289C6.10536 6.48043 6 6.73478 6 7V8H4C3.73478 8 3.48043 8.10536 3.29289 8.29289C3.10536 8.48043 3 8.73478 3 9C3 9.26522 3.10536 9.51957 3.29289 9.70711C3.48043 9.89464 3.73478 10 4 10H6V12H4C3.73478 12 3.48043 12.1054 3.29289 12.2929C3.10536 12.4804 3 12.7348 3 13C3 13.2652 3.10536 13.5196 3.29289 13.7071C3.48043 13.8946 3.73478 14 4 14H6V15C6 15.2652 6.10536 15.5196 6.29289 15.7071C6.48043 15.8946 6.73478 16 7 16H9V18C9 18.7956 9.31607 19.5587 9.87868 20.1213C10.4413 20.6839 11.2044 21 12 21H18C18.7956 21 19.5587 20.6839 20.1213 20.1213C20.6839 19.5587 21 18.7956 21 18V6C21 5.20435 20.6839 4.44129 20.1213 3.87868C19.5587 3.31607 18.7956 3 18 3ZM15 17C14.8022 17 14.6089 16.9414 14.4444 16.8315C14.28 16.7216 14.1518 16.5654 14.0761 16.3827C14.0004 16.2 13.9806 15.9989 14.0192 15.8049C14.0578 15.6109 14.153 15.4327 14.2929 15.2929C14.4327 15.153 14.6109 15.0578 14.8049 15.0192C14.9989 14.9806 15.2 15.0004 15.3827 15.0761C15.5654 15.1518 15.7216 15.28 15.8315 15.4444C15.9414 15.6089 16 15.8022 16 16C16 16.2652 15.8946 16.5196 15.7071 16.7071C15.5196 16.8946 15.2652 17 15 17ZM17.86 13.08C17.7715 13.2293 17.6457 13.353 17.4949 13.4389C17.3441 13.5248 17.1735 13.57 17 13.57C16.8205 13.5699 16.6444 13.5216 16.49 13.43C16.041 13.1466 15.5209 12.9962 14.99 12.9962C14.4591 12.9962 13.939 13.1466 13.49 13.43C13.3768 13.5123 13.2477 13.5699 13.1108 13.5992C12.974 13.6284 12.8326 13.6286 12.6956 13.5998C12.5587 13.5709 12.4294 13.5136 12.316 13.4317C12.2026 13.3497 12.1077 13.2448 12.0373 13.1239C11.967 13.0029 11.9228 12.8685 11.9077 12.7294C11.8926 12.5903 11.9068 12.4496 11.9495 12.3163C11.9921 12.1831 12.0623 12.0603 12.1554 11.9558C12.2485 11.8514 12.3625 11.7676 12.49 11.71C13.2437 11.2527 14.1084 11.011 14.99 11.011C15.8716 11.011 16.7363 11.2527 17.49 11.71C17.6046 11.7753 17.7051 11.8627 17.7858 11.967C17.8665 12.0714 17.9257 12.1907 17.9601 12.318C17.9945 12.4453 18.0034 12.5782 17.9862 12.709C17.969 12.8398 17.9261 12.9659 17.86 13.08ZM18.93 9C18.8543 9.1842 18.7254 9.3416 18.5597 9.45206C18.394 9.56252 18.1991 9.621 18 9.62C17.87 9.62159 17.7409 9.59782 17.62 9.55C15.9415 8.85989 14.0585 8.85989 12.38 9.55C12.2585 9.5999 12.1284 9.62539 11.9971 9.62501C11.8658 9.62463 11.7358 9.59838 11.6146 9.54777C11.4934 9.49717 11.3834 9.42319 11.2908 9.33006C11.1982 9.23693 11.1249 9.12647 11.075 9.005C10.9742 8.75968 10.975 8.48436 11.0772 8.23963C11.1794 7.99489 11.3747 7.80078 11.62 7.7C13.7854 6.80985 16.2146 6.80985 18.38 7.7C18.625 7.79986 18.8204 7.99274 18.9235 8.23639C19.0266 8.48005 19.0289 8.75463 18.93 9Z" fill="#141414"/>
</svg>
