<svg width="24" height="24" viewBox="0 0 24 24" fill="none" xmlns="http://www.w3.org/2000/svg">
<path d="M20.12 3.88C19.5579 3.31723 18.7954 3.0007 18 3H17C17 2.73478 16.8946 2.48043 16.7071 2.29289C16.5196 2.10536 16.2652 2 16 2C15.7348 2 15.4804 2.10536 15.2929 2.29289C15.1054 2.48043 15 2.73478 15 3H9C9 2.73478 8.89464 2.48043 8.70711 2.29289C8.51957 2.10536 8.26522 2 8 2C7.73478 2 7.48043 2.10536 7.29289 2.29289C7.10536 2.48043 7 2.73478 7 3H6C5.20435 3 4.44129 3.31607 3.87868 3.87868C3.31607 4.44129 3 5.20435 3 6V18C3 18.7956 3.31607 19.5587 3.87868 20.1213C4.44129 20.6839 5.20435 21 6 21H18C18.7956 21 19.5587 20.6839 20.1213 20.1213C20.6839 19.5587 21 18.7956 21 18V6C20.9993 5.20462 20.6828 4.44207 20.12 3.88ZM14.5 13C14.5 13.4465 14.4004 13.8874 14.2084 14.2905C14.0163 14.6936 13.7367 15.0487 13.39 15.33L14.95 16.11C15.1855 16.2299 15.364 16.4381 15.4465 16.6892C15.5289 16.9403 15.5086 17.2138 15.39 17.45C15.3069 17.6149 15.1798 17.7536 15.0227 17.8507C14.8656 17.9478 14.6847 17.9994 14.5 18C14.3431 18.0019 14.1883 17.964 14.05 17.89L10.05 15.89C9.8507 15.7879 9.69144 15.6219 9.59772 15.4185C9.504 15.2151 9.48125 14.9862 9.53312 14.7684C9.58499 14.5505 9.70846 14.3564 9.88377 14.2171C10.0591 14.0778 10.2761 14.0013 10.5 14H11.5C11.7652 14 12.0196 13.8946 12.2071 13.7071C12.3946 13.5196 12.5 13.2652 12.5 13C12.5 12.7348 12.3946 12.4804 12.2071 12.2929C12.0196 12.1054 11.7652 12 11.5 12H9.5C9.23478 12 8.98043 11.8946 8.79289 11.7071C8.60536 11.5196 8.5 11.2652 8.5 11C8.5 10.7348 8.60536 10.4804 8.79289 10.2929C8.98043 10.1054 9.23478 10 9.5 10H14.5C14.7652 10 15.0196 10.1054 15.2071 10.2929C15.3946 10.4804 15.5 10.7348 15.5 11C15.5 11.2652 15.3946 11.5196 15.2071 11.7071C15.0196 11.8946 14.7652 12 14.5 12H14.32C14.4364 12.3207 14.4973 12.6589 14.5 13ZM19 7H5V6C5 5.73478 5.10536 5.48043 5.29289 5.29289C5.48043 5.10536 5.73478 5 6 5H7C7 5.26522 7.10536 5.51957 7.29289 5.70711C7.48043 5.89464 7.73478 6 8 6C8.26522 6 8.51957 5.89464 8.70711 5.70711C8.89464 5.51957 9 5.26522 9 5H15C15 5.26522 15.1054 5.51957 15.2929 5.70711C15.4804 5.89464 15.7348 6 16 6C16.2652 6 16.5196 5.89464 16.7071 5.70711C16.8946 5.51957 17 5.26522 17 5H18C18.2652 5 18.5196 5.10536 18.7071 5.29289C18.8946 5.48043 19 5.73478 19 6V7Z" fill="#141414"/>
</svg>
