<svg width="24" height="24" viewBox="0 0 24 24" fill="none" xmlns="http://www.w3.org/2000/svg">
<path d="M19 5H5C4.20435 5 3.44129 5.31607 2.87868 5.87868C2.31607 6.44129 2 7.20435 2 8V16C2 16.7956 2.31607 17.5587 2.87868 18.1213C3.44129 18.6839 4.20435 19 5 19H19C19.7956 19 20.5587 18.6839 21.1213 18.1213C21.6839 17.5587 22 16.7956 22 16V8C22 7.20435 21.6839 6.44129 21.1213 5.87868C20.5587 5.31607 19.7956 5 19 5ZM8 8C8.29667 8 8.58668 8.08797 8.83335 8.2528C9.08003 8.41762 9.27229 8.65189 9.38582 8.92597C9.49935 9.20006 9.52906 9.50166 9.47118 9.79264C9.4133 10.0836 9.27044 10.3509 9.06066 10.5607C8.85088 10.7704 8.58361 10.9133 8.29264 10.9712C8.00166 11.0291 7.70006 10.9994 7.42597 10.8858C7.15189 10.7723 6.91762 10.58 6.7528 10.3334C6.58797 10.0867 6.5 9.79667 6.5 9.5C6.5 9.10218 6.65804 8.72064 6.93934 8.43934C7.22064 8.15804 7.60218 8 8 8ZM10 16H6C5.73478 16 5.48043 15.8946 5.29289 15.7071C5.10536 15.5196 5 15.2652 5 15C5 14.2044 5.31607 13.4413 5.87868 12.8787C6.44129 12.3161 7.20435 12 8 12C8.79565 12 9.55871 12.3161 10.1213 12.8787C10.6839 13.4413 11 14.2044 11 15C11 15.2652 10.8946 15.5196 10.7071 15.7071C10.5196 15.8946 10.2652 16 10 16ZM18 10H17.82C18.0275 10.5832 18.0495 11.2163 17.883 11.8124C17.7165 12.4086 17.3696 12.9387 16.89 13.33L18.45 14.11C18.6855 14.2299 18.864 14.4381 18.9465 14.6892C19.0289 14.9403 19.0086 15.2138 18.89 15.45C18.8069 15.6149 18.6798 15.7536 18.5227 15.8507C18.3656 15.9478 18.1847 15.9994 18 16C17.8431 16.0019 17.6883 15.964 17.55 15.89L13.55 13.89C13.3507 13.7879 13.1914 13.6219 13.0977 13.4185C13.004 13.2151 12.9813 12.9862 13.0331 12.7684C13.085 12.5505 13.2085 12.3564 13.3838 12.2171C13.5591 12.0778 13.7761 12.0013 14 12H15C15.2652 12 15.5196 11.8946 15.7071 11.7071C15.8946 11.5196 16 11.2652 16 11C16 10.7348 15.8946 10.4804 15.7071 10.2929C15.5196 10.1054 15.2652 10 15 10H13C12.7348 10 12.4804 9.89464 12.2929 9.70711C12.1054 9.51957 12 9.26522 12 9C12 8.73478 12.1054 8.48043 12.2929 8.29289C12.4804 8.10536 12.7348 8 13 8H18C18.2652 8 18.5196 8.10536 18.7071 8.29289C18.8946 8.48043 19 8.73478 19 9C19 9.26522 18.8946 9.51957 18.7071 9.70711C18.5196 9.89464 18.2652 10 18 10Z" fill="#141414"/>
</svg>
