<svg width="24" height="24" viewBox="0 0 24 24" fill="none" xmlns="http://www.w3.org/2000/svg">
<path d="M20.46 4.68C20.1284 4.29684 19.6638 4.05381 19.16 4C16.9552 3.76898 14.8088 3.14942 12.82 2.17C12.5648 2.04466 12.2843 1.97949 12 1.97949C11.7157 1.97949 11.4352 2.04466 11.18 2.17C9.20579 3.15045 7.07225 3.77019 4.88 4C4.37562 4.04408 3.90514 4.27236 3.55837 4.64127C3.21159 5.01017 3.01282 5.49386 3 6V11C3 17.74 9.75 22 12 22C14.25 22 21 17.75 21 11V6C20.9883 5.50859 20.7961 5.03869 20.46 4.68ZM11 6.5C11 6.23478 11.1054 5.98043 11.2929 5.79289C11.4804 5.60536 11.7348 5.5 12 5.5C12.2652 5.5 12.5196 5.60536 12.7071 5.79289C12.8946 5.98043 13 6.23478 13 6.5V12.5C13 12.7652 12.8946 13.0196 12.7071 13.2071C12.5196 13.3946 12.2652 13.5 12 13.5C11.7348 13.5 11.4804 13.3946 11.2929 13.2071C11.1054 13.0196 11 12.7652 11 12.5V6.5ZM13.06 18.06C12.8153 18.3049 12.4934 18.4577 12.1489 18.4923C11.8044 18.5269 11.4586 18.4413 11.17 18.25C10.9215 18.0823 10.727 17.8461 10.61 17.57C10.499 17.2975 10.4712 16.9983 10.53 16.71C10.5865 16.418 10.729 16.1496 10.9393 15.9393C11.1496 15.729 11.418 15.5865 11.71 15.53C11.9983 15.4712 12.2975 15.499 12.57 15.61C12.8461 15.727 13.0823 15.9215 13.25 16.17C13.4413 16.4586 13.5269 16.8044 13.4923 17.1489C13.4577 17.4934 13.3049 17.8153 13.06 18.06Z" fill="#141414"/>
</svg>
