<svg width="24" height="24" viewBox="0 0 24 24" fill="none" xmlns="http://www.w3.org/2000/svg">
<path d="M17 16.9999C16.5213 17.0005 16.0503 17.1208 15.63 17.3499C15.3833 16.8093 15.0193 16.3305 14.5643 15.9482C14.1094 15.5659 13.575 15.2898 13 15.1399V11.9999H14C14.4534 12.0087 14.9039 11.9246 15.3235 11.7526C15.7432 11.5806 16.1232 11.3244 16.44 10.9999C18 9.45992 18 6.61992 18 6.49992C18 6.36731 17.9473 6.24014 17.8536 6.14637C17.7598 6.0526 17.6326 5.99992 17.5 5.99992C16.6328 5.94339 15.7654 6.10722 14.9786 6.47615C14.1918 6.84508 13.5111 7.40712 13 8.10992V2.99992C13 2.73471 12.8946 2.48035 12.7071 2.29282C12.5196 2.10528 12.2652 1.99992 12 1.99992C11.7348 1.99992 11.4804 2.10528 11.2929 2.29282C11.1054 2.48035 11 2.73471 11 2.99992V4.10992C10.4889 3.40712 9.8082 2.84508 9.02138 2.47615C8.23456 2.10722 7.36718 1.94339 6.5 1.99992C6.36739 1.99992 6.24021 2.0526 6.14645 2.14637C6.05268 2.24014 6 2.36731 6 2.49992C6 2.61992 6 5.49992 7.56 7.01992C7.87854 7.34082 8.25927 7.59326 8.67885 7.76178C9.09842 7.9303 9.54799 8.01133 10 7.99992H11V15.1399C10.425 15.2898 9.8906 15.5659 9.43567 15.9482C8.98074 16.3305 8.6167 16.8093 8.37 17.3499C7.94967 17.1208 7.47871 17.0005 7 16.9999C6.20435 16.9999 5.44129 17.316 4.87868 17.8786C4.31607 18.4412 4 19.2043 4 19.9999V20.9999C4 21.2651 4.10536 21.5195 4.29289 21.707C4.48043 21.8946 4.73478 21.9999 5 21.9999H19C19.2652 21.9999 19.5196 21.8946 19.7071 21.707C19.8946 21.5195 20 21.2651 20 20.9999V19.9999C20 19.2043 19.6839 18.4412 19.1213 17.8786C18.5587 17.316 17.7956 16.9999 17 16.9999Z" fill="#141414"/>
</svg>
