<svg width="24" height="24" viewBox="0 0 24 24" fill="none" xmlns="http://www.w3.org/2000/svg">
<path d="M12 12C9.87827 12 7.84344 12.8429 6.34315 14.3431C4.84285 15.8434 4 17.8783 4 20C4 20.5304 4.21071 21.0391 4.58579 21.4142C4.96086 21.7893 5.46957 22 6 22H18C18.5304 22 19.0391 21.7893 19.4142 21.4142C19.7893 21.0391 20 20.5304 20 20C20 17.8783 19.1571 15.8434 17.6569 14.3431C16.1566 12.8429 14.1217 12 12 12ZM12 11C13.0161 11.0428 14.0263 10.8267 14.9359 10.3719C15.8455 9.91708 16.6246 9.23855 17.2 8.4L17.5 7.87L17.09 7.41C16.6916 6.91223 16.3867 6.34644 16.19 5.74C15.79 4.45 15.05 2.05 12 2C9 2 8.22 4.45 7.83 5.74C7.63213 6.34699 7.31983 6.91048 6.91 7.4L6.5 7.87L6.81 8.4C7.38447 9.23707 8.16194 9.91469 9.06965 10.3694C9.97735 10.8241 10.9856 11.0411 12 11Z" fill="#141414"/>
</svg>
