<svg width="24" height="24" viewBox="0 0 24 24" fill="none" xmlns="http://www.w3.org/2000/svg">
<path d="M20 14.28V14C20 13.2044 19.6839 12.4413 19.1213 11.8787C18.5587 11.3161 17.7956 11 17 11C16.2044 11 15.4413 11.3161 14.8787 11.8787C14.3161 12.4413 14 13.2044 14 14V14.28C13.6977 14.4545 13.4464 14.7051 13.2709 15.0068C13.0955 15.3086 13.0021 15.651 13 16V20C13 20.5304 13.2107 21.0391 13.5858 21.4142C13.9609 21.7893 14.4696 22 15 22H19C19.5304 22 20.0391 21.7893 20.4142 21.4142C20.7893 21.0391 21 20.5304 21 20V16C20.9979 15.651 20.9045 15.3086 20.7291 15.0068C20.5536 14.7051 20.3023 14.4545 20 14.28ZM17 19C16.8022 19 16.6089 18.9414 16.4444 18.8315C16.28 18.7216 16.1518 18.5654 16.0761 18.3827C16.0004 18.2 15.9806 17.9989 16.0192 17.8049C16.0578 17.6109 16.153 17.4327 16.2929 17.2929C16.4327 17.153 16.6109 17.0578 16.8049 17.0192C16.9989 16.9806 17.2 17.0004 17.3827 17.0761C17.5654 17.1518 17.7216 17.28 17.8315 17.4444C17.9414 17.6089 18 17.8022 18 18C18 18.2652 17.8946 18.5196 17.7071 18.7071C17.5196 18.8946 17.2652 19 17 19ZM16 14C16 13.7348 16.1054 13.4804 16.2929 13.2929C16.4804 13.1054 16.7348 13 17 13C17.2652 13 17.5196 13.1054 17.7071 13.2929C17.8946 13.4804 18 13.7348 18 14H16ZM20.46 4.69C20.1301 4.30312 19.6653 4.0564 19.16 4C16.9552 3.76898 14.8088 3.14942 12.82 2.17C12.5648 2.04466 12.2843 1.97949 12 1.97949C11.7157 1.97949 11.4352 2.04466 11.18 2.17C9.20579 3.15045 7.07225 3.77019 4.88 4C4.37562 4.04408 3.90514 4.27236 3.55837 4.64127C3.21159 5.01017 3.01282 5.49386 3 6V11C3 16.92 8.21 20.93 11 21.81V15C11 13.4087 11.6321 11.8826 12.7574 10.7574C13.8826 9.63214 15.4087 9 17 9C18.4787 8.99666 19.9053 9.5459 21 10.54V6C20.9859 5.51207 20.7938 5.04614 20.46 4.69Z" fill="#141414"/>
</svg>
