<svg width="24" height="24" viewBox="0 0 24 24" fill="none" xmlns="http://www.w3.org/2000/svg">
<path d="M17 2H7C6.20435 2 5.44129 2.31607 4.87868 2.87868C4.31607 3.44129 4 4.20435 4 5V19C4 19.7956 4.31607 20.5587 4.87868 21.1213C5.44129 21.6839 6.20435 22 7 22H17C17.7956 22 18.5587 21.6839 19.1213 21.1213C19.6839 20.5587 20 19.7956 20 19V5C20 4.20435 19.6839 3.44129 19.1213 2.87868C18.5587 2.31607 17.7956 2 17 2ZM12 6H16C16.2652 6 16.5196 6.10536 16.7071 6.29289C16.8946 6.48043 17 6.73478 17 7C17 7.26522 16.8946 7.51957 16.7071 7.70711C16.5196 7.89464 16.2652 8 16 8H12C11.7348 8 11.4804 7.89464 11.2929 7.70711C11.1054 7.51957 11 7.26522 11 7C11 6.73478 11.1054 6.48043 11.2929 6.29289C11.4804 6.10536 11.7348 6 12 6ZM16 18H12C11.7348 18 11.4804 17.8946 11.2929 17.7071C11.1054 17.5196 11 17.2652 11 17C11 16.7348 11.1054 16.4804 11.2929 16.2929C11.4804 16.1054 11.7348 16 12 16H16C16.2652 16 16.5196 16.1054 16.7071 16.2929C16.8946 16.4804 17 16.7348 17 17C17 17.2652 16.8946 17.5196 16.7071 17.7071C16.5196 17.8946 16.2652 18 16 18ZM16 13H12C11.7348 13 11.4804 12.8946 11.2929 12.7071C11.1054 12.5196 11 12.2652 11 12C11 11.7348 11.1054 11.4804 11.2929 11.2929C11.4804 11.1054 11.7348 11 12 11H16C16.2652 11 16.5196 11.1054 16.7071 11.2929C16.8946 11.4804 17 11.7348 17 12C17 12.2652 16.8946 12.5196 16.7071 12.7071C16.5196 12.8946 16.2652 13 16 13ZM9.5 7C9.5 7.29667 9.41203 7.58668 9.2472 7.83336C9.08238 8.08003 8.84811 8.27229 8.57403 8.38582C8.29994 8.49935 7.99834 8.52906 7.70736 8.47118C7.41639 8.4133 7.14912 8.27044 6.93934 8.06066C6.72956 7.85088 6.5867 7.58361 6.52882 7.29264C6.47094 7.00166 6.50065 6.70006 6.61418 6.42597C6.72771 6.15189 6.91997 5.91762 7.16664 5.7528C7.41332 5.58797 7.70333 5.5 8 5.5C8.39782 5.5 8.77936 5.65804 9.06066 5.93934C9.34196 6.22064 9.5 6.60218 9.5 7ZM9.5 12C9.5 12.2967 9.41203 12.5867 9.2472 12.8334C9.08238 13.08 8.84811 13.2723 8.57403 13.3858C8.29994 13.4994 7.99834 13.5291 7.70736 13.4712C7.41639 13.4133 7.14912 13.2704 6.93934 13.0607C6.72956 12.8509 6.5867 12.5836 6.52882 12.2926C6.47094 12.0017 6.50065 11.7001 6.61418 11.426C6.72771 11.1519 6.91997 10.9176 7.16664 10.7528C7.41332 10.588 7.70333 10.5 8 10.5C8.39782 10.5 8.77936 10.658 9.06066 10.9393C9.34196 11.2206 9.5 11.6022 9.5 12ZM9.5 17C9.5 17.2967 9.41203 17.5867 9.2472 17.8334C9.08238 18.08 8.84811 18.2723 8.57403 18.3858C8.29994 18.4993 7.99834 18.5291 7.70736 18.4712C7.41639 18.4133 7.14912 18.2704 6.93934 18.0607C6.72956 17.8509 6.5867 17.5836 6.52882 17.2926C6.47094 17.0017 6.50065 16.7001 6.61418 16.426C6.72771 16.1519 6.91997 15.9176 7.16664 15.7528C7.41332 15.588 7.70333 15.5 8 15.5C8.39782 15.5 8.77936 15.658 9.06066 15.9393C9.34196 16.2206 9.5 16.6022 9.5 17Z" fill="#141414"/>
</svg>
