<svg width="24" height="24" viewBox="0 0 24 24" fill="none" xmlns="http://www.w3.org/2000/svg">
<path d="M12.71 7.04999L8.23999 2.58999C8.05424 2.40404 7.83367 2.25652 7.59087 2.15587C7.34808 2.05522 7.08782 2.00342 6.82499 2.00342C6.56216 2.00342 6.30191 2.05522 6.05911 2.15587C5.81631 2.25652 5.59574 2.40404 5.40999 2.58999L2.58999 5.40999C2.40404 5.59574 2.25652 5.81631 2.15587 6.05911C2.05522 6.30191 2.00342 6.56216 2.00342 6.82499C2.00342 7.08782 2.05522 7.34808 2.15587 7.59087C2.25652 7.83367 2.40404 8.05424 2.58999 8.23999L7.04999 12.71L12.71 7.04999ZM15.33 13.89L19.12 10.1C19.3295 9.89022 19.4722 9.62306 19.5299 9.33226C19.5877 9.04147 19.558 8.74007 19.4446 8.46614C19.3311 8.19222 19.1391 7.95805 18.8927 7.79321C18.6462 7.62837 18.3565 7.54025 18.06 7.53999H17.91L20.49 4.99999C20.5878 4.90216 20.6654 4.78601 20.7184 4.65818C20.7713 4.53035 20.7986 4.39335 20.7986 4.25499C20.7986 4.11663 20.7713 3.97963 20.7184 3.8518C20.6654 3.72397 20.5878 3.60783 20.49 3.50999C20.3922 3.41216 20.276 3.33455 20.1482 3.2816C20.0204 3.22865 19.8834 3.2014 19.745 3.2014C19.6066 3.2014 19.4696 3.22865 19.3418 3.2816C19.214 3.33455 19.0978 3.41216 19 3.50999L3.50999 19C3.41216 19.0978 3.33455 19.214 3.2816 19.3418C3.22865 19.4696 3.2014 19.6066 3.2014 19.745C3.2014 19.8834 3.22865 20.0204 3.2816 20.1482C3.33455 20.276 3.41216 20.3922 3.50999 20.49C3.70758 20.6876 3.97556 20.7986 4.25499 20.7986C4.39335 20.7986 4.53035 20.7713 4.65818 20.7184C4.78601 20.6654 4.90216 20.5878 4.99999 20.49L7.57999 17.91V18.06C7.58025 18.3565 7.66837 18.6462 7.83321 18.8927C7.99805 19.1391 8.23222 19.3311 8.50614 19.4446C8.78007 19.558 9.08147 19.5877 9.37226 19.5299C9.66306 19.4722 9.93022 19.3295 10.14 19.12L13.93 15.33L19 20.49C19.1976 20.6876 19.4656 20.7986 19.745 20.7986C20.0244 20.7986 20.2924 20.6876 20.49 20.49C20.6876 20.2924 20.7986 20.0244 20.7986 19.745C20.7986 19.4656 20.6876 19.1976 20.49 19L15.33 13.89Z" fill="#141414"/>
</svg>
