<svg width="24" height="24" viewBox="0 0 24 24" fill="none" xmlns="http://www.w3.org/2000/svg">
<path d="M20.7099 3.28994C20.617 3.19621 20.5064 3.12182 20.3845 3.07105C20.2627 3.02028 20.132 2.99414 19.9999 2.99414C19.8679 2.99414 19.7372 3.02028 19.6154 3.07105C19.4935 3.12182 19.3829 3.19621 19.2899 3.28994L16.8299 5.75994L16.1199 5.04994C15.5574 4.48814 14.7949 4.17258 13.9999 4.17258C13.2049 4.17258 12.4424 4.48814 11.8799 5.04994L9.87994 7.04994C9.69369 7.2373 9.58915 7.49075 9.58915 7.75494C9.58915 8.01912 9.69369 8.27258 9.87994 8.45994L15.5399 14.1199C15.7273 14.3062 15.9808 14.4107 16.2449 14.4107C16.5091 14.4107 16.7626 14.3062 16.9499 14.1199L18.9499 12.1199C19.5117 11.5574 19.8273 10.7949 19.8273 9.99994C19.8273 9.20494 19.5117 8.44244 18.9499 7.87994L18.2399 7.16994L20.7099 4.70994C20.8037 4.61698 20.8781 4.50638 20.9288 4.38452C20.9796 4.26266 21.0057 4.13195 21.0057 3.99994C21.0057 3.86793 20.9796 3.73722 20.9288 3.61536C20.8781 3.4935 20.8037 3.3829 20.7099 3.28994ZM8.45994 9.87994C8.27258 9.69369 8.01912 9.58915 7.75494 9.58915C7.49075 9.58915 7.2373 9.69369 7.04994 9.87994L5.04994 11.8799C4.48814 12.4424 4.17258 13.2049 4.17258 13.9999C4.17258 14.7949 4.48814 15.5574 5.04994 16.1199L5.75994 16.8299L3.28994 19.2899C3.19621 19.3829 3.12182 19.4935 3.07105 19.6154C3.02028 19.7372 2.99414 19.8679 2.99414 19.9999C2.99414 20.132 3.02028 20.2627 3.07105 20.3845C3.12182 20.5064 3.19621 20.617 3.28994 20.7099C3.3829 20.8037 3.4935 20.8781 3.61536 20.9288C3.73722 20.9796 3.86793 21.0057 3.99994 21.0057C4.13195 21.0057 4.26266 20.9796 4.38452 20.9288C4.50638 20.8781 4.61698 20.8037 4.70994 20.7099L7.16994 18.2399L7.87994 18.9499C8.44244 19.5117 9.20494 19.8273 9.99994 19.8273C10.7949 19.8273 11.5574 19.5117 12.1199 18.9499L14.1199 16.9499C14.3062 16.7626 14.4107 16.5091 14.4107 16.2449C14.4107 15.9808 14.3062 15.7273 14.1199 15.5399L8.45994 9.87994Z" fill="#141414"/>
</svg>
