<svg width="24" height="24" viewBox="0 0 24 24" fill="none" xmlns="http://www.w3.org/2000/svg">
<path d="M12 2C10.0222 2 8.08879 2.58649 6.4443 3.6853C4.79981 4.78412 3.51809 6.3459 2.76121 8.17317C2.00433 10.0004 1.8063 12.0111 2.19215 13.9509C2.578 15.8907 3.53041 17.6725 4.92894 19.0711C6.32746 20.4696 8.10929 21.422 10.0491 21.8079C11.9889 22.1937 13.9996 21.9957 15.8268 21.2388C17.6541 20.4819 19.2159 19.2002 20.3147 17.5557C21.4135 15.9112 22 13.9778 22 12C22 10.6868 21.7413 9.38642 21.2388 8.17317C20.7363 6.95991 19.9997 5.85752 19.0711 4.92893C18.1425 4.00035 17.0401 3.26375 15.8268 2.7612C14.6136 2.25866 13.3132 2 12 2ZM15.66 13.1L11.42 16.37C11.1979 16.5424 10.9319 16.649 10.6522 16.6775C10.3725 16.7061 10.0904 16.6554 9.83809 16.5313C9.58579 16.4073 9.37344 16.2148 9.22525 15.9759C9.07707 15.7369 8.99902 15.4612 9 15.18V8.64C8.99902 8.35885 9.07707 8.08308 9.22525 7.84414C9.37344 7.60521 9.58579 7.41273 9.83809 7.28867C10.0904 7.1646 10.3725 7.11394 10.6522 7.14247C10.9319 7.171 11.1979 7.27756 11.42 7.45L15.66 10.72C15.8425 10.8601 15.9904 11.0402 16.0921 11.2466C16.1939 11.4529 16.2468 11.6799 16.2468 11.91C16.2468 12.1401 16.1939 12.3671 16.0921 12.5734C15.9904 12.7798 15.8425 12.9599 15.66 13.1Z" fill="#141414"/>
</svg>
