<svg width="24" height="24" viewBox="0 0 24 24" fill="none" xmlns="http://www.w3.org/2000/svg">
<path d="M16 13C16 11.9391 16.4214 10.9217 17.1716 10.1716C17.9217 9.42142 18.9391 8.99999 20 8.99999H20.06C20.0846 7.44061 20.3685 5.89619 20.9 4.42999C20.9878 4.27797 21.034 4.10553 21.034 3.92999C21.034 3.75445 20.9878 3.58201 20.9 3.42999C20.8007 3.28582 20.6654 3.17023 20.5074 3.09477C20.3495 3.01931 20.1745 2.98663 20 2.99999H14C13.9943 3.47355 13.8207 3.92972 13.5102 4.2873C13.1997 4.64488 12.7723 4.88066 12.3043 4.95267C11.8362 5.02469 11.3577 4.92826 10.9541 4.68055C10.5504 4.43284 10.2478 4.04994 10.1 3.59999C5.64 5.05999 3 9.14999 3 15C3 17.81 3.73 19.33 4.63 20.13C4.66189 20.1501 4.69793 20.1628 4.73542 20.1671C4.77291 20.1713 4.81087 20.167 4.84646 20.1545C4.88206 20.142 4.91436 20.1216 4.94095 20.0949C4.96754 20.0681 4.98773 20.0357 5 20C5.33 14 8.54 9.70999 14.57 7.12999C14.6918 7.0727 14.8239 7.04059 14.9584 7.03557C15.0929 7.03055 15.227 7.05273 15.3527 7.10078C15.4784 7.14883 15.5931 7.22176 15.69 7.3152C15.7868 7.40864 15.8638 7.52067 15.9163 7.64458C15.9689 7.76849 15.9958 7.90173 15.9957 8.03631C15.9955 8.17089 15.9681 8.30405 15.9152 8.4278C15.8623 8.55156 15.785 8.66337 15.6879 8.75654C15.5908 8.8497 15.4759 8.9223 15.35 8.96999C9.83 11.3 7.09 15.17 7 20.73C7 20.8016 7.02845 20.8703 7.07908 20.9209C7.12972 20.9715 7.19839 21 7.27 21C8.74256 20.9882 10.2089 20.807 11.64 20.46C11.3963 20.234 11.2128 19.9508 11.106 19.6361C10.9993 19.3213 10.9726 18.9849 11.0285 18.6573C11.0844 18.3297 11.221 18.0212 11.4261 17.7596C11.6311 17.498 11.8981 17.2917 12.203 17.1593C12.5078 17.0268 12.8408 16.9724 13.1719 17.001C13.5031 17.0295 13.8218 17.1402 14.0995 17.3229C14.3771 17.5056 14.6048 17.7546 14.7621 18.0474C14.9193 18.3403 15.0011 18.6676 15 19C15 19.05 15 19.09 15 19.13C16.1896 18.46 17.236 17.5631 18.08 16.49C17.4532 16.147 16.9297 15.6425 16.5639 15.0287C16.1981 14.415 16.0034 13.7145 16 13Z" fill="#141414"/>
</svg>
