<svg width="24" height="24" viewBox="0 0 24 24" fill="none" xmlns="http://www.w3.org/2000/svg">
<path d="M17 2H7C6.20435 2 5.44129 2.31607 4.87868 2.87868C4.31607 3.44129 4 4.20435 4 5V19C4 19.7956 4.31607 20.5587 4.87868 21.1213C5.44129 21.6839 6.20435 22 7 22H17C17.7956 22 18.5587 21.6839 19.1213 21.1213C19.6839 20.5587 20 19.7956 20 19V5C20 4.20435 19.6839 3.44129 19.1213 2.87868C18.5587 2.31607 17.7956 2 17 2ZM12 6C12.5933 6 13.1734 6.17595 13.6667 6.50559C14.1601 6.83524 14.5446 7.30377 14.7716 7.85195C14.9987 8.40013 15.0581 9.00333 14.9424 9.58527C14.8266 10.1672 14.5409 10.7018 14.1213 11.1213C13.7018 11.5409 13.1672 11.8266 12.5853 11.9424C12.0033 12.0581 11.4001 11.9987 10.8519 11.7716C10.3038 11.5446 9.83524 11.1601 9.50559 10.6667C9.17595 10.1734 9 9.59334 9 9C9 8.20435 9.31607 7.44129 9.87868 6.87868C10.4413 6.31607 11.2044 6 12 6ZM15 18H9C8.73478 18 8.48043 17.8946 8.29289 17.7071C8.10536 17.5196 8 17.2652 8 17C8 16.7348 8.10536 16.4804 8.29289 16.2929C8.48043 16.1054 8.73478 16 9 16H15C15.2652 16 15.5196 16.1054 15.7071 16.2929C15.8946 16.4804 16 16.7348 16 17C16 17.2652 15.8946 17.5196 15.7071 17.7071C15.5196 17.8946 15.2652 18 15 18Z" fill="#141414"/>
</svg>
