<svg width="24" height="24" viewBox="0 0 24 24" fill="none" xmlns="http://www.w3.org/2000/svg">
<path d="M7 8.50019C7 8.79686 7.08797 9.08687 7.2528 9.33354C7.41762 9.58021 7.65189 9.77247 7.92597 9.886C8.20006 9.99954 8.50166 10.0292 8.79264 9.97136C9.08361 9.91349 9.35088 9.77062 9.56066 9.56085C9.77044 9.35107 9.9133 9.08379 9.97118 8.79282C10.0291 8.50185 9.99935 8.20025 9.88582 7.92616C9.77229 7.65207 9.58003 7.4178 9.33335 7.25298C9.08668 7.08816 8.79667 7.00019 8.5 7.00019C8.10218 7.00019 7.72064 7.15822 7.43934 7.43953C7.15804 7.72083 7 8.10236 7 8.50019ZM20 8.00019C19.7348 8.00019 19.4804 8.10554 19.2929 8.29308C19.1054 8.48062 19 8.73497 19 9.00019V12.0902L16.21 9.29019C16.117 9.19646 16.0064 9.12206 15.8846 9.07129C15.7627 9.02053 15.632 8.99439 15.5 8.99439C15.368 8.99439 15.2373 9.02053 15.1154 9.07129C14.9936 9.12206 14.883 9.19646 14.79 9.29019L10.5 13.5902L9.21 12.2902C9.11704 12.1965 9.00644 12.1221 8.88458 12.0713C8.76272 12.0205 8.63201 11.9944 8.5 11.9944C8.36799 11.9944 8.23728 12.0205 8.11542 12.0713C7.99356 12.1221 7.88296 12.1965 7.79 12.2902L5 15.0902V6.00019C5 5.73497 5.10536 5.48062 5.29289 5.29308C5.48043 5.10554 5.73478 5.00019 6 5.00019H15C15.2652 5.00019 15.5196 4.89483 15.7071 4.70729C15.8946 4.51976 16 4.2654 16 4.00019C16 3.73497 15.8946 3.48061 15.7071 3.29308C15.5196 3.10554 15.2652 3.00019 15 3.00019H6C5.20435 3.00019 4.44129 3.31626 3.87868 3.87887C3.31607 4.44147 3 5.20454 3 6.00019V18.0002C3 18.7958 3.31607 19.5589 3.87868 20.1215C4.44129 20.6841 5.20435 21.0002 6 21.0002H18C18.7956 21.0002 19.5587 20.6841 20.1213 20.1215C20.6839 19.5589 21 18.7958 21 18.0002V9.00019C21 8.73497 20.8946 8.48062 20.7071 8.29308C20.5196 8.10554 20.2652 8.00019 20 8.00019ZM20.91 4.50019L21.71 3.71019C21.8983 3.52188 22.0041 3.26649 22.0041 3.00019C22.0041 2.73388 21.8983 2.47849 21.71 2.29019C21.5217 2.10188 21.2663 1.99609 21 1.99609C20.7337 1.99609 20.4783 2.10188 20.29 2.29019L19.5 3.09019L18.71 2.29019C18.6168 2.19695 18.5061 2.12299 18.3842 2.07253C18.2624 2.02207 18.1319 1.99609 18 1.99609C17.7337 1.99609 17.4783 2.10188 17.29 2.29019C17.1017 2.47849 16.9959 2.73388 16.9959 3.00019C16.9959 3.26649 17.1017 3.52188 17.29 3.71019L18.09 4.50019L17.29 5.29019C17.1963 5.38315 17.1219 5.49375 17.0711 5.61561C17.0203 5.73747 16.9942 5.86817 16.9942 6.00019C16.9942 6.1322 17.0203 6.2629 17.0711 6.38476C17.1219 6.50662 17.1963 6.61722 17.29 6.71019C17.383 6.80391 17.4936 6.87831 17.6154 6.92908C17.7373 6.97985 17.868 7.00598 18 7.00598C18.132 7.00598 18.2627 6.97985 18.3846 6.92908C18.5064 6.87831 18.617 6.80391 18.71 6.71019L19.5 5.91019L20.29 6.71019C20.383 6.80391 20.4936 6.87831 20.6154 6.92908C20.7373 6.97985 20.868 7.00598 21 7.00598C21.132 7.00598 21.2627 6.97985 21.3846 6.92908C21.5064 6.87831 21.617 6.80391 21.71 6.71019C21.8037 6.61722 21.8781 6.50662 21.9289 6.38476C21.9797 6.2629 22.0058 6.1322 22.0058 6.00019C22.0058 5.86817 21.9797 5.73747 21.9289 5.61561C21.8781 5.49375 21.8037 5.38315 21.71 5.29019L20.91 4.50019Z" fill="#141414"/>
</svg>
