<svg width="24" height="24" viewBox="0 0 24 24" fill="none" xmlns="http://www.w3.org/2000/svg">
<path d="M6 4C5.73478 4 5.48043 4.10536 5.29289 4.29289C5.10536 4.48043 5 4.73478 5 5V19C5 19.2652 5.10536 19.5196 5.29289 19.7071C5.48043 19.8946 5.73478 20 6 20C6.26522 20 6.51957 19.8946 6.70711 19.7071C6.89464 19.5196 7 19.2652 7 19V5C7 4.73478 6.89464 4.48043 6.70711 4.29289C6.51957 4.10536 6.26522 4 6 4ZM17.89 4.21C17.6135 4.07221 17.3089 4.00033 17 4C16.5673 4 16.1462 4.14036 15.8 4.4L7.8 10.4C7.55161 10.5863 7.35 10.8279 7.21115 11.1056C7.07229 11.3833 7 11.6895 7 12C7 12.3105 7.07229 12.6167 7.21115 12.8944C7.35 13.1721 7.55161 13.4137 7.8 13.6L15.8 19.6C16.1462 19.8596 16.5673 20 17 20C17.3089 19.9997 17.6135 19.9278 17.89 19.79C18.2232 19.6244 18.5036 19.3692 18.6997 19.053C18.8958 18.7367 18.9998 18.3721 19 18V6C18.9998 5.62792 18.8958 5.26326 18.6997 4.94704C18.5036 4.63083 18.2232 4.37558 17.89 4.21Z" fill="#141414"/>
</svg>
