<svg width="24" height="24" viewBox="0 0 24 24" fill="none" xmlns="http://www.w3.org/2000/svg">
<path d="M15.5 9.00006C15.5 8.73484 15.3946 8.48049 15.2071 8.29295C15.0196 8.10542 14.7652 8.00006 14.5 8.00006H9.49998C9.23477 8.00006 8.98041 8.10542 8.79288 8.29295C8.60534 8.48049 8.49998 8.73484 8.49998 9.00006C8.49998 9.26527 8.60534 9.51963 8.79288 9.70716C8.98041 9.8947 9.23477 10.0001 9.49998 10.0001H11.5C11.7652 10.0001 12.0196 10.1054 12.2071 10.293C12.3946 10.4805 12.5 10.7348 12.5 11.0001C12.5 11.2653 12.3946 11.5196 12.2071 11.7072C12.0196 11.8947 11.7652 12.0001 11.5 12.0001H10.5C10.2761 12.0014 10.0591 12.0778 9.88376 12.2171C9.70845 12.3565 9.58497 12.5506 9.5331 12.7684C9.48124 12.9863 9.50399 13.2152 9.59771 13.4186C9.69142 13.6219 9.85069 13.788 10.05 13.8901L14.05 15.8901C14.1883 15.9641 14.3431 16.0019 14.5 16.0001C14.6847 15.9995 14.8656 15.9478 15.0226 15.8507C15.1797 15.7537 15.3069 15.615 15.39 15.4501C15.5125 15.2199 15.5402 14.9511 15.4674 14.7008C15.3945 14.4505 15.2268 14.2385 15 14.1101L13.44 13.3301C13.9109 12.9326 14.248 12.3997 14.4055 11.8039C14.5629 11.2081 14.5331 10.5783 14.32 10.0001H14.5C14.7652 10.0001 15.0196 9.8947 15.2071 9.70716C15.3946 9.51963 15.5 9.26527 15.5 9.00006ZM12 2.00006C10.6868 2.00006 9.38641 2.25872 8.17315 2.76126C6.95989 3.26381 5.8575 4.0004 4.92892 4.92899C3.05355 6.80435 1.99998 9.34789 1.99998 12.0001C1.99809 12.3745 2.02147 12.7487 2.06998 13.1201C2.10181 13.3853 2.23769 13.627 2.44773 13.792C2.65777 13.9571 2.92477 14.0319 3.18999 14.0001C3.4552 13.9682 3.69691 13.8324 3.86194 13.6223C4.02698 13.4123 4.10181 13.1453 4.06999 12.8801C4.03141 12.5881 4.00804 12.2944 3.99998 12.0001C3.99566 10.1711 4.61813 8.39597 5.76369 6.97027C6.90924 5.54457 8.50872 4.55442 10.2957 4.16479C12.0826 3.77516 13.9491 4.00957 15.5842 4.82897C17.2192 5.64837 18.5242 7.00328 19.2816 8.66798C20.0391 10.3327 20.2033 12.2066 19.7468 13.9777C19.2904 15.7487 18.2409 17.3099 16.7732 18.4011C15.3055 19.4924 13.5082 20.0478 11.6807 19.9748C9.85328 19.9018 8.106 19.2048 6.72998 18.0001H7.49998C7.7652 18.0001 8.01956 17.8947 8.20709 17.7072C8.39463 17.5196 8.49998 17.2653 8.49998 17.0001C8.49998 16.7348 8.39463 16.4805 8.20709 16.293C8.01956 16.1054 7.7652 16.0001 7.49998 16.0001H4.49998C4.23477 16.0001 3.98041 16.1054 3.79288 16.293C3.60534 16.4805 3.49998 16.7348 3.49998 17.0001V20.0001C3.49998 20.2653 3.60534 20.5196 3.79288 20.7072C3.98041 20.8947 4.23477 21.0001 4.49998 21.0001C4.7652 21.0001 5.01956 20.8947 5.20709 20.7072C5.39463 20.5196 5.49998 20.2653 5.49998 20.0001V19.5701C6.72251 20.6253 8.18241 21.3687 9.75485 21.7368C11.3273 22.1049 12.9655 22.0867 14.5293 21.6837C16.0932 21.2807 17.5362 20.505 18.7349 19.4228C19.9337 18.3407 20.8525 16.9843 21.4128 15.4697C21.9732 13.955 22.1583 12.3273 21.9525 10.7255C21.7467 9.1237 21.156 7.59561 20.2309 6.27186C19.3059 4.94811 18.074 3.8681 16.6406 3.12418C15.2072 2.38025 13.6149 1.99455 12 2.00006Z" fill="#141414"/>
</svg>
