<svg width="24" height="24" viewBox="0 0 24 24" fill="none" xmlns="http://www.w3.org/2000/svg">
<path d="M20 10C19.7348 10 19.4804 10.1054 19.2929 10.2929C19.1054 10.4804 19 10.7348 19 11V12.09L16.21 9.29C16.117 9.19627 16.0064 9.12188 15.8846 9.07111C15.7627 9.02034 15.632 8.9942 15.5 8.9942C15.368 8.9942 15.2373 9.02034 15.1154 9.07111C14.9936 9.12188 14.883 9.19627 14.79 9.29L10.5 13.59L9.21 12.29C9.11704 12.1963 9.00644 12.1219 8.88458 12.0711C8.76272 12.0203 8.63201 11.9942 8.5 11.9942C8.36799 11.9942 8.23728 12.0203 8.11542 12.0711C7.99356 12.1219 7.88296 12.1963 7.79 12.29L5 15.09V6C5 5.73478 5.10536 5.48043 5.29289 5.29289C5.48043 5.10536 5.73478 5 6 5H13C13.2652 5 13.5196 4.89464 13.7071 4.70711C13.8946 4.51957 14 4.26522 14 4C14 3.73478 13.8946 3.48043 13.7071 3.29289C13.5196 3.10536 13.2652 3 13 3H6C5.20435 3 4.44129 3.31607 3.87868 3.87868C3.31607 4.44129 3 5.20435 3 6V18C3 18.7956 3.31607 19.5587 3.87868 20.1213C4.44129 20.6839 5.20435 21 6 21H18C18.7956 21 19.5587 20.6839 20.1213 20.1213C20.6839 19.5587 21 18.7956 21 18V11C21 10.7348 20.8946 10.4804 20.7071 10.2929C20.5196 10.1054 20.2652 10 20 10ZM7 8.5C7 8.79667 7.08797 9.08668 7.2528 9.33335C7.41762 9.58003 7.65189 9.77229 7.92597 9.88582C8.20006 9.99935 8.50166 10.0291 8.79264 9.97118C9.08361 9.9133 9.35088 9.77044 9.56066 9.56066C9.77044 9.35088 9.9133 9.08361 9.97118 8.79264C10.0291 8.50166 9.99935 8.20006 9.88582 7.92597C9.77229 7.65189 9.58003 7.41762 9.33335 7.2528C9.08668 7.08797 8.79667 7 8.5 7C8.10218 7 7.72064 7.15804 7.43934 7.43934C7.15804 7.72064 7 8.10218 7 8.5ZM21 4.12H19.88V3C19.88 2.73478 19.7746 2.48043 19.5871 2.29289C19.3996 2.10536 19.1452 2 18.88 2C18.6148 2 18.3604 2.10536 18.1729 2.29289C17.9854 2.48043 17.88 2.73478 17.88 3V4.12H16.76C16.4948 4.12 16.2404 4.22536 16.0529 4.41289C15.8654 4.60043 15.76 4.85478 15.76 5.12C15.76 5.38522 15.8654 5.63957 16.0529 5.82711C16.2404 6.01464 16.4948 6.12 16.76 6.12H17.88V7.24C17.88 7.50522 17.9854 7.75957 18.1729 7.94711C18.3604 8.13464 18.6148 8.24 18.88 8.24C19.1388 8.25506 19.3934 8.16902 19.59 8C19.6827 7.90656 19.756 7.79574 19.8058 7.67391C19.8555 7.55207 19.8808 7.42161 19.88 7.29V6.12H21C21.2652 6.12 21.5196 6.01464 21.7071 5.82711C21.8946 5.63957 22 5.38522 22 5.12C22 4.85478 21.8946 4.60043 21.7071 4.41289C21.5196 4.22536 21.2652 4.12 21 4.12Z" fill="#141414"/>
</svg>
