<svg width="24" height="24" viewBox="0 0 24 24" fill="none" xmlns="http://www.w3.org/2000/svg">
<path d="M20.46 4.68C20.1284 4.29684 19.6638 4.05381 19.16 4C16.9552 3.76898 14.8088 3.14942 12.82 2.17C12.5648 2.04466 12.2843 1.97949 12 1.97949C11.7157 1.97949 11.4352 2.04466 11.18 2.17C9.20579 3.15045 7.07225 3.77019 4.88 4C4.37562 4.04408 3.90514 4.27236 3.55837 4.64127C3.21159 5.01017 3.01282 5.49386 3 6V11C3 17.74 9.75 22 12 22C14.25 22 21 17.75 21 11V6C20.9883 5.50859 20.7961 5.03869 20.46 4.68ZM15.71 10.68L11.71 14.68C11.617 14.7737 11.5064 14.8481 11.3846 14.8989C11.2627 14.9497 11.132 14.9758 11 14.9758C10.868 14.9758 10.7373 14.9497 10.6154 14.8989C10.4936 14.8481 10.383 14.7737 10.29 14.68L8.29 12.68C8.1017 12.4917 7.99591 12.2363 7.99591 11.97C7.99591 11.7037 8.1017 11.4483 8.29 11.26C8.4783 11.0717 8.7337 10.9659 9 10.9659C9.2663 10.9659 9.5217 11.0717 9.71 11.26L11 12.59L14.29 9.29C14.4783 9.1017 14.7337 8.99591 15 8.99591C15.2663 8.99591 15.5217 9.1017 15.71 9.29C15.8983 9.4783 16.0041 9.7337 16.0041 10C16.0041 10.2663 15.8983 10.5217 15.71 10.71V10.68Z" fill="#141414"/>
</svg>
