<svg width="24" height="24" viewBox="0 0 24 24" fill="none" xmlns="http://www.w3.org/2000/svg">
<path d="M11 7.5V2H9C7.34 2 6 3.34 6 5V19C6 20.66 7.34 22 9 22H15C16.66 22 18 20.66 18 19V13.97C17.83 13.98 17.67 14 17.5 14C13.91 14 11 11.09 11 7.5ZM12 20C11.45 20 11 19.55 11 19C11 18.45 11.45 18 12 18C12.55 18 13 18.45 13 19C13 19.55 12.55 20 12 20ZM21.73 3.34C21.56 3.16 21.33 3.04 21.08 3.01C19.98 2.89 18.9 2.59 17.91 2.1C17.78 2.04 17.64 2 17.5 2C17.36 2 17.22 2.03 17.09 2.1C16.1 2.59 15.04 2.9 13.94 3.01C13.69 3.03 13.45 3.15 13.28 3.33C13.11 3.51 13.01 3.76 13 4.01V6.51C13 9.88 16.38 12 17.5 12C18.62 12 22 9.88 22 6.51V4.01C22 3.76 21.9 3.52 21.73 3.34Z" fill="#141414"/>
</svg>
