<svg width="24" height="24" viewBox="0 0 24 24" fill="none" xmlns="http://www.w3.org/2000/svg">
<path d="M4 6.99981H13C13.2652 6.99981 13.5196 6.89445 13.7071 6.70692C13.8946 6.51938 14 6.26503 14 5.99981C14 5.73459 13.8946 5.48024 13.7071 5.2927C13.5196 5.10517 13.2652 4.99981 13 4.99981H4C3.73478 4.99981 3.48043 5.10517 3.29289 5.2927C3.10536 5.48024 3 5.73459 3 5.99981C3 6.26503 3.10536 6.51938 3.29289 6.70692C3.48043 6.89445 3.73478 6.99981 4 6.99981ZM4 12.9998H13C13.2652 12.9998 13.5196 12.8945 13.7071 12.7069C13.8946 12.5194 14 12.265 14 11.9998C14 11.7346 13.8946 11.4802 13.7071 11.2927C13.5196 11.1052 13.2652 10.9998 13 10.9998H4C3.73478 10.9998 3.48043 11.1052 3.29289 11.2927C3.10536 11.4802 3 11.7346 3 11.9998C3 12.265 3.10536 12.5194 3.29289 12.7069C3.48043 12.8945 3.73478 12.9998 4 12.9998ZM20.58 5.18981C20.4518 5.09688 20.3033 5.03573 20.1469 5.0114C19.9904 4.98706 19.8304 5.00022 19.68 5.04981L16.68 6.04981C16.4814 6.1169 16.3089 6.24471 16.1868 6.41518C16.0648 6.58565 15.9995 6.79017 16 6.99981V15.0498C15.8352 15.0178 15.6678 15.0011 15.5 14.9998C15.0055 14.9998 14.5222 15.1464 14.1111 15.4211C13.7 15.6958 13.3795 16.0863 13.1903 16.5431C13.0011 16.9999 12.9516 17.5026 13.048 17.9875C13.1445 18.4725 13.3826 18.9179 13.7322 19.2676C14.0819 19.6172 14.5273 19.8553 15.0123 19.9518C15.4972 20.0482 15.9999 19.9987 16.4567 19.8095C16.9135 19.6203 17.304 19.2999 17.5787 18.8887C17.8534 18.4776 18 17.9943 18 17.4998V8.71981L20.32 7.99981C20.527 7.93023 20.7055 7.79482 20.8283 7.61424C20.9511 7.43367 21.0114 7.21788 21 6.99981V5.99981C20.9993 5.84116 20.9608 5.68496 20.8878 5.54412C20.8147 5.40327 20.7092 5.28183 20.58 5.18981ZM10 16.9998H4C3.73478 16.9998 3.48043 17.1052 3.29289 17.2927C3.10536 17.4802 3 17.7346 3 17.9998C3 18.265 3.10536 18.5194 3.29289 18.7069C3.48043 18.8945 3.73478 18.9998 4 18.9998H10C10.2652 18.9998 10.5196 18.8945 10.7071 18.7069C10.8946 18.5194 11 18.265 11 17.9998C11 17.7346 10.8946 17.4802 10.7071 17.2927C10.5196 17.1052 10.2652 16.9998 10 16.9998Z" fill="#141414"/>
</svg>
