<svg width="24" height="24" viewBox="0 0 24 24" fill="none" xmlns="http://www.w3.org/2000/svg">
<path d="M7.5 8.00014C7.20333 8.00014 6.91332 8.08811 6.66664 8.25293C6.41997 8.41776 6.22771 8.65202 6.11418 8.92611C6.00065 9.2002 5.97094 9.5018 6.02882 9.79278C6.0867 10.0837 6.22956 10.351 6.43934 10.5608C6.64912 10.7706 6.91639 10.9134 7.20736 10.9713C7.49834 11.0292 7.79994 10.9995 8.07403 10.886C8.34811 10.7724 8.58238 10.5802 8.7472 10.3335C8.91203 10.0868 9 9.79681 9 9.50014C9 9.10231 8.84196 8.72078 8.56066 8.43948C8.27936 8.15817 7.89782 8.00014 7.5 8.00014ZM21 5.00014C20.6862 4.71836 20.3165 4.50593 19.915 4.3767C19.5135 4.24747 19.0893 4.20434 18.67 4.25014C14.2374 4.75011 9.76261 4.75011 5.33 4.25014C4.9109 4.20376 4.48673 4.24624 4.08516 4.37483C3.68359 4.50341 3.31363 4.7152 2.99942 4.99639C2.68521 5.27757 2.4338 5.62184 2.26159 6.00673C2.08939 6.39161 2.00025 6.80848 2 7.23014V16.7701C2 17.5658 2.31607 18.3289 2.87868 18.8915C3.44129 19.4541 4.20435 19.7701 5 19.7701H5.33C9.76261 19.2702 14.2374 19.2702 18.67 19.7701C19.0908 19.8167 19.5166 19.7737 19.9196 19.6439C20.3226 19.5142 20.6935 19.3006 21.0081 19.0172C21.3226 18.7339 21.5736 18.3872 21.7445 17.9999C21.9155 17.6126 22.0026 17.1935 22 16.7701V7.23014C21.9991 6.80907 21.9097 6.3929 21.7374 6.00869C21.5651 5.62449 21.3138 5.28085 21 5.00014ZM20 13.7001L16.17 10.2601C15.9862 10.0943 15.7475 10.0025 15.5 10.0025C15.2525 10.0025 15.0138 10.0943 14.83 10.2601L9.94 14.7101L8.14 13.2301C7.95887 13.0752 7.72835 12.9901 7.49 12.9901C7.25165 12.9901 7.02113 13.0752 6.84 13.2301L4 15.7701V7.23014C4.00033 7.0906 4.02986 6.95267 4.0867 6.82522C4.14353 6.69777 4.22641 6.58363 4.33 6.49014C4.435 6.39577 4.55879 6.3247 4.69323 6.28162C4.82767 6.23853 4.96971 6.22439 5.11 6.24014C9.68918 6.75011 14.3108 6.75011 18.89 6.24014C19.0303 6.22439 19.1723 6.23853 19.3068 6.28162C19.4412 6.3247 19.565 6.39577 19.67 6.49014C19.7736 6.58363 19.8565 6.69777 19.9133 6.82522C19.9701 6.95267 19.9997 7.0906 20 7.23014V13.7001Z" fill="#141414"/>
</svg>
