<svg width="24" height="24" viewBox="0 0 24 24" fill="none" xmlns="http://www.w3.org/2000/svg">
<path d="M14 7C11.79 7 10 9.02 10 11.5C10 13.98 11.79 16 14 16C16.21 16 18 13.98 18 11.5C18 9.02 16.21 7 14 7ZM14 14C12.9 14 12 12.88 12 11.5C12 10.12 12.9 9 14 9C15.1 9 16 10.12 16 11.5C16 12.88 15.1 14 14 14ZM21.5 15H20.05L21.43 13.37C21.84 12.88 21.89 12.19 21.54 11.66C21.3 11.29 20.92 11.05 20.48 11.01C20.04 10.97 19.62 11.11 19.31 11.42L19.14 11.59C18.95 11.79 18.95 12.1 19.14 12.3C19.34 12.49 19.65 12.49 19.85 12.3L20.02 12.13C20.12 12.04 20.25 12 20.38 12C20.46 12 20.6 12.05 20.7 12.2C20.8 12.36 20.79 12.58 20.67 12.72L18.59 15.17C18.46 15.32 18.44 15.53 18.52 15.7C18.6 15.87 18.78 15.99 18.97 15.99H21.5C21.78 15.99 22 15.77 22 15.49C22 15.21 21.78 14.99 21.5 14.99V15ZM6 7H4C3.45 7 3 7.45 3 8V15C3 15.55 3.45 16 4 16C4.55 16 5 15.55 5 15V13H6C7.65 13 9 11.65 9 10C9 8.35 7.65 7 6 7ZM6 11H5V9H6C6.55 9 7 9.45 7 10C7 10.55 6.55 11 6 11Z" fill="#141414"/>
</svg>
