<svg width="24" height="24" viewBox="0 0 24 24" fill="none" xmlns="http://www.w3.org/2000/svg">
<path d="M9 13H5C4.46957 13 3.96086 13.2107 3.58579 13.5858C3.21071 13.9609 3 14.4696 3 15V19C3 19.5304 3.21071 20.0391 3.58579 20.4142C3.96086 20.7893 4.46957 21 5 21H9C9.53043 21 10.0391 20.7893 10.4142 20.4142C10.7893 20.0391 11 19.5304 11 19V15C11 14.4696 10.7893 13.9609 10.4142 13.5858C10.0391 13.2107 9.53043 13 9 13ZM18 3H6C5.20435 3 4.44129 3.31607 3.87868 3.87868C3.31607 4.44129 3 5.20435 3 6V11.56C3.60399 11.1964 4.29504 11.003 5 11H9C10.0609 11 11.0783 11.4214 11.8284 12.1716C12.5786 12.9217 13 13.9391 13 15V19C12.997 19.705 12.8036 20.396 12.44 21H18C18.7956 21 19.5587 20.6839 20.1213 20.1213C20.6839 19.5587 21 18.7956 21 18V6C21 5.20435 20.6839 4.44129 20.1213 3.87868C19.5587 3.31607 18.7956 3 18 3ZM19 9C19 9.26522 18.8946 9.51957 18.7071 9.70711C18.5196 9.89464 18.2652 10 18 10C17.7348 10 17.4804 9.89464 17.2929 9.70711C17.1054 9.51957 17 9.26522 17 9V8.41L14.71 10.71C14.617 10.8037 14.5064 10.8781 14.3846 10.9289C14.2627 10.9797 14.132 11.0058 14 11.0058C13.868 11.0058 13.7373 10.9797 13.6154 10.9289C13.4936 10.8781 13.383 10.8037 13.29 10.71C13.1963 10.617 13.1219 10.5064 13.0711 10.3846C13.0203 10.2627 12.9942 10.132 12.9942 10C12.9942 9.86799 13.0203 9.73728 13.0711 9.61542C13.1219 9.49356 13.1963 9.38296 13.29 9.29L15.59 7H15C14.7348 7 14.4804 6.89464 14.2929 6.70711C14.1054 6.51957 14 6.26522 14 6C14 5.73478 14.1054 5.48043 14.2929 5.29289C14.4804 5.10536 14.7348 5 15 5H18C18.1307 5.00158 18.2598 5.02876 18.38 5.08C18.6243 5.18147 18.8185 5.37565 18.92 5.62C18.9712 5.74022 18.9984 5.86932 19 6V9Z" fill="#141414"/>
</svg>
