<svg width="24" height="24" viewBox="0 0 24 24" fill="none" xmlns="http://www.w3.org/2000/svg">
<path d="M14.62 16.4C14.1069 15.8914 13.6996 15.2863 13.4217 14.6195C13.1438 13.9527 13.0007 13.2374 13.0007 12.515C13.0007 11.7926 13.1438 11.0773 13.4217 10.4105C13.6996 9.7437 14.1069 9.13855 14.62 8.63L15.25 8H6V6C6 5.73478 6.10536 5.48043 6.29289 5.29289C6.48043 5.10536 6.73478 5 7 5H8.28C8.45249 5.30176 8.70064 5.55337 9 5.73C9.30384 5.90625 9.64874 5.99938 10 6H14C14.3513 5.99938 14.6962 5.90625 15 5.73C15.2994 5.55337 15.5475 5.30176 15.72 5H17C17.2652 5 17.5196 5.10536 17.7071 5.29289C17.8946 5.48043 18 5.73478 18 6C18.1663 5.98471 18.3337 5.98471 18.5 6C19.0273 6.00245 19.5447 6.14387 20 6.41V6C20 5.20435 19.6839 4.44129 19.1213 3.87868C18.5587 3.31607 17.7956 3 17 3H15.72C15.5475 2.69824 15.2994 2.44663 15 2.27C14.6962 2.09375 14.3513 2.00062 14 2H10C9.64874 2.00062 9.30384 2.09375 9 2.27C8.70064 2.44663 8.45249 2.69824 8.28 3H7C6.20435 3 5.44129 3.31607 4.87868 3.87868C4.31607 4.44129 4 5.20435 4 6V19C4 19.7956 4.31607 20.5587 4.87868 21.1213C5.44129 21.6839 6.20435 22 7 22H17C17.7956 22 18.5587 21.6839 19.1213 21.1213C19.6839 20.5587 20 19.7956 20 19V17.77C19.5135 17.9177 19.0084 17.9951 18.5 18C17.7796 18.003 17.0658 17.8631 16.3998 17.5885C15.7338 17.3138 15.1289 16.9099 14.62 16.4ZM21 10.05L19.21 8.29C19.117 8.19627 19.0064 8.12188 18.8846 8.07111C18.7627 8.02034 18.632 7.9942 18.5 7.9942C18.368 7.9942 18.2373 8.02034 18.1154 8.07111C17.9936 8.12188 17.883 8.19627 17.79 8.29L16 10.05C15.6726 10.3737 15.4126 10.7591 15.2352 11.1839C15.0577 11.6088 14.9664 12.0646 14.9664 12.525C14.9664 12.9854 15.0577 13.4412 15.2352 13.8661C15.4126 14.2909 15.6726 14.6763 16 15C16.3266 15.3314 16.7158 15.5945 17.145 15.7741C17.5741 15.9537 18.0347 16.0462 18.5 16.0462C18.9653 16.0462 19.4259 15.9537 19.855 15.7741C20.2842 15.5945 20.6734 15.3314 21 15C21.3232 14.678 21.5783 14.2943 21.7501 13.8717C21.9219 13.449 22.0069 12.9962 22 12.54C22.0075 12.0793 21.9229 11.6217 21.7512 11.1941C21.5795 10.7665 21.3241 10.3775 21 10.05Z" fill="#141414"/>
</svg>
