<svg width="24" height="24" viewBox="0 0 24 24" fill="none" xmlns="http://www.w3.org/2000/svg">
<path d="M19.15 10.3601L9.15 3.36009C8.81279 3.12472 8.41123 2.99901 8 3.00009C7.67872 2.99689 7.36197 3.07607 7.08 3.23009C6.75541 3.39825 6.48312 3.65215 6.29271 3.96421C6.10231 4.27626 6.00107 4.63454 6 5.00009V19.0001C6.00107 19.3657 6.10231 19.7239 6.29271 20.036C6.48312 20.348 6.75541 20.6019 7.08 20.7701C7.36197 20.9241 7.67872 21.0033 8 21.0001C8.41123 21.0012 8.81279 20.8755 9.15 20.6401L19.15 13.6401C19.4141 13.4558 19.6297 13.2104 19.7786 12.9249C19.9275 12.6394 20.0053 12.3221 20.0053 12.0001C20.0053 11.6781 19.9275 11.3608 19.7786 11.0753C19.6297 10.7898 19.4141 10.5444 19.15 10.3601Z" fill="#141414"/>
</svg>
