<svg width="24" height="24" viewBox="0 0 24 24" fill="none" xmlns="http://www.w3.org/2000/svg">
<path d="M19 5.28V5C19 4.20435 18.6839 3.44129 18.1213 2.87868C17.5587 2.31607 16.7956 2 16 2C15.2044 2 14.4413 2.31607 13.8787 2.87868C13.3161 3.44129 13 4.20435 13 5V5.27C12.6963 5.44536 12.444 5.69752 12.2685 6.00116C12.0929 6.30481 12.0004 6.64927 12 7V11C12 11.5304 12.2107 12.0391 12.5858 12.4142C12.9609 12.7893 13.4696 13 14 13H18C18.5304 13 19.0391 12.7893 19.4142 12.4142C19.7893 12.0391 20 11.5304 20 11V7C19.9979 6.65097 19.9045 6.30857 19.7291 6.00683C19.5536 5.70509 19.3023 5.45451 19 5.28ZM16 10C15.8022 10 15.6089 9.94135 15.4444 9.83147C15.28 9.72159 15.1518 9.56541 15.0761 9.38268C15.0004 9.19996 14.9806 8.99889 15.0192 8.80491C15.0578 8.61093 15.153 8.43275 15.2929 8.29289C15.4327 8.15304 15.6109 8.0578 15.8049 8.01921C15.9989 7.98063 16.2 8.00043 16.3827 8.07612C16.5654 8.15181 16.7216 8.27998 16.8315 8.44443C16.9414 8.60888 17 8.80222 17 9C17 9.26522 16.8946 9.51957 16.7071 9.70711C16.5196 9.89464 16.2652 10 16 10ZM15 5C15 4.73478 15.1054 4.48043 15.2929 4.29289C15.4804 4.10536 15.7348 4 16 4C16.2652 4 16.5196 4.10536 16.7071 4.29289C16.8946 4.48043 17 4.73478 17 5H15ZM10 11V6C9.99666 4.52129 10.5459 3.09469 11.54 2H9C8.20435 2 7.44129 2.31607 6.87868 2.87868C6.31607 3.44129 6 4.20435 6 5V19C6 19.7956 6.31607 20.5587 6.87868 21.1213C7.44129 21.6839 8.20435 22 9 22H15C15.7956 22 16.5587 21.6839 17.1213 21.1213C17.6839 20.5587 18 19.7956 18 19V15H14C12.9391 15 11.9217 14.5786 11.1716 13.8284C10.4214 13.0783 10 12.0609 10 11ZM12 20C11.8022 20 11.6089 19.9414 11.4444 19.8315C11.28 19.7216 11.1518 19.5654 11.0761 19.3827C11.0004 19.2 10.9806 18.9989 11.0192 18.8049C11.0578 18.6109 11.153 18.4327 11.2929 18.2929C11.4327 18.153 11.6109 18.0578 11.8049 18.0192C11.9989 17.9806 12.2 18.0004 12.3827 18.0761C12.5654 18.1518 12.7216 18.28 12.8315 18.4444C12.9414 18.6089 13 18.8022 13 19C13 19.2652 12.8946 19.5196 12.7071 19.7071C12.5196 19.8946 12.2652 20 12 20Z" fill="#141414"/>
</svg>
