<svg width="24" height="24" viewBox="0 0 24 24" fill="none" xmlns="http://www.w3.org/2000/svg">
<path d="M10.8799 16.1199L8.87994 14.1199C8.31814 13.5574 8.00258 12.7949 8.00258 11.9999C8.00258 11.2049 8.31814 10.4424 8.87994 9.87989L10.8799 7.87989C11.442 7.31712 12.2046 7.00059 12.9999 6.99989H13.9999V3.99989C14.0024 3.71386 13.9434 3.43064 13.8271 3.16934C13.7107 2.90804 13.5396 2.67473 13.3254 2.48517C13.1112 2.29561 12.8589 2.1542 12.5854 2.07048C12.3118 1.98677 12.0235 1.9627 11.7399 1.99989L5.73994 2.76989C5.25402 2.83356 4.80839 3.07342 4.48763 3.44394C4.16688 3.81447 3.99333 4.28986 3.99994 4.77989V19.2199C3.9958 19.7082 4.17045 20.1812 4.49098 20.5496C4.8115 20.918 5.25575 21.1564 5.73994 21.2199L11.7399 21.9899L11.9999 21.9999C12.5304 21.9999 13.0391 21.7892 13.4142 21.4141C13.7892 21.039 13.9999 20.5303 13.9999 19.9999V16.9999H12.9999C12.2046 16.9992 11.442 16.6827 10.8799 16.1199ZM16.9999 6.99989C16.7347 6.99989 16.4804 7.10525 16.2928 7.29279C16.1053 7.48032 15.9999 7.73468 15.9999 7.99989C15.9999 8.26511 16.1053 8.51946 16.2928 8.707C16.4804 8.89453 16.7347 8.99989 16.9999 8.99989C17.2652 8.99989 17.5195 9.10525 17.707 9.29279C17.8946 9.48032 17.9999 9.73468 17.9999 9.99989C17.9999 10.2651 17.8946 10.5195 17.707 10.707C17.5195 10.8945 17.2652 10.9999 16.9999 10.9999H13.4099L13.7099 10.7099C13.8982 10.5216 14.004 10.2662 14.004 9.99989C14.004 9.73359 13.8982 9.4782 13.7099 9.28989C13.5216 9.10159 13.2662 8.9958 12.9999 8.9958C12.7336 8.9958 12.4782 9.10159 12.2899 9.28989L10.2899 11.2899C10.1989 11.385 10.1275 11.4971 10.0799 11.6199C9.97992 11.8634 9.97992 12.1364 10.0799 12.3799C10.1275 12.5026 10.1989 12.6148 10.2899 12.7099L12.2899 14.7099C12.3829 14.8036 12.4935 14.878 12.6154 14.9288C12.7372 14.9796 12.8679 15.0057 12.9999 15.0057C13.1319 15.0057 13.2627 14.9796 13.3845 14.9288C13.5064 14.878 13.617 14.8036 13.7099 14.7099C13.8037 14.6169 13.8781 14.5063 13.9288 14.3845C13.9796 14.2626 14.0057 14.1319 14.0057 13.9999C14.0057 13.8679 13.9796 13.7372 13.9288 13.6153C13.8781 13.4935 13.8037 13.3829 13.7099 13.2899L13.4099 12.9999H16.9999C17.7956 12.9999 18.5587 12.6838 19.1213 12.1212C19.6839 11.5586 19.9999 10.7955 19.9999 9.99989C19.9999 9.20424 19.6839 8.44118 19.1213 7.87857C18.5587 7.31596 17.7956 6.99989 16.9999 6.99989Z" fill="#141414"/>
</svg>
