<svg width="24" height="24" viewBox="0 0 24 24" fill="none" xmlns="http://www.w3.org/2000/svg">
<path d="M7 15H5C3.9 15 3 15.9 3 17V19C3 20.1 3.9 21 5 21H7C8.1 21 9 20.1 9 19V17C9 15.9 8.1 15 7 15ZM12 9C12.55 9 13 8.55 13 8V4C13 3.45 12.55 3 12 3C11.45 3 11 3.45 11 4V8C11 8.55 11.45 9 12 9ZM19 3H17C15.9 3 15 3.9 15 5V7C15 8.1 15.9 9 17 9H19C20.1 9 21 8.1 21 7V5C21 3.9 20.1 3 19 3ZM5 9H7C8.1 9 9 8.1 9 7V5C9 3.9 8.1 3 7 3H5C3.9 3 3 3.9 3 5V7C3 8.1 3.9 9 5 9ZM19 11H17C15.9 11 15 11.9 15 13V15C15 16.1 15.9 17 17 17H19C20.1 17 21 16.1 21 15V13C21 11.9 20.1 11 19 11ZM20 19H13V13C13 11.9 12.1 11 11 11H4C3.45 11 3 11.45 3 12C3 12.55 3.45 13 4 13H11V19C11 20.1 11.9 21 13 21H20C20.55 21 21 20.55 21 20C21 19.45 20.55 19 20 19Z" fill="#141414"/>
</svg>
