<svg width="24" height="24" viewBox="0 0 24 24" fill="none" xmlns="http://www.w3.org/2000/svg">
<path d="M10 13C10 13.2652 10.1054 13.5196 10.2929 13.7071C10.4804 13.8946 10.7348 14 11 14H19C19.2652 14 19.5196 13.8946 19.7071 13.7071C19.8946 13.5196 20 13.2652 20 13V11H10V13ZM19 7H11C10.7348 7 10.4804 7.10536 10.2929 7.29289C10.1054 7.48043 10 7.73478 10 8V9H20V8C20 7.73478 19.8946 7.48043 19.7071 7.29289C19.5196 7.10536 19.2652 7 19 7ZM8 13V8C8 7.20435 8.31607 6.44129 8.87868 5.87868C9.44129 5.31607 10.2044 5 11 5H15.82C15.6137 4.41645 15.2319 3.911 14.7271 3.55294C14.2222 3.19488 13.6189 3.00174 13 3H7C6.20435 3 5.44129 3.31607 4.87868 3.87868C4.31607 4.44129 4 5.20435 4 6V19C4 19.7956 4.31607 20.5587 4.87868 21.1213C5.44129 21.6839 6.20435 22 7 22H13C13.7956 22 14.5587 21.6839 15.1213 21.1213C15.6839 20.5587 16 19.7956 16 19V16H11C10.2044 16 9.44129 15.6839 8.87868 15.1213C8.31607 14.5587 8 13.7956 8 13ZM10 20C9.80222 20 9.60888 19.9414 9.44443 19.8315C9.27998 19.7216 9.15181 19.5654 9.07612 19.3827C9.00043 19.2 8.98063 18.9989 9.01921 18.8049C9.0578 18.6109 9.15304 18.4327 9.29289 18.2929C9.43275 18.153 9.61093 18.0578 9.80491 18.0192C9.99889 17.9806 10.2 18.0004 10.3827 18.0761C10.5654 18.1518 10.7216 18.28 10.8315 18.4444C10.9414 18.6089 11 18.8022 11 19C11 19.2652 10.8946 19.5196 10.7071 19.7071C10.5196 19.8946 10.2652 20 10 20Z" fill="#141414"/>
</svg>
