<svg width="24" height="24" viewBox="0 0 24 24" fill="none" xmlns="http://www.w3.org/2000/svg">
<path d="M12 2C10.0222 2 8.08879 2.58649 6.4443 3.6853C4.79981 4.78412 3.51809 6.3459 2.76121 8.17317C2.00433 10.0004 1.8063 12.0111 2.19215 13.9509C2.578 15.8907 3.53041 17.6725 4.92894 19.0711C6.32746 20.4696 8.10929 21.422 10.0491 21.8079C11.9889 22.1937 13.9996 21.9957 15.8268 21.2388C17.6541 20.4819 19.2159 19.2002 20.3147 17.5557C21.4135 15.9112 22 13.9778 22 12C22 10.6868 21.7413 9.38642 21.2388 8.17317C20.7363 6.95991 19.9997 5.85752 19.0711 4.92893C18.1425 4.00035 17.0401 3.26375 15.8268 2.7612C14.6136 2.25866 13.3132 2 12 2ZM13.5 16H9.41L9.71 16.29C9.89831 16.4783 10.0041 16.7337 10.0041 17C10.0041 17.2663 9.89831 17.5217 9.71 17.71C9.5217 17.8983 9.26631 18.0041 9 18.0041C8.7337 18.0041 8.47831 17.8983 8.29 17.71L6.29 15.71C6.19628 15.617 6.12188 15.5064 6.07111 15.3846C6.02034 15.2627 5.99421 15.132 5.99421 15C5.99421 14.868 6.02034 14.7373 6.07111 14.6154C6.12188 14.4936 6.19628 14.383 6.29 14.29L8.29 12.29C8.38297 12.1963 8.49357 12.1219 8.61543 12.0711C8.73729 12.0203 8.86799 11.9942 9 11.9942C9.13202 11.9942 9.26272 12.0203 9.38458 12.0711C9.50644 12.1219 9.61704 12.1963 9.71 12.29C9.80373 12.383 9.87813 12.4936 9.9289 12.6154C9.97966 12.7373 10.0058 12.868 10.0058 13C10.0058 13.132 9.97966 13.2627 9.9289 13.3846C9.87813 13.5064 9.80373 13.617 9.71 13.71L9.41 14H13.5C14.163 14 14.7989 13.7366 15.2678 13.2678C15.7366 12.7989 16 12.163 16 11.5C16 10.837 15.7366 10.2011 15.2678 9.73223C14.7989 9.26339 14.163 9 13.5 9H10C9.73479 9 9.48043 8.89464 9.2929 8.70711C9.10536 8.51957 9 8.26522 9 8C9 7.73478 9.10536 7.48043 9.2929 7.29289C9.48043 7.10536 9.73479 7 10 7H13.5C14.6935 7 15.8381 7.47411 16.682 8.31802C17.5259 9.16193 18 10.3065 18 11.5C18 12.6935 17.5259 13.8381 16.682 14.682C15.8381 15.5259 14.6935 16 13.5 16Z" fill="#141414"/>
</svg>
