<svg width="24" height="24" viewBox="0 0 24 24" fill="none" xmlns="http://www.w3.org/2000/svg">
<path d="M10.9998 3C10.7203 3.01551 10.4583 3.14092 10.271 3.34888C10.0837 3.55683 9.98616 3.83044 9.99979 4.11V11H8.99979V4C8.99979 3.73478 8.89444 3.48043 8.7069 3.29289C8.51936 3.10536 8.26501 3 7.99979 3C7.73458 3 7.48022 3.10536 7.29269 3.29289C7.10515 3.48043 6.99979 3.73478 6.99979 4V11H5.99979V4.11C6.01343 3.83044 5.91594 3.55683 5.72859 3.34888C5.54125 3.14092 5.27926 3.01551 4.99979 3C4.72033 3.01551 4.45834 3.14092 4.271 3.34888C4.08365 3.55683 3.98616 3.83044 3.99979 4.11V11.89C3.99979 11.89 3.99979 11.89 3.99979 11.95C3.99979 12.01 3.99979 12 3.99979 12C3.99979 12.2652 4.10515 12.5196 4.29269 12.7071C4.48022 12.8946 4.73458 13 4.99979 13H6.99979V20C6.99979 20.2652 7.10515 20.5196 7.29269 20.7071C7.48022 20.8946 7.73458 21 7.99979 21C8.26501 21 8.51936 20.8946 8.7069 20.7071C8.89444 20.5196 8.99979 20.2652 8.99979 20V13H10.9998C11.265 13 11.5194 12.8946 11.7069 12.7071C11.8944 12.5196 11.9998 12.2652 11.9998 12C11.9998 12 11.9998 12 11.9998 11.95C11.9998 11.9 11.9998 11.95 11.9998 11.89V4.11C12.0134 3.83044 11.9159 3.55683 11.7286 3.34888C11.5412 3.14092 11.2793 3.01551 10.9998 3ZM14.9998 3C14.7346 3 14.4802 3.10536 14.2927 3.29289C14.1052 3.48043 13.9998 3.73478 13.9998 4V20C13.9998 20.2652 14.1052 20.5196 14.2927 20.7071C14.4802 20.8946 14.7346 21 14.9998 21C15.265 21 15.5194 20.8946 15.7069 20.7071C15.8944 20.5196 15.9998 20.2652 15.9998 20V16H18.9998C19.265 16 19.5194 15.8946 19.7069 15.7071C19.8944 15.5196 19.9998 15.2652 19.9998 15V8C19.9998 6.67392 19.473 5.40215 18.5353 4.46447C17.5976 3.52678 16.3259 3 14.9998 3Z" fill="#141414"/>
</svg>
