<svg width="24" height="24" viewBox="0 0 24 24" fill="none" xmlns="http://www.w3.org/2000/svg">
<path d="M20.9199 11.6199C20.8723 11.4971 20.8009 11.385 20.7099 11.2899L18.7099 9.2899C18.5216 9.10159 18.2662 8.99581 17.9999 8.99581C17.7336 8.99581 17.4782 9.10159 17.2899 9.2899C17.1016 9.4782 16.9958 9.73359 16.9958 9.9999C16.9958 10.2662 17.1016 10.5216 17.2899 10.7099L17.5899 10.9999H12.9999V6.4099L13.2899 6.7099C13.3829 6.80362 13.4935 6.87802 13.6153 6.92879C13.7372 6.97956 13.8679 7.00569 13.9999 7.00569C14.1319 7.00569 14.2626 6.97956 14.3845 6.92879C14.5063 6.87802 14.6169 6.80362 14.7099 6.7099C14.8036 6.61693 14.878 6.50633 14.9288 6.38447C14.9796 6.26261 15.0057 6.13191 15.0057 5.9999C15.0057 5.86788 14.9796 5.73718 14.9288 5.61532C14.878 5.49346 14.8036 5.38286 14.7099 5.2899L12.7099 3.2899C12.6148 3.19886 12.5026 3.12749 12.3799 3.0799C12.1364 2.97988 11.8634 2.97988 11.6199 3.0799C11.4971 3.12749 11.385 3.19886 11.2899 3.2899L9.2899 5.2899C9.10159 5.4782 8.99581 5.73359 8.99581 5.9999C8.99581 6.2662 9.10159 6.52159 9.2899 6.7099C9.4782 6.8982 9.73359 7.00399 9.9999 7.00399C10.2662 7.00399 10.5216 6.8982 10.7099 6.7099L10.9999 6.4099V10.9999H6.4099L6.7099 10.7099C6.8982 10.5216 7.00399 10.2662 7.00399 9.9999C7.00399 9.73359 6.8982 9.4782 6.7099 9.2899C6.52159 9.10159 6.2662 8.99581 5.9999 8.99581C5.73359 8.99581 5.4782 9.10159 5.2899 9.2899L3.2899 11.2899C3.19886 11.385 3.12749 11.4971 3.0799 11.6199C2.97988 11.8634 2.97988 12.1364 3.0799 12.3799C3.12749 12.5026 3.19886 12.6148 3.2899 12.7099L5.2899 14.7099C5.38286 14.8036 5.49346 14.878 5.61532 14.9288C5.73718 14.9796 5.86788 15.0057 5.9999 15.0057C6.13191 15.0057 6.26261 14.9796 6.38447 14.9288C6.50633 14.878 6.61693 14.8036 6.7099 14.7099C6.80362 14.6169 6.87802 14.5063 6.92879 14.3845C6.97956 14.2626 7.00569 14.1319 7.00569 13.9999C7.00569 13.8679 6.97956 13.7372 6.92879 13.6153C6.87802 13.4935 6.80362 13.3829 6.7099 13.2899L6.4099 12.9999H10.9999V17.5899L10.7099 17.2899C10.6167 17.1967 10.506 17.1227 10.3841 17.0722C10.2623 17.0218 10.1318 16.9958 9.9999 16.9958C9.86804 16.9958 9.73747 17.0218 9.61565 17.0722C9.49382 17.1227 9.38313 17.1967 9.2899 17.2899C9.19666 17.3831 9.1227 17.4938 9.07224 17.6156C9.02178 17.7375 8.99581 17.868 8.99581 17.9999C8.99581 18.1318 9.02178 18.2623 9.07224 18.3841C9.1227 18.506 9.19666 18.6167 9.2899 18.7099L11.2899 20.7099C11.385 20.8009 11.4971 20.8723 11.6199 20.9199C11.7396 20.9728 11.869 21.0001 11.9999 21.0001C12.1308 21.0001 12.2602 20.9728 12.3799 20.9199C12.5026 20.8723 12.6148 20.8009 12.7099 20.7099L14.7099 18.7099C14.8982 18.5216 15.004 18.2662 15.004 17.9999C15.004 17.7336 14.8982 17.4782 14.7099 17.2899C14.5216 17.1016 14.2662 16.9958 13.9999 16.9958C13.7336 16.9958 13.4782 17.1016 13.2899 17.2899L12.9999 17.5899V12.9999H17.5899L17.2899 13.2899C17.1962 13.3829 17.1218 13.4935 17.071 13.6153C17.0202 13.7372 16.9941 13.8679 16.9941 13.9999C16.9941 14.1319 17.0202 14.2626 17.071 14.3845C17.1218 14.5063 17.1962 14.6169 17.2899 14.7099C17.3829 14.8036 17.4935 14.878 17.6153 14.9288C17.7372 14.9796 17.8679 15.0057 17.9999 15.0057C18.1319 15.0057 18.2626 14.9796 18.3845 14.9288C18.5063 14.878 18.6169 14.8036 18.7099 14.7099L20.7099 12.7099C20.8009 12.6148 20.8723 12.5026 20.9199 12.3799C21.0199 12.1364 21.0199 11.8634 20.9199 11.6199Z" fill="#141414"/>
</svg>
