<svg width="24" height="24" viewBox="0 0 24 24" fill="none" xmlns="http://www.w3.org/2000/svg">
<path d="M19 4H5C4.20435 4 3.44129 4.31607 2.87868 4.87868C2.31607 5.44129 2 6.20435 2 7V17C2 17.7956 2.31607 18.5587 2.87868 19.1213C3.44129 19.6839 4.20435 20 5 20H19C19.7956 20 20.5587 19.6839 21.1213 19.1213C21.6839 18.5587 22 17.7956 22 17V7C22 6.20435 21.6839 5.44129 21.1213 4.87868C20.5587 4.31607 19.7956 4 19 4ZM16 15H8C7.36281 15.0018 6.74161 14.8007 6.22639 14.4257C5.71118 14.0508 5.32872 13.5216 5.13443 12.9148C4.94014 12.3079 4.94412 11.655 5.14578 11.0505C5.34745 10.4461 5.73633 9.92157 6.25607 9.55296C6.77582 9.18435 7.39943 8.9908 8.03654 9.00035C8.67366 9.0099 9.29119 9.22206 9.79965 9.60609C10.3081 9.99012 10.6811 10.5261 10.8645 11.1363C11.048 11.7465 11.0324 12.3993 10.82 13H13.15C12.938 12.4005 12.9221 11.7491 13.1044 11.1399C13.2868 10.5307 13.658 9.99516 14.1644 9.61065C14.6709 9.22614 15.2865 9.01251 15.9223 9.0006C16.5581 8.9887 17.1812 9.17913 17.7017 9.54441C18.2223 9.90969 18.6132 10.4309 18.8183 11.0329C19.0233 11.6348 19.0317 12.2863 18.8424 12.8934C18.653 13.5005 18.2757 14.0316 17.7648 14.4103C17.2539 14.7889 16.6359 14.9954 16 15ZM8 11C7.80222 11 7.60888 11.0586 7.44443 11.1685C7.27998 11.2784 7.15181 11.4346 7.07612 11.6173C7.00043 11.8 6.98063 12.0011 7.01921 12.1951C7.0578 12.3891 7.15304 12.5673 7.29289 12.7071C7.43275 12.847 7.61093 12.9422 7.80491 12.9808C7.99889 13.0194 8.19996 12.9996 8.38268 12.9239C8.56541 12.8482 8.72159 12.72 8.83147 12.5556C8.94135 12.3911 9 12.1978 9 12C9 11.7348 8.89464 11.4804 8.70711 11.2929C8.51957 11.1054 8.26522 11 8 11ZM16 11C15.8022 11 15.6089 11.0586 15.4444 11.1685C15.28 11.2784 15.1518 11.4346 15.0761 11.6173C15.0004 11.8 14.9806 12.0011 15.0192 12.1951C15.0578 12.3891 15.153 12.5673 15.2929 12.7071C15.4327 12.847 15.6109 12.9422 15.8049 12.9808C15.9989 13.0194 16.2 12.9996 16.3827 12.9239C16.5654 12.8482 16.7216 12.72 16.8315 12.5556C16.9414 12.3911 17 12.1978 17 12C17 11.7348 16.8946 11.4804 16.7071 11.2929C16.5196 11.1054 16.2652 11 16 11Z" fill="#141414"/>
</svg>
