<svg width="24" height="24" viewBox="0 0 24 24" fill="none" xmlns="http://www.w3.org/2000/svg">
<path d="M11.0001 15.0001C11.1961 14.9985 11.3874 14.9394 11.5501 14.8301L14.5501 12.8301C14.6862 12.7386 14.7978 12.615 14.8749 12.4703C14.952 12.3255 14.9923 12.1641 14.9923 12.0001C14.9923 11.8361 14.952 11.6746 14.8749 11.5298C14.7978 11.3851 14.6862 11.2615 14.5501 11.1701L11.5501 9.17006C11.4025 9.07457 11.2324 9.01967 11.0568 9.01089C10.8813 9.00211 10.7065 9.03977 10.5501 9.12006C10.3867 9.20238 10.249 9.32797 10.152 9.48313C10.055 9.6383 10.0025 9.8171 10.0001 10.0001V14.0001C10.0006 14.181 10.0501 14.3583 10.1435 14.5133C10.2368 14.6683 10.3704 14.795 10.5301 14.8801C10.6746 14.958 10.836 14.9992 11.0001 15.0001ZM12.0001 2.00006C10.6869 2.00006 9.38653 2.25872 8.17327 2.76126C6.96002 3.26381 5.85763 4.0004 4.92904 4.92899C3.05368 6.80435 2.00011 9.34789 2.00011 12.0001C1.99821 12.3745 2.02159 12.7487 2.07011 13.1201C2.10193 13.3853 2.23781 13.627 2.44785 13.792C2.65789 13.9571 2.92489 14.0319 3.19011 14.0001C3.45532 13.9682 3.69703 13.8324 3.86207 13.6223C4.0271 13.4123 4.10193 13.1453 4.07011 12.8801C4.03153 12.5881 4.00816 12.2944 4.00011 12.0001C3.99578 10.1711 4.61825 8.39597 5.76381 6.97027C6.90937 5.54457 8.50884 4.55442 10.2958 4.16479C12.0827 3.77516 13.9492 4.00957 15.5843 4.82897C17.2194 5.64837 18.5243 7.00328 19.2818 8.66798C20.0392 10.3327 20.2034 12.2066 19.7469 13.9777C19.2905 15.7487 18.241 17.3099 16.7733 18.4011C15.3056 19.4924 13.5083 20.0478 11.6809 19.9748C9.8534 19.9018 8.10612 19.2048 6.73011 18.0001H7.50011C7.76532 18.0001 8.01968 17.8947 8.20721 17.7072C8.39475 17.5196 8.50011 17.2653 8.50011 17.0001C8.50011 16.7348 8.39475 16.4805 8.20721 16.293C8.01968 16.1054 7.76532 16.0001 7.50011 16.0001H4.50011C4.23489 16.0001 3.98054 16.1054 3.793 16.293C3.60546 16.4805 3.50011 16.7348 3.50011 17.0001V20.0001C3.50011 20.2653 3.60546 20.5196 3.793 20.7072C3.98054 20.8947 4.23489 21.0001 4.50011 21.0001C4.76532 21.0001 5.01968 20.8947 5.20721 20.7072C5.39475 20.5196 5.50011 20.2653 5.50011 20.0001V19.5701C6.72263 20.6253 8.18253 21.3687 9.75497 21.7368C11.3274 22.1049 12.9656 22.0867 14.5295 21.6837C16.0933 21.2807 17.5363 20.505 18.7351 19.4228C19.9338 18.3407 20.8526 16.9843 21.413 15.4697C21.9733 13.955 22.1585 12.3273 21.9526 10.7255C21.7468 9.1237 21.1561 7.59561 20.231 6.27186C19.306 4.94811 18.0741 3.8681 16.6407 3.12418C15.2073 2.38025 13.615 1.99455 12.0001 2.00006Z" fill="#141414"/>
</svg>
