<svg width="24" height="24" viewBox="0 0 24 24" fill="none" xmlns="http://www.w3.org/2000/svg">
<path d="M21.7102 7.29006L19.7102 5.29006C19.6169 5.19682 19.5063 5.12286 19.3844 5.0724C19.2626 5.02194 19.132 4.99597 19.0002 4.99597C18.7339 4.99597 18.4785 5.10175 18.2902 5.29006C18.1019 5.47836 17.9961 5.73376 17.9961 6.00006C17.9961 6.26636 18.1019 6.52175 18.2902 6.71006L18.5902 7.00006H17.0002C15.8635 7.00275 14.7405 7.24761 13.7059 7.71835C12.6713 8.18909 11.7489 8.87489 11.0002 9.73006V5.41006L11.2902 5.71006C11.3831 5.80379 11.4937 5.87818 11.6156 5.92895C11.7375 5.97972 11.8682 6.00586 12.0002 6.00586C12.1322 6.00586 12.2629 5.97972 12.3848 5.92895C12.5066 5.87818 12.6172 5.80379 12.7102 5.71006C12.8039 5.61709 12.8783 5.50649 12.9291 5.38463C12.9798 5.26277 13.006 5.13207 13.006 5.00006C13.006 4.86805 12.9798 4.73734 12.9291 4.61548C12.8783 4.49362 12.8039 4.38302 12.7102 4.29006L10.7102 2.29006C10.6247 2.20631 10.5224 2.14156 10.4102 2.10006C10.2841 2.03279 10.1431 1.99839 10.0002 2.00006H9.93019C9.84844 2.00682 9.76783 2.02361 9.69019 2.05006H9.59019C9.47965 2.09499 9.37805 2.15933 9.29019 2.24006L7.29019 4.24006C7.09525 4.42836 6.9831 4.68639 6.97842 4.95738C6.97373 5.22837 7.07688 5.49012 7.26519 5.68506C7.45349 5.87999 7.71152 5.99214 7.98251 5.99683C8.2535 6.00152 8.51525 5.89836 8.71019 5.71006L9.00019 5.41006V14.3501C8.53295 14.1218 8.02017 14.0022 7.50019 14.0001C7.10236 14.0001 6.72083 13.842 6.43953 13.5607C6.15822 13.2794 6.00019 12.8979 6.00019 12.5001V10.4101L6.29019 10.7101C6.38315 10.8038 6.49375 10.8782 6.61561 10.9289C6.73747 10.9797 6.86817 11.0059 7.00019 11.0059C7.1322 11.0059 7.2629 10.9797 7.38476 10.9289C7.50662 10.8782 7.61722 10.8038 7.71019 10.7101C7.80391 10.6171 7.87831 10.5065 7.92908 10.3846C7.97985 10.2628 8.00598 10.1321 8.00598 10.0001C8.00598 9.86805 7.97985 9.73734 7.92908 9.61548C7.87831 9.49362 7.80391 9.38302 7.71019 9.29006L5.71019 7.29006C5.61722 7.19633 5.50662 7.12194 5.38476 7.07117C5.2629 7.0204 5.1322 6.99426 5.00019 6.99426C4.86817 6.99426 4.73747 7.0204 4.61561 7.07117C4.49375 7.12194 4.38315 7.19633 4.29019 7.29006L2.29019 9.29006C2.10188 9.47836 1.99609 9.73376 1.99609 10.0001C1.99609 10.2664 2.10188 10.5218 2.29019 10.7101C2.47849 10.8984 2.73388 11.0041 3.00019 11.0041C3.26649 11.0041 3.52188 10.8984 3.71019 10.7101L4.00019 10.4101V12.5001C4.00019 13.4283 4.36893 14.3186 5.02531 14.9749C5.68169 15.6313 6.57193 16.0001 7.50019 16.0001C7.89801 16.0001 8.27954 16.1581 8.56085 16.4394C8.84215 16.7207 9.00019 17.1022 9.00019 17.5001V21.0001C9.00019 21.2653 9.10554 21.5196 9.29308 21.7072C9.48062 21.8947 9.73497 22.0001 10.0002 22.0001C10.2654 22.0001 10.5198 21.8947 10.7073 21.7072C10.8948 21.5196 11.0002 21.2653 11.0002 21.0001V15.0001C11.0002 13.4088 11.6323 11.8826 12.7575 10.7574C13.8828 9.6322 15.4089 9.00006 17.0002 9.00006H18.5902L18.2902 9.29006C18.1965 9.38302 18.1221 9.49362 18.0713 9.61548C18.0205 9.73734 17.9944 9.86805 17.9944 10.0001C17.9944 10.1321 18.0205 10.2628 18.0713 10.3846C18.1221 10.5065 18.1965 10.6171 18.2902 10.7101C18.3831 10.8038 18.4937 10.8782 18.6156 10.9289C18.7375 10.9797 18.8682 11.0059 19.0002 11.0059C19.1322 11.0059 19.2629 10.9797 19.3848 10.9289C19.5066 10.8782 19.6172 10.8038 19.7102 10.7101L21.7102 8.71006C21.8039 8.61709 21.8783 8.50649 21.9291 8.38463C21.9798 8.26278 22.006 8.13207 22.006 8.00006C22.006 7.86805 21.9798 7.73734 21.9291 7.61548C21.8783 7.49362 21.8039 7.38302 21.7102 7.29006ZM17.0002 12.0001C15.968 11.9811 14.9698 12.3691 14.2213 13.0801C13.4728 13.7912 13.0342 14.7682 13.0002 15.8001C13.0002 18.3401 16.0002 21.3701 16.2902 21.7101C16.3831 21.8038 16.4937 21.8782 16.6156 21.9289C16.7375 21.9797 16.8682 22.0059 17.0002 22.0059C17.1322 22.0059 17.2629 21.9797 17.3848 21.9289C17.5066 21.8782 17.6172 21.8038 17.7102 21.7101C18.0002 21.3701 21.0002 18.3401 21.0002 15.8001C20.9662 14.7682 20.5276 13.7912 19.7791 13.0801C19.0306 12.3691 18.0324 11.9811 17.0002 12.0001ZM17.0002 17.0001C16.8024 17.0001 16.6091 16.9414 16.4446 16.8315C16.2802 16.7216 16.152 16.5655 16.0763 16.3827C16.0006 16.2 15.9808 15.9989 16.0194 15.805C16.058 15.611 16.1532 15.4328 16.2931 15.293C16.4329 15.1531 16.6111 15.0579 16.8051 15.0193C16.9991 14.9807 17.2001 15.0005 17.3829 15.0762C17.5656 15.1519 17.7218 15.28 17.8317 15.4445C17.9415 15.6089 18.0002 15.8023 18.0002 16.0001C18.0002 16.2653 17.8948 16.5196 17.7073 16.7072C17.5198 16.8947 17.2654 17.0001 17.0002 17.0001Z" fill="#141414"/>
</svg>
