<svg width="24" height="24" viewBox="0 0 24 24" fill="none" xmlns="http://www.w3.org/2000/svg">
<path d="M12 2C10.0222 2 8.08879 2.58649 6.4443 3.6853C4.79981 4.78412 3.51809 6.3459 2.76121 8.17317C2.00433 10.0004 1.8063 12.0111 2.19215 13.9509C2.578 15.8907 3.53041 17.6725 4.92894 19.0711C6.32746 20.4696 8.10929 21.422 10.0491 21.8079C11.9889 22.1937 13.9996 21.9957 15.8268 21.2388C17.6541 20.4819 19.2159 19.2002 20.3147 17.5557C21.4135 15.9112 22 13.9778 22 12C22 10.6868 21.7413 9.38642 21.2388 8.17317C20.7363 6.95991 19.9997 5.85752 19.0711 4.92893C18.1425 4.00035 17.0401 3.26375 15.8268 2.7612C14.6136 2.25866 13.3132 2 12 2ZM16 10C16.2652 10 16.5196 10.1054 16.7071 10.2929C16.8946 10.4804 17 10.7348 17 11C17 11.2652 16.8946 11.5196 16.7071 11.7071C16.5196 11.8946 16.2652 12 16 12H14.86C14.6907 12.644 14.3634 13.2356 13.9076 13.721C13.4518 14.2065 12.8821 14.5705 12.25 14.78L14.51 16.14C14.6984 16.2518 14.8449 16.4224 14.9269 16.6255C15.009 16.8287 15.022 17.0531 14.9641 17.2644C14.9062 17.4757 14.7805 17.6621 14.6063 17.795C14.4321 17.9279 14.2191 17.9999 14 18C13.8205 17.9999 13.6444 17.9516 13.49 17.86L8.49 14.86C8.49 14.86 8.43 14.8 8.4 14.78C8.34311 14.7413 8.29252 14.6941 8.25 14.64L8.14 14.49C8.10748 14.4328 8.08068 14.3725 8.06 14.31C8.05434 14.2435 8.05434 14.1765 8.06 14.11L8 14C8 14 8 14 8 13.93C7.99533 13.8668 7.99533 13.8032 8 13.74C8.01728 13.6746 8.04072 13.611 8.07 13.55C8.07 13.55 8.07 13.55 8.07 13.49C8.07 13.43 8.13 13.43 8.15 13.4C8.18869 13.3431 8.23591 13.2925 8.29 13.25C8.33926 13.2077 8.3929 13.1709 8.45 13.14L8.61 13.06H8.82L9 13H11C11.349 12.9979 11.6914 12.9045 11.9932 12.7291C12.2949 12.5536 12.5455 12.3023 12.72 12H8C7.73479 12 7.48043 11.8946 7.2929 11.7071C7.10536 11.5196 7 11.2652 7 11C7 10.7348 7.10536 10.4804 7.2929 10.2929C7.48043 10.1054 7.73479 10 8 10H12.72C12.5455 9.69772 12.2949 9.44638 11.9932 9.27095C11.6914 9.09552 11.349 9.00211 11 9H8C7.73479 9 7.48043 8.89464 7.2929 8.70711C7.10536 8.51957 7 8.26522 7 8C7 7.73478 7.10536 7.48043 7.2929 7.29289C7.48043 7.10536 7.73479 7 8 7H16C16.2652 7 16.5196 7.10536 16.7071 7.29289C16.8946 7.48043 17 7.73478 17 8C17 8.26522 16.8946 8.51957 16.7071 8.70711C16.5196 8.89464 16.2652 9 16 9H14.44C14.6265 9.31184 14.7679 9.64852 14.86 10H16Z" fill="#141414"/>
</svg>
