<svg width="24" height="24" viewBox="0 0 24 24" fill="none" xmlns="http://www.w3.org/2000/svg">
<path d="M6.41 11.9999L12.71 5.70994C12.8037 5.61698 12.8781 5.50638 12.9289 5.38452C12.9797 5.26266 13.0058 5.13195 13.0058 4.99994C13.0058 4.86793 12.9797 4.73722 12.9289 4.61536C12.8781 4.4935 12.8037 4.3829 12.71 4.28994C12.617 4.19621 12.5064 4.12182 12.3846 4.07105C12.2627 4.02028 12.132 3.99414 12 3.99414C11.868 3.99414 11.7373 4.02028 11.6154 4.07105C11.4936 4.12182 11.383 4.19621 11.29 4.28994L4.29 11.2899C4.19627 11.3829 4.12188 11.4935 4.07111 11.6154C4.02034 11.7372 3.9942 11.8679 3.9942 11.9999C3.9942 12.132 4.02034 12.2627 4.07111 12.3845C4.12188 12.5064 4.19627 12.617 4.29 12.7099L11.29 19.7099C11.4783 19.8982 11.7337 20.004 12 20.004C12.2663 20.004 12.5217 19.8982 12.71 19.7099C12.8983 19.5216 13.0041 19.2662 13.0041 18.9999C13.0041 18.7336 12.8983 18.4782 12.71 18.2899L6.41 11.9999ZM11.41 11.9999L17.71 5.70994C17.8037 5.61698 17.8781 5.50638 17.9289 5.38452C17.9797 5.26266 18.0058 5.13195 18.0058 4.99994C18.0058 4.86793 17.9797 4.73722 17.9289 4.61536C17.8781 4.4935 17.8037 4.3829 17.71 4.28994C17.617 4.19621 17.5064 4.12182 17.3846 4.07105C17.2627 4.02028 17.132 3.99414 17 3.99414C16.868 3.99414 16.7373 4.02028 16.6154 4.07105C16.4936 4.12182 16.383 4.19621 16.29 4.28994L9.29 11.2899C9.19627 11.3829 9.12188 11.4935 9.07111 11.6154C9.02034 11.7372 8.9942 11.8679 8.9942 11.9999C8.9942 12.132 9.02034 12.2627 9.07111 12.3845C9.12188 12.5064 9.19627 12.617 9.29 12.7099L16.29 19.7099C16.4783 19.8982 16.7337 20.004 17 20.004C17.2663 20.004 17.5217 19.8982 17.71 19.7099C17.8983 19.5216 18.0041 19.2662 18.0041 18.9999C18.0041 18.7336 17.8983 18.4782 17.71 18.2899L11.41 11.9999Z" fill="#141414"/>
</svg>
