<svg width="24" height="24" viewBox="0 0 24 24" fill="none" xmlns="http://www.w3.org/2000/svg">
<path d="M20.71 8.29019L16.71 4.29019C16.6168 4.19695 16.5061 4.12299 16.3842 4.07253C16.2624 4.02207 16.1319 3.99609 16 3.99609C15.7337 3.99609 15.4783 4.10188 15.29 4.29019C15.1968 4.38342 15.1228 4.49411 15.0723 4.61594C15.0219 4.73776 14.9959 4.86833 14.9959 5.00019C14.9959 5.26649 15.1017 5.52188 15.29 5.71019L17.59 8.00019H10C8.14348 8.00019 6.36301 8.73768 5.05025 10.0504C3.7375 11.3632 3 13.1437 3 15.0002V18.0002C3 18.2654 3.10536 18.5198 3.29289 18.7073C3.48043 18.8948 3.73478 19.0002 4 19.0002C4.26522 19.0002 4.51957 18.8948 4.70711 18.7073C4.89464 18.5198 5 18.2654 5 18.0002V15.0002C5 13.6741 5.52678 12.4023 6.46447 11.4647C7.40215 10.527 8.67392 10.0002 10 10.0002H17.59L15.29 12.2902C15.1963 12.3831 15.1219 12.4937 15.0711 12.6156C15.0203 12.7375 14.9942 12.8682 14.9942 13.0002C14.9942 13.1322 15.0203 13.2629 15.0711 13.3848C15.1219 13.5066 15.1963 13.6172 15.29 13.7102C15.383 13.8039 15.4936 13.8783 15.6154 13.9291C15.7373 13.9798 15.868 14.006 16 14.006C16.132 14.006 16.2627 13.9798 16.3846 13.9291C16.5064 13.8783 16.617 13.8039 16.71 13.7102L20.71 9.71019C20.8037 9.61722 20.8781 9.50662 20.9289 9.38476C20.9797 9.2629 21.0058 9.1322 21.0058 9.00019C21.0058 8.86817 20.9797 8.73747 20.9289 8.61561C20.8781 8.49375 20.8037 8.38315 20.71 8.29019Z" fill="#141414"/>
</svg>
