<svg width="24" height="24" viewBox="0 0 24 24" fill="none" xmlns="http://www.w3.org/2000/svg">
<path d="M17 7H18V8C18 8.26522 18.1054 8.51957 18.2929 8.70711C18.4804 8.89464 18.7348 9 19 9C19.2652 9 19.5196 8.89464 19.7071 8.70711C19.8946 8.51957 20 8.26522 20 8V7H21C21.1986 7.00115 21.3931 6.94313 21.5586 6.83333C21.7241 6.72353 21.8532 6.56693 21.9294 6.38348C22.0055 6.20004 22.0254 5.99807 21.9863 5.80332C21.9472 5.60857 21.851 5.42987 21.71 5.29C21.6166 5.19732 21.5057 5.12399 21.3839 5.07423C21.2621 5.02446 21.1316 4.99924 21 5H20V4C20 3.73478 19.8946 3.48043 19.7071 3.29289C19.5196 3.10536 19.2652 3 19 3C18.7348 3 18.4804 3.10536 18.2929 3.29289C18.1054 3.48043 18 3.73478 18 4V5H17C16.8014 4.99884 16.6069 5.05687 16.4414 5.16667C16.2759 5.27647 16.1468 5.43307 16.0706 5.61652C15.9945 5.79996 15.9746 6.00193 16.0137 6.19668C16.0528 6.39143 16.149 6.57013 16.29 6.71C16.3834 6.80268 16.4943 6.87601 16.6161 6.92577C16.7379 6.97554 16.8684 7.00076 17 7ZM16.76 10.47C15.9329 10.058 15.2394 9.41999 14.76 8.63C14.2669 7.84111 14.0037 6.9303 14 6C14.0031 5.66433 14.0365 5.32963 14.1 5H5C4.20435 5 3.44129 5.31607 2.87868 5.87868C2.31607 6.44129 2 7.20435 2 8V16C2 16.7956 2.31607 17.5587 2.87868 18.1213C3.44129 18.6839 4.20435 19 5 19H19C19.7956 19 20.5587 18.6839 21.1213 18.1213C21.6839 17.5587 22 16.7956 22 16V10C21.2565 10.5576 20.3724 10.8969 19.4468 10.9799C18.5212 11.0629 17.5908 10.8864 16.76 10.47ZM6.94 8.47C7.18471 8.22508 7.50661 8.07234 7.85109 8.03771C8.19558 8.00308 8.54144 8.08868 8.83 8.28C9.0785 8.44774 9.27303 8.68394 9.39 8.96C9.50099 9.23248 9.52883 9.53172 9.47 9.82C9.41354 10.112 9.27098 10.3804 9.06069 10.5907C8.8504 10.801 8.58199 10.9435 8.29 11C8.00172 11.0588 7.70248 11.031 7.43 10.92C7.15394 10.803 6.91774 10.6085 6.75 10.36C6.55868 10.0714 6.47308 9.72558 6.50771 9.38109C6.54234 9.03661 6.69508 8.71471 6.94 8.47ZM10.71 15.74C10.5165 15.9162 10.2616 16.0096 10 16H6C5.73478 16 5.48043 15.8946 5.29289 15.7071C5.10536 15.5196 5 15.2652 5 15C5 14.2044 5.31607 13.4413 5.87868 12.8787C6.44129 12.3161 7.20435 12 8 12C8.79565 12 9.55871 12.3161 10.1213 12.8787C10.6839 13.4413 11 14.2044 11 15C11.0008 15.1316 10.9755 15.2621 10.9258 15.3839C10.876 15.5057 10.8027 15.6166 10.71 15.71V15.74Z" fill="#141414"/>
</svg>
