<svg width="24" height="24" viewBox="0 0 24 24" fill="none" xmlns="http://www.w3.org/2000/svg">
<path d="M7.23008 13.3601C7.28483 13.582 7.41392 13.7785 7.59587 13.9167C7.77782 14.055 8.00164 14.1268 8.23008 14.1201H8.47008C8.7269 14.0584 8.94887 13.8976 9.08752 13.6727C9.22616 13.4479 9.27022 13.1774 9.21008 12.9201L8.55008 10.1701C8.52329 10.036 8.46926 9.90873 8.39132 9.79628C8.31338 9.68383 8.2132 9.58857 8.09696 9.51639C7.98073 9.44422 7.85093 9.39666 7.71558 9.37667C7.58023 9.35667 7.44222 9.36466 7.31008 9.40015L4.56008 10.0601C4.42103 10.0768 4.28703 10.1225 4.16677 10.1943C4.04651 10.2661 3.94266 10.3623 3.86195 10.4767C3.78125 10.5912 3.72548 10.7213 3.69826 10.8587C3.67105 10.9961 3.67299 11.1376 3.70397 11.2742C3.73494 11.4108 3.79426 11.5393 3.87808 11.6515C3.9619 11.7637 4.06835 11.8571 4.19054 11.9255C4.31273 11.9939 4.44793 12.0359 4.58738 12.0488C4.72684 12.0617 4.86744 12.0451 5.00008 12.0001L5.37008 11.9201L2.30008 17.0001C2.12584 17.3018 2.03343 17.6438 2.032 17.9922C2.03057 18.3406 2.12018 18.6833 2.29194 18.9864C2.4637 19.2895 2.71166 19.5425 3.01127 19.7203C3.31087 19.8981 3.65173 19.9946 4.00008 20.0001H8.00008C8.2653 20.0001 8.51965 19.8948 8.70719 19.7073C8.89472 19.5197 9.00008 19.2654 9.00008 19.0001C9.00008 18.7349 8.89472 18.4806 8.70719 18.293C8.51965 18.1055 8.2653 18.0001 8.00008 18.0001H4.00008L7.13008 12.9201L7.23008 13.3601ZM14.5401 9.13015L14.0001 9.00015C13.7349 8.94047 13.4568 8.9886 13.2271 9.13394C12.9973 9.27928 12.8348 9.50993 12.7751 9.77515C12.7154 10.0404 12.7635 10.3184 12.9089 10.5482C13.0542 10.7779 13.2849 10.9405 13.5501 11.0001L16.3001 11.6401H16.5301C16.7173 11.6407 16.9009 11.5888 17.0601 11.4901C17.2826 11.3495 17.4408 11.1267 17.5001 10.8701L18.1401 8.11015C18.1998 7.85156 18.1543 7.57986 18.0136 7.35482C17.873 7.12977 17.6487 6.96982 17.3901 6.91015C17.1315 6.85047 16.8598 6.89597 16.6347 7.03662C16.4097 7.17727 16.2498 7.40156 16.1901 7.66015L16.1201 7.96015L13.7001 4.00015C13.5207 3.71073 13.2704 3.47189 12.9729 3.30627C12.6754 3.14064 12.3406 3.05371 12.0001 3.05371C11.6596 3.05371 11.3247 3.14064 11.0272 3.30627C10.7297 3.47189 10.4794 3.71073 10.3001 4.00015L8.61008 6.69015C8.5407 6.8023 8.49418 6.92707 8.47322 7.05728C8.45226 7.18748 8.45725 7.32055 8.48793 7.44881C8.5186 7.57708 8.57434 7.69801 8.65194 7.80464C8.72954 7.91128 8.82746 8.00151 8.94008 8.07015C9.16576 8.20711 9.43644 8.24928 9.69308 8.18746C9.94973 8.12564 10.1715 7.96484 10.3101 7.74015L12.0001 5.00015L14.5401 9.13015ZM21.7001 17.0001L19.5601 13.5201C19.408 13.339 19.1968 13.2177 18.9637 13.1776C18.7307 13.1375 18.491 13.1813 18.2871 13.3011C18.0833 13.421 17.9286 13.6093 17.8504 13.8324C17.7722 14.0556 17.7756 14.2993 17.8601 14.5201L20.0001 18.0001H14.4101L14.7101 17.7101C14.8984 17.5218 15.0042 17.2664 15.0042 17.0001C15.0042 16.7338 14.8984 16.4785 14.7101 16.2901C14.5218 16.1018 14.2664 15.9961 14.0001 15.9961C13.7338 15.9961 13.4784 16.1018 13.2901 16.2901L11.2901 18.2901C11.1964 18.3831 11.122 18.4937 11.0712 18.6156C11.0204 18.7374 10.9943 18.8681 10.9943 19.0001C10.9943 19.1322 11.0204 19.2629 11.0712 19.3847C11.122 19.5066 11.1964 19.6172 11.2901 19.7101L13.2901 21.7101C13.383 21.8039 13.4936 21.8783 13.6155 21.929C13.7374 21.9798 13.8681 22.0059 14.0001 22.0059C14.1321 22.0059 14.2628 21.9798 14.3847 21.929C14.5065 21.8783 14.6171 21.8039 14.7101 21.7101C14.8038 21.6172 14.8782 21.5066 14.929 21.3847C14.9797 21.2629 15.0059 21.1322 15.0059 21.0001C15.0059 20.8681 14.9797 20.7374 14.929 20.6156C14.8782 20.4937 14.8038 20.3831 14.7101 20.2901L14.4101 20.0001H20.0001C20.3484 19.9946 20.6893 19.8981 20.9889 19.7203C21.2885 19.5425 21.5365 19.2895 21.7082 18.9864C21.88 18.6833 21.9696 18.3406 21.9682 17.9922C21.9667 17.6438 21.8743 17.3018 21.7001 17.0001Z" fill="#141414"/>
</svg>
