<svg width="24" height="24" viewBox="0 0 24 24" fill="none" xmlns="http://www.w3.org/2000/svg">
<path d="M18 8H15.91C15.7196 6.88316 15.2169 5.84304 14.46 5H18C18.2652 5 18.5196 4.89464 18.7071 4.70711C18.8946 4.51957 19 4.26522 19 4C19 3.73478 18.8946 3.48043 18.7071 3.29289C18.5196 3.10536 18.2652 3 18 3H6C5.73478 3 5.48043 3.10536 5.29289 3.29289C5.10536 3.48043 5 3.73478 5 4C5 4.26522 5.10536 4.51957 5.29289 4.70711C5.48043 4.89464 5.73478 5 6 5H10C10.8846 5.00287 11.7432 5.29887 12.4416 5.84169C13.1401 6.38451 13.6389 7.14353 13.86 8H6C5.73478 8 5.48043 8.10536 5.29289 8.29289C5.10536 8.48043 5 8.73478 5 9C5 9.26522 5.10536 9.51957 5.29289 9.70711C5.48043 9.89464 5.73478 10 6 10H13.86C13.6389 10.8565 13.1401 11.6155 12.4416 12.1583C11.7432 12.7011 10.8846 12.9971 10 13H7H6.92C6.85373 12.9897 6.78627 12.9897 6.72 13L6.54 13.06L6.39 13.17C6.33533 13.2114 6.28507 13.2583 6.24 13.31L6.18 13.37C6.18 13.37 6.18 13.43 6.18 13.46C6.08207 13.5881 6.01995 13.74 6 13.9V14C5.99552 14.0265 5.99552 14.0535 6 14.08C5.98968 14.1463 5.98968 14.2137 6 14.28C6.01548 14.3414 6.03554 14.4016 6.06 14.46L6.17 14.61L6.31 14.76L6.37 14.82L16.37 21.82C16.5538 21.949 16.7757 22.0125 17 22C17.1612 21.9997 17.32 21.9605 17.4628 21.8856C17.6055 21.8107 17.7281 21.7025 17.82 21.57C17.9708 21.3524 18.0292 21.0839 17.9823 20.8233C17.9355 20.5628 17.7872 20.3314 17.57 20.18L10.16 15C11.5492 14.9614 12.8819 14.4418 13.9306 13.5299C14.9793 12.618 15.6789 11.3704 15.91 10H18C18.2652 10 18.5196 9.89464 18.7071 9.70711C18.8946 9.51957 19 9.26522 19 9C19 8.73478 18.8946 8.48043 18.7071 8.29289C18.5196 8.10536 18.2652 8 18 8Z" fill="#141414"/>
</svg>
