<svg width="24" height="24" viewBox="0 0 24 24" fill="none" xmlns="http://www.w3.org/2000/svg">
<path d="M12 15C11.8022 15 11.6089 15.0586 11.4444 15.1685C11.28 15.2784 11.1518 15.4346 11.0761 15.6173C11.0004 15.8 10.9806 16.0011 11.0192 16.1951C11.0578 16.3891 11.153 16.5673 11.2929 16.7071C11.4327 16.847 11.6109 16.9422 11.8049 16.9808C11.9989 17.0194 12.2 16.9996 12.3827 16.9239C12.5654 16.8482 12.7216 16.72 12.8315 16.5556C12.9414 16.3911 13 16.1978 13 16C13 15.7348 12.8946 15.4804 12.7071 15.2929C12.5196 15.1054 12.2652 15 12 15ZM16.12 2.88C15.5579 2.31723 14.7954 2.0007 14 2H10C9.20435 2 8.44129 2.31607 7.87868 2.87868C7.31607 3.44129 7 4.20435 7 5V19C7 19.7956 7.31607 20.5587 7.87868 21.1213C8.44129 21.6839 9.20435 22 10 22H14C14.7956 22 15.5587 21.6839 16.1213 21.1213C16.6839 20.5587 17 19.7956 17 19V5C16.9993 4.20462 16.6828 3.44207 16.12 2.88ZM10 4C10.1978 4 10.3911 4.05865 10.5556 4.16853C10.72 4.27841 10.8482 4.43459 10.9239 4.61732C10.9996 4.80004 11.0194 5.00111 10.9808 5.19509C10.9422 5.38907 10.847 5.56725 10.7071 5.70711C10.5673 5.84696 10.3891 5.9422 10.1951 5.98079C10.0011 6.01937 9.80004 5.99957 9.61732 5.92388C9.43459 5.84819 9.27841 5.72002 9.16853 5.55557C9.05865 5.39112 9 5.19778 9 5C9 4.73478 9.10536 4.48043 9.29289 4.29289C9.48043 4.10536 9.73478 4 10 4ZM10 8C10.1978 8 10.3911 8.05865 10.5556 8.16853C10.72 8.27841 10.8482 8.43459 10.9239 8.61732C10.9996 8.80004 11.0194 9.00111 10.9808 9.19509C10.9422 9.38907 10.847 9.56725 10.7071 9.70711C10.5673 9.84696 10.3891 9.9422 10.1951 9.98079C10.0011 10.0194 9.80004 9.99957 9.61732 9.92388C9.43459 9.84819 9.27841 9.72002 9.16853 9.55557C9.05865 9.39112 9 9.19778 9 9C9 8.73478 9.10536 8.48043 9.29289 8.29289C9.48043 8.10536 9.73478 8 10 8ZM12 19C11.4067 19 10.8266 18.8241 10.3333 18.4944C9.83994 18.1648 9.45542 17.6962 9.22836 17.1481C9.0013 16.5999 8.94189 15.9967 9.05764 15.4147C9.1734 14.8328 9.45912 14.2982 9.87868 13.8787C10.2982 13.4591 10.8328 13.1734 11.4147 13.0576C11.9967 12.9419 12.5999 13.0013 13.1481 13.2284C13.6962 13.4554 14.1648 13.8399 14.4944 14.3333C14.8241 14.8266 15 15.4067 15 16C15 16.7956 14.6839 17.5587 14.1213 18.1213C13.5587 18.6839 12.7956 19 12 19ZM14 10C13.8022 10 13.6089 9.94135 13.4444 9.83147C13.28 9.72159 13.1518 9.56541 13.0761 9.38268C13.0004 9.19996 12.9806 8.99889 13.0192 8.80491C13.0578 8.61093 13.153 8.43275 13.2929 8.29289C13.4327 8.15304 13.6109 8.0578 13.8049 8.01921C13.9989 7.98063 14.2 8.00043 14.3827 8.07612C14.5654 8.15181 14.7216 8.27998 14.8315 8.44443C14.9414 8.60888 15 8.80222 15 9C15 9.26522 14.8946 9.51957 14.7071 9.70711C14.5196 9.89464 14.2652 10 14 10ZM14 6C13.8022 6 13.6089 5.94135 13.4444 5.83147C13.28 5.72159 13.1518 5.56541 13.0761 5.38268C13.0004 5.19996 12.9806 4.99889 13.0192 4.80491C13.0578 4.61093 13.153 4.43275 13.2929 4.29289C13.4327 4.15304 13.6109 4.0578 13.8049 4.01921C13.9989 3.98063 14.2 4.00043 14.3827 4.07612C14.5654 4.15181 14.7216 4.27998 14.8315 4.44443C14.9414 4.60888 15 4.80222 15 5C15 5.26522 14.8946 5.51957 14.7071 5.70711C14.5196 5.89464 14.2652 6 14 6Z" fill="#141414"/>
</svg>
