<svg width="24" height="24" viewBox="0 0 24 24" fill="none" xmlns="http://www.w3.org/2000/svg">
<path d="M9.5 8C8.67 8 8 8.67 8 9.5C8 10.33 8.67 11 9.5 11C10.33 11 11 10.33 11 9.5C11 8.67 10.33 8 9.5 8ZM9.5 18C8.67 18 8 18.67 8 19.5C8 20.33 8.67 21 9.5 21C10.33 21 11 20.33 11 19.5C11 18.67 10.33 18 9.5 18ZM9.5 13C8.67 13 8 13.67 8 14.5C8 15.33 8.67 16 9.5 16C10.33 16 11 15.33 11 14.5C11 13.67 10.33 13 9.5 13ZM4.5 8C3.67 8 3 8.67 3 9.5C3 10.33 3.67 11 4.5 11C5.33 11 6 10.33 6 9.5C6 8.67 5.33 8 4.5 8ZM4.5 13C3.67 13 3 13.67 3 14.5C3 15.33 3.67 16 4.5 16C5.33 16 6 15.33 6 14.5C6 13.67 5.33 13 4.5 13ZM19.5 6C20.33 6 21 5.33 21 4.5C21 3.67 20.33 3 19.5 3C18.67 3 18 3.67 18 4.5C18 5.33 18.67 6 19.5 6ZM4.5 18C3.67 18 3 18.67 3 19.5C3 20.33 3.67 21 4.5 21C5.33 21 6 20.33 6 19.5C6 18.67 5.33 18 4.5 18ZM4.5 3C3.67 3 3 3.67 3 4.5C3 5.33 3.67 6 4.5 6C5.33 6 6 5.33 6 4.5C6 3.67 5.33 3 4.5 3ZM19.5 18C18.67 18 18 18.67 18 19.5C18 20.33 18.67 21 19.5 21C20.33 21 21 20.33 21 19.5C21 18.67 20.33 18 19.5 18ZM19.5 13C18.67 13 18 13.67 18 14.5C18 15.33 18.67 16 19.5 16C20.33 16 21 15.33 21 14.5C21 13.67 20.33 13 19.5 13ZM14.5 3C13.67 3 13 3.67 13 4.5C13 5.33 13.67 6 14.5 6C15.33 6 16 5.33 16 4.5C16 3.67 15.33 3 14.5 3ZM19.5 8C18.67 8 18 8.67 18 9.5C18 10.33 18.67 11 19.5 11C20.33 11 21 10.33 21 9.5C21 8.67 20.33 8 19.5 8ZM9.5 3C8.67 3 8 3.67 8 4.5C8 5.33 8.67 6 9.5 6C10.33 6 11 5.33 11 4.5C11 3.67 10.33 3 9.5 3ZM14.5 18C13.67 18 13 18.67 13 19.5C13 20.33 13.67 21 14.5 21C15.33 21 16 20.33 16 19.5C16 18.67 15.33 18 14.5 18ZM14.5 13C13.67 13 13 13.67 13 14.5C13 15.33 13.67 16 14.5 16C15.33 16 16 15.33 16 14.5C16 13.67 15.33 13 14.5 13ZM14.5 8C13.67 8 13 8.67 13 9.5C13 10.33 13.67 11 14.5 11C15.33 11 16 10.33 16 9.5C16 8.67 15.33 8 14.5 8Z" fill="#141414"/>
</svg>
