<svg width="24" height="24" viewBox="0 0 24 24" fill="none" xmlns="http://www.w3.org/2000/svg">
<path d="M5.64 16.24C5.37504 16.5243 5.23079 16.9004 5.23765 17.289C5.24451 17.6776 5.40193 18.0484 5.67676 18.3232C5.95158 18.5981 6.32235 18.7555 6.71096 18.7624C7.09956 18.7692 7.47565 18.625 7.76 18.36C7.90737 18.2227 8.02558 18.0571 8.10756 17.8731C8.18955 17.6891 8.23363 17.4905 8.23718 17.289C8.24074 17.0876 8.20369 16.8876 8.12825 16.7008C8.0528 16.514 7.94051 16.3444 7.79808 16.2019C7.65564 16.0595 7.48597 15.9472 7.2992 15.8718C7.11242 15.7963 6.91236 15.7593 6.71096 15.7628C6.50955 15.7664 6.31092 15.8105 6.12692 15.8924C5.94293 15.9744 5.77732 16.0926 5.64 16.24ZM5.64 5.64C5.49971 5.77859 5.38833 5.94365 5.31231 6.1256C5.23628 6.30756 5.19714 6.5028 5.19714 6.7C5.19714 6.8972 5.23628 7.09244 5.31231 7.2744C5.38833 7.45635 5.49971 7.62141 5.64 7.76C5.92435 8.02496 6.30044 8.16921 6.68905 8.16235C7.07765 8.15549 7.44842 7.99807 7.72324 7.72324C7.99807 7.44842 8.15549 7.07765 8.16235 6.68904C8.16921 6.30044 8.02496 5.92435 7.76 5.64C7.62141 5.49971 7.45636 5.38833 7.2744 5.3123C7.09244 5.23628 6.8972 5.19714 6.7 5.19714C6.5028 5.19714 6.30756 5.23628 6.1256 5.3123C5.94365 5.38833 5.77859 5.49971 5.64 5.64ZM6 12C6 11.7033 5.91203 11.4133 5.7472 11.1666C5.58238 10.92 5.34811 10.7277 5.07403 10.6142C4.79994 10.5006 4.49834 10.4709 4.20737 10.5288C3.91639 10.5867 3.64912 10.7296 3.43934 10.9393C3.22956 11.1491 3.0867 11.4164 3.02882 11.7074C2.97094 11.9983 3.00065 12.2999 3.11418 12.574C3.22771 12.8481 3.41997 13.0824 3.66665 13.2472C3.91332 13.412 4.20333 13.5 4.5 13.5C4.89783 13.5 5.27936 13.342 5.56066 13.0607C5.84197 12.7794 6 12.3978 6 12ZM18.36 7.76C18.625 7.47565 18.7692 7.09956 18.7624 6.71096C18.7555 6.32235 18.5981 5.95158 18.3232 5.67676C18.0484 5.40193 17.6776 5.24451 17.289 5.23765C16.9004 5.23079 16.5244 5.37504 16.24 5.64C16.0926 5.77732 15.9744 5.94292 15.8924 6.12692C15.8105 6.31092 15.7664 6.50955 15.7628 6.71096C15.7593 6.91236 15.7963 7.11242 15.8718 7.2992C15.9472 7.48597 16.0595 7.65564 16.2019 7.79808C16.3444 7.94051 16.514 8.0528 16.7008 8.12825C16.8876 8.20369 17.0876 8.24074 17.289 8.23718C17.4905 8.23363 17.6891 8.18955 17.8731 8.10756C18.0571 8.02558 18.2227 7.90737 18.36 7.76ZM12 18C11.7033 18 11.4133 18.088 11.1666 18.2528C10.92 18.4176 10.7277 18.6519 10.6142 18.926C10.5006 19.2001 10.4709 19.5017 10.5288 19.7926C10.5867 20.0836 10.7296 20.3509 10.9393 20.5607C11.1491 20.7704 11.4164 20.9133 11.7074 20.9712C11.9983 21.0291 12.2999 20.9993 12.574 20.8858C12.8481 20.7723 13.0824 20.58 13.2472 20.3334C13.412 20.0867 13.5 19.7967 13.5 19.5C13.5 19.1022 13.342 18.7206 13.0607 18.4393C12.7794 18.158 12.3978 18 12 18ZM16.24 16.24C15.9615 16.5225 15.8054 16.9033 15.8054 17.3C15.8054 17.6967 15.9615 18.0775 16.24 18.36C16.5244 18.625 16.9004 18.7692 17.289 18.7624C17.6776 18.7555 18.0484 18.5981 18.3232 18.3232C18.5981 18.0484 18.7555 17.6776 18.7624 17.289C18.7692 16.9004 18.625 16.5243 18.36 16.24C18.0775 15.9615 17.6967 15.8054 17.3 15.8054C16.9033 15.8054 16.5225 15.9615 16.24 16.24ZM19.5 10.5C19.2033 10.5 18.9133 10.588 18.6666 10.7528C18.42 10.9176 18.2277 11.1519 18.1142 11.426C18.0007 11.7001 17.9709 12.0017 18.0288 12.2926C18.0867 12.5836 18.2296 12.8509 18.4393 13.0607C18.6491 13.2704 18.9164 13.4133 19.2074 13.4712C19.4983 13.5291 19.7999 13.4994 20.074 13.3858C20.3481 13.2723 20.5824 13.08 20.7472 12.8334C20.912 12.5867 21 12.2967 21 12C21 11.6022 20.842 11.2206 20.5607 10.9393C20.2794 10.658 19.8978 10.5 19.5 10.5ZM12 3C11.7033 3 11.4133 3.08797 11.1666 3.2528C10.92 3.41762 10.7277 3.65189 10.6142 3.92597C10.5006 4.20006 10.4709 4.50166 10.5288 4.79264C10.5867 5.08361 10.7296 5.35088 10.9393 5.56066C11.1491 5.77044 11.4164 5.9133 11.7074 5.97118C11.9983 6.02906 12.2999 5.99935 12.574 5.88582C12.8481 5.77229 13.0824 5.58003 13.2472 5.33336C13.412 5.08668 13.5 4.79667 13.5 4.5C13.5 4.10218 13.342 3.72064 13.0607 3.43934C12.7794 3.15804 12.3978 3 12 3Z" fill="#141414"/>
</svg>
