<svg width="24" height="24" viewBox="0 0 24 24" fill="none" xmlns="http://www.w3.org/2000/svg">
<path d="M13 9.5H10V11.5H13C13.2652 11.5 13.5196 11.3946 13.7071 11.2071C13.8946 11.0196 14 10.7652 14 10.5C14 10.2348 13.8946 9.98043 13.7071 9.79289C13.5196 9.60536 13.2652 9.5 13 9.5ZM12 2C10.0222 2 8.08879 2.58649 6.4443 3.6853C4.79981 4.78412 3.51809 6.3459 2.76121 8.17317C2.00433 10.0004 1.8063 12.0111 2.19215 13.9509C2.578 15.8907 3.53041 17.6725 4.92894 19.0711C6.32746 20.4696 8.10929 21.422 10.0491 21.8079C11.9889 22.1937 13.9996 21.9957 15.8268 21.2388C17.6541 20.4819 19.2159 19.2002 20.3147 17.5557C21.4135 15.9112 22 13.9778 22 12C22 10.6868 21.7413 9.38642 21.2388 8.17317C20.7363 6.95991 19.9997 5.85752 19.0711 4.92893C18.1425 4.00035 17.0401 3.26375 15.8268 2.7612C14.6136 2.25866 13.3132 2 12 2ZM15.83 15C15.9747 15.2205 16.0265 15.4892 15.9741 15.7476C15.9216 16.0061 15.7692 16.2334 15.55 16.38C15.389 16.4928 15.1966 16.5522 15 16.55C14.8353 16.5491 14.6734 16.5076 14.5286 16.4291C14.3838 16.3506 14.2606 16.2376 14.17 16.1L12.46 13.5H10V15.5C10 15.7652 9.89465 16.0196 9.70711 16.2071C9.51957 16.3946 9.26522 16.5 9 16.5C8.73479 16.5 8.48043 16.3946 8.2929 16.2071C8.10536 16.0196 8 15.7652 8 15.5V8.5C8 8.23478 8.10536 7.98043 8.2929 7.79289C8.48043 7.60536 8.73479 7.5 9 7.5H13C13.6515 7.50224 14.2846 7.71651 14.8035 8.11042C15.3225 8.50433 15.6991 9.05647 15.8764 9.68338C16.0537 10.3103 16.0222 10.9779 15.7865 11.5853C15.5508 12.1927 15.1238 12.7068 14.57 13.05L15.83 15Z" fill="#141414"/>
</svg>
