<svg width="24" height="24" viewBox="0 0 24 24" fill="none" xmlns="http://www.w3.org/2000/svg">
<path d="M8.16 8.07996C8.56786 7.65605 8.84209 7.12158 8.94858 6.54305C9.05508 5.96451 8.98913 5.36743 8.75895 4.82607C8.52876 4.28472 8.14451 3.82299 7.65397 3.4983C7.16343 3.17362 6.58826 3.00032 6 2.99996H4C3.73478 2.99996 3.48043 3.10531 3.29289 3.29285C3.10536 3.48039 3 3.73474 3 3.99996V9.99996C3 10.2652 3.10536 10.5195 3.29289 10.7071C3.48043 10.8946 3.73478 11 4 11C4.26522 11 4.51957 10.8946 4.70711 10.7071C4.89464 10.5195 5 10.2652 5 9.99996V8.99996H6C6.1198 9.00979 6.2402 9.00979 6.36 8.99996L7.11 10.49C7.19847 10.6474 7.32793 10.778 7.48463 10.8678C7.64133 10.9576 7.81942 11.0032 8 11C8.15688 11.0018 8.31168 10.964 8.45 10.89C8.68552 10.7701 8.86402 10.5618 8.94646 10.3107C9.02891 10.0596 9.00861 9.78613 8.89 9.54996L8.16 8.07996ZM6 6.99996H5V4.99996H6C6.26522 4.99996 6.51957 5.10531 6.70711 5.29285C6.89464 5.48039 7 5.73474 7 5.99996C7 6.26517 6.89464 6.51953 6.70711 6.70706C6.51957 6.8946 6.26522 6.99996 6 6.99996ZM6 17C5.73478 17 5.48043 17.1053 5.29289 17.2928C5.10536 17.4804 5 17.7347 5 18V20C5 20.2652 5.10536 20.5195 5.29289 20.7071C5.48043 20.8946 5.73478 21 6 21C6.26522 21 6.51957 20.8946 6.70711 20.7071C6.89464 20.5195 7 20.2652 7 20V18C7 17.7347 6.89464 17.4804 6.70711 17.2928C6.51957 17.1053 6.26522 17 6 17ZM18.71 3.28996C18.5701 3.14893 18.3914 3.05275 18.1967 3.01368C18.0019 2.97461 17.8 2.99442 17.6165 3.07059C17.4331 3.14675 17.2765 3.27582 17.1667 3.44134C17.0569 3.60686 16.9988 3.80133 17 3.99996V20C17 20.2652 17.1054 20.5195 17.2929 20.7071C17.4804 20.8946 17.7348 21 18 21C18.2652 21 18.5196 20.8946 18.7071 20.7071C18.8946 20.5195 19 20.2652 19 20V3.99996C19.0008 3.86835 18.9755 3.73789 18.9258 3.61605C18.876 3.49421 18.8027 3.3834 18.71 3.28996ZM14 6.99996C13.7348 6.99996 13.4804 7.10531 13.2929 7.29285C13.1054 7.48039 13 7.73474 13 7.99996V20C13 20.2652 13.1054 20.5195 13.2929 20.7071C13.4804 20.8946 13.7348 21 14 21C14.2652 21 14.5196 20.8946 14.7071 20.7071C14.8946 20.5195 15 20.2652 15 20V7.99996C15 7.73474 14.8946 7.48039 14.7071 7.29285C14.5196 7.10531 14.2652 6.99996 14 6.99996ZM10 13C9.73478 13 9.48043 13.1053 9.29289 13.2928C9.10536 13.4804 9 13.7347 9 14V20C9 20.2652 9.10536 20.5195 9.29289 20.7071C9.48043 20.8946 9.73478 21 10 21C10.2652 21 10.5196 20.8946 10.7071 20.7071C10.8946 20.5195 11 20.2652 11 20V14C11 13.7347 10.8946 13.4804 10.7071 13.2928C10.5196 13.1053 10.2652 13 10 13Z" fill="#141414"/>
</svg>
