<svg width="24" height="24" viewBox="0 0 24 24" fill="none" xmlns="http://www.w3.org/2000/svg">
<path d="M20 19H17V15H20.19C20.275 15.0002 20.3586 14.9787 20.4329 14.9376C20.5073 14.8964 20.57 14.8371 20.615 14.765C20.66 14.6929 20.686 14.6106 20.6903 14.5257C20.6947 14.4409 20.6774 14.3563 20.64 14.28L20 13L20.64 11.72C20.6774 11.6437 20.6947 11.5591 20.6903 11.4743C20.686 11.3894 20.66 11.3071 20.615 11.235C20.57 11.1629 20.5073 11.1036 20.4329 11.0624C20.3586 11.0213 20.275 10.9998 20.19 11H15V19H12C10.1435 19 8.36301 18.2625 7.05025 16.9497C5.7375 15.637 5 13.8565 5 12C5 10.1435 5.7375 8.36301 7.05025 7.05025C8.36301 5.7375 10.1435 5 12 5H20C20.2652 5 20.5196 4.89464 20.7071 4.70711C20.8946 4.51957 21 4.26522 21 4C21 3.73478 20.8946 3.48043 20.7071 3.29289C20.5196 3.10536 20.2652 3 20 3H12C9.61305 3 7.32387 3.94821 5.63604 5.63604C3.94821 7.32387 3 9.61305 3 12C3 14.3869 3.94821 16.6761 5.63604 18.364C7.32387 20.0518 9.61305 21 12 21H20C20.2652 21 20.5196 20.8946 20.7071 20.7071C20.8946 20.5196 21 20.2652 21 20C21 19.7348 20.8946 19.4804 20.7071 19.2929C20.5196 19.1054 20.2652 19 20 19ZM20 7H12C10.6739 7 9.40215 7.52678 8.46447 8.46447C7.52678 9.40215 7 10.6739 7 12C7 13.3261 7.52678 14.5979 8.46447 15.5355C9.40215 16.4732 10.6739 17 12 17H13V15H12C11.2044 15 10.4413 14.6839 9.87868 14.1213C9.31607 13.5587 9 12.7956 9 12C9 11.2044 9.31607 10.4413 9.87868 9.87868C10.4413 9.31607 11.2044 9 12 9H20C20.2652 9 20.5196 8.89464 20.7071 8.70711C20.8946 8.51957 21 8.26522 21 8C21 7.73478 20.8946 7.48043 20.7071 7.29289C20.5196 7.10536 20.2652 7 20 7Z" fill="#141414"/>
</svg>
