<svg width="24" height="24" viewBox="0 0 24 24" fill="none" xmlns="http://www.w3.org/2000/svg">
<path d="M20 14.5C19.9967 13.8678 19.7939 13.2529 19.4203 12.7428C19.0468 12.2328 18.5217 11.8539 17.92 11.66C18.0302 11.1639 18.0126 10.6479 17.8688 10.1604C17.7251 9.67299 17.4598 9.23006 17.0979 8.87321C16.7361 8.51635 16.2895 8.25727 15.8001 8.12028C15.3107 7.98328 14.7945 7.97286 14.3 8.09C14.0184 7.75377 13.6665 7.48336 13.2692 7.29782C12.8718 7.11229 12.4385 7.01613 12 7.01613C11.5614 7.01613 11.1282 7.11229 10.7308 7.29782C10.3334 7.48336 9.98156 7.75377 9.69999 8.09C9.20545 7.97286 8.68927 7.98328 8.19987 8.12028C7.71047 8.25727 7.26389 8.51635 6.90204 8.87321C6.54018 9.23006 6.27492 9.67299 6.13113 10.1604C5.98734 10.6479 5.96974 11.1639 6.07999 11.66C5.48698 11.8618 4.97204 12.2442 4.60738 12.7536C4.24271 13.2629 4.04663 13.8736 4.04663 14.5C4.04663 15.1264 4.24271 15.7371 4.60738 16.2464C4.97204 16.7558 5.48698 17.1382 6.07999 17.34C5.96974 17.8361 5.98734 18.3521 6.13113 18.8395C6.27492 19.327 6.54018 19.7699 6.90204 20.1268C7.26389 20.4836 7.71047 20.7427 8.19987 20.8797C8.68927 21.0167 9.20545 21.0271 9.69999 20.91C9.98156 21.2462 10.3334 21.5166 10.7308 21.7022C11.1282 21.8877 11.5614 21.9839 12 21.9839C12.4385 21.9839 12.8718 21.8877 13.2692 21.7022C13.6665 21.5166 14.0184 21.2462 14.3 20.91C14.7945 21.0271 15.3107 21.0167 15.8001 20.8797C16.2895 20.7427 16.7361 20.4836 17.0979 20.1268C17.4598 19.7699 17.7251 19.327 17.8688 18.8395C18.0126 18.3521 18.0302 17.8361 17.92 17.34C18.5217 17.1461 19.0468 16.7672 19.4203 16.2571C19.7939 15.7471 19.9967 15.1322 20 14.5ZM9.99999 12.5C9.99999 12.3022 10.0586 12.1089 10.1685 11.9444C10.2784 11.78 10.4346 11.6518 10.6173 11.5761C10.8 11.5004 11.0011 11.4806 11.1951 11.5192C11.3891 11.5578 11.5672 11.653 11.7071 11.7929C11.8469 11.9327 11.9422 12.1109 11.9808 12.3049C12.0194 12.4989 11.9996 12.7 11.9239 12.8827C11.8482 13.0654 11.72 13.2216 11.5556 13.3315C11.3911 13.4413 11.1978 13.5 11 13.5C10.7348 13.5 10.4804 13.3946 10.2929 13.2071C10.1053 13.0196 9.99999 12.7652 9.99999 12.5ZM12.71 18.21C12.5698 18.349 12.3916 18.4435 12.1979 18.4814C12.0041 18.5193 11.8035 18.499 11.6212 18.4231C11.439 18.3472 11.2833 18.219 11.1737 18.0547C11.0642 17.8904 11.0058 17.6974 11.0058 17.5C11.0058 17.3026 11.0642 17.1095 11.1737 16.9453C11.2833 16.781 11.439 16.6528 11.6212 16.5769C11.8035 16.501 12.0041 16.4807 12.1979 16.5186C12.3916 16.5565 12.5698 16.651 12.71 16.79C12.8037 16.883 12.8781 16.9936 12.9289 17.1154C12.9796 17.2373 13.0058 17.368 13.0058 17.5C13.0058 17.632 12.9796 17.7627 12.9289 17.8846C12.8781 18.0064 12.8037 18.117 12.71 18.21ZM15 15.5C14.8022 15.5 14.6089 15.4413 14.4444 15.3315C14.28 15.2216 14.1518 15.0654 14.0761 14.8827C14.0004 14.7 13.9806 14.4989 14.0192 14.3049C14.0578 14.1109 14.153 13.9327 14.2929 13.7929C14.4327 13.653 14.6109 13.5578 14.8049 13.5192C14.9989 13.4806 15.1999 13.5004 15.3827 13.5761C15.5654 13.6518 15.7216 13.78 15.8315 13.9444C15.9413 14.1089 16 14.3022 16 14.5C16 14.7652 15.8946 15.0196 15.7071 15.2071C15.5196 15.3946 15.2652 15.5 15 15.5ZM12 6C14.31 6 15.3 3.76 15.49 2.58C15.5043 2.50937 15.5017 2.43637 15.4826 2.36689C15.4635 2.29741 15.4284 2.23339 15.38 2.18C15.3355 2.12195 15.2778 2.07534 15.2118 2.04404C15.1457 2.01273 15.0731 1.99763 15 2C14.3742 2.06147 13.7731 2.27609 13.2499 2.6249C12.7267 2.9737 12.2974 3.44597 12 4C11.7025 3.44597 11.2733 2.9737 10.7501 2.6249C10.2268 2.27609 9.6258 2.06147 8.99999 2C8.9269 1.99763 8.8543 2.01273 8.78822 2.04404C8.72213 2.07534 8.66446 2.12195 8.61999 2.18C8.5716 2.23339 8.53644 2.29741 8.51734 2.36689C8.49823 2.43637 8.49571 2.50937 8.50999 2.58C8.69999 3.76 9.68999 6 12 6Z" fill="#141414"/>
</svg>
