<svg width="24" height="24" viewBox="0 0 24 24" fill="none" xmlns="http://www.w3.org/2000/svg">
<path d="M15.7001 8.50015C16.3209 8.50141 16.9344 8.63434 17.5001 8.89015C18.0658 8.63434 18.6793 8.50141 19.3001 8.50015C19.5047 8.50479 19.7086 8.52485 19.9101 8.56015C19.7243 7.28725 19.0844 6.1245 18.1085 5.28642C17.1326 4.44834 15.8865 3.99149 14.6001 4.00015C13.2643 4.04167 11.9875 4.55952 11.0001 5.46015C10.0128 4.55952 8.73588 4.04167 7.40011 4.00015C6.68608 3.99475 5.97817 4.13206 5.31795 4.40403C4.65773 4.676 4.0585 5.07715 3.55546 5.58392C3.05242 6.09069 2.6557 6.69286 2.38861 7.35507C2.12152 8.01728 1.98943 8.72619 2.00011 9.44015C2.00011 12.8102 4.63011 15.8702 9.16011 20.0002L9.65011 20.4502C10.0188 20.7875 10.5004 20.9745 11.0001 20.9745C11.4998 20.9745 11.9814 20.7875 12.3501 20.4502L12.8401 20.0102C13.2701 19.6202 13.6701 19.2302 14.0701 18.8602C12.3501 17.1802 11.0001 15.4102 11.0001 13.2202C10.9921 12.5998 11.108 11.9841 11.3412 11.4091C11.5743 10.8341 11.9198 10.3115 12.3576 9.87186C12.7954 9.43223 13.3165 9.08444 13.8905 8.84889C14.4645 8.61334 15.0797 8.49478 15.7001 8.50015ZM19.3001 10.5002C18.6326 10.5227 17.9947 10.7813 17.5001 11.2302C17.0046 10.7828 16.3673 10.5244 15.7001 10.5002C15.3435 10.4988 14.9901 10.5684 14.6606 10.7049C14.3311 10.8413 14.0321 11.0419 13.7808 11.295C13.5296 11.5482 13.3312 11.8487 13.1971 12.1792C13.0631 12.5097 12.9961 12.8635 13.0001 13.2202C13.0001 14.9002 14.3101 16.4302 16.5801 18.5102L16.8201 18.7302C17.0045 18.8988 17.2453 18.9923 17.4951 18.9923C17.745 18.9923 17.9858 18.8988 18.1701 18.7302L18.4201 18.5102C20.6901 16.4302 22.0001 14.9002 22.0001 13.2202C22.0041 12.8635 21.9371 12.5097 21.8031 12.1792C21.6691 11.8487 21.4706 11.5482 21.2194 11.295C20.9682 11.0419 20.6691 10.8413 20.3396 10.7049C20.0101 10.5684 19.6567 10.4988 19.3001 10.5002Z" fill="#141414"/>
</svg>
