<svg width="24" height="24" viewBox="0 0 24 24" fill="none" xmlns="http://www.w3.org/2000/svg">
<path d="M2.58989 9.58999L7.58989 4.58999C7.86891 4.30912 8.22501 4.11737 8.61309 4.03905C9.00117 3.96072 9.40377 3.99933 9.76989 4.14999C10.1348 4.30223 10.4464 4.55923 10.6654 4.88851C10.8843 5.21779 11.0007 5.60458 10.9999 5.99999V7.99999C10.9999 7.99999 21.2499 9.85999 21.9999 19.84C22.0094 19.9872 21.9889 20.1349 21.9396 20.274C21.8904 20.4131 21.8134 20.5407 21.7133 20.6492C21.6133 20.7576 21.4923 20.8447 21.3576 20.905C21.2229 20.9653 21.0774 20.9976 20.9299 21C20.7022 20.992 20.4829 20.9123 20.3033 20.7722C20.1237 20.6321 19.993 20.4389 19.9299 20.22C19.3199 18.39 17.3299 14 10.9999 14V16C11.0007 16.3954 10.8843 16.7822 10.6654 17.1115C10.4464 17.4408 10.1348 17.6978 9.76989 17.85C9.52513 17.9486 9.26377 17.9995 8.99989 18C8.47031 17.9978 7.96324 17.7856 7.58989 17.41L2.58989 12.41C2.21738 12.0353 2.0083 11.5284 2.0083 11C2.0083 10.4716 2.21738 9.96472 2.58989 9.58999Z" fill="#141414"/>
</svg>
