<svg width="24" height="24" viewBox="0 0 24 24" fill="none" xmlns="http://www.w3.org/2000/svg">
<path d="M17.5 10H6.5C6.36739 10 6.24021 10.0527 6.14645 10.1464C6.05268 10.2402 6 10.3674 6 10.5V13.5C6 13.6326 6.05268 13.7598 6.14645 13.8536C6.24021 13.9473 6.36739 14 6.5 14H17.5C17.6326 14 17.7598 13.9473 17.8536 13.8536C17.9473 13.7598 18 13.6326 18 13.5V10.5C18 10.3674 17.9473 10.2402 17.8536 10.1464C17.7598 10.0527 17.6326 10 17.5 10ZM21 6.78V5C21 4.73478 20.8946 4.48043 20.7071 4.29289C20.5196 4.10536 20.2652 4 20 4C19.7348 4 19.4804 4.10536 19.2929 4.29289C19.1054 4.48043 19 4.73478 19 5V6H17V5C17 4.73478 16.8946 4.48043 16.7071 4.29289C16.5196 4.10536 16.2652 4 16 4C15.7348 4 15.4804 4.10536 15.2929 4.29289C15.1054 4.48043 15 4.73478 15 5V6H13V5C13 4.73478 12.8946 4.48043 12.7071 4.29289C12.5196 4.10536 12.2652 4 12 4C11.7348 4 11.4804 4.10536 11.2929 4.29289C11.1054 4.48043 11 4.73478 11 5V6H9V5C9 4.73478 8.89464 4.48043 8.70711 4.29289C8.51957 4.10536 8.26522 4 8 4C7.73478 4 7.48043 4.10536 7.29289 4.29289C7.10536 4.48043 7 4.73478 7 5V6H5V5C5 4.73478 4.89464 4.48043 4.70711 4.29289C4.51957 4.10536 4.26522 4 4 4C3.73478 4 3.48043 4.10536 3.29289 4.29289C3.10536 4.48043 3 4.73478 3 5V6.78C2.6874 7.05959 2.4369 7.40161 2.26465 7.78399C2.09241 8.16637 2.00225 8.58062 2 9V15C2.00225 15.4194 2.09241 15.8336 2.26465 16.216C2.4369 16.5984 2.6874 16.9404 3 17.22V19C3 19.2652 3.10536 19.5196 3.29289 19.7071C3.48043 19.8946 3.73478 20 4 20C4.26522 20 4.51957 19.8946 4.70711 19.7071C4.89464 19.5196 5 19.2652 5 19V18H7V19C7 19.2652 7.10536 19.5196 7.29289 19.7071C7.48043 19.8946 7.73478 20 8 20C8.26522 20 8.51957 19.8946 8.70711 19.7071C8.89464 19.5196 9 19.2652 9 19V18H11V19C11 19.2652 11.1054 19.5196 11.2929 19.7071C11.4804 19.8946 11.7348 20 12 20C12.2652 20 12.5196 19.8946 12.7071 19.7071C12.8946 19.5196 13 19.2652 13 19V18H15V19C15 19.2652 15.1054 19.5196 15.2929 19.7071C15.4804 19.8946 15.7348 20 16 20C16.2652 20 16.5196 19.8946 16.7071 19.7071C16.8946 19.5196 17 19.2652 17 19V18H19V19C19 19.2652 19.1054 19.5196 19.2929 19.7071C19.4804 19.8946 19.7348 20 20 20C20.2652 20 20.5196 19.8946 20.7071 19.7071C20.8946 19.5196 21 19.2652 21 19V17.22C21.3126 16.9404 21.5631 16.5984 21.7353 16.216C21.9076 15.8336 21.9977 15.4194 22 15V9C21.9977 8.58062 21.9076 8.16637 21.7353 7.78399C21.5631 7.40161 21.3126 7.05959 21 6.78ZM20 15C20 15.2652 19.8946 15.5196 19.7071 15.7071C19.5196 15.8946 19.2652 16 19 16H5C4.73478 16 4.48043 15.8946 4.29289 15.7071C4.10536 15.5196 4 15.2652 4 15V9C4 8.73478 4.10536 8.48043 4.29289 8.29289C4.48043 8.10536 4.73478 8 5 8H19C19.2652 8 19.5196 8.10536 19.7071 8.29289C19.8946 8.48043 20 8.73478 20 9V15Z" fill="#141414"/>
</svg>
