<svg width="24" height="24" viewBox="0 0 24 24" fill="none" xmlns="http://www.w3.org/2000/svg">
<path d="M11.6 16H12.4L12 14.92L11.6 16ZM16.12 2.88C15.5579 2.31723 14.7954 2.0007 14 2H10C9.20435 2 8.44129 2.31607 7.87868 2.87868C7.31607 3.44129 7 4.20435 7 5V19C7 19.7956 7.31607 20.5587 7.87868 21.1213C8.44129 21.6839 9.20435 22 10 22H14C14.7956 22 15.5587 21.6839 16.1213 21.1213C16.6839 20.5587 17 19.7956 17 19V5C16.9993 4.20462 16.6828 3.44207 16.12 2.88ZM9 4.8C9.03698 4.60147 9.13319 4.41879 9.27599 4.27599C9.41879 4.13319 9.60147 4.03698 9.8 4C9.995 3.96194 10.1969 3.98283 10.38 4.06C10.564 4.12993 10.7214 4.25585 10.83 4.42C10.9759 4.61153 11.0477 4.84926 11.0324 5.08951C11.0171 5.32977 10.9156 5.55643 10.7466 5.72788C10.5775 5.89932 10.3524 6.00404 10.1123 6.0228C9.87232 6.04156 9.6336 5.9731 9.44 5.83C9.27585 5.72139 9.14993 5.56399 9.08 5.38C8.99607 5.19898 8.9682 4.99699 9 4.8ZM9.42 9.8C9.25585 9.69139 9.12993 9.53399 9.06 9.35C8.98867 9.17596 8.96788 8.98533 9 8.8C9.03698 8.60147 9.13319 8.41879 9.27599 8.27599C9.41879 8.13319 9.60147 8.03697 9.8 8C9.995 7.96194 10.1969 7.98283 10.38 8.06C10.564 8.12993 10.7214 8.25585 10.83 8.42C10.9759 8.61153 11.0477 8.84926 11.0324 9.08951C11.0171 9.32977 10.9156 9.55644 10.7466 9.72788C10.5775 9.89932 10.3524 10.004 10.1123 10.0228C9.87232 10.0416 9.6336 9.9731 9.44 9.83L9.42 9.8ZM13.68 18C13.6204 18.0095 13.5596 18.0095 13.5 18C13.3987 17.9993 13.3 17.9686 13.2163 17.9116C13.1326 17.8546 13.0677 17.774 13.03 17.68L12.78 17H11.22L10.97 17.68C10.9464 17.7417 10.9108 17.7982 10.8653 17.8462C10.8199 17.8941 10.7654 17.9327 10.7051 17.9596C10.6447 17.9865 10.5796 18.0013 10.5136 18.0031C10.4475 18.0049 10.3817 17.9936 10.32 17.97C10.2583 17.9464 10.2018 17.9108 10.1538 17.8653C10.1059 17.8199 10.0673 17.7654 10.0404 17.7051C10.0135 17.6447 9.99867 17.5796 9.99689 17.5136C9.99511 17.4475 10.0064 17.3817 10.03 17.32L11.53 13.32C11.5721 13.231 11.6387 13.1558 11.7219 13.1031C11.8051 13.0504 11.9015 13.0225 12 13.0225C12.0985 13.0225 12.1949 13.0504 12.2781 13.1031C12.3613 13.1558 12.4279 13.231 12.47 13.32L13.97 17.32C13.996 17.3836 14.0091 17.4518 14.0085 17.5206C14.008 17.5893 13.9939 17.6573 13.9669 17.7205C13.9399 17.7837 13.9007 17.841 13.8514 17.889C13.8022 17.937 13.7439 17.9747 13.68 18ZM14.68 9.74C14.5154 9.90475 14.2985 10.0069 14.0666 10.0288C13.8348 10.0507 13.6025 9.99101 13.41 9.86C13.2458 9.75139 13.1199 9.59399 13.05 9.41C12.97 9.21689 12.9525 9.00356 13 8.8C13.037 8.60147 13.1332 8.41879 13.276 8.27599C13.4188 8.13319 13.6015 8.03697 13.8 8C13.995 7.96194 14.1969 7.98283 14.38 8.06C14.564 8.12993 14.7214 8.25585 14.83 8.42C14.961 8.61254 15.0207 8.84477 14.9988 9.07662C14.9769 9.30847 14.8748 9.52541 14.71 9.69L14.68 9.74ZM14.68 5.74C14.5154 5.90475 14.2985 6.0069 14.0666 6.0288C13.8348 6.05071 13.6025 5.99101 13.41 5.86C13.2458 5.75139 13.1199 5.59399 13.05 5.41C12.97 5.21689 12.9525 5.00356 13 4.8C13.037 4.60147 13.1332 4.41879 13.276 4.27599C13.4188 4.13319 13.6015 4.03698 13.8 4C13.995 3.96194 14.1969 3.98283 14.38 4.06C14.564 4.12993 14.7214 4.25585 14.83 4.42C14.961 4.61254 15.0207 4.84477 14.9988 5.07662C14.9769 5.30847 14.8748 5.52541 14.71 5.69L14.68 5.74Z" fill="#141414"/>
</svg>
