<svg width="24" height="24" viewBox="0 0 24 24" fill="none" xmlns="http://www.w3.org/2000/svg">
<path d="M20 12H8C6.9 12 6 12.9 6 14V20C6 21.1 6.9 22 8 22H20C21.1 22 22 21.1 22 20V14C22 12.9 21.1 12 20 12ZM19 18C18.45 18 18 17.55 18 17C18 16.45 18.45 16 19 16C19.55 16 20 16.45 20 17C20 17.55 19.55 18 19 18ZM12 10V4C12 2.9 11.1 2 10 2H4C2.9 2 2 2.9 2 4V16C2 17.1 2.9 18 4 18V14C4 11.79 5.79 10 8 10H12ZM16 4H16.98C17.25 4 17.5 4.1 17.69 4.3C17.88 4.49 17.98 4.74 17.98 5.03V6.58L17.71 6.3C17.32 5.91 16.69 5.91 16.3 6.3C15.91 6.69 15.91 7.32 16.3 7.71L18.3 9.71C18.5 9.91 18.75 10 19.01 10C19.27 10 19.52 9.9 19.72 9.71L21.72 7.71C22.11 7.32 22.11 6.69 21.72 6.3C21.33 5.91 20.7 5.91 20.31 6.3L20.01 6.6V5.03C20.01 4.22 19.7 3.46 19.13 2.89C18.56 2.32 17.81 2 17 2H16.02C15.47 2 15.02 2.45 15.02 3C15.02 3.55 15.47 4 16.02 4H16Z" fill="#141414"/>
</svg>
