<svg width="24" height="24" viewBox="0 0 24 24" fill="none" xmlns="http://www.w3.org/2000/svg">
<path d="M7.71 11.2901C7.61704 11.1964 7.50644 11.122 7.38458 11.0712C7.26272 11.0204 7.13201 10.9943 7 10.9943C6.86799 10.9943 6.73728 11.0204 6.61543 11.0712C6.49357 11.122 6.38297 11.1964 6.29 11.2901L6.07 11.5101C6.16437 10.3697 6.58287 9.28012 7.27613 8.36977C7.96939 7.45943 8.90851 6.7663 9.98274 6.37214C11.057 5.97797 12.2215 5.89921 13.339 6.14512C14.4566 6.39104 15.4805 6.95139 16.29 7.76008C16.4783 7.94839 16.7337 8.05417 17 8.05417C17.2663 8.05417 17.5217 7.94839 17.71 7.76008C17.8983 7.57178 18.0041 7.31638 18.0041 7.05008C18.0041 6.78378 17.8983 6.52839 17.71 6.34008C16.6116 5.24518 15.2187 4.49314 13.7007 4.17548C12.1827 3.85781 10.6051 3.98823 9.15988 4.55085C7.71465 5.11347 6.46412 6.08404 5.56046 7.34444C4.6568 8.60485 4.13897 10.1007 4.07 11.6501L3.71 11.2901C3.5217 11.1018 3.2663 10.996 3 10.996C2.7337 10.996 2.47831 11.1018 2.29 11.2901C2.1017 11.4784 1.99591 11.7338 1.99591 12.0001C1.99591 12.2664 2.1017 12.5218 2.29 12.7101L4.29 14.7101C4.38297 14.8038 4.49357 14.8782 4.61543 14.929C4.73728 14.9797 4.86799 15.0059 5 15.0059C5.13201 15.0059 5.26272 14.9797 5.38458 14.929C5.50644 14.8782 5.61704 14.8038 5.71 14.7101L7.71 12.7101C7.80373 12.6171 7.87812 12.5065 7.92889 12.3847C7.97966 12.2628 8.0058 12.1321 8.0058 12.0001C8.0058 11.8681 7.97966 11.7374 7.92889 11.6155C7.87812 11.4936 7.80373 11.383 7.71 11.2901ZM21.71 11.2901L19.71 9.29008C19.617 9.19635 19.5064 9.12196 19.3846 9.07119C19.2627 9.02042 19.132 8.99428 19 8.99428C18.868 8.99428 18.7373 9.02042 18.6154 9.07119C18.4936 9.12196 18.383 9.19635 18.29 9.29008L16.29 11.2901C16.1968 11.3833 16.1228 11.494 16.0723 11.6158C16.0219 11.7377 15.9959 11.8682 15.9959 12.0001C15.9959 12.2664 16.1017 12.5218 16.29 12.7101C16.4783 12.8984 16.7337 13.0042 17 13.0042C17.1319 13.0042 17.2624 12.9782 17.3843 12.9277C17.5061 12.8773 17.6168 12.8033 17.71 12.7101L17.98 12.4401C17.8689 13.9505 17.1908 15.363 16.0817 16.3942C14.9725 17.4255 13.5145 17.9991 12 18.0001C11.2118 18.0032 10.4308 17.8492 9.70278 17.547C8.97476 17.2448 8.3143 16.8005 7.76 16.2401C7.66676 16.1468 7.55607 16.0729 7.43425 16.0224C7.31243 15.972 7.18186 15.946 7.05 15.946C6.91814 15.946 6.78758 15.972 6.66575 16.0224C6.54393 16.0729 6.43324 16.1468 6.34 16.2401C6.24676 16.3333 6.1728 16.444 6.12234 16.5658C6.07188 16.6877 6.04591 16.8182 6.04591 16.9501C6.04591 17.0819 6.07188 17.2125 6.12234 17.3343C6.1728 17.4562 6.24676 17.5668 6.34 17.6601C7.43494 18.7597 8.82604 19.5171 10.3438 19.84C11.8616 20.163 13.4406 20.0375 14.8883 19.479C16.3361 18.9205 17.5901 17.9529 18.4977 16.6943C19.4053 15.4356 19.9273 13.9401 20 12.3901L20.31 12.7101C20.403 12.8038 20.5136 12.8782 20.6354 12.929C20.7573 12.9797 20.888 13.0059 21.02 13.0059C21.152 13.0059 21.2827 12.9797 21.4046 12.929C21.5264 12.8782 21.637 12.8038 21.73 12.7101C21.8224 12.6158 21.8953 12.5042 21.9443 12.3816C21.9934 12.259 22.0177 12.1279 22.0158 11.9959C22.014 11.8639 21.986 11.7336 21.9335 11.6124C21.881 11.4913 21.805 11.3817 21.71 11.2901Z" fill="#141414"/>
</svg>
