<svg width="24" height="24" viewBox="0 0 24 24" fill="none" xmlns="http://www.w3.org/2000/svg">
<path d="M19.5 12H4.5C4.36739 12 4.24021 12.0527 4.14645 12.1464C4.05268 12.2402 4 12.3674 4 12.5V13.5C4 13.6326 4.05268 13.7598 4.14645 13.8536C4.24021 13.9473 4.36739 14 4.5 14H19.5C19.6326 14 19.7598 13.9473 19.8536 13.8536C19.9473 13.7598 20 13.6326 20 13.5V12.5C20 12.3674 19.9473 12.2402 19.8536 12.1464C19.7598 12.0527 19.6326 12 19.5 12ZM20 9.5C20 9.36739 19.9473 9.24021 19.8536 9.14645C19.7598 9.05268 19.6326 9 19.5 9H4.5C4.36739 9 4.24021 9.05268 4.14645 9.14645C4.05268 9.24021 4 9.36739 4 9.5V10.5C4 10.6326 4.05268 10.7598 4.14645 10.8536C4.24021 10.9473 4.36739 11 4.5 11H19.5C19.6326 11 19.7598 10.9473 19.8536 10.8536C19.9473 10.7598 20 10.6326 20 10.5V9.5ZM4 5H20C20.2652 5 20.5196 4.89464 20.7071 4.70711C20.8946 4.51957 21 4.26522 21 4C21 3.73478 20.8946 3.48043 20.7071 3.29289C20.5196 3.10536 20.2652 3 20 3H4C3.73478 3 3.48043 3.10536 3.29289 3.29289C3.10536 3.48043 3 3.73478 3 4C3 4.26522 3.10536 4.51957 3.29289 4.70711C3.48043 4.89464 3.73478 5 4 5ZM20 19H19V16.5C19 16.3674 18.9473 16.2402 18.8536 16.1464C18.7598 16.0527 18.6326 16 18.5 16H13.5C13.3674 16 13.2402 16.0527 13.1464 16.1464C13.0527 16.2402 13 16.3674 13 16.5V19H11V16.5C11 16.3674 10.9473 16.2402 10.8536 16.1464C10.7598 16.0527 10.6326 16 10.5 16H5.5C5.36739 16 5.24021 16.0527 5.14645 16.1464C5.05268 16.2402 5 16.3674 5 16.5V19H4C3.73478 19 3.48043 19.1054 3.29289 19.2929C3.10536 19.4804 3 19.7348 3 20C3 20.2652 3.10536 20.5196 3.29289 20.7071C3.48043 20.8946 3.73478 21 4 21H20C20.2652 21 20.5196 20.8946 20.7071 20.7071C20.8946 20.5196 21 20.2652 21 20C21 19.7348 20.8946 19.4804 20.7071 19.2929C20.5196 19.1054 20.2652 19 20 19ZM20 6.5C20 6.36739 19.9473 6.24021 19.8536 6.14645C19.7598 6.05268 19.6326 6 19.5 6H4.5C4.36739 6 4.24021 6.05268 4.14645 6.14645C4.05268 6.24021 4 6.36739 4 6.5V7.5C4 7.63261 4.05268 7.75979 4.14645 7.85355C4.24021 7.94732 4.36739 8 4.5 8H19.5C19.6326 8 19.7598 7.94732 19.8536 7.85355C19.9473 7.75979 20 7.63261 20 7.5V6.5Z" fill="#141414"/>
</svg>
