<svg width="24" height="24" viewBox="0 0 24 24" fill="none" xmlns="http://www.w3.org/2000/svg">
<path d="M11.9999 4.00001C9.94406 3.99756 7.96617 4.78667 6.47661 6.20362C4.98704 7.62057 4.10014 9.55659 3.99992 11.61L3.68992 11.29C3.50162 11.1017 3.24622 10.9959 2.97992 10.9959C2.71362 10.9959 2.45823 11.1017 2.26992 11.29C2.08162 11.4783 1.97583 11.7337 1.97583 12C1.97583 12.2663 2.08162 12.5217 2.26992 12.71L4.26992 14.71C4.36288 14.8037 4.47349 14.8781 4.59535 14.9289C4.7172 14.9797 4.84791 15.0058 4.97992 15.0058C5.11193 15.0058 5.24264 14.9797 5.3645 14.9289C5.48636 14.8781 5.59696 14.8037 5.68992 14.71L7.68992 12.71C7.78316 12.6168 7.85712 12.5061 7.90758 12.3843C7.95804 12.2624 7.98401 12.1319 7.98401 12C7.98401 11.8681 7.95804 11.7376 7.90758 11.6158C7.85712 11.4939 7.78316 11.3832 7.68992 11.29C7.59668 11.1968 7.48599 11.1228 7.36417 11.0723C7.24235 11.0219 7.11178 10.9959 6.97992 10.9959C6.84806 10.9959 6.71749 11.0219 6.59567 11.0723C6.47385 11.1228 6.36316 11.1968 6.26992 11.29L5.99992 11.56C6.09785 10.1974 6.65787 8.90892 7.58739 7.90773C8.51692 6.90654 9.76029 6.25254 11.1119 6.05386C12.4636 5.85518 13.8425 6.12373 15.0209 6.81509C16.1992 7.50646 17.1063 8.57924 17.5922 9.85608C18.0781 11.1329 18.1137 12.5373 17.6931 13.8372C17.2725 15.137 16.421 16.2543 15.2792 17.0045C14.1374 17.7547 12.7739 18.0928 11.4139 17.9629C10.0539 17.833 8.77899 17.2428 7.79992 16.29C7.71107 16.1807 7.60011 16.0913 7.47432 16.0278C7.34853 15.9644 7.21075 15.9282 7.07 15.9217C6.92925 15.9152 6.78872 15.9385 6.65761 15.9901C6.5265 16.0417 6.40778 16.1204 6.30922 16.2211C6.21066 16.3218 6.13449 16.4422 6.0857 16.5744C6.03691 16.7065 6.01661 16.8475 6.02612 16.9881C6.03562 17.1287 6.07473 17.2657 6.14087 17.3901C6.20702 17.5145 6.2987 17.6235 6.40992 17.71C7.89753 19.1819 9.90722 20.0052 11.9999 20C14.1217 20 16.1565 19.1572 17.6568 17.6569C19.1571 16.1566 19.9999 14.1217 19.9999 12C19.9999 9.87827 19.1571 7.84344 17.6568 6.34315C16.1565 4.84286 14.1217 4.00001 11.9999 4.00001Z" fill="#141414"/>
</svg>
