<svg width="24" height="24" viewBox="0 0 24 24" fill="none" xmlns="http://www.w3.org/2000/svg">
<path d="M12 8C12.5933 8 13.1734 7.82405 13.6667 7.49441C14.1601 7.16477 14.5446 6.69623 14.7716 6.14805C14.9987 5.59987 15.0581 4.99667 14.9424 4.41473C14.8266 3.83279 14.5409 3.29824 14.1213 2.87868C13.7018 2.45912 13.1672 2.1734 12.5853 2.05765C12.0033 1.94189 11.4001 2.0013 10.852 2.22836C10.3038 2.45543 9.83524 2.83994 9.50559 3.33329C9.17595 3.82664 9 4.40666 9 5C9 5.79565 9.31607 6.55871 9.87868 7.12132C10.4413 7.68393 11.2044 8 12 8ZM19.5 13H21V10C21.0004 9.66861 20.9185 9.34231 20.7616 9.05042C20.6047 8.75853 20.3777 8.5102 20.1011 8.32776C19.8245 8.14531 19.5068 8.03447 19.1767 8.00519C18.8466 7.9759 18.5144 8.0291 18.21 8.16L14.72 9.66C13.879 9.22591 12.9464 8.99939 12 8.99939C11.0536 8.99939 10.121 9.22591 9.28 9.66L5.79 8.16C5.48556 8.0291 5.15337 7.9759 4.82328 8.00519C4.49319 8.03447 4.17554 8.14531 3.8989 8.32776C3.62226 8.5102 3.39528 8.75853 3.23838 9.05042C3.08148 9.34231 2.99956 9.66861 3 10V13H4.5C4.89783 13 5.27936 13.158 5.56066 13.4393C5.84197 13.7206 6 14.1022 6 14.5C6 14.8978 5.84197 15.2794 5.56066 15.5607C5.27936 15.842 4.89783 16 4.5 16H3V17C2.99949 17.3915 3.11386 17.7745 3.32895 18.1015C3.54403 18.4286 3.85038 18.6854 4.21 18.84L11.21 21.84H11.36L11.5 21.89C11.8268 21.9834 12.1732 21.9834 12.5 21.89L12.64 21.84H12.79L19.79 18.84C20.1496 18.6854 20.456 18.4286 20.6711 18.1015C20.8861 17.7745 21.0005 17.3915 21 17V16H19.5C19.1022 16 18.7206 15.842 18.4393 15.5607C18.158 15.2794 18 14.8978 18 14.5C18 14.1022 18.158 13.7206 18.4393 13.4393C18.7206 13.158 19.1022 13 19.5 13Z" fill="#141414"/>
</svg>
