<svg width="24" height="24" viewBox="0 0 24 24" fill="none" xmlns="http://www.w3.org/2000/svg">
<path d="M14.5 6C14.7967 6 15.0867 5.91203 15.3334 5.7472C15.58 5.58238 15.7723 5.34811 15.8858 5.07403C15.9994 4.79994 16.0291 4.49834 15.9712 4.20737C15.9133 3.91639 15.7704 3.64912 15.5607 3.43934C15.3509 3.22956 15.0836 3.0867 14.7926 3.02882C14.5017 2.97094 14.2001 3.00065 13.926 3.11418C13.6519 3.22771 13.4176 3.41997 13.2528 3.66665C13.088 3.91332 13 4.20333 13 4.5C13 4.89783 13.158 5.27936 13.4393 5.56066C13.7206 5.84197 14.1022 6 14.5 6ZM20 9.68C19.9583 9.55506 19.8922 9.43959 19.8057 9.34024C19.7192 9.24089 19.6139 9.1596 19.4959 9.10106C19.3779 9.04252 19.2495 9.00787 19.1181 8.99911C18.9866 8.99035 18.8547 9.00764 18.73 9.05L16.73 9.72C16.576 9.77159 16.4117 9.78489 16.2515 9.75875C16.0912 9.73262 15.9396 9.66783 15.81 9.57L12.92 7.44C12.6008 7.20053 12.237 7.02715 11.85 6.93L9.1 6.25C8.69503 6.14825 8.27328 6.13216 7.86173 6.20276C7.45018 6.27336 7.05791 6.4291 6.71 6.66L4.45 8.17C4.32739 8.23577 4.21985 8.32641 4.13426 8.43611C4.04867 8.54581 3.98692 8.67217 3.95295 8.8071C3.91898 8.94203 3.91355 9.08257 3.93699 9.21972C3.96044 9.35687 4.01225 9.48762 4.0891 9.60361C4.16596 9.71959 4.26618 9.81826 4.38335 9.89331C4.50052 9.96835 4.63206 10.0181 4.76955 10.0394C4.90705 10.0607 5.04749 10.0531 5.18187 10.0171C5.31626 9.98099 5.44164 9.91728 5.55 9.83L7.82 8.32C7.9376 8.24522 8.06879 8.19437 8.20606 8.17034C8.34333 8.14632 8.484 8.1496 8.62 8.18L11 8.78L7.62 16.41C7.54044 16.587 7.41109 16.737 7.24773 16.8418C7.08437 16.9466 6.89406 17.0015 6.7 17H4C3.73478 17 3.48043 17.1054 3.29289 17.2929C3.10536 17.4804 3 17.7348 3 18C3 18.2652 3.10536 18.5196 3.29289 18.7071C3.48043 18.8946 3.73478 19 4 19H6.7C7.27989 18.9999 7.84731 18.8317 8.33359 18.5158C8.81987 18.1998 9.20418 17.7498 9.44 17.22L10.5 14.84C10.5563 14.8825 10.6166 14.9193 10.68 14.95L12.58 15.58C12.748 15.6347 12.8985 15.7329 13.0161 15.8646C13.1338 15.9964 13.2145 16.1569 13.25 16.33L14 20.2C14.0468 20.4293 14.1724 20.6349 14.3551 20.7811C14.5379 20.9272 14.7661 21.0047 15 21H15.2C15.3326 20.9762 15.459 20.9259 15.5716 20.8521C15.6843 20.7783 15.7809 20.6825 15.8556 20.5704C15.9303 20.4583 15.9816 20.3323 16.0064 20.1999C16.0312 20.0676 16.0291 19.9315 16 19.8L15.23 15.94C15.126 15.4202 14.8862 14.9372 14.5349 14.5402C14.1836 14.1432 13.7333 13.8464 13.23 13.68L11.34 13.05L12.74 9.8L14.56 11.17C15.0793 11.5595 15.7109 11.77 16.36 11.77C16.6826 11.7699 17.0031 11.7193 17.31 11.62L19.31 10.95C19.4403 10.9146 19.5621 10.8531 19.6681 10.7693C19.774 10.6855 19.8619 10.5811 19.9263 10.4624C19.9908 10.3437 20.0306 10.2132 20.0433 10.0788C20.0559 9.94428 20.0412 9.80863 20 9.68Z" fill="#141414"/>
</svg>
