<svg width="24" height="24" viewBox="0 0 24 24" fill="none" xmlns="http://www.w3.org/2000/svg">
<path d="M20.4099 6.58989L17.4099 3.58989C17.0352 3.21738 16.5283 3.0083 15.9999 3.0083C15.4715 3.0083 14.9646 3.21738 14.5899 3.58989L14.2899 3.87989L15.7099 5.28989C15.8036 5.38285 15.878 5.49345 15.9288 5.61531C15.9795 5.73717 16.0057 5.86787 16.0057 5.99989C16.0057 6.1319 15.9795 6.2626 15.9288 6.38446C15.878 6.50632 15.8036 6.61692 15.7099 6.70989C15.6169 6.80361 15.5063 6.87801 15.3845 6.92878C15.2626 6.97955 15.1319 7.00568 14.9999 7.00568C14.8679 7.00568 14.7372 6.97955 14.6153 6.92878C14.4935 6.87801 14.3828 6.80361 14.2899 6.70989L12.8799 5.28989L11.2899 6.87989L14.7099 10.2899C14.8036 10.3828 14.878 10.4935 14.9288 10.6153C14.9795 10.7372 15.0057 10.8679 15.0057 10.9999C15.0057 11.1319 14.9795 11.2626 14.9288 11.3845C14.878 11.5063 14.8036 11.6169 14.7099 11.7099C14.6169 11.8036 14.5063 11.878 14.3845 11.9288C14.2626 11.9795 14.1319 12.0057 13.9999 12.0057C13.8679 12.0057 13.7372 11.9795 13.6153 11.9288C13.4935 11.878 13.3828 11.8036 13.2899 11.7099L9.87989 8.28989L8.28989 9.87989L9.70989 11.2899C9.80362 11.3828 9.87801 11.4935 9.92878 11.6153C9.97955 11.7372 10.0057 11.8679 10.0057 11.9999C10.0057 12.1319 9.97955 12.2626 9.92878 12.3845C9.87801 12.5063 9.80362 12.6169 9.70989 12.7099C9.61692 12.8036 9.50632 12.878 9.38446 12.9288C9.2626 12.9795 9.1319 13.0057 8.99989 13.0057C8.86787 13.0057 8.73717 12.9795 8.61531 12.9288C8.49345 12.878 8.38285 12.8036 8.28989 12.7099L6.87989 11.2899L5.28989 12.8799L8.70989 16.2899C8.80362 16.3829 8.87801 16.4935 8.92878 16.6153C8.97955 16.7372 9.00568 16.8679 9.00568 16.9999C9.00568 17.1319 8.97955 17.2626 8.92878 17.3845C8.87801 17.5063 8.80362 17.6169 8.70989 17.7099C8.61692 17.8036 8.50632 17.878 8.38446 17.9288C8.2626 17.9795 8.1319 18.0057 7.99989 18.0057C7.86787 18.0057 7.73717 17.9795 7.61531 17.9288C7.49345 17.878 7.38285 17.8036 7.28989 17.7099L3.87989 14.2899L3.58989 14.5899C3.21738 14.9646 3.0083 15.4715 3.0083 15.9999C3.0083 16.5283 3.21738 17.0352 3.58989 17.4099L6.58989 20.4099C6.96461 20.7824 7.47152 20.9915 7.99989 20.9915C8.52826 20.9915 9.03516 20.7824 9.40989 20.4099L20.4099 9.40989C20.7824 9.03516 20.9915 8.52826 20.9915 7.99989C20.9915 7.47152 20.7824 6.96461 20.4099 6.58989Z" fill="#141414"/>
</svg>
