<svg width="24" height="24" viewBox="0 0 24 24" fill="none" xmlns="http://www.w3.org/2000/svg">
<path d="M19 2H5C4.73478 2 4.48043 2.10536 4.29289 2.29289C4.10536 2.48043 4 2.73478 4 3C4 3.26522 4.10536 3.51957 4.29289 3.70711C4.48043 3.89464 4.73478 4 5 4H6V16C6 17.5913 6.63214 19.1174 7.75736 20.2426C8.88258 21.3679 10.4087 22 12 22C13.5913 22 15.1174 21.3679 16.2426 20.2426C17.3679 19.1174 18 17.5913 18 16V4H19C19.2652 4 19.5196 3.89464 19.7071 3.70711C19.8946 3.51957 20 3.26522 20 3C20 2.73478 19.8946 2.48043 19.7071 2.29289C19.5196 2.10536 19.2652 2 19 2ZM10.75 13.5C10.5028 13.5 10.2611 13.4267 10.0555 13.2893C9.84998 13.152 9.68976 12.9568 9.59515 12.7284C9.50054 12.4999 9.47579 12.2486 9.52402 12.0061C9.57225 11.7637 9.6913 11.5409 9.86612 11.3661C10.0409 11.1913 10.2637 11.0722 10.5061 11.024C10.7486 10.9758 10.9999 11.0005 11.2284 11.0952C11.4568 11.1898 11.652 11.35 11.7893 11.5555C11.9267 11.7611 12 12.0028 12 12.25C12 12.4142 11.9677 12.5767 11.9048 12.7284C11.842 12.88 11.75 13.0178 11.6339 13.1339C11.5178 13.25 11.38 13.342 11.2284 13.4048C11.0767 13.4677 10.9142 13.5 10.75 13.5ZM13.5 17C13.3022 17 13.1089 16.9414 12.9444 16.8315C12.78 16.7216 12.6518 16.5654 12.5761 16.3827C12.5004 16.2 12.4806 15.9989 12.5192 15.8049C12.5578 15.6109 12.653 15.4327 12.7929 15.2929C12.9327 15.153 13.1109 15.0578 13.3049 15.0192C13.4989 14.9806 13.7 15.0004 13.8827 15.0761C14.0654 15.1518 14.2216 15.28 14.3315 15.4444C14.4414 15.6089 14.5 15.8022 14.5 16C14.5 16.2652 14.3946 16.5196 14.2071 16.7071C14.0196 16.8946 13.7652 17 13.5 17ZM13.5 10C13.2033 10 12.9133 9.91203 12.6666 9.7472C12.42 9.58238 12.2277 9.34811 12.1142 9.07403C12.0006 8.79994 11.9709 8.49834 12.0288 8.20736C12.0867 7.91639 12.2296 7.64912 12.4393 7.43934C12.6491 7.22956 12.9164 7.0867 13.2074 7.02882C13.4983 6.97094 13.7999 7.00065 14.074 7.11418C14.3481 7.22771 14.5824 7.41997 14.7472 7.66664C14.912 7.91332 15 8.20333 15 8.5C15 8.89782 14.842 9.27936 14.5607 9.56066C14.2794 9.84196 13.8978 10 13.5 10Z" fill="#141414"/>
</svg>
