<svg width="24" height="24" viewBox="0 0 24 24" fill="none" xmlns="http://www.w3.org/2000/svg">
<path d="M19 15.0002H15C14.2044 15.0002 13.4413 15.3162 12.8787 15.8789C12.3161 16.4415 12 17.2045 12 18.0002C12 18.2654 11.8946 18.5197 11.7071 18.7073C11.5196 18.8948 11.2652 19.0002 11 19.0002H7C6.73478 19.0002 6.48043 19.1055 6.29289 19.2931C6.10536 19.4806 6 19.735 6 20.0002C6 20.2654 6.10536 20.5197 6.29289 20.7073C6.48043 20.8948 6.73478 21.0002 7 21.0002H11C11.7956 21.0002 12.5587 20.6841 13.1213 20.1215C13.6839 19.5589 14 18.7958 14 18.0002C14 17.735 14.1054 17.4806 14.2929 17.2931C14.4804 17.1055 14.7348 17.0002 15 17.0002H19C19.2652 17.0002 19.5196 16.8948 19.7071 16.7073C19.8946 16.5197 20 16.2654 20 16.0002C20 15.735 19.8946 15.4806 19.7071 15.2931C19.5196 15.1055 19.2652 15.0002 19 15.0002ZM17 13.0002C17.1316 13.0009 17.2621 12.9757 17.3839 12.9259C17.5057 12.8762 17.6166 12.8029 17.71 12.7102C18 12.3702 21 9.34017 21 6.80017C20.966 5.76834 20.5274 4.79132 19.7789 4.08026C19.0304 3.36921 18.0322 2.98123 17 3.00017C15.9678 2.98123 14.9696 3.36921 14.2211 4.08026C13.4726 4.79132 13.034 5.76834 13 6.80017C13 9.34017 16 12.3702 16.29 12.7102C16.3834 12.8029 16.4943 12.8762 16.6161 12.9259C16.7379 12.9757 16.8684 13.0009 17 13.0002ZM16 7.00017C16 6.80239 16.0586 6.60905 16.1685 6.4446C16.2784 6.28016 16.4346 6.15198 16.6173 6.07629C16.8 6.00061 17.0011 5.9808 17.1951 6.01939C17.3891 6.05797 17.5673 6.15322 17.7071 6.29307C17.847 6.43292 17.9422 6.6111 17.9808 6.80508C18.0194 6.99907 17.9996 7.20013 17.9239 7.38286C17.8482 7.56558 17.72 7.72176 17.5556 7.83164C17.3911 7.94153 17.1978 8.00017 17 8.00017C16.7348 8.00017 16.4804 7.89482 16.2929 7.70728C16.1054 7.51974 16 7.26539 16 7.00017ZM7 17.0002C7.13161 17.0009 7.26207 16.9757 7.38391 16.9259C7.50574 16.8762 7.61656 16.8029 7.71 16.7102C8 16.3702 11 13.3402 11 10.8002C10.966 9.76834 10.5274 8.79132 9.77891 8.08027C9.03043 7.36921 8.03222 6.98123 7 7.00017C5.96778 6.98123 4.96957 7.36921 4.22109 8.08027C3.4726 8.79132 3.03398 9.76834 3 10.8002C3 13.3402 6 16.3702 6.29 16.7102C6.38344 16.8029 6.49426 16.8762 6.61609 16.9259C6.73793 16.9757 6.86839 17.0009 7 17.0002ZM6 11.0002C6 10.8024 6.05865 10.6091 6.16853 10.4446C6.27841 10.2802 6.43459 10.152 6.61732 10.0763C6.80004 10.0006 7.00111 9.9808 7.19509 10.0194C7.38907 10.058 7.56725 10.1532 7.70711 10.2931C7.84696 10.4329 7.9422 10.6111 7.98079 10.8051C8.01937 10.9991 7.99957 11.2001 7.92388 11.3829C7.84819 11.5656 7.72002 11.7218 7.55557 11.8316C7.39112 11.9415 7.19778 12.0002 7 12.0002C6.73478 12.0002 6.48043 11.8948 6.29289 11.7073C6.10536 11.5197 6 11.2654 6 11.0002Z" fill="#141414"/>
</svg>
