<svg width="24" height="24" viewBox="0 0 24 24" fill="none" xmlns="http://www.w3.org/2000/svg">
<path d="M4.14014 16.1402C4.01958 16.021 3.8707 15.9345 3.70749 15.8886C3.54428 15.8428 3.3721 15.8392 3.20713 15.8782C3.04215 15.9172 2.8898 15.9975 2.76438 16.1116C2.63896 16.2256 2.54459 16.3697 2.49014 16.5302L2.22014 17.3402C2.19484 17.4151 2.18766 17.495 2.19921 17.5732C2.21075 17.6515 2.24069 17.7258 2.28656 17.7903C2.33244 17.8547 2.39294 17.9073 2.46309 17.9438C2.53325 17.9803 2.61106 17.9996 2.69014 18.0002H4.00014L2.67014 20.6602C2.62369 20.754 2.60783 20.8599 2.62477 20.9632C2.64172 21.0664 2.69063 21.1617 2.76462 21.2357C2.8386 21.3097 2.93393 21.3586 3.03718 21.3756C3.14043 21.3925 3.24639 21.3767 3.34014 21.3302L6.00014 20.0002V21.3102C6.00073 21.3893 6.02006 21.4671 6.05656 21.5373C6.09306 21.6074 6.14568 21.6679 6.21009 21.7138C6.27451 21.7597 6.34889 21.7896 6.42713 21.8011C6.50536 21.8127 6.58522 21.8055 6.66014 21.7802L7.46014 21.5102C7.62146 21.4569 7.76654 21.3634 7.8817 21.2385C7.99685 21.1136 8.07829 20.9614 8.11831 20.7963C8.15834 20.6312 8.15564 20.4586 8.11047 20.2948C8.0653 20.131 7.97915 19.9815 7.86014 19.8602L4.14014 16.1402ZM20.3101 2.14021C16.9788 2.29963 13.7388 3.28226 10.8801 5.0002H7.24014C6.86806 5.0004 6.50341 5.10439 6.18719 5.30048C5.87097 5.49658 5.61572 5.77699 5.45014 6.11021L2.72014 11.5502C2.64305 11.7032 2.60655 11.8734 2.61414 12.0446C2.62174 12.2157 2.67317 12.382 2.76352 12.5276C2.85386 12.6731 2.98009 12.7931 3.13009 12.8758C3.28009 12.9586 3.44883 13.0014 3.62014 13.0002H5.19014C5.13014 13.3302 5.07014 13.6502 5.04014 14.0002C5.01216 14.2978 5.04957 14.5978 5.14976 14.8794C5.24995 15.161 5.4105 15.4172 5.62014 15.6302L8.38014 18.3902C8.58934 18.6039 8.84275 18.7692 9.1226 18.8746C9.40245 18.98 9.70197 19.0228 10.0001 19.0002C10.3401 19.0002 10.6601 18.9102 11.0001 18.8602V20.4202C10.9989 20.5915 11.0418 20.7603 11.1245 20.9103C11.2073 21.0603 11.3272 21.1865 11.4728 21.2768C11.6183 21.3672 11.7846 21.4186 11.9558 21.4262C12.1269 21.4338 12.2972 21.3973 12.4501 21.3202L17.8901 18.5902C18.2295 18.4217 18.514 18.1602 18.7105 17.8362C18.9071 17.5122 19.0075 17.1391 19.0001 16.7602V13.1602C20.7478 10.2964 21.7516 7.04095 21.9201 3.6902C21.9318 3.47617 21.8981 3.26208 21.8212 3.06199C21.7443 2.86191 21.6259 2.68036 21.4738 2.52926C21.3218 2.37816 21.1395 2.26092 20.939 2.18525C20.7384 2.10959 20.5241 2.07719 20.3101 2.0902V2.14021ZM12.0001 14.0002C11.6046 14.0002 11.2179 13.8829 10.889 13.6631C10.5601 13.4434 10.3038 13.131 10.1524 12.7656C10.001 12.4001 9.9614 11.998 10.0386 11.61C10.1157 11.2221 10.3062 10.8657 10.5859 10.586C10.8656 10.3063 11.222 10.1158 11.61 10.0386C11.9979 9.96146 12.4001 10.0011 12.7655 10.1524C13.131 10.3038 13.4433 10.5602 13.6631 10.8891C13.8828 11.218 14.0001 11.6046 14.0001 12.0002C14.0001 12.5306 13.7894 13.0393 13.4144 13.4144C13.0393 13.7895 12.5306 14.0002 12.0001 14.0002Z" fill="#141414"/>
</svg>
