<svg width="24" height="24" viewBox="0 0 24 24" fill="none" xmlns="http://www.w3.org/2000/svg">
<path d="M14 2H10C9.20435 2 8.44129 2.31607 7.87868 2.87868C7.31607 3.44129 7 4.20435 7 5V19C7 19.7956 7.31607 20.5587 7.87868 21.1213C8.44129 21.6839 9.20435 22 10 22H14C14.7956 22 15.5587 21.6839 16.1213 21.1213C16.6839 20.5587 17 19.7956 17 19V5C17 4.20435 16.6839 3.44129 16.1213 2.87868C15.5587 2.31607 14.7956 2 14 2ZM10 14C9.80222 14 9.60888 13.9414 9.44443 13.8315C9.27998 13.7216 9.15181 13.5654 9.07612 13.3827C9.00043 13.2 8.98063 12.9989 9.01921 12.8049C9.0578 12.6109 9.15304 12.4327 9.29289 12.2929C9.43275 12.153 9.61093 12.0578 9.80491 12.0192C9.99889 11.9806 10.2 12.0004 10.3827 12.0761C10.5654 12.1518 10.7216 12.28 10.8315 12.4444C10.9414 12.6089 11 12.8022 11 13C11 13.2652 10.8946 13.5196 10.7071 13.7071C10.5196 13.8946 10.2652 14 10 14ZM10 10C9.80222 10 9.60888 9.94135 9.44443 9.83147C9.27998 9.72159 9.15181 9.56541 9.07612 9.38268C9.00043 9.19996 8.98063 8.99889 9.01921 8.80491C9.0578 8.61093 9.15304 8.43275 9.29289 8.29289C9.43275 8.15304 9.61093 8.0578 9.80491 8.01921C9.99889 7.98063 10.2 8.00043 10.3827 8.07612C10.5654 8.15181 10.7216 8.27998 10.8315 8.44443C10.9414 8.60888 11 8.80222 11 9C11 9.26522 10.8946 9.51957 10.7071 9.70711C10.5196 9.89464 10.2652 10 10 10ZM10 6C9.80222 6 9.60888 5.94135 9.44443 5.83147C9.27998 5.72159 9.15181 5.56541 9.07612 5.38268C9.00043 5.19996 8.98063 4.99889 9.01921 4.80491C9.0578 4.61093 9.15304 4.43275 9.29289 4.29289C9.43275 4.15304 9.61093 4.0578 9.80491 4.01921C9.99889 3.98063 10.2 4.00043 10.3827 4.07612C10.5654 4.15181 10.7216 4.27998 10.8315 4.44443C10.9414 4.60888 11 4.80222 11 5C11 5.26522 10.8946 5.51957 10.7071 5.70711C10.5196 5.89464 10.2652 6 10 6ZM14 14C13.8022 14 13.6089 13.9414 13.4444 13.8315C13.28 13.7216 13.1518 13.5654 13.0761 13.3827C13.0004 13.2 12.9806 12.9989 13.0192 12.8049C13.0578 12.6109 13.153 12.4327 13.2929 12.2929C13.4327 12.153 13.6109 12.0578 13.8049 12.0192C13.9989 11.9806 14.2 12.0004 14.3827 12.0761C14.5654 12.1518 14.7216 12.28 14.8315 12.4444C14.9414 12.6089 15 12.8022 15 13C15 13.2652 14.8946 13.5196 14.7071 13.7071C14.5196 13.8946 14.2652 14 14 14ZM14 10C13.8022 10 13.6089 9.94135 13.4444 9.83147C13.28 9.72159 13.1518 9.56541 13.0761 9.38268C13.0004 9.19996 12.9806 8.99889 13.0192 8.80491C13.0578 8.61093 13.153 8.43275 13.2929 8.29289C13.4327 8.15304 13.6109 8.0578 13.8049 8.01921C13.9989 7.98063 14.2 8.00043 14.3827 8.07612C14.5654 8.15181 14.7216 8.27998 14.8315 8.44443C14.9414 8.60888 15 8.80222 15 9C15 9.26522 14.8946 9.51957 14.7071 9.70711C14.5196 9.89464 14.2652 10 14 10ZM14 6C13.8022 6 13.6089 5.94135 13.4444 5.83147C13.28 5.72159 13.1518 5.56541 13.0761 5.38268C13.0004 5.19996 12.9806 4.99889 13.0192 4.80491C13.0578 4.61093 13.153 4.43275 13.2929 4.29289C13.4327 4.15304 13.6109 4.0578 13.8049 4.01921C13.9989 3.98063 14.2 4.00043 14.3827 4.07612C14.5654 4.15181 14.7216 4.27998 14.8315 4.44443C14.9414 4.60888 15 4.80222 15 5C15 5.26522 14.8946 5.51957 14.7071 5.70711C14.5196 5.89464 14.2652 6 14 6Z" fill="#141414"/>
</svg>
