<svg width="24" height="24" viewBox="0 0 24 24" fill="none" xmlns="http://www.w3.org/2000/svg">
<path d="M16 7.00002H20C19.9978 6.47044 19.7856 5.96337 19.41 5.59002L16.41 2.59002C16.0367 2.21443 15.5296 2.00225 15 2.00002V6.00002C15 6.26524 15.1054 6.51959 15.2929 6.70713C15.4804 6.89466 15.7348 7.00002 16 7.00002ZM13.88 8.12002C13.3173 7.55795 13.0007 6.7954 13 6.00002V2.00002H6.50002C6.17135 1.9987 5.84566 2.06246 5.54175 2.18763C5.23784 2.3128 4.96171 2.49689 4.7293 2.7293C4.49689 2.96171 4.3128 3.23784 4.18763 3.54175C4.06246 3.84566 3.9987 4.17135 4.00002 4.50002V19.5C3.9987 19.8287 4.06246 20.1544 4.18763 20.4583C4.3128 20.7622 4.49689 21.0383 4.7293 21.2707C4.96171 21.5031 5.23784 21.6872 5.54175 21.8124C5.84566 21.9376 6.17135 22.0013 6.50002 22H17.5C17.8287 22.0013 18.1544 21.9376 18.4583 21.8124C18.7622 21.6872 19.0383 21.5031 19.2707 21.2707C19.5031 21.0383 19.6872 20.7622 19.8124 20.4583C19.9376 20.1544 20.0013 19.8287 20 19.5V9.00002H16C15.2046 8.99932 14.4421 8.68279 13.88 8.12002ZM8.00002 18.5C7.70335 18.5 7.41334 18.412 7.16666 18.2472C6.91999 18.0824 6.72773 17.8481 6.6142 17.574C6.50067 17.3 6.47096 16.9984 6.52884 16.7074C6.58672 16.4164 6.72958 16.1491 6.93936 15.9394C7.14914 15.7296 7.41641 15.5867 7.70738 15.5288C7.99836 15.471 8.29996 15.5007 8.57405 15.6142C8.84813 15.7277 9.0824 15.92 9.24722 16.1667C9.41205 16.4133 9.50002 16.7033 9.50002 17C9.50002 17.3978 9.34198 17.7794 9.06068 18.0607C8.77938 18.342 8.39784 18.5 8.00002 18.5ZM8.00002 13.5C7.70335 13.5 7.41334 13.412 7.16666 13.2472C6.91999 13.0824 6.72773 12.8481 6.6142 12.574C6.50067 12.3 6.47096 11.9984 6.52884 11.7074C6.58672 11.4164 6.72958 11.1491 6.93936 10.9394C7.14914 10.7296 7.41641 10.5867 7.70738 10.5288C7.99836 10.471 8.29996 10.5007 8.57405 10.6142C8.84813 10.7277 9.0824 10.92 9.24722 11.1667C9.41205 11.4133 9.50002 11.7033 9.50002 12C9.50002 12.3978 9.34198 12.7794 9.06068 13.0607C8.77938 13.342 8.39784 13.5 8.00002 13.5ZM8.00002 8.50002C7.70335 8.50002 7.41334 8.41205 7.16666 8.24722C6.91999 8.0824 6.72773 7.84813 6.6142 7.57405C6.50067 7.29996 6.47096 6.99836 6.52884 6.70738C6.58672 6.41641 6.72958 6.14914 6.93936 5.93936C7.14914 5.72958 7.41641 5.58672 7.70738 5.52884C7.99836 5.47096 8.29996 5.50067 8.57405 5.6142C8.84813 5.72773 9.0824 5.91999 9.24722 6.16666C9.41205 6.41334 9.50002 6.70335 9.50002 7.00002C9.50002 7.39784 9.34198 7.77938 9.06068 8.06068C8.77938 8.34198 8.39784 8.50002 8.00002 8.50002ZM16 18H12C11.7348 18 11.4804 17.8947 11.2929 17.7071C11.1054 17.5196 11 17.2652 11 17C11 16.7348 11.1054 16.4804 11.2929 16.2929C11.4804 16.1054 11.7348 16 12 16H16C16.2652 16 16.5196 16.1054 16.7071 16.2929C16.8947 16.4804 17 16.7348 17 17C17 17.2652 16.8947 17.5196 16.7071 17.7071C16.5196 17.8947 16.2652 18 16 18ZM17 12C17 12.2652 16.8947 12.5196 16.7071 12.7071C16.5196 12.8947 16.2652 13 16 13H12C11.7348 13 11.4804 12.8947 11.2929 12.7071C11.1054 12.5196 11 12.2652 11 12C11 11.7348 11.1054 11.4804 11.2929 11.2929C11.4804 11.1054 11.7348 11 12 11H16C16.2652 11 16.5196 11.1054 16.7071 11.2929C16.8947 11.4804 17 11.7348 17 12Z" fill="#141414"/>
</svg>
