<svg width="24" height="24" viewBox="0 0 24 24" fill="none" xmlns="http://www.w3.org/2000/svg">
<path d="M14 14C14.2652 14 14.5196 13.8946 14.7071 13.7071C14.8946 13.5196 15 13.2652 15 13C15 12.7348 14.8946 12.4804 14.7071 12.2929C14.5196 12.1054 14.2652 12 14 12H12V9.00001C12 8.73479 11.8946 8.48044 11.7071 8.2929C11.5196 8.10536 11.2652 8.00001 11 8.00001C10.7348 8.00001 10.4804 8.10536 10.2929 8.2929C10.1053 8.48044 9.99998 8.73479 9.99998 9.00001V13C9.99998 13.2652 10.1053 13.5196 10.2929 13.7071C10.4804 13.8946 10.7348 14 11 14H14ZM17.86 6.57001C17.8158 6.48967 17.7657 6.41279 17.71 6.34001C16.9665 5.59733 16.0839 5.00842 15.1128 4.60691C14.1416 4.20541 13.1009 3.99918 12.05 4.00001H12C9.94413 3.99756 7.96624 4.78667 6.47667 6.20362C4.9871 7.62057 4.1002 9.55659 3.99998 11.61L3.68998 11.29C3.50168 11.1017 3.24628 10.9959 2.97998 10.9959C2.71368 10.9959 2.45829 11.1017 2.26998 11.29C2.08168 11.4783 1.97589 11.7337 1.97589 12C1.97589 12.2663 2.08168 12.5217 2.26998 12.71L4.26998 14.71C4.33689 14.7661 4.41085 14.8131 4.48998 14.85C4.52268 14.8791 4.55982 14.9027 4.59998 14.92C4.7264 14.9739 4.86257 15.0011 4.99998 15C5.12678 15.0019 5.25263 14.9781 5.36998 14.93L5.47998 14.86C5.55236 14.8262 5.61968 14.7824 5.67998 14.73L7.67998 12.85C7.87303 12.6693 7.98666 12.4196 7.99603 12.1553C8.0054 11.8911 7.90975 11.6339 7.72998 11.44C7.54262 11.2538 7.28917 11.1492 7.02498 11.1492C6.7608 11.1492 6.50735 11.2538 6.31998 11.44L6.06998 11.67C6.15371 10.1486 6.81312 8.71605 7.91441 7.66305C9.0157 6.61005 10.4764 6.01548 12 6.00001C13.5913 6.00001 15.1174 6.63215 16.2426 7.75737C17.3678 8.88258 18 10.4087 18 12C18 13.5913 17.3678 15.1174 16.2426 16.2426C15.1174 17.3679 13.5913 18 12 18C11.7348 18 11.4804 18.1054 11.2929 18.2929C11.1053 18.4804 11 18.7348 11 19C11 19.2652 11.1053 19.5196 11.2929 19.7071C11.4804 19.8946 11.7348 20 12 20C13.5542 19.9971 15.0739 19.5416 16.3733 18.689C17.6728 17.8365 18.6959 16.6239 19.3174 15.1994C19.939 13.7749 20.1322 12.2002 19.8733 10.6677C19.6145 9.13526 18.9149 7.71135 17.86 6.57001Z" fill="#141414"/>
</svg>
