<svg width="24" height="24" viewBox="0 0 24 24" fill="none" xmlns="http://www.w3.org/2000/svg">
<path d="M10.43 4.63C10.3558 4.44293 10.2268 4.28261 10.06 4.17C9.89464 4.05822 9.6996 3.99849 9.5 3.99849C9.3004 3.99849 9.10537 4.05822 8.94 4.17C8.77319 4.28261 8.64424 4.44293 8.57 4.63L3.07 18.63C3.01912 18.752 2.99292 18.8828 2.99292 19.015C2.99292 19.1472 3.01912 19.278 3.07 19.4C3.1803 19.6394 3.37664 19.8286 3.62 19.93C3.74198 19.9809 3.87284 20.0071 4.005 20.0071C4.13717 20.0071 4.26802 19.9809 4.39 19.93C4.62945 19.8197 4.81865 19.6234 4.92 19.38L6.65 15H12.35L14.07 19.37C14.1187 19.4892 14.1901 19.5979 14.28 19.69C14.3704 19.7871 14.4791 19.8653 14.6 19.92C14.7264 19.9739 14.8626 20.0011 15 20C15.1332 20.0012 15.2655 19.9774 15.39 19.93C15.5092 19.8813 15.6179 19.8099 15.71 19.72C15.8071 19.6296 15.8853 19.5209 15.94 19.4C15.987 19.2721 16.0075 19.136 16 19C16.0012 18.8668 15.9774 18.7345 15.93 18.61L10.43 4.63ZM7.43 13L9.5 7.73L11.57 13H7.43ZM19 3C18.7348 3 18.4804 3.10536 18.2929 3.29289C18.1054 3.48043 18 3.73478 18 4V20C18 20.2652 18.1054 20.5196 18.2929 20.7071C18.4804 20.8946 18.7348 21 19 21C19.2652 21 19.5196 20.8946 19.7071 20.7071C19.8946 20.5196 20 20.2652 20 20V4C20 3.73478 19.8946 3.48043 19.7071 3.29289C19.5196 3.10536 19.2652 3 19 3Z" fill="#141414"/>
</svg>
