<svg width="24" height="24" viewBox="0 0 24 24" fill="none" xmlns="http://www.w3.org/2000/svg">
<path d="M12 2C13.9778 2 15.9112 2.58649 17.5557 3.6853C19.2002 4.78412 20.4819 6.3459 21.2388 8.17317C21.9957 10.0004 22.1937 12.0111 21.8079 13.9509C21.422 15.8907 20.4696 17.6725 19.0711 19.0711C17.6725 20.4696 15.8907 21.422 13.9509 21.8079C12.0111 22.1937 10.0004 21.9957 8.17317 21.2388C6.3459 20.4819 4.78412 19.2002 3.6853 17.5557C2.58649 15.9112 2 13.9778 2 12C2 9.34784 3.05357 6.8043 4.92893 4.92893C6.8043 3.05357 9.34784 2 12 2ZM7.29 10.71L9.29 12.71C9.38296 12.8037 9.49356 12.8781 9.61542 12.9289C9.73728 12.9797 9.86799 13.0058 10 13.0058C10.132 13.0058 10.2627 12.9797 10.3846 12.9289C10.5064 12.8781 10.617 12.8037 10.71 12.71C10.8037 12.617 10.8781 12.5064 10.9289 12.3846C10.9797 12.2627 11.0058 12.132 11.0058 12C11.0058 11.868 10.9797 11.7373 10.9289 11.6154C10.8781 11.4936 10.8037 11.383 10.71 11.29L10.41 11H13C13.2672 10.9823 13.5351 11.0219 13.7858 11.1162C14.0365 11.2105 14.2641 11.3572 14.4535 11.5465C14.6428 11.7359 14.7895 11.9635 14.8838 12.2142C14.9781 12.4649 15.0177 12.7328 15 13V15C15 15.2652 15.1054 15.5196 15.2929 15.7071C15.4804 15.8946 15.7348 16 16 16C16.2652 16 16.5196 15.8946 16.7071 15.7071C16.8946 15.5196 17 15.2652 17 15V13C17.0152 12.4706 16.9221 11.9436 16.7265 11.4515C16.5308 10.9593 16.2368 10.5123 15.8622 10.1378C15.4877 9.76325 15.0407 9.46916 14.5485 9.27352C14.0564 9.07788 13.5294 8.98481 13 9H10.41L10.71 8.71C10.8032 8.61676 10.8772 8.50607 10.9277 8.38425C10.9781 8.26243 11.0041 8.13186 11.0041 8C11.0041 7.86814 10.9781 7.73757 10.9277 7.61575C10.8772 7.49393 10.8032 7.38324 10.71 7.29C10.6168 7.19676 10.5061 7.1228 10.3842 7.07234C10.2624 7.02188 10.1319 6.99591 10 6.99591C9.86814 6.99591 9.73757 7.02188 9.61575 7.07234C9.49393 7.1228 9.38324 7.19676 9.29 7.29L7.29 9.29C7.19627 9.38296 7.12188 9.49356 7.07111 9.61542C7.02034 9.73728 6.9942 9.86799 6.9942 10C6.9942 10.132 7.02034 10.2627 7.07111 10.3846C7.12188 10.5064 7.19627 10.617 7.29 10.71Z" fill="#141414"/>
</svg>
