<svg width="24" height="24" viewBox="0 0 24 24" fill="none" xmlns="http://www.w3.org/2000/svg">
<path d="M11.9999 9.99991C11.6044 9.99991 11.2177 10.1172 10.8888 10.337C10.5599 10.5567 10.3036 10.8691 10.1522 11.2345C10.0008 11.6 9.9612 12.0021 10.0384 12.3901C10.1155 12.7781 10.306 13.1344 10.5857 13.4141C10.8654 13.6938 11.2218 13.8843 11.6098 13.9615C11.9977 14.0387 12.3999 13.999 12.7653 13.8477C13.1308 13.6963 13.4431 13.4399 13.6629 13.1111C13.8826 12.7822 13.9999 12.3955 13.9999 11.9999C13.9999 11.4695 13.7892 10.9608 13.4142 10.5857C13.0391 10.2106 12.5304 9.99991 11.9999 9.99991ZM3.99994 11.9999C3.99911 10.949 4.20534 9.90827 4.60685 8.93711C5.00835 7.96595 5.59727 7.08341 6.33994 6.33991C6.50377 6.14861 6.58937 5.90253 6.57965 5.65086C6.56993 5.39918 6.4656 5.16044 6.2875 4.98235C6.10941 4.80425 5.87067 4.69992 5.61899 4.6902C5.36732 4.68048 5.12124 4.76608 4.92994 4.92991C3.05523 6.80519 2.00208 9.34827 2.00208 11.9999C2.00208 14.6516 3.05523 17.1946 4.92994 19.0699C5.1173 19.2562 5.37075 19.3607 5.63494 19.3607C5.89913 19.3607 6.15258 19.2562 6.33994 19.0699C6.52619 18.8825 6.63073 18.6291 6.63073 18.3649C6.63073 18.1007 6.52619 17.8473 6.33994 17.6599C5.59727 16.9164 5.00835 16.0339 4.60685 15.0627C4.20534 14.0915 3.99911 13.0508 3.99994 11.9999ZM9.16994 7.75991C8.98258 7.57366 8.72913 7.46912 8.46494 7.46912C8.20075 7.46912 7.9473 7.57366 7.75994 7.75991C6.63634 8.88491 6.00522 10.4099 6.00522 11.9999C6.00522 13.5899 6.63634 15.1149 7.75994 16.2399C7.9473 16.4262 8.20075 16.5307 8.46494 16.5307C8.72913 16.5307 8.98258 16.4262 9.16994 16.2399C9.35619 16.0525 9.46073 15.7991 9.46073 15.5349C9.46073 15.2707 9.35619 15.0173 9.16994 14.8299C8.79803 14.4584 8.503 14.0173 8.3017 13.5317C8.1004 13.0461 7.99679 12.5256 7.99679 11.9999C7.99679 11.4742 8.1004 10.9537 8.3017 10.4681C8.503 9.98256 8.79803 9.5414 9.16994 9.16991C9.35619 8.98255 9.46073 8.7291 9.46073 8.46491C9.46073 8.20072 9.35619 7.94727 9.16994 7.75991ZM16.2399 7.75991C16.0486 7.59608 15.8026 7.51048 15.5509 7.5202C15.2992 7.52992 15.0605 7.63425 14.8824 7.81235C14.7043 7.99044 14.5999 8.22918 14.5902 8.48086C14.5805 8.73253 14.6661 8.97861 14.8299 9.16991C15.2018 9.5414 15.4969 9.98256 15.6982 10.4681C15.8995 10.9537 16.0031 11.4742 16.0031 11.9999C16.0031 12.5256 15.8995 13.0461 15.6982 13.5317C15.4969 14.0173 15.2018 14.4584 14.8299 14.8299C14.6437 15.0173 14.5391 15.2707 14.5391 15.5349C14.5391 15.7991 14.6437 16.0525 14.8299 16.2399C15.0173 16.4262 15.2708 16.5307 15.5349 16.5307C15.7991 16.5307 16.0526 16.4262 16.2399 16.2399C17.3635 15.1149 17.9947 13.5899 17.9947 11.9999C17.9947 10.4099 17.3635 8.88491 16.2399 7.75991ZM19.0699 4.92991C18.8786 4.76608 18.6326 4.68048 18.3809 4.6902C18.1292 4.69992 17.8905 4.80425 17.7124 4.98235C17.5343 5.16044 17.4299 5.39918 17.4202 5.65086C17.4105 5.90253 17.4961 6.14861 17.6599 6.33991C18.4038 7.0829 18.9938 7.9652 19.3964 8.93639C19.799 9.90757 20.0062 10.9486 20.0062 11.9999C20.0062 13.0512 19.799 14.0922 19.3964 15.0634C18.9938 16.0346 18.4038 16.9169 17.6599 17.6599C17.4737 17.8473 17.3691 18.1007 17.3691 18.3649C17.3691 18.6291 17.4737 18.8825 17.6599 19.0699C17.8473 19.2562 18.1008 19.3607 18.3649 19.3607C18.6291 19.3607 18.8826 19.2562 19.0699 19.0699C20.9446 17.1946 21.9978 14.6516 21.9978 11.9999C21.9978 9.34827 20.9446 6.80519 19.0699 4.92991Z" fill="#141414"/>
</svg>
