<svg width="24" height="24" viewBox="0 0 24 24" fill="none" xmlns="http://www.w3.org/2000/svg">
<path d="M20 6C20.2577 5.99983 20.5111 5.93324 20.7356 5.80668C20.9601 5.68011 21.1482 5.49783 21.2818 5.27741C21.4154 5.057 21.4899 4.80588 21.4982 4.54828C21.5065 4.29068 21.4483 4.03528 21.3292 3.80673C21.21 3.57817 21.034 3.38417 20.8181 3.24342C20.6022 3.10267 20.3537 3.01993 20.0965 3.00317C19.8393 2.98642 19.5821 3.03621 19.3498 3.14776C19.1175 3.2593 18.9178 3.42883 18.77 3.64L5.77 6.58C4.9858 6.74534 4.28239 7.17555 3.77797 7.79834C3.27354 8.42113 2.99884 9.19856 3 10V18C3 18.7956 3.31607 19.5587 3.87868 20.1213C4.44129 20.6839 5.20435 21 6 21H18C18.7957 21 19.5587 20.6839 20.1213 20.1213C20.6839 19.5587 21 18.7956 21 18V10C21 9.20435 20.6839 8.44129 20.1213 7.87868C19.5587 7.31607 18.7957 7 18 7H13L19 5.63C19.2748 5.87499 19.6319 6.00715 20 6ZM13 14C13 14.5933 12.8241 15.1734 12.4944 15.6667C12.1648 16.1601 11.6962 16.5446 11.1481 16.7716C10.5999 16.9987 9.99668 17.0581 9.41473 16.9424C8.83279 16.8266 8.29824 16.5409 7.87868 16.1213C7.45913 15.7018 7.1734 15.1672 7.05765 14.5853C6.94189 14.0033 7.0013 13.4001 7.22837 12.8519C7.45543 12.3038 7.83995 11.8352 8.33329 11.5056C8.82664 11.1759 9.40666 11 10 11C10.7957 11 11.5587 11.3161 12.1213 11.8787C12.6839 12.4413 13 13.2044 13 14Z" fill="#141414"/>
</svg>
