<svg width="24" height="24" viewBox="0 0 24 24" fill="none" xmlns="http://www.w3.org/2000/svg">
<path d="M4.00004 12.0002C4.00004 10.6741 4.52682 9.40233 5.4645 8.46465C6.40218 7.52697 7.67395 7.00019 9.00004 7.00019H12.59L12.29 7.29018C12.1963 7.38315 12.1219 7.49375 12.0711 7.61561C12.0204 7.73747 11.9942 7.86817 11.9942 8.00019C11.9942 8.1322 12.0204 8.2629 12.0711 8.38476C12.1219 8.50662 12.1963 8.61722 12.29 8.71019C12.383 8.80391 12.4936 8.87831 12.6155 8.92908C12.7373 8.97985 12.868 9.00598 13 9.00598C13.132 9.00598 13.2628 8.97985 13.3846 8.92908C13.5065 8.87831 13.6171 8.80391 13.71 8.71019L15.71 6.71019C15.8011 6.61508 15.8724 6.50294 15.92 6.38019C16.0201 6.13672 16.0201 5.86365 15.92 5.62019C15.8724 5.49743 15.8011 5.38529 15.71 5.29019L13.71 3.29019C13.5217 3.10188 13.2663 2.99609 13 2.99609C12.7337 2.99609 12.4783 3.10188 12.29 3.29019C12.1017 3.47849 11.9959 3.73388 11.9959 4.00019C11.9959 4.26649 12.1017 4.52188 12.29 4.71019L12.59 5.00019H9.00004C7.14352 5.00019 5.36304 5.73768 4.05029 7.05044C2.73753 8.36319 2.00004 10.1437 2.00004 12.0002C1.99666 13.0416 2.22772 14.0704 2.67607 15.0104C3.12442 15.9504 3.77857 16.7774 4.59004 17.4302C4.69081 17.5208 4.80894 17.59 4.93726 17.6335C5.06558 17.6771 5.20142 17.6941 5.33651 17.6835C5.47161 17.673 5.60316 17.6351 5.72316 17.5721C5.84317 17.5092 5.94912 17.4225 6.0346 17.3173C6.12008 17.2122 6.18329 17.0908 6.22041 16.9604C6.25752 16.8301 6.26776 16.6936 6.25049 16.5592C6.23323 16.4248 6.18883 16.2953 6.11999 16.1786C6.05115 16.0618 5.95931 15.9603 5.85004 15.8802C5.27256 15.4117 4.80684 14.8203 4.48681 14.1491C4.16677 13.4779 4.00048 12.7438 4.00004 12.0002ZM19.41 6.57019C19.3084 6.48655 19.1912 6.42382 19.0652 6.38559C18.9392 6.34735 18.807 6.33436 18.676 6.34737C18.545 6.36038 18.4178 6.39912 18.3018 6.46138C18.1858 6.52364 18.0833 6.6082 18 6.71019C17.917 6.81247 17.8549 6.93017 17.8175 7.05651C17.7801 7.18285 17.768 7.31534 17.7819 7.44637C17.7959 7.5774 17.8356 7.70438 17.8987 7.82001C17.9619 7.93565 18.0473 8.03766 18.15 8.12018C18.9512 8.77139 19.5312 9.65464 19.8102 10.6487C20.0893 11.6427 20.0538 12.6987 19.7087 13.6718C19.3635 14.6448 18.7256 15.4872 17.8825 16.0831C17.0394 16.6791 16.0325 16.9994 15 17.0002H11.41L11.71 16.7102C11.8983 16.5219 12.0041 16.2665 12.0041 16.0002C12.0041 15.7339 11.8983 15.4785 11.71 15.2902C11.5217 15.1019 11.2663 14.9961 11 14.9961C10.7337 14.9961 10.4783 15.1019 10.29 15.2902L8.29004 17.2902C8.199 17.3853 8.12763 17.4974 8.08004 17.6202C7.98002 17.8636 7.98002 18.1367 8.08004 18.3802C8.12763 18.5029 8.199 18.6151 8.29004 18.7102L10.29 20.7102C10.383 20.8039 10.4936 20.8783 10.6155 20.9291C10.7373 20.9798 10.868 21.006 11 21.006C11.132 21.006 11.2628 20.9798 11.3846 20.9291C11.5065 20.8783 11.6171 20.8039 11.71 20.7102C11.8038 20.6172 11.8782 20.5066 11.9289 20.3848C11.9797 20.2629 12.0058 20.1322 12.0058 20.0002C12.0058 19.8682 11.9797 19.7375 11.9289 19.6156C11.8782 19.4937 11.8038 19.3831 11.71 19.2902L11.41 19.0002H15C16.8566 19.0002 18.637 18.2627 19.9498 16.9499C21.2625 15.6372 22 13.8567 22 12.0002C22.0034 10.9588 21.7724 9.92993 21.324 8.98995C20.8757 8.04997 20.2215 7.22295 19.41 6.57019Z" fill="#141414"/>
</svg>
