<svg width="24" height="24" viewBox="0 0 24 24" fill="none" xmlns="http://www.w3.org/2000/svg">
<path d="M15.6199 3.12017C15.4434 3.19245 15.2913 3.3137 15.1814 3.46962C15.0716 3.62554 15.0086 3.80963 14.9999 4.00017V4.72017L16.5499 3.17017C16.4106 3.08701 16.2531 3.039 16.0911 3.03029C15.9291 3.02158 15.7674 3.05242 15.6199 3.12017ZM12.9999 4.00017C12.9999 3.73495 12.8946 3.4806 12.707 3.29306C12.5195 3.10552 12.2652 3.00017 11.9999 3.00017C11.7347 3.00017 11.4804 3.10552 11.2928 3.29306C11.1053 3.4806 10.9999 3.73495 10.9999 4.00017V8.76017L12.9999 6.76017V4.00017ZM3.99994 11.0002C4.26516 11.0002 4.51951 10.8948 4.70705 10.7073C4.89458 10.5197 4.99994 10.2654 4.99994 10.0002V9.00017H5.99994C6.11974 9.01 6.24014 9.01 6.35994 9.00017L7.10994 10.4902C7.19841 10.6476 7.32786 10.7782 7.48457 10.868C7.64127 10.9578 7.81936 11.0035 7.99994 11.0002C8.15682 11.002 8.31162 10.9642 8.44994 10.8902C8.68546 10.7703 8.86395 10.562 8.9464 10.3109C9.02885 10.0599 9.00855 9.78633 8.88994 9.55017L8.15994 8.08017C8.5678 7.65626 8.84203 7.12179 8.94852 6.54326C9.05501 5.96472 8.98907 5.36764 8.75889 4.82628C8.5287 4.28493 8.14444 3.82319 7.65391 3.49851C7.16337 3.17383 6.5882 3.00053 5.99994 3.00017H3.99994C3.73472 3.00017 3.48037 3.10552 3.29283 3.29306C3.1053 3.4806 2.99994 3.73495 2.99994 4.00017V10.0002C2.99994 10.2654 3.1053 10.5197 3.29283 10.7073C3.48037 10.8948 3.73472 11.0002 3.99994 11.0002ZM4.99994 5.00017H5.99994C6.26516 5.00017 6.51951 5.10552 6.70705 5.29306C6.89458 5.4806 6.99994 5.73495 6.99994 6.00017C6.99994 6.26538 6.89458 6.51974 6.70705 6.70727C6.51951 6.89481 6.26516 7.00017 5.99994 7.00017H4.99994V5.00017ZM19.3899 6.00017L20.7099 4.69017C20.8982 4.50186 21.004 4.24647 21.004 3.98017C21.004 3.71386 20.8982 3.45847 20.7099 3.27017C20.5216 3.08186 20.2662 2.97607 19.9999 2.97607C19.7336 2.97607 19.4782 3.08186 19.2899 3.27017L3.28994 19.2702C3.19621 19.3631 3.12182 19.4737 3.07105 19.5956C3.02028 19.7174 2.99414 19.8482 2.99414 19.9802C2.99414 20.1122 3.02028 20.2429 3.07105 20.3647C3.12182 20.4866 3.19621 20.5972 3.28994 20.6902C3.3829 20.7839 3.4935 20.8583 3.61536 20.9091C3.73722 20.9598 3.86793 20.986 3.99994 20.986C4.13195 20.986 4.26266 20.9598 4.38452 20.9091C4.50638 20.8583 4.61698 20.7839 4.70994 20.6902L7.99994 17.4102L11.2899 20.7102C11.3834 20.8028 11.4942 20.8762 11.616 20.9259C11.7379 20.9757 11.8683 21.0009 11.9999 21.0002C12.1311 21.0035 12.2613 20.9761 12.3799 20.9202C12.5626 20.8451 12.7189 20.7177 12.8292 20.554C12.9396 20.3903 12.999 20.1976 12.9999 20.0002V12.4102L14.9999 10.4102V20.0002C14.9999 20.2654 15.1053 20.5197 15.2928 20.7073C15.4804 20.8948 15.7347 21.0002 15.9999 21.0002C16.2652 21.0002 16.5195 20.8948 16.707 20.7073C16.8946 20.5197 16.9999 20.2654 16.9999 20.0002V8.41017L17.9999 7.41017L19.2899 8.71017C19.4782 8.89847 19.7336 9.00426 19.9999 9.00426C20.2662 9.00426 20.5216 8.89847 20.7099 8.71017C20.8982 8.52186 21.004 8.26647 21.004 8.00017C21.004 7.73386 20.8982 7.47847 20.7099 7.29017L19.3899 6.00017ZM10.9999 17.5902L9.40994 16.0002L10.9999 14.4102V17.5902Z" fill="#141414"/>
</svg>
