<svg width="24" height="24" viewBox="0 0 24 24" fill="none" xmlns="http://www.w3.org/2000/svg">
<path d="M10.9999 9.00029V7.00029C11.0007 6.60488 10.8843 6.21809 10.6654 5.88881C10.4464 5.55953 10.1348 5.30253 9.76989 5.15029C9.40377 4.99963 9.00117 4.96102 8.61309 5.03934C8.22501 5.11767 7.86891 5.30942 7.58989 5.59029L2.58989 10.5903C2.21738 10.965 2.0083 11.4719 2.0083 12.0003C2.0083 12.5287 2.21738 13.0356 2.58989 13.4103L7.58989 18.4103C7.96324 18.7859 8.47031 18.9981 8.99989 19.0003C9.26377 18.9998 9.52513 18.9489 9.76989 18.8503C10.1348 18.6981 10.4464 18.4411 10.6654 18.1118C10.8843 17.7825 11.0007 17.3957 10.9999 17.0003V15.0003C17.3299 15.0003 19.3199 19.3903 19.8499 21.2203C19.913 21.4391 20.0437 21.6324 20.2233 21.7725C20.4029 21.9126 20.6222 21.9923 20.8499 22.0003C21.0041 22.0091 21.1584 21.9851 21.3026 21.9298C21.4468 21.8745 21.5776 21.7892 21.6863 21.6795C21.7951 21.5698 21.8792 21.4383 21.9333 21.2936C21.9874 21.1489 22.0101 20.9944 21.9999 20.8403C21.2499 10.8603 10.9999 9.00029 10.9999 9.00029ZM12.9999 7.00029V7.44029C16.7123 8.57167 19.902 10.9852 21.9999 14.2503C21.9999 14.2503 21.9999 14.1603 21.9999 14.1103C21.4299 6.48029 13.5899 5.11029 13.5899 5.11029V3.53029C13.5854 3.23228 13.4939 2.94207 13.3268 2.69532C13.1596 2.44856 12.924 2.256 12.6489 2.14129C12.3738 2.02658 12.0712 1.99472 11.7783 2.04961C11.4853 2.10451 11.2148 2.24377 10.9999 2.45029L10.2399 3.21029C10.3399 3.21029 10.4499 3.21029 10.5499 3.30029C11.2779 3.6063 11.899 4.12095 12.335 4.77939C12.771 5.43783 13.0024 6.21059 12.9999 7.00029Z" fill="#141414"/>
</svg>
