<svg width="24" height="24" viewBox="0 0 24 24" fill="none" xmlns="http://www.w3.org/2000/svg">
<path d="M7.51992 6.11005C7.61057 6.1831 7.72349 6.22294 7.83992 6.22294C7.95634 6.22294 8.06926 6.1831 8.15991 6.11005C8.89815 5.62369 9.72319 5.28417 10.5899 5.11005C10.6974 5.0927 10.7961 5.04003 10.8704 4.96035C10.9446 4.88067 10.9902 4.77853 10.9999 4.67005V2.67005C10.999 2.59856 10.9831 2.52806 10.9532 2.46312C10.9233 2.39818 10.88 2.34026 10.8263 2.29311C10.7725 2.24596 10.7095 2.21064 10.6412 2.18944C10.5729 2.16824 10.5009 2.16163 10.4299 2.17005C8.8742 2.41476 7.39973 3.02855 6.12992 3.96005C6.07523 4.00604 6.03126 4.06344 6.0011 4.12822C5.97094 4.193 5.95531 4.26359 5.95531 4.33505C5.95531 4.40651 5.97094 4.4771 6.0011 4.54188C6.03126 4.60666 6.07523 4.66406 6.12992 4.71005L7.51992 6.11005ZM2.61992 11.0001H4.66992C4.78541 10.9992 4.89691 10.9577 4.98474 10.8826C5.07256 10.8076 5.13106 10.704 5.14992 10.5901C5.32403 9.72333 5.66356 8.89828 6.14992 8.16005C6.22297 8.0694 6.2628 7.95648 6.2628 7.84005C6.2628 7.72363 6.22297 7.61071 6.14992 7.52005L4.65991 6.08005C4.61392 6.02536 4.55652 5.9814 4.49174 5.95124C4.42696 5.92108 4.35637 5.90545 4.28491 5.90545C4.21346 5.90545 4.14287 5.92108 4.07809 5.95124C4.01331 5.9814 3.95591 6.02536 3.90992 6.08005C2.97841 7.34987 2.36462 8.82434 2.11991 10.3801C2.10342 10.4547 2.10393 10.5322 2.12141 10.6066C2.1389 10.6811 2.17291 10.7507 2.22092 10.8102C2.26893 10.8697 2.32972 10.9177 2.39879 10.9506C2.46786 10.9834 2.54343 11.0004 2.61992 11.0001ZM17.8399 8.16005C18.3263 8.89828 18.6658 9.72333 18.8399 10.5901C18.8588 10.704 18.9173 10.8076 19.0051 10.8826C19.0929 10.9577 19.2044 10.9992 19.3199 11.0001H21.3699C21.4414 10.9991 21.5119 10.9832 21.5768 10.9533C21.6418 10.9234 21.6997 10.8802 21.7469 10.8264C21.794 10.7727 21.8293 10.7096 21.8505 10.6413C21.8717 10.573 21.8783 10.5011 21.8699 10.4301C21.6252 8.87434 21.0114 7.39987 20.0799 6.13005C20.0339 6.07536 19.9765 6.0314 19.9117 6.00124C19.847 5.97108 19.7764 5.95545 19.7049 5.95545C19.6335 5.95545 19.5629 5.97108 19.4981 6.00124C19.4333 6.0314 19.3759 6.07536 19.3299 6.13005L17.8899 7.52005C17.8095 7.60486 17.7607 7.7147 17.7516 7.8312C17.7425 7.9477 17.7737 8.06379 17.8399 8.16005ZM13.4099 5.16005C14.2766 5.33417 15.1017 5.67369 15.8399 6.16005C15.9306 6.2331 16.0435 6.27294 16.1599 6.27294C16.2763 6.27294 16.3893 6.2331 16.4799 6.16005L17.9199 4.71005C17.9717 4.66051 18.012 4.6002 18.038 4.53339C18.0639 4.46658 18.0749 4.39489 18.0701 4.32337C18.0654 4.25185 18.045 4.18225 18.0104 4.11948C17.9758 4.0567 17.9278 4.00228 17.8699 3.96005C16.6001 3.02855 15.1256 2.41476 13.5699 2.17005C13.4989 2.16163 13.4269 2.16824 13.3587 2.18944C13.2904 2.21064 13.2273 2.24596 13.1736 2.29311C13.1198 2.34026 13.0766 2.39818 13.0467 2.46312C13.0167 2.52806 13.0008 2.59856 12.9999 2.67005V4.67005C13.0007 4.78555 13.0423 4.89705 13.1173 4.98487C13.1923 5.07269 13.296 5.1312 13.4099 5.15005V5.16005ZM6.15991 15.8401C5.67356 15.1018 5.33403 14.2768 5.15991 13.4101C5.14079 13.2944 5.08083 13.1894 4.99093 13.1142C4.90102 13.039 4.78713 12.9985 4.66992 13.0001H2.66992C2.59842 13.001 2.52792 13.0169 2.46298 13.0468C2.39804 13.0767 2.34012 13.1199 2.29297 13.1737C2.24582 13.2274 2.2105 13.2905 2.1893 13.3588C2.1681 13.4271 2.1615 13.499 2.16992 13.5701C2.41462 15.1258 3.02841 16.6002 3.95992 17.8701C4.00215 17.928 4.05657 17.9759 4.11934 18.0105C4.18212 18.0451 4.25172 18.0655 4.32323 18.0703C4.39475 18.075 4.46644 18.064 4.53325 18.0381C4.60007 18.0121 4.66037 17.9718 4.70992 17.9201L6.15991 16.4801C6.23297 16.3894 6.2728 16.2765 6.2728 16.1601C6.2728 16.0436 6.23297 15.9307 6.15991 15.8401ZM16.4799 17.89C16.3951 17.8097 16.2853 17.7608 16.1688 17.7517C16.0523 17.7426 15.9362 17.7738 15.8399 17.8401C15.1017 18.3264 14.2766 18.6659 13.4099 18.84C13.296 18.8589 13.1923 18.9174 13.1173 19.0052C13.0423 19.0931 13.0007 19.2046 12.9999 19.32V21.3701C13.0008 21.4415 13.0167 21.512 13.0467 21.577C13.0766 21.6419 13.1198 21.6998 13.1736 21.747C13.2273 21.7941 13.2904 21.8295 13.3587 21.8507C13.4269 21.8719 13.4989 21.8785 13.5699 21.8701C15.1256 21.6253 16.6001 21.0116 17.8699 20.08C17.9278 20.0378 17.9758 19.9834 18.0104 19.9206C18.045 19.8578 18.0654 19.7882 18.0701 19.7167C18.0749 19.6452 18.0639 19.5735 18.038 19.5067C18.012 19.4399 17.9717 19.3796 17.9199 19.33L16.4799 17.89ZM21.3799 13.0001H19.3299C19.2144 13.0009 19.1029 13.0424 19.0151 13.1175C18.9273 13.1925 18.8688 13.2961 18.8499 13.4101C18.6758 14.2768 18.3363 15.1018 17.8499 15.8401C17.7837 15.9363 17.7525 16.0524 17.7616 16.1689C17.7707 16.2854 17.8195 16.3952 17.8999 16.4801L19.3499 17.9201C19.3995 17.9718 19.4598 18.0121 19.5266 18.0381C19.5934 18.064 19.6651 18.075 19.7366 18.0703C19.8081 18.0655 19.8777 18.0451 19.9405 18.0105C20.0033 17.9759 20.0577 17.928 20.0999 17.8701C21.0314 16.6002 21.6452 15.1258 21.8899 13.5701C21.8984 13.4982 21.8916 13.4254 21.8698 13.3564C21.848 13.2874 21.8118 13.2239 21.7635 13.17C21.7153 13.1161 21.6561 13.073 21.59 13.0437C21.5239 13.0144 21.4522 12.9995 21.3799 13.0001ZM11.9999 11.0001C11.8021 11.0001 11.6088 11.0587 11.4443 11.1686C11.2799 11.2785 11.1517 11.4346 11.076 11.6174C11.0003 11.8001 10.9805 12.0012 11.0191 12.1951C11.0577 12.3891 11.153 12.5673 11.2928 12.7072C11.4327 12.847 11.6108 12.9423 11.8048 12.9808C11.9988 13.0194 12.1999 12.9996 12.3826 12.9239C12.5653 12.8482 12.7215 12.7201 12.8314 12.5556C12.9413 12.3912 12.9999 12.1978 12.9999 12.0001C12.9999 11.7348 12.8946 11.4805 12.707 11.2929C12.5195 11.1054 12.2651 11.0001 11.9999 11.0001ZM16.9999 12.0001C16.9999 11.0111 16.7067 10.0444 16.1573 9.2222C15.6079 8.39995 14.827 7.75909 13.9133 7.38065C12.9997 7.00221 11.9944 6.9032 11.0245 7.09612C10.0546 7.28905 9.16364 7.76525 8.46438 8.46452C7.76512 9.16378 7.28891 10.0547 7.09599 11.0246C6.90306 11.9945 7.00208 12.9998 7.38052 13.9135C7.75896 14.8271 8.39982 15.608 9.22206 16.1574C10.0443 16.7068 11.011 17.0001 11.9999 17.0001C13.326 17.0001 14.5978 16.4733 15.5354 15.5356C16.4731 14.5979 16.9999 13.3261 16.9999 12.0001ZM11.9999 15.0001C11.4066 15.0001 10.8266 14.8241 10.3332 14.4945C9.83986 14.1648 9.45534 13.6963 9.22828 13.1481C9.00121 12.5999 8.9418 11.9967 9.05756 11.4148C9.17331 10.8328 9.45904 10.2983 9.87859 9.87873C10.2982 9.45917 10.8327 9.17345 11.4146 9.05769C11.9966 8.94194 12.5998 9.00135 13.148 9.22841C13.6961 9.45547 14.1647 9.83999 14.4943 10.3333C14.824 10.8267 14.9999 11.4067 14.9999 12.0001C14.9999 12.7957 14.6838 13.5588 14.1212 14.1214C13.5586 14.684 12.7956 15.0001 11.9999 15.0001ZM10.5899 18.85C9.72319 18.6759 8.89815 18.3364 8.15991 17.8501C8.06365 17.7838 7.94756 17.7526 7.83106 17.7617C7.71456 17.7708 7.60472 17.8197 7.51992 17.9001L6.07992 19.34C6.02523 19.386 5.98126 19.4434 5.9511 19.5082C5.92094 19.573 5.90531 19.6436 5.90531 19.715C5.90531 19.7865 5.92094 19.8571 5.9511 19.9219C5.98126 19.9867 6.02523 20.0441 6.07992 20.09C7.34973 21.0216 8.8242 21.6353 10.3799 21.88C10.4509 21.8885 10.5229 21.8819 10.5912 21.8607C10.6595 21.8395 10.7225 21.8041 10.7763 21.757C10.83 21.7098 10.8733 21.6519 10.9032 21.587C10.9331 21.522 10.949 21.4515 10.9499 21.38V19.33C10.9516 19.2215 10.9171 19.1154 10.852 19.0285C10.7868 18.9416 10.6946 18.8789 10.5899 18.85Z" fill="#141414"/>
</svg>
