<svg width="24" height="24" viewBox="0 0 24 24" fill="none" xmlns="http://www.w3.org/2000/svg">
<path d="M17.12 2.88C16.5579 2.31723 15.7954 2.0007 15 2H9C8.20435 2 7.44129 2.31607 6.87868 2.87868C6.31607 3.44129 6 4.20435 6 5V19C6 19.7956 6.31607 20.5587 6.87868 21.1213C7.44129 21.6839 8.20435 22 9 22H15C15.7956 22 16.5587 21.6839 17.1213 21.1213C17.6839 20.5587 18 19.7956 18 19V5C17.9993 4.20462 17.6828 3.44207 17.12 2.88ZM9 8H15L12 9.83L9 8ZM12.88 19.63C12.7657 19.7477 12.6289 19.8411 12.4777 19.9046C12.3265 19.9682 12.164 20.0007 12 20C11.7538 19.9992 11.5133 19.9257 11.3087 19.7887C11.1041 19.6517 10.9445 19.4573 10.85 19.23C10.754 19.0029 10.7262 18.7527 10.77 18.51C10.8224 18.2646 10.9447 18.0396 11.1221 17.8621C11.2996 17.6847 11.5246 17.5624 11.77 17.51C12.0127 17.4662 12.2629 17.494 12.49 17.59C12.7173 17.6845 12.9117 17.8441 13.0487 18.0487C13.1857 18.2533 13.2592 18.4938 13.26 18.74C13.2607 18.9064 13.2274 19.0712 13.162 19.2243C13.0967 19.3773 13.0007 19.5154 12.88 19.63ZM16 13C16 13.2652 15.8946 13.5196 15.7071 13.7071C15.5196 13.8946 15.2652 14 15 14H9C8.73478 14 8.48043 13.8946 8.29289 13.7071C8.10536 13.5196 8 13.2652 8 13V9.77L11.49 11.86C11.642 11.9478 11.8145 11.994 11.99 11.994C12.1655 11.994 12.338 11.9478 12.49 11.86L16 9.77V13Z" fill="#141414"/>
</svg>
