<svg width="24" height="24" viewBox="0 0 24 24" fill="none" xmlns="http://www.w3.org/2000/svg">
<path d="M18 3H6C5.20435 3 4.44129 3.31607 3.87868 3.87868C3.31607 4.44129 3 5.20435 3 6V18C3 18.7956 3.31607 19.5587 3.87868 20.1213C4.44129 20.6839 5.20435 21 6 21H18C18.7956 21 19.5587 20.6839 20.1213 20.1213C20.6839 19.5587 21 18.7956 21 18V6C21 5.20435 20.6839 4.44129 20.1213 3.87868C19.5587 3.31607 18.7956 3 18 3ZM8 17C8 17.2652 7.89464 17.5196 7.70711 17.7071C7.51957 17.8946 7.26522 18 7 18C6.73478 18 6.48043 17.8946 6.29289 17.7071C6.10536 17.5196 6 17.2652 6 17V7C6 6.73478 6.10536 6.48043 6.29289 6.29289C6.48043 6.10536 6.73478 6 7 6C7.26522 6 7.51957 6.10536 7.70711 6.29289C7.89464 6.48043 8 6.73478 8 7V17ZM18 12C17.999 12.1974 17.9396 12.3901 17.8293 12.5539C17.7189 12.7176 17.5626 12.845 17.38 12.92C17.2613 12.976 17.1312 13.0034 17 13C16.8684 13.0008 16.7379 12.9755 16.6161 12.9258C16.4943 12.876 16.3834 12.8027 16.29 12.71L15 11.41L13.71 12.71C13.5694 12.8488 13.3908 12.9428 13.1968 12.9801C13.0028 13.0175 12.8021 12.9966 12.62 12.92C12.4374 12.845 12.2811 12.7176 12.1707 12.5539C12.0604 12.3901 12.001 12.1974 12 12V7C12 6.73478 12.1054 6.48043 12.2929 6.29289C12.4804 6.10536 12.7348 6 13 6H17C17.2652 6 17.5196 6.10536 17.7071 6.29289C17.8946 6.48043 18 6.73478 18 7V12Z" fill="#141414"/>
</svg>
