<svg width="24" height="24" viewBox="0 0 24 24" fill="none" xmlns="http://www.w3.org/2000/svg">
<path d="M19.74 5.67976L20.74 4.67976C20.8332 4.58652 20.9072 4.47583 20.9577 4.35401C21.0081 4.23219 21.0341 4.10162 21.0341 3.96976C21.0341 3.8379 21.0081 3.70733 20.9577 3.58551C20.9072 3.46369 20.8332 3.353 20.74 3.25976C20.6468 3.16652 20.5361 3.09256 20.4143 3.0421C20.2924 2.99164 20.1619 2.96567 20.03 2.96567C19.8981 2.96567 19.7676 2.99164 19.6458 3.0421C19.5239 3.09256 19.4132 3.16652 19.32 3.25976L3.32 19.2598C3.22628 19.3527 3.15188 19.4633 3.10111 19.5852C3.05034 19.707 3.02421 19.8377 3.02421 19.9698C3.02421 20.1018 3.05034 20.2325 3.10111 20.3543C3.15188 20.4762 3.22628 20.5868 3.32 20.6798C3.41297 20.7735 3.52357 20.8479 3.64543 20.8987C3.76729 20.9494 3.89799 20.9756 4.03 20.9756C4.16202 20.9756 4.29272 20.9494 4.41458 20.8987C4.53644 20.8479 4.64704 20.7735 4.74 20.6798L5.74 19.6798C5.84 19.7598 5.93 19.8598 6.04 19.9398H6C7.72753 21.2445 9.83513 21.9471 12 21.9398C13.8801 21.9288 15.7191 21.3881 17.3059 20.3796C18.8927 19.3711 20.163 17.9356 20.9711 16.238C21.7792 14.5403 22.0924 12.6493 21.8746 10.7817C21.6569 8.91423 20.917 7.14593 19.74 5.67976ZM16 11.9998H14.86C14.6907 12.6438 14.3634 13.2353 13.9076 13.7208C13.4518 14.2062 12.8821 14.5702 12.25 14.7798L14.51 16.1398C14.6984 16.2516 14.8449 16.4221 14.9269 16.6253C15.009 16.8284 15.022 17.0529 14.9641 17.2642C14.9062 17.4755 14.7805 17.6619 14.6063 17.7948C14.4321 17.9277 14.2191 17.9997 14 17.9998C13.8205 17.9997 13.6444 17.9514 13.49 17.8598L9.78 15.6298L15.41 9.99976H16C16.2652 9.99976 16.5196 10.1051 16.7071 10.2927C16.8946 10.4802 17 10.7345 17 10.9998C17 11.265 16.8946 11.5193 16.7071 11.7069C16.5196 11.8944 16.2652 11.9998 16 11.9998ZM7.8 11.9998C7.53479 11.9732 7.29097 11.8424 7.12219 11.6362C7.03861 11.534 6.97598 11.4164 6.93786 11.2901C6.89973 11.1637 6.88687 11.0311 6.9 10.8998C6.91314 10.7684 6.95201 10.641 7.01439 10.5247C7.07678 10.4084 7.16146 10.3055 7.26361 10.2219C7.4699 10.0532 7.73479 9.97324 8 9.99976H9.76L10.76 8.99976H8C7.73479 8.99976 7.48043 8.8944 7.2929 8.70687C7.10536 8.51933 7 8.26498 7 7.99976C7 7.73454 7.10536 7.48019 7.2929 7.29265C7.48043 7.10512 7.73479 6.99976 8 6.99976H12.76L16.62 3.13976C14.7346 2.16252 12.5869 1.81089 10.4883 2.13582C8.38963 2.46075 6.44891 3.44535 4.94725 4.94701C3.4456 6.44866 2.46099 8.38939 2.13606 10.488C1.81114 12.5867 2.16276 14.7343 3.14 16.6198L7.8 11.9998Z" fill="#141414"/>
</svg>
