<svg width="24" height="24" viewBox="0 0 24 24" fill="none" xmlns="http://www.w3.org/2000/svg">
<path d="M20.69 7.31L16.69 3.31C16.5504 3.17674 16.3753 3.08671 16.1857 3.05077C15.9961 3.01484 15.8001 3.03453 15.6215 3.10747C15.4428 3.18042 15.2891 3.3035 15.1788 3.46187C15.0685 3.62024 15.0064 3.80713 15 4V20C15 20.2652 15.1054 20.5196 15.2929 20.7071C15.4804 20.8946 15.7348 21 16 21C16.2652 21 16.5196 20.8946 16.7071 20.7071C16.8946 20.5196 17 20.2652 17 20V6.45L19.27 8.73C19.3632 8.82324 19.4739 8.8972 19.5958 8.94766C19.7176 8.99812 19.8481 9.02409 19.98 9.02409C20.1119 9.02409 20.2424 8.99812 20.3643 8.94766C20.4861 8.8972 20.5968 8.82324 20.69 8.73C20.7832 8.63676 20.8572 8.52607 20.9077 8.40425C20.9581 8.28243 20.9841 8.15186 20.9841 8.02C20.9841 7.88814 20.9581 7.75757 20.9077 7.63575C20.8572 7.51393 20.7832 7.40324 20.69 7.31ZM8 11C8.15688 11.0019 8.31168 10.964 8.45 10.89C8.68552 10.7701 8.86402 10.5619 8.94646 10.3108C9.02891 10.0597 9.00861 9.78617 8.89 9.55L8.16 8.08C8.56786 7.65609 8.84209 7.12163 8.94858 6.54309C9.05508 5.96455 8.98913 5.36747 8.75895 4.82612C8.52876 4.28476 8.14451 3.82303 7.65397 3.49835C7.16343 3.17366 6.58826 3.00036 6 3H4C3.73478 3 3.48043 3.10536 3.29289 3.29289C3.10536 3.48043 3 3.73478 3 4V10C3 10.2652 3.10536 10.5196 3.29289 10.7071C3.48043 10.8946 3.73478 11 4 11C4.26522 11 4.51957 10.8946 4.70711 10.7071C4.89464 10.5196 5 10.2652 5 10V9H6C6.1198 9.00983 6.2402 9.00983 6.36 9L7.11 10.49C7.19847 10.6475 7.32793 10.778 7.48463 10.8678C7.64133 10.9576 7.81942 11.0033 8 11ZM6 7H5V5H6C6.26522 5 6.51957 5.10536 6.70711 5.29289C6.89464 5.48043 7 5.73478 7 6C7 6.26522 6.89464 6.51957 6.70711 6.70711C6.51957 6.89464 6.26522 7 6 7ZM12 3C11.7348 3 11.4804 3.10536 11.2929 3.29289C11.1054 3.48043 11 3.73478 11 4V17.59L8.71 15.29C8.61676 15.1968 8.50607 15.1228 8.38425 15.0723C8.26243 15.0219 8.13186 14.9959 8 14.9959C7.86814 14.9959 7.73757 15.0219 7.61575 15.0723C7.49393 15.1228 7.38324 15.1968 7.29 15.29C7.19676 15.3832 7.1228 15.4939 7.07234 15.6158C7.02188 15.7376 6.99591 15.8681 6.99591 16C6.99591 16.2663 7.1017 16.5217 7.29 16.71L11.29 20.71C11.3834 20.8027 11.4943 20.876 11.6161 20.9258C11.7379 20.9755 11.8684 21.0008 12 21C12.1312 21.0034 12.2613 20.976 12.38 20.92C12.5626 20.845 12.7189 20.7176 12.8293 20.5539C12.9396 20.3901 12.999 20.1974 13 20V4C13 3.73478 12.8946 3.48043 12.7071 3.29289C12.5196 3.10536 12.2652 3 12 3Z" fill="#141414"/>
</svg>
