<svg width="24" height="24" viewBox="0 0 24 24" fill="none" xmlns="http://www.w3.org/2000/svg">
<path d="M7.43 17.25C7.38857 17.1739 7.32607 17.1114 7.25 17.07C7.1736 17.0267 7.08779 17.0027 7 17C6.91624 16.9996 6.83371 17.0202 6.76 17.06C6.6809 17.1008 6.61501 17.1632 6.57 17.24L5.68 18.74C5.53014 19.0291 5.4709 19.3567 5.51 19.68C5.55835 20.003 5.705 20.3033 5.93 20.54C6.07187 20.6789 6.23793 20.7908 6.42 20.87C6.60309 20.9493 6.80049 20.9901 7 20.9901C7.19951 20.9901 7.39691 20.9493 7.58 20.87C7.76347 20.7933 7.92999 20.6812 8.07 20.54C8.29522 20.2995 8.44174 19.996 8.49 19.67C8.53143 19.3423 8.46845 19.0098 8.31 18.72L7.43 17.25ZM21 3H17C16.2044 3 15.4413 3.31607 14.8787 3.87868C14.3161 4.44129 14 5.20435 14 6V7H11V6C11 5.20435 10.6839 4.44129 10.1213 3.87868C9.55871 3.31607 8.79565 3 8 3H6C5.20435 3 4.44129 3.31607 3.87868 3.87868C3.31607 4.44129 3 5.20435 3 6V11C3.00174 11.6189 3.19488 12.2222 3.55294 12.7271C3.911 13.2319 4.41645 13.6137 5 13.82V15C5 15.2652 5.10536 15.5196 5.29289 15.7071C5.48043 15.8946 5.73478 16 6 16H8C8.26522 16 8.51957 15.8946 8.70711 15.7071C8.89464 15.5196 9 15.2652 9 15V13.82C9.58355 13.6137 10.089 13.2319 10.4471 12.7271C10.8051 12.2222 10.9983 11.6189 11 11H13V12C13 12.2652 13.1054 12.5196 13.2929 12.7071C13.4804 12.8946 13.7348 13 14 13H16C16.2652 13 16.5196 12.8946 16.7071 12.7071C16.8946 12.5196 17 12.2652 17 12V11H19C19 11.2652 19.1054 11.5196 19.2929 11.7071C19.4804 11.8946 19.7348 12 20 12C20.2652 12 20.5196 11.8946 20.7071 11.7071C20.8946 11.5196 21 11.2652 21 11V7C21 6.73478 20.8946 6.48043 20.7071 6.29289C20.5196 6.10536 20.2652 6 20 6C19.7348 6 19.4804 6.10536 19.2929 6.29289C19.1054 6.48043 19 6.73478 19 7H16V6C16 5.73478 16.1054 5.48043 16.2929 5.29289C16.4804 5.10536 16.7348 5 17 5H21C21.2652 5 21.5196 4.89464 21.7071 4.70711C21.8946 4.51957 22 4.26522 22 4C22 3.73478 21.8946 3.48043 21.7071 3.29289C21.5196 3.10536 21.2652 3 21 3Z" fill="#141414"/>
</svg>
