<svg width="24" height="24" viewBox="0 0 24 24" fill="none" xmlns="http://www.w3.org/2000/svg">
<path d="M17 12C16.0111 12 15.0444 12.2932 14.2221 12.8427C13.3999 13.3921 12.759 14.173 12.3806 15.0866C12.0022 16.0002 11.9031 17.0055 12.0961 17.9755C12.289 18.9454 12.7652 19.8363 13.4645 20.5355C14.1637 21.2348 15.0546 21.711 16.0245 21.9039C16.9945 22.0969 17.9998 21.9978 18.9134 21.6194C19.827 21.241 20.6079 20.6001 21.1573 19.7779C21.7068 18.9556 22 17.9889 22 17C22 15.6739 21.4732 14.4021 20.5355 13.4645C19.5979 12.5268 18.3261 12 17 12ZM18.5 18C18.5 18.2652 18.3946 18.5196 18.2071 18.7071C18.0196 18.8946 17.7652 19 17.5 19H15.5C15.2348 19 14.9804 18.8946 14.7929 18.7071C14.6054 18.5196 14.5 18.2652 14.5 18C14.5 17.7348 14.6054 17.4804 14.7929 17.2929C14.9804 17.1054 15.2348 17 15.5 17H16.5V15.5C16.5 15.2348 16.6054 14.9804 16.7929 14.7929C16.9804 14.6054 17.2348 14.5 17.5 14.5C17.7652 14.5 18.0196 14.6054 18.2071 14.7929C18.3946 14.9804 18.5 15.2348 18.5 15.5V18ZM19 5H5C4.20435 5 3.44129 5.31607 2.87868 5.87868C2.31607 6.44129 2 7.20435 2 8V16C2 16.7956 2.31607 17.5587 2.87868 18.1213C3.44129 18.6839 4.20435 19 5 19H10.29C10.0958 18.3511 9.99813 17.6773 10 17C10.0033 16.475 10.0636 15.9519 10.18 15.44C10.137 15.4481 10.093 15.4481 10.05 15.44L6.05 13.44C5.81338 13.3616 5.6146 13.1976 5.49261 12.9802C5.37061 12.7628 5.33421 12.5077 5.39054 12.2648C5.44687 12.022 5.59186 11.809 5.7971 11.6675C6.00233 11.526 6.25301 11.4663 6.5 11.5H7.5C7.76522 11.5 8.01957 11.3946 8.20711 11.2071C8.39464 11.0196 8.5 10.7652 8.5 10.5C8.5 10.2348 8.39464 9.98043 8.20711 9.79289C8.01957 9.60536 7.76522 9.5 7.5 9.5H5.5C5.23478 9.5 4.98043 9.39464 4.79289 9.20711C4.60536 9.01957 4.5 8.76522 4.5 8.5C4.5 8.23478 4.60536 7.98043 4.79289 7.79289C4.98043 7.60536 5.23478 7.5 5.5 7.5H10.5C10.7652 7.5 11.0196 7.60536 11.2071 7.79289C11.3946 7.98043 11.5 8.23478 11.5 8.5C11.5 8.76522 11.3946 9.01957 11.2071 9.20711C11.0196 9.39464 10.7652 9.5 10.5 9.5H10.32C10.5275 10.0832 10.5494 10.7163 10.383 11.3124C10.2165 11.9086 9.86962 12.4387 9.39 12.83L10.9 13.58C11.4324 12.6331 12.1778 11.8231 13.0774 11.2142C13.9769 10.6052 15.0058 10.2139 16.0827 10.0713C17.1595 9.92866 18.2548 10.0386 19.2819 10.3925C20.3089 10.7463 21.2395 11.3343 22 12.11V8C22 7.20435 21.6839 6.44129 21.1213 5.87868C20.5587 5.31607 19.7956 5 19 5Z" fill="#141414"/>
</svg>
