<svg width="24" height="24" viewBox="0 0 24 24" fill="none" xmlns="http://www.w3.org/2000/svg">
<path d="M12 4C13.3471 4.00388 14.6713 4.34785 15.85 5H15C14.8014 4.99884 14.6069 5.05687 14.4414 5.16667C14.2759 5.27647 14.1468 5.43307 14.0706 5.61652C13.9945 5.79996 13.9747 6.00193 14.0137 6.19668C14.0528 6.39143 14.149 6.57013 14.29 6.71C14.3834 6.80268 14.4943 6.87601 14.6161 6.92577C14.7379 6.97554 14.8684 7.00076 15 7H18C18.2652 7 18.5196 6.89464 18.7071 6.70711C18.8946 6.51957 19 6.26522 19 6V3C19 2.73478 18.8946 2.48043 18.7071 2.29289C18.5196 2.10536 18.2652 2 18 2C17.7348 2 17.4804 2.10536 17.2929 2.29289C17.1054 2.48043 17 2.73478 17 3V3.36C15.4818 2.47524 13.7572 2.00615 12 2C10.2464 2.0018 8.52405 2.46471 7.00581 3.34231C5.48758 4.2199 4.22681 5.48131 3.35 7C2.46609 8.51809 2.00027 10.2433 2 12C2 12.2652 2.10536 12.5196 2.29289 12.7071C2.48043 12.8946 2.73478 13 3 13C3.26522 13 3.51957 12.8946 3.70711 12.7071C3.89464 12.5196 4 12.2652 4 12C4 9.87827 4.84285 7.84344 6.34315 6.34315C7.84344 4.84285 9.87827 4 12 4ZM21.71 11.29C21.5701 11.149 21.3914 11.0528 21.1967 11.0137C21.0019 10.9747 20.8 10.9945 20.6165 11.0706C20.4331 11.1468 20.2765 11.2759 20.1667 11.4414C20.0569 11.6069 19.9988 11.8014 20 12C19.9969 13.3872 19.6331 14.7497 18.9443 15.9539C18.2556 17.158 17.2655 18.1624 16.0714 18.8683C14.8773 19.5743 13.5201 19.9577 12.1331 19.9808C10.7461 20.0038 9.37694 19.6659 8.16 19H9C9.26522 19 9.51957 18.8946 9.70711 18.7071C9.89464 18.5196 10 18.2652 10 18C10 17.7348 9.89464 17.4804 9.70711 17.2929C9.51957 17.1054 9.26522 17 9 17H6C5.73478 17 5.48043 17.1054 5.29289 17.2929C5.10536 17.4804 5 17.7348 5 18V21C4.99884 21.1986 5.05687 21.3931 5.16667 21.5586C5.27647 21.7241 5.43307 21.8532 5.61652 21.9294C5.79996 22.0055 6.00193 22.0254 6.19668 21.9863C6.39143 21.9472 6.57013 21.851 6.71 21.71C6.80268 21.6166 6.87601 21.5057 6.92577 21.3839C6.97554 21.2621 7.00076 21.1316 7 21V20.64C8.51823 21.5248 10.2428 21.9938 12 22C13.7553 22 15.4797 21.5379 16.9999 20.6602C18.52 19.7825 19.7823 18.5202 20.66 17C21.5404 15.4809 22.0028 13.7558 22 12C22.0008 11.8684 21.9755 11.7379 21.9258 11.6161C21.876 11.4943 21.8027 11.3834 21.71 11.29Z" fill="#141414"/>
</svg>
