<svg width="24" height="24" viewBox="0 0 24 24" fill="none" xmlns="http://www.w3.org/2000/svg">
<path d="M9.16994 5.76011C8.98258 5.57386 8.72913 5.46932 8.46494 5.46932C8.20075 5.46932 7.9473 5.57386 7.75994 5.76011C6.63634 6.88511 6.00522 8.4101 6.00522 10.0001C6.00522 11.5901 6.63634 13.1151 7.75994 14.2401C7.9473 14.4264 8.20075 14.5309 8.46494 14.5309C8.72913 14.5309 8.98258 14.4264 9.16994 14.2401C9.35619 14.0527 9.46073 13.7993 9.46073 13.5351C9.46073 13.2709 9.35619 13.0175 9.16994 12.8301C8.79803 12.4586 8.503 12.0175 8.3017 11.5319C8.1004 11.0463 7.99679 10.5258 7.99679 10.0001C7.99679 9.47445 8.1004 8.95394 8.3017 8.46835C8.503 7.98276 8.79803 7.5416 9.16994 7.17011C9.35619 6.98275 9.46073 6.7293 9.46073 6.46511C9.46073 6.20092 9.35619 5.94747 9.16994 5.76011ZM3.99994 10.0001C3.99911 8.94923 4.20534 7.90847 4.60685 6.93731C5.00835 5.96615 5.59727 5.08361 6.33994 4.34011C6.44462 4.25046 6.52964 4.14015 6.58967 4.01608C6.64969 3.89202 6.68342 3.75688 6.68874 3.61916C6.69406 3.48144 6.67085 3.34411 6.62058 3.21579C6.5703 3.08746 6.49404 2.97091 6.39659 2.87346C6.29914 2.776 6.18259 2.69975 6.05426 2.64947C5.92594 2.5992 5.78861 2.57599 5.65089 2.58131C5.51317 2.58663 5.37803 2.62036 5.25397 2.68038C5.1299 2.74041 5.01959 2.82543 4.92994 2.93011C3.05523 4.80539 2.00208 7.34847 2.00208 10.0001C2.00208 12.6518 3.05523 15.1948 4.92994 17.0701C5.1173 17.2564 5.37075 17.3609 5.63494 17.3609C5.89913 17.3609 6.15258 17.2564 6.33994 17.0701C6.52619 16.8827 6.63073 16.6293 6.63073 16.3651C6.63073 16.1009 6.52619 15.8475 6.33994 15.6601C5.59727 14.9166 5.00835 14.0341 4.60685 13.0629C4.20534 12.0917 3.99911 11.051 3.99994 10.0001ZM16.2399 5.76011C16.0486 5.59628 15.8026 5.51068 15.5509 5.5204C15.2992 5.53012 15.0605 5.63445 14.8824 5.81255C14.7043 5.99064 14.5999 6.22938 14.5902 6.48106C14.5805 6.73273 14.6661 6.97881 14.8299 7.17011C15.2018 7.5416 15.4969 7.98276 15.6982 8.46835C15.8995 8.95394 16.0031 9.47445 16.0031 10.0001C16.0031 10.5258 15.8995 11.0463 15.6982 11.5319C15.4969 12.0175 15.2018 12.4586 14.8299 12.8301C14.6437 13.0175 14.5391 13.2709 14.5391 13.5351C14.5391 13.7993 14.6437 14.0527 14.8299 14.2401C15.0173 14.4264 15.2708 14.5309 15.5349 14.5309C15.7991 14.5309 16.0526 14.4264 16.2399 14.2401C17.3635 13.1151 17.9947 11.5901 17.9947 10.0001C17.9947 8.4101 17.3635 6.88511 16.2399 5.76011ZM19.0699 2.93011C18.8786 2.76628 18.6326 2.68068 18.3809 2.6904C18.1292 2.70012 17.8905 2.80445 17.7124 2.98255C17.5343 3.16064 17.4299 3.39938 17.4202 3.65106C17.4105 3.90273 17.4961 4.14881 17.6599 4.34011C18.4038 5.08309 18.9938 5.9654 19.3964 6.93659C19.799 7.90777 20.0062 8.94879 20.0062 10.0001C20.0062 11.0514 19.799 12.0924 19.3964 13.0636C18.9938 14.0348 18.4038 14.9171 17.6599 15.6601C17.4737 15.8475 17.3691 16.1009 17.3691 16.3651C17.3691 16.6293 17.4737 16.8827 17.6599 17.0701C17.8473 17.2564 18.1008 17.3609 18.3649 17.3609C18.6291 17.3609 18.8826 17.2564 19.0699 17.0701C20.9446 15.1948 21.9978 12.6518 21.9978 10.0001C21.9978 7.34847 20.9446 4.80539 19.0699 2.93011ZM11.9999 8.00011C11.4695 8.00011 10.9608 8.21082 10.5857 8.5859C10.2107 8.96097 9.99994 9.46968 9.99994 10.0001C10.002 10.3491 10.0955 10.6915 10.2709 10.9933C10.4463 11.295 10.6977 11.5456 10.9999 11.7201V21.0001C10.9999 21.2653 11.1053 21.5197 11.2928 21.7072C11.4804 21.8948 11.7347 22.0001 11.9999 22.0001C12.2652 22.0001 12.5195 21.8948 12.707 21.7072C12.8946 21.5197 12.9999 21.2653 12.9999 21.0001V11.7201C13.3022 11.5456 13.5536 11.295 13.729 10.9933C13.9044 10.6915 13.9978 10.3491 13.9999 10.0001C13.9999 9.46968 13.7892 8.96097 13.4142 8.5859C13.0391 8.21082 12.5304 8.00011 11.9999 8.00011Z" fill="#141414"/>
</svg>
