<svg width="24" height="24" viewBox="0 0 24 24" fill="none" xmlns="http://www.w3.org/2000/svg">
<path d="M18 3H6C5.20435 3 4.44129 3.31607 3.87868 3.87868C3.31607 4.44129 3 5.20435 3 6V18C3 18.7956 3.31607 19.5587 3.87868 20.1213C4.44129 20.6839 5.20435 21 6 21H18C18.7956 21 19.5587 20.6839 20.1213 20.1213C20.6839 19.5587 21 18.7956 21 18V6C21 5.20435 20.6839 4.44129 20.1213 3.87868C19.5587 3.31607 18.7956 3 18 3ZM10 8C10.0005 7.8191 10.05 7.64171 10.1434 7.48674C10.2367 7.33177 10.3703 7.20502 10.53 7.12C10.682 7.03223 10.8545 6.98603 11.03 6.98603C11.2055 6.98603 11.378 7.03223 11.53 7.12L14.53 9.12C14.6661 9.21148 14.7777 9.33503 14.8548 9.47977C14.9319 9.62451 14.9722 9.786 14.9722 9.95C14.9722 10.114 14.9319 10.2755 14.8548 10.4202C14.7777 10.565 14.6661 10.6885 14.53 10.78L11.53 12.78C11.3835 12.8721 11.2155 12.9246 11.0426 12.9324C10.8697 12.9402 10.6978 12.9029 10.5436 12.8243C10.3894 12.7457 10.2582 12.6284 10.163 12.4839C10.0677 12.3394 10.0115 12.1727 10 12V8ZM17 18H7C6.73478 18 6.48043 17.8946 6.29289 17.7071C6.10536 17.5196 6 17.2652 6 17C6 16.7348 6.10536 16.4804 6.29289 16.2929C6.48043 16.1054 6.73478 16 7 16H17C17.2652 16 17.5196 16.1054 17.7071 16.2929C17.8946 16.4804 18 16.7348 18 17C18 17.2652 17.8946 17.5196 17.7071 17.7071C17.5196 17.8946 17.2652 18 17 18Z" fill="#141414"/>
</svg>
