<svg width="24" height="24" viewBox="0 0 24 24" fill="none" xmlns="http://www.w3.org/2000/svg">
<path d="M16.12 2.88C15.5579 2.31723 14.7954 2.0007 14 2H10C9.20435 2 8.44129 2.31607 7.87868 2.87868C7.31607 3.44129 7 4.20435 7 5V19C7 19.7956 7.31607 20.5587 7.87868 21.1213C8.44129 21.6839 9.20435 22 10 22H14C14.7956 22 15.5587 21.6839 16.1213 21.1213C16.6839 20.5587 17 19.7956 17 19V5C16.9993 4.20462 16.6828 3.44207 16.12 2.88ZM9 4.8C9.03698 4.60147 9.13319 4.41879 9.27599 4.27599C9.41879 4.13319 9.60147 4.03698 9.8 4C9.995 3.96194 10.1969 3.98283 10.38 4.06C10.564 4.12993 10.7214 4.25585 10.83 4.42C10.9759 4.61153 11.0477 4.84926 11.0324 5.08951C11.0171 5.32977 10.9156 5.55643 10.7466 5.72788C10.5775 5.89932 10.3524 6.00404 10.1123 6.0228C9.87232 6.04156 9.6336 5.9731 9.44 5.83C9.27585 5.72139 9.14993 5.56399 9.08 5.38C8.99607 5.19898 8.9682 4.99699 9 4.8ZM9.42 9.8C9.25585 9.69139 9.12993 9.53399 9.06 9.35C8.98867 9.17596 8.96788 8.98533 9 8.8C9.03698 8.60147 9.13319 8.41879 9.27599 8.27599C9.41879 8.13319 9.60147 8.03697 9.8 8C9.995 7.96194 10.1969 7.98283 10.38 8.06C10.564 8.12993 10.7214 8.25585 10.83 8.42C10.9759 8.61153 11.0477 8.84926 11.0324 9.08951C11.0171 9.32977 10.9156 9.55644 10.7466 9.72788C10.5775 9.89932 10.3524 10.004 10.1123 10.0228C9.87232 10.0416 9.6336 9.9731 9.44 9.83L9.42 9.8ZM14 16C14 16.5304 13.7893 17.0391 13.4142 17.4142C13.0391 17.7893 12.5304 18 12 18C11.4696 18 10.9609 17.7893 10.5858 17.4142C10.2107 17.0391 10 16.5304 10 16V13.5C10 13.3674 10.0527 13.2402 10.1464 13.1464C10.2402 13.0527 10.3674 13 10.5 13C10.6326 13 10.7598 13.0527 10.8536 13.1464C10.9473 13.2402 11 13.3674 11 13.5V16C11 16.2652 11.1054 16.5196 11.2929 16.7071C11.4804 16.8946 11.7348 17 12 17C12.2652 17 12.5196 16.8946 12.7071 16.7071C12.8946 16.5196 13 16.2652 13 16V13.5C13 13.3674 13.0527 13.2402 13.1464 13.1464C13.2402 13.0527 13.3674 13 13.5 13C13.6326 13 13.7598 13.0527 13.8536 13.1464C13.9473 13.2402 14 13.3674 14 13.5V16ZM14.71 9.71C14.5454 9.87475 14.3285 9.97689 14.0966 9.9988C13.8648 10.0207 13.6325 9.96101 13.44 9.83C13.2758 9.72139 13.1499 9.56399 13.08 9.38C12.9961 9.19898 12.9682 8.99698 13 8.8C13.037 8.60147 13.1332 8.41879 13.276 8.27599C13.4188 8.13319 13.6015 8.03697 13.8 8C13.995 7.96194 14.1969 7.98283 14.38 8.06C14.564 8.12993 14.7214 8.25585 14.83 8.42C14.961 8.61254 15.0207 8.84477 14.9988 9.07662C14.9769 9.30847 14.8748 9.52541 14.71 9.69V9.71ZM14.71 5.71C14.5454 5.87475 14.3285 5.97689 14.0966 5.9988C13.8648 6.02071 13.6325 5.96101 13.44 5.83C13.2758 5.72139 13.1499 5.56399 13.08 5.38C12.9961 5.19898 12.9682 4.99699 13 4.8C13.037 4.60147 13.1332 4.41879 13.276 4.27599C13.4188 4.13319 13.6015 4.03698 13.8 4C13.995 3.96194 14.1969 3.98283 14.38 4.06C14.564 4.12993 14.7214 4.25585 14.83 4.42C14.961 4.61254 15.0207 4.84477 14.9988 5.07662C14.9769 5.30847 14.8748 5.52541 14.71 5.69V5.71Z" fill="#141414"/>
</svg>
