<svg width="24" height="24" viewBox="0 0 24 24" fill="none" xmlns="http://www.w3.org/2000/svg">
<path d="M18 8H13V6.72C13.3023 6.54549 13.5536 6.29491 13.7291 5.99317C13.9045 5.69143 13.9979 5.34903 14 5C14 4.46957 13.7893 3.96086 13.4142 3.58579C13.0391 3.21071 12.5304 3 12 3C11.4696 3 10.9609 3.21071 10.5858 3.58579C10.2107 3.96086 10 4.46957 10 5C10.0021 5.34903 10.0955 5.69143 10.2709 5.99317C10.4464 6.29491 10.6977 6.54549 11 6.72V8H6C5.20435 8 4.44129 8.31607 3.87868 8.87868C3.31607 9.44129 3 10.2044 3 11V18C3 18.7956 3.31607 19.5587 3.87868 20.1213C4.44129 20.6839 5.20435 21 6 21H18C18.7956 21 19.5587 20.6839 20.1213 20.1213C20.6839 19.5587 21 18.7956 21 18V11C21 10.2044 20.6839 9.44129 20.1213 8.87868C19.5587 8.31607 18.7956 8 18 8ZM7.5 11C7.79667 11 8.08668 11.088 8.33335 11.2528C8.58003 11.4176 8.77229 11.6519 8.88582 11.926C8.99935 12.2001 9.02906 12.5017 8.97118 12.7926C8.9133 13.0836 8.77044 13.3509 8.56066 13.5607C8.35088 13.7704 8.08361 13.9133 7.79264 13.9712C7.50166 14.0291 7.20006 13.9994 6.92597 13.8858C6.65189 13.7723 6.41762 13.58 6.2528 13.3334C6.08797 13.0867 6 12.7967 6 12.5C6 12.1022 6.15804 11.7206 6.43934 11.4393C6.72064 11.158 7.10218 11 7.5 11ZM17 18H7C6.73478 18 6.48043 17.8946 6.29289 17.7071C6.10536 17.5196 6 17.2652 6 17C6 16.7348 6.10536 16.4804 6.29289 16.2929C6.48043 16.1054 6.73478 16 7 16H17C17.2652 16 17.5196 16.1054 17.7071 16.2929C17.8946 16.4804 18 16.7348 18 17C18 17.2652 17.8946 17.5196 17.7071 17.7071C17.5196 17.8946 17.2652 18 17 18ZM16.5 14C16.2033 14 15.9133 13.912 15.6666 13.7472C15.42 13.5824 15.2277 13.3481 15.1142 13.074C15.0006 12.7999 14.9709 12.4983 15.0288 12.2074C15.0867 11.9164 15.2296 11.6491 15.4393 11.4393C15.6491 11.2296 15.9164 11.0867 16.2074 11.0288C16.4983 10.9709 16.7999 11.0006 17.074 11.1142C17.3481 11.2277 17.5824 11.42 17.7472 11.6666C17.912 11.9133 18 12.2033 18 12.5C18 12.8978 17.842 13.2794 17.5607 13.5607C17.2794 13.842 16.8978 14 16.5 14Z" fill="#141414"/>
</svg>
