<svg width="24" height="24" viewBox="0 0 24 24" fill="none" xmlns="http://www.w3.org/2000/svg">
<path d="M19 4H5C4.20435 4 3.44129 4.31607 2.87868 4.87868C2.31607 5.44129 2 6.20435 2 7V15C2 15.7956 2.31607 16.5587 2.87868 17.1213C3.44129 17.6839 4.20435 18 5 18H8V19C8.0002 19.3721 8.10419 19.7367 8.30028 20.053C8.49637 20.3692 8.77679 20.6244 9.11 20.79C9.38647 20.9278 9.6911 20.9997 10 21C10.4327 21 10.8538 20.8596 11.2 20.6L14.67 18H19C19.7956 18 20.5587 17.6839 21.1213 17.1213C21.6839 16.5587 22 15.7956 22 15V7C22 6.20435 21.6839 5.44129 21.1213 4.87868C20.5587 4.31607 19.7956 4 19 4ZM12 16.5C11.7528 16.5 11.5111 16.4267 11.3055 16.2893C11.1 16.152 10.9398 15.9568 10.8452 15.7284C10.7505 15.4999 10.7258 15.2486 10.774 15.0061C10.8222 14.7637 10.9413 14.5409 11.1161 14.3661C11.2909 14.1913 11.5137 14.0722 11.7561 14.024C11.9986 13.9758 12.2499 14.0005 12.4784 14.0952C12.7068 14.1898 12.902 14.35 13.0393 14.5555C13.1767 14.7611 13.25 15.0028 13.25 15.25C13.25 15.5815 13.1183 15.8995 12.8839 16.1339C12.6495 16.3683 12.3315 16.5 12 16.5ZM13.32 11.88L12.99 12.12C12.9549 12.3689 12.8273 12.5955 12.6326 12.7546C12.438 12.9137 12.1906 12.9936 11.9396 12.9785C11.6887 12.9634 11.4526 12.8543 11.2785 12.6729C11.1044 12.4916 11.005 12.2513 11 12C11.0298 11.6315 11.1528 11.2766 11.3575 10.9687C11.5621 10.6609 11.8417 10.4101 12.17 10.24C12.73 9.84 13 9.63 13 9C12.9653 8.74703 12.8487 8.51237 12.6682 8.33181C12.4876 8.15126 12.253 8.03473 12 8C11.747 8.03473 11.5124 8.15126 11.3318 8.33181C11.1513 8.51237 11.0347 8.74703 11 9C11 9.26522 10.8946 9.51957 10.7071 9.70711C10.5196 9.89464 10.2652 10 10 10C9.73478 10 9.48043 9.89464 9.29289 9.70711C9.10536 9.51957 9 9.26522 9 9C9.03874 8.21687 9.36725 7.47612 9.92168 6.92168C10.4761 6.36725 11.2169 6.03874 12 6C12.7831 6.03874 13.5239 6.36725 14.0783 6.92168C14.6328 7.47612 14.9613 8.21687 15 9C14.9999 9.58577 14.8443 10.161 14.5491 10.667C14.254 11.173 13.8298 11.5915 13.32 11.88Z" fill="#141414"/>
</svg>
