<svg width="24" height="24" viewBox="0 0 24 24" fill="none" xmlns="http://www.w3.org/2000/svg">
<path d="M19 9C18.6409 9.00179 18.2889 9.10023 17.981 9.28499C17.6731 9.46974 17.4206 9.734 17.25 10.05C17.1032 9.99832 16.9459 9.9839 16.7921 10.008C16.6384 10.0322 16.493 10.0941 16.3691 10.1883C16.2452 10.2824 16.1466 10.4059 16.0822 10.5476C16.0177 10.6893 15.9895 10.8447 16 11C15.4696 11 14.9609 11.2107 14.5858 11.5858C14.2107 11.9609 14 12.4696 14 13C14 13.5304 14.2107 14.0391 14.5858 14.4142C14.9609 14.7893 15.4696 15 16 15H20C20.4428 15.0031 20.8742 14.8591 21.2264 14.5907C21.5786 14.3222 21.8317 13.9445 21.9461 13.5167C22.0605 13.0888 22.0297 12.6352 21.8584 12.2268C21.6872 11.8184 21.3853 11.4783 21 11.26C21.0104 11.1736 21.0104 11.0864 21 11C21 10.4696 20.7893 9.96086 20.4142 9.58579C20.0391 9.21071 19.5304 9 19 9ZM5.5 11H12.09C12.3261 9.60294 13.0491 8.33452 14.1308 7.41939C15.2125 6.50425 16.5831 6.00144 18 6H21.65C21.368 5.40272 20.9223 4.89773 20.3647 4.54369C19.8071 4.18966 19.1605 4.00113 18.5 4H5.5C4.57174 4 3.6815 4.36875 3.02513 5.02513C2.36875 5.6815 2 6.57174 2 7.5C2 8.42826 2.36875 9.3185 3.02513 9.97487C3.6815 10.6313 4.57174 11 5.5 11ZM9.5 6.5C9.69778 6.5 9.89112 6.55865 10.0556 6.66853C10.22 6.77841 10.3482 6.93459 10.4239 7.11732C10.4996 7.30004 10.5194 7.50111 10.4808 7.69509C10.4422 7.88907 10.347 8.06725 10.2071 8.20711C10.0673 8.34696 9.88907 8.4422 9.69509 8.48079C9.50111 8.51937 9.30004 8.49957 9.11732 8.42388C8.93459 8.34819 8.77841 8.22002 8.66853 8.05557C8.55865 7.89112 8.5 7.69778 8.5 7.5C8.5 7.23478 8.60536 6.98043 8.79289 6.79289C8.98043 6.60536 9.23478 6.5 9.5 6.5ZM5.5 6.5C5.69778 6.5 5.89112 6.55865 6.05557 6.66853C6.22002 6.77841 6.34819 6.93459 6.42388 7.11732C6.49957 7.30004 6.51937 7.50111 6.48079 7.69509C6.4422 7.88907 6.34696 8.06725 6.20711 8.20711C6.06725 8.34696 5.88907 8.4422 5.69509 8.48079C5.50111 8.51937 5.30004 8.49957 5.11732 8.42388C4.93459 8.34819 4.77841 8.22002 4.66853 8.05557C4.55865 7.89112 4.5 7.69778 4.5 7.5C4.5 7.23478 4.60536 6.98043 4.79289 6.79289C4.98043 6.60536 5.23478 6.5 5.5 6.5ZM12.09 13H5.5C4.57174 13 3.6815 13.3687 3.02513 14.0251C2.36875 14.6815 2 15.5717 2 16.5C2 17.4283 2.36875 18.3185 3.02513 18.9749C3.6815 19.6313 4.57174 20 5.5 20H18.5C19.1605 19.9989 19.8071 19.8103 20.3647 19.4563C20.9223 19.1023 21.368 18.5973 21.65 18H18C16.5831 17.9986 15.2125 17.4958 14.1308 16.5806C13.0491 15.6655 12.3261 14.3971 12.09 13ZM5.5 17.5C5.30222 17.5 5.10888 17.4414 4.94443 17.3315C4.77998 17.2216 4.65181 17.0654 4.57612 16.8827C4.50043 16.7 4.48063 16.4989 4.51921 16.3049C4.5578 16.1109 4.65304 15.9327 4.79289 15.7929C4.93275 15.653 5.11093 15.5578 5.30491 15.5192C5.49889 15.4806 5.69996 15.5004 5.88268 15.5761C6.06541 15.6518 6.22159 15.78 6.33147 15.9444C6.44135 16.1089 6.5 16.3022 6.5 16.5C6.5 16.7652 6.39464 17.0196 6.20711 17.2071C6.01957 17.3946 5.76522 17.5 5.5 17.5ZM9.5 17.5C9.30222 17.5 9.10888 17.4414 8.94443 17.3315C8.77998 17.2216 8.65181 17.0654 8.57612 16.8827C8.50043 16.7 8.48063 16.4989 8.51921 16.3049C8.5578 16.1109 8.65304 15.9327 8.79289 15.7929C8.93275 15.653 9.11093 15.5578 9.30491 15.5192C9.49889 15.4806 9.69996 15.5004 9.88268 15.5761C10.0654 15.6518 10.2216 15.78 10.3315 15.9444C10.4414 16.1089 10.5 16.3022 10.5 16.5C10.5 16.7652 10.3946 17.0196 10.2071 17.2071C10.0196 17.3946 9.76522 17.5 9.5 17.5Z" fill="#141414"/>
</svg>
