<svg width="24" height="24" viewBox="0 0 24 24" fill="none" xmlns="http://www.w3.org/2000/svg">
<path d="M21.9 11.6102C21.8518 11.4883 21.7766 11.3789 21.68 11.2902L18.68 8.29018C18.4987 8.11021 18.2554 8.00644 18 8.00018C17.8694 8.00176 17.7403 8.02894 17.62 8.08018C17.4965 8.13075 17.3843 8.20555 17.29 8.30018C17.1053 8.48644 17.0012 8.73784 17 9.00018C17.0066 9.26436 17.1098 9.51697 17.29 9.71018L18.56 11.0002H10C9.73771 11.0013 9.48631 11.1054 9.30005 11.2902C9.20542 11.3844 9.13061 11.4966 9.08005 11.6202C9.0288 11.7404 9.00163 11.8695 9.00005 12.0002C8.99928 12.1318 9.02451 12.2623 9.07427 12.3841C9.12404 12.5059 9.19736 12.6167 9.29005 12.7102C9.38349 12.8029 9.4943 12.8762 9.61614 12.926C9.73798 12.9757 9.86844 13.0009 10 13.0002H18.59L17.28 14.2902C17.1901 14.3823 17.1188 14.491 17.07 14.6102C17.0209 14.7342 16.9971 14.8668 17 15.0002C17.0016 15.1309 17.0288 15.26 17.08 15.3802C17.1276 15.5029 17.199 15.6151 17.29 15.7102C17.387 15.8015 17.4985 15.8758 17.62 15.9302C17.741 15.978 17.87 16.0018 18 16.0002C18.1334 16.0031 18.266 15.9793 18.39 15.9302C18.5119 15.8819 18.6213 15.8067 18.71 15.7102L21.71 12.7102C21.809 12.6196 21.8845 12.5063 21.93 12.3802C21.9779 12.2593 22.0016 12.1302 22 12.0002C21.9912 11.8651 21.9573 11.7328 21.9 11.6102ZM18.19 18.1702C18.0105 18.0489 17.7964 17.9893 17.58 18.0002C17.3498 18.002 17.1273 18.0833 16.95 18.2302C16.2114 18.8417 15.3629 19.3066 14.45 19.6002C13.2487 19.997 11.9704 20.1032 10.72 19.9102C9.47107 19.7095 8.28625 19.2199 7.26005 18.4802C5.71443 17.3605 4.62003 15.7252 4.17441 13.8694C3.7288 12.0136 3.96134 10.0596 4.83005 8.36018C5.69149 6.65435 7.13511 5.31324 8.89965 4.57954C10.6642 3.84584 12.6331 3.76803 14.45 4.36018C15.3822 4.66315 16.2478 5.14176 17 5.77018C17.1693 5.91077 17.3802 5.99161 17.6 6.00018C17.807 6.01045 18.0114 5.95055 18.18 5.83018C18.3522 5.71646 18.4849 5.5523 18.56 5.36018C18.6198 5.16124 18.6198 4.94913 18.56 4.75018C18.5083 4.55135 18.3966 4.37327 18.24 4.24018C17.6006 3.71049 16.8946 3.26672 16.14 2.92018C14.523 2.17466 12.7363 1.87441 10.9644 2.05047C9.19248 2.22653 7.49974 2.87251 6.06104 3.92166C4.62234 4.97081 3.48987 6.38509 2.78063 8.01835C2.07139 9.65162 1.81111 11.4446 2.02669 13.2122C2.24226 14.9797 2.92587 16.6576 4.00689 18.0725C5.0879 19.4874 6.5271 20.588 8.1758 21.2606C9.82449 21.9332 11.6229 22.1534 13.3851 21.8984C15.1474 21.6434 16.8096 20.9225 18.2 19.8102C18.3802 19.6897 18.5114 19.5088 18.57 19.3002C18.6379 19.0957 18.6379 18.8747 18.57 18.6702C18.5004 18.467 18.3671 18.2917 18.19 18.1702Z" fill="#141414"/>
</svg>
