<svg width="24" height="24" viewBox="0 0 24 24" fill="none" xmlns="http://www.w3.org/2000/svg">
<path d="M15.0001 4H9.00006C7.23973 4.01356 5.54913 4.68987 4.26515 5.89418C2.98118 7.09849 2.1981 8.74235 2.07196 10.4982C1.94582 12.2541 2.48588 13.993 3.58453 15.3685C4.68318 16.7439 6.25974 17.655 8.00006 17.92V20C8.00006 20.2786 8.07763 20.5516 8.22408 20.7886C8.37053 21.0256 8.58008 21.2171 8.82924 21.3416C9.07839 21.4662 9.35732 21.519 9.63476 21.4939C9.91221 21.4689 10.1772 21.3671 10.4001 21.2L14.6701 18H15.0001C16.8566 18 18.637 17.2625 19.9498 15.9497C21.2626 14.637 22.0001 12.8565 22.0001 11C22.0001 9.14348 21.2626 7.36301 19.9498 6.05025C18.637 4.7375 16.8566 4 15.0001 4ZM18.0001 12C18.0001 12.2652 17.8947 12.5196 17.7072 12.7071C17.5196 12.8946 17.2653 13 17.0001 13C16.7348 13 16.4805 12.8946 16.2929 12.7071C16.1054 12.5196 16.0001 12.2652 16.0001 12V11.41L13.7101 13.71C13.5218 13.8983 13.2664 14.0041 13.0001 14.0041C12.7338 14.0041 12.4784 13.8983 12.2901 13.71C12.1018 13.5217 11.996 13.2663 11.996 13C11.996 12.7337 12.1018 12.4783 12.2901 12.29L14.5901 10H14.0001C13.7348 10 13.4805 9.89464 13.2929 9.70711C13.1054 9.51957 13.0001 9.26522 13.0001 9C13.0001 8.73478 13.1054 8.48043 13.2929 8.29289C13.4805 8.10536 13.7348 8 14.0001 8H17.0001C17.1307 8.00158 17.2598 8.02876 17.3801 8.08C17.6244 8.18147 17.8186 8.37565 17.9201 8.62C17.9713 8.74022 17.9985 8.86932 18.0001 9V12Z" fill="#141414"/>
</svg>
