<svg width="24" height="24" viewBox="0 0 24 24" fill="none" xmlns="http://www.w3.org/2000/svg">
<path d="M20.7099 3.29022C20.617 3.19649 20.5064 3.1221 20.3845 3.07133C20.2627 3.02056 20.132 2.99442 19.9999 2.99442C19.8679 2.99442 19.7372 3.02056 19.6154 3.07133C19.4935 3.1221 19.3829 3.19649 19.2899 3.29022L3.28994 19.2902C3.19621 19.3832 3.12182 19.4938 3.07105 19.6156C3.02028 19.7375 2.99414 19.8682 2.99414 20.0002C2.99414 20.1322 3.02028 20.2629 3.07105 20.3848C3.12182 20.5067 3.19621 20.6173 3.28994 20.7102C3.3829 20.8039 3.4935 20.8783 3.61536 20.9291C3.73722 20.9799 3.86793 21.006 3.99994 21.006C4.13195 21.006 4.26266 20.9799 4.38452 20.9291C4.50638 20.8783 4.61698 20.8039 4.70994 20.7102L5.23994 20.1702C5.38799 20.5263 5.60557 20.8493 5.87994 21.1202C6.44201 21.683 7.20456 21.9995 7.99994 22.0002H15.9999C16.7956 22.0002 17.5587 21.6842 18.1213 21.1215C18.6839 20.5589 18.9999 19.7959 18.9999 19.0002V6.41022L20.7099 4.71022C20.8037 4.61726 20.8781 4.50666 20.9288 4.3848C20.9796 4.26294 21.0057 4.13223 21.0057 4.00022C21.0057 3.86821 20.9796 3.7375 20.9288 3.61564C20.8781 3.49378 20.8037 3.38318 20.7099 3.29022ZM11.9999 20.0002H7.99994C7.73472 20.0002 7.48037 19.8949 7.29283 19.7073C7.1053 19.5198 6.99994 19.2654 6.99994 19.0002V18.4102L8.40994 17.0002H11.9999V20.0002ZM16.9999 19.0002C16.9999 19.2654 16.8946 19.5198 16.707 19.7073C16.5195 19.8949 16.2652 20.0002 15.9999 20.0002H13.9999V17.0002H16.9999V19.0002ZM16.9999 15.0002H11.9999V13.4102L13.4099 12.0002H16.9999V15.0002ZM6.99994 12.0002H7.75994L17.3999 2.36022C16.9696 2.1279 16.489 2.00432 15.9999 2.00022H10.9999C10.5431 1.99005 10.0905 2.08949 9.67994 2.29022C9.26727 2.48589 8.90473 2.77319 8.61994 3.13022L5.61994 6.83022C5.20866 7.36599 4.99021 8.02487 4.99994 8.70022V14.7602L6.99994 12.7602V12.0002Z" fill="#141414"/>
</svg>
