<svg width="24" height="24" viewBox="0 0 24 24" fill="none" xmlns="http://www.w3.org/2000/svg">
<path d="M7.89 11.97C7.94 11.97 7.99 12 8.04 12L10.15 15.52C10.34 15.83 10.67 16.01 11.01 16.01C11.19 16.01 11.36 15.96 11.52 15.87C11.99 15.59 12.15 14.97 11.86 14.5L9.19 10.04L10.75 7.71L12.2 8.68C12.53 8.9 12.91 9.02 13.31 9.02H16.01C16.56 9.02 17.01 8.57 17.01 8.02C17.01 7.47 16.56 7.02 16.01 7.02H13.31L10.81 5.36C10.48 5.14 10.1 5.02 9.7 5.02H6.42C5.89 5.02 5.38 5.23 5.01 5.61L4.3 6.32C3.91 6.71 3.91 7.34 4.3 7.73C4.69 8.12 5.32 8.12 5.71 7.73L6.42 7.02H8.8L5.47 12.02H3C2.45 12.02 2 12.47 2 13.02C2 13.57 2.45 14.02 3 14.02H5.46C6.13 14.02 6.75 13.69 7.12 13.13L7.88 11.99L7.89 11.97ZM12.5 5C13.33 5 14 4.33 14 3.5C14 2.67 13.33 2 12.5 2C11.67 2 11 2.67 11 3.5C11 4.33 11.67 5 12.5 5ZM20.5 16.5C20.06 16.5 19.66 16.7 19.39 17H17.82L16.98 12.8C16.89 12.36 16.53 12.04 16.08 12C15.63 11.96 15.22 12.23 15.06 12.65L12.75 18.82L11.83 17.44C11.64 17.16 11.33 16.99 11 16.99H8C7.45 16.99 7 17.44 7 17.99C7 18.54 7.45 18.99 8 18.99H10.46L12.16 21.54C12.35 21.82 12.66 21.99 12.99 21.99C13.03 21.99 13.07 21.99 13.1 21.99C13.47 21.95 13.79 21.7 13.92 21.35L15.69 16.63L16 18.2C16.09 18.67 16.5 19 16.98 19H19.37C19.64 19.3 20.04 19.5 20.48 19.5C21.31 19.5 21.98 18.83 21.98 18C21.98 17.17 21.31 16.5 20.48 16.5H20.5Z" fill="#141414"/>
</svg>
