<svg width="24" height="24" viewBox="0 0 24 24" fill="none" xmlns="http://www.w3.org/2000/svg">
<path d="M11.6 3.8L6 8H4C3.46957 8 2.96086 8.21071 2.58579 8.58579C2.21071 8.96086 2 9.46957 2 10V14C2 14.5304 2.21071 15.0391 2.58579 15.4142C2.96086 15.7893 3.46957 16 4 16H6L11.6 20.2C11.8229 20.3671 12.0878 20.4689 12.3653 20.4939C12.6427 20.519 12.9217 20.4662 13.1708 20.3416C13.42 20.2171 13.6295 20.0256 13.776 19.7886C13.9224 19.5516 14 19.2786 14 19V5C14 4.72143 13.9224 4.44837 13.776 4.2114C13.6295 3.97444 13.42 3.78294 13.1708 3.65836C12.9217 3.53378 12.6427 3.48104 12.3653 3.50606C12.0878 3.53108 11.8229 3.63286 11.6 3.8ZM15.71 9.88C15.5237 10.0674 15.4192 10.3208 15.4192 10.585C15.4192 10.8492 15.5237 11.1026 15.71 11.29C15.8037 11.383 15.8781 11.4936 15.9289 11.6154C15.9797 11.7373 16.0058 11.868 16.0058 12C16.0058 12.132 15.9797 12.2627 15.9289 12.3846C15.8781 12.5064 15.8037 12.617 15.71 12.71C15.5237 12.8974 15.4192 13.1508 15.4192 13.415C15.4192 13.6792 15.5237 13.9326 15.71 14.12C15.8974 14.3063 16.1508 14.4108 16.415 14.4108C16.6792 14.4108 16.9326 14.3063 17.12 14.12C17.6818 13.5575 17.9974 12.795 17.9974 12C17.9974 11.205 17.6818 10.4425 17.12 9.88C16.9326 9.69375 16.6792 9.58921 16.415 9.58921C16.1508 9.58921 15.8974 9.69375 15.71 9.88ZM20 7.05C19.8126 6.86375 19.5592 6.75921 19.295 6.75921C19.0308 6.75921 18.7774 6.86375 18.59 7.05C18.4037 7.23736 18.2992 7.49081 18.2992 7.755C18.2992 8.01919 18.4037 8.27264 18.59 8.46C19.0556 8.92446 19.4251 9.47621 19.6771 10.0837C19.9292 10.6911 20.0589 11.3423 20.0589 12C20.0589 12.6577 19.9292 13.3089 19.6771 13.9163C19.4251 14.5238 19.0556 15.0755 18.59 15.54C18.4037 15.7274 18.2992 15.9808 18.2992 16.245C18.2992 16.5092 18.4037 16.7626 18.59 16.95C18.7763 17.1347 19.0277 17.2389 19.29 17.24C19.5488 17.2551 19.8034 17.169 20 17C20.6501 16.35 21.1658 15.5783 21.5176 14.7289C21.8694 13.8796 22.0505 12.9693 22.0505 12.05C22.0505 11.1307 21.8694 10.2204 21.5176 9.37105C21.1658 8.52173 20.6501 7.75002 20 7.1V7.05Z" fill="#141414"/>
</svg>
