<svg width="24" height="24" viewBox="0 0 24 24" fill="none" xmlns="http://www.w3.org/2000/svg">
<path d="M12 7C12.2652 7 12.5196 6.89464 12.7071 6.70711C12.8946 6.51957 13 6.26522 13 6V4C13 3.73478 12.8946 3.48043 12.7071 3.29289C12.5196 3.10536 12.2652 3 12 3C11.7348 3 11.4804 3.10536 11.2929 3.29289C11.1054 3.48043 11 3.73478 11 4V6C11 6.26522 11.1054 6.51957 11.2929 6.70711C11.4804 6.89464 11.7348 7 12 7ZM16.74 8.26C16.8723 8.25945 17.0032 8.23265 17.1251 8.18116C17.2469 8.12966 17.3574 8.05449 17.45 7.96L18.86 6.55C18.9647 6.46035 19.0497 6.35003 19.1097 6.22597C19.1697 6.10191 19.2035 5.96677 19.2088 5.82905C19.2141 5.69133 19.1909 5.554 19.1406 5.42568C19.0904 5.29735 19.0141 5.1808 18.9167 5.08335C18.8192 4.98589 18.7026 4.90964 18.5743 4.85936C18.446 4.80909 18.3087 4.78588 18.1709 4.7912C18.0332 4.79652 17.8981 4.83025 17.774 4.89027C17.65 4.9503 17.5396 5.03532 17.45 5.14L16 6.55C15.9017 6.64342 15.8234 6.75587 15.7699 6.88051C15.7163 7.00514 15.6887 7.13936 15.6887 7.275C15.6887 7.41064 15.7163 7.54486 15.7699 7.66949C15.8234 7.79413 15.9017 7.90658 16 8C16.0995 8.09097 16.2163 8.1609 16.3434 8.20558C16.4706 8.25026 16.6055 8.26877 16.74 8.26ZM6.55 8C6.64261 8.09449 6.75306 8.16966 6.87493 8.22116C6.99681 8.27265 7.12769 8.29945 7.26 8.3C7.39734 8.30351 7.53393 8.27868 7.66124 8.22707C7.78856 8.17545 7.90388 8.09815 8 8C8.09834 7.90658 8.17664 7.79413 8.23015 7.66949C8.28366 7.54486 8.31125 7.41064 8.31125 7.275C8.31125 7.13936 8.28366 7.00514 8.23015 6.88051C8.17664 6.75587 8.09834 6.64342 8 6.55L6.55 5.14C6.3587 4.97617 6.11262 4.89057 5.86095 4.90029C5.60927 4.91001 5.37053 5.01434 5.19244 5.19244C5.01434 5.37053 4.91001 5.60927 4.90029 5.86095C4.89057 6.11262 4.97617 6.3587 5.14 6.55L6.55 8ZM7.2 15.42C7.18295 15.561 7.19614 15.7041 7.2387 15.8396C7.28127 15.9752 7.35222 16.1001 7.44683 16.206C7.54145 16.312 7.65756 16.3966 7.78743 16.4542C7.91729 16.5118 8.05794 16.541 8.2 16.54H15.82C15.9621 16.541 16.1027 16.5118 16.2326 16.4542C16.3624 16.3966 16.4786 16.312 16.5732 16.206C16.6678 16.1001 16.7387 15.9752 16.7813 15.8396C16.8239 15.7041 16.8371 15.561 16.82 15.42L16.12 9.79C16.0588 9.30399 15.8213 8.85735 15.4527 8.53479C15.084 8.21222 14.6098 8.03616 14.12 8.04H9.88C9.39017 8.03616 8.91596 8.21222 8.54731 8.53479C8.17866 8.85735 7.94122 9.30399 7.88 9.79L7.2 15.42ZM20 11H18C17.7348 11 17.4804 11.1054 17.2929 11.2929C17.1054 11.4804 17 11.7348 17 12C17 12.2652 17.1054 12.5196 17.2929 12.7071C17.4804 12.8946 17.7348 13 18 13H20C20.2652 13 20.5196 12.8946 20.7071 12.7071C20.8946 12.5196 21 12.2652 21 12C21 11.7348 20.8946 11.4804 20.7071 11.2929C20.5196 11.1054 20.2652 11 20 11ZM16.37 17.5H7.63C7.21589 17.4864 6.813 17.6359 6.50811 17.9165C6.20323 18.1971 6.02075 18.5862 6 19V20C6 20.2652 6.10536 20.5196 6.29289 20.7071C6.48043 20.8946 6.73478 21 7 21H17C17.2652 21 17.5196 20.8946 17.7071 20.7071C17.8946 20.5196 18 20.2652 18 20V19C17.9792 18.5862 17.7968 18.1971 17.4919 17.9165C17.187 17.6359 16.7841 17.4864 16.37 17.5ZM7 12C7 11.7348 6.89464 11.4804 6.70711 11.2929C6.51957 11.1054 6.26522 11 6 11H4C3.73478 11 3.48043 11.1054 3.29289 11.2929C3.10536 11.4804 3 11.7348 3 12C3 12.2652 3.10536 12.5196 3.29289 12.7071C3.48043 12.8946 3.73478 13 4 13H6C6.26522 13 6.51957 12.8946 6.70711 12.7071C6.89464 12.5196 7 12.2652 7 12Z" fill="#141414"/>
</svg>
