<svg width="24" height="24" viewBox="0 0 24 24" fill="none" xmlns="http://www.w3.org/2000/svg">
<path d="M21 3.99997C20.0786 3.97751 19.1655 4.18002 18.34 4.58997C17.7705 4.8782 17.138 5.01916 16.5 4.99997C15.8588 5.01999 15.2227 4.87903 14.65 4.58997C13.8276 4.18123 12.9181 3.97873 12 3.99997C11.0786 3.97751 10.1655 4.18002 9.34 4.58997C8.77055 4.8782 8.13795 5.01916 7.5 4.99997C6.85877 5.01999 6.22274 4.87903 5.65 4.58997C4.82857 4.17853 3.9184 3.97588 3 3.99997C2.73478 3.99997 2.48043 4.10533 2.29289 4.29286C2.10536 4.4804 2 4.73475 2 4.99997V19C2 19.2652 2.10536 19.5195 2.29289 19.7071C2.48043 19.8946 2.73478 20 3 20H21C21.2652 20 21.5196 19.8946 21.7071 19.7071C21.8946 19.5195 22 19.2652 22 19V4.99997C22 4.73475 21.8946 4.4804 21.7071 4.29286C21.5196 4.10533 21.2652 3.99997 21 3.99997Z" fill="#141414"/>
</svg>
