<svg width="24" height="24" viewBox="0 0 24 24" fill="none" xmlns="http://www.w3.org/2000/svg">
<path d="M18.66 4C18.9435 4.6283 19.0868 5.31076 19.08 6V18C19.0868 18.6892 18.9435 19.3717 18.66 20C19.3146 19.9098 19.9137 19.5836 20.3446 19.0827C20.7755 18.5818 21.0086 17.9407 21 17.28V6.72C21.0086 6.05929 20.7755 5.41819 20.3446 4.91728C19.9137 4.41637 19.3146 4.09016 18.66 4ZM15 2H6C5.20435 2 4.44129 2.31607 3.87868 2.87868C3.31607 3.44129 3 4.20435 3 5V19C3 19.7956 3.31607 20.5587 3.87868 21.1213C4.44129 21.6839 5.20435 22 6 22H15C15.7956 22 16.5587 21.6839 17.1213 21.1213C17.6839 20.5587 18 19.7956 18 19V5C18 4.20435 17.6839 3.44129 17.1213 2.87868C16.5587 2.31607 15.7956 2 15 2ZM7.29 7.29C7.38296 7.19627 7.49356 7.12188 7.61542 7.07111C7.73728 7.02034 7.86799 6.9942 8 6.9942C8.13201 6.9942 8.26272 7.02034 8.38458 7.07111C8.50644 7.12188 8.61704 7.19627 8.71 7.29L9.5 8.09L12.29 5.29C12.3832 5.19676 12.4939 5.1228 12.6158 5.07234C12.7376 5.02188 12.8681 4.99591 13 4.99591C13.1319 4.99591 13.2624 5.02188 13.3842 5.07234C13.5061 5.1228 13.6168 5.19676 13.71 5.29C13.8032 5.38324 13.8772 5.49393 13.9277 5.61575C13.9781 5.73757 14.0041 5.86814 14.0041 6C14.0041 6.13186 13.9781 6.26243 13.9277 6.38425C13.8772 6.50607 13.8032 6.61676 13.71 6.71L10.21 10.21C10.117 10.3037 10.0064 10.3781 9.88458 10.4289C9.76272 10.4797 9.63201 10.5058 9.5 10.5058C9.36799 10.5058 9.23728 10.4797 9.11542 10.4289C8.99356 10.3781 8.88296 10.3037 8.79 10.21L7.29 8.71C7.19627 8.61704 7.12188 8.50644 7.07111 8.38458C7.02034 8.26272 6.9942 8.13201 6.9942 8C6.9942 7.86799 7.02034 7.73728 7.07111 7.61542C7.12188 7.49356 7.19627 7.38296 7.29 7.29ZM14 19H7C6.73478 19 6.48043 18.8946 6.29289 18.7071C6.10536 18.5196 6 18.2652 6 18C6 17.7348 6.10536 17.4804 6.29289 17.2929C6.48043 17.1054 6.73478 17 7 17H14C14.2652 17 14.5196 17.1054 14.7071 17.2929C14.8946 17.4804 15 17.7348 15 18C15 18.2652 14.8946 18.5196 14.7071 18.7071C14.5196 18.8946 14.2652 19 14 19ZM14 15H7C6.73478 15 6.48043 14.8946 6.29289 14.7071C6.10536 14.5196 6 14.2652 6 14C6 13.7348 6.10536 13.4804 6.29289 13.2929C6.48043 13.1054 6.73478 13 7 13H14C14.2652 13 14.5196 13.1054 14.7071 13.2929C14.8946 13.4804 15 13.7348 15 14C15 14.2652 14.8946 14.5196 14.7071 14.7071C14.5196 14.8946 14.2652 15 14 15Z" fill="#141414"/>
</svg>
