<svg width="24" height="24" viewBox="0 0 24 24" fill="none" xmlns="http://www.w3.org/2000/svg">
<path d="M20 8C19.7348 8 19.4804 8.10536 19.2929 8.29289C19.1054 8.48043 19 8.73478 19 9V14H17C16.9992 13.6153 16.8874 13.239 16.6782 12.9161C16.4689 12.5933 16.1709 12.3377 15.82 12.18L13.92 4.65C13.8394 4.19571 13.6042 3.78327 13.2543 3.48255C12.9044 3.18184 12.4612 3.01136 12 3C11.5388 3.01136 11.0956 3.18184 10.7457 3.48255C10.3958 3.78327 10.1606 4.19571 10.08 4.65L8.18 12.18C7.8291 12.3377 7.53114 12.5933 7.32185 12.9161C7.11255 13.239 7.0008 13.6153 7 14H5V9C5 8.73478 4.89464 8.48043 4.70711 8.29289C4.51957 8.10536 4.26522 8 4 8C3.73478 8 3.48043 8.10536 3.29289 8.29289C3.10536 8.48043 3 8.73478 3 9V18C3.00216 18.1199 3.02587 18.2385 3.07 18.35V18.43C3.10795 18.5193 3.16221 18.6006 3.23 18.67C3.29896 18.7408 3.3803 18.7985 3.47 18.84L7.47 20.84C7.62809 20.9421 7.8118 20.9976 8 21H16C16.1456 20.9976 16.289 20.9635 16.42 20.9L20.42 18.9C20.5097 18.8585 20.591 18.8008 20.66 18.73C20.7278 18.6606 20.7821 18.5793 20.82 18.49C20.8236 18.4635 20.8236 18.4365 20.82 18.41C20.9102 18.2887 20.9718 18.1485 21 18V9C21 8.73478 20.8946 8.48043 20.7071 8.29289C20.5196 8.10536 20.2652 8 20 8ZM4 6C4.26522 6 4.51957 5.89464 4.70711 5.70711C4.89464 5.51957 5 5.26522 5 5V4C5 3.73478 4.89464 3.48043 4.70711 3.29289C4.51957 3.10536 4.26522 3 4 3C3.73478 3 3.48043 3.10536 3.29289 3.29289C3.10536 3.48043 3 3.73478 3 4V5C3 5.26522 3.10536 5.51957 3.29289 5.70711C3.48043 5.89464 3.73478 6 4 6ZM20 3C19.7348 3 19.4804 3.10536 19.2929 3.29289C19.1054 3.48043 19 3.73478 19 4V5C19 5.26522 19.1054 5.51957 19.2929 5.70711C19.4804 5.89464 19.7348 6 20 6C20.2652 6 20.5196 5.89464 20.7071 5.70711C20.8946 5.51957 21 5.26522 21 5V4C21 3.73478 20.8946 3.48043 20.7071 3.29289C20.5196 3.10536 20.2652 3 20 3Z" fill="#141414"/>
</svg>
