<svg width="24" height="24" viewBox="0 0 24 24" fill="none" xmlns="http://www.w3.org/2000/svg">
<path d="M18 3H6C5.20435 3 4.44129 3.31607 3.87868 3.87868C3.31607 4.44129 3 5.20435 3 6V18C3 18.7956 3.31607 19.5587 3.87868 20.1213C4.44129 20.6839 5.20435 21 6 21H18C18.7956 21 19.5587 20.6839 20.1213 20.1213C20.6839 19.5587 21 18.7956 21 18V6C21 5.20435 20.6839 4.44129 20.1213 3.87868C19.5587 3.31607 18.7956 3 18 3ZM11 17C11 17.2652 10.8946 17.5196 10.7071 17.7071C10.5196 17.8946 10.2652 18 10 18C9.73478 18 9.48043 17.8946 9.29289 17.7071C9.10536 17.5196 9 17.2652 9 17V16.41L6.71 18.71C6.61704 18.8037 6.50644 18.8781 6.38458 18.9289C6.26272 18.9797 6.13201 19.0058 6 19.0058C5.86799 19.0058 5.73728 18.9797 5.61542 18.9289C5.49356 18.8781 5.38296 18.8037 5.29 18.71C5.19627 18.617 5.12188 18.5064 5.07111 18.3846C5.02034 18.2627 4.9942 18.132 4.9942 18C4.9942 17.868 5.02034 17.7373 5.07111 17.6154C5.12188 17.4936 5.19627 17.383 5.29 17.29L7.59 15H7C6.73478 15 6.48043 14.8946 6.29289 14.7071C6.10536 14.5196 6 14.2652 6 14C6 13.7348 6.10536 13.4804 6.29289 13.2929C6.48043 13.1054 6.73478 13 7 13H10C10.1307 13.0016 10.2598 13.0288 10.38 13.08C10.6243 13.1815 10.8185 13.3757 10.92 13.62C10.9712 13.7402 10.9984 13.8693 11 14V17ZM18.71 6.71L16.41 9H17C17.2652 9 17.5196 9.10536 17.7071 9.29289C17.8946 9.48043 18 9.73478 18 10C18 10.2652 17.8946 10.5196 17.7071 10.7071C17.5196 10.8946 17.2652 11 17 11H14C13.8693 10.9984 13.7402 10.9712 13.62 10.92C13.3757 10.8185 13.1815 10.6243 13.08 10.38C13.0288 10.2598 13.0016 10.1307 13 10V7C13 6.73478 13.1054 6.48043 13.2929 6.29289C13.4804 6.10536 13.7348 6 14 6C14.2652 6 14.5196 6.10536 14.7071 6.29289C14.8946 6.48043 15 6.73478 15 7V7.59L17.29 5.29C17.4783 5.1017 17.7337 4.99591 18 4.99591C18.2663 4.99591 18.5217 5.1017 18.71 5.29C18.8983 5.4783 19.0041 5.7337 19.0041 6C19.0041 6.2663 18.8983 6.5217 18.71 6.71Z" fill="#141414"/>
</svg>
