<svg width="24" height="24" viewBox="0 0 24 24" fill="none" xmlns="http://www.w3.org/2000/svg">
<path fill-rule="evenodd" clip-rule="evenodd" d="M11.06 4.0372C11.6425 3.4547 12.4775 3.2922 13.2375 3.6072C13.9975 3.9222 14.47 4.6297 14.4725 5.4522V18.6672C14.4725 19.4747 14.0125 20.1772 13.2725 20.4997C13.0075 20.6147 12.7325 20.6722 12.4625 20.6722C11.9725 20.6722 11.4925 20.4872 11.1125 20.1347L6.8275 16.1622H3.7475C2.535 16.1622 1.55 15.1772 1.55 13.9672L1.5 10.8372C1.5 9.5047 2.325 8.5447 3.4625 8.5447H6.5275L11.06 4.0372ZM18.8574 18.622C18.6424 18.622 18.4274 18.5295 18.2799 18.3495C18.0149 18.0295 18.0599 17.557 18.3799 17.2945C19.9699 15.977 20.9999 13.932 20.9999 12.087C20.9999 10.237 19.9724 8.19449 18.3799 6.87949C18.0599 6.61699 18.0149 6.14199 18.2799 5.82449C18.5424 5.50449 19.0174 5.45949 19.3349 5.72449C21.2574 7.31199 22.4999 9.80949 22.4999 12.087C22.4999 14.362 21.2574 16.8595 19.3349 18.4495C19.1949 18.567 19.0274 18.622 18.8574 18.622ZM16.9299 16.2121C16.6974 16.2121 16.4699 16.1046 16.3224 15.9021C16.0799 15.5671 16.1524 15.0971 16.4899 14.8546C17.2274 14.3171 18.11 13.4021 18.11 12.0871C18.11 10.7721 17.2299 9.85714 16.4899 9.31964C16.1549 9.07714 16.0799 8.60714 16.325 8.27214C16.5674 7.93714 17.0374 7.86214 17.3724 8.10714C18.8149 9.15714 19.61 10.5696 19.61 12.0896C19.61 13.6096 18.8149 15.0221 17.3724 16.0721C17.2374 16.1671 17.0824 16.2121 16.9299 16.2121Z" fill="#141414"/>
</svg>
