<svg width="24" height="24" viewBox="0 0 24 24" fill="none" xmlns="http://www.w3.org/2000/svg">
<path d="M13.8 4.4L9 8H7C6.46957 8 5.96086 8.21071 5.58579 8.58579C5.21071 8.96086 5 9.46957 5 10V14C5 14.5304 5.21071 15.0391 5.58579 15.4142C5.96086 15.7893 6.46957 16 7 16H9L13.8 19.6C14.0971 19.8229 14.4505 19.9586 14.8204 19.9919C15.1903 20.0253 15.5622 19.955 15.8944 19.7889C16.2266 19.6227 16.506 19.3674 16.7013 19.0515C16.8966 18.7355 17 18.3714 17 18V6C17 5.62858 16.8966 5.26449 16.7013 4.94854C16.506 4.63259 16.2266 4.37725 15.8944 4.21115C15.5622 4.04504 15.1903 3.97473 14.8204 4.00808C14.4505 4.04144 14.0971 4.17715 13.8 4.4Z" fill="#141414"/>
</svg>
