<svg width="24" height="24" viewBox="0 0 24 24" fill="none" xmlns="http://www.w3.org/2000/svg">
<path d="M18 15.0001C17.599 15.0004 17.2021 15.0811 16.8328 15.2374C16.4635 15.3937 16.1294 15.6224 15.85 15.9101L7.99999 12.2701C8.00489 12.1802 8.00489 12.09 7.99999 12.0001C8.00489 11.9102 8.00489 11.82 7.99999 11.7301L15.88 8.09011C16.372 8.58147 17.0195 8.88664 17.7117 8.95342C18.4039 9.02021 19.0977 8.84446 19.6747 8.45624C20.2516 8.06802 20.6757 7.49144 20.8746 6.82509C21.0734 6.15874 21.0346 5.44401 20.7647 4.80312C20.4949 4.16223 20.0108 3.63499 19.3952 3.31155C18.7796 2.98811 18.0708 2.88857 17.3899 3.02994C16.709 3.17132 16.0984 3.54483 15.6625 4.0866C15.2266 4.62838 14.9924 5.30477 15 6.00011C14.9951 6.09004 14.9951 6.18018 15 6.27011L7.14999 9.91011C6.73402 9.48176 6.19968 9.18728 5.61538 9.06436C5.03108 8.94145 4.42339 8.99568 3.8701 9.22013C3.3168 9.44458 2.84306 9.82903 2.50952 10.3243C2.17598 10.8195 1.9978 11.403 1.9978 12.0001C1.9978 12.5972 2.17598 13.1807 2.50952 13.6759C2.84306 14.1712 3.3168 14.5556 3.8701 14.7801C4.42339 15.0045 5.03108 15.0588 5.61538 14.9359C6.19968 14.8129 6.73402 14.5185 7.14999 14.0901L15 17.7301C14.9951 17.82 14.9951 17.9102 15 18.0001C15 18.5935 15.1759 19.1735 15.5056 19.6668C15.8352 20.1602 16.3038 20.5447 16.8519 20.7717C17.4001 20.9988 18.0033 21.0582 18.5853 20.9425C19.1672 20.8267 19.7018 20.541 20.1213 20.1214C20.5409 19.7019 20.8266 19.1673 20.9423 18.5854C21.0581 18.0034 20.9987 17.4002 20.7716 16.8521C20.5446 16.3039 20.16 15.8353 19.6667 15.5057C19.1734 15.1761 18.5933 15.0001 18 15.0001Z" fill="#141414"/>
</svg>
