<svg width="24" height="24" viewBox="0 0 24 24" fill="none" xmlns="http://www.w3.org/2000/svg">
<path d="M18.12 2.88019C17.5579 2.31742 16.7954 2.00089 16 2.00019H11C10.5435 1.99502 10.0918 2.09412 9.67932 2.28995C9.26688 2.48577 8.90457 2.77315 8.62001 3.13019L5.62001 6.83019C5.20873 7.36596 4.99027 8.02484 5.00001 8.70019V19.0002C5.00001 19.7958 5.31608 20.5589 5.87869 21.1215C6.4413 21.6841 7.20436 22.0002 8.00001 22.0002H16C16.7957 22.0002 17.5587 21.6841 18.1213 21.1215C18.6839 20.5589 19 19.7958 19 19.0002V5.00019C18.9993 4.20481 18.6828 3.44226 18.12 2.88019ZM14.5 17.0002H10C9.81162 16.999 9.62742 16.9445 9.46861 16.8432C9.30981 16.7418 9.18286 16.5977 9.1024 16.4273C9.02193 16.257 8.99121 16.0674 9.01379 15.8804C9.03637 15.6933 9.11132 15.5165 9.23001 15.3702L12.49 11.3702C12.5755 11.2984 12.6454 11.21 12.6955 11.1103C12.7456 11.0106 12.7748 10.9017 12.7814 10.7903C12.788 10.6789 12.7717 10.5673 12.7336 10.4624C12.6956 10.3575 12.6365 10.2615 12.56 10.1802C12.4866 10.1064 12.3993 10.0479 12.3032 10.0079C12.2071 9.96798 12.1041 9.94742 12 9.94742C11.8959 9.94742 11.7929 9.96798 11.6968 10.0079C11.6007 10.0479 11.5134 10.1064 11.44 10.1802C11.3915 10.2266 11.3509 10.2806 11.32 10.3402C11.2722 10.417 11.2384 10.5016 11.22 10.5902C11.2147 10.6401 11.2147 10.6903 11.22 10.7402C11.22 11.0054 11.1146 11.2598 10.9271 11.4473C10.7396 11.6348 10.4852 11.7402 10.22 11.7402C9.95479 11.7402 9.70044 11.6348 9.5129 11.4473C9.32536 11.2598 9.22001 11.0054 9.22001 10.7402C9.20427 10.5706 9.20427 10.3998 9.22001 10.2302C9.26907 9.91587 9.37768 9.6138 9.54001 9.34019C9.66758 9.13377 9.82229 8.94542 10 8.78019C10.5304 8.25772 11.2467 7.96735 11.9912 7.97298C12.7357 7.9786 13.4475 8.27976 13.97 8.81019C14.4925 9.34063 14.7828 10.0569 14.7772 10.8014C14.7716 11.5459 14.4704 12.2577 13.94 12.7802L12.11 15.0002H14.5C14.7652 15.0002 15.0196 15.1055 15.2071 15.2931C15.3946 15.4806 15.5 15.735 15.5 16.0002C15.5 16.2654 15.3946 16.5198 15.2071 16.7073C15.0196 16.8948 14.7652 17.0002 14.5 17.0002Z" fill="#141414"/>
</svg>
