<svg width="24" height="24" viewBox="0 0 24 24" fill="none" xmlns="http://www.w3.org/2000/svg">
<path d="M17 6H16C16 4.93913 15.5786 3.92172 14.8284 3.17157C14.0783 2.42143 13.0609 2 12 2C10.9391 2 9.92172 2.42143 9.17157 3.17157C8.42143 3.92172 8 4.93913 8 6H7C6.20435 6 5.44129 6.31607 4.87868 6.87868C4.31607 7.44129 4 8.20435 4 9V19C4 19.7956 4.31607 20.5587 4.87868 21.1213C5.44129 21.6839 6.20435 22 7 22H8.56C8.19645 21.396 8.00295 20.705 8 20V15C8.00213 14.2461 8.21731 13.5081 8.62071 12.8711C9.02411 12.2342 9.59931 11.7242 10.28 11.4C10.6222 10.421 11.2603 9.57269 12.1059 8.97243C12.9516 8.37218 13.963 8.04973 15 8.04973C16.037 8.04973 17.0484 8.37218 17.8941 8.97243C18.7397 9.57269 19.3778 10.421 19.72 11.4C19.81 11.45 19.91 11.49 20 11.55V9C20 8.20435 19.6839 7.44129 19.1213 6.87868C18.5587 6.31607 17.7956 6 17 6ZM10 6C10 5.46957 10.2107 4.96086 10.5858 4.58579C10.9609 4.21071 11.4696 4 12 4C12.5304 4 13.0391 4.21071 13.4142 4.58579C13.7893 4.96086 14 5.46957 14 6H10ZM18 13C18 12.2044 17.6839 11.4413 17.1213 10.8787C16.5587 10.3161 15.7956 10 15 10C14.2044 10 13.4413 10.3161 12.8787 10.8787C12.3161 11.4413 12 12.2044 12 13C11.4696 13 10.9609 13.2107 10.5858 13.5858C10.2107 13.9609 10 14.4696 10 15V20C10 20.5304 10.2107 21.0391 10.5858 21.4142C10.9609 21.7893 11.4696 22 12 22H18C18.5304 22 19.0391 21.7893 19.4142 21.4142C19.7893 21.0391 20 20.5304 20 20V15C20 14.4696 19.7893 13.9609 19.4142 13.5858C19.0391 13.2107 18.5304 13 18 13ZM14 13C14 12.7348 14.1054 12.4804 14.2929 12.2929C14.4804 12.1054 14.7348 12 15 12C15.2652 12 15.5196 12.1054 15.7071 12.2929C15.8946 12.4804 16 12.7348 16 13H14Z" fill="#141414"/>
</svg>
