<svg width="24" height="24" viewBox="0 0 24 24" fill="none" xmlns="http://www.w3.org/2000/svg">
<path d="M10.77 14H13C13.2652 14 13.5196 13.8946 13.7071 13.7071C13.8946 13.5196 14 13.2652 14 13C14 12.7348 13.8946 12.4804 13.7071 12.2929C13.5196 12.1054 13.2652 12 13 12H10.77L12.86 8.51C12.962 8.28441 12.9766 8.02902 12.9011 7.79325C12.8256 7.55748 12.6654 7.35808 12.4514 7.23366C12.2373 7.10923 11.9848 7.06861 11.7425 7.11965C11.5003 7.1707 11.2856 7.30979 11.14 7.51L9.05 11C8.87497 11.3032 8.78256 11.6469 8.78203 11.997C8.7815 12.3471 8.87286 12.6911 9.04697 12.9948C9.22108 13.2985 9.47185 13.5512 9.77422 13.7276C10.0766 13.9039 10.4199 13.9979 10.77 14ZM7 7C6.80222 7 6.60888 7.05865 6.44443 7.16853C6.27998 7.27841 6.15181 7.43459 6.07612 7.61732C6.00043 7.80004 5.98063 8.00111 6.01921 8.19509C6.0578 8.38907 6.15304 8.56725 6.29289 8.70711C6.43275 8.84696 6.61093 8.9422 6.80491 8.98079C6.99889 9.01937 7.19996 8.99957 7.38268 8.92388C7.56541 8.84819 7.72159 8.72002 7.83147 8.55557C7.94135 8.39112 8 8.19778 8 8C8 7.73478 7.89464 7.48043 7.70711 7.29289C7.51957 7.10536 7.26522 7 7 7ZM16 9C16.1978 9 16.3911 8.94135 16.5556 8.83147C16.72 8.72159 16.8482 8.56541 16.9239 8.38268C16.9996 8.19996 17.0194 7.99889 16.9808 7.80491C16.9422 7.61093 16.847 7.43275 16.7071 7.29289C16.5673 7.15304 16.3891 7.0578 16.1951 7.01921C16.0011 6.98063 15.8 7.00043 15.6173 7.07612C15.4346 7.15181 15.2784 7.27998 15.1685 7.44443C15.0586 7.60888 15 7.80222 15 8C15 8.26522 15.1054 8.51957 15.2929 8.70711C15.4804 8.89464 15.7348 9 16 9ZM7 20H5C4.73478 20 4.48043 19.8946 4.29289 19.7071C4.10536 19.5196 4 19.2652 4 19V17C4 16.7348 3.89464 16.4804 3.70711 16.2929C3.51957 16.1054 3.26522 16 3 16C2.73478 16 2.48043 16.1054 2.29289 16.2929C2.10536 16.4804 2 16.7348 2 17V19C2 19.7956 2.31607 20.5587 2.87868 21.1213C3.44129 21.6839 4.20435 22 5 22H7C7.26522 22 7.51957 21.8946 7.70711 21.7071C7.89464 21.5196 8 21.2652 8 21C8 20.7348 7.89464 20.4804 7.70711 20.2929C7.51957 20.1054 7.26522 20 7 20ZM7 2H5C4.20435 2 3.44129 2.31607 2.87868 2.87868C2.31607 3.44129 2 4.20435 2 5V7C2 7.26522 2.10536 7.51957 2.29289 7.70711C2.48043 7.89464 2.73478 8 3 8C3.26522 8 3.51957 7.89464 3.70711 7.70711C3.89464 7.51957 4 7.26522 4 7V5C4 4.73478 4.10536 4.48043 4.29289 4.29289C4.48043 4.10536 4.73478 4 5 4H7C7.26522 4 7.51957 3.89464 7.70711 3.70711C7.89464 3.51957 8 3.26522 8 3C8 2.73478 7.89464 2.48043 7.70711 2.29289C7.51957 2.10536 7.26522 2 7 2ZM21 16C20.7348 16 20.4804 16.1054 20.2929 16.2929C20.1054 16.4804 20 16.7348 20 17V19C20 19.2652 19.8946 19.5196 19.7071 19.7071C19.5196 19.8946 19.2652 20 19 20H17C16.7348 20 16.4804 20.1054 16.2929 20.2929C16.1054 20.4804 16 20.7348 16 21C16 21.2652 16.1054 21.5196 16.2929 21.7071C16.4804 21.8946 16.7348 22 17 22H19C19.7956 22 20.5587 21.6839 21.1213 21.1213C21.6839 20.5587 22 19.7956 22 19V17C22 16.7348 21.8946 16.4804 21.7071 16.2929C21.5196 16.1054 21.2652 16 21 16ZM19 2H17C16.7348 2 16.4804 2.10536 16.2929 2.29289C16.1054 2.48043 16 2.73478 16 3C16 3.26522 16.1054 3.51957 16.2929 3.70711C16.4804 3.89464 16.7348 4 17 4H19C19.2652 4 19.5196 4.10536 19.7071 4.29289C19.8946 4.48043 20 4.73478 20 5V7C20 7.26522 20.1054 7.51957 20.2929 7.70711C20.4804 7.89464 20.7348 8 21 8C21.2652 8 21.5196 7.89464 21.7071 7.70711C21.8946 7.51957 22 7.26522 22 7V5C22 4.20435 21.6839 3.44129 21.1213 2.87868C20.5587 2.31607 19.7956 2 19 2ZM14.4 16.2C13.7008 16.7029 12.8613 16.9735 12 16.9735C11.1387 16.9735 10.2992 16.7029 9.6 16.2C9.49494 16.1212 9.37539 16.0639 9.24818 16.0313C9.12097 15.9987 8.98858 15.9915 8.85858 16.01C8.59603 16.0476 8.35913 16.1878 8.2 16.4C8.04087 16.6122 7.97254 16.8789 8.01005 17.1414C8.04756 17.404 8.18783 17.6409 8.4 17.8C9.48046 18.5712 10.7726 18.9903 12.1 19C13.3662 19.0017 14.5972 18.5831 15.6 17.81C15.8122 17.6509 15.9524 17.414 15.9899 17.1514C16.0275 16.8889 15.9591 16.6222 15.8 16.41C15.6409 16.1978 15.404 16.0576 15.1414 16.0201C14.8789 15.9825 14.6122 16.0509 14.4 16.21V16.2Z" fill="#141414"/>
</svg>
