<svg width="24" height="24" viewBox="0 0 24 24" fill="none" xmlns="http://www.w3.org/2000/svg">
<path d="M4 9H20C20.2652 9 20.5196 8.89464 20.7071 8.70711C20.8946 8.51957 21 8.26522 21 8C21 7.73478 20.8946 7.48043 20.7071 7.29289C20.5196 7.10536 20.2652 7 20 7H4C3.73478 7 3.48043 7.10536 3.29289 7.29289C3.10536 7.48043 3 7.73478 3 8C3 8.26522 3.10536 8.51957 3.29289 8.70711C3.48043 8.89464 3.73478 9 4 9ZM20 11H4C3.73478 11 3.48043 11.1054 3.29289 11.2929C3.10536 11.4804 3 11.7348 3 12C3 12.2652 3.10536 12.5196 3.29289 12.7071C3.48043 12.8946 3.73478 13 4 13H20C20.2652 13 20.5196 12.8946 20.7071 12.7071C20.8946 12.5196 21 12.2652 21 12C21 11.7348 20.8946 11.4804 20.7071 11.2929C20.5196 11.1054 20.2652 11 20 11ZM20 15H4C3.73478 15 3.48043 15.1054 3.29289 15.2929C3.10536 15.4804 3 15.7348 3 16C3 16.2652 3.10536 16.5196 3.29289 16.7071C3.48043 16.8946 3.73478 17 4 17H20C20.2652 17 20.5196 16.8946 20.7071 16.7071C20.8946 16.5196 21 16.2652 21 16C21 15.7348 20.8946 15.4804 20.7071 15.2929C20.5196 15.1054 20.2652 15 20 15Z" fill="#141414"/>
</svg>
