<svg width="24" height="24" viewBox="0 0 24 24" fill="none" xmlns="http://www.w3.org/2000/svg">
<path d="M17.5 6C17.7967 6 18.0867 5.91203 18.3334 5.7472C18.58 5.58238 18.7723 5.34811 18.8858 5.07403C18.9993 4.79994 19.0291 4.49834 18.9712 4.20737C18.9133 3.91639 18.7704 3.64912 18.5607 3.43934C18.3509 3.22956 18.0836 3.0867 17.7926 3.02882C17.5017 2.97094 17.2001 3.00065 16.926 3.11418C16.6519 3.22771 16.4176 3.41997 16.2528 3.66665C16.088 3.91332 16 4.20333 16 4.5C16 4.89783 16.158 5.27936 16.4393 5.56066C16.7206 5.84197 17.1022 6 17.5 6ZM20 19H17V15.07C17.0002 14.5751 16.8779 14.0878 16.6441 13.6516C16.4103 13.2154 16.0722 12.8438 15.66 12.57L13.77 11.31L15.77 8.6C15.88 8.45347 15.9477 8.27953 15.9656 8.09716C15.9834 7.9148 15.9509 7.73103 15.8714 7.56591C15.792 7.4008 15.6687 7.26069 15.515 7.16089C15.3613 7.06109 15.1832 7.00544 15 7H8C7.73478 7 7.48043 7.10536 7.29289 7.29289C7.10536 7.48043 7 7.73478 7 8C7 8.26522 7.10536 8.51957 7.29289 8.70711C7.48043 8.89464 7.73478 9 8 9H13L8.8 14.6C8.70685 14.7242 8.58607 14.825 8.44721 14.8944C8.30836 14.9639 8.15525 15 8 15H5V14C5 13.7348 4.89464 13.4804 4.70711 13.2929C4.51957 13.1054 4.26522 13 4 13C3.73478 13 3.48043 13.1054 3.29289 13.2929C3.10536 13.4804 3 13.7348 3 14C2.73478 14 2.48043 14.1054 2.29289 14.2929C2.10536 14.4804 2 14.7348 2 15C2 15.2652 2.10536 15.5196 2.29289 15.7071C2.48043 15.8946 2.73478 16 3 16V18C2.73478 18 2.48043 18.1054 2.29289 18.2929C2.10536 18.4804 2 18.7348 2 19C2 19.2652 2.10536 19.5196 2.29289 19.7071C2.48043 19.8946 2.73478 20 3 20C3 20.2652 3.10536 20.5196 3.29289 20.7071C3.48043 20.8946 3.73478 21 4 21C4.26522 21 4.51957 20.8946 4.70711 20.7071C4.89464 20.5196 5 20.2652 5 20V17H8C8.46574 17 8.92507 16.8916 9.34164 16.6833C9.75821 16.475 10.1206 16.1726 10.4 15.8L12.57 12.91L14.57 14.24C14.7076 14.3306 14.8206 14.4538 14.8991 14.5985C14.9776 14.7433 15.0191 14.9053 15.02 15.07V19H14C13.7348 19 13.4804 19.1054 13.2929 19.2929C13.1054 19.4804 13 19.7348 13 20C13 20.2652 13.1054 20.5196 13.2929 20.7071C13.4804 20.8946 13.7348 21 14 21C14 21.2652 14.1054 21.5196 14.2929 21.7071C14.4804 21.8946 14.7348 22 15 22C15.2652 22 15.5196 21.8946 15.7071 21.7071C15.8946 21.5196 16 21.2652 16 21H18C18 21.2652 18.1054 21.5196 18.2929 21.7071C18.4804 21.8946 18.7348 22 19 22C19.2652 22 19.5196 21.8946 19.7071 21.7071C19.8946 21.5196 20 21.2652 20 21C20.2652 21 20.5196 20.8946 20.7071 20.7071C20.8946 20.5196 21 20.2652 21 20C21 19.7348 20.8946 19.4804 20.7071 19.2929C20.5196 19.1054 20.2652 19 20 19Z" fill="#141414"/>
</svg>
