<svg width="24" height="24" viewBox="0 0 24 24" fill="none" xmlns="http://www.w3.org/2000/svg">
<path d="M17 17C16.5213 17.0006 16.0503 17.1209 15.63 17.35C15.3833 16.8094 15.0193 16.3306 14.5643 15.9483C14.1094 15.566 13.575 15.2899 13 15.14V10C13.651 9.95741 14.2635 9.67612 14.72 9.21003C15.5604 8.15725 16.0124 6.84706 16 5.50003C16 5.36743 15.9473 5.24025 15.8536 5.14648C15.7598 5.05271 15.6326 5.00003 15.5 5.00003C14.5321 4.96678 13.5779 5.23592 12.77 5.77003C12.4821 4.6183 11.7939 3.60657 10.8283 2.91585C9.86279 2.22513 8.68298 1.9005 7.5 2.00003C7.36739 2.00003 7.24021 2.05271 7.14645 2.14648C7.05268 2.24025 7 2.36743 7 2.50003C7 2.62003 7 5.50003 8.56 7.02003C8.87854 7.34093 9.25927 7.59337 9.67885 7.76189C10.0984 7.93041 10.548 8.01145 11 8.00003V15.14C10.425 15.2899 9.8906 15.566 9.43567 15.9483C8.98074 16.3306 8.6167 16.8094 8.37 17.35C7.94967 17.1209 7.47871 17.0006 7 17C6.20435 17 5.44129 17.3161 4.87868 17.8787C4.31607 18.4413 4 19.2044 4 20V21C4 21.2653 4.10536 21.5196 4.29289 21.7071C4.48043 21.8947 4.73478 22 5 22H19C19.2652 22 19.5196 21.8947 19.7071 21.7071C19.8946 21.5196 20 21.2653 20 21V20C20 19.2044 19.6839 18.4413 19.1213 17.8787C18.5587 17.3161 17.7956 17 17 17Z" fill="#141414"/>
</svg>
