<svg width="24" height="24" viewBox="0 0 24 24" fill="none" xmlns="http://www.w3.org/2000/svg">
<path d="M11.8801 1.9998C10.096 2.05285 8.39744 2.77586 7.12249 4.02487C5.84754 5.27388 5.08977 6.95725 5.00006 8.7398C4.9594 9.87945 5.19779 11.0118 5.69449 12.0383C6.19119 13.0648 6.93117 13.9544 7.85006 14.6298C8.21523 14.906 8.5098 15.2648 8.70969 15.6767C8.90957 16.0886 9.00907 16.542 9.00006 16.9998C9.00006 17.265 9.10541 17.5194 9.29295 17.7069C9.48049 17.8944 9.73484 17.9998 10.0001 17.9998H14.0001C14.2653 17.9998 14.5196 17.8944 14.7072 17.7069C14.8947 17.5194 15.0001 17.265 15.0001 16.9998C14.9903 16.5482 15.0875 16.1008 15.284 15.6941C15.4804 15.2873 15.7703 14.9329 16.1301 14.6598C17.3346 13.7838 18.2283 12.5465 18.6813 11.1278C19.1343 9.70899 19.123 8.1827 18.6491 6.77079C18.1751 5.35888 17.2631 4.13495 16.0458 3.27693C14.8284 2.4189 13.3691 1.97151 11.8801 1.9998ZM14.8801 12.0698C14.7915 12.2191 14.6657 12.3428 14.5149 12.4287C14.3641 12.5146 14.1936 12.5598 14.0201 12.5598C13.841 12.557 13.6655 12.5088 13.5101 12.4198C13.0595 12.1409 12.54 11.9931 12.0101 11.9931C11.4801 11.9931 10.9607 12.1409 10.5101 12.4198C10.2845 12.5218 10.0291 12.5364 9.7933 12.4609C9.55753 12.3854 9.35814 12.2252 9.23371 12.0112C9.10928 11.7971 9.06866 11.5446 9.11971 11.3023C9.17076 11.0601 9.30984 10.8454 9.51006 10.6998C10.2702 10.261 11.1324 10.0299 12.0101 10.0299C12.8877 10.0299 13.75 10.261 14.5101 10.6998C14.7381 10.8351 14.9031 11.0554 14.9687 11.3123C15.0344 11.5692 14.9953 11.8417 14.8601 12.0698H14.8801ZM16.0201 9.0698C15.8436 9.09863 15.6626 9.07426 15.5001 8.9998C14.4343 8.39027 13.2278 8.06964 12.0001 8.06964C10.7723 8.06964 9.56583 8.39027 8.50006 8.9998C8.27447 9.10175 8.01907 9.11641 7.7833 9.04092C7.54753 8.96543 7.34814 8.80518 7.22371 8.59116C7.09928 8.37714 7.05866 8.12458 7.10971 7.88234C7.16076 7.6401 7.29984 7.4254 7.50006 7.2798C8.86823 6.48988 10.4202 6.07403 12.0001 6.07403C13.5799 6.07403 15.1319 6.48988 16.5001 7.2798C16.6666 7.39896 16.7926 7.5664 16.861 7.75949C16.9293 7.95257 16.9367 8.16199 16.8822 8.35942C16.8276 8.55685 16.7138 8.73277 16.556 8.86339C16.3983 8.99402 16.2042 9.07305 16.0001 9.0898L16.0201 9.0698ZM14.0001 19.9998H10.0001C9.73484 19.9998 9.48049 20.1052 9.29295 20.2927C9.10541 20.4802 9.00006 20.7346 9.00006 20.9998C9.00006 21.265 9.10541 21.5194 9.29295 21.7069C9.48049 21.8944 9.73484 21.9998 10.0001 21.9998H14.0001C14.2653 21.9998 14.5196 21.8944 14.7072 21.7069C14.8947 21.5194 15.0001 21.265 15.0001 20.9998C15.0001 20.7346 14.8947 20.4802 14.7072 20.2927C14.5196 20.1052 14.2653 19.9998 14.0001 19.9998Z" fill="#141414"/>
</svg>
