<svg width="24" height="24" viewBox="0 0 24 24" fill="none" xmlns="http://www.w3.org/2000/svg">
<path d="M16.0001 6.00003C15.7034 6.00003 15.4134 6.088 15.1667 6.25282C14.92 6.41765 14.7278 6.65191 14.6143 6.926C14.5007 7.20009 14.471 7.50169 14.5289 7.79266C14.5868 8.08364 14.7296 8.35091 14.9394 8.56069C15.1492 8.77047 15.4165 8.91333 15.7074 8.97121C15.9984 9.02908 16.3 8.99938 16.5741 8.88585C16.8482 8.77232 17.0825 8.58006 17.2473 8.33338C17.4121 8.08671 17.5001 7.7967 17.5001 7.50003C17.5001 7.1022 17.342 6.72067 17.0607 6.43937C16.7794 6.15806 16.3979 6.00003 16.0001 6.00003ZM17.8401 2.00003C11.2601 3.11003 7.06008 6.54003 5.00008 20.86C4.98035 20.9915 4.98705 21.1256 5.01978 21.2545C5.05251 21.3834 5.11062 21.5045 5.1907 21.6106C5.27078 21.7168 5.37122 21.8059 5.48616 21.8727C5.6011 21.9396 5.72822 21.9829 5.86008 22H6.00008C6.24273 22.0024 6.47797 21.9165 6.66196 21.7583C6.84594 21.6 6.96612 21.3803 7.00008 21.14C7.28213 19.0735 7.67605 17.0239 8.18008 15L11.1201 20.48C11.2545 20.6948 11.4654 20.8505 11.7102 20.9158C11.955 20.9811 12.2154 20.951 12.4389 20.8316C12.6624 20.7123 12.8322 20.5126 12.9141 20.2728C12.996 20.0331 12.9838 19.7712 12.8801 19.54L9.38008 13H10.0501C10.5394 12.9989 11.0209 12.8781 11.4528 12.6481C11.8847 12.4182 12.2538 12.0861 12.5279 11.6808C12.802 11.2756 12.9729 10.8094 13.0256 10.323C13.0782 9.83652 13.0111 9.34458 12.8301 8.89003L12.0201 6.89003C13.6673 5.24047 15.8391 4.21824 18.1601 4.00003C18.4253 3.95759 18.6628 3.81154 18.8203 3.594C18.9779 3.37646 19.0425 3.10524 19.0001 2.84003C18.9576 2.57481 18.8116 2.33731 18.594 2.17978C18.3765 2.02225 18.1053 1.95759 17.8401 2.00003ZM10.8401 10.55C10.7493 10.6843 10.6272 10.7946 10.4844 10.8712C10.3415 10.9479 10.1822 10.9886 10.0201 10.99H9.48008C9.80334 10.2062 10.1844 9.44742 10.6201 8.72003L10.9701 9.62003C11.0322 9.77281 11.0556 9.93858 11.0382 10.1026C11.0207 10.2666 10.963 10.4237 10.8701 10.56L10.8401 10.55Z" fill="#141414"/>
</svg>
