<svg width="24" height="24" viewBox="0 0 24 24" fill="none" xmlns="http://www.w3.org/2000/svg">
<path d="M18 3H6C5.20435 3 4.44129 3.31607 3.87868 3.87868C3.31607 4.44129 3 5.20435 3 6V18C3 18.7956 3.31607 19.5587 3.87868 20.1213C4.44129 20.6839 5.20435 21 6 21H18C18.7956 21 19.5587 20.6839 20.1213 20.1213C20.6839 19.5587 21 18.7956 21 18V6C21 5.20435 20.6839 4.44129 20.1213 3.87868C19.5587 3.31607 18.7956 3 18 3ZM18 10C18 10.2652 17.8946 10.5196 17.7071 10.7071C17.5196 10.8946 17.2652 11 17 11C16.7348 11 16.4804 10.8946 16.2929 10.7071C16.1054 10.5196 16 10.2652 16 10V9.41L9.41 16H10C10.2652 16 10.5196 16.1054 10.7071 16.2929C10.8946 16.4804 11 16.7348 11 17C11 17.2652 10.8946 17.5196 10.7071 17.7071C10.5196 17.8946 10.2652 18 10 18H7C6.86932 17.9984 6.74022 17.9712 6.62 17.92C6.37565 17.8185 6.18147 17.6243 6.08 17.38C6.02876 17.2598 6.00158 17.1307 6 17V14C6 13.7348 6.10536 13.4804 6.29289 13.2929C6.48043 13.1054 6.73478 13 7 13C7.26522 13 7.51957 13.1054 7.70711 13.2929C7.89464 13.4804 8 13.7348 8 14V14.59L14.59 8H14C13.7348 8 13.4804 7.89464 13.2929 7.70711C13.1054 7.51957 13 7.26522 13 7C13 6.73478 13.1054 6.48043 13.2929 6.29289C13.4804 6.10536 13.7348 6 14 6H17C17.1307 6.00158 17.2598 6.02876 17.38 6.08C17.6243 6.18147 17.8185 6.37565 17.92 6.62C17.9712 6.74022 17.9984 6.86932 18 7V10Z" fill="#141414"/>
</svg>
