<svg width="24" height="24" viewBox="0 0 24 24" fill="none" xmlns="http://www.w3.org/2000/svg">
<path d="M7.22012 18.38C6.53032 17.8569 5.92639 17.2294 5.43012 16.52C5.36555 16.397 5.27308 16.2908 5.16012 16.21C5.05328 16.1143 4.92709 16.0427 4.79012 16C4.65492 15.9717 4.51532 15.9717 4.38012 16C4.24372 16.0264 4.1143 16.0808 4.00012 16.16C3.88344 16.2385 3.78462 16.3407 3.71012 16.46C3.63803 16.5758 3.59038 16.7051 3.57012 16.84C3.54985 16.9759 3.54985 17.1141 3.57012 17.25C3.6098 17.3861 3.67798 17.5122 3.77012 17.62C4.37086 18.5358 5.12528 19.341 6.00012 20C6.17322 20.1298 6.38375 20.2 6.60012 20.2C6.81307 20.1979 7.01977 20.1278 7.19012 20C7.35807 19.878 7.48389 19.7067 7.55012 19.51C7.60989 19.3111 7.60989 19.0989 7.55012 18.9C7.50164 18.6945 7.38539 18.5114 7.22012 18.38ZM4.00012 14C4.07802 13.8888 4.13246 13.7629 4.16012 13.63C4.18572 13.5013 4.18572 13.3687 4.16012 13.24C4.01252 12.4199 4.01252 11.5801 4.16012 10.76C4.18572 10.6313 4.18572 10.4987 4.16012 10.37C4.11452 10.2322 4.03945 10.1059 3.94012 10C3.86635 9.89077 3.76673 9.80145 3.65012 9.74C3.53734 9.66916 3.41155 9.62156 3.28012 9.6C3.15138 9.5744 3.01886 9.5744 2.89012 9.6C2.7607 9.62893 2.63833 9.68332 2.53012 9.76C2.42269 9.83884 2.33109 9.93722 2.26012 10.05C2.19774 10.1658 2.15388 10.2906 2.13012 10.42C1.96021 11.4463 1.96021 12.4937 2.13012 13.52C2.17204 13.7556 2.29176 13.9704 2.47012 14.13C2.65387 14.2872 2.88834 14.3724 3.13012 14.37H3.28012C3.41155 14.3484 3.53734 14.3008 3.65012 14.23C3.7826 14.1806 3.90224 14.102 4.00012 14ZM7.22012 3.86C7.09067 3.78954 6.94725 3.74856 6.80012 3.74C6.65419 3.7304 6.50785 3.75082 6.37012 3.8C6.23113 3.85741 6.10525 3.94246 6.00012 4.05C5.1505 4.68067 4.40771 5.44372 3.80012 6.31C3.64412 6.52149 3.57765 6.78589 3.61508 7.04601C3.65251 7.30613 3.79083 7.54107 4.00012 7.7C4.10881 7.77575 4.23147 7.82915 4.36097 7.8571C4.49048 7.88504 4.62424 7.88697 4.7545 7.86278C4.88475 7.83859 5.0089 7.78876 5.11974 7.71618C5.23057 7.6436 5.32588 7.54973 5.40012 7.44C5.89299 6.74878 6.49009 6.13819 7.17012 5.63C7.30401 5.56945 7.42081 5.47669 7.51012 5.36C7.59983 5.25589 7.66478 5.13281 7.70012 5C7.73493 4.8554 7.73493 4.7046 7.70012 4.56C7.67922 4.41717 7.62053 4.28253 7.53012 4.17C7.45099 4.04501 7.34511 3.93913 7.22012 3.86ZM9.84012 16.59C10.0933 16.7181 10.378 16.7702 10.6601 16.74C10.9373 16.7093 11.2005 16.602 11.4201 16.43L15.6601 13.17C15.8409 13.0288 15.9872 12.8482 16.0877 12.642C16.1883 12.4358 16.2406 12.2094 16.2406 11.98C16.2406 11.7506 16.1883 11.5242 16.0877 11.318C15.9872 11.1118 15.8409 10.9312 15.6601 10.79L11.4201 7.53C11.2005 7.35802 10.9373 7.25066 10.6601 7.22C10.3803 7.19306 10.0986 7.24422 9.84614 7.36779C9.59369 7.49137 9.38046 7.68252 9.23012 7.92C9.08353 8.16089 9.00732 8.43802 9.01012 8.72V15.24C9.00732 15.522 9.08353 15.7991 9.23012 16.04C9.37707 16.2776 9.58866 16.4683 9.84012 16.59ZM19.0701 4.93C17.1952 3.05451 14.6521 2.00057 12.0001 2C11.3285 2.00053 10.6586 2.06752 10.0001 2.2C9.86851 2.22452 9.74316 2.27521 9.63151 2.34907C9.51985 2.42293 9.42417 2.51847 9.35012 2.63C9.27451 2.74161 9.22224 2.86735 9.19646 2.99968C9.17069 3.132 9.17193 3.26817 9.20012 3.4C9.26415 3.64915 9.42174 3.86404 9.64012 4C9.75099 4.07733 9.87639 4.13137 10.0087 4.15887C10.1411 4.18637 10.2776 4.18676 10.4101 4.16C10.9324 4.04666 11.4658 3.99299 12.0001 4C14.1219 4 16.1567 4.84285 17.657 6.34315C19.1573 7.84344 20.0001 9.87827 20.0001 12C20.0001 14.1217 19.1573 16.1566 17.657 17.6569C16.1567 19.1571 14.1219 20 12.0001 20C11.4625 20.0073 10.9257 19.9536 10.4001 19.84C10.2675 19.82 10.1327 19.82 10.0001 19.84C9.86721 19.8677 9.74132 19.9221 9.63012 20C9.51557 20.0694 9.4195 20.1654 9.35012 20.28C9.27698 20.389 9.22601 20.5113 9.20012 20.64C9.17012 20.7716 9.17012 20.9084 9.20012 21.04C9.22004 21.1735 9.27146 21.3003 9.35012 21.41C9.42522 21.5199 9.52018 21.6149 9.63012 21.69C9.74338 21.762 9.86874 21.8128 10.0001 21.84C10.6586 21.9725 11.3285 22.0395 12.0001 22.04C13.9859 22.0476 15.9289 21.4638 17.5817 20.363C19.2344 19.2622 20.522 17.6942 21.2804 15.859C22.0387 14.0237 22.2335 12.0042 21.8398 10.0578C21.4462 8.11148 20.482 6.32637 19.0701 4.93Z" fill="#141414"/>
</svg>
