<svg width="24" height="24" viewBox="0 0 24 24" fill="none" xmlns="http://www.w3.org/2000/svg">
<path d="M12.0001 4.00008C13.7767 3.99787 15.5025 4.5931 16.9001 5.69008L18.3201 4.26008C16.5354 2.80463 14.303 2.00977 12.0001 2.00977C9.69715 2.00977 7.46478 2.80463 5.68008 4.26008L7.10008 5.69008C8.49763 4.5931 10.2234 3.99787 12.0001 4.00008ZM12.0001 6.00008C10.8134 6.00008 9.65336 6.35198 8.66666 7.01126C7.67997 7.67055 6.91093 8.60763 6.4568 9.70398C6.00268 10.8003 5.88386 12.0067 6.11537 13.1706C6.34688 14.3345 6.91833 15.4036 7.75744 16.2427C8.59656 17.0818 9.66565 17.6533 10.8295 17.8848C11.9934 18.1163 13.1998 17.9975 14.2962 17.5434C15.3925 17.0892 16.3296 16.3202 16.9889 15.3335C17.6482 14.3468 18.0001 13.1868 18.0001 12.0001C18.0001 10.4088 17.3679 8.88266 16.2427 7.75744C15.1175 6.63222 13.5914 6.00008 12.0001 6.00008ZM13.0001 11.0001C13.0001 11.2653 12.8947 11.5197 12.7072 11.7072C12.5197 11.8947 12.2653 12.0001 12.0001 12.0001C11.7349 12.0001 11.4805 11.8947 11.293 11.7072C11.1054 11.5197 11.0001 11.2653 11.0001 11.0001V9.00008C11.0001 8.73487 11.1054 8.48051 11.293 8.29298C11.4805 8.10544 11.7349 8.00008 12.0001 8.00008C12.2653 8.00008 12.5197 8.10544 12.7072 8.29298C12.8947 8.48051 13.0001 8.73487 13.0001 9.00008V11.0001ZM4.00008 12.0001C3.99787 10.2234 4.5931 8.49763 5.69008 7.10008L4.26008 5.68008C2.80463 7.46478 2.00977 9.69715 2.00977 12.0001C2.00977 14.303 2.80463 16.5354 4.26008 18.3201L5.69008 16.9001C4.5931 15.5025 3.99787 13.7767 4.00008 12.0001ZM19.7401 5.68008L18.3101 7.10008C19.4049 8.4988 19.9997 10.2239 19.9997 12.0001C19.9997 13.7763 19.4049 15.5014 18.3101 16.9001L19.7401 18.3201C21.1955 16.5354 21.9904 14.303 21.9904 12.0001C21.9904 9.69715 21.1955 7.46478 19.7401 5.68008ZM12.0001 20.0001C10.2234 20.0023 8.49763 19.4071 7.10008 18.3101L5.68008 19.7401C7.46478 21.1955 9.69715 21.9904 12.0001 21.9904C14.303 21.9904 16.5354 21.1955 18.3201 19.7401L16.9001 18.3101C15.5025 19.4071 13.7767 20.0023 12.0001 20.0001Z" fill="#141414"/>
</svg>
