<svg width="24" height="24" viewBox="0 0 24 24" fill="none" xmlns="http://www.w3.org/2000/svg">
<path d="M21.1201 5.88L18.5701 3.53C18.2023 3.19065 17.7206 3.00154 17.2201 3H6.78012C6.27966 3.00154 5.79796 3.19065 5.43012 3.53L2.88012 5.88C2.3502 6.4487 2.06171 7.20089 2.07542 7.97809C2.08913 8.75529 2.40398 9.49683 2.95363 10.0465C3.50328 10.5961 4.24482 10.911 5.02203 10.9247C5.79923 10.9384 6.55142 10.6499 7.12012 10.12C7.19552 10.0378 7.26566 9.951 7.33012 9.86C7.61131 10.2086 7.96698 10.4898 8.37103 10.683C8.77508 10.8762 9.21726 10.9764 9.66512 10.9764C10.113 10.9764 10.5552 10.8762 10.9592 10.683C11.3633 10.4898 11.7189 10.2086 12.0001 9.86C12.2813 10.2086 12.637 10.4898 13.041 10.683C13.4451 10.8762 13.8873 10.9764 14.3351 10.9764C14.783 10.9764 15.2252 10.8762 15.6292 10.683C16.0333 10.4898 16.3889 10.2086 16.6701 9.86C16.7346 9.951 16.8047 10.0378 16.8801 10.12C17.1548 10.4147 17.486 10.6512 17.854 10.8151C18.222 10.9791 18.6192 11.0673 19.022 11.0744C19.4248 11.0815 19.825 11.0074 20.1985 10.8565C20.5721 10.7056 20.9114 10.481 21.1963 10.1962C21.4811 9.91128 21.7057 9.57194 21.8566 9.19839C22.0075 8.82484 22.0816 8.42472 22.0745 8.02191C22.0674 7.6191 21.9792 7.22185 21.8152 6.85385C21.6513 6.48585 21.4149 6.15465 21.1201 5.88ZM7.34012 12.42C6.6191 12.8013 5.81575 13.0004 5.00012 13C4.31165 12.9992 3.63076 12.8562 3.00012 12.58V18C3.00012 18.7956 3.31619 19.5587 3.8788 20.1213C4.44141 20.6839 5.20447 21 6.00012 21H11.0001V12.81C10.5674 12.9329 10.12 12.9968 9.67012 13C8.85742 13.0025 8.05682 12.8032 7.34012 12.42ZM16.6601 12.42C15.9434 12.8032 15.1428 13.0025 14.3301 13C13.8803 12.9968 13.4329 12.9329 13.0001 12.81V15H15.0001C15.2653 15 15.5197 15.1054 15.7072 15.2929C15.8948 15.4804 16.0001 15.7348 16.0001 16C16.0001 16.2652 15.8948 16.5196 15.7072 16.7071C15.5197 16.8946 15.2653 17 15.0001 17H13.0001V21H18.0001C18.7958 21 19.5588 20.6839 20.1214 20.1213C20.684 19.5587 21.0001 18.7956 21.0001 18V12.58C20.3695 12.8562 19.6886 12.9992 19.0001 13C18.1845 13.0004 17.3811 12.8013 16.6601 12.42Z" fill="#141414"/>
</svg>
