<svg width="24" height="24" viewBox="0 0 24 24" fill="none" xmlns="http://www.w3.org/2000/svg">
<path d="M11.6 3.8L6 8H4C3.46957 8 2.96086 8.21071 2.58579 8.58579C2.21071 8.96086 2 9.46957 2 10V14C2 14.5304 2.21071 15.0391 2.58579 15.4142C2.96086 15.7893 3.46957 16 4 16H6L11.6 20.2C11.8229 20.3671 12.0878 20.4689 12.3653 20.4939C12.6427 20.519 12.9217 20.4662 13.1708 20.3416C13.42 20.2171 13.6295 20.0256 13.776 19.7886C13.9224 19.5516 14 19.2786 14 19V5C14 4.72143 13.9224 4.44837 13.776 4.2114C13.6295 3.97444 13.42 3.78294 13.1708 3.65836C12.9217 3.53378 12.6427 3.48104 12.3653 3.50606C12.0878 3.53108 11.8229 3.63286 11.6 3.8ZM17.12 9.88C17.0304 9.77532 16.92 9.6903 16.796 9.63028C16.6719 9.57025 16.5368 9.53652 16.3991 9.5312C16.2613 9.52588 16.124 9.54909 15.9957 9.59936C15.8674 9.64964 15.7508 9.7259 15.6533 9.82335C15.5559 9.9208 15.4796 10.0374 15.4294 10.1657C15.3791 10.294 15.3559 10.4313 15.3612 10.5691C15.3665 10.7068 15.4003 10.8419 15.4603 10.966C15.5203 11.09 15.6053 11.2004 15.71 11.29C15.8037 11.383 15.8781 11.4936 15.9289 11.6154C15.9797 11.7373 16.0058 11.868 16.0058 12C16.0058 12.132 15.9797 12.2627 15.9289 12.3846C15.8781 12.5064 15.8037 12.617 15.71 12.71C15.5237 12.8974 15.4192 13.1508 15.4192 13.415C15.4192 13.6792 15.5237 13.9326 15.71 14.12C15.8974 14.3063 16.1508 14.4108 16.415 14.4108C16.6792 14.4108 16.9326 14.3063 17.12 14.12C17.6818 13.5575 17.9974 12.795 17.9974 12C17.9974 11.205 17.6818 10.4425 17.12 9.88Z" fill="#141414"/>
</svg>
