<svg width="24" height="24" viewBox="0 0 24 24" fill="none" xmlns="http://www.w3.org/2000/svg">
<path d="M12 2C10.0222 2 8.08879 2.58649 6.4443 3.6853C4.79981 4.78412 3.51809 6.3459 2.76121 8.17317C2.00433 10.0004 1.8063 12.0111 2.19215 13.9509C2.578 15.8907 3.53041 17.6725 4.92894 19.0711C6.32746 20.4696 8.10929 21.422 10.0491 21.8079C11.9889 22.1937 13.9996 21.9957 15.8268 21.2388C17.6541 20.4819 19.2159 19.2002 20.3147 17.5557C21.4135 15.9112 22 13.9778 22 12C22 10.6868 21.7413 9.38642 21.2388 8.17317C20.7363 6.95991 19.9997 5.85752 19.0711 4.92893C18.1425 4.00035 17.0401 3.26375 15.8268 2.7612C14.6136 2.25866 13.3132 2 12 2ZM7 9.5C7 9.20333 7.08798 8.91332 7.2528 8.66665C7.41762 8.41997 7.65189 8.22771 7.92598 8.11418C8.20007 8.00065 8.50167 7.97094 8.79264 8.02882C9.08361 8.0867 9.35089 8.22956 9.56066 8.43934C9.77044 8.64912 9.9133 8.91639 9.97118 9.20736C10.0291 9.49834 9.99936 9.79994 9.88582 10.074C9.77229 10.3481 9.58003 10.5824 9.33336 10.7472C9.08669 10.912 8.79668 11 8.5 11C8.10218 11 7.72065 10.842 7.43934 10.5607C7.15804 10.2794 7 9.89782 7 9.5ZM14 17H10C9.73479 17 9.48043 16.8946 9.2929 16.7071C9.10536 16.5196 9 16.2652 9 16C9 15.7348 9.10536 15.4804 9.2929 15.2929C9.48043 15.1054 9.73479 15 10 15H14C14.2652 15 14.5196 15.1054 14.7071 15.2929C14.8946 15.4804 15 15.7348 15 16C15 16.2652 14.8946 16.5196 14.7071 16.7071C14.5196 16.8946 14.2652 17 14 17ZM15.5 11C15.2033 11 14.9133 10.912 14.6666 10.7472C14.42 10.5824 14.2277 10.3481 14.1142 10.074C14.0007 9.79994 13.9709 9.49834 14.0288 9.20736C14.0867 8.91639 14.2296 8.64912 14.4393 8.43934C14.6491 8.22956 14.9164 8.0867 15.2074 8.02882C15.4983 7.97094 15.7999 8.00065 16.074 8.11418C16.3481 8.22771 16.5824 8.41997 16.7472 8.66665C16.912 8.91332 17 9.20333 17 9.5C17 9.89782 16.842 10.2794 16.5607 10.5607C16.2794 10.842 15.8978 11 15.5 11Z" fill="#141414"/>
</svg>
