<svg width="24" height="24" viewBox="0 0 24 24" fill="none" xmlns="http://www.w3.org/2000/svg">
<path d="M20.4298 13.4L18.9998 12.58V11.42L20.4298 10.6C20.8883 10.3344 21.2227 9.89783 21.3595 9.386C21.4964 8.87416 21.4246 8.32893 21.1598 7.87L20.1598 6.13C19.8943 5.67154 19.4577 5.33717 18.9458 5.20031C18.434 5.06344 17.8888 5.13526 17.4298 5.4L16.2498 6.08L15.9998 6.23L14.9998 5.65V4C14.9998 3.46957 14.7891 2.96086 14.4141 2.58579C14.039 2.21071 13.5303 2 12.9998 2H10.9998C10.4694 2 9.96071 2.21071 9.58563 2.58579C9.21056 2.96086 8.99985 3.46957 8.99985 4V5.65L8.74985 5.79L7.99985 6.23L7.74985 6.08L6.56985 5.4C6.11091 5.13526 5.56568 5.06344 5.05385 5.20031C4.54201 5.33717 4.1054 5.67154 3.83985 6.13L2.83985 7.87C2.57511 8.32893 2.50329 8.87416 2.64015 9.386C2.77702 9.89783 3.11138 10.3344 3.56985 10.6L4.99985 11.42V12.58L3.56985 13.4C3.11138 13.6656 2.77702 14.1022 2.64015 14.614C2.50329 15.1258 2.57511 15.6711 2.83985 16.13L3.83985 17.87C4.1054 18.3285 4.54201 18.6628 5.05385 18.7997C5.56568 18.9366 6.11091 18.8647 6.56985 18.6L7.99985 17.77L8.99985 18.35V20C8.99985 20.5304 9.21056 21.0391 9.58563 21.4142C9.96071 21.7893 10.4694 22 10.9998 22H12.9998C13.5303 22 14.039 21.7893 14.4141 21.4142C14.7891 21.0391 14.9998 20.5304 14.9998 20V18.35L15.9998 17.77L17.4298 18.6C17.8888 18.8647 18.434 18.9366 18.9458 18.7997C19.4577 18.6628 19.8943 18.3285 20.1598 17.87L21.1598 16.13C21.4246 15.6711 21.4964 15.1258 21.3595 14.614C21.2227 14.1022 20.8883 13.6656 20.4298 13.4ZM11.9998 15C11.4065 15 10.8265 14.8241 10.3331 14.4944C9.83979 14.1648 9.45527 13.6962 9.22821 13.1481C9.00114 12.5999 8.94173 11.9967 9.05749 11.4147C9.17325 10.8328 9.45897 10.2982 9.87853 9.87868C10.2981 9.45912 10.8326 9.1734 11.4146 9.05764C11.9965 8.94189 12.5997 9.0013 13.1479 9.22836C13.6961 9.45542 14.1646 9.83994 14.4943 10.3333C14.8239 10.8266 14.9998 11.4067 14.9998 12C14.9998 12.7956 14.6838 13.5587 14.1212 14.1213C13.5586 14.6839 12.7955 15 11.9998 15Z" fill="#141414"/>
</svg>
