<svg width="24" height="24" viewBox="0 0 24 24" fill="none" xmlns="http://www.w3.org/2000/svg">
<path d="M5.5 11H4.5C4.36739 11 4.24021 10.9473 4.14645 10.8536C4.05268 10.7598 4 10.6326 4 10.5C4 10.3674 4.05268 10.2402 4.14645 10.1464C4.24021 10.0527 4.36739 10 4.5 10H6.5C6.76522 10 7.01957 9.89464 7.20711 9.70711C7.39464 9.51957 7.5 9.26522 7.5 9C7.5 8.73478 7.39464 8.48043 7.20711 8.29289C7.01957 8.10536 6.76522 8 6.5 8H4.5C3.83696 8 3.20107 8.26339 2.73223 8.73223C2.26339 9.20107 2 9.83696 2 10.5C2 11.163 2.26339 11.7989 2.73223 12.2678C3.20107 12.7366 3.83696 13 4.5 13H5.5C5.63261 13 5.75979 13.0527 5.85355 13.1464C5.94732 13.2402 6 13.3674 6 13.5C6 13.6326 5.94732 13.7598 5.85355 13.8536C5.75979 13.9473 5.63261 14 5.5 14H3.5C3.23478 14 2.98043 14.1054 2.79289 14.2929C2.60536 14.4804 2.5 14.7348 2.5 15C2.5 15.2652 2.60536 15.5196 2.79289 15.7071C2.98043 15.8946 3.23478 16 3.5 16H5.5C6.16304 16 6.79893 15.7366 7.26777 15.2678C7.73661 14.7989 8 14.163 8 13.5C8 12.837 7.73661 12.2011 7.26777 11.7322C6.79893 11.2634 6.16304 11 5.5 11ZM12 8C11.2044 8 10.4413 8.31607 9.87868 8.87868C9.31607 9.44129 9 10.2044 9 11V13C9 13.7956 9.31607 14.5587 9.87868 15.1213C10.4413 15.6839 11.2044 16 12 16C12.7956 16 13.5587 15.6839 14.1213 15.1213C14.6839 14.5587 15 13.7956 15 13V11C15 10.2044 14.6839 9.44129 14.1213 8.87868C13.5587 8.31607 12.7956 8 12 8ZM13 13C13 13.2652 12.8946 13.5196 12.7071 13.7071C12.5196 13.8946 12.2652 14 12 14C11.7348 14 11.4804 13.8946 11.2929 13.7071C11.1054 13.5196 11 13.2652 11 13V11C11 10.7348 11.1054 10.4804 11.2929 10.2929C11.4804 10.1054 11.7348 10 12 10C12.2652 10 12.5196 10.1054 12.7071 10.2929C12.8946 10.4804 13 10.7348 13 11V13ZM19.5 11H18.5C18.3674 11 18.2402 10.9473 18.1464 10.8536C18.0527 10.7598 18 10.6326 18 10.5C18 10.3674 18.0527 10.2402 18.1464 10.1464C18.2402 10.0527 18.3674 10 18.5 10H20.5C20.7652 10 21.0196 9.89464 21.2071 9.70711C21.3946 9.51957 21.5 9.26522 21.5 9C21.5 8.73478 21.3946 8.48043 21.2071 8.29289C21.0196 8.10536 20.7652 8 20.5 8H18.5C17.837 8 17.2011 8.26339 16.7322 8.73223C16.2634 9.20107 16 9.83696 16 10.5C16 11.163 16.2634 11.7989 16.7322 12.2678C17.2011 12.7366 17.837 13 18.5 13H19.5C19.6326 13 19.7598 13.0527 19.8536 13.1464C19.9473 13.2402 20 13.3674 20 13.5C20 13.6326 19.9473 13.7598 19.8536 13.8536C19.7598 13.9473 19.6326 14 19.5 14H17.5C17.2348 14 16.9804 14.1054 16.7929 14.2929C16.6054 14.4804 16.5 14.7348 16.5 15C16.5 15.2652 16.6054 15.5196 16.7929 15.7071C16.9804 15.8946 17.2348 16 17.5 16H19.5C20.163 16 20.7989 15.7366 21.2678 15.2678C21.7366 14.7989 22 14.163 22 13.5C22 12.837 21.7366 12.2011 21.2678 11.7322C20.7989 11.2634 20.163 11 19.5 11Z" fill="#141414"/>
</svg>
