<svg width="24" height="24" viewBox="0 0 24 24" fill="none" xmlns="http://www.w3.org/2000/svg">
<path d="M17 3H15.72C15.5455 2.69772 15.2949 2.44638 14.9932 2.27095C14.6914 2.09552 14.349 2.00211 14 2H10C9.65097 2.00211 9.30857 2.09552 9.00683 2.27095C8.70509 2.44638 8.45451 2.69772 8.28 3H7C6.20435 3 5.44129 3.31607 4.87868 3.87868C4.31607 4.44129 4 5.20435 4 6V19C4 19.7956 4.31607 20.5587 4.87868 21.1213C5.44129 21.6839 6.20435 22 7 22H17C17.7956 22 18.5587 21.6839 19.1213 21.1213C19.6839 20.5587 20 19.7956 20 19V6C20 5.20435 19.6839 4.44129 19.1213 3.87868C18.5587 3.31607 17.7956 3 17 3ZM8.29 13.29C8.38296 13.1963 8.49356 13.1219 8.61542 13.0711C8.73728 13.0203 8.86799 12.9942 9 12.9942C9.13201 12.9942 9.26272 13.0203 9.38458 13.0711C9.50644 13.1219 9.61704 13.1963 9.71 13.29L11 14.59L14.29 11.29C14.4783 11.1017 14.7337 10.9959 15 10.9959C15.2663 10.9959 15.5217 11.1017 15.71 11.29C15.8983 11.4783 16.0041 11.7337 16.0041 12C16.0041 12.2663 15.8983 12.5217 15.71 12.71L11.71 16.71C11.617 16.8037 11.5064 16.8781 11.3846 16.9289C11.2627 16.9797 11.132 17.0058 11 17.0058C10.868 17.0058 10.7373 16.9797 10.6154 16.9289C10.4936 16.8781 10.383 16.8037 10.29 16.71L8.29 14.71C8.19627 14.617 8.12188 14.5064 8.07111 14.3846C8.02034 14.2627 7.9942 14.132 7.9942 14C7.9942 13.868 8.02034 13.7373 8.07111 13.6154C8.12188 13.4936 8.19627 13.383 8.29 13.29ZM18 8H6V6C6 5.73478 6.10536 5.48043 6.29289 5.29289C6.48043 5.10536 6.73478 5 7 5H8.28C8.45451 5.30228 8.70509 5.55362 9.00683 5.72905C9.30857 5.90448 9.65097 5.99789 10 6H14C14.349 5.99789 14.6914 5.90448 14.9932 5.72905C15.2949 5.55362 15.5455 5.30228 15.72 5H17C17.2652 5 17.5196 5.10536 17.7071 5.29289C17.8946 5.48043 18 5.73478 18 6V8Z" fill="#141414"/>
</svg>
