<svg width="24" height="24" viewBox="0 0 24 24" fill="none" xmlns="http://www.w3.org/2000/svg">
<path d="M17 2H7C6.20435 2 5.44129 2.31607 4.87868 2.87868C4.31607 3.44129 4 4.20435 4 5V19C4 19.7956 4.31607 20.5587 4.87868 21.1213C5.44129 21.6839 6.20435 22 7 22H17C17.7956 22 18.5587 21.6839 19.1213 21.1213C19.6839 20.5587 20 19.7956 20 19V5C20 4.20435 19.6839 3.44129 19.1213 2.87868C18.5587 2.31607 17.7956 2 17 2ZM8.79 7.29C8.88296 7.19627 8.99356 7.12188 9.11542 7.07111C9.23728 7.02034 9.36799 6.9942 9.5 6.9942C9.63201 6.9942 9.76272 7.02034 9.88458 7.07111C10.0064 7.12188 10.117 7.19627 10.21 7.29L11 8.09L13.79 5.29C13.8832 5.19676 13.9939 5.1228 14.1158 5.07234C14.2376 5.02188 14.3681 4.99591 14.5 4.99591C14.6319 4.99591 14.7624 5.02188 14.8842 5.07234C15.0061 5.1228 15.1168 5.19676 15.21 5.29C15.3032 5.38324 15.3772 5.49393 15.4277 5.61575C15.4781 5.73757 15.5041 5.86814 15.5041 6C15.5041 6.13186 15.4781 6.26243 15.4277 6.38425C15.3772 6.50607 15.3032 6.61676 15.21 6.71L11.71 10.21C11.617 10.3037 11.5064 10.3781 11.3846 10.4289C11.2627 10.4797 11.132 10.5058 11 10.5058C10.868 10.5058 10.7373 10.4797 10.6154 10.4289C10.4936 10.3781 10.383 10.3037 10.29 10.21L8.79 8.71C8.69627 8.61704 8.62188 8.50644 8.57111 8.38458C8.52034 8.26272 8.4942 8.13201 8.4942 8C8.4942 7.86799 8.52034 7.73728 8.57111 7.61542C8.62188 7.49356 8.69627 7.38296 8.79 7.29ZM15.5 19H8.5C8.23478 19 7.98043 18.8946 7.79289 18.7071C7.60536 18.5196 7.5 18.2652 7.5 18C7.5 17.7348 7.60536 17.4804 7.79289 17.2929C7.98043 17.1054 8.23478 17 8.5 17H15.5C15.7652 17 16.0196 17.1054 16.2071 17.2929C16.3946 17.4804 16.5 17.7348 16.5 18C16.5 18.2652 16.3946 18.5196 16.2071 18.7071C16.0196 18.8946 15.7652 19 15.5 19ZM15.5 15H8.5C8.23478 15 7.98043 14.8946 7.79289 14.7071C7.60536 14.5196 7.5 14.2652 7.5 14C7.5 13.7348 7.60536 13.4804 7.79289 13.2929C7.98043 13.1054 8.23478 13 8.5 13H15.5C15.7652 13 16.0196 13.1054 16.2071 13.2929C16.3946 13.4804 16.5 13.7348 16.5 14C16.5 14.2652 16.3946 14.5196 16.2071 14.7071C16.0196 14.8946 15.7652 15 15.5 15Z" fill="#141414"/>
</svg>
