<svg width="24" height="24" viewBox="0 0 24 24" fill="none" xmlns="http://www.w3.org/2000/svg">
<path d="M4 8H12V4C12 3.73478 11.8946 3.48043 11.7071 3.29289C11.5196 3.10536 11.2652 3 11 3H10C8.622 3.00081 7.27488 3.40833 6.1275 4.17148C4.98011 4.93463 4.08348 6.01945 3.55 7.29C3.51487 7.3659 3.49934 7.44939 3.50483 7.53285C3.51033 7.6163 3.53666 7.69704 3.58144 7.76768C3.62621 7.83832 3.68798 7.8966 3.76111 7.93719C3.83423 7.97778 3.91637 7.99937 4 8ZM7.5 18C7.20333 18 6.91332 18.088 6.66664 18.2528C6.41997 18.4176 6.22771 18.6519 6.11418 18.926C6.00065 19.2001 5.97094 19.5017 6.02882 19.7926C6.0867 20.0836 6.22956 20.3509 6.43934 20.5607C6.64912 20.7704 6.91639 20.9133 7.20736 20.9712C7.49834 21.0291 7.79994 20.9993 8.07403 20.8858C8.34811 20.7723 8.58238 20.58 8.7472 20.3334C8.91203 20.0867 9 19.7967 9 19.5C9 19.1022 8.84196 18.7206 8.56066 18.4393C8.27936 18.158 7.89782 18 7.5 18ZM20 6H18C17.7716 5.99334 17.5477 6.06513 17.3658 6.20341C17.1838 6.34169 17.0548 6.53812 17 6.76L16.22 10H4C3.73478 10 3.48043 10.1054 3.29289 10.2929C3.10536 10.4804 3 10.7348 3 11V12C3 13.3261 3.52678 14.5979 4.46447 15.5355C5.40215 16.4732 6.67392 17 8 17H13C14.3261 17 15.5979 16.4732 16.5355 15.5355C17.4732 14.5979 18 13.3261 18 12V11.12L18.78 8H20C20.2652 8 20.5196 7.89464 20.7071 7.70711C20.8946 7.51957 21 7.26522 21 7C21 6.73478 20.8946 6.48043 20.7071 6.29289C20.5196 6.10536 20.2652 6 20 6ZM13.5 18C13.2033 18 12.9133 18.088 12.6666 18.2528C12.42 18.4176 12.2277 18.6519 12.1142 18.926C12.0006 19.2001 11.9709 19.5017 12.0288 19.7926C12.0867 20.0836 12.2296 20.3509 12.4393 20.5607C12.6491 20.7704 12.9164 20.9133 13.2074 20.9712C13.4983 21.0291 13.7999 20.9993 14.074 20.8858C14.3481 20.7723 14.5824 20.58 14.7472 20.3334C14.912 20.0867 15 19.7967 15 19.5C15 19.1022 14.842 18.7206 14.5607 18.4393C14.2794 18.158 13.8978 18 13.5 18Z" fill="#141414"/>
</svg>
