<svg width="24" height="24" viewBox="0 0 24 24" fill="none" xmlns="http://www.w3.org/2000/svg">
<path d="M6 11H18C19.0609 11 20.0783 10.5786 20.8284 9.82843C21.5786 9.07828 22 8.06087 22 7C22 5.93913 21.5786 4.92172 20.8284 4.17157C20.0783 3.42143 19.0609 3 18 3H6C4.93913 3 3.92172 3.42143 3.17157 4.17157C2.42143 4.92172 2 5.93913 2 7C2 8.06087 2.42143 9.07828 3.17157 9.82843C3.92172 10.5786 4.93913 11 6 11ZM6 5.5C6.29667 5.5 6.58668 5.58797 6.83336 5.7528C7.08003 5.91762 7.27229 6.15189 7.38582 6.42597C7.49935 6.70006 7.52906 7.00166 7.47118 7.29264C7.4133 7.58361 7.27044 7.85088 7.06066 8.06066C6.85088 8.27044 6.58361 8.4133 6.29264 8.47118C6.00166 8.52906 5.70006 8.49935 5.42597 8.38582C5.15189 8.27229 4.91762 8.08003 4.7528 7.83336C4.58797 7.58668 4.5 7.29667 4.5 7C4.5 6.60218 4.65804 6.22064 4.93934 5.93934C5.22064 5.65804 5.60218 5.5 6 5.5ZM18 13H6C4.93913 13 3.92172 13.4214 3.17157 14.1716C2.42143 14.9217 2 15.9391 2 17C2 18.0609 2.42143 19.0783 3.17157 19.8284C3.92172 20.5786 4.93913 21 6 21H18C19.0609 21 20.0783 20.5786 20.8284 19.8284C21.5786 19.0783 22 18.0609 22 17C22 15.9391 21.5786 14.9217 20.8284 14.1716C20.0783 13.4214 19.0609 13 18 13ZM6 18.5C5.70333 18.5 5.41332 18.412 5.16664 18.2472C4.91997 18.0824 4.72771 17.8481 4.61418 17.574C4.50065 17.2999 4.47094 16.9983 4.52882 16.7074C4.5867 16.4164 4.72956 16.1491 4.93934 15.9393C5.14912 15.7296 5.41639 15.5867 5.70736 15.5288C5.99834 15.4709 6.29994 15.5006 6.57403 15.6142C6.84811 15.7277 7.08238 15.92 7.2472 16.1666C7.41203 16.4133 7.5 16.7033 7.5 17C7.5 17.3978 7.34196 17.7794 7.06066 18.0607C6.77936 18.342 6.39782 18.5 6 18.5Z" fill="#141414"/>
</svg>
