<svg width="24" height="24" viewBox="0 0 24 24" fill="none" xmlns="http://www.w3.org/2000/svg">
<path d="M20.23 12.77C20.3479 12.5326 20.3667 12.2581 20.2823 12.0069C20.198 11.7556 20.0173 11.5481 19.78 11.43L19.38 11.25C18.868 11.0585 18.3218 10.9756 17.7761 11.0065C17.2303 11.0375 16.697 11.1817 16.21 11.43C15.9726 11.5493 15.7924 11.7581 15.7089 12.0103C15.6255 12.2626 15.6457 12.5376 15.765 12.775C15.8843 13.0124 16.0931 13.1926 16.3453 13.2761C16.5976 13.3595 16.8726 13.3393 17.11 13.22C17.3479 13.0927 17.6107 13.0188 17.8801 13.0032C18.1495 12.9877 18.419 13.0309 18.67 13.13C18.7457 13.1539 18.8193 13.184 18.89 13.22C19.0293 13.2914 19.1835 13.3291 19.34 13.33C19.5257 13.3285 19.7074 13.2753 19.8645 13.1764C20.0217 13.0775 20.1483 12.9368 20.23 12.77ZM18 14C17.8022 14 17.6089 14.0586 17.4444 14.1685C17.28 14.2784 17.1518 14.4346 17.0761 14.6173C17.0004 14.8 16.9806 15.0011 17.0192 15.1951C17.0578 15.3891 17.153 15.5673 17.2929 15.7071C17.4327 15.847 17.6109 15.9422 17.8049 15.9808C17.9989 16.0194 18.2 15.9996 18.3827 15.9239C18.5654 15.8482 18.7216 15.72 18.8315 15.5556C18.9414 15.3911 19 15.1978 19 15C19 14.7348 18.8946 14.4804 18.7071 14.2929C18.5196 14.1054 18.2652 14 18 14ZM5.5 11H12.09C12.3261 9.60294 13.0491 8.33452 14.1308 7.41939C15.2125 6.50425 16.5831 6.00144 18 6H21.65C21.368 5.40272 20.9223 4.89773 20.3647 4.54369C19.8071 4.18966 19.1605 4.00113 18.5 4H5.5C4.57174 4 3.6815 4.36875 3.02513 5.02513C2.36875 5.6815 2 6.57174 2 7.5C2 8.42826 2.36875 9.3185 3.02513 9.97487C3.6815 10.6313 4.57174 11 5.5 11ZM9.5 6.5C9.69778 6.5 9.89112 6.55865 10.0556 6.66853C10.22 6.77841 10.3482 6.93459 10.4239 7.11732C10.4996 7.30004 10.5194 7.50111 10.4808 7.69509C10.4422 7.88907 10.347 8.06725 10.2071 8.20711C10.0673 8.34696 9.88907 8.4422 9.69509 8.48079C9.50111 8.51937 9.30004 8.49957 9.11732 8.42388C8.93459 8.34819 8.77841 8.22002 8.66853 8.05557C8.55865 7.89112 8.5 7.69778 8.5 7.5C8.5 7.23478 8.60536 6.98043 8.79289 6.79289C8.98043 6.60536 9.23478 6.5 9.5 6.5ZM5.5 6.5C5.69778 6.5 5.89112 6.55865 6.05557 6.66853C6.22002 6.77841 6.34819 6.93459 6.42388 7.11732C6.49957 7.30004 6.51937 7.50111 6.48079 7.69509C6.4422 7.88907 6.34696 8.06725 6.20711 8.20711C6.06725 8.34696 5.88907 8.4422 5.69509 8.48079C5.50111 8.51937 5.30004 8.49957 5.11732 8.42388C4.93459 8.34819 4.77841 8.22002 4.66853 8.05557C4.55865 7.89112 4.5 7.69778 4.5 7.5C4.5 7.23478 4.60536 6.98043 4.79289 6.79289C4.98043 6.60536 5.23478 6.5 5.5 6.5ZM12.09 13H5.5C4.57174 13 3.6815 13.3687 3.02513 14.0251C2.36875 14.6815 2 15.5717 2 16.5C2 17.4283 2.36875 18.3185 3.02513 18.9749C3.6815 19.6313 4.57174 20 5.5 20H18.5C19.1605 19.9989 19.8071 19.8103 20.3647 19.4563C20.9223 19.1023 21.368 18.5973 21.65 18H18C16.5831 17.9986 15.2125 17.4958 14.1308 16.5806C13.0491 15.6655 12.3261 14.3971 12.09 13ZM5.5 17.5C5.30222 17.5 5.10888 17.4414 4.94443 17.3315C4.77998 17.2216 4.65181 17.0654 4.57612 16.8827C4.50043 16.7 4.48063 16.4989 4.51921 16.3049C4.5578 16.1109 4.65304 15.9327 4.79289 15.7929C4.93275 15.653 5.11093 15.5578 5.30491 15.5192C5.49889 15.4806 5.69996 15.5004 5.88268 15.5761C6.06541 15.6518 6.22159 15.78 6.33147 15.9444C6.44135 16.1089 6.5 16.3022 6.5 16.5C6.5 16.7652 6.39464 17.0196 6.20711 17.2071C6.01957 17.3946 5.76522 17.5 5.5 17.5ZM9.5 17.5C9.30222 17.5 9.10888 17.4414 8.94443 17.3315C8.77998 17.2216 8.65181 17.0654 8.57612 16.8827C8.50043 16.7 8.48063 16.4989 8.51921 16.3049C8.5578 16.1109 8.65304 15.9327 8.79289 15.7929C8.93275 15.653 9.11093 15.5578 9.30491 15.5192C9.49889 15.4806 9.69996 15.5004 9.88268 15.5761C10.0654 15.6518 10.2216 15.78 10.3315 15.9444C10.4414 16.1089 10.5 16.3022 10.5 16.5C10.5 16.7652 10.3946 17.0196 10.2071 17.2071C10.0196 17.3946 9.76522 17.5 9.5 17.5ZM21.58 10.09C21.6399 9.97197 21.6758 9.84322 21.6856 9.71121C21.6954 9.5792 21.6789 9.44656 21.6371 9.32098C21.5952 9.1954 21.5288 9.07938 21.4418 8.97965C21.3547 8.87991 21.2488 8.79846 21.13 8.74C20.1581 8.25417 19.0865 8.00124 18 8.00124C16.9135 8.00124 15.8419 8.25417 14.87 8.74C14.7525 8.79909 14.6477 8.88076 14.5618 8.98034C14.4758 9.07991 14.4103 9.19544 14.3689 9.32034C14.3276 9.44523 14.3113 9.57704 14.3209 9.70824C14.3305 9.83945 14.3659 9.96747 14.425 10.085C14.4841 10.2025 14.5658 10.3073 14.6653 10.3932C14.7649 10.4792 14.8804 10.5447 15.0053 10.5861C15.1302 10.6274 15.262 10.6437 15.3932 10.6341C15.5244 10.6245 15.6525 10.5891 15.77 10.53C16.4627 10.1848 17.2261 10.0052 18 10.0052C18.7739 10.0052 19.5373 10.1848 20.23 10.53C20.3701 10.5994 20.5237 10.637 20.68 10.64C20.8664 10.6413 21.0494 10.5905 21.2084 10.4933C21.3674 10.3961 21.4961 10.2564 21.58 10.09Z" fill="#141414"/>
</svg>
