<svg width="24" height="24" viewBox="0 0 24 24" fill="none" xmlns="http://www.w3.org/2000/svg">
<path d="M19.7898 10.16L5.78979 4.16001C5.54004 4.05361 5.27125 3.99918 4.99979 4.00001C4.55007 3.99866 4.11302 4.14892 3.75921 4.42652C3.4054 4.70413 3.15547 5.09288 3.04979 5.53001C2.9815 5.81472 2.97656 6.11096 3.0353 6.3978C3.09405 6.68463 3.21506 6.95507 3.38979 7.19001L6.75979 12L3.40979 16.79C3.20045 17.0642 3.06557 17.3878 3.01826 17.7295C2.97095 18.0712 3.01281 18.4193 3.13979 18.74C3.23838 18.9887 3.38587 19.2151 3.57352 19.4058C3.76118 19.5965 3.98518 19.7476 4.23228 19.8502C4.47937 19.9527 4.74453 20.0047 5.01206 20.0029C5.27959 20.0012 5.54405 19.9458 5.78979 19.84L19.7898 13.84C20.1506 13.6863 20.4582 13.43 20.6744 13.1028C20.8907 12.7757 21.006 12.3922 21.006 12C21.006 11.6079 20.8907 11.2244 20.6744 10.8972C20.4582 10.5701 20.1506 10.3137 19.7898 10.16Z" fill="#141414"/>
</svg>
