<svg width="24" height="24" viewBox="0 0 24 24" fill="none" xmlns="http://www.w3.org/2000/svg">
<path d="M16.4999 15.4999C16.6977 15.4999 16.8911 15.4413 17.0555 15.3314C17.22 15.2215 17.3481 15.0653 17.4238 14.8826C17.4995 14.6999 17.5193 14.4988 17.4807 14.3048C17.4421 14.1109 17.3469 13.9327 17.207 13.7928C17.0672 13.653 16.889 13.5577 16.695 13.5192C16.501 13.4806 16.3 13.5004 16.1173 13.5761C15.9345 13.6517 15.7784 13.7799 15.6685 13.9444C15.5586 14.1088 15.4999 14.3022 15.4999 14.4999C15.4999 14.7652 15.6053 15.0195 15.7928 15.207C15.9804 15.3946 16.2347 15.4999 16.4999 15.4999ZM11.9999 12.9999C11.9999 13.1977 12.0586 13.3911 12.1685 13.5555C12.2784 13.72 12.4345 13.8481 12.6173 13.9238C12.8 13.9995 13.001 14.0193 13.195 13.9807C13.389 13.9421 13.5672 13.8469 13.707 13.707C13.8469 13.5672 13.9421 13.389 13.9807 13.195C14.0193 13.001 13.9995 12.8 13.9238 12.6173C13.8481 12.4345 13.72 12.2784 13.5555 12.1685C13.3911 12.0586 13.1977 11.9999 12.9999 11.9999C12.7347 11.9999 12.4804 12.1053 12.2928 12.2928C12.1053 12.4804 11.9999 12.7347 11.9999 12.9999ZM20.6399 16.3199C20.5269 16.2271 20.3949 16.1602 20.2533 16.1239C20.1116 16.0876 19.9637 16.0829 19.8199 16.1099C19.3149 16.2075 18.8243 16.3688 18.3599 16.5899C17.7832 16.8778 17.1443 17.0187 16.4999 16.9999C15.8587 17.02 15.2227 16.879 14.6499 16.5899C13.8276 16.1812 12.9181 15.9787 11.9999 15.9999C11.0785 15.9775 10.1655 16.18 9.33994 16.5899C8.77049 16.8782 8.13789 17.0191 7.49994 16.9999C6.85261 17.0167 6.2109 16.876 5.62994 16.5899C5.1697 16.3672 4.6822 16.2058 4.17994 16.1099C4.03622 16.0829 3.8883 16.0876 3.74662 16.1239C3.60494 16.1602 3.47295 16.2271 3.35994 16.3199C3.24706 16.414 3.15628 16.5317 3.09406 16.6648C3.03183 16.7979 2.9997 16.943 2.99994 17.0899V19.9999C2.99994 20.2652 3.1053 20.5195 3.29283 20.707C3.48037 20.8946 3.73472 20.9999 3.99994 20.9999H19.9999C20.2652 20.9999 20.5195 20.8946 20.707 20.707C20.8946 20.5195 20.9999 20.2652 20.9999 19.9999V17.0899C21.0002 16.943 20.968 16.7979 20.9058 16.6648C20.8436 16.5317 20.7528 16.414 20.6399 16.3199ZM8.28994 12.7099C8.3829 12.8037 8.4935 12.8781 8.61536 12.9288C8.73722 12.9796 8.86793 13.0057 8.99994 13.0057C9.13195 13.0057 9.26266 12.9796 9.38452 12.9288C9.50637 12.8781 9.61698 12.8037 9.70994 12.7099L12.7099 9.70994C12.8037 9.61698 12.8781 9.50637 12.9288 9.38452C12.9796 9.26266 13.0057 9.13195 13.0057 8.99994C13.0057 8.86793 12.9796 8.73722 12.9288 8.61536C12.8781 8.4935 12.8037 8.3829 12.7099 8.28994L7.70994 3.28994C7.61698 3.19621 7.50637 3.12182 7.38452 3.07105C7.26266 3.02028 7.13195 2.99414 6.99994 2.99414C6.86793 2.99414 6.73722 3.02028 6.61536 3.07105C6.4935 3.12182 6.3829 3.19621 6.28994 3.28994L3.28994 6.28994C3.19621 6.3829 3.12182 6.4935 3.07105 6.61536C3.02028 6.73722 2.99414 6.86793 2.99414 6.99994C2.99414 7.13195 3.02028 7.26266 3.07105 7.38452C3.12182 7.50637 3.19621 7.61698 3.28994 7.70994L8.28994 12.7099Z" fill="#141414"/>
</svg>
