<svg width="24" height="24" viewBox="0 0 24 24" fill="none" xmlns="http://www.w3.org/2000/svg">
<path d="M18 6H17V3C17 2.73478 16.8946 2.48043 16.7071 2.29289C16.5196 2.10536 16.2652 2 16 2C15.7348 2 15.4804 2.10536 15.2929 2.29289C15.1054 2.48043 15 2.73478 15 3V6H9V3C9 2.73478 8.89464 2.48043 8.70711 2.29289C8.51957 2.10536 8.26522 2 8 2C7.73478 2 7.48043 2.10536 7.29289 2.29289C7.10536 2.48043 7 2.73478 7 3V6H6C5.46957 6 4.96086 6.21071 4.58579 6.58579C4.21071 6.96086 4 7.46957 4 8V18C4 19.0609 4.42143 20.0783 5.17157 20.8284C5.92172 21.5786 6.93913 22 8 22H16C17.0609 22 18.0783 21.5786 18.8284 20.8284C19.5786 20.0783 20 19.0609 20 18V8C20 7.46957 19.7893 6.96086 19.4142 6.58579C19.0391 6.21071 18.5304 6 18 6ZM12 17C11.4067 17 10.8266 16.8241 10.3333 16.4944C9.83994 16.1648 9.45542 15.6962 9.22836 15.1481C9.0013 14.5999 8.94189 13.9967 9.05764 13.4147C9.1734 12.8328 9.45912 12.2982 9.87868 11.8787C10.2982 11.4591 10.8328 11.1734 11.4147 11.0576C11.9967 10.9419 12.5999 11.0013 13.1481 11.2284C13.6962 11.4554 14.1648 11.8399 14.4944 12.3333C14.8241 12.8266 15 13.4067 15 14C15 14.7956 14.6839 15.5587 14.1213 16.1213C13.5587 16.6839 12.7956 17 12 17Z" fill="#141414"/>
</svg>
