<svg width="24" height="24" viewBox="0 0 24 24" fill="none" xmlns="http://www.w3.org/2000/svg">
<path d="M9 8C8.80222 8 8.60888 8.05865 8.44443 8.16853C8.27998 8.27841 8.15181 8.43459 8.07612 8.61732C8.00043 8.80004 7.98063 9.00111 8.01921 9.19509C8.0578 9.38907 8.15304 9.56725 8.29289 9.70711C8.43275 9.84696 8.61093 9.9422 8.80491 9.98079C8.99889 10.0194 9.19996 9.99957 9.38268 9.92388C9.56541 9.84819 9.72159 9.72002 9.83147 9.55557C9.94135 9.39112 10 9.19778 10 9C10 8.73478 9.89464 8.48043 9.70711 8.29289C9.51957 8.10536 9.26522 8 9 8ZM20.78 12.16L19.4 7.05C19.1926 6.46323 18.8077 5.9555 18.2989 5.59716C17.7901 5.23882 17.1824 5.0476 16.56 5.05H16.5V4C16.5 3.73478 16.3946 3.48043 16.2071 3.29289C16.0196 3.10536 15.7652 3 15.5 3H14.5C14.2348 3 13.9804 3.10536 13.7929 3.29289C13.6054 3.48043 13.5 3.73478 13.5 4V5H7.41C6.76769 4.99958 6.14221 5.20532 5.62557 5.58695C5.10893 5.96858 4.72841 6.50595 4.54 7.12L3.21 12.17C2.85194 12.324 2.54666 12.5792 2.33169 12.9043C2.11672 13.2294 2.00144 13.6102 2 14V16C2.00211 16.349 2.09552 16.6914 2.27095 16.9932C2.44638 17.2949 2.69772 17.5455 3 17.72V19C3 19.2652 3.10536 19.5196 3.29289 19.7071C3.48043 19.8946 3.73478 20 4 20C4.26522 20 4.51957 19.8946 4.70711 19.7071C4.89464 19.5196 5 19.2652 5 19V18H19V19C19 19.2652 19.1054 19.5196 19.2929 19.7071C19.4804 19.8946 19.7348 20 20 20C20.2652 20 20.5196 19.8946 20.7071 19.7071C20.8946 19.5196 21 19.2652 21 19V17.72C21.3023 17.5455 21.5536 17.2949 21.7291 16.9932C21.9045 16.6914 21.9979 16.349 22 16V14C21.9997 13.6074 21.8838 13.2236 21.6669 12.8964C21.4499 12.5692 21.1415 12.3131 20.78 12.16ZM6.71 15.71C6.54541 15.8748 6.32847 15.9769 6.09662 15.9988C5.86477 16.0207 5.63254 15.961 5.44 15.83C5.27585 15.7214 5.14993 15.564 5.08 15.38C4.99607 15.199 4.9682 14.997 5 14.8C5.03698 14.6015 5.13319 14.4188 5.27599 14.276C5.41879 14.1332 5.60147 14.037 5.8 14C5.995 13.9619 6.19692 13.9828 6.38 14.06C6.56399 14.1299 6.72139 14.2558 6.83 14.42C6.96101 14.6125 7.02071 14.8448 6.9988 15.0766C6.97689 15.3085 6.87475 15.5254 6.71 15.69V15.71ZM15 11C14.651 11.0021 14.3086 11.0955 14.0068 11.2709C13.7051 11.4464 13.4545 11.6977 13.28 12H10.72C10.5429 11.7016 10.2912 11.4543 9.98965 11.2826C9.68809 11.1109 9.34703 11.0206 9 11.0206C8.65297 11.0206 8.31191 11.1109 8.01035 11.2826C7.70878 11.4543 7.45709 11.7016 7.28 12H5.28L6.46 7.69C6.52781 7.48115 6.66247 7.30043 6.8432 7.17572C7.02393 7.05102 7.24068 6.98927 7.46 7H16.61C16.8103 6.99981 17.006 7.05975 17.1718 7.17208C17.3376 7.28441 17.4659 7.44393 17.54 7.63L18.67 12H16.67C16.4998 11.7049 16.2571 11.4581 15.9649 11.2831C15.6726 11.1081 15.3405 11.0107 15 11ZM18.71 15.71C18.5454 15.8748 18.3285 15.9769 18.0966 15.9988C17.8648 16.0207 17.6325 15.961 17.44 15.83C17.2758 15.7214 17.1499 15.564 17.08 15.38C16.9961 15.199 16.9682 14.997 17 14.8C17.037 14.6015 17.1332 14.4188 17.276 14.276C17.4188 14.1332 17.6015 14.037 17.8 14C17.995 13.9619 18.1969 13.9828 18.38 14.06C18.564 14.1299 18.7214 14.2558 18.83 14.42C18.961 14.6125 19.0207 14.8448 18.9988 15.0766C18.9769 15.3085 18.8748 15.5254 18.71 15.69V15.71ZM15 8C14.8022 8 14.6089 8.05865 14.4444 8.16853C14.28 8.27841 14.1518 8.43459 14.0761 8.61732C14.0004 8.80004 13.9806 9.00111 14.0192 9.19509C14.0578 9.38907 14.153 9.56725 14.2929 9.70711C14.4327 9.84696 14.6109 9.9422 14.8049 9.98079C14.9989 10.0194 15.2 9.99957 15.3827 9.92388C15.5654 9.84819 15.7216 9.72002 15.8315 9.55557C15.9414 9.39112 16 9.19778 16 9C16 8.73478 15.8946 8.48043 15.7071 8.29289C15.5196 8.10536 15.2652 8 15 8Z" fill="#141414"/>
</svg>
