<svg width="24" height="24" viewBox="0 0 24 24" fill="none" xmlns="http://www.w3.org/2000/svg">
<path d="M18 6H16C16 4.93913 15.5786 3.92172 14.8284 3.17157C14.0783 2.42143 13.0609 2 12 2C10.9391 2 9.92172 2.42143 9.17157 3.17157C8.42143 3.92172 8 4.93913 8 6H6C5.46957 6 4.96086 6.21071 4.58579 6.58579C4.21071 6.96086 4 7.46957 4 8V19C4 19.7956 4.31607 20.5587 4.87868 21.1213C5.44129 21.6839 6.20435 22 7 22H17C17.7956 22 18.5587 21.6839 19.1213 21.1213C19.6839 20.5587 20 19.7956 20 19V8C20 7.46957 19.7893 6.96086 19.4142 6.58579C19.0391 6.21071 18.5304 6 18 6ZM12 4C12.5304 4 13.0391 4.21071 13.4142 4.58579C13.7893 4.96086 14 5.46957 14 6H10C10 5.46957 10.2107 4.96086 10.5858 4.58579C10.9609 4.21071 11.4696 4 12 4ZM12.76 17.1L12.56 17.28C12.4081 17.422 12.2079 17.501 12 17.501C11.7921 17.501 11.5919 17.422 11.44 17.28L11.24 17.1C9.38 15.39 8.24 14.1 8.24 12.74C8.23599 12.4456 8.29086 12.1533 8.40138 11.8804C8.5119 11.6075 8.67585 11.3594 8.8836 11.1507C9.09134 10.942 9.33869 10.777 9.61112 10.6652C9.88355 10.5535 10.1756 10.4973 10.47 10.5C11.019 10.5177 11.5437 10.7304 11.95 11.1C12.3563 10.7304 12.881 10.5177 13.43 10.5C13.7244 10.4973 14.0165 10.5535 14.2889 10.6652C14.5613 10.777 14.8087 10.942 15.0164 11.1507C15.2241 11.3594 15.3881 11.6075 15.4986 11.8804C15.6091 12.1533 15.664 12.4456 15.66 12.74C15.71 14.12 14.62 15.39 12.76 17.1Z" fill="#141414"/>
</svg>
