<svg width="24" height="24" viewBox="0 0 24 24" fill="none" xmlns="http://www.w3.org/2000/svg">
<path d="M15.61 16.77C15.8208 16.6082 15.9587 16.3693 15.9934 16.1058C16.0281 15.8423 15.9567 15.5758 15.795 15.365C15.6332 15.1542 15.3943 15.0162 15.1308 14.9815C14.8673 14.9468 14.6008 15.0182 14.39 15.18C13.6994 15.6946 12.8612 15.9725 12 15.9725C11.1387 15.9725 10.3005 15.6946 9.60995 15.18C9.3991 15.0182 9.13263 14.9468 8.86914 14.9815C8.60565 15.0162 8.36673 15.1542 8.20495 15.365C8.04317 15.5758 7.97177 15.8423 8.00647 16.1058C8.04116 16.3693 8.17911 16.6082 8.38995 16.77C9.42421 17.5679 10.6937 18.0007 12 18.0007C13.3062 18.0007 14.5757 17.5679 15.61 16.77ZM17.33 18C15.8636 19.31 13.9662 20.0342 12 20.0342C10.0337 20.0342 8.13626 19.31 6.66995 18C6.47237 17.8223 6.21228 17.7304 5.94692 17.7444C5.68155 17.7585 5.43265 17.8774 5.25495 18.075C5.07726 18.2726 4.98533 18.5327 4.9994 18.798C5.01346 19.0634 5.13237 19.3123 5.32995 19.49C7.16377 21.1317 9.53864 22.0394 12 22.0394C14.4613 22.0394 16.8361 21.1317 18.67 19.49C18.8675 19.3123 18.9864 19.0634 19.0005 18.798C19.0146 18.5327 18.9226 18.2726 18.745 18.075C18.5673 17.8774 18.3183 17.7585 18.053 17.7444C17.7876 17.7304 17.5275 17.8223 17.33 18ZM19.76 2.4C19.6709 2.28106 19.5565 2.18345 19.4251 2.11426C19.2936 2.04507 19.1484 2.00603 19 2H4.99995C4.85551 1.99999 4.71278 2.03127 4.58159 2.09169C4.45039 2.15211 4.33384 2.24023 4.23995 2.35C4.14326 2.45932 4.07168 2.58848 4.03022 2.72841C3.98875 2.86834 3.97842 3.01565 3.99995 3.16L4.85995 8.33C4.93877 8.80142 5.18381 9.22903 5.55069 9.53537C5.91757 9.84172 6.38203 10.0065 6.85995 10H7.28995L7.82995 11.63C7.96187 12.0275 8.21525 12.3735 8.55435 12.6193C8.89344 12.8651 9.30114 12.9983 9.71995 13H14.28C14.7005 13.0004 15.1104 12.8682 15.4515 12.6223C15.7926 12.3763 16.0475 12.0291 16.18 11.63L16.72 10H17.15C17.6279 10.0065 18.0923 9.84172 18.4592 9.53537C18.8261 9.22903 19.0711 8.80142 19.15 8.33L20 3.16C20.0215 3.01565 20.0111 2.86834 19.9697 2.72841C19.9282 2.58848 19.8566 2.45932 19.76 2.35V2.4Z" fill="#141414"/>
</svg>
