<svg width="24" height="24" viewBox="0 0 24 24" fill="none" xmlns="http://www.w3.org/2000/svg">
<path d="M18 2H7C6.20435 2 5.44129 2.31607 4.87868 2.87868C4.31607 3.44129 4 4.20435 4 5V19C4 19.7956 4.31607 20.5587 4.87868 21.1213C5.44129 21.6839 6.20435 22 7 22H18C18.5304 22 19.0391 21.7893 19.4142 21.4142C19.7893 21.0391 20 20.5304 20 20V4C20 3.46957 19.7893 2.96086 19.4142 2.58579C19.0391 2.21071 18.5304 2 18 2ZM9.1 8L10.57 7.78L11.23 6.45C11.3013 6.30673 11.4111 6.18619 11.5471 6.10192C11.6831 6.01766 11.84 5.97301 12 5.97301C12.16 5.97301 12.3169 6.01766 12.4529 6.10192C12.5889 6.18619 12.6987 6.30673 12.77 6.45L13.43 7.78L14.9 8C15.0577 8.02351 15.2057 8.09038 15.3276 8.19316C15.4495 8.29593 15.5404 8.43056 15.5902 8.582C15.64 8.73345 15.6467 8.89575 15.6096 9.0508C15.5724 9.20584 15.493 9.34751 15.38 9.46L14.31 10.46L14.56 12C14.5886 12.1575 14.5722 12.3199 14.5126 12.4685C14.4529 12.6171 14.3526 12.7458 14.223 12.8399C14.0934 12.9339 13.9399 12.9895 13.7802 13.0001C13.6204 13.0107 13.4609 12.976 13.32 12.9L12 12.21L10.68 12.9C10.5391 12.976 10.3796 13.0107 10.2198 13.0001C10.0601 12.9895 9.90659 12.9339 9.77702 12.8399C9.64744 12.7458 9.54706 12.6171 9.48744 12.4685C9.42782 12.3199 9.41137 12.1575 9.44 12L9.69 10.53L8.62 9.53C8.48453 9.42176 8.38494 9.2751 8.33431 9.10926C8.28367 8.94341 8.28435 8.76614 8.33626 8.60069C8.38816 8.43524 8.48887 8.28934 8.62516 8.18215C8.76146 8.07495 8.92698 8.01146 9.1 8ZM18 19.67C18 19.7575 17.9652 19.8415 17.9033 19.9033C17.8415 19.9652 17.7575 20 17.67 20H7C6.73478 20 6.48043 19.8946 6.29289 19.7071C6.10536 19.5196 6 19.2652 6 19C6 18.7348 6.10536 18.4804 6.29289 18.2929C6.48043 18.1054 6.73478 18 7 18H17.67C17.7575 18 17.8415 18.0348 17.9033 18.0967C17.9652 18.1585 18 18.2425 18 18.33V19.67Z" fill="#141414"/>
</svg>
