<svg width="24" height="24" viewBox="0 0 24 24" fill="none" xmlns="http://www.w3.org/2000/svg">
<path d="M13.2902 12.7103C13.4902 12.9103 13.7402 13.0003 14.0002 13.0003C14.2602 13.0003 14.5102 12.9003 14.7102 12.7103L20.7102 6.71031C21.1002 6.32031 21.1002 5.69031 20.7102 5.30031L18.7102 3.30031C18.3202 2.91031 17.6902 2.91031 17.3002 3.30031L11.3002 9.30031C10.9102 9.69031 10.9102 10.3203 11.3002 10.7103L13.3002 12.7103H13.2902ZM10.0802 12.5003L3.29017 19.2903C3.00017 19.5803 2.92017 20.0103 3.07017 20.3803C3.22017 20.7503 3.59017 21.0003 3.99017 21.0003H5.69017C6.09017 21.0003 6.47017 20.8803 6.80017 20.6603L9.55017 18.8303C9.83017 18.6403 10.0002 18.3303 10.0002 18.0003V15.4103L11.5002 13.9103L10.0902 12.5003H10.0802ZM13.9902 19.0003H11.9902C11.4402 19.0003 10.9902 19.4503 10.9902 20.0003C10.9902 20.5503 11.4402 21.0003 11.9902 21.0003H13.9902C14.5402 21.0003 14.9902 20.5503 14.9902 20.0003C14.9902 19.4503 14.5402 19.0003 13.9902 19.0003ZM19.9902 19.0003H17.9902C17.4402 19.0003 16.9902 19.4503 16.9902 20.0003C16.9902 20.5503 17.4402 21.0003 17.9902 21.0003H19.9902C20.5402 21.0003 20.9902 20.5503 20.9902 20.0003C20.9902 19.4503 20.5402 19.0003 19.9902 19.0003Z" fill="#141414"/>
</svg>
