<svg width="24" height="24" viewBox="0 0 24 24" fill="none" xmlns="http://www.w3.org/2000/svg">
<path d="M13.8201 4.3999C13.7271 4.30617 13.6165 4.23178 13.4946 4.18101C13.3728 4.13024 13.2421 4.1041 13.1101 4.1041C12.978 4.1041 12.8473 4.13024 12.7255 4.18101C12.6036 4.23178 12.493 4.30617 12.4001 4.3999L10.5301 6.2799L8.13006 3.8799C7.55778 3.33689 6.79895 3.03418 6.01006 3.03418C5.22116 3.03418 4.46233 3.33689 3.89006 3.8799C3.32825 4.4424 3.0127 5.2049 3.0127 5.9999C3.0127 6.7949 3.32825 7.5574 3.89006 8.1199L6.29006 10.5199L4.40006 12.3999C4.30633 12.4929 4.23193 12.6035 4.18116 12.7253C4.1304 12.8472 4.10426 12.9779 4.10426 13.1099C4.10426 13.2419 4.1304 13.3726 4.18116 13.4945C4.23193 13.6163 4.30633 13.7269 4.40006 13.8199C4.49302 13.9136 4.60362 13.988 4.72548 14.0388C4.84734 14.0896 4.97804 14.1157 5.11006 14.1157C5.24207 14.1157 5.37277 14.0896 5.49463 14.0388C5.61649 13.988 5.72709 13.9136 5.82006 13.8199L13.8201 5.8199C13.9138 5.72694 13.9882 5.61634 14.0389 5.49448C14.0897 5.37262 14.1159 5.24191 14.1159 5.1099C14.1159 4.97789 14.0897 4.84718 14.0389 4.72532C13.9882 4.60347 13.9138 4.49286 13.8201 4.3999ZM20.5701 12.1799L14.4401 7.9999L11.9101 10.4999L16.2101 14.7899C16.3038 14.8829 16.3782 14.9935 16.4289 15.1153C16.4797 15.2372 16.5059 15.3679 16.5059 15.4999C16.5059 15.6319 16.4797 15.7626 16.4289 15.8845C16.3782 16.0063 16.3038 16.1169 16.2101 16.2099C16.1171 16.3036 16.0065 16.378 15.8846 16.4288C15.7628 16.4796 15.6321 16.5057 15.5001 16.5057C15.368 16.5057 15.2373 16.4796 15.1155 16.4288C14.9936 16.378 14.883 16.3036 14.7901 16.2099L10.5001 11.9099L8.00006 14.4399L12.2001 20.5699C12.29 20.6996 12.4094 20.8062 12.5484 20.881C12.6875 20.9557 12.8422 20.9965 13.0001 20.9999H20.0001C20.2653 20.9999 20.5196 20.8945 20.7072 20.707C20.8947 20.5195 21.0001 20.2651 21.0001 19.9999V12.9999C20.9998 12.8387 20.9606 12.6799 20.8857 12.5371C20.8108 12.3944 20.7025 12.2718 20.5701 12.1799Z" fill="#141414"/>
</svg>
