<svg width="24" height="24" viewBox="0 0 24 24" fill="none" xmlns="http://www.w3.org/2000/svg">
<path d="M15 19H9C8.82954 19.0005 8.66203 19.0446 8.5134 19.1281C8.36477 19.2115 8.23994 19.3316 8.15076 19.4769C8.06159 19.6222 8.01104 19.7878 8.0039 19.9581C7.99677 20.1285 8.03329 20.2978 8.11 20.45L8.61 21.45C8.6931 21.6149 8.82024 21.7536 8.97733 21.8507C9.13443 21.9478 9.31533 21.9994 9.5 22H14.5C14.6847 21.9994 14.8656 21.9478 15.0227 21.8507C15.1798 21.7536 15.3069 21.6149 15.39 21.45L15.89 20.45C15.9667 20.2978 16.0032 20.1285 15.9961 19.9581C15.989 19.7878 15.9384 19.6222 15.8492 19.4769C15.7601 19.3316 15.6352 19.2115 15.4866 19.1281C15.338 19.0446 15.1705 19.0005 15 19ZM9 5H15C15.1705 4.99948 15.338 4.9554 15.4866 4.87194C15.6352 4.78847 15.7601 4.6684 15.8492 4.52312C15.9384 4.37784 15.989 4.21217 15.9961 4.04186C16.0032 3.87154 15.9667 3.70223 15.89 3.55L15.39 2.55C15.3069 2.38509 15.1798 2.2464 15.0227 2.14932C14.8656 2.05224 14.6847 2.00056 14.5 2H9.5C9.31533 2.00056 9.13443 2.05224 8.97733 2.14932C8.82024 2.2464 8.6931 2.38509 8.61 2.55L8.11 3.55C8.03329 3.70223 7.99677 3.87154 8.0039 4.04186C8.01104 4.21217 8.06159 4.37784 8.15076 4.52312C8.23994 4.6684 8.36477 4.78847 8.5134 4.87194C8.66203 4.9554 8.82954 4.99948 9 5ZM15 6H9C8.20435 6 7.44129 6.31607 6.87868 6.87868C6.31607 7.44129 6 8.20435 6 9V15C6 15.7956 6.31607 16.5587 6.87868 17.1213C7.44129 17.6839 8.20435 18 9 18H15C15.7956 18 16.5587 17.6839 17.1213 17.1213C17.6839 16.5587 18 15.7956 18 15V9C18 8.20435 17.6839 7.44129 17.1213 6.87868C16.5587 6.31607 15.7956 6 15 6ZM13.5 12.5C13.5 12.7652 13.3946 13.0196 13.2071 13.2071C13.0196 13.3946 12.7652 13.5 12.5 13.5H10.5C10.2348 13.5 9.98043 13.3946 9.79289 13.2071C9.60536 13.0196 9.5 12.7652 9.5 12.5C9.5 12.2348 9.60536 11.9804 9.79289 11.7929C9.98043 11.6054 10.2348 11.5 10.5 11.5H11.5V9.5C11.5 9.23478 11.6054 8.98043 11.7929 8.79289C11.9804 8.60536 12.2348 8.5 12.5 8.5C12.7652 8.5 13.0196 8.60536 13.2071 8.79289C13.3946 8.98043 13.5 9.23478 13.5 9.5V12.5Z" fill="#141414"/>
</svg>
