<svg width="24" height="24" viewBox="0 0 24 24" fill="none" xmlns="http://www.w3.org/2000/svg">
<path d="M15.0001 4H9.00006C7.23973 4.01356 5.54913 4.68987 4.26515 5.89418C2.98118 7.09849 2.1981 8.74235 2.07196 10.4982C1.94582 12.2541 2.48588 13.993 3.58453 15.3685C4.68318 16.7439 6.25974 17.655 8.00006 17.92V20C8.00006 20.2786 8.07763 20.5516 8.22408 20.7886C8.37053 21.0256 8.58008 21.2171 8.82924 21.3416C9.07839 21.4662 9.35732 21.519 9.63476 21.4939C9.91221 21.4689 10.1772 21.3671 10.4001 21.2L14.6701 18H15.0001C16.8566 18 18.637 17.2625 19.9498 15.9497C21.2626 14.637 22.0001 12.8565 22.0001 11C22.0001 9.14348 21.2626 7.36301 19.9498 6.05025C18.637 4.7375 16.8566 4 15.0001 4Z" fill="#141414"/>
</svg>
