<svg width="24" height="24" viewBox="0 0 24 24" fill="none" xmlns="http://www.w3.org/2000/svg">
<path d="M17.24 8.00019H18.59L18.29 8.29019C18.1963 8.38315 18.1219 8.49375 18.0711 8.61561C18.0203 8.73747 17.9942 8.86817 17.9942 9.00019C17.9942 9.1322 18.0203 9.2629 18.0711 9.38476C18.1219 9.50662 18.1963 9.61722 18.29 9.71019C18.383 9.80391 18.4936 9.87831 18.6154 9.92908C18.7373 9.97985 18.868 10.006 19 10.006C19.132 10.006 19.2627 9.97985 19.3846 9.92908C19.5064 9.87831 19.617 9.80391 19.71 9.71019L21.71 7.71019C21.8037 7.61722 21.8781 7.50662 21.9289 7.38476C21.9797 7.2629 22.0058 7.1322 22.0058 7.00019C22.0058 6.86817 21.9797 6.73747 21.9289 6.61561C21.8781 6.49375 21.8037 6.38315 21.71 6.29019L19.71 4.29019C19.6168 4.19695 19.5061 4.12299 19.3842 4.07253C19.2624 4.02207 19.1319 3.99609 19 3.99609C18.7337 3.99609 18.4783 4.10188 18.29 4.29019C18.1017 4.47849 17.9959 4.73388 17.9959 5.00019C17.9959 5.26649 18.1017 5.52188 18.29 5.71019L18.59 6.00019H17.24C16.1801 6.00583 15.1644 6.42574 14.41 7.17019L6.17 15.4102C5.79665 15.7858 5.28958 15.998 4.76 16.0002H3C2.73478 16.0002 2.48043 16.1055 2.29289 16.2931C2.10536 16.4806 2 16.735 2 17.0002C2 17.2654 2.10536 17.5198 2.29289 17.7073C2.48043 17.8948 2.73478 18.0002 3 18.0002H4.76C5.81989 17.9945 6.83555 17.5746 7.59 16.8302L15.83 8.59019C16.2034 8.2146 16.7104 8.00242 17.24 8.00019ZM3 8.00019H4.76C5.28958 8.00242 5.79665 8.2146 6.17 8.59019L8.17 10.5902L9.59 9.17019L7.59 7.17019C6.83555 6.42574 5.81989 6.00583 4.76 6.00019H3C2.73478 6.00019 2.48043 6.10554 2.29289 6.29308C2.10536 6.48062 2 6.73497 2 7.00019C2 7.2654 2.10536 7.51976 2.29289 7.70729C2.48043 7.89483 2.73478 8.00019 3 8.00019ZM19.71 14.2902C19.5217 14.1019 19.2663 13.9961 19 13.9961C18.7337 13.9961 18.4783 14.1019 18.29 14.2902C18.1017 14.4785 17.9959 14.7339 17.9959 15.0002C17.9959 15.2665 18.1017 15.5219 18.29 15.7102L18.59 16.0002H17.24C16.7104 15.998 16.2034 15.7858 15.83 15.4102L13.83 13.4102L12.41 14.8302L14.41 16.8302C15.1644 17.5746 16.1801 17.9945 17.24 18.0002H18.59L18.29 18.2902C18.1963 18.3831 18.1219 18.4937 18.0711 18.6156C18.0203 18.7375 17.9942 18.8682 17.9942 19.0002C17.9942 19.1322 18.0203 19.2629 18.0711 19.3848C18.1219 19.5066 18.1963 19.6172 18.29 19.7102C18.383 19.8039 18.4936 19.8783 18.6154 19.9291C18.7373 19.9798 18.868 20.006 19 20.006C19.132 20.006 19.2627 19.9798 19.3846 19.9291C19.5064 19.8783 19.617 19.8039 19.71 19.7102L21.71 17.7102C21.8037 17.6172 21.8781 17.5066 21.9289 17.3848C21.9797 17.2629 22.0058 17.1322 22.0058 17.0002C22.0058 16.8682 21.9797 16.7375 21.9289 16.6156C21.8781 16.4937 21.8037 16.3831 21.71 16.2902L19.71 14.2902Z" fill="#141414"/>
</svg>
