<svg width="24" height="24" viewBox="0 0 24 24" fill="none" xmlns="http://www.w3.org/2000/svg">
<path d="M10.004 2.00001C11.3023 2.0014 12.5746 2.36381 13.6787 3.04676C14.7829 3.7297 15.6753 4.70625 16.2564 5.86727C16.8374 7.02829 17.0841 8.32801 16.9689 9.62118C16.8537 10.9143 16.3811 12.15 15.604 13.19L21.714 19.29C21.8077 19.383 21.8821 19.4936 21.9329 19.6154C21.9836 19.7373 22.0098 19.868 22.0098 20C22.0098 20.132 21.9836 20.2627 21.9329 20.3846C21.8821 20.5064 21.8077 20.617 21.714 20.71C21.621 20.8037 21.5104 20.8781 21.3885 20.9289C21.2667 20.9797 21.136 21.0058 21.004 21.0058C20.872 21.0058 20.7412 20.9797 20.6194 20.9289C20.4975 20.8781 20.3869 20.8037 20.294 20.71L14.194 14.6C13.3063 15.2658 12.2731 15.7109 11.1795 15.8989C10.086 16.0868 8.96341 16.0121 7.90441 15.6808C6.84542 15.3496 5.88033 14.7714 5.08874 13.9939C4.29715 13.2163 3.70174 12.2617 3.35161 11.2088C3.00148 10.156 2.90667 9.03491 3.07498 7.93816C3.2433 6.84142 3.66992 5.8004 4.31967 4.90095C4.96942 4.0015 5.82368 3.2694 6.812 2.76502C7.80032 2.26064 8.89438 1.99842 10.004 2.00001ZM10.004 14C10.9929 14 11.9596 13.7068 12.7818 13.1574C13.6041 12.6079 14.2449 11.8271 14.6234 10.9134C15.0018 9.99979 15.1008 8.99446 14.9079 8.02456C14.715 7.05465 14.2388 6.16374 13.5395 5.46447C12.8402 4.76521 11.9493 4.28901 10.9794 4.09608C10.0095 3.90315 9.00418 4.00217 8.09055 4.38061C7.17692 4.75905 6.39603 5.39991 5.84662 6.22216C5.29721 7.0444 5.00397 8.0111 5.00397 9.00001C5.00397 9.65662 5.1333 10.3068 5.38457 10.9134C5.63584 11.5201 6.00414 12.0712 6.46843 12.5355C6.93273 12.9998 7.48392 13.3681 8.09055 13.6194C8.69718 13.8707 9.34736 14 10.004 14Z" fill="#141414"/>
</svg>
