<svg width="24" height="24" viewBox="0 0 24 24" fill="none" xmlns="http://www.w3.org/2000/svg">
<path d="M16.6701 4.28998C17.3595 4.53949 17.9856 4.93756 18.5041 5.456C19.0225 5.97444 19.4206 6.60055 19.6701 7.28998C19.7383 7.48512 19.8653 7.65432 20.0337 7.7743C20.202 7.89429 20.4034 7.95915 20.6101 7.95998C20.7401 7.979 20.8727 7.97221 21.0001 7.93998C21.2469 7.84964 21.4483 7.66573 21.5606 7.42805C21.6729 7.19037 21.6871 6.91804 21.6001 6.66998C21.2564 5.68507 20.6948 4.79045 19.9572 4.05284C19.2196 3.31522 18.325 2.75364 17.3401 2.40998C17.2138 2.3529 17.0769 2.32272 16.9383 2.32134C16.7997 2.31996 16.6623 2.34741 16.5349 2.40196C16.4074 2.4565 16.2927 2.53695 16.198 2.63819C16.1034 2.73943 16.0307 2.85925 15.9848 2.99004C15.9389 3.12084 15.9207 3.25975 15.9313 3.39797C15.9419 3.53618 15.9812 3.67068 16.0466 3.79291C16.1119 3.91515 16.202 4.02246 16.3111 4.10803C16.4201 4.1936 16.5458 4.25556 16.6801 4.28998H16.6701ZM3.00009 7.93998C3.11224 7.9807 3.23078 8.00102 3.35009 7.99998C3.5568 7.99915 3.75819 7.93429 3.92652 7.8143C4.09486 7.69432 4.22187 7.52512 4.29009 7.32998C4.5396 6.64055 4.93768 6.01444 5.45612 5.496C5.97455 4.97757 6.60067 4.57949 7.29009 4.32998C7.42437 4.29556 7.55003 4.2336 7.65909 4.14803C7.76815 4.06246 7.85822 3.95515 7.9236 3.83291C7.98898 3.71068 8.02823 3.57618 8.03886 3.43797C8.04949 3.29975 8.03126 3.16084 7.98535 3.03004C7.93943 2.89925 7.86682 2.77943 7.77213 2.67819C7.67743 2.57695 7.56273 2.4965 7.43529 2.44196C7.30785 2.38741 7.17046 2.35996 7.03184 2.36134C6.89323 2.36272 6.75642 2.3929 6.63009 2.44998C5.65673 2.79456 4.77267 3.35231 4.04255 4.08243C3.31242 4.81256 2.75468 5.69662 2.41009 6.66998C2.32258 6.91676 2.33536 7.18802 2.44568 7.42549C2.556 7.66295 2.75506 7.84768 3.00009 7.93998ZM7.33009 19.71C6.64067 19.4605 6.01455 19.0624 5.49612 18.5439C4.97768 18.0255 4.5796 17.3994 4.33009 16.71C4.29118 16.5761 4.22472 16.4519 4.13497 16.3452C4.04522 16.2386 3.93416 16.1519 3.80892 16.0907C3.68369 16.0295 3.54704 15.9951 3.40775 15.9898C3.26846 15.9845 3.1296 16.0084 3.00009 16.06C2.75323 16.1503 2.55187 16.3342 2.43958 16.5719C2.32729 16.8096 2.3131 17.0819 2.40009 17.33C2.74375 18.3149 3.30533 19.2095 4.04295 19.9471C4.78056 20.6847 5.67518 21.2463 6.66009 21.59C6.76592 21.6284 6.87749 21.6487 6.99009 21.65C7.22432 21.6474 7.45022 21.5627 7.62837 21.4106C7.80653 21.2585 7.92564 21.0487 7.96492 20.8177C8.0042 20.5868 7.96117 20.3494 7.84332 20.147C7.72547 19.9445 7.5403 19.7899 7.32009 19.71H7.33009ZM18.0001 15V8.99998C18.0001 8.20433 17.684 7.44126 17.1214 6.87866C16.5588 6.31605 15.7957 5.99998 15.0001 5.99998H9.00009C8.20444 5.99998 7.44138 6.31605 6.87877 6.87866C6.31616 7.44126 6.00009 8.20433 6.00009 8.99998V15C6.00009 15.7956 6.31616 16.5587 6.87877 17.1213C7.44138 17.6839 8.20444 18 9.00009 18H15.0001C15.7957 18 16.5588 17.6839 17.1214 17.1213C17.684 16.5587 18.0001 15.7956 18.0001 15ZM12.0001 14C11.6045 14 11.2178 13.8827 10.8889 13.6629C10.56 13.4432 10.3037 13.1308 10.1523 12.7653C10.001 12.3999 9.96135 11.9978 10.0385 11.6098C10.1157 11.2218 10.3062 10.8655 10.5859 10.5858C10.8656 10.3061 11.2219 10.1156 11.6099 10.0384C11.9979 9.96123 12.4 10.0008 12.7655 10.1522C13.1309 10.3036 13.4433 10.5599 13.663 10.8888C13.8828 11.2177 14.0001 11.6044 14.0001 12C14.0001 12.5304 13.7894 13.0391 13.4143 13.4142C13.0392 13.7893 12.5305 14 12.0001 14ZM21.0001 16.06C20.876 16.0156 20.7444 15.9962 20.6128 16.0029C20.4812 16.0096 20.3522 16.0422 20.2333 16.0989C20.1143 16.1556 20.0078 16.2352 19.9197 16.3332C19.8316 16.4312 19.7638 16.5457 19.7201 16.67C19.4706 17.3594 19.0725 17.9855 18.5541 18.5039C18.0356 19.0224 17.4095 19.4205 16.7201 19.67C16.4611 19.7112 16.2287 19.8525 16.0729 20.0634C15.9171 20.2743 15.8504 20.5379 15.8871 20.7976C15.9238 21.0572 16.061 21.292 16.2692 21.4515C16.4774 21.6109 16.7399 21.6822 17.0001 21.65C17.1127 21.6487 17.2242 21.6284 17.3301 21.59C18.315 21.2463 19.2096 20.6847 19.9472 19.9471C20.6848 19.2095 21.2464 18.3149 21.5901 17.33C21.6776 17.0832 21.6648 16.8119 21.5545 16.5745C21.4442 16.337 21.2451 16.1523 21.0001 16.06Z" fill="#141414"/>
</svg>
