<svg width="24" height="24" viewBox="0 0 24 24" fill="none" xmlns="http://www.w3.org/2000/svg">
<path d="M18 5H15V4C15 3.45 14.55 3 14 3H10C9.45 3 9 3.45 9 4V5H6C3.79 5 2 6.79 2 9V10C2 10.55 2.45 11 3 11H6V20C6 20.55 6.45 21 7 21H17C17.55 21 18 20.55 18 20V11H21C21.55 11 22 10.55 22 10V9C22 6.79 20.21 5 18 5ZM12.83 17.55C12.64 17.84 12.32 18 12 18C11.81 18 11.62 17.95 11.45 17.83C10.99 17.52 10.87 16.9 11.17 16.44C11.85 15.43 11.59 14.65 11.07 13.37C10.54 12.04 9.87 10.38 11.17 8.44C11.48 7.98 12.1 7.86 12.56 8.16C13.02 8.47 13.14 9.09 12.84 9.55C12.16 10.56 12.42 11.34 12.94 12.62C13.47 13.95 14.14 15.61 12.84 17.55H12.83Z" fill="#141414"/>
</svg>
