<svg width="24" height="24" viewBox="0 0 24 24" fill="none" xmlns="http://www.w3.org/2000/svg">
<path d="M18.12 2.88019C17.5579 2.31742 16.7954 2.00089 16 2.00019H11C10.5435 1.99502 10.0918 2.09412 9.67932 2.28995C9.26688 2.48577 8.90457 2.77315 8.62001 3.13019L5.62001 6.83019C5.20873 7.36596 4.99027 8.02484 5.00001 8.70019V19.0002C5.00001 19.7958 5.31608 20.5589 5.87869 21.1215C6.4413 21.6841 7.20436 22.0002 8.00001 22.0002H16C16.7957 22.0002 17.5587 21.6841 18.1213 21.1215C18.6839 20.5589 19 19.7958 19 19.0002V5.00019C18.9993 4.20481 18.6828 3.44226 18.12 2.88019ZM13.5 16.0002C13.5 16.2654 13.3946 16.5198 13.2071 16.7073C13.0196 16.8948 12.7652 17.0002 12.5 17.0002C12.2348 17.0002 11.9804 16.8948 11.7929 16.7073C11.6054 16.5198 11.5 16.2654 11.5 16.0002V11.0002L10.62 11.7002C10.4118 11.8646 10.1468 11.9396 9.88333 11.9087C9.61985 11.8777 9.37944 11.7434 9.21501 11.5352C9.05057 11.327 8.97558 11.062 9.00652 10.7985C9.03746 10.535 9.17181 10.2946 9.38001 10.1302L11.88 8.13019C12.033 8.00801 12.2186 7.93345 12.4136 7.91577C12.6086 7.89808 12.8045 7.93803 12.9771 8.03068C13.1496 8.12333 13.2911 8.26459 13.3841 8.43694C13.477 8.60929 13.5173 8.80514 13.5 9.00019V16.0002Z" fill="#141414"/>
</svg>
