<svg width="24" height="24" viewBox="0 0 24 24" fill="none" xmlns="http://www.w3.org/2000/svg">
<path d="M4.10998 13.24C4.04251 12.83 4.00574 12.4155 3.99998 12C4.00529 11.5845 4.04206 11.17 4.10998 10.76C4.13033 10.6287 4.12462 10.4946 4.09317 10.3655C4.06172 10.2364 4.00515 10.1147 3.92668 10.0075C3.84822 9.90024 3.7494 9.8095 3.63586 9.74044C3.52232 9.67138 3.3963 9.62535 3.26498 9.605C3.13365 9.58464 2.99961 9.59035 2.87049 9.6218C2.74138 9.65325 2.61972 9.70983 2.51247 9.78829C2.40522 9.86676 2.31447 9.96558 2.24541 10.0791C2.17635 10.1927 2.13033 10.3187 2.10998 10.45C1.93673 11.4761 1.93673 12.5239 2.10998 13.55C2.14614 13.7885 2.26726 14.0058 2.45102 14.162C2.63479 14.3182 2.86881 14.4027 3.10998 14.4H3.25998C3.39293 14.3818 3.52085 14.337 3.63614 14.2684C3.75143 14.1997 3.85171 14.1085 3.93103 14.0003C4.01034 13.8921 4.06706 13.769 4.0978 13.6383C4.12854 13.5077 4.13269 13.3723 4.10998 13.24ZM5.41998 16.55C5.3519 16.4288 5.25929 16.3231 5.14806 16.2396C5.03683 16.1562 4.90942 16.0969 4.77398 16.0655C4.63854 16.0341 4.49804 16.0313 4.36144 16.0572C4.22485 16.0832 4.09516 16.1373 3.98067 16.2162C3.86618 16.2951 3.7694 16.397 3.6965 16.5154C3.62361 16.6338 3.57621 16.7661 3.55732 16.9038C3.53843 17.0416 3.54848 17.1817 3.58682 17.3154C3.62516 17.449 3.69094 17.5732 3.77998 17.68C4.38921 18.5687 5.13901 19.3522 5.99998 20C6.17307 20.1298 6.38361 20.2 6.59998 20.2C6.80819 20.1994 7.011 20.1337 7.18013 20.0123C7.34926 19.8909 7.47626 19.7197 7.54342 19.5226C7.61058 19.3255 7.61455 19.1124 7.55478 18.9129C7.495 18.7135 7.37446 18.5377 7.20998 18.41C6.51725 17.8902 5.91284 17.2621 5.41998 16.55ZM12 2C11.3284 2.0013 10.6585 2.06829 9.99998 2.2C9.73476 2.25304 9.50148 2.40927 9.35145 2.63431C9.20142 2.85936 9.14693 3.13478 9.19998 3.4C9.25302 3.66522 9.40925 3.8985 9.63429 4.04853C9.85933 4.19856 10.1348 4.25304 10.4 4.2C10.925 4.07859 11.4612 4.01157 12 4C14.1217 4 16.1565 4.84285 17.6568 6.34315C19.1571 7.84344 20 9.87827 20 12C20 14.1217 19.1571 16.1566 17.6568 17.6569C16.1565 19.1571 14.1217 20 12 20C11.4592 20.0023 10.9197 19.9486 10.39 19.84C10.2587 19.8137 10.1234 19.8136 9.99207 19.8396C9.86069 19.8656 9.73572 19.9172 9.62429 19.9915C9.51286 20.0658 9.41715 20.1613 9.34263 20.2725C9.26811 20.3838 9.21624 20.5087 9.18998 20.64C9.16371 20.7713 9.16357 20.9065 9.18956 21.0379C9.21555 21.1693 9.26716 21.2943 9.34145 21.4057C9.41573 21.5171 9.51124 21.6128 9.62252 21.6873C9.73379 21.7619 9.85865 21.8137 9.98998 21.84C10.6485 21.9717 11.3184 22.0387 11.99 22.04C14.6474 22.0413 17.1966 20.9869 19.0767 19.1087C20.9567 17.2306 22.0137 14.6825 22.015 12.025C22.0163 9.36753 20.9619 6.81838 19.0837 4.93833C17.2055 3.05827 14.6574 2.00133 12 2ZM5.99998 4.05C5.14301 4.6827 4.39343 5.44916 3.77998 6.32C3.6261 6.53393 3.56288 6.79996 3.60408 7.06025C3.64528 7.32054 3.78755 7.55404 3.99998 7.71C4.21879 7.85983 4.48815 7.91661 4.74882 7.86785C5.00949 7.81909 5.24012 7.66879 5.38998 7.45C5.88095 6.7572 6.47832 6.14633 7.15998 5.64C7.29167 5.57612 7.40773 5.4841 7.49997 5.37045C7.59221 5.2568 7.65838 5.12429 7.6938 4.98227C7.72922 4.84025 7.73304 4.69219 7.70497 4.54853C7.67691 4.40488 7.61765 4.26914 7.53138 4.15089C7.44512 4.03265 7.33394 3.93478 7.20571 3.8642C7.07748 3.79362 6.93532 3.75206 6.78927 3.74243C6.64321 3.73281 6.49683 3.75537 6.36045 3.80851C6.22406 3.86166 6.10101 3.94409 5.99998 4.05ZM12 13.41L14.29 15.71C14.3829 15.8037 14.4935 15.8781 14.6154 15.9289C14.7373 15.9797 14.868 16.0058 15 16.0058C15.132 16.0058 15.2627 15.9797 15.3846 15.9289C15.5064 15.8781 15.617 15.8037 15.71 15.71C15.8037 15.617 15.8781 15.5064 15.9289 15.3846C15.9796 15.2627 16.0058 15.132 16.0058 15C16.0058 14.868 15.9796 14.7373 15.9289 14.6154C15.8781 14.4936 15.8037 14.383 15.71 14.29L13.41 12L15.71 9.71C15.8983 9.5217 16.0041 9.2663 16.0041 9C16.0041 8.7337 15.8983 8.4783 15.71 8.29C15.5217 8.1017 15.2663 7.99591 15 7.99591C14.7337 7.99591 14.4783 8.1017 14.29 8.29L12 10.59L9.70998 8.29C9.52167 8.1017 9.26628 7.99591 8.99998 7.99591C8.73367 7.99591 8.47828 8.1017 8.28998 8.29C8.10167 8.4783 7.99588 8.7337 7.99588 9C7.99588 9.2663 8.10167 9.5217 8.28998 9.71L10.59 12L8.28998 14.29C8.19625 14.383 8.12185 14.4936 8.07108 14.6154C8.02032 14.7373 7.99418 14.868 7.99418 15C7.99418 15.132 8.02032 15.2627 8.07108 15.3846C8.12185 15.5064 8.19625 15.617 8.28998 15.71C8.38294 15.8037 8.49354 15.8781 8.6154 15.9289C8.73726 15.9797 8.86796 16.0058 8.99998 16.0058C9.13199 16.0058 9.26269 15.9797 9.38455 15.9289C9.50641 15.8781 9.61701 15.8037 9.70998 15.71L12 13.41Z" fill="#141414"/>
</svg>
