<svg width="24" height="24" viewBox="0 0 24 24" fill="none" xmlns="http://www.w3.org/2000/svg">
<path d="M20.4099 3.59C20.0366 3.21441 19.5295 3.00223 18.9999 3H4.9999C4.60557 3.00166 4.22052 3.11985 3.89316 3.33972C3.5658 3.5596 3.31075 3.87134 3.16007 4.23576C3.00939 4.60018 2.9698 5.00101 3.04628 5.38786C3.12275 5.77472 3.31189 6.13033 3.5899 6.41C3.96325 6.78559 4.47033 6.99777 4.9999 7H18.9999C19.3942 6.99834 19.7793 6.88015 20.1066 6.66028C20.434 6.4404 20.6891 6.12866 20.8397 5.76424C20.9904 5.39982 21.03 4.99899 20.9535 4.61214C20.8771 4.22528 20.6879 3.86967 20.4099 3.59ZM17.9999 9H5.9999C5.73469 9 5.48033 9.10536 5.2928 9.29289C5.10526 9.48043 4.9999 9.73478 4.9999 10V14C4.9999 14.9193 5.18096 15.8295 5.53275 16.6788C5.88453 17.5281 6.40015 18.2997 7.05016 18.9497C7.70017 19.5998 8.47184 20.1154 9.32112 20.4672C10.1704 20.8189 11.0807 21 11.9999 21C12.9192 21 13.8294 20.8189 14.6787 20.4672C15.528 20.1154 16.2996 19.5998 16.9497 18.9497C17.5997 18.2997 18.1153 17.5281 18.4671 16.6788C18.8188 15.8295 18.9999 14.9193 18.9999 14V10C18.9999 9.73478 18.8945 9.48043 18.707 9.29289C18.5195 9.10536 18.2651 9 17.9999 9ZM14.1199 17.12C13.5578 17.6828 12.7953 17.9993 11.9999 18C11.405 17.9993 10.8237 17.8218 10.3299 17.49C9.83935 17.1613 9.45671 16.6952 9.2299 16.15C9.0027 15.6018 8.94319 14.9985 9.05891 14.4164C9.17463 13.8344 9.46038 13.2997 9.88 12.8801C10.2996 12.4605 10.8343 12.1747 11.4163 12.059C11.9984 11.9433 12.6017 12.0028 13.1499 12.23C13.6951 12.4568 14.1612 12.8394 14.4899 13.33C14.8217 13.8238 14.9993 14.4051 14.9999 15C14.9992 15.7954 14.6827 16.5579 14.1199 17.12ZM11.9999 14C11.8021 14 11.6088 14.0586 11.4443 14.1685C11.2799 14.2784 11.1517 14.4346 11.076 14.6173C11.0003 14.8 10.9805 15.0011 11.0191 15.1951C11.0577 15.3891 11.1529 15.5673 11.2928 15.7071C11.4327 15.847 11.6108 15.9422 11.8048 15.9808C11.9988 16.0194 12.1999 15.9996 12.3826 15.9239C12.5653 15.8482 12.7215 15.72 12.8314 15.5556C12.9413 15.3911 12.9999 15.1978 12.9999 15C12.9999 14.7348 12.8945 14.4804 12.707 14.2929C12.5195 14.1054 12.2651 14 11.9999 14Z" fill="#141414"/>
</svg>
