<svg width="24" height="24" viewBox="0 0 24 24" fill="none" xmlns="http://www.w3.org/2000/svg">
<path d="M12 2C10.0222 2 8.08879 2.58649 6.4443 3.6853C4.79981 4.78412 3.51809 6.3459 2.76121 8.17317C2.00433 10.0004 1.8063 12.0111 2.19215 13.9509C2.578 15.8907 3.53041 17.6725 4.92894 19.0711C6.32746 20.4696 8.10929 21.422 10.0491 21.8079C11.9889 22.1937 13.9996 21.9957 15.8268 21.2388C17.6541 20.4819 19.2159 19.2002 20.3147 17.5557C21.4135 15.9112 22 13.9778 22 12C22 10.6868 21.7413 9.38642 21.2388 8.17317C20.7363 6.95991 19.9997 5.85752 19.0711 4.92893C18.1425 4.00035 17.0401 3.26375 15.8268 2.7612C14.6136 2.25866 13.3132 2 12 2ZM7.75 14H6.25C6.1174 14 5.99022 13.9473 5.89645 13.8536C5.80268 13.7598 5.75 13.6326 5.75 13.5C5.75 13.3674 5.80268 13.2402 5.89645 13.1464C5.99022 13.0527 6.1174 13 6.25 13H7.75C7.81631 13 7.8799 12.9737 7.92678 12.9268C7.97367 12.8799 8 12.8163 8 12.75C8 12.6837 7.97367 12.6201 7.92678 12.5732C7.8799 12.5263 7.81631 12.5 7.75 12.5H6.75C6.41848 12.5 6.10054 12.3683 5.86612 12.1339C5.6317 11.8995 5.5 11.5815 5.5 11.25C5.5 10.9185 5.6317 10.6005 5.86612 10.3661C6.10054 10.1317 6.41848 10 6.75 10H8.25C8.38261 10 8.50979 10.0527 8.60356 10.1464C8.69733 10.2402 8.75 10.3674 8.75 10.5C8.75 10.6326 8.69733 10.7598 8.60356 10.8536C8.50979 10.9473 8.38261 11 8.25 11H6.75C6.6837 11 6.62011 11.0263 6.57323 11.0732C6.52634 11.1201 6.5 11.1837 6.5 11.25C6.5 11.3163 6.52634 11.3799 6.57323 11.4268C6.62011 11.4737 6.6837 11.5 6.75 11.5H7.75C8.08152 11.5 8.39947 11.6317 8.63389 11.8661C8.86831 12.1005 9 12.4185 9 12.75C9 13.0815 8.86831 13.3995 8.63389 13.6339C8.39947 13.8683 8.08152 14 7.75 14ZM12 14C11.6044 14 11.2178 13.8827 10.8889 13.6629C10.56 13.4432 10.3036 13.1308 10.1522 12.7654C10.0009 12.3999 9.96126 11.9978 10.0384 11.6098C10.1156 11.2219 10.3061 10.8655 10.5858 10.5858C10.8655 10.3061 11.2219 10.1156 11.6098 10.0384C11.9978 9.96126 12.3999 10.0009 12.7654 10.1522C13.1308 10.3036 13.4432 10.56 13.6629 10.8889C13.8827 11.2178 14 11.6044 14 12C14 12.5304 13.7893 13.0391 13.4142 13.4142C13.0391 13.7893 12.5304 14 12 14ZM17.25 14H15.75C15.6174 14 15.4902 13.9473 15.3965 13.8536C15.3027 13.7598 15.25 13.6326 15.25 13.5C15.25 13.3674 15.3027 13.2402 15.3965 13.1464C15.4902 13.0527 15.6174 13 15.75 13H17.25C17.3163 13 17.3799 12.9737 17.4268 12.9268C17.4737 12.8799 17.5 12.8163 17.5 12.75C17.5 12.6837 17.4737 12.6201 17.4268 12.5732C17.3799 12.5263 17.3163 12.5 17.25 12.5H16.25C15.9185 12.5 15.6005 12.3683 15.3661 12.1339C15.1317 11.8995 15 11.5815 15 11.25C15 10.9185 15.1317 10.6005 15.3661 10.3661C15.6005 10.1317 15.9185 10 16.25 10H17.75C17.8826 10 18.0098 10.0527 18.1036 10.1464C18.1973 10.2402 18.25 10.3674 18.25 10.5C18.25 10.6326 18.1973 10.7598 18.1036 10.8536C18.0098 10.9473 17.8826 11 17.75 11H16.25C16.1837 11 16.1201 11.0263 16.0732 11.0732C16.0263 11.1201 16 11.1837 16 11.25C16 11.3163 16.0263 11.3799 16.0732 11.4268C16.1201 11.4737 16.1837 11.5 16.25 11.5H17.25C17.5815 11.5 17.8995 11.6317 18.1339 11.8661C18.3683 12.1005 18.5 12.4185 18.5 12.75C18.5 13.0815 18.3683 13.3995 18.1339 13.6339C17.8995 13.8683 17.5815 14 17.25 14ZM12 11C11.8022 11 11.6089 11.0586 11.4444 11.1685C11.28 11.2784 11.1518 11.4346 11.0761 11.6173C11.0004 11.8 10.9806 12.0011 11.0192 12.1951C11.0578 12.3891 11.153 12.5673 11.2929 12.7071C11.4328 12.847 11.6109 12.9422 11.8049 12.9808C11.9989 13.0194 12.2 12.9996 12.3827 12.9239C12.5654 12.8482 12.7216 12.72 12.8315 12.5556C12.9414 12.3911 13 12.1978 13 12C13 11.7348 12.8946 11.4804 12.7071 11.2929C12.5196 11.1054 12.2652 11 12 11Z" fill="#141414"/>
</svg>
