<svg width="24" height="24" viewBox="0 0 24 24" fill="none" xmlns="http://www.w3.org/2000/svg">
<path d="M12 2C10.0222 2 8.08879 2.58649 6.4443 3.6853C4.79981 4.78412 3.51809 6.3459 2.76121 8.17317C2.00433 10.0004 1.8063 12.0111 2.19215 13.9509C2.578 15.8907 3.53041 17.6725 4.92894 19.0711C6.32746 20.4696 8.10929 21.422 10.0491 21.8079C11.9889 22.1937 13.9996 21.9957 15.8268 21.2388C17.6541 20.4819 19.2159 19.2002 20.3147 17.5557C21.4135 15.9112 22 13.9778 22 12C22 10.6868 21.7413 9.38642 21.2388 8.17317C20.7363 6.95991 19.9997 5.85752 19.0711 4.92893C18.1425 4.00035 17.0401 3.26375 15.8268 2.7612C14.6136 2.25866 13.3132 2 12 2ZM15.5 8C15.7967 8 16.0867 8.08797 16.3334 8.2528C16.58 8.41762 16.7723 8.65189 16.8858 8.92597C16.9994 9.20006 17.0291 9.50166 16.9712 9.79264C16.9133 10.0836 16.7704 10.3509 16.5607 10.5607C16.3509 10.7704 16.0836 10.9133 15.7926 10.9712C15.5017 11.0291 15.2001 10.9994 14.926 10.8858C14.6519 10.7723 14.4176 10.58 14.2528 10.3334C14.088 10.0867 14 9.79667 14 9.5C14 9.10218 14.158 8.72064 14.4393 8.43934C14.7206 8.15804 15.1022 8 15.5 8ZM8.5 8C8.79668 8 9.08669 8.08797 9.33336 8.2528C9.58003 8.41762 9.77229 8.65189 9.88582 8.92597C9.99936 9.20006 10.0291 9.50166 9.97118 9.79264C9.9133 10.0836 9.77044 10.3509 9.56066 10.5607C9.35089 10.7704 9.08361 10.9133 8.79264 10.9712C8.50167 11.0291 8.20007 10.9994 7.92598 10.8858C7.65189 10.7723 7.41762 10.58 7.2528 10.3334C7.08798 10.0867 7 9.79667 7 9.5C7 9.10218 7.15804 8.72064 7.43934 8.43934C7.72065 8.15804 8.10218 8 8.5 8ZM16.76 16.85C16.6038 16.9468 16.4238 16.9987 16.24 17C16.0701 17.0003 15.9028 16.9574 15.7541 16.8751C15.6054 16.7929 15.4801 16.6741 15.39 16.53C15.0302 15.9556 14.5304 15.482 13.9374 15.1537C13.3445 14.8254 12.6778 14.6532 12 14.6532C11.3222 14.6532 10.6555 14.8254 10.0626 15.1537C9.4696 15.482 8.96977 15.9556 8.61 16.53C8.54551 16.6512 8.45674 16.7579 8.34922 16.8433C8.2417 16.9287 8.11774 16.9911 7.98506 17.0265C7.85238 17.0619 7.71383 17.0696 7.57804 17.0492C7.44225 17.0287 7.31214 16.9805 7.1958 16.9075C7.07947 16.8345 6.97941 16.7384 6.90186 16.6251C6.82431 16.5117 6.77094 16.3836 6.74506 16.2488C6.71919 16.1139 6.72137 15.9752 6.75147 15.8412C6.78156 15.7072 6.83894 15.5808 6.92 15.47C7.46016 14.6106 8.20952 13.9022 9.09798 13.4112C9.98643 12.9203 10.9849 12.6627 12 12.6627C13.0151 12.6627 14.0136 12.9203 14.902 13.4112C15.7905 13.9022 16.5399 14.6106 17.08 15.47C17.1498 15.5816 17.1969 15.7058 17.2187 15.8356C17.2404 15.9654 17.2362 16.0982 17.2065 16.2264C17.1768 16.3546 17.122 16.4757 17.0454 16.5827C16.9688 16.6897 16.8718 16.7806 16.76 16.85Z" fill="#141414"/>
</svg>
