<svg width="24" height="24" viewBox="0 0 24 24" fill="none" xmlns="http://www.w3.org/2000/svg">
<path d="M8.99994 12.0002C9.13155 12.0009 9.26201 11.9757 9.38385 11.926C9.50568 11.8762 9.6165 11.8029 9.70994 11.7102C9.80367 11.6172 9.87806 11.5066 9.92883 11.3848C9.9796 11.2629 10.0057 11.1322 10.0057 11.0002C10.0057 10.8682 9.9796 10.7375 9.92883 10.6156C9.87806 10.4937 9.80367 10.3831 9.70994 10.2902L7.40994 8.00019H17.9999C18.2652 8.00019 18.5195 7.89483 18.707 7.70729C18.8946 7.51976 18.9999 7.2654 18.9999 7.00019C18.9999 6.73497 18.8946 6.48062 18.707 6.29308C18.5195 6.10554 18.2652 6.00019 17.9999 6.00019H7.40994L9.70994 3.71019C9.80318 3.61695 9.87714 3.50626 9.9276 3.38443C9.97806 3.26261 10.004 3.13204 10.004 3.00019C10.004 2.86833 9.97806 2.73776 9.9276 2.61594C9.87714 2.49411 9.80318 2.38342 9.70994 2.29019C9.6167 2.19695 9.50601 2.12299 9.38419 2.07253C9.26237 2.02207 9.1318 1.99609 8.99994 1.99609C8.86808 1.99609 8.73751 2.02207 8.61569 2.07253C8.49387 2.12299 8.38318 2.19695 8.28994 2.29019L4.28994 6.29019C4.19621 6.38315 4.12182 6.49375 4.07105 6.61561C4.02028 6.73747 3.99414 6.86817 3.99414 7.00019C3.99414 7.1322 4.02028 7.2629 4.07105 7.38476C4.12182 7.50662 4.19621 7.61722 4.28994 7.71019L8.28994 11.7102C8.38338 11.8029 8.49419 11.8762 8.61603 11.926C8.73787 11.9757 8.86833 12.0009 8.99994 12.0002ZM19.7099 16.2902L15.7099 12.2902C15.617 12.1965 15.5064 12.1221 15.3845 12.0713C15.2627 12.0205 15.132 11.9944 14.9999 11.9944C14.8679 11.9944 14.7372 12.0205 14.6154 12.0713C14.4935 12.1221 14.3829 12.1965 14.2899 12.2902C14.1962 12.3831 14.1218 12.4937 14.071 12.6156C14.0203 12.7375 13.9941 12.8682 13.9941 13.0002C13.9941 13.1322 14.0203 13.2629 14.071 13.3848C14.1218 13.5066 14.1962 13.6172 14.2899 13.7102L16.5899 16.0002H5.99994C5.73472 16.0002 5.48037 16.1055 5.29283 16.2931C5.1053 16.4806 4.99994 16.735 4.99994 17.0002C4.99994 17.2654 5.1053 17.5198 5.29283 17.7073C5.48037 17.8948 5.73472 18.0002 5.99994 18.0002H16.5899L14.2899 20.2902C14.1016 20.4785 13.9958 20.7339 13.9958 21.0002C13.9958 21.2665 14.1016 21.5219 14.2899 21.7102C14.4782 21.8985 14.7336 22.0043 14.9999 22.0043C15.2662 22.0043 15.5216 21.8985 15.7099 21.7102L19.7099 17.7102C19.8037 17.6172 19.8781 17.5066 19.9288 17.3848C19.9796 17.2629 20.0057 17.1322 20.0057 17.0002C20.0057 16.8682 19.9796 16.7375 19.9288 16.6156C19.8781 16.4937 19.8037 16.3831 19.7099 16.2902Z" fill="#141414"/>
</svg>
