<svg width="24" height="24" viewBox="0 0 24 24" fill="none" xmlns="http://www.w3.org/2000/svg">
<path d="M4.59998 7.88C4.7612 7.87973 4.91996 7.84049 5.06274 7.76562C5.20552 7.69075 5.32808 7.58247 5.41998 7.45C5.90187 6.75948 6.48899 6.14874 7.15998 5.64C7.29167 5.57612 7.40773 5.4841 7.49997 5.37045C7.59221 5.2568 7.65838 5.12429 7.6938 4.98227C7.72922 4.84025 7.73304 4.69219 7.70497 4.54853C7.67691 4.40488 7.61765 4.26914 7.53138 4.15089C7.44512 4.03265 7.33394 3.93478 7.20571 3.8642C7.07748 3.79362 6.93532 3.75206 6.78927 3.74243C6.64321 3.73281 6.49683 3.75537 6.36045 3.80851C6.22406 3.86166 6.10101 3.94409 5.99998 4.05C5.14301 4.6827 4.39343 5.44916 3.77998 6.32C3.6261 6.53393 3.56288 6.79996 3.60408 7.06025C3.64528 7.32054 3.78755 7.55404 3.99998 7.71C4.17674 7.82917 4.38697 7.88874 4.59998 7.88ZM4.10998 13.24C4.04251 12.83 4.00574 12.4155 3.99998 12C4.00529 11.5845 4.04206 11.17 4.10998 10.76C4.13033 10.6287 4.12462 10.4946 4.09317 10.3655C4.06172 10.2364 4.00515 10.1147 3.92668 10.0075C3.84822 9.90024 3.7494 9.8095 3.63586 9.74044C3.52232 9.67138 3.3963 9.62535 3.26498 9.605C3.13365 9.58464 2.99961 9.59035 2.87049 9.6218C2.74138 9.65325 2.61972 9.70983 2.51247 9.78829C2.40522 9.86676 2.31447 9.96558 2.24541 10.0791C2.17635 10.1927 2.13033 10.3187 2.10998 10.45C1.93673 11.4761 1.93673 12.5239 2.10998 13.55C2.14614 13.7885 2.26726 14.0058 2.45102 14.162C2.63479 14.3182 2.86881 14.4027 3.10998 14.4H3.25998C3.39293 14.3818 3.52085 14.337 3.63614 14.2684C3.75143 14.1997 3.85171 14.1085 3.93103 14.0003C4.01034 13.8921 4.06706 13.769 4.0978 13.6383C4.12854 13.5077 4.13269 13.3723 4.10998 13.24ZM12 2C11.3284 2.0013 10.6585 2.06829 9.99998 2.2C9.73476 2.25304 9.50148 2.40927 9.35145 2.63431C9.20142 2.85936 9.14693 3.13478 9.19998 3.4C9.25302 3.66522 9.40925 3.8985 9.63429 4.04853C9.85933 4.19856 10.1348 4.25304 10.4 4.2C10.925 4.07859 11.4612 4.01157 12 4C14.1217 4 16.1565 4.84285 17.6568 6.34315C19.1571 7.84344 20 9.87827 20 12C20 14.1217 19.1571 16.1566 17.6568 17.6569C16.1565 19.1571 14.1217 20 12 20C11.4592 20.0023 10.9197 19.9486 10.39 19.84C10.2587 19.8137 10.1234 19.8136 9.99207 19.8396C9.86069 19.8656 9.73572 19.9172 9.62429 19.9915C9.51286 20.0658 9.41715 20.1613 9.34263 20.2725C9.26811 20.3838 9.21624 20.5087 9.18998 20.64C9.16371 20.7713 9.16357 20.9065 9.18956 21.0379C9.21555 21.1693 9.26716 21.2943 9.34145 21.4057C9.41573 21.5171 9.51124 21.6128 9.62252 21.6873C9.73379 21.7619 9.85865 21.8137 9.98998 21.84C10.6485 21.9717 11.3184 22.0387 11.99 22.04C14.6474 22.0413 17.1966 20.9869 19.0767 19.1087C20.9567 17.2306 22.0137 14.6825 22.015 12.025C22.0163 9.36753 20.9619 6.81838 19.0837 4.93833C17.2055 3.05827 14.6574 2.00133 12 2ZM5.41998 16.55C5.3519 16.4288 5.25929 16.3231 5.14806 16.2396C5.03683 16.1562 4.90942 16.0969 4.77398 16.0655C4.63854 16.0341 4.49804 16.0313 4.36144 16.0572C4.22485 16.0832 4.09516 16.1373 3.98067 16.2162C3.86618 16.2951 3.7694 16.397 3.6965 16.5154C3.62361 16.6338 3.57621 16.7661 3.55732 16.9038C3.53843 17.0416 3.54848 17.1817 3.58682 17.3154C3.62516 17.449 3.69094 17.5732 3.77998 17.68C4.38921 18.5687 5.13901 19.3522 5.99998 20C6.17307 20.1298 6.38361 20.2 6.59998 20.2C6.80819 20.1994 7.011 20.1337 7.18013 20.0123C7.34926 19.8909 7.47626 19.7197 7.54342 19.5226C7.61058 19.3255 7.61455 19.1124 7.55478 18.9129C7.495 18.7135 7.37446 18.5377 7.20998 18.41C6.51725 17.8902 5.91284 17.2621 5.41998 16.55ZM6.78998 11.29C6.69625 11.383 6.62185 11.4936 6.57108 11.6154C6.52032 11.7373 6.49418 11.868 6.49418 12C6.49418 12.132 6.52032 12.2627 6.57108 12.3846C6.62185 12.5064 6.69625 12.617 6.78998 12.71L9.78998 15.71C9.88294 15.8037 9.99354 15.8781 10.1154 15.9289C10.2373 15.9797 10.368 16.0058 10.5 16.0058C10.632 16.0058 10.7627 15.9797 10.8846 15.9289C11.0064 15.8781 11.117 15.8037 11.21 15.71L17.21 9.71C17.3032 9.61676 17.3772 9.50607 17.4276 9.38425C17.4781 9.26243 17.5041 9.13186 17.5041 9C17.5041 8.86814 17.4781 8.73757 17.4276 8.61575C17.3772 8.49393 17.3032 8.38324 17.21 8.29C17.1167 8.19676 17.006 8.1228 16.8842 8.07234C16.7624 8.02188 16.6318 7.99591 16.5 7.99591C16.3681 7.99591 16.2375 8.02188 16.1157 8.07234C15.9939 8.1228 15.8832 8.19676 15.79 8.29L10.5 13.59L8.20998 11.29C8.11701 11.1963 8.00641 11.1219 7.88455 11.0711C7.76269 11.0203 7.63199 10.9942 7.49998 10.9942C7.36796 10.9942 7.23726 11.0203 7.1154 11.0711C6.99354 11.1219 6.88294 11.1963 6.78998 11.29Z" fill="#141414"/>
</svg>
