<svg width="24" height="24" viewBox="0 0 24 24" fill="none" xmlns="http://www.w3.org/2000/svg">
<path d="M19 8H15V6C15 5.20435 14.6839 4.44129 14.1213 3.87868C13.5587 3.31607 12.7956 3 12 3H6C5.20435 3 4.44129 3.31607 3.87868 3.87868C3.31607 4.44129 3 5.20435 3 6V18C3 18.7956 3.31607 19.5587 3.87868 20.1213C4.44129 20.6839 5.20435 21 6 21H12C12.7956 21 13.5587 20.6839 14.1213 20.1213C14.6839 19.5587 15 18.7956 15 18V12H19C19.5304 12 20.0391 11.7893 20.4142 11.4142C20.7893 11.0391 21 10.5304 21 10C21 9.46957 20.7893 8.96086 20.4142 8.58579C20.0391 8.21071 19.5304 8 19 8ZM9 12H12.44C11.9997 12.7626 11.3201 13.3586 10.5066 13.6955C9.69312 14.0325 8.79116 14.0916 7.94062 13.8637C7.09009 13.6358 6.33852 13.1336 5.80248 12.435C5.26645 11.7365 4.9759 10.8805 4.9759 10C4.9759 9.11946 5.26645 8.26353 5.80248 7.56495C6.33852 6.86638 7.09009 6.3642 7.94062 6.1363C8.79116 5.9084 9.69312 5.96751 10.5066 6.30448C11.3201 6.64145 11.9997 7.23743 12.44 8H9C8.46957 8 7.96086 8.21071 7.58579 8.58579C7.21071 8.96086 7 9.46957 7 10C7 10.5304 7.21071 11.0391 7.58579 11.4142C7.96086 11.7893 8.46957 12 9 12Z" fill="#141414"/>
</svg>
