<svg width="24" height="24" viewBox="0 0 24 24" fill="none" xmlns="http://www.w3.org/2000/svg">
<path d="M12 2C10.0222 2 8.08879 2.58649 6.4443 3.6853C4.79981 4.78412 3.51809 6.3459 2.76121 8.17317C2.00433 10.0004 1.8063 12.0111 2.19215 13.9509C2.578 15.8907 3.53041 17.6725 4.92894 19.0711C6.32746 20.4696 8.10929 21.422 10.0491 21.8079C11.9889 22.1937 13.9996 21.9957 15.8268 21.2388C17.6541 20.4819 19.2159 19.2002 20.3147 17.5557C21.4135 15.9112 22 13.9778 22 12C22 10.6868 21.7413 9.38642 21.2388 8.17317C20.7363 6.95991 19.9997 5.85752 19.0711 4.92893C18.1425 4.00035 17.0401 3.26375 15.8268 2.7612C14.6136 2.25866 13.3132 2 12 2ZM16 8.69L14.76 11.79C14.6448 12.0988 14.4516 12.3725 14.1993 12.5845C13.9469 12.7966 13.644 12.9397 13.32 13C13.1904 13.0148 13.0596 13.0148 12.93 13C12.6767 13.001 12.4258 12.951 12.1921 12.8531C11.9585 12.7552 11.7469 12.6113 11.57 12.43C11.343 12.2058 11.1755 11.9285 11.0826 11.6233C10.9897 11.3181 10.9743 10.9945 11.0378 10.6819C11.1014 10.3692 11.2418 10.0773 11.4465 9.83254C11.6511 9.58778 11.9135 9.39788 12.21 9.28L15.31 8C15.4009 7.96363 15.5004 7.95473 15.5963 7.97439C15.6922 7.99406 15.7802 8.04143 15.8494 8.11064C15.9186 8.17985 15.9659 8.26784 15.9856 8.36372C16.0053 8.4596 15.9964 8.55914 15.96 8.65L16 8.69Z" fill="#141414"/>
</svg>
