<svg width="24" height="24" viewBox="0 0 24 24" fill="none" xmlns="http://www.w3.org/2000/svg">
<path d="M19 10H15.44L20.44 5C20.6376 4.80904 20.7512 4.54742 20.7559 4.27268C20.7606 3.99794 20.656 3.73259 20.465 3.535C20.274 3.33741 20.0124 3.22378 19.7377 3.21909C19.4629 3.2144 19.1976 3.31904 19 3.51L3.51 19C3.41217 19.0978 3.33456 19.214 3.28161 19.3418C3.22866 19.4696 3.20141 19.6066 3.20141 19.745C3.20141 19.8834 3.22866 20.0204 3.28161 20.1482C3.33456 20.276 3.41217 20.3922 3.51 20.49C3.70759 20.6876 3.97557 20.7986 4.255 20.7986C4.39336 20.7986 4.53036 20.7713 4.65819 20.7184C4.78602 20.6654 4.90217 20.5878 5 20.49L9.44 16H19C19.7956 16 20.5587 15.6839 21.1213 15.1213C21.6839 14.5587 22 13.7956 22 13C22 12.2044 21.6839 11.4413 21.1213 10.8787C20.5587 10.3161 19.7956 10 19 10ZM3 9C3.26522 9 3.51957 8.89464 3.70711 8.70711C3.89464 8.51957 4 8.26522 4 8C4 7.73478 4.10536 7.48043 4.29289 7.29289C4.48043 7.10536 4.73478 7 5 7H8C8.79565 7 9.55871 6.68393 10.1213 6.12132C10.6839 5.55871 11 4.79565 11 4C11 3.73478 10.8946 3.48043 10.7071 3.29289C10.5196 3.10536 10.2652 3 10 3C9.73478 3 9.48043 3.10536 9.29289 3.29289C9.10536 3.48043 9 3.73478 9 4C9 4.26522 8.89464 4.51957 8.70711 4.70711C8.51957 4.89464 8.26522 5 8 5H5C4.20435 5 3.44129 5.31607 2.87868 5.87868C2.31607 6.44129 2 7.20435 2 8C2 8.26522 2.10536 8.51957 2.29289 8.70711C2.48043 8.89464 2.73478 9 3 9ZM6 13.76L9.76 10H6V13.76ZM4 10H2V16H4V10Z" fill="#141414"/>
</svg>
