<svg width="24" height="24" viewBox="0 0 24 24" fill="none" xmlns="http://www.w3.org/2000/svg">
<path d="M15.0001 4H9.00006C7.23973 4.01356 5.54913 4.68987 4.26515 5.89418C2.98118 7.09849 2.1981 8.74235 2.07196 10.4982C1.94582 12.2541 2.48588 13.993 3.58453 15.3685C4.68318 16.7439 6.25974 17.655 8.00006 17.92V20C8.00006 20.2786 8.07763 20.5516 8.22408 20.7886C8.37053 21.0256 8.58008 21.2171 8.82924 21.3416C9.07839 21.4662 9.35732 21.519 9.63476 21.4939C9.91221 21.4689 10.1772 21.3671 10.4001 21.2L14.6701 18H15.0001C16.8566 18 18.637 17.2625 19.9498 15.9497C21.2626 14.637 22.0001 12.8565 22.0001 11C22.0001 9.14348 21.2626 7.36301 19.9498 6.05025C18.637 4.7375 16.8566 4 15.0001 4ZM17.7101 9.71L15.4101 12H16.0001C16.2653 12 16.5196 12.1054 16.7072 12.2929C16.8947 12.4804 17.0001 12.7348 17.0001 13C17.0001 13.2652 16.8947 13.5196 16.7072 13.7071C16.5196 13.8946 16.2653 14 16.0001 14H13.0001C12.8694 13.9984 12.7403 13.9712 12.6201 13.92C12.3757 13.8185 12.1815 13.6243 12.0801 13.38C12.0288 13.2598 12.0016 13.1307 12.0001 13V10C12.0001 9.73478 12.1054 9.48043 12.2929 9.29289C12.4805 9.10536 12.7348 9 13.0001 9C13.2653 9 13.5196 9.10536 13.7072 9.29289C13.8947 9.48043 14.0001 9.73478 14.0001 10V10.59L16.2901 8.29C16.4784 8.1017 16.7338 7.99591 17.0001 7.99591C17.2664 7.99591 17.5218 8.1017 17.7101 8.29C17.8984 8.4783 18.0041 8.7337 18.0041 9C18.0041 9.2663 17.8984 9.5217 17.7101 9.71Z" fill="#141414"/>
</svg>
