<svg width="24" height="24" viewBox="0 0 24 24" fill="none" xmlns="http://www.w3.org/2000/svg">
<path d="M12 2C10.0222 2 8.08879 2.58649 6.4443 3.6853C4.79981 4.78412 3.51809 6.3459 2.76121 8.17317C2.00433 10.0004 1.8063 12.0111 2.19215 13.9509C2.578 15.8907 3.53041 17.6725 4.92894 19.0711C6.32746 20.4696 8.10929 21.422 10.0491 21.8079C11.9889 22.1937 13.9996 21.9957 15.8268 21.2388C17.6541 20.4819 19.2159 19.2002 20.3147 17.5557C21.4135 15.9112 22 13.9778 22 12C22 10.6868 21.7413 9.38642 21.2388 8.17317C20.7363 6.95991 19.9997 5.85752 19.0711 4.92893C18.1425 4.00035 17.0401 3.26375 15.8268 2.7612C14.6136 2.25866 13.3132 2 12 2ZM15.5 8C15.7967 8 16.0867 8.08797 16.3334 8.2528C16.58 8.41762 16.7723 8.65189 16.8858 8.92597C16.9994 9.20006 17.0291 9.50166 16.9712 9.79264C16.9133 10.0836 16.7704 10.3509 16.5607 10.5607C16.3509 10.7704 16.0836 10.9133 15.7926 10.9712C15.5017 11.0291 15.2001 10.9994 14.926 10.8858C14.6519 10.7723 14.4176 10.58 14.2528 10.3334C14.088 10.0867 14 9.79667 14 9.5C14 9.10218 14.158 8.72064 14.4393 8.43934C14.7206 8.15804 15.1022 8 15.5 8ZM8.5 8C8.79668 8 9.08669 8.08797 9.33336 8.2528C9.58003 8.41762 9.77229 8.65189 9.88582 8.92597C9.99936 9.20006 10.0291 9.50166 9.97118 9.79264C9.9133 10.0836 9.77044 10.3509 9.56066 10.5607C9.35089 10.7704 9.08361 10.9133 8.79264 10.9712C8.50167 11.0291 8.20007 10.9994 7.92598 10.8858C7.65189 10.7723 7.41762 10.58 7.2528 10.3334C7.08798 10.0867 7 9.79667 7 9.5C7 9.10218 7.15804 8.72064 7.43934 8.43934C7.72065 8.15804 8.10218 8 8.5 8ZM17.08 15.16C16.8575 15.521 16.596 15.8563 16.3 16.16C16.2835 16.1922 16.2634 16.2224 16.24 16.25C16.0231 16.4654 15.789 16.6627 15.54 16.84C14.9551 17.2736 14.2935 17.5925 13.59 17.78H13.43C13.2557 17.8272 13.0787 17.864 12.9 17.89H12.71C12.48 17.89 12.25 17.89 12.01 17.89C11.77 17.89 11.54 17.89 11.31 17.89H11.12C10.9413 17.864 10.7643 17.8272 10.59 17.78H10.43C9.72652 17.5925 9.06488 17.2736 8.48 16.84C8.23099 16.6627 7.99687 16.4654 7.78 16.25C7.75661 16.2224 7.73647 16.1922 7.72 16.16C7.42405 15.8563 7.16247 15.521 6.94 15.16C6.84582 15.0513 6.77619 14.9236 6.73586 14.7855C6.69553 14.6475 6.68546 14.5023 6.70633 14.36C6.7272 14.2177 6.77851 14.0816 6.85678 13.9609C6.93505 13.8403 7.03842 13.7379 7.15985 13.6608C7.28128 13.5838 7.4179 13.5338 7.56041 13.5143C7.70291 13.4949 7.84793 13.5064 7.98558 13.5481C8.12323 13.5897 8.25027 13.6606 8.35803 13.7559C8.46579 13.8511 8.55174 13.9685 8.61 14.1C8.79308 14.3923 9.01139 14.661 9.26 14.9C9.40853 15.0405 9.56915 15.1677 9.74 15.28L9.84 15.35C10.4903 15.7477 11.2377 15.9581 12 15.9581C12.7623 15.9581 13.5097 15.7477 14.16 15.35L14.26 15.28C14.4309 15.1677 14.5915 15.0405 14.74 14.9C14.9886 14.661 15.2069 14.3923 15.39 14.1C15.4545 13.9788 15.5433 13.8721 15.6508 13.7867C15.7583 13.7013 15.8823 13.6389 16.015 13.6035C16.1476 13.5681 16.2862 13.5604 16.422 13.5808C16.5578 13.6013 16.6879 13.6495 16.8042 13.7225C16.9205 13.7955 17.0206 13.8916 17.0981 14.0049C17.1757 14.1183 17.2291 14.2464 17.2549 14.3812C17.2808 14.5161 17.2786 14.6548 17.2485 14.7888C17.2184 14.9228 17.1611 15.0492 17.08 15.16Z" fill="#141414"/>
</svg>
