<svg width="24" height="24" viewBox="0 0 24 24" fill="none" xmlns="http://www.w3.org/2000/svg">
<path d="M12 2C10.0222 2 8.08879 2.58649 6.4443 3.6853C4.79981 4.78412 3.51809 6.3459 2.76121 8.17317C2.00433 10.0004 1.8063 12.0111 2.19215 13.9509C2.578 15.8907 3.53041 17.6725 4.92894 19.0711C6.32746 20.4696 8.10929 21.422 10.0491 21.8079C11.9889 22.1937 13.9996 21.9957 15.8268 21.2388C17.6541 20.4819 19.2159 19.2002 20.3147 17.5557C21.4135 15.9112 22 13.9778 22 12C22 10.6868 21.7413 9.38642 21.2388 8.17317C20.7363 6.95991 19.9997 5.85752 19.0711 4.92893C18.1425 4.00035 17.0401 3.26375 15.8268 2.7612C14.6136 2.25866 13.3132 2 12 2ZM4.61 9C5.21582 7.53882 6.24121 6.29003 7.55657 5.41146C8.87193 4.53289 10.4182 4.06397 12 4.06397C13.5818 4.06397 15.1281 4.53289 16.4434 5.41146C17.7588 6.29003 18.7842 7.53882 19.39 9C19.4404 9.12701 19.4643 9.26302 19.4601 9.39962C19.456 9.53622 19.4238 9.67051 19.3657 9.7942C19.3076 9.9179 19.2248 10.0284 19.1223 10.1188C19.0199 10.2092 18.9 10.2777 18.77 10.32C18.5323 10.3905 18.2769 10.3702 18.0533 10.2631C17.8297 10.1559 17.6539 9.96948 17.56 9.74C17.1049 8.64564 16.3358 7.71058 15.3499 7.05281C14.3639 6.39503 13.2052 6.044 12.02 6.044C10.8348 6.044 9.67609 6.39503 8.69014 7.05281C7.70419 7.71058 6.93513 8.64564 6.48 9.74C6.38611 9.96948 6.21031 10.1559 5.98673 10.2631C5.76314 10.3702 5.50771 10.3905 5.27 10.32C5.13648 10.282 5.01233 10.2166 4.90545 10.128C4.79857 10.0394 4.71132 9.92955 4.64923 9.80539C4.58715 9.68122 4.5516 9.54548 4.54484 9.40682C4.53809 9.26816 4.56028 9.12961 4.61 9ZM10.3 18.78C10.2565 18.9067 10.1879 19.0233 10.0984 19.1229C10.009 19.2226 9.90037 19.3033 9.77912 19.3602C9.65787 19.4171 9.52643 19.449 9.39259 19.4541C9.25875 19.4593 9.12525 19.4375 9 19.39C8.01265 18.9877 7.11567 18.3921 6.36178 17.6382C5.60789 16.8843 5.0123 15.9874 4.61 15C4.55793 14.8724 4.53279 14.7355 4.53614 14.5978C4.53949 14.46 4.57127 14.3244 4.62949 14.1996C4.6877 14.0747 4.77109 13.9632 4.87443 13.8721C4.97777 13.7809 5.09883 13.7121 5.23 13.67C5.46771 13.5995 5.72314 13.6198 5.94672 13.7269C6.17031 13.8341 6.34611 14.0205 6.44 14.25C6.7416 14.9815 7.1849 15.6461 7.74439 16.2056C8.30388 16.7651 8.9685 17.2084 9.7 17.51C9.93989 17.6004 10.1359 17.7795 10.2476 18.0102C10.3592 18.241 10.378 18.5058 10.3 18.75V18.78ZM8 12C8 11.2089 8.2346 10.4355 8.67413 9.77772C9.11365 9.11992 9.73837 8.60723 10.4693 8.30448C11.2002 8.00173 12.0044 7.92252 12.7804 8.07686C13.5563 8.2312 14.269 8.61216 14.8284 9.17157C15.3878 9.73098 15.7688 10.4437 15.9231 11.2196C16.0775 11.9956 15.9983 12.7998 15.6955 13.5307C15.3928 14.2616 14.8801 14.8864 14.2223 15.3259C13.5645 15.7654 12.7911 16 12 16C10.9391 16 9.92172 15.5786 9.17158 14.8284C8.42143 14.0783 8 13.0609 8 12ZM19.39 15C18.9877 15.9874 18.3921 16.8843 17.6382 17.6382C16.8843 18.3921 15.9874 18.9877 15 19.39C14.8724 19.4421 14.7355 19.4672 14.5978 19.4639C14.46 19.4605 14.3245 19.4287 14.1996 19.3705C14.0747 19.3123 13.9632 19.2289 13.8721 19.1256C13.7809 19.0222 13.7121 18.9012 13.67 18.77C13.5995 18.5323 13.6198 18.2769 13.7269 18.0533C13.8341 17.8297 14.0205 17.6539 14.25 17.56C14.9815 17.2584 15.6461 16.8151 16.2056 16.2556C16.7651 15.6961 17.2084 15.0315 17.51 14.3C17.6039 14.0705 17.7797 13.8841 18.0033 13.7769C18.2269 13.6698 18.4823 13.6495 18.72 13.72C18.8497 13.7575 18.9704 13.8208 19.075 13.9062C19.1795 13.9916 19.2657 14.0973 19.3283 14.2169C19.3909 14.3365 19.4287 14.4676 19.4393 14.6022C19.4499 14.7367 19.4331 14.8721 19.39 15ZM12 11C11.8022 11 11.6089 11.0586 11.4444 11.1685C11.28 11.2784 11.1518 11.4346 11.0761 11.6173C11.0004 11.8 10.9806 12.0011 11.0192 12.1951C11.0578 12.3891 11.153 12.5673 11.2929 12.7071C11.4328 12.847 11.6109 12.9422 11.8049 12.9808C11.9989 13.0194 12.2 12.9996 12.3827 12.9239C12.5654 12.8482 12.7216 12.72 12.8315 12.5556C12.9414 12.3911 13 12.1978 13 12C13 11.7348 12.8946 11.4804 12.7071 11.2929C12.5196 11.1054 12.2652 11 12 11Z" fill="#141414"/>
</svg>
