<svg width="24" height="24" viewBox="0 0 24 24" fill="none" xmlns="http://www.w3.org/2000/svg">
<path d="M14 11C14.2652 11 14.5196 10.8946 14.7071 10.7071C14.8946 10.5196 15 10.2652 15 10V8C15 7.73478 14.8946 7.48043 14.7071 7.29289C14.5196 7.10536 14.2652 7 14 7C13.7348 7 13.4804 7.10536 13.2929 7.29289C13.1054 7.48043 13 7.73478 13 8V10C13 10.2652 13.1054 10.5196 13.2929 10.7071C13.4804 10.8946 13.7348 11 14 11ZM20.12 7.12L16.88 3.88C16.3179 3.31723 15.5554 3.0007 14.76 3H6C5.20435 3 4.44129 3.31607 3.87868 3.87868C3.31607 4.44129 3 5.20435 3 6V18C3 18.7956 3.31607 19.5587 3.87868 20.1213C4.44129 20.6839 5.20435 21 6 21H18C18.7956 21 19.5587 20.6839 20.1213 20.1213C20.6839 19.5587 21 18.7956 21 18V9.24C20.9993 8.44462 20.6828 7.68207 20.12 7.12ZM16 10C16 10.5304 15.7893 11.0391 15.4142 11.4142C15.0391 11.7893 14.5304 12 14 12H10C9.46957 12 8.96086 11.7893 8.58579 11.4142C8.21071 11.0391 8 10.5304 8 10V6H16V10Z" fill="#141414"/>
</svg>
