<svg width="24" height="24" viewBox="0 0 24 24" fill="none" xmlns="http://www.w3.org/2000/svg">
<path d="M20.2998 3.69998C17.5633 2.74975 14.5863 2.74975 11.8498 3.69998C8.56506 4.8236 5.86063 7.20513 4.33062 10.3214C2.8006 13.4377 2.57012 17.0339 3.68982 20.32C3.75691 20.5186 3.88472 20.6911 4.05519 20.8131C4.22567 20.9352 4.43018 21.0005 4.63982 21C4.75919 21.0174 4.88045 21.0174 4.99982 21C5.25034 20.9136 5.45635 20.7314 5.5726 20.4933C5.68885 20.2551 5.70583 19.9806 5.61982 19.73C5.394 19.0364 5.23331 18.3234 5.13982 17.6C5.93097 17.7508 6.73443 17.8278 7.53982 17.83C10.1194 17.835 12.6462 17.0992 14.8198 15.71C15.002 15.5876 15.1389 15.4088 15.2094 15.201C15.2798 14.9931 15.28 14.7679 15.2098 14.56L13.9998 11L18.0598 11.68C18.2532 11.7095 18.4511 11.6817 18.6288 11.5999C18.8066 11.5182 18.9564 11.3861 19.0598 11.22C20.2561 9.23853 20.9241 6.98331 20.9998 4.66998C21.0033 4.45445 20.937 4.24357 20.8109 4.06877C20.6847 3.89398 20.5055 3.76462 20.2998 3.69998Z" fill="#141414"/>
</svg>
