<svg width="24" height="24" viewBox="0 0 24 24" fill="none" xmlns="http://www.w3.org/2000/svg">
<path d="M11.6 3.8L6 8H4C3.46957 8 2.96086 8.21071 2.58579 8.58579C2.21071 8.96086 2 9.46957 2 10V14C2 14.5304 2.21071 15.0391 2.58579 15.4142C2.96086 15.7893 3.46957 16 4 16H6L11.6 20.2C11.8229 20.3671 12.0878 20.4689 12.3653 20.4939C12.6427 20.519 12.9217 20.4662 13.1708 20.3416C13.42 20.2171 13.6295 20.0256 13.776 19.7886C13.9224 19.5516 14 19.2786 14 19V5C14 4.72143 13.9224 4.44837 13.776 4.2114C13.6295 3.97444 13.42 3.78294 13.1708 3.65836C12.9217 3.53378 12.6427 3.48104 12.3653 3.50606C12.0878 3.53108 11.8229 3.63286 11.6 3.8ZM20.41 12L21.71 10.71C21.8032 10.6168 21.8772 10.5061 21.9277 10.3843C21.9781 10.2624 22.0041 10.1319 22.0041 10C22.0041 9.86814 21.9781 9.73757 21.9277 9.61575C21.8772 9.49393 21.8032 9.38324 21.71 9.29C21.6168 9.19676 21.5061 9.1228 21.3842 9.07234C21.2624 9.02188 21.1319 8.99591 21 8.99591C20.8681 8.99591 20.7376 9.02188 20.6158 9.07234C20.4939 9.1228 20.3832 9.19676 20.29 9.29L19 10.59L17.71 9.29C17.5217 9.1017 17.2663 8.99591 17 8.99591C16.7337 8.99591 16.4783 9.1017 16.29 9.29C16.1017 9.4783 15.9959 9.7337 15.9959 10C15.9959 10.2663 16.1017 10.5217 16.29 10.71L17.59 12L16.29 13.29C16.1963 13.383 16.1219 13.4936 16.0711 13.6154C16.0203 13.7373 15.9942 13.868 15.9942 14C15.9942 14.132 16.0203 14.2627 16.0711 14.3846C16.1219 14.5064 16.1963 14.617 16.29 14.71C16.383 14.8037 16.4936 14.8781 16.6154 14.9289C16.7373 14.9797 16.868 15.0058 17 15.0058C17.132 15.0058 17.2627 14.9797 17.3846 14.9289C17.5064 14.8781 17.617 14.8037 17.71 14.71L19 13.41L20.29 14.71C20.383 14.8037 20.4936 14.8781 20.6154 14.9289C20.7373 14.9797 20.868 15.0058 21 15.0058C21.132 15.0058 21.2627 14.9797 21.3846 14.9289C21.5064 14.8781 21.617 14.8037 21.71 14.71C21.8037 14.617 21.8781 14.5064 21.9289 14.3846C21.9797 14.2627 22.0058 14.132 22.0058 14C22.0058 13.868 21.9797 13.7373 21.9289 13.6154C21.8781 13.4936 21.8037 13.383 21.71 13.29L20.41 12Z" fill="#141414"/>
</svg>
