<svg width="24" height="24" viewBox="0 0 24 24" fill="none" xmlns="http://www.w3.org/2000/svg">
<path d="M14.47 12.39L12.57 13.8C12.3969 13.9298 12.1864 14 11.97 14C11.7536 14 11.5431 13.9298 11.37 13.8L9.49 12.41C7.89332 12.9376 6.50348 13.9549 5.51794 15.3174C4.5324 16.68 4.00127 18.3184 4 20C4 20.5304 4.21071 21.0391 4.58579 21.4142C4.96086 21.7893 5.46957 22 6 22H18C18.5304 22 19.0391 21.7893 19.4142 21.4142C19.7893 21.0391 20 20.5304 20 20C20.0002 18.31 19.4652 16.6634 18.4717 15.2963C17.4783 13.9292 16.0774 12.9118 14.47 12.39ZM10 20H8C7.73478 20 7.48043 19.8946 7.29289 19.7071C7.10536 19.5196 7 19.2652 7 19C7 18.7348 7.10536 18.4804 7.29289 18.2929C7.48043 18.1054 7.73478 18 8 18H10C10.2652 18 10.5196 18.1054 10.7071 18.2929C10.8946 18.4804 11 18.7348 11 19C11 19.2652 10.8946 19.5196 10.7071 19.7071C10.5196 19.8946 10.2652 20 10 20ZM16 20C15.8022 20 15.6089 19.9414 15.4444 19.8315C15.28 19.7216 15.1518 19.5654 15.0761 19.3827C15.0004 19.2 14.9806 18.9989 15.0192 18.8049C15.0578 18.6109 15.153 18.4327 15.2929 18.2929C15.4327 18.153 15.6109 18.0578 15.8049 18.0192C15.9989 17.9806 16.2 18.0004 16.3827 18.0761C16.5654 18.1518 16.7216 18.28 16.8315 18.4444C16.9414 18.6089 17 18.8022 17 19C17 19.2652 16.8946 19.5196 16.7071 19.7071C16.5196 19.8946 16.2652 20 16 20ZM7.29 4.71C7.38344 4.80268 7.49426 4.87601 7.61609 4.92577C7.73793 4.97554 7.86839 5.00076 8 5H16C16.1316 5.00076 16.2621 4.97554 16.3839 4.92577C16.5057 4.87601 16.6166 4.80268 16.71 4.71L17.71 3.71C17.8488 3.56938 17.9428 3.3908 17.9801 3.19681C18.0175 3.00282 17.9966 2.80211 17.92 2.62C17.845 2.43738 17.7176 2.28105 17.5539 2.17072C17.3901 2.06039 17.1974 2.00099 17 2H7C6.80257 2.00099 6.60986 2.06039 6.44614 2.17072C6.28242 2.28105 6.15502 2.43738 6.08 2.62C6.00342 2.80211 5.9825 3.00282 6.01987 3.19681C6.05725 3.3908 6.15124 3.56938 6.29 3.71L7.29 4.71ZM12 11C13.1043 10.999 14.1694 10.5901 14.9907 9.85182C15.812 9.11357 16.3317 8.09798 16.45 7H7.55C7.66832 8.09798 8.18801 9.11357 9.00932 9.85182C9.83062 10.5901 10.8957 10.999 12 11Z" fill="#141414"/>
</svg>
