<svg width="24" height="24" viewBox="0 0 24 24" fill="none" xmlns="http://www.w3.org/2000/svg">
<path d="M16 10.9999H13V8.99995H13.13C13.3727 9.00234 13.6079 8.91641 13.7919 8.75818C13.9759 8.59996 14.096 8.38023 14.13 8.13995L14.58 4.99995C14.6369 4.62816 14.6127 4.24848 14.5092 3.88689C14.4056 3.52531 14.2252 3.19038 13.9802 2.90503C13.7351 2.61969 13.4313 2.39067 13.0896 2.23366C12.7478 2.07665 12.3761 1.99536 12 1.99536C11.6239 1.99536 11.2522 2.07665 10.9105 2.23366C10.5687 2.39067 10.2649 2.61969 10.0199 2.90503C9.77483 3.19038 9.59437 3.52531 9.49084 3.88689C9.38731 4.24848 9.36314 4.62816 9.42001 4.99995L9.88001 8.16995C9.91397 8.41023 10.0341 8.62996 10.2181 8.78818C10.4021 8.94641 10.6374 9.03234 10.88 9.02995H11V11.0299H8.00001C7.46957 11.0299 6.96086 11.2407 6.58579 11.6157C6.21072 11.9908 6.00001 12.4995 6.00001 13.0299V17.4099C5.99891 17.9684 6.15371 18.5161 6.44698 18.9913C6.74026 19.4666 7.16036 19.8505 7.66001 20.1L11.11 21.82C11.3866 21.9574 11.6912 22.0289 12 22.0289C12.3088 22.0289 12.6134 21.9574 12.89 21.82L16.34 20.1C16.8443 19.8483 17.2674 19.4596 17.561 18.9786C17.8546 18.4975 18.0067 17.9435 18 17.3799V12.9999C18 12.4695 17.7893 11.9608 17.4142 11.5857C17.0391 11.2107 16.5304 10.9999 16 10.9999Z" fill="#141414"/>
</svg>
