<svg width="24" height="24" viewBox="0 0 24 24" fill="none" xmlns="http://www.w3.org/2000/svg">
<path d="M19 19.9998H5C4.73478 19.9998 4.48043 20.1052 4.29289 20.2927C4.10536 20.4802 4 20.7346 4 20.9998C4 21.265 4.10536 21.5194 4.29289 21.7069C4.48043 21.8944 4.73478 21.9998 5 21.9998H19C19.2652 21.9998 19.5196 21.8944 19.7071 21.7069C19.8946 21.5194 20 21.265 20 20.9998C20 20.7346 19.8946 20.4802 19.7071 20.2927C19.5196 20.1052 19.2652 19.9998 19 19.9998ZM18 12.9998H16C15.2044 12.9998 14.4413 12.6837 13.8787 12.1211C13.3161 11.5585 13 10.7954 13 9.9998V9.8598C13.9427 9.61641 14.7642 9.03757 15.3106 8.23179C15.857 7.42601 16.0908 6.44861 15.9681 5.4828C15.8454 4.51699 15.3747 3.62907 14.6442 2.98548C13.9137 2.34189 12.9736 1.98682 12 1.98682C11.0264 1.98682 10.0863 2.34189 9.35577 2.98548C8.62526 3.62907 8.15456 4.51699 8.03188 5.4828C7.90921 6.44861 8.14299 7.42601 8.6894 8.23179C9.23581 9.03757 10.0573 9.61641 11 9.8598V9.9998C11 10.7954 10.6839 11.5585 10.1213 12.1211C9.55871 12.6837 8.79565 12.9998 8 12.9998H6C5.46957 12.9998 4.96086 13.2105 4.58579 13.5856C4.21071 13.9607 4 14.4694 4 14.9998V15.9998C4 16.5302 4.21071 17.0389 4.58579 17.414C4.96086 17.7891 5.46957 17.9998 6 17.9998H18C18.5304 17.9998 19.0391 17.7891 19.4142 17.414C19.7893 17.0389 20 16.5302 20 15.9998V14.9998C20 14.4694 19.7893 13.9607 19.4142 13.5856C19.0391 13.2105 18.5304 12.9998 18 12.9998Z" fill="#141414"/>
</svg>
