<svg width="24" height="24" viewBox="0 0 24 24" fill="none" xmlns="http://www.w3.org/2000/svg">
<path d="M12 8C11.2089 8 10.4355 8.2346 9.77772 8.67412C9.11992 9.11365 8.60723 9.73836 8.30448 10.4693C8.00173 11.2002 7.92252 12.0044 8.07686 12.7804C8.2312 13.5563 8.61216 14.269 9.17157 14.8284C9.73098 15.3878 10.4437 15.7688 11.2196 15.9231C11.9956 16.0775 12.7998 15.9983 13.5307 15.6955C14.2616 15.3928 14.8864 14.8801 15.3259 14.2223C15.7654 13.5645 16 12.7911 16 12C16 10.9391 15.5786 9.92172 14.8284 9.17157C14.0783 8.42143 13.0609 8 12 8ZM12 7C12.2652 7 12.5196 6.89464 12.7071 6.70711C12.8946 6.51957 13 6.26522 13 6V4C13 3.73478 12.8946 3.48043 12.7071 3.29289C12.5196 3.10536 12.2652 3 12 3C11.7348 3 11.4804 3.10536 11.2929 3.29289C11.1054 3.48043 11 3.73478 11 4V6C11 6.26522 11.1054 6.51957 11.2929 6.70711C11.4804 6.89464 11.7348 7 12 7ZM8.13 7.37C8.19616 7.48375 8.28413 7.58333 8.38885 7.66302C8.49357 7.74271 8.613 7.80094 8.74027 7.83439C8.86755 7.86783 9.00017 7.87583 9.13054 7.85791C9.26091 7.84 9.38646 7.79653 9.5 7.73C9.72873 7.59808 9.896 7.38105 9.96532 7.12626C10.0346 6.87148 10.0004 6.59962 9.87 6.37L9.37 5.5C9.23739 5.26926 9.01855 5.10065 8.76163 5.03126C8.5047 4.96188 8.23074 4.99739 8 5.13C7.76926 5.26261 7.60065 5.48145 7.53126 5.73837C7.46188 5.9953 7.49739 6.26926 7.63 6.5L8.13 7.37ZM14.5 7.73C14.6135 7.79653 14.7391 7.84 14.8695 7.85791C14.9998 7.87583 15.1325 7.86783 15.2597 7.83439C15.387 7.80094 15.5064 7.74271 15.6111 7.66302C15.7159 7.58333 15.8038 7.48375 15.87 7.37L16.37 6.5C16.4357 6.38575 16.4782 6.25969 16.4951 6.129C16.5121 5.99832 16.5031 5.86559 16.4687 5.73837C16.4344 5.61115 16.3753 5.49195 16.2949 5.38757C16.2144 5.28318 16.1143 5.19566 16 5.13C15.8857 5.06434 15.7597 5.02182 15.629 5.00488C15.4983 4.98794 15.3656 4.99691 15.2384 5.03126C15.1112 5.06562 14.992 5.1247 14.8876 5.20513C14.7832 5.28555 14.6957 5.38575 14.63 5.5L14.13 6.37C13.9996 6.59962 13.9654 6.87148 14.0347 7.12626C14.104 7.38105 14.2713 7.59808 14.5 7.73ZM19 11H18C17.7348 11 17.4804 11.1054 17.2929 11.2929C17.1054 11.4804 17 11.7348 17 12C17 12.2652 17.1054 12.5196 17.2929 12.7071C17.4804 12.8946 17.7348 13 18 13H19C19.2652 13 19.5196 12.8946 19.7071 12.7071C19.8946 12.5196 20 12.2652 20 12C20 11.7348 19.8946 11.4804 19.7071 11.2929C19.5196 11.1054 19.2652 11 19 11ZM16.23 8.74C16.1907 8.86934 16.178 9.0053 16.1927 9.13968C16.2074 9.27406 16.2492 9.40407 16.3155 9.52184C16.3819 9.63961 16.4715 9.7427 16.5788 9.82489C16.6861 9.90707 16.809 9.96664 16.94 10C17.1969 10.0626 17.468 10.027 17.7 9.9L19.43 8.9C19.658 8.76556 19.8234 8.5462 19.89 8.29C19.9241 8.16297 19.9329 8.03045 19.9157 7.90004C19.8986 7.76962 19.8558 7.64388 19.79 7.53C19.6599 7.30027 19.4442 7.13132 19.19 7.06C18.9331 6.99637 18.6617 7.03208 18.43 7.16L16.7 8.16C16.4782 8.28994 16.3112 8.49607 16.23 8.74ZM15.87 16.74C15.7374 16.5093 15.5186 16.3407 15.2616 16.2713C15.0047 16.2019 14.7307 16.2374 14.5 16.37C14.2693 16.5026 14.1007 16.7214 14.0313 16.9784C13.9619 17.2353 13.9974 17.5093 14.13 17.74L14.63 18.6C14.7181 18.7526 14.845 18.8792 14.9977 18.967C15.1505 19.0548 15.3238 19.1007 15.5 19.1C15.6759 19.1007 15.8488 19.055 16.0014 18.9675C16.154 18.88 16.2808 18.7539 16.369 18.6017C16.4573 18.4496 16.5038 18.2769 16.504 18.101C16.5042 17.9251 16.4579 17.7523 16.37 17.6L15.87 16.74ZM12 17C11.7348 17 11.4804 17.1054 11.2929 17.2929C11.1054 17.4804 11 17.7348 11 18V20C11 20.2652 11.1054 20.5196 11.2929 20.7071C11.4804 20.8946 11.7348 21 12 21C12.2652 21 12.5196 20.8946 12.7071 20.7071C12.8946 20.5196 13 20.2652 13 20V18C13 17.7348 12.8946 17.4804 12.7071 17.2929C12.5196 17.1054 12.2652 17 12 17ZM4.57 8.87L6.3 9.87C6.53199 9.99697 6.80306 10.0326 7.06 9.97C7.18768 9.93636 7.30743 9.87776 7.41235 9.7976C7.51726 9.71743 7.60526 9.61728 7.67127 9.50293C7.73728 9.38858 7.77999 9.26228 7.79694 9.13134C7.81388 9.00039 7.80473 8.86739 7.77 8.74C7.73586 8.61231 7.67675 8.49265 7.59607 8.38795C7.5154 8.28324 7.41477 8.19557 7.3 8.13L5.57 7.13C5.34232 6.99185 5.07065 6.94539 4.81 7C4.5558 7.07132 4.34011 7.24027 4.21 7.47C4.14417 7.58388 4.10145 7.70962 4.08429 7.84004C4.06713 7.97045 4.07587 8.10297 4.11 8.23C4.13932 8.36228 4.19521 8.48721 4.27429 8.59723C4.35336 8.70725 4.45397 8.80005 4.57 8.87ZM19.43 15.13L17.7 14.13C17.468 14.003 17.1969 13.9674 16.94 14.03C16.8123 14.0636 16.6926 14.1222 16.5877 14.2024C16.4827 14.2826 16.3947 14.3827 16.3287 14.4971C16.2627 14.6114 16.22 14.7377 16.2031 14.8687C16.1861 14.9996 16.1953 15.1326 16.23 15.26C16.3047 15.5151 16.4724 15.7328 16.7 15.87L18.43 16.87C18.6617 16.9979 18.9331 17.0336 19.19 16.97C19.4442 16.8987 19.6599 16.7297 19.79 16.5C19.8558 16.3861 19.8986 16.2604 19.9157 16.13C19.9329 15.9995 19.9241 15.867 19.89 15.74C19.8234 15.4838 19.658 15.2644 19.43 15.13ZM9.5 16.39C9.38587 16.3239 9.25978 16.281 9.129 16.2638C8.99822 16.2466 8.86534 16.2555 8.738 16.2899C8.61066 16.3243 8.49138 16.3835 8.38703 16.4642C8.28268 16.5449 8.19533 16.6454 8.13 16.76L7.63 17.62C7.54206 17.7723 7.49585 17.9451 7.49602 18.121C7.4962 18.2969 7.54275 18.4696 7.63099 18.6217C7.71923 18.7739 7.84603 18.9 7.99861 18.9875C8.15118 19.075 8.32413 19.1207 8.5 19.12C8.67621 19.1207 8.84948 19.0748 9.00225 18.987C9.15503 18.8992 9.2819 18.7726 9.37 18.62L9.87 17.76C9.93612 17.6459 9.979 17.5198 9.99619 17.389C10.0134 17.2582 10.0045 17.1253 9.97012 16.998C9.93573 16.8707 9.87649 16.7514 9.7958 16.647C9.71512 16.5427 9.61459 16.4553 9.5 16.39ZM7.77 15.26C7.80933 15.1307 7.82202 14.9947 7.80732 14.8603C7.79262 14.7259 7.75082 14.5959 7.68446 14.4782C7.6181 14.3604 7.52854 14.2573 7.42121 14.1751C7.31388 14.0929 7.191 14.0334 7.06 14C6.80306 13.9374 6.53199 13.973 6.3 14.1L4.57 15.1C4.34198 15.2344 4.17656 15.4538 4.11 15.71C4.07587 15.837 4.06713 15.9695 4.08429 16.1C4.10145 16.2304 4.14417 16.3561 4.21 16.47C4.34011 16.6997 4.5558 16.8687 4.81 16.94C5.06688 17.0036 5.33832 16.9679 5.57 16.84L7.3 15.84C7.52182 15.7101 7.68885 15.5039 7.77 15.26ZM5 13H6C6.26522 13 6.51957 12.8946 6.70711 12.7071C6.89464 12.5196 7 12.2652 7 12C7 11.7348 6.89464 11.4804 6.70711 11.2929C6.51957 11.1054 6.26522 11 6 11H5C4.73478 11 4.48043 11.1054 4.29289 11.2929C4.10536 11.4804 4 11.7348 4 12C4 12.2652 4.10536 12.5196 4.29289 12.7071C4.48043 12.8946 4.73478 13 5 13Z" fill="#141414"/>
</svg>
