<svg width="24" height="24" viewBox="0 0 24 24" fill="none" xmlns="http://www.w3.org/2000/svg">
<path d="M15.9999 2.00019H10.9999C10.5434 1.99502 10.0917 2.09412 9.67926 2.28995C9.26682 2.48577 8.90451 2.77315 8.61995 3.13019L5.61995 6.83019C5.20866 7.36596 4.99021 8.02484 4.99995 8.70019V19.0002C4.99995 19.7958 5.31602 20.5589 5.87863 21.1215C6.44123 21.6841 7.2043 22.0002 7.99995 22.0002H15.9999C16.7956 22.0002 17.5587 21.6841 18.1213 21.1215C18.6839 20.5589 18.9999 19.7958 18.9999 19.0002V5.00019C18.9999 4.20454 18.6839 3.44148 18.1213 2.87887C17.5587 2.31626 16.7956 2.00019 15.9999 2.00019ZM6.99995 12.0002H9.99995V15.0002H6.99995V12.0002ZM11.9999 20.0002H7.99995C7.73473 20.0002 7.48038 19.8948 7.29284 19.7073C7.1053 19.5198 6.99995 19.2654 6.99995 19.0002V17.0002H11.9999V20.0002ZM16.9999 19.0002C16.9999 19.2654 16.8946 19.5198 16.7071 19.7073C16.5195 19.8948 16.2652 20.0002 15.9999 20.0002H13.9999V17.0002H16.9999V19.0002ZM16.9999 15.0002H11.9999V12.0002H16.9999V15.0002Z" fill="#141414"/>
</svg>
