<svg width="24" height="24" viewBox="0 0 24 24" fill="none" xmlns="http://www.w3.org/2000/svg">
<path d="M18 3H6C5.20435 3 4.44129 3.31607 3.87868 3.87868C3.31607 4.44129 3 5.20435 3 6V18C3 18.7956 3.31607 19.5587 3.87868 20.1213C4.44129 20.6839 5.20435 21 6 21H18C18.7956 21 19.5587 20.6839 20.1213 20.1213C20.6839 19.5587 21 18.7956 21 18V6C21 5.20435 20.6839 4.44129 20.1213 3.87868C19.5587 3.31607 18.7956 3 18 3ZM9.67 13.33C9.99502 13.328 10.3081 13.2071 10.55 12.99C10.6149 12.9269 10.6918 12.8776 10.7763 12.8451C10.8607 12.8126 10.9508 12.7975 11.0412 12.8008C11.1317 12.804 11.2205 12.8256 11.3024 12.8641C11.3842 12.9026 11.4574 12.9573 11.5176 13.0249C11.5777 13.0925 11.6236 13.1716 11.6523 13.2573C11.6811 13.3431 11.6922 13.4338 11.6849 13.524C11.6777 13.6142 11.6523 13.702 11.6102 13.7821C11.5681 13.8622 11.5102 13.9329 11.44 13.99C11.0549 14.3306 10.5796 14.5528 10.0712 14.6299C9.56287 14.7069 9.04308 14.6355 8.57431 14.4243C8.10554 14.2131 7.70772 13.871 7.42865 13.4392C7.14958 13.0074 7.00113 12.5042 7.00113 11.99C7.00113 11.4758 7.14958 10.9726 7.42865 10.5408C7.70772 10.109 8.10554 9.7669 8.57431 9.55569C9.04308 9.34447 9.56287 9.2731 10.0712 9.35015C10.5796 9.42719 11.0549 9.64937 11.44 9.99C11.5102 10.0471 11.5681 10.1178 11.6102 10.1979C11.6523 10.278 11.6777 10.3658 11.6849 10.456C11.6922 10.5462 11.6811 10.6369 11.6523 10.7227C11.6236 10.8084 11.5777 10.8875 11.5176 10.9551C11.4574 11.0227 11.3842 11.0774 11.3024 11.1159C11.2205 11.1544 11.1317 11.176 11.0412 11.1792C10.9508 11.1825 10.8607 11.1674 10.7763 11.1349C10.6918 11.1024 10.6149 11.0531 10.55 10.99C10.3892 10.8458 10.1957 10.7428 9.9862 10.6902C9.77671 10.6375 9.55754 10.6366 9.34764 10.6877C9.13774 10.7387 8.94343 10.8401 8.78152 10.9831C8.6196 11.1261 8.49495 11.3064 8.41834 11.5083C8.34173 11.7103 8.31546 11.9279 8.34182 12.1423C8.36818 12.3567 8.44636 12.5615 8.56961 12.7389C8.69285 12.9163 8.85746 13.061 9.04918 13.1605C9.24091 13.26 9.45399 13.3113 9.67 13.31V13.33ZM15 13.33C15.3276 13.3259 15.6431 13.2054 15.89 12.99C15.9514 12.9277 16.0246 12.8783 16.1053 12.8445C16.1859 12.8107 16.2725 12.7934 16.36 12.7934C16.4475 12.7934 16.5341 12.8107 16.6147 12.8445C16.6954 12.8783 16.7686 12.9277 16.83 12.99C16.9534 13.1153 17.0225 13.2841 17.0225 13.46C17.0225 13.6359 16.9534 13.8047 16.83 13.93C16.4449 14.2706 15.9696 14.4928 15.4612 14.5699C14.9529 14.6469 14.4331 14.5755 13.9643 14.3643C13.4955 14.1531 13.0977 13.811 12.8187 13.3792C12.5396 12.9474 12.3911 12.4442 12.3911 11.93C12.3911 11.4158 12.5396 10.9126 12.8187 10.4808C13.0977 10.049 13.4955 9.7069 13.9643 9.49568C14.4331 9.28447 14.9529 9.2131 15.4612 9.29015C15.9696 9.36719 16.4449 9.58937 16.83 9.93C16.9534 10.0553 17.0225 10.2241 17.0225 10.4C17.0225 10.5759 16.9534 10.7447 16.83 10.87C16.7686 10.9323 16.6954 10.9817 16.6147 11.0155C16.5341 11.0493 16.4475 11.0666 16.36 11.0666C16.2725 11.0666 16.1859 11.0493 16.1053 11.0155C16.0246 10.9817 15.9514 10.9323 15.89 10.87C15.6431 10.6546 15.3276 10.5341 15 10.53C14.6473 10.53 14.309 10.6701 14.0595 10.9195C13.8101 11.169 13.67 11.5073 13.67 11.86C13.67 12.2127 13.8101 12.551 14.0595 12.8005C14.309 13.0499 14.6473 13.19 15 13.19V13.33Z" fill="#141414"/>
</svg>
