<svg width="24" height="24" viewBox="0 0 24 24" fill="none" xmlns="http://www.w3.org/2000/svg">
<path d="M10 4H14C14.2652 4 14.5196 3.89464 14.7071 3.70711C14.8946 3.51957 15 3.26522 15 3C15 2.73478 14.8946 2.48043 14.7071 2.29289C14.5196 2.10536 14.2652 2 14 2H10C9.73479 2 9.48043 2.10536 9.2929 2.29289C9.10536 2.48043 9 2.73478 9 3C9 3.26522 9.10536 3.51957 9.2929 3.70711C9.48043 3.89464 9.73479 4 10 4ZM18.71 6.71C18.8974 6.89625 19.1508 7.00079 19.415 7.00079C19.6792 7.00079 19.9326 6.89625 20.12 6.71C20.2137 6.61704 20.2881 6.50644 20.3389 6.38458C20.3897 6.26272 20.4158 6.13201 20.4158 6C20.4158 5.86799 20.3897 5.73728 20.3389 5.61542C20.2881 5.49356 20.2137 5.38296 20.12 5.29L18.71 3.88C18.617 3.78627 18.5064 3.71188 18.3846 3.66111C18.2627 3.61034 18.132 3.5842 18 3.5842C17.868 3.5842 17.7373 3.61034 17.6154 3.66111C17.4936 3.71188 17.383 3.78627 17.29 3.88C17.1038 4.06736 16.9992 4.32081 16.9992 4.585C16.9992 4.84919 17.1038 5.10264 17.29 5.29L18.71 6.71ZM12 5C10.3189 5 8.67548 5.49852 7.27766 6.43251C5.87984 7.3665 4.79037 8.69402 4.14703 10.2472C3.50368 11.8004 3.33535 13.5094 3.66333 15.1583C3.9913 16.8071 4.80085 18.3217 5.9896 19.5104C7.17834 20.6992 8.6929 21.5087 10.3417 21.8367C11.9906 22.1646 13.6996 21.9963 15.2528 21.353C16.806 20.7096 18.1335 19.6202 19.0675 18.2223C20.0015 16.8245 20.5 15.1811 20.5 13.5C20.4974 11.2465 19.601 9.086 18.0075 7.49252C16.414 5.89903 14.2535 5.00265 12 5ZM13 13C13 13.2652 12.8946 13.5196 12.7071 13.7071C12.5196 13.8946 12.2652 14 12 14C11.7348 14 11.4804 13.8946 11.2929 13.7071C11.1054 13.5196 11 13.2652 11 13V9C11 8.73478 11.1054 8.48043 11.2929 8.29289C11.4804 8.10536 11.7348 8 12 8C12.2652 8 12.5196 8.10536 12.7071 8.29289C12.8946 8.48043 13 8.73478 13 9V13Z" fill="#141414"/>
</svg>
