<svg width="24" height="24" viewBox="0 0 24 24" fill="none" xmlns="http://www.w3.org/2000/svg">
<path d="M14.0001 19.9998H10.0001C9.73484 19.9998 9.48049 20.1052 9.29295 20.2927C9.10541 20.4802 9.00006 20.7346 9.00006 20.9998C9.00006 21.265 9.10541 21.5194 9.29295 21.7069C9.48049 21.8944 9.73484 21.9998 10.0001 21.9998H14.0001C14.2653 21.9998 14.5196 21.8944 14.7072 21.7069C14.8947 21.5194 15.0001 21.265 15.0001 20.9998C15.0001 20.7346 14.8947 20.4802 14.7072 20.2927C14.5196 20.1052 14.2653 19.9998 14.0001 19.9998ZM11.8801 1.9998C10.096 2.05285 8.39744 2.77586 7.12249 4.02487C5.84754 5.27388 5.08977 6.95725 5.00006 8.7398C4.9594 9.87945 5.19779 11.0118 5.69449 12.0383C6.19119 13.0648 6.93117 13.9544 7.85006 14.6298C8.21523 14.906 8.5098 15.2648 8.70969 15.6767C8.90957 16.0886 9.00907 16.542 9.00006 16.9998C9.00006 17.265 9.10541 17.5194 9.29295 17.7069C9.48049 17.8944 9.73484 17.9998 10.0001 17.9998H14.0001C14.2653 17.9998 14.5196 17.8944 14.7072 17.7069C14.8947 17.5194 15.0001 17.265 15.0001 16.9998C14.9903 16.5482 15.0875 16.1008 15.284 15.6941C15.4804 15.2873 15.7703 14.9329 16.1301 14.6598C17.3346 13.7838 18.2283 12.5465 18.6813 11.1278C19.1343 9.70899 19.123 8.1827 18.6491 6.77079C18.1751 5.35888 17.2631 4.13495 16.0458 3.27693C14.8284 2.4189 13.3691 1.97151 11.8801 1.9998ZM10.0001 10.9998C9.80228 10.9998 9.60894 10.9411 9.44449 10.8313C9.28004 10.7214 9.15186 10.5652 9.07618 10.3825C9.00049 10.1998 8.98069 9.99869 9.01927 9.80471C9.05786 9.61073 9.1531 9.43254 9.29295 9.29269C9.4328 9.15284 9.61099 9.0576 9.80497 9.01901C9.99895 8.98043 10.2 9.00023 10.3827 9.07592C10.5655 9.15161 10.7216 9.27978 10.8315 9.44423C10.9414 9.60868 11.0001 9.80202 11.0001 9.9998C11.0001 10.265 10.8947 10.5194 10.7072 10.7069C10.5196 10.8944 10.2653 10.9998 10.0001 10.9998ZM12.0001 7.9998C11.8023 7.9998 11.6089 7.94115 11.4445 7.83127C11.28 7.72139 11.1519 7.56521 11.0762 7.38248C11.0005 7.19976 10.9807 6.99869 11.0193 6.80471C11.0579 6.61073 11.1531 6.43254 11.293 6.29269C11.4328 6.15284 11.611 6.0576 11.805 6.01901C11.9989 5.98043 12.2 6.00023 12.3827 6.07592C12.5655 6.15161 12.7216 6.27978 12.8315 6.44423C12.9414 6.60868 13.0001 6.80202 13.0001 6.9998C13.0001 7.26501 12.8947 7.51937 12.7072 7.7069C12.5196 7.89444 12.2653 7.9998 12.0001 7.9998ZM14.0001 10.9998C13.8023 10.9998 13.6089 10.9411 13.4445 10.8313C13.28 10.7214 13.1519 10.5652 13.0762 10.3825C13.0005 10.1998 12.9807 9.99869 13.0193 9.80471C13.0579 9.61073 13.1531 9.43254 13.2929 9.29269C13.4328 9.15284 13.611 9.0576 13.805 9.01901C13.9989 8.98043 14.2 9.00023 14.3827 9.07592C14.5655 9.15161 14.7216 9.27978 14.8315 9.44423C14.9414 9.60868 15.0001 9.80202 15.0001 9.9998C15.0001 10.265 14.8947 10.5194 14.7072 10.7069C14.5196 10.8944 14.2653 10.9998 14.0001 10.9998Z" fill="#141414"/>
</svg>
