<svg width="24" height="24" viewBox="0 0 24 24" fill="none" xmlns="http://www.w3.org/2000/svg">
<path d="M20.5 13C20.3113 13.0008 20.1245 13.0381 19.95 13.11L17.74 12L20 10.89C20.1745 10.9619 20.3613 10.9992 20.55 11C20.8297 11.0011 21.1041 10.9239 21.3423 10.7772C21.5804 10.6306 21.7728 10.4202 21.8977 10.17C22.0227 9.91975 22.0751 9.63957 22.0492 9.36108C22.0233 9.08259 21.9201 8.81689 21.7511 8.59398C21.5822 8.37108 21.3543 8.19984 21.0932 8.09962C20.8321 7.9994 20.5481 7.97418 20.2734 8.02681C19.9987 8.07944 19.7442 8.20782 19.5386 8.39746C19.3331 8.5871 19.1846 8.83044 19.11 9.1L16.11 10.61C15.9355 10.5381 15.7487 10.5008 15.56 10.5C15.1622 10.5 14.7806 10.658 14.4993 10.9393C14.218 11.2206 14.06 11.6022 14.06 12C14.06 12.3978 14.218 12.7794 14.4993 13.0607C14.7806 13.342 15.1622 13.5 15.56 13.5C15.7487 13.4992 15.9355 13.4619 16.11 13.39L19.11 14.9C19.1853 15.1715 19.3356 15.4163 19.5436 15.6064C19.7516 15.7964 20.009 15.924 20.2861 15.9746C20.5633 16.0252 20.8492 15.9967 21.1109 15.8923C21.3726 15.788 21.5997 15.612 21.766 15.3846C21.9324 15.1572 22.0313 14.8876 22.0515 14.6065C22.0717 14.3255 22.0124 14.0445 21.8803 13.7956C21.7481 13.5467 21.5486 13.3401 21.3045 13.1994C21.0604 13.0587 20.7816 12.9896 20.5 13ZM5.5 11H12.09C12.3261 9.60294 13.0491 8.33452 14.1308 7.41939C15.2125 6.50425 16.5831 6.00144 18 6H21.65C21.368 5.40272 20.9223 4.89773 20.3647 4.54369C19.8071 4.18966 19.1605 4.00113 18.5 4H5.5C4.57174 4 3.6815 4.36875 3.02513 5.02513C2.36875 5.6815 2 6.57174 2 7.5C2 8.42826 2.36875 9.3185 3.02513 9.97487C3.6815 10.6313 4.57174 11 5.5 11ZM9.5 6.5C9.69778 6.5 9.89112 6.55865 10.0556 6.66853C10.22 6.77841 10.3482 6.93459 10.4239 7.11732C10.4996 7.30004 10.5194 7.50111 10.4808 7.69509C10.4422 7.88907 10.347 8.06725 10.2071 8.20711C10.0673 8.34696 9.88907 8.4422 9.69509 8.48079C9.50111 8.51937 9.30004 8.49957 9.11732 8.42388C8.93459 8.34819 8.77841 8.22002 8.66853 8.05557C8.55865 7.89112 8.5 7.69778 8.5 7.5C8.5 7.23478 8.60536 6.98043 8.79289 6.79289C8.98043 6.60536 9.23478 6.5 9.5 6.5ZM5.5 6.5C5.69778 6.5 5.89112 6.55865 6.05557 6.66853C6.22002 6.77841 6.34819 6.93459 6.42388 7.11732C6.49957 7.30004 6.51937 7.50111 6.48079 7.69509C6.4422 7.88907 6.34696 8.06725 6.20711 8.20711C6.06725 8.34696 5.88907 8.4422 5.69509 8.48079C5.50111 8.51937 5.30004 8.49957 5.11732 8.42388C4.93459 8.34819 4.77841 8.22002 4.66853 8.05557C4.55865 7.89112 4.5 7.69778 4.5 7.5C4.5 7.23478 4.60536 6.98043 4.79289 6.79289C4.98043 6.60536 5.23478 6.5 5.5 6.5ZM12.09 13H5.5C4.57174 13 3.6815 13.3687 3.02513 14.0251C2.36875 14.6815 2 15.5717 2 16.5C2 17.4283 2.36875 18.3185 3.02513 18.9749C3.6815 19.6313 4.57174 20 5.5 20H18.5C19.1605 19.9989 19.8071 19.8103 20.3647 19.4563C20.9223 19.1023 21.368 18.5973 21.65 18H18C16.5831 17.9986 15.2125 17.4958 14.1308 16.5806C13.0491 15.6655 12.3261 14.3971 12.09 13ZM5.5 17.5C5.30222 17.5 5.10888 17.4414 4.94443 17.3315C4.77998 17.2216 4.65181 17.0654 4.57612 16.8827C4.50043 16.7 4.48063 16.4989 4.51921 16.3049C4.5578 16.1109 4.65304 15.9327 4.79289 15.7929C4.93275 15.653 5.11093 15.5578 5.30491 15.5192C5.49889 15.4806 5.69996 15.5004 5.88268 15.5761C6.06541 15.6518 6.22159 15.78 6.33147 15.9444C6.44135 16.1089 6.5 16.3022 6.5 16.5C6.5 16.7652 6.39464 17.0196 6.20711 17.2071C6.01957 17.3946 5.76522 17.5 5.5 17.5ZM9.5 17.5C9.30222 17.5 9.10888 17.4414 8.94443 17.3315C8.77998 17.2216 8.65181 17.0654 8.57612 16.8827C8.50043 16.7 8.48063 16.4989 8.51921 16.3049C8.5578 16.1109 8.65304 15.9327 8.79289 15.7929C8.93275 15.653 9.11093 15.5578 9.30491 15.5192C9.49889 15.4806 9.69996 15.5004 9.88268 15.5761C10.0654 15.6518 10.2216 15.78 10.3315 15.9444C10.4414 16.1089 10.5 16.3022 10.5 16.5C10.5 16.7652 10.3946 17.0196 10.2071 17.2071C10.0196 17.3946 9.76522 17.5 9.5 17.5Z" fill="#141414"/>
</svg>
