<svg width="24" height="24" viewBox="0 0 24 24" fill="none" xmlns="http://www.w3.org/2000/svg">
<path d="M12 2C9.74647 2.00265 7.586 2.89903 5.99252 4.49252C4.39903 6.086 3.50265 8.24647 3.5 10.5C3.5 13.32 3.88 15.82 6 17.36V20C6 20.5304 6.21071 21.0391 6.58579 21.4142C6.96086 21.7893 7.46957 22 8 22H9V20C9 19.7348 9.10536 19.4804 9.29289 19.2929C9.48043 19.1054 9.73478 19 10 19C10.2652 19 10.5196 19.1054 10.7071 19.2929C10.8946 19.4804 11 19.7348 11 20V22H13V20C13 19.7348 13.1054 19.4804 13.2929 19.2929C13.4804 19.1054 13.7348 19 14 19C14.2652 19 14.5196 19.1054 14.7071 19.2929C14.8946 19.4804 15 19.7348 15 20V22H16C16.5304 22 17.0391 21.7893 17.4142 21.4142C17.7893 21.0391 18 20.5304 18 20V17.36C20.12 15.82 20.5 13.36 20.5 10.5C20.4974 8.24647 19.601 6.086 18.0075 4.49252C16.414 2.89903 14.2535 2.00265 12 2ZM8.5 15C8.00555 15 7.5222 14.8534 7.11107 14.5787C6.69995 14.304 6.37952 13.9135 6.1903 13.4567C6.00108 12.9999 5.95157 12.4972 6.04804 12.0123C6.1445 11.5273 6.3826 11.0819 6.73223 10.7322C7.08186 10.3826 7.52732 10.1445 8.01227 10.048C8.49723 9.95157 8.99989 10.0011 9.45671 10.1903C9.91352 10.3795 10.304 10.7 10.5787 11.1111C10.8534 11.5222 11 12.0055 11 12.5C11 13.163 10.7366 13.7989 10.2678 14.2678C9.79893 14.7366 9.16304 15 8.5 15ZM15.5 15C15.0055 15 14.5222 14.8534 14.1111 14.5787C13.7 14.304 13.3795 13.9135 13.1903 13.4567C13.0011 12.9999 12.9516 12.4972 13.048 12.0123C13.1445 11.5273 13.3826 11.0819 13.7322 10.7322C14.0819 10.3826 14.5273 10.1445 15.0123 10.048C15.4972 9.95157 15.9999 10.0011 16.4567 10.1903C16.9135 10.3795 17.304 10.7 17.5787 11.1111C17.8534 11.5222 18 12.0055 18 12.5C18 13.163 17.7366 13.7989 17.2678 14.2678C16.7989 14.7366 16.163 15 15.5 15Z" fill="#141414"/>
</svg>
