<svg width="24" height="24" viewBox="0 0 24 24" fill="none" xmlns="http://www.w3.org/2000/svg">
<path d="M10 17H4C3.73478 17 3.48043 17.1054 3.29289 17.2929C3.10536 17.4804 3 17.7348 3 18C3 18.2652 3.10536 18.5196 3.29289 18.7071C3.48043 18.8946 3.73478 19 4 19H10C10.2652 19 10.5196 18.8946 10.7071 18.7071C10.8946 18.5196 11 18.2652 11 18C11 17.7348 10.8946 17.4804 10.7071 17.2929C10.5196 17.1054 10.2652 17 10 17ZM10 11H4C3.73478 11 3.48043 11.1054 3.29289 11.2929C3.10536 11.4804 3 11.7348 3 12C3 12.2652 3.10536 12.5196 3.29289 12.7071C3.48043 12.8946 3.73478 13 4 13H10C10.2652 13 10.5196 12.8946 10.7071 12.7071C10.8946 12.5196 11 12.2652 11 12C11 11.7348 10.8946 11.4804 10.7071 11.2929C10.5196 11.1054 10.2652 11 10 11ZM18.79 14.29L17.5 15.59V11.5C17.5 11.2348 17.3946 10.9804 17.2071 10.7929C17.0196 10.6054 16.7652 10.5 16.5 10.5C16.2348 10.5 15.9804 10.6054 15.7929 10.7929C15.6054 10.9804 15.5 11.2348 15.5 11.5V15.59L14.21 14.29C14.0217 14.1017 13.7663 13.9959 13.5 13.9959C13.2337 13.9959 12.9783 14.1017 12.79 14.29C12.6017 14.4783 12.4959 14.7337 12.4959 15C12.4959 15.2663 12.6017 15.5217 12.79 15.71L15.79 18.71C15.883 18.8037 15.9936 18.8781 16.1154 18.9289C16.2373 18.9797 16.368 19.0058 16.5 19.0058C16.632 19.0058 16.7627 18.9797 16.8846 18.9289C17.0064 18.8781 17.117 18.8037 17.21 18.71L20.21 15.71C20.3032 15.6168 20.3772 15.5061 20.4277 15.3842C20.4781 15.2624 20.5041 15.1319 20.5041 15C20.5041 14.8681 20.4781 14.7376 20.4277 14.6158C20.3772 14.4939 20.3032 14.3832 20.21 14.29C20.1168 14.1968 20.0061 14.1228 19.8842 14.0723C19.7624 14.0219 19.6319 13.9959 19.5 13.9959C19.3681 13.9959 19.2376 14.0219 19.1158 14.0723C18.9939 14.1228 18.8832 14.1968 18.79 14.29ZM20 5H4C3.73478 5 3.48043 5.10536 3.29289 5.29289C3.10536 5.48043 3 5.73478 3 6C3 6.26522 3.10536 6.51957 3.29289 6.70711C3.48043 6.89464 3.73478 7 4 7H20C20.2652 7 20.5196 6.89464 20.7071 6.70711C20.8946 6.51957 21 6.26522 21 6C21 5.73478 20.8946 5.48043 20.7071 5.29289C20.5196 5.10536 20.2652 5 20 5Z" fill="#141414"/>
</svg>
