<svg width="24" height="24" viewBox="0 0 24 24" fill="none" xmlns="http://www.w3.org/2000/svg">
<path d="M14.47 12.39L12.57 13.8C12.3969 13.9298 12.1864 14 11.97 14C11.7536 14 11.5431 13.9298 11.37 13.8L9.49 12.41C7.89332 12.9376 6.50348 13.9549 5.51794 15.3174C4.5324 16.68 4.00127 18.3184 4 20C4 20.5304 4.21071 21.0391 4.58579 21.4142C4.96086 21.7893 5.46957 22 6 22H18C18.5304 22 19.0391 21.7893 19.4142 21.4142C19.7893 21.0391 20 20.5304 20 20C20.0002 18.31 19.4652 16.6634 18.4717 15.2963C17.4783 13.9292 16.0774 12.9118 14.47 12.39ZM5 8C5.26522 8 5.51957 7.89464 5.70711 7.70711C5.89464 7.51957 6 7.26522 6 7V4H7.5V6.5C7.5 7.69347 7.97411 8.83807 8.81802 9.68198C9.66193 10.5259 10.8065 11 12 11C13.1935 11 14.3381 10.5259 15.182 9.68198C16.0259 8.83807 16.5 7.69347 16.5 6.5V4H19C19.2652 4 19.5196 3.89464 19.7071 3.70711C19.8946 3.51957 20 3.26522 20 3C20 2.73478 19.8946 2.48043 19.7071 2.29289C19.5196 2.10536 19.2652 2 19 2H5C4.73478 2 4.48043 2.10536 4.29289 2.29289C4.10536 2.48043 4 2.73478 4 3V7C4 7.26522 4.10536 7.51957 4.29289 7.70711C4.48043 7.89464 4.73478 8 5 8Z" fill="#141414"/>
</svg>
