<svg width="24" height="24" viewBox="0 0 24 24" fill="none" xmlns="http://www.w3.org/2000/svg">
<path d="M12 2C10.0222 2 8.08879 2.58649 6.4443 3.6853C4.79981 4.78412 3.51809 6.3459 2.76121 8.17317C2.00433 10.0004 1.8063 12.0111 2.19215 13.9509C2.578 15.8907 3.53041 17.6725 4.92894 19.0711C6.32746 20.4696 8.10929 21.422 10.0491 21.8079C11.9889 22.1937 13.9996 21.9957 15.8268 21.2388C17.6541 20.4819 19.2159 19.2002 20.3147 17.5557C21.4135 15.9112 22 13.9778 22 12C22 10.6868 21.7413 9.38642 21.2388 8.17317C20.7363 6.95991 19.9997 5.85752 19.0711 4.92893C18.1425 4.00035 17.0401 3.26375 15.8268 2.7612C14.6136 2.25866 13.3132 2 12 2ZM13.09 12.11L13.92 15.25C13.9589 15.4004 13.9623 15.5578 13.9298 15.7097C13.8973 15.8616 13.8298 16.0039 13.7328 16.1252C13.6357 16.2465 13.5117 16.3435 13.3707 16.4086C13.2296 16.4737 13.0753 16.505 12.92 16.5H11.23C11.079 16.5034 10.9292 16.4725 10.7918 16.4097C10.6544 16.3469 10.5331 16.2537 10.4368 16.1373C10.3406 16.0209 10.272 15.8841 10.2362 15.7374C10.2004 15.5906 10.1982 15.4377 10.23 15.29L10.91 12.09C10.9231 12.0155 10.9191 11.939 10.8983 11.8662C10.8775 11.7935 10.8405 11.7264 10.79 11.67L10.7 11.59C10.2997 11.3066 10.003 10.9003 9.85499 10.4327C9.70697 9.96519 9.71575 9.46209 9.88 9C9.87581 8.95343 9.87581 8.90657 9.88 8.86C10.0972 8.42785 10.4479 8.07719 10.88 7.86H10.94H11.02L11.16 7.8C11.2991 7.74615 11.4431 7.70596 11.59 7.68H12.34C12.8594 7.77489 13.3297 8.04708 13.6708 8.45013C14.0118 8.85317 14.2024 9.36208 14.21 9.89C14.209 10.2487 14.1222 10.6019 13.957 10.9202C13.7917 11.2386 13.5528 11.5128 13.26 11.72C13.2252 11.7447 13.1947 11.7752 13.17 11.81C13.1115 11.8987 13.0834 12.004 13.09 12.11Z" fill="#141414"/>
</svg>
