<svg width="24" height="24" viewBox="0 0 24 24" fill="none" xmlns="http://www.w3.org/2000/svg">
<path d="M20.46 4.68C20.1284 4.29684 19.6638 4.05381 19.16 4C16.9552 3.76898 14.8088 3.14942 12.82 2.17C12.5648 2.04466 12.2843 1.97949 12 1.97949C11.7157 1.97949 11.4352 2.04466 11.18 2.17C9.20579 3.15045 7.07225 3.77019 4.88 4C4.37562 4.04408 3.90514 4.27236 3.55837 4.64127C3.21159 5.01017 3.01282 5.49386 3 6V11C3 17.74 9.75 22 12 22C14.25 22 21 17.75 21 11V6C20.9883 5.50859 20.7961 5.03869 20.46 4.68ZM13.92 15.25C13.9589 15.4004 13.9623 15.5578 13.9298 15.7097C13.8973 15.8616 13.8298 16.0039 13.7328 16.1252C13.6357 16.2465 13.5117 16.3435 13.3706 16.4086C13.2296 16.4737 13.0753 16.505 12.92 16.5H11.23C11.079 16.5034 10.9292 16.4725 10.7918 16.4097C10.6544 16.3469 10.5331 16.2537 10.4368 16.1373C10.3406 16.0209 10.272 15.8841 10.2362 15.7374C10.2004 15.5906 10.1982 15.4377 10.23 15.29L10.91 12.09C10.9231 12.0155 10.9191 11.939 10.8983 11.8662C10.8775 11.7935 10.8405 11.7264 10.79 11.67L10.7 11.59C10.2997 11.3066 10.003 10.9003 9.85499 10.4327C9.70696 9.96519 9.71575 9.46209 9.88 9C9.8758 8.95343 9.8758 8.90657 9.88 8.86C10.0972 8.42785 10.4479 8.07719 10.88 7.86H10.94H11.02L11.16 7.8C11.2991 7.74615 11.4431 7.70596 11.59 7.68H12.34C12.8594 7.77489 13.3297 8.04708 13.6708 8.45013C14.0118 8.85317 14.2024 9.36209 14.21 9.89C14.209 10.2487 14.1222 10.6019 13.957 10.9202C13.7917 11.2386 13.5527 11.5128 13.26 11.72C13.2252 11.7447 13.1947 11.7752 13.17 11.81C13.1142 11.8692 13.0741 11.9413 13.0531 12.0198C13.0322 12.0984 13.0311 12.1809 13.05 12.26L13.92 15.25Z" fill="#141414"/>
</svg>
