<svg width="24" height="24" viewBox="0 0 24 24" fill="none" xmlns="http://www.w3.org/2000/svg">
<path d="M20.12 15.88L14.79 10.55C14.9262 10.0445 14.9968 9.52354 15 9C15 7.4087 14.3679 5.88258 13.2426 4.75736C12.1174 3.63214 10.5913 3 9 3C8.75895 3.00426 8.51843 3.0243 8.28 3.06H8.18C7.99431 3.08373 7.819 3.15911 7.67404 3.27756C7.52907 3.396 7.42027 3.55276 7.36 3.73C7.30569 3.90279 7.29933 4.08709 7.3416 4.26322C7.38387 4.43934 7.47318 4.60068 7.6 4.73L10.24 7.36L7.41 10.24L4.78 7.6C4.65068 7.47318 4.48934 7.38387 4.31322 7.3416C4.13709 7.29933 3.95279 7.30569 3.78 7.36C3.60276 7.42027 3.446 7.52907 3.32756 7.67404C3.20911 7.819 3.13373 7.99431 3.11 8.18V8.28C3.05752 8.51732 3.02078 8.75784 3 9C3 10.5913 3.63214 12.1174 4.75736 13.2426C5.88258 14.3679 7.4087 15 9 15C9.52354 14.9968 10.0445 14.9262 10.55 14.79L15.88 20.12C16.4425 20.6818 17.205 20.9974 18 20.9974C18.795 20.9974 19.5575 20.6818 20.12 20.12C20.6818 19.5575 20.9974 18.795 20.9974 18C20.9974 17.205 20.6818 16.4425 20.12 15.88Z" fill="#141414"/>
</svg>
