<svg width="24" height="24" viewBox="0 0 24 24" fill="none" xmlns="http://www.w3.org/2000/svg">
<path d="M11.9998 3.99979C13.9471 4.00155 15.8269 4.71351 17.2868 6.00218C18.7466 7.29086 19.6864 9.06777 19.9298 10.9998H21.9298C21.6822 8.53293 20.527 6.24601 18.6885 4.58276C16.8499 2.91951 14.459 1.99854 11.9798 1.99854C9.50053 1.99854 7.10967 2.91951 5.27112 4.58276C3.43256 6.24601 2.2774 8.53293 2.02979 10.9998H4.02979C4.27404 9.06092 5.21953 7.27851 6.68781 5.98893C8.15609 4.69935 10.0456 3.99179 11.9998 3.99979ZM17.9998 12.2098C18.0196 10.7275 17.5033 9.28795 16.546 8.15609C15.5887 7.02423 14.2548 6.27623 12.7898 6.04979C12.5281 6.01341 12.264 5.9967 11.9998 5.99979C11.7368 5.9801 11.4728 5.9801 11.2098 5.99979C9.7361 6.22736 8.3953 6.9826 7.43689 8.12496C6.47849 9.26732 5.96777 10.719 5.99979 12.2098C5.99979 12.4193 5.91655 12.6202 5.7684 12.7684C5.62025 12.9166 5.41931 12.9998 5.20979 12.9998H2.04979C2.22856 15.5233 3.35715 17.8853 5.20814 19.6098C7.05913 21.3343 9.49495 22.2931 12.0248 22.2931C14.5546 22.2931 16.9904 21.3343 18.8414 19.6098C20.6924 17.8853 21.821 15.5233 21.9998 12.9998H18.7898C18.5803 12.9998 18.3793 12.9166 18.2312 12.7684C18.083 12.6202 17.9998 12.4193 17.9998 12.2098ZM7.99979 18.9998C7.802 18.9998 7.60866 18.9411 7.44421 18.8313C7.27977 18.7214 7.15159 18.5652 7.07591 18.3825C7.00022 18.1997 6.98041 17.9987 7.019 17.8047C7.05759 17.6107 7.15283 17.4325 7.29268 17.2927C7.43253 17.1528 7.61071 17.0576 7.8047 17.019C7.99868 16.9804 8.19974 17.0002 8.38247 17.0759C8.5652 17.1516 8.72137 17.2798 8.83125 17.4442C8.94114 17.6087 8.99979 17.802 8.99979 17.9998C8.99979 18.265 8.89443 18.5194 8.70689 18.7069C8.51936 18.8944 8.265 18.9998 7.99979 18.9998ZM11.9998 19.9998C11.802 19.9998 11.6087 19.9411 11.4442 19.8313C11.2798 19.7214 11.1516 19.5652 11.0759 19.3825C11.0002 19.1997 10.9804 18.9987 11.019 18.8047C11.0576 18.6107 11.1528 18.4325 11.2927 18.2927C11.4325 18.1528 11.6107 18.0576 11.8047 18.019C11.9987 17.9804 12.1997 18.0002 12.3825 18.0759C12.5652 18.1516 12.7214 18.2798 12.8313 18.4442C12.9411 18.6087 12.9998 18.802 12.9998 18.9998C12.9998 19.265 12.8944 19.5194 12.7069 19.7069C12.5194 19.8944 12.265 19.9998 11.9998 19.9998ZM13.9998 12.9998H9.99979C9.73457 12.9998 9.48022 12.8944 9.29268 12.7069C9.10514 12.5194 8.99979 12.265 8.99979 11.9998C8.99979 11.7346 9.10514 11.4802 9.29268 11.2927C9.48022 11.1051 9.73457 10.9998 9.99979 10.9998H13.9998C14.265 10.9998 14.5194 11.1051 14.7069 11.2927C14.8944 11.4802 14.9998 11.7346 14.9998 11.9998C14.9998 12.265 14.8944 12.5194 14.7069 12.7069C14.5194 12.8944 14.265 12.9998 13.9998 12.9998ZM15.9998 18.9998C15.802 18.9998 15.6087 18.9411 15.4442 18.8313C15.2798 18.7214 15.1516 18.5652 15.0759 18.3825C15.0002 18.1997 14.9804 17.9987 15.019 17.8047C15.0576 17.6107 15.1528 17.4325 15.2927 17.2927C15.4325 17.1528 15.6107 17.0576 15.8047 17.019C15.9987 16.9804 16.1997 17.0002 16.3825 17.0759C16.5652 17.1516 16.7214 17.2798 16.8313 17.4442C16.9411 17.6087 16.9998 17.802 16.9998 17.9998C16.9998 18.265 16.8944 18.5194 16.7069 18.7069C16.5194 18.8944 16.265 18.9998 15.9998 18.9998Z" fill="#141414"/>
</svg>
