<svg width="24" height="24" viewBox="0 0 24 24" fill="none" xmlns="http://www.w3.org/2000/svg">
<path d="M10.2902 14.2899L8.00019 16.5899V5.99994C8.00019 5.73472 7.89483 5.48037 7.70729 5.29283C7.51976 5.1053 7.2654 4.99994 7.00019 4.99994C6.73497 4.99994 6.48062 5.1053 6.29308 5.29283C6.10554 5.48037 6.00019 5.73472 6.00019 5.99994V16.5899L3.71019 14.2899C3.52188 14.1016 3.26649 13.9958 3.00019 13.9958C2.73388 13.9958 2.47849 14.1016 2.29019 14.2899C2.10188 14.4782 1.99609 14.7336 1.99609 14.9999C1.99609 15.2662 2.10188 15.5216 2.29019 15.7099L6.29019 19.7099C6.38315 19.8037 6.49375 19.8781 6.61561 19.9288C6.73747 19.9796 6.86817 20.0057 7.00019 20.0057C7.1322 20.0057 7.2629 19.9796 7.38476 19.9288C7.50662 19.8781 7.61722 19.8037 7.71019 19.7099L11.7102 15.7099C11.8039 15.617 11.8783 15.5064 11.9291 15.3845C11.9798 15.2627 12.006 15.132 12.006 14.9999C12.006 14.8679 11.9798 14.7372 11.9291 14.6154C11.8783 14.4935 11.8039 14.3829 11.7102 14.2899C11.6172 14.1962 11.5066 14.1218 11.3848 14.071C11.2629 14.0203 11.1322 13.9941 11.0002 13.9941C10.8682 13.9941 10.7375 14.0203 10.6156 14.071C10.4937 14.1218 10.3831 14.1962 10.2902 14.2899ZM21.7102 8.28994L17.7102 4.28994C17.6172 4.19621 17.5066 4.12182 17.3848 4.07105C17.2629 4.02028 17.1322 3.99414 17.0002 3.99414C16.8682 3.99414 16.7375 4.02028 16.6156 4.07105C16.4937 4.12182 16.3831 4.19621 16.2902 4.28994L12.2902 8.28994C12.1965 8.3829 12.1221 8.4935 12.0713 8.61536C12.0205 8.73722 11.9944 8.86793 11.9944 8.99994C11.9944 9.13195 12.0205 9.26266 12.0713 9.38452C12.1221 9.50637 12.1965 9.61698 12.2902 9.70994C12.3831 9.80367 12.4937 9.87806 12.6156 9.92883C12.7375 9.9796 12.8682 10.0057 13.0002 10.0057C13.1322 10.0057 13.2629 9.9796 13.3848 9.92883C13.5066 9.87806 13.6172 9.80367 13.7102 9.70994L16.0002 7.40994V17.9999C16.0002 18.2652 16.1055 18.5195 16.2931 18.707C16.4806 18.8946 16.735 18.9999 17.0002 18.9999C17.2654 18.9999 17.5198 18.8946 17.7073 18.707C17.8948 18.5195 18.0002 18.2652 18.0002 17.9999V7.40994L20.2902 9.70994C20.4785 9.89824 20.7339 10.004 21.0002 10.004C21.2665 10.004 21.5219 9.89824 21.7102 9.70994C21.8985 9.52164 22.0043 9.26624 22.0043 8.99994C22.0043 8.73364 21.8985 8.47824 21.7102 8.28994Z" fill="#141414"/>
</svg>
