<svg width="24" height="24" viewBox="0 0 24 24" fill="none" xmlns="http://www.w3.org/2000/svg">
<path d="M7 20H5C4.73478 20 4.48043 19.8946 4.29289 19.7071C4.10536 19.5196 4 19.2652 4 19V17C4 16.7348 3.89464 16.4804 3.70711 16.2929C3.51957 16.1054 3.26522 16 3 16C2.73478 16 2.48043 16.1054 2.29289 16.2929C2.10536 16.4804 2 16.7348 2 17V19C2 19.7956 2.31607 20.5587 2.87868 21.1213C3.44129 21.6839 4.20435 22 5 22H7C7.26522 22 7.51957 21.8946 7.70711 21.7071C7.89464 21.5196 8 21.2652 8 21C8 20.7348 7.89464 20.4804 7.70711 20.2929C7.51957 20.1054 7.26522 20 7 20ZM3 8C3.26522 8 3.51957 7.89464 3.70711 7.70711C3.89464 7.51957 4 7.26522 4 7V5C4 4.73478 4.10536 4.48043 4.29289 4.29289C4.48043 4.10536 4.73478 4 5 4H7C7.26522 4 7.51957 3.89464 7.70711 3.70711C7.89464 3.51957 8 3.26522 8 3C8 2.73478 7.89464 2.48043 7.70711 2.29289C7.51957 2.10536 7.26522 2 7 2H5C4.20435 2 3.44129 2.31607 2.87868 2.87868C2.31607 3.44129 2 4.20435 2 5V7C2 7.26522 2.10536 7.51957 2.29289 7.70711C2.48043 7.89464 2.73478 8 3 8ZM11.5 7C11.7967 7 12.0867 6.91203 12.3334 6.7472C12.58 6.58238 12.7723 6.34811 12.8858 6.07403C12.9994 5.79994 13.0291 5.49834 12.9712 5.20736C12.9133 4.91639 12.7704 4.64912 12.5607 4.43934C12.3509 4.22956 12.0836 4.0867 11.7926 4.02882C11.5017 3.97094 11.2001 4.00065 10.926 4.11418C10.6519 4.22771 10.4176 4.41997 10.2528 4.66664C10.088 4.91332 10 5.20333 10 5.5C10 5.89782 10.158 6.27936 10.4393 6.56066C10.7206 6.84196 11.1022 7 11.5 7ZM12.5 12.12V10.56C13.3023 10.8475 14.1477 10.9963 15 11C15.2652 11 15.5196 10.8946 15.7071 10.7071C15.8946 10.5196 16 10.2652 16 10C16 9.73478 15.8946 9.48043 15.7071 9.29289C15.5196 9.10536 15.2652 9 15 9C13.9621 8.97843 12.9469 8.69278 12.05 8.17H11.97L11.78 8.1C11.7171 8.08956 11.6529 8.08956 11.59 8.1L11.5 8C11.3 8 9.5 8.06 7.29 10.29C7.19627 10.383 7.12188 10.4936 7.07111 10.6154C7.02034 10.7373 6.9942 10.868 6.9942 11C6.9942 11.132 7.02034 11.2627 7.07111 11.3846C7.12188 11.5064 7.19627 11.617 7.29 11.71C7.38296 11.8037 7.49356 11.8781 7.61542 11.9289C7.73728 11.9797 7.86799 12.0058 8 12.0058C8.13201 12.0058 8.26272 11.9797 8.38458 11.9289C8.50644 11.8781 8.61704 11.8037 8.71 11.71C9.22774 11.1639 9.83265 10.7077 10.5 10.36V12.42C10.2191 14.2139 9.45513 15.8974 8.29 17.29C8.19627 17.383 8.12188 17.4936 8.07111 17.6154C8.02034 17.7373 7.9942 17.868 7.9942 18C7.9942 18.132 8.02034 18.2627 8.07111 18.3846C8.12188 18.5064 8.19627 18.617 8.29 18.71C8.38296 18.8037 8.49356 18.8781 8.61542 18.9289C8.73728 18.9797 8.86799 19.0058 9 19.0058C9.13201 19.0058 9.26272 18.9797 9.38458 18.9289C9.50644 18.8781 9.61704 18.8037 9.71 18.71C10.758 17.5661 11.531 16.198 11.97 14.71C12.7631 15.8955 13.4779 17.1314 14.11 18.41C14.1874 18.5824 14.3121 18.7293 14.4697 18.8337C14.6272 18.9382 14.8111 18.9958 15 19C15.1569 19.0019 15.3117 18.964 15.45 18.89C15.6855 18.7701 15.864 18.5619 15.9465 18.3108C16.0289 18.0597 16.0086 17.7862 15.89 17.55C14.9753 15.6142 13.8376 13.7918 12.5 12.12ZM21 16C20.7348 16 20.4804 16.1054 20.2929 16.2929C20.1054 16.4804 20 16.7348 20 17V19C20 19.2652 19.8946 19.5196 19.7071 19.7071C19.5196 19.8946 19.2652 20 19 20H17C16.7348 20 16.4804 20.1054 16.2929 20.2929C16.1054 20.4804 16 20.7348 16 21C16 21.2652 16.1054 21.5196 16.2929 21.7071C16.4804 21.8946 16.7348 22 17 22H19C19.7956 22 20.5587 21.6839 21.1213 21.1213C21.6839 20.5587 22 19.7956 22 19V17C22 16.7348 21.8946 16.4804 21.7071 16.2929C21.5196 16.1054 21.2652 16 21 16ZM19 2H17C16.7348 2 16.4804 2.10536 16.2929 2.29289C16.1054 2.48043 16 2.73478 16 3C16 3.26522 16.1054 3.51957 16.2929 3.70711C16.4804 3.89464 16.7348 4 17 4H19C19.2652 4 19.5196 4.10536 19.7071 4.29289C19.8946 4.48043 20 4.73478 20 5V7C20 7.26522 20.1054 7.51957 20.2929 7.70711C20.4804 7.89464 20.7348 8 21 8C21.2652 8 21.5196 7.89464 21.7071 7.70711C21.8946 7.51957 22 7.26522 22 7V5C22 4.20435 21.6839 3.44129 21.1213 2.87868C20.5587 2.31607 19.7956 2 19 2Z" fill="#141414"/>
</svg>
