<svg width="24" height="24" viewBox="0 0 24 24" fill="none" xmlns="http://www.w3.org/2000/svg">
<path d="M15.7 2H10.3C9.30644 1.99981 8.32696 2.23539 7.44211 2.68738C6.55726 3.13936 5.79228 3.79486 5.21004 4.6C6.19262 4.20568 7.24129 4.00205 8.30004 4H13.7C15.5279 4.00544 17.3029 4.61412 18.7494 5.73158C20.196 6.84903 21.2332 8.41274 21.7 10.18C21.8969 9.57267 21.9981 8.93843 22 8.3C22 7.47267 21.8371 6.65345 21.5205 5.88909C21.2039 5.12474 20.7398 4.43024 20.1548 3.84523C19.5698 3.26022 18.8753 2.79616 18.1109 2.47956C17.3466 2.16295 16.5274 2 15.7 2ZM13.7 6H8.30004C6.71353 6.00903 5.18883 6.61632 4.03056 7.70054C2.8723 8.78476 2.16575 10.2661 2.05209 11.8485C1.93842 13.431 2.42601 14.9981 3.41743 16.2367C4.40885 17.4754 5.8311 18.2943 7.40004 18.53V20.4C7.40004 20.6507 7.46986 20.8965 7.60166 21.1097C7.73347 21.323 7.92206 21.4954 8.1463 21.6075C8.37055 21.7196 8.62158 21.7671 8.87128 21.7445C9.12098 21.722 9.35947 21.6304 9.56004 21.48L13.4 18.6H13.7C15.3709 18.6 16.9733 17.9363 18.1548 16.7548C19.3363 15.5733 20 13.9709 20 12.3C20 10.6291 19.3363 9.02671 18.1548 7.84523C16.9733 6.66375 15.3709 6 13.7 6Z" fill="#141414"/>
</svg>
