<svg width="24" height="24" viewBox="0 0 24 24" fill="none" xmlns="http://www.w3.org/2000/svg">
<path d="M12 2C10.0222 2 8.08879 2.58649 6.4443 3.6853C4.79981 4.78412 3.51809 6.3459 2.76121 8.17317C2.00433 10.0004 1.8063 12.0111 2.19215 13.9509C2.578 15.8907 3.53041 17.6725 4.92894 19.0711C6.32746 20.4696 8.10929 21.422 10.0491 21.8079C11.9889 22.1937 13.9996 21.9957 15.8268 21.2388C17.6541 20.4819 19.2159 19.2002 20.3147 17.5557C21.4135 15.9112 22 13.9778 22 12C22 10.6868 21.7413 9.38642 21.2388 8.17317C20.7363 6.95991 19.9997 5.85752 19.0711 4.92893C18.1425 4.00035 17.0401 3.26375 15.8268 2.7612C14.6136 2.25866 13.3132 2 12 2ZM7 9.5C7 9.20333 7.08798 8.91332 7.2528 8.66665C7.41762 8.41997 7.65189 8.22771 7.92598 8.11418C8.20007 8.00065 8.50167 7.97094 8.79264 8.02882C9.08361 8.0867 9.35089 8.22956 9.56066 8.43934C9.77044 8.64912 9.9133 8.91639 9.97118 9.20736C10.0291 9.49834 9.99936 9.79994 9.88582 10.074C9.77229 10.3481 9.58003 10.5824 9.33336 10.7472C9.08669 10.912 8.79668 11 8.5 11C8.10218 11 7.72065 10.842 7.43934 10.5607C7.15804 10.2794 7 9.89782 7 9.5ZM16.24 16.71C16.0526 16.8962 15.7992 17.0008 15.535 17.0008C15.2708 17.0008 15.0174 16.8962 14.83 16.71C14.0674 15.9825 13.0539 15.5767 12 15.5767C10.9461 15.5767 9.93261 15.9825 9.17 16.71C8.98264 16.8962 8.72919 17.0008 8.465 17.0008C8.20082 17.0008 7.94737 16.8962 7.76 16.71C7.66628 16.617 7.59188 16.5064 7.54111 16.3846C7.49034 16.2627 7.46421 16.132 7.46421 16C7.46421 15.868 7.49034 15.7373 7.54111 15.6154C7.59188 15.4936 7.66628 15.383 7.76 15.29C8.88501 14.1664 10.41 13.5353 12 13.5353C13.59 13.5353 15.115 14.1664 16.24 15.29C16.3337 15.383 16.4081 15.4936 16.4589 15.6154C16.5097 15.7373 16.5358 15.868 16.5358 16C16.5358 16.132 16.5097 16.2627 16.4589 16.3846C16.4081 16.5064 16.3337 16.617 16.24 16.71ZM15.5 11C15.2033 11 14.9133 10.912 14.6666 10.7472C14.42 10.5824 14.2277 10.3481 14.1142 10.074C14.0007 9.79994 13.9709 9.49834 14.0288 9.20736C14.0867 8.91639 14.2296 8.64912 14.4393 8.43934C14.6491 8.22956 14.9164 8.0867 15.2074 8.02882C15.4983 7.97094 15.7999 8.00065 16.074 8.11418C16.3481 8.22771 16.5824 8.41997 16.7472 8.66665C16.912 8.91332 17 9.20333 17 9.5C17 9.89782 16.842 10.2794 16.5607 10.5607C16.2794 10.842 15.8978 11 15.5 11Z" fill="#141414"/>
</svg>
