<svg width="24" height="24" viewBox="0 0 24 24" fill="none" xmlns="http://www.w3.org/2000/svg">
<path d="M5.5 6C5.79667 6 6.08668 5.91203 6.33336 5.7472C6.58003 5.58238 6.77229 5.34811 6.88582 5.07403C6.99935 4.79994 7.02906 4.49834 6.97118 4.20737C6.9133 3.91639 6.77044 3.64912 6.56066 3.43934C6.35088 3.22956 6.08361 3.0867 5.79264 3.02882C5.50167 2.97094 5.20007 3.00065 4.92598 3.11418C4.65189 3.22771 4.41762 3.41997 4.2528 3.66665C4.08798 3.91332 4 4.20333 4 4.5C4 4.89783 4.15804 5.27936 4.43934 5.56066C4.72065 5.84197 5.10218 6 5.5 6ZM12 19C11.8022 19 11.6089 19.0586 11.4444 19.1685C11.28 19.2784 11.1518 19.4346 11.0761 19.6173C11.0004 19.8 10.9806 20.0011 11.0192 20.1951C11.0578 20.3891 11.153 20.5673 11.2929 20.7071C11.4327 20.847 11.6109 20.9422 11.8049 20.9808C11.9989 21.0194 12.2 20.9996 12.3827 20.9239C12.5654 20.8482 12.7216 20.72 12.8315 20.5556C12.9414 20.3911 13 20.1978 13 20C13 19.7348 12.8946 19.4804 12.7071 19.2929C12.5196 19.1054 12.2652 19 12 19ZM17 8C17.1978 8 17.3911 7.94135 17.5556 7.83147C17.72 7.72159 17.8482 7.56541 17.9239 7.38268C17.9996 7.19996 18.0194 6.99889 17.9808 6.80491C17.9422 6.61093 17.847 6.43275 17.7071 6.29289C17.5673 6.15304 17.3891 6.0578 17.1951 6.01922C17.0011 5.98063 16.8 6.00043 16.6173 6.07612C16.4346 6.15181 16.2784 6.27998 16.1685 6.44443C16.0586 6.60888 16 6.80222 16 7C16 7.26522 16.1054 7.51957 16.2929 7.70711C16.4804 7.89464 16.7348 8 17 8ZM18 9C17.5051 8.99982 17.0178 9.12207 16.5816 9.35587C16.1454 9.58968 15.7738 9.92776 15.5 10.34L14 10C13.9961 9.34093 13.8294 8.69304 13.5147 8.11394C13.2 7.53483 12.7471 7.04245 12.1963 6.68058C11.6454 6.31871 11.0137 6.09856 10.3573 6.03971C9.70081 5.98086 9.03999 6.08512 8.43356 6.34324C7.82712 6.60135 7.29387 7.00531 6.8812 7.51921C6.46853 8.03311 6.18923 8.64101 6.06815 9.28887C5.94707 9.93674 5.98795 10.6045 6.18716 11.2327C6.38636 11.861 6.73773 12.4303 7.21 12.89L6.53 14.08C6.35601 14.0379 6.17866 14.0112 6 14C5.40666 14 4.82664 14.1759 4.33329 14.5056C3.83994 14.8352 3.45543 15.3038 3.22836 15.852C3.0013 16.4001 2.94189 17.0033 3.05765 17.5853C3.1734 18.1672 3.45912 18.7018 3.87868 19.1213C4.29824 19.5409 4.83279 19.8266 5.41473 19.9424C5.99667 20.0581 6.59987 19.9987 7.14805 19.7716C7.69623 19.5446 8.16477 19.1601 8.49441 18.6667C8.82405 18.1734 9 17.5933 9 17C8.9945 16.2824 8.73195 15.5906 8.26 15.05L9 13.84C9.32445 13.9388 9.66092 13.9926 10 14C10.7172 13.9974 11.4205 13.802 12.0362 13.4343C12.652 13.0666 13.1575 12.5401 13.5 11.91L15.03 12.29C15.0862 12.8689 15.3096 13.419 15.6728 13.8733C16.036 14.3276 16.5235 14.6666 17.0758 14.8488C17.6282 15.0311 18.2216 15.0489 18.7839 14.9C19.3462 14.7511 19.853 14.442 20.2428 14.0102C20.6326 13.5785 20.8884 13.0427 20.9792 12.4682C21.07 11.8937 20.9918 11.3051 20.7541 10.7742C20.5165 10.2433 20.1296 9.79298 19.6406 9.47797C19.1517 9.16297 18.5817 8.99691 18 9Z" fill="#141414"/>
</svg>
