<svg width="24" height="24" viewBox="0 0 24 24" fill="none" xmlns="http://www.w3.org/2000/svg">
<path d="M18.82 14.7499C17.5084 15.0971 16.1242 15.0557 14.8357 14.6306C13.5473 14.2056 12.4101 13.4153 11.5626 12.3559C10.715 11.2964 10.1936 10.0135 10.0618 8.66316C9.92992 7.31282 10.1934 5.95327 10.82 4.7499C10.9121 4.57648 10.9511 4.37978 10.9322 4.18433C10.9132 3.98888 10.8372 3.80334 10.7135 3.65084C10.5898 3.49834 10.4239 3.38563 10.2365 3.32678C10.0492 3.26793 9.84869 3.26554 9.66 3.3199C8.21869 3.71299 6.8979 4.45869 5.81677 5.48974C4.73564 6.52078 3.92817 7.80474 3.46721 9.22581C3.00625 10.6469 2.90629 12.1603 3.17634 13.6297C3.4464 15.099 4.07798 16.478 5.01411 17.6423C5.95025 18.8066 7.16149 19.7195 8.53858 20.2988C9.91567 20.878 11.4153 21.1053 12.9022 20.9602C14.3891 20.8151 15.8165 20.3022 17.0556 19.4676C18.2947 18.6331 19.3066 17.5032 20 16.1799C20.0908 16.0073 20.1292 15.812 20.1105 15.6179C20.0917 15.4238 20.0166 15.2394 19.8944 15.0874C19.7722 14.9355 19.6082 14.8226 19.4226 14.7626C19.2371 14.7026 19.038 14.6982 18.85 14.7499H18.82ZM14.5 7.9999H15.29L14.15 9.1499C14.0772 9.21687 14.0273 9.30513 14.0076 9.40209C13.9878 9.49905 13.9992 9.59977 14.04 9.6899C14.0775 9.78121 14.1412 9.85938 14.2231 9.91454C14.3049 9.96971 14.4013 9.99941 14.5 9.9999H16.5C16.6326 9.9999 16.7598 9.94722 16.8536 9.85346C16.9473 9.75969 17 9.63251 17 9.4999C17 9.36729 16.9473 9.24012 16.8536 9.14635C16.7598 9.05258 16.6326 8.9999 16.5 8.9999H15.71L16.85 7.8499C16.9297 7.78793 16.9873 7.70196 17.0143 7.60471C17.0413 7.50745 17.0363 7.40409 17 7.3099C16.9601 7.21201 16.8903 7.12928 16.8004 7.07358C16.7106 7.01789 16.6054 6.99209 16.5 6.9999H14.5C14.3674 6.9999 14.2402 7.05258 14.1464 7.14635C14.0527 7.24012 14 7.36729 14 7.4999C14 7.63251 14.0527 7.75969 14.1464 7.85346C14.2402 7.94722 14.3674 7.9999 14.5 7.9999ZM20.5 4.9999H19.71L20.85 3.8499C20.9297 3.78793 20.9873 3.70196 21.0143 3.60471C21.0413 3.50745 21.0363 3.40409 21 3.3099C20.9601 3.21201 20.8903 3.12928 20.8004 3.07358C20.7106 3.01789 20.6054 2.99209 20.5 2.9999H18.5C18.3674 2.9999 18.2402 3.05258 18.1464 3.14635C18.0527 3.24012 18 3.36729 18 3.4999C18 3.63251 18.0527 3.75969 18.1464 3.85346C18.2402 3.94722 18.3674 3.9999 18.5 3.9999H19.29L18.15 5.1499C18.0772 5.21687 18.0273 5.30513 18.0076 5.40209C17.9878 5.49905 17.9992 5.59977 18.04 5.6899C18.0775 5.78121 18.1412 5.85938 18.2231 5.91454C18.3049 5.96971 18.4013 5.99941 18.5 5.9999H20.5C20.6326 5.9999 20.7598 5.94722 20.8536 5.85346C20.9473 5.75969 21 5.63251 21 5.4999C21 5.36729 20.9473 5.24012 20.8536 5.14635C20.7598 5.05258 20.6326 4.9999 20.5 4.9999Z" fill="#141414"/>
</svg>
