<svg width="24" height="24" viewBox="0 0 24 24" fill="none" xmlns="http://www.w3.org/2000/svg">
<path d="M19.4801 7.65C19.2925 7.44522 19.0643 7.28175 18.8101 7.17C18.5544 7.05912 18.2788 7.00129 18.0001 7H16.0001V6C16.0001 4.93913 15.5787 3.92172 14.8285 3.17157C14.0784 2.42143 13.0609 2 12.0001 2C10.9392 2 9.9218 2.42143 9.17166 3.17157C8.42151 3.92172 8.00008 4.93913 8.00008 6V7H6.00008C5.72136 7.00129 5.4458 7.05912 5.19008 7.17C4.9357 7.28176 4.7074 7.4453 4.51973 7.65018C4.33206 7.85507 4.18914 8.09681 4.10008 8.36C4.01172 8.62378 3.97771 8.90272 4.00008 9.18L5.00008 20.18C5.04605 20.6795 5.27805 21.1435 5.65008 21.48C6.01943 21.8157 6.50096 22.0012 7.00008 22H17.0001C17.4992 22.0012 17.9807 21.8157 18.3501 21.48C18.7221 21.1435 18.9541 20.6795 19.0001 20.18L20.0001 9.18C20.0225 8.90272 19.9884 8.62378 19.9001 8.36C19.8109 8.09672 19.6679 7.85491 19.4801 7.65ZM14.0001 7H10.0001V6C10.0001 5.46957 10.2108 4.96086 10.5859 4.58579C10.9609 4.21071 11.4696 4 12.0001 4C12.5305 4 13.0392 4.21071 13.4143 4.58579C13.7894 4.96086 14.0001 5.46957 14.0001 6V7Z" fill="#141414"/>
</svg>
