<svg width="24" height="24" viewBox="0 0 24 24" fill="none" xmlns="http://www.w3.org/2000/svg">
<path d="M4.65003 15.1099C4.22445 14.1281 4.00329 13.07 4.00003 11.9999C4.00738 10.691 4.33579 9.40384 4.95648 8.25138C5.57716 7.09893 6.47115 6.11639 7.56003 5.38993C7.78016 5.24141 7.93228 5.01153 7.98291 4.75085C8.03355 4.49017 7.97855 4.22006 7.83003 3.99993C7.68151 3.7798 7.45163 3.62769 7.19095 3.57705C6.93028 3.52642 6.66016 3.58141 6.44003 3.72993C4.38942 5.08432 2.9165 7.15366 2.3083 9.53473C1.70009 11.9158 2.00016 14.438 3.15003 16.6099L4.65003 15.1099ZM6.00003 11.9999C6.00388 12.5234 6.07445 13.0443 6.21003 13.5499L8.00003 11.7299C8.04276 11.1586 8.20773 10.6031 8.48377 10.101C8.75982 9.59899 9.14049 9.1621 9.60003 8.81993C9.81221 8.6608 9.95247 8.4239 9.98998 8.16135C10.0275 7.8988 9.95916 7.6321 9.80003 7.41993C9.6409 7.20776 9.404 7.06749 9.14145 7.02998C8.8789 6.99248 8.61221 7.0608 8.40003 7.21993C7.65351 7.77298 7.04738 8.49369 6.6305 9.32397C6.21362 10.1543 5.99766 11.0709 6.00003 11.9999ZM19.71 5.69993L20.71 4.69993C20.8983 4.51163 21.0041 4.25623 21.0041 3.98993C21.0041 3.72363 20.8983 3.46824 20.71 3.27993C20.5217 3.09163 20.2663 2.98584 20 2.98584C19.7337 2.98584 19.4783 3.09163 19.29 3.27993L12.51 10.0599C12.3431 10.019 12.1719 9.99889 12 9.99993C11.4696 9.99993 10.9609 10.2106 10.5858 10.5857C10.2107 10.9608 10 11.4695 10 11.9999C10.0023 12.1722 10.0258 12.3435 10.07 12.5099L3.29003 19.2899C3.1963 19.3829 3.12191 19.4935 3.07114 19.6154C3.02037 19.7372 2.99423 19.8679 2.99423 19.9999C2.99423 20.1319 3.02037 20.2626 3.07114 20.3845C3.12191 20.5064 3.1963 20.617 3.29003 20.7099C3.383 20.8037 3.4936 20.8781 3.61546 20.9288C3.73731 20.9796 3.86802 21.0057 4.00003 21.0057C4.13204 21.0057 4.26275 20.9796 4.38461 20.9288C4.50647 20.8781 4.61707 20.8037 4.71003 20.7099L5.71003 19.7099C5.95003 19.9099 6.19003 20.0899 6.45003 20.2699C6.61557 20.3812 6.81059 20.4404 7.01003 20.4399C7.17214 20.4386 7.33148 20.3978 7.47433 20.3211C7.61718 20.2445 7.73925 20.1342 7.83003 19.9999C7.90373 19.891 7.95522 19.7686 7.98154 19.6397C8.00786 19.5108 8.0085 19.378 7.98342 19.2489C7.95834 19.1198 7.90803 18.9969 7.83538 18.8872C7.76273 18.7776 7.66916 18.6834 7.56003 18.6099C7.41014 18.5088 7.26654 18.3985 7.13003 18.2799L8.55003 16.8599C8.6879 16.9392 8.84156 16.987 9.00003 16.9999C9.15528 16.9999 9.30839 16.9638 9.44725 16.8944C9.5861 16.8249 9.70689 16.7241 9.80003 16.5999C9.90027 16.4551 9.96045 16.2863 9.9745 16.1107C9.98855 15.9351 9.95596 15.7589 9.88003 15.5999L11.49 13.9999C11.6594 14.0208 11.8307 14.0208 12 13.9999C12.5305 13.9999 13.0392 13.7892 13.4142 13.4141C13.7893 13.0391 14 12.5304 14 11.9999C13.9978 11.8277 13.9743 11.6564 13.93 11.4899L15.42 9.99993C15.7929 10.6009 15.9936 11.2927 16 11.9999C16.0024 12.6185 15.8588 13.2289 15.5807 13.7815C15.3027 14.3341 14.8982 14.8132 14.4 15.1799C14.1879 15.3391 14.0476 15.576 14.0101 15.8385C13.9726 16.1011 14.0409 16.3678 14.2 16.5799C14.2932 16.7041 14.414 16.8049 14.5528 16.8744C14.6917 16.9438 14.8448 16.9799 15 16.9799C15.2164 16.9799 15.4269 16.9098 15.6 16.7799C16.3466 16.2269 16.9527 15.5062 17.3696 14.6759C17.7864 13.8456 18.0024 12.929 18 11.9999C18.0031 10.757 17.6109 9.5453 16.88 8.53993L18.29 7.12993C19.3927 8.51411 19.9953 10.2303 20 11.9999C19.9927 13.3089 19.6643 14.596 19.0436 15.7485C18.4229 16.9009 17.5289 17.8835 16.44 18.6099C16.3309 18.6834 16.2373 18.7776 16.1647 18.8872C16.092 18.9969 16.0417 19.1198 16.0166 19.2489C15.9916 19.378 15.9922 19.5108 16.0185 19.6397C16.0448 19.7686 16.0963 19.891 16.17 19.9999C16.2618 20.1356 16.3854 20.2467 16.5301 20.3235C16.6749 20.4002 16.8362 20.4402 17 20.4399C17.1995 20.4404 17.3945 20.3812 17.56 20.2699C18.9203 19.36 20.0365 18.1301 20.8106 16.6882C21.5848 15.2463 21.9932 13.6365 22 11.9999C21.9967 9.69679 21.1864 7.46762 19.71 5.69993Z" fill="#141414"/>
</svg>
