<svg width="24" height="24" viewBox="0 0 24 24" fill="none" xmlns="http://www.w3.org/2000/svg">
<path d="M14.0001 19.9998H10.0001C9.73484 19.9998 9.48049 20.1052 9.29295 20.2927C9.10541 20.4802 9.00006 20.7346 9.00006 20.9998C9.00006 21.265 9.10541 21.5194 9.29295 21.7069C9.48049 21.8944 9.73484 21.9998 10.0001 21.9998H14.0001C14.2653 21.9998 14.5196 21.8944 14.7072 21.7069C14.8947 21.5194 15.0001 21.265 15.0001 20.9998C15.0001 20.7346 14.8947 20.4802 14.7072 20.2927C14.5196 20.1052 14.2653 19.9998 14.0001 19.9998ZM11.8801 1.9998C10.096 2.05285 8.39744 2.77586 7.12249 4.02487C5.84754 5.27388 5.08977 6.95725 5.00006 8.7398C4.9594 9.87945 5.19779 11.0118 5.69449 12.0383C6.19119 13.0648 6.93117 13.9544 7.85006 14.6298C8.21523 14.906 8.5098 15.2648 8.70969 15.6767C8.90957 16.0886 9.00907 16.542 9.00006 16.9998C9.00006 17.265 9.10541 17.5194 9.29295 17.7069C9.48049 17.8944 9.73484 17.9998 10.0001 17.9998H14.0001C14.2653 17.9998 14.5196 17.8944 14.7072 17.7069C14.8947 17.5194 15.0001 17.265 15.0001 16.9998C14.9903 16.5482 15.0875 16.1008 15.284 15.6941C15.4804 15.2873 15.7703 14.9329 16.1301 14.6598C17.3346 13.7838 18.2283 12.5465 18.6813 11.1278C19.1343 9.70899 19.123 8.1827 18.6491 6.77079C18.1751 5.35888 17.2631 4.13495 16.0458 3.27693C14.8284 2.4189 13.3691 1.97151 11.8801 1.9998Z" fill="#141414"/>
</svg>
