<svg width="24" height="24" viewBox="0 0 24 24" fill="none" xmlns="http://www.w3.org/2000/svg">
<path d="M21 13.0001H19.5C19.725 11.9015 19.725 10.7687 19.5 9.67012C19.4026 9.07602 19.1468 8.51916 18.7597 8.0581C18.3725 7.59705 17.8683 7.24885 17.3 7.05012C15.05 6.30012 11.63 6.63012 8.12 12.4901C7.39 13.7101 6.53 14.3201 5.8 14.1201C5.56541 14.0419 5.36162 13.8914 5.21789 13.6902C5.07416 13.489 4.99788 13.2474 5 13.0001C5 12.0001 6.17 10.7201 7.2 9.55012C7.79256 8.92512 8.33742 8.25658 8.83 7.55012C9.2985 6.92435 9.548 6.16178 9.54 5.38012C9.52482 5.02984 9.42615 4.68827 9.2522 4.38386C9.07825 4.07945 8.83407 3.82103 8.54 3.63012C7.16 2.70012 4.66 3.21012 3.17 5.45012C3.05223 5.66968 3.02066 5.92531 3.08148 6.16694C3.14231 6.40856 3.29115 6.61877 3.49885 6.7564C3.70655 6.89404 3.95815 6.94917 4.20437 6.91102C4.45059 6.87286 4.6737 6.74416 4.83 6.55012C5.73 5.21012 7 5.00012 7.44 5.30012C7.47389 5.31801 7.50157 5.34573 7.51941 5.37964C7.53726 5.41354 7.54444 5.45206 7.54 5.49012C7.53304 5.85565 7.40264 6.20808 7.17 6.49012C6.71495 7.09592 6.22757 7.67676 5.71 8.23012C4.38 9.72012 3 11.2701 3 13.0001C2.99901 13.6881 3.22189 14.3578 3.635 14.908C4.04811 15.4582 4.62901 15.8591 5.29 16.0501C5.9 16.2201 8.04 16.5401 9.86 13.5101C11.42 10.9101 13.86 8.01012 16.68 8.95012C16.85 9.00012 17.34 9.17012 17.57 10.1301C17.7419 11.1045 17.6976 12.1048 17.44 13.0601C16.3072 13.1051 15.1817 13.2626 14.08 13.5301C10.71 14.4101 10 16.4501 10 18.0001C9.96315 18.5603 10.0974 19.1185 10.3849 19.6006C10.6724 20.0828 11.0997 20.4662 11.61 20.7001C11.9288 20.8245 12.2678 20.8889 12.61 20.8901C13.61 20.8901 14.94 20.4401 16.68 18.7101C17.6861 17.6463 18.4562 16.3821 18.94 15.0001H21C21.2652 15.0001 21.5196 14.8948 21.7071 14.7072C21.8946 14.5197 22 14.2653 22 14.0001C22 13.7349 21.8946 13.4805 21.7071 13.293C21.5196 13.1055 21.2652 13.0001 21 13.0001ZM15.29 17.2901C13.75 18.8301 12.73 18.9901 12.37 18.8501C12.01 18.7101 12 18.1601 12 18.0001C12 17.1301 12.29 16.0601 14.59 15.4601C15.2921 15.2848 16.0081 15.171 16.73 15.1201C16.3748 15.9189 15.8881 16.6525 15.29 17.2901Z" fill="#141414"/>
</svg>
