<svg width="24" height="24" viewBox="0 0 24 24" fill="none" xmlns="http://www.w3.org/2000/svg">
<path d="M17.6401 8.34014C16.3321 7.03096 14.6106 6.21577 12.769 6.03343C10.9274 5.85109 9.07947 6.31288 7.54012 7.34014C6.55818 7.99765 5.73411 8.86453 5.12713 9.87848C4.52015 10.8924 4.14534 12.0283 4.02964 13.2043C3.91395 14.3804 4.06024 15.5675 4.45801 16.6803C4.85577 17.793 5.49513 18.8039 6.33012 19.6401C7.44661 20.7643 8.87497 21.5272 10.4301 21.8301C12.1122 22.1617 13.8562 21.9442 15.4053 21.2096C16.9544 20.475 18.2265 19.2622 19.0341 17.75C19.8418 16.2377 20.1423 14.506 19.8913 12.8101C19.6403 11.1141 18.8512 9.54366 17.6401 8.33014V8.34014ZM14.1101 16.1201C13.7594 16.4676 13.3283 16.7232 12.8551 16.8641C12.382 17.0051 11.8813 17.0271 11.3976 16.9281C10.9139 16.8292 10.4621 16.6125 10.0823 16.2971C9.70242 15.9817 9.40628 15.5774 9.22012 15.1201C8.99288 14.5719 8.93335 13.9686 9.04905 13.3865C9.16475 12.8045 9.45049 12.2698 9.87012 11.8501C10.2898 11.4305 10.8244 11.1448 11.4065 11.0291C11.9886 10.9134 12.5919 10.9729 13.1401 11.2001C13.5974 11.3863 14.0017 11.6824 14.317 12.0623C14.6324 12.4421 14.8492 12.8939 14.9481 13.3777C15.047 13.8614 15.025 14.362 14.8841 14.8352C14.7432 15.3083 14.4876 15.7394 14.1401 16.0901L14.1101 16.1201ZM12.0001 13.0001C11.8023 13.0001 11.609 13.0588 11.4445 13.1687C11.2801 13.2786 11.1519 13.4347 11.0762 13.6175C11.0006 13.8002 10.9807 14.0012 11.0193 14.1952C11.0579 14.3892 11.1532 14.5674 11.293 14.7072C11.4329 14.8471 11.611 14.9423 11.805 14.9809C11.999 15.0195 12.2001 14.9997 12.3828 14.924C12.5655 14.8483 12.7217 14.7202 12.8316 14.5557C12.9415 14.3913 13.0001 14.1979 13.0001 14.0001C13.0001 13.7349 12.8948 13.4806 12.7072 13.293C12.5197 13.1055 12.2653 13.0001 12.0001 13.0001ZM7.25012 4.49014C7.34457 4.5892 7.46106 4.66457 7.59012 4.71014C7.71628 4.76399 7.85317 4.78794 7.99012 4.78014C8.12849 4.78027 8.26514 4.74952 8.39012 4.69014C10.7306 3.77546 13.3296 3.77546 15.6701 4.69014C15.7848 4.73547 15.9068 4.7592 16.0301 4.76014C16.2616 4.75547 16.4842 4.67065 16.6601 4.52014C16.8411 4.37533 16.9622 4.16878 17.0001 3.94014C17.0422 3.71314 17.0044 3.47858 16.8933 3.27626C16.7821 3.07393 16.6043 2.91631 16.3901 2.83014C13.5876 1.7298 10.4726 1.7298 7.67012 2.83014C7.53882 2.8589 7.41574 2.91702 7.31012 3.00014C7.20227 3.08922 7.11668 3.20221 7.06012 3.33014C6.99776 3.45092 6.96357 3.58426 6.96012 3.72014C6.94197 3.86468 6.95563 4.01143 7.00012 4.15014C7.06028 4.27881 7.14524 4.39435 7.25012 4.49014Z" fill="#141414"/>
</svg>
