<svg width="24" height="24" viewBox="0 0 24 24" fill="none" xmlns="http://www.w3.org/2000/svg">
<path d="M21 17C20.0786 16.9775 19.1655 17.1801 18.34 17.59C17.7705 17.8782 17.138 18.0192 16.5 18C15.8588 18.02 15.2227 17.8791 14.65 17.59C13.8276 17.1813 12.9181 16.9788 12 17C11.0786 16.9775 10.1655 17.1801 9.34 17.59C8.77055 17.8782 8.13795 18.0192 7.5 18C6.85877 18.02 6.22274 17.8791 5.65 17.59C4.82857 17.1786 3.9184 16.9759 3 17C2.73478 17 2.48043 17.1054 2.29289 17.2929C2.10536 17.4804 2 17.7348 2 18C2 18.2652 2.10536 18.5196 2.29289 18.7071C2.48043 18.8946 2.73478 19 3 19C3.63795 18.9808 4.27055 19.1218 4.84 19.41C5.66553 19.82 6.57856 20.0225 7.5 20C8.41812 20.0212 9.32761 19.8187 10.15 19.41C10.7227 19.1209 11.3588 18.98 12 19C12.638 18.9808 13.2705 19.1218 13.84 19.41C14.6655 19.82 15.5786 20.0225 16.5 20C17.4213 20.0213 18.3341 19.8188 19.16 19.41C19.7295 19.1218 20.362 18.9808 21 19C21.2652 19 21.5196 18.8946 21.7071 18.7071C21.8946 18.5196 22 18.2652 22 18C22 17.7348 21.8946 17.4804 21.7071 17.2929C21.5196 17.1054 21.2652 17 21 17ZM8 7.00001H9.59C9.8863 6.99927 10.1791 7.06438 10.4471 7.19063C10.7152 7.31687 10.9518 7.50111 11.14 7.73001L12.77 9.62001L10.51 11.12C11.0025 11.0391 11.5009 10.9989 12 11C13.1969 10.9788 14.3821 11.2391 15.46 11.76C15.7667 11.9258 16.1114 12.0085 16.46 12C16.7445 12.0149 17.0287 11.9636 17.29 11.85L12.67 6.44001C12.2939 5.98847 11.8229 5.62535 11.2906 5.37647C10.7583 5.12759 10.1776 4.99905 9.59 5.00001H8C7.73478 5.00001 7.48043 5.10536 7.29289 5.2929C7.10536 5.48044 7 5.73479 7 6.00001C7 6.26522 7.10536 6.51958 7.29289 6.70711C7.48043 6.89465 7.73478 7.00001 8 7.00001ZM17.5 9.00001C17.7967 9.00001 18.0867 8.91203 18.3334 8.74721C18.58 8.58239 18.7723 8.34812 18.8858 8.07403C18.9993 7.79994 19.0291 7.49834 18.9712 7.20737C18.9133 6.9164 18.7704 6.64912 18.5607 6.43934C18.3509 6.22957 18.0836 6.0867 17.7926 6.02883C17.5017 5.97095 17.2001 6.00065 16.926 6.11419C16.6519 6.22772 16.4176 6.41998 16.2528 6.66665C16.088 6.91332 16 7.20333 16 7.50001C16 7.89783 16.158 8.27936 16.4393 8.56067C16.7206 8.84197 17.1022 9.00001 17.5 9.00001ZM3 15C3.63795 14.9808 4.27055 15.1218 4.84 15.41C5.66553 15.82 6.57856 16.0225 7.5 16C8.41812 16.0212 9.32761 15.8187 10.15 15.41C10.7227 15.1209 11.3588 14.98 12 15C12.638 14.9808 13.2705 15.1218 13.84 15.41C14.6655 15.82 15.5786 16.0225 16.5 16C17.4213 16.0213 18.3341 15.8188 19.16 15.41C19.7295 15.1218 20.362 14.9808 21 15C21.2652 15 21.5196 14.8946 21.7071 14.7071C21.8946 14.5196 22 14.2652 22 14C22 13.7348 21.8946 13.4804 21.7071 13.2929C21.5196 13.1054 21.2652 13 21 13C20.0786 12.9775 19.1655 13.1801 18.34 13.59C17.7705 13.8782 17.138 14.0192 16.5 14C15.8588 14.02 15.2227 13.8791 14.65 13.59C13.8276 13.1813 12.9181 12.9788 12 13C11.0786 12.9775 10.1655 13.1801 9.34 13.59C8.77055 13.8782 8.13795 14.0192 7.5 14C6.85877 14.02 6.22274 13.8791 5.65 13.59C4.82857 13.1786 3.9184 12.9759 3 13C2.73478 13 2.48043 13.1054 2.29289 13.2929C2.10536 13.4804 2 13.7348 2 14C2 14.2652 2.10536 14.5196 2.29289 14.7071C2.48043 14.8946 2.73478 15 3 15Z" fill="#141414"/>
</svg>
