<svg width="24" height="24" viewBox="0 0 24 24" fill="none" xmlns="http://www.w3.org/2000/svg">
<path d="M14.0001 19.9998H10.0001C9.73484 19.9998 9.48049 20.1052 9.29295 20.2927C9.10541 20.4802 9.00006 20.7346 9.00006 20.9998C9.00006 21.265 9.10541 21.5194 9.29295 21.7069C9.48049 21.8944 9.73484 21.9998 10.0001 21.9998H14.0001C14.2653 21.9998 14.5196 21.8944 14.7072 21.7069C14.8947 21.5194 15.0001 21.265 15.0001 20.9998C15.0001 20.7346 14.8947 20.4802 14.7072 20.2927C14.5196 20.1052 14.2653 19.9998 14.0001 19.9998ZM11.8801 1.9998C10.096 2.05285 8.39744 2.77586 7.12249 4.02487C5.84754 5.27388 5.08977 6.95725 5.00006 8.7398C4.9594 9.87945 5.19779 11.0118 5.69449 12.0383C6.19119 13.0648 6.93117 13.9544 7.85006 14.6298C8.21523 14.906 8.5098 15.2648 8.70969 15.6767C8.90957 16.0886 9.00907 16.542 9.00006 16.9998C9.00006 17.265 9.10541 17.5194 9.29295 17.7069C9.48049 17.8944 9.73484 17.9998 10.0001 17.9998H14.0001C14.2653 17.9998 14.5196 17.8944 14.7072 17.7069C14.8947 17.5194 15.0001 17.265 15.0001 16.9998C14.9903 16.5482 15.0875 16.1008 15.284 15.6941C15.4804 15.2873 15.7703 14.9329 16.1301 14.6598C17.3346 13.7838 18.2283 12.5465 18.6813 11.1278C19.1343 9.70899 19.123 8.1827 18.6491 6.77079C18.1751 5.35888 17.2631 4.13495 16.0458 3.27693C14.8284 2.4189 13.3691 1.97151 11.8801 1.9998ZM14.7101 11.7098L12.7101 13.7098C12.6166 13.8025 12.5058 13.8758 12.384 13.9256C12.2621 13.9753 12.1317 14.0006 12.0001 13.9998C11.8689 14.0032 11.7387 13.9758 11.6201 13.9198C11.4374 13.8448 11.2811 13.7174 11.1708 13.5537C11.0604 13.3899 11.001 13.1972 11.0001 12.9998V8.4098L10.7101 8.7098C10.5218 8.8981 10.2664 9.00389 10.0001 9.00389C9.73376 9.00389 9.47836 8.8981 9.29006 8.7098C9.10175 8.52149 8.99597 8.2661 8.99597 7.9998C8.99597 7.7335 9.10175 7.4781 9.29006 7.2898L11.2901 5.2898C11.4307 5.15104 11.6093 5.05704 11.8032 5.01967C11.9972 4.9823 12.1979 5.00322 12.3801 5.0798C12.5627 5.15482 12.719 5.28222 12.8293 5.44594C12.9397 5.60966 12.9991 5.80237 13.0001 5.9998V10.5898L13.2901 10.2898C13.4784 10.1015 13.7338 9.99571 14.0001 9.99571C14.2664 9.99571 14.5218 10.1015 14.7101 10.2898C14.8984 10.4781 15.0041 10.7335 15.0041 10.9998C15.0041 11.2661 14.8984 11.5215 14.7101 11.7098Z" fill="#141414"/>
</svg>
