<svg width="24" height="24" viewBox="0 0 24 24" fill="none" xmlns="http://www.w3.org/2000/svg">
<path d="M5.9999 11C6.53033 11 7.03904 10.7893 7.41411 10.4142C7.78918 10.0391 7.9999 9.53043 7.9999 9V8C7.9999 7.73478 8.10525 7.48043 8.29279 7.29289C8.48033 7.10536 8.73468 7 8.9999 7H14.9999C15.2651 7 15.5195 7.10536 15.707 7.29289C15.8945 7.48043 15.9999 7.73478 15.9999 8H19.9999C20.3376 8.00657 20.6733 8.05357 20.9999 8.14V7.6C21.0051 7.16642 20.8642 6.74371 20.5999 6.4C19.7199 5.28 17.2899 3 11.9999 3C6.7099 3 4.2799 5.28 3.3999 6.4C3.13555 6.74371 2.99464 7.16642 2.9999 7.6V9C2.9999 9.53043 3.21061 10.0391 3.58568 10.4142C3.96076 10.7893 4.46946 11 4.9999 11H5.9999ZM21.4099 10.59C21.0365 10.2144 20.5295 10.0022 19.9999 10H15.9999C15.4695 10 14.9608 10.2107 14.5857 10.5858C14.2106 10.9609 13.9999 11.4696 13.9999 12V20C13.9999 20.5304 14.2106 21.0391 14.5857 21.4142C14.9608 21.7893 15.4695 22 15.9999 22H19.9999C20.5303 22 21.039 21.7893 21.4141 21.4142C21.7892 21.0391 21.9999 20.5304 21.9999 20V12C21.9977 11.4704 21.7855 10.9634 21.4099 10.59ZM18.7099 19.71C18.5453 19.8748 18.3284 19.9769 18.0965 19.9988C17.8647 20.0207 17.6324 19.961 17.4399 19.83C17.2757 19.7214 17.1498 19.564 17.0799 19.38C16.996 19.199 16.9681 18.997 16.9999 18.8C17.0369 18.6015 17.1331 18.4188 17.2759 18.276C17.4187 18.1332 17.6014 18.037 17.7999 18C17.9949 17.9619 18.1968 17.9828 18.3799 18.06C18.5639 18.1299 18.7213 18.2558 18.8299 18.42C18.9609 18.6125 19.0206 18.8448 18.9987 19.0766C18.9768 19.3085 18.8747 19.5254 18.7099 19.69V19.71ZM8.8299 11.83C8.45815 12.2013 8.01688 12.4958 7.5313 12.6965C7.04572 12.8973 6.52534 13.0004 5.9999 13C5.46946 13 4.96076 13.2107 4.58568 13.5858C4.21061 13.9609 3.9999 14.4696 3.9999 15V18C3.9999 18.7956 4.31597 19.5587 4.87858 20.1213C5.44119 20.6839 6.20425 21 6.9999 21H12.1399C12.0535 20.6735 12.0065 20.3377 11.9999 20V14C11.6021 14 11.2205 13.842 10.9392 13.5607C10.6579 13.2794 10.4999 12.8978 10.4999 12.5C10.4999 12.1022 10.6579 11.7206 10.9392 11.4393C11.2205 11.158 11.6021 11 11.9999 11H12.1399C12.3433 10.2241 12.7754 9.52725 13.3799 9H9.9999C10.0003 9.52544 9.8972 10.0458 9.69644 10.5314C9.49569 11.017 9.20123 11.4582 8.8299 11.83Z" fill="#141414"/>
</svg>
