<svg width="24" height="24" viewBox="0 0 24 24" fill="none" xmlns="http://www.w3.org/2000/svg">
<path d="M12 2C10.0222 2 8.08879 2.58649 6.4443 3.6853C4.79981 4.78412 3.51809 6.3459 2.76121 8.17317C2.00433 10.0004 1.8063 12.0111 2.19215 13.9509C2.578 15.8907 3.53041 17.6725 4.92894 19.0711C6.32746 20.4696 8.10929 21.422 10.0491 21.8079C11.9889 22.1937 13.9996 21.9957 15.8268 21.2388C17.6541 20.4819 19.2159 19.2002 20.3147 17.5557C21.4135 15.9112 22 13.9778 22 12C22 10.6868 21.7413 9.38642 21.2388 8.17317C20.7363 6.95991 19.9997 5.85752 19.0711 4.92893C18.1425 4.00035 17.0401 3.26375 15.8268 2.7612C14.6136 2.25866 13.3132 2 12 2ZM15.5 8C15.7967 8 16.0867 8.08797 16.3334 8.2528C16.58 8.41762 16.7723 8.65189 16.8858 8.92597C16.9994 9.20006 17.0291 9.50166 16.9712 9.79264C16.9133 10.0836 16.7704 10.3509 16.5607 10.5607C16.3509 10.7704 16.0836 10.9133 15.7926 10.9712C15.5017 11.0291 15.2001 10.9994 14.926 10.8858C14.6519 10.7723 14.4176 10.58 14.2528 10.3334C14.088 10.0867 14 9.79667 14 9.5C14 9.10218 14.158 8.72064 14.4393 8.43934C14.7206 8.15804 15.1022 8 15.5 8ZM8.5 8C8.79668 8 9.08669 8.08797 9.33336 8.2528C9.58003 8.41762 9.77229 8.65189 9.88582 8.92597C9.99936 9.20006 10.0291 9.50166 9.97118 9.79264C9.9133 10.0836 9.77044 10.3509 9.56066 10.5607C9.35089 10.7704 9.08361 10.9133 8.79264 10.9712C8.50167 11.0291 8.20007 10.9994 7.92598 10.8858C7.65189 10.7723 7.41762 10.58 7.2528 10.3334C7.08798 10.0867 7 9.79667 7 9.5C7 9.10218 7.15804 8.72064 7.43934 8.43934C7.72065 8.15804 8.10218 8 8.5 8ZM6.5 16.6C6.96674 15.5295 7.73575 14.6184 8.71272 13.9786C9.68969 13.3387 10.8322 12.9979 12 12.9979C13.1679 12.9979 14.3103 13.3387 15.2873 13.9786C16.2643 14.6184 17.0333 15.5295 17.5 16.6C17.5662 16.7517 17.5937 16.9174 17.5801 17.0823C17.5665 17.2473 17.5121 17.4063 17.4219 17.545C17.3317 17.6838 17.2085 17.798 17.0633 17.8774C16.9181 17.9568 16.7555 17.9989 16.59 18H7.42C7.25451 17.9989 7.09188 17.9568 6.94668 17.8774C6.80148 17.798 6.67826 17.6838 6.58807 17.545C6.49787 17.4063 6.44353 17.2473 6.4299 17.0823C6.41628 16.9174 6.4438 16.7517 6.51 16.6H6.5Z" fill="#141414"/>
</svg>
