<svg width="24" height="24" viewBox="0 0 24 24" fill="none" xmlns="http://www.w3.org/2000/svg">
<path d="M20 4H4C3.46957 4 2.96086 4.21071 2.58579 4.58579C2.21071 4.96086 2 5.46957 2 6V15C2 15.5304 2.21071 16.0391 2.58579 16.4142C2.96086 16.7893 3.46957 17 4 17H11V19H9C8.73478 19 8.48043 19.1054 8.29289 19.2929C8.10536 19.4804 8 19.7348 8 20C8 20.2652 8.10536 20.5196 8.29289 20.7071C8.48043 20.8946 8.73478 21 9 21H15C15.2652 21 15.5196 20.8946 15.7071 20.7071C15.8946 20.5196 16 20.2652 16 20C16 19.7348 15.8946 19.4804 15.7071 19.2929C15.5196 19.1054 15.2652 19 15 19H13V17H20C20.5304 17 21.0391 16.7893 21.4142 16.4142C21.7893 16.0391 22 15.5304 22 15V6C22 5.46957 21.7893 4.96086 21.4142 4.58579C21.0391 4.21071 20.5304 4 20 4Z" fill="#141414"/>
</svg>
