<svg width="24" height="24" viewBox="0 0 24 24" fill="none" xmlns="http://www.w3.org/2000/svg">
<path d="M20 10H17V9H15V10H11C11 9.20435 10.6839 8.44129 10.1213 7.87868C9.55871 7.31607 8.79565 7 8 7C7.20435 7 6.44129 7.31607 5.87868 7.87868C5.31607 8.44129 5 9.20435 5 10H4C3.73478 10 3.48043 10.1054 3.29289 10.2929C3.10536 10.4804 3 10.7348 3 11C3 11.2652 3.10536 11.5196 3.29289 11.7071C3.48043 11.8946 3.73478 12 4 12V19C4 19.5304 4.21071 20.0391 4.58579 20.4142C4.96086 20.7893 5.46957 21 6 21H18C18.5304 21 19.0391 20.7893 19.4142 20.4142C19.7893 20.0391 20 19.5304 20 19V12C20.2652 12 20.5196 11.8946 20.7071 11.7071C20.8946 11.5196 21 11.2652 21 11C21 10.7348 20.8946 10.4804 20.7071 10.2929C20.5196 10.1054 20.2652 10 20 10ZM13 8H19C19.2652 8 19.5196 7.89464 19.7071 7.70711C19.8946 7.51957 20 7.26522 20 7V4C20 3.73478 19.8946 3.48043 19.7071 3.29289C19.5196 3.10536 19.2652 3 19 3H13C12.7348 3 12.4804 3.10536 12.2929 3.29289C12.1054 3.48043 12 3.73478 12 4V7C12 7.26522 12.1054 7.51957 12.2929 7.70711C12.4804 7.89464 12.7348 8 13 8ZM8 6C8.29667 6 8.58668 5.91203 8.83335 5.7472C9.08003 5.58238 9.27229 5.34811 9.38582 5.07403C9.49935 4.79994 9.52906 4.49834 9.47118 4.20737C9.4133 3.91639 9.27044 3.64912 9.06066 3.43934C8.85088 3.22956 8.58361 3.0867 8.29264 3.02882C8.00166 2.97094 7.70006 3.00065 7.42597 3.11418C7.15189 3.22771 6.91762 3.41997 6.7528 3.66665C6.58797 3.91332 6.5 4.20333 6.5 4.5C6.5 4.89783 6.65804 5.27936 6.93934 5.56066C7.22064 5.84197 7.60218 6 8 6Z" fill="#141414"/>
</svg>
