<svg width="24" height="24" viewBox="0 0 24 24" fill="none" xmlns="http://www.w3.org/2000/svg">
<path d="M8.00007 20.0002C7.73485 20.0002 7.4805 19.8948 7.29296 19.7073C7.10542 19.5198 7.00007 19.2654 7.00007 19.0002V17.0002H10.0001C10.0001 15.1437 10.7376 13.3632 12.0503 12.0504C13.3631 10.7377 15.1436 10.0002 17.0001 10.0002C17.6773 9.99832 18.3512 10.096 19.0001 10.2902V5.00019C19.0001 4.20454 18.684 3.44148 18.1214 2.87887C17.5588 2.31626 16.7957 2.00019 16.0001 2.00019H11.0001C10.5435 1.99502 10.0918 2.09412 9.67938 2.28995C9.26694 2.48577 8.90463 2.77315 8.62007 3.13019L5.62007 6.83019C5.20879 7.36596 4.99033 8.02484 5.00007 8.70019V19.0002C5.00007 19.7958 5.31614 20.5589 5.87875 21.1215C6.44136 21.6841 7.20442 22.0002 8.00007 22.0002H12.1101C11.5191 21.4231 11.035 20.746 10.6801 20.0002H8.00007ZM7.00007 12.0002H10.0001V15.0002H7.00007V12.0002ZM17.0001 12.0002C16.0112 12.0002 15.0445 12.2934 14.2222 12.8428C13.4 13.3923 12.7591 14.1731 12.3807 15.0868C12.0022 16.0004 11.9032 17.0057 12.0961 17.9756C12.2891 18.9456 12.7653 19.8365 13.4645 20.5357C14.1638 21.235 15.0547 21.7112 16.0246 21.9041C16.9945 22.097 17.9999 21.998 18.9135 21.6196C19.8271 21.2412 20.608 20.6003 21.1574 19.778C21.7068 18.9558 22.0001 17.9891 22.0001 17.0002C22.0001 15.6741 21.4733 14.4023 20.5356 13.4647C19.5979 12.527 18.3261 12.0002 17.0001 12.0002ZM18.5001 18.0002C18.5001 18.2654 18.3947 18.5198 18.2072 18.7073C18.0196 18.8948 17.7653 19.0002 17.5001 19.0002H15.5001C15.2349 19.0002 14.9805 18.8948 14.793 18.7073C14.6054 18.5198 14.5001 18.2654 14.5001 18.0002C14.5001 17.735 14.6054 17.4806 14.793 17.2931C14.9805 17.1055 15.2349 17.0002 15.5001 17.0002H16.5001V15.5002C16.5001 15.235 16.6054 14.9806 16.793 14.7931C16.9805 14.6055 17.2349 14.5002 17.5001 14.5002C17.7653 14.5002 18.0196 14.6055 18.2072 14.7931C18.3947 14.9806 18.5001 15.235 18.5001 15.5002V18.0002Z" fill="#141414"/>
</svg>
