<svg width="24" height="24" viewBox="0 0 24 24" fill="none" xmlns="http://www.w3.org/2000/svg">
<path d="M20.9998 7.2099C21.0021 6.87445 20.972 6.53955 20.9098 6.2099C20.8494 5.81679 20.7279 5.43553 20.5498 5.0799C20.3538 4.70933 20.1007 4.37187 19.7998 4.0799C19.3424 3.63167 18.7778 3.30806 18.1598 3.1399C17.5852 3.01611 16.9968 2.96903 16.4098 2.9999H7.58982C7.24982 2.9999 6.91982 2.9999 6.58982 2.9999C6.22871 3.04051 5.87321 3.121 5.52982 3.2399C4.96063 3.458 4.45153 3.80847 4.04463 4.26232C3.63773 4.71617 3.34471 5.26036 3.18982 5.8499C3.04652 6.41156 2.98257 6.99051 2.99982 7.5699V16.4199C2.99982 16.8199 2.99982 17.2199 3.07982 17.6199C3.14194 18.0395 3.26666 18.4473 3.44982 18.8299C3.70953 19.3404 4.07822 19.7876 4.52982 20.1399C4.85516 20.3998 5.22428 20.5996 5.61982 20.7299C6.19695 20.9056 6.79654 20.9966 7.39982 20.9999H8.52982C11.2698 20.9999 14.0198 20.9999 16.7598 20.9999C17.1223 20.9935 17.4835 20.9567 17.8398 20.8899C18.5131 20.7641 19.1391 20.4563 19.6498 19.9999C20.2513 19.4786 20.6686 18.7772 20.8398 17.9999C20.9529 17.481 21.0066 16.9509 20.9998 16.4199V16.3199C20.9998 16.3199 20.9998 7.3299 20.9998 7.2099ZM18.5898 15.5399C18.4798 15.8099 17.8998 16.0299 16.9098 16.1899C16.8198 16.1899 16.7798 16.3499 16.7298 16.5999C16.7298 16.6999 16.6798 16.7999 16.6498 16.8999C16.6405 16.9431 16.6165 16.9817 16.5818 17.0091C16.5471 17.0365 16.504 17.0509 16.4598 17.0499H16.1798C15.9365 16.9981 15.6886 16.9713 15.4398 16.9699C15.262 16.9712 15.0847 16.9879 14.9098 17.0199C14.5426 17.1132 14.2009 17.2875 13.9098 17.5299C13.4115 17.9558 12.7848 18.2023 12.1298 18.2299H11.9698C11.3146 18.2038 10.6873 17.9571 10.1898 17.5299C9.89869 17.2875 9.55702 17.1132 9.18982 17.0199C9.01481 16.9889 8.83755 16.9721 8.65982 16.9699C8.41107 16.9713 8.16312 16.9981 7.91982 17.0499C7.82706 17.0645 7.73258 17.0645 7.63982 17.0499C7.61615 17.0542 7.59185 17.0537 7.56838 17.0484C7.5449 17.0432 7.52272 17.0332 7.50314 17.0193C7.48357 17.0053 7.46699 16.9875 7.4544 16.967C7.4418 16.9465 7.43345 16.9237 7.42982 16.8999C7.42982 16.7999 7.36982 16.6999 7.34982 16.5999C7.34982 16.3499 7.25982 16.1999 7.16982 16.1899C6.16982 16.0399 5.59982 15.8099 5.47982 15.5399C5.47982 15.5399 5.47982 15.4799 5.47982 15.4499C5.47951 15.4107 5.4936 15.3728 5.5194 15.3433C5.54521 15.3138 5.58094 15.2948 5.61982 15.2899C6.40317 15.1236 7.10364 14.6885 7.59982 14.0599C7.88662 13.7429 8.12579 13.3858 8.30982 12.9999C8.36489 12.9112 8.39971 12.8114 8.41181 12.7077C8.42391 12.604 8.41299 12.4989 8.37982 12.3999C8.24982 12.0999 7.82982 11.9699 7.54982 11.8799L7.36982 11.8199C7.11982 11.7199 6.71982 11.5199 6.76982 11.2299C6.80985 11.1231 6.88271 11.0316 6.97792 10.9687C7.07314 10.9059 7.18583 10.8748 7.29982 10.8799C7.35609 10.8704 7.41355 10.8704 7.46982 10.8799C7.67315 10.9896 7.89895 11.0512 8.12982 11.0599C8.2704 11.0714 8.41002 11.0284 8.51982 10.9399C8.51982 10.8099 8.51982 10.6799 8.51982 10.5499C8.38932 9.66222 8.44035 8.75729 8.66982 7.8899C8.9437 7.26868 9.39381 6.74144 9.96438 6.3735C10.535 6.00556 11.2009 5.81308 11.8798 5.8199H12.1498C12.829 5.81178 13.4955 6.00373 14.0663 6.37183C14.6372 6.73993 15.087 7.26789 15.3598 7.8899C15.5926 8.7566 15.6471 9.66155 15.5198 10.5499C15.5198 10.6799 15.5198 10.7899 15.5198 10.8999C15.6191 10.9791 15.7428 11.0215 15.8698 11.0199C16.0877 10.9981 16.3005 10.9407 16.4998 10.8499C16.5618 10.8183 16.6302 10.8012 16.6998 10.7999C16.7822 10.8021 16.8634 10.819 16.9398 10.8499C17.0248 10.8694 17.1019 10.9142 17.1609 10.9785C17.2198 11.0428 17.2578 11.1235 17.2698 11.2099C17.2698 11.3499 17.1698 11.5499 16.6698 11.7499L16.4798 11.8099C16.1998 11.8999 15.7798 12.0399 15.6598 12.3399C15.6268 12.4373 15.616 12.5407 15.6281 12.6428C15.6402 12.7449 15.6749 12.843 15.7298 12.9299C15.9798 13.5061 16.3601 14.0164 16.8408 14.4207C17.3214 14.825 17.8893 15.1123 18.4998 15.2599C18.5378 15.2649 18.5725 15.2843 18.5967 15.314C18.6208 15.3438 18.6327 15.3817 18.6298 15.4199C18.6195 15.464 18.5989 15.5051 18.5698 15.5399H18.5898Z" fill="#141414"/>
</svg>
