<svg width="24" height="24" viewBox="0 0 24 24" fill="none" xmlns="http://www.w3.org/2000/svg">
<path d="M14 7H10C9.20435 7 8.44129 7.31607 7.87868 7.87868C7.31607 8.44129 7 9.20435 7 10V11H17V10C17 9.20435 16.6839 8.44129 16.1213 7.87868C15.5587 7.31607 14.7956 7 14 7ZM14 3C14 2.73478 13.8946 2.48043 13.7071 2.29289C13.5196 2.10536 13.2652 2 13 2H11C10.7348 2 10.4804 2.10536 10.2929 2.29289C10.1054 2.48043 10 2.73478 10 3V5H14V3ZM7 21C7 21.2652 7.10536 21.5196 7.29289 21.7071C7.48043 21.8946 7.73478 22 8 22H16C16.2652 22 16.5196 21.8946 16.7071 21.7071C16.8946 21.5196 17 21.2652 17 21V13H7V21ZM18 5H20C20.2652 5 20.5196 4.89464 20.7071 4.70711C20.8946 4.51957 21 4.26522 21 4C21 3.73478 20.8946 3.48043 20.7071 3.29289C20.5196 3.10536 20.2652 3 20 3H18C17.7348 3 17.4804 3.10536 17.2929 3.29289C17.1054 3.48043 17 3.73478 17 4C17 4.26522 17.1054 4.51957 17.2929 4.70711C17.4804 4.89464 17.7348 5 18 5ZM20.24 6.53L18.24 6.03C17.9788 5.96635 17.7029 6.00908 17.4732 6.14879C17.2435 6.28851 17.0787 6.51376 17.015 6.775C16.9513 7.03624 16.9941 7.31206 17.1338 7.54179C17.2735 7.77153 17.4988 7.93635 17.76 8L19.76 8.5H20C20.2652 8.53183 20.5322 8.45699 20.7423 8.29196C20.9523 8.12693 21.0882 7.88522 21.12 7.62C21.1518 7.35478 21.077 7.08779 20.912 6.87775C20.7469 6.66771 20.5052 6.53183 20.24 6.5V6.53Z" fill="#141414"/>
</svg>
