<svg width="24" height="24" viewBox="0 0 24 24" fill="none" xmlns="http://www.w3.org/2000/svg">
<path d="M9.60002 8.81985C9.81219 8.66072 9.95246 8.42382 9.98997 8.16127C10.0275 7.89872 9.95915 7.63202 9.80002 7.41985C9.64089 7.20767 9.40399 7.06741 9.14144 7.0299C8.87889 6.99239 8.61219 7.06072 8.40002 7.21985C7.66241 7.77945 7.06432 8.50217 6.65256 9.33143C6.2408 10.1607 6.02653 11.074 6.02653 11.9998C6.02653 12.9257 6.2408 13.839 6.65256 14.6683C7.06432 15.4975 7.66241 16.2202 8.40002 16.7798C8.57057 16.9168 8.78134 16.9941 9.00002 16.9998C9.15526 16.9998 9.30837 16.9637 9.44723 16.8943C9.58608 16.8248 9.70687 16.724 9.80002 16.5998C9.87881 16.4948 9.93614 16.3752 9.96873 16.248C10.0013 16.1208 10.0085 15.9884 9.98997 15.8584C9.97139 15.7284 9.9274 15.6034 9.86049 15.4904C9.79358 15.3774 9.70507 15.2786 9.60002 15.1998C9.11079 14.8266 8.71429 14.3454 8.44136 13.7939C8.16844 13.2423 8.02645 12.6352 8.02645 12.0198C8.02645 11.4045 8.16844 10.7974 8.44136 10.2458C8.71429 9.69428 9.11079 9.21314 9.60002 8.83985V8.81985ZM4.00002 11.9998C4.00736 10.6909 4.33578 9.40375 4.95646 8.2513C5.57715 7.09885 6.47114 6.1163 7.56002 5.38985C7.78015 5.24133 7.93226 5.01144 7.98289 4.75077C8.03353 4.49009 7.97854 4.21998 7.83002 3.99985C7.68149 3.77972 7.45161 3.6276 7.19094 3.57697C6.93026 3.52633 6.66015 3.58133 6.44002 3.72985C5.07445 4.63447 3.95414 5.86316 3.17912 7.30623C2.40409 8.7493 1.99847 10.3618 1.99847 11.9998C1.99847 13.6379 2.40409 15.2504 3.17912 16.6935C3.95414 18.1365 5.07445 19.3652 6.44002 20.2698C6.60555 20.3811 6.80057 20.4403 7.00002 20.4398C7.16382 20.4401 7.32517 20.4001 7.4699 20.3234C7.61462 20.2467 7.73829 20.1356 7.83002 19.9998C7.90372 19.8909 7.9552 19.7685 7.98153 19.6396C8.00785 19.5107 8.00848 19.3779 7.9834 19.2488C7.95832 19.1197 7.90802 18.9968 7.83536 18.8872C7.76271 18.7775 7.66914 18.6833 7.56002 18.6098C6.47114 17.8834 5.57715 16.9008 4.95646 15.7484C4.33578 14.5959 4.00736 13.3088 4.00002 11.9998ZM18 11.9998C18.0024 11.0708 17.7864 10.1542 17.3695 9.32389C16.9527 8.49361 16.3465 7.77289 15.6 7.21985C15.495 7.14105 15.3754 7.08372 15.2482 7.05113C15.121 7.01854 14.9886 7.01133 14.8586 7.0299C14.7286 7.04847 14.6035 7.09246 14.4905 7.15937C14.3775 7.22628 14.2788 7.31479 14.2 7.41985C14.1212 7.5249 14.0639 7.64445 14.0313 7.77167C13.9987 7.89888 13.9915 8.03127 14.0101 8.16127C14.0476 8.42382 14.1878 8.66072 14.4 8.81985C14.8892 9.19314 15.2857 9.67428 15.5587 10.2258C15.8316 10.7774 15.9736 11.3845 15.9736 11.9998C15.9736 12.6152 15.8316 13.2223 15.5587 13.7739C15.2857 14.3254 14.8892 14.8066 14.4 15.1798C14.1878 15.339 14.0476 15.5759 14.0101 15.8384C13.9726 16.101 14.0409 16.3677 14.2 16.5798C14.2932 16.704 14.4139 16.8048 14.5528 16.8743C14.6917 16.9437 14.8448 16.9798 15 16.9798C15.2164 16.9798 15.4269 16.9097 15.6 16.7798C16.3465 16.2268 16.9527 15.5061 17.3695 14.6758C17.7864 13.8455 18.0024 12.9289 18 11.9998ZM12 9.99985C11.6045 9.99985 11.2178 10.1171 10.8889 10.3369C10.56 10.5567 10.3036 10.869 10.1523 11.2345C10.0009 11.5999 9.96128 12.0021 10.0384 12.39C10.1156 12.778 10.3061 13.1344 10.5858 13.4141C10.8655 13.6938 11.2219 13.8842 11.6098 13.9614C11.9978 14.0386 12.3999 13.999 12.7654 13.8476C13.1308 13.6962 13.4432 13.4399 13.663 13.111C13.8827 12.7821 14 12.3954 14 11.9998C14 11.4694 13.7893 10.9607 13.4142 10.5856C13.0392 10.2106 12.5304 9.99985 12 9.99985ZM17.56 3.72985C17.3399 3.58133 17.0698 3.52633 16.8091 3.57697C16.5484 3.6276 16.3185 3.77972 16.17 3.99985C16.0215 4.21998 15.9665 4.49009 16.0171 4.75077C16.0678 5.01144 16.2199 5.24133 16.44 5.38985C17.5334 6.11149 18.4306 7.09307 19.0514 8.24666C19.6722 9.40025 19.9972 10.6898 19.9972 11.9998C19.9972 13.3099 19.6722 14.5994 19.0514 15.753C18.4306 16.9066 17.5334 17.8882 16.44 18.6098C16.3309 18.6833 16.2373 18.7775 16.1647 18.8872C16.092 18.9968 16.0417 19.1197 16.0166 19.2488C15.9915 19.3779 15.9922 19.5107 16.0185 19.6396C16.0448 19.7685 16.0963 19.8909 16.17 19.9998C16.2617 20.1356 16.3854 20.2467 16.5301 20.3234C16.6749 20.4001 16.8362 20.4401 17 20.4398C17.1995 20.4403 17.3945 20.3811 17.56 20.2698C18.9256 19.3652 20.0459 18.1365 20.8209 16.6935C21.5959 15.2504 22.0016 13.6379 22.0016 11.9998C22.0016 10.3618 21.5959 8.7493 20.8209 7.30623C20.0459 5.86316 18.9256 4.63447 17.56 3.72985Z" fill="#141414"/>
</svg>
