<svg width="24" height="24" viewBox="0 0 24 24" fill="none" xmlns="http://www.w3.org/2000/svg">
<circle cx="12" cy="12" r="10" fill="white"/>
<path d="M12 2C10.0222 2 8.08879 2.58649 6.4443 3.6853C4.79981 4.78412 3.51809 6.3459 2.76121 8.17317C2.00433 10.0004 1.8063 12.0111 2.19215 13.9509C2.578 15.8907 3.53041 17.6725 4.92894 19.0711C6.32746 20.4696 8.10929 21.422 10.0491 21.8079C11.9889 22.1937 13.9996 21.9957 15.8268 21.2388C17.6541 20.4819 19.2159 19.2002 20.3147 17.5557C21.4135 15.9112 22 13.9778 22 12C22 10.6868 21.7413 9.38642 21.2388 8.17317C20.7363 6.95991 19.9997 5.85752 19.0711 4.92893C18.1425 4.00035 17.0401 3.26375 15.8268 2.7612C14.6136 2.25866 13.3132 2 12 2ZM17.21 9.71L11.21 15.71C11.117 15.8037 11.0064 15.8781 10.8846 15.9289C10.7627 15.9797 10.632 16.0058 10.5 16.0058C10.368 16.0058 10.2373 15.9797 10.1154 15.9289C9.99357 15.8781 9.88297 15.8037 9.79 15.71L6.79 12.71C6.69677 12.6168 6.62281 12.5061 6.57234 12.3842C6.52188 12.2624 6.49591 12.1319 6.49591 12C6.49591 11.7337 6.6017 11.4783 6.79 11.29C6.97831 11.1017 7.2337 10.9959 7.5 10.9959C7.76631 10.9959 8.0217 11.1017 8.21 11.29L10.5 13.59L15.79 8.29C15.9783 8.1017 16.2337 7.99591 16.5 7.99591C16.7663 7.99591 17.0217 8.1017 17.21 8.29C17.3983 8.4783 17.5041 8.7337 17.5041 9C17.5041 9.2663 17.3983 9.5217 17.21 9.71Z" fill="#25AB21"/>
</svg>
