<svg width="24" height="24" viewBox="0 0 24 24" fill="none" xmlns="http://www.w3.org/2000/svg">
<path d="M17.65 2.07001C17.2652 1.98448 16.8674 1.97562 16.4791 2.04393C16.0909 2.11224 15.72 2.25639 15.3875 2.46813C15.055 2.67987 14.7676 2.95506 14.5415 3.27796C14.3154 3.60087 14.1552 3.96515 14.07 4.35001L13.48 7.00001H12C10.9391 7.00001 9.92172 7.42143 9.17157 8.17158C8.42143 8.92172 8 9.93914 8 11H7C6.20435 11 5.44129 11.3161 4.87868 11.8787C4.31607 12.4413 4 13.2044 4 14C4 14.7957 4.31607 15.5587 4.87868 16.1213C5.44129 16.6839 6.20435 17 7 17H10V19H7C6.73478 19 6.48043 19.1054 6.29289 19.2929C6.10536 19.4804 6 19.7348 6 20C6 20.2652 6.10536 20.5196 6.29289 20.7071C6.48043 20.8946 6.73478 21 7 21H15C15.2652 21 15.5196 20.8946 15.7071 20.7071C15.8946 20.5196 16 20.2652 16 20C16 19.7348 15.8946 19.4804 15.7071 19.2929C15.5196 19.1054 15.2652 19 15 19H12V17H15C15.6829 17.0003 16.3455 16.7676 16.8783 16.3403C17.411 15.913 17.782 15.3167 17.93 14.65L19.93 5.65001C20.0155 5.26522 20.0244 4.86736 19.9561 4.47915C19.8878 4.09094 19.7436 3.72 19.5319 3.38753C19.3201 3.05506 19.0449 2.76757 18.722 2.5415C18.3991 2.31544 18.0349 2.15522 17.65 2.07001ZM10 11C10 10.4696 10.2107 9.96087 10.5858 9.58579C10.9609 9.21072 11.4696 9.00001 12 9.00001H13L12.55 11H10Z" fill="#141414"/>
</svg>
