<svg width="24" height="24" viewBox="0 0 24 24" fill="none" xmlns="http://www.w3.org/2000/svg">
<path d="M6.49998 2C4.56998 2 2.99998 4.69 2.99998 8C2.96419 9.56695 3.36961 11.1124 4.16998 12.46C5.82274 12.1407 7.49199 11.9137 9.16998 11.78C9.72057 10.5961 10.0039 9.30563 9.99998 8C9.99998 4.69 8.42998 2 6.49998 2ZM5.32998 14.29C5.10944 14.833 4.99733 15.4139 4.99998 16C4.99998 17.93 6.11998 20 7.49998 20C8.87998 20 9.99998 17.93 9.99998 16C10.0067 15.2261 9.81018 14.4641 9.42998 13.79C7.84998 13.91 6.45998 14.1 5.32998 14.29ZM17.5 4C15.57 4 14 6.69 14 10C13.984 11.2876 14.2467 12.5634 14.77 13.74C16.478 13.8444 18.176 14.0751 19.85 14.43C20.6374 13.0889 21.0357 11.5548 21 10C21 6.69 19.43 4 17.5 4ZM14.6 15.74C14.1979 16.4247 13.9905 17.2061 14 18C14 19.93 15.12 22 16.5 22C17.88 22 19 19.93 19 18C19.0046 17.3914 18.8819 16.7885 18.64 16.23C17.3042 15.9866 15.9552 15.823 14.6 15.74Z" fill="#141414"/>
</svg>
