<svg width="24" height="24" viewBox="0 0 24 24" fill="none" xmlns="http://www.w3.org/2000/svg">
<path d="M7.29 4.71C7.38344 4.80268 7.49426 4.87601 7.61609 4.92577C7.73793 4.97554 7.86839 5.00076 8 5H16C16.1316 5.00076 16.2621 4.97554 16.3839 4.92577C16.5057 4.87601 16.6166 4.80268 16.71 4.71L17.71 3.71C17.8488 3.56938 17.9428 3.3908 17.9801 3.19681C18.0175 3.00282 17.9966 2.80211 17.92 2.62C17.845 2.43738 17.7176 2.28105 17.5539 2.17072C17.3901 2.06039 17.1974 2.00099 17 2H7C6.80257 2.00099 6.60986 2.06039 6.44614 2.17072C6.28242 2.28105 6.15502 2.43738 6.08 2.62C6.00342 2.80211 5.9825 3.00282 6.01987 3.19681C6.05725 3.3908 6.15124 3.56938 6.29 3.71L7.29 4.71ZM14.47 12.39L12.57 13.8C12.3969 13.9298 12.1864 14 11.97 14C11.7536 14 11.5431 13.9298 11.37 13.8L9.49 12.41C7.89332 12.9376 6.50348 13.9549 5.51794 15.3174C4.5324 16.68 4.00127 18.3184 4 20C4 20.5304 4.21071 21.0391 4.58579 21.4142C4.96086 21.7893 5.46957 22 6 22H18C18.5304 22 19.0391 21.7893 19.4142 21.4142C19.7893 21.0391 20 20.5304 20 20C20.0002 18.31 19.4652 16.6634 18.4717 15.2963C17.4783 13.9292 16.0774 12.9118 14.47 12.39ZM17 18.5C17.0008 18.5656 16.9879 18.6306 16.962 18.6909C16.9362 18.7512 16.898 18.8054 16.85 18.85L15.85 19.85C15.8051 19.8978 15.7509 19.936 15.6907 19.962C15.6305 19.9881 15.5656 20.0015 15.5 20.0015C15.4344 20.0015 15.3695 19.9881 15.3093 19.962C15.2491 19.936 15.1949 19.8978 15.15 19.85L14.15 18.85C14.102 18.8054 14.0638 18.7512 14.038 18.6909C14.0121 18.6306 13.9992 18.5656 14 18.5V16.5C14 16.3674 14.0527 16.2402 14.1464 16.1464C14.2402 16.0527 14.3674 16 14.5 16H16.5C16.6326 16 16.7598 16.0527 16.8536 16.1464C16.9473 16.2402 17 16.3674 17 16.5V18.5ZM12 11C13.1043 10.999 14.1694 10.5901 14.9907 9.85182C15.812 9.11357 16.3317 8.09798 16.45 7H7.55C7.66832 8.09798 8.18801 9.11357 9.00932 9.85182C9.83062 10.5901 10.8957 10.999 12 11Z" fill="#141414"/>
</svg>
