<svg width="24" height="24" viewBox="0 0 24 24" fill="none" xmlns="http://www.w3.org/2000/svg">
<path d="M7 8H10C10.2652 8 10.5196 7.89464 10.7071 7.70711C10.8946 7.51957 11 7.26522 11 7V5C11 4.73478 10.8946 4.48043 10.7071 4.29289C10.5196 4.10536 10.2652 4 10 4H7C6.73478 4 6.48043 4.10536 6.29289 4.29289C6.10536 4.48043 6 4.73478 6 5V7C6 7.26522 6.10536 7.51957 6.29289 7.70711C6.48043 7.89464 6.73478 8 7 8ZM14 16H17C17.2652 16 17.5196 15.8946 17.7071 15.7071C17.8946 15.5196 18 15.2652 18 15V13C18 12.7348 17.8946 12.4804 17.7071 12.2929C17.5196 12.1054 17.2652 12 17 12H14C13.7348 12 13.4804 12.1054 13.2929 12.2929C13.1054 12.4804 13 12.7348 13 13V15C13 15.2652 13.1054 15.5196 13.2929 15.7071C13.4804 15.8946 13.7348 16 14 16ZM7 16H10C10.2652 16 10.5196 15.8946 10.7071 15.7071C10.8946 15.5196 11 15.2652 11 15V13C11 12.7348 10.8946 12.4804 10.7071 12.2929C10.5196 12.1054 10.2652 12 10 12H7C6.73478 12 6.48043 12.1054 6.29289 12.2929C6.10536 12.4804 6 12.7348 6 13V15C6 15.2652 6.10536 15.5196 6.29289 15.7071C6.48043 15.8946 6.73478 16 7 16ZM20 3C19.7348 3 19.4804 3.10536 19.2929 3.29289C19.1054 3.48043 19 3.73478 19 4V9H5V4C5 3.73478 4.89464 3.48043 4.70711 3.29289C4.51957 3.10536 4.26522 3 4 3C3.73478 3 3.48043 3.10536 3.29289 3.29289C3.10536 3.48043 3 3.73478 3 4V20C3 20.2652 3.10536 20.5196 3.29289 20.7071C3.48043 20.8946 3.73478 21 4 21C4.26522 21 4.51957 20.8946 4.70711 20.7071C4.89464 20.5196 5 20.2652 5 20V19H19V20C19 20.2652 19.1054 20.5196 19.2929 20.7071C19.4804 20.8946 19.7348 21 20 21C20.2652 21 20.5196 20.8946 20.7071 20.7071C20.8946 20.5196 21 20.2652 21 20V4C21 3.73478 20.8946 3.48043 20.7071 3.29289C20.5196 3.10536 20.2652 3 20 3ZM19 17H5V11H19V17Z" fill="#141414"/>
</svg>
