<svg width="24" height="24" viewBox="0 0 24 24" fill="none" xmlns="http://www.w3.org/2000/svg">
<path d="M15 13.0002C15 12.2045 14.6839 11.4415 14.1213 10.8788C13.5587 10.3162 12.7957 10.0002 12 10.0002C11.2044 10.0002 10.4413 10.3162 9.87869 10.8788C9.31608 11.4415 9.00001 12.2045 9.00001 13.0002C8.46958 13.0002 7.96087 13.2109 7.58579 13.586C7.21072 13.961 7.00001 14.4697 7.00001 15.0002V20.0002C7.00001 20.5306 7.21072 21.0393 7.58579 21.4144C7.96087 21.7895 8.46958 22.0002 9.00001 22.0002H15C15.5304 22.0002 16.0391 21.7895 16.4142 21.4144C16.7893 21.0393 17 20.5306 17 20.0002V15.0002C17 14.4697 16.7893 13.961 16.4142 13.586C16.0391 13.2109 15.5304 13.0002 15 13.0002ZM12 18.5002C11.8022 18.5002 11.6089 18.4415 11.4444 18.3316C11.28 18.2218 11.1518 18.0656 11.0761 17.8828C11.0004 17.7001 10.9806 17.4991 11.0192 17.3051C11.0578 17.1111 11.153 16.9329 11.2929 16.7931C11.4328 16.6532 11.6109 16.558 11.8049 16.5194C11.9989 16.4808 12.2 16.5006 12.3827 16.5763C12.5654 16.652 12.7216 16.7801 12.8315 16.9446C12.9414 17.109 13 17.3024 13 17.5002C13 17.7654 12.8947 18.0197 12.7071 18.2073C12.5196 18.3948 12.2652 18.5002 12 18.5002ZM11 13.0002C11 12.7349 11.1054 12.4806 11.2929 12.2931C11.4804 12.1055 11.7348 12.0002 12 12.0002C12.2652 12.0002 12.5196 12.1055 12.7071 12.2931C12.8947 12.4806 13 12.7349 13 13.0002H11ZM18.67 4.56016C16.8362 2.91847 14.4613 2.01074 12 2.01074C9.53869 2.01074 7.16383 2.91847 5.33001 4.56016C5.13242 4.73786 5.01352 4.98677 4.99945 5.25213C4.98539 5.5175 5.07731 5.77758 5.25501 5.97516C5.4327 6.17275 5.68161 6.29166 5.94698 6.30572C6.21234 6.31979 6.47242 6.22786 6.67001 6.05017C8.13632 4.74013 10.0337 4.01599 12 4.01599C13.9663 4.01599 15.8637 4.74013 17.33 6.05017C17.5149 6.21323 17.7535 6.30227 18 6.30017C18.1373 6.30367 18.2739 6.27885 18.4013 6.22723C18.5286 6.17562 18.6439 6.09832 18.74 6.00016C18.8324 5.90226 18.9041 5.7867 18.9507 5.66041C18.9974 5.53413 19.0181 5.39973 19.0116 5.26526C19.005 5.1308 18.9714 4.99903 18.9127 4.87787C18.854 4.75671 18.7715 4.64865 18.67 4.56016ZM9.61001 8.82016C10.3006 8.30559 11.1388 8.02764 12 8.02764C12.8612 8.02764 13.6994 8.30559 14.39 8.82016C14.6009 8.98195 14.8673 9.05334 15.1308 9.01865C15.3943 8.98396 15.6332 8.84601 15.795 8.63517C15.9568 8.42432 16.0282 8.15784 15.9935 7.89435C15.9588 7.63086 15.8209 7.39195 15.61 7.23017C14.5696 6.44649 13.3025 6.02265 12 6.02265C10.6975 6.02265 9.43038 6.44649 8.39001 7.23017C8.28561 7.31027 8.19801 7.41016 8.13221 7.52412C8.06641 7.63808 8.0237 7.76388 8.00652 7.89435C7.98934 8.02482 7.99803 8.15739 8.03209 8.2845C8.06614 8.41161 8.1249 8.53076 8.20501 8.63517C8.36679 8.84601 8.60571 8.98396 8.86919 9.01865C8.99966 9.03583 9.13223 9.02714 9.25934 8.99309C9.38645 8.95903 9.50561 8.90027 9.61001 8.82016Z" fill="#141414"/>
</svg>
