<svg width="24" height="24" viewBox="0 0 24 24" fill="none" xmlns="http://www.w3.org/2000/svg">
<path d="M21.5701 9.75996C21.3828 9.52294 21.1442 9.33142 20.8723 9.19979C20.6004 9.06816 20.3022 8.99984 20.0001 8.99996H18.6001L15.8601 4.48996C15.7145 4.28975 15.4998 4.15067 15.2576 4.09962C15.0153 4.04857 14.7628 4.08919 14.5487 4.21362C14.3347 4.33805 14.1745 4.53744 14.099 4.77321C14.0235 5.00898 14.0381 5.26437 14.1401 5.48996L16.2301 8.99996H7.7701L9.8601 5.50996C9.96206 5.28437 9.97671 5.02898 9.90123 4.79321C9.82574 4.55744 9.66548 4.35805 9.45147 4.23362C9.23745 4.10919 8.98488 4.06857 8.74264 4.11962C8.5004 4.17067 8.28571 4.30975 8.1401 4.50996L5.4301 8.99996H4.0001C3.69295 8.99526 3.38885 9.06138 3.11138 9.19318C2.83391 9.32498 2.59052 9.51892 2.4001 9.75996C2.2156 9.99399 2.08573 10.2663 2.01998 10.557C1.95424 10.8476 1.95428 11.1493 2.0201 11.44L3.4401 17.66C3.59251 18.3367 3.97473 18.9397 4.52171 19.3664C5.06869 19.793 5.74662 20.0169 6.4401 20H17.5401C18.2336 20.0169 18.9115 19.793 19.4585 19.3664C20.0055 18.9397 20.3877 18.3367 20.5401 17.66L22.0001 11.44C22.0591 11.1456 22.0511 10.8418 21.9767 10.5509C21.9022 10.2601 21.7633 9.98977 21.5701 9.75996Z" fill="#141414"/>
</svg>
