<svg width="24" height="24" viewBox="0 0 24 24" fill="none" xmlns="http://www.w3.org/2000/svg">
<path d="M7.92003 4.99995H16.08L16.88 3.46995C16.9611 3.31777 17.0014 3.14724 16.9971 2.97489C16.9927 2.80254 16.9439 2.63423 16.8554 2.48631C16.7668 2.33839 16.6415 2.21587 16.4917 2.13065C16.3418 2.04543 16.1724 2.00041 16 1.99995H14C13.7474 2.00082 13.5045 2.09728 13.32 2.26995L12.5 2.99995L11.68 2.23995C11.4911 2.07816 11.2487 1.9926 11 1.99995H8.00003C7.82763 2.00041 7.65827 2.04543 7.5084 2.13065C7.35853 2.21587 7.23324 2.33839 7.14469 2.48631C7.05614 2.63423 7.00733 2.80254 7.00301 2.97489C6.99869 3.14724 7.039 3.31777 7.12003 3.46995L7.92003 4.99995ZM16.18 6.99995H7.82003C6.60533 7.94478 5.62762 9.15977 4.96452 10.5485C4.30141 11.9372 3.97118 13.4613 4.00003 14.9999C4.00003 15.0699 4.09003 21.9999 12 21.9999C19.91 21.9999 20 15.0699 20 14.9999C20.0289 13.4613 19.6986 11.9372 19.0355 10.5485C18.3724 9.15977 17.3947 7.94478 16.18 6.99995ZM14.5 12.9999C14.5001 13.4464 14.4004 13.8873 14.2084 14.2904C14.0164 14.6935 13.7368 15.0487 13.39 15.3299L14.95 16.11C15.1856 16.2298 15.364 16.4381 15.4465 16.6892C15.5289 16.9403 15.5086 17.2138 15.39 17.45C15.3069 17.6149 15.1798 17.7535 15.0227 17.8506C14.8656 17.9477 14.6847 17.9994 14.5 17.9999C14.3432 18.0018 14.1884 17.964 14.05 17.8899L10.05 15.8899C9.85073 15.7879 9.69147 15.6218 9.59775 15.4185C9.50403 15.2151 9.48129 14.9861 9.53315 14.7683C9.58502 14.5505 9.70849 14.3564 9.8838 14.217C10.0591 14.0777 10.2761 14.0013 10.5 13.9999H11.5C11.7652 13.9999 12.0196 13.8946 12.2071 13.7071C12.3947 13.5195 12.5 13.2652 12.5 12.9999C12.5 12.7347 12.3947 12.4804 12.2071 12.2928C12.0196 12.1053 11.7652 11.9999 11.5 11.9999H9.50003C9.23482 11.9999 8.98046 11.8946 8.79292 11.7071C8.60539 11.5195 8.50003 11.2652 8.50003 10.9999C8.50003 10.7347 8.60539 10.4804 8.79292 10.2928C8.98046 10.1053 9.23482 9.99995 9.50003 9.99995H14.5C14.7652 9.99995 15.0196 10.1053 15.2071 10.2928C15.3947 10.4804 15.5 10.7347 15.5 10.9999C15.5 11.2652 15.3947 11.5195 15.2071 11.7071C15.0196 11.8946 14.7652 11.9999 14.5 11.9999H14.32C14.4365 12.3206 14.4973 12.6588 14.5 12.9999Z" fill="#141414"/>
</svg>
