<svg width="24" height="24" viewBox="0 0 24 24" fill="none" xmlns="http://www.w3.org/2000/svg">
<path d="M16 6H13V18H16C17.5913 18 19.1174 17.3679 20.2426 16.2426C21.3679 15.1174 22 13.5913 22 12C22 10.4087 21.3679 8.88258 20.2426 7.75736C19.1174 6.63214 17.5913 6 16 6ZM18 13C18 13.2652 17.8946 13.5196 17.7071 13.7071C17.5196 13.8946 17.2652 14 17 14C16.7348 14 16.4804 13.8946 16.2929 13.7071C16.1054 13.5196 16 13.2652 16 13V11C16 10.7348 16.1054 10.4804 16.2929 10.2929C16.4804 10.1054 16.7348 10 17 10C17.2652 10 17.5196 10.1054 17.7071 10.2929C17.8946 10.4804 18 10.7348 18 11V13ZM2 12C2 13.5913 2.63214 15.1174 3.75736 16.2426C4.88258 17.3679 6.4087 18 8 18H11V6H8C6.4087 6 4.88258 6.63214 3.75736 7.75736C2.63214 8.88258 2 10.4087 2 12ZM8.5 12C8.5 12.2967 8.41203 12.5867 8.2472 12.8334C8.08238 13.08 7.84811 13.2723 7.57403 13.3858C7.29994 13.4994 6.99834 13.5291 6.70736 13.4712C6.41639 13.4133 6.14912 13.2704 5.93934 13.0607C5.72956 12.8509 5.5867 12.5836 5.52882 12.2926C5.47094 12.0017 5.50065 11.7001 5.61418 11.426C5.72771 11.1519 5.91997 10.9176 6.16664 10.7528C6.41332 10.588 6.70333 10.5 7 10.5C7.39782 10.5 7.77936 10.658 8.06066 10.9393C8.34196 11.2206 8.5 11.6022 8.5 12Z" fill="#141414"/>
</svg>
