<svg width="24" height="24" viewBox="0 0 24 24" fill="none" xmlns="http://www.w3.org/2000/svg">
<path d="M14.79 5.63001C15.09 5.93001 15.47 6.13001 15.88 6.21001C16.29 6.29001 16.72 6.25001 17.11 6.09001C17.5 5.93001 17.83 5.66001 18.07 5.31001C18.3 4.96001 18.43 4.55001 18.43 4.13001C18.43 3.57001 18.2 3.03001 17.81 2.63001C17.41 2.23001 16.87 2.01001 16.3 2.01001C15.88 2.01001 15.47 2.14001 15.12 2.37001C14.77 2.60001 14.5 2.94001 14.34 3.32001C14.18 3.71001 14.14 4.13001 14.22 4.55001C14.3 4.96001 14.5 5.34001 14.8 5.64001L14.79 5.63001ZM10.07 16.04L8.47 14.41C8.41 14.35 8.34 14.3 8.27 14.27C8.19 14.24 8.11 14.22 8.03 14.22C7.95 14.22 7.86 14.24 7.79 14.27C7.71 14.3 7.64 14.35 7.59 14.41L3.53 18.25C3.22 18.56 3.04 18.97 3 19.4C3 19.62 3.03 19.83 3.11 20.04C3.19 20.24 3.31 20.43 3.46 20.58C3.76 20.89 4.18 21.07 4.61 21.07C4.99 21.07 5.36 20.93 5.66 20.68L10.01 16.97C10.14 16.86 10.22 16.7 10.23 16.53C10.24 16.44 10.23 16.35 10.21 16.27C10.19 16.19 10.14 16.11 10.07 16.05V16.04ZM20.86 8.91001C20.75 8.72001 20.6 8.55001 20.42 8.43001C20.24 8.30001 20.03 8.22001 19.81 8.18001C19.7 8.15001 19.59 8.14001 19.48 8.14001C19.14 8.14001 18.82 8.26001 18.55 8.46001L15.91 10.39C15.81 10.47 15.74 10.57 15.69 10.68C15.64 10.79 15.63 10.92 15.65 11.04C15.67 11.16 15.72 11.28 15.81 11.37C15.9 11.46 16.01 11.52 16.13 11.55L17.06 11.77C17.37 11.84 17.69 11.88 18 11.88C18.91 11.88 19.8 11.56 20.5 10.97C21.11 10.4 21.25 9.55001 20.85 8.92001L20.86 8.91001ZM13.27 11.97L13.36 11.89C14.02 11.29 14.84 10.36 15.04 9.31001C15.11 8.95001 15.11 8.58001 15.03 8.22001C14.95 7.86001 14.8 7.53001 14.58 7.23001C14.56 7.21001 14.54 7.18001 14.53 7.16001C14.53 7.15001 14.53 7.14001 14.51 7.13001C13.31 5.76001 11.58 5.15001 9.38 5.30001C7.64 5.45001 5.94 5.95001 4.4 6.77001C4.21 6.86001 4.03 6.99001 3.89 7.15001C3.75 7.31001 3.64 7.49001 3.57 7.70001C3.5 7.90001 3.47 8.12001 3.49 8.33001C3.51 8.54001 3.57 8.75001 3.67 8.94001C3.77 9.13001 3.91 9.30001 4.07 9.43001C4.24 9.56001 4.43 9.66001 4.63 9.72001C4.84 9.78001 5.05 9.79001 5.26 9.77001C5.47 9.74001 5.68 9.67001 5.86 9.56001C6.45 9.25001 8.37 8.43001 10.05 8.43001C10.65 8.40001 11.24 8.55001 11.75 8.86001L11.84 8.92001L11.77 9.01001C11.24 9.62001 10.62 10.13 9.91 10.52C9.7 10.65 9.52 10.83 9.39 11.04C9.26 11.25 9.17 11.49 9.14 11.74C9.12 11.99 9.16 12.24 9.26 12.47C9.36 12.7 9.51 12.9 9.7 13.06L13.05 15.87L10.49 19.52C10.26 19.87 10.17 20.29 10.24 20.7C10.31 21.11 10.54 21.47 10.87 21.72C11.14 21.89 11.45 21.99 11.77 22C12.02 22 12.27 21.93 12.5 21.82C12.72 21.7 12.92 21.54 13.07 21.34L16.42 16.52C16.64 16.2 16.74 15.81 16.69 15.42C16.64 15.03 16.44 14.68 16.14 14.43L13.25 11.98L13.27 11.97Z" fill="#141414"/>
</svg>
