<svg width="24" height="24" viewBox="0 0 24 24" fill="none" xmlns="http://www.w3.org/2000/svg">
<path d="M18 7C18.3956 7 18.7822 6.8827 19.1111 6.66294C19.44 6.44318 19.6964 6.13082 19.8478 5.76537C19.9991 5.39992 20.0387 4.99778 19.9616 4.60982C19.8844 4.22186 19.6939 3.86549 19.4142 3.58579C19.1345 3.30608 18.7781 3.1156 18.3902 3.03843C18.0022 2.96126 17.6001 3.00087 17.2346 3.15224C16.8692 3.30362 16.5568 3.55996 16.3371 3.88886C16.1173 4.21776 16 4.60444 16 5C16 5.53043 16.2107 6.03914 16.5858 6.41421C16.9609 6.78929 17.4696 7 18 7ZM20.69 15.06C20.5026 14.8738 20.2492 14.7692 19.985 14.7692C19.7208 14.7692 19.4674 14.8738 19.28 15.06L17.11 17.34C16.9229 17.5362 16.698 17.6924 16.4487 17.7989C16.1994 17.9055 15.9311 17.9603 15.66 17.96H12C11.7348 17.96 11.4804 17.8546 11.2929 17.6671C11.1054 17.4796 11 17.2252 11 16.96C11 16.6948 11.1054 16.4404 11.2929 16.2529C11.4804 16.0654 11.7348 15.96 12 15.96H14.66C14.9252 15.96 15.1796 15.8546 15.3671 15.6671C15.5546 15.4796 15.66 15.2252 15.66 14.96C15.66 14.6948 15.5546 14.4404 15.3671 14.2529C15.1796 14.0654 14.9252 13.96 14.66 13.96H8C7.46957 13.96 6.96086 14.1707 6.58579 14.5458C6.21071 14.9209 6 15.4296 6 15.96H4C3.73478 15.96 3.48043 16.0654 3.29289 16.2529C3.10536 16.4404 3 16.6948 3 16.96V18.96C3 19.2252 3.10536 19.4796 3.29289 19.6671C3.48043 19.8546 3.73478 19.96 4 19.96H15.66C16.2005 19.9593 16.7353 19.849 17.232 19.6359C17.7287 19.4228 18.1771 19.1112 18.55 18.72L20.72 16.44C20.8933 16.2502 20.9869 16.001 20.9813 15.744C20.9757 15.487 20.8714 15.2421 20.69 15.06ZM14 12C14.3956 12 14.7822 11.8827 15.1111 11.6629C15.44 11.4432 15.6964 11.1308 15.8478 10.7654C15.9991 10.3999 16.0387 9.99778 15.9616 9.60982C15.8844 9.22186 15.6939 8.86549 15.4142 8.58579C15.1345 8.30608 14.7781 8.1156 14.3902 8.03843C14.0022 7.96126 13.6001 8.00087 13.2346 8.15224C12.8692 8.30362 12.5568 8.55996 12.3371 8.88886C12.1173 9.21776 12 9.60444 12 10C12 10.5304 12.2107 11.0391 12.5858 11.4142C12.9609 11.7893 13.4696 12 14 12Z" fill="#141414"/>
</svg>
