<svg width="24" height="24" viewBox="0 0 24 24" fill="none" xmlns="http://www.w3.org/2000/svg">
<path d="M19 17C18.6044 17 18.2177 17.1173 17.8888 17.3371C17.5599 17.5568 17.3036 17.8692 17.1522 18.2346C17.0008 18.6001 16.9612 19.0022 17.0384 19.3902C17.1156 19.7781 17.306 20.1345 17.5857 20.4142C17.8654 20.6939 18.2218 20.8844 18.6098 20.9616C18.9977 21.0387 19.3999 20.9991 19.7653 20.8478C20.1308 20.6964 20.4431 20.44 20.6629 20.1111C20.8827 19.7822 21 19.3956 21 19C21 18.4696 20.7892 17.9609 20.4142 17.5858C20.0391 17.2107 19.5304 17 19 17ZM6.21996 14L3.58996 16.59C3.38059 16.7693 3.21055 16.9899 3.0905 17.2381C2.97046 17.4862 2.903 17.7565 2.89236 18.0319C2.88172 18.3073 2.92813 18.582 3.02868 18.8386C3.12923 19.0953 3.28175 19.3284 3.47666 19.5233C3.67157 19.7182 3.90466 19.8707 4.16131 19.9713C4.41796 20.0718 4.69262 20.1182 4.96806 20.1076C5.2435 20.097 5.51377 20.0295 5.7619 19.9095C6.01003 19.7894 6.23066 19.6194 6.40996 19.41L9.34996 16.48C10.1917 16.822 11.0914 16.9985 12 17C12.4602 16.9995 12.9192 16.9526 13.37 16.86L4.99996 10.25C5.03885 11.5911 5.46232 12.8927 6.21996 14ZM12 3C10.5045 2.99935 9.04811 3.47765 7.84421 4.36482C6.64032 5.252 5.75219 6.50141 5.30996 7.93L15.54 16C16.8471 15.2146 17.8621 14.0239 18.4305 12.6089C18.9989 11.1938 19.0896 9.63188 18.689 8.16051C18.2883 6.68915 17.4181 5.38887 16.2107 4.45739C15.0034 3.5259 13.5248 3.01417 12 3Z" fill="#141414"/>
</svg>
