<svg width="24" height="24" viewBox="0 0 24 24" fill="none" xmlns="http://www.w3.org/2000/svg">
<path d="M12 2C10.6868 2 9.38642 2.25866 8.17317 2.7612C6.95991 3.26375 5.85752 4.00035 4.92893 4.92893C3.05357 6.8043 2 9.34784 2 12C3.31322 12 4.61358 12.2587 5.82683 12.7612C7.04009 13.2638 8.14248 14.0003 9.07107 14.9289C9.99965 15.8575 10.7362 16.9599 11.2388 18.1732C11.7413 19.3864 12 20.6868 12 22C14.6522 22 17.1957 20.9464 19.0711 19.0711C20.9464 17.1957 22 14.6522 22 12C19.3478 12 16.8043 10.9464 14.9289 9.07107C13.0536 7.1957 12 4.65216 12 2ZM21.8 10C21.4081 8.07822 20.4596 6.31412 19.0728 4.92724C17.6859 3.54036 15.9218 2.59194 14 2.2C14.0507 4.25272 14.8888 6.20736 16.3407 7.65929C17.7926 9.11123 19.7473 9.94929 21.8 10ZM2.2 14C2.59194 15.9218 3.54036 17.6859 4.92724 19.0728C6.31412 20.4596 8.07822 21.4081 10 21.8C9.94929 19.7473 9.11123 17.7926 7.65929 16.3407C6.20736 14.8888 4.25272 14.0507 2.2 14Z" fill="#141414"/>
</svg>
