<svg width="24" height="24" viewBox="0 0 24 24" fill="none" xmlns="http://www.w3.org/2000/svg">
<path d="M17 11C17.7911 11 18.5645 10.7654 19.2223 10.3259C19.8801 9.88635 20.3928 9.26164 20.6955 8.53074C20.9983 7.79983 21.0775 6.99556 20.9231 6.21964C20.7688 5.44372 20.3878 4.73098 19.8284 4.17157C19.269 3.61216 18.5563 3.2312 17.7804 3.07686C17.0044 2.92252 16.2002 3.00173 15.4693 3.30448C14.7384 3.60723 14.1136 4.11992 13.6741 4.77772C13.2346 5.43552 13 6.20888 13 7C13 8.06087 13.4214 9.07828 14.1716 9.82843C14.9217 10.5786 15.9391 11 17 11ZM15.5 6C15.5 5.73479 15.6054 5.48043 15.7929 5.2929C15.9804 5.10536 16.2348 5 16.5 5C16.7652 5 17.0196 5.10536 17.2071 5.2929C17.3946 5.48043 17.5 5.73479 17.5 6V6.78L18.32 7.05C18.4494 7.08652 18.5702 7.14877 18.675 7.23304C18.7798 7.3173 18.8666 7.42184 18.9301 7.5404C18.9935 7.65897 19.0325 7.78912 19.0445 7.92308C19.0565 8.05703 19.0414 8.19203 19 8.32C18.9304 8.52698 18.795 8.7055 18.6144 8.82829C18.4339 8.95108 18.2181 9.01138 18 9C17.8938 9.01371 17.7862 9.01371 17.68 9L16.18 8.5C15.9814 8.43292 15.8089 8.3051 15.6868 8.13463C15.5648 7.96416 15.4995 7.75965 15.5 7.55V6ZM7 3C6.20888 3 5.43552 3.2346 4.77772 3.67412C4.11992 4.11365 3.60723 4.73836 3.30448 5.46927C3.00173 6.20017 2.92252 7.00444 3.07686 7.78036C3.2312 8.55629 3.61216 9.26902 4.17157 9.82843C4.73098 10.3878 5.44372 10.7688 6.21964 10.9231C6.99556 11.0775 7.79983 10.9983 8.53074 10.6955C9.26164 10.3928 9.88635 9.88008 10.3259 9.22228C10.7654 8.56449 11 7.79113 11 7C11 5.93914 10.5786 4.92172 9.82843 4.17157C9.07828 3.42143 8.06087 3 7 3ZM8 8.5H6.5C6.23479 8.5 5.98043 8.39464 5.7929 8.20711C5.60536 8.01957 5.5 7.76522 5.5 7.5V6C5.5 5.73479 5.60536 5.48043 5.7929 5.2929C5.98043 5.10536 6.23479 5 6.5 5C6.76522 5 7.01957 5.10536 7.20711 5.2929C7.39464 5.48043 7.5 5.73479 7.5 6V6.5H8C8.26522 6.5 8.51957 6.60536 8.70711 6.7929C8.89464 6.98043 9 7.23479 9 7.5C9 7.76522 8.89464 8.01957 8.70711 8.20711C8.51957 8.39464 8.26522 8.5 8 8.5ZM17 13C16.2089 13 15.4355 13.2346 14.7777 13.6741C14.1199 14.1136 13.6072 14.7384 13.3045 15.4693C13.0017 16.2002 12.9225 17.0044 13.0769 17.7804C13.2312 18.5563 13.6122 19.269 14.1716 19.8284C14.731 20.3878 15.4437 20.7688 16.2196 20.9231C16.9956 21.0775 17.7998 20.9983 18.5307 20.6955C19.2616 20.3928 19.8864 19.8801 20.3259 19.2223C20.7654 18.5645 21 17.7911 21 17C21 15.9391 20.5786 14.9217 19.8284 14.1716C19.0783 13.4214 18.0609 13 17 13ZM18 17.5H17.5V18C17.5 18.2652 17.3946 18.5196 17.2071 18.7071C17.0196 18.8946 16.7652 19 16.5 19C16.2348 19 15.9804 18.8946 15.7929 18.7071C15.6054 18.5196 15.5 18.2652 15.5 18V16.5C15.5 16.2348 15.6054 15.9804 15.7929 15.7929C15.9804 15.6054 16.2348 15.5 16.5 15.5H18C18.2652 15.5 18.5196 15.6054 18.7071 15.7929C18.8946 15.9804 19 16.2348 19 16.5C19 16.7652 18.8946 17.0196 18.7071 17.2071C18.5196 17.3946 18.2652 17.5 18 17.5ZM7 13C6.20888 13 5.43552 13.2346 4.77772 13.6741C4.11992 14.1136 3.60723 14.7384 3.30448 15.4693C3.00173 16.2002 2.92252 17.0044 3.07686 17.7804C3.2312 18.5563 3.61216 19.269 4.17157 19.8284C4.73098 20.3878 5.44372 20.7688 6.21964 20.9231C6.99556 21.0775 7.79983 20.9983 8.53074 20.6955C9.26164 20.3928 9.88635 19.8801 10.3259 19.2223C10.7654 18.5645 11 17.7911 11 17C11 15.9391 10.5786 14.9217 9.82843 14.1716C9.07828 13.4214 8.06087 13 7 13ZM8.5 17.5C8.50054 17.7096 8.43518 17.9142 8.31316 18.0846C8.19114 18.2551 8.01862 18.3829 7.82 18.45L6.32 18.95C6.21595 18.9805 6.10839 18.9973 6 19C5.78194 19.0114 5.56614 18.9511 5.38557 18.8283C5.205 18.7055 5.06958 18.527 5 18.32C4.95764 18.1953 4.94035 18.0634 4.94911 17.9319C4.95788 17.8005 4.99252 17.6721 5.05106 17.5541C5.10961 17.4361 5.19089 17.3308 5.29024 17.2443C5.38959 17.1578 5.50506 17.0917 5.63 17.05L6.45 16.78V16C6.45 15.7348 6.55536 15.4804 6.74289 15.2929C6.93043 15.1054 7.18479 15 7.45 15C7.71522 15 7.96957 15.1054 8.15711 15.2929C8.34464 15.4804 8.45 15.7348 8.45 16L8.5 17.5Z" fill="#141414"/>
</svg>
