<svg width="24" height="24" viewBox="0 0 24 24" fill="none" xmlns="http://www.w3.org/2000/svg">
<path d="M16.8199 13.9002C17.4407 13.2325 17.9166 12.4437 18.2177 11.5832C18.5189 10.7227 18.6388 9.80926 18.5699 8.90022L18.1399 2.90022C18.1222 2.64732 18.0091 2.4106 17.8234 2.23794C17.6378 2.06529 17.3935 1.9696 17.1399 1.97022H15.1399L13.1399 3.61022L13.9999 5.28022C14.0524 5.38967 14.0641 5.51425 14.0329 5.63156C14.0018 5.74887 13.9298 5.85122 13.8299 5.92022L10.8299 7.92022C10.7306 7.97979 10.6155 8.0077 10.4999 8.00022C10.4258 8.00039 10.3524 7.98437 10.2851 7.95328C10.2177 7.92219 10.1579 7.87678 10.1099 7.82022C10.027 7.72834 9.98112 7.60898 9.98112 7.48522C9.98112 7.36146 10.027 7.24209 10.1099 7.15022L11.7599 5.49022L10.1199 3.89022C10.0326 3.78758 9.98949 3.65456 9.99994 3.52022C10.001 3.454 10.0158 3.38872 10.0433 3.32848C10.0709 3.26825 10.1106 3.21436 10.1599 3.17022L11.3899 2.00022H6.85994C6.60642 1.9996 6.36213 2.09529 6.17648 2.26794C5.99083 2.4406 5.87769 2.67732 5.85994 2.93022L5.42994 8.93022C5.30035 10.5852 5.80305 12.2279 6.83671 13.5269C7.87037 14.8259 9.35809 15.6848 10.9999 15.9302V20.0002H8.99994C8.73473 20.0002 8.48037 20.1056 8.29284 20.2931C8.1053 20.4806 7.99994 20.735 7.99994 21.0002C7.99994 21.2654 8.1053 21.5198 8.29284 21.7073C8.48037 21.8949 8.73473 22.0002 8.99994 22.0002H14.9999C15.2652 22.0002 15.5195 21.8949 15.7071 21.7073C15.8946 21.5198 15.9999 21.2654 15.9999 21.0002C15.9999 20.735 15.8946 20.4806 15.7071 20.2931C15.5195 20.1056 15.2652 20.0002 14.9999 20.0002H12.9999V15.9102C14.4638 15.6911 15.8103 14.9826 16.8199 13.9002Z" fill="#141414"/>
</svg>
