<svg width="24" height="24" viewBox="0 0 24 24" fill="none" xmlns="http://www.w3.org/2000/svg">
<path d="M17.4099 12.41C17.6908 12.131 17.8826 11.7749 17.9609 11.3868C18.0392 10.9987 18.0006 10.5961 17.8499 10.23C17.6977 9.86506 17.4407 9.55344 17.1114 9.33451C16.7821 9.11558 16.3954 8.99918 15.9999 9H13.2399L16.9999 12.79L17.4099 12.41ZM16.8199 7.57L18.5399 5.12C18.6329 5.01356 18.7022 4.88862 18.7433 4.75344C18.7845 4.61825 18.7965 4.47588 18.7786 4.33571C18.7607 4.19554 18.7133 4.06075 18.6396 3.94022C18.5658 3.8197 18.4673 3.71618 18.3506 3.63649C18.2339 3.5568 18.1017 3.50274 17.9626 3.47788C17.8235 3.45303 17.6807 3.45793 17.5436 3.49228C17.4065 3.52663 17.2783 3.58963 17.1674 3.67715C17.0564 3.76466 16.9653 3.8747 16.8999 4L15.1799 6.43C15.0968 6.53725 15.0364 6.66029 15.0023 6.79165C14.9682 6.923 14.9613 7.05991 14.9818 7.19404C15.0023 7.32818 15.05 7.45673 15.1218 7.57187C15.1936 7.687 15.2881 7.78632 15.3995 7.86378C15.5109 7.94123 15.637 7.99519 15.7699 8.02238C15.9028 8.04958 16.0399 8.04942 16.1728 8.02194C16.3057 7.99446 16.4316 7.94022 16.5429 7.86252C16.6541 7.78482 16.7484 7.6853 16.8199 7.57ZM20.7099 19.29L4.70994 3.29C4.52164 3.1017 4.26624 2.99591 3.99994 2.99591C3.73364 2.99591 3.47824 3.1017 3.28994 3.29C3.10164 3.4783 2.99585 3.7337 2.99585 4C2.99585 4.2663 3.10164 4.5217 3.28994 4.71L7.63994 9.05C7.2898 9.12579 6.96644 9.29424 6.70366 9.53774C6.44088 9.78124 6.24833 10.0909 6.14614 10.4342C6.04395 10.7776 6.03586 11.1421 6.12273 11.4897C6.20959 11.8372 6.38822 12.1551 6.63994 12.41L8.99994 14.83V19C8.99994 19.7956 9.31601 20.5587 9.87862 21.1213C10.4412 21.6839 11.2043 22 11.9999 22C12.7956 22 13.5587 21.6839 14.1213 21.1213C14.6839 20.5587 14.9999 19.7956 14.9999 19V16.41L19.2899 20.71C19.3829 20.8037 19.4935 20.8781 19.6154 20.9289C19.7372 20.9797 19.8679 21.0058 19.9999 21.0058C20.132 21.0058 20.2627 20.9797 20.3845 20.9289C20.5064 20.8781 20.617 20.8037 20.7099 20.71C20.8037 20.617 20.8781 20.5064 20.9288 20.3846C20.9796 20.2627 21.0057 20.132 21.0057 20C21.0057 19.868 20.9796 19.7373 20.9288 19.6154C20.8781 19.4936 20.8037 19.383 20.7099 19.29ZM11.9999 16C11.8022 16 11.6088 15.9414 11.4444 15.8315C11.2799 15.7216 11.1517 15.5654 11.0761 15.3827C11.0004 15.2 10.9806 14.9989 11.0192 14.8049C11.0577 14.6109 11.153 14.4327 11.2928 14.2929C11.4327 14.153 11.6109 14.0578 11.8049 14.0192C11.9988 13.9806 12.1999 14.0004 12.3826 14.0761C12.5654 14.1518 12.7215 14.28 12.8314 14.4444C12.9413 14.6089 12.9999 14.8022 12.9999 15C12.9999 15.2652 12.8946 15.5196 12.707 15.7071C12.5195 15.8946 12.2652 16 11.9999 16ZM11.9999 7C12.2652 7 12.5195 6.89464 12.707 6.70711C12.8946 6.51957 12.9999 6.26522 12.9999 6V3C12.9999 2.73478 12.8946 2.48043 12.707 2.29289C12.5195 2.10536 12.2652 2 11.9999 2C11.7347 2 11.4804 2.10536 11.2928 2.29289C11.1053 2.48043 10.9999 2.73478 10.9999 3V6C10.9999 6.26522 11.1053 6.51957 11.2928 6.70711C11.4804 6.89464 11.7347 7 11.9999 7Z" fill="#141414"/>
</svg>
