<svg width="24" height="24" viewBox="0 0 24 24" fill="none" xmlns="http://www.w3.org/2000/svg">
<path d="M4.5 10.4999C4.20333 10.4999 3.91332 10.5879 3.66665 10.7527C3.41997 10.9176 3.22771 11.1518 3.11418 11.4259C3.00065 11.7 2.97094 12.0016 3.02882 12.2926C3.0867 12.5835 3.22956 12.8508 3.43934 13.0606C3.64912 13.2704 3.91639 13.4132 4.20737 13.4711C4.49834 13.529 4.79994 13.4993 5.07403 13.3858C5.34811 13.2722 5.58238 13.08 5.7472 12.8333C5.91203 12.5866 6 12.2966 6 11.9999C6 11.6021 5.84197 11.2206 5.56066 10.9393C5.27936 10.658 4.89783 10.4999 4.5 10.4999ZM4.5 16.4999C4.20333 16.4999 3.91332 16.5879 3.66665 16.7527C3.41997 16.9176 3.22771 17.1518 3.11418 17.4259C3.00065 17.7 2.97094 18.0016 3.02882 18.2926C3.0867 18.5835 3.22956 18.8508 3.43934 19.0606C3.64912 19.2704 3.91639 19.4132 4.20737 19.4711C4.49834 19.529 4.79994 19.4993 5.07403 19.3858C5.34811 19.2722 5.58238 19.08 5.7472 18.8333C5.91203 18.5866 6 18.2966 6 17.9999C6 17.6021 5.84197 17.2206 5.56066 16.9393C5.27936 16.658 4.89783 16.4999 4.5 16.4999ZM9 6.99994H19C18.9988 7.19856 19.0569 7.39303 19.1667 7.55855C19.2765 7.72407 19.4331 7.85314 19.6165 7.92931C19.8 8.00548 20.0019 8.02529 20.1967 7.98622C20.3914 7.94715 20.5701 7.85097 20.71 7.70994L21.71 6.70994C21.8037 6.61698 21.8781 6.50638 21.9289 6.38452C21.9797 6.26266 22.0058 6.13195 22.0058 5.99994C22.0058 5.86793 21.9797 5.73722 21.9289 5.61536C21.8781 5.4935 21.8037 5.3829 21.71 5.28994L20.71 4.28994C20.617 4.19621 20.5064 4.12182 20.3846 4.07105C20.2627 4.02028 20.132 3.99414 20 3.99414C19.868 3.99414 19.7373 4.02028 19.6154 4.07105C19.4936 4.12182 19.383 4.19621 19.29 4.28994C19.1973 4.38338 19.124 4.4942 19.0742 4.61603C19.0245 4.73787 18.9992 4.86833 19 4.99994H9C8.73478 4.99994 8.48043 5.1053 8.29289 5.29283C8.10536 5.48037 8 5.73472 8 5.99994C8 6.26516 8.10536 6.51951 8.29289 6.70705C8.48043 6.89458 8.73478 6.99994 9 6.99994ZM4.5 4.49994C4.20333 4.49994 3.91332 4.58791 3.66665 4.75273C3.41997 4.91756 3.22771 5.15182 3.11418 5.42591C3.00065 5.7 2.97094 6.0016 3.02882 6.29257C3.0867 6.58355 3.22956 6.85082 3.43934 7.0606C3.64912 7.27038 3.91639 7.41324 4.20737 7.47112C4.49834 7.52899 4.79994 7.49929 5.07403 7.38576C5.34811 7.27223 5.58238 7.07997 5.7472 6.83329C5.91203 6.58662 6 6.29661 6 5.99994C6 5.60211 5.84197 5.22058 5.56066 4.93928C5.27936 4.65797 4.89783 4.49994 4.5 4.49994ZM20.71 16.2899C20.617 16.1962 20.5064 16.1218 20.3846 16.071C20.2627 16.0203 20.132 15.9941 20 15.9941C19.868 15.9941 19.7373 16.0203 19.6154 16.071C19.4936 16.1218 19.383 16.1962 19.29 16.2899C19.1973 16.3834 19.124 16.4942 19.0742 16.616C19.0245 16.7379 18.9992 16.8683 19 16.9999H9C8.73478 16.9999 8.48043 17.1053 8.29289 17.2928C8.10536 17.4804 8 17.7347 8 17.9999C8 18.2652 8.10536 18.5195 8.29289 18.707C8.48043 18.8946 8.73478 18.9999 9 18.9999H19C18.9988 19.1986 19.0569 19.393 19.1667 19.5586C19.2765 19.7241 19.4331 19.8531 19.6165 19.9293C19.8 20.0055 20.0019 20.0253 20.1967 19.9862C20.3914 19.9471 20.5701 19.851 20.71 19.7099L21.71 18.7099C21.8037 18.617 21.8781 18.5064 21.9289 18.3845C21.9797 18.2627 22.0058 18.132 22.0058 17.9999C22.0058 17.8679 21.9797 17.7372 21.9289 17.6154C21.8781 17.4935 21.8037 17.3829 21.71 17.2899L20.71 16.2899ZM20.71 10.2899C20.617 10.1962 20.5064 10.1218 20.3846 10.071C20.2627 10.0203 20.132 9.99414 20 9.99414C19.868 9.99414 19.7373 10.0203 19.6154 10.071C19.4936 10.1218 19.383 10.1962 19.29 10.2899C19.1973 10.3834 19.124 10.4942 19.0742 10.616C19.0245 10.7379 18.9992 10.8683 19 10.9999H9C8.73478 10.9999 8.48043 11.1053 8.29289 11.2928C8.10536 11.4804 8 11.7347 8 11.9999C8 12.2652 8.10536 12.5195 8.29289 12.707C8.48043 12.8946 8.73478 12.9999 9 12.9999H19C18.9988 13.1986 19.0569 13.393 19.1667 13.5586C19.2765 13.7241 19.4331 13.8531 19.6165 13.9293C19.8 14.0055 20.0019 14.0253 20.1967 13.9862C20.3914 13.9471 20.5701 13.851 20.71 13.7099L21.71 12.7099C21.8037 12.617 21.8781 12.5064 21.9289 12.3845C21.9797 12.2627 22.0058 12.132 22.0058 11.9999C22.0058 11.8679 21.9797 11.7372 21.9289 11.6154C21.8781 11.4935 21.8037 11.3829 21.71 11.2899L20.71 10.2899Z" fill="#141414"/>
</svg>
