<svg width="24" height="24" viewBox="0 0 24 24" fill="none" xmlns="http://www.w3.org/2000/svg">
<path d="M14 3.70007C13.934 3.48936 13.8001 3.30642 13.6192 3.17979C13.4383 3.05317 13.2206 2.98997 13 3.00007H11C10.7879 3.00091 10.5815 3.06917 10.4107 3.19501C10.24 3.32084 10.1136 3.49772 10.05 3.70007L8.7 8.00007H15.3L14 3.70007ZM20 19.0001H18.74L17.8 16.0001H6.2L5.26 19.0001H4C3.73478 19.0001 3.48043 19.1054 3.29289 19.293C3.10536 19.4805 3 19.7349 3 20.0001C3 20.2653 3.10536 20.5196 3.29289 20.7072C3.48043 20.8947 3.73478 21.0001 4 21.0001H20C20.2652 21.0001 20.5196 20.8947 20.7071 20.7072C20.8946 20.5196 21 20.2653 21 20.0001C21 19.7349 20.8946 19.4805 20.7071 19.293C20.5196 19.1054 20.2652 19.0001 20 19.0001ZM15.92 10.0001H8.08L6.83 14.0001H17.17L15.92 10.0001Z" fill="#141414"/>
</svg>
