<svg width="24" height="24" viewBox="0 0 24 24" fill="none" xmlns="http://www.w3.org/2000/svg">
<path d="M17 12C16.0111 12 15.0444 12.2932 14.2221 12.8427C13.3999 13.3921 12.759 14.173 12.3806 15.0866C12.0022 16.0002 11.9031 17.0055 12.0961 17.9755C12.289 18.9454 12.7652 19.8363 13.4645 20.5355C14.1637 21.2348 15.0546 21.711 16.0245 21.9039C16.9945 22.0969 17.9998 21.9978 18.9134 21.6194C19.827 21.241 20.6079 20.6001 21.1573 19.7779C21.7068 18.9556 22 17.9889 22 17C22 15.6739 21.4732 14.4021 20.5355 13.4645C19.5979 12.5268 18.3261 12 17 12ZM18.5 18C18.5 18.2652 18.3946 18.5196 18.2071 18.7071C18.0196 18.8946 17.7652 19 17.5 19H15.5C15.2348 19 14.9804 18.8946 14.7929 18.7071C14.6054 18.5196 14.5 18.2652 14.5 18C14.5 17.7348 14.6054 17.4804 14.7929 17.2929C14.9804 17.1054 15.2348 17 15.5 17H16.5V15.5C16.5 15.2348 16.6054 14.9804 16.7929 14.7929C16.9804 14.6054 17.2348 14.5 17.5 14.5C17.7652 14.5 18.0196 14.6054 18.2071 14.7929C18.3946 14.9804 18.5 15.2348 18.5 15.5V18ZM8 18C7.73478 18 7.48043 17.8946 7.29289 17.7071C7.10536 17.5196 7 17.2652 7 17C7 16.7348 7.10536 16.4804 7.29289 16.2929C7.48043 16.1054 7.73478 16 8 16H10.08C10.2346 14.9218 10.6386 13.8946 11.26 13H8C7.73478 13 7.48043 12.8946 7.29289 12.7071C7.10536 12.5196 7 12.2652 7 12C7 11.7348 7.10536 11.4804 7.29289 11.2929C7.48043 11.1054 7.73478 11 8 11H13.41C14.4943 10.3484 15.735 10.0028 17 10C18.0393 10.0005 19.065 10.2364 20 10.69V5C20 4.20435 19.6839 3.44129 19.1213 2.87868C18.5587 2.31607 17.7956 2 17 2H7C6.20435 2 5.44129 2.31607 4.87868 2.87868C4.31607 3.44129 4 4.20435 4 5V19C4 19.7956 4.31607 20.5587 4.87868 21.1213C5.44129 21.6839 6.20435 22 7 22H12.11C11.0239 20.9212 10.3214 19.5162 10.11 18H8ZM8 6H11C11.2652 6 11.5196 6.10536 11.7071 6.29289C11.8946 6.48043 12 6.73478 12 7C12 7.26522 11.8946 7.51957 11.7071 7.70711C11.5196 7.89464 11.2652 8 11 8H8C7.73478 8 7.48043 7.89464 7.29289 7.70711C7.10536 7.51957 7 7.26522 7 7C7 6.73478 7.10536 6.48043 7.29289 6.29289C7.48043 6.10536 7.73478 6 8 6Z" fill="#141414"/>
</svg>
