<svg width="24" height="24" viewBox="0 0 24 24" fill="none" xmlns="http://www.w3.org/2000/svg">
<path d="M20 6H18V5C18 4.20435 17.6839 3.44129 17.1213 2.87868C16.5587 2.31607 15.7956 2 15 2H9C8.20435 2 7.44129 2.31607 6.87868 2.87868C6.31607 3.44129 6 4.20435 6 5V6H4C3.73478 6 3.48043 6.10536 3.29289 6.29289C3.10536 6.48043 3 6.73478 3 7C3 7.26522 3.10536 7.51957 3.29289 7.70711C3.48043 7.89464 3.73478 8 4 8H5V19C5 19.7956 5.31607 20.5587 5.87868 21.1213C6.44129 21.6839 7.20435 22 8 22H16C16.7956 22 17.5587 21.6839 18.1213 21.1213C18.6839 20.5587 19 19.7956 19 19V8H20C20.2652 8 20.5196 7.89464 20.7071 7.70711C20.8946 7.51957 21 7.26522 21 7C21 6.73478 20.8946 6.48043 20.7071 6.29289C20.5196 6.10536 20.2652 6 20 6ZM15.71 15.71L12.71 18.71C12.6149 18.801 12.5028 18.8724 12.38 18.92C12.2603 18.9729 12.1309 19.0002 12 19.0002C11.8691 19.0002 11.7397 18.9729 11.62 18.92C11.4972 18.8724 11.3851 18.801 11.29 18.71L8.29 15.71C8.1017 15.5217 7.99591 15.2663 7.99591 15C7.99591 14.7337 8.1017 14.4783 8.29 14.29C8.4783 14.1017 8.7337 13.9959 9 13.9959C9.2663 13.9959 9.5217 14.1017 9.71 14.29L11 15.59V10C11 9.73478 11.1054 9.48043 11.2929 9.29289C11.4804 9.10536 11.7348 9 12 9C12.2652 9 12.5196 9.10536 12.7071 9.29289C12.8946 9.48043 13 9.73478 13 10V15.59L14.29 14.29C14.4783 14.1017 14.7337 13.9959 15 13.9959C15.2663 13.9959 15.5217 14.1017 15.71 14.29C15.8983 14.4783 16.0041 14.7337 16.0041 15C16.0041 15.2663 15.8983 15.5217 15.71 15.71ZM16 6H8V5C8 4.73478 8.10536 4.48043 8.29289 4.29289C8.48043 4.10536 8.73478 4 9 4H15C15.2652 4 15.5196 4.10536 15.7071 4.29289C15.8946 4.48043 16 4.73478 16 5V6Z" fill="#141414"/>
</svg>
