<svg width="24" height="24" viewBox="0 0 24 24" fill="none" xmlns="http://www.w3.org/2000/svg">
<path d="M8.00014 8.61C8.00014 8.07957 7.78942 7.57086 7.41435 7.19579C7.03928 6.82071 6.53057 6.61 6.00014 6.61C5.46971 6.61 4.961 6.82071 4.58592 7.19579C4.21085 7.57086 4.00014 8.07957 4.00014 8.61L3.00014 13.61C2.94153 13.8998 2.9479 14.199 3.0188 14.486C3.08969 14.7731 3.22335 15.0408 3.41014 15.27C3.60253 15.5042 3.84563 15.6916 4.12108 15.8181C4.39653 15.9445 4.69712 16.0068 5.00014 16V20C5.00014 20.2652 5.10549 20.5196 5.29303 20.7071C5.48057 20.8946 5.73492 21 6.00014 21C6.26535 21 6.51971 20.8946 6.70724 20.7071C6.89478 20.5196 7.00014 20.2652 7.00014 20V16C7.29644 16.0007 7.5892 15.9356 7.85726 15.8094C8.12533 15.6831 8.36199 15.4989 8.55014 15.27C8.7439 15.0442 8.88484 14.778 8.96269 14.4908C9.04054 14.2037 9.05333 13.9027 9.00014 13.61L8.00014 8.61ZM6.00014 6C6.29681 6 6.58682 5.91203 6.83349 5.7472C7.08017 5.58238 7.27243 5.34811 7.38596 5.07403C7.49949 4.79994 7.52919 4.49834 7.47132 4.20737C7.41344 3.91639 7.27058 3.64912 7.0608 3.43934C6.85102 3.22956 6.58375 3.0867 6.29277 3.02882C6.0018 2.97094 5.7002 3.00065 5.42611 3.11418C5.15202 3.22771 4.91776 3.41997 4.75293 3.66665C4.58811 3.91332 4.50014 4.20333 4.50014 4.5C4.50014 4.89783 4.65817 5.27936 4.93948 5.56066C5.22078 5.84197 5.60231 6 6.00014 6ZM18.0001 6C18.2968 6 18.5868 5.91203 18.8335 5.7472C19.0802 5.58238 19.2724 5.34811 19.386 5.07403C19.4995 4.79994 19.5292 4.49834 19.4713 4.20737C19.4134 3.91639 19.2706 3.64912 19.0608 3.43934C18.851 3.22956 18.5837 3.0867 18.2928 3.02882C18.0018 2.97094 17.7002 3.00065 17.4261 3.11418C17.152 3.22771 16.9178 3.41997 16.7529 3.66665C16.5881 3.91332 16.5001 4.20333 16.5001 4.5C16.5001 4.89783 16.6582 5.27936 16.9395 5.56066C17.2208 5.84197 17.6023 6 18.0001 6ZM12.0001 3C11.7349 3 11.4806 3.10536 11.293 3.29289C11.1055 3.48043 11.0001 3.73478 11.0001 4V20C11.0001 20.2652 11.1055 20.5196 11.293 20.7071C11.4806 20.8946 11.7349 21 12.0001 21C12.2654 21 12.5197 20.8946 12.7072 20.7071C12.8948 20.5196 13.0001 20.2652 13.0001 20V4C13.0001 3.73478 12.8948 3.48043 12.7072 3.29289C12.5197 3.10536 12.2654 3 12.0001 3ZM19.0001 7H17.0001C16.4697 7 15.961 7.21071 15.5859 7.58579C15.2109 7.96086 15.0001 8.46957 15.0001 9V14C15.0001 14.5304 15.2109 15.0391 15.5859 15.4142C15.961 15.7893 16.4697 16 17.0001 16V20C17.0001 20.2652 17.1055 20.5196 17.293 20.7071C17.4806 20.8946 17.7349 21 18.0001 21C18.2654 21 18.5197 20.8946 18.7072 20.7071C18.8948 20.5196 19.0001 20.2652 19.0001 20V16C19.5306 16 20.0393 15.7893 20.4144 15.4142C20.7894 15.0391 21.0001 14.5304 21.0001 14V9C21.0001 8.46957 20.7894 7.96086 20.4144 7.58579C20.0393 7.21071 19.5306 7 19.0001 7Z" fill="#141414"/>
</svg>
