<svg width="24" height="24" viewBox="0 0 24 24" fill="none" xmlns="http://www.w3.org/2000/svg">
<path d="M21.9998 10.53L21.2998 5.28996C21.2147 4.63283 20.9145 4.02235 20.446 3.55381C19.9774 3.08527 19.3669 2.78504 18.7098 2.69996L13.4698 1.99996C13.0151 1.94283 12.5533 1.99064 12.12 2.13972C11.6866 2.2888 11.2931 2.53518 10.9698 2.85996L2.8798 11C2.318 11.5625 2.00244 12.325 2.00244 13.12C2.00244 13.915 2.318 14.6775 2.8798 15.24L8.7898 21.15C9.3523 21.7118 10.1148 22.0273 10.9098 22.0273C11.7048 22.0273 12.4673 21.7118 13.0298 21.15L21.1198 13C21.4409 12.6796 21.6865 12.2916 21.8388 11.8644C21.991 11.4371 22.046 10.9812 21.9998 10.53ZM16.4998 8.99996C16.2031 8.99996 15.9131 8.91199 15.6664 8.74717C15.4198 8.58235 15.2275 8.34808 15.114 8.07399C15.0005 7.7999 14.9707 7.4983 15.0286 7.20733C15.0865 6.91636 15.2294 6.64908 15.4391 6.4393C15.6489 6.22952 15.9162 6.08666 16.2072 6.02879C16.4981 5.97091 16.7997 6.00061 17.0738 6.11414C17.3479 6.22768 17.5822 6.41993 17.747 6.66661C17.9118 6.91328 17.9998 7.20329 17.9998 7.49996C17.9998 7.89779 17.8418 8.27932 17.5605 8.56062C17.2792 8.84193 16.8976 8.99996 16.4998 8.99996Z" fill="#141414"/>
</svg>
