<svg width="24" height="24" viewBox="0 0 24 24" fill="none" xmlns="http://www.w3.org/2000/svg">
<path d="M18.74 9.13997C18.9463 8.60254 19.0429 8.02921 19.024 7.45384C19.0051 6.87847 18.8711 6.31272 18.63 5.78997C17.94 4.39997 16.45 3.46997 14.2 2.99997C13.6227 2.82257 13.0811 2.54501 12.6 2.17997L12.51 2.12997C12.4869 2.13455 12.4631 2.13455 12.44 2.12997H12.29H12.17H11.9C11.8534 2.1253 11.8065 2.1253 11.76 2.12997H11.63L11.55 2.17997H11.46C10.9717 2.56297 10.4102 2.84203 9.81 2.99997C7.57 3.41997 6.07 4.33997 5.38 5.71997C5.13314 6.24973 4.9953 6.8237 4.97469 7.40779C4.95407 7.99187 5.0511 8.57414 5.26 9.11997C4.88468 9.26942 4.56341 9.52903 4.3385 9.86461C4.11359 10.2002 3.99558 10.596 4 11V20C4 20.5304 4.21071 21.0391 4.58578 21.4142C4.96086 21.7893 5.46956 22 6 22H10V17.11C9.98082 16.6184 10.1374 16.136 10.4415 15.7494C10.7457 15.3627 11.1777 15.097 11.66 15C11.9496 14.95 12.2467 14.9644 12.5301 15.0423C12.8135 15.1202 13.0762 15.2595 13.2997 15.4505C13.5231 15.6414 13.7017 15.8793 13.8227 16.1471C13.9437 16.4149 14.0043 16.7061 14 17V22H18C18.5304 22 19.0391 21.7893 19.4142 21.4142C19.7893 21.0391 20 20.5304 20 20V11C20.0004 10.5994 19.8805 10.208 19.6558 9.87634C19.4312 9.54471 19.1121 9.28818 18.74 9.13997Z" fill="#141414"/>
</svg>
