<svg width="24" height="24" viewBox="0 0 24 24" fill="none" xmlns="http://www.w3.org/2000/svg">
<path d="M9.99982 17H4.99982C4.99982 18.1 5.89982 19 6.99982 19H8.99982V20C8.99982 21.1 9.89982 22 10.9998 22H11.9998V19C11.9998 17.9 11.0998 17 9.99982 17ZM12.9998 2C8.67982 2 5.14982 5.45 5.00982 9.74L3.09982 13.56C2.84982 14.05 3.04982 14.65 3.54982 14.9L3.75982 15.01H9.99982C12.2098 15.01 13.9998 16.8 13.9998 19.01V22.01H15.9998C17.0998 22.01 17.9998 21.11 17.9998 20.01V16.25C19.8298 14.78 20.9998 12.53 20.9998 10.01C20.9998 5.6 17.4098 2.01 12.9998 2.01V2Z" fill="#141414"/>
</svg>
