<svg width="24" height="24" viewBox="0 0 24 24" fill="none" xmlns="http://www.w3.org/2000/svg">
<path d="M19.1699 8.66C19.3677 8.66 19.561 8.60135 19.7255 8.49147C19.8899 8.38159 20.0181 8.22541 20.0938 8.04268C20.1695 7.85996 20.1893 7.65889 20.1507 7.46491C20.1121 7.27093 20.0169 7.09275 19.877 6.95289C19.7371 6.81304 19.559 6.7178 19.365 6.67921C19.171 6.64063 18.9699 6.66043 18.7872 6.73612C18.6045 6.81181 18.4483 6.93998 18.3384 7.10443C18.2285 7.26888 18.1699 7.46222 18.1699 7.66C18.1699 7.92522 18.2752 8.17957 18.4628 8.36711C18.6503 8.55464 18.9047 8.66 19.1699 8.66ZM20.9999 9H17.3499C17.0847 9 16.8303 9.10536 16.6428 9.29289C16.4552 9.48043 16.3499 9.73478 16.3499 10C16.3499 10.2652 16.4552 10.5196 16.6428 10.7071C16.8303 10.8946 17.0847 11 17.3499 11H20.9999C21.2651 11 21.5195 10.8946 21.707 10.7071C21.8945 10.5196 21.9999 10.2652 21.9999 10C21.9999 9.73478 21.8945 9.48043 21.707 9.29289C21.5195 9.10536 21.2651 9 20.9999 9ZM12.0899 5.75H12.8399V6.5C12.8399 6.76522 12.9452 7.01957 13.1328 7.20711C13.3203 7.39464 13.5747 7.5 13.8399 7.5C14.1051 7.5 14.3595 7.39464 14.547 7.20711C14.7345 7.01957 14.8399 6.76522 14.8399 6.5V5.75H15.5899C15.8551 5.75 16.1095 5.64464 16.297 5.45711C16.4845 5.26957 16.5899 5.01522 16.5899 4.75C16.5899 4.48478 16.4845 4.23043 16.297 4.04289C16.1095 3.85536 15.8551 3.75 15.5899 3.75H14.8399V3C14.8399 2.73478 14.7345 2.48043 14.547 2.29289C14.3595 2.10536 14.1051 2 13.8399 2C13.5747 2 13.3203 2.10536 13.1328 2.29289C12.9452 2.48043 12.8399 2.73478 12.8399 3V3.75H12.0899C11.8247 3.75 11.5703 3.85536 11.3828 4.04289C11.1952 4.23043 11.0899 4.48478 11.0899 4.75C11.0899 5.01522 11.1952 5.26957 11.3828 5.45711C11.5703 5.64464 11.8247 5.75 12.0899 5.75ZM19.1699 11.34C18.9047 11.34 18.6503 11.4454 18.4628 11.6329C18.2752 11.8204 18.1699 12.0748 18.1699 12.34C18.1699 12.6052 18.2752 12.8596 18.4628 13.0471C18.6503 13.2346 18.9047 13.34 19.1699 13.34C19.4351 13.34 19.6895 13.2346 19.877 13.0471C20.0645 12.8596 20.1699 12.6052 20.1699 12.34C20.1699 12.0748 20.0645 11.8204 19.877 11.6329C19.6895 11.4454 19.4351 11.34 19.1699 11.34ZM16.1699 12.78C15.6264 12.5475 15.1637 12.1596 14.8399 11.665C14.5161 11.1704 14.3456 10.5911 14.3499 10C14.34 9.89022 14.34 9.77978 14.3499 9.67C14.3499 9.6 14.3499 9.52 14.3499 9.44H14.1299C14.0171 9.45524 13.9027 9.45524 13.7899 9.44C13.1902 9.44138 12.6039 9.26301 12.1066 8.9279C11.6092 8.59279 11.2238 8.11633 10.9999 7.56C10.5201 7.37174 10.097 7.06305 9.77116 6.6637C9.44538 6.26435 9.22797 5.7878 9.13989 5.28C7.87552 5.62426 6.73466 6.31994 5.84967 7.28635C4.96468 8.25276 4.37183 9.45029 4.13989 10.74L3.05989 13.66C3.00578 13.8102 2.98844 13.9713 3.00932 14.1296C3.03019 14.2879 3.08868 14.4389 3.17989 14.57C3.27179 14.7025 3.39435 14.8107 3.53713 14.8856C3.67991 14.9605 3.83867 14.9997 3.99989 15H4.49989V16C4.48988 16.7161 4.73642 17.4122 5.19493 17.9625C5.65345 18.5127 6.29368 18.8807 6.99989 19V20C6.99989 20.2652 7.10525 20.5196 7.29278 20.7071C7.48032 20.8946 7.73467 21 7.99989 21H14.9999C15.2651 21 15.5195 20.8946 15.707 20.7071C15.8945 20.5196 15.9999 20.2652 15.9999 20V16.89C16.6022 16.2733 17.0809 15.5468 17.4099 14.75C17.0892 14.5185 16.8186 14.2248 16.6141 13.8863C16.4096 13.5478 16.2756 13.1715 16.2199 12.78H16.1699Z" fill="#141414"/>
</svg>
