<svg width="24" height="24" viewBox="0 0 24 24" fill="none" xmlns="http://www.w3.org/2000/svg">
<path d="M19.57 19L15 13.83C15.2031 13.5064 15.3518 13.1517 15.44 12.78L18.44 12.57C18.579 12.7089 18.7444 12.8185 18.9265 12.8923C19.1085 12.9662 19.3035 13.0028 19.5 13C19.8978 13 20.2794 12.842 20.5607 12.5607C20.842 12.2794 21 11.8978 21 11.5C21 11.1022 20.842 10.7206 20.5607 10.4393C20.2794 10.158 19.8978 10 19.5 10C19.2735 9.99999 19.05 10.0523 18.8471 10.1529C18.6441 10.2536 18.4671 10.3997 18.33 10.58L15.27 10.78C15.1553 10.4754 14.997 10.1891 14.8 9.93L17.8 5.98L18 6C18.3956 6 18.7822 5.8827 19.1111 5.66294C19.44 5.44318 19.6964 5.13082 19.8478 4.76537C19.9991 4.39992 20.0387 3.99778 19.9616 3.60982C19.8844 3.22186 19.6939 2.86549 19.4142 2.58579C19.1345 2.30608 18.7781 2.1156 18.3902 2.03843C18.0022 1.96126 17.6001 2.00087 17.2346 2.15224C16.8692 2.30362 16.5568 2.55996 16.3371 2.88886C16.1173 3.21776 16 3.60444 16 4C15.9968 4.27169 16.0514 4.54096 16.16 4.79L13.16 8.73C12.5241 8.47501 11.8235 8.42947 11.16 8.6L9 4.7C9.0049 4.63342 9.0049 4.56658 9 4.5C8.99947 4.20728 8.9133 3.92111 8.75212 3.67676C8.59094 3.43241 8.36178 3.24056 8.0929 3.12485C7.82401 3.00915 7.52715 2.97465 7.23889 3.0256C6.95064 3.07656 6.68359 3.21074 6.47067 3.41161C6.25774 3.61249 6.10824 3.87127 6.0406 4.15607C5.97295 4.44087 5.99012 4.73924 6.08998 5.0144C6.18983 5.28957 6.36802 5.5295 6.60257 5.70463C6.83713 5.87976 7.1178 5.98244 7.41 6L9.47 9.6C9.13994 9.95167 8.88477 10.3667 8.72 10.82L4.67 10.58C4.48 10.3432 4.22261 10.1696 3.93185 10.0822C3.64109 9.99477 3.33065 9.99766 3.04156 10.0904C2.75248 10.1832 2.49835 10.3616 2.31278 10.6019C2.12722 10.8422 2.01894 11.1331 2.00226 11.4363C1.98559 11.7395 2.06131 12.0405 2.2194 12.2997C2.3775 12.5589 2.61053 12.7641 2.8877 12.888C3.16486 13.0119 3.47312 13.0489 3.77171 12.9939C4.0703 12.9389 4.34517 12.7946 4.56 12.58L8.56 12.82C8.66988 13.2785 8.87049 13.7103 9.15 14.09L6.23 18H6C5.60443 18 5.21775 18.1173 4.88886 18.3371C4.55996 18.5568 4.30361 18.8692 4.15224 19.2346C4.00086 19.6001 3.96125 20.0022 4.03843 20.3902C4.1156 20.7781 4.30608 21.1345 4.58578 21.4142C4.86549 21.6939 5.22185 21.8844 5.60982 21.9616C5.99778 22.0387 6.39991 21.9991 6.76536 21.8478C7.13082 21.6964 7.44317 21.44 7.66293 21.1111C7.8827 20.7822 8 20.3956 8 20C7.99817 19.7288 7.94384 19.4605 7.84 19.21L10.79 15.27C10.9436 15.329 11.1006 15.3791 11.26 15.42L11.42 17.42C11.1585 17.6882 11.0084 18.0455 11 18.42C11 18.8178 11.158 19.1994 11.4393 19.4807C11.7206 19.762 12.1022 19.92 12.5 19.92C12.8978 19.92 13.2794 19.762 13.5607 19.4807C13.842 19.1994 14 18.8178 14 18.42C14.0004 18.1909 13.9472 17.965 13.8448 17.7601C13.7424 17.5552 13.5935 17.3771 13.41 17.24L13.25 15.18L13.49 15.08L18 20.28C17.9562 20.5791 18.0037 20.8845 18.1364 21.1561C18.2692 21.4277 18.4809 21.6529 18.7438 21.8021C19.0067 21.9513 19.3086 22.0176 19.6099 21.9923C19.9111 21.9669 20.1977 21.8512 20.432 21.6601C20.6663 21.4691 20.8374 21.2117 20.9229 20.9218C21.0084 20.6318 21.0043 20.3227 20.9111 20.0352C20.8179 19.7476 20.64 19.4948 20.4007 19.3101C20.1614 19.1254 19.8718 19.0173 19.57 19Z" fill="#141414"/>
</svg>
