<svg width="24" height="24" viewBox="0 0 24 24" fill="none" xmlns="http://www.w3.org/2000/svg">
<path d="M16 5.09V5C16 4.46957 15.7893 3.96086 15.4142 3.58579C15.0391 3.21071 14.5304 3 14 3H10C9.46957 3 8.96086 3.21071 8.58579 3.58579C8.21071 3.96086 8 4.46957 8 5C8 5 8 5.06 8 5.09C6.60294 5.32615 5.33452 6.04908 4.41939 7.13077C3.50425 8.21247 3.00144 9.58312 3 11V18C3 18.7956 3.31607 19.5587 3.87868 20.1213C4.44129 20.6839 5.20435 21 6 21H18C18.7956 21 19.5587 20.6839 20.1213 20.1213C20.6839 19.5587 21 18.7956 21 18V11C20.9986 9.58312 20.4958 8.21247 19.5806 7.13077C18.6655 6.04908 17.3971 5.32615 16 5.09ZM6 18C5.80222 18 5.60888 17.9414 5.44443 17.8315C5.27998 17.7216 5.15181 17.5654 5.07612 17.3827C5.00043 17.2 4.98063 16.9989 5.01921 16.8049C5.0578 16.6109 5.15304 16.4327 5.29289 16.2929C5.43275 16.153 5.61093 16.0578 5.80491 16.0192C5.99889 15.9806 6.19996 16.0004 6.38268 16.0761C6.56541 16.1518 6.72159 16.28 6.83147 16.4444C6.94135 16.6089 7 16.8022 7 17C7 17.2652 6.89464 17.5196 6.70711 17.7071C6.51957 17.8946 6.26522 18 6 18ZM11 13C11 13.2652 10.8946 13.5196 10.7071 13.7071C10.5196 13.8946 10.2652 14 10 14H6C5.73478 14 5.48043 13.8946 5.29289 13.7071C5.10536 13.5196 5 13.2652 5 13V11C5 10.7348 5.10536 10.4804 5.29289 10.2929C5.48043 10.1054 5.73478 10 6 10H10C10.2652 10 10.5196 10.1054 10.7071 10.2929C10.8946 10.4804 11 10.7348 11 11V13ZM18 18C17.8022 18 17.6089 17.9414 17.4444 17.8315C17.28 17.7216 17.1518 17.5654 17.0761 17.3827C17.0004 17.2 16.9806 16.9989 17.0192 16.8049C17.0578 16.6109 17.153 16.4327 17.2929 16.2929C17.4327 16.153 17.6109 16.0578 17.8049 16.0192C17.9989 15.9806 18.2 16.0004 18.3827 16.0761C18.5654 16.1518 18.7216 16.28 18.8315 16.4444C18.9414 16.6089 19 16.8022 19 17C19 17.2652 18.8946 17.5196 18.7071 17.7071C18.5196 17.8946 18.2652 18 18 18ZM19 13C19 13.2652 18.8946 13.5196 18.7071 13.7071C18.5196 13.8946 18.2652 14 18 14H14C13.7348 14 13.4804 13.8946 13.2929 13.7071C13.1054 13.5196 13 13.2652 13 13V11C13 10.7348 13.1054 10.4804 13.2929 10.2929C13.4804 10.1054 13.7348 10 14 10H18C18.2652 10 18.5196 10.1054 18.7071 10.2929C18.8946 10.4804 19 10.7348 19 11V13Z" fill="#141414"/>
</svg>
