<svg width="24" height="24" viewBox="0 0 24 24" fill="none" xmlns="http://www.w3.org/2000/svg">
<path d="M20.41 5L21.12 4.29C21.2838 4.0987 21.3694 3.85262 21.3597 3.60095C21.35 3.34927 21.2457 3.11053 21.0676 2.93244C20.8895 2.75434 20.6507 2.65001 20.3991 2.64029C20.1474 2.63057 19.9013 2.71617 19.71 2.88L19 3.59L18.29 2.88C18.0987 2.71617 17.8526 2.63057 17.6009 2.64029C17.3493 2.65001 17.1105 2.75434 16.9324 2.93244C16.7543 3.11053 16.65 3.34927 16.6403 3.60095C16.6306 3.85262 16.7162 4.0987 16.88 4.29L17.59 5L16.88 5.71C16.6937 5.89736 16.5892 6.15081 16.5892 6.415C16.5892 6.67919 16.6937 6.93264 16.88 7.12C17.0674 7.30625 17.3208 7.41079 17.585 7.41079C17.8492 7.41079 18.1026 7.30625 18.29 7.12L19 6.41L19.71 7.12C19.8974 7.30625 20.1508 7.41079 20.415 7.41079C20.6792 7.41079 20.9326 7.30625 21.12 7.12C21.3063 6.93264 21.4108 6.67919 21.4108 6.415C21.4108 6.15081 21.3063 5.89736 21.12 5.71L20.41 5ZM14 5C14 3.91815 14.3509 2.86548 15 2H7C6.20435 2 5.44129 2.31607 4.87868 2.87868C4.31607 3.44129 4 4.20435 4 5V19C4 19.7956 4.31607 20.5587 4.87868 21.1213C5.44129 21.6839 6.20435 22 7 22H17C17.7956 22 18.5587 21.6839 19.1213 21.1213C19.6839 20.5587 20 19.7956 20 19V9.9C19.6704 9.96395 19.3357 9.99742 19 10C17.6739 10 16.4021 9.47322 15.4645 8.53553C14.5268 7.59785 14 6.32608 14 5ZM14.5 14C14.5 14.4465 14.4004 14.8874 14.2084 15.2905C14.0163 15.6936 13.7367 16.0487 13.39 16.33L14.95 17.11C15.1855 17.2299 15.364 17.4381 15.4465 17.6892C15.5289 17.9403 15.5086 18.2138 15.39 18.45C15.3069 18.6149 15.1798 18.7536 15.0227 18.8507C14.8656 18.9478 14.6847 18.9994 14.5 19C14.3431 19.0019 14.1883 18.964 14.05 18.89L10.05 16.89C9.8507 16.7879 9.69144 16.6219 9.59772 16.4185C9.504 16.2151 9.48125 15.9862 9.53312 15.7684C9.58499 15.5505 9.70846 15.3564 9.88377 15.2171C10.0591 15.0778 10.2761 15.0013 10.5 15H11.5C11.7652 15 12.0196 14.8946 12.2071 14.7071C12.3946 14.5196 12.5 14.2652 12.5 14C12.5 13.7348 12.3946 13.4804 12.2071 13.2929C12.0196 13.1054 11.7652 13 11.5 13H9.5C9.23478 13 8.98043 12.8946 8.79289 12.7071C8.60536 12.5196 8.5 12.2652 8.5 12C8.5 11.7348 8.60536 11.4804 8.79289 11.2929C8.98043 11.1054 9.23478 11 9.5 11H14.5C14.7652 11 15.0196 11.1054 15.2071 11.2929C15.3946 11.4804 15.5 11.7348 15.5 12C15.5 12.2652 15.3946 12.5196 15.2071 12.7071C15.0196 12.8946 14.7652 13 14.5 13H14.32C14.4364 13.3207 14.4973 13.6589 14.5 14Z" fill="#141414"/>
</svg>
