<svg width="24" height="24" viewBox="0 0 24 24" fill="none" xmlns="http://www.w3.org/2000/svg">
<path d="M20 6H18V5C18 4.20435 17.6839 3.44129 17.1213 2.87868C16.5587 2.31607 15.7956 2 15 2H9C8.20435 2 7.44129 2.31607 6.87868 2.87868C6.31607 3.44129 6 4.20435 6 5V6H4C3.73478 6 3.48043 6.10536 3.29289 6.29289C3.10536 6.48043 3 6.73478 3 7C3 7.26522 3.10536 7.51957 3.29289 7.70711C3.48043 7.89464 3.73478 8 4 8H5V19C5 19.7956 5.31607 20.5587 5.87868 21.1213C6.44129 21.6839 7.20435 22 8 22H16C16.7956 22 17.5587 21.6839 18.1213 21.1213C18.6839 20.5587 19 19.7956 19 19V8H20C20.2652 8 20.5196 7.89464 20.7071 7.70711C20.8946 7.51957 21 7.26522 21 7C21 6.73478 20.8946 6.48043 20.7071 6.29289C20.5196 6.10536 20.2652 6 20 6ZM9 18C9 18.2652 8.89464 18.5196 8.70711 18.7071C8.51957 18.8946 8.26522 19 8 19C7.73478 19 7.48043 18.8946 7.29289 18.7071C7.10536 18.5196 7 18.2652 7 18V11C7 10.7348 7.10536 10.4804 7.29289 10.2929C7.48043 10.1054 7.73478 10 8 10C8.26522 10 8.51957 10.1054 8.70711 10.2929C8.89464 10.4804 9 10.7348 9 11V18ZM13 18C13 18.2652 12.8946 18.5196 12.7071 18.7071C12.5196 18.8946 12.2652 19 12 19C11.7348 19 11.4804 18.8946 11.2929 18.7071C11.1054 18.5196 11 18.2652 11 18V11C11 10.7348 11.1054 10.4804 11.2929 10.2929C11.4804 10.1054 11.7348 10 12 10C12.2652 10 12.5196 10.1054 12.7071 10.2929C12.8946 10.4804 13 10.7348 13 11V18ZM17 18C17 18.2652 16.8946 18.5196 16.7071 18.7071C16.5196 18.8946 16.2652 19 16 19C15.7348 19 15.4804 18.8946 15.2929 18.7071C15.1054 18.5196 15 18.2652 15 18V11C15 10.7348 15.1054 10.4804 15.2929 10.2929C15.4804 10.1054 15.7348 10 16 10C16.2652 10 16.5196 10.1054 16.7071 10.2929C16.8946 10.4804 17 10.7348 17 11V18ZM8 5C8 4.73478 8.10536 4.48043 8.29289 4.29289C8.48043 4.10536 8.73478 4 9 4H15C15.2652 4 15.5196 4.10536 15.7071 4.29289C15.8946 4.48043 16 4.73478 16 5V6H8V5Z" fill="#141414"/>
</svg>
