<svg width="24" height="24" viewBox="0 0 24 24" fill="none" xmlns="http://www.w3.org/2000/svg">
<path d="M16 4.34C16 4.23 16 4.12 16 4C16 3.46957 15.7893 2.96086 15.4142 2.58579C15.0391 2.21071 14.5304 2 14 2H10C9.46957 2 8.96086 2.21071 8.58579 2.58579C8.21071 2.96086 8 3.46957 8 4C8 4.12 8 4.23 8 4.34C6.82969 4.75377 5.81651 5.52033 5.10011 6.53404C4.38371 7.54774 3.99935 8.7587 4 10V19C4 19.7956 4.31607 20.5587 4.87868 21.1213C5.44129 21.6839 6.20435 22 7 22H17C17.7957 22 18.5587 21.6839 19.1213 21.1213C19.6839 20.5587 20 19.7956 20 19V10C20.0007 8.7587 19.6163 7.54774 18.8999 6.53404C18.1835 5.52033 17.1703 4.75377 16 4.34ZM7 19C6.80222 19 6.60888 18.9414 6.44443 18.8315C6.27998 18.7216 6.15181 18.5654 6.07612 18.3827C6.00043 18.2 5.98063 17.9989 6.01922 17.8049C6.0578 17.6109 6.15304 17.4327 6.29289 17.2929C6.43275 17.153 6.61093 17.0578 6.80491 17.0192C6.99889 16.9806 7.19996 17.0004 7.38268 17.0761C7.56541 17.1518 7.72159 17.28 7.83147 17.4444C7.94135 17.6089 8 17.8022 8 18C8 18.2652 7.89464 18.5196 7.70711 18.7071C7.51957 18.8946 7.26522 19 7 19ZM11 14C11 14.2652 10.8946 14.5196 10.7071 14.7071C10.5196 14.8946 10.2652 15 10 15H7C6.73478 15 6.48043 14.8946 6.29289 14.7071C6.10536 14.5196 6 14.2652 6 14V10C6 9.73478 6.10536 9.48043 6.29289 9.29289C6.48043 9.10536 6.73478 9 7 9H10C10.2652 9 10.5196 9.10536 10.7071 9.29289C10.8946 9.48043 11 9.73478 11 10V14ZM17 19C16.8022 19 16.6089 18.9414 16.4444 18.8315C16.28 18.7216 16.1518 18.5654 16.0761 18.3827C16.0004 18.2 15.9806 17.9989 16.0192 17.8049C16.0578 17.6109 16.153 17.4327 16.2929 17.2929C16.4327 17.153 16.6109 17.0578 16.8049 17.0192C16.9989 16.9806 17.2 17.0004 17.3827 17.0761C17.5654 17.1518 17.7216 17.28 17.8315 17.4444C17.9414 17.6089 18 17.8022 18 18C18 18.2652 17.8946 18.5196 17.7071 18.7071C17.5196 18.8946 17.2652 19 17 19ZM18 14C18 14.2652 17.8946 14.5196 17.7071 14.7071C17.5196 14.8946 17.2652 15 17 15H14C13.7348 15 13.4804 14.8946 13.2929 14.7071C13.1054 14.5196 13 14.2652 13 14V10C13 9.73478 13.1054 9.48043 13.2929 9.29289C13.4804 9.10536 13.7348 9 14 9H17C17.2652 9 17.5196 9.10536 17.7071 9.29289C17.8946 9.48043 18 9.73478 18 10V14Z" fill="#141414"/>
</svg>
