<svg width="24" height="24" viewBox="0 0 24 24" fill="none" xmlns="http://www.w3.org/2000/svg">
<path d="M16 14V6C16 4.93913 15.5786 3.92172 14.8285 3.17157C14.0783 2.42143 13.0609 2 12 2C10.9392 2 9.92176 2.42143 9.17161 3.17157C8.42147 3.92172 8.00004 4.93913 8.00004 6V14C7.347 14.8634 6.99565 15.9174 7.00004 17C7.00004 18.3261 7.52682 19.5979 8.46451 20.5355C9.40219 21.4732 10.674 22 12 22C13.3261 22 14.5979 21.4732 15.5356 20.5355C16.4733 19.5979 17 18.3261 17 17C17.0044 15.9174 16.6531 14.8634 16 14ZM12 19C11.4696 19 10.9609 18.7893 10.5858 18.4142C10.2108 18.0391 10 17.5304 10 17C10.0021 16.651 10.0956 16.3086 10.271 16.0068C10.4464 15.7051 10.6978 15.4545 11 15.28V8C11 7.73478 11.1054 7.48043 11.2929 7.29289C11.4805 7.10536 11.7348 7 12 7C12.2653 7 12.5196 7.10536 12.7071 7.29289C12.8947 7.48043 13 7.73478 13 8V15.28C13.3023 15.4545 13.5537 15.7051 13.7291 16.0068C13.9045 16.3086 13.9979 16.651 14 17C14 17.5304 13.7893 18.0391 13.4143 18.4142C13.0392 18.7893 12.5305 19 12 19Z" fill="#141414"/>
</svg>
