<svg width="24" height="24" viewBox="0 0 24 24" fill="none" xmlns="http://www.w3.org/2000/svg">
<path d="M7.00001 11C7.23266 10.996 7.46412 10.9658 7.69001 10.91C7.03406 10.0858 6.62955 9.09002 6.52491 8.04186C6.42027 6.99371 6.61994 5.93761 7.10001 5H7.00001C6.20436 5 5.4413 5.31607 4.87869 5.87868C4.31608 6.44129 4.00001 7.20435 4.00001 8C4.00001 8.79565 4.31608 9.55871 4.87869 10.1213C5.4413 10.6839 6.20436 11 7.00001 11ZM12 11C12.6922 11 13.3689 10.7947 13.9445 10.4101C14.5201 10.0256 14.9687 9.47893 15.2336 8.83939C15.4985 8.19985 15.5678 7.49612 15.4328 6.81719C15.2977 6.13825 14.9644 5.51461 14.4749 5.02513C13.9854 4.53564 13.3618 4.2023 12.6828 4.06725C12.0039 3.9322 11.3002 4.00152 10.6606 4.26642C10.0211 4.53133 9.47445 4.97993 9.08987 5.55551C8.70528 6.13108 8.50001 6.80777 8.50001 7.5C8.50001 8.42826 8.86876 9.3185 9.52514 9.97487C10.1815 10.6313 11.0718 11 12 11ZM17 11C17.7957 11 18.5587 10.6839 19.1213 10.1213C19.6839 9.55871 20 8.79565 20 8C20 7.20435 19.6839 6.44129 19.1213 5.87868C18.5587 5.31607 17.7957 5 17 5H16.9C17.378 5.93641 17.5765 6.99056 17.4719 8.03669C17.3673 9.08282 16.964 10.0768 16.31 10.9C16.5355 10.9592 16.767 10.9927 17 11ZM12 12C10.4087 12 8.88259 12.6321 7.75737 13.7574C6.63215 14.8826 6.00001 16.4087 6.00001 18C6.00001 18.5304 6.21072 19.0391 6.5858 19.4142C6.96087 19.7893 7.46958 20 8.00001 20H16C16.5304 20 17.0392 19.7893 17.4142 19.4142C17.7893 19.0391 18 18.5304 18 18C18 16.4087 17.3679 14.8826 16.2427 13.7574C15.1174 12.6321 13.5913 12 12 12ZM17.31 12C18.1579 12.7524 18.8362 13.6765 19.2999 14.7109C19.7637 15.7453 20.0023 16.8664 20 18C19.9948 18.3378 19.9478 18.6737 19.86 19H20C20.5304 19 21.0392 18.7893 21.4142 18.4142C21.7893 18.0391 22 17.5304 22 17C22.0025 15.7259 21.5184 14.499 20.6468 13.5697C19.7752 12.6404 18.5816 12.079 17.31 12ZM6.69001 12C5.41838 12.079 4.22487 12.6404 3.35322 13.5697C2.48158 14.499 1.99756 15.7259 2.00001 17C2.00001 17.5304 2.21072 18.0391 2.5858 18.4142C2.96087 18.7893 3.46958 19 4.00001 19H4.14001C4.05222 18.6737 4.00519 18.3378 4.00001 18C3.99769 16.8664 4.23632 15.7453 4.70007 14.7109C5.16383 13.6765 5.84212 12.7524 6.69001 12Z" fill="#141414"/>
</svg>
