<svg width="24" height="24" viewBox="0 0 24 24" fill="none" xmlns="http://www.w3.org/2000/svg">
<path d="M19 4H5C4.20435 4 3.44129 4.31607 2.87868 4.87868C2.31607 5.44129 2 6.20435 2 7V17C2 17.7956 2.31607 18.5587 2.87868 19.1213C3.44129 19.6839 4.20435 20 5 20H19C19.7956 20 20.5587 19.6839 21.1213 19.1213C21.6839 18.5587 22 17.7956 22 17V7C22 6.20435 21.6839 5.44129 21.1213 4.87868C20.5587 4.31607 19.7956 4 19 4ZM12 16C12 16.2652 11.8946 16.5196 11.7071 16.7071C11.5196 16.8946 11.2652 17 11 17C10.7348 17 10.4804 16.8946 10.2929 16.7071C10.1054 16.5196 10 16.2652 10 16V11L9.12 11.7C8.91181 11.8644 8.64682 11.9394 8.38333 11.9085C8.11984 11.8775 7.87943 11.7432 7.715 11.535C7.55057 11.3268 7.47557 11.0618 7.50652 10.7983C7.53746 10.5348 7.67181 10.2944 7.88 10.13L10.38 8.13C10.533 8.00782 10.7186 7.93326 10.9136 7.91557C11.1086 7.89788 11.3045 7.93784 11.4771 8.03049C11.6496 8.12314 11.7911 8.2644 11.8841 8.43675C11.977 8.6091 12.0173 8.80495 12 9V16ZM17 17C16.8022 17 16.6089 16.9414 16.4444 16.8315C16.28 16.7216 16.1518 16.5654 16.0761 16.3827C16.0004 16.2 15.9806 15.9989 16.0192 15.8049C16.0578 15.6109 16.153 15.4327 16.2929 15.2929C16.4327 15.153 16.6109 15.0578 16.8049 15.0192C16.9989 14.9806 17.2 15.0004 17.3827 15.0761C17.5654 15.1518 17.7216 15.28 17.8315 15.4444C17.9414 15.6089 18 15.8022 18 16C18 16.2652 17.8946 16.5196 17.7071 16.7071C17.5196 16.8946 17.2652 17 17 17ZM17 13C16.8022 13 16.6089 12.9414 16.4444 12.8315C16.28 12.7216 16.1518 12.5654 16.0761 12.3827C16.0004 12.2 15.9806 11.9989 16.0192 11.8049C16.0578 11.6109 16.153 11.4327 16.2929 11.2929C16.4327 11.153 16.6109 11.0578 16.8049 11.0192C16.9989 10.9806 17.2 11.0004 17.3827 11.0761C17.5654 11.1518 17.7216 11.28 17.8315 11.4444C17.9414 11.6089 18 11.8022 18 12C18 12.2652 17.8946 12.5196 17.7071 12.7071C17.5196 12.8946 17.2652 13 17 13ZM17 9C16.8022 9 16.6089 8.94135 16.4444 8.83147C16.28 8.72159 16.1518 8.56541 16.0761 8.38268C16.0004 8.19996 15.9806 7.99889 16.0192 7.80491C16.0578 7.61093 16.153 7.43275 16.2929 7.29289C16.4327 7.15304 16.6109 7.0578 16.8049 7.01921C16.9989 6.98063 17.2 7.00043 17.3827 7.07612C17.5654 7.15181 17.7216 7.27998 17.8315 7.44443C17.9414 7.60888 18 7.80222 18 8C18 8.26522 17.8946 8.51957 17.7071 8.70711C17.5196 8.89464 17.2652 9 17 9Z" fill="#141414"/>
</svg>
