<svg width="24" height="24" viewBox="0 0 24 24" fill="none" xmlns="http://www.w3.org/2000/svg">
<path d="M17.6499 16.9999C17.5474 16.9704 17.4382 16.9739 17.3378 17.0098C17.2373 17.0457 17.1506 17.1121 17.0899 17.1999L16.0899 18.6399C16.034 18.7225 16.0042 18.8201 16.0042 18.9199C16.0042 19.0197 16.034 19.1172 16.0899 19.1999L17.0899 20.7499C17.1337 20.8216 17.1955 20.8806 17.2692 20.921C17.3429 20.9613 17.4259 20.9816 17.5099 20.9799H17.6499C17.7519 20.9478 17.841 20.8839 17.9039 20.7975C17.9669 20.7111 18.0006 20.6068 17.9999 20.4999V17.4999C18.005 17.3896 17.9734 17.2807 17.9101 17.1903C17.8468 17.0998 17.7553 17.0329 17.6499 16.9999ZM21.9999 11.9999C21.9981 10.6859 21.74 9.38494 21.2399 8.16986C20.225 5.72069 18.2791 3.77477 15.8299 2.75986C13.6923 1.8734 11.3135 1.75575 9.09882 2.42695C6.88418 3.09815 4.97088 4.51666 3.68506 6.44066C2.39924 8.36467 1.82051 10.6751 2.04751 12.978C2.27452 15.281 3.29321 17.4339 4.92993 19.0699C6.18842 20.335 7.76457 21.2377 9.49263 21.6829C11.2207 22.1281 13.0368 22.0994 14.7499 21.5999C14.2623 20.8201 14.0025 19.9195 13.9999 18.9999C13.9999 17.6738 14.5267 16.402 15.4644 15.4643C16.4021 14.5266 17.6739 13.9999 18.9999 13.9999C19.9197 14.0014 20.8206 14.2613 21.5999 14.7499C21.8635 13.8569 21.9982 12.9309 21.9999 11.9999ZM12.9999 12.9999C12.9999 13.2651 12.8946 13.5194 12.707 13.707C12.5195 13.8945 12.2652 13.9999 11.9999 13.9999H8.99993C8.73472 13.9999 8.48036 13.8945 8.29283 13.707C8.10529 13.5194 7.99993 13.2651 7.99993 12.9999C7.99993 12.7346 8.10529 12.4803 8.29283 12.2928C8.48036 12.1052 8.73472 11.9999 8.99993 11.9999H10.9999V8.99986C10.9999 8.73464 11.1053 8.48029 11.2928 8.29275C11.4804 8.10522 11.7347 7.99986 11.9999 7.99986C12.2652 7.99986 12.5195 8.10522 12.707 8.29275C12.8946 8.48029 12.9999 8.73464 12.9999 8.99986V12.9999ZM20.9199 17.2299C20.8617 17.1392 20.7757 17.0697 20.6748 17.0319C20.5739 16.9941 20.4634 16.9898 20.3599 17.0199C20.2561 17.0502 20.1648 17.1133 20.0999 17.1999C20.035 17.2864 19.9999 17.3917 19.9999 17.4999V20.4999C19.9993 20.6068 20.0329 20.7111 20.0959 20.7975C20.1589 20.8839 20.2479 20.9478 20.3499 20.9799H20.4999C20.5812 20.98 20.6611 20.96 20.7327 20.9216C20.8043 20.8832 20.8652 20.8276 20.9099 20.7599L21.9099 19.3199C21.9658 19.2372 21.9957 19.1397 21.9957 19.0399C21.9957 18.9401 21.9658 18.8425 21.9099 18.7599L20.9199 17.2299Z" fill="#141414"/>
</svg>
