<svg width="24" height="24" viewBox="0 0 24 24" fill="none" xmlns="http://www.w3.org/2000/svg">
<path d="M20.9297 7.11952C20.5897 5.08952 18.9497 3.43952 16.9197 3.07952C15.8397 2.88952 14.8197 3.03952 13.9397 3.44952C12.7197 4.00952 11.2897 4.00952 10.0697 3.44952C9.1897 3.03952 8.1697 2.88952 7.0897 3.07952C5.0597 3.43952 3.4297 5.08952 3.0797 7.11952C2.7597 9.02952 3.5197 10.7795 4.8497 11.8595C5.5697 12.4395 6.0097 13.2995 6.0097 14.2195V16.9895C6.0097 19.0295 7.3997 21.0595 9.0897 20.9895C9.6097 20.9695 10.0097 20.5095 10.0097 19.9895V15.9895C10.0097 14.8895 10.9097 13.9895 12.0097 13.9895C13.1097 13.9895 14.0097 14.8895 14.0097 15.9895V19.9895C14.0097 20.5095 14.4097 20.9695 14.9297 20.9895C16.6197 21.0595 18.0097 19.0295 18.0097 16.9895V14.2195C18.0097 13.2995 18.4497 12.4395 19.1697 11.8595C20.4997 10.7795 21.2597 9.02952 20.9397 7.11952H20.9297Z" fill="#141414"/>
</svg>
