<svg width="24" height="24" viewBox="0 0 24 24" fill="none" xmlns="http://www.w3.org/2000/svg">
<path d="M12 7C12.2652 7 12.5195 6.89464 12.7071 6.70711C12.8946 6.51957 13 6.26522 13 6V3C13 2.73478 12.8946 2.48043 12.7071 2.29289C12.5195 2.10536 12.2652 2 12 2C11.7347 2 11.4804 2.10536 11.2928 2.29289C11.1053 2.48043 11 2.73478 11 3V6C11 6.26522 11.1053 6.51957 11.2928 6.70711C11.4804 6.89464 11.7347 7 12 7ZM8.28996 7.82C8.50714 7.6686 8.65542 7.43725 8.70229 7.17668C8.74915 6.91611 8.69077 6.64759 8.53996 6.43L6.81996 4C6.75463 3.8747 6.66349 3.76466 6.55254 3.67715C6.4416 3.58963 6.31336 3.52663 6.17629 3.49228C6.03922 3.45793 5.89643 3.45303 5.75732 3.47788C5.61822 3.50274 5.48596 3.5568 5.36927 3.63649C5.25257 3.71618 5.1541 3.8197 5.08032 3.94022C5.00655 4.06075 4.95916 4.19554 4.94127 4.33571C4.92338 4.47588 4.93541 4.61825 4.97655 4.75344C5.01769 4.88862 5.08702 5.01356 5.17996 5.12L6.89996 7.57C7.05136 7.78718 7.28271 7.93546 7.54328 7.98233C7.80385 8.02919 8.07236 7.97082 8.28996 7.82ZM18.29 3.72C18.1804 3.64677 18.0575 3.59592 17.9282 3.57036C17.799 3.5448 17.6659 3.54503 17.5368 3.57105C17.4076 3.59707 17.2848 3.64836 17.1755 3.72198C17.0663 3.79559 16.9726 3.89007 16.9 4L15.18 6.43C15.0968 6.53725 15.0364 6.66029 15.0023 6.79165C14.9683 6.923 14.9613 7.05991 14.9818 7.19404C15.0024 7.32818 15.05 7.45673 15.1218 7.57187C15.1936 7.687 15.2881 7.78632 15.3995 7.86378C15.5109 7.94123 15.637 7.99519 15.7699 8.02238C15.9029 8.04958 16.0399 8.04942 16.1728 8.02194C16.3057 7.99446 16.4316 7.94022 16.5429 7.86252C16.6541 7.78482 16.7484 7.6853 16.82 7.57L18.54 5.12C18.6162 5.01191 18.6702 4.88978 18.6989 4.76066C18.7277 4.63155 18.7305 4.49802 18.7072 4.36781C18.684 4.2376 18.6351 4.1133 18.5635 4.0021C18.4919 3.8909 18.3989 3.79502 18.29 3.72ZM16 9H7.99996C7.60454 8.99918 7.21775 9.11558 6.88847 9.33451C6.55919 9.55344 6.30219 9.86506 6.14996 10.23C5.99929 10.5961 5.96068 10.9987 6.03901 11.3868C6.11734 11.7749 6.30908 12.131 6.58996 12.41L8.99996 14.83V19C8.99996 19.7956 9.31603 20.5587 9.87864 21.1213C10.4412 21.6839 11.2043 22 12 22C12.7956 22 13.5587 21.6839 14.1213 21.1213C14.6839 20.5587 15 19.7956 15 19V14.83L17.41 12.41C17.6908 12.131 17.8826 11.7749 17.9609 11.3868C18.0392 10.9987 18.0006 10.5961 17.85 10.23C17.6977 9.86506 17.4407 9.55344 17.1114 9.33451C16.7822 9.11558 16.3954 8.99918 16 9ZM12 16C11.8022 16 11.6088 15.9414 11.4444 15.8315C11.2799 15.7216 11.1518 15.5654 11.0761 15.3827C11.0004 15.2 10.9806 14.9989 11.0192 14.8049C11.0578 14.6109 11.153 14.4327 11.2928 14.2929C11.4327 14.153 11.6109 14.0578 11.8049 14.0192C11.9988 13.9806 12.1999 14.0004 12.3826 14.0761C12.5654 14.1518 12.7215 14.28 12.8314 14.4444C12.9413 14.6089 13 14.8022 13 15C13 15.2652 12.8946 15.5196 12.7071 15.7071C12.5195 15.8946 12.2652 16 12 16Z" fill="#141414"/>
</svg>
