<svg width="24" height="24" viewBox="0 0 24 24" fill="none" xmlns="http://www.w3.org/2000/svg">
<path d="M20.71 16.29C20.6171 16.1963 20.5065 16.1219 20.3846 16.0711C20.2628 16.0203 20.1321 15.9942 20 15.9942C19.868 15.9942 19.7373 16.0203 19.6155 16.0711C19.4936 16.1219 19.383 16.1963 19.29 16.29L19 16.59V5C19 4.73478 18.8947 4.48043 18.7071 4.29289C18.5196 4.10536 18.2653 4 18 4C17.7348 4 17.4805 4.10536 17.2929 4.29289C17.1054 4.48043 17 4.73478 17 5V16.59L16.71 16.29C16.5217 16.1017 16.2663 15.9959 16 15.9959C15.7337 15.9959 15.4783 16.1017 15.29 16.29C15.1017 16.4783 14.9959 16.7337 14.9959 17C14.9959 17.2663 15.1017 17.5217 15.29 17.71L17.29 19.71C17.383 19.8037 17.4936 19.8781 17.6155 19.9289C17.7373 19.9797 17.868 20.0058 18 20.0058C18.1321 20.0058 18.2628 19.9797 18.3846 19.9289C18.5065 19.8781 18.6171 19.8037 18.71 19.71L20.71 17.71C20.8038 17.617 20.8782 17.5064 20.9289 17.3846C20.9797 17.2627 21.0058 17.132 21.0058 17C21.0058 16.868 20.9797 16.7373 20.9289 16.6154C20.8782 16.4936 20.8038 16.383 20.71 16.29ZM12 7C12 5.93913 11.5786 4.92172 10.8285 4.17157C10.0783 3.42143 9.06091 3 8.00004 3C6.93917 3 5.92176 3.42143 5.17161 4.17157C4.42147 4.92172 4.00004 5.93913 4.00004 7V13C3.347 13.8634 2.99565 14.9174 3.00004 16C3.00004 17.3261 3.52682 18.5979 4.46451 19.5355C5.40219 20.4732 6.67396 21 8.00004 21C9.32612 21 10.5979 20.4732 11.5356 19.5355C12.4733 18.5979 13 17.3261 13 16C13.0044 14.9174 12.6531 13.8634 12 13V7ZM8.00004 18C7.46961 18 6.9609 17.7893 6.58583 17.4142C6.21075 17.0391 6.00004 16.5304 6.00004 16C6.00215 15.651 6.09556 15.3086 6.27099 15.0068C6.44642 14.7051 6.69776 14.4545 7.00004 14.28V8C7.00004 7.73478 7.1054 7.48043 7.29293 7.29289C7.48047 7.10536 7.73482 7 8.00004 7C8.26526 7 8.51961 7.10536 8.70715 7.29289C8.89468 7.48043 9.00004 7.73478 9.00004 8V14.28C9.30232 14.4545 9.55366 14.7051 9.72909 15.0068C9.90452 15.3086 9.99793 15.651 10 16C10 16.5304 9.78933 17.0391 9.41425 17.4142C9.03918 17.7893 8.53047 18 8.00004 18Z" fill="#141414"/>
</svg>
