<svg width="24" height="24" viewBox="0 0 24 24" fill="none" xmlns="http://www.w3.org/2000/svg">
<path d="M15.6 3.99991C14.2642 4.04142 12.9873 4.55927 12 5.45991C11.0126 4.55927 9.73576 4.04142 8.39999 3.99991C7.68596 3.9945 6.97805 4.13181 6.31783 4.40379C5.65761 4.67576 5.05838 5.07691 4.55534 5.58367C4.0523 6.09044 3.65558 6.69261 3.38849 7.35483C3.1214 8.01704 2.98931 8.72594 2.99999 9.43991C2.99999 12.8099 5.62999 15.8699 10.16 19.9999L10.65 20.4499C11.0187 20.7872 11.5003 20.9743 12 20.9743C12.4997 20.9743 12.9813 20.7872 13.35 20.4499L13.84 20.0099C18.37 15.8599 21 12.7999 21 9.43991C21.0107 8.72594 20.8786 8.01704 20.6115 7.35483C20.3444 6.69261 19.9477 6.09044 19.4446 5.58367C18.9416 5.07691 18.3424 4.67576 17.6822 4.40379C17.0219 4.13181 16.314 3.9945 15.6 3.99991ZM17 11.9999H16V12.9999C16 13.2651 15.8946 13.5195 15.7071 13.707C15.5196 13.8946 15.2652 13.9999 15 13.9999C14.7348 13.9999 14.4804 13.8946 14.2929 13.707C14.1053 13.5195 14 13.2651 14 12.9999V11.9999H13C12.7348 11.9999 12.4804 11.8946 12.2929 11.707C12.1053 11.5195 12 11.2651 12 10.9999C12 10.7347 12.1053 10.4803 12.2929 10.2928C12.4804 10.1053 12.7348 9.99991 13 9.99991H14V8.99991C14 8.73469 14.1053 8.48034 14.2929 8.2928C14.4804 8.10527 14.7348 7.99991 15 7.99991C15.2652 7.99991 15.5196 8.10527 15.7071 8.2928C15.8946 8.48034 16 8.73469 16 8.99991V9.99991H17C17.2652 9.99991 17.5196 10.1053 17.7071 10.2928C17.8946 10.4803 18 10.7347 18 10.9999C18 11.2651 17.8946 11.5195 17.7071 11.707C17.5196 11.8946 17.2652 11.9999 17 11.9999Z" fill="#141414"/>
</svg>
