<svg width="24" height="24" viewBox="0 0 24 24" fill="none" xmlns="http://www.w3.org/2000/svg">
<path d="M20.77 11.16L19.4 7.05C19.1926 6.46323 18.8077 5.9555 18.2989 5.59716C17.7901 5.23882 17.1824 5.0476 16.56 5.05H15V4C15 3.73478 14.8946 3.48043 14.7071 3.29289C14.5196 3.10536 14.2652 3 14 3H10C9.73478 3 9.48043 3.10536 9.29289 3.29289C9.10536 3.48043 9 3.73478 9 4V5H7.41C6.77737 5.00047 6.16108 5.20091 5.64921 5.57269C5.13735 5.94446 4.75612 6.46854 4.56 7.07L3.22 11.16C2.8585 11.3131 2.55006 11.5692 2.33312 11.8964C2.11617 12.2236 2.00032 12.6074 2 13V16C2.00211 16.349 2.09552 16.6914 2.27095 16.9932C2.44638 17.2949 2.69772 17.5455 3 17.72V19C3 19.2652 3.10536 19.5196 3.29289 19.7071C3.48043 19.8946 3.73478 20 4 20C4.26522 20 4.51957 19.8946 4.70711 19.7071C4.89464 19.5196 5 19.2652 5 19V18H19V19C19 19.2652 19.1054 19.5196 19.2929 19.7071C19.4804 19.8946 19.7348 20 20 20C20.2652 20 20.5196 19.8946 20.7071 19.7071C20.8946 19.5196 21 19.2652 21 19V17.72C21.3023 17.5455 21.5536 17.2949 21.7291 16.9932C21.9045 16.6914 21.9979 16.349 22 16V13C21.9989 12.6063 21.8815 12.2217 21.6627 11.8944C21.4439 11.567 21.1334 11.3116 20.77 11.16ZM6.46 7.69C6.52781 7.48115 6.66247 7.30043 6.8432 7.17572C7.02393 7.05102 7.24068 6.98927 7.46 7H16.61C16.8281 6.98862 17.0439 7.04893 17.2244 7.17171C17.405 7.2945 17.5404 7.47302 17.61 7.68L18.61 11H5.38L6.46 7.69ZM6.71 14.69C6.54541 14.8548 6.32847 14.9569 6.09662 14.9788C5.86477 15.0007 5.63254 14.941 5.44 14.81C5.27585 14.7014 5.14993 14.544 5.08 14.36C4.99999 14.1849 4.97221 13.9905 5 13.8C5.03698 13.6015 5.13319 13.4188 5.27599 13.276C5.41879 13.1332 5.60147 13.037 5.8 13C5.995 12.9619 6.19692 12.9828 6.38 13.06C6.56399 13.1299 6.72139 13.2558 6.83 13.42C6.96101 13.6125 7.02071 13.8448 6.9988 14.0766C6.97689 14.3085 6.87475 14.5254 6.71 14.69ZM18.71 14.69C18.5454 14.8548 18.3285 14.9569 18.0966 14.9788C17.8648 15.0007 17.6325 14.941 17.44 14.81C17.2758 14.7014 17.1499 14.544 17.08 14.36C17 14.1849 16.9722 13.9905 17 13.8C17.037 13.6015 17.1332 13.4188 17.276 13.276C17.4188 13.1332 17.6015 13.037 17.8 13C17.995 12.9619 18.1969 12.9828 18.38 13.06C18.564 13.1299 18.7214 13.2558 18.83 13.42C18.961 13.6125 19.0207 13.8448 18.9988 14.0766C18.9769 14.3085 18.8748 14.5254 18.71 14.69Z" fill="#141414"/>
</svg>
