<svg width="24" height="24" viewBox="0 0 24 24" fill="none" xmlns="http://www.w3.org/2000/svg">
<path d="M20 5H4C3.46957 5 2.96086 5.21071 2.58579 5.58579C2.21071 5.96086 2 6.46957 2 7V16C2 16.5304 2.21071 17.0391 2.58579 17.4142C2.96086 17.7893 3.46957 18 4 18H20C20.5304 18 21.0391 17.7893 21.4142 17.4142C21.7893 17.0391 22 16.5304 22 16V7C22 6.46957 21.7893 5.96086 21.4142 5.58579C21.0391 5.21071 20.5304 5 20 5ZM20 11C20 11.2652 19.8946 11.5196 19.7071 11.7071C19.5196 11.8946 19.2652 12 19 12C18.7348 12 18.4804 11.8946 18.2929 11.7071C18.1054 11.5196 18 11.2652 18 11V10.41L15.71 12.71C15.617 12.8037 15.5064 12.8781 15.3846 12.9289C15.2627 12.9797 15.132 13.0058 15 13.0058C14.868 13.0058 14.7373 12.9797 14.6154 12.9289C14.4936 12.8781 14.383 12.8037 14.29 12.71C14.1963 12.617 14.1219 12.5064 14.0711 12.3846C14.0203 12.2627 13.9942 12.132 13.9942 12C13.9942 11.868 14.0203 11.7373 14.0711 11.6154C14.1219 11.4936 14.1963 11.383 14.29 11.29L16.59 9H16C15.7348 9 15.4804 8.89464 15.2929 8.70711C15.1054 8.51957 15 8.26522 15 8C15 7.73478 15.1054 7.48043 15.2929 7.29289C15.4804 7.10536 15.7348 7 16 7H19C19.1307 7.00158 19.2598 7.02876 19.38 7.08C19.6243 7.18147 19.8185 7.37565 19.92 7.62C19.9712 7.74022 19.9984 7.86932 20 8V11ZM15 19H9C8.73478 19 8.48043 19.1054 8.29289 19.2929C8.10536 19.4804 8 19.7348 8 20C8 20.2652 8.10536 20.5196 8.29289 20.7071C8.48043 20.8946 8.73478 21 9 21H15C15.2652 21 15.5196 20.8946 15.7071 20.7071C15.8946 20.5196 16 20.2652 16 20C16 19.7348 15.8946 19.4804 15.7071 19.2929C15.5196 19.1054 15.2652 19 15 19Z" fill="#141414"/>
</svg>
