<svg width="24" height="24" viewBox="0 0 24 24" fill="none" xmlns="http://www.w3.org/2000/svg">
<path d="M12 7C12.1978 7 12.3911 6.94135 12.5556 6.83147C12.72 6.72159 12.8482 6.56541 12.9239 6.38268C12.9996 6.19996 13.0194 5.99889 12.9808 5.80491C12.9422 5.61093 12.847 5.43275 12.7071 5.29289C12.5673 5.15304 12.3891 5.0578 12.1951 5.01922C12.0011 4.98063 11.8 5.00043 11.6173 5.07612C11.4346 5.15181 11.2784 5.27998 11.1685 5.44443C11.0586 5.60888 11 5.80222 11 6C11 6.26522 11.1054 6.51957 11.2929 6.70711C11.4804 6.89464 11.7348 7 12 7ZM20 5H15V6C15 6.79565 14.6839 7.55871 14.1213 8.12132C13.5587 8.68393 12.7956 9 12 9C11.4071 8.99595 10.8276 8.82246 10.33 8.5C9.91961 8.22501 9.58349 7.85293 9.35147 7.4168C9.11945 6.98067 8.99872 6.494 9 6V5H4C3.46957 5 2.96086 5.21071 2.58579 5.58579C2.21071 5.96086 2 6.46957 2 7V16C2 16.5304 2.21071 17.0391 2.58579 17.4142C2.96086 17.7893 3.46957 18 4 18H20C20.5304 18 21.0391 17.7893 21.4142 17.4142C21.7893 17.0391 22 16.5304 22 16V7C22 6.46957 21.7893 5.96086 21.4142 5.58579C21.0391 5.21071 20.5304 5 20 5ZM15 19H9C8.73478 19 8.48043 19.1054 8.29289 19.2929C8.10536 19.4804 8 19.7348 8 20C8 20.2652 8.10536 20.5196 8.29289 20.7071C8.48043 20.8946 8.73478 21 9 21H15C15.2652 21 15.5196 20.8946 15.7071 20.7071C15.8946 20.5196 16 20.2652 16 20C16 19.7348 15.8946 19.4804 15.7071 19.2929C15.5196 19.1054 15.2652 19 15 19Z" fill="#141414"/>
</svg>
