<svg width="24" height="24" viewBox="0 0 24 24" fill="none" xmlns="http://www.w3.org/2000/svg">
<path d="M15 19H9C8.73478 19 8.48043 19.1054 8.29289 19.2929C8.10536 19.4804 8 19.7348 8 20C8 20.2652 8.10536 20.5196 8.29289 20.7071C8.48043 20.8946 8.73478 21 9 21H15C15.2652 21 15.5196 20.8946 15.7071 20.7071C15.8946 20.5196 16 20.2652 16 20C16 19.7348 15.8946 19.4804 15.7071 19.2929C15.5196 19.1054 15.2652 19 15 19ZM20 5H4C3.46957 5 2.96086 5.21071 2.58579 5.58579C2.21071 5.96086 2 6.46957 2 7V16C2 16.5304 2.21071 17.0391 2.58579 17.4142C2.96086 17.7893 3.46957 18 4 18H20C20.5304 18 21.0391 17.7893 21.4142 17.4142C21.7893 17.0391 22 16.5304 22 16V7C22 6.46957 21.7893 5.96086 21.4142 5.58579C21.0391 5.21071 20.5304 5 20 5Z" fill="#141414"/>
</svg>
