<svg width="24" height="24" viewBox="0 0 24 24" fill="none" xmlns="http://www.w3.org/2000/svg">
<path d="M20.71 6.29L18.71 4.29C18.6171 4.19627 18.5065 4.12188 18.3846 4.07111C18.2628 4.02034 18.1321 3.9942 18 3.9942C17.868 3.9942 17.7373 4.02034 17.6155 4.07111C17.4936 4.12188 17.383 4.19627 17.29 4.29L15.29 6.29C15.1017 6.4783 14.9959 6.7337 14.9959 7C14.9959 7.13186 15.0219 7.26243 15.0724 7.38425C15.1228 7.50607 15.1968 7.61676 15.29 7.71C15.3833 7.80324 15.494 7.8772 15.6158 7.92766C15.7376 7.97812 15.8682 8.00409 16 8.00409C16.2663 8.00409 16.5217 7.8983 16.71 7.71L17 7.41V19C17 19.2652 17.1054 19.5196 17.2929 19.7071C17.4805 19.8946 17.7348 20 18 20C18.2653 20 18.5196 19.8946 18.7071 19.7071C18.8947 19.5196 19 19.2652 19 19V7.41L19.29 7.71C19.383 7.80373 19.4936 7.87812 19.6155 7.92889C19.7373 7.97966 19.868 8.0058 20 8.0058C20.1321 8.0058 20.2628 7.97966 20.3846 7.92889C20.5065 7.87812 20.6171 7.80373 20.71 7.71C20.8038 7.61704 20.8782 7.50644 20.9289 7.38458C20.9797 7.26272 21.0058 7.13201 21.0058 7C21.0058 6.86799 20.9797 6.73728 20.9289 6.61542C20.8782 6.49356 20.8038 6.38296 20.71 6.29ZM12 7C12 5.93913 11.5786 4.92172 10.8285 4.17157C10.0783 3.42143 9.06091 3 8.00004 3C6.93917 3 5.92176 3.42143 5.17161 4.17157C4.42147 4.92172 4.00004 5.93913 4.00004 7V13C3.347 13.8634 2.99565 14.9174 3.00004 16C3.00004 17.3261 3.52682 18.5979 4.46451 19.5355C5.40219 20.4732 6.67396 21 8.00004 21C9.32612 21 10.5979 20.4732 11.5356 19.5355C12.4733 18.5979 13 17.3261 13 16C13.0044 14.9174 12.6531 13.8634 12 13V7ZM8.00004 18C7.46961 18 6.9609 17.7893 6.58583 17.4142C6.21075 17.0391 6.00004 16.5304 6.00004 16C6.00215 15.651 6.09556 15.3086 6.27099 15.0068C6.44642 14.7051 6.69776 14.4545 7.00004 14.28V8C7.00004 7.73478 7.1054 7.48043 7.29293 7.29289C7.48047 7.10536 7.73482 7 8.00004 7C8.26526 7 8.51961 7.10536 8.70715 7.29289C8.89468 7.48043 9.00004 7.73478 9.00004 8V14.28C9.30232 14.4545 9.55366 14.7051 9.72909 15.0068C9.90452 15.3086 9.99793 15.651 10 16C10 16.5304 9.78933 17.0391 9.41425 17.4142C9.03918 17.7893 8.53047 18 8.00004 18Z" fill="#141414"/>
</svg>
