<svg width="24" height="24" viewBox="0 0 24 24" fill="none" xmlns="http://www.w3.org/2000/svg">
<path d="M15 19H9C8.73478 19 8.48043 19.1054 8.29289 19.2929C8.10536 19.4804 8 19.7348 8 20C8 20.2652 8.10536 20.5196 8.29289 20.7071C8.48043 20.8946 8.73478 21 9 21H15C15.2652 21 15.5196 20.8946 15.7071 20.7071C15.8946 20.5196 16 20.2652 16 20C16 19.7348 15.8946 19.4804 15.7071 19.2929C15.5196 19.1054 15.2652 19 15 19ZM20 5H4C3.46957 5 2.96086 5.21071 2.58579 5.58579C2.21071 5.96086 2 6.46957 2 7V16C2 16.5304 2.21071 17.0391 2.58579 17.4142C2.96086 17.7893 3.46957 18 4 18H20C20.5304 18 21.0391 17.7893 21.4142 17.4142C21.7893 17.0391 22 16.5304 22 16V7C22 6.46957 21.7893 5.96086 21.4142 5.58579C21.0391 5.21071 20.5304 5 20 5ZM15.08 15.3C14.9237 15.3968 14.7438 15.4487 14.56 15.45C14.3902 15.4542 14.2222 15.4151 14.0717 15.3363C13.9213 15.2576 13.7933 15.1419 13.7 15C13.5206 14.7106 13.2703 14.4717 12.9728 14.3061C12.6754 14.1405 12.3405 14.0536 12 14.0536C11.6595 14.0536 11.3246 14.1405 11.0272 14.3061C10.7297 14.4717 10.4794 14.7106 10.3 15C10.1608 15.2268 9.93715 15.3889 9.67835 15.4508C9.41955 15.5127 9.14676 15.4692 8.92 15.33C8.69324 15.1908 8.53108 14.9671 8.46919 14.7083C8.40731 14.4495 8.45076 14.1768 8.59 13.95C8.94766 13.3667 9.44896 12.8849 10.046 12.5507C10.643 12.2164 11.3158 12.0409 12 12.0409C12.6842 12.0409 13.357 12.2164 13.954 12.5507C14.551 12.8849 15.0523 13.3667 15.41 13.95C15.5407 14.1739 15.5794 14.4398 15.5178 14.6917C15.4563 14.9436 15.2993 15.1617 15.08 15.3ZM18.08 12.3C17.9001 12.4491 17.6737 12.5305 17.44 12.53C17.2923 12.529 17.1466 12.4953 17.0135 12.4314C16.8804 12.3674 16.7631 12.2747 16.67 12.16C16.1073 11.47 15.3981 10.9138 14.5938 10.5319C13.7896 10.1499 12.9104 9.95177 12.02 9.95177C11.1296 9.95177 10.2504 10.1499 9.44615 10.5319C8.64187 10.9138 7.93268 11.47 7.37 12.16C7.1986 12.3372 6.9678 12.4448 6.72191 12.4622C6.47601 12.4796 6.23236 12.4056 6.03771 12.2543C5.84306 12.103 5.71114 11.8852 5.66726 11.6427C5.62339 11.4001 5.67066 11.1499 5.8 10.94C6.55023 10.02 7.49583 9.27842 8.5682 8.76916C9.64058 8.2599 10.8128 7.99569 12 7.99569C13.1872 7.99569 14.3594 8.2599 15.4318 8.76916C16.5042 9.27842 17.4498 10.02 18.2 10.94C18.2836 11.0417 18.3464 11.1588 18.3846 11.2848C18.4228 11.4108 18.4358 11.5431 18.4228 11.6741C18.4098 11.8051 18.3711 11.9322 18.3088 12.0482C18.2465 12.1642 18.162 12.2668 18.06 12.35L18.08 12.3Z" fill="#141414"/>
</svg>
