<svg width="24" height="24" viewBox="0 0 24 24" fill="none" xmlns="http://www.w3.org/2000/svg">
<path d="M9 16.5001C9 16.0056 8.85338 15.5223 8.57868 15.1112C8.30397 14.7 7.91353 14.3796 7.45671 14.1904C6.99989 14.0012 6.49723 13.9517 6.01228 14.0481C5.52732 14.1446 5.08187 14.3827 4.73223 14.7323C4.3826 15.0819 4.1445 15.5274 4.04804 16.0124C3.95157 16.4973 4.00108 17 4.1903 17.4568C4.37952 17.9136 4.69995 18.3041 5.11108 18.5788C5.5222 18.8535 6.00555 19.0001 6.5 19.0001C7.16304 19.0001 7.79893 18.7367 8.26777 18.2679C8.73661 17.799 9 17.1631 9 16.5001ZM9.5 19.0001C9.20333 19.0001 8.91332 19.0881 8.66665 19.2529C8.41997 19.4177 8.22771 19.652 8.11418 19.9261C8.00065 20.2001 7.97095 20.5017 8.02882 20.7927C8.0867 21.0837 8.22956 21.351 8.43934 21.5607C8.64912 21.7705 8.91639 21.9134 9.20737 21.9713C9.49834 22.0291 9.79994 21.9994 10.074 21.8859C10.3481 21.7724 10.5824 21.5801 10.7472 21.3334C10.912 21.0868 11 20.7968 11 20.5001C11 20.1023 10.842 19.7207 10.5607 19.4394C10.2794 19.1581 9.89783 19.0001 9.5 19.0001ZM17.5 4.00008C17.3402 3.98972 17.1798 3.98972 17.02 4.00008C16.4972 3.29138 15.7965 2.73333 14.9888 2.38239C14.181 2.03146 13.295 1.90009 12.4202 2.00157C11.5453 2.10306 10.7129 2.4338 10.0069 2.96033C9.301 3.48687 8.74666 4.19051 8.4 5.00008C8.27 5.00008 8.14 5.00008 8 5.00008C6.93914 5.00008 5.92172 5.42151 5.17157 6.17166C4.42143 6.9218 4 7.93922 4 9.00008C4 10.0609 4.42143 11.0784 5.17157 11.8285C5.92172 12.5787 6.93914 13.0001 8 13.0001C8.45342 12.9928 8.90262 12.9117 9.33 12.7601C9.68878 13.6991 10.3223 14.5082 11.1478 15.0817C11.9733 15.6553 12.9525 15.9667 13.9577 15.9753C14.9629 15.9839 15.9473 15.6894 16.7826 15.1301C17.6179 14.5708 18.2651 13.7728 18.64 12.8401C19.702 12.5686 20.628 11.9179 21.2434 11.0109C21.8588 10.1038 22.1212 9.00288 21.981 7.91573C21.8408 6.82857 21.3077 5.83026 20.4823 5.10898C19.6569 4.3877 18.5961 3.99328 17.5 4.00008Z" fill="#141414"/>
</svg>
