<svg width="24" height="24" viewBox="0 0 24 24" fill="none" xmlns="http://www.w3.org/2000/svg">
<path d="M12 2C10.0222 2 8.08879 2.58649 6.4443 3.6853C4.79981 4.78412 3.51809 6.3459 2.76121 8.17317C2.00433 10.0004 1.8063 12.0111 2.19215 13.9509C2.578 15.8907 3.53041 17.6725 4.92894 19.0711C6.32746 20.4696 8.10929 21.422 10.0491 21.8079C11.9889 22.1937 13.9996 21.9957 15.8268 21.2388C17.6541 20.4819 19.2159 19.2002 20.3147 17.5557C21.4135 15.9112 22 13.9778 22 12C22 10.6868 21.7413 9.38642 21.2388 8.17317C20.7363 6.95991 19.9997 5.85752 19.0711 4.92893C18.1425 4.00035 17.0401 3.26375 15.8268 2.7612C14.6136 2.25866 13.3132 2 12 2ZM13 13C13 13.2652 12.8946 13.5196 12.7071 13.7071C12.5196 13.8946 12.2652 14 12 14H9C8.73479 14 8.48043 13.8946 8.2929 13.7071C8.10536 13.5196 8 13.2652 8 13C8 12.7348 8.10536 12.4804 8.2929 12.2929C8.48043 12.1054 8.73479 12 9 12H11V9C11 8.73478 11.1054 8.48043 11.2929 8.29289C11.4804 8.10536 11.7348 8 12 8C12.2652 8 12.5196 8.10536 12.7071 8.29289C12.8946 8.48043 13 8.73478 13 9V13Z" fill="#141414"/>
</svg>
