<svg width="24" height="24" viewBox="0 0 24 24" fill="none" xmlns="http://www.w3.org/2000/svg">
<path d="M11 3.00008C11 2.73487 10.8946 2.48051 10.7071 2.29298C10.5196 2.10544 10.2652 2.00008 10 2.00008H8C7.76031 1.997 7.52749 2.08012 7.34394 2.2343C7.16039 2.38848 7.03833 2.60346 7 2.84008L6.15 8.00008H11V3.00008ZM21 10.0001H3C2.73478 10.0001 2.48043 10.1054 2.29289 10.293C2.10536 10.4805 2 10.7349 2 11.0001V13.0001C2 13.2653 2.10536 13.5197 2.29289 13.7072C2.48043 13.8947 2.73478 14.0001 3 14.0001C3.26522 14.0001 3.51957 13.8947 3.70711 13.7072C3.89464 13.5197 4 13.2653 4 13.0001V12.0001H20V13.0001C20 13.2653 20.1054 13.5197 20.2929 13.7072C20.4804 13.8947 20.7348 14.0001 21 14.0001C21.2652 14.0001 21.5196 13.8947 21.7071 13.7072C21.8946 13.5197 22 13.2653 22 13.0001V11.0001C22 10.7349 21.8946 10.4805 21.7071 10.293C21.5196 10.1054 21.2652 10.0001 21 10.0001ZM17 2.84008C16.9617 2.60346 16.8396 2.38848 16.6561 2.2343C16.4725 2.08012 16.2397 1.997 16 2.00008H14C13.7348 2.00008 13.4804 2.10544 13.2929 2.29298C13.1054 2.48051 13 2.73487 13 3.00008V8.00008H17.85L17 2.84008ZM4 20.8401C3.97713 20.9837 3.98587 21.1306 4.02559 21.2705C4.06531 21.4104 4.13507 21.5399 4.23 21.6501C4.32498 21.7611 4.44314 21.85 4.57617 21.9105C4.70921 21.971 4.85388 22.0015 5 22.0001H10C10.2652 22.0001 10.5196 21.8947 10.7071 21.7072C10.8946 21.5197 11 21.2653 11 21.0001V14.0001H5.15L4 20.8401ZM13 14.0001V21.0001C13 21.2653 13.1054 21.5197 13.2929 21.7072C13.4804 21.8947 13.7348 22.0001 14 22.0001H19C19.1444 22.0001 19.2872 21.9688 19.4184 21.9084C19.5496 21.848 19.6661 21.7598 19.76 21.6501C19.8549 21.5399 19.9247 21.4104 19.9644 21.2705C20.0041 21.1306 20.0129 20.9837 19.99 20.8401L18.85 14.0001H13Z" fill="#141414"/>
</svg>
