<svg width="24" height="24" viewBox="0 0 24 24" fill="none" xmlns="http://www.w3.org/2000/svg">
<path d="M2 6V16C2 16.5304 2.21071 17.0391 2.58579 17.4142C2.96086 17.7893 3.46957 18 4 18H4.18C4.3902 18.5792 4.77363 19.0795 5.27817 19.4332C5.7827 19.7868 6.38388 19.9765 7 19.9765C7.61612 19.9765 8.2173 19.7868 8.72184 19.4332C9.22637 19.0795 9.6098 18.5792 9.82 18H14.18C14.3902 18.5792 14.7736 19.0795 15.2782 19.4332C15.7827 19.7868 16.3839 19.9765 17 19.9765C17.6161 19.9765 18.2173 19.7868 18.7218 19.4332C19.2264 19.0795 19.6098 18.5792 19.82 18H20C20.5304 18 21.0391 17.7893 21.4142 17.4142C21.7893 17.0391 22 16.5304 22 16V14V12.47C21.9888 12.0058 21.8798 11.5492 21.68 11.13L20.44 8.66C20.1913 8.16187 19.8089 7.74278 19.3356 7.44961C18.8623 7.15644 18.3168 7.00076 17.76 7H16V6C16 5.46957 15.7893 4.96086 15.4142 4.58579C15.0391 4.21071 14.5304 4 14 4H4C3.46957 4 2.96086 4.21071 2.58579 4.58579C2.21071 4.96086 2 5.46957 2 6ZM16 17C16 16.8022 16.0586 16.6089 16.1685 16.4444C16.2784 16.28 16.4346 16.1518 16.6173 16.0761C16.8 16.0004 17.0011 15.9806 17.1951 16.0192C17.3891 16.0578 17.5673 16.153 17.7071 16.2929C17.847 16.4327 17.9422 16.6109 17.9808 16.8049C18.0194 16.9989 17.9996 17.2 17.9239 17.3827C17.8482 17.5654 17.72 17.7216 17.5556 17.8315C17.3911 17.9414 17.1978 18 17 18C16.7348 18 16.4804 17.8946 16.2929 17.7071C16.1054 17.5196 16 17.2652 16 17ZM16 9H17.76C17.9447 9.00056 18.1256 9.05224 18.2827 9.14932C18.4398 9.2464 18.5669 9.38509 18.65 9.55L19.88 12H16V9ZM6 17C6 16.8022 6.05865 16.6089 6.16853 16.4444C6.27841 16.28 6.43459 16.1518 6.61732 16.0761C6.80004 16.0004 7.00111 15.9806 7.19509 16.0192C7.38907 16.0578 7.56725 16.153 7.70711 16.2929C7.84696 16.4327 7.9422 16.6109 7.98079 16.8049C8.01937 16.9989 7.99957 17.2 7.92388 17.3827C7.84819 17.5654 7.72002 17.7216 7.55557 17.8315C7.39112 17.9414 7.19778 18 7 18C6.73478 18 6.48043 17.8946 6.29289 17.7071C6.10536 17.5196 6 17.2652 6 17Z" fill="#141414"/>
</svg>
