<svg width="24" height="24" viewBox="0 0 24 24" fill="none" xmlns="http://www.w3.org/2000/svg">
<path d="M3.5 5V19C3.5 19.7956 3.81607 20.5587 4.37868 21.1213C4.94129 21.6839 5.70435 22 6.5 22V2C5.70435 2 4.94129 2.31607 4.37868 2.87868C3.81607 3.44129 3.5 4.20435 3.5 5ZM17.5 2H8.5V22H17.5C18.2956 22 19.0587 21.6839 19.6213 21.1213C20.1839 20.5587 20.5 19.7956 20.5 19V5C20.5 4.20435 20.1839 3.44129 19.6213 2.87868C19.0587 2.31607 18.2956 2 17.5 2ZM16 10H13C12.4696 10 11.9609 9.78929 11.5858 9.41421C11.2107 9.03914 11 8.53043 11 8C11 7.46957 11.2107 6.96086 11.5858 6.58579C11.9609 6.21071 12.4696 6 13 6H16C16.5304 6 17.0391 6.21071 17.4142 6.58579C17.7893 6.96086 18 7.46957 18 8C18 8.53043 17.7893 9.03914 17.4142 9.41421C17.0391 9.78929 16.5304 10 16 10Z" fill="#141414"/>
</svg>
