<svg width="24" height="24" viewBox="0 0 24 24" fill="none" xmlns="http://www.w3.org/2000/svg">
<path d="M15.6199 6.54014C13.9999 5.17014 12.9999 4.27014 12.9999 3.00014C12.9989 2.80271 12.9395 2.61 12.8292 2.44628C12.7189 2.28256 12.5626 2.15516 12.3799 2.08014C12.1978 2.00356 11.9971 1.98264 11.8031 2.02001C11.6091 2.05739 11.4306 2.15138 11.2899 2.29014C11.1899 2.40014 8.80993 4.86014 11.1099 9.45014C11.2931 9.72508 11.3823 10.0519 11.3643 10.3818C11.3462 10.7116 11.2219 11.0268 11.0099 11.2801C10.8542 11.4477 10.6496 11.5621 10.4253 11.6069C10.2009 11.6518 9.96816 11.6249 9.75993 11.5301C9.19993 11.2501 8.68993 10.2101 8.99993 8.14014C9.03265 7.94765 9.00831 7.74979 8.92989 7.57097C8.85148 7.39216 8.72244 7.24021 8.55868 7.13387C8.39492 7.02753 8.20362 6.97147 8.00837 6.97258C7.81312 6.97369 7.62247 7.03194 7.45993 7.14014C6.38153 7.92823 5.50558 8.96102 4.90407 10.1536C4.30257 11.3462 3.9927 12.6645 3.99993 14.0001C3.97673 15.0571 4.16779 16.1078 4.56162 17.0889C4.95544 18.0699 5.54386 18.9611 6.2914 19.7087C7.03894 20.4562 7.93013 21.0446 8.91122 21.4385C9.89232 21.8323 10.943 22.0233 11.9999 22.0001C13.0569 22.0233 14.1076 21.8323 15.0886 21.4385C16.0697 21.0446 16.9609 20.4562 17.7085 19.7087C18.456 18.9611 19.0444 18.0699 19.4383 17.0889C19.8321 16.1078 20.0231 15.0571 19.9999 14.0001C19.9999 10.2301 17.5699 8.18014 15.6199 6.54014Z" fill="#141414"/>
</svg>
