<svg width="24" height="24" viewBox="0 0 24 24" fill="none" xmlns="http://www.w3.org/2000/svg">
<path d="M7.50005 10H16.5001C16.7653 10 17.0196 9.89464 17.2072 9.70711C17.3947 9.51957 17.5001 9.26522 17.5001 9C17.4512 7.78075 16.9727 6.61807 16.1491 5.71766C15.3256 4.81725 14.2101 4.23716 13.0001 4.08C13.0057 4.05364 13.0057 4.02636 13.0001 4C13.0001 3.73478 12.8947 3.48043 12.7072 3.29289C12.5196 3.10536 12.2653 3 12.0001 3C11.7348 3 11.4805 3.10536 11.2929 3.29289C11.1054 3.48043 11.0001 3.73478 11.0001 4C10.9944 4.02636 10.9944 4.05364 11.0001 4.08C9.78999 4.23716 8.67451 4.81725 7.85096 5.71766C7.02742 6.61807 6.5489 7.78075 6.50005 9C6.50005 9.26522 6.60541 9.51957 6.79295 9.70711C6.98048 9.89464 7.23484 10 7.50005 10ZM21.8101 11.42C21.718 11.2908 21.5966 11.1853 21.4557 11.1122C21.3149 11.0392 21.1587 11.0007 21.0001 11H3.00005C2.8414 11.0007 2.68521 11.0392 2.54436 11.1122C2.40352 11.1853 2.28207 11.2908 2.19005 11.42C2.09713 11.5482 2.03598 11.6967 2.01164 11.8531C1.9873 12.0096 2.00047 12.1696 2.05005 12.32L4.05006 18.32C4.11714 18.5186 4.24495 18.6911 4.41543 18.8132C4.5859 18.9352 4.79041 19.0005 5.00005 19H6.59005C6.53427 19.161 6.5039 19.3297 6.50005 19.5C6.50005 19.8978 6.65809 20.2794 6.93939 20.5607C7.2207 20.842 7.60223 21 8.00005 21C8.39788 21 8.77941 20.842 9.06072 20.5607C9.34202 20.2794 9.50005 19.8978 9.50005 19.5C9.49621 19.3297 9.46584 19.161 9.41005 19H14.5901C14.5343 19.161 14.5039 19.3297 14.5001 19.5C14.5001 19.8978 14.6581 20.2794 14.9394 20.5607C15.2207 20.842 15.6022 21 16.0001 21C16.3979 21 16.7794 20.842 17.0607 20.5607C17.342 20.2794 17.5001 19.8978 17.5001 19.5C17.4962 19.3297 17.4658 19.161 17.4101 19H19.0001C19.2097 19.0005 19.4142 18.9352 19.5847 18.8132C19.7552 18.6911 19.883 18.5186 19.9501 18.32L21.9501 12.32C21.9996 12.1696 22.0128 12.0096 21.9885 11.8531C21.9641 11.6967 21.903 11.5482 21.8101 11.42Z" fill="#141414"/>
</svg>
