<svg width="24" height="24" viewBox="0 0 24 24" fill="none" xmlns="http://www.w3.org/2000/svg">
<path d="M12 5C12.2967 5 12.5867 4.91203 12.8334 4.7472C13.08 4.58238 13.2723 4.34811 13.3858 4.07403C13.4994 3.79994 13.5291 3.49834 13.4712 3.20737C13.4133 2.91639 13.2704 2.64912 13.0607 2.43934C12.8509 2.22956 12.5836 2.0867 12.2926 2.02882C12.0017 1.97094 11.7001 2.00065 11.426 2.11418C11.1519 2.22771 10.9176 2.41997 10.7528 2.66665C10.588 2.91332 10.5 3.20333 10.5 3.5C10.5 3.89783 10.658 4.27936 10.9393 4.56066C11.2206 4.84197 11.6022 5 12 5ZM18 16C18.2967 16 18.5867 15.912 18.8334 15.7472C19.08 15.5824 19.2723 15.3481 19.3858 15.074C19.4993 14.7999 19.5291 14.4983 19.4712 14.2074C19.4133 13.9164 19.2704 13.6491 19.0607 13.4393C18.8509 13.2296 18.5836 13.0867 18.2926 13.0288C18.0017 12.9709 17.7001 13.0007 17.426 13.1142C17.1519 13.2277 16.9176 13.42 16.7528 13.6666C16.588 13.9133 16.5 14.2033 16.5 14.5C16.5 14.8978 16.658 15.2794 16.9393 15.5607C17.2206 15.842 17.6022 16 18 16ZM6 16C6.29667 16 6.58668 15.912 6.83336 15.7472C7.08003 15.5824 7.27229 15.3481 7.38582 15.074C7.49935 14.7999 7.52906 14.4983 7.47118 14.2074C7.4133 13.9164 7.27044 13.6491 7.06066 13.4393C6.85088 13.2296 6.58361 13.0867 6.29264 13.0288C6.00166 12.9709 5.70006 13.0007 5.42597 13.1142C5.15189 13.2277 4.91762 13.42 4.7528 13.6666C4.58797 13.9133 4.5 14.2033 4.5 14.5C4.5 14.8978 4.65804 15.2794 4.93934 15.5607C5.22064 15.842 5.60218 16 6 16ZM18 17C17.2044 17 16.4413 17.3161 15.8787 17.8787C15.3161 18.4413 15 19.2044 15 20C15 20.2652 15.1054 20.5196 15.2929 20.7071C15.4804 20.8946 15.7348 21 16 21H20C20.2652 21 20.5196 20.8946 20.7071 20.7071C20.8946 20.5196 21 20.2652 21 20C21 19.2044 20.6839 18.4413 20.1213 17.8787C19.5587 17.3161 18.7956 17 18 17ZM6 17C5.20435 17 4.44129 17.3161 3.87868 17.8787C3.31607 18.4413 3 19.2044 3 20C3 20.2652 3.10536 20.5196 3.29289 20.7071C3.48043 20.8946 3.73478 21 4 21H8C8.26522 21 8.51957 20.8946 8.70711 20.7071C8.89464 20.5196 9 20.2652 9 20C9 19.2044 8.68393 18.4413 8.12132 17.8787C7.55871 17.3161 6.79565 17 6 17ZM14.45 15.11L13 14.38V13C13 12.7348 12.8946 12.4804 12.7071 12.2929C12.5196 12.1054 12.2652 12 12 12C11.7348 12 11.4804 12.1054 11.2929 12.2929C11.1054 12.4804 11 12.7348 11 13V14.38L9.55 15.11C9.31448 15.2299 9.13598 15.4381 9.05354 15.6892C8.97109 15.9403 8.99139 16.2138 9.11 16.45C9.1931 16.6149 9.32024 16.7536 9.47733 16.8507C9.63443 16.9478 9.81533 16.9994 10 17C10.1569 17.0019 10.3117 16.964 10.45 16.89L12 16.12L13.55 16.89C13.6883 16.964 13.8431 17.0019 14 17C14.1847 16.9994 14.3656 16.9478 14.5227 16.8507C14.6798 16.7536 14.8069 16.6149 14.89 16.45C15.0086 16.2138 15.0289 15.9403 14.9465 15.6892C14.864 15.4381 14.6855 15.2299 14.45 15.11ZM10 10H14C14.2652 10 14.5196 9.89464 14.7071 9.70711C14.8946 9.51957 15 9.26522 15 9C15 8.20435 14.6839 7.44129 14.1213 6.87868C13.5587 6.31607 12.7956 6 12 6C11.2044 6 10.4413 6.31607 9.87868 6.87868C9.31607 7.44129 9 8.20435 9 9C9 9.26522 9.10536 9.51957 9.29289 9.70711C9.48043 9.89464 9.73478 10 10 10Z" fill="#141414"/>
</svg>
