<svg width="24" height="24" viewBox="0 0 24 24" fill="none" xmlns="http://www.w3.org/2000/svg">
<path d="M6 12H18C18.2652 12 18.5196 11.8946 18.7071 11.7071C18.8946 11.5196 19 11.2652 19 11V5C19 4.73478 18.8946 4.48043 18.7071 4.29289C18.5196 4.10536 18.2652 4 18 4H6C5.73478 4 5.48043 4.10536 5.29289 4.29289C5.10536 4.48043 5 4.73478 5 5V11C5 11.2652 5.10536 11.5196 5.29289 11.7071C5.48043 11.8946 5.73478 12 6 12ZM20 14H4C3.46957 14 2.96086 14.2107 2.58579 14.5858C2.21071 14.9609 2 15.4696 2 16V18C2 18.5304 2.21071 19.0391 2.58579 19.4142C2.96086 19.7893 3.46957 20 4 20H20C20.5304 20 21.0391 19.7893 21.4142 19.4142C21.7893 19.0391 22 18.5304 22 18V16C22 15.4696 21.7893 14.9609 21.4142 14.5858C21.0391 14.2107 20.5304 14 20 14ZM5.5 18.5C5.20333 18.5 4.91332 18.412 4.66664 18.2472C4.41997 18.0824 4.22771 17.8481 4.11418 17.574C4.00065 17.2999 3.97094 16.9983 4.02882 16.7074C4.0867 16.4164 4.22956 16.1491 4.43934 15.9393C4.64912 15.7296 4.91639 15.5867 5.20736 15.5288C5.49834 15.4709 5.79994 15.5006 6.07403 15.6142C6.34811 15.7277 6.58238 15.92 6.7472 16.1666C6.91203 16.4133 7 16.7033 7 17C7 17.3978 6.84196 17.7794 6.56066 18.0607C6.27936 18.342 5.89782 18.5 5.5 18.5ZM14 18H10C9.73478 18 9.48043 17.8946 9.29289 17.7071C9.10536 17.5196 9 17.2652 9 17C9 16.7348 9.10536 16.4804 9.29289 16.2929C9.48043 16.1054 9.73478 16 10 16H14C14.2652 16 14.5196 16.1054 14.7071 16.2929C14.8946 16.4804 15 16.7348 15 17C15 17.2652 14.8946 17.5196 14.7071 17.7071C14.5196 17.8946 14.2652 18 14 18ZM18.5 18.5C18.2033 18.5 17.9133 18.412 17.6666 18.2472C17.42 18.0824 17.2277 17.8481 17.1142 17.574C17.0007 17.2999 16.9709 16.9983 17.0288 16.7074C17.0867 16.4164 17.2296 16.1491 17.4393 15.9393C17.6491 15.7296 17.9164 15.5867 18.2074 15.5288C18.4983 15.4709 18.7999 15.5006 19.074 15.6142C19.3481 15.7277 19.5824 15.92 19.7472 16.1666C19.912 16.4133 20 16.7033 20 17C20 17.3978 19.842 17.7794 19.5607 18.0607C19.2794 18.342 18.8978 18.5 18.5 18.5Z" fill="#141414"/>
</svg>
