<svg width="24" height="24" viewBox="0 0 24 24" fill="none" xmlns="http://www.w3.org/2000/svg">
<path d="M16 6V5C16 4.20435 15.6839 3.44129 15.1213 2.87868C14.5587 2.31607 13.7956 2 13 2H5C4.20435 2 3.44129 2.31607 2.87868 2.87868C2.31607 3.44129 2 4.20435 2 5V13C2 13.7956 2.31607 14.5587 2.87868 15.1213C3.44129 15.6839 4.20435 16 5 16H6V11C6 9.67392 6.52678 8.40215 7.46447 7.46447C8.40215 6.52678 9.67392 6 11 6H16ZM19 8H11C10.2044 8 9.44129 8.31607 8.87868 8.87868C8.31607 9.44129 8 10.2044 8 11V19C8 19.7956 8.31607 20.5587 8.87868 21.1213C9.44129 21.6839 10.2044 22 11 22H19C19.7956 22 20.5587 21.6839 21.1213 21.1213C21.6839 20.5587 22 19.7956 22 19V11C22 10.2044 21.6839 9.44129 21.1213 8.87868C20.5587 8.31607 19.7956 8 19 8ZM16.72 17C16.651 17.032 16.576 17.049 16.5 17.05C16.4063 17.0502 16.3144 17.024 16.2348 16.9745C16.1553 16.925 16.0912 16.8542 16.05 16.77L15.94 16.55H14.06L13.95 16.77C13.9211 16.8291 13.8809 16.8819 13.8316 16.9255C13.7822 16.969 13.7248 17.0024 13.6626 17.0238C13.6004 17.0451 13.5346 17.054 13.469 17.0499C13.4033 17.0459 13.3391 17.0289 13.28 17C13.2209 16.9711 13.1681 16.9309 13.1245 16.8816C13.081 16.8322 13.0476 16.7748 13.0262 16.7126C12.9831 16.587 12.9917 16.4493 13.05 16.33L14.55 13.33C14.5957 13.2511 14.6613 13.1856 14.7403 13.1401C14.8193 13.0945 14.9088 13.0706 15 13.0706C15.0912 13.0706 15.1807 13.0945 15.2597 13.1401C15.3387 13.1856 15.4043 13.2511 15.45 13.33L16.95 16.33C17.0059 16.4497 17.0132 16.5865 16.9703 16.7114C16.9274 16.8364 16.8377 16.9399 16.72 17ZM14.56 15.5H15.44L15 14.62L14.56 15.5Z" fill="#141414"/>
</svg>
