<svg width="24" height="24" viewBox="0 0 24 24" fill="none" xmlns="http://www.w3.org/2000/svg">
<path d="M17 12C16.0111 12 15.0444 12.2932 14.2221 12.8427C13.3999 13.3921 12.759 14.173 12.3806 15.0866C12.0022 16.0002 11.9031 17.0055 12.0961 17.9755C12.289 18.9454 12.7652 19.8363 13.4645 20.5355C14.1637 21.2348 15.0546 21.711 16.0245 21.9039C16.9945 22.0969 17.9998 21.9978 18.9134 21.6194C19.827 21.241 20.6079 20.6001 21.1573 19.7779C21.7068 18.9556 22 17.9889 22 17C22 15.6739 21.4732 14.4021 20.5355 13.4645C19.5979 12.5268 18.3261 12 17 12ZM18.5 18C18.5 18.2652 18.3946 18.5196 18.2071 18.7071C18.0196 18.8946 17.7652 19 17.5 19H15.5C15.2348 19 14.9804 18.8946 14.7929 18.7071C14.6054 18.5196 14.5 18.2652 14.5 18C14.5 17.7348 14.6054 17.4804 14.7929 17.2929C14.9804 17.1054 15.2348 17 15.5 17H16.5V15.5C16.5 15.2348 16.6054 14.9804 16.7929 14.7929C16.9804 14.6054 17.2348 14.5 17.5 14.5C17.7652 14.5 18.0196 14.6054 18.2071 14.7929C18.3946 14.9804 18.5 15.2348 18.5 15.5V18ZM10.31 14.94C10.2102 14.9752 10.1057 14.9954 10 15H7C6.73478 15 6.48043 14.8946 6.29289 14.7071C6.10536 14.5196 6 14.2652 6 14V10C6 9.73478 6.10536 9.48043 6.29289 9.29289C6.48043 9.10536 6.73478 9 7 9H10C10.2652 9 10.5196 9.10536 10.7071 9.29289C10.8946 9.48043 11 9.73478 11 10V13.41C11.5091 12.5614 12.1904 11.829 13 11.26V10C13 9.73478 13.1054 9.48043 13.2929 9.29289C13.4804 9.10536 13.7348 9 14 9H17C17.2652 9 17.5196 9.10536 17.7071 9.29289C17.8946 9.48043 18 9.73478 18 10V10.08C18.6943 10.1781 19.3691 10.3839 20 10.69V10C20.0007 8.7587 19.6163 7.54774 18.8999 6.53404C18.1835 5.52033 17.1703 4.75377 16 4.34C16 4.23 16 4.12 16 4C16 3.46957 15.7893 2.96086 15.4142 2.58579C15.0391 2.21071 14.5304 2 14 2H10C9.46957 2 8.96086 2.21071 8.58579 2.58579C8.21071 2.96086 8 3.46957 8 4C8 4.12 8 4.23 8 4.34C6.82969 4.75377 5.81651 5.52033 5.10011 6.53404C4.38371 7.54774 3.99935 8.7587 4 10V19C4 19.7956 4.31607 20.5587 4.87868 21.1213C5.44129 21.6839 6.20435 22 7 22H12.11C11.1908 21.1018 10.5366 19.968 10.2191 18.7226C9.90158 17.4773 9.93303 16.1686 10.31 14.94ZM7 19C6.80222 19 6.60888 18.9414 6.44443 18.8315C6.27998 18.7216 6.15181 18.5654 6.07612 18.3827C6.00043 18.2 5.98063 17.9989 6.01922 17.8049C6.0578 17.6109 6.15304 17.4327 6.29289 17.2929C6.43275 17.153 6.61093 17.0578 6.80491 17.0192C6.99889 16.9806 7.19996 17.0004 7.38268 17.0761C7.56541 17.1518 7.72159 17.28 7.83147 17.4444C7.94135 17.6089 8 17.8022 8 18C8 18.2652 7.89464 18.5196 7.70711 18.7071C7.51957 18.8946 7.26522 19 7 19Z" fill="#141414"/>
</svg>
