<svg width="24" height="24" viewBox="0 0 24 24" fill="none" xmlns="http://www.w3.org/2000/svg">
<path d="M19.65 6.44016C20.5088 5.92818 21.1521 5.12138 21.46 4.17016C20.6579 4.65169 19.7781 4.99006 18.86 5.17016C18.2413 4.51153 17.4229 4.07514 16.5312 3.9285C15.6396 3.78187 14.7245 3.93317 13.9275 4.35899C13.1305 4.78482 12.496 5.46143 12.1223 6.28413C11.7486 7.10684 11.6564 8.02978 11.86 8.91016C10.2301 8.82954 8.63535 8.40679 7.17953 7.6694C5.7237 6.93201 4.43936 5.89649 3.41 4.63016C2.88953 5.5299 2.73115 6.59405 2.96704 7.60636C3.20294 8.61866 3.81541 9.50318 4.68 10.0802C4.0413 10.058 3.41721 9.88311 2.86 9.57016C2.86516 10.5043 3.18763 11.409 3.77452 12.1358C4.36141 12.8626 5.17788 13.3684 6.09 13.5702C5.49679 13.7331 4.87398 13.7571 4.27 13.6402C4.53474 14.4442 5.04243 15.1463 5.72305 15.6496C6.40367 16.1529 7.22368 16.4326 8.07 16.4502C6.64726 17.6464 4.85836 18.3203 3 18.3602C2.66531 18.3546 2.33131 18.3279 2 18.2802C3.87791 19.4793 6.0619 20.1113 8.29 20.1002C9.81419 20.1147 11.3263 19.8286 12.7399 19.2584C14.1535 18.6882 15.4408 17.845 16.5283 16.777C17.6158 15.709 18.4822 14.4371 19.0779 13.0341C19.6736 11.631 19.9869 10.1244 20 8.60016V7.92016C20.783 7.33302 21.4594 6.61596 22 5.80016C21.2521 6.12707 20.4604 6.34269 19.65 6.44016Z" fill="#141414"/>
</svg>
