<svg width="24" height="24" viewBox="0 0 24 24" fill="none" xmlns="http://www.w3.org/2000/svg">
<path d="M20 10.9999H19.93C19.6866 9.06792 18.7469 7.29101 17.287 6.00234C15.8271 4.71366 13.9473 4.00171 12 3.99994C11.5133 4.0005 11.0278 4.04738 10.55 4.13994L9.71 3.28994C9.5217 3.10164 9.2663 2.99585 9 2.99585C8.7337 2.99585 8.4783 3.10164 8.29 3.28994C8.1017 3.47825 7.99591 3.73364 7.99591 3.99994C7.99591 4.26624 8.1017 4.52164 8.29 4.70994L8.43 4.84994C7.25381 5.43779 6.24065 6.30649 5.48017 7.37918C4.7197 8.45187 4.23535 9.69547 4.07 10.9999H4C3.73478 10.9999 3.48043 11.1053 3.29289 11.2928C3.10536 11.4804 3 11.7347 3 11.9999C3 12.2652 3.10536 12.5195 3.29289 12.707C3.48043 12.8946 3.73478 12.9999 4 12.9999H4.07C4.32592 14.9218 5.27107 16.6853 6.7297 17.9626C8.18833 19.2399 10.0612 19.944 12 19.944C13.9388 19.944 15.8117 19.2399 17.2703 17.9626C18.7289 16.6853 19.6741 14.9218 19.93 12.9999H20C20.2652 12.9999 20.5196 12.8946 20.7071 12.707C20.8946 12.5195 21 12.2652 21 11.9999C21 11.7347 20.8946 11.4804 20.7071 11.2928C20.5196 11.1053 20.2652 10.9999 20 10.9999ZM7 10.4999C7 10.2033 7.08797 9.91326 7.2528 9.66659C7.41762 9.41991 7.65189 9.22765 7.92597 9.11412C8.20006 9.00059 8.50166 8.97089 8.79264 9.02876C9.08361 9.08664 9.35088 9.2295 9.56066 9.43928C9.77044 9.64906 9.9133 9.91633 9.97118 10.2073C10.0291 10.4983 9.99935 10.7999 9.88582 11.074C9.77229 11.3481 9.58003 11.5823 9.33335 11.7471C9.08668 11.912 8.79667 11.9999 8.5 11.9999C8.10218 11.9999 7.72064 11.8419 7.43934 11.5606C7.15804 11.2793 7 10.8978 7 10.4999ZM15.28 15.7499C14.377 16.5547 13.2096 16.9994 12 16.9994C10.7904 16.9994 9.62303 16.5547 8.72 15.7499C8.56906 15.6154 8.46245 15.4382 8.41425 15.2419C8.36605 15.0455 8.37851 14.8391 8.45 14.6499C8.52091 14.4601 8.64781 14.2963 8.81389 14.1803C8.97996 14.0642 9.17738 14.0013 9.38 13.9999H14.62C14.8226 14.0013 15.02 14.0642 15.1861 14.1803C15.3522 14.2963 15.4791 14.4601 15.55 14.6499C15.6215 14.8391 15.634 15.0455 15.5858 15.2419C15.5375 15.4382 15.4309 15.6154 15.28 15.7499ZM15.5 11.9999C15.2033 11.9999 14.9133 11.912 14.6666 11.7471C14.42 11.5823 14.2277 11.3481 14.1142 11.074C14.0006 10.7999 13.9709 10.4983 14.0288 10.2073C14.0867 9.91633 14.2296 9.64906 14.4393 9.43928C14.6491 9.2295 14.9164 9.08664 15.2074 9.02876C15.4983 8.97089 15.7999 9.00059 16.074 9.11412C16.3481 9.22765 16.5824 9.41991 16.7472 9.66659C16.912 9.91326 17 10.2033 17 10.4999C17 10.8978 16.842 11.2793 16.5607 11.5606C16.2794 11.8419 15.8978 11.9999 15.5 11.9999Z" fill="#141414"/>
</svg>
