<svg width="24" height="24" viewBox="0 0 24 24" fill="none" xmlns="http://www.w3.org/2000/svg">
<path d="M4 15V17C4 17.2652 4.10536 17.5196 4.29289 17.7071C4.48043 17.8946 4.73478 18 5 18H9V14H5C4.73478 14 4.48043 14.1054 4.29289 14.2929C4.10536 14.4804 4 14.7348 4 15ZM18 11V9C18 8.73478 17.8946 8.48043 17.7071 8.29289C17.5196 8.10536 17.2652 8 17 8H15V12H17C17.2652 12 17.5196 11.8946 17.7071 11.7071C17.8946 11.5196 18 11.2652 18 11ZM13 2H11C10.7348 2 10.4804 2.10536 10.2929 2.29289C10.1054 2.48043 10 2.73478 10 3V5C9.99924 5.13161 10.0245 5.26207 10.0742 5.38391C10.124 5.50574 10.1973 5.61656 10.29 5.71L11 6.41V19.41C10.7736 19.6125 10.614 19.879 10.5423 20.1742C10.4707 20.4695 10.4903 20.7795 10.5987 21.0633C10.7071 21.3471 10.8992 21.5912 11.1494 21.7635C11.3996 21.9358 11.6962 22.028 12 22.028C12.3038 22.028 12.6004 21.9358 12.8506 21.7635C13.1008 21.5912 13.2929 21.3471 13.4013 21.0633C13.5097 20.7795 13.5293 20.4695 13.4577 20.1742C13.386 19.879 13.2264 19.6125 13 19.41V6.41L13.71 5.71C13.8027 5.61656 13.876 5.50574 13.9258 5.38391C13.9755 5.26207 14.0008 5.13161 14 5V3C14 2.73478 13.8946 2.48043 13.7071 2.29289C13.5196 2.10536 13.2652 2 13 2ZM19 14H15V18H19C19.2652 18 19.5196 17.8946 19.7071 17.7071C19.8946 17.5196 20 17.2652 20 17V15C20 14.7348 19.8946 14.4804 19.7071 14.2929C19.5196 14.1054 19.2652 14 19 14ZM4 9V11C4 11.2652 4.10536 11.5196 4.29289 11.7071C4.48043 11.8946 4.73478 12 5 12H9V8H5C4.73478 8 4.48043 8.10536 4.29289 8.29289C4.10536 8.48043 4 8.73478 4 9Z" fill="#141414"/>
</svg>
