<svg width="24" height="24" viewBox="0 0 24 24" fill="none" xmlns="http://www.w3.org/2000/svg">
<path d="M15 19H9C8.73478 19 8.48043 19.1054 8.29289 19.2929C8.10536 19.4804 8 19.7348 8 20C8 20.2652 8.10536 20.5196 8.29289 20.7071C8.48043 20.8946 8.73478 21 9 21H15C15.2652 21 15.5196 20.8946 15.7071 20.7071C15.8946 20.5196 16 20.2652 16 20C16 19.7348 15.8946 19.4804 15.7071 19.2929C15.5196 19.1054 15.2652 19 15 19ZM21.41 5.59C21.0366 5.21441 20.5296 5.00223 20 5H4C3.46957 5 2.96086 5.21071 2.58579 5.58579C2.21071 5.96086 2 6.46957 2 7V16C2 16.5304 2.21071 17.0391 2.58579 17.4142C2.96086 17.7893 3.46957 18 4 18H20C20.5304 18 21.0391 17.7893 21.4142 17.4142C21.7893 17.0391 22 16.5304 22 16V7C21.9978 6.47042 21.7856 5.96335 21.41 5.59ZM17.5 13C17.4986 13.1309 17.464 13.2592 17.3992 13.3729C17.3345 13.4867 17.2418 13.582 17.13 13.65C17.0132 13.7133 16.8828 13.7476 16.75 13.75C16.6245 13.7498 16.5009 13.7189 16.39 13.66L15 12.9V13C15 13.3978 14.842 13.7794 14.5607 14.0607C14.2794 14.342 13.8978 14.5 13.5 14.5H8.5C8.10218 14.5 7.72064 14.342 7.43934 14.0607C7.15804 13.7794 7 13.3978 7 13V10C7 9.60218 7.15804 9.22064 7.43934 8.93934C7.72064 8.65804 8.10218 8.5 8.5 8.5H13.5C13.8978 8.5 14.2794 8.65804 14.5607 8.93934C14.842 9.22064 15 9.60218 15 10V10.1L16.39 9.34C16.5028 9.27602 16.6303 9.24238 16.76 9.24238C16.8897 9.24238 17.0172 9.27602 17.13 9.34C17.2418 9.40797 17.3345 9.50333 17.3992 9.61706C17.464 9.73079 17.4986 9.85914 17.5 9.99V13Z" fill="#141414"/>
</svg>
