<svg width="24" height="24" viewBox="0 0 24 24" fill="none" xmlns="http://www.w3.org/2000/svg">
<path d="M11.9999 5C12.2966 5 12.5866 4.91203 12.8333 4.7472C13.08 4.58238 13.2722 4.34811 13.3858 4.07403C13.4993 3.79994 13.529 3.49834 13.4711 3.20737C13.4132 2.91639 13.2704 2.64912 13.0606 2.43934C12.8508 2.22956 12.5835 2.0867 12.2926 2.02882C12.0016 1.97094 11.7 2.00065 11.4259 2.11418C11.1518 2.22771 10.9176 2.41997 10.7527 2.66665C10.5879 2.91332 10.4999 3.20333 10.4999 3.5C10.4999 3.89783 10.658 4.27936 10.9393 4.56066C11.2206 4.84197 11.6021 5 11.9999 5ZM18.5499 3.17C18.3295 3.02527 18.0608 2.97349 17.8023 3.02593C17.5438 3.07837 17.3166 3.23079 17.1699 3.45L15.7599 5.55C15.6694 5.68756 15.5462 5.80062 15.4014 5.87912C15.2566 5.95763 15.0946 5.99915 14.9299 6H11.9999C11.8683 5.99924 11.7379 6.02446 11.616 6.07423C11.4942 6.12399 11.3834 6.19732 11.2899 6.29L6.28994 11.29C6.19621 11.383 6.12182 11.4936 6.07105 11.6154C6.02028 11.7373 5.99414 11.868 5.99414 12C5.99414 12.132 6.02028 12.2627 6.07105 12.3846C6.12182 12.5064 6.19621 12.617 6.28994 12.71C6.3829 12.8037 6.4935 12.8781 6.61536 12.9289C6.73722 12.9797 6.86793 13.0058 6.99994 13.0058C7.13195 13.0058 7.26266 12.9797 7.38452 12.9289C7.50638 12.8781 7.61698 12.8037 7.70994 12.71L10.9999 9.41V12.76L7.10994 20.55C6.99133 20.7862 6.97103 21.0597 7.05347 21.3108C7.13592 21.5619 7.31441 21.7701 7.54994 21.89C7.68826 21.964 7.84306 22.0019 7.99994 22C8.18461 21.9994 8.36551 21.9478 8.5226 21.8507C8.6797 21.7536 8.80684 21.6149 8.88994 21.45L11.9999 15.24L15.1099 21.45C15.193 21.6149 15.3202 21.7536 15.4773 21.8507C15.6344 21.9478 15.8153 21.9994 15.9999 22C16.1568 22.0019 16.3116 21.964 16.4499 21.89C16.6855 21.7701 16.864 21.5619 16.9464 21.3108C17.0289 21.0597 17.0085 20.7862 16.8899 20.55L12.9999 12.76V8H14.9299C15.4248 8.00019 15.9121 7.87793 16.3483 7.64413C16.7845 7.41032 17.1561 7.07224 17.4299 6.66L18.8299 4.55C18.9747 4.32954 19.0265 4.06082 18.974 3.80236C18.9216 3.5439 18.7692 3.31662 18.5499 3.17Z" fill="#141414"/>
</svg>
