<svg width="24" height="24" viewBox="0 0 24 24" fill="none" xmlns="http://www.w3.org/2000/svg">
<path d="M20.8899 13.54L18.8899 9.68002C18.669 8.34964 18.1153 7.09669 17.2803 6.03765C16.4454 4.9786 15.3562 4.14783 14.1141 3.62253C12.872 3.09724 11.5173 2.89448 10.1758 3.03309C8.83431 3.17171 7.54965 3.6472 6.44121 4.41538C5.33276 5.18356 4.43649 6.21948 3.83571 7.42689C3.23493 8.63429 2.94914 9.97397 3.00489 11.3214C3.06064 12.6689 3.45612 13.9804 4.15459 15.134C4.85305 16.2877 5.83183 17.246 6.99995 17.92V20C6.99995 20.2652 7.1053 20.5196 7.29284 20.7071C7.48038 20.8947 7.73473 21 7.99995 21H13.9999C14.2652 21 14.5195 20.8947 14.7071 20.7071C14.8946 20.5196 14.9999 20.2652 14.9999 20V19H15.9999C16.7956 19 17.5587 18.684 18.1213 18.1213C18.6839 17.5587 18.9999 16.7957 18.9999 16V15H19.9999C20.1718 15.0004 20.3408 14.9564 20.4908 14.8725C20.6407 14.7885 20.7664 14.6673 20.8559 14.5205C20.9453 14.3738 20.9955 14.2065 21.0014 14.0347C21.0074 13.863 20.969 13.6926 20.8899 13.54ZM14.5699 9.08002L7.50995 13.17C7.36357 13.254 7.20012 13.3037 7.03181 13.3156C6.86349 13.3276 6.69466 13.3013 6.53793 13.2388C6.3812 13.1763 6.24061 13.0792 6.12667 12.9547C6.01274 12.8302 5.9284 12.6817 5.87995 12.52C5.61514 11.5953 5.61514 10.6148 5.87995 9.69002C6.17904 8.66652 6.77286 7.75374 7.58734 7.06553C8.40181 6.37731 9.40089 5.94413 10.4599 5.82002C11.2479 5.7328 12.0455 5.82414 12.7933 6.08728C13.5412 6.35042 14.2202 6.77859 14.7799 7.34002C14.9019 7.45808 14.9949 7.60276 15.0516 7.76274C15.1083 7.92271 15.1273 8.09365 15.1069 8.26216C15.0866 8.43067 15.0275 8.59219 14.9344 8.73408C14.8412 8.87597 14.7165 8.99437 14.5699 9.08002Z" fill="#141414"/>
</svg>
