<svg width="24" height="24" viewBox="0 0 24 24" fill="none" xmlns="http://www.w3.org/2000/svg">
<path d="M18 2H17.5C17.2348 2 16.9804 2.10536 16.7929 2.29289C16.6054 2.48043 16.5 2.73478 16.5 3V4C16.5 4.26522 16.3946 4.51957 16.2071 4.70711C16.0196 4.89464 15.7652 5 15.5 5C15.2348 5 14.9804 4.89464 14.7929 4.70711C14.6054 4.51957 14.5 4.26522 14.5 4V3C14.5 2.73478 14.3946 2.48043 14.2071 2.29289C14.0196 2.10536 13.7652 2 13.5 2H10.5C10.2348 2 9.98043 2.10536 9.79289 2.29289C9.60536 2.48043 9.5 2.73478 9.5 3V4C9.5 4.26522 9.39464 4.51957 9.20711 4.70711C9.01957 4.89464 8.76522 5 8.5 5C8.23478 5 7.98043 4.89464 7.79289 4.70711C7.60536 4.51957 7.5 4.26522 7.5 4V3C7.5 2.73478 7.39464 2.48043 7.20711 2.29289C7.01957 2.10536 6.76522 2 6.5 2H6C5.46957 2 4.96086 2.21071 4.58579 2.58579C4.21071 2.96086 4 3.46957 4 4V7C3.99959 7.51686 4.19928 8.01381 4.55723 8.38666C4.91517 8.75952 5.40356 8.97933 5.92 9H18.08C18.5964 8.97933 19.0848 8.75952 19.4428 8.38666C19.8007 8.01381 20.0004 7.51686 20 7V4C20 3.46957 19.7893 2.96086 19.4142 2.58579C19.0391 2.21071 18.5304 2 18 2ZM16.77 11H7.19C6.93808 10.9992 6.69514 11.0935 6.50974 11.2641C6.32434 11.4346 6.21015 11.6689 6.19 11.92L5.09 19.85C5.06932 20.125 5.10572 20.4013 5.19693 20.6615C5.28814 20.9217 5.43217 21.1603 5.61999 21.3622C5.80781 21.5641 6.03536 21.725 6.28833 21.8348C6.54131 21.9445 6.81424 22.0008 7.09 22H9C9.26522 22 9.51957 21.8946 9.70711 21.7071C9.89464 21.5196 10 21.2652 10 21V18.15C9.98138 17.6465 10.1435 17.1529 10.4572 16.7586C10.7708 16.3643 11.2152 16.0952 11.71 16C11.9959 15.9581 12.2875 15.9786 12.5647 16.0602C12.8419 16.1417 13.0981 16.2824 13.3157 16.4725C13.5334 16.6625 13.7072 16.8975 13.8253 17.1612C13.9435 17.4249 14.0031 17.7111 14 18V21C14 21.2652 14.1054 21.5196 14.2929 21.7071C14.4804 21.8946 14.7348 22 15 22H16.92C17.1958 22.0008 17.4687 21.9445 17.7217 21.8348C17.9746 21.725 18.2022 21.5641 18.39 21.3622C18.5778 21.1603 18.7219 20.9217 18.8131 20.6615C18.9043 20.4013 18.9407 20.125 18.92 19.85L17.81 12C17.8101 11.8652 17.783 11.7319 17.7302 11.6078C17.6775 11.4838 17.6002 11.3718 17.5031 11.2784C17.406 11.185 17.291 11.1122 17.165 11.0643C17.039 11.0165 16.9047 10.9946 16.77 11Z" fill="#141414"/>
</svg>
