<svg width="24" height="24" viewBox="0 0 24 24" fill="none" xmlns="http://www.w3.org/2000/svg">
<path d="M17 2H7C6.20435 2 5.44129 2.31607 4.87868 2.87868C4.31607 3.44129 4 4.20435 4 5V19C4 19.7956 4.31607 20.5587 4.87868 21.1213C5.44129 21.6839 6.20435 22 7 22H17C17.7956 22 18.5587 21.6839 19.1213 21.1213C19.6839 20.5587 20 19.7956 20 19V5C20 4.20435 19.6839 3.44129 19.1213 2.87868C18.5587 2.31607 17.7956 2 17 2ZM12 20C11.8022 20 11.6089 19.9414 11.4444 19.8315C11.28 19.7216 11.1518 19.5654 11.0761 19.3827C11.0004 19.2 10.9806 18.9989 11.0192 18.8049C11.0578 18.6109 11.153 18.4327 11.2929 18.2929C11.4327 18.153 11.6109 18.0578 11.8049 18.0192C11.9989 17.9806 12.2 18.0004 12.3827 18.0761C12.5654 18.1518 12.7216 18.28 12.8315 18.4444C12.9414 18.6089 13 18.8022 13 19C13 19.2652 12.8946 19.5196 12.7071 19.7071C12.5196 19.8946 12.2652 20 12 20Z" fill="#141414"/>
</svg>
