<svg width="24" height="24" viewBox="0 0 24 24" fill="none" xmlns="http://www.w3.org/2000/svg">
<path d="M19 2C18.7348 2 18.4804 2.10536 18.2929 2.29289C18.1054 2.48043 18 2.73478 18 3V4C18 4.26522 18.1054 4.51957 18.2929 4.70711C18.4804 4.89464 18.7348 5 19 5C19.2652 5 19.5196 4.89464 19.7071 4.70711C19.8946 4.51957 20 4.26522 20 4V3C20 2.73478 19.8946 2.48043 19.7071 2.29289C19.5196 2.10536 19.2652 2 19 2ZM14 5C14 3.91815 14.3509 2.86548 15 2H7C6.20435 2 5.44129 2.31607 4.87868 2.87868C4.31607 3.44129 4 4.20435 4 5V19C4 19.7956 4.31607 20.5587 4.87868 21.1213C5.44129 21.6839 6.20435 22 7 22H17C17.7956 22 18.5587 21.6839 19.1213 21.1213C19.6839 20.5587 20 19.7956 20 19V9.9C19.6704 9.96395 19.3357 9.99742 19 10C17.6739 10 16.4021 9.47322 15.4645 8.53553C14.5268 7.59785 14 6.32608 14 5ZM14.5 14C14.5 14.4465 14.4004 14.8874 14.2084 15.2905C14.0163 15.6936 13.7367 16.0487 13.39 16.33L14.95 17.11C15.1855 17.2299 15.364 17.4381 15.4465 17.6892C15.5289 17.9403 15.5086 18.2138 15.39 18.45C15.3069 18.6149 15.1798 18.7536 15.0227 18.8507C14.8656 18.9478 14.6847 18.9994 14.5 19C14.3431 19.0019 14.1883 18.964 14.05 18.89L10.05 16.89C9.8507 16.7879 9.69144 16.6219 9.59772 16.4185C9.504 16.2151 9.48125 15.9862 9.53312 15.7684C9.58499 15.5505 9.70846 15.3564 9.88377 15.2171C10.0591 15.0778 10.2761 15.0013 10.5 15H11.5C11.7652 15 12.0196 14.8946 12.2071 14.7071C12.3946 14.5196 12.5 14.2652 12.5 14C12.5 13.7348 12.3946 13.4804 12.2071 13.2929C12.0196 13.1054 11.7652 13 11.5 13H9.5C9.23478 13 8.98043 12.8946 8.79289 12.7071C8.60536 12.5196 8.5 12.2652 8.5 12C8.5 11.7348 8.60536 11.4804 8.79289 11.2929C8.98043 11.1054 9.23478 11 9.5 11H14.5C14.7652 11 15.0196 11.1054 15.2071 11.2929C15.3946 11.4804 15.5 11.7348 15.5 12C15.5 12.2652 15.3946 12.5196 15.2071 12.7071C15.0196 12.8946 14.7652 13 14.5 13H14.32C14.4364 13.3207 14.4973 13.6589 14.5 14ZM18.29 6.29C18.1973 6.38344 18.124 6.49426 18.0742 6.61609C18.0245 6.73793 17.9992 6.86839 18 7C18.0016 7.13068 18.0288 7.25978 18.08 7.38C18.1306 7.50118 18.2017 7.6128 18.29 7.71C18.3872 7.79833 18.4988 7.86936 18.62 7.92C18.7397 7.97291 18.8691 8.00023 19 8.00023C19.1309 8.00023 19.2603 7.97291 19.38 7.92C19.5012 7.86936 19.6128 7.79833 19.71 7.71C19.8027 7.61656 19.876 7.50574 19.9258 7.38391C19.9755 7.26207 20.0008 7.13161 20 7C20.0008 6.86839 19.9755 6.73793 19.9258 6.61609C19.876 6.49426 19.8027 6.38344 19.71 6.29C19.617 6.19627 19.5064 6.12188 19.3846 6.07111C19.2627 6.02034 19.132 5.9942 19 5.9942C18.868 5.9942 18.7373 6.02034 18.6154 6.07111C18.4936 6.12188 18.383 6.19627 18.29 6.29Z" fill="#141414"/>
</svg>
