<svg width="24" height="24" viewBox="0 0 24 24" fill="none" xmlns="http://www.w3.org/2000/svg">
<path d="M17.9999 18.29L17.5099 18C17.8349 17.3817 18.0005 16.6921 17.9917 15.9937C17.983 15.2953 17.8002 14.61 17.4599 14C17.9481 13.8599 18.3647 13.5392 18.6252 13.1031C18.8856 12.667 18.9703 12.1481 18.8621 11.6518C18.754 11.1555 18.461 10.719 18.0427 10.4308C17.6245 10.1426 17.1122 10.0243 16.6099 10.1L14.2099 10.58C15.0247 10.2497 15.7239 9.68645 16.2201 8.96075C16.7164 8.23504 16.9876 7.37911 16.9999 6.50004C16.9936 6.25491 16.9668 6.01073 16.9199 5.77004C17.3147 5.56238 17.6287 5.22871 17.812 4.82208C17.9954 4.41545 18.0375 3.9592 17.9318 3.52586C17.826 3.09253 17.5785 2.70698 17.2284 2.43051C16.8784 2.15404 16.446 2.00252 15.9999 2.00004C15.7257 2.00092 15.4546 2.05819 15.2034 2.16829C14.9522 2.27839 14.7264 2.43897 14.5399 2.64004C13.7592 2.21991 12.8865 2 11.9999 2C11.1134 2 10.2406 2.21991 9.45992 2.64004C9.27344 2.43897 9.04761 2.27839 8.79644 2.16829C8.54528 2.05819 8.27415 2.00092 7.99992 2.00004C7.55388 2.00252 7.12146 2.15404 6.77142 2.43051C6.42138 2.70698 6.17381 3.09253 6.06806 3.52586C5.96231 3.9592 6.00446 4.41545 6.1878 4.82208C6.37114 5.22871 6.68516 5.56238 7.07992 5.77004C7.03301 6.01073 7.00625 6.25491 6.99992 6.50004C7.02766 7.36534 7.30608 8.20397 7.80136 8.91405C8.29664 9.62413 8.98747 10.1751 9.78992 10.5L7.38992 10C6.88765 9.92434 6.37539 10.0426 5.95711 10.3308C5.53884 10.619 5.24589 11.0555 5.13772 11.5518C5.02955 12.0481 5.11427 12.567 5.37469 13.0031C5.6351 13.4392 6.0517 13.7599 6.53992 13.9C6.20733 14.5142 6.03316 15.2016 6.03316 15.9C6.03316 16.5985 6.20733 17.2859 6.53992 17.9L5.99992 18.29C5.62922 18.5147 5.34156 18.8538 5.18026 19.2561C5.01895 19.6585 4.99273 20.1023 5.10554 20.5209C5.21836 20.9394 5.4641 21.31 5.80576 21.5768C6.14743 21.8435 6.56652 21.9921 6.99992 22C7.35345 21.9963 7.69924 21.896 7.99992 21.71L9.79992 20.65C11.2295 21.1167 12.7704 21.1167 14.1999 20.65L15.9999 21.71C16.3006 21.896 16.6464 21.9963 16.9999 22C17.4333 21.9921 17.8524 21.8435 18.1941 21.5768C18.5357 21.31 18.7815 20.9394 18.8943 20.5209C19.0071 20.1023 18.9809 19.6585 18.8196 19.2561C18.6583 18.8538 18.3706 18.5147 17.9999 18.29ZM10.9999 5.29004C11.0657 5.49011 11.1929 5.66431 11.3635 5.78781C11.5341 5.9113 11.7393 5.97779 11.9499 5.97779C12.1605 5.97779 12.3657 5.9113 12.5363 5.78781C12.7069 5.66431 12.8342 5.49011 12.8999 5.29004C13.2917 5.5015 13.6017 5.83761 13.7808 6.24514C13.96 6.65268 13.998 7.10833 13.889 7.53994C13.7799 7.97155 13.53 8.35444 13.1788 8.62796C12.8275 8.90149 12.3951 9.05001 11.9499 9.05001C11.5047 9.05001 11.0723 8.90149 10.7211 8.62796C10.3698 8.35444 10.1199 7.97155 10.0109 7.53994C9.90181 7.10833 9.93987 6.65268 10.119 6.24514C10.2982 5.83761 10.6082 5.5015 10.9999 5.29004ZM14.8599 16.45L12.2999 18.95C12.2065 19.0417 12.0808 19.093 11.9499 19.093C11.819 19.093 11.6934 19.0417 11.5999 18.95L9.03992 16.45C8.80858 16.2207 8.63674 15.9384 8.53935 15.6276C8.44196 15.3167 8.42196 14.9868 8.4811 14.6665C8.54024 14.3462 8.67671 14.0451 8.87867 13.7896C9.08063 13.534 9.34195 13.3316 9.63992 13.2C10.0114 13.0371 10.4236 12.991 10.8219 13.0678C11.2202 13.1446 11.5857 13.3407 11.8699 13.63L11.9499 13.71L12.0299 13.63C12.3142 13.3407 12.6797 13.1446 13.078 13.0678C13.4762 12.991 13.8885 13.0371 14.2599 13.2C14.5544 13.3286 14.8135 13.5263 15.0154 13.7762C15.2173 14.0262 15.356 14.3211 15.4198 14.636C15.4836 14.9509 15.4705 15.2765 15.3818 15.5854C15.293 15.8942 15.1312 16.177 14.9099 16.41L14.8599 16.45Z" fill="#141414"/>
</svg>
