<svg width="24" height="24" viewBox="0 0 24 24" fill="none" xmlns="http://www.w3.org/2000/svg">
<path d="M18 3H6C5.20435 3 4.44129 3.31607 3.87868 3.87868C3.31607 4.44129 3 5.20435 3 6V18C3 18.7956 3.31607 19.5587 3.87868 20.1213C4.44129 20.6839 5.20435 21 6 21H18C18.7956 21 19.5587 20.6839 20.1213 20.1213C20.6839 19.5587 21 18.7956 21 18V6C21 5.20435 20.6839 4.44129 20.1213 3.87868C19.5587 3.31607 18.7956 3 18 3ZM9.71 9.71L7.71 11.71C7.61704 11.8037 7.50644 11.8781 7.38458 11.9289C7.26272 11.9797 7.13201 12.0058 7 12.0058C6.86799 12.0058 6.73728 11.9797 6.61542 11.9289C6.49356 11.8781 6.38296 11.8037 6.29 11.71C6.19627 11.617 6.12188 11.5064 6.07111 11.3846C6.02034 11.2627 5.9942 11.132 5.9942 11C5.9942 10.868 6.02034 10.7373 6.07111 10.6154C6.12188 10.4936 6.19627 10.383 6.29 10.29L7.59 9L6.29 7.71C6.1017 7.5217 5.99591 7.2663 5.99591 7C5.99591 6.7337 6.1017 6.4783 6.29 6.29C6.4783 6.1017 6.7337 5.99591 7 5.99591C7.2663 5.99591 7.5217 6.1017 7.71 6.29L9.71 8.29C9.80373 8.38296 9.87812 8.49356 9.92889 8.61542C9.97966 8.73728 10.0058 8.86799 10.0058 9C10.0058 9.13201 9.97966 9.26272 9.92889 9.38458C9.87812 9.50644 9.80373 9.61704 9.71 9.71ZM17 12H13C12.7348 12 12.4804 11.8946 12.2929 11.7071C12.1054 11.5196 12 11.2652 12 11C12 10.7348 12.1054 10.4804 12.2929 10.2929C12.4804 10.1054 12.7348 10 13 10H17C17.2652 10 17.5196 10.1054 17.7071 10.2929C17.8946 10.4804 18 10.7348 18 11C18 11.2652 17.8946 11.5196 17.7071 11.7071C17.5196 11.8946 17.2652 12 17 12Z" fill="#141414"/>
</svg>
