<svg width="24" height="24" viewBox="0 0 24 24" fill="none" xmlns="http://www.w3.org/2000/svg">
<path d="M7.78 13H9.72L10.22 11H8.28L7.78 13ZM19 4H5C4.20435 4 3.44129 4.31607 2.87868 4.87868C2.31607 5.44129 2 6.20435 2 7V17C2 17.7956 2.31607 18.5587 2.87868 19.1213C3.44129 19.6839 4.20435 20 5 20H19C19.7956 20 20.5587 19.6839 21.1213 19.1213C21.6839 18.5587 22 17.7956 22 17V7C22 6.20435 21.6839 5.44129 21.1213 4.87868C20.5587 4.31607 19.7956 4 19 4ZM13 11H12.28L11.78 13H12C12.2652 13 12.5196 13.1054 12.7071 13.2929C12.8946 13.4804 13 13.7348 13 14C13 14.2652 12.8946 14.5196 12.7071 14.7071C12.5196 14.8946 12.2652 15 12 15H11.28L11 16.24C10.9363 16.5052 10.7699 16.7343 10.5374 16.8768C10.3049 17.0193 10.0252 17.0637 9.76 17C9.49478 16.9363 9.26572 16.7699 9.12319 16.5374C8.98066 16.3049 8.93635 16.0252 9 15.76L9.22 15H7.28L7 16.24C6.93635 16.5052 6.76995 16.7343 6.5374 16.8768C6.30486 17.0193 6.02522 17.0637 5.76 17C5.49478 16.9363 5.26572 16.7699 5.12319 16.5374C4.98066 16.3049 4.93635 16.0252 5 15.76L5.22 15H5C4.73478 15 4.48043 14.8946 4.29289 14.7071C4.10536 14.5196 4 14.2652 4 14C4 13.7348 4.10536 13.4804 4.29289 13.2929C4.48043 13.1054 4.73478 13 5 13H5.72L6.22 11H6C5.73478 11 5.48043 10.8946 5.29289 10.7071C5.10536 10.5196 5 10.2652 5 10C5 9.73478 5.10536 9.48043 5.29289 9.29289C5.48043 9.10536 5.73478 9 6 9H6.72L7 7.76C7.06365 7.49478 7.23005 7.26572 7.4626 7.12319C7.69514 6.98066 7.97478 6.93635 8.24 7C8.50522 7.06365 8.73428 7.23005 8.87681 7.4626C9.01934 7.69514 9.06365 7.97478 9 8.24L8.78 9H10.72L11 7.76C11.0637 7.49478 11.2301 7.26572 11.4626 7.12319C11.6951 6.98066 11.9748 6.93635 12.24 7C12.5052 7.06365 12.7343 7.23005 12.8768 7.4626C13.0193 7.69514 13.0637 7.97478 13 8.24L12.78 9H13C13.2652 9 13.5196 9.10536 13.7071 9.29289C13.8946 9.48043 14 9.73478 14 10C14 10.2652 13.8946 10.5196 13.7071 10.7071C13.5196 10.8946 13.2652 11 13 11ZM17 17C16.8022 17 16.6089 16.9414 16.4444 16.8315C16.28 16.7216 16.1518 16.5654 16.0761 16.3827C16.0004 16.2 15.9806 15.9989 16.0192 15.8049C16.0578 15.6109 16.153 15.4327 16.2929 15.2929C16.4327 15.153 16.6109 15.0578 16.8049 15.0192C16.9989 14.9806 17.2 15.0004 17.3827 15.0761C17.5654 15.1518 17.7216 15.28 17.8315 15.4444C17.9414 15.6089 18 15.8022 18 16C18 16.2652 17.8946 16.5196 17.7071 16.7071C17.5196 16.8946 17.2652 17 17 17ZM17 13C16.8022 13 16.6089 12.9414 16.4444 12.8315C16.28 12.7216 16.1518 12.5654 16.0761 12.3827C16.0004 12.2 15.9806 11.9989 16.0192 11.8049C16.0578 11.6109 16.153 11.4327 16.2929 11.2929C16.4327 11.153 16.6109 11.0578 16.8049 11.0192C16.9989 10.9806 17.2 11.0004 17.3827 11.0761C17.5654 11.1518 17.7216 11.28 17.8315 11.4444C17.9414 11.6089 18 11.8022 18 12C18 12.2652 17.8946 12.5196 17.7071 12.7071C17.5196 12.8946 17.2652 13 17 13ZM17 9C16.8022 9 16.6089 8.94135 16.4444 8.83147C16.28 8.72159 16.1518 8.56541 16.0761 8.38268C16.0004 8.19996 15.9806 7.99889 16.0192 7.80491C16.0578 7.61093 16.153 7.43275 16.2929 7.29289C16.4327 7.15304 16.6109 7.0578 16.8049 7.01921C16.9989 6.98063 17.2 7.00043 17.3827 7.07612C17.5654 7.15181 17.7216 7.27998 17.8315 7.44443C17.9414 7.60888 18 7.80222 18 8C18 8.26522 17.8946 8.51957 17.7071 8.70711C17.5196 8.89464 17.2652 9 17 9Z" fill="#141414"/>
</svg>
