<svg width="24" height="24" viewBox="0 0 24 24" fill="none" xmlns="http://www.w3.org/2000/svg">
<path d="M20.7141 19.29L4.71409 3.28998C4.52579 3.10167 4.27039 2.99588 4.00409 2.99588C3.73779 2.99588 3.4824 3.10167 3.29409 3.28998C3.10579 3.47828 3 3.73367 3 3.99998C3 4.26628 3.10579 4.52167 3.29409 4.70998L8.00409 9.40998V14C7.23061 15.011 6.87186 16.2789 7.00099 17.5453C7.13012 18.8117 7.7374 19.9812 8.69902 20.8152C9.66064 21.6493 10.9042 22.0852 12.1761 22.0341C13.448 21.9829 14.6526 21.4486 15.5441 20.54C16.1666 19.8999 16.6082 19.1063 16.8241 18.24L19.2941 20.71C19.3871 20.8037 19.4977 20.8781 19.6195 20.9289C19.7414 20.9796 19.8721 21.0058 20.0041 21.0058C20.1361 21.0058 20.2668 20.9796 20.3887 20.9289C20.5105 20.8781 20.6211 20.8037 20.7141 20.71C20.8078 20.617 20.8822 20.5064 20.933 20.3846C20.9838 20.2627 21.0099 20.132 21.0099 20C21.0099 19.868 20.9838 19.7373 20.933 19.6154C20.8822 19.4935 20.8078 19.3829 20.7141 19.29ZM13.4141 17.54C13.3073 17.8273 13.111 18.0727 12.8541 18.24C12.603 18.4094 12.307 18.4999 12.0041 18.4999C11.7012 18.4999 11.4052 18.4094 11.1541 18.24C10.9 18.071 10.7047 17.8272 10.5954 17.5423C10.4861 17.2574 10.4682 16.9455 10.5441 16.65C10.6154 16.3553 10.776 16.0898 11.0041 15.89V12.41L13.0041 14.41V15.89C13.2321 16.0898 13.3928 16.3553 13.4641 16.65C13.5434 16.9443 13.5259 17.2564 13.4141 17.54ZM11.0041 5.99998C11.0041 5.73476 11.1094 5.48041 11.297 5.29287C11.4845 5.10533 11.7389 4.99998 12.0041 4.99998C12.2693 4.99998 12.5237 5.10533 12.7112 5.29287C12.8987 5.48041 13.0041 5.73476 13.0041 5.99998V8.75998L16.0041 11.76V5.99998C16.0047 5.20839 15.7705 4.43442 15.331 3.77605C14.8915 3.11767 14.2665 2.6045 13.5353 2.30149C12.804 1.99848 11.9992 1.91926 11.2229 2.07386C10.4465 2.22846 9.73351 2.60993 9.17409 3.16998C8.88473 3.46484 8.64195 3.80203 8.45409 4.16998L11.0041 6.75998V5.99998Z" fill="#141414"/>
</svg>
