<svg width="24" height="24" viewBox="0 0 24 24" fill="none" xmlns="http://www.w3.org/2000/svg">
<path d="M12 2C10.0222 2 8.08879 2.58649 6.4443 3.6853C4.79981 4.78412 3.51809 6.3459 2.76121 8.17317C2.00433 10.0004 1.8063 12.0111 2.19215 13.9509C2.578 15.8907 3.53041 17.6725 4.92894 19.0711C6.32746 20.4696 8.10929 21.422 10.0491 21.8079C11.9889 22.1937 13.9996 21.9957 15.8268 21.2388C17.6541 20.4819 19.2159 19.2002 20.3147 17.5557C21.4135 15.9112 22 13.9778 22 12C22 10.6868 21.7413 9.38642 21.2388 8.17317C20.7363 6.95991 19.9997 5.85752 19.0711 4.92893C18.1425 4.00035 17.0401 3.26375 15.8268 2.7612C14.6136 2.25866 13.3132 2 12 2ZM12 6C12.5933 6 13.1734 6.17595 13.6667 6.50559C14.1601 6.83524 14.5446 7.30377 14.7716 7.85195C14.9987 8.40013 15.0581 9.00333 14.9424 9.58527C14.8266 10.1672 14.5409 10.7018 14.1213 11.1213C13.7018 11.5409 13.1672 11.8266 12.5853 11.9424C12.0033 12.0581 11.4001 11.9987 10.852 11.7716C10.3038 11.5446 9.83524 11.1601 9.5056 10.6667C9.17595 10.1734 9 9.59334 9 9C9 8.20435 9.31607 7.44129 9.87868 6.87868C10.4413 6.31607 11.2044 6 12 6ZM12 20C10.7163 19.998 9.45187 19.6872 8.31358 19.0937C7.17529 18.5001 6.19654 17.6414 5.46 16.59C6.46 15.08 9 14 12 14C15 14 17.54 15.08 18.54 16.59C17.8035 17.6414 16.8247 18.5001 15.6864 19.0937C14.5481 19.6872 13.2837 19.998 12 20Z" fill="#141414"/>
</svg>
