<svg width="24" height="24" viewBox="0 0 24 24" fill="none" xmlns="http://www.w3.org/2000/svg">
<path d="M3.44 14.7499C3.22931 15.0132 3.08857 15.3254 3.03088 15.6575C2.97318 15.9897 3.0004 16.3311 3.11 16.6499L14.76 4.99994H3C2.73479 4.99994 2.48043 5.1053 2.2929 5.29283C2.10536 5.48037 2 5.73472 2 5.99994C1.99771 8.61626 3.02087 11.1293 4.85 12.9999L3.44 14.7499ZM19.15 12.9999C20.9791 11.1293 22.0023 8.61626 22 5.99994C22 5.73472 21.8946 5.48037 21.7071 5.29283C21.5196 5.1053 21.2652 4.99994 21 4.99994H20.41L20.71 4.70994C20.8983 4.52164 21.0041 4.26624 21.0041 3.99994C21.0041 3.73364 20.8983 3.47825 20.71 3.28994C20.5217 3.10164 20.2663 2.99585 20 2.99585C19.7337 2.99585 19.4783 3.10164 19.29 3.28994L3.29 19.2899C3.19628 19.3829 3.12188 19.4935 3.07111 19.6154C3.02034 19.7372 2.99421 19.8679 2.99421 19.9999C2.99421 20.132 3.02034 20.2627 3.07111 20.3845C3.12188 20.5064 3.19628 20.617 3.29 20.7099C3.38297 20.8037 3.49357 20.8781 3.61543 20.9288C3.73729 20.9796 3.86799 21.0057 4 21.0057C4.13202 21.0057 4.26272 20.9796 4.38458 20.9288C4.50644 20.8781 4.61704 20.8037 4.71 20.7099L9.71 15.7099L10.02 15.7899V18.9999C10.02 19.5304 10.2307 20.0391 10.6058 20.4142C10.9809 20.7892 11.4896 20.9999 12.02 20.9999C12.5504 20.9999 13.0591 20.7892 13.4342 20.4142C13.8093 20.0391 14.02 19.5304 14.02 18.9999V15.7999C14.6458 15.6695 15.2584 15.4821 15.85 15.2399L17.46 17.2399C17.6441 17.473 17.8779 17.6622 18.1443 17.7936C18.4107 17.9251 18.703 17.9956 19 17.9999C19.4546 17.9996 19.8954 17.8444 20.25 17.5599C20.6635 17.2283 20.9284 16.746 20.9866 16.2191C21.0447 15.6922 20.8913 15.1638 20.56 14.7499L19.15 12.9999Z" fill="#141414"/>
</svg>
