<svg width="24" height="24" viewBox="0 0 24 24" fill="none" xmlns="http://www.w3.org/2000/svg">
<path d="M2 12C2 13.9778 2.58649 15.9112 3.6853 17.5557C4.78412 19.2002 6.3459 20.4819 8.17317 21.2388C10.0004 21.9957 12.0111 22.1937 13.9509 21.8079C15.8907 21.422 17.6725 20.4696 19.0711 19.0711C20.4696 17.6725 21.422 15.8907 21.8079 13.9509C22.1937 12.0111 21.9957 10.0004 21.2388 8.17317C20.4819 6.3459 19.2002 4.78412 17.5557 3.6853C15.9112 2.58649 13.9778 2 12 2C10.6868 2 9.38642 2.25866 8.17317 2.7612C6.95991 3.26375 5.85752 4.00035 4.92893 4.92893C3.05357 6.8043 2 9.34784 2 12ZM12.71 7.29L15.71 10.29C15.8037 10.383 15.8781 10.4936 15.9289 10.6154C15.9797 10.7373 16.0058 10.868 16.0058 11C16.0058 11.132 15.9797 11.2627 15.9289 11.3846C15.8781 11.5064 15.8037 11.617 15.71 11.71C15.617 11.8037 15.5064 11.8781 15.3846 11.9289C15.2627 11.9797 15.132 12.0058 15 12.0058C14.868 12.0058 14.7373 11.9797 14.6154 11.9289C14.4936 11.8781 14.383 11.8037 14.29 11.71L13 10.41V16C13 16.2652 12.8946 16.5196 12.7071 16.7071C12.5196 16.8946 12.2652 17 12 17C11.7348 17 11.4804 16.8946 11.2929 16.7071C11.1054 16.5196 11 16.2652 11 16V10.41L9.71 11.71C9.5217 11.8983 9.2663 12.0041 9 12.0041C8.7337 12.0041 8.4783 11.8983 8.29 11.71C8.1017 11.5217 7.99591 11.2663 7.99591 11C7.99591 10.7337 8.1017 10.4783 8.29 10.29L11.29 7.29C11.3851 7.19896 11.4972 7.12759 11.62 7.08C11.8635 6.97998 12.1365 6.97998 12.38 7.08C12.5028 7.12759 12.6149 7.19896 12.71 7.29Z" fill="#141414"/>
</svg>
