<svg width="24" height="24" viewBox="0 0 24 24" fill="none" xmlns="http://www.w3.org/2000/svg">
<path d="M19 17H17.72C17.5455 16.6977 17.2949 16.4464 16.9932 16.2709C16.6914 16.0955 16.349 16.0021 16 16H14C13.4696 16 12.9609 16.2107 12.5858 16.5858C12.2107 16.9609 12 17.4696 12 18H8.5C7.83696 18 7.20107 17.7366 6.73223 17.2678C6.26339 16.7989 6 16.163 6 15.5C6 14.837 6.26339 14.2011 6.73223 13.7322C7.20107 13.2634 7.83696 13 8.5 13H15.5C16.6935 13 17.8381 12.5259 18.682 11.682C19.5259 10.8381 20 9.69347 20 8.5C20 7.30653 19.5259 6.16193 18.682 5.31802C17.8381 4.47411 16.6935 4 15.5 4H12C12 3.46957 11.7893 2.96086 11.4142 2.58579C11.0391 2.21071 10.5304 2 10 2H8C7.65097 2.00211 7.30857 2.09552 7.00683 2.27095C6.70509 2.44638 6.45451 2.69772 6.28 3H5C4.73478 3 4.48043 3.10536 4.29289 3.29289C4.10536 3.48043 4 3.73478 4 4V6C4 6.26522 4.10536 6.51957 4.29289 6.70711C4.48043 6.89464 4.73478 7 5 7H6.28C6.45451 7.30228 6.70509 7.55362 7.00683 7.72905C7.30857 7.90448 7.65097 7.99789 8 8H10C10.5304 8 11.0391 7.78929 11.4142 7.41421C11.7893 7.03914 12 6.53043 12 6H15.5C16.163 6 16.7989 6.26339 17.2678 6.73223C17.7366 7.20107 18 7.83696 18 8.5C18 9.16304 17.7366 9.79893 17.2678 10.2678C16.7989 10.7366 16.163 11 15.5 11H8.5C7.30653 11 6.16193 11.4741 5.31802 12.318C4.47411 13.1619 4 14.3065 4 15.5C4 16.6935 4.47411 17.8381 5.31802 18.682C6.16193 19.5259 7.30653 20 8.5 20H12C12 20.5304 12.2107 21.0391 12.5858 21.4142C12.9609 21.7893 13.4696 22 14 22H16C16.349 21.9979 16.6914 21.9045 16.9932 21.7291C17.2949 21.5536 17.5455 21.3023 17.72 21H19C19.2652 21 19.5196 20.8946 19.7071 20.7071C19.8946 20.5196 20 20.2652 20 20V18C20 17.7348 19.8946 17.4804 19.7071 17.2929C19.5196 17.1054 19.2652 17 19 17Z" fill="#141414"/>
</svg>
