<svg width="24" height="24" viewBox="0 0 24 24" fill="none" xmlns="http://www.w3.org/2000/svg">
<path d="M18 5.9998H16C15.7347 5.9998 15.4804 6.10516 15.2928 6.29269C15.1053 6.48023 15 6.73458 15 6.9998V8.9998C15 9.26502 15.1053 9.51937 15.2928 9.70691C15.4804 9.89444 15.7347 9.9998 16 9.9998C16 10.8998 15.23 11.3998 14 12.1398C13.69 12.3298 13.36 12.5298 13 12.7398V5.9998H13.25C13.4286 6.00016 13.6041 5.95264 13.7582 5.86218C13.9123 5.77172 14.0393 5.64163 14.1261 5.48544C14.2129 5.32925 14.2562 5.15267 14.2516 4.97405C14.247 4.79544 14.1947 4.62131 14.1 4.4698L12.85 2.4698C12.7603 2.32509 12.6351 2.20567 12.4864 2.12286C12.3376 2.04005 12.1702 1.99658 12 1.99658C11.8297 1.99658 11.6623 2.04005 11.5135 2.12286C11.3648 2.20567 11.2396 2.32509 11.15 2.4698L9.89995 4.4698C9.80525 4.62131 9.75288 4.79544 9.74828 4.97405C9.74368 5.15267 9.78702 5.32925 9.87379 5.48544C9.96056 5.64163 10.0876 5.77172 10.2417 5.86218C10.3958 5.95264 10.5713 6.00016 10.75 5.9998H11V14.0598L10.25 13.6698C9.05995 13.0698 8.30995 12.6698 8.07995 11.6698C8.45196 11.4345 8.73593 11.083 8.88786 10.6698C9.03978 10.2567 9.05116 9.80498 8.92023 9.38472C8.7893 8.96445 8.52337 8.59912 8.16369 8.34536C7.804 8.0916 7.37065 7.9636 6.93081 7.98119C6.49097 7.99879 6.06922 8.16099 5.73095 8.44267C5.39268 8.72434 5.15679 9.10975 5.05985 9.53913C4.9629 9.96851 5.01033 10.4179 5.19476 10.8176C5.3792 11.2173 5.69034 11.5449 6.07995 11.7498C6.39995 13.9398 8.07995 14.8098 9.35995 15.4398C9.85603 15.654 10.3177 15.9405 10.73 16.2898C10.0988 16.5811 9.58834 17.0826 9.28591 17.7086C8.98348 18.3345 8.90783 19.046 9.07187 19.7216C9.23591 20.3971 9.62947 20.9947 10.1853 21.4123C10.7411 21.8298 11.4247 22.0414 12.1192 22.0108C12.8137 21.9802 13.476 21.7093 13.9929 21.2445C14.5099 20.7797 14.8494 20.1498 14.9534 19.4625C15.0574 18.7751 14.9195 18.073 14.5632 17.4761C14.2069 16.8792 13.6543 16.4245 13 16.1898V15.9098C13 15.0798 13.75 14.5898 15 13.9098C16.25 13.2298 18 12.1198 18 10.0398C18.2652 10.0398 18.5195 9.93444 18.7071 9.74691C18.8946 9.55937 19 9.30502 19 9.0398V6.9998C19 6.73458 18.8946 6.48023 18.7071 6.29269C18.5195 6.10516 18.2652 5.9998 18 5.9998Z" fill="#141414"/>
</svg>
