<svg width="24" height="24" viewBox="0 0 24 24" fill="none" xmlns="http://www.w3.org/2000/svg">
<path d="M7.71019 8.70994L11.0002 5.40994V16.9999C11.0002 17.2652 11.1055 17.5195 11.2931 17.707C11.4806 17.8946 11.735 17.9999 12.0002 17.9999C12.2654 17.9999 12.5198 17.8946 12.7073 17.707C12.8948 17.5195 13.0002 17.2652 13.0002 16.9999V5.40994L16.2902 8.70994C16.3831 8.80367 16.4937 8.87806 16.6156 8.92883C16.7375 8.9796 16.8682 9.00574 17.0002 9.00574C17.1322 9.00574 17.2629 8.9796 17.3848 8.92883C17.5066 8.87806 17.6172 8.80367 17.7102 8.70994C17.8039 8.61698 17.8783 8.50637 17.9291 8.38452C17.9798 8.26266 18.006 8.13195 18.006 7.99994C18.006 7.86793 17.9798 7.73722 17.9291 7.61536C17.8783 7.4935 17.8039 7.3829 17.7102 7.28994L12.7102 2.28994C12.6172 2.19621 12.5066 2.12182 12.3848 2.07105C12.2629 2.02028 12.1322 1.99414 12.0002 1.99414C11.8682 1.99414 11.7375 2.02028 11.6156 2.07105C11.4937 2.12182 11.3831 2.19621 11.2902 2.28994L6.29019 7.28994C6.10188 7.47824 5.99609 7.73364 5.99609 7.99994C5.99609 8.26624 6.10188 8.52164 6.29019 8.70994C6.47849 8.89824 6.73388 9.00403 7.00019 9.00403C7.26649 9.00403 7.52188 8.89824 7.71019 8.70994ZM17.0002 19.9999H7.00019C6.73497 19.9999 6.48062 20.1053 6.29308 20.2928C6.10554 20.4804 6.00019 20.7347 6.00019 20.9999C6.00019 21.2652 6.10554 21.5195 6.29308 21.707C6.48062 21.8946 6.73497 21.9999 7.00019 21.9999H17.0002C17.2654 21.9999 17.5198 21.8946 17.7073 21.707C17.8948 21.5195 18.0002 21.2652 18.0002 20.9999C18.0002 20.7347 17.8948 20.4804 17.7073 20.2928C17.5198 20.1053 17.2654 19.9999 17.0002 19.9999Z" fill="#141414"/>
</svg>
