<svg width="24" height="24" viewBox="0 0 24 24" fill="none" xmlns="http://www.w3.org/2000/svg">
<path d="M16.2402 16.2401C15.6859 16.8005 15.0254 17.2448 14.2974 17.547C13.5694 17.8492 12.7884 18.0032 12.0002 18.0001C10.4822 18.0042 9.01919 17.4328 7.90581 16.401C6.79243 15.3693 6.11147 13.9539 6.00017 12.4401L6.27017 12.7101C6.36313 12.8038 6.47373 12.8782 6.59559 12.929C6.71745 12.9797 6.84815 13.0059 6.98017 13.0059C7.11218 13.0059 7.24288 12.9797 7.36474 12.929C7.4866 12.8782 7.5972 12.8038 7.69017 12.7101C7.78389 12.6171 7.85829 12.5065 7.90906 12.3847C7.95983 12.2628 7.98596 12.1321 7.98596 12.0001C7.98596 11.8681 7.95983 11.7374 7.90906 11.6155C7.85829 11.4936 7.78389 11.383 7.69017 11.2901L5.69017 9.29008C5.5972 9.19635 5.4866 9.12196 5.36474 9.07119C5.24288 9.02042 5.11218 8.99428 4.98017 8.99428C4.84815 8.99428 4.71745 9.02042 4.59559 9.07119C4.47373 9.12196 4.36313 9.19635 4.27017 9.29008L2.27017 11.2901C2.08186 11.4784 1.97607 11.7338 1.97607 12.0001C1.97607 12.2664 2.08186 12.5218 2.27017 12.7101C2.45847 12.8984 2.71386 13.0042 2.98017 13.0042C3.24647 13.0042 3.50186 12.8984 3.69017 12.7101L4.00017 12.3901C4.0764 13.936 4.59946 15.4267 5.50596 16.6813C6.41245 17.9359 7.66344 18.9006 9.10726 19.4585C10.5511 20.0163 12.1257 20.1433 13.6403 19.8241C15.1549 19.5049 16.5443 18.7532 17.6402 17.6601C17.8285 17.4718 17.9343 17.2164 17.9343 16.9501C17.9343 16.6838 17.8285 16.4284 17.6402 16.2401C17.4519 16.0518 17.1965 15.946 16.9302 15.946C16.6639 15.946 16.4085 16.0518 16.2202 16.2401H16.2402ZM21.7102 11.2901C21.6172 11.1964 21.5066 11.122 21.3847 11.0712C21.2629 11.0204 21.1322 10.9943 21.0002 10.9943C20.8682 10.9943 20.7374 11.0204 20.6156 11.0712C20.4937 11.122 20.3831 11.1964 20.2902 11.2901L19.9302 11.6501C19.8612 10.1007 19.3434 8.60485 18.4397 7.34444C17.536 6.08404 16.2855 5.11347 14.8403 4.55085C13.3951 3.98823 11.8175 3.85781 10.2995 4.17548C8.78147 4.49314 7.38853 5.24518 6.29017 6.34008C6.10186 6.52839 5.99607 6.78378 5.99607 7.05008C5.99607 7.31638 6.10186 7.57178 6.29017 7.76008C6.47847 7.94839 6.73386 8.05417 7.00017 8.05417C7.26647 8.05417 7.52186 7.94839 7.71017 7.76008C8.5197 6.95139 9.5436 6.39104 10.6611 6.14512C11.7787 5.89921 12.9432 5.97797 14.0174 6.37214C15.0917 6.7663 16.0308 7.45943 16.724 8.36977C17.4173 9.28012 17.8358 10.3697 17.9302 11.5101L17.7102 11.2901C17.5219 11.1018 17.2665 10.996 17.0002 10.996C16.7339 10.996 16.4785 11.1018 16.2902 11.2901C16.1019 11.4784 15.9961 11.7338 15.9961 12.0001C15.9961 12.2664 16.1019 12.5218 16.2902 12.7101L18.2902 14.7101C18.3831 14.8038 18.4937 14.8782 18.6156 14.929C18.7374 14.9797 18.8682 15.0059 19.0002 15.0059C19.1322 15.0059 19.2629 14.9797 19.3847 14.929C19.5066 14.8782 19.6172 14.8038 19.7102 14.7101L21.7102 12.7101C21.8039 12.6171 21.8783 12.5065 21.9291 12.3847C21.9798 12.2628 22.006 12.1321 22.006 12.0001C22.006 11.8681 21.9798 11.7374 21.9291 11.6155C21.8783 11.4936 21.8039 11.383 21.7102 11.2901ZM12.0002 14.0001C12.2654 14.0001 12.5197 13.8947 12.7073 13.7072C12.8948 13.5197 13.0002 13.2653 13.0002 13.0001V10.0001C13.0002 9.73487 12.8948 9.48051 12.7073 9.29298C12.5197 9.10544 12.2654 9.00008 12.0002 9.00008C11.7349 9.00008 11.4806 9.10544 11.2931 9.29298C11.1055 9.48051 11.0002 9.73487 11.0002 10.0001V12.0001H10.0002C9.73495 12.0001 9.4806 12.1054 9.29306 12.293C9.10552 12.4805 9.00017 12.7349 9.00017 13.0001C9.00017 13.2653 9.10552 13.5197 9.29306 13.7072C9.4806 13.8947 9.73495 14.0001 10.0002 14.0001H12.0002Z" fill="#141414"/>
</svg>
