<svg width="24" height="24" viewBox="0 0 24 24" fill="none" xmlns="http://www.w3.org/2000/svg">
<path d="M19.15 13C20.9791 11.1293 22.0023 8.61632 22 6C22 5.73478 21.8946 5.48043 21.7071 5.29289C21.5196 5.10536 21.2652 5 21 5H3C2.73479 5 2.48043 5.10536 2.2929 5.29289C2.10536 5.48043 2 5.73478 2 6C1.99771 8.61632 3.02087 11.1293 4.85 13L3.44 14.75C3.10873 15.1638 2.95531 15.6923 3.01343 16.2192C3.07156 16.7461 3.33649 17.2283 3.75 17.56C4.10456 17.8445 4.54544 17.9996 5 18C5.2996 17.9998 5.59533 17.9323 5.86534 17.8025C6.13536 17.6727 6.37276 17.4839 6.56 17.25L8.17 15.25C8.76196 15.4887 9.37451 15.6728 10 15.8V19C10 19.5304 10.2107 20.0391 10.5858 20.4142C10.9609 20.7893 11.4696 21 12 21C12.5304 21 13.0391 20.7893 13.4142 20.4142C13.7893 20.0391 14 19.5304 14 19V15.8C14.6258 15.6696 15.2384 15.4821 15.83 15.24L17.44 17.24C17.6263 17.4757 17.8632 17.6664 18.1333 17.798C18.4034 17.9296 18.6996 17.9986 19 18C19.4546 17.9996 19.8954 17.8445 20.25 17.56C20.6635 17.2283 20.9284 16.7461 20.9866 16.2192C21.0447 15.6923 20.8913 15.1638 20.56 14.75L19.15 13Z" fill="#141414"/>
</svg>
