<svg width="24" height="24" viewBox="0 0 24 24" fill="none" xmlns="http://www.w3.org/2000/svg">
<path d="M13.7099 13.2899C13.617 13.1962 13.5064 13.1218 13.3845 13.071C13.2627 13.0203 13.132 12.9941 12.9999 12.9941C12.8679 12.9941 12.7372 13.0203 12.6154 13.071C12.4935 13.1218 12.3829 13.1962 12.2899 13.2899L11.3799 14.2099L9.78994 12.6199L10.7099 11.7099C10.8982 11.5216 11.004 11.2662 11.004 10.9999C11.004 10.7336 10.8982 10.4782 10.7099 10.2899C10.5216 10.1016 10.2662 9.99585 9.99994 9.99585C9.73364 9.99585 9.47824 10.1016 9.28994 10.2899L8.37994 11.2099L7.75994 10.5899C7.66698 10.4962 7.55637 10.4218 7.43452 10.371C7.31266 10.3203 7.18195 10.2941 7.04994 10.2941C6.91793 10.2941 6.78722 10.3203 6.66536 10.371C6.5435 10.4218 6.4329 10.4962 6.33994 10.5899L5.04994 11.8799C4.48814 12.4424 4.17258 13.2049 4.17258 13.9999C4.17258 14.7949 4.48814 15.5574 5.04994 16.1199L5.75994 16.8299L3.28994 19.2899C3.19621 19.3829 3.12182 19.4935 3.07105 19.6154C3.02028 19.7372 2.99414 19.8679 2.99414 19.9999C2.99414 20.132 3.02028 20.2627 3.07105 20.3845C3.12182 20.5064 3.19621 20.617 3.28994 20.7099C3.3829 20.8037 3.4935 20.8781 3.61536 20.9288C3.73722 20.9796 3.86793 21.0057 3.99994 21.0057C4.13195 21.0057 4.26266 20.9796 4.38452 20.9288C4.50638 20.8781 4.61698 20.8037 4.70994 20.7099L7.16994 18.2399L7.87994 18.9499C8.44244 19.5117 9.20494 19.8273 9.99994 19.8273C10.7949 19.8273 11.5574 19.5117 12.1199 18.9499L13.4099 17.6599C13.5037 17.567 13.5781 17.4564 13.6288 17.3345C13.6796 17.2127 13.7057 17.082 13.7057 16.9499C13.7057 16.8179 13.6796 16.6872 13.6288 16.5654C13.5781 16.4435 13.5037 16.3329 13.4099 16.2399L12.7899 15.6199L13.7099 14.7099C13.8037 14.617 13.8781 14.5064 13.9288 14.3845C13.9796 14.2627 14.0057 14.132 14.0057 13.9999C14.0057 13.8679 13.9796 13.7372 13.9288 13.6154C13.8781 13.4935 13.8037 13.3829 13.7099 13.2899ZM20.7099 3.28994C20.617 3.19621 20.5064 3.12182 20.3845 3.07105C20.2627 3.02028 20.132 2.99414 19.9999 2.99414C19.8679 2.99414 19.7372 3.02028 19.6154 3.07105C19.4935 3.12182 19.3829 3.19621 19.2899 3.28994L16.8299 5.75994L16.1199 5.04994C15.5574 4.48814 14.7949 4.17258 13.9999 4.17258C13.2049 4.17258 12.4424 4.48814 11.8799 5.04994L10.5899 6.33994C10.4962 6.4329 10.4218 6.5435 10.371 6.66536C10.3203 6.78722 10.2941 6.91793 10.2941 7.04994C10.2941 7.18195 10.3203 7.31266 10.371 7.43452C10.4218 7.55637 10.4962 7.66698 10.5899 7.75994L16.2399 13.4099C16.3329 13.5037 16.4435 13.5781 16.5654 13.6288C16.6872 13.6796 16.8179 13.7057 16.9499 13.7057C17.082 13.7057 17.2127 13.6796 17.3345 13.6288C17.4564 13.5781 17.567 13.5037 17.6599 13.4099L18.9999 12.1199C19.5617 11.5574 19.8773 10.7949 19.8773 9.99994C19.8773 9.20494 19.5617 8.44244 18.9999 7.87994L18.2899 7.16994L20.7599 4.70994C20.8505 4.61372 20.921 4.50051 20.9676 4.37685C21.0141 4.2532 21.0356 4.12155 21.031 3.98951C21.0264 3.85748 20.9956 3.72767 20.9405 3.6076C20.8854 3.48752 20.807 3.37956 20.7099 3.28994Z" fill="#141414"/>
</svg>
