<svg width="24" height="24" viewBox="0 0 24 24" fill="none" xmlns="http://www.w3.org/2000/svg">
<path d="M8 8H16C16.2652 8 16.5196 7.89464 16.7071 7.70711C16.8946 7.51957 17 7.26522 17 7V3C17 2.73478 16.8946 2.48043 16.7071 2.29289C16.5196 2.10536 16.2652 2 16 2H8C7.73478 2 7.48043 2.10536 7.29289 2.29289C7.10536 2.48043 7 2.73478 7 3V7C7 7.26522 7.10536 7.51957 7.29289 7.70711C7.48043 7.89464 7.73478 8 8 8ZM13 4.5C13 4.36739 13.0527 4.24021 13.1464 4.14645C13.2402 4.05268 13.3674 4 13.5 4H14.5C14.6326 4 14.7598 4.05268 14.8536 4.14645C14.9473 4.24021 15 4.36739 15 4.5V5.5C15 5.63261 14.9473 5.75979 14.8536 5.85355C14.7598 5.94732 14.6326 6 14.5 6H13.5C13.3674 6 13.2402 5.94732 13.1464 5.85355C13.0527 5.75979 13 5.63261 13 5.5V4.5ZM9 4.5C9 4.36739 9.05268 4.24021 9.14645 4.14645C9.24021 4.05268 9.36739 4 9.5 4H10.5C10.6326 4 10.7598 4.05268 10.8536 4.14645C10.9473 4.24021 11 4.36739 11 4.5V5.5C11 5.63261 10.9473 5.75979 10.8536 5.85355C10.7598 5.94732 10.6326 6 10.5 6H9.5C9.36739 6 9.24021 5.94732 9.14645 5.85355C9.05268 5.75979 9 5.63261 9 5.5V4.5ZM18 10H6C5.73478 10 5.48043 10.1054 5.29289 10.2929C5.10536 10.4804 5 10.7348 5 11V15C5 16.8565 5.7375 18.637 7.05025 19.9497C8.36301 21.2625 10.1435 22 12 22C13.8565 22 15.637 21.2625 16.9497 19.9497C18.2625 18.637 19 16.8565 19 15V11C19 10.7348 18.8946 10.4804 18.7071 10.2929C18.5196 10.1054 18.2652 10 18 10Z" fill="#141414"/>
</svg>
