<svg width="24" height="24" viewBox="0 0 24 24" fill="none" xmlns="http://www.w3.org/2000/svg">
<path d="M13.9999 8.00019H6.40994L8.70994 5.71019C8.89824 5.52188 9.00403 5.26649 9.00403 5.00019C9.00403 4.73388 8.89824 4.47849 8.70994 4.29019C8.52164 4.10188 8.26624 3.99609 7.99994 3.99609C7.73364 3.99609 7.47824 4.10188 7.28994 4.29019L3.28994 8.29018C3.19621 8.38315 3.12182 8.49375 3.07105 8.61561C3.02028 8.73747 2.99414 8.86817 2.99414 9.00019C2.99414 9.1322 3.02028 9.2629 3.07105 9.38476C3.12182 9.50662 3.19621 9.61722 3.28994 9.71019L7.28994 13.7102C7.3829 13.8039 7.4935 13.8783 7.61536 13.9291C7.73722 13.9798 7.86793 14.006 7.99994 14.006C8.13195 14.006 8.26266 13.9798 8.38452 13.9291C8.50637 13.8783 8.61698 13.8039 8.70994 13.7102C8.80367 13.6172 8.87806 13.5066 8.92883 13.3848C8.9796 13.2629 9.00574 13.1322 9.00574 13.0002C9.00574 12.8682 8.9796 12.7375 8.92883 12.6156C8.87806 12.4937 8.80367 12.3831 8.70994 12.2902L6.40994 10.0002H13.9999C15.326 10.0002 16.5978 10.527 17.5355 11.4647C18.4732 12.4023 18.9999 13.6741 18.9999 15.0002V18.0002C18.9999 18.2654 19.1053 18.5198 19.2928 18.7073C19.4804 18.8948 19.7347 19.0002 19.9999 19.0002C20.2652 19.0002 20.5195 18.8948 20.707 18.7073C20.8946 18.5198 20.9999 18.2654 20.9999 18.0002V15.0002C20.9999 13.1437 20.2624 11.3632 18.9497 10.0504C17.6369 8.73768 15.8565 8.00019 13.9999 8.00019Z" fill="#141414"/>
</svg>
