<svg width="24" height="24" viewBox="0 0 24 24" fill="none" xmlns="http://www.w3.org/2000/svg">
<path d="M19 5H5C4.20435 5 3.44129 5.31607 2.87868 5.87868C2.31607 6.44129 2 7.20435 2 8V16C2 16.7956 2.31607 17.5587 2.87868 18.1213C3.44129 18.6839 4.20435 19 5 19H19C19.7956 19 20.5587 18.6839 21.1213 18.1213C21.6839 17.5587 22 16.7956 22 16V8C22 7.20435 21.6839 6.44129 21.1213 5.87868C20.5587 5.31607 19.7956 5 19 5ZM14.55 12.83L11.55 14.83C11.3996 14.929 11.2252 14.9856 11.0453 14.9938C10.8654 15.002 10.6867 14.9614 10.5279 14.8764C10.3692 14.7914 10.2363 14.6651 10.1434 14.5108C10.0505 14.3566 10.0009 14.1801 10 14V10C10.0005 9.8191 10.05 9.64171 10.1434 9.48674C10.2367 9.33177 10.3703 9.20502 10.53 9.12C10.6864 9.03971 10.8611 9.00205 11.0367 9.01083C11.2123 9.01961 11.3824 9.07451 11.53 9.17L14.53 11.17C14.6661 11.2615 14.7777 11.385 14.8548 11.5298C14.9319 11.6745 14.9722 11.836 14.9722 12C14.9722 12.164 14.9319 12.3255 14.8548 12.4702C14.7777 12.615 14.6661 12.7385 14.53 12.83H14.55Z" fill="#141414"/>
</svg>
