<svg width="24" height="24" viewBox="0 0 24 24" fill="none" xmlns="http://www.w3.org/2000/svg">
<path d="M19.6 7.79976L17 9.79976V8.99976C17.0148 8.83008 17.0148 8.65944 17 8.48976L20.49 4.99976C20.5878 4.90193 20.6654 4.78578 20.7184 4.65795C20.7713 4.53012 20.7986 4.39312 20.7986 4.25476C20.7986 4.1164 20.7713 3.9794 20.7184 3.85157C20.6654 3.72374 20.5878 3.6076 20.49 3.50976C20.3922 3.41193 20.276 3.33432 20.1482 3.28137C20.0204 3.22842 19.8834 3.20117 19.745 3.20117C19.6066 3.20117 19.4696 3.22842 19.3418 3.28137C19.214 3.33432 19.0978 3.41193 19 3.50976L3.51 18.9998C3.41217 19.0976 3.33456 19.2137 3.28161 19.3416C3.22866 19.4694 3.20141 19.6064 3.20141 19.7448C3.20141 19.8831 3.22866 20.0201 3.28161 20.148C3.33456 20.2758 3.41217 20.3919 3.51 20.4898C3.70759 20.6873 3.97557 20.7984 4.255 20.7984C4.39336 20.7984 4.53036 20.7711 4.65819 20.7182C4.78602 20.6652 4.90217 20.5876 5 20.4898L7.44 17.9998H14C14.7956 17.9998 15.5587 17.6837 16.1213 17.1211C16.6839 16.5585 17 15.7954 17 14.9998V14.2498L19.6 16.1998C19.8229 16.3669 20.0878 16.4687 20.3653 16.4937C20.6427 16.5187 20.9217 16.466 21.1708 16.3414C21.42 16.2168 21.6295 16.0253 21.776 15.7884C21.9224 15.5514 22 15.2783 22 14.9998V8.99976C22 8.72119 21.9224 8.44813 21.776 8.21116C21.6295 7.9742 21.42 7.7827 21.1708 7.65812C20.9217 7.53354 20.6427 7.48081 20.3653 7.50582C20.0878 7.53084 19.8229 7.63262 19.6 7.79976ZM5 5.99976C4.20435 5.99976 3.44129 6.31583 2.87868 6.87844C2.31607 7.44105 2 8.20411 2 8.99976V14.9998C2.00167 15.7385 2.27584 16.4506 2.77 16.9998L13.77 5.99976H5Z" fill="#141414"/>
</svg>
