<svg width="24" height="24" viewBox="0 0 24 24" fill="none" xmlns="http://www.w3.org/2000/svg">
<path d="M19.6 7.8L17 9.8V9C17 8.20435 16.6839 7.44129 16.1213 6.87868C15.5587 6.31607 14.7956 6 14 6H5C4.20435 6 3.44129 6.31607 2.87868 6.87868C2.31607 7.44129 2 8.20435 2 9V15C2 15.7956 2.31607 16.5587 2.87868 17.1213C3.44129 17.6839 4.20435 18 5 18H14C14.7956 18 15.5587 17.6839 16.1213 17.1213C16.6839 16.5587 17 15.7956 17 15V14.25L19.6 16.2C19.8229 16.3671 20.0878 16.4689 20.3653 16.4939C20.6427 16.519 20.9217 16.4662 21.1708 16.3416C21.42 16.2171 21.6295 16.0256 21.776 15.7886C21.9224 15.5516 22 15.2786 22 15V9C22 8.72143 21.9224 8.44837 21.776 8.2114C21.6295 7.97444 21.42 7.78294 21.1708 7.65836C20.9217 7.53378 20.6427 7.48104 20.3653 7.50606C20.0878 7.53108 19.8229 7.63286 19.6 7.8ZM5 14C4.86839 14.0008 4.73793 13.9755 4.61609 13.9258C4.49426 13.876 4.38344 13.8027 4.29 13.71C4.19627 13.617 4.12188 13.5064 4.07111 13.3846C4.02034 13.2627 3.9942 13.132 3.9942 13C3.9942 12.868 4.02034 12.7373 4.07111 12.6154C4.12188 12.4936 4.19627 12.383 4.29 12.29L6.59 10H6C5.73478 10 5.48043 9.89464 5.29289 9.70711C5.10536 9.51957 5 9.26522 5 9C5 8.73478 5.10536 8.48043 5.29289 8.29289C5.48043 8.10536 5.73478 8 6 8H9C9.19743 8.00099 9.39014 8.06039 9.55386 8.17072C9.71758 8.28105 9.84498 8.43738 9.92 8.62C9.99658 8.80211 10.0175 9.00282 9.98013 9.19681C9.94275 9.3908 9.84876 9.56938 9.71 9.71L5.71 13.71C5.61656 13.8027 5.50574 13.876 5.38391 13.9258C5.26207 13.9755 5.13161 14.0008 5 14ZM12 16H9C8.80257 15.999 8.60986 15.9396 8.44614 15.8293C8.28242 15.7189 8.15502 15.5626 8.08 15.38C8.00342 15.1979 7.9825 14.9972 8.01987 14.8032C8.05725 14.6092 8.15124 14.4306 8.29 14.29L12.29 10.29C12.4783 10.1017 12.7337 9.99591 13 9.99591C13.2663 9.99591 13.5217 10.1017 13.71 10.29C13.8983 10.4783 14.0041 10.7337 14.0041 11C14.0041 11.2663 13.8983 11.5217 13.71 11.71L11.41 14H12C12.2652 14 12.5196 14.1054 12.7071 14.2929C12.8946 14.4804 13 14.7348 13 15C13 15.2652 12.8946 15.5196 12.7071 15.7071C12.5196 15.8946 12.2652 16 12 16Z" fill="#141414"/>
</svg>
