<svg width="24" height="24" viewBox="0 0 24 24" fill="none" xmlns="http://www.w3.org/2000/svg">
<path d="M19.6 7.8L17 9.8V8C17 7.20435 16.6839 6.44129 16.1213 5.87868C15.5587 5.31607 14.7956 5 14 5H5C4.20435 5 3.44129 5.31607 2.87868 5.87868C2.31607 6.44129 2 7.20435 2 8V16C2 16.7956 2.31607 17.5587 2.87868 18.1213C3.44129 18.6839 4.20435 19 5 19H14C14.7956 19 15.5587 18.6839 16.1213 18.1213C16.6839 17.5587 17 16.7956 17 16V14.25L19.6 16.2C19.8229 16.3671 20.0878 16.4689 20.3653 16.4939C20.6427 16.519 20.9217 16.4662 21.1708 16.3416C21.42 16.2171 21.6295 16.0256 21.776 15.7886C21.9224 15.5516 22 15.2786 22 15V9C22 8.72143 21.9224 8.44837 21.776 8.2114C21.6295 7.97444 21.42 7.78294 21.1708 7.65836C20.9217 7.53378 20.6427 7.48104 20.3653 7.50606C20.0878 7.53108 19.8229 7.63286 19.6 7.8ZM11.22 8C11.4859 7.99802 11.7463 8.07518 11.9682 8.22166C12.1901 8.36814 12.3634 8.57731 12.466 8.82257C12.5687 9.06782 12.5961 9.33808 12.5447 9.59894C12.4933 9.8598 12.3655 10.0995 12.1775 10.2875C11.9895 10.4755 11.7498 10.6033 11.4889 10.6547C11.2281 10.7061 10.9578 10.6787 10.7126 10.576C10.4673 10.4734 10.2581 10.3001 10.1117 10.0782C9.96518 9.85631 9.88802 9.59587 9.89 9.33C9.89262 8.97807 10.0336 8.6413 10.2824 8.39244C10.5313 8.14358 10.8681 8.00262 11.22 8ZM7.67 8.89C7.93545 8.89001 8.19492 8.96886 8.41549 9.11654C8.63607 9.26423 8.80781 9.4741 8.90893 9.71954C9.01005 9.96498 9.03599 10.2349 8.98347 10.4951C8.93095 10.7553 8.80233 10.9941 8.61393 11.1811C8.42553 11.3681 8.18583 11.4949 7.92524 11.5455C7.66465 11.596 7.39491 11.5681 7.15024 11.4651C6.90557 11.3621 6.69699 11.1888 6.55095 10.9672C6.40492 10.7455 6.32802 10.4854 6.33 10.22C6.33264 9.86635 6.47498 9.52807 6.726 9.27893C6.97701 9.02979 7.31634 8.88999 7.67 8.89ZM13 15.11H10.33C10.33 15.346 10.2362 15.5724 10.0693 15.7393C9.90242 15.9062 9.67604 16 9.44 16H5.89C5.65396 16 5.42758 15.9062 5.26067 15.7393C5.09377 15.5724 5 15.346 5 15.11C5 14.4019 5.2813 13.7227 5.78202 13.222C6.28275 12.7213 6.96187 12.44 7.67 12.44C8.13758 12.4387 8.59692 12.563 9 12.8C9.3101 12.3146 9.76887 11.9425 10.3078 11.7392C10.8468 11.5359 11.437 11.5124 11.9904 11.6721C12.5439 11.8318 13.0308 12.1663 13.3786 12.6255C13.7263 13.0847 13.9162 13.644 13.92 14.22C13.9201 14.3394 13.8961 14.4577 13.8495 14.5677C13.8029 14.6776 13.7347 14.7771 13.6488 14.8602C13.563 14.9432 13.4613 15.0081 13.3498 15.0511C13.2383 15.094 13.1194 15.114 13 15.11Z" fill="#141414"/>
</svg>
