<svg width="24" height="24" viewBox="0 0 24 24" fill="none" xmlns="http://www.w3.org/2000/svg">
<path d="M20.83 6.17C20.4583 5.79866 20.017 5.50421 19.5314 5.30346C19.0458 5.1027 18.5254 4.99959 18 5H6C4.93913 5 3.92172 5.42143 3.17157 6.17157C2.42143 6.92172 2 7.93914 2 9V15C2 16.0609 2.42143 17.0783 3.17157 17.8284C3.92172 18.5786 4.93913 19 6 19H8.8C9.12866 19.0013 9.45221 18.9187 9.74 18.76C10.0297 18.6057 10.277 18.3825 10.46 18.11L11.17 17.05C11.2615 16.9139 11.385 16.8023 11.5298 16.7252C11.6745 16.6481 11.836 16.6078 12 16.6078C12.164 16.6078 12.3255 16.6481 12.4702 16.7252C12.615 16.8023 12.7385 16.9139 12.83 17.05L13.54 18.11C13.723 18.3825 13.9703 18.6057 14.26 18.76C14.5478 18.9187 14.8713 19.0013 15.2 19H18C19.0609 19 20.0783 18.5786 20.8284 17.8284C21.5786 17.0783 22 16.0609 22 15V9C22.0004 8.47456 21.8973 7.95418 21.6965 7.4686C21.4958 6.98302 21.2013 6.54175 20.83 6.17ZM9.41 13.41C9.03665 13.7856 8.52958 13.9978 8 14C7.60444 14 7.21776 13.8827 6.88886 13.6629C6.55996 13.4432 6.30362 13.1308 6.15224 12.7654C6.00087 12.3999 5.96126 11.9978 6.03843 11.6098C6.1156 11.2219 6.30608 10.8655 6.58579 10.5858C6.86549 10.3061 7.22186 10.1156 7.60982 10.0384C7.99778 9.96126 8.39991 10.0009 8.76537 10.1522C9.13082 10.3036 9.44318 10.56 9.66294 10.8889C9.8827 11.2178 10 11.6044 10 12C9.99777 12.5296 9.78559 13.0367 9.41 13.41ZM17.41 13.41C17.0366 13.7856 16.5296 13.9978 16 14C15.6044 14 15.2178 13.8827 14.8889 13.6629C14.56 13.4432 14.3036 13.1308 14.1522 12.7654C14.0009 12.3999 13.9613 11.9978 14.0384 11.6098C14.1156 11.2219 14.3061 10.8655 14.5858 10.5858C14.8655 10.3061 15.2219 10.1156 15.6098 10.0384C15.9978 9.96126 16.3999 10.0009 16.7654 10.1522C17.1308 10.3036 17.4432 10.56 17.6629 10.8889C17.8827 11.2178 18 11.6044 18 12C17.9978 12.5296 17.7856 13.0367 17.41 13.41Z" fill="#141414"/>
</svg>
