<svg width="24" height="24" viewBox="0 0 24 24" fill="none" xmlns="http://www.w3.org/2000/svg">
<path d="M20 19H4C3.73478 19 3.48043 19.1054 3.29289 19.2929C3.10536 19.4804 3 19.7348 3 20C3 20.2652 3.10536 20.5196 3.29289 20.7071C3.48043 20.8946 3.73478 21 4 21H20C20.2652 21 20.5196 20.8946 20.7071 20.7071C20.8946 20.5196 21 20.2652 21 20C21 19.7348 20.8946 19.4804 20.7071 19.2929C20.5196 19.1054 20.2652 19 20 19ZM20 15H4C3.73478 15 3.48043 15.1054 3.29289 15.2929C3.10536 15.4804 3 15.7348 3 16C3 16.2652 3.10536 16.5196 3.29289 16.7071C3.48043 16.8946 3.73478 17 4 17H20C20.2652 17 20.5196 16.8946 20.7071 16.7071C20.8946 16.5196 21 16.2652 21 16C21 15.7348 20.8946 15.4804 20.7071 15.2929C20.5196 15.1054 20.2652 15 20 15ZM18 3H6C5.20435 3 4.44129 3.31607 3.87868 3.87868C3.31607 4.44129 3 5.20435 3 6V10C3 10.7956 3.31607 11.5587 3.87868 12.1213C4.44129 12.6839 5.20435 13 6 13H18C18.7956 13 19.5587 12.6839 20.1213 12.1213C20.6839 11.5587 21 10.7956 21 10V6C21 5.20435 20.6839 4.44129 20.1213 3.87868C19.5587 3.31607 18.7956 3 18 3Z" fill="#141414"/>
</svg>
