<svg width="24" height="24" viewBox="0 0 24 24" fill="none" xmlns="http://www.w3.org/2000/svg">
<path d="M21.6898 10.7398C20.9106 9.24925 19.7859 7.96687 18.4098 6.99976L14.7098 10.6898C14.9772 11.2496 15.0644 11.8785 14.9595 12.49C14.8546 13.1014 14.5627 13.6653 14.124 14.104C13.6854 14.5427 13.1215 14.8345 12.51 14.9394C11.8986 15.0444 11.2696 14.9571 10.7098 14.6898L20.4898 4.99976C20.5877 4.90193 20.6653 4.78578 20.7182 4.65795C20.7712 4.53012 20.7984 4.39312 20.7984 4.25476C20.7984 4.1164 20.7712 3.9794 20.7182 3.85157C20.6653 3.72374 20.5877 3.6076 20.4898 3.50976C20.392 3.41193 20.2758 3.33432 20.148 3.28137C20.0202 3.22842 19.8832 3.20117 19.7448 3.20117C19.6065 3.20117 19.4695 3.22842 19.3416 3.28137C19.2138 3.33432 19.0977 3.41193 18.9998 3.50976L3.50982 18.9998C3.41199 19.0976 3.33438 19.2137 3.28144 19.3416C3.22849 19.4694 3.20124 19.6064 3.20124 19.7448C3.20124 19.8831 3.22849 20.0201 3.28144 20.148C3.33438 20.2758 3.41199 20.3919 3.50982 20.4898C3.70741 20.6873 3.9754 20.7984 4.25482 20.7984C4.39318 20.7984 4.53019 20.7711 4.65802 20.7182C4.78584 20.6652 4.90199 20.5876 4.99982 20.4898L7.41982 17.9998C8.85886 18.6524 10.4197 18.9932 11.9998 18.9998C13.9852 19.0192 15.9379 18.4945 17.6462 17.4826C19.3544 16.4707 20.7529 15.0102 21.6898 13.2598C21.8915 12.8704 21.9967 12.4383 21.9967 11.9998C21.9967 11.5613 21.8915 11.1292 21.6898 10.7398ZM14.4598 5.28976C13.6534 5.10078 12.8281 5.0035 11.9998 4.99976C10.0145 4.98033 8.0617 5.50503 6.35346 6.51693C4.64522 7.52883 3.24675 8.98927 2.30982 10.7398C2.10818 11.1292 2.00293 11.5613 2.00293 11.9998C2.00293 12.4383 2.10818 12.8704 2.30982 13.2598C2.77865 14.1489 3.37122 14.967 4.06982 15.6898L14.4598 5.28976Z" fill="#141414"/>
</svg>
