<svg width="24" height="24" viewBox="0 0 24 24" fill="none" xmlns="http://www.w3.org/2000/svg">
<path d="M10 14H4C3.46957 14 2.96086 14.2107 2.58579 14.5858C2.21071 14.9609 2 15.4696 2 16V18C2 18.5304 2.21071 19.0391 2.58579 19.4142C2.96086 19.7893 3.46957 20 4 20H10C10.5304 20 11.0391 19.7893 11.4142 19.4142C11.7893 19.0391 12 18.5304 12 18V16C12 15.4696 11.7893 14.9609 11.4142 14.5858C11.0391 14.2107 10.5304 14 10 14ZM19 4H5C4.20435 4 3.44129 4.31607 2.87868 4.87868C2.31607 5.44129 2 6.20435 2 7V12.56C2.60399 12.1964 3.29504 12.003 4 12H10C11.0609 12 12.0783 12.4214 12.8284 13.1716C13.5786 13.9217 14 14.9391 14 16V18C13.997 18.705 13.8036 19.396 13.44 20H19C19.7956 20 20.5587 19.6839 21.1213 19.1213C21.6839 18.5587 22 17.7956 22 17V7C22 6.20435 21.6839 5.44129 21.1213 4.87868C20.5587 4.31607 19.7956 4 19 4ZM20 10C20 10.2652 19.8946 10.5196 19.7071 10.7071C19.5196 10.8946 19.2652 11 19 11C18.7348 11 18.4804 10.8946 18.2929 10.7071C18.1054 10.5196 18 10.2652 18 10V9.41L15.71 11.71C15.617 11.8037 15.5064 11.8781 15.3846 11.9289C15.2627 11.9797 15.132 12.0058 15 12.0058C14.868 12.0058 14.7373 11.9797 14.6154 11.9289C14.4936 11.8781 14.383 11.8037 14.29 11.71C14.1963 11.617 14.1219 11.5064 14.0711 11.3846C14.0203 11.2627 13.9942 11.132 13.9942 11C13.9942 10.868 14.0203 10.7373 14.0711 10.6154C14.1219 10.4936 14.1963 10.383 14.29 10.29L16.59 8H16C15.7348 8 15.4804 7.89464 15.2929 7.70711C15.1054 7.51957 15 7.26522 15 7C15 6.73478 15.1054 6.48043 15.2929 6.29289C15.4804 6.10536 15.7348 6 16 6H19C19.1307 6.00158 19.2598 6.02876 19.38 6.08C19.6243 6.18147 19.8185 6.37565 19.92 6.62C19.9712 6.74022 19.9984 6.86932 20 7V10Z" fill="#141414"/>
</svg>
