<svg width="24" height="24" viewBox="0 0 24 24" fill="none" xmlns="http://www.w3.org/2000/svg">
<path d="M19.7298 8.22L17.1698 3.11C17.0043 2.77679 16.749 2.49637 16.4328 2.30028C16.1166 2.10419 15.7519 2.0002 15.3798 2H8.61985C8.24777 2.0002 7.88311 2.10419 7.56689 2.30028C7.25067 2.49637 6.99543 2.77679 6.82985 3.11L4.26985 8.22C4.0567 8.64734 4.00349 9.13684 4.11985 9.6L6.83985 20.49C6.94895 20.9218 7.19903 21.3047 7.55045 21.5783C7.90187 21.8518 8.33453 22.0002 8.77985 22H15.2198C15.6652 22.0002 16.0978 21.8518 16.4492 21.5783C16.8007 21.3047 17.0507 20.9218 17.1598 20.49L19.8798 9.6C19.9962 9.13684 19.943 8.64734 19.7298 8.22ZM14.4998 10H12.9998V15C12.9998 15.2652 12.8945 15.5196 12.707 15.7071C12.5194 15.8946 12.2651 16 11.9998 16C11.7346 16 11.4803 15.8946 11.2927 15.7071C11.1052 15.5196 10.9998 15.2652 10.9998 15V10H9.49985C9.23463 10 8.98028 9.89464 8.79274 9.70711C8.60521 9.51957 8.49985 9.26522 8.49985 9C8.49985 8.73478 8.60521 8.48043 8.79274 8.29289C8.98028 8.10536 9.23463 8 9.49985 8H10.9998V7C10.9998 6.73478 11.1052 6.48043 11.2927 6.29289C11.4803 6.10536 11.7346 6 11.9998 6C12.2651 6 12.5194 6.10536 12.707 6.29289C12.8945 6.48043 12.9998 6.73478 12.9998 7V8H14.4998C14.7651 8 15.0194 8.10536 15.207 8.29289C15.3945 8.48043 15.4998 8.73478 15.4998 9C15.4998 9.26522 15.3945 9.51957 15.207 9.70711C15.0194 9.89464 14.7651 10 14.4998 10Z" fill="#141414"/>
</svg>
