<svg width="24" height="24" viewBox="0 0 24 24" fill="none" xmlns="http://www.w3.org/2000/svg">
<path d="M6.8799 12.88C6.44395 13.3183 6.15407 13.8806 6.0499 14.49C5.94043 15.0981 6.02801 15.7252 6.2999 16.28L3.2999 19.28C3.15745 19.4203 3.06035 19.6002 3.02113 19.7962C2.98191 19.9923 3.00238 20.1957 3.0799 20.38C3.12818 20.5019 3.20339 20.6113 3.2999 20.7C3.38863 20.7965 3.49802 20.8717 3.6199 20.92C3.74012 20.9712 3.86922 20.9984 3.9999 21C4.1322 20.9995 4.26309 20.9727 4.38496 20.9212C4.50684 20.8697 4.61728 20.7945 4.7099 20.7L7.7099 17.7C8.11012 17.9006 8.55222 18.0034 8.9999 18C9.79528 17.9993 10.5578 17.6828 11.1199 17.12L12.9099 15.33L8.6699 11.09L6.8799 12.88ZM20.8799 5.62C20.8293 5.49882 20.7582 5.3872 20.6699 5.29L18.6699 3.29C18.5727 3.20167 18.4611 3.13064 18.3399 3.08C18.2321 3.03359 18.117 3.00651 17.9999 3C17.7347 3 17.4803 3.10536 17.2928 3.29289C17.1053 3.48043 16.9999 3.73478 16.9999 4C17.0004 4.13231 17.0272 4.26319 17.0787 4.38507C17.1302 4.50694 17.2054 4.61739 17.2999 4.71L17.5999 5L15.9999 6.59L13.7099 4.29C13.5183 4.10727 13.2647 4.00368 12.9999 4C12.7347 4 12.4803 4.10536 12.2928 4.29289C12.1053 4.48043 11.9999 4.73478 11.9999 5C12.0004 5.13231 12.0272 5.26319 12.0787 5.38507C12.1302 5.50694 12.2054 5.61739 12.2999 5.71L13.1799 6.59L10.0899 9.67L14.3299 13.91L17.4099 10.83L18.2899 11.71C18.3786 11.8065 18.488 11.8817 18.6099 11.93C18.7339 11.9791 18.8665 12.0029 18.9999 12C19.1973 11.999 19.39 11.9396 19.5538 11.8293C19.7175 11.7189 19.8449 11.5626 19.9199 11.38C19.9755 11.2612 20.0029 11.1311 19.9999 11C20.0033 10.8688 19.9759 10.7387 19.9199 10.62C19.8693 10.4988 19.7982 10.3872 19.7099 10.29L17.4099 8L18.9999 6.41L19.2899 6.71C19.3786 6.80651 19.488 6.88171 19.6099 6.93C19.7339 6.97911 19.8665 7.00291 19.9999 7C20.1973 6.99901 20.39 6.93961 20.5538 6.82928C20.7175 6.71895 20.8449 6.56262 20.9199 6.38C20.9755 6.2612 21.0029 6.13114 20.9999 6C21.0033 5.86882 20.9759 5.73868 20.9199 5.62H20.8799Z" fill="#141414"/>
</svg>
