<svg width="24" height="24" viewBox="0 0 24 24" fill="none" xmlns="http://www.w3.org/2000/svg">
<path d="M21.91 10.51C21.8822 10.4151 21.8419 10.3243 21.79 10.24C21.7867 10.2168 21.7867 10.1932 21.79 10.17C21.7208 10.071 21.6402 9.98034 21.55 9.9C21.55 9.9 21.55 9.9 21.49 9.85C21.4174 9.79102 21.3405 9.73754 21.26 9.69H21.17C21.0698 9.64767 20.9661 9.6142 20.86 9.59H20.56L20.27 9.64H20.13C19.9786 9.6891 19.8366 9.76348 19.71 9.86L17 11.75V11C17 10.2044 16.6839 9.44129 16.1213 8.87868C15.5587 8.31607 14.7956 8 14 8H5C4.20435 8 3.44129 8.31607 2.87868 8.87868C2.31607 9.44129 2 10.2044 2 11V17C2 17.7956 2.31607 18.5587 2.87868 19.1213C3.44129 19.6839 4.20435 20 5 20H14C14.7956 20 15.5587 19.6839 16.1213 19.1213C16.6839 18.5587 17 17.7956 17 17V16.25L19.6 18.2C19.7266 18.2965 19.8686 18.3709 20.02 18.42H20.16L20.45 18.47C20.5498 18.4798 20.6502 18.4798 20.75 18.47C20.8561 18.4458 20.9598 18.4123 21.06 18.37L21.15 18.32C21.2305 18.2725 21.3074 18.219 21.38 18.16C21.38 18.16 21.43 18.16 21.44 18.16C21.5303 18.0797 21.6108 17.989 21.68 17.89C21.6767 17.8668 21.6767 17.8432 21.68 17.82C21.7319 17.7357 21.7722 17.6449 21.8 17.55V17.45C21.8963 17.315 21.9643 17.1619 22 17V11C22.0011 10.8676 21.9809 10.7359 21.94 10.61L21.91 10.51ZM20.08 4.51L18 6.12V5.5C18.0066 5.17824 17.9498 4.85833 17.8328 4.55854C17.7157 4.25875 17.5408 3.98496 17.3179 3.7528C17.095 3.52064 16.8286 3.33466 16.5338 3.20549C16.2391 3.07633 15.9218 3.0065 15.6 3H8.4C8.07824 3.0065 7.76091 3.07633 7.46615 3.20549C7.17138 3.33466 6.90495 3.52064 6.68208 3.7528C6.45921 3.98496 6.28426 4.25875 6.16722 4.55854C6.05019 4.85833 5.99337 5.17824 6 5.5V6H14C14.8445 5.99956 15.6753 6.21302 16.415 6.62045C17.1546 7.02788 17.7791 7.61602 18.23 8.33L18.4 8.2C18.9089 7.8142 19.5149 7.5772 20.1505 7.51541C20.7861 7.45361 21.4263 7.56944 22 7.85V5.5C22.0076 5.27376 21.9511 5.04997 21.837 4.85448C21.7229 4.65898 21.5558 4.49976 21.355 4.39519C21.1542 4.29062 20.928 4.24497 20.7024 4.26352C20.4768 4.28207 20.261 4.36405 20.08 4.5V4.51Z" fill="#141414"/>
</svg>
