<svg width="24" height="24" viewBox="0 0 24 24" fill="none" xmlns="http://www.w3.org/2000/svg">
<path d="M19 5H5C4.20435 5 3.44129 5.31607 2.87868 5.87868C2.31607 6.44129 2 7.20435 2 8V16C2 16.7956 2.31607 17.5587 2.87868 18.1213C3.44129 18.6839 4.20435 19 5 19H19C19.7956 19 20.5587 18.6839 21.1213 18.1213C21.6839 17.5587 22 16.7956 22 16V8C22 7.20435 21.6839 6.44129 21.1213 5.87868C20.5587 5.31607 19.7956 5 19 5ZM11 11C11 11.4465 10.9004 11.8874 10.7084 12.2905C10.5163 12.6936 10.2367 13.0487 9.89 13.33L11.45 14.11C11.6855 14.2299 11.864 14.4381 11.9465 14.6892C12.0289 14.9403 12.0086 15.2138 11.89 15.45C11.8069 15.6149 11.6798 15.7536 11.5227 15.8507C11.3656 15.9478 11.1847 15.9994 11 16C10.8431 16.0019 10.6883 15.964 10.55 15.89L6.55 13.89C6.3507 13.7879 6.19144 13.6219 6.09772 13.4185C6.004 13.2151 5.98125 12.9862 6.03312 12.7684C6.08499 12.5505 6.20846 12.3564 6.38377 12.2171C6.55908 12.0778 6.77608 12.0013 7 12H8C8.26522 12 8.51957 11.8946 8.70711 11.7071C8.89464 11.5196 9 11.2652 9 11C9 10.7348 8.89464 10.4804 8.70711 10.2929C8.51957 10.1054 8.26522 10 8 10H6C5.73478 10 5.48043 9.89464 5.29289 9.70711C5.10536 9.51957 5 9.26522 5 9C5 8.73478 5.10536 8.48043 5.29289 8.29289C5.48043 8.10536 5.73478 8 6 8H11C11.2652 8 11.5196 8.10536 11.7071 8.29289C11.8946 8.48043 12 8.73478 12 9C12 9.26522 11.8946 9.51957 11.7071 9.70711C11.5196 9.89464 11.2652 10 11 10H10.82C10.9364 10.3207 10.9973 10.6589 11 11ZM17 17C16.8022 17 16.6089 16.9414 16.4444 16.8315C16.28 16.7216 16.1518 16.5654 16.0761 16.3827C16.0004 16.2 15.9806 15.9989 16.0192 15.8049C16.0578 15.6109 16.153 15.4327 16.2929 15.2929C16.4327 15.153 16.6109 15.0578 16.8049 15.0192C16.9989 14.9806 17.2 15.0004 17.3827 15.0761C17.5654 15.1518 17.7216 15.28 17.8315 15.4444C17.9414 15.6089 18 15.8022 18 16C18 16.2652 17.8946 16.5196 17.7071 16.7071C17.5196 16.8946 17.2652 17 17 17ZM17 13C16.8022 13 16.6089 12.9414 16.4444 12.8315C16.28 12.7216 16.1518 12.5654 16.0761 12.3827C16.0004 12.2 15.9806 11.9989 16.0192 11.8049C16.0578 11.6109 16.153 11.4327 16.2929 11.2929C16.4327 11.153 16.6109 11.0578 16.8049 11.0192C16.9989 10.9806 17.2 11.0004 17.3827 11.0761C17.5654 11.1518 17.7216 11.28 17.8315 11.4444C17.9414 11.6089 18 11.8022 18 12C18 12.2652 17.8946 12.5196 17.7071 12.7071C17.5196 12.8946 17.2652 13 17 13ZM17 9C16.8022 9 16.6089 8.94135 16.4444 8.83147C16.28 8.72159 16.1518 8.56541 16.0761 8.38268C16.0004 8.19996 15.9806 7.99889 16.0192 7.80491C16.0578 7.61093 16.153 7.43275 16.2929 7.29289C16.4327 7.15304 16.6109 7.0578 16.8049 7.01921C16.9989 6.98063 17.2 7.00043 17.3827 7.07612C17.5654 7.15181 17.7216 7.27998 17.8315 7.44443C17.9414 7.60888 18 7.80222 18 8C18 8.26522 17.8946 8.51957 17.7071 8.70711C17.5196 8.89464 17.2652 9 17 9Z" fill="#141414"/>
</svg>
