<svg width="24" height="24" viewBox="0 0 24 24" fill="none" xmlns="http://www.w3.org/2000/svg">
<path d="M18.1299 8.05002L8.41985 3.30002C7.71624 2.96739 6.91089 2.9212 6.17387 3.17123C5.43685 3.42126 4.82583 3.94793 4.46985 4.64002L2.29985 9.00002C2.11822 9.34983 2.00904 9.73269 1.97883 10.1257C1.94863 10.5187 1.99802 10.9137 2.12406 11.2872C2.2501 11.6606 2.4502 12.0048 2.71237 12.2991C2.97454 12.5934 3.29339 12.8318 3.64985 13L7.86985 15L6.37985 18H2.99985C2.73464 18 2.48028 18.1054 2.29275 18.2929C2.10521 18.4805 1.99985 18.7348 1.99985 19C1.99985 19.2652 2.10521 19.5196 2.29275 19.7071C2.48028 19.8947 2.73464 20 2.99985 20H6.99985C7.18452 19.9995 7.36543 19.9478 7.52252 19.8507C7.67961 19.7536 7.80675 19.6149 7.88985 19.45L9.66985 15.9L13.3499 17.7C14.0587 18.0481 14.8763 18.1027 15.6251 17.8518C16.374 17.6009 16.9937 17.0649 17.3499 16.36L19.4699 12C19.6439 11.6532 19.7472 11.2752 19.774 10.8881C19.8007 10.501 19.7503 10.1124 19.6256 9.74489C19.501 9.37741 19.3045 9.03835 19.0478 8.7474C18.791 8.45645 18.479 8.21941 18.1299 8.05002ZM21.4499 12.4C21.2146 12.2884 20.945 12.2729 20.6985 12.357C20.452 12.441 20.2479 12.6179 20.1299 12.85L18.3999 16.36C18.2943 16.5931 18.2821 16.8579 18.3658 17.0997C18.4495 17.3415 18.6227 17.5421 18.8499 17.66C19.0829 17.7694 19.3491 17.7847 19.5931 17.7027C19.8371 17.6208 20.0401 17.4479 20.1599 17.22L21.8999 13.71C22.0085 13.4758 22.0223 13.2087 21.9384 12.9645C21.8545 12.7203 21.6795 12.5181 21.4499 12.4Z" fill="#141414"/>
</svg>
