<svg width="24" height="24" viewBox="0 0 24 24" fill="none" xmlns="http://www.w3.org/2000/svg">
<path d="M19 5H5C4.20435 5 3.44129 5.31607 2.87868 5.87868C2.31607 6.44129 2 7.20435 2 8V16C2 16.7956 2.31607 17.5587 2.87868 18.1213C3.44129 18.6839 4.20435 19 5 19H19C19.7956 19 20.5587 18.6839 21.1213 18.1213C21.6839 17.5587 22 16.7956 22 16V8C22 7.20435 21.6839 6.44129 21.1213 5.87868C20.5587 5.31607 19.7956 5 19 5ZM6 16C5.80222 16 5.60888 15.9414 5.44443 15.8315C5.27998 15.7216 5.15181 15.5654 5.07612 15.3827C5.00043 15.2 4.98063 14.9989 5.01921 14.8049C5.0578 14.6109 5.15304 14.4327 5.29289 14.2929C5.43275 14.153 5.61093 14.0578 5.80491 14.0192C5.99889 13.9806 6.19996 14.0004 6.38268 14.0761C6.56541 14.1518 6.72159 14.28 6.83147 14.4444C6.94135 14.6089 7 14.8022 7 15C7 15.2652 6.89464 15.5196 6.70711 15.7071C6.51957 15.8946 6.26522 16 6 16ZM11 15C11 15.2652 10.8946 15.5196 10.7071 15.7071C10.5196 15.8946 10.2652 16 10 16C9.73478 16 9.48043 15.8946 9.29289 15.7071C9.10536 15.5196 9 15.2652 9 15V13C9 12.7348 9.10536 12.4804 9.29289 12.2929C9.48043 12.1054 9.73478 12 10 12C10.2652 12 10.5196 12.1054 10.7071 12.2929C10.8946 12.4804 11 12.7348 11 13V15ZM15 15C15 15.2652 14.8946 15.5196 14.7071 15.7071C14.5196 15.8946 14.2652 16 14 16C13.7348 16 13.4804 15.8946 13.2929 15.7071C13.1054 15.5196 13 15.2652 13 15V11C13 10.7348 13.1054 10.4804 13.2929 10.2929C13.4804 10.1054 13.7348 10 14 10C14.2652 10 14.5196 10.1054 14.7071 10.2929C14.8946 10.4804 15 10.7348 15 11V15ZM19 15C19 15.2652 18.8946 15.5196 18.7071 15.7071C18.5196 15.8946 18.2652 16 18 16C17.7348 16 17.4804 15.8946 17.2929 15.7071C17.1054 15.5196 17 15.2652 17 15V9C17 8.73478 17.1054 8.48043 17.2929 8.29289C17.4804 8.10536 17.7348 8 18 8C18.2652 8 18.5196 8.10536 18.7071 8.29289C18.8946 8.48043 19 8.73478 19 9V15Z" fill="#141414"/>
</svg>
