<svg width="24" height="24" viewBox="0 0 24 24" fill="none" xmlns="http://www.w3.org/2000/svg">
<path d="M10.2899 15.29L7.99994 17.59V17C7.99994 16.7348 7.89458 16.4804 7.70705 16.2929C7.51951 16.1054 7.26516 16 6.99994 16C6.73472 16 6.48037 16.1054 6.29283 16.2929C6.1053 16.4804 5.99994 16.7348 5.99994 17V20C5.99994 20.2652 6.1053 20.5196 6.29283 20.7071C6.48037 20.8946 6.73472 21 6.99994 21H9.99994C10.2652 21 10.5195 20.8946 10.707 20.7071C10.8946 20.5196 10.9999 20.2652 10.9999 20C10.9999 19.7348 10.8946 19.4804 10.707 19.2929C10.5195 19.1054 10.2652 19 9.99994 19H9.40994L11.7099 16.71C11.8982 16.5217 12.004 16.2663 12.004 16C12.004 15.7337 11.8982 15.4783 11.7099 15.29C11.5216 15.1017 11.2662 14.9959 10.9999 14.9959C10.7336 14.9959 10.4782 15.1017 10.2899 15.29ZM7.99994 19V18.93V19ZM19.9999 6C18.4086 6 16.8825 6.63214 15.7573 7.75736C14.6321 8.88258 13.9999 10.4087 13.9999 12C13.9999 13.5913 14.6321 15.1174 15.7573 16.2426C16.8825 17.3679 18.4086 18 19.9999 18C20.2652 18 20.5195 17.8946 20.707 17.7071C20.8946 17.5196 20.9999 17.2652 20.9999 17V7C20.9999 6.73478 20.8946 6.48043 20.707 6.29289C20.5195 6.10536 20.2652 6 19.9999 6ZM10.9999 11H6.40994L6.70994 10.71C6.89824 10.5217 7.00403 10.2663 7.00403 10C7.00403 9.7337 6.89824 9.4783 6.70994 9.29C6.52164 9.1017 6.26624 8.99591 5.99994 8.99591C5.73364 8.99591 5.47824 9.1017 5.28994 9.29L3.28994 11.29C3.19621 11.383 3.12182 11.4936 3.07105 11.6154C3.02028 11.7373 2.99414 11.868 2.99414 12C2.99414 12.132 3.02028 12.2627 3.07105 12.3846C3.12182 12.5064 3.19621 12.617 3.28994 12.71L5.28994 14.71C5.3829 14.8037 5.4935 14.8781 5.61536 14.9289C5.73722 14.9797 5.86793 15.0058 5.99994 15.0058C6.13195 15.0058 6.26266 14.9797 6.38452 14.9289C6.50638 14.8781 6.61698 14.8037 6.70994 14.71C6.80367 14.617 6.87806 14.5064 6.92883 14.3846C6.9796 14.2627 7.00574 14.132 7.00574 14C7.00574 13.868 6.9796 13.7373 6.92883 13.6154C6.87806 13.4936 6.80367 13.383 6.70994 13.29L6.40994 13H10.9999C11.2652 13 11.5195 12.8946 11.707 12.7071C11.8946 12.5196 11.9999 12.2652 11.9999 12C11.9999 11.7348 11.8946 11.4804 11.707 11.2929C11.5195 11.1054 11.2652 11 10.9999 11ZM9.40994 5H9.99994C10.2652 5 10.5195 4.89464 10.707 4.70711C10.8946 4.51957 10.9999 4.26522 10.9999 4C10.9999 3.73478 10.8946 3.48043 10.707 3.29289C10.5195 3.10536 10.2652 3 9.99994 3H6.99994C6.73472 3 6.48037 3.10536 6.29283 3.29289C6.1053 3.48043 5.99994 3.73478 5.99994 4V7C5.99994 7.26522 6.1053 7.51957 6.29283 7.70711C6.48037 7.89464 6.73472 8 6.99994 8C7.26516 8 7.51951 7.89464 7.70705 7.70711C7.89458 7.51957 7.99994 7.26522 7.99994 7V6.41L10.2899 8.71C10.3829 8.80373 10.4935 8.87812 10.6154 8.92889C10.7372 8.97966 10.8679 9.0058 10.9999 9.0058C11.132 9.0058 11.2627 8.97966 11.3845 8.92889C11.5064 8.87812 11.617 8.80373 11.7099 8.71C11.8037 8.61704 11.8781 8.50644 11.9288 8.38458C11.9796 8.26272 12.0057 8.13201 12.0057 8C12.0057 7.86799 11.9796 7.73728 11.9288 7.61542C11.8781 7.49356 11.8037 7.38296 11.7099 7.29L9.40994 5Z" fill="#141414"/>
</svg>
