<svg width="24" height="24" viewBox="0 0 24 24" fill="none" xmlns="http://www.w3.org/2000/svg">
<path d="M21.6898 10.74C20.7529 8.98954 19.3544 7.5291 17.6462 6.5172C15.9379 5.5053 13.9852 4.9806 11.9998 5.00003C10.0145 4.9806 8.0617 5.5053 6.35346 6.5172C4.64522 7.5291 3.24675 8.98954 2.30982 10.74C2.10818 11.1294 2.00293 11.5615 2.00293 12C2.00293 12.4385 2.10818 12.8706 2.30982 13.26C3.24675 15.0105 4.64522 16.471 6.35346 17.4829C8.0617 18.4948 10.0145 19.0195 11.9998 19C13.9852 19.0195 15.9379 18.4948 17.6462 17.4829C19.3544 16.471 20.7529 15.0105 21.6898 13.26C21.8915 12.8706 21.9967 12.4385 21.9967 12C21.9967 11.5615 21.8915 11.1294 21.6898 10.74ZM12.5898 14.94C11.9583 15.067 11.3028 14.9873 10.7201 14.7128C10.1374 14.4382 9.65851 13.9835 9.35431 13.4157C9.0501 12.8479 8.93671 12.1974 9.0309 11.5602C9.12509 10.923 9.42187 10.333 9.87733 9.87754C10.3328 9.42207 10.9228 9.1253 11.5599 9.03111C12.1971 8.93691 12.8477 9.05031 13.4155 9.35451C13.9833 9.65872 14.438 10.1376 14.7125 10.7203C14.9871 11.303 15.0668 11.9585 14.9398 12.59C14.8233 13.1697 14.5381 13.7021 14.12 14.1202C13.7019 14.5383 13.1695 14.8235 12.5898 14.94Z" fill="#141414"/>
</svg>
