<svg width="24" height="24" viewBox="0 0 24 24" fill="none" xmlns="http://www.w3.org/2000/svg">
<path d="M7 20H5C4.73478 20 4.48043 19.8946 4.29289 19.7071C4.10536 19.5196 4 19.2652 4 19V17C4 16.7348 3.89464 16.4804 3.70711 16.2929C3.51957 16.1054 3.26522 16 3 16C2.73478 16 2.48043 16.1054 2.29289 16.2929C2.10536 16.4804 2 16.7348 2 17V19C2 19.7956 2.31607 20.5587 2.87868 21.1213C3.44129 21.6839 4.20435 22 5 22H7C7.26522 22 7.51957 21.8946 7.70711 21.7071C7.89464 21.5196 8 21.2652 8 21C8 20.7348 7.89464 20.4804 7.70711 20.2929C7.51957 20.1054 7.26522 20 7 20ZM12 5C10.6155 5 9.26215 5.41054 8.11101 6.17971C6.95986 6.94888 6.06266 8.04213 5.53284 9.32122C5.00303 10.6003 4.86441 12.0078 5.1345 13.3656C5.4046 14.7235 6.07128 15.9708 7.05025 16.9497C8.02922 17.9287 9.2765 18.5954 10.6344 18.8655C11.9922 19.1356 13.3997 18.997 14.6788 18.4672C15.9579 17.9373 17.0511 17.0401 17.8203 15.889C18.5895 14.7378 19 13.3845 19 12C19 10.1435 18.2625 8.36301 16.9497 7.05025C15.637 5.7375 13.8565 5 12 5ZM14.13 12.69L11.63 14.36C11.4931 14.4495 11.3335 14.498 11.17 14.5C11.0303 14.5013 10.8926 14.4669 10.77 14.4C10.6375 14.3295 10.5266 14.2243 10.4491 14.0958C10.3717 13.9672 10.3305 13.8201 10.33 13.67V10.33C10.3323 10.1797 10.3749 10.0327 10.4534 9.90442C10.5318 9.77616 10.6433 9.67131 10.7761 9.60082C10.9089 9.53033 11.0582 9.49678 11.2084 9.50367C11.3586 9.51056 11.5042 9.55764 11.63 9.64L14.13 11.31C14.2434 11.3858 14.3364 11.4885 14.4007 11.6088C14.4651 11.7292 14.4987 11.8635 14.4987 12C14.4987 12.1365 14.4651 12.2708 14.4007 12.3912C14.3364 12.5115 14.2434 12.6142 14.13 12.69ZM19 2H17C16.7348 2 16.4804 2.10536 16.2929 2.29289C16.1054 2.48043 16 2.73478 16 3C16 3.26522 16.1054 3.51957 16.2929 3.70711C16.4804 3.89464 16.7348 4 17 4H19C19.2652 4 19.5196 4.10536 19.7071 4.29289C19.8946 4.48043 20 4.73478 20 5V7C20 7.26522 20.1054 7.51957 20.2929 7.70711C20.4804 7.89464 20.7348 8 21 8C21.2652 8 21.5196 7.89464 21.7071 7.70711C21.8946 7.51957 22 7.26522 22 7V5C22 4.20435 21.6839 3.44129 21.1213 2.87868C20.5587 2.31607 19.7956 2 19 2Z" fill="#141414"/>
</svg>
