<svg width="24" height="24" viewBox="0 0 24 24" fill="none" xmlns="http://www.w3.org/2000/svg">
<path d="M21 18H20C20 17.7348 19.8946 17.4804 19.7071 17.2929C19.5196 17.1054 19.2652 17 19 17H17C16.7348 17 16.4804 17.1054 16.2929 17.2929C16.1054 17.4804 16 17.7348 16 18H15C14.7348 18 14.4804 18.1054 14.2929 18.2929C14.1054 18.4804 14 18.7348 14 19V20C14 20.2652 14.1054 20.5196 14.2929 20.7071C14.4804 20.8946 14.7348 21 15 21H21C21.2652 21 21.5196 20.8946 21.7071 20.7071C21.8946 20.5196 22 20.2652 22 20V19C22 18.7348 21.8946 18.4804 21.7071 18.2929C21.5196 18.1054 21.2652 18 21 18ZM9 8.1V7C9 6.46957 9.21071 5.96086 9.58579 5.58579C9.96086 5.21071 10.4696 5 11 5H15C15.5304 5 16.0391 5.21071 16.4142 5.58579C16.7893 5.96086 17 6.46957 17 7V16H19V7C19 5.93913 18.5786 4.92172 17.8284 4.17157C17.0783 3.42143 16.0609 3 15 3H11C9.93913 3 8.92172 3.42143 8.17157 4.17157C7.42143 4.92172 7 5.93913 7 7V8.1C5.87064 8.33053 4.8556 8.94418 4.12669 9.8371C3.39778 10.73 2.99976 11.8473 3 13V19C3 19.2652 3.10536 19.5196 3.29289 19.7071C3.48043 19.8946 3.73478 20 4 20C4 20.2652 4.10536 20.5196 4.29289 20.7071C4.48043 20.8946 4.73478 21 5 21C5.26522 21 5.51957 20.8946 5.70711 20.7071C5.89464 20.5196 6 20.2652 6 20H10C10 20.2652 10.1054 20.5196 10.2929 20.7071C10.4804 20.8946 10.7348 21 11 21C11.2652 21 11.5196 20.8946 11.7071 20.7071C11.8946 20.5196 12 20.2652 12 20C12.2652 20 12.5196 19.8946 12.7071 19.7071C12.8946 19.5196 13 19.2652 13 19V13C13.0002 11.8473 12.6022 10.73 11.8733 9.8371C11.1444 8.94418 10.1294 8.33053 9 8.1ZM9.5 17.5H6.5C6.23478 17.5 5.98043 17.3946 5.79289 17.2071C5.60536 17.0196 5.5 16.7652 5.5 16.5C5.5 16.2348 5.60536 15.9804 5.79289 15.7929C5.98043 15.6054 6.23478 15.5 6.5 15.5H9.5C9.76522 15.5 10.0196 15.6054 10.2071 15.7929C10.3946 15.9804 10.5 16.2348 10.5 16.5C10.5 16.7652 10.3946 17.0196 10.2071 17.2071C10.0196 17.3946 9.76522 17.5 9.5 17.5ZM9.5 13.5H6.5C6.23478 13.5 5.98043 13.3946 5.79289 13.2071C5.60536 13.0196 5.5 12.7652 5.5 12.5C5.5 12.2348 5.60536 11.9804 5.79289 11.7929C5.98043 11.6054 6.23478 11.5 6.5 11.5H9.5C9.76522 11.5 10.0196 11.6054 10.2071 11.7929C10.3946 11.9804 10.5 12.2348 10.5 12.5C10.5 12.7652 10.3946 13.0196 10.2071 13.2071C10.0196 13.3946 9.76522 13.5 9.5 13.5Z" fill="#141414"/>
</svg>
