<svg width="24" height="24" viewBox="0 0 24 24" fill="none" xmlns="http://www.w3.org/2000/svg">
<path d="M3 16.3799C3.00071 16.7869 3.12554 17.1839 3.35783 17.518C3.59011 17.8522 3.9188 18.1075 4.3 18.2499L11 20.7599V11.6799L3 8.47992V16.3799ZM13 11.6499V20.7599L19.7 18.2499C20.0812 18.1075 20.4099 17.8522 20.6422 17.518C20.8745 17.1839 20.9993 16.7869 21 16.3799V8.08992L13 11.6499ZM19.7 5.74992L12.7 3.12992C12.2486 2.96125 11.7514 2.96125 11.3 3.12992L4.3 5.74992C3.92484 5.89128 3.60083 6.14213 3.37 6.46992L12 9.91992L20.38 6.18992C20.1857 5.99841 19.9543 5.84867 19.7 5.74992Z" fill="#141414"/>
</svg>
