<svg width="24" height="24" viewBox="0 0 24 24" fill="none" xmlns="http://www.w3.org/2000/svg">
<path d="M20.46 4.68C20.1284 4.29684 19.6638 4.05381 19.16 4C16.9552 3.76898 14.8088 3.14942 12.82 2.17C12.5648 2.04466 12.2843 1.97949 12 1.97949C11.7157 1.97949 11.4352 2.04466 11.18 2.17C9.20579 3.15045 7.07225 3.77019 4.88 4C4.37562 4.04408 3.90514 4.27236 3.55837 4.64127C3.21159 5.01017 3.01282 5.49386 3 6V11C3 17.74 9.75 22 12 22C14.25 22 21 17.75 21 11V6C20.9883 5.50859 20.7961 5.03869 20.46 4.68ZM14.8 12.6L11.8 16.6C11.7069 16.7242 11.5861 16.825 11.4472 16.8944C11.3084 16.9639 11.1552 17 11 17C10.7836 17 10.5731 16.9298 10.4 16.8C10.2949 16.7212 10.2064 16.6225 10.1395 16.5095C10.0726 16.3965 10.0286 16.2714 10.0101 16.1414C9.99148 16.0114 9.99869 15.879 10.0313 15.7518C10.0639 15.6246 10.1212 15.5051 10.2 15.4L12 13H10C9.81429 13 9.63225 12.9483 9.47427 12.8507C9.31629 12.753 9.18863 12.6133 9.10557 12.4472C9.02252 12.2811 8.98736 12.0952 9.00404 11.9102C9.02072 11.7252 9.08857 11.5486 9.2 11.4L12.2 7.4C12.3591 7.18783 12.596 7.04756 12.8586 7.01005C13.1211 6.97254 13.3878 7.04087 13.6 7.2C13.8122 7.35913 13.9524 7.59603 13.9899 7.85858C14.0275 8.12113 13.9591 8.38783 13.8 8.6L12 11H14C14.1857 11 14.3678 11.0517 14.5257 11.1494C14.6837 11.247 14.8114 11.3867 14.8944 11.5528C14.9775 11.7189 15.0126 11.9048 14.996 12.0898C14.9793 12.2748 14.9114 12.4514 14.8 12.6Z" fill="#141414"/>
</svg>
