<svg width="24" height="24" viewBox="0 0 24 24" fill="none" xmlns="http://www.w3.org/2000/svg">
<path d="M19.6 7.8L17 9.8V9C17 8.20435 16.6839 7.44129 16.1213 6.87868C15.5587 6.31607 14.7956 6 14 6H5C4.20435 6 3.44129 6.31607 2.87868 6.87868C2.31607 7.44129 2 8.20435 2 9V15C2 15.7956 2.31607 16.5587 2.87868 17.1213C3.44129 17.6839 4.20435 18 5 18H14C14.7956 18 15.5587 17.6839 16.1213 17.1213C16.6839 16.5587 17 15.7956 17 15V14.25L19.6 16.2C19.8229 16.3671 20.0878 16.4689 20.3653 16.4939C20.6427 16.519 20.9217 16.4662 21.1708 16.3416C21.42 16.2171 21.6295 16.0256 21.776 15.7886C21.9224 15.5516 22 15.2786 22 15V9C22 8.72143 21.9224 8.44837 21.776 8.2114C21.6295 7.97444 21.42 7.78294 21.1708 7.65836C20.9217 7.53378 20.6427 7.48104 20.3653 7.50606C20.0878 7.53108 19.8229 7.63286 19.6 7.8ZM15 12C15 12.2652 14.8946 12.5196 14.7071 12.7071C14.5196 12.8946 14.2652 13 14 13C13.7348 13 13.4804 12.8946 13.2929 12.7071C13.1054 12.5196 13 12.2652 13 12V11.41L10.71 13.71C10.617 13.8037 10.5064 13.8781 10.3846 13.9289C10.2627 13.9797 10.132 14.0058 10 14.0058C9.86799 14.0058 9.73728 13.9797 9.61542 13.9289C9.49356 13.8781 9.38296 13.8037 9.29 13.71C9.19627 13.617 9.12188 13.5064 9.07111 13.3846C9.02034 13.2627 8.9942 13.132 8.9942 13C8.9942 12.868 9.02034 12.7373 9.07111 12.6154C9.12188 12.4936 9.19627 12.383 9.29 12.29L11.59 10H11C10.7348 10 10.4804 9.89464 10.2929 9.70711C10.1054 9.51957 10 9.26522 10 9C10 8.73478 10.1054 8.48043 10.2929 8.29289C10.4804 8.10536 10.7348 8 11 8H14C14.1307 8.00158 14.2598 8.02876 14.38 8.08C14.6243 8.18147 14.8185 8.37565 14.92 8.62C14.9712 8.74022 14.9984 8.86932 15 9V12Z" fill="#141414"/>
</svg>
