<svg width="24" height="24" viewBox="0 0 24 24" fill="none" xmlns="http://www.w3.org/2000/svg">
<path d="M19.6 7.8L17 9.8V9C17 8.20435 16.6839 7.44129 16.1213 6.87868C15.5587 6.31607 14.7956 6 14 6H5C4.20435 6 3.44129 6.31607 2.87868 6.87868C2.31607 7.44129 2 8.20435 2 9V15C2 15.7956 2.31607 16.5587 2.87868 17.1213C3.44129 17.6839 4.20435 18 5 18H14C14.7956 18 15.5587 17.6839 16.1213 17.1213C16.6839 16.5587 17 15.7956 17 15V14.25L19.6 16.2C19.8229 16.3671 20.0878 16.4689 20.3653 16.4939C20.6427 16.519 20.9217 16.4662 21.1708 16.3416C21.42 16.2171 21.6295 16.0256 21.776 15.7886C21.9224 15.5516 22 15.2786 22 15V9C22 8.72143 21.9224 8.44837 21.776 8.2114C21.6295 7.97444 21.42 7.78294 21.1708 7.65836C20.9217 7.53378 20.6427 7.48104 20.3653 7.50606C20.0878 7.53108 19.8229 7.63286 19.6 7.8ZM9.71 11.71L7.41 14H8C8.26522 14 8.51957 14.1054 8.70711 14.2929C8.89464 14.4804 9 14.7348 9 15C9 15.2652 8.89464 15.5196 8.70711 15.7071C8.51957 15.8946 8.26522 16 8 16H5C4.86932 15.9984 4.74022 15.9712 4.62 15.92C4.37565 15.8185 4.18147 15.6243 4.08 15.38C4.02876 15.2598 4.00158 15.1307 4 15V12C4 11.7348 4.10536 11.4804 4.29289 11.2929C4.48043 11.1054 4.73478 11 5 11C5.26522 11 5.51957 11.1054 5.70711 11.2929C5.89464 11.4804 6 11.7348 6 12V12.59L8.29 10.29C8.4783 10.1017 8.7337 9.99591 9 9.99591C9.2663 9.99591 9.5217 10.1017 9.71 10.29C9.8983 10.4783 10.0041 10.7337 10.0041 11C10.0041 11.2663 9.8983 11.5217 9.71 11.71Z" fill="#141414"/>
</svg>
