<svg width="24" height="24" viewBox="0 0 24 24" fill="none" xmlns="http://www.w3.org/2000/svg">
<path d="M19.6 7.8L17 9.8V9C17 8.20435 16.6839 7.44129 16.1213 6.87868C15.5587 6.31607 14.7956 6 14 6H5C4.20435 6 3.44129 6.31607 2.87868 6.87868C2.31607 7.44129 2 8.20435 2 9V15C2 15.7956 2.31607 16.5587 2.87868 17.1213C3.44129 17.6839 4.20435 18 5 18H14C14.7956 18 15.5587 17.6839 16.1213 17.1213C16.6839 16.5587 17 15.7956 17 15V14.25L19.6 16.2C19.8229 16.3671 20.0878 16.4689 20.3653 16.4939C20.6427 16.519 20.9217 16.4662 21.1708 16.3416C21.42 16.2171 21.6295 16.0256 21.776 15.7886C21.9224 15.5516 22 15.2786 22 15V9C22 8.72143 21.9224 8.44837 21.776 8.2114C21.6295 7.97444 21.42 7.78294 21.1708 7.65836C20.9217 7.53378 20.6427 7.48104 20.3653 7.50606C20.0878 7.53108 19.8229 7.63286 19.6 7.8Z" fill="#141414"/>
</svg>
