<svg width="24" height="24" viewBox="0 0 24 24" fill="none" xmlns="http://www.w3.org/2000/svg">
<path d="M16.44 13.6199C16.22 13.5099 15.09 12.9599 14.88 12.8799C14.67 12.7999 14.52 12.7699 14.37 12.9999C14.22 13.2299 13.78 13.7399 13.64 13.8899C13.5 14.0399 13.38 14.0599 13.15 13.8899C12.4752 13.6284 11.8522 13.2492 11.31 12.7699C10.801 12.3304 10.3596 11.8182 10 11.2499C9.86 11.0199 10 10.8999 10.1 10.7799C10.2 10.6599 10.33 10.5199 10.44 10.3899C10.5331 10.2739 10.6105 10.1462 10.67 10.0099C10.7051 9.94906 10.7236 9.88008 10.7236 9.80986C10.7236 9.73965 10.7051 9.67067 10.67 9.60986C10.61 9.49986 10.16 8.37986 9.96 7.92986C9.76 7.47986 9.58 7.54986 9.45 7.54986L9 7.52986C8.88485 7.53382 8.77163 7.5606 8.66691 7.60867C8.5622 7.65674 8.46807 7.72512 8.39 7.80986C8.13175 8.05343 7.92719 8.34824 7.78943 8.67542C7.65168 9.00259 7.58375 9.35492 7.59 9.70986C7.66423 10.5659 7.99144 11.3804 8.53 12.0499C9.47915 13.5393 10.8316 14.7287 12.43 15.4799C14.76 16.3899 14.76 16.0799 15.18 16.0399C15.5011 15.9896 15.8075 15.8707 16.0785 15.6912C16.3494 15.5117 16.5785 15.2759 16.75 14.9999C16.9006 14.661 16.9459 14.2848 16.88 13.9199C16.83 13.7899 16.67 13.7399 16.44 13.6199ZM12.17 2.49986C10.9497 2.4946 9.74025 2.73009 8.61103 3.19284C7.48181 3.6556 6.45496 4.33654 5.58925 5.19667C4.72355 6.0568 4.03599 7.07924 3.56595 8.20545C3.09591 9.33165 2.85262 10.5395 2.85 11.7599C2.84492 13.4421 3.30522 15.093 4.18 16.5299L2.5 21.5299L7.66 19.8899C9.04697 20.6309 10.5975 21.0125 12.17 20.9999C13.411 21.0407 14.6475 20.8315 15.806 20.3847C16.9645 19.938 18.0213 19.2628 18.9136 18.3994C19.8059 17.5359 20.5154 16.5019 21 15.3587C21.4846 14.2155 21.7343 12.9865 21.7343 11.7449C21.7343 10.5032 21.4846 9.27424 21 8.13105C20.5154 6.98785 19.8059 5.95379 18.9136 5.09035C18.0213 4.22692 16.9645 3.55175 15.806 3.105C14.6475 2.65826 13.411 2.44907 12.17 2.48986V2.49986ZM12.17 19.4999C10.6383 19.499 9.14029 19.0506 7.86 18.2099L4.86 19.2099L5.86 16.3199C4.88749 14.9982 4.36202 13.4008 4.36 11.7599C4.34811 10.2068 4.7978 8.68512 5.65201 7.38797C6.50622 6.09082 7.72647 5.07661 9.15795 4.47401C10.5894 3.87141 12.1677 3.70756 13.6924 4.00326C15.2171 4.29896 16.6197 5.04088 17.7222 6.13489C18.8246 7.22891 19.5773 8.62573 19.8847 10.1482C20.1921 11.6706 20.0404 13.25 19.4488 14.6861C18.8572 16.1222 17.8524 17.3502 16.5618 18.2143C15.2713 19.0785 13.7532 19.5398 12.2 19.5399L12.17 19.4999Z" fill="#141414"/>
</svg>
