<svg width="24" height="24" viewBox="0 0 24 24" fill="none" xmlns="http://www.w3.org/2000/svg">
<path d="M18.67 4.56016C16.8362 2.91847 14.4613 2.01074 12 2.01074C9.53869 2.01074 7.16383 2.91847 5.33001 4.56016C5.13242 4.73786 5.01352 4.98677 4.99945 5.25213C4.98539 5.5175 5.07731 5.77758 5.25501 5.97516C5.4327 6.17275 5.68161 6.29166 5.94698 6.30572C6.21234 6.31979 6.47242 6.22786 6.67001 6.05017C8.13632 4.74013 10.0337 4.01599 12 4.01599C13.9663 4.01599 15.8637 4.74013 17.33 6.05017C17.5149 6.21323 17.7535 6.30227 18 6.30017C18.1373 6.30367 18.2739 6.27885 18.4013 6.22723C18.5286 6.17562 18.6439 6.09832 18.74 6.00016C18.8324 5.90226 18.9041 5.7867 18.9507 5.66041C18.9974 5.53413 19.0181 5.39973 19.0116 5.26526C19.005 5.1308 18.9714 4.99903 18.9127 4.87787C18.854 4.75671 18.7715 4.64865 18.67 4.56016ZM12.67 10.3802C12.5869 10.2625 12.4768 10.1666 12.3489 10.1004C12.221 10.0341 12.079 9.99956 11.935 9.99956C11.791 9.99956 11.6491 10.0341 11.5212 10.1004C11.3933 10.1666 11.2831 10.2625 11.2 10.3802L8.47001 14.9202C7.96014 15.7578 7.69031 16.7195 7.69001 17.7002C7.66194 18.2816 7.75224 18.8627 7.95542 19.4083C8.1586 19.9538 8.47043 20.4524 8.87202 20.8738C9.27361 21.2953 9.75659 21.6308 10.2917 21.86C10.8268 22.0893 11.4029 22.2075 11.985 22.2075C12.5671 22.2075 13.1432 22.0893 13.6783 21.86C14.2134 21.6308 14.6964 21.2953 15.098 20.8738C15.4996 20.4524 15.8114 19.9538 16.0146 19.4083C16.2178 18.8627 16.3081 18.2816 16.28 17.7002C16.2809 16.718 16.0073 15.7551 15.49 14.9202L12.67 10.3802ZM9.61001 8.82016C10.3006 8.30559 11.1388 8.02764 12 8.02764C12.8612 8.02764 13.6994 8.30559 14.39 8.82016C14.6009 8.98195 14.8673 9.05334 15.1308 9.01865C15.3943 8.98396 15.6332 8.84601 15.795 8.63517C15.9568 8.42432 16.0282 8.15784 15.9935 7.89435C15.9588 7.63086 15.8209 7.39195 15.61 7.23017C14.5696 6.44649 13.3025 6.02265 12 6.02265C10.6975 6.02265 9.43038 6.44649 8.39001 7.23017C8.28561 7.31027 8.19801 7.41016 8.13221 7.52412C8.06641 7.63808 8.0237 7.76388 8.00652 7.89435C7.98934 8.02482 7.99803 8.15739 8.03209 8.2845C8.06614 8.41161 8.1249 8.53076 8.20501 8.63517C8.36679 8.84601 8.60571 8.98396 8.86919 9.01865C8.99966 9.03583 9.13223 9.02714 9.25934 8.99309C9.38645 8.95903 9.50561 8.90027 9.61001 8.82016Z" fill="#141414"/>
</svg>
