<svg width="24" height="24" viewBox="0 0 24 24" fill="none" xmlns="http://www.w3.org/2000/svg">
<path d="M17 2H7C6.20435 2 5.44129 2.31607 4.87868 2.87868C4.31607 3.44129 4 4.20435 4 5V19C4 19.7956 4.31607 20.5587 4.87868 21.1213C5.44129 21.6839 6.20435 22 7 22H17C17.7956 22 18.5587 21.6839 19.1213 21.1213C19.6839 20.5587 20 19.7956 20 19V5C20 4.20435 19.6839 3.44129 19.1213 2.87868C18.5587 2.31607 17.7956 2 17 2ZM7 4H9C9.26522 4 9.51957 4.10536 9.70711 4.29289C9.89464 4.48043 10 4.73478 10 5C10 5.26522 9.89464 5.51957 9.70711 5.70711C9.51957 5.89464 9.26522 6 9 6H7C6.73478 6 6.48043 5.89464 6.29289 5.70711C6.10536 5.51957 6 5.26522 6 5C6 4.73478 6.10536 4.48043 6.29289 4.29289C6.48043 4.10536 6.73478 4 7 4ZM12 20C10.8133 20 9.65327 19.6481 8.66658 18.9888C7.67988 18.3295 6.91085 17.3925 6.45672 16.2961C6.0026 15.1997 5.88378 13.9933 6.11529 12.8295C6.3468 11.6656 6.91824 10.5965 7.75736 9.75736C8.59647 8.91824 9.66557 8.3468 10.8295 8.11529C11.9933 7.88378 13.1997 8.0026 14.2961 8.45672C15.3925 8.91085 16.3295 9.67988 16.9888 10.6666C17.6481 11.6533 18 12.8133 18 14C18 15.5913 17.3679 17.1174 16.2426 18.2426C15.1174 19.3679 13.5913 20 12 20ZM17 6C16.8022 6 16.6089 5.94135 16.4444 5.83147C16.28 5.72159 16.1518 5.56541 16.0761 5.38268C16.0004 5.19996 15.9806 4.99889 16.0192 4.80491C16.0578 4.61093 16.153 4.43275 16.2929 4.29289C16.4327 4.15304 16.6109 4.0578 16.8049 4.01921C16.9989 3.98063 17.2 4.00043 17.3827 4.07612C17.5654 4.15181 17.7216 4.27998 17.8315 4.44443C17.9414 4.60888 18 4.80222 18 5C18 5.26522 17.8946 5.51957 17.7071 5.70711C17.5196 5.89464 17.2652 6 17 6ZM12 10C10.9391 10 9.92172 10.4214 9.17157 11.1716C8.42143 11.9217 8 12.9391 8 14C8.23788 13.9976 8.4735 14.0464 8.69089 14.143C8.90829 14.2396 9.10237 14.3818 9.26 14.56C9.35373 14.6631 9.46797 14.7455 9.59541 14.8019C9.72284 14.8583 9.86065 14.8874 10 14.8874C10.1393 14.8874 10.2772 14.8583 10.4046 14.8019C10.532 14.7455 10.6463 14.6631 10.74 14.56C10.8972 14.3813 11.0912 14.2387 11.3087 14.1421C11.5262 14.0454 11.762 13.9969 12 14C12.2375 14.0002 12.4723 14.0501 12.6893 14.1465C12.9063 14.243 13.1007 14.3838 13.26 14.56C13.3537 14.6631 13.468 14.7455 13.5954 14.8019C13.7228 14.8583 13.8607 14.8874 14 14.8874C14.1393 14.8874 14.2772 14.8583 14.4046 14.8019C14.532 14.7455 14.6463 14.6631 14.74 14.56C14.8993 14.3838 15.0937 14.243 15.3107 14.1465C15.5277 14.0501 15.7625 14.0002 16 14C16 12.9391 15.5786 11.9217 14.8284 11.1716C14.0783 10.4214 13.0609 10 12 10Z" fill="#141414"/>
</svg>
