<svg width="24" height="24" viewBox="0 0 24 24" fill="none" xmlns="http://www.w3.org/2000/svg">
<path d="M9 2.99989H5C4.46957 2.99989 3.96086 3.2106 3.58579 3.58567C3.21071 3.96075 3 4.46945 3 4.99989V8.99989C3 9.53032 3.21071 10.039 3.58579 10.4141C3.96086 10.7892 4.46957 10.9999 5 10.9999H9C9.53043 10.9999 10.0391 10.7892 10.4142 10.4141C10.7893 10.039 11 9.53032 11 8.99989V4.99989C11 4.46945 10.7893 3.96075 10.4142 3.58567C10.0391 3.2106 9.53043 2.99989 9 2.99989ZM9 12.9999H5C4.46957 12.9999 3.96086 13.2106 3.58579 13.5857C3.21071 13.9607 3 14.4695 3 14.9999V18.9999C3 19.5303 3.21071 20.039 3.58579 20.4141C3.96086 20.7892 4.46957 20.9999 5 20.9999H9C9.53043 20.9999 10.0391 20.7892 10.4142 20.4141C10.7893 20.039 11 19.5303 11 18.9999V14.9999C11 14.4695 10.7893 13.9607 10.4142 13.5857C10.0391 13.2106 9.53043 12.9999 9 12.9999ZM21.16 5.58989L18.41 2.83989C18.0353 2.46738 17.5284 2.2583 17 2.2583C16.4716 2.2583 15.9647 2.46738 15.59 2.83989L12.84 5.58989C12.4675 5.96461 12.2584 6.47152 12.2584 6.99989C12.2584 7.52826 12.4675 8.03516 12.84 8.40989L15.59 11.1599C15.9647 11.5324 16.4716 11.7415 17 11.7415C17.5284 11.7415 18.0353 11.5324 18.41 11.1599L21.16 8.40989C21.5325 8.03516 21.7416 7.52826 21.7416 6.99989C21.7416 6.47152 21.5325 5.96461 21.16 5.58989ZM19 12.9999H15C14.4696 12.9999 13.9609 13.2106 13.5858 13.5857C13.2107 13.9607 13 14.4695 13 14.9999V18.9999C13 19.5303 13.2107 20.039 13.5858 20.4141C13.9609 20.7892 14.4696 20.9999 15 20.9999H19C19.5304 20.9999 20.0391 20.7892 20.4142 20.4141C20.7893 20.039 21 19.5303 21 18.9999V14.9999C21 14.4695 20.7893 13.9607 20.4142 13.5857C20.0391 13.2106 19.5304 12.9999 19 12.9999Z" fill="#141414"/>
</svg>
