<svg width="24" height="24" viewBox="0 0 24 24" fill="none" xmlns="http://www.w3.org/2000/svg">
<path d="M15 15C15.1978 15 15.3911 14.9414 15.5556 14.8315C15.72 14.7216 15.8482 14.5654 15.9239 14.3827C15.9996 14.2 16.0194 13.9989 15.9808 13.8049C15.9422 13.6109 15.847 13.4327 15.7071 13.2929C15.5673 13.153 15.3891 13.0578 15.1951 13.0192C15.0011 12.9806 14.8 13.0004 14.6173 13.0761C14.4346 13.1518 14.2784 13.28 14.1685 13.4444C14.0586 13.6089 14 13.8022 14 14C14 14.2652 14.1054 14.5196 14.2929 14.7071C14.4804 14.8946 14.7348 15 15 15ZM20.16 13C20.0299 12.9786 19.8969 12.9831 19.7686 13.0133C19.6403 13.0435 19.5193 13.0987 19.4124 13.1759C19.3055 13.253 19.215 13.3505 19.1459 13.4628C19.0768 13.575 19.0307 13.6998 19.01 13.83L18.29 18.15C18.2517 18.3866 18.1296 18.6016 17.9461 18.7558C17.7625 18.91 17.5297 18.9931 17.29 18.99H14.69C14.4503 18.9931 14.2175 18.91 14.0339 18.7558C13.8504 18.6016 13.7283 18.3866 13.69 18.15L13 13.84C12.9576 13.5748 12.8115 13.3373 12.594 13.1798C12.3764 13.0222 12.1052 12.9576 11.84 13C11.5748 13.0424 11.3373 13.1885 11.1798 13.406C11.0222 13.6236 10.9576 13.8948 11 14.16L11.73 18.49C11.8461 19.1912 12.2074 19.8284 12.7495 20.2881C13.2916 20.7478 13.9792 21.0001 14.69 21H17.31C18.0276 21.0096 18.7249 20.7617 19.2753 20.3012C19.8257 19.8406 20.1928 19.198 20.31 18.49L21 14.16C21.0228 14.0285 21.019 13.8937 20.9889 13.7637C20.9587 13.6337 20.9029 13.511 20.8246 13.4029C20.7463 13.2948 20.6472 13.2034 20.533 13.1342C20.4189 13.065 20.2921 13.0194 20.16 13ZM17 17C17.1978 17 17.3911 16.9414 17.5556 16.8315C17.72 16.7216 17.8482 16.5654 17.9239 16.3827C17.9996 16.2 18.0194 15.9989 17.9808 15.8049C17.9422 15.6109 17.847 15.4327 17.7071 15.2929C17.5673 15.153 17.3891 15.0578 17.1951 15.0192C17.0011 14.9806 16.8 15.0004 16.6173 15.0761C16.4346 15.1518 16.2784 15.28 16.1685 15.4444C16.0586 15.6089 16 15.8022 16 16C16 16.2652 16.1054 16.5196 16.2929 16.7071C16.4804 16.8946 16.7348 17 17 17ZM17 13C17.1978 13 17.3911 12.9414 17.5556 12.8315C17.72 12.7216 17.8482 12.5654 17.9239 12.3827C17.9996 12.2 18.0194 11.9989 17.9808 11.8049C17.9422 11.6109 17.847 11.4327 17.7071 11.2929C17.5673 11.153 17.3891 11.0578 17.1951 11.0192C17.0011 10.9806 16.8 11.0004 16.6173 11.0761C16.4346 11.1518 16.2784 11.28 16.1685 11.4444C16.0586 11.6089 16 11.8022 16 12C16 12.2652 16.1054 12.5196 16.2929 12.7071C16.4804 12.8946 16.7348 13 17 13ZM18 3H4C3.73478 3 3.48043 3.10536 3.29289 3.29289C3.10536 3.48043 3 3.73478 3 4V7C3 7.26522 3.10536 7.51957 3.29289 7.70711C3.48043 7.89464 3.73478 8 4 8H13C13 8.53043 13.2107 9.03914 13.5858 9.41421C13.9609 9.78929 14.4696 10 15 10H17C17.5304 10 18.0391 9.78929 18.4142 9.41421C18.7893 9.03914 19 8.53043 19 8H20C20.2652 8 20.5196 7.89464 20.7071 7.70711C20.8946 7.51957 21 7.26522 21 7V6C21 5.20435 20.6839 4.44129 20.1213 3.87868C19.5587 3.31607 18.7956 3 18 3Z" fill="#141414"/>
</svg>
