<svg width="24" height="24" viewBox="0 0 24 24" fill="none" xmlns="http://www.w3.org/2000/svg">
<path d="M3.49988 10C3.79512 10.0002 4.08385 9.91322 4.32988 9.75001C4.57839 9.58228 4.77291 9.34607 4.88988 9.07001C5.01098 8.80059 5.04927 8.50125 4.99988 8.21002C4.94695 7.90844 4.8024 7.6305 4.5859 7.41399C4.3694 7.19749 4.09145 7.05294 3.78988 7.00002C3.5016 6.94119 3.20236 6.96902 2.92988 7.08001C2.65382 7.19699 2.41762 7.39151 2.24988 7.64001C2.09151 7.86628 1.99868 8.13187 1.98162 8.40753C1.96457 8.68318 2.02395 8.95819 2.15322 9.20225C2.28248 9.44631 2.47663 9.64995 2.71424 9.79071C2.95186 9.93147 3.22373 10.0039 3.49988 10ZM15.8099 10L20.6199 11.93C20.7417 11.9744 20.8702 11.9981 20.9999 12C21.2335 12.0005 21.46 11.9191 21.6399 11.77C21.8222 11.6274 21.9495 11.426 21.9999 11.2C22.0455 10.9718 22.0101 10.7349 21.8999 10.53C21.7877 10.325 21.6072 10.1658 21.3899 10.08L16.3899 8.08001C16.2666 8.02748 16.1339 8.00027 15.9999 8.00002H14.2399L16.1599 7.00002L20.8299 8.00002C20.9582 8.02988 21.0916 8.02988 21.2199 8.00002C21.3493 7.97108 21.4717 7.91669 21.5799 7.84002C21.6873 7.76118 21.7789 7.66279 21.8499 7.55002C21.9255 7.43502 21.9766 7.30565 21.9999 7.17002C22.0255 7.04128 22.0255 6.90876 21.9999 6.78002C21.9738 6.64967 21.9191 6.52673 21.8399 6.42002C21.761 6.31259 21.6627 6.22099 21.5499 6.15002C21.4289 6.07179 21.2925 6.02062 21.1499 6.00002L16.1499 5.00001C15.9411 4.96809 15.7276 5.0031 15.5399 5.10001L11.7099 7.00002L12.2099 10H15.8099ZM6.49988 14C6.20464 13.9998 5.91592 14.0868 5.66988 14.25C5.42138 14.4178 5.22685 14.654 5.10988 14.93C4.99889 15.2025 4.97105 15.5017 5.02988 15.79C5.08088 16.0875 5.22101 16.3624 5.43172 16.5785C5.64243 16.7946 5.91379 16.9416 6.20988 17C6.49816 17.0588 6.7974 17.031 7.06988 16.92C7.34594 16.803 7.58214 16.6085 7.74988 16.36C7.90825 16.1338 8.00108 15.8682 8.01814 15.5925C8.03519 15.3168 7.97582 15.0418 7.84655 14.7978C7.71728 14.5537 7.52314 14.3501 7.28552 14.2093C7.0479 14.0686 6.77603 13.9961 6.49988 14ZM6.10988 9.84001L3.56988 11.12C3.45153 11.1751 3.34595 11.2542 3.25986 11.3524C3.17378 11.4505 3.10907 11.5655 3.06988 11.69L2.06988 14.69C2.0216 14.8212 1.99787 14.9602 1.99988 15.1C2.00557 15.2352 2.03864 15.3678 2.09708 15.4899C2.15552 15.6119 2.23812 15.7208 2.33988 15.81C2.4458 15.8994 2.56806 15.9673 2.69988 16.01C2.79969 16.0243 2.90124 16.0209 2.99988 16C3.21626 16.0109 3.43033 15.9513 3.60988 15.83C3.7924 15.7075 3.92947 15.5283 3.99988 15.32L4.85988 12.72L6.47988 11.91L6.10988 9.84001ZM19.8799 15.55C19.7757 15.3284 19.5891 15.1562 19.3599 15.07L14.3599 13.07C14.1626 12.9998 13.9472 12.9998 13.7499 13.07L10.8099 13.81L9.99988 8.81002C9.97832 8.67859 9.93072 8.55279 9.85988 8.44001C9.78891 8.32724 9.69731 8.22885 9.58988 8.15001C9.4839 8.07806 9.36508 8.02714 9.23988 8.00002C9.11114 7.97442 8.97862 7.97442 8.84988 8.00002C8.71846 8.02158 8.59266 8.06918 8.47988 8.14002C8.3671 8.21099 8.26872 8.30259 8.18988 8.41001C8.10253 8.51572 8.03786 8.63826 7.99988 8.77002C7.97497 8.90219 7.97497 9.03784 7.99988 9.17001L8.99988 15.17C9.01965 15.3097 9.07094 15.4431 9.14988 15.56C9.22547 15.6757 9.32422 15.7744 9.43988 15.85C9.55227 15.9305 9.6828 15.982 9.81988 16C9.95508 16.0283 10.0947 16.0283 10.2299 16L13.4399 15.19L14.8799 18L14.1099 19.55C13.9903 19.7855 13.9687 20.0587 14.0499 20.31C14.091 20.4348 14.1564 20.5503 14.2422 20.6498C14.328 20.7493 14.4325 20.8309 14.5499 20.89C14.6892 20.9614 14.8433 20.9991 14.9999 21C15.1837 20.9988 15.3636 20.9469 15.5199 20.85C15.6779 20.7535 15.806 20.615 15.8899 20.45L16.8899 18.45C16.9613 18.3107 16.9989 18.1566 16.9999 18C17.002 17.8443 16.9678 17.6902 16.8999 17.55L16.0799 15.91L18.2799 16.79L20.1099 20.45C20.1938 20.615 20.3219 20.7535 20.4799 20.85C20.6345 20.9505 20.8155 21.0027 20.9999 21C21.209 20.9978 21.4122 20.93 21.5809 20.8062C21.7495 20.6824 21.875 20.5089 21.9399 20.31C22.0241 20.06 22.0061 19.7868 21.8899 19.55L19.8799 15.55Z" fill="#141414"/>
</svg>
