<svg width="24" height="24" viewBox="0 0 24 24" fill="none" xmlns="http://www.w3.org/2000/svg">
<path d="M19 17H17.56L19.76 14.4C19.8994 14.2365 19.9824 14.0325 19.9968 13.8182C20.0112 13.6039 19.9562 13.3906 19.84 13.21L13 2.69995V10.28C13.3813 10.5001 13.6793 10.8399 13.8478 11.2466C14.0162 11.6534 14.0458 12.1044 13.9319 12.5296C13.8179 12.9549 13.5668 13.3307 13.2175 13.5987C12.8682 13.8667 12.4403 14.012 12 14.012C11.5597 14.012 11.1318 13.8667 10.7825 13.5987C10.4332 13.3307 10.1821 12.9549 10.0681 12.5296C9.9542 12.1044 9.98376 11.6534 10.1522 11.2466C10.3207 10.8399 10.6187 10.5001 11 10.28V2.69995L4.16 13.21C4.04375 13.3906 3.98877 13.6039 4.00317 13.8182C4.01758 14.0325 4.10062 14.2365 4.24 14.4L6.44 17H5C4.73478 17 4.48043 17.1053 4.29289 17.2928C4.10536 17.4804 4 17.7347 4 18V21C4 21.2652 4.10536 21.5195 4.29289 21.7071C4.48043 21.8946 4.73478 22 5 22H19C19.2652 22 19.5196 21.8946 19.7071 21.7071C19.8946 21.5195 20 21.2652 20 21V18C20 17.7347 19.8946 17.4804 19.7071 17.2928C19.5196 17.1053 19.2652 17 19 17Z" fill="#141414"/>
</svg>
