<svg width="24" height="24" viewBox="0 0 24 24" fill="none" xmlns="http://www.w3.org/2000/svg">
<path d="M20.29 11.9999C20.084 11.9389 19.8639 11.9458 19.6621 12.0197C19.4604 12.0935 19.2879 12.2304 19.17 12.4099L17.84 14.4099L15.62 13.4099L17.5 11.2599C17.8339 10.8783 18.0103 10.384 17.9936 9.87718C17.9769 9.37035 17.7683 8.88879 17.41 8.52994L13.41 4.52994C13.2119 4.34621 12.9786 4.20452 12.7242 4.11343C12.4698 4.02234 12.1997 3.98373 11.93 3.99994C11.6579 4.00998 11.3907 4.07546 11.1448 4.19239C10.8989 4.30932 10.6795 4.47522 10.5 4.67994L9.93996 5.30994C9.55853 4.89739 9.09447 4.56983 8.57801 4.34858C8.06154 4.12734 7.50426 4.01739 6.94247 4.02588C6.38067 4.03437 5.82697 4.16112 5.31743 4.39788C4.80789 4.63463 4.35394 4.97607 3.98516 5.39996C3.61637 5.82385 3.34103 6.32068 3.17706 6.85808C3.01309 7.39547 2.96417 7.96139 3.03349 8.51895C3.10282 9.07652 3.28883 9.61322 3.5794 10.0941C3.86998 10.575 4.2586 10.9893 4.71996 11.3099L3.49996 12.6799C3.16607 13.0616 2.98962 13.5559 3.00633 14.0627C3.02304 14.5695 3.23165 15.0511 3.58996 15.4099L7.58996 19.4099C7.96331 19.7855 8.47039 19.9977 8.99996 19.9999H9.06996C9.34205 19.9899 9.60923 19.9244 9.85512 19.8075C10.101 19.6906 10.3204 19.5247 10.5 19.3199L12.5 16.9999H17.43L19.14 19.5499C19.2333 19.6918 19.3612 19.8075 19.5117 19.8863C19.6622 19.965 19.8302 20.0041 20 19.9999C20.0961 20.014 20.1938 20.014 20.29 19.9999C20.5025 19.9357 20.6877 19.8026 20.8163 19.6216C20.9448 19.4405 21.0094 19.2218 21 18.9999V12.9999C21.0094 12.7781 20.9448 12.5594 20.8163 12.3783C20.6877 12.1973 20.5025 12.0641 20.29 11.9999ZM4.99996 7.99994C5.00057 7.57754 5.13489 7.16617 5.38368 6.82482C5.63247 6.48346 5.98295 6.22963 6.38488 6.09973C6.78681 5.96982 7.21955 5.97051 7.62106 6.10168C8.02258 6.23286 8.37225 6.48779 8.61996 6.82994L6.05996 9.74994C5.74209 9.58069 5.47582 9.32876 5.28924 9.02075C5.10267 8.71273 5.00273 8.36005 4.99996 7.99994Z" fill="#141414"/>
</svg>
