<svg width="24" height="24" viewBox="0 0 24 24" fill="none" xmlns="http://www.w3.org/2000/svg">
<path d="M12 5C12.2967 5 12.5867 4.91203 12.8334 4.7472C13.08 4.58238 13.2723 4.34811 13.3858 4.07403C13.4994 3.79994 13.5291 3.49834 13.4712 3.20737C13.4133 2.91639 13.2704 2.64912 13.0607 2.43934C12.8509 2.22956 12.5836 2.0867 12.2926 2.02882C12.0017 1.97094 11.7001 2.00065 11.426 2.11418C11.1519 2.22771 10.9176 2.41997 10.7528 2.66665C10.588 2.91332 10.5 3.20333 10.5 3.5C10.5 3.89783 10.658 4.27936 10.9393 4.56066C11.2206 4.84197 11.6022 5 12 5ZM19 8.68C18.9583 8.55506 18.8922 8.43959 18.8057 8.34024C18.7192 8.24089 18.6139 8.1596 18.4959 8.10106C18.3779 8.04252 18.2495 8.00787 18.1181 7.99911C17.9866 7.99035 17.8547 8.00764 17.73 8.05C15.37 8.84 12.79 6.33 12.73 6.29C12.6482 6.20648 12.5493 6.14166 12.44 6.1H12.35C12.2418 6.04208 12.1225 6.00798 12 6H11.92C11.8377 6.00221 11.7564 6.01914 11.68 6.05C11.6301 6.0613 11.5826 6.08163 11.54 6.11C11.5103 6.10456 11.4798 6.10456 11.45 6.11C9.3869 7.53828 7.59828 9.3269 6.17 11.39C6.02527 11.6105 5.97349 11.8792 6.02593 12.1376C6.07837 12.3961 6.23079 12.6234 6.45 12.77C6.60353 12.9043 6.79657 12.985 7 13C7.16471 12.9991 7.32666 12.9576 7.47146 12.8791C7.61625 12.8006 7.73942 12.6876 7.83 12.55C8.73248 11.2524 9.79786 10.0761 11 9.05V12.89C10.2936 15.7583 8.68031 18.3221 6.4 20.2C6.18783 20.3591 6.04756 20.596 6.01005 20.8586C5.97255 21.1211 6.04087 21.3878 6.2 21.6C6.29315 21.7242 6.41394 21.825 6.55279 21.8944C6.69165 21.9639 6.84476 22 7 22C7.21637 22 7.42691 21.9298 7.6 21.8C9.78812 20.08 11.448 17.779 12.39 15.16C13.8671 17.0492 15.0971 19.1193 16.05 21.32C16.1171 21.5186 16.2449 21.6911 16.4154 21.8132C16.5858 21.9352 16.7904 22.0005 17 22C17.1084 21.9973 17.216 21.9805 17.32 21.95C17.4494 21.9135 17.5702 21.8512 17.675 21.767C17.7798 21.6827 17.8666 21.5782 17.9301 21.4596C17.9935 21.341 18.0325 21.2109 18.0445 21.0769C18.0565 20.943 18.0414 20.808 18 20.68C17.08 17.93 13.92 13.77 13.05 12.68V9C13.8154 9.53339 14.6881 9.893 15.6071 10.0536C16.5261 10.2143 17.4691 10.1721 18.37 9.93C18.6177 9.84552 18.8224 9.66731 18.9402 9.43361C19.058 9.19991 19.0794 8.92935 19 8.68Z" fill="#141414"/>
</svg>
