<svg width="24" height="24" viewBox="0 0 24 24" fill="none" xmlns="http://www.w3.org/2000/svg">
<path d="M8.5 7C8.20333 7 7.91332 7.08797 7.66664 7.2528C7.41997 7.41762 7.22771 7.65189 7.11418 7.92597C7.00065 8.20006 6.97094 8.50166 7.02882 8.79264C7.0867 9.08361 7.22956 9.35088 7.43934 9.56066C7.64912 9.77044 7.91639 9.9133 8.20736 9.97118C8.49834 10.0291 8.79994 9.99935 9.07403 9.88582C9.34811 9.77229 9.58238 9.58003 9.7472 9.33335C9.91203 9.08668 10 8.79667 10 8.5C10 8.10218 9.84196 7.72064 9.56066 7.43934C9.27936 7.15804 8.89782 7 8.5 7ZM4 10C4.26522 10 4.51957 9.89464 4.70711 9.70711C4.89464 9.51957 5 9.26522 5 9V6C5 5.73478 5.10536 5.48043 5.29289 5.29289C5.48043 5.10536 5.73478 5 6 5H9C9.26522 5 9.51957 4.89464 9.70711 4.70711C9.89464 4.51957 10 4.26522 10 4C10 3.73478 9.89464 3.48043 9.70711 3.29289C9.51957 3.10536 9.26522 3 9 3H6C5.20435 3 4.44129 3.31607 3.87868 3.87868C3.31607 4.44129 3 5.20435 3 6V9C3 9.26522 3.10536 9.51957 3.29289 9.70711C3.48043 9.89464 3.73478 10 4 10ZM18 3H15C14.7348 3 14.4804 3.10536 14.2929 3.29289C14.1054 3.48043 14 3.73478 14 4C14 4.26522 14.1054 4.51957 14.2929 4.70711C14.4804 4.89464 14.7348 5 15 5H18C18.2652 5 18.5196 5.10536 18.7071 5.29289C18.8946 5.48043 19 5.73478 19 6V9C19 9.26522 19.1054 9.51957 19.2929 9.70711C19.4804 9.89464 19.7348 10 20 10C20.2652 10 20.5196 9.89464 20.7071 9.70711C20.8946 9.51957 21 9.26522 21 9V6C21 5.20435 20.6839 4.44129 20.1213 3.87868C19.5587 3.31607 18.7956 3 18 3ZM16.21 9.29C16.0226 9.10375 15.7692 8.99921 15.505 8.99921C15.2408 8.99921 14.9874 9.10375 14.8 9.29L10.51 13.59L9.22 12.29C9.03264 12.1037 8.77919 11.9992 8.515 11.9992C8.25081 11.9992 7.99736 12.1037 7.81 12.29L5 15.09V15C5 14.7348 4.89464 14.4804 4.70711 14.2929C4.51957 14.1054 4.26522 14 4 14C3.73478 14 3.48043 14.1054 3.29289 14.2929C3.10536 14.4804 3 14.7348 3 15V18C3 18.7956 3.31607 19.5587 3.87868 20.1213C4.44129 20.6839 5.20435 21 6 21H18C18.7956 21 19.5587 20.6839 20.1213 20.1213C20.6839 19.5587 21 18.7956 21 18V14.5C21.0008 14.3684 20.9755 14.2379 20.9258 14.1161C20.876 13.9943 20.8027 13.8834 20.71 13.79L16.21 9.29Z" fill="#141414"/>
</svg>
