<svg width="24" height="24" viewBox="0 0 24 24" fill="none" xmlns="http://www.w3.org/2000/svg">
<path d="M8.41009 14.2102C8.19791 14.3693 8.05764 14.6062 8.02014 14.8688C7.98263 15.1313 8.05096 15.398 8.21009 15.6102C8.36922 15.8224 8.60611 15.9626 8.86867 16.0002C9.13122 16.0377 9.39791 15.9693 9.61009 15.8102C10.3007 15.2956 11.1389 15.0177 12.0001 15.0177C12.8613 15.0177 13.6995 15.2956 14.3901 15.8102C14.5632 15.94 14.7737 16.0102 14.9901 16.0102C15.1453 16.0102 15.2984 15.9741 15.4373 15.9046C15.5762 15.8352 15.6969 15.7344 15.7901 15.6102C15.8689 15.5051 15.9262 15.3856 15.9588 15.2584C15.9914 15.1312 15.9986 14.9988 15.98 14.8688C15.9615 14.7388 15.9175 14.6137 15.8506 14.5007C15.7837 14.3877 15.6951 14.289 15.5901 14.2102C14.5533 13.436 13.294 13.0177 12.0001 13.0177C10.7061 13.0177 9.44686 13.436 8.41009 14.2102ZM12.0001 17.0002C11.7034 17.0002 11.4134 17.0882 11.1667 17.253C10.9201 17.4178 10.7278 17.6521 10.6143 17.9262C10.5007 18.2003 10.471 18.5019 10.5289 18.7928C10.5868 19.0838 10.7296 19.3511 10.9394 19.5609C11.1492 19.7706 11.4165 19.9135 11.7075 19.9714C11.9984 20.0293 12.3 19.9996 12.5741 19.886C12.8482 19.7725 13.0825 19.5802 13.2473 19.3336C13.4121 19.0869 13.5001 18.7969 13.5001 18.5002C13.5001 18.1024 13.3421 17.7208 13.0607 17.4395C12.7794 17.1582 12.3979 17.0002 12.0001 17.0002ZM21.3401 8.5902C18.7786 6.27828 15.4506 4.99854 12.0001 4.99854C8.54953 4.99854 5.2216 6.27828 2.66009 8.5902C2.4625 8.7679 2.3436 9.01681 2.32953 9.28217C2.31547 9.54753 2.40739 9.80762 2.58509 10.0052C2.76278 10.2028 3.01169 10.3217 3.27705 10.3358C3.54242 10.3498 3.8025 10.2579 4.00009 10.0802C6.19307 8.09787 9.04394 7.00034 12.0001 7.00034C14.9562 7.00034 17.8071 8.09787 20.0001 10.0802C20.185 10.2433 20.4236 10.3323 20.6701 10.3302C20.8096 10.3299 20.9476 10.3003 21.075 10.2435C21.2025 10.1867 21.3166 10.1038 21.4101 10.0002C21.5873 9.80374 21.6795 9.54503 21.6664 9.28074C21.6533 9.01646 21.5359 8.76815 21.3401 8.5902ZM12.0001 9.0002C9.62008 9.0024 7.31889 9.85338 5.51009 11.4002C5.30852 11.5726 5.1837 11.818 5.16307 12.0824C5.14244 12.3468 5.2277 12.6086 5.40009 12.8102C5.57248 13.0118 5.81788 13.1366 6.0823 13.1572C6.34673 13.1779 6.60852 13.0926 6.81009 12.9202C8.25774 11.6861 10.0978 11.0082 12.0001 11.0082C13.9024 11.0082 15.7424 11.6861 17.1901 12.9202C17.3917 13.0926 17.6534 13.1779 17.9179 13.1572C18.1823 13.1366 18.4277 13.0118 18.6001 12.8102C18.7725 12.6086 18.8577 12.3468 18.8371 12.0824C18.8165 11.818 18.6917 11.5726 18.4901 11.4002C16.6813 9.85338 14.3801 9.0024 12.0001 9.0002Z" fill="#141414"/>
</svg>
