<svg width="24" height="24" viewBox="0 0 24 24" fill="none" xmlns="http://www.w3.org/2000/svg">
<path d="M4.89002 11.0001C5.02233 10.9995 5.15321 10.9727 5.27508 10.9212C5.39696 10.8697 5.5074 10.7946 5.60002 10.7001C6.43165 9.84443 7.42668 9.16453 8.52607 8.70072C9.62546 8.23692 10.8068 7.99866 12 8.00009C13.411 8.00123 14.8007 8.34436 16.05 9.00009H16C15.7348 9.00009 15.4804 9.10544 15.2929 9.29298C15.1054 9.48052 15 9.73487 15 10.0001C15 10.2653 15.1054 10.5197 15.2929 10.7072C15.4804 10.8947 15.7348 11.0001 16 11.0001H19C19.2652 11.0001 19.5196 10.8947 19.7071 10.7072C19.8947 10.5197 20 10.2653 20 10.0001V7.41009C20 7.14487 19.8947 6.89052 19.7071 6.70298C19.5196 6.51544 19.2652 6.41009 19 6.41009C18.7348 6.41009 18.4804 6.51544 18.2929 6.70298C18.1054 6.89052 18 7.14487 18 7.41009V7.81009C15.8829 6.4065 13.3417 5.78716 10.8161 6.05926C8.29059 6.33135 5.93962 7.47775 4.17002 9.30009C3.98377 9.48745 3.87923 9.7409 3.87923 10.0051C3.87923 10.2693 3.98377 10.5227 4.17002 10.7101C4.26464 10.804 4.37709 10.878 4.50073 10.9278C4.62438 10.9776 4.75674 11.0022 4.89002 11.0001ZM21.89 12.5101C21.7598 12.2796 21.5435 12.1102 21.2886 12.039C21.0336 11.9678 20.7608 12.0005 20.53 12.1301L12 16.8601L3.49002 12.1301C3.25928 11.9975 2.98531 11.962 2.72839 12.0313C2.47146 12.1007 2.25263 12.2693 2.12002 12.5001C1.98741 12.7308 1.95189 13.0048 2.02128 13.2617C2.09067 13.5186 2.25928 13.7375 2.49002 13.8701L11.49 18.8701C11.642 18.9579 11.8145 19.0041 11.99 19.0041C12.1656 19.0041 12.338 18.9579 12.49 18.8701L21.49 13.8701C21.7205 13.7398 21.8899 13.5236 21.9611 13.2686C22.0323 13.0137 21.9996 12.7409 21.87 12.5101H21.89Z" fill="#141414"/>
</svg>
