<svg width="24" height="24" viewBox="0 0 24 24" fill="none" xmlns="http://www.w3.org/2000/svg">
<path d="M18 3H6C5.20435 3 4.44129 3.31607 3.87868 3.87868C3.31607 4.44129 3 5.20435 3 6V18C3 18.7956 3.31607 19.5587 3.87868 20.1213C4.44129 20.6839 5.20435 21 6 21H18C18.7956 21 19.5587 20.6839 20.1213 20.1213C20.6839 19.5587 21 18.7956 21 18V6C21 5.20435 20.6839 4.44129 20.1213 3.87868C19.5587 3.31607 18.7956 3 18 3ZM15.45 10.72L13.95 13.72C13.9091 13.8045 13.8451 13.8758 13.7655 13.9257C13.686 13.9756 13.5939 14.0021 13.5 14.0021C13.4061 14.0021 13.314 13.9756 13.2345 13.9257C13.1549 13.8758 13.0909 13.8045 13.05 13.72L12 11.62L11 13.72C10.9543 13.7989 10.8887 13.8644 10.8097 13.9099C10.7307 13.9555 10.6412 13.9794 10.55 13.9794C10.4588 13.9794 10.3693 13.9555 10.2903 13.9099C10.2113 13.8644 10.1457 13.7989 10.1 13.72L8.6 10.72C8.54165 10.6007 8.53311 10.463 8.57624 10.3374C8.61937 10.2117 8.71065 10.1083 8.83 10.05C8.94935 9.99165 9.08698 9.98311 9.21263 10.0262C9.33828 10.0694 9.44165 10.1607 9.5 10.28L10.55 12.38L11.6 10.28C11.6457 10.2011 11.7113 10.1356 11.7903 10.0901C11.8693 10.0445 11.9588 10.0206 12.05 10.0206C12.1412 10.0206 12.2307 10.0445 12.3097 10.0901C12.3887 10.1356 12.4543 10.2011 12.5 10.28L13.55 12.38L14.6 10.28C14.6583 10.1607 14.7617 10.0694 14.8874 10.0262C15.013 9.98311 15.1507 9.99165 15.27 10.05C15.3893 10.1083 15.4806 10.2117 15.5238 10.3374C15.5669 10.463 15.5583 10.6007 15.5 10.72H15.45Z" fill="#141414"/>
</svg>
