<svg width="24" height="24" viewBox="0 0 24 24" fill="none" xmlns="http://www.w3.org/2000/svg">
<path d="M18.91 6.49994L20.71 4.70994C20.8037 4.61698 20.8781 4.50638 20.9289 4.38452C20.9796 4.26266 21.0058 4.13195 21.0058 3.99994C21.0058 3.86793 20.9796 3.73722 20.9289 3.61536C20.8781 3.4935 20.8037 3.3829 20.71 3.28994C20.617 3.19621 20.5064 3.12182 20.3845 3.07105C20.2627 3.02028 20.132 2.99414 20 2.99414C19.868 2.99414 19.7372 3.02028 19.6154 3.07105C19.4935 3.12182 19.3829 3.19621 19.29 3.28994L17.5 5.08994L15.71 3.28994C15.617 3.19621 15.5064 3.12182 15.3845 3.07105C15.2627 3.02028 15.132 2.99414 15 2.99414C14.868 2.99414 14.7373 3.02028 14.6154 3.07105C14.4935 3.12182 14.3829 3.19621 14.29 3.28994L13 4.58994L12.71 4.28994C12.617 4.19621 12.5064 4.12182 12.3845 4.07105C12.2627 4.02028 12.132 3.99414 12 3.99414C11.868 3.99414 11.7373 4.02028 11.6154 4.07105C11.4935 4.12182 11.3829 4.19621 11.29 4.28994L10.29 5.28994C10.1037 5.4773 9.99918 5.73075 9.99918 5.99494C9.99918 6.25912 10.1037 6.51258 10.29 6.69994L13.08 9.49994L9.52997 13.0599L6.72997 10.2699C6.54261 10.0837 6.28915 9.97915 6.02497 9.97915C5.76078 9.97915 5.50733 10.0837 5.31997 10.2699L4.31997 11.2699C4.22624 11.3629 4.15185 11.4735 4.10108 11.5954C4.05031 11.7172 4.02417 11.8479 4.02417 11.9799C4.02417 12.1119 4.05031 12.2427 4.10108 12.3645C4.15185 12.4864 4.22624 12.597 4.31997 12.6899L4.61997 12.9799L3.31997 14.2699C3.22624 14.3629 3.15185 14.4735 3.10108 14.5954C3.05031 14.7172 3.02417 14.8479 3.02417 14.9799C3.02417 15.1119 3.05031 15.2427 3.10108 15.3645C3.15185 15.4864 3.22624 15.597 3.31997 15.6899L5.11997 17.4799L3.31997 19.2699C3.22673 19.3632 3.15277 19.4739 3.10231 19.5957C3.05185 19.7175 3.02588 19.8481 3.02588 19.9799C3.02588 20.1118 3.05185 20.2424 3.10231 20.3642C3.15277 20.486 3.22673 20.5967 3.31997 20.6899C3.50827 20.8782 3.76367 20.984 4.02997 20.984C4.16183 20.984 4.2924 20.9581 4.41422 20.9076C4.53604 20.8571 4.64673 20.7832 4.73997 20.6899L6.52997 18.8899L8.31997 20.6899C8.41293 20.7837 8.52353 20.8581 8.64539 20.9088C8.76725 20.9596 8.89796 20.9857 9.02997 20.9857C9.16198 20.9857 9.29269 20.9596 9.41455 20.9088C9.5364 20.8581 9.64701 20.7837 9.73997 20.6899L11 19.4099L11.29 19.7099C11.3829 19.8037 11.4935 19.8781 11.6154 19.9288C11.7373 19.9796 11.868 20.0057 12 20.0057C12.132 20.0057 12.2627 19.9796 12.3845 19.9288C12.5064 19.8781 12.617 19.8037 12.71 19.7099L13.71 18.7099C13.8962 18.5226 14.0008 18.2691 14.0008 18.0049C14.0008 17.7408 13.8962 17.4873 13.71 17.2999L10.92 14.4999L14.45 10.9699L17.25 13.7599C17.4373 13.9462 17.6908 14.0507 17.955 14.0507C18.2192 14.0507 18.4726 13.9462 18.66 13.7599L19.66 12.7599C19.7537 12.667 19.8281 12.5564 19.8789 12.4345C19.9296 12.3127 19.9558 12.182 19.9558 12.0499C19.9558 11.9179 19.9296 11.7872 19.8789 11.6654C19.8281 11.5435 19.7537 11.4329 19.66 11.3399L19.36 11.0499L20.66 9.75994C20.7537 9.66698 20.8281 9.55638 20.8789 9.43452C20.9296 9.31266 20.9558 9.18195 20.9558 9.04994C20.9558 8.91793 20.9296 8.78722 20.8789 8.66536C20.8281 8.5435 20.7537 8.4329 20.66 8.33994L18.91 6.49994Z" fill="#141414"/>
</svg>
