<svg width="24" height="24" viewBox="0 0 24 24" fill="none" xmlns="http://www.w3.org/2000/svg">
<path d="M14 8H20C20.2652 8 20.5196 7.89464 20.7071 7.70711C20.8946 7.51957 21 7.26522 21 7C21 6.73478 20.8946 6.48043 20.7071 6.29289C20.5196 6.10536 20.2652 6 20 6H14C14 5.46957 13.7893 4.96086 13.4142 4.58579C13.0391 4.21071 12.5304 4 12 4H7C6.46957 4 5.96086 4.21071 5.58579 4.58579C5.21071 4.96086 5 5.46957 5 6V10H14V8ZM20.83 13.17C20.4583 12.7987 20.017 12.5042 19.5314 12.3035C19.0458 12.1027 18.5254 11.9996 18 12H6C4.93913 12 3.92172 12.4214 3.17157 13.1716C2.42143 13.9217 2 14.9391 2 16C2 17.0609 2.42143 18.0783 3.17157 18.8284C3.92172 19.5786 4.93913 20 6 20H18C18.7916 20.0006 19.5656 19.7664 20.2239 19.3269C20.8823 18.8874 21.3955 18.2625 21.6985 17.5312C22.0015 16.7999 22.0807 15.9951 21.9261 15.2188C21.7715 14.4424 21.39 13.7294 20.83 13.17ZM6.71 16.71C6.54541 16.8748 6.32847 16.9769 6.09662 16.9988C5.86477 17.0207 5.63254 16.961 5.44 16.83C5.27585 16.7214 5.14993 16.564 5.08 16.38C4.99607 16.199 4.9682 15.997 5 15.8C5.03698 15.6015 5.13319 15.4188 5.27599 15.276C5.41879 15.1332 5.60147 15.037 5.8 15C5.995 14.9619 6.19692 14.9828 6.38 15.06C6.56399 15.1299 6.72139 15.2558 6.83 15.42C6.96101 15.6125 7.02071 15.8448 6.9988 16.0766C6.97689 16.3085 6.87475 16.5254 6.71 16.69V16.71ZM10.71 16.71C10.5454 16.8748 10.3285 16.9769 10.0966 16.9988C9.86477 17.0207 9.63254 16.961 9.44 16.83C9.27585 16.7214 9.14993 16.564 9.08 16.38C8.99607 16.199 8.9682 15.997 9 15.8C9.03697 15.6015 9.13319 15.4188 9.27599 15.276C9.41879 15.1332 9.60147 15.037 9.8 15C9.995 14.9619 10.1969 14.9828 10.38 15.06C10.564 15.1299 10.7214 15.2558 10.83 15.42C10.961 15.6125 11.0207 15.8448 10.9988 16.0766C10.9769 16.3085 10.8748 16.5254 10.71 16.69V16.71ZM14.71 16.71C14.5454 16.8748 14.3285 16.9769 14.0966 16.9988C13.8648 17.0207 13.6325 16.961 13.44 16.83C13.2758 16.7214 13.1499 16.564 13.08 16.38C12.9961 16.199 12.9682 15.997 13 15.8C13.037 15.6015 13.1332 15.4188 13.276 15.276C13.4188 15.1332 13.6015 15.037 13.8 15C13.995 14.9619 14.1969 14.9828 14.38 15.06C14.564 15.1299 14.7214 15.2558 14.83 15.42C14.961 15.6125 15.0207 15.8448 14.9988 16.0766C14.9769 16.3085 14.8748 16.5254 14.71 16.69V16.71ZM18.71 16.71C18.5454 16.8748 18.3285 16.9769 18.0966 16.9988C17.8648 17.0207 17.6325 16.961 17.44 16.83C17.2758 16.7214 17.1499 16.564 17.08 16.38C16.9961 16.199 16.9682 15.997 17 15.8C17.037 15.6015 17.1332 15.4188 17.276 15.276C17.4188 15.1332 17.6015 15.037 17.8 15C17.995 14.9619 18.1969 14.9828 18.38 15.06C18.564 15.1299 18.7214 15.2558 18.83 15.42C18.961 15.6125 19.0207 15.8448 18.9988 16.0766C18.9769 16.3085 18.8748 16.5254 18.71 16.69V16.71Z" fill="#141414"/>
</svg>
