<svg width="24" height="24" viewBox="0 0 24 24" fill="none" xmlns="http://www.w3.org/2000/svg">
<path d="M20.12 14.8798C19.9326 14.6936 19.6792 14.5891 19.415 14.5891C19.1508 14.5891 18.8973 14.6936 18.71 14.8798L18 15.5898L17.29 14.8798C17.0987 14.716 16.8526 14.6304 16.6009 14.6401C16.3493 14.6499 16.1105 14.7542 15.9324 14.9323C15.7543 15.1104 15.65 15.3491 15.6403 15.6008C15.6305 15.8525 15.7162 16.0985 15.88 16.2898L16.59 16.9998L15.88 17.7098C15.7162 17.9011 15.6305 18.1472 15.6403 18.3989C15.65 18.6506 15.7543 18.8893 15.9324 19.0674C16.1105 19.2455 16.3493 19.3498 16.6009 19.3596C16.8526 19.3693 17.0987 19.2837 17.29 19.1198L18 18.4098L18.71 19.1198C18.9013 19.2837 19.1474 19.3693 19.399 19.3596C19.6507 19.3498 19.8895 19.2455 20.0675 19.0674C20.2456 18.8893 20.35 18.6506 20.3597 18.3989C20.3694 18.1472 20.2838 17.9011 20.12 17.7098L19.41 16.9998L20.12 16.2898C20.3062 16.1025 20.4108 15.849 20.4108 15.5848C20.4108 15.3207 20.3062 15.0672 20.12 14.8798ZM21.6 8.35984C20.4194 6.97124 18.9468 5.86044 17.2873 5.10676C15.6279 4.35308 13.8224 3.97511 12 3.99985C10.1756 3.96861 8.36715 4.34467 6.70644 5.10064C5.04573 5.85661 3.57453 6.97346 2.39998 8.36984C2.11841 8.74733 1.97907 9.21206 2.00651 9.68219C2.03395 10.1523 2.22641 10.5977 2.54998 10.9398L10.55 19.3798C10.737 19.5761 10.962 19.7322 11.2113 19.8388C11.4606 19.9454 11.7289 20.0002 12 19.9998C12.2711 20.0002 12.5394 19.9454 12.7887 19.8388C13.0379 19.7322 13.2629 19.5761 13.45 19.3798L13.57 19.2498C13.2025 18.5563 13.007 17.7847 13 16.9998C13 15.6738 13.5268 14.402 14.4644 13.4643C15.4021 12.5266 16.6739 11.9998 18 11.9998C18.6901 12.0049 19.3715 12.1548 20 12.4398L21.42 10.9398C21.7506 10.6007 21.9502 10.1553 21.9831 9.68285C22.0161 9.2104 21.8803 8.74157 21.6 8.35984Z" fill="#141414"/>
</svg>
