<svg width="24" height="24" viewBox="0 0 24 24" fill="none" xmlns="http://www.w3.org/2000/svg">
<path d="M8.71 11.29C8.5217 11.1017 8.26631 10.9959 8 10.9959C7.7337 10.9959 7.47831 11.1017 7.29 11.29C7.1017 11.4783 6.99591 11.7337 6.99591 12C6.99591 12.1319 7.02188 12.2625 7.07234 12.3843C7.12281 12.5061 7.19677 12.6168 7.29 12.71L10.29 15.71C10.383 15.8038 10.4936 15.8782 10.6154 15.9289C10.7373 15.9797 10.868 16.0058 11 16.0058C11.132 16.0058 11.2627 15.9797 11.3846 15.9289C11.5064 15.8782 11.617 15.8038 11.71 15.71L21.71 5.71004C21.8983 5.52173 22.0041 5.26634 22.0041 5.00004C22.0041 4.73374 21.8983 4.47834 21.71 4.29004C21.5217 4.10173 21.2663 3.99595 21 3.99595C20.7337 3.99595 20.4783 4.10173 20.29 4.29004L11 13.59L8.71 11.29ZM20.83 10C20.5731 10.042 20.3427 10.1824 20.1877 10.3916C20.0327 10.6007 19.9654 10.862 20 11.12C20.0152 11.4132 20.0152 11.7069 20 12C20 13.5823 19.5308 15.129 18.6518 16.4446C17.7727 17.7602 16.5233 18.7856 15.0615 19.3911C13.5997 19.9966 11.9911 20.155 10.4393 19.8463C8.88743 19.5376 7.46197 18.7757 6.34315 17.6569C5.22433 16.5381 4.4624 15.1126 4.15372 13.5608C3.84504 12.0089 4.00347 10.4004 4.60897 8.93857C5.21447 7.47676 6.23985 6.22733 7.55544 5.34828C8.87104 4.46923 10.4178 4.00004 12 4.00004C13.233 3.99625 14.4494 4.28408 15.55 4.84004C15.7874 4.95938 16.0624 4.97955 16.3147 4.8961C16.5669 4.81264 16.7757 4.63241 16.895 4.39504C17.0144 4.15767 17.0345 3.88261 16.9511 3.63037C16.8676 3.37814 16.6874 3.16938 16.45 3.05004C15.0697 2.35549 13.5452 1.99578 12 2.00004C10.0222 2.00004 8.08879 2.58653 6.4443 3.68534C4.79981 4.78416 3.51809 6.34594 2.76121 8.1732C2.00433 10.0005 1.8063 12.0111 2.19215 13.9509C2.578 15.8907 3.53041 17.6726 4.92894 19.0711C6.32746 20.4696 8.10929 21.422 10.0491 21.8079C11.9889 22.1937 13.9996 21.9957 15.8268 21.2388C17.6541 20.482 19.2159 19.2002 20.3147 17.5557C21.4135 15.9112 22 13.9778 22 12C22.0019 11.6256 21.9785 11.2514 21.93 10.88C21.8998 10.6179 21.7673 10.3783 21.5613 10.2135C21.3552 10.0486 21.0924 9.97192 20.83 10Z" fill="#141414"/>
</svg>
