<svg width="24" height="24" viewBox="0 0 24 24" fill="none" xmlns="http://www.w3.org/2000/svg">
<path d="M5.40009 12.8098C5.48544 12.9096 5.58962 12.9916 5.70668 13.0511C5.82373 13.1107 5.95137 13.1466 6.0823 13.1568C6.21324 13.167 6.3449 13.1513 6.46977 13.1107C6.59465 13.07 6.71029 13.0051 6.81009 12.9198L6.93009 12.8198L10.6601 9.09976C8.75922 9.35966 6.97232 10.1577 5.51009 11.3998C5.41028 11.4851 5.32826 11.5893 5.26871 11.7064C5.20917 11.8234 5.17326 11.951 5.16305 12.082C5.15283 12.2129 5.16851 12.3446 5.20918 12.4694C5.24985 12.5943 5.31472 12.71 5.40009 12.8098ZM4.00009 10.0798C6.19356 8.09821 9.0441 7.00075 12.0001 6.99976H12.7201L14.5301 5.19976C13.6944 5.05803 12.8477 4.9911 12.0001 4.99976C8.55081 5.00499 5.22487 6.28337 2.66009 8.58976C2.4625 8.76746 2.3436 9.01636 2.32953 9.28173C2.31547 9.54709 2.40739 9.80717 2.58509 10.0048C2.76278 10.2023 3.01169 10.3213 3.27705 10.3353C3.54242 10.3494 3.8025 10.2575 4.00009 10.0798ZM21.3401 8.58976C20.538 7.87336 19.6554 7.25253 18.7101 6.73976L20.4901 4.99976C20.5879 4.90193 20.6655 4.78578 20.7185 4.65795C20.7714 4.53012 20.7987 4.39312 20.7987 4.25476C20.7987 4.1164 20.7714 3.9794 20.7185 3.85157C20.6655 3.72374 20.5879 3.6076 20.4901 3.50976C20.3923 3.41193 20.2761 3.33432 20.1483 3.28137C20.0205 3.22842 19.8834 3.20117 19.7451 3.20117C19.6067 3.20117 19.4697 3.22842 19.3419 3.28137C19.2141 3.33432 19.0979 3.41193 19.0001 3.50976L3.51009 18.9998C3.41225 19.0976 3.33465 19.2137 3.2817 19.3416C3.22875 19.4694 3.2015 19.6064 3.2015 19.7448C3.2015 19.8831 3.22875 20.0201 3.2817 20.148C3.33465 20.2758 3.41225 20.3919 3.51009 20.4898C3.70767 20.6873 3.97566 20.7984 4.25509 20.7984C4.39345 20.7984 4.53045 20.7711 4.65828 20.7182C4.78611 20.6652 4.90225 20.5876 5.00009 20.4898L9.70009 15.7798C10.3861 15.2769 11.2145 15.0057 12.0651 15.0057C12.9157 15.0057 13.7441 15.2769 14.4301 15.7798C14.6032 15.9096 14.8137 15.9798 15.0301 15.9798C15.1853 15.9798 15.3384 15.9436 15.4773 15.8742C15.6162 15.8048 15.7369 15.704 15.8301 15.5798C15.9089 15.4747 15.9662 15.3552 15.9988 15.2279C16.0314 15.1007 16.0386 14.9683 16.02 14.8383C16.0015 14.7083 15.9575 14.5833 15.8906 14.4703C15.8237 14.3573 15.7351 14.2586 15.6301 14.1798C14.6978 13.4923 13.5864 13.0894 12.4301 13.0198L14.1901 11.2698C15.2949 11.5879 16.3181 12.1405 17.1901 12.8898C17.3917 13.0622 17.6534 13.1474 17.9179 13.1268C18.1823 13.1062 18.4277 12.9813 18.6001 12.7798C18.7725 12.5782 18.8577 12.3164 18.8371 12.052C18.8165 11.7876 18.6917 11.5422 18.4901 11.3698C17.6621 10.6633 16.7227 10.099 15.7101 9.69976L17.2301 8.17976C18.2383 8.6794 19.1709 9.31906 20.0001 10.0798C20.185 10.2428 20.4236 10.3319 20.6701 10.3298C20.8096 10.3294 20.9476 10.2999 21.075 10.2431C21.2025 10.1862 21.3166 10.1034 21.4101 9.99976C21.5873 9.8033 21.6795 9.54458 21.6664 9.2803C21.6533 9.01601 21.5359 8.7677 21.3401 8.58976ZM12.0001 16.9998C11.7034 16.9998 11.4134 17.0877 11.1667 17.2526C10.9201 17.4174 10.7278 17.6516 10.6143 17.9257C10.5007 18.1998 10.471 18.5014 10.5289 18.7924C10.5868 19.0834 10.7296 19.3506 10.9394 19.5604C11.1492 19.7702 11.4165 19.9131 11.7075 19.9709C11.9984 20.0288 12.3 19.9991 12.5741 19.8856C12.8482 19.772 13.0825 19.5798 13.2473 19.3331C13.4121 19.0864 13.5001 18.7964 13.5001 18.4998C13.5001 18.1019 13.3421 17.7204 13.0607 17.4391C12.7794 17.1578 12.3979 16.9998 12.0001 16.9998Z" fill="#141414"/>
</svg>
