<svg width="24" height="24" viewBox="0 0 24 24" fill="none" xmlns="http://www.w3.org/2000/svg">
<path d="M18 19.9998C17.8022 19.9998 17.6089 20.0585 17.4444 20.1684C17.28 20.2783 17.1518 20.4344 17.0761 20.6172C17.0004 20.7999 16.9806 21.001 17.0192 21.1949C17.0578 21.3889 17.153 21.5671 17.2929 21.707C17.4327 21.8468 17.6109 21.942 17.8049 21.9806C17.9989 22.0192 18.1999 21.9994 18.3827 21.9237C18.5654 21.848 18.7216 21.7199 18.8315 21.5554C18.9413 21.391 19 21.1976 19 20.9998C19 20.7346 18.8946 20.4803 18.7071 20.2927C18.5196 20.1052 18.2652 19.9998 18 19.9998ZM17.5 13.9998C17.2348 13.9998 16.9804 14.1052 16.7929 14.2927C16.6053 14.4803 16.5 14.7346 16.5 14.9998C16.5 15.2651 16.6053 15.5194 16.7929 15.707C16.9804 15.8945 17.2348 15.9998 17.5 15.9998C17.6326 15.9998 17.7598 16.0525 17.8535 16.1463C17.9473 16.2401 18 16.3672 18 16.4998C18 16.6325 17.9473 16.7596 17.8535 16.8534C17.7598 16.9472 17.6326 16.9998 17.5 16.9998C17.2348 16.9998 16.9804 17.1052 16.7929 17.2927C16.6053 17.4803 16.5 17.7346 16.5 17.9998C16.5 18.2651 16.6053 18.5194 16.7929 18.707C16.9804 18.8945 17.2348 18.9998 17.5 18.9998C18.163 18.9998 18.7989 18.7365 19.2677 18.2676C19.7366 17.7988 20 17.1629 20 16.4998C20 15.8368 19.7366 15.2009 19.2677 14.7321C18.7989 14.2632 18.163 13.9998 17.5 13.9998ZM21.6 8.35984C20.4194 6.97124 18.9468 5.86044 17.2873 5.10676C15.6279 4.35308 13.8224 3.97511 12 3.99985C10.1756 3.96861 8.36715 4.34467 6.70644 5.10064C5.04573 5.85661 3.57453 6.97346 2.39998 8.36984C2.11841 8.74733 1.97907 9.21206 2.00651 9.68219C2.03395 10.1523 2.22641 10.5977 2.54998 10.9398L10.55 19.3798C10.737 19.5761 10.962 19.7322 11.2113 19.8388C11.4606 19.9454 11.7289 20.0002 12 19.9998C12.2711 20.0002 12.5394 19.9454 12.7887 19.8388C13.0379 19.7322 13.2629 19.5761 13.45 19.3798L13.57 19.2498C13.2025 18.5563 13.007 17.7847 13 16.9998C13 15.6738 13.5268 14.402 14.4644 13.4643C15.4021 12.5266 16.6739 11.9998 18 11.9998C18.6901 12.0049 19.3715 12.1548 20 12.4398L21.42 10.9398C21.7506 10.6007 21.9502 10.1553 21.9831 9.68285C22.0161 9.2104 21.8803 8.74157 21.6 8.35984Z" fill="#141414"/>
</svg>
