<svg width="24" height="24" viewBox="0 0 24 24" fill="none" xmlns="http://www.w3.org/2000/svg">
<path d="M9 7H10V5.73C9.99761 5.48735 10.0835 5.25211 10.2418 5.06812C10.4 4.88414 10.6197 4.76396 10.86 4.73L16.14 4C16.4052 3.9695 16.6475 3.8349 16.8134 3.62579C16.9794 3.41669 17.0555 3.15022 17.025 2.885C16.9945 2.61979 16.8599 2.37755 16.6508 2.21158C16.4417 2.04561 16.1752 1.9695 15.91 2L6.73 2.84C5.98376 2.90744 5.28976 3.25168 4.78454 3.80502C4.27932 4.35835 3.99946 5.08072 4 5.83V7H9ZM18 9H4V20C4 20.5304 4.21071 21.0391 4.58579 21.4142C4.96086 21.7893 5.46957 22 6 22H8C8.53043 22 9.03914 21.7893 9.41421 21.4142C9.78929 21.0391 10 20.5304 10 20V13C10 12.7348 10.1054 12.4804 10.2929 12.2929C10.4804 12.1054 10.7348 12 11 12H17V13C17 13.2652 17.1054 13.5196 17.2929 13.7071C17.4804 13.8946 17.7348 14 18 14H19C19.2652 14 19.5196 13.8946 19.7071 13.7071C19.8946 13.5196 20 13.2652 20 13V11C20 10.4696 19.7893 9.96086 19.4142 9.58579C19.0391 9.21072 18.5304 9 18 9ZM18.93 16.25C18.8886 16.1739 18.8261 16.1114 18.75 16.07C18.6736 16.0267 18.5878 16.0027 18.5 16C18.4162 15.9996 18.3337 16.0202 18.26 16.06C18.1809 16.1008 18.115 16.1632 18.07 16.24L17.18 17.74C17.0301 18.0291 16.9709 18.3567 17.01 18.68C17.0584 19.003 17.205 19.3033 17.43 19.54C17.5719 19.6789 17.7379 19.7908 17.92 19.87C18.1031 19.9493 18.3005 19.9902 18.5 19.9902C18.6995 19.9902 18.8969 19.9493 19.08 19.87C19.2635 19.7933 19.43 19.6812 19.57 19.54C19.7952 19.2995 19.9417 18.996 19.99 18.67C20.0314 18.3423 19.9684 18.0098 19.81 17.72L18.93 16.25Z" fill="#141414"/>
</svg>
