<svg width="24" height="24" viewBox="0 0 24 24" fill="none" xmlns="http://www.w3.org/2000/svg">
<path d="M19 4H5C4.20435 4 3.44129 4.31607 2.87868 4.87868C2.31607 5.44129 2 6.20435 2 7V17C2 17.7956 2.31607 18.5587 2.87868 19.1213C3.44129 19.6839 4.20435 20 5 20H19C19.7956 20 20.5587 19.6839 21.1213 19.1213C21.6839 18.5587 22 17.7956 22 17V7C22 6.20435 21.6839 5.44129 21.1213 4.87868C20.5587 4.31607 19.7956 4 19 4ZM11 6C11.1978 6 11.3911 6.05865 11.5556 6.16853C11.72 6.27841 11.8482 6.43459 11.9239 6.61732C11.9996 6.80004 12.0194 7.00111 11.9808 7.19509C11.9422 7.38907 11.847 7.56725 11.7071 7.70711C11.5673 7.84696 11.3891 7.9422 11.1951 7.98079C11.0011 8.01937 10.8 7.99957 10.6173 7.92388C10.4346 7.84819 10.2784 7.72002 10.1685 7.55557C10.0586 7.39112 10 7.19778 10 7C10 6.73478 10.1054 6.48043 10.2929 6.29289C10.4804 6.10536 10.7348 6 11 6ZM5 8C4.80222 8 4.60888 7.94135 4.44443 7.83147C4.27998 7.72159 4.15181 7.56541 4.07612 7.38268C4.00043 7.19996 3.98063 6.99889 4.01921 6.80491C4.0578 6.61093 4.15304 6.43275 4.29289 6.29289C4.43275 6.15304 4.61093 6.0578 4.80491 6.01921C4.99889 5.98063 5.19996 6.00043 5.38268 6.07612C5.56541 6.15181 5.72159 6.27998 5.83147 6.44443C5.94135 6.60888 6 6.80222 6 7C6 7.26522 5.89464 7.51957 5.70711 7.70711C5.51957 7.89464 5.26522 8 5 8ZM7 7C7 6.80222 7.05865 6.60888 7.16853 6.44443C7.27841 6.27998 7.43459 6.15181 7.61732 6.07612C7.80004 6.00043 8.00111 5.98063 8.19509 6.01921C8.38907 6.0578 8.56725 6.15304 8.70711 6.29289C8.84696 6.43275 8.9422 6.61093 8.98079 6.80491C9.01937 6.99889 8.99957 7.19996 8.92388 7.38268C8.84819 7.56541 8.72002 7.72159 8.55557 7.83147C8.39112 7.94135 8.19778 8 8 8C7.73478 8 7.48043 7.89464 7.29289 7.70711C7.10536 7.51957 7 7.26522 7 7ZM16.71 11.71L11.71 16.71C11.617 16.8037 11.5064 16.8781 11.3846 16.9289C11.2627 16.9797 11.132 17.0058 11 17.0058C10.868 17.0058 10.7373 16.9797 10.6154 16.9289C10.4936 16.8781 10.383 16.8037 10.29 16.71L8.29 14.71C8.1017 14.5217 7.99591 14.2663 7.99591 14C7.99591 13.7337 8.1017 13.4783 8.29 13.29C8.4783 13.1017 8.7337 12.9959 9 12.9959C9.2663 12.9959 9.5217 13.1017 9.71 13.29L11 14.59L15.29 10.29C15.4783 10.1017 15.7337 9.99591 16 9.99591C16.2663 9.99591 16.5217 10.1017 16.71 10.29C16.8983 10.4783 17.0041 10.7337 17.0041 11C17.0041 11.2663 16.8983 11.5217 16.71 11.71Z" fill="#141414"/>
</svg>
