<svg width="24" height="24" viewBox="0 0 24 24" fill="none" xmlns="http://www.w3.org/2000/svg">
<path d="M20 17.28V14C20 12.6739 19.4732 11.4021 18.5355 10.4645C17.5979 9.52678 16.3261 9 15 9V8C15 7.73478 14.8946 7.48043 14.7071 7.29289C14.5196 7.10536 14.2652 7 14 7H13V5H14C14.2652 5 14.5196 4.89464 14.7071 4.70711C14.8946 4.51957 15 4.26522 15 4C15 3.73478 14.8946 3.48043 14.7071 3.29289C14.5196 3.10536 14.2652 3 14 3H10C9.73478 3 9.48043 3.10536 9.29289 3.29289C9.10536 3.48043 9 3.73478 9 4C9 4.26522 9.10536 4.51957 9.29289 4.70711C9.48043 4.89464 9.73478 5 10 5H11V7H10C9.73478 7 9.48043 7.10536 9.29289 7.29289C9.10536 7.48043 9 7.73478 9 8V9H6.72C6.54549 8.69772 6.29491 8.44638 5.99317 8.27095C5.69143 8.09552 5.34903 8.00211 5 8C4.46957 8 3.96086 8.21071 3.58579 8.58579C3.21071 8.96086 3 9.46957 3 10V14C3 14.5304 3.21071 15.0391 3.58579 15.4142C3.96086 15.7893 4.46957 16 5 16C5.34903 15.9979 5.69143 15.9045 5.99317 15.7291C6.29491 15.5536 6.54549 15.3023 6.72 15H14V17.28C13.6977 17.4545 13.4464 17.7051 13.2709 18.0068C13.0955 18.3086 13.0021 18.651 13 19C13 19.5304 13.2107 20.0391 13.5858 20.4142C13.9609 20.7893 14.4696 21 15 21H19C19.5304 21 20.0391 20.7893 20.4142 20.4142C20.7893 20.0391 21 19.5304 21 19C20.9979 18.651 20.9045 18.3086 20.7291 18.0068C20.5536 17.7051 20.3023 17.4545 20 17.28Z" fill="#141414"/>
</svg>
