<svg width="24" height="24" viewBox="0 0 24 24" fill="none" xmlns="http://www.w3.org/2000/svg">
<path d="M19 4H5C4.20435 4 3.44129 4.31607 2.87868 4.87868C2.31607 5.44129 2 6.20435 2 7V17C2 17.7956 2.31607 18.5587 2.87868 19.1213C3.44129 19.6839 4.20435 20 5 20H19C19.7956 20 20.5587 19.6839 21.1213 19.1213C21.6839 18.5587 22 17.7956 22 17V7C22 6.20435 21.6839 5.44129 21.1213 4.87868C20.5587 4.31607 19.7956 4 19 4ZM11 6C11.1978 6 11.3911 6.05865 11.5556 6.16853C11.72 6.27841 11.8482 6.43459 11.9239 6.61732C11.9996 6.80004 12.0194 7.00111 11.9808 7.19509C11.9422 7.38907 11.847 7.56725 11.7071 7.70711C11.5673 7.84696 11.3891 7.9422 11.1951 7.98079C11.0011 8.01937 10.8 7.99957 10.6173 7.92388C10.4346 7.84819 10.2784 7.72002 10.1685 7.55557C10.0586 7.39112 10 7.19778 10 7C10 6.73478 10.1054 6.48043 10.2929 6.29289C10.4804 6.10536 10.7348 6 11 6ZM8 6C8.19778 6 8.39112 6.05865 8.55557 6.16853C8.72002 6.27841 8.84819 6.43459 8.92388 6.61732C8.99957 6.80004 9.01937 7.00111 8.98079 7.19509C8.9422 7.38907 8.84696 7.56725 8.70711 7.70711C8.56725 7.84696 8.38907 7.9422 8.19509 7.98079C8.00111 8.01937 7.80004 7.99957 7.61732 7.92388C7.43459 7.84819 7.27841 7.72002 7.16853 7.55557C7.05865 7.39112 7 7.19778 7 7C7 6.73478 7.10536 6.48043 7.29289 6.29289C7.48043 6.10536 7.73478 6 8 6ZM5 6C5.19778 6 5.39112 6.05865 5.55557 6.16853C5.72002 6.27841 5.84819 6.43459 5.92388 6.61732C5.99957 6.80004 6.01937 7.00111 5.98079 7.19509C5.9422 7.38907 5.84696 7.56725 5.70711 7.70711C5.56725 7.84696 5.38907 7.9422 5.19509 7.98079C5.00111 8.01937 4.80004 7.99957 4.61732 7.92388C4.43459 7.84819 4.27841 7.72002 4.16853 7.55557C4.05865 7.39112 4 7.19778 4 7C4 6.73478 4.10536 6.48043 4.29289 6.29289C4.48043 6.10536 4.73478 6 5 6Z" fill="#141414"/>
</svg>
