<svg width="24" height="24" viewBox="0 0 24 24" fill="none" xmlns="http://www.w3.org/2000/svg">
<path d="M18.29 15.2898L17 16.5898L16.71 16.2898C16.5217 16.1015 16.2663 15.9958 16 15.9958C15.7337 15.9958 15.4783 16.1015 15.29 16.2898C15.1017 16.4781 14.9959 16.7335 14.9959 16.9998C14.9959 17.2661 15.1017 17.5215 15.29 17.7098L16.29 18.7098C16.383 18.8036 16.4936 18.878 16.6155 18.9287C16.7373 18.9795 16.868 19.0056 17 19.0056C17.1321 19.0056 17.2628 18.9795 17.3846 18.9287C17.5065 18.878 17.6171 18.8036 17.71 18.7098L19.71 16.7098C19.8983 16.5215 20.0041 16.2661 20.0041 15.9998C20.0041 15.7335 19.8983 15.4781 19.71 15.2898C19.5217 15.1015 19.2663 14.9958 19 14.9958C18.7337 14.9958 18.4783 15.1015 18.29 15.2898ZM21.6 8.35984C20.4195 6.97124 18.9469 5.86044 17.2874 5.10676C15.6279 4.35308 13.8225 3.97511 12 3.99985C10.1756 3.96861 8.36722 4.34467 6.7065 5.10064C5.04579 5.85661 3.57459 6.97346 2.40004 8.36984C2.11847 8.74733 1.97913 9.21206 2.00657 9.68219C2.03401 10.1523 2.22647 10.5977 2.55004 10.9398L10.55 19.3798C10.7371 19.5761 10.9621 19.7322 11.2114 19.8388C11.4606 19.9454 11.7289 20.0002 12 19.9998C12.2711 20.0002 12.5395 19.9454 12.7887 19.8388C13.038 19.7322 13.263 19.5761 13.45 19.3798L13.57 19.2498C13.2026 18.5563 13.0071 17.7847 13 16.9998C13 15.6738 13.5268 14.402 14.4645 13.4643C15.4022 12.5266 16.674 11.9998 18 11.9998C18.6902 12.0049 19.3715 12.1548 20 12.4398L21.42 10.9398C21.7507 10.6007 21.9502 10.1553 21.9832 9.68285C22.0161 9.2104 21.8804 8.74157 21.6 8.35984Z" fill="#141414"/>
</svg>
