<svg width="24" height="24" viewBox="0 0 24 24" fill="none" xmlns="http://www.w3.org/2000/svg">
<path d="M20.06 7.6801L13.06 3.3001C12.7421 3.10143 12.3748 2.99609 12 2.99609C11.6252 2.99609 11.2579 3.10143 10.94 3.3001L3.94 7.6801C3.65321 7.85934 3.41656 8.10838 3.25216 8.40394C3.08777 8.69949 3.00101 9.0319 3 9.3701V19.0001C3 19.5305 3.21071 20.0392 3.58579 20.4143C3.96086 20.7894 4.46957 21.0001 5 21.0001V12.5001C5 12.1023 5.15804 11.7207 5.43934 11.4394C5.72064 11.1581 6.10218 11.0001 6.5 11.0001H17.5C17.8978 11.0001 18.2794 11.1581 18.5607 11.4394C18.842 11.7207 19 12.1023 19 12.5001V21.0001C19.5304 21.0001 20.0391 20.7894 20.4142 20.4143C20.7893 20.0392 21 19.5305 21 19.0001V9.3701C20.999 9.0319 20.9122 8.69949 20.7478 8.40394C20.5834 8.10838 20.3468 7.85934 20.06 7.6801ZM14 9.0001H10C9.73478 9.0001 9.48043 8.89474 9.29289 8.7072C9.10536 8.51967 9 8.26531 9 8.0001C9 7.73488 9.10536 7.48053 9.29289 7.29299C9.48043 7.10546 9.73478 7.0001 10 7.0001H14C14.2652 7.0001 14.5196 7.10546 14.7071 7.29299C14.8946 7.48053 15 7.73488 15 8.0001C15 8.26531 14.8946 8.51967 14.7071 8.7072C14.5196 8.89474 14.2652 9.0001 14 9.0001ZM10.5 18.0001H7.5C7.36739 18.0001 7.24021 18.0528 7.14645 18.1465C7.05268 18.2403 7 18.3675 7 18.5001V20.5001C7 20.6327 7.05268 20.7599 7.14645 20.8537C7.24021 20.9474 7.36739 21.0001 7.5 21.0001H10.5C10.6326 21.0001 10.7598 20.9474 10.8536 20.8537C10.9473 20.7599 11 20.6327 11 20.5001V18.5001C11 18.3675 10.9473 18.2403 10.8536 18.1465C10.7598 18.0528 10.6326 18.0001 10.5 18.0001ZM10.5 13.0001H7.5C7.36739 13.0001 7.24021 13.0528 7.14645 13.1465C7.05268 13.2403 7 13.3675 7 13.5001V15.5001C7 15.6327 7.05268 15.7599 7.14645 15.8537C7.24021 15.9474 7.36739 16.0001 7.5 16.0001H10.5C10.6326 16.0001 10.7598 15.9474 10.8536 15.8537C10.9473 15.7599 11 15.6327 11 15.5001V13.5001C11 13.3675 10.9473 13.2403 10.8536 13.1465C10.7598 13.0528 10.6326 13.0001 10.5 13.0001ZM16.5 18.0001H13.5C13.3674 18.0001 13.2402 18.0528 13.1464 18.1465C13.0527 18.2403 13 18.3675 13 18.5001V20.5001C13 20.6327 13.0527 20.7599 13.1464 20.8537C13.2402 20.9474 13.3674 21.0001 13.5 21.0001H16.5C16.6326 21.0001 16.7598 20.9474 16.8536 20.8537C16.9473 20.7599 17 20.6327 17 20.5001V18.5001C17 18.3675 16.9473 18.2403 16.8536 18.1465C16.7598 18.0528 16.6326 18.0001 16.5 18.0001ZM16.5 13.0001H13.5C13.3674 13.0001 13.2402 13.0528 13.1464 13.1465C13.0527 13.2403 13 13.3675 13 13.5001V15.5001C13 15.6327 13.0527 15.7599 13.1464 15.8537C13.2402 15.9474 13.3674 16.0001 13.5 16.0001H16.5C16.6326 16.0001 16.7598 15.9474 16.8536 15.8537C16.9473 15.7599 17 15.6327 17 15.5001V13.5001C17 13.3675 16.9473 13.2403 16.8536 13.1465C16.7598 13.0528 16.6326 13.0001 16.5 13.0001Z" fill="#141414"/>
</svg>
