<svg width="24" height="24" viewBox="0 0 24 24" fill="none" xmlns="http://www.w3.org/2000/svg">
<path d="M18.5191 15.5901L17.2291 14.2901C17.0417 14.1039 16.7883 13.9993 16.5241 13.9993C16.2599 13.9993 16.0064 14.1039 15.8191 14.2901L14.2291 12.7101L15.2291 11.7101C15.6708 11.8793 16.1366 11.9772 16.6091 12.0001C17.8017 11.9975 18.9448 11.5225 19.7881 10.6792C20.6315 9.83583 21.1064 8.69277 21.1091 7.50011C21.1074 6.65314 20.8646 5.82415 20.4091 5.11011L18.1091 7.41011L16.6991 6.00011L18.9991 3.70011C18.285 3.24457 17.4561 3.00177 16.6091 3.00011C15.4164 3.00275 14.2734 3.4777 13.43 4.32104C12.5867 5.16439 12.1117 6.30744 12.1091 7.50011C12.1149 7.98387 12.1993 8.46347 12.3591 8.92011L11.3591 9.92011L8.92909 7.41011L6.99909 3.55011C6.92988 3.40701 6.82755 3.28248 6.7006 3.18683C6.57365 3.09118 6.42572 3.02717 6.26909 3.00011C6.11226 2.97428 5.95153 2.98621 5.80023 3.0349C5.64893 3.0836 5.51141 3.16765 5.39909 3.28011L3.39909 5.28011C3.28334 5.39251 3.19652 5.53126 3.14602 5.68449C3.09552 5.83773 3.08285 6.00091 3.10909 6.16011C3.13511 6.31577 3.1976 6.46305 3.29145 6.58993C3.38531 6.71681 3.50786 6.81967 3.64909 6.89011L7.51909 8.82011L9.98909 11.2901L3.69909 17.5901C3.48972 17.7694 3.31968 17.99 3.19964 18.2382C3.07959 18.4863 3.01213 18.7566 3.00149 19.032C2.99085 19.3074 3.03726 19.5821 3.13781 19.8388C3.23836 20.0954 3.39088 20.3285 3.58579 20.5234C3.7807 20.7183 4.01379 20.8708 4.27044 20.9714C4.52709 21.0719 4.80176 21.1183 5.07719 21.1077C5.35263 21.0971 5.6229 21.0296 5.87103 20.9096C6.11916 20.7895 6.33979 20.6195 6.51909 20.4101L12.8191 14.1201L14.3991 15.7101C14.2128 15.8975 14.1083 16.1509 14.1083 16.4151C14.1083 16.6793 14.2128 16.9327 14.3991 17.1201L15.6991 18.4101L17.6991 20.4101C18.0817 20.7378 18.5738 20.909 19.0772 20.8895C19.5805 20.8701 20.058 20.6614 20.4142 20.3052C20.7704 19.949 20.9791 19.4716 20.9985 18.9682C21.018 18.4649 20.8467 17.9727 20.5191 17.5901L18.5191 15.5901Z" fill="#141414"/>
</svg>
