<svg width="24" height="24" viewBox="0 0 24 24" fill="none" xmlns="http://www.w3.org/2000/svg">
<path d="M8.17 16.9301C7.22978 16.7718 6.35441 16.348 5.6471 15.7086C4.9398 15.0693 4.43004 14.241 4.17794 13.3215C3.92584 12.402 3.94191 11.4295 4.22425 10.5188C4.50659 9.60814 5.04342 8.79717 5.77146 8.18151C6.49951 7.56586 7.3884 7.17121 8.33333 7.04408C9.27827 6.91696 10.2399 7.06266 11.1047 7.46401C11.9696 7.86536 12.7017 8.50562 13.2146 9.30932C13.7276 10.113 14.0001 11.0466 14 12.0001C14 12.2653 14.1054 12.5196 14.2929 12.7072C14.4804 12.8947 14.7348 13.0001 15 13.0001C15.2652 13.0001 15.5196 12.8947 15.7071 12.7072C15.8946 12.5196 16 12.2653 16 12.0001C16.0003 10.6656 15.6191 9.35876 14.9014 8.2337C14.1836 7.10864 13.1592 6.21219 11.9489 5.64999C10.7386 5.0878 9.39277 4.8833 8.07008 5.06058C6.7474 5.23787 5.50295 5.78955 4.48339 6.65062C3.46384 7.51168 2.71167 8.64625 2.31552 9.92062C1.91938 11.195 1.89577 12.556 2.24747 13.8434C2.59918 15.1307 3.31154 16.2907 4.30062 17.1866C5.28969 18.0825 6.51426 18.677 7.83 18.9001H8C8.23969 18.9032 8.47251 18.82 8.65606 18.6659C8.83961 18.5117 8.96167 18.2967 9 18.0601C9.03746 17.8005 8.97146 17.5366 8.81621 17.3252C8.66096 17.1139 8.42889 16.972 8.17 16.9301ZM16.17 5.10007C16.0392 5.07567 15.9048 5.07762 15.7748 5.1058C15.6448 5.13399 15.5217 5.18784 15.4127 5.26421C15.3037 5.34057 15.2111 5.43792 15.1402 5.55054C15.0694 5.66316 15.0217 5.78879 15 5.92007C14.9566 6.18126 15.0185 6.44901 15.1723 6.66459C15.326 6.88017 15.5589 7.02599 15.82 7.07007C16.761 7.22652 17.6377 7.6489 18.3465 8.28738C19.0553 8.92585 19.5666 9.75377 19.8202 10.6734C20.0737 11.593 20.0589 12.566 19.7774 13.4775C19.496 14.389 18.9597 15.201 18.2318 15.8176C17.5039 16.4342 16.6148 16.8296 15.6694 16.9574C14.724 17.0851 13.7619 16.9397 12.8964 16.5383C12.031 16.137 11.2985 15.4965 10.7852 14.6923C10.272 13.8882 9.99956 12.954 10 12.0001C10 11.7349 9.89464 11.4805 9.70711 11.293C9.51957 11.1054 9.26522 11.0001 9 11.0001C8.73478 11.0001 8.48043 11.1054 8.29289 11.293C8.10536 11.4805 8 11.7349 8 12.0001C8.00038 13.2285 8.32401 14.4351 8.93837 15.4988C9.55273 16.5626 10.4362 17.4459 11.5 18.0601C12.5626 18.6783 13.7706 19.0027 15 19.0001C16.7533 18.9978 18.442 18.3377 19.732 17.1502C21.0219 15.9627 21.8193 14.3344 21.9664 12.5872C22.1134 10.8401 21.5995 9.10132 20.5262 7.71491C19.4528 6.3285 17.8983 5.39537 16.17 5.10007Z" fill="#141414"/>
</svg>
