<svg width="24" height="24" viewBox="0 0 24 24" fill="none" xmlns="http://www.w3.org/2000/svg">
<path d="M19.92 9.86C20.0731 9.95451 20.2501 10.0031 20.43 10C20.6035 9.99997 20.7741 9.95478 20.9249 9.86886C21.0757 9.78295 21.2015 9.65928 21.29 9.51C21.7505 8.75742 21.9942 7.89228 21.9942 7.01C21.9942 6.12772 21.7505 5.26258 21.29 4.51C21.1444 4.30979 20.9297 4.1707 20.6875 4.11965C20.4452 4.06861 20.1927 4.10923 19.9786 4.23366C19.7646 4.35808 19.6044 4.55748 19.5289 4.79325C19.4534 5.02902 19.468 5.28441 19.57 5.51C19.8441 5.95923 19.9926 6.4738 20 7C19.9926 7.5262 19.8441 8.04077 19.57 8.49C19.4348 8.7181 19.3957 8.99056 19.4613 9.24747C19.527 9.50438 19.6919 9.72471 19.92 9.86ZM19 12H18V5C18 4.73478 17.8946 4.48043 17.7071 4.29289C17.5196 4.10536 17.2652 4 17 4C16.7348 4 16.4804 4.10536 16.2929 4.29289C16.1054 4.48043 16 4.73478 16 5V12H5C4.20435 12 3.44129 12.3161 2.87868 12.8787C2.31607 13.4413 2 14.2044 2 15V17C2 17.7956 2.31607 18.5587 2.87868 19.1213C3.44129 19.6839 4.20435 20 5 20H19C19.7956 20 20.5587 19.6839 21.1213 19.1213C21.6839 18.5587 22 17.7956 22 17V15C22 14.2044 21.6839 13.4413 21.1213 12.8787C20.5587 12.3161 19.7956 12 19 12ZM6 17C5.80222 17 5.60888 16.9414 5.44443 16.8315C5.27998 16.7216 5.15181 16.5654 5.07612 16.3827C5.00043 16.2 4.98063 15.9989 5.01921 15.8049C5.0578 15.6109 5.15304 15.4327 5.29289 15.2929C5.43275 15.153 5.61093 15.0578 5.80491 15.0192C5.99889 14.9806 6.19996 15.0004 6.38268 15.0761C6.56541 15.1518 6.72159 15.28 6.83147 15.4444C6.94135 15.6089 7 15.8022 7 16C7 16.2652 6.89464 16.5196 6.70711 16.7071C6.51957 16.8946 6.26522 17 6 17ZM10 17C9.80222 17 9.60888 16.9414 9.44443 16.8315C9.27998 16.7216 9.15181 16.5654 9.07612 16.3827C9.00043 16.2 8.98063 15.9989 9.01921 15.8049C9.0578 15.6109 9.15304 15.4327 9.29289 15.2929C9.43275 15.153 9.61093 15.0578 9.80491 15.0192C9.99889 14.9806 10.2 15.0004 10.3827 15.0761C10.5654 15.1518 10.7216 15.28 10.8315 15.4444C10.9414 15.6089 11 15.8022 11 16C11 16.2652 10.8946 16.5196 10.7071 16.7071C10.5196 16.8946 10.2652 17 10 17ZM13.57 10C13.7499 10.0031 13.9269 9.95451 14.08 9.86C14.3081 9.72471 14.473 9.50438 14.5387 9.24747C14.6043 8.99056 14.5652 8.7181 14.43 8.49C14.1559 8.04077 14.0074 7.5262 14 7C14.0074 6.4738 14.1559 5.95923 14.43 5.51C14.532 5.28441 14.5466 5.02902 14.4711 4.79325C14.3956 4.55748 14.2354 4.35808 14.0214 4.23366C13.8073 4.10923 13.5548 4.06861 13.3125 4.11965C13.0703 4.1707 12.8556 4.30979 12.71 4.51C12.2495 5.26258 12.0058 6.12772 12.0058 7.01C12.0058 7.89228 12.2495 8.75742 12.71 9.51C12.7985 9.65928 12.9243 9.78295 13.0751 9.86886C13.2259 9.95478 13.3965 9.99997 13.57 10Z" fill="#141414"/>
</svg>
