<svg width="24" height="24" viewBox="0 0 24 24" fill="none" xmlns="http://www.w3.org/2000/svg">
<path d="M21.45 10.9398C21.7761 10.597 21.9702 10.1497 21.9977 9.67733C22.0251 9.20495 21.8842 8.73814 21.6 8.35984C20.4194 6.97124 18.9468 5.86044 17.2873 5.10676C15.6279 4.35308 13.8224 3.97511 12 3.99985C10.1756 3.96861 8.36715 4.34467 6.70644 5.10064C5.04573 5.85661 3.57453 6.97346 2.39998 8.36984C2.11841 8.74733 1.97907 9.21206 2.00651 9.68219C2.03395 10.1523 2.22641 10.5977 2.54998 10.9398L10.55 19.3798C10.737 19.5761 10.962 19.7322 11.2113 19.8388C11.4606 19.9454 11.7289 20.0002 12 19.9998C12.2711 20.0002 12.5394 19.9454 12.7887 19.8388C13.0379 19.7322 13.2629 19.5761 13.45 19.3798L13.57 19.2498C13.2025 18.5563 13.007 17.7847 13 16.9998C13 15.6738 13.5268 14.402 14.4644 13.4643C15.4021 12.5266 16.6739 11.9998 18 11.9998C18.6901 12.0049 19.3715 12.1548 20 12.4398L21.45 10.9398ZM17 13.9998C16.7348 13.9998 16.4804 14.1052 16.2929 14.2927C16.1053 14.4803 16 14.7346 16 14.9998V16.9998C15.8684 16.9991 15.7379 17.0243 15.6161 17.0741C15.4942 17.1238 15.3834 17.1972 15.29 17.2898C15.1963 17.3828 15.1219 17.4934 15.0711 17.6153C15.0203 17.7371 14.9942 17.8678 14.9942 17.9998C14.9942 18.1319 15.0203 18.2626 15.0711 18.3844C15.1219 18.5063 15.1963 18.6169 15.29 18.7098L16.29 19.7098C16.3834 19.8025 16.4942 19.8759 16.6161 19.9256C16.7379 19.9754 16.8684 20.0006 17 19.9998C17.1312 20.0032 17.2613 19.9758 17.38 19.9198C17.5626 19.8448 17.7189 19.7174 17.8293 19.5537C17.9396 19.39 17.999 19.1973 18 18.9998V14.9998C18 14.7346 17.8946 14.4803 17.7071 14.2927C17.5196 14.1052 17.2652 13.9998 17 13.9998ZM21.71 15.2898L20.71 14.2898C20.5694 14.1511 20.3908 14.0571 20.1968 14.0197C20.0028 13.9823 19.8021 14.0033 19.62 14.0798C19.4374 14.1549 19.281 14.2823 19.1707 14.446C19.0604 14.6097 19.001 14.8024 19 14.9998V18.9998C19 19.2651 19.1053 19.5194 19.2929 19.707C19.4804 19.8945 19.7348 19.9998 20 19.9998C20.2652 19.9998 20.5196 19.8945 20.7071 19.707C20.8946 19.5194 21 19.2651 21 18.9998V16.9998C21.1316 17.0006 21.2621 16.9754 21.3839 16.9256C21.5057 16.8759 21.6165 16.8025 21.71 16.7098C21.8037 16.6169 21.8781 16.5063 21.9289 16.3844C21.9796 16.2626 22.0058 16.1319 22.0058 15.9998C22.0058 15.8678 21.9796 15.7371 21.9289 15.6153C21.8781 15.4934 21.8037 15.3828 21.71 15.2898Z" fill="#141414"/>
</svg>
