<svg width="24" height="24" viewBox="0 0 24 24" fill="none" xmlns="http://www.w3.org/2000/svg">
<path d="M21.6 8.35984C20.4194 6.97124 18.9468 5.86044 17.2873 5.10676C15.6279 4.35308 13.8224 3.97511 12 3.99985C10.1756 3.96861 8.36715 4.34467 6.70644 5.10064C5.04573 5.85661 3.57453 6.97346 2.39998 8.36984C2.11841 8.74733 1.97907 9.21206 2.00651 9.68219C2.03395 10.1523 2.22641 10.5977 2.54998 10.9398L10.55 19.3798C10.737 19.5761 10.962 19.7322 11.2113 19.8388C11.4606 19.9454 11.7289 20.0002 12 19.9998C12.2711 20.0002 12.5394 19.9454 12.7887 19.8388C13.0379 19.7322 13.2629 19.5761 13.45 19.3798L13.57 19.2498C13.2025 18.5563 13.007 17.7847 13 16.9998C13 15.6738 13.5268 14.402 14.4644 13.4643C15.4021 12.5266 16.6739 11.9998 18 11.9998C18.6901 12.0049 19.3715 12.1548 20 12.4398L21.42 10.9398C21.7506 10.6007 21.9502 10.1553 21.9831 9.68285C22.0161 9.2104 21.8803 8.74157 21.6 8.35984ZM20 15.9998H19V14.9998C19 14.7346 18.8946 14.4803 18.7071 14.2927C18.5196 14.1052 18.2652 13.9998 18 13.9998C17.7348 13.9998 17.4804 14.1052 17.2929 14.2927C17.1053 14.4803 17 14.7346 17 14.9998V15.9998H16C15.7348 15.9998 15.4804 16.1052 15.2929 16.2927C15.1053 16.4803 15 16.7346 15 16.9998C15 17.2651 15.1053 17.5194 15.2929 17.707C15.4804 17.8945 15.7348 17.9998 16 17.9998H17V18.9998C17 19.2651 17.1053 19.5194 17.2929 19.707C17.4804 19.8945 17.7348 19.9998 18 19.9998C18.2652 19.9998 18.5196 19.8945 18.7071 19.707C18.8946 19.5194 19 19.2651 19 18.9998V17.9998H20C20.2652 17.9998 20.5196 17.8945 20.7071 17.707C20.8946 17.5194 21 17.2651 21 16.9998C21 16.7346 20.8946 16.4803 20.7071 16.2927C20.5196 16.1052 20.2652 15.9998 20 15.9998Z" fill="#141414"/>
</svg>
