<svg width="24" height="24" viewBox="0 0 24 24" fill="none" xmlns="http://www.w3.org/2000/svg">
<path d="M20 6.83989C19.3192 5.48005 18.3295 4.29851 17.11 3.38989C16.7598 3.13175 16.335 2.99483 15.9 2.99989C15.4718 2.99915 15.0547 3.13586 14.71 3.38989L16.66 5.33989C17.4026 6.08317 17.9916 6.96545 18.3932 7.93634C18.7949 8.90723 19.0014 9.94773 19.0009 10.9984C19.0005 12.0491 18.793 13.0894 18.3905 14.06C17.988 15.0305 17.3983 15.9123 16.655 16.6549C15.9117 17.3975 15.0294 17.9865 14.0586 18.3881C13.0877 18.7898 12.0472 18.9963 10.9965 18.9958C9.94577 18.9953 8.90546 18.7879 7.93492 18.3854C6.96438 17.9829 6.08263 17.3932 5.34 16.6499L3.39 14.6999C3.13597 15.0446 2.99927 15.4617 3 15.8899C2.99927 16.3181 3.13597 16.7352 3.39 17.0799C4.62094 18.7246 6.33855 19.94 8.29915 20.5536C10.2598 21.1671 12.3638 21.1477 14.3127 20.498C16.2617 19.8484 17.9565 18.6015 19.1569 16.9343C20.3572 15.2671 21.0021 13.2643 21 11.2099C21.017 9.69464 20.6743 8.19697 20 6.83989ZM8.72 16.5499C9.44457 16.8432 10.2183 16.9959 11 16.9999C12.1857 16.9996 13.3447 16.6479 14.3307 15.9894C15.3167 15.3309 16.0855 14.395 16.54 13.2999C16.9908 12.2015 17.109 10.9949 16.88 9.82989C16.6487 8.66699 16.078 7.5987 15.24 6.75989L13.24 4.75989L4.79 13.2599L6.79 15.2599C7.34499 15.8093 8.00014 16.2472 8.72 16.5499ZM12.29 8.27989C12.4832 8.1008 12.7366 8.00086 13 7.99989C13.1994 7.99945 13.3945 8.05865 13.56 8.16989C13.7216 8.28132 13.8468 8.43782 13.92 8.61989C13.9972 8.80297 14.0181 9.00489 13.98 9.19989C13.9408 9.39207 13.846 9.56848 13.7073 9.70717C13.5686 9.84586 13.3922 9.9407 13.2 9.97989C13.006 10.0211 12.8041 10.0037 12.62 9.92989C12.4389 9.85011 12.2833 9.72212 12.17 9.55989C12.0588 9.39435 11.9996 9.19933 12 8.99989C12.0012 8.73166 12.1049 8.47404 12.29 8.27989ZM12.29 12.2799C12.4832 12.1008 12.7366 12.0009 13 11.9999C13.1994 11.9994 13.3945 12.0586 13.56 12.1699C13.7216 12.2813 13.8468 12.4378 13.92 12.6199C13.9972 12.803 14.0181 13.0049 13.98 13.1999C13.9408 13.3921 13.846 13.5685 13.7073 13.7072C13.5686 13.8459 13.3922 13.9407 13.2 13.9799C13.005 14.018 12.8031 13.9971 12.62 13.9199C12.4379 13.8466 12.2814 13.7214 12.17 13.5599C12.0588 13.3944 11.9996 13.1993 12 12.9999C12.0012 12.7317 12.1049 12.474 12.29 12.2799ZM8.29 12.2799C8.48317 12.1008 8.73659 12.0009 9 11.9999C9.19945 11.9994 9.39447 12.0586 9.56 12.1699C9.72223 12.2832 9.85022 12.4388 9.93 12.6199C10.0038 12.804 10.0212 13.0059 9.98 13.1999C9.94437 13.3957 9.85111 13.5765 9.71215 13.719C9.5732 13.8615 9.39487 13.9593 9.2 13.9999C9.005 14.038 8.80308 14.0171 8.62 13.9399C8.43793 13.8666 8.28143 13.7414 8.17 13.5799C8.05487 13.4087 7.99549 13.2061 8 12.9999C8.00115 12.7317 8.10492 12.474 8.29 12.2799Z" fill="#141414"/>
</svg>
