<svg width="24" height="24" viewBox="0 0 24 24" fill="none" xmlns="http://www.w3.org/2000/svg">
<path d="M18.71 15.29C18.617 15.1963 18.5064 15.1219 18.3846 15.0711C18.2627 15.0203 18.132 14.9942 18 14.9942C17.868 14.9942 17.7373 15.0203 17.6154 15.0711C17.4936 15.1219 17.383 15.1963 17.29 15.29L16.7 15.89C16.531 16.0574 16.3971 16.2569 16.3061 16.4766C16.2151 16.6964 16.1689 16.9321 16.17 17.17C16.1667 17.5329 16.2721 17.8885 16.4725 18.1912C16.6728 18.4938 16.9591 18.7296 17.2945 18.8682C17.6299 19.0069 17.9991 19.0422 18.3547 18.9694C18.7103 18.8967 19.036 18.7193 19.29 18.46C19.6265 18.121 19.8153 17.6627 19.8153 17.185C19.8153 16.7073 19.6265 16.249 19.29 15.91L18.71 15.29ZM13 19H12V14H8V19H7C6.73478 19 6.48043 19.1054 6.29289 19.2929C6.10536 19.4804 6 19.7348 6 20C6 20.2652 6.10536 20.5196 6.29289 20.7071C6.48043 20.8946 6.73478 21 7 21H13C13.2652 21 13.5196 20.8946 13.7071 20.7071C13.8946 20.5196 14 20.2652 14 20C14 19.7348 13.8946 19.4804 13.7071 19.2929C13.5196 19.1054 13.2652 19 13 19ZM15 7H13.82C13.6707 6.5806 13.4299 6.19969 13.1151 5.8849C12.8003 5.57011 12.4194 5.32932 12 5.18V5C12 4.46957 11.7893 3.96086 11.4142 3.58579C11.0391 3.21071 10.5304 3 10 3C9.46957 3 8.96086 3.21071 8.58579 3.58579C8.21071 3.96086 8 4.46957 8 5V5.18C7.5806 5.32932 7.19969 5.57011 6.8849 5.8849C6.57011 6.19969 6.32932 6.5806 6.18 7H6C5.46957 7 4.96086 7.21071 4.58579 7.58579C4.21071 7.96086 4 8.46957 4 9C4 9.53043 4.21071 10.0391 4.58579 10.4142C4.96086 10.7893 5.46957 11 6 11H6.18C6.38631 11.5835 6.76807 12.089 7.27293 12.4471C7.7778 12.8051 8.38106 12.9983 9 13H11C11.6189 12.9983 12.2222 12.8051 12.7271 12.4471C13.2319 12.089 13.6137 11.5835 13.82 11H15C15.2652 11 15.5196 11.1054 15.7071 11.2929C15.8946 11.4804 16 11.7348 16 12V13C16 13.2652 16.1054 13.5196 16.2929 13.7071C16.4804 13.8946 16.7348 14 17 14H19C19.2652 14 19.5196 13.8946 19.7071 13.7071C19.8946 13.5196 20 13.2652 20 13V12C20 10.6739 19.4732 9.40215 18.5355 8.46447C17.5979 7.52678 16.3261 7 15 7Z" fill="#141414"/>
</svg>
