<svg width="24" height="24" viewBox="0 0 24 24" fill="none" xmlns="http://www.w3.org/2000/svg">
<path d="M16 3H15C15 2.73478 14.8946 2.48043 14.7071 2.29289C14.5196 2.10536 14.2652 2 14 2H10C9.73478 2 9.48043 2.10536 9.29289 2.29289C9.10536 2.48043 9 2.73478 9 3H8C6.93913 3 5.92172 3.42143 5.17157 4.17157C4.42143 4.92172 4 5.93913 4 7V18.28C3.69772 18.4545 3.44638 18.7051 3.27095 19.0068C3.09552 19.3086 3.00211 19.651 3 20C3 20.5304 3.21071 21.0391 3.58579 21.4142C3.96086 21.7893 4.46957 22 5 22C5.53043 22 6.03914 21.7893 6.41421 21.4142C6.78929 21.0391 7 20.5304 7 20C6.99789 19.651 6.90448 19.3086 6.72905 19.0068C6.55362 18.7051 6.30228 18.4545 6 18.28V16H18V21C18 21.2652 18.1054 21.5196 18.2929 21.7071C18.4804 21.8946 18.7348 22 19 22C19.2652 22 19.5196 21.8946 19.7071 21.7071C19.8946 21.5196 20 21.2652 20 21V7C20 5.93913 19.5786 4.92172 18.8284 4.17157C18.0783 3.42143 17.0609 3 16 3ZM11 14H6V11H11V14ZM18 14H13V11H18V14ZM18 9H6V7C6 6.46957 6.21071 5.96086 6.58579 5.58579C6.96086 5.21071 7.46957 5 8 5H9C9 5.26522 9.10536 5.51957 9.29289 5.70711C9.48043 5.89464 9.73478 6 10 6H14C14.2652 6 14.5196 5.89464 14.7071 5.70711C14.8946 5.51957 15 5.26522 15 5H16C16.5304 5 17.0391 5.21071 17.4142 5.58579C17.7893 5.96086 18 6.46957 18 7V9Z" fill="#141414"/>
</svg>
