<svg width="24" height="24" viewBox="0 0 24 24" fill="none" xmlns="http://www.w3.org/2000/svg">
<path d="M18 13.9998C17.7348 13.9998 17.4805 14.1052 17.2929 14.2927C17.1054 14.4803 17 14.7346 17 14.9998V16.9998C17 17.2651 17.1054 17.5194 17.2929 17.707C17.4805 17.8945 17.7348 17.9998 18 17.9998C18.2653 17.9998 18.5196 17.8945 18.7071 17.707C18.8947 17.5194 19 17.2651 19 16.9998V14.9998C19 14.7346 18.8947 14.4803 18.7071 14.2927C18.5196 14.1052 18.2653 13.9998 18 13.9998ZM18 18.9998C17.8023 18.9998 17.6089 19.0585 17.4445 19.1684C17.28 19.2783 17.1518 19.4344 17.0762 19.6172C17.0005 19.7999 16.9807 20.001 17.0193 20.1949C17.0578 20.3889 17.1531 20.5671 17.2929 20.707C17.4328 20.8468 17.611 20.942 17.8049 20.9806C17.9989 21.0192 18.2 20.9994 18.3827 20.9237C18.5655 20.848 18.7216 20.7199 18.8315 20.5554C18.9414 20.391 19 20.1976 19 19.9998C19 19.7346 18.8947 19.4803 18.7071 19.2927C18.5196 19.1052 18.2653 18.9998 18 18.9998ZM21.6 8.35984C20.4195 6.97124 18.9469 5.86044 17.2874 5.10676C15.6279 4.35308 13.8225 3.97511 12 3.99985C10.1756 3.96861 8.36722 4.34467 6.7065 5.10064C5.04579 5.85661 3.57459 6.97346 2.40004 8.36984C2.11847 8.74733 1.97913 9.21206 2.00657 9.68219C2.03401 10.1523 2.22647 10.5977 2.55004 10.9398L10.55 19.3798C10.7371 19.5761 10.9621 19.7322 11.2114 19.8388C11.4606 19.9454 11.7289 20.0002 12 19.9998C12.2711 20.0002 12.5395 19.9454 12.7887 19.8388C13.038 19.7322 13.263 19.5761 13.45 19.3798L13.57 19.2498C13.2026 18.5563 13.0071 17.7847 13 16.9998C13 15.6738 13.5268 14.402 14.4645 13.4643C15.4022 12.5266 16.674 11.9998 18 11.9998C18.6902 12.0049 19.3715 12.1548 20 12.4398L21.42 10.9398C21.7507 10.6007 21.9502 10.1553 21.9832 9.68285C22.0161 9.2104 21.8804 8.74157 21.6 8.35984Z" fill="#141414"/>
</svg>
