<svg width="24" height="24" viewBox="0 0 24 24" fill="none" xmlns="http://www.w3.org/2000/svg">
<path d="M10 5H14C14.2652 5 14.5196 4.89464 14.7071 4.70711C14.8946 4.51957 15 4.26522 15 4V3C15 2.73478 14.8946 2.48043 14.7071 2.29289C14.5196 2.10536 14.2652 2 14 2H10C9.73478 2 9.48043 2.10536 9.29289 2.29289C9.10536 2.48043 9 2.73478 9 3V4C9 4.26522 9.10536 4.51957 9.29289 4.70711C9.48043 4.89464 9.73478 5 10 5ZM17 13C17 12.4696 16.7893 11.9609 16.4142 11.5858C16.0391 11.2107 15.5304 11 15 11C15.5304 11 16.0391 10.7893 16.4142 10.4142C16.7893 10.0391 17 9.53043 17 9C17 8.46957 16.7893 7.96086 16.4142 7.58579C16.0391 7.21071 15.5304 7 15 7H9C8.46957 7 7.96086 7.21071 7.58579 7.58579C7.21071 7.96086 7 8.46957 7 9C7 9.53043 7.21071 10.0391 7.58579 10.4142C7.96086 10.7893 8.46957 11 9 11C8.46957 11 7.96086 11.2107 7.58579 11.5858C7.21071 11.9609 7 12.4696 7 13C7 13.5304 7.21071 14.0391 7.58579 14.4142C7.96086 14.7893 8.46957 15 9 15C8.46957 15 7.96086 15.2107 7.58579 15.5858C7.21071 15.9609 7 16.4696 7 17V20C7 20.5304 7.21071 21.0391 7.58579 21.4142C7.96086 21.7893 8.46957 22 9 22H15C15.5304 22 16.0391 21.7893 16.4142 21.4142C16.7893 21.0391 17 20.5304 17 20V17C17 16.4696 16.7893 15.9609 16.4142 15.5858C16.0391 15.2107 15.5304 15 15 15C15.5304 15 16.0391 14.7893 16.4142 14.4142C16.7893 14.0391 17 13.5304 17 13Z" fill="#141414"/>
</svg>
