<svg width="24" height="24" viewBox="0 0 24 24" fill="none" xmlns="http://www.w3.org/2000/svg">
<path d="M7 4H17C17.2652 4 17.5196 3.89464 17.7071 3.70711C17.8946 3.51957 18 3.26522 18 3C18 2.73478 17.8946 2.48043 17.7071 2.29289C17.5196 2.10536 17.2652 2 17 2H7C6.73478 2 6.48043 2.10536 6.29289 2.29289C6.10536 2.48043 6 2.73478 6 3C6 3.26522 6.10536 3.51957 6.29289 3.70711C6.48043 3.89464 6.73478 4 7 4ZM5 8H19C19.2652 8 19.5196 7.89464 19.7071 7.70711C19.8946 7.51957 20 7.26522 20 7C20 6.73478 19.8946 6.48043 19.7071 6.29289C19.5196 6.10536 19.2652 6 19 6H5C4.73478 6 4.48043 6.10536 4.29289 6.29289C4.10536 6.48043 4 6.73478 4 7C4 7.26522 4.10536 7.51957 4.29289 7.70711C4.48043 7.89464 4.73478 8 5 8ZM19 10H5C4.20435 10 3.44129 10.3161 2.87868 10.8787C2.31607 11.4413 2 12.2044 2 13V19C2 19.7956 2.31607 20.5587 2.87868 21.1213C3.44129 21.6839 4.20435 22 5 22H19C19.7956 22 20.5587 21.6839 21.1213 21.1213C21.6839 20.5587 22 19.7956 22 19V13C22 12.2044 21.6839 11.4413 21.1213 10.8787C20.5587 10.3161 19.7956 10 19 10ZM14.55 16.83L11.55 18.83C11.3996 18.929 11.2252 18.9856 11.0453 18.9938C10.8654 19.002 10.6867 18.9614 10.5279 18.8764C10.3692 18.7914 10.2363 18.6651 10.1434 18.5108C10.0505 18.3566 10.0009 18.1801 10 18V14C10.0005 13.8191 10.05 13.6417 10.1434 13.4867C10.2367 13.3318 10.3703 13.205 10.53 13.12C10.6864 13.0397 10.8611 13.0021 11.0367 13.0108C11.2123 13.0196 11.3824 13.0745 11.53 13.17L14.53 15.17C14.6661 15.2615 14.7777 15.385 14.8548 15.5298C14.9319 15.6745 14.9722 15.836 14.9722 16C14.9722 16.164 14.9319 16.3255 14.8548 16.4702C14.7777 16.615 14.6661 16.7385 14.53 16.83H14.55Z" fill="#141414"/>
</svg>
