<svg width="24" height="24" viewBox="0 0 24 24" fill="none" xmlns="http://www.w3.org/2000/svg">
<path d="M17.7002 10.3901L12.8502 2.46008C12.4902 1.87008 11.5102 1.87008 11.1402 2.46008L6.29023 10.3801C5.44023 11.7601 4.99023 13.3501 4.99023 14.9801C4.99023 18.8401 8.13023 21.9801 11.9902 21.9801C15.8502 21.9801 18.9902 18.8401 18.9902 14.9801C18.9902 13.3601 18.5402 11.7701 17.6902 10.3801L17.7002 10.3901ZM15.7002 13.7101L11.7002 17.7101C11.5002 17.9101 11.2502 18.0001 10.9902 18.0001C10.7302 18.0001 10.4802 17.9001 10.2802 17.7101L8.28023 15.7101C7.89023 15.3201 7.89023 14.6901 8.28023 14.3001C8.67023 13.9101 9.30023 13.9101 9.69023 14.3001L10.9802 15.5901L14.2702 12.3001C14.6602 11.9101 15.2902 11.9101 15.6802 12.3001C16.0702 12.6901 16.0702 13.3201 15.6802 13.7101H15.7002Z" fill="#141414"/>
</svg>
