<svg width="24" height="24" viewBox="0 0 24 24" fill="none" xmlns="http://www.w3.org/2000/svg">
<path opacity="0.2" d="M21.34 8.5902C18.7785 6.27828 15.4505 4.99854 12 4.99854C8.54941 4.99854 5.22148 6.27828 2.65996 8.5902C2.46238 8.7679 2.34347 9.01681 2.32941 9.28217C2.31534 9.54753 2.40727 9.80762 2.58496 10.0052C2.76266 10.2028 3.01157 10.3217 3.27693 10.3358C3.5423 10.3498 3.80238 10.2579 3.99996 10.0802C6.19295 8.09787 9.04382 7.00034 12 7.00034C14.9561 7.00034 17.807 8.09787 20 10.0802C20.1848 10.2433 20.4235 10.3323 20.67 10.3302C20.8095 10.3299 20.9474 10.3003 21.0749 10.2435C21.2023 10.1867 21.3165 10.1038 21.41 10.0002C21.5872 9.80374 21.6794 9.54503 21.6663 9.28074C21.6531 9.01646 21.5358 8.76815 21.34 8.5902ZM12 17.0002C11.7033 17.0002 11.4133 17.0882 11.1666 17.253C10.9199 17.4178 10.7277 17.6521 10.6141 17.9262C10.5006 18.2003 10.4709 18.5019 10.5288 18.7928C10.5867 19.0838 10.7295 19.3511 10.9393 19.5609C11.1491 19.7706 11.4164 19.9135 11.7073 19.9714C11.9983 20.0293 12.2999 19.9996 12.574 19.886C12.8481 19.7725 13.0823 19.5802 13.2472 19.3336C13.412 19.0869 13.5 18.7969 13.5 18.5002C13.5 18.1024 13.3419 17.7208 13.0606 17.4395C12.7793 17.1582 12.3978 17.0002 12 17.0002ZM8.40996 14.2102C8.19779 14.3693 8.05752 14.6062 8.02001 14.8688C7.98251 15.1313 8.05083 15.398 8.20996 15.6102C8.36909 15.8224 8.60599 15.9626 8.86854 16.0002C9.13109 16.0377 9.39779 15.9693 9.60996 15.8102C10.3005 15.2956 11.1388 15.0177 12 15.0177C12.8612 15.0177 13.6994 15.2956 14.39 15.8102C14.5631 15.94 14.7736 16.0102 14.99 16.0102C15.1452 16.0102 15.2983 15.9741 15.4372 15.9046C15.576 15.8352 15.6968 15.7344 15.79 15.6102C15.8688 15.5051 15.9261 15.3856 15.9587 15.2584C15.9913 15.1312 15.9985 14.9988 15.9799 14.8688C15.9613 14.7388 15.9173 14.6137 15.8504 14.5007C15.7835 14.3877 15.695 14.289 15.59 14.2102C14.5532 13.436 13.2939 13.0177 12 13.0177C10.706 13.0177 9.44674 13.436 8.40996 14.2102ZM12 9.0002C9.61996 9.0024 7.31877 9.85338 5.50996 11.4002C5.3084 11.5726 5.18357 11.818 5.16294 12.0824C5.14232 12.3468 5.22757 12.6086 5.39996 12.8102C5.57236 13.0118 5.81776 13.1366 6.08218 13.1572C6.34661 13.1779 6.6084 13.0926 6.80996 12.9202C8.25762 11.6861 10.0977 11.0082 12 11.0082C13.9023 11.0082 15.7423 11.6861 17.19 12.9202C17.3915 13.0926 17.6533 13.1779 17.9177 13.1572C18.1822 13.1366 18.4276 13.0118 18.6 12.8102C18.7724 12.6086 18.8576 12.3468 18.837 12.0824C18.8164 11.818 18.6915 11.5726 18.49 11.4002C16.6812 9.85338 14.38 9.0024 12 9.0002Z" fill="#141414"/>
<path d="M11.9999 17.0002C11.7033 17.0002 11.4133 17.0881 11.1666 17.253C10.9199 17.4178 10.7277 17.6521 10.6141 17.9261C10.5006 18.2002 10.4709 18.5018 10.5288 18.7928C10.5866 19.0838 10.7295 19.3511 10.9393 19.5608C11.1491 19.7706 11.4163 19.9135 11.7073 19.9713C11.9983 20.0292 12.2999 19.9995 12.574 19.886C12.8481 19.7725 13.0823 19.5802 13.2471 19.3335C13.412 19.0869 13.4999 18.7968 13.4999 18.5002C13.4999 18.1023 13.3419 17.7208 13.0606 17.4395C12.7793 17.1582 12.3978 17.0002 11.9999 17.0002ZM8.40994 14.2102C8.19777 14.3693 8.0575 14.6062 8.01999 14.8687C7.98249 15.1313 8.05081 15.398 8.20994 15.6102C8.36907 15.8223 8.60597 15.9626 8.86852 16.0001C9.13107 16.0376 9.39777 15.9693 9.60994 15.8102C10.3005 15.2956 11.1387 15.0176 11.9999 15.0176C12.8612 15.0176 13.6994 15.2956 14.3899 15.8102C14.563 15.94 14.7736 16.0102 14.9899 16.0102C15.1452 16.0102 15.2983 15.974 15.4372 15.9046C15.576 15.8352 15.6968 15.7344 15.7899 15.6102C15.8687 15.5051 15.9261 15.3856 15.9587 15.2584C15.9913 15.1311 15.9985 14.9988 15.9799 14.8687C15.9613 14.7387 15.9173 14.6137 15.8504 14.5007C15.7835 14.3877 15.695 14.289 15.5899 14.2102C14.5532 13.436 13.2939 13.0177 11.9999 13.0177C10.706 13.0177 9.44672 13.436 8.40994 14.2102ZM18.4899 11.4002C16.6786 9.85088 14.3735 8.99951 11.9899 8.99951C9.60642 8.99951 7.30127 9.85088 5.48994 11.4002C5.28838 11.5726 5.16355 11.818 5.14292 12.0824C5.1223 12.3468 5.20755 12.6086 5.37994 12.8102C5.55234 13.0117 5.79774 13.1366 6.06216 13.1572C6.32659 13.1778 6.58838 13.0926 6.78994 12.9202C8.2376 11.6861 10.0776 11.0082 11.9799 11.0082C13.8822 11.0082 15.7223 11.6861 17.1699 12.9202C17.3715 13.0926 17.6333 13.1778 17.8977 13.1572C18.1622 13.1366 18.4076 13.0117 18.5799 12.8102C18.7523 12.6086 18.8376 12.3468 18.817 12.0824C18.7963 11.818 18.6715 11.5726 18.4699 11.4002H18.4899Z" fill="#141414"/>
</svg>
