<svg width="24" height="24" viewBox="0 0 24 24" fill="none" xmlns="http://www.w3.org/2000/svg">
<path d="M7.00001 11.27C6.99328 11.4386 7.03254 11.6058 7.11357 11.7538C7.1946 11.9017 7.31435 12.0249 7.46001 12.11C7.62381 12.1939 7.76127 12.3214 7.85726 12.4784C7.95325 12.6355 8.00405 12.816 8.00405 13C8.00405 13.184 7.95325 13.3645 7.85726 13.5216C7.76127 13.6786 7.62381 13.8061 7.46001 13.89C7.31435 13.9751 7.1946 14.0983 7.11357 14.2462C7.03254 14.3942 6.99328 14.5614 7.00001 14.73V20C7.00001 20.5304 7.21072 21.0391 7.58579 21.4142C7.96087 21.7893 8.46957 22 9.00001 22H15C15.5304 22 16.0391 21.7893 16.4142 21.4142C16.7893 21.0391 17 20.5304 17 20V14.73C17.0067 14.5614 16.9675 14.3942 16.8864 14.2462C16.8054 14.0983 16.6857 13.9751 16.54 13.89C16.3762 13.8061 16.2387 13.6786 16.1427 13.5216C16.0468 13.3645 15.996 13.184 15.996 13C15.996 12.816 16.0468 12.6355 16.1427 12.4784C16.2387 12.3214 16.3762 12.1939 16.54 12.11C16.6857 12.0249 16.8054 11.9017 16.8864 11.7538C16.9675 11.6058 17.0067 11.4386 17 11.27V10H7.00001V11.27ZM15 5H14V3C14 2.73478 13.8946 2.48043 13.7071 2.29289C13.5196 2.10536 13.2652 2 13 2H11C10.7348 2 10.4804 2.10536 10.2929 2.29289C10.1054 2.48043 10 2.73478 10 3V5H9.00001C8.46957 5 7.96087 5.21071 7.58579 5.58579C7.21072 5.96086 7.00001 6.46957 7.00001 7V8H17V7C17 6.46957 16.7893 5.96086 16.4142 5.58579C16.0391 5.21071 15.5304 5 15 5Z" fill="#141414"/>
</svg>
