<svg width="24" height="24" viewBox="0 0 24 24" fill="none" xmlns="http://www.w3.org/2000/svg">
<path d="M17.7 10.4001L12.85 2.48005C12.7603 2.33534 12.6352 2.21593 12.4864 2.13311C12.3377 2.0503 12.1702 2.00684 12 2.00684C11.8298 2.00684 11.6623 2.0503 11.5136 2.13311C11.3648 2.21593 11.2397 2.33534 11.15 2.48005L6.3 10.4001C5.4515 11.7845 5.00164 13.3763 5 15.0001C5 16.8566 5.7375 18.637 7.05025 19.9498C8.36301 21.2626 10.1435 22.0001 12 22.0001C13.8565 22.0001 15.637 21.2626 16.9497 19.9498C18.2625 18.637 19 16.8566 19 15.0001C18.9984 13.3763 18.5485 11.7845 17.7 10.4001Z" fill="#141414"/>
</svg>
