<svg width="24" height="24" viewBox="0 0 24 24" fill="none" xmlns="http://www.w3.org/2000/svg">
<path d="M12 2C10.0222 2 8.08879 2.58649 6.4443 3.6853C4.79981 4.78412 3.51809 6.3459 2.76121 8.17317C2.00433 10.0004 1.8063 12.0111 2.19215 13.9509C2.578 15.8907 3.53041 17.6725 4.92894 19.0711C6.32746 20.4696 8.10929 21.422 10.0491 21.8079C11.9889 22.1937 13.9996 21.9957 15.8268 21.2388C17.6541 20.4819 19.2159 19.2002 20.3147 17.5557C21.4135 15.9112 22 13.9778 22 12C22 10.6868 21.7413 9.38642 21.2388 8.17317C20.7363 6.95991 19.9997 5.85752 19.0711 4.92893C18.1425 4.00035 17.0401 3.26375 15.8268 2.7612C14.6136 2.25866 13.3132 2 12 2ZM11 6.5C11 6.23478 11.1054 5.98043 11.2929 5.79289C11.4804 5.60536 11.7348 5.5 12 5.5C12.2652 5.5 12.5196 5.60536 12.7071 5.79289C12.8946 5.98043 13 6.23478 13 6.5V12.5C13 12.7652 12.8946 13.0196 12.7071 13.2071C12.5196 13.3946 12.2652 13.5 12 13.5C11.7348 13.5 11.4804 13.3946 11.2929 13.2071C11.1054 13.0196 11 12.7652 11 12.5V6.5ZM12 18.5C11.7033 18.5 11.4133 18.412 11.1666 18.2472C10.92 18.0824 10.7277 17.8481 10.6142 17.574C10.5007 17.2999 10.4709 16.9983 10.5288 16.7074C10.5867 16.4164 10.7296 16.1491 10.9393 15.9393C11.1491 15.7296 11.4164 15.5867 11.7074 15.5288C11.9983 15.4709 12.2999 15.5006 12.574 15.6142C12.8481 15.7277 13.0824 15.92 13.2472 16.1666C13.412 16.4133 13.5 16.7033 13.5 17C13.5 17.3978 13.342 17.7794 13.0607 18.0607C12.7794 18.342 12.3978 18.5 12 18.5Z" fill="#141414"/>
</svg>
