<svg width="24" height="24" viewBox="0 0 24 24" fill="none" xmlns="http://www.w3.org/2000/svg">
<path opacity="0.2" d="M12 13C10.7063 12.9993 9.44705 13.4167 8.40996 14.19C8.19779 14.3491 8.05752 14.586 8.02001 14.8486C7.98251 15.1111 8.05083 15.3778 8.20996 15.59C8.36909 15.8022 8.60599 15.9425 8.86854 15.98C9.13109 16.0175 9.39779 15.9491 9.60996 15.79C10.3009 15.2763 11.139 14.9993 12 15V13ZM12 5.00001C8.55069 5.00523 5.22475 6.28362 2.65996 8.59001C2.46238 8.7677 2.34347 9.01661 2.32941 9.28198C2.31534 9.54734 2.40727 9.80742 2.58496 10.005C2.76266 10.2026 3.01157 10.3215 3.27693 10.3356C3.5423 10.3496 3.80238 10.2577 3.99996 10.08C6.19344 8.09846 9.04398 7.001 12 7.00001C12.6398 7.00321 13.2785 7.05671 13.91 7.16001C14.3937 6.4671 15.0435 5.90665 15.8 5.53001C14.5642 5.177 13.2851 4.99861 12 5.00001ZM12.14 11C12.3027 10.3686 12.6148 9.7856 13.05 9.30001C13.05 9.22001 13.05 9.14001 13.05 9.06001C11.6996 8.90464 10.3316 9.03249 9.03336 9.43539C7.73513 9.83829 6.53514 10.5074 5.50996 11.4C5.3084 11.5724 5.18357 11.8178 5.16294 12.0822C5.14232 12.3467 5.22757 12.6084 5.39996 12.81C5.57236 13.0116 5.81776 13.1364 6.08218 13.157C6.34661 13.1777 6.6084 13.0924 6.80996 12.92C8.25648 11.683 10.0966 11.0022 12 11H12.14ZM12.14 17H12C11.7244 16.9974 11.4534 17.0708 11.2168 17.2121C10.9802 17.3533 10.787 17.5571 10.6586 17.8009C10.5302 18.0448 10.4714 18.3193 10.4887 18.5943C10.5061 18.8694 10.5989 19.1344 10.7569 19.3601C10.915 19.5859 11.1322 19.7638 11.3847 19.8742C11.6372 19.9847 11.9152 20.0234 12.1883 19.9862C12.4614 19.949 12.7189 19.8373 12.9327 19.6633C13.1464 19.4893 13.3081 19.2598 13.4 19C12.7918 18.4741 12.3562 17.7772 12.15 17H12.14Z" fill="#141414"/>
<path d="M12.14 11C12.3027 10.3686 12.6148 9.78559 13.05 9.3C13.05 9.22 13.05 9.14 13.05 9.06C11.6996 8.90464 10.3316 9.03248 9.03336 9.43538C7.73513 9.83828 6.53514 10.5074 5.50996 11.4C5.3084 11.5724 5.18357 11.8178 5.16294 12.0822C5.14231 12.3466 5.22757 12.6084 5.39996 12.81C5.57236 13.0116 5.81776 13.1364 6.08218 13.157C6.34661 13.1776 6.6084 13.0924 6.80996 12.92C8.25648 11.683 10.0966 11.0022 12 11H12.14ZM12 13C10.7063 12.9993 9.44705 13.4167 8.40996 14.19C8.19779 14.3491 8.05752 14.586 8.02001 14.8486C7.98251 15.1111 8.05083 15.3778 8.20996 15.59C8.36909 15.8022 8.60599 15.9424 8.86854 15.9799C9.13109 16.0175 9.39779 15.9491 9.60996 15.79C10.3009 15.2763 11.139 14.9993 12 15V13ZM21 10.26V10C21 9.20435 20.6839 8.44129 20.1213 7.87868C19.5587 7.31607 18.7956 7 18 7C17.2043 7 16.4413 7.31607 15.8786 7.87868C15.316 8.44129 15 9.20435 15 10V10.28C14.6977 10.4545 14.4463 10.7051 14.2709 11.0068C14.0955 11.3086 14.0021 11.651 14 12V16C14 16.5304 14.2107 17.0391 14.5858 17.4142C14.9608 17.7893 15.4695 18 16 18H20C20.5304 18 21.0391 17.7893 21.4142 17.4142C21.7892 17.0391 22 16.5304 22 16V12C21.9979 11.651 21.9044 11.3086 21.729 11.0068C21.5536 10.7051 21.3022 10.4545 21 10.28V10.26ZM18 15C17.8022 15 17.6088 14.9414 17.4444 14.8315C17.2799 14.7216 17.1518 14.5654 17.0761 14.3827C17.0004 14.2 16.9806 13.9989 17.0192 13.8049C17.0578 13.6109 17.153 13.4327 17.2929 13.2929C17.4327 13.153 17.6109 13.0578 17.8049 13.0192C17.9989 12.9806 18.1999 13.0004 18.3826 13.0761C18.5654 13.1518 18.7216 13.28 18.8314 13.4444C18.9413 13.6089 19 13.8022 19 14C19 14.2652 18.8946 14.5196 18.7071 14.7071C18.5195 14.8946 18.2652 15 18 15ZM17 10C17 9.73478 17.1053 9.48043 17.2929 9.29289C17.4804 9.10536 17.7347 9 18 9C18.2652 9 18.5195 9.10536 18.7071 9.29289C18.8946 9.48043 19 9.73478 19 10H17ZM12.15 17H12C11.7244 16.9974 11.4534 17.0708 11.2168 17.212C10.9802 17.3533 10.787 17.5571 10.6586 17.8009C10.5302 18.0448 10.4714 18.3193 10.4887 18.5943C10.5061 18.8694 10.5989 19.1343 10.7569 19.3601C10.915 19.5859 11.1322 19.7638 11.3847 19.8742C11.6372 19.9847 11.9152 20.0234 12.1883 19.9862C12.4614 19.949 12.7189 19.8373 12.9327 19.6633C13.1464 19.4893 13.3081 19.2598 13.4 19C12.7918 18.4741 12.3562 17.7771 12.15 17Z" fill="#141414"/>
</svg>
