<svg width="24" height="24" viewBox="0 0 24 24" fill="none" xmlns="http://www.w3.org/2000/svg">
<path d="M17 2H7C5.34 2 4 3.34 4 5V19C4 20.66 5.34 22 7 22V19.83C7 19.03 7.31 18.28 7.88 17.71L9.59 16H9C8.45 16 8 15.55 8 15C8 14.45 8.45 14 9 14H11V12H7C6.45 12 6 11.55 6 11C6 10.45 6.45 10 7 10H11V8H9C8.45 8 8 7.55 8 7C8 6.45 8.45 6 9 6H11V5C11 4.45 11.45 4 12 4C12.55 4 13 4.45 13 5V6H15C15.55 6 16 6.45 16 7C16 7.55 15.55 8 15 8H13V10H17C17.55 10 18 10.45 18 11C18 11.55 17.55 12 17 12H13V14H15C15.55 14 16 14.45 16 15C16 15.55 15.55 16 15 16H14.41L16.12 17.71C16.69 18.28 17 19.03 17 19.83V22C18.66 22 20 20.66 20 19V5C20 3.34 18.66 2 17 2ZM12 16.41L9.29 19.12C9.1 19.31 9 19.56 9 19.83V22H15V19.83C15 19.57 14.89 19.31 14.71 19.12L12 16.41Z" fill="#141414"/>
</svg>
