<svg width="24" height="24" viewBox="0 0 24 24" fill="none" xmlns="http://www.w3.org/2000/svg">
<path d="M6.47005 19.0699L10.1 18.0699L6.26005 16.9999C5.99483 16.931 5.71308 16.9702 5.47679 17.109C5.24049 17.2478 5.069 17.4747 5.00005 17.7399C4.93109 18.0052 4.97032 18.2869 5.10909 18.5232C5.24787 18.7595 5.47483 18.931 5.74005 18.9999L6.33005 19.1699C6.37317 19.1319 6.42008 19.0984 6.47005 19.0699ZM12 7.99994C12.2967 7.99994 12.5867 7.91197 12.8334 7.74715C13.0801 7.58233 13.2723 7.34806 13.3859 7.07397C13.4994 6.79988 13.5291 6.49828 13.4712 6.20731C13.4133 5.91634 13.2705 5.64906 13.0607 5.43928C12.8509 5.22951 12.5837 5.08664 12.2927 5.02877C12.0017 4.97089 11.7001 5.00059 11.426 5.11413C11.1519 5.22766 10.9177 5.41992 10.7528 5.66659C10.588 5.91326 10.5 6.20327 10.5 6.49994C10.5 6.89777 10.6581 7.2793 10.9394 7.56061C11.2207 7.84191 11.6022 7.99994 12 7.99994ZM10 11.6199V16.9999L12 17.5399L14 16.9999V11.5999C15.0276 11.1988 15.9108 10.4981 16.5349 9.58858C17.1591 8.67911 17.4953 7.60298 17.5 6.49994C17.4983 5.6714 17.3072 4.85422 16.9416 4.11073C16.5759 3.36725 16.0452 2.71712 15.39 2.20994C15.1805 2.04684 14.9148 1.97364 14.6513 2.00646C14.3878 2.03928 14.1482 2.17542 13.985 2.38494C13.8219 2.59447 13.7487 2.8602 13.7816 3.12369C13.8144 3.38718 13.9505 3.62684 14.16 3.78994C14.5756 4.10927 14.9124 4.51957 15.1447 4.98935C15.377 5.45912 15.4986 5.97588 15.5 6.49994C15.5 7.4282 15.1313 8.31844 14.4749 8.97482C13.8185 9.6312 12.9283 9.99994 12 9.99994C11.0718 9.99994 10.1816 9.6312 9.52517 8.97482C8.8688 8.31844 8.50005 7.4282 8.50005 6.49994C8.50153 5.97588 8.62308 5.45912 8.85537 4.98935C9.08766 4.51957 9.4245 4.10927 9.84005 3.78994C9.94379 3.70918 10.0306 3.60878 10.0956 3.49446C10.1605 3.38014 10.2023 3.25415 10.2185 3.12369C10.2348 2.99322 10.2252 2.86083 10.1903 2.73408C10.1553 2.60732 10.0958 2.48869 10.015 2.38494C9.93428 2.2812 9.83388 2.19438 9.71956 2.12944C9.60525 2.0645 9.47926 2.02271 9.34879 2.00646C9.21832 1.99021 9.08594 1.99982 8.95918 2.03473C8.83243 2.06964 8.71379 2.12918 8.61005 2.20994C7.95487 2.71712 7.4242 3.36725 7.05852 4.11073C6.69285 4.85422 6.50183 5.6714 6.50005 6.49994C6.50075 7.60639 6.83514 8.6869 7.45955 9.60032C8.08396 10.5137 8.96935 11.2176 10 11.6199ZM19 17.7399C18.9298 17.4861 18.7623 17.2703 18.5339 17.1392C18.3055 17.0081 18.0346 16.9725 17.78 17.0399L6.78005 20.0399C6.64715 20.0658 6.52089 20.1184 6.40892 20.1946C6.29695 20.2707 6.20162 20.3688 6.12868 20.4828C6.05575 20.5969 6.00674 20.7246 5.98463 20.8582C5.96252 20.9918 5.96776 21.1285 6.00005 21.2599C6.05865 21.4781 6.18939 21.67 6.37097 21.8044C6.55255 21.9387 6.77428 22.0077 7.00005 21.9999C7.08605 22.0151 7.17404 22.0151 7.26005 21.9999L18.26 18.9999C18.3937 18.97 18.5199 18.9128 18.6306 18.8321C18.7413 18.7514 18.8342 18.6487 18.9036 18.5306C18.973 18.4124 19.0173 18.2813 19.0339 18.1453C19.0505 18.0093 19.039 17.8713 19 17.7399ZM17.61 20.1899L13.94 21.1899L16.78 21.9599C16.8511 21.9838 16.9252 21.9972 17 21.9999C17.2258 22.0077 17.4475 21.9387 17.6291 21.8044C17.8107 21.67 17.9414 21.4781 18 21.2599C18.0476 21.059 18.0318 20.8483 17.9548 20.6567C17.8778 20.4651 17.7434 20.3021 17.57 20.1899H17.61Z" fill="#141414"/>
</svg>
