<svg width="24" height="24" viewBox="0 0 24 24" fill="none" xmlns="http://www.w3.org/2000/svg">
<path d="M21.5801 7.19C21.4657 6.76589 21.242 6.37921 20.9314 6.06861C20.6208 5.75801 20.2342 5.53436 19.8101 5.42C18.2601 5 12.0001 5 12.0001 5C12.0001 5 5.74006 5 4.19006 5.42C3.76595 5.53436 3.37927 5.75801 3.06867 6.06861C2.75807 6.37921 2.53441 6.76589 2.42006 7.19C2.13018 8.7767 1.98957 10.3871 2.00006 12C1.98957 13.6129 2.13018 15.2233 2.42006 16.81C2.53441 17.2341 2.75807 17.6208 3.06867 17.9314C3.37927 18.242 3.76595 18.4656 4.19006 18.58C5.74006 19 12.0001 19 12.0001 19C12.0001 19 18.2601 19 19.8101 18.58C20.2342 18.4656 20.6208 18.242 20.9314 17.9314C21.242 17.6208 21.4657 17.2341 21.5801 16.81C21.8699 15.2233 22.0105 13.6129 22.0001 12C22.0105 10.3871 21.8699 8.7767 21.5801 7.19ZM10.0001 15V9L15.1901 12L10.0001 15Z" fill="#141414"/>
</svg>
