<svg width="24" height="24" viewBox="0 0 24 24" fill="none" xmlns="http://www.w3.org/2000/svg">
<path d="M12 6C12.3955 6 12.7822 5.8827 13.1111 5.66294C13.44 5.44318 13.6963 5.13082 13.8477 4.76537C13.9991 4.39992 14.0387 3.99778 13.9615 3.60982C13.8844 3.22186 13.6939 2.86549 13.4142 2.58579C13.1345 2.30608 12.7781 2.1156 12.3901 2.03843C12.0022 1.96126 11.6 2.00087 11.2346 2.15224C10.8691 2.30362 10.5568 2.55996 10.337 2.88886C10.1173 3.21776 9.99996 3.60444 9.99996 4C9.99996 4.53043 10.2107 5.03914 10.5857 5.41421C10.9608 5.78929 11.4695 6 12 6ZM18.76 17L12 18.72L5.23996 17C4.97474 16.9363 4.6951 16.9807 4.46256 17.1232C4.23001 17.2657 4.06361 17.4948 3.99996 17.76C3.93631 18.0252 3.98062 18.3049 4.12315 18.5374C4.26567 18.7699 4.49474 18.9363 4.75996 19L7.87996 19.78L6.75996 20C6.49474 20.0318 6.25303 20.1677 6.088 20.3777C5.92297 20.5878 5.84813 20.8548 5.87996 21.12C5.91178 21.3852 6.04766 21.6269 6.2577 21.792C6.46774 21.957 6.73474 22.0318 6.99996 22C7.07967 22.0096 7.16025 22.0096 7.23996 22L12 20.78L16.76 22C16.8914 22.0356 17.0287 22.0439 17.1635 22.0246C17.2983 22.0052 17.4277 21.9585 17.5438 21.8873C17.6599 21.8162 17.7603 21.7221 17.8387 21.6107C17.9171 21.4994 17.972 21.3733 18 21.24C18.0355 21.1086 18.0439 20.9712 18.0245 20.8364C18.0052 20.7017 17.9585 20.5722 17.8873 20.4561C17.8161 20.34 17.722 20.2397 17.6107 20.1613C17.4994 20.0828 17.3732 20.028 17.24 20L16.12 19.72L19.24 19C19.3713 18.9685 19.4951 18.9114 19.6044 18.832C19.7136 18.7527 19.8062 18.6525 19.8768 18.5374C19.9473 18.4223 19.9945 18.2943 20.0157 18.161C20.0368 18.0276 20.0315 17.8913 20 17.76C19.9684 17.6287 19.9114 17.5049 19.832 17.3956C19.7526 17.2863 19.6525 17.1938 19.5374 17.1232C19.4222 17.0526 19.2943 17.0054 19.1609 16.9843C19.0275 16.9631 18.8913 16.9685 18.76 17ZM4.99996 16C5.15683 16.0019 5.31164 15.964 5.44996 15.89L6.70996 15.26C7.41902 14.9043 7.95835 14.2823 8.20996 13.53L9.48996 9.68C9.55704 9.48138 9.68486 9.30887 9.85533 9.18684C10.0258 9.06482 10.2303 8.99946 10.44 9H11V17.41L12 17.66L13 17.41V9H13.56C13.7696 8.99946 13.9741 9.06482 14.1446 9.18684C14.3151 9.30887 14.4429 9.48138 14.51 9.68L15.79 13.53C16.0416 14.2823 16.5809 14.9043 17.29 15.26L18.55 15.89C18.6883 15.964 18.8431 16.0019 19 16C19.1846 15.9994 19.3655 15.9478 19.5226 15.8507C19.6797 15.7536 19.8069 15.6149 19.89 15.45C20.0086 15.2138 20.0289 14.9403 19.9464 14.6892C19.864 14.4381 19.6855 14.2299 19.45 14.11L18.19 13.48C18.0726 13.4209 17.968 13.3393 17.8822 13.2398C17.7964 13.1402 17.7311 13.0248 17.69 12.9L16.4 9.05C16.2009 8.45389 15.8198 7.93533 15.3102 7.56751C14.8006 7.19968 14.1884 7.00118 13.56 7H10.44C9.81151 7.00118 9.19929 7.19968 8.68972 7.56751C8.18016 7.93533 7.79897 8.45389 7.59996 9.05L6.30996 12.9C6.26881 13.0248 6.20347 13.1402 6.11768 13.2398C6.03188 13.3393 5.92732 13.4209 5.80996 13.48L4.54996 14.11C4.31443 14.2299 4.13594 14.4381 4.05349 14.6892C3.97105 14.9403 3.99135 15.2138 4.10996 15.45C4.19306 15.6149 4.3202 15.7536 4.47729 15.8507C4.63438 15.9478 4.81529 15.9994 4.99996 16Z" fill="#141414"/>
</svg>
