<svg width="24" height="24" viewBox="0 0 24 24" fill="none" xmlns="http://www.w3.org/2000/svg">
<path d="M19 4C18.7348 4 18.4805 4.10536 18.2929 4.29289C18.1054 4.48043 18 4.73478 18 5V7.33C18.0014 7.41751 17.9853 7.50441 17.9527 7.58564C17.9201 7.66688 17.8717 7.74082 17.8103 7.80317C17.7489 7.86552 17.6757 7.91503 17.5949 7.94882C17.5142 7.98261 17.4276 8.00001 17.34 8C17.1623 8 16.9919 7.92941 16.8663 7.80376C16.7406 7.67811 16.67 7.5077 16.67 7.33V7V4C16.67 3.73478 16.5647 3.48043 16.3771 3.29289C16.1896 3.10536 15.9353 3 15.67 3C15.4048 3 15.1505 3.10536 14.9629 3.29289C14.7754 3.48043 14.67 3.73478 14.67 4V7.33C14.67 7.5077 14.5995 7.67811 14.4738 7.80376C14.3482 7.92941 14.1777 8 14 8C13.9125 8.00001 13.8259 7.98261 13.7451 7.94882C13.6644 7.91503 13.5912 7.86552 13.5298 7.80317C13.4684 7.74082 13.42 7.66688 13.3874 7.58564C13.3548 7.50441 13.3387 7.41751 13.34 7.33V3C13.34 2.73478 13.2347 2.48043 13.0471 2.29289C12.8596 2.10536 12.6053 2 12.34 2C12.0748 2 11.8205 2.10536 11.6329 2.29289C11.4454 2.48043 11.34 2.73478 11.34 3V7.33C11.3414 7.41751 11.3253 7.50441 11.2927 7.58564C11.2601 7.66688 11.2117 7.74082 11.1503 7.80317C11.0889 7.86552 11.0157 7.91503 10.9349 7.94882C10.8542 7.98261 10.7676 8.00001 10.68 8C10.5912 8.00133 10.503 7.98498 10.4206 7.9519C10.3381 7.91882 10.2631 7.86968 10.1998 7.80733C10.1365 7.74498 10.0863 7.67068 10.052 7.58873C10.0177 7.50678 10 7.41883 10 7.33V4C10 3.73478 9.89468 3.48043 9.70715 3.29289C9.51961 3.10536 9.26526 3 9.00004 3C8.73482 3 8.48047 3.10536 8.29293 3.29289C8.1054 3.48043 8.00004 3.73478 8.00004 4V8C8.00004 8.26522 7.89468 8.51957 7.70715 8.70711C7.51961 8.89464 7.26526 9 7.00004 9C6.73482 9 6.48047 8.89464 6.29293 8.70711C6.1054 8.51957 6.00004 8.26522 6.00004 8V7C6.00004 6.73478 5.89468 6.48043 5.70715 6.29289C5.51961 6.10536 5.26526 6 5.00004 6C4.73482 6 4.48047 6.10536 4.29293 6.29289C4.1054 6.48043 4.00004 6.73478 4.00004 7V10C3.99565 11.0826 4.347 12.1366 5.00004 13C5.46578 13.621 6.0697 14.125 6.76397 14.4721C7.45825 14.8193 8.22381 15 9.00004 15V16.17C8.33171 16.4051 7.76815 16.8692 7.40917 17.48C7.0502 18.0908 6.91898 18.8089 7.03875 19.5072C7.15853 20.2055 7.52156 20.8388 8.06357 21.2951C8.60557 21.7513 9.29156 22.0011 10 22C10.3693 22.0089 10.7366 21.9435 11.0801 21.8078C11.4237 21.6721 11.7365 21.4688 12 21.21C12.3234 21.5288 12.7149 21.7701 13.1451 21.9156C13.5753 22.0611 14.0329 22.1071 14.4834 22.05C14.9339 21.9929 15.3656 21.8343 15.7459 21.5862C16.1262 21.338 16.4452 21.0067 16.6789 20.6173C16.9125 20.2279 17.0547 19.7905 17.0947 19.3382C17.1347 18.8858 17.0715 18.4303 16.9099 18.0059C16.7482 17.5815 16.4923 17.1994 16.1615 16.8883C15.8307 16.5772 15.4335 16.3453 15 16.21V15C15.7763 15 16.5418 14.8193 17.2361 14.4721C17.9304 14.125 18.5343 13.621 19 13C19.6531 12.1366 20.0044 11.0826 20 10V5C20 4.73478 19.8947 4.48043 19.7071 4.29289C19.5196 4.10536 19.2653 4 19 4ZM14 20C13.7488 20.0019 13.506 19.909 13.32 19.74C12.9551 19.4194 12.4859 19.2425 12 19.2425C11.5142 19.2425 11.045 19.4194 10.68 19.74C10.4941 19.909 10.2513 20.0019 10 20C9.73482 20 9.48047 19.8946 9.29293 19.7071C9.1054 19.5196 9.00004 19.2652 9.00004 19C9.00004 18.7348 9.1054 18.4804 9.29293 18.2929C9.48047 18.1054 9.73482 18 10 18C10.2653 18 10.5196 17.8946 10.7071 17.7071C10.8947 17.5196 11 17.2652 11 17V15H13V17C13 17.2652 13.1054 17.5196 13.2929 17.7071C13.4805 17.8946 13.7348 18 14 18C14.2653 18 14.5196 18.1054 14.7071 18.2929C14.8947 18.4804 15 18.7348 15 19C15 19.2652 14.8947 19.5196 14.7071 19.7071C14.5196 19.8946 14.2653 20 14 20Z" fill="#141414"/>
</svg>
