<svg width="11" height="17" viewBox="0 0 11 17" fill="none" xmlns="http://www.w3.org/2000/svg">
<path d="M1.99994 17.0002C1.86833 17.0009 1.73787 16.9757 1.61603 16.926C1.4942 16.8762 1.38338 16.8029 1.28994 16.7102C1.19621 16.6172 1.12182 16.5066 1.07105 16.3848C1.02028 16.2629 0.994141 16.1322 0.994141 16.0002C0.994141 15.8682 1.02028 15.7375 1.07105 15.6156C1.12182 15.4937 1.19621 15.3831 1.28994 15.2902L7.58994 9.00019L1.28994 2.71019C1.10164 2.52188 0.995847 2.26649 0.995847 2.00019C0.995847 1.73388 1.10164 1.47849 1.28994 1.29019C1.47824 1.10188 1.73364 0.996094 1.99994 0.996094C2.26624 0.996094 2.52164 1.10188 2.70994 1.29019L9.70994 8.29018C9.80367 8.38315 9.87806 8.49375 9.92883 8.61561C9.9796 8.73747 10.0057 8.86817 10.0057 9.00019C10.0057 9.1322 9.9796 9.2629 9.92883 9.38476C9.87806 9.50662 9.80367 9.61722 9.70994 9.71019L2.70994 16.7102C2.6165 16.8029 2.50568 16.8762 2.38385 16.926C2.26201 16.9757 2.13155 17.0009 1.99994 17.0002Z" fill="#3E0084"/>
</svg>
