<?xml version="1.0" encoding="UTF-8"?>
<svg width="24px" height="24px" viewBox="0 0 19 22" version="1.1" xmlns="http://www.w3.org/2000/svg" xmlns:xlink="http://www.w3.org/1999/xlink">
    <!-- Generator: sketchtool 57.1 (101010) - https://sketch.com -->
    <title>B10AE51D-22EC-4BAB-B474-E5544EAF9C25</title>
    <desc>Created with sketchtool.</desc>
    <g id="Components" stroke="none" stroke-width="1" fill="none" fill-rule="evenodd">
        <g id="App-bars:-top" transform="translate(-4131.000000, -443.000000)">
            <g id="Group-11" transform="translate(3376.000000, 120.000000)">
                <g id="Group-7" transform="translate(29.000000, 292.000000)">
                    <g id="Group" transform="translate(723.000000, 30.000000)">
                        <g id="Bag_Icon" transform="translate(3.000000, 2.000000)">
                            <path d="M6.79827673,8.96194611 C6.79702673,9.51319467 6.34952905,9.9619435 5.79703192,9.9606935 C5.24578477,9.9606935 4.7957871,9.51194467 4.79828709,8.96194611 C4.79828709,8.40694756 5.24578477,7.95944872 5.79828191,7.96069872 C6.35202904,7.96194872 6.79827673,8.40694756 6.79827673,8.96194611" id="Fill-1" fill="#FFFFFF"></path>
                            <path d="M16.090368,20 L2.15208369,20 C1.38062769,20 0.800521846,19.4674289 0.864708923,18.8169936 L2,7.21924636 C2,6.05735967 2.78426585,5.64568015 3.55572185,5.64568015 L14.6855188,5.64568015 C15.4581858,5.64568015 16.1412332,6.17825128 16.2054203,6.82868651 L17.3777428,18.8169936 C17.4419298,19.4674289 16.861824,20 16.090368,20 Z" id="Stroke-3" stroke="#FFFFFF" stroke-width="1.5" stroke-linecap="round" stroke-linejoin="round"></path>
                            <path d="M9.24293908,0.628513417 C7.02666831,0.626461878 5.22216369,2.42976487 5.22216369,4.65671072 L5.22216369,5.50091912" id="Stroke-4" stroke="#FFFFFF" stroke-width="1.5" stroke-linecap="round" stroke-linejoin="round"></path>
                            <path d="M13.5095631,5.50091912 L13.5156185,4.87930273 L13.5156185,4.60747378 C13.5156185,4.4987422 13.5107742,4.3941137 13.5022966,4.28743366 C13.3303237,2.24204903 11.4894868,0.630564956 9.24293908,0.628513417" id="Stroke-5" stroke="#FFFFFF" stroke-width="1.5" stroke-linecap="round" stroke-linejoin="round"></path>
                            <path d="M13.7922535,8.96194611 C13.789755,9.51319467 13.3425351,9.9619435 12.7916302,9.9606935 C12.239476,9.9606935 11.7910069,9.51194467 11.7922561,8.96194611 C11.7922561,8.40694756 12.239476,7.95944872 12.7928794,7.96069872 C13.3450336,7.96194872 13.7922535,8.40694756 13.7922535,8.96194611" id="Fill-6" fill="#FFFFFF"></path>
                        </g>
                    </g>
                </g>
            </g>
        </g>
    </g>
</svg>