<svg width="75" height="72" viewBox="0 0 75 72" fill="none" xmlns="http://www.w3.org/2000/svg">
<rect x="0.5" y="0.5" width="74" height="71" rx="4.5" stroke="#7B61FF" stroke-dasharray="10 5"/>
<path d="M43 27H29C27.9 27 27 27.9 27 29V43C27 44.1 27.9 45 29 45H43C44.1 45 45 44.1 45 43V29C45 27.9 44.1 27 43 27ZM43 33V39V43H29V34.5H30V39H31.5V33H29V29H43V33Z" fill="#8F8F8F"/>
<path d="M39.5 35.25V33H38V39H39.5V36.75L41.25 39H43L40.75 36L43 33H41.25L39.5 35.25Z" fill="#8F8F8F"/>
<path d="M33.5 39H36C36.55 39 37 38.55 37 38V34C37 33.45 36.55 33 36 33H33.5C32.95 33 32.5 33.45 32.5 34V38C32.5 38.55 32.95 39 33.5 39ZM34 34.5H35.5V37.5H34V34.5Z" fill="#8F8F8F"/>
</svg>
