<svg width="72" height="72" viewBox="0 0 72 72" fill="none" xmlns="http://www.w3.org/2000/svg">
<rect x="0.5" y="0.5" width="71" height="71" rx="4.5" stroke="#7B61FF" stroke-dasharray="10 5"/>
<path d="M31.25 39H29.75V34.5H28.25V33H31.25V39ZM37.75 37.5H34.75V36.5H36.75C37.3 36.5 37.75 36.05 37.75 35.5V34C37.75 33.45 37.3 33 36.75 33H33.25V34.5H36.25V35.5H34.25C33.7 35.5 33.25 35.95 33.25 36.5V39H37.75V37.5ZM43.75 38V34C43.75 33.45 43.3 33 42.75 33H39.25V34.5H42.25V35.5H40.25V36.5H42.25V37.5H39.25V39H42.75C43.3 39 43.75 38.55 43.75 38Z" fill="#8F8F8F"/>
</svg>
