<svg width="72" height="72" viewBox="0 0 72 72" fill="none" xmlns="http://www.w3.org/2000/svg">
<g clip-path="url(#clip0_256_16823)">
<path d="M43 27H29C27.9 27 27 27.9 27 29V43C27 44.1 27.9 45 29 45H43C44.1 45 45 44.1 45 43V29C45 27.9 44.1 27 43 27ZM43 43H29V29H43V43Z" fill="#8F8F8F"/>
<path d="M32.5 39H34V33H31V34.5H32.5V39Z" fill="#8F8F8F"/>
<path d="M37.5 36.75L39.25 39H41L38.75 36L41 33H39.25L37.5 35.25V33H36V39H37.5V36.75Z" fill="#8F8F8F"/>
</g>
<rect x="0.5" y="0.5" width="71" height="71" rx="4.5" stroke="#7B61FF" stroke-dasharray="10 5"/>
<defs>
<clipPath id="clip0_256_16823">
<rect width="72" height="72" rx="5" fill="white"/>
</clipPath>
</defs>
</svg>
