<svg width="72" height="72" viewBox="0 0 72 72" fill="none" xmlns="http://www.w3.org/2000/svg">
<rect x="0.5" y="0.5" width="71" height="71" rx="4.5" stroke="#7B61FF" stroke-dasharray="10 5"/>
<path d="M43 27H29C27.9 27 27 27.9 27 29V43C27 44.1 27.9 45 29 45H43C44.1 45 45 44.1 45 43V29C45 27.9 44.1 27 43 27ZM43 43H29V29H43V43Z" fill="#8F8F8F"/>
<path d="M38.5 35.5H40V29.5H37V31H38.5V35.5Z" fill="#8F8F8F"/>
<path d="M36 34H33V33H35C35.55 33 36 32.55 36 32V30.5C36 29.95 35.55 29.5 35 29.5H31.5V31H34.5V32H32.5C31.95 32 31.5 32.45 31.5 33V35.5H36V34Z" fill="#8F8F8F"/>
<path d="M31.5 38H32.5V41H34V38H35V42.5H36.5V37.5C36.5 36.95 36.05 36.5 35.5 36.5H31C30.45 36.5 30 36.95 30 37.5V42.5H31.5V38Z" fill="#8F8F8F"/>
<path d="M39 41H41C41.55 41 42 40.55 42 40V37.5C42 36.95 41.55 36.5 41 36.5H37.5V42.5H39V41ZM39 38H40.5V39.5H39V38Z" fill="#8F8F8F"/>
</svg>
