<svg width="72" height="72" viewBox="0 0 72 72" fill="none" xmlns="http://www.w3.org/2000/svg">
<g clip-path="url(#clip0_256_16833)">
<path d="M43 27H29C27.9 27 27 27.9 27 29V43C27 44.1 27.9 45 29 45H43C44.1 45 45 44.1 45 43V29C45 27.9 44.1 27 43 27ZM43 43H29V29H43V43Z" fill="#8F8F8F"/>
<path d="M35 37.5H32V36.5H34C34.55 36.5 35 36.05 35 35.5V34C35 33.45 34.55 33 34 33H30.5V34.5H33.5V35.5H31.5C30.95 35.5 30.5 35.95 30.5 36.5V39H35V37.5Z" fill="#8F8F8F"/>
<path d="M38.5 36.75L40.25 39H42L39.75 36L42 33H40.25L38.5 35.25V33H37V39H38.5V36.75Z" fill="#8F8F8F"/>
</g>
<rect x="0.5" y="0.5" width="71" height="71" rx="4.5" stroke="#7B61FF" stroke-dasharray="10 5"/>
<defs>
<clipPath id="clip0_256_16833">
<rect width="72" height="72" rx="5" fill="white"/>
</clipPath>
</defs>
</svg>
