<svg width="72" height="72" viewBox="0 0 72 72" fill="none" xmlns="http://www.w3.org/2000/svg">
<rect x="0.5" y="0.5" width="71" height="71" rx="4.5" stroke="#7B61FF" stroke-dasharray="10 5"/>
<path d="M28 27V29H33V31H29V33H33V35H28V37H33C34.1 37 35 36.1 35 35V33.5C35 32.67 34.83 32 34 32C34.83 32 35 31.33 35 30.5V29C35 27.9 34.1 27 33 27H28ZM42 27C43.1 27 44 27.9 44 29V35C44 36.1 43.1 37 42 37H39C37.9 37 37 36.1 37 35V29C37 27.9 37.9 27 39 27H42ZM42 29H39V35H42V29ZM29 45H27V40H29V45ZM33 45H31V40H33V45ZM37 45H35V40H37V45ZM45 45H39V40H45V45Z" fill="#8F8F8F"/>
</svg>
