<svg width="73" height="72" viewBox="0 0 73 72" fill="none" xmlns="http://www.w3.org/2000/svg">
<rect x="0.5" y="0.5" width="72" height="71" rx="4.5" stroke="#7B61FF" stroke-dasharray="10 5"/>
<path d="M26 29V32H32V34.5H27V37.5H32V40H26V43H32C33.66 43 35 41.66 35 40V38.1C35 36.94 34.06 36 32.9 36C34.06 36 35 35.06 35 33.9V32C35 30.34 33.66 29 32 29H26ZM43 32V40H39V32H43ZM43 29H39C37.34 29 36 30.34 36 32V40C36 41.66 37.34 43 39 43H43C44.66 43 46 41.66 46 40V32C46 30.34 44.66 29 43 29Z" fill="#8F8F8F"/>
</svg>
