<svg width="72" height="72" viewBox="0 0 72 72" fill="none" xmlns="http://www.w3.org/2000/svg">
<rect x="0.5" y="0.5" width="71" height="71" rx="4.5" stroke="#7B61FF" stroke-dasharray="10 5"/>
<g clip-path="url(#clip0_256_15401)">
<path d="M31.5247 45.48C28.2547 43.94 25.9147 40.76 25.5547 37H24.0547C24.5647 43.16 29.7147 48 36.0047 48L36.6647 47.97L32.8547 44.16L31.5247 45.48ZM32.4147 38.96C32.2247 38.96 32.0447 38.93 31.8947 38.88C31.7347 38.82 31.6047 38.75 31.4947 38.64C31.3847 38.54 31.2947 38.42 31.2347 38.27C31.1747 38.13 31.1447 37.97 31.1447 37.8H29.8447C29.8447 38.16 29.9147 38.48 30.0547 38.75C30.1947 39.02 30.3847 39.25 30.6147 39.44C30.8547 39.62 31.1247 39.76 31.4347 39.85C31.7347 39.95 32.0547 40 32.3947 40C32.7647 40 33.1147 39.95 33.4247 39.85C33.7447 39.75 34.0247 39.6 34.2547 39.41C34.4847 39.22 34.6747 38.98 34.8047 38.69C34.9347 38.4 35.0047 38.08 35.0047 37.72C35.0047 37.53 34.9847 37.34 34.9347 37.16C34.8847 36.98 34.8147 36.81 34.7047 36.65C34.6047 36.49 34.4647 36.35 34.3047 36.22C34.1347 36.09 33.9347 35.99 33.6947 35.91C33.8947 35.82 34.0647 35.71 34.2147 35.58C34.3647 35.45 34.4847 35.31 34.5847 35.16C34.6847 35.01 34.7547 34.86 34.8047 34.7C34.8547 34.54 34.8747 34.38 34.8747 34.22C34.8747 33.86 34.8147 33.54 34.6947 33.26C34.5747 32.98 34.4047 32.75 34.1847 32.57C33.9847 32.38 33.7147 32.24 33.4147 32.14C33.1047 32.05 32.7647 32 32.3947 32C32.0347 32 31.7047 32.05 31.3947 32.16C31.0947 32.27 30.8247 32.42 30.6047 32.61C30.3947 32.8 30.2247 33.02 30.0947 33.28C29.9747 33.54 29.9147 33.82 29.9147 34.13H31.2147C31.2147 33.96 31.2447 33.81 31.3047 33.68C31.3647 33.55 31.4447 33.43 31.5547 33.34C31.6647 33.25 31.7847 33.17 31.9347 33.12C32.0847 33.07 32.2347 33.04 32.4147 33.04C32.8147 33.04 33.1147 33.14 33.3047 33.35C33.4947 33.55 33.5947 33.84 33.5947 34.21C33.5947 34.39 33.5647 34.55 33.5147 34.7C33.4647 34.85 33.3747 34.97 33.2647 35.07C33.1547 35.17 33.0147 35.25 32.8547 35.31C32.6947 35.37 32.4947 35.4 32.2747 35.4H31.5047V36.43H32.2747C32.4947 36.43 32.6947 36.45 32.8747 36.5C33.0547 36.55 33.2047 36.63 33.3247 36.73C33.4447 36.84 33.5447 36.97 33.6147 37.13C33.6847 37.29 33.7147 37.48 33.7147 37.7C33.7147 38.11 33.5947 38.42 33.3647 38.63C33.1347 38.86 32.8147 38.96 32.4147 38.96ZM40.9647 33.04C40.6447 32.71 40.2647 32.45 39.8247 32.27C39.3847 32.09 38.8947 32 38.3547 32H35.9947V40H38.2947C38.8447 40 39.3547 39.91 39.8047 39.73C40.2547 39.55 40.6447 39.3 40.9647 38.97C41.2847 38.64 41.5347 38.24 41.7047 37.78C41.8747 37.31 41.9647 36.79 41.9647 36.21V35.81C41.9647 35.23 41.8747 34.71 41.7047 34.24C41.5347 33.77 41.2847 33.37 40.9647 33.04ZM40.5747 36.2C40.5747 36.62 40.5247 36.99 40.4347 37.33C40.3347 37.66 40.1947 37.95 40.0047 38.18C39.8147 38.41 39.5747 38.59 39.2947 38.71C39.0047 38.83 38.6747 38.89 38.3047 38.89H37.3947V33.12H38.3647C39.0847 33.12 39.6347 33.35 40.0047 33.81C40.3847 34.27 40.5747 34.93 40.5747 35.8V36.2ZM36.0047 24L35.3447 24.03L39.1547 27.84L40.4847 26.51C43.7547 28.06 46.0947 31.23 46.4447 34.99H47.9447C47.4447 28.84 42.2947 24 36.0047 24Z" fill="#8F8F8F"/>
</g>
<defs>
<clipPath id="clip0_256_15401">
<rect width="24" height="24" fill="white" transform="translate(24 24)"/>
</clipPath>
</defs>
</svg>
