<svg width="72" height="72" viewBox="0 0 72 72" fill="none" xmlns="http://www.w3.org/2000/svg">
<rect x="0.5" y="0.5" width="71" height="71" rx="4.5" stroke="#7B61FF" stroke-dasharray="10 5"/>
<path d="M27 31V33H32V35H28V37H32V39H27V41H32C33.1 41 34 40.1 34 39V37.5C34 36.67 33.33 36 32.5 36C33.33 36 34 35.33 34 34.5V33C34 31.9 33.1 31 32 31H27ZM45 35V39C45 40.1 44.1 41 43 41H38C36.9 41 36 40.1 36 39V33C36 31.9 36.9 31 38 31H43C44.1 31 45 31.9 45 33H38V39H43V37H40.5V35H45Z" fill="#8F8F8F"/>
</svg>
