<svg width="72" height="72" viewBox="0 0 72 72" fill="none" xmlns="http://www.w3.org/2000/svg">
<rect x="0.5" y="0.5" width="71" height="71" rx="4.5" stroke="#7B61FF" stroke-dasharray="10 5"/>
<path d="M44 26H28.01C26.91 26 26.01 26.9 26.01 28L26 46L30 42H44C45.1 42 46 41.1 46 40V28C46 26.9 45.1 26 44 26ZM44 40H29.17L28 41.17V28H44V40ZM36 34C37.1 34 38 33.1 38 32C38 30.9 37.1 30 36 30C34.9 30 34 30.9 34 32C34 33.1 34.9 34 36 34ZM40 37.43C40 36.62 39.52 35.9 38.78 35.58C37.93 35.21 36.99 35 36 35C35.01 35 34.07 35.21 33.22 35.58C32.48 35.9 32 36.62 32 37.43V38H40V37.43Z" fill="#8F8F8F"/>
</svg>
