<svg width="72" height="72" viewBox="0 0 72 72" fill="none" xmlns="http://www.w3.org/2000/svg">
<rect x="0.5" y="0.5" width="71" height="71" rx="4.5" stroke="#7B61FF" stroke-dasharray="10 5"/>
<path d="M36.5 35V37H38.5V39H34.5V33H40.5C40.5 31.9 39.6 31 38.5 31H34.5C33.4 31 32.5 31.9 32.5 33V39C32.5 40.1 33.4 41 34.5 41H38.5C39.6 41 40.5 40.1 40.5 39V35H36.5ZM47.5 35H45.5V33H43.5V35H41.5V37H43.5V39H45.5V37H47.5V35ZM30.5 31H28.5V36H26.5V31H24.5V38H28.5V41H30.5V38H31.5V36H30.5V31Z" fill="#8F8F8F"/>
</svg>
