<svg width="75" height="72" viewBox="0 0 75 72" fill="none" xmlns="http://www.w3.org/2000/svg">
<rect x="0.5" y="0.5" width="74" height="71" rx="4.5" stroke="#7B61FF" stroke-dasharray="10 5"/>
<path d="M43 27H29C27.9 27 27 27.9 27 29V43C27 44.1 27.9 45 29 45H43C44.1 45 45 44.1 45 43V29C45 27.9 44.1 27 43 27ZM43 35.5H41.5V34H40.5V35.5H39V36.5H40.5V38H41.5V36.5H43V43H29V29H43V35.5Z" fill="#8F8F8F"/>
<path d="M32.5 39H34V37.5H35V36H34V33H32.5V36H31V33H29.5V37.5H32.5V39Z" fill="#8F8F8F"/>
<path d="M37 36.75L38.75 39H40.5L38.25 36L40.5 33H38.75L37 35.25V33H35.5V39H37V36.75Z" fill="#8F8F8F"/>
</svg>
