<svg width="72" height="72" viewBox="0 0 72 72" fill="none" xmlns="http://www.w3.org/2000/svg">
<rect x="0.5" y="0.5" width="71" height="71" rx="4.5" stroke="#7B61FF" stroke-dasharray="10 5"/>
<path d="M42 29V35H39V29H42ZM42 27H39C37.9 27 37 27.9 37 29V35C37 36.1 37.9 37 39 37H42C43.1 37 44 36.1 44 35V29C44 27.9 43.1 27 42 27ZM35 29V27H30C28.9 27 28 27.9 28 29V35C28 36.1 28.9 37 30 37H33C34.1 37 35 36.1 35 35V33C35 31.9 34.1 31 33 31H30V29H35ZM33 33V35H30V33H33ZM29 45H27V40H29V45ZM33 45H31V40H33V45ZM37 45H35V40H37V45ZM45 45H39V40H45V45Z" fill="#8F8F8F"/>
</svg>
