<svg width="71" height="72" viewBox="0 0 71 72" fill="none" xmlns="http://www.w3.org/2000/svg">
<rect x="0.5" y="0.5" width="70" height="71" rx="4.5" stroke="#7B61FF" stroke-dasharray="10 5"/>
<path d="M43 32V40H39V32H43ZM43 29H39C37.34 29 36 30.34 36 32V40C36 41.66 37.34 43 39 43H43C44.66 43 46 41.66 46 40V32C46 30.34 44.66 29 43 29ZM34 32V29H29C27.34 29 26 30.34 26 32V40C26 41.66 27.34 43 29 43H32C33.66 43 35 41.66 35 40V37C35 35.34 33.66 34 32 34H29V32H34ZM32 37V40H29V37H32Z" fill="#8F8F8F"/>
</svg>
