<svg width="73" height="72" viewBox="0 0 73 72" fill="none" xmlns="http://www.w3.org/2000/svg">
<rect x="0.5" y="0.5" width="72" height="71" rx="4.5" stroke="#7B61FF" stroke-dasharray="10 5"/>
<path d="M43 27H29C27.9 27 27 27.9 27 29V43C27 44.1 27.9 45 29 45H43C44.1 45 45 44.1 45 43V29C45 27.9 44.1 27 43 27ZM43 43H29V29H43V43Z" fill="#8F8F8F"/>
<path d="M31.75 39H33.5L34.96 34.29C35.15 33.65 34.67 33 34 33H30.5V34.5H33.13L31.75 39Z" fill="#8F8F8F"/>
<path d="M38.5 36.75L40.25 39H42L39.75 36L42 33H40.25L38.5 35.25V33H37V39H38.5V36.75Z" fill="#8F8F8F"/>
</svg>
