<svg width="72" height="72" viewBox="0 0 72 72" fill="none" xmlns="http://www.w3.org/2000/svg">
<rect x="0.5" y="0.5" width="71" height="71" rx="4.5" stroke="#7B61FF" stroke-dasharray="10 5"/>
<path d="M31 39H33C33.55 39 34 38.55 34 38V34C34 33.45 33.55 33 33 33H31C30.45 33 30 33.45 30 34V38C30 38.55 30.45 39 31 39ZM31.5 34H32.5V35.5H31.5V34ZM31.5 36.5H32.5V38H31.5V36.5Z" fill="#8F8F8F"/>
<path d="M43 27H29C27.9 27 27 27.9 27 29V43C27 44.1 27.9 45 29 45H43C44.1 45 45 44.1 45 43V29C45 27.9 44.1 27 43 27ZM43 35.5H41.5V34H40.5V35.5H39V36.5H40.5V38H41.5V36.5H43V43H29V29H43V35.5Z" fill="#8F8F8F"/>
<path d="M36.5 36.75L38.25 39H40L37.75 36L40 33H38.25L36.5 35.25V33H35V39H36.5V36.75Z" fill="#8F8F8F"/>
</svg>
