<svg width="73" height="72" viewBox="0 0 73 72" fill="none" xmlns="http://www.w3.org/2000/svg">
<rect x="0.5" y="0.5" width="72" height="71" rx="4.5" stroke="#7B61FF" stroke-dasharray="10 5"/>
<path d="M45 35H43.5V34.5H41.5V37.5H43.5V37H45V38C45 38.55 44.55 39 44 39H41C40.45 39 40 38.55 40 38V34C40 33.45 40.45 33 41 33H44C44.55 33 45 33.45 45 34V35ZM32 34V39H30.5V37.5H28.5V39H27V34C27 33.45 27.45 33 28 33H31C31.55 33 32 33.45 32 34ZM30.5 34.5H28.5V36H30.5V34.5ZM37.5 36C38.05 36 38.5 36.45 38.5 37V38C38.5 38.55 38.05 39 37.5 39H33.5V33H37.5C38.05 33 38.5 33.45 38.5 34V35C38.5 35.55 38.05 36 37.5 36ZM35 34.5V35.25H37V34.5H35ZM37 36.75H35V37.5H37V36.75Z" fill="#8F8F8F"/>
</svg>
