<svg width="70" height="72" viewBox="0 0 70 72" fill="none" xmlns="http://www.w3.org/2000/svg">
<rect x="0.5" y="0.5" width="69" height="71" rx="4.5" stroke="#7B61FF" stroke-dasharray="10 5"/>
<path d="M36 30C37.1046 30 38 29.1046 38 28C38 26.8954 37.1046 26 36 26C34.8954 26 34 26.8954 34 28C34 29.1046 34.8954 30 36 30Z" fill="#8F8F8F"/>
<path d="M43 37V35C41.46 35.02 39.91 34.25 38.93 33.17L37.64 31.74C37.47 31.55 37.26 31.4 37.03 31.29C37.02 31.29 37.02 31.28 37.01 31.28H37C36.65 31.08 36.25 30.98 35.81 31.02C34.76 31.11 34 32.04 34 33.09V39C34 40.1 34.9 41 36 41H41V46H43V40.5C43 39.4 42.1 38.5 41 38.5H38V35.05C39.29 36.12 41.25 36.99 43 37ZM34 44C32.34 44 31 42.66 31 41C31 39.69 31.84 38.59 33 38.17V36.1C30.72 36.56 29 38.58 29 41C29 43.76 31.24 46 34 46C36.42 46 38.44 44.28 38.9 42H36.83C36.42 43.16 35.31 44 34 44Z" fill="#8F8F8F"/>
</svg>
