<svg width="72" height="72" viewBox="0 0 72 72" fill="none" xmlns="http://www.w3.org/2000/svg">
<rect x="0.5" y="0.5" width="71" height="71" rx="4.5" stroke="#7B61FF" stroke-dasharray="10 5"/>
<path d="M46 29.8L41.4 25.9L40.1 27.4L44.7 31.3L46 29.8ZM31.9 27.5L30.6 26L26 29.8L27.3 31.3L31.9 27.5ZM36.5 32.1H35V38.1L39.7 41L40.5 39.8L36.5 37.4V32.1ZM36 28.1C31 28.1 27 32.1 27 37.1C27 42.1 31 46.1 36 46.1C41 46.1 45 42.1 45 37.1C45 32.1 41 28.1 36 28.1ZM36 44.1C32.1 44.1 29 41 29 37.1C29 33.2 32.1 30.1 36 30.1C39.9 30.1 43 33.2 43 37.1C43 41 39.9 44.1 36 44.1Z" fill="#8F8F8F"/>
</svg>
