<svg width="77" height="72" viewBox="0 0 77 72" fill="none" xmlns="http://www.w3.org/2000/svg">
<rect x="0.5" y="0.5" width="76" height="71" rx="4.5" stroke="#7B61FF" stroke-dasharray="10 5"/>
<path d="M41.5 30.27C42.6046 30.27 43.5 29.3746 43.5 28.27C43.5 27.1654 42.6046 26.27 41.5 26.27C40.3954 26.27 39.5 27.1654 39.5 28.27C39.5 29.3746 40.3954 30.27 41.5 30.27Z" fill="#8F8F8F"/>
<path d="M38.5 40.73H36.5C36.5 42.38 35.15 43.73 33.5 43.73C31.85 43.73 30.5 42.38 30.5 40.73C30.5 39.08 31.85 37.73 33.5 37.73V35.73C30.74 35.73 28.5 37.97 28.5 40.73C28.5 43.49 30.74 45.73 33.5 45.73C36.26 45.73 38.5 43.49 38.5 40.73ZM41.5 37.23H39.64L41.31 33.56C41.92 32.23 40.94 30.73 39.46 30.73H34.26C33.45 30.73 32.72 31.2 32.39 31.93L31.72 33.73L33.64 34.26L34.29 32.73H36.5L34.67 36.83C34.07 38.16 35.06 39.73 36.52 39.73H41.5V44.73H43.5V39.23C43.5 38.13 42.6 37.23 41.5 37.23Z" fill="#8F8F8F"/>
</svg>
