<svg width="73" height="72" viewBox="0 0 73 72" fill="none" xmlns="http://www.w3.org/2000/svg">
<rect x="0.5" y="0.5" width="72" height="71" rx="4.5" stroke="#7B61FF" stroke-dasharray="10 5"/>
<path d="M36 26C30.48 26 26 30.48 26 36C26 41.52 30.48 46 36 46C41.52 46 46 41.52 46 36C46 30.48 41.52 26 36 26ZM31.07 42.28C31.5 41.38 34.12 40.5 36 40.5C37.88 40.5 40.51 41.38 40.93 42.28C39.57 43.36 37.86 44 36 44C34.14 44 32.43 43.36 31.07 42.28ZM42.36 40.83C40.93 39.09 37.46 38.5 36 38.5C34.54 38.5 31.07 39.09 29.64 40.83C28.62 39.49 28 37.82 28 36C28 31.59 31.59 28 36 28C40.41 28 44 31.59 44 36C44 37.82 43.38 39.49 42.36 40.83ZM36 30C34.06 30 32.5 31.56 32.5 33.5C32.5 35.44 34.06 37 36 37C37.94 37 39.5 35.44 39.5 33.5C39.5 31.56 37.94 30 36 30ZM36 35C35.17 35 34.5 34.33 34.5 33.5C34.5 32.67 35.17 32 36 32C36.83 32 37.5 32.67 37.5 33.5C37.5 34.33 36.83 35 36 35Z" fill="#8F8F8F"/>
</svg>
