<svg width="72" height="72" viewBox="0 0 72 72" fill="none" xmlns="http://www.w3.org/2000/svg">
<rect x="0.5" y="0.5" width="71" height="71" rx="4.5" stroke="#7B61FF" stroke-dasharray="10 5"/>
<path d="M43 29V43H29V29H43ZM43 27H29C27.89 27 27 27.9 27 29V43C27 44.1 27.89 45 29 45H43C44.1 45 45 44.1 45 43V29C45 27.9 44.1 27 43 27ZM36 36C34.35 36 33 34.65 33 33C33 31.35 34.35 30 36 30C37.65 30 39 31.35 39 33C39 34.65 37.65 36 36 36ZM36 32C35.45 32 35 32.45 35 33C35 33.55 35.45 34 36 34C36.55 34 37 33.55 37 33C37 32.45 36.55 32 36 32ZM42 42H30V40.47C30 37.97 33.97 36.89 36 36.89C38.03 36.89 42 37.97 42 40.47V42ZM32.31 40H39.69C39 39.44 37.31 38.88 36 38.88C34.69 38.88 32.99 39.44 32.31 40Z" fill="#8F8F8F"/>
</svg>
