<svg width="72" height="72" viewBox="0 0 72 72" fill="none" xmlns="http://www.w3.org/2000/svg">
<rect x="0.5" y="0.5" width="71" height="71" rx="4.5" stroke="#7B61FF" stroke-dasharray="10 5"/>
<path d="M44.5 31.28V29C44.5 27.9 43.6 27 42.5 27H28.5C27.39 27 26.5 27.9 26.5 29V43C26.5 44.1 27.39 45 28.5 45H42.5C43.6 45 44.5 44.1 44.5 43V40.72C45.09 40.37 45.5 39.74 45.5 39V33C45.5 32.26 45.09 31.63 44.5 31.28ZM43.5 33V39H36.5V33H43.5ZM28.5 43V29H42.5V31H36.5C35.4 31 34.5 31.9 34.5 33V39C34.5 40.1 35.4 41 36.5 41H42.5V43H28.5Z" fill="#8F8F8F"/>
<path d="M39.5 37.5C40.3284 37.5 41 36.8284 41 36C41 35.1716 40.3284 34.5 39.5 34.5C38.6716 34.5 38 35.1716 38 36C38 36.8284 38.6716 37.5 39.5 37.5Z" fill="#8F8F8F"/>
</svg>
