<svg width="70" height="72" viewBox="0 0 70 72" fill="none" xmlns="http://www.w3.org/2000/svg">
<rect x="0.5" y="0.5" width="69" height="71" rx="4.5" stroke="#7B61FF" stroke-dasharray="10 5"/>
<path d="M45 29.18L33.59 40.6L29.35 36.36L30.76 34.95L33.59 37.78L43.59 27.78L45 29.18ZM35 44C30.59 44 27 40.41 27 36C27 31.59 30.59 28 35 28C36.57 28 38.04 28.46 39.28 29.25L40.73 27.8C39.1 26.67 37.13 26 35 26C29.48 26 25 30.48 25 36C25 41.52 29.48 46 35 46C36.73 46 38.36 45.56 39.78 44.78L38.28 43.28C37.28 43.74 36.17 44 35 44ZM42 39H39V41H42V44H44V41H47V39H44V36H42V39Z" fill="#8F8F8F"/>
</svg>
