<svg width="71" height="72" viewBox="0 0 71 72" fill="none" xmlns="http://www.w3.org/2000/svg">
<rect x="0.5" y="0.5" width="70" height="71" rx="4.5" stroke="#7B61FF" stroke-dasharray="10 5"/>
<path d="M44 39.5C42.75 39.5 41.55 39.3 40.43 38.93C40.33 38.9 40.22 38.88 40.12 38.88C39.86 38.88 39.61 38.98 39.41 39.17L37.21 41.37C34.38 39.93 32.06 37.62 30.62 34.78L32.82 32.57C33.1 32.31 33.18 31.92 33.07 31.57C32.7 30.45 32.5 29.25 32.5 28C32.5 27.45 32.05 27 31.5 27H28C27.45 27 27 27.45 27 28C27 37.39 34.61 45 44 45C44.55 45 45 44.55 45 44V40.5C45 39.95 44.55 39.5 44 39.5ZM29.03 29H30.53C30.6 29.88 30.75 30.75 30.98 31.58L29.78 32.79C29.38 31.58 29.12 30.32 29.03 29ZM43 42.97C41.68 42.88 40.4 42.62 39.2 42.21L40.4 41.01C41.25 41.25 42.12 41.4 43 41.46V42.97ZM42 30V27H40V30H37V32H40V35H42V32H45V30H42Z" fill="#8F8F8F"/>
</svg>
