<svg width="72" height="72" viewBox="0 0 72 72" fill="none" xmlns="http://www.w3.org/2000/svg">
<rect x="0.5" y="0.5" width="71" height="71" rx="4.5" stroke="#7B61FF" stroke-dasharray="10 5"/>
<path d="M45.5 30.5H42.33L40.5 28.5H34.5V30.5H39.62L41.45 32.5H45.5V44.5H29.5V35.5H27.5V44.5C27.5 45.6 28.4 46.5 29.5 46.5H45.5C46.6 46.5 47.5 45.6 47.5 44.5V32.5C47.5 31.4 46.6 30.5 45.5 30.5ZM32.5 38.5C32.5 41.26 34.74 43.5 37.5 43.5C40.26 43.5 42.5 41.26 42.5 38.5C42.5 35.74 40.26 33.5 37.5 33.5C34.74 33.5 32.5 35.74 32.5 38.5ZM37.5 35.5C39.15 35.5 40.5 36.85 40.5 38.5C40.5 40.15 39.15 41.5 37.5 41.5C35.85 41.5 34.5 40.15 34.5 38.5C34.5 36.85 35.85 35.5 37.5 35.5ZM29.5 30.5H32.5V28.5H29.5V25.5H27.5V28.5H24.5V30.5H27.5V33.5H29.5V30.5Z" fill="#8F8F8F"/>
</svg>
