<svg width="77" height="72" viewBox="0 0 77 72" fill="none" xmlns="http://www.w3.org/2000/svg">
<rect x="0.5" y="0.5" width="76" height="71" rx="4.5" stroke="#7B61FF" stroke-dasharray="10 5"/>
<path d="M42.5 35C42.67 35 42.83 35.01 42.99 35.02L38.5 27H32.5L38.18 36.84C39.27 35.71 40.8 35 42.5 35Z" fill="#8F8F8F"/>
<path d="M31.65 28.52L25.5 39.5L28.5 45L34.83 34.03L31.65 28.52Z" fill="#8F8F8F"/>
<path d="M36.7 39.5H33.4L30.23 45H38.04C37.08 43.94 36.5 42.54 36.5 41C36.5 40.48 36.57 39.98 36.7 39.5Z" fill="#8F8F8F"/>
<path d="M43.5 40V37H41.5V40H38.5V42H41.5V45H43.5V42H46.5V40H43.5Z" fill="#8F8F8F"/>
</svg>
