<svg width="72" height="72" viewBox="0 0 72 72" fill="none" xmlns="http://www.w3.org/2000/svg">
<rect x="0.5" y="0.5" width="71" height="71" rx="4.5" stroke="#7B61FF" stroke-dasharray="10 5"/>
<path d="M31.88 27.4601L30.6 25.9301L26 29.7801L27.29 31.3101L31.88 27.4601ZM46 29.7901L41.4 25.9301L40.11 27.4601L44.71 31.3201L46 29.7901ZM36 28.0701C31.03 28.0701 27 32.1001 27 37.0701C27 42.0401 31.02 46.0701 36 46.0701C40.97 46.0701 45 42.0401 45 37.0701C45 32.1001 40.97 28.0701 36 28.0701ZM36 44.0701C32.13 44.0701 29 40.9401 29 37.0701C29 33.2001 32.13 30.0701 36 30.0701C39.87 30.0701 43 33.2001 43 37.0701C43 40.9401 39.87 44.0701 36 44.0701ZM37 33.0701H35V36.0701H32V38.0701H35V41.0701H37V38.0701H40V36.0701H37V33.0701Z" fill="#8F8F8F"/>
</svg>
