<svg width="72" height="72" viewBox="0 0 72 72" fill="none" xmlns="http://www.w3.org/2000/svg">
<rect x="0.5" y="0.5" width="71" height="71" rx="4.5" stroke="#7B61FF" stroke-dasharray="10 5"/>
<path d="M35.9199 33.5H37.9199V30.5H40.9199V28.5H37.9199V25.5H35.9199V28.5H32.9199V30.5H35.9199V33.5ZM31.9199 42.5C30.8199 42.5 29.9299 43.4 29.9299 44.5C29.9299 45.6 30.8199 46.5 31.9199 46.5C33.0199 46.5 33.9199 45.6 33.9199 44.5C33.9199 43.4 33.0199 42.5 31.9199 42.5ZM41.9199 42.5C40.8199 42.5 39.9299 43.4 39.9299 44.5C39.9299 45.6 40.8199 46.5 41.9199 46.5C43.0199 46.5 43.9199 45.6 43.9199 44.5C43.9199 43.4 43.0199 42.5 41.9199 42.5ZM33.0199 37.5H40.4699C41.2199 37.5 41.8799 37.09 42.2199 36.47L46.0799 29.46L44.3399 28.5L40.4699 35.5H33.4499L29.1899 26.5H25.9199V28.5H27.9199L31.5199 36.09L30.1699 38.53C29.4399 39.87 30.3999 41.5 31.9199 41.5H43.9199V39.5H31.9199L33.0199 37.5Z" fill="#8F8F8F"/>
</svg>
