<svg width="72" height="72" viewBox="0 0 72 72" fill="none" xmlns="http://www.w3.org/2000/svg">
<rect x="0.5" y="0.5" width="71" height="71" rx="4.5" stroke="#7B61FF" stroke-dasharray="10 5"/>
<path d="M34.01 44.76C34.01 45.86 34.9 46.75 36 46.75C37.1 46.75 37.99 45.86 37.99 44.76H34.01ZM36 29.75C38.76 29.75 41 31.99 41 34.75V41.75H31V34.75C31 31.99 33.24 29.75 36 29.75ZM36 25.25C35.17 25.25 34.5 25.92 34.5 26.75V27.92C31.36 28.6 29 31.4 29 34.75V40.75L27 42.75V43.75H45V42.75L43 40.75V34.75C43 31.4 40.64 28.6 37.5 27.92V26.75C37.5 25.92 36.83 25.25 36 25.25ZM37 31.75H35V34.75H32V36.75H35V39.75H37V36.75H40V34.75H37V31.75Z" fill="#8F8F8F"/>
</svg>
