<svg width="74" height="72" viewBox="0 0 74 72" fill="none" xmlns="http://www.w3.org/2000/svg">
<rect x="0.5" y="0.5" width="73" height="71" rx="4.5" stroke="#7B61FF" stroke-dasharray="10 5"/>
<path d="M32 33.5H40V35.5H32V33.5ZM44.1 34.5H46C46 31.74 43.76 29.5 41 29.5H37V31.4H41C42.71 31.4 44.1 32.79 44.1 34.5ZM27.9 34.5C27.9 32.79 29.29 31.4 31 31.4H35V29.5H31C28.24 29.5 26 31.74 26 34.5C26 37.26 28.24 39.5 31 39.5H35V37.6H31C29.29 37.6 27.9 36.21 27.9 34.5ZM43 34.5H41V37.5H38V39.5H41V42.5H43V39.5H46V37.5H43V34.5Z" fill="#8F8F8F"/>
</svg>
