<svg width="72" height="72" viewBox="0 0 72 72" fill="none" xmlns="http://www.w3.org/2000/svg">
<rect x="0.5" y="0.5" width="71" height="71" rx="4.5" stroke="#7B61FF" stroke-dasharray="10 5"/>
<path d="M41.5 44.5H27.5V30.5H36.5V28.5H27.5C26.4 28.5 25.5 29.4 25.5 30.5V44.5C25.5 45.6 26.4 46.5 27.5 46.5H41.5C42.6 46.5 43.5 45.6 43.5 44.5V35.5H41.5V44.5ZM33.71 41.33L31.75 38.97L29 42.5H40L36.46 37.79L33.71 41.33ZM43.5 28.5V25.5H41.5V28.5H38.5C38.51 28.51 38.5 30.5 38.5 30.5H41.5V33.49C41.51 33.5 43.5 33.49 43.5 33.49V30.5H46.5V28.5H43.5Z" fill="#8F8F8F"/>
</svg>
