<svg width="70" height="72" viewBox="0 0 70 72" fill="none" xmlns="http://www.w3.org/2000/svg">
<rect x="0.5" y="0.5" width="69" height="71" rx="4.5" stroke="#7B61FF" stroke-dasharray="10 5"/>
<path d="M45.5 29.5V31.5H42.5V34.5H40.5V31.5H37.5V29.5H40.5V26.5H42.5V29.5H45.5ZM42.5 43.5H28.5V29.5H34.5V27.5H28.5C27.4 27.5 26.5 28.4 26.5 29.5V43.5C26.5 44.6 27.4 45.5 28.5 45.5H42.5C43.6 45.5 44.5 44.6 44.5 43.5V37.5H42.5V43.5ZM38.5 37.5V41.5H40.5V37.5H38.5ZM34.5 41.5H36.5V33.5H34.5V41.5ZM32.5 41.5V35.5H30.5V41.5H32.5Z" fill="#8F8F8F"/>
</svg>
