<svg width="72" height="72" viewBox="0 0 72 72" fill="none" xmlns="http://www.w3.org/2000/svg">
<rect x="0.5" y="0.5" width="71" height="71" rx="4.5" stroke="#7B61FF" stroke-dasharray="10 5"/>
<path d="M40 39.62C40.6186 39.62 41.12 39.1186 41.12 38.5C41.12 37.8814 40.6186 37.38 40 37.38C39.3814 37.38 38.88 37.8814 38.88 38.5C38.88 39.1186 39.3814 39.62 40 39.62Z" fill="#8F8F8F"/>
<path fill-rule="evenodd" clip-rule="evenodd" d="M40 40.5C39.27 40.5 37.81 40.86 37.76 41.58C38.26 42.29 39.08 42.75 40 42.75C40.92 42.75 41.74 42.29 42.24 41.58C42.19 40.86 40.73 40.5 40 40.5Z" fill="#8F8F8F"/>
<path fill-rule="evenodd" clip-rule="evenodd" d="M41 34.09V29.27L33.5 26L26 29.27V34.18C26 38.72 29.2 42.97 33.5 44C34.05 43.87 34.58 43.68 35.1 43.45C36.18 44.99 37.97 46 40 46C43.31 46 46 43.31 46 40C46 37.03 43.84 34.57 41 34.09ZM34 40C34 40.56 34.08 41.11 34.23 41.62C33.99 41.73 33.75 41.84 33.5 41.92C30.33 40.92 28 37.68 28 34.18V30.58L33.5 28.18L39 30.58V34.09C36.16 34.57 34 37.03 34 40ZM40 44C37.79 44 36 42.21 36 40C36 37.79 37.79 36 40 36C42.21 36 44 37.79 44 40C44 42.21 42.21 44 40 44Z" fill="#8F8F8F"/>
</svg>
