<svg width="72" height="72" viewBox="0 0 72 72" fill="none" xmlns="http://www.w3.org/2000/svg">
<rect x="0.5" y="0.5" width="71" height="71" rx="4.5" stroke="#7B61FF" stroke-dasharray="10 5"/>
<path d="M35.4541 41.74C32.2741 41.59 29.7441 38.97 29.7441 35.75C29.7441 32.44 32.4341 29.75 35.7441 29.75C38.9641 29.75 41.5841 32.28 41.7341 35.46L39.6341 34.83C39.2241 33.06 37.6341 31.75 35.7441 31.75C33.5341 31.75 31.7441 33.54 31.7441 35.75C31.7441 37.64 33.0541 39.23 34.8241 39.64L35.4541 41.74ZM45.7441 35.75C45.7441 36.05 45.7341 36.35 45.7041 36.65L43.7341 36.06C43.7441 35.96 43.7441 35.85 43.7441 35.75C43.7441 31.33 40.1641 27.75 35.7441 27.75C31.3241 27.75 27.7441 31.33 27.7441 35.75C27.7441 40.17 31.3241 43.75 35.7441 43.75C35.8441 43.75 35.9541 43.75 36.0541 43.74L36.6441 45.71C36.3441 45.74 36.0441 45.75 35.7441 45.75C30.2241 45.75 25.7441 41.27 25.7441 35.75C25.7441 30.23 30.2241 25.75 35.7441 25.75C41.2641 25.75 45.7441 30.23 45.7441 35.75ZM41.9741 40.01L45.7441 38.75L35.7441 35.75L38.7441 45.75L40.0041 41.98L44.2741 46.25L46.2541 44.27L41.9741 40.01Z" fill="#8F8F8F"/>
</svg>
