<svg width="16" height="16" viewBox="0 0 16 16" fill="none" xmlns="http://www.w3.org/2000/svg">
<path fill-rule="evenodd" clip-rule="evenodd" d="M7.31821 4.70546C6.95217 3.71336 5.55303 3.71336 5.18699 4.70545L4.42365 6.77435C4.23184 7.2942 3.82316 7.70407 3.30482 7.89643L1.24192 8.66199C0.252696 9.02909 0.252694 10.4323 1.24191 10.7994L3.30481 11.565C3.82316 11.7573 4.23184 12.1672 4.42365 12.687L5.18699 14.7559C5.55303 15.748 6.95217 15.748 7.31821 14.7559L8.08155 12.687C8.27336 12.1672 8.68204 11.7573 9.20039 11.565L11.2633 10.7994C12.2525 10.4323 12.2525 9.02909 11.2633 8.66199L9.20039 7.89643C8.68204 7.70407 8.27336 7.2942 8.08155 6.77435L7.31821 4.70546ZM8.89952 9.49822C9.00936 9.49822 9.11351 9.43365 9.16086 9.3273C9.22335 9.18296 9.15707 9.01583 9.01315 8.95315C8.13447 8.56761 7.43758 7.8687 7.05505 6.98747C6.99066 6.84313 6.82402 6.77666 6.6801 6.83933C6.53618 6.90201 6.4699 7.07104 6.53428 7.21538C6.97552 8.22955 7.77466 9.03102 8.7859 9.47543C8.82378 9.49063 8.86165 9.49822 8.89952 9.49822Z" fill="url(#paint0_linear_7975_119947)"/>
<path fill-rule="evenodd" clip-rule="evenodd" d="M12.8026 0.820354C12.645 0.393215 12.0426 0.393216 11.885 0.820354L11.3729 2.20847C11.2903 2.43229 11.1143 2.60875 10.8912 2.69157L9.50706 3.20522C9.08116 3.36328 9.08116 3.96742 9.50706 4.12547L10.8912 4.63912C11.1143 4.72194 11.2903 4.89841 11.3729 5.12223L11.885 6.51034C12.0426 6.93748 12.645 6.93748 12.8026 6.51034L13.3148 5.12223C13.3974 4.89841 13.5733 4.72194 13.7965 4.63912L15.1806 4.12547C15.6065 3.96742 15.6065 3.36328 15.1806 3.20522L13.7965 2.69157C13.5733 2.60875 13.3974 2.43229 13.3148 2.20847L12.8026 0.820354ZM13.239 3.75826C13.3356 3.75826 13.4284 3.71078 13.4833 3.62152C13.5648 3.48667 13.5212 3.31195 13.3867 3.23028C13.0705 3.03656 12.8073 2.78207 12.6027 2.4706C12.5175 2.33765 12.3414 2.30157 12.2107 2.38703C12.0801 2.47439 12.0422 2.64912 12.1274 2.78207C12.3774 3.16571 12.7012 3.47908 13.0932 3.71838C13.1387 3.74497 13.1898 3.75826 13.239 3.75826Z" fill="url(#paint1_linear_7975_119947)"/>
<defs>
<linearGradient id="paint0_linear_7975_119947" x1="0.298994" y1="0.600385" x2="15.4035" y2="15.6612" gradientUnits="userSpaceOnUse">
<stop stop-color="#3535F3"/>
<stop offset="1" stop-color="#1ECCB0"/>
</linearGradient>
<linearGradient id="paint1_linear_7975_119947" x1="0.298994" y1="0.600385" x2="15.4035" y2="15.6612" gradientUnits="userSpaceOnUse">
<stop stop-color="#3535F3"/>
<stop offset="1" stop-color="#1ECCB0"/>
</linearGradient>
</defs>
</svg>
