<svg width="16" height="16" viewBox="0 0 16 16" fill="none" xmlns="http://www.w3.org/2000/svg">
<path d="M11.4361 10.0021L10.0944 10.5271C8.5944 11.1104 7.42773 12.3104 6.90273 13.8104L6.38607 15.2771C6.27773 15.5771 5.85273 15.5771 5.75273 15.2771L5.23607 13.8104C4.71107 12.3104 3.5444 11.1104 2.0444 10.5271L0.702734 10.0021C0.419401 9.89376 0.419401 9.49376 0.702734 9.38542L2.0444 8.86042C3.5444 8.27709 4.71107 7.07709 5.23607 5.57709L5.75273 4.11042C5.86107 3.81042 6.28607 3.81042 6.38607 4.11042L6.90273 5.57709C7.42773 7.07709 8.5944 8.27709 10.0944 8.86042L11.4361 9.38542C11.7194 9.49376 11.7194 9.89376 11.4361 10.0021ZM15.4027 3.27709L14.7277 3.01042C13.9694 2.71876 13.3777 2.11042 13.1194 1.35209L12.8611 0.610425C12.8111 0.460425 12.5944 0.460425 12.5361 0.610425L12.2777 1.35209C12.0111 2.11042 11.4194 2.71876 10.6694 3.01042L9.9944 3.27709C9.85273 3.33542 9.85273 3.53542 9.9944 3.58542L10.6694 3.85209C11.4277 4.14376 12.0194 4.75209 12.2777 5.51042L12.5361 6.25209C12.5861 6.40209 12.8027 6.40209 12.8611 6.25209L13.1194 5.51042C13.3861 4.75209 13.9777 4.14376 14.7277 3.85209L15.4027 3.58542C15.5444 3.52709 15.5444 3.32709 15.4027 3.27709Z" fill="url(#paint0_linear_5143_702)"/>
<defs>
<linearGradient id="paint0_linear_5143_702" x1="-2.15511" y1="8.00001" x2="18.1174" y2="7.13517" gradientUnits="userSpaceOnUse">
<stop stop-color="#1ECCB0"/>
<stop offset="1" stop-color="#3535F3"/>
</linearGradient>
</defs>
</svg>
