<svg width="71" height="72" viewBox="0 0 71 72" fill="none" xmlns="http://www.w3.org/2000/svg">
<rect x="0.5" y="0.5" width="70" height="71" rx="4.5" stroke="#7B61FF" stroke-dasharray="10 5"/>
<path d="M38.5 41.5C38.5 43.15 37.15 44.5 35.5 44.5C33.85 44.5 32.5 43.15 32.5 41.5H34.5C34.5 42.05 34.95 42.5 35.5 42.5C36.05 42.5 36.5 42.05 36.5 41.5C36.5 40.95 36.05 40.5 35.5 40.5H26V38.5H35.5C37.15 38.5 38.5 39.85 38.5 41.5ZM43 31C43 29.07 41.43 27.5 39.5 27.5C37.57 27.5 36 29.07 36 31H38C38 30.17 38.67 29.5 39.5 29.5C40.33 29.5 41 30.17 41 31C41 31.83 40.33 32.5 39.5 32.5H26V34.5H39.5C41.43 34.5 43 32.93 43 31ZM42.5 35.5H26V37.5H42.5C43.33 37.5 44 38.17 44 39C44 39.83 43.33 40.5 42.5 40.5V42.5C44.43 42.5 46 40.93 46 39C46 37.07 44.43 35.5 42.5 35.5Z" fill="#8F8F8F"/>
</svg>
