<svg width="73" height="72" viewBox="0 0 73 72" fill="none" xmlns="http://www.w3.org/2000/svg">
<rect x="0.5" y="0.5" width="72" height="71" rx="4.5" stroke="#7B61FF" stroke-dasharray="10 5"/>
<path d="M44.19 28H28C26.9 28 26.01 28.9 26.01 30V34C27.11 34 28 34.9 28 36C28 37.1 27.11 38 26 38V42C26 43.1 26.9 44 28 44H44C45.1 44 46 43.1 46 42V30C46 28.9 45.19 28 44.19 28ZM44 42H28V39.46C29.19 38.77 30 37.47 30 36C30 34.52 29.2 33.23 28.01 32.54L28 30H44V42ZM32.87 39.66L31.21 36.78L32.14 36.53L33.4 37.52L35.79 36.88L33.39 32.72L34.79 32.34L38.8 36.08L41.24 35.43C41.75 35.29 42.28 35.6 42.42 36.11C42.55 36.62 42.25 37.15 41.73 37.3L32.87 39.66Z" fill="#8F8F8F"/>
</svg>
