<svg width="72" height="72" viewBox="0 0 72 72" fill="none" xmlns="http://www.w3.org/2000/svg">
<rect x="0.5" y="0.5" width="71" height="71" rx="4.5" stroke="#7B61FF" stroke-dasharray="10 5"/>
<path d="M34.262 30.385C34.882 30.205 35.542 30.095 36.222 30.095C40.082 30.095 43.222 33.235 43.222 37.095C43.222 37.775 43.112 38.435 42.932 39.055L44.492 40.615C44.962 39.535 45.222 38.345 45.222 37.095C45.222 32.125 41.192 28.095 36.222 28.095C34.972 28.095 33.782 28.355 32.692 28.815L34.262 30.385ZM41.559 25.905L46.166 29.75L44.886 31.285L40.276 27.442L41.559 25.905ZM27.242 26.195L25.832 27.605L27.202 28.975L26.282 29.745L27.562 31.285L28.622 30.405L29.422 31.205C28.052 32.785 27.222 34.845 27.222 37.095C27.222 42.065 31.252 46.095 36.222 46.095C38.472 46.095 40.532 45.265 42.112 43.895L44.212 45.995L45.622 44.585L27.242 26.195ZM36.222 44.095C32.362 44.095 29.222 40.955 29.222 37.095C29.222 35.395 29.832 33.835 30.842 32.625L40.692 42.475C39.482 43.485 37.922 44.095 36.222 44.095ZM31.702 27.825L32.162 27.445L30.882 25.905L30.282 26.405L31.702 27.825Z" fill="#8F8F8F"/>
</svg>
