<svg width="72" height="72" viewBox="0 0 72 72" fill="none" xmlns="http://www.w3.org/2000/svg">
<rect x="0.5" y="0.5" width="71" height="71" rx="4.5" stroke="#7B61FF" stroke-dasharray="10 5"/>
<path d="M41.3366 25.905L45.9436 29.75L44.6636 31.285L40.0536 27.442L41.3366 25.905ZM30.6626 25.905L31.9446 27.441L27.3366 31.285L26.0566 29.749L30.6626 25.905ZM35.9996 28.095C31.0296 28.095 26.9996 32.125 26.9996 37.095C26.9996 42.065 31.0296 46.095 35.9996 46.095C40.9696 46.095 44.9996 42.065 44.9996 37.095C44.9996 32.125 40.9696 28.095 35.9996 28.095ZM35.9996 44.095C32.1396 44.095 28.9996 40.955 28.9996 37.095C28.9996 33.235 32.1396 30.095 35.9996 30.095C39.8596 30.095 42.9996 33.235 42.9996 37.095C42.9996 40.955 39.8596 44.095 35.9996 44.095ZM36.9996 33.095H34.9996V36.095H31.9996V38.095H34.9996V41.095H36.9996V38.095H39.9996V36.095H36.9996V33.095Z" fill="#8F8F8F"/>
</svg>
