<svg width="73" height="72" viewBox="0 0 73 72" fill="none" xmlns="http://www.w3.org/2000/svg">
<rect x="0.5" y="0.5" width="72" height="71" rx="4.5" stroke="#7B61FF" stroke-dasharray="10 5"/>
<path d="M36 26C30.48 26 26 30.48 26 36C26 41.52 30.48 46 36 46C41.52 46 46 41.52 46 36C46 30.48 41.52 26 36 26ZM36 44C31.59 44 28 40.41 28 36C28 31.59 31.59 28 36 28C40.41 28 44 31.59 44 36C44 40.41 40.41 44 36 44ZM36 31.5C33.51 31.5 31.5 33.51 31.5 36C31.5 38.49 33.51 40.5 36 40.5C38.49 40.5 40.5 38.49 40.5 36C40.5 33.51 38.49 31.5 36 31.5ZM36 37C35.45 37 35 36.55 35 36C35 35.45 35.45 35 36 35C36.55 35 37 35.45 37 36C37 36.55 36.55 37 36 37Z" fill="#8F8F8F"/>
</svg>
