<svg width="70" height="72" viewBox="0 0 70 72" fill="none" xmlns="http://www.w3.org/2000/svg">
<rect x="0.5" y="0.5" width="69" height="71" rx="4.5" stroke="#7B61FF" stroke-dasharray="10 5"/>
<path d="M28 28V32L32 28H28ZM40 28L44 32V28H40ZM44 44V40L40 44H44ZM28 44H32L28 40V44ZM43 36C43 32.13 39.87 29 36 29C32.13 29 29 32.13 29 36C29 39.87 32.13 43 36 43C39.87 43 43 39.87 43 36ZM36 41C33.24 41 31 38.76 31 36C31 33.24 33.24 31 36 31C38.76 31 41 33.24 41 36C41 38.76 38.76 41 36 41Z" fill="#8F8F8F"/>
</svg>
