<svg width="77" height="72" viewBox="0 0 77 72" fill="none" xmlns="http://www.w3.org/2000/svg">
<rect x="0.5" y="0.5" width="76" height="71" rx="4.5" stroke="#7B61FF" stroke-dasharray="10 5"/>
<path d="M43 27H29C27.9 27 27 27.9 27 29V36C27 37.1 27.9 38 29 38H43C44.1 38 45 37.1 45 36V29C45 27.9 44.1 27 43 27ZM29 34H32.13C32.34 34.78 32.8 35.47 33.4 36H29V34ZM43 36H38.6C39.2 35.47 39.66 34.78 39.87 34H43V36ZM43 32H38V33C38 34.07 37.07 35 36 35C34.93 35 34 34.07 34 33V32H29V29H43V32ZM38 39V40C38 40.47 37.81 40.9 37.52 41.25C37.15 41.7 36.6 42 36 42C35.4 42 34.85 41.7 34.48 41.25C34.19 40.9 34 40.47 34 40V39H27V43C27 44.1 27.9 45 29 45H43C44.1 45 45 44.1 45 43V39H38ZM29 41H32.13C32.15 41.09 32.19 41.17 32.22 41.25C32.46 41.93 32.87 42.53 33.4 43H29V41ZM43 43H38.6C39.14 42.53 39.55 41.93 39.78 41.25C39.81 41.17 39.85 41.09 39.87 41H43V43Z" fill="#8F8F8F"/>
</svg>
