<svg width="72" height="72" viewBox="0 0 72 72" fill="none" xmlns="http://www.w3.org/2000/svg">
<g clip-path="url(#clip0_256_17252)">
<path d="M36 26C30.48 26 26 30.48 26 36C26 41.52 30.48 46 36 46H41V44H36C31.66 44 28 40.34 28 36C28 31.66 31.66 28 36 28C40.34 28 44 31.66 44 36V37.43C44 38.22 43.29 39 42.5 39C41.71 39 41 38.22 41 37.43V36C41 33.24 38.76 31 36 31C33.24 31 31 33.24 31 36C31 38.76 33.24 41 36 41C37.38 41 38.64 40.44 39.54 39.53C40.19 40.42 41.31 41 42.5 41C44.47 41 46 39.4 46 37.43V36C46 30.48 41.52 26 36 26ZM36 39C34.34 39 33 37.66 33 36C33 34.34 34.34 33 36 33C37.66 33 39 34.34 39 36C39 37.66 37.66 39 36 39Z" fill="#8F8F8F"/>
</g>
<rect x="0.5" y="0.5" width="71" height="71" rx="4.5" stroke="#7B61FF" stroke-dasharray="10 5"/>
<defs>
<clipPath id="clip0_256_17252">
<rect width="72" height="72" rx="5" fill="white"/>
</clipPath>
</defs>
</svg>
