<svg width="72" height="72" viewBox="0 0 72 72" fill="none" xmlns="http://www.w3.org/2000/svg">
<rect x="0.5" y="0.5" width="71" height="71" rx="4.5" stroke="#7B61FF" stroke-dasharray="10 5"/>
<path d="M43 27H29C27.9 27 27 27.9 27 29V43C27 44.1 27.9 45 29 45H43C44.1 45 45 44.1 45 43V29C45 27.9 44.1 27 43 27ZM43 43H29V29H43V43Z" fill="#8F8F8F"/>
<path d="M33 36H31V41H33V36Z" fill="#8F8F8F"/>
<path d="M41 31H39V41H41V31Z" fill="#8F8F8F"/>
<path d="M37 38H35V41H37V38Z" fill="#8F8F8F"/>
<path d="M37 34H35V36H37V34Z" fill="#8F8F8F"/>
</svg>
