<svg width="72" height="72" viewBox="0 0 72 72" fill="none" xmlns="http://www.w3.org/2000/svg">
<rect x="0.5" y="0.5" width="71" height="71" rx="4.5" stroke="#7B61FF" stroke-dasharray="10 5"/>
<path d="M41 39L42.55 40.55C41.59 42.24 39.22 43.59 37 43.92V35H40V33H37V31.82C38.16 31.4 39 30.3 39 29C39 27.35 37.65 26 36 26C34.35 26 33 27.35 33 29C33 30.3 33.84 31.4 35 31.82V33H32V35H35V43.92C32.78 43.59 30.41 42.24 29.45 40.55L31 39L27 36V39C27 42.88 31.92 46 36 46C40.08 46 45 42.88 45 39V36L41 39ZM36 28C36.55 28 37 28.45 37 29C37 29.55 36.55 30 36 30C35.45 30 35 29.55 35 29C35 28.45 35.45 28 36 28Z" fill="#8F8F8F"/>
</svg>
