<svg width="73" height="72" viewBox="0 0 73 72" fill="none" xmlns="http://www.w3.org/2000/svg">
<rect x="0.5" y="0.5" width="72" height="71" rx="4.5" stroke="#7B61FF" stroke-dasharray="10 5"/>
<path d="M41.6 33.7914L43.44 30.6114C43.6 30.3014 43.48 29.9214 43.18 29.7614C42.89 29.6114 42.53 29.7014 42.35 29.9814L40.47 33.2214C37.61 32.0114 34.39 32.0114 31.53 33.2214L29.65 29.9814C29.46 29.6914 29.07 29.6014 28.78 29.7814C28.5 29.9614 28.41 30.3214 28.56 30.6114L30.4 33.7914C27.3 35.5614 25.28 38.7514 25 42.3114H47C46.72 38.7514 44.7 35.5614 41.6 33.7914ZM31 39.5614C30.31 39.5614 29.75 39.0014 29.75 38.3114C29.75 37.6214 30.31 37.0614 31 37.0614C31.69 37.0614 32.25 37.6214 32.25 38.3114C32.25 39.0014 31.69 39.5614 31 39.5614ZM41 39.5614C40.31 39.5614 39.75 39.0014 39.75 38.3114C39.75 37.6214 40.31 37.0614 41 37.0614C41.69 37.0614 42.25 37.6214 42.25 38.3114C42.25 39.0014 41.69 39.5614 41 39.5614Z" fill="#8F8F8F"/>
</svg>
