<svg width="72" height="72" viewBox="0 0 72 72" fill="none" xmlns="http://www.w3.org/2000/svg">
<rect x="0.5" y="0.5" width="71" height="71" rx="4.5" stroke="#7B61FF" stroke-dasharray="10 5"/>
<path d="M39 26C36.29 26 33.95 27.54 32.78 29.78C31.5 30.45 30.44 31.5 29.78 32.78C27.54 33.95 26 36.29 26 39C26 42.87 29.13 46 33 46C35.71 46 38.05 44.46 39.22 42.22C40.5 41.55 41.56 40.5 42.22 39.22C44.46 38.05 46 35.71 46 33C46 29.13 42.87 26 39 26ZM33 44C30.24 44 28 41.76 28 39C28 37.88 28.37 36.84 29 36C29 39.87 32.13 43 36 43C35.16 43.63 34.12 44 33 44ZM36 41C33.24 41 31 38.76 31 36C31 34.88 31.37 33.84 32 33C32 36.86 35.13 39.99 39 40C38.16 40.63 37.12 41 36 41ZM40.7 37.7C40.17 37.89 39.6 38 39 38C36.24 38 34 35.76 34 33C34 32.4 34.11 31.83 34.3 31.3C34.83 31.11 35.4 31 36 31C38.76 31 41 33.24 41 36C41 36.6 40.89 37.17 40.7 37.7ZM43 36C43 32.14 39.87 29.01 36 29C36.84 28.37 37.87 28 39 28C41.76 28 44 30.24 44 33C44 34.12 43.63 35.16 43 36Z" fill="#8F8F8F"/>
</svg>
