<svg width="72" height="72" viewBox="0 0 72 72" fill="none" xmlns="http://www.w3.org/2000/svg">
<rect x="0.5" y="0.5" width="71" height="71" rx="4.5" stroke="#7B61FF" stroke-dasharray="10 5"/>
<path d="M38 36L36 38L34 36L36 34L38 36ZM36 30L38.12 32.12L40.62 29.62L36 25L31.38 29.62L33.88 32.12L36 30ZM30 36L32.12 33.88L29.62 31.38L25 36L29.62 40.62L32.12 38.12L30 36ZM42 36L39.88 38.12L42.38 40.62L47 36L42.38 31.38L39.88 33.88L42 36ZM36 42L33.88 39.88L31.38 42.38L36 47L40.62 42.38L38.12 39.88L36 42Z" fill="#8F8F8F"/>
</svg>
