<svg width="70" height="72" viewBox="0 0 70 72" fill="none" xmlns="http://www.w3.org/2000/svg">
<rect x="0.5" y="0.5" width="69" height="71" rx="4.5" stroke="#7B61FF" stroke-dasharray="10 5"/>
<path d="M40.5 32C38.29 32 36.5 33.79 36.5 36C36.5 38.21 38.29 40 40.5 40C42.71 40 44.5 38.21 44.5 36C44.5 33.79 42.71 32 40.5 32ZM38 36C38 34.62 39.12 33.5 40.5 33.5C40.92 33.5 41.3 33.61 41.65 33.79L38.29 37.15C38.11 36.8 38 36.42 38 36ZM40.5 38.5C40.08 38.5 39.7 38.39 39.35 38.21L42.71 34.85C42.89 35.2 43 35.58 43 36C43 37.38 41.88 38.5 40.5 38.5Z" fill="#8F8F8F"/>
<path d="M39.5 42H29.5V30H39.5V31H41.5V27C41.5 25.9 40.6 25 39.5 25H29.5C28.4 25 27.5 25.9 27.5 27V45C27.5 46.1 28.4 47 29.5 47H39.5C40.6 47 41.5 46.1 41.5 45V41H39.5V42ZM29.5 27H39.5V28H29.5V27ZM39.5 45H29.5V44H39.5V45Z" fill="#8F8F8F"/>
</svg>
