<svg width="77" height="72" viewBox="0 0 77 72" fill="none" xmlns="http://www.w3.org/2000/svg">
<rect x="0.5" y="0.5" width="76" height="71" rx="4.5" stroke="#7B61FF" stroke-dasharray="10 5"/>
<path d="M39 42H29V30H39V31H41V27C41 25.9 40.1 25 39 25H29C27.9 25 27 25.9 27 27V45C27 46.1 27.9 47 29 47H39C40.1 47 41 46.1 41 45V41H39V42ZM29 27H39V28H29V27ZM39 45H29V44H39V45Z" fill="#8F8F8F"/>
<path d="M42.38 33.62L43 35L43.62 33.62L45 33L43.62 32.38L43 31L42.38 32.38L41 33L42.38 33.62Z" fill="#8F8F8F"/>
<path d="M38 32L36.75 34.75L34 36L36.75 37.25L38 40L39.25 37.25L42 36L39.25 34.75L38 32Z" fill="#8F8F8F"/>
<path d="M43 37L42.38 38.38L41 39L42.38 39.62L43 41L43.62 39.62L45 39L43.62 38.38L43 37Z" fill="#8F8F8F"/>
</svg>
