<svg width="72" height="72" viewBox="0 0 72 72" fill="none" xmlns="http://www.w3.org/2000/svg">
<rect x="0.5" y="0.5" width="71" height="71" rx="4.5" stroke="#7B61FF" stroke-dasharray="10 5"/>
<path d="M26 36C26 41.52 30.48 46 36 46C41.52 46 46 41.52 46 36C46 30.48 41.52 26 36 26C30.48 26 26 30.48 26 36ZM44 36C44 40.42 40.42 44 36 44C31.58 44 28 40.42 28 36C28 31.58 31.58 28 36 28C40.42 28 44 31.58 44 36ZM32 36L36 32L37.41 33.41L35.83 35H40V37H35.83L37.42 38.59L36 40L32 36Z" fill="#8F8F8F"/>
</svg>
