<svg width="70" height="72" viewBox="0 0 70 72" fill="none" xmlns="http://www.w3.org/2000/svg">
<rect x="0.5" y="0.5" width="69" height="71" rx="4.5" stroke="#7B61FF" stroke-dasharray="10 5"/>
<path d="M31 40H38V42H31V40ZM31 36H41V38H31V36ZM31 32H41V34H31V32ZM43 28H38.82C38.4 26.84 37.3 26 36 26C34.7 26 33.6 26.84 33.18 28H29C28.86 28 28.73 28.01 28.6 28.04C28.21 28.12 27.86 28.32 27.59 28.59C27.41 28.77 27.26 28.99 27.16 29.23C27.06 29.46 27 29.72 27 30V44C27 44.27 27.06 44.54 27.16 44.78C27.26 45.02 27.41 45.23 27.59 45.42C27.86 45.69 28.21 45.89 28.6 45.97C28.73 45.99 28.86 46 29 46H43C44.1 46 45 45.1 45 44V30C45 28.9 44.1 28 43 28ZM36 27.75C36.41 27.75 36.75 28.09 36.75 28.5C36.75 28.91 36.41 29.25 36 29.25C35.59 29.25 35.25 28.91 35.25 28.5C35.25 28.09 35.59 27.75 36 27.75ZM43 44H29V30H43V44Z" fill="#8F8F8F"/>
</svg>
