<svg width="72" height="72" viewBox="0 0 72 72" fill="none" xmlns="http://www.w3.org/2000/svg">
<rect x="0.5" y="0.5" width="71" height="71" rx="4.5" stroke="#7B61FF" stroke-dasharray="10 5"/>
<path d="M43 25.5H29C27.9 25.5 27 26.4 27 27.5V41.5C27 42.6 27.9 43.5 29 43.5H33L36 46.5L39 43.5H43C44.1 43.5 45 42.6 45 41.5V27.5C45 26.4 44.1 25.5 43 25.5ZM43 41.5H38.17L36 43.67L33.83 41.5H29V27.5H43V41.5ZM36 40.5L37.88 36.38L42 34.5L37.88 32.62L36 28.5L34.12 32.62L30 34.5L34.12 36.38L36 40.5Z" fill="#8F8F8F"/>
</svg>
