<svg width="72" height="72" viewBox="0 0 72 72" fill="none" xmlns="http://www.w3.org/2000/svg">
<rect x="0.5" y="0.5" width="71" height="71" rx="4.5" stroke="#7B61FF" stroke-dasharray="10 5"/>
<path d="M43 28H38.82C38.4 26.84 37.3 26 36 26C34.7 26 33.6 26.84 33.18 28H29C27.9 28 27 28.9 27 30V44C27 45.1 27.9 46 29 46H43C44.1 46 45 45.1 45 44V30C45 28.9 44.1 28 43 28ZM36 27.75C36.22 27.75 36.41 27.85 36.55 28C36.67 28.13 36.75 28.31 36.75 28.5C36.75 28.91 36.41 29.25 36 29.25C35.59 29.25 35.25 28.91 35.25 28.5C35.25 28.31 35.33 28.13 35.45 28C35.59 27.85 35.78 27.75 36 27.75ZM43 44H29V30H43V44ZM36 31C34.35 31 33 32.35 33 34C33 35.65 34.35 37 36 37C37.65 37 39 35.65 39 34C39 32.35 37.65 31 36 31ZM36 35C35.45 35 35 34.55 35 34C35 33.45 35.45 33 36 33C36.55 33 37 33.45 37 34C37 34.55 36.55 35 36 35ZM30 41.47V43H42V41.47C42 38.97 38.03 37.89 36 37.89C33.97 37.89 30 38.96 30 41.47ZM32.31 41C33 40.44 34.69 39.88 36 39.88C37.31 39.88 39.01 40.44 39.69 41H32.31Z" fill="#8F8F8F"/>
</svg>
