<svg width="70" height="72" viewBox="0 0 70 72" fill="none" xmlns="http://www.w3.org/2000/svg">
<rect x="0.5" y="0.5" width="69" height="71" rx="4.5" stroke="#7B61FF" stroke-dasharray="10 5"/>
<path d="M30 33.5H28V40.5H30V33.5Z" fill="#8F8F8F"/>
<path d="M36 33.5H34V40.5H36V33.5Z" fill="#8F8F8F"/>
<path d="M45 29.5L35 24.5L25 29.5V31.5H45V29.5ZM29.47 29.5L35 26.74L40.53 29.5H29.47Z" fill="#8F8F8F"/>
<path d="M25 42.5V44.5H37.4C37.19 43.86 37.08 43.19 37.04 42.5H25Z" fill="#8F8F8F"/>
<path d="M42 35.76V33.5H40V36.76L42 35.76Z" fill="#8F8F8F"/>
<path d="M43 37.5L39 39.5V42.05C39 44.57 40.71 46.93 43 47.5C45.29 46.93 47 44.57 47 42.05V39.5L43 37.5ZM42.28 44.5L40.25 42.47L41.31 41.41L42.28 42.38L44.69 40L45.75 41.06L42.28 44.5Z" fill="#8F8F8F"/>
</svg>
