<svg width="73" height="72" viewBox="0 0 73 72" fill="none" xmlns="http://www.w3.org/2000/svg">
<rect x="0.5" y="0.5" width="72" height="71" rx="4.5" stroke="#7B61FF" stroke-dasharray="10 5"/>
<path d="M42 40H30.5C28.29 40 26.5 38.21 26.5 36C26.5 33.79 28.29 32 30.5 32H43C44.38 32 45.5 33.12 45.5 34.5C45.5 35.88 44.38 37 43 37H32.5C31.95 37 31.5 36.55 31.5 36C31.5 35.45 31.95 35 32.5 35H42V33.5H32.5C31.12 33.5 30 34.62 30 36C30 37.38 31.12 38.5 32.5 38.5H43C45.21 38.5 47 36.71 47 34.5C47 32.29 45.21 30.5 43 30.5H30.5C27.46 30.5 25 32.96 25 36C25 39.04 27.46 41.5 30.5 41.5H42V40Z" fill="#8F8F8F"/>
</svg>
