<svg width="71" height="72" viewBox="0 0 71 72" fill="none" xmlns="http://www.w3.org/2000/svg">
<rect x="0.5" y="0.5" width="70" height="71" rx="4.5" stroke="#7B61FF" stroke-dasharray="10 5"/>
<path d="M27 30L35 35L43 30V33H45V28C45 26.9 44.1 26 43 26H27C25.9 26 25.01 26.9 25.01 28L25 40C25 41.1 25.9 42 27 42H37V40H27V30ZM43 28L35 33L27 28H43Z" fill="#8F8F8F"/>
<path d="M45 38V42C45 43.1 44.1 44 43 44C41.9 44 41 43.1 41 42V37.5C41 37.22 41.22 37 41.5 37C41.78 37 42 37.22 42 37.5V42H44V37.5C44 36.12 42.88 35 41.5 35C40.12 35 39 36.12 39 37.5V42C39 44.21 40.79 46 43 46C45.21 46 47 44.21 47 42V38H45Z" fill="#8F8F8F"/>
</svg>
