<svg width="74" height="72" viewBox="0 0 74 72" fill="none" xmlns="http://www.w3.org/2000/svg">
<rect x="0.5" y="0.5" width="73" height="71" rx="4.5" stroke="#7B61FF" stroke-dasharray="10 5"/>
<path d="M36 32.5C35.09 32.5 33.25 32.96 33.25 33.88V38.5H34.75V43H37.25V38.5H38.75V33.88C38.75 32.97 36.91 32.5 36 32.5ZM36 26C30.47 26 26 30.47 26 36C26 41.53 30.47 46 36 46C41.53 46 46 41.52 46 36C46 30.48 41.52 26 36 26ZM36 44C31.58 44 28 40.42 28 36C28 31.58 31.58 28 36 28C40.42 28 44 31.58 44 36C44 40.42 40.42 44 36 44Z" fill="#8F8F8F"/>
<path d="M36 32C36.8284 32 37.5 31.3284 37.5 30.5C37.5 29.6716 36.8284 29 36 29C35.1716 29 34.5 29.6716 34.5 30.5C34.5 31.3284 35.1716 32 36 32Z" fill="#8F8F8F"/>
</svg>
