<svg width="71" height="72" viewBox="0 0 71 72" fill="none" xmlns="http://www.w3.org/2000/svg">
<rect x="0.5" y="0.5" width="70" height="71" rx="4.5" stroke="#7B61FF" stroke-dasharray="10 5"/>
<path d="M43.0554 27.535C41.3854 26.145 39.3154 25.235 37.0254 25.025V27.035C38.7554 27.225 40.3354 27.915 41.6354 28.955L43.0554 27.535Z" fill="#8F8F8F"/>
<path d="M35.0254 27.035V25.025C32.7354 25.225 30.6654 26.145 28.9954 27.535L30.4154 28.955C31.7154 27.915 33.2954 27.225 35.0254 27.035Z" fill="#8F8F8F"/>
<path d="M29.0054 30.365L27.5854 28.945C26.1954 30.615 25.2854 32.685 25.0754 34.975H27.0854C27.2754 33.245 27.9654 31.665 29.0054 30.365Z" fill="#8F8F8F"/>
<path d="M44.9654 34.975H46.9754C46.7654 32.685 45.8554 30.615 44.4654 28.945L43.0454 30.365C44.0854 31.665 44.7754 33.245 44.9654 34.975Z" fill="#8F8F8F"/>
<path d="M31.0254 35.975L34.4654 37.535L36.0254 40.975L37.5854 37.535L41.0254 35.975L37.5854 34.415L36.0254 30.975L34.4654 34.415L31.0254 35.975Z" fill="#8F8F8F"/>
<path d="M36.0254 44.975C32.9154 44.975 30.1754 43.385 28.5654 40.975H31.0254V38.975H25.0254V44.975H27.0254V42.275C29.0154 45.115 32.2954 46.975 36.0254 46.975C40.8954 46.975 45.0254 43.805 46.4654 39.415L44.5054 38.965C43.2754 42.455 39.9454 44.975 36.0254 44.975Z" fill="#8F8F8F"/>
</svg>
