<svg width="77" height="72" viewBox="0 0 77 72" fill="none" xmlns="http://www.w3.org/2000/svg">
<rect x="0.5" y="0.5" width="76" height="71" rx="4.5" stroke="#7B61FF" stroke-dasharray="10 5"/>
<path d="M36 30V33L40 29L36 25V28C31.58 28 28 31.58 28 36C28 37.57 28.46 39.03 29.24 40.26L30.7 38.8C30.25 37.97 30 37.01 30 36C30 32.69 32.69 30 36 30ZM42.76 31.74L41.3 33.2C41.74 34.04 42 34.99 42 36C42 39.31 39.31 42 36 42V39L32 43L36 47V44C40.42 44 44 40.42 44 36C44 34.43 43.54 32.97 42.76 31.74Z" fill="#8F8F8F"/>
</svg>
