<svg width="72" height="72" viewBox="0 0 72 72" fill="none" xmlns="http://www.w3.org/2000/svg">
<rect x="0.5" y="0.5" width="71" height="71" rx="4.5" stroke="#7B61FF" stroke-dasharray="10 5"/>
<path d="M46.47 30.95C46 30.71 45.51 30.51 45 30.34V42.37C43.86 41.96 42.69 41.75 41.5 41.75C39.6 41.75 37.72 42.29 36 43.33V31.23C34.38 30.3 32.51 29.75 30.5 29.75C28.71 29.75 27.02 30.19 25.53 30.95C25.2 31.11 25 31.46 25 31.83V43.91C25 44.49 25.47 44.9 26 44.9C26.16 44.9 26.32 44.86 26.48 44.78C27.69 44.15 29.05 43.75 30.5 43.75C32.57 43.75 34.48 44.57 36 45.75C37.52 44.57 39.43 43.75 41.5 43.75C42.95 43.75 44.31 44.15 45.52 44.79C45.68 44.87 45.84 44.91 46 44.91C46.52 44.91 47 44.5 47 43.92V31.83C47 31.46 46.8 31.11 46.47 30.95ZM34 42.37C32.86 41.96 31.69 41.75 30.5 41.75C29.31 41.75 28.14 41.96 27 42.37V32.46C28.11 31.99 29.28 31.75 30.5 31.75C31.7 31.75 32.89 32 34 32.47V42.37ZM43 26.25L38 31.25V40.75L43 36.25V26.25Z" fill="#8F8F8F"/>
</svg>
