<svg width="71" height="72" viewBox="0 0 71 72" fill="none" xmlns="http://www.w3.org/2000/svg">
<rect x="0.5" y="0.5" width="70" height="71" rx="4.5" stroke="#7B61FF" stroke-dasharray="10 5"/>
<path d="M39 26H35.5L34.5 25H29.5L28.5 26H25V28H39V26Z" fill="#8F8F8F"/>
<path d="M40 33C39.3 33 38.63 33.1 38 33.29V29H26V41C26 42.1 26.9 43 28 43H33.68C34.8 45.36 37.21 47 40 47C43.87 47 47 43.87 47 40C47 36.13 43.87 33 40 33ZM33 40C33 40.34 33.03 40.67 33.08 41H28V31H36V34.26C34.19 35.53 33 37.62 33 40ZM40 45C37.24 45 35 42.76 35 40C35 37.24 37.24 35 40 35C42.76 35 45 37.24 45 40C45 42.76 42.76 45 40 45Z" fill="#8F8F8F"/>
<path d="M40.5 36H39V41L42.6 43.1L43.4 41.9L40.5 40.2V36Z" fill="#8F8F8F"/>
</svg>
