<svg width="72" height="72" viewBox="0 0 72 72" fill="none" xmlns="http://www.w3.org/2000/svg">
<rect x="0.5" y="0.5" width="71" height="71" rx="4.5" stroke="#7B61FF" stroke-dasharray="10 5"/>
<path d="M43 33L44.25 30.25L47 29L44.25 27.75L43 25L41.75 27.75L39 29L41.75 30.25L43 33Z" fill="#8F8F8F"/>
<path d="M43 39L41.75 41.75L39 43L41.75 44.25L43 47L44.25 44.25L47 43L44.25 41.75L43 39Z" fill="#8F8F8F"/>
<path d="M35.5 33.5L33 28L30.5 33.5L25 36L30.5 38.5L33 44L35.5 38.5L41 36L35.5 33.5ZM33.99 36.99L33 39.17L32.01 36.99L29.83 36L32.01 35.01L33 32.83L33.99 35.01L36.17 36L33.99 36.99Z" fill="#8F8F8F"/>
</svg>
