<svg width="72" height="72" viewBox="0 0 72 72" fill="none" xmlns="http://www.w3.org/2000/svg">
<rect x="0.5" y="0.5" width="71" height="71" rx="4.5" stroke="#7B61FF" stroke-dasharray="10 5"/>
<path d="M43.8053 31.1951L44.7453 29.1351L46.8053 28.1951L44.7453 27.2551L43.8053 25.1951L42.8653 27.2551L40.8053 28.1951L42.8653 29.1351L43.8053 31.1951Z" fill="#8F8F8F"/>
<path d="M37.9753 32.6151L39.3853 34.0251L37.9253 35.4851L39.3353 36.8951L41.5053 34.7251C41.8953 34.3351 41.8953 33.7051 41.5053 33.3151L38.6753 30.4851C38.4853 30.2951 38.2353 30.1951 37.9753 30.1951C37.7153 30.1951 37.4653 30.2951 37.2653 30.4851L35.0953 32.6551L36.5053 34.0651L37.9753 32.6151Z" fill="#8F8F8F"/>
<path d="M25.1953 28.4151L32.2653 35.4851L26.0953 41.6551C25.7053 42.0451 25.7053 42.6751 26.0953 43.0651L28.9253 45.8951C29.1253 46.0951 29.3753 46.1951 29.6353 46.1951C29.8953 46.1951 30.1453 46.0951 30.3453 45.9051L36.5153 39.7351L43.5853 46.8051L44.9953 45.3951L26.6153 27.0051L25.1953 28.4151ZM35.0953 38.3151L29.6353 43.7751L28.2253 42.3651L33.6853 36.9051L35.0953 38.3151Z" fill="#8F8F8F"/>
</svg>
