<svg width="72" height="72" viewBox="0 0 72 72" fill="none" xmlns="http://www.w3.org/2000/svg">
<rect x="0.5" y="0.5" width="71" height="71" rx="4.5" stroke="#7B61FF" stroke-dasharray="10 5"/>
<path d="M43.5025 31.5L44.4425 29.44L46.5025 28.5L44.4425 27.56L43.5025 25.5L42.5625 27.56L40.5025 28.5L42.5625 29.44L43.5025 31.5Z" fill="#8F8F8F"/>
<path d="M32.0025 31.5L32.9425 29.44L35.0025 28.5L32.9425 27.56L32.0025 25.5L31.0625 27.56L29.0025 28.5L31.0625 29.44L32.0025 31.5Z" fill="#8F8F8F"/>
<path d="M43.5025 37L42.5625 39.06L40.5025 40L42.5625 40.94L43.5025 43L44.4425 40.94L46.5025 40L44.4425 39.06L43.5025 37Z" fill="#8F8F8F"/>
<path d="M41.2125 33.62L38.3825 30.79C38.1825 30.6 37.9325 30.5 37.6725 30.5C37.4125 30.5 37.1625 30.6 36.9625 30.79L25.7925 41.96C25.4025 42.35 25.4025 42.98 25.7925 43.37L28.6225 46.2C28.8225 46.4 29.0725 46.5 29.3325 46.5C29.5925 46.5 29.8425 46.4 30.0425 46.21L41.2125 35.04C41.6025 34.65 41.6025 34.01 41.2125 33.62ZM37.6725 32.92L39.0825 34.33L37.9125 35.5L36.5025 34.09L37.6725 32.92ZM29.3325 44.09L27.9225 42.68L35.0925 35.5L36.5025 36.91L29.3325 44.09Z" fill="#8F8F8F"/>
</svg>
