<svg width="72" height="72" viewBox="0 0 72 72" fill="none" xmlns="http://www.w3.org/2000/svg">
<rect x="0.5" y="0.5" width="71" height="71" rx="4.5" stroke="#7B61FF" stroke-dasharray="10 5"/>
<path d="M36.03 29.8H35.97L34.95 32.69H37.05L36.03 29.8Z" fill="#8F8F8F"/>
<path d="M29 40.5H27V45.5H29V40.5Z" fill="#8F8F8F"/>
<path d="M36 38.5C39.31 38.5 42 35.81 42 32.5C42 29.19 39.31 26.5 36 26.5C32.69 26.5 30 29.19 30 32.5C30 35.81 32.69 38.5 36 38.5ZM35.37 28.5H36.62L39.25 35.5H38.04L37.41 33.71H34.58L33.96 35.5H32.74L35.37 28.5Z" fill="#8F8F8F"/>
<path d="M33 40.5H31V45.5H33V40.5Z" fill="#8F8F8F"/>
<path d="M37 40.5H35V45.5H37V40.5Z" fill="#8F8F8F"/>
<path d="M45 40.5H39V45.5H45V40.5Z" fill="#8F8F8F"/>
</svg>
