<svg width="72" height="72" viewBox="0 0 72 72" fill="none" xmlns="http://www.w3.org/2000/svg">
<rect x="0.5" y="0.5" width="71" height="71" rx="4.5" stroke="#7B61FF" stroke-dasharray="10 5"/>
<path d="M35 41C35 41.55 35.45 42 36 42C36.55 42 37 41.55 37 41C37 40.45 36.55 40 36 40C35.45 40 35 40.45 35 41ZM35 27V31H37V29.08C40.39 29.57 43 32.47 43 36C43 39.87 39.87 43 36 43C32.13 43 29 39.87 29 36C29 34.32 29.59 32.78 30.58 31.58L36 37L37.41 35.59L30.61 28.79V28.81C28.42 30.45 27 33.05 27 36C27 40.97 31.02 45 36 45C40.97 45 45 40.97 45 36C45 31.03 40.97 27 36 27H35ZM42 36C42 35.45 41.55 35 41 35C40.45 35 40 35.45 40 36C40 36.55 40.45 37 41 37C41.55 37 42 36.55 42 36ZM30 36C30 36.55 30.45 37 31 37C31.55 37 32 36.55 32 36C32 35.45 31.55 35 31 35C30.45 35 30 35.45 30 36Z" fill="#8F8F8F"/>
</svg>
