<svg width="75" height="72" viewBox="0 0 75 72" fill="none" xmlns="http://www.w3.org/2000/svg">
<rect x="0.5" y="0.5" width="74" height="71" rx="4.5" stroke="#7B61FF" stroke-dasharray="10 5"/>
<path d="M46 27H31C30.31 27 29.77 27.35 29.41 27.88L24 36L29.41 44.11C29.77 44.64 30.31 45 31 45H46C47.1 45 48 44.1 48 43V29C48 27.9 47.1 27 46 27ZM46 43H31.07L26.4 36L31.06 29H46V43ZM34.41 41L38 37.41L41.59 41L43 39.59L39.41 36L43 32.41L41.59 31L38 34.59L34.41 31L33 32.41L36.59 36L33 39.59L34.41 41Z" fill="#8F8F8F"/>
</svg>
