<svg width="72" height="72" viewBox="0 0 72 72" fill="none" xmlns="http://www.w3.org/2000/svg">
<rect x="0.5" y="0.5" width="71" height="71" rx="4.5" stroke="#7B61FF" stroke-dasharray="10 5"/>
<path d="M37 32.33C37.85 32.03 38.53 31.35 38.83 30.5H42L39 37.5C39 39.16 40.57 40.5 42.5 40.5C44.43 40.5 46 39.16 46 37.5L43 30.5H45V28.5H38.83C38.42 27.33 37.31 26.5 36 26.5C34.69 26.5 33.58 27.33 33.17 28.5H27V30.5H29L26 37.5C26 39.16 27.57 40.5 29.5 40.5C31.43 40.5 33 39.16 33 37.5L30 30.5H33.17C33.47 31.35 34.15 32.03 35 32.33V43.5H26V45.5H46V43.5H37V32.33ZM44.37 37.5H40.63L42.5 33.14L44.37 37.5ZM31.37 37.5H27.63L29.5 33.14L31.37 37.5ZM36 30.5C35.45 30.5 35 30.05 35 29.5C35 28.95 35.45 28.5 36 28.5C36.55 28.5 37 28.95 37 29.5C37 30.05 36.55 30.5 36 30.5Z" fill="#8F8F8F"/>
</svg>
