<svg width="73" height="72" viewBox="0 0 73 72" fill="none" xmlns="http://www.w3.org/2000/svg">
<rect x="0.5" y="0.5" width="72" height="71" rx="4.5" stroke="#7B61FF" stroke-dasharray="10 5"/>
<path d="M41 32H31C29.9 32 29 32.9 29 34V44C29 45.1 29.9 46 31 46H41C42.1 46 43 45.1 43 44V34C43 32.9 42.1 32 41 32ZM37 44.5H35V43H37V44.5ZM37 42H35C35 40.5 32.5 39 32.5 37C32.5 35.07 34.07 33.5 36 33.5C37.93 33.5 39.5 35.07 39.5 37C39.5 39 37 40.5 37 42ZM42 30.5H30C30 29.67 30.67 29 31.5 29H40.5C41.33 29 42 29.67 42 30.5ZM41 27.5H31C31 26.67 31.67 26 32.5 26H39.5C40.33 26 41 26.67 41 27.5Z" fill="#8F8F8F"/>
</svg>
