<svg width="73" height="72" viewBox="0 0 73 72" fill="none" xmlns="http://www.w3.org/2000/svg">
<rect x="0.5" y="0.5" width="72" height="71" rx="4.5" stroke="#7B61FF" stroke-dasharray="10 5"/>
<path d="M39.67 28H38V26H34V28H32.33C31.6 28 31 28.6 31 29.33V44.66C31 45.4 31.6 46 32.33 46H39.66C40.4 46 41 45.4 41 44.67V29.33C41 28.6 40.4 28 39.67 28ZM37 42H35V40H37V42ZM38.3 36.69C38.3 36.69 37.92 37.11 37.63 37.4C37.15 37.88 36.8 38.55 36.8 39H35.2C35.2 38.17 35.66 37.48 36.13 37L37.06 36.06C37.33 35.79 37.5 35.41 37.5 35C37.5 34.17 36.83 33.5 36 33.5C35.17 33.5 34.5 34.17 34.5 35H33C33 33.34 34.34 32 36 32C37.66 32 39 33.34 39 35C39 35.66 38.73 36.26 38.3 36.69Z" fill="#8F8F8F"/>
</svg>
