<svg width="72" height="72" viewBox="0 0 72 72" fill="none" xmlns="http://www.w3.org/2000/svg">
<rect x="0.5" y="0.5" width="71" height="71" rx="4.5" stroke="#7B61FF" stroke-dasharray="10 5"/>
<path d="M33.9399 28.485C32.3099 36.025 37.6899 40.895 41.5999 42.285C40.2099 43.375 38.4799 43.995 36.6699 43.995C32.2599 43.995 28.6699 40.405 28.6699 35.995C28.6699 32.545 30.8699 29.595 33.9399 28.485ZM36.6599 26.005C31.0699 26.005 26.6699 30.535 26.6699 35.995C26.6699 41.515 31.1499 45.995 36.6699 45.995C40.3799 45.995 43.5999 43.975 45.3299 40.975C37.8199 40.725 33.2399 32.545 37.0099 26.005C36.8899 26.005 36.7799 26.005 36.6599 26.005Z" fill="#8F8F8F"/>
</svg>
