<svg width="72" height="72" viewBox="0 0 72 72" fill="none" xmlns="http://www.w3.org/2000/svg">
<rect x="0.5" y="0.5" width="71" height="71" rx="4.5" stroke="#7B61FF" stroke-dasharray="10 5"/>
<path d="M33.9796 28.18C33.8496 28.77 33.7796 29.33 33.7396 29.89L35.7896 31.94C35.5196 29.89 35.8896 27.72 37.0496 25.71C36.9296 25.71 36.8196 25.7 36.6996 25.7C34.6496 25.7 32.7696 26.31 31.1996 27.35L32.6596 28.81C33.0796 28.57 33.5196 28.35 33.9796 28.18Z" fill="#8F8F8F"/>
<path d="M26.0996 27.91L28.3696 30.18C27.3196 31.76 26.7096 33.66 26.7096 35.69C26.7096 41.21 31.1896 45.69 36.7096 45.69C38.7496 45.69 40.6296 45.06 42.2096 44.02L44.4896 46.3L45.8996 44.89L27.5196 26.5L26.0996 27.91ZM29.8396 31.65L40.7596 42.57C39.5496 43.2899 38.1596 43.69 36.7096 43.69C32.2996 43.69 28.7096 40.1 28.7096 35.69C28.7096 34.21 29.1296 32.84 29.8396 31.65Z" fill="#8F8F8F"/>
</svg>
