<svg width="75" height="72" viewBox="0 0 75 72" fill="none" xmlns="http://www.w3.org/2000/svg">
<rect x="0.5" y="0.5" width="74" height="71" rx="4.5" stroke="#7B61FF" stroke-dasharray="10 5"/>
<path d="M31 43.5C29.9 43.5 29 44.4 29 45.5H43C43 44.4 42.1 43.5 41 43.5H37V41.5H40C41.1 41.5 42 40.6 42 39.5H34C32.34 39.5 31 38.16 31 36.5C31 35.41 31.59 34.46 32.47 33.93C32.88 34.52 33.53 34.93 34.3 34.99C35 35.05 35.66 34.8 36.15 34.37L36.74 35.98L37.68 35.64L38.02 36.58L39.9 35.9L39.56 34.96L40.5 34.62L37.76 27.1L36.82 27.44L36.48 26.5L34.6 27.18L34.94 28.12L34 28.47L34.56 30.02C33.39 29.98 32.37 30.77 32.08 31.88C30.27 32.64 29 34.42 29 36.5C29 39.26 31.24 41.5 34 41.5V43.5H31ZM36.86 29.02L38.57 33.72L37.63 34.06L35.92 29.36L36.86 29.02ZM34.5 31.5C35.05 31.5 35.5 31.95 35.5 32.5C35.5 33.05 35.05 33.5 34.5 33.5C33.95 33.5 33.5 33.05 33.5 32.5C33.5 31.95 33.95 31.5 34.5 31.5Z" fill="#8F8F8F"/>
</svg>
