<svg width="72" height="72" viewBox="0 0 72 72" fill="none" xmlns="http://www.w3.org/2000/svg">
<rect x="0.5" y="0.5" width="71" height="71" rx="4.5" stroke="#7B61FF" stroke-dasharray="10 5"/>
<path d="M44 42.125V26.125H28V42.125H26V44.125H37.25C37.25 45.095 38.03 45.875 39 45.875C39.97 45.875 40.75 45.095 40.75 44.125H46V42.125H44ZM42 34.125H40V32.125H42V34.125ZM38 34.125H30V32.125H38V34.125ZM38 36.125V38.125H30V36.125H38ZM40 36.125H42V38.125H40V36.125ZM42 30.125H40V28.125H42V30.125ZM38 28.125V30.125H30V28.125H38ZM30 42.125V40.125H38V42.125H30ZM40 42.125V40.125H42V42.125H40Z" fill="#8F8F8F"/>
</svg>
