<svg width="74" height="72" viewBox="0 0 74 72" fill="none" xmlns="http://www.w3.org/2000/svg">
<rect x="0.5" y="0.5" width="73" height="71" rx="4.5" stroke="#7B61FF" stroke-dasharray="10 5"/>
<path d="M36 26C30.48 26 26 30.48 26 36C26 41.52 30.48 46 36 46C41.52 46 46 41.52 46 36C46 30.48 41.52 26 36 26ZM28 36C28 31.58 31.58 28 36 28C37.85 28 39.55 28.63 40.9 29.69L29.69 40.9C28.63 39.55 28 37.85 28 36ZM36 44C34.15 44 32.45 43.37 31.1 42.31L42.31 31.1C43.37 32.45 44 34.15 44 36C44 40.42 40.42 44 36 44Z" fill="#8F8F8F"/>
</svg>
