<svg width="72" height="72" viewBox="0 0 72 72" fill="none" xmlns="http://www.w3.org/2000/svg">
<rect x="0.5" y="0.5" width="71" height="71" rx="4.5" stroke="#7B61FF" stroke-dasharray="10 5"/>
<path d="M38.2341 36.01L40.5541 38.33C40.8341 37.61 40.9941 36.82 40.9941 36C40.9941 35.18 40.8341 34.41 40.5641 33.69L38.2341 36.01ZM43.5241 30.71L42.2641 31.97C42.8941 33.18 43.2441 34.54 43.2441 35.99C43.2441 37.44 42.8841 38.81 42.2641 40.01L43.4641 41.21C44.4341 39.67 45.0041 37.85 45.0041 35.9C44.9941 34.01 44.4541 32.23 43.5241 30.71ZM39.7041 31.71L33.9941 26H32.9941V33.59L28.4041 29L26.9941 30.41L32.5841 36L26.9941 41.59L28.4041 43L32.9941 38.41V46H33.9941L39.7041 40.29L35.4041 36L39.7041 31.71ZM34.9941 29.83L36.8741 31.71L34.9941 33.59V29.83ZM36.8741 40.29L34.9941 42.17V38.41L36.8741 40.29Z" fill="#8F8F8F"/>
</svg>
