<svg width="72" height="72" viewBox="0 0 72 72" fill="none" xmlns="http://www.w3.org/2000/svg">
<rect x="0.5" y="0.5" width="71" height="71" rx="4.5" stroke="#7B61FF" stroke-dasharray="10 5"/>
<path d="M30.5 41C31.3284 41 32 40.3284 32 39.5C32 38.6716 31.3284 38 30.5 38C29.6716 38 29 38.6716 29 39.5C29 40.3284 29.6716 41 30.5 41Z" fill="#8F8F8F"/>
<path d="M39.5 41C40.3284 41 41 40.3284 41 39.5C41 38.6716 40.3284 38 39.5 38C38.6716 38 38 38.6716 38 39.5C38 40.3284 38.6716 41 39.5 41Z" fill="#8F8F8F"/>
<path d="M42 42H28V37H39V35H28.81L29.85 32H39V30H29.5C28.84 30 28.29 30.42 28.08 31.01L26 37V45C26 45.55 26.45 46 27 46H28C28.55 46 29 45.55 29 45V44H41V45C41 45.55 41.45 46 42 46H43C43.55 46 44 45.55 44 45V37H42V42Z" fill="#8F8F8F"/>
<path d="M46 28.85L43.15 26H42.65V29.79L40.35 27.5L39.65 28.2L42.44 31L39.65 33.79L40.35 34.5L42.65 32.2V36H43.15L46 33.14L43.85 31L46 28.85ZM43.65 27.91L44.59 28.85L43.65 29.79V27.91ZM44.59 33.14L43.65 34.08V32.2L44.59 33.14Z" fill="#8F8F8F"/>
</svg>
