<svg width="72" height="72" viewBox="0 0 72 72" fill="none" xmlns="http://www.w3.org/2000/svg">
<rect x="0.5" y="0.5" width="71" height="71" rx="4.5" stroke="#7B61FF" stroke-dasharray="10 5"/>
<path d="M29 41.5C29.83 41.5 30.5 40.83 30.5 40C30.5 39.17 29.83 38.5 29 38.5C28.17 38.5 27.5 39.17 27.5 40C27.5 40.83 28.17 41.5 29 41.5ZM33 37C33.55 37 34 36.55 34 36C34 35.45 33.55 35 33 35C32.45 35 32 35.45 32 36C32 36.55 32.45 37 33 37ZM33 33C33.55 33 34 32.55 34 32C34 31.45 33.55 31 33 31C32.45 31 32 31.45 32 32C32 32.55 32.45 33 33 33ZM27 45H45V43H27V45ZM29 33.5C29.83 33.5 30.5 32.83 30.5 32C30.5 31.17 29.83 30.5 29 30.5C28.17 30.5 27.5 31.17 27.5 32C27.5 32.83 28.17 33.5 29 33.5ZM29 37.5C29.83 37.5 30.5 36.83 30.5 36C30.5 35.17 29.83 34.5 29 34.5C28.17 34.5 27.5 35.17 27.5 36C27.5 36.83 28.17 37.5 29 37.5ZM33 41C33.55 41 34 40.55 34 40C34 39.45 33.55 39 33 39C32.45 39 32 39.45 32 40C32 40.55 32.45 41 33 41ZM41 40.5C41.28 40.5 41.5 40.28 41.5 40C41.5 39.72 41.28 39.5 41 39.5C40.72 39.5 40.5 39.72 40.5 40C40.5 40.28 40.72 40.5 41 40.5ZM27 27V29H45V27H27ZM41 32.5C41.28 32.5 41.5 32.28 41.5 32C41.5 31.72 41.28 31.5 41 31.5C40.72 31.5 40.5 31.72 40.5 32C40.5 32.28 40.72 32.5 41 32.5ZM41 36.5C41.28 36.5 41.5 36.28 41.5 36C41.5 35.72 41.28 35.5 41 35.5C40.72 35.5 40.5 35.72 40.5 36C40.5 36.28 40.72 36.5 41 36.5ZM37 33C37.55 33 38 32.55 38 32C38 31.45 37.55 31 37 31C36.45 31 36 31.45 36 32C36 32.55 36.45 33 37 33ZM37 37C37.55 37 38 36.55 38 36C38 35.45 37.55 35 37 35C36.45 35 36 35.45 36 36C36 36.55 36.45 37 37 37ZM37 41C37.55 41 38 40.55 38 40C38 39.45 37.55 39 37 39C36.45 39 36 39.45 36 40C36 40.55 36.45 41 37 41Z" fill="#8F8F8F"/>
</svg>
