<svg width="72" height="72" viewBox="0 0 72 72" fill="none" xmlns="http://www.w3.org/2000/svg">
<rect x="0.5" y="0.5" width="71" height="71" rx="4.5" stroke="#7B61FF" stroke-dasharray="10 5"/>
<path d="M38 31C38.5523 31 39 30.5523 39 30C39 29.4477 38.5523 29 38 29C37.4477 29 37 29.4477 37 30C37 30.5523 37.4477 31 38 31Z" fill="#8F8F8F"/>
<path d="M37.8 35.48L38 35.5C38.83 35.5 39.5 34.83 39.5 34C39.5 33.17 38.83 32.5 38 32.5C37.17 32.5 36.5 33.17 36.5 34L36.52 34.2C36.61 34.87 37.13 35.39 37.8 35.48ZM38 27.5C38.28 27.5 38.5 27.28 38.5 27C38.5 26.72 38.28 26.5 38 26.5C37.72 26.5 37.5 26.72 37.5 27C37.5 27.28 37.72 27.5 38 27.5ZM34 27.5C34.28 27.5 34.5 27.28 34.5 27C34.5 26.72 34.28 26.5 34 26.5C33.72 26.5 33.5 26.72 33.5 27C33.5 27.28 33.72 27.5 34 27.5Z" fill="#8F8F8F"/>
<path d="M42 35C42.5523 35 43 34.5523 43 34C43 33.4477 42.5523 33 42 33C41.4477 33 41 33.4477 41 34C41 34.5523 41.4477 35 42 35Z" fill="#8F8F8F"/>
<path d="M42 31C42.5523 31 43 30.5523 43 30C43 29.4477 42.5523 29 42 29C41.4477 29 41 29.4477 41 30C41 30.5523 41.4477 31 42 31Z" fill="#8F8F8F"/>
<path d="M45 34.5C45.28 34.5 45.5 34.28 45.5 34C45.5 33.72 45.28 33.5 45 33.5C44.72 33.5 44.5 33.72 44.5 34C44.5 34.28 44.72 34.5 45 34.5Z" fill="#8F8F8F"/>
<path d="M34 31C34.5523 31 35 30.5523 35 30C35 29.4477 34.5523 29 34 29C33.4477 29 33 29.4477 33 30C33 30.5523 33.4477 31 34 31Z" fill="#8F8F8F"/>
<path d="M42 39C42.5523 39 43 38.5523 43 38C43 37.4477 42.5523 37 42 37C41.4477 37 41 37.4477 41 38C41 38.5523 41.4477 39 42 39Z" fill="#8F8F8F"/>
<path d="M30 43C30.5523 43 31 42.5523 31 42C31 41.4477 30.5523 41 30 41C29.4477 41 29 41.4477 29 42C29 42.5523 29.4477 43 30 43Z" fill="#8F8F8F"/>
<path d="M38 44.5C37.72 44.5 37.5 44.72 37.5 45C37.5 45.28 37.72 45.5 38 45.5C38.28 45.5 38.5 45.28 38.5 45C38.5 44.72 38.28 44.5 38 44.5ZM45 37.5C44.72 37.5 44.5 37.72 44.5 38C44.5 38.28 44.72 38.5 45 38.5C45.28 38.5 45.5 38.28 45.5 38C45.5 37.72 45.28 37.5 45 37.5ZM27 37.5C26.72 37.5 26.5 37.72 26.5 38C26.5 38.28 26.72 38.5 27 38.5C27.28 38.5 27.5 38.28 27.5 38C27.5 37.72 27.28 37.5 27 37.5Z" fill="#8F8F8F"/>
<path d="M34 43C34.5523 43 35 42.5523 35 42C35 41.4477 34.5523 41 34 41C33.4477 41 33 41.4477 33 42C33 42.5523 33.4477 43 34 43Z" fill="#8F8F8F"/>
<path d="M27 33.5C26.72 33.5 26.5 33.72 26.5 34C26.5 34.28 26.72 34.5 27 34.5C27.28 34.5 27.5 34.28 27.5 34C27.5 33.72 27.28 33.5 27 33.5ZM34 44.5C33.72 44.5 33.5 44.72 33.5 45C33.5 45.28 33.72 45.5 34 45.5C34.28 45.5 34.5 45.28 34.5 45C34.5 44.72 34.28 44.5 34 44.5Z" fill="#8F8F8F"/>
<path d="M30 39C30.5523 39 31 38.5523 31 38C31 37.4477 30.5523 37 30 37C29.4477 37 29 37.4477 29 38C29 38.5523 29.4477 39 30 39Z" fill="#8F8F8F"/>
<path d="M26.5 29.27L30.28 33.05L30 33C29.45 33 29 33.45 29 34C29 34.55 29.45 35 30 35C30.55 35 31 34.55 31 34C31 33.9 30.97 33.81 30.94 33.72L33.75 36.53C33.04 36.64 32.5 37.26 32.5 38C32.5 38.83 33.17 39.5 34 39.5C34.74 39.5 35.36 38.96 35.47 38.25L38.28 41.06C38.19 41.03 38.1 41 38 41C37.45 41 37 41.45 37 42C37 42.55 37.45 43 38 43C38.55 43 39 42.55 39 42C39 41.9 38.97 41.81 38.94 41.72L42.72 45.5H42.73L44.14 44.09L27.91 27.86L26.5 29.27Z" fill="#8F8F8F"/>
</svg>
