<svg width="72" height="72" viewBox="0 0 72 72" fill="none" xmlns="http://www.w3.org/2000/svg">
<rect x="0.5" y="0.5" width="71" height="71" rx="4.5" stroke="#7B61FF" stroke-dasharray="10 5"/>
<path d="M34 33C33.45 33 33 33.45 33 34C33 34.55 33.45 35 34 35C34.55 35 35 34.55 35 34C35 33.45 34.55 33 34 33ZM34 37C33.45 37 33 37.45 33 38C33 38.55 33.45 39 34 39C34.55 39 35 38.55 35 38C35 37.45 34.55 37 34 37ZM31 33.5C30.72 33.5 30.5 33.72 30.5 34C30.5 34.28 30.72 34.5 31 34.5C31.28 34.5 31.5 34.28 31.5 34C31.5 33.72 31.28 33.5 31 33.5ZM34 40.5C33.72 40.5 33.5 40.72 33.5 41C33.5 41.28 33.72 41.5 34 41.5C34.28 41.5 34.5 41.28 34.5 41C34.5 40.72 34.28 40.5 34 40.5ZM31 37.5C30.72 37.5 30.5 37.72 30.5 38C30.5 38.28 30.72 38.5 31 38.5C31.28 38.5 31.5 38.28 31.5 38C31.5 37.72 31.28 37.5 31 37.5ZM34 31.5C34.28 31.5 34.5 31.28 34.5 31C34.5 30.72 34.28 30.5 34 30.5C33.72 30.5 33.5 30.72 33.5 31C33.5 31.28 33.72 31.5 34 31.5ZM38 33C37.45 33 37 33.45 37 34C37 34.55 37.45 35 38 35C38.55 35 39 34.55 39 34C39 33.45 38.55 33 38 33ZM38 31.5C38.28 31.5 38.5 31.28 38.5 31C38.5 30.72 38.28 30.5 38 30.5C37.72 30.5 37.5 30.72 37.5 31C37.5 31.28 37.72 31.5 38 31.5ZM41 37.5C40.72 37.5 40.5 37.72 40.5 38C40.5 38.28 40.72 38.5 41 38.5C41.28 38.5 41.5 38.28 41.5 38C41.5 37.72 41.28 37.5 41 37.5ZM41 33.5C40.72 33.5 40.5 33.72 40.5 34C40.5 34.28 40.72 34.5 41 34.5C41.28 34.5 41.5 34.28 41.5 34C41.5 33.72 41.28 33.5 41 33.5ZM36 26C30.48 26 26 30.48 26 36C26 41.52 30.48 46 36 46C41.52 46 46 41.52 46 36C46 30.48 41.52 26 36 26ZM36 44C31.58 44 28 40.42 28 36C28 31.58 31.58 28 36 28C40.42 28 44 31.58 44 36C44 40.42 40.42 44 36 44ZM38 40.5C37.72 40.5 37.5 40.72 37.5 41C37.5 41.28 37.72 41.5 38 41.5C38.28 41.5 38.5 41.28 38.5 41C38.5 40.72 38.28 40.5 38 40.5ZM38 37C37.45 37 37 37.45 37 38C37 38.55 37.45 39 38 39C38.55 39 39 38.55 39 38C39 37.45 38.55 37 38 37Z" fill="#8F8F8F"/>
</svg>
