<svg width="72" height="72" viewBox="0 0 72 72" fill="none" xmlns="http://www.w3.org/2000/svg">
<rect x="0.5" y="0.5" width="71" height="71" rx="4.5" stroke="#7B61FF" stroke-dasharray="10 5"/>
<path d="M30 37C29.45 37 29 37.45 29 38C29 38.55 29.45 39 30 39C30.55 39 31 38.55 31 38C31 37.45 30.55 37 30 37ZM30 41C29.45 41 29 41.45 29 42C29 42.55 29.45 43 30 43C30.55 43 31 42.55 31 42C31 41.45 30.55 41 30 41ZM30 33C29.45 33 29 33.45 29 34C29 34.55 29.45 35 30 35C30.55 35 31 34.55 31 34C31 33.45 30.55 33 30 33ZM27 33.5C26.72 33.5 26.5 33.72 26.5 34C26.5 34.28 26.72 34.5 27 34.5C27.28 34.5 27.5 34.28 27.5 34C27.5 33.72 27.28 33.5 27 33.5ZM30 29C29.45 29 29 29.45 29 30C29 30.55 29.45 31 30 31C30.55 31 31 30.55 31 30C31 29.45 30.55 29 30 29ZM45 34.5C45.28 34.5 45.5 34.28 45.5 34C45.5 33.72 45.28 33.5 45 33.5C44.72 33.5 44.5 33.72 44.5 34C44.5 34.28 44.72 34.5 45 34.5ZM38 31C38.55 31 39 30.55 39 30C39 29.45 38.55 29 38 29C37.45 29 37 29.45 37 30C37 30.55 37.45 31 38 31ZM38 27.5C38.28 27.5 38.5 27.28 38.5 27C38.5 26.72 38.28 26.5 38 26.5C37.72 26.5 37.5 26.72 37.5 27C37.5 27.28 37.72 27.5 38 27.5ZM27 37.5C26.72 37.5 26.5 37.72 26.5 38C26.5 38.28 26.72 38.5 27 38.5C27.28 38.5 27.5 38.28 27.5 38C27.5 37.72 27.28 37.5 27 37.5ZM34 44.5C33.72 44.5 33.5 44.72 33.5 45C33.5 45.28 33.72 45.5 34 45.5C34.28 45.5 34.5 45.28 34.5 45C34.5 44.72 34.28 44.5 34 44.5ZM34 27.5C34.28 27.5 34.5 27.28 34.5 27C34.5 26.72 34.28 26.5 34 26.5C33.72 26.5 33.5 26.72 33.5 27C33.5 27.28 33.72 27.5 34 27.5ZM34 31C34.55 31 35 30.55 35 30C35 29.45 34.55 29 34 29C33.45 29 33 29.45 33 30C33 30.55 33.45 31 34 31ZM34 36.5C33.17 36.5 32.5 37.17 32.5 38C32.5 38.83 33.17 39.5 34 39.5C34.83 39.5 35.5 38.83 35.5 38C35.5 37.17 34.83 36.5 34 36.5ZM42 37C41.45 37 41 37.45 41 38C41 38.55 41.45 39 42 39C42.55 39 43 38.55 43 38C43 37.45 42.55 37 42 37ZM42 41C41.45 41 41 41.45 41 42C41 42.55 41.45 43 42 43C42.55 43 43 42.55 43 42C43 41.45 42.55 41 42 41ZM42 33C41.45 33 41 33.45 41 34C41 34.55 41.45 35 42 35C42.55 35 43 34.55 43 34C43 33.45 42.55 33 42 33ZM42 29C41.45 29 41 29.45 41 30C41 30.55 41.45 31 42 31C42.55 31 43 30.55 43 30C43 29.45 42.55 29 42 29ZM45 37.5C44.72 37.5 44.5 37.72 44.5 38C44.5 38.28 44.72 38.5 45 38.5C45.28 38.5 45.5 38.28 45.5 38C45.5 37.72 45.28 37.5 45 37.5ZM38 41C37.45 41 37 41.45 37 42C37 42.55 37.45 43 38 43C38.55 43 39 42.55 39 42C39 41.45 38.55 41 38 41ZM38 44.5C37.72 44.5 37.5 44.72 37.5 45C37.5 45.28 37.72 45.5 38 45.5C38.28 45.5 38.5 45.28 38.5 45C38.5 44.72 38.28 44.5 38 44.5ZM34 32.5C33.17 32.5 32.5 33.17 32.5 34C32.5 34.83 33.17 35.5 34 35.5C34.83 35.5 35.5 34.83 35.5 34C35.5 33.17 34.83 32.5 34 32.5ZM34 41C33.45 41 33 41.45 33 42C33 42.55 33.45 43 34 43C34.55 43 35 42.55 35 42C35 41.45 34.55 41 34 41ZM38 36.5C37.17 36.5 36.5 37.17 36.5 38C36.5 38.83 37.17 39.5 38 39.5C38.83 39.5 39.5 38.83 39.5 38C39.5 37.17 38.83 36.5 38 36.5ZM38 32.5C37.17 32.5 36.5 33.17 36.5 34C36.5 34.83 37.17 35.5 38 35.5C38.83 35.5 39.5 34.83 39.5 34C39.5 33.17 38.83 32.5 38 32.5Z" fill="#8F8F8F"/>
</svg>
