<svg width="72" height="72" viewBox="0 0 72 72" fill="none" xmlns="http://www.w3.org/2000/svg">
<rect x="0.5" y="0.5" width="71" height="71" rx="4.5" stroke="#7B61FF" stroke-dasharray="10 5"/>
<path d="M41 28H31V27H41V28ZM41 45H31V44H41V45ZM41 25H31C29.9 25 29 25.9 29 27V45C29 46.1 29.9 47 31 47H41C42.1 47 43 46.1 43 45V27C43 25.9 42.1 25 41 25ZM31 30H41V42H31V30ZM40 35V33.14C40 32.51 39.55 32 39 32H33C32.45 32 32 32.51 32 33.14V35.1C32.55 35.1 33 35.55 33 36.1C33 36.65 32.55 37.1 32 37.1V38.86C32 39.49 32.45 40 33 40H39C39.55 40 40 39.49 40 38.86V37C39.45 37 39 36.55 39 36C39 35.45 39.45 35 40 35ZM36.5 38.5H35.5V37.5H36.5V38.5ZM36.5 36.5H35.5V35.5H36.5V36.5ZM36.5 34.5H35.5V33.5H36.5V34.5Z" fill="#8F8F8F"/>
</svg>
