<svg width="72" height="72" viewBox="0 0 72 72" fill="none" xmlns="http://www.w3.org/2000/svg">
<rect x="0.5" y="0.5" width="71" height="71" rx="4.5" stroke="#7B61FF" stroke-dasharray="10 5"/>
<path d="M36.2 28.91C38.75 30.24 40.5 32.92 40.5 36C40.5 39.08 38.75 41.76 36.2 43.09C37.66 41.09 38.5 38.63 38.5 36C38.5 33.37 37.66 30.91 36.2 28.91ZM32.5 26C31.45 26 30.45 26.16 29.5 26.46C33.56 27.73 36.5 31.52 36.5 36C36.5 40.48 33.56 44.27 29.5 45.54C30.45 45.84 31.45 46 32.5 46C38.02 46 42.5 41.52 42.5 36C42.5 30.48 38.02 26 32.5 26Z" fill="#8F8F8F"/>
</svg>
