<svg width="72" height="72" viewBox="0 0 72 72" fill="none" xmlns="http://www.w3.org/2000/svg">
<rect x="0.5" y="0.5" width="71" height="71" rx="4.5" stroke="#7B61FF" stroke-dasharray="10 5"/>
<g clip-path="url(#clip0_256_21680)">
<path d="M44.0014 32.6899V27.9999H39.3114L36.0014 24.6899L32.6914 27.9999H28.0014V32.6899L24.6914 35.9999L28.0014 39.3099V43.9999H32.6914L36.0014 47.3099L39.3114 43.9999H44.0014V39.3099L47.3114 35.9999L44.0014 32.6899ZM42.0014 38.4799V41.9999H38.4814L36.0014 44.4799L33.5214 41.9999H30.0014V38.4799L27.5214 35.9999L30.0014 33.5199V29.9999H33.5214L36.0014 27.5199L38.4814 29.9999H42.0014V33.5199L44.4814 35.9999L42.0014 38.4799ZM36.2914 30.9999C35.5514 30.9999 34.8414 31.1699 34.2114 31.4599C35.9314 32.2499 37.1314 33.9899 37.1314 35.9999C37.1314 38.0099 35.9314 39.7499 34.2114 40.5399C34.8414 40.8299 35.5514 40.9999 36.2914 40.9999C39.0514 40.9999 41.2914 38.7599 41.2914 35.9999C41.2914 33.2399 39.0514 30.9999 36.2914 30.9999Z" fill="#8F8F8F"/>
</g>
<defs>
<clipPath id="clip0_256_21680">
<rect width="24" height="24" fill="white" transform="translate(24 24)"/>
</clipPath>
</defs>
</svg>
