<svg width="71" height="72" viewBox="0 0 71 72" fill="none" xmlns="http://www.w3.org/2000/svg">
<rect x="0.5" y="0.5" width="70" height="71" rx="4.5" stroke="#7B61FF" stroke-dasharray="10 5"/>
<g clip-path="url(#clip0_256_17960)">
<path d="M35.0014 31L31.8014 40H33.7014L34.4014 38H37.6014L38.3014 40H40.2014L37.0014 31H35.0014ZM34.8514 36.65L36.0014 33L37.1514 36.65H34.8514ZM44.0014 32.69V28H39.3114L36.0014 24.69L32.6914 28H28.0014V32.69L24.6914 36L28.0014 39.31V44H32.6914L36.0014 47.31L39.3114 44H44.0014V39.31L47.3114 36L44.0014 32.69ZM42.0014 38.48V42H38.4814L36.0014 44.48L33.5214 42H30.0014V38.48L27.5214 36L30.0014 33.52V30H33.5214L36.0014 27.52L38.4814 30H42.0014V33.52L44.4814 36L42.0014 38.48Z" fill="#8F8F8F"/>
</g>
<defs>
<clipPath id="clip0_256_17960">
<rect width="24" height="24" fill="white" transform="translate(24 24)"/>
</clipPath>
</defs>
</svg>
