<svg width="73" height="72" viewBox="0 0 73 72" fill="none" xmlns="http://www.w3.org/2000/svg">
<rect x="0.5" y="0.5" width="72" height="71" rx="4.5" stroke="#7B61FF" stroke-dasharray="10 5"/>
<g clip-path="url(#clip0_256_17969)">
<path d="M43.9995 32.69V28H39.3095L35.9995 24.69L32.6895 28H27.9995V32.69L24.6895 36L27.9995 39.31V44H32.6895L35.9995 47.31L39.3095 44H43.9995V39.31L47.3095 36L43.9995 32.69ZM41.9995 38.48V42H38.4795L35.9995 44.48L33.5195 42H29.9995V38.48L27.5195 36L29.9995 33.52V30H33.5195L35.9995 27.52L38.4795 30H41.9995V33.52L44.4795 36L41.9995 38.48ZM35.9995 30V42C39.3095 42 41.9995 39.31 41.9995 36C41.9995 32.69 39.3095 30 35.9995 30Z" fill="#8F8F8F"/>
</g>
<defs>
<clipPath id="clip0_256_17969">
<rect width="24" height="24" fill="white" transform="translate(24 24)"/>
</clipPath>
</defs>
</svg>
