<svg width="72" height="72" viewBox="0 0 72 72" fill="none" xmlns="http://www.w3.org/2000/svg">
<rect x="0.5" y="0.5" width="71" height="71" rx="4.5" stroke="#7B61FF" stroke-dasharray="10 5"/>
<path d="M27.25 42.5V33.5L33.25 29L37.33 32.06C38.14 31.74 39.02 31.55 39.94 31.52L33.25 26.5L25.25 32.5V44.5H34.01C33.53 43.9 33.13 43.23 32.84 42.5H27.25Z" fill="#8F8F8F"/>
<path d="M40.25 38.25C39.56 38.25 39 38.81 39 39.5C39 39.9 39.2 40.25 39.5 40.47V45.5H41V40.47C41.3 40.24 41.5 39.9 41.5 39.5C41.5 38.81 40.94 38.25 40.25 38.25Z" fill="#8F8F8F"/>
<path d="M40.25 35.5C38.04 35.5 36.25 37.29 36.25 39.5C36.25 40.6 36.7 41.6 37.42 42.33L38.48 41.27C38.03 40.82 37.75 40.19 37.75 39.5C37.75 38.12 38.87 37 40.25 37C41.63 37 42.75 38.12 42.75 39.5C42.75 40.19 42.47 40.81 42.02 41.26L43.08 42.32C43.8 41.6 44.25 40.6 44.25 39.5C44.25 37.29 42.46 35.5 40.25 35.5Z" fill="#8F8F8F"/>
<path d="M40.25 33C36.66 33 33.75 35.91 33.75 39.5C33.75 41.29 34.48 42.92 35.65 44.1L36.71 43.04C35.81 42.13 35.25 40.88 35.25 39.5C35.25 36.74 37.49 34.5 40.25 34.5C43.01 34.5 45.25 36.74 45.25 39.5C45.25 40.87 44.69 42.12 43.79 43.02L44.86 44.08C46.03 42.9 46.75 41.28 46.75 39.5C46.75 35.91 43.84 33 40.25 33Z" fill="#8F8F8F"/>
</svg>
