<svg width="72" height="72" viewBox="0 0 72 72" fill="none" xmlns="http://www.w3.org/2000/svg">
<rect x="0.5" y="0.5" width="71" height="71" rx="4.5" stroke="#7B61FF" stroke-dasharray="10 5"/>
<path d="M45.25 29C45.25 27.9 44.35 27 43.25 27H27.25V29H43.25V31.59C43.98 31.88 44.65 32.28 45.25 32.76V29Z" fill="#8F8F8F"/>
<path d="M31.25 32H26.25C25.75 32 25.25 32.5 25.25 33V42C25.25 42.5 25.75 43 26.25 43H31.25C31.75 43 32.25 42.5 32.25 42V33C32.25 32.5 31.75 32 31.25 32ZM30.25 41H27.25V34H30.25V41Z" fill="#8F8F8F"/>
<path d="M41 39.97C41.3 39.74 41.5 39.4 41.5 39C41.5 38.31 40.94 37.75 40.25 37.75C39.56 37.75 39 38.31 39 39C39 39.4 39.2 39.75 39.5 39.97V45H41V39.97Z" fill="#8F8F8F"/>
<path d="M40.25 36.5C41.63 36.5 42.75 37.62 42.75 39C42.75 39.69 42.47 40.31 42.02 40.76L43.08 41.82C43.8 41.1 44.25 40.1 44.25 39C44.25 36.79 42.46 35 40.25 35C38.04 35 36.25 36.79 36.25 39C36.25 40.1 36.7 41.1 37.42 41.83L38.48 40.77C38.03 40.32 37.75 39.69 37.75 39C37.75 37.62 38.87 36.5 40.25 36.5Z" fill="#8F8F8F"/>
<path d="M40.25 32.5C36.66 32.5 33.75 35.41 33.75 39C33.75 40.79 34.48 42.42 35.65 43.6L36.71 42.54C35.81 41.63 35.25 40.38 35.25 39C35.25 36.24 37.49 34 40.25 34C43.01 34 45.25 36.24 45.25 39C45.25 40.37 44.69 41.62 43.79 42.52L44.86 43.58C46.03 42.4 46.75 40.78 46.75 39C46.75 35.41 43.84 32.5 40.25 32.5Z" fill="#8F8F8F"/>
</svg>
