<svg width="72" height="72" viewBox="0 0 72 72" fill="none" xmlns="http://www.w3.org/2000/svg">
<rect x="0.5" y="0.5" width="71" height="71" rx="4.5" stroke="#7B61FF" stroke-dasharray="10 5"/>
<path d="M31.5 40C32.05 40 32.5 40.45 32.5 41C32.5 42.1 31.6 43 30.5 43C30.33 43 30.17 42.98 30 42.95C30.31 42.4 30.5 41.74 30.5 41C30.5 40.45 30.95 40 31.5 40ZM43.17 27C42.91 27 42.66 27.1 42.46 27.29L33.5 36.25L36.25 39L45.21 30.04C45.6 29.65 45.6 29.02 45.21 28.63L43.87 27.29C43.67 27.09 43.42 27 43.17 27ZM31.5 38C29.84 38 28.5 39.34 28.5 41C28.5 42.31 27.34 43 26.5 43C27.42 44.22 28.99 45 30.5 45C32.71 45 34.5 43.21 34.5 41C34.5 39.34 33.16 38 31.5 38Z" fill="#8F8F8F"/>
</svg>
