<svg width="72" height="72" viewBox="0 0 72 72" fill="none" xmlns="http://www.w3.org/2000/svg">
<rect x="0.5" y="0.5" width="71" height="71" rx="4.5" stroke="#7B61FF" stroke-dasharray="10 5"/>
<path d="M44 32H41.19C40.74 31.22 40.12 30.55 39.37 30.04L41 28.41L39.59 27L37.42 29.17C36.96 29.06 36.49 29 36 29C35.51 29 35.04 29.06 34.59 29.17L32.41 27L31 28.41L32.62 30.04C31.88 30.55 31.26 31.22 30.81 32H28V34H30.09C30.04 34.33 30 34.66 30 35V36H28V38H30V39C30 39.34 30.04 39.67 30.09 40H28V42H30.81C31.85 43.79 33.78 45 36 45C38.22 45 40.15 43.79 41.19 42H44V40H41.91C41.96 39.67 42 39.34 42 39V38H44V36H42V35C42 34.66 41.96 34.33 41.91 34H44V32ZM40 39C40 39.22 39.97 39.47 39.93 39.7L39.83 40.35L39.46 41C38.74 42.24 37.42 43 36 43C34.58 43 33.26 42.23 32.54 41L32.17 40.36L32.07 39.71C32.03 39.48 32 39.23 32 39V35C32 34.77 32.03 34.52 32.07 34.3L32.17 33.65L32.54 33C32.84 32.48 33.26 32.03 33.75 31.69L34.32 31.3L35.06 31.12C35.37 31.04 35.69 31 36 31C36.32 31 36.63 31.04 36.95 31.12L37.63 31.28L38.24 31.7C38.74 32.04 39.15 32.48 39.45 33.01L39.83 33.66L39.93 34.31C39.97 34.53 40 34.78 40 35V39ZM34 38H38V40H34V38ZM34 34H38V36H34V34Z" fill="#8F8F8F"/>
</svg>
