<svg width="70" height="72" viewBox="0 0 70 72" fill="none" xmlns="http://www.w3.org/2000/svg">
<rect x="0.5" y="0.5" width="69" height="71" rx="4.5" stroke="#7B61FF" stroke-dasharray="10 5"/>
<path d="M46.6566 42.9896L37.5766 33.9096C38.5066 31.5696 38.0266 28.8096 36.1366 26.9096C33.8366 24.6096 30.2566 24.3996 27.7066 26.2596L31.5466 30.1096L30.1266 31.5196L26.2966 27.6896C24.4366 30.2296 24.6466 33.8196 26.9466 36.1096C28.8066 37.9696 31.5166 38.4596 33.8366 37.5896L42.9466 46.6996C43.3366 47.0896 43.9666 47.0896 44.3566 46.6996L46.6566 44.3996C47.0566 44.0196 47.0566 43.3896 46.6566 42.9896ZM43.6566 44.5896L34.1966 35.1296C33.5866 35.5796 32.9066 35.8496 32.1966 35.9496C30.8366 36.1496 29.4066 35.7396 28.3666 34.6996C27.4166 33.7596 26.9766 32.4996 27.0466 31.2596L30.1366 34.3496L34.3766 30.1096L31.2866 27.0196C32.5266 26.9496 33.7766 27.3896 34.7266 28.3296C35.8066 29.4096 36.2166 30.8996 35.9666 32.2896C35.8466 32.9996 35.5466 33.6596 35.0866 34.2496L44.5366 43.6996L43.6566 44.5896Z" fill="#8F8F8F"/>
</svg>
