<svg width="70" height="72" viewBox="0 0 70 72" fill="none" xmlns="http://www.w3.org/2000/svg">
<rect x="0.5" y="0.5" width="69" height="71" rx="4.5" stroke="#9747FF" stroke-dasharray="10 5"/>
<mask id="mask0_256_16734" style="mask-type:alpha" maskUnits="userSpaceOnUse" x="23" y="24" width="24" height="24">
<rect x="23" y="24" width="24" height="24" fill="#8F8F8F"/>
</mask>
<g mask="url(#mask0_256_16734)">
<path d="M45 34L44.375 32.625L43 32L44.375 31.375L45 30L45.625 31.375L47 32L45.625 32.625L45 34ZM42 30L41.05 27.95L39 27L41.05 26.05L42 24L42.95 26.05L45 27L42.95 27.95L42 30ZM32 46C31.45 46 30.9793 45.8043 30.588 45.413C30.196 45.021 30 44.55 30 44H34C34 44.55 33.8043 45.021 33.413 45.413C33.021 45.8043 32.55 46 32 46ZM28 43V41H36V43H28ZM28.25 40C27.1 39.3167 26.1877 38.4 25.513 37.25C24.8377 36.1 24.5 34.85 24.5 33.5C24.5 31.4167 25.2293 29.646 26.688 28.188C28.146 26.7293 29.9167 26 32 26C34.0833 26 35.854 26.7293 37.312 28.188C38.7707 29.646 39.5 31.4167 39.5 33.5C39.5 34.85 39.1627 36.1 38.488 37.25C37.8127 38.4 36.9 39.3167 35.75 40H28.25ZM28.85 38H35.15C35.9 37.4667 36.479 36.8083 36.887 36.025C37.2957 35.2417 37.5 34.4 37.5 33.5C37.5 31.9667 36.9667 30.6667 35.9 29.6C34.8333 28.5333 33.5333 28 32 28C30.4667 28 29.1667 28.5333 28.1 29.6C27.0333 30.6667 26.5 31.9667 26.5 33.5C26.5 34.4 26.7043 35.2417 27.113 36.025C27.521 36.8083 28.1 37.4667 28.85 38Z" fill="#8F8F8F"/>
</g>
</svg>
