<svg width="73" height="72" viewBox="0 0 73 72" fill="none" xmlns="http://www.w3.org/2000/svg">
<rect x="0.5" y="0.5" width="72" height="71" rx="4.5" stroke="#7B61FF" stroke-dasharray="10 5"/>
<path d="M44 29V28C44 27.45 43.55 27 43 27H41C40.45 27 40 27.45 40 28V29H39V33C39 33.55 39.45 34 40 34H41V41C41 42.1 40.1 43 39 43C37.9 43 37 42.1 37 41V31C37 28.79 35.21 27 33 27C30.79 27 29 28.79 29 31V38H28C27.45 38 27 38.45 27 39V43H28V44C28 44.55 28.45 45 29 45H31C31.55 45 32 44.55 32 44V43H33V39C33 38.45 32.55 38 32 38H31V31C31 29.9 31.9 29 33 29C34.1 29 35 29.9 35 31V41C35 43.21 36.79 45 39 45C41.21 45 43 43.21 43 41V34H44C44.55 34 45 33.55 45 33V29H44Z" fill="#8F8F8F"/>
</svg>
