<svg width="70" height="72" viewBox="0 0 70 72" fill="none" xmlns="http://www.w3.org/2000/svg">
<rect x="0.5" y="0.5" width="69" height="71" rx="4.5" stroke="#7B61FF" stroke-dasharray="10 5"/>
<path d="M43 32L39 36H42C42 39.31 39.31 42 36 42C34.99 42 34.03 41.75 33.2 41.3L31.74 42.76C32.97 43.54 34.43 44 36 44C40.42 44 44 40.42 44 36H47L43 32ZM30 36C30 32.69 32.69 30 36 30C37.01 30 37.97 30.25 38.8 30.7L40.26 29.24C39.03 28.46 37.57 28 36 28C31.58 28 28 31.58 28 36H25L29 40L33 36H30Z" fill="#8F8F8F"/>
</svg>
