<svg width="74" height="72" viewBox="0 0 74 72" fill="none" xmlns="http://www.w3.org/2000/svg">
<rect x="0.5" y="0.5" width="73" height="71" rx="4.5" stroke="#7B61FF" stroke-dasharray="10 5"/>
<path d="M43 27H29C27.9 27 27 27.9 27 29V43C27 44.1 27.9 45 29 45H43C44.1 45 45 44.1 45 43V29C45 27.9 44.1 27 43 27ZM43 43H29V29H43V43Z" fill="#8F8F8F"/>
<path d="M35.25 31.72H30.25V33.22H35.25V31.72Z" fill="#8F8F8F"/>
<path d="M42 39.75H37V41.25H42V39.75Z" fill="#8F8F8F"/>
<path d="M42 37.25H37V38.75H42V37.25Z" fill="#8F8F8F"/>
<path d="M32 42H33.5V40H35.5V38.5H33.5V36.5H32V38.5H30V40H32V42Z" fill="#8F8F8F"/>
<path d="M38.09 34.95L39.5 33.54L40.91 34.95L41.97 33.89L40.56 32.47L41.97 31.06L40.91 30L39.5 31.41L38.09 30L37.03 31.06L38.44 32.47L37.03 33.89L38.09 34.95Z" fill="#8F8F8F"/>
</svg>
