<svg width="72" height="72" viewBox="0 0 72 72" fill="none" xmlns="http://www.w3.org/2000/svg">
<rect x="0.5" y="0.5" width="71" height="71" rx="4.5" stroke="#7B61FF" stroke-dasharray="10 5"/>
<path d="M43 28H42V26H40V28H32V26H30V28H29C27.89 28 27.01 28.9 27.01 30L27 44C27 45.1 27.89 46 29 46H43C44.1 46 45 45.1 45 44V30C45 28.9 44.1 28 43 28ZM43 44H29V34H43V44ZM43 32H29V30H43V32ZM33 38H31V36H33V38ZM37 38H35V36H37V38ZM41 38H39V36H41V38ZM33 42H31V40H33V42ZM37 42H35V40H37V42ZM41 42H39V40H41V42Z" fill="#8F8F8F"/>
</svg>
