<svg width="72" height="72" viewBox="0 0 72 72" fill="none" xmlns="http://www.w3.org/2000/svg">
<rect x="0.5" y="0.5" width="71" height="71" rx="4.5" stroke="#7B61FF" stroke-dasharray="10 5"/>
<path d="M30.54 29C30.6 29.89 30.75 30.76 30.99 31.59L29.79 32.79C29.38 31.59 29.12 30.32 29.03 29H30.54ZM40.4 41.02C41.25 41.26 42.12 41.41 43 41.47V42.96C41.68 42.87 40.41 42.61 39.2 42.21L40.4 41.02ZM31.5 27H28C27.45 27 27 27.45 27 28C27 37.39 34.61 45 44 45C44.55 45 45 44.55 45 44V40.51C45 39.96 44.55 39.51 44 39.51C42.76 39.51 41.55 39.31 40.43 38.94C40.33 38.9 40.22 38.89 40.12 38.89C39.86 38.89 39.61 38.99 39.41 39.18L37.21 41.38C34.38 39.93 32.06 37.62 30.62 34.79L32.82 32.59C33.1 32.31 33.18 31.92 33.07 31.57C32.7 30.45 32.5 29.25 32.5 28C32.5 27.45 32.05 27 31.5 27Z" fill="#8F8F8F"/>
</svg>
