<svg width="75" height="72" viewBox="0 0 75 72" fill="none" xmlns="http://www.w3.org/2000/svg">
<rect x="0.5" y="0.5" width="74" height="71" rx="4.5" stroke="#7B61FF" stroke-dasharray="10 5"/>
<path d="M42.59 35.0899C43.64 35.5999 44.63 36.2399 45.55 36.9999L44.48 38.0699C43.9 37.5999 43.27 37.1799 42.6 36.7999V35.0899H42.59ZM29.4 35.0899V36.7899C28.75 37.1599 28.12 37.5799 27.53 38.0599L26.46 36.9899C27.37 36.2399 28.36 35.6099 29.4 35.0899ZM36 31.5699C31.46 31.5699 27.34 33.3499 24.29 36.2399C24.11 36.4199 24 36.6699 24 36.9499C24 37.2299 24.11 37.4799 24.29 37.6499L26.77 40.1299C26.95 40.3099 27.2 40.4199 27.48 40.4199C27.75 40.4199 28 40.3199 28.18 40.1399C28.97 39.4099 29.86 38.7799 30.84 38.2899C31.17 38.1299 31.4 37.7799 31.4 37.3899V34.2899C32.85 33.8199 34.4 33.5699 36 33.5699C37.6 33.5699 39.15 33.8199 40.59 34.2999V37.3999C40.59 37.7999 40.82 38.1399 41.15 38.2999C42.13 38.7899 43.03 39.4099 43.82 40.1499C44 40.3199 44.25 40.4299 44.52 40.4299C44.8 40.4299 45.05 40.3199 45.23 40.1399L47.71 37.6599C47.89 37.4799 48 37.2299 48 36.9499C48 36.6699 47.89 36.4199 47.71 36.2399C44.66 33.3499 40.54 31.5699 36 31.5699Z" fill="#8F8F8F"/>
</svg>
