<svg width="72" height="72" viewBox="0 0 72 72" fill="none" xmlns="http://www.w3.org/2000/svg">
<rect x="0.5" y="0.5" width="71" height="71" rx="4.5" stroke="#7B61FF" stroke-dasharray="10 5"/>
<path d="M29 44V46H34V48L37 45L34 42V44H29ZM38 44H43V46H38V44ZM41 24H31C29.9 24 29 24.9 29 26V40C29 41.1 29.9 42 31 42H41C42.1 42 43 41.1 43 40V26C43 24.9 42.1 24 41 24ZM41 40H31V26H41V40ZM36 31C37.1 31 38 30.1 37.99 29C37.99 27.9 37.09 27 35.99 27C34.89 27 34 27.9 34 29C34 30.1 34.89 31 36 31Z" fill="#8F8F8F"/>
</svg>
