<svg width="72" height="72" viewBox="0 0 72 72" fill="none" xmlns="http://www.w3.org/2000/svg">
<rect x="0.5" y="0.5" width="71" height="71" rx="4.5" stroke="#7B61FF" stroke-dasharray="10 5"/>
<path d="M29 44V46H34V48L37 45L34 42V44H29ZM38 44H43V46H38V44ZM35.99 32C37.1 32 38 31.1 38 30C38 28.9 37.1 28 35.99 28C34.88 28 34 28.9 34 30C34 31.1 34.89 32 35.99 32ZM41 24H31C29.9 24 29 24.9 29 26V40C29 41.1 29.9 42 31 42H41C42.1 42 43 41.1 43 40V26C43 24.9 42.1 24 41 24ZM41 40H31V38H41V40ZM41 36.5C41 34.83 37.67 34 36 34C34.33 34 31 34.83 31 36.5V26H41V36.5Z" fill="#8F8F8F"/>
</svg>
