<svg width="72" height="72" viewBox="0 0 72 72" fill="none" xmlns="http://www.w3.org/2000/svg">
<rect x="0.5" y="0.5" width="71" height="71" rx="4.5" stroke="#7B61FF" stroke-dasharray="10 5"/>
<path d="M38 29.5C38 28.4 37.1 27.5 36 27.5H35V26.5C35 25.95 34.55 25.5 34 25.5H30C29.45 25.5 29 25.95 29 26.5V27.5H28C26.9 27.5 26 28.4 26 29.5V44.5C26 45.6 26.9 46.5 28 46.5H36C37.1 46.5 38 45.6 38 44.5H46V29.5H38ZM44 42.5H36V44.5H28V29.5H31V27.5H33V29.5H36V31.5H44V42.5ZM33 39.5H35V41.5H33V39.5ZM33 32.5H35V34.5H33V32.5ZM37 39.5H39V41.5H37V39.5ZM37 32.5H39V34.5H37V32.5ZM41 39.5H43V41.5H41V39.5ZM41 32.5H43V34.5H41V32.5Z" fill="#8F8F8F"/>
</svg>
