<svg width="72" height="72" viewBox="0 0 72 72" fill="none" xmlns="http://www.w3.org/2000/svg">
<rect x="0.5" y="0.5" width="71" height="71" rx="4.5" stroke="#7B61FF" stroke-dasharray="10 5"/>
<path d="M38.25 26.26L38.17 26.22L38.16 26.24C37.46 26.09 36.74 26 36 26C30.48 26 26 30.48 26 36C26 41.52 30.48 46 36 46C41.52 46 46 41.52 46 36C46 31.25 42.69 27.28 38.25 26.26ZM43.41 33H35.42L38.13 28.3C40.53 28.96 42.48 30.72 43.41 33ZM37.1 28.08L33.12 35L30.4 30.3C31.84 28.88 33.82 28 36 28C36.37 28 36.74 28.03 37.1 28.08ZM29.7 31.09L32.54 36L33.69 38H28.26C28.1 37.36 28 36.69 28 36C28 34.15 28.64 32.45 29.7 31.09ZM28.59 39H36.57L33.86 43.7C31.46 43.03 29.52 41.28 28.59 39ZM34.9 43.91L38.89 37L41.61 41.7C40.16 43.12 38.18 44 36 44C35.62 44 35.26 43.96 34.9 43.91ZM42.3 40.91L38.3 34H43.73C43.9 34.64 44 35.31 44 36C44 37.85 43.36 39.55 42.3 40.91Z" fill="#8F8F8F"/>
</svg>
