<svg width="77" height="72" viewBox="0 0 77 72" fill="none" xmlns="http://www.w3.org/2000/svg">
<rect x="0.5" y="0.5" width="76" height="71" rx="4.5" stroke="#7B61FF" stroke-dasharray="10 5"/>
<path d="M40 31.5C39.58 31.5 39.17 31.54 38.76 31.61L24.51 25.5L24.5 32.5L34.56 33.84C34.14 34.28 33.78 34.77 33.47 35.3L24.5 36.5L24.51 43.5L32.58 40.04C33.09 43.69 36.21 46.5 40 46.5C44.14 46.5 47.5 43.14 47.5 39C47.5 34.86 44.14 31.5 40 31.5ZM26.5 30.75L26.51 28.53L34.02 31.75L26.5 30.75ZM32.6 37.86L26.5 40.47V38.25L32.67 37.43C32.64 37.57 32.62 37.71 32.6 37.86ZM40 44.5C36.97 44.5 34.5 42.03 34.5 39C34.5 35.97 36.97 33.5 40 33.5C43.03 33.5 45.5 35.97 45.5 39C45.5 42.03 43.03 44.5 40 44.5Z" fill="#8F8F8F"/>
<path d="M41.77 36.53L40 38.29L38.23 36.53L37.53 37.23L39.29 39L37.53 40.77L38.23 41.47L40 39.71L41.77 41.47L42.47 40.77L40.71 39L42.47 37.23L41.77 36.53Z" fill="#8F8F8F"/>
</svg>
