<svg width="72" height="72" viewBox="0 0 72 72" fill="none" xmlns="http://www.w3.org/2000/svg">
<rect x="0.5" y="0.5" width="71" height="71" rx="4.5" stroke="#7B61FF" stroke-dasharray="10 5"/>
<path d="M44 30.5H41V28.5C41 27.39 40.11 26.5 39 26.5H33C31.89 26.5 31 27.39 31 28.5V30.5H28C26.89 30.5 26 31.39 26 32.5V43.5C26 44.61 26.89 45.5 28 45.5H44C45.11 45.5 46 44.61 46 43.5V32.5C46 31.39 45.11 30.5 44 30.5ZM33 28.5H39V30.5H33V28.5ZM44 43.5H28V41.5H44V43.5ZM44 38.5H28V32.5H31V34.5H33V32.5H39V34.5H41V32.5H44V38.5Z" fill="#8F8F8F"/>
</svg>
