<svg width="72" height="72" viewBox="0 0 72 72" fill="none" xmlns="http://www.w3.org/2000/svg">
<rect x="0.5" y="0.5" width="71" height="71" rx="4.5" stroke="#7B61FF" stroke-dasharray="10 5"/>
<path d="M27 33.5H25V44.5C25 45.61 25.89 46.5 27 46.5H44V44.5H27V33.5Z" fill="#8F8F8F"/>
<path d="M42 29.5V27.5C42 26.4 41.1 25.5 40 25.5H36C34.9 25.5 34 26.4 34 27.5V29.5H29V40.5C29 41.6 29.9 42.5 31 42.5H45C46.1 42.5 47 41.6 47 40.5V29.5H42ZM36 27.5H40V29.5H36V27.5ZM45 40.5H31V31.5H45V40.5Z" fill="#8F8F8F"/>
</svg>
