<svg width="74" height="72" viewBox="0 0 74 72" fill="none" xmlns="http://www.w3.org/2000/svg">
<rect x="0.5" y="0.5" width="73" height="71" rx="4.5" stroke="#7B61FF" stroke-dasharray="10 5"/>
<path d="M29.0348 45.5013H45.0348V29.4713L29.0348 45.5013ZM43.0348 43.5013H41.0348V36.2813L43.0348 34.2813V43.5013ZM28.2548 30.7213L26.9648 29.4313C30.8648 25.5213 37.2048 25.5213 41.1148 29.4313L39.8248 30.7213C36.6348 27.5313 31.4448 27.5313 28.2548 30.7213ZM35.9648 34.5713L34.0348 36.5013L32.1048 34.5713C33.1748 33.5113 34.8948 33.5113 35.9648 34.5713ZM37.2548 33.2913C35.4748 31.5213 32.5948 31.5213 30.8248 33.2913L29.5348 32.0013C32.0148 29.5213 36.0548 29.5213 38.5348 32.0013L37.2548 33.2913Z" fill="#8F8F8F"/>
</svg>
