<svg width="75" height="72" viewBox="0 0 75 72" fill="none" xmlns="http://www.w3.org/2000/svg">
<rect x="0.5" y="0.5" width="74" height="71" rx="4.5" stroke="#7B61FF" stroke-dasharray="10 5"/>
<path d="M31.3 38.25L32.5 37.05C31.5 36.05 31 34.75 31 33.55C31 32.25 31.5 30.95 32.5 30.05L31.3 28.85C30 30.15 29.3 31.85 29.3 33.55C29.3 35.25 30 36.95 31.3 38.25Z" fill="#8F8F8F"/>
<path d="M43.1 26.45L41.9 27.65C43.5 29.25 44.3 31.45 44.3 33.55C44.3 35.65 43.5 37.85 41.9 39.45L43.1 40.65C45.1 38.65 46 36.15 46 33.55C46 30.95 45 28.45 43.1 26.45Z" fill="#8F8F8F"/>
<path d="M30.1 27.65L28.9 26.45C27 28.45 26 30.95 26 33.55C26 36.15 27 38.65 28.9 40.65L30.1 39.45C28.5 37.85 27.7 35.65 27.7 33.55C27.7 31.45 28.5 29.25 30.1 27.65Z" fill="#8F8F8F"/>
<path d="M40.7 38.25C42 36.95 42.7 35.25 42.7 33.55C42.6 31.85 42 30.15 40.7 28.85L39.5 30.05C40.5 31.05 41 32.35 41 33.55C41 34.85 40.5 36.15 39.5 37.05L40.7 38.25Z" fill="#8F8F8F"/>
<path d="M38.5 33.55C38.5 32.17 37.38 31.05 36 31.05C34.62 31.05 33.5 32.17 33.5 33.55C33.5 34.31 33.84 34.97 34.37 35.43L31 45.55H33L33.67 43.55H38.34L39 45.55H41L37.63 35.43C38.16 34.97 38.5 34.31 38.5 33.55ZM34.33 41.55L36 36.55L37.67 41.55H34.33Z" fill="#8F8F8F"/>
</svg>
