<svg width="72" height="72" viewBox="0 0 72 72" fill="none" xmlns="http://www.w3.org/2000/svg">
<rect x="0.5" y="0.5" width="71" height="71" rx="4.5" stroke="#7B61FF" stroke-dasharray="10 5"/>
<path d="M41 36C41 33.24 38.76 31 36 31C33.24 31 31 33.24 31 36C31 38.76 33.24 41 36 41C38.76 41 41 38.76 41 36ZM36 39C34.35 39 33 37.65 33 36C33 34.35 34.35 33 36 33C37.65 33 39 34.35 39 36C39 37.65 37.65 39 36 39ZM29 39H27V43C27 44.1 27.9 45 29 45H33V43H29V39ZM29 29H33V27H29C27.9 27 27 27.9 27 29V33H29V29ZM43 27H39V29H43V33H45V29C45 27.9 44.1 27 43 27ZM43 43H39V45H43C44.1 45 45 44.1 45 43V39H43V43Z" fill="#8F8F8F"/>
</svg>
