<svg width="72" height="72" viewBox="0 0 72 72" fill="none" xmlns="http://www.w3.org/2000/svg">
<rect x="0.5" y="0.5" width="71" height="71" rx="4.5" stroke="#7B61FF" stroke-dasharray="10 5"/>
<path d="M29 39H27V43C27 44.1 27.9 45 29 45H33V43H29V39ZM29 29H33V27H29C27.9 27 27 27.9 27 29V33H29V29ZM36 32C33.79 32 32 33.79 32 36C32 38.21 33.79 40 36 40C38.21 40 40 38.21 40 36C40 33.79 38.21 32 36 32ZM36 38C34.9 38 34 37.1 34 36C34 34.9 34.9 34 36 34C37.1 34 38 34.9 38 36C38 37.1 37.1 38 36 38ZM43 27H39V29H43V33H45V29C45 27.9 44.1 27 43 27ZM43 43H39V45H43C44.1 45 45 44.1 45 43V39H43V43Z" fill="#8F8F8F"/>
</svg>
