<svg width="71" height="72" viewBox="0 0 71 72" fill="none" xmlns="http://www.w3.org/2000/svg">
<rect x="0.5" y="0.5" width="70" height="71" rx="4.5" stroke="#7B61FF" stroke-dasharray="10 5"/>
<path d="M36 26C30.48 26 26 30.48 26 36C26 41.52 30.48 46 36 46C41.52 46 46 41.52 46 36C46 30.48 41.52 26 36 26ZM36 44C31.59 44 28 40.41 28 36C28 31.59 31.59 28 36 28C40.41 28 44 31.59 44 36C44 40.41 40.41 44 36 44ZM40.17 38.76L39.07 37.66C39.78 36.33 39.6 34.65 38.48 33.53C37.79 32.84 36.9 32.5 36 32.5C35.97 32.5 35.94 32.51 35.91 32.51L37 33.6L35.94 34.66L33.11 31.83L35.94 29L37 30.06L36.04 31.02C37.31 31.03 38.57 31.5 39.54 32.46C41.24 34.17 41.45 36.82 40.17 38.76ZM38.89 40.17L36.06 43L35 41.94L35.95 40.99C34.69 40.98 33.43 40.49 32.47 39.53C30.76 37.82 30.55 35.18 31.83 33.24L32.93 34.34C32.22 35.67 32.4 37.35 33.52 38.47C34.22 39.17 35.15 39.51 36.08 39.48L35 38.4L36.06 37.34L38.89 40.17Z" fill="#8F8F8F"/>
</svg>
