<svg width="77" height="72" viewBox="0 0 77 72" fill="none" xmlns="http://www.w3.org/2000/svg">
<rect x="0.5" y="0.5" width="76" height="71" rx="4.5" stroke="#7B61FF" stroke-dasharray="10 5"/>
<path d="M36 42.5C36.83 42.5 37.5 41.83 37.5 41H34.5C34.5 41.83 35.17 42.5 36 42.5ZM36 26C30.48 26 26 30.48 26 36C26 41.52 30.48 46 36 46C41.52 46 46 41.52 46 36C46 30.48 41.52 26 36 26ZM36 44C31.59 44 28 40.41 28 36C28 31.59 31.59 28 36 28C40.41 28 44 31.59 44 36C44 40.41 40.41 44 36 44ZM40 35.39C40 33.28 38.97 31.47 37 31V30.5C37 29.93 36.57 29.5 36 29.5C35.43 29.5 35 29.93 35 30.5V31C33.03 31.47 32 33.27 32 35.39V38H31V40H41V38H40V35.39ZM38 38H34V35C34 33.9 34.9 33 36 33C37.1 33 38 33.9 38 35V38Z" fill="#8F8F8F"/>
</svg>
