<svg width="76" height="72" viewBox="0 0 76 72" fill="none" xmlns="http://www.w3.org/2000/svg">
<rect x="0.5" y="0.5" width="75" height="71" rx="4.5" stroke="#7B61FF" stroke-dasharray="10 5"/>
<path d="M37.7155 33.29C37.7155 32.74 38.1655 32.29 38.7155 32.29H41.7155C42.2655 32.29 42.7155 32.74 42.7155 33.29V34.29H41.2155V33.79H39.2155V34.79L37.7155 33.29ZM41.2155 36.79L42.4255 38C42.6055 37.81 42.7155 37.56 42.7155 37.29V36.29H41.2155V36.79ZM33.5455 29.29H43.7155V39.46L45.6955 41.44C45.6955 41.39 45.7155 41.34 45.7155 41.28V29.29C45.7155 28.19 44.8155 27.29 43.7155 27.29H31.5455L33.5455 29.29ZM44.4955 45.9L41.8855 43.29H29.7155C28.6055 43.29 27.7155 42.39 27.7155 41.29V29.29C27.7155 29.24 27.7355 29.19 27.7355 29.14L26.1055 27.51L27.5155 26.1L45.8955 44.48L44.4955 45.9ZM32.2155 36.79H34.2155V36.29H34.8855L32.3855 33.79H32.2155V36.79ZM39.8855 41.29L35.7155 37.12V37.29C35.7155 37.84 35.2655 38.29 34.7155 38.29H31.7155C31.1655 38.29 30.7155 37.84 30.7155 37.29V33.29C30.7155 32.97 30.8755 32.7 31.1155 32.51L29.7155 31.12V41.29H39.8855Z" fill="#8F8F8F"/>
</svg>
