<svg width="73" height="72" viewBox="0 0 73 72" fill="none" xmlns="http://www.w3.org/2000/svg">
<rect x="0.5" y="0.5" width="72" height="71" rx="4.5" stroke="#7B61FF" stroke-dasharray="10 5"/>
<path d="M43 28H29C27.89 28 27 28.9 27 30V42C27 43.1 27.89 44 29 44H43C44.1 44 45 43.1 45 42V30C45 28.9 44.1 28 43 28ZM43 42H29V30H43V42Z" fill="#8F8F8F"/>
<path d="M31 39H34C34.55 39 35 38.55 35 38V37H33.5V37.5H31.5V34.5H33.5V35H35V34C35 33.45 34.55 33 34 33H31C30.45 33 30 33.45 30 34V38C30 38.55 30.45 39 31 39Z" fill="#8F8F8F"/>
<path d="M38 39H41C41.55 39 42 38.55 42 38V37H40.5V37.5H38.5V34.5H40.5V35H42V34C42 33.45 41.55 33 41 33H38C37.45 33 37 33.45 37 34V38C37 38.55 37.45 39 38 39Z" fill="#8F8F8F"/>
</svg>
