<svg width="72" height="72" viewBox="0 0 72 72" fill="none" xmlns="http://www.w3.org/2000/svg">
<rect x="0.5" y="0.5" width="71" height="71" rx="4.5" stroke="#7B61FF" stroke-dasharray="10 5"/>
<path d="M43.35 34.04C42.67 30.59 39.64 28 36 28C33.11 28 30.6 29.64 29.35 32.04C26.34 32.36 24 34.91 24 38C24 41.31 26.69 44 30 44H43C45.76 44 48 41.76 48 39C48 36.36 45.95 34.22 43.35 34.04ZM43 42H30C27.79 42 26 40.21 26 38C26 35.95 27.53 34.24 29.56 34.03L30.63 33.92L31.13 32.97C32.08 31.14 33.94 30 36 30C38.62 30 40.88 31.86 41.39 34.43L41.69 35.93L43.22 36.04C44.78 36.14 46 37.45 46 39C46 40.65 44.65 42 43 42ZM37.45 34H34.55V37H32L36 41L40 37H37.45V34Z" fill="#8F8F8F"/>
</svg>
