<svg width="71" height="72" viewBox="0 0 71 72" fill="none" xmlns="http://www.w3.org/2000/svg">
<rect x="0.5" y="0.5" width="70" height="71" rx="4.5" stroke="#7B61FF" stroke-dasharray="10 5"/>
<path d="M43.5 38.98C43.48 38.98 43.47 38.98 43.45 38.99C43.2 37.3 41.76 36 40 36C38.6 36 37.4 36.83 36.84 38.02C35.26 38.1 34 39.4 34 41C34 42.66 35.34 44 37 44L43.5 43.98C44.88 43.98 46 42.86 46 41.48C46 40.1 44.88 38.98 43.5 38.98ZM43.51 42H37C36.45 42 36 41.55 36 41C36 40.45 36.45 40 37 40H38.25V39.75C38.25 38.78 39.03 38 40 38C40.97 38 41.75 38.78 41.75 39.75V41C41.75 41 43.5 41 43.51 41C43.79 41 44.01 41.22 44.01 41.5C44 41.77 43.78 42 43.51 42ZM32 28.26V30.35C29.67 31.18 28 33.39 28 36C28 37.77 28.78 39.34 30 40.44V38H32V44H26V42H28.73C27.06 40.54 26 38.4 26 36C26 32.27 28.55 29.15 32 28.26ZM42 30H39.27C40.7 31.26 41.68 33.01 41.93 35H39.91C39.68 33.64 38.98 32.45 38 31.56V34H36V28H42V30Z" fill="#8F8F8F"/>
</svg>
