<svg width="73" height="72" viewBox="0 0 73 72" fill="none" xmlns="http://www.w3.org/2000/svg">
<rect x="0.5" y="0.5" width="72" height="71" rx="4.5" stroke="#7B61FF" stroke-dasharray="10 5"/>
<path d="M48 38.0699C48 35.4299 45.95 33.2899 43.35 33.1099C42.67 29.6599 39.64 27.0699 36 27.0699C34.67 27.0699 33.43 27.4299 32.35 28.0399L33.84 29.5299C34.51 29.2399 35.23 29.0699 36 29.0699C39.04 29.0699 41.5 31.5299 41.5 34.5699V35.0699H43C44.66 35.0699 46 36.4099 46 38.0699C46 39.0599 45.52 39.9199 44.79 40.4699L46.2 41.8799C47.29 40.9599 48 39.6099 48 38.0699ZM28.41 26.9299L27 28.3399L29.77 31.1099H29.35C26.34 31.4299 24 33.9799 24 37.0699C24 40.3799 26.69 43.0699 30 43.0699H41.73L43.73 45.0699L45.14 43.6599L28.41 26.9299ZM30 41.0699C27.79 41.0699 26 39.2799 26 37.0699C26 34.8599 27.79 33.0699 30 33.0699H31.73L39.73 41.0699H30Z" fill="#8F8F8F"/>
</svg>
