<svg width="72" height="72" viewBox="0 0 72 72" fill="none" xmlns="http://www.w3.org/2000/svg">
<rect x="0.5" y="0.5" width="71" height="71" rx="4.5" stroke="#7B61FF" stroke-dasharray="10 5"/>
<path d="M36 26C30.48 26 26 30.48 26 36C26 41.52 30.48 46 36 46C41.52 46 46 41.52 46 36C46 30.48 41.52 26 36 26ZM36 44C31.59 44 28 40.41 28 36C28 31.59 31.59 28 36 28C40.41 28 44 31.59 44 36C44 40.41 40.41 44 36 44ZM40.29 34.19C39.89 32.18 38.13 30.67 36 30.67C34.31 30.67 32.85 31.63 32.12 33.03C30.36 33.21 29 34.7 29 36.5C29 38.43 30.57 40 32.5 40H40.08C41.69 40 43 38.69 43 37.08C43 35.54 41.8 34.29 40.29 34.19ZM40 38H32.5C31.67 38 31 37.33 31 36.5C31 35.67 31.67 35 32.5 35H33.4L33.89 33.95C34.3 33.16 35.11 32.67 36 32.67C37.13 32.67 38.11 33.47 38.33 34.58L38.61 36H40C40.55 36 41 36.45 41 37C41 37.55 40.55 38 40 38Z" fill="#8F8F8F"/>
</svg>
