<svg width="71" height="72" viewBox="0 0 71 72" fill="none" xmlns="http://www.w3.org/2000/svg">
<rect x="0.5" y="0.5" width="70" height="71" rx="4.5" stroke="#7B61FF" stroke-dasharray="10 5"/>
<path d="M45 26.5H27C25.9 26.5 25 27.4 25 28.5V36.5H27V28.5H45V44.5C46.1 44.5 47 43.6 47 42.5V28.5C47 27.4 46.1 26.5 45 26.5Z" fill="#8F8F8F"/>
<path d="M37 33.5C37 31.29 35.21 29.5 33 29.5C30.79 29.5 29 31.29 29 33.5C29 35.71 30.79 37.5 33 37.5C35.21 37.5 37 35.71 37 33.5ZM31 33.5C31 32.4 31.9 31.5 33 31.5C34.1 31.5 35 32.4 35 33.5C35 34.6 34.1 35.5 33 35.5C31.9 35.5 31 34.6 31 33.5Z" fill="#8F8F8F"/>
<path d="M39.39 40.06C37.71 39.2 35.53 38.5 33 38.5C30.47 38.5 28.29 39.2 26.61 40.06C25.61 40.57 25 41.6 25 42.72V45.5H41V42.72C41 41.6 40.39 40.57 39.39 40.06ZM39 43.5H27C27 42.78 26.9 42.16 27.52 41.84C28.71 41.23 30.63 40.5 33 40.5C35.37 40.5 37.29 41.23 38.48 41.84C39.11 42.16 39 42.79 39 43.5Z" fill="#8F8F8F"/>
</svg>
