<svg width="72" height="72" viewBox="0 0 72 72" fill="none" xmlns="http://www.w3.org/2000/svg">
<rect x="0.5" y="0.5" width="71" height="71" rx="4.5" stroke="#7B61FF" stroke-dasharray="10 5"/>
<path d="M41.66 29.41L42.58 30.33L39.89 33.02L38.97 32.1L41.66 29.41ZM41.67 27C41.41 27 41.16 27.1 40.96 27.29L37.84 30.41L35.91 28.5L34.5 29.91L35.92 31.33L27 40.25V45H31.75L40.67 36.08L42.09 37.5L43.5 36.09L41.58 34.17L44.7 31.05C45.1 30.65 45.1 30.02 44.71 29.63L42.37 27.29C42.17 27.1 41.92 27 41.67 27ZM30.92 43L29 41.08L37.06 33.02L38.98 34.94L30.92 43Z" fill="#8F8F8F"/>
</svg>
