<svg width="72" height="72" viewBox="0 0 72 72" fill="none" xmlns="http://www.w3.org/2000/svg">
<rect x="0.5" y="0.5" width="71" height="71" rx="4.5" stroke="#7B61FF" stroke-dasharray="10 5"/>
<path d="M36 46C30.49 46 26 41.51 26 36C26 30.49 30.49 26 36 26C41.51 26 46 30.04 46 35C46 38.31 43.31 41 40 41H38.23C37.95 41 37.73 41.22 37.73 41.5C37.73 41.62 37.78 41.73 37.86 41.83C38.27 42.3 38.5 42.89 38.5 43.5C38.5 44.88 37.38 46 36 46ZM36 28C31.59 28 28 31.59 28 36C28 40.41 31.59 44 36 44C36.28 44 36.5 43.78 36.5 43.5C36.5 43.34 36.42 43.22 36.36 43.15C35.95 42.69 35.73 42.1 35.73 41.5C35.73 40.12 36.85 39 38.23 39H40C42.21 39 44 37.21 44 35C44 31.14 40.41 28 36 28Z" fill="#8F8F8F"/>
<path d="M30.5 37C31.3284 37 32 36.3284 32 35.5C32 34.6716 31.3284 34 30.5 34C29.6716 34 29 34.6716 29 35.5C29 36.3284 29.6716 37 30.5 37Z" fill="#8F8F8F"/>
<path d="M33.5 33C34.3284 33 35 32.3284 35 31.5C35 30.6716 34.3284 30 33.5 30C32.6716 30 32 30.6716 32 31.5C32 32.3284 32.6716 33 33.5 33Z" fill="#8F8F8F"/>
<path d="M38.5 33C39.3284 33 40 32.3284 40 31.5C40 30.6716 39.3284 30 38.5 30C37.6716 30 37 30.6716 37 31.5C37 32.3284 37.6716 33 38.5 33Z" fill="#8F8F8F"/>
<path d="M41.5 37C42.3284 37 43 36.3284 43 35.5C43 34.6716 42.3284 34 41.5 34C40.6716 34 40 34.6716 40 35.5C40 36.3284 40.6716 37 41.5 37Z" fill="#8F8F8F"/>
</svg>
