<svg width="75" height="72" viewBox="0 0 75 72" fill="none" xmlns="http://www.w3.org/2000/svg">
<rect x="0.5" y="0.5" width="74" height="71" rx="4.5" stroke="#7B61FF" stroke-dasharray="10 5"/>
<path d="M43.4857 39.345H44.6557V27.345H31.4857L29.4857 25.345H44.6557C45.7557 25.345 46.6557 26.245 46.6557 27.345V42.515L43.4857 39.345ZM42.6557 29.345H33.4857L35.4857 31.345H42.6557V29.345ZM42.6557 32.345H36.4857L38.4857 34.345H42.6557V32.345ZM42.6557 37.345V35.345H39.4857L41.4857 37.345H42.6557ZM46.5557 45.245L45.1457 46.655L39.8257 41.345H28.6557C27.5557 41.345 26.6557 40.445 26.6557 39.345V28.175L25.3457 26.855L26.7557 25.445L46.5557 45.245ZM37.8257 39.345L35.8257 37.345H30.6557V35.345H33.8257L32.8257 34.345H30.6557V32.345H30.8257L28.6557 30.175V39.345H37.8257Z" fill="#8F8F8F"/>
</svg>
