<svg width="70" height="72" viewBox="0 0 70 72" fill="none" xmlns="http://www.w3.org/2000/svg">
<rect x="0.5" y="0.5" width="69" height="71" rx="4.5" stroke="#7B61FF" stroke-dasharray="10 5"/>
<path d="M36 28H29C27.34 28 26 29.34 26 31V39C26 40.66 27.34 42 29 42L28 43V44H29L31 42H33V37H28V30H37V32H39V31C39 29.34 37.66 28 36 28ZM29 38C29.55 38 30 38.45 30 39C30 39.55 29.55 40 29 40C28.45 40 28 39.55 28 39C28 38.45 28.45 38 29 38ZM44.57 33.66C44.43 33.26 44.05 33 43.6 33H36.41C35.95 33 35.58 33.26 35.43 33.66L34.01 37.77V43.28C34.01 43.66 34.32 44 34.7 44H35.32C35.7 44 36 43.62 36 43.24V42H44V43.24C44 43.62 44.31 44 44.69 44H45.3C45.68 44 45.99 43.66 45.99 43.28L46 41.91V37.77L44.57 33.66ZM36.41 34H43.6L44.63 37H35.38L36.41 34ZM36 40C35.45 40 35 39.55 35 39C35 38.45 35.45 38 36 38C36.55 38 37 38.45 37 39C37 39.55 36.55 40 36 40ZM44 40C43.45 40 43 39.55 43 39C43 38.45 43.45 38 44 38C44.55 38 45 38.45 45 39C45 39.55 44.55 40 44 40Z" fill="#8F8F8F"/>
</svg>
