<svg width="73" height="72" viewBox="0 0 73 72" fill="none" xmlns="http://www.w3.org/2000/svg">
<rect x="0.5" y="0.5" width="72" height="71" rx="4.5" stroke="#7B61FF" stroke-dasharray="10 5"/>
<path d="M36 26C30.48 26 26 30.48 26 36C26 41.52 30.48 46 36 46C41.52 46 46 41.52 46 36C46 30.48 41.52 26 36 26ZM36 44C31.58 44 28 40.42 28 36C28 31.58 31.58 28 36 28C40.42 28 44 31.58 44 36C44 40.42 40.42 44 36 44Z" fill="#8F8F8F"/>
<path d="M31.1 34.18C31.36 34.74 31.49 35.34 31.5 35.98C31.51 36.61 31.37 37.23 31.1 37.84L32.47 38.46C32.84 37.65 33.02 36.81 33.01 35.96C33 35.12 32.82 34.31 32.47 33.56L31.1 34.18Z" fill="#8F8F8F"/>
<path d="M37.33 31.33C38.11 32.9 38.51 34.47 38.51 35.97C38.51 37.48 38.11 39.06 37.33 40.66L38.68 41.32C39.56 39.51 40.01 37.71 40.01 35.97C40.01 34.23 39.56 32.44 38.68 30.66L37.33 31.33Z" fill="#8F8F8F"/>
<path d="M34.2 32.72C34.73 33.79 35 34.93 35 36.12C35 37.29 34.74 38.35 34.22 39.27L35.52 40.01C36.17 38.86 36.5 37.56 36.5 36.12C36.5 34.7 36.18 33.33 35.54 32.05L34.2 32.72Z" fill="#8F8F8F"/>
</svg>
