<svg width="74" height="72" viewBox="0 0 74 72" fill="none" xmlns="http://www.w3.org/2000/svg">
<rect x="0.5" y="0.5" width="73" height="71" rx="4.5" stroke="#7B61FF" stroke-dasharray="10 5"/>
<path d="M28.5 30H30.5V33H40.5V30H42.5V36H44.5V30C44.5 28.9 43.6 28 42.5 28H38.32C37.9 26.84 36.8 26 35.5 26C34.2 26 33.1 26.84 32.68 28H28.5C27.4 28 26.5 28.9 26.5 30V44C26.5 45.1 27.4 46 28.5 46H33.5V44H28.5V30ZM35.5 28C36.05 28 36.5 28.45 36.5 29C36.5 29.55 36.05 30 35.5 30C34.95 30 34.5 29.55 34.5 29C34.5 28.45 34.95 28 35.5 28Z" fill="#8F8F8F"/>
<path d="M41.51 38L40.09 39.41L41.67 40.99H35.5V42.99H41.67L40.09 44.58L41.51 45.99L45.5 41.99L41.51 38Z" fill="#8F8F8F"/>
</svg>
