<svg width="72" height="72" viewBox="0 0 72 72" fill="none" xmlns="http://www.w3.org/2000/svg">
<rect x="0.5" y="0.5" width="71" height="71" rx="4.5" stroke="#7B61FF" stroke-dasharray="10 5"/>
<path d="M40 32H38V35H35V37H38V40H40V37H43V35H40V32ZM26 36C26 33.21 27.64 30.8 30.01 29.68V27.52C26.52 28.76 24 32.09 24 36C24 39.91 26.52 43.24 30.01 44.48V42.32C27.64 41.2 26 38.79 26 36ZM39 27C34.04 27 30 31.04 30 36C30 40.96 34.04 45 39 45C43.96 45 48 40.96 48 36C48 31.04 43.96 27 39 27ZM39 43C35.14 43 32 39.86 32 36C32 32.14 35.14 29 39 29C42.86 29 46 32.14 46 36C46 39.86 42.86 43 39 43Z" fill="#8F8F8F"/>
</svg>
