<svg width="71" height="72" viewBox="0 0 71 72" fill="none" xmlns="http://www.w3.org/2000/svg">
<rect x="0.5" y="0.5" width="70" height="71" rx="4.5" stroke="#7B61FF" stroke-dasharray="10 5"/>
<path d="M44 28H28C26.9 28 26 28.9 26 30V42C26 43.1 26.9 44 28 44H44C45.1 44 46 43.1 46 42V30C46 28.9 45.1 28 44 28ZM44 42H28V30H44V42ZM28 24H44V26H28V24ZM28 46H44V48H28V46ZM36 36C37.38 36 38.5 34.88 38.5 33.5C38.5 32.12 37.38 31 36 31C34.62 31 33.5 32.12 33.5 33.5C33.5 34.88 34.62 36 36 36ZM36 32.5C36.55 32.5 37 32.95 37 33.5C37 34.05 36.55 34.5 36 34.5C35.45 34.5 35 34.05 35 33.5C35 32.95 35.45 32.5 36 32.5ZM41 39.99C41 37.9 37.69 37 36 37C34.31 37 31 37.9 31 39.99V41H41V39.99ZM32.81 39.5C33.42 38.98 34.84 38.5 36 38.5C37.17 38.5 38.59 38.98 39.2 39.5H32.81Z" fill="#8F8F8F"/>
</svg>
