<svg width="74" height="72" viewBox="0 0 74 72" fill="none" xmlns="http://www.w3.org/2000/svg">
<rect x="0.5" y="0.5" width="73" height="71" rx="4.5" stroke="#7B61FF" stroke-dasharray="10 5"/>
<path d="M28 29H30V32H40V29H42V34H44V29C44 27.9 43.1 27 42 27H37.82C37.4 25.84 36.3 25 35 25C33.7 25 32.6 25.84 32.18 27H28C26.9 27 26 27.9 26 29V43C26 44.1 26.9 45 28 45H33V43H28V29ZM35 27C35.55 27 36 27.45 36 28C36 28.55 35.55 29 35 29C34.45 29 34 28.55 34 28C34 27.45 34.45 27 35 27Z" fill="#8F8F8F"/>
<path d="M43.3 42.9C43.7 42.2 44 41.4 44 40.5C44 38 42 36 39.5 36C37 36 35 38 35 40.5C35 43 37 45 39.5 45C40.4 45 41.2 44.7 41.9 44.3L44.6 47L46 45.6L43.3 42.9ZM39.5 43C38.1 43 37 41.9 37 40.5C37 39.1 38.1 38 39.5 38C40.9 38 42 39.1 42 40.5C42 41.9 40.9 43 39.5 43Z" fill="#8F8F8F"/>
</svg>
