<svg width="74" height="72" viewBox="0 0 74 72" fill="none" xmlns="http://www.w3.org/2000/svg">
<rect x="0.5" y="0.5" width="73" height="71" rx="4.5" stroke="#7B61FF" stroke-dasharray="10 5"/>
<path d="M45.8996 45.3849L27.5196 27.0049L26.0996 28.4149L27.7096 30.0249V43.1949C27.7096 44.2949 28.6096 45.1949 29.7096 45.1949H42.8796L44.4896 46.8049L45.8996 45.3849ZM29.7096 43.1949V32.0249L40.8796 43.1949H29.7096ZM41.7096 32.1949V29.1949H43.7096V40.3649L45.7096 42.3649V29.1949C45.7096 28.0949 44.8096 27.1949 43.7096 27.1949H39.5296C39.1096 26.0349 38.0096 25.1949 36.7096 25.1949C35.4096 25.1949 34.3096 26.0349 33.8896 27.1949H30.5396L35.5396 32.1949H41.7096ZM36.7096 27.1949C37.2596 27.1949 37.7096 27.6449 37.7096 28.1949C37.7096 28.7449 37.2596 29.1949 36.7096 29.1949C36.1596 29.1949 35.7096 28.7449 35.7096 28.1949C35.7096 27.6449 36.1596 27.1949 36.7096 27.1949Z" fill="#8F8F8F"/>
</svg>
