<svg width="75" height="72" viewBox="0 0 75 72" fill="none" xmlns="http://www.w3.org/2000/svg">
<rect x="0.5" y="0.5" width="74" height="71" rx="4.5" stroke="#7B61FF" stroke-dasharray="10 5"/>
<path d="M43 27H38.82C38.4 25.84 37.3 25 36 25C34.7 25 33.6 25.84 33.18 27H29C27.9 27 27 27.9 27 29V45C27 46.1 27.9 47 29 47H43C44.1 47 45 46.1 45 45V29C45 27.9 44.1 27 43 27ZM36 27C36.55 27 37 27.45 37 28C37 28.55 36.55 29 36 29C35.45 29 35 28.55 35 28C35 27.45 35.45 27 36 27ZM43 45H29V29H31V32H41V29H43V45Z" fill="#8F8F8F"/>
</svg>
