<svg width="72" height="72" viewBox="0 0 72 72" fill="none" xmlns="http://www.w3.org/2000/svg">
<rect x="0.5" y="0.5" width="71" height="71" rx="4.5" stroke="#7B61FF" stroke-dasharray="10 5"/>
<path d="M37.17 28L42 32.83V44H30V28H37.17ZM38 26H30C28.9 26 28 26.9 28 28V44C28 45.1 28.9 46 30 46H42C43.1 46 44 45.1 44 44V32L38 26ZM36 38C37.1 38 38 37.1 38 36C38 34.9 37.1 34 36 34C34.9 34 34 34.9 34 36C34 37.1 34.9 38 36 38ZM40 41.43C40 40.62 39.52 39.9 38.78 39.58C37.93 39.21 36.99 39 36 39C35.01 39 34.07 39.21 33.22 39.58C32.48 39.9 32 40.62 32 41.43V42H40V41.43Z" fill="#8F8F8F"/>
</svg>
