<svg width="75" height="72" viewBox="0 0 75 72" fill="none" xmlns="http://www.w3.org/2000/svg">
<rect x="0.5" y="0.5" width="74" height="71" rx="4.5" stroke="#7B61FF" stroke-dasharray="10 5"/>
<path d="M29.54 32.46L26 36L29.54 39.54L31.3 37.77L29.54 36L31.3 34.23L29.54 32.46ZM36 42.46L34.23 40.7L32.46 42.46L36 46L39.54 42.46L37.77 40.7L36 42.46ZM42.46 32.46L40.7 34.23L42.46 36L40.7 37.77L42.46 39.54L46 36L42.46 32.46ZM32.46 29.54L34.23 31.3L36 29.54L37.77 31.3L39.54 29.54L36 26L32.46 29.54Z" fill="#8F8F8F"/>
<path d="M36 39C37.6569 39 39 37.6569 39 36C39 34.3431 37.6569 33 36 33C34.3431 33 33 34.3431 33 36C33 37.6569 34.3431 39 36 39Z" fill="#8F8F8F"/>
</svg>
