<svg width="72" height="72" viewBox="0 0 72 72" fill="none" xmlns="http://www.w3.org/2000/svg">
<rect x="0.5" y="0.5" width="71" height="71" rx="4.5" stroke="#7B61FF" stroke-dasharray="10 5"/>
<path d="M35.5 47.295V43.695C30.49 43.435 26.5 39.275 26.5 34.205C26.5 28.965 30.76 24.705 36 24.705C41.24 24.705 45.5 28.965 45.5 34.205C45.5 39.155 42.06 44.135 36.93 46.605L35.5 47.295ZM36 26.705C31.86 26.705 28.5 30.065 28.5 34.205C28.5 38.345 31.86 41.705 36 41.705H37.5V44.005C41.14 41.705 43.5 37.925 43.5 34.205C43.5 30.065 40.14 26.705 36 26.705ZM35 38.205H37V40.205H35V38.205ZM37 36.705H35C35 33.455 38 33.705 38 31.705C38 30.605 37.1 29.705 36 29.705C34.9 29.705 34 30.605 34 31.705H32C32 29.495 33.79 27.705 36 27.705C38.21 27.705 40 29.495 40 31.705C40 34.205 37 34.455 37 36.705Z" fill="#8F8F8F"/>
</svg>
