<svg width="74" height="72" viewBox="0 0 74 72" fill="none" xmlns="http://www.w3.org/2000/svg">
<rect x="0.5" y="0.5" width="73" height="71" rx="4.5" stroke="#7B61FF" stroke-dasharray="10 5"/>
<path d="M46 27H26C24.9 27 24 27.9 24 29V43C24 44.1 24.9 45 26 45H46C47.1 45 47.99 44.1 47.99 43L48 29C48 27.9 47.1 27 46 27ZM46 43H26V29H46V43ZM45 30H38V35H45V30ZM44 32L41.5 33.75L39 32V31L41.5 32.75L44 31V32ZM33 36C34.65 36 36 34.65 36 33C36 31.35 34.65 30 33 30C31.35 30 30 31.35 30 33C30 34.65 31.35 36 33 36ZM33 32C33.55 32 34 32.45 34 33C34 33.55 33.55 34 33 34C32.45 34 32 33.55 32 33C32 32.45 32.45 32 33 32ZM39 40.59C39 38.09 35.03 37.01 33 37.01C30.97 37.01 27 38.09 27 40.59V42H39V40.59ZM29.48 40C30.22 39.5 31.7 39 33 39C34.3 39 35.77 39.49 36.52 40H29.48Z" fill="#8F8F8F"/>
</svg>
