<svg width="72" height="72" viewBox="0 0 72 72" fill="none" xmlns="http://www.w3.org/2000/svg">
<rect x="0.5" y="0.5" width="71" height="71" rx="4.5" stroke="#7B61FF" stroke-dasharray="10 5"/>
<path d="M34.08 34.86C34.13 34.53 34.24 34.24 34.38 33.99C34.52 33.74 34.72 33.53 34.97 33.37C35.21 33.22 35.51 33.15 35.88 33.14C36.11 33.15 36.32 33.19 36.51 33.27C36.71 33.36 36.89 33.48 37.03 33.63C37.17 33.78 37.28 33.96 37.37 34.16C37.46 34.36 37.5 34.58 37.51 34.8H39.3C39.28 34.33 39.19 33.9 39.02 33.51C38.85 33.12 38.62 32.78 38.32 32.5C38.02 32.22 37.66 32 37.24 31.84C36.82 31.68 36.36 31.61 35.85 31.61C35.2 31.61 34.63 31.72 34.15 31.95C33.67 32.18 33.27 32.48 32.95 32.87C32.63 33.26 32.39 33.71 32.24 34.23C32.09 34.75 32 35.29 32 35.87V36.14C32 36.72 32.08 37.26 32.23 37.78C32.38 38.3 32.62 38.75 32.94 39.13C33.26 39.51 33.66 39.82 34.14 40.04C34.62 40.26 35.19 40.38 35.84 40.38C36.31 40.38 36.75 40.3 37.16 40.15C37.57 40 37.93 39.79 38.24 39.52C38.55 39.25 38.8 38.94 38.98 38.58C39.16 38.22 39.27 37.84 39.28 37.43H37.49C37.48 37.64 37.43 37.83 37.34 38.01C37.25 38.19 37.13 38.34 36.98 38.47C36.83 38.6 36.66 38.7 36.46 38.77C36.27 38.84 36.07 38.86 35.86 38.87C35.5 38.86 35.2 38.79 34.97 38.64C34.72 38.48 34.52 38.27 34.38 38.02C34.24 37.77 34.13 37.47 34.08 37.14C34.03 36.81 34 36.47 34 36.14V35.87C34 35.52 34.03 35.19 34.08 34.86ZM36 26C30.48 26 26 30.48 26 36C26 41.52 30.48 46 36 46C41.52 46 46 41.52 46 36C46 30.48 41.52 26 36 26ZM36 44C31.59 44 28 40.41 28 36C28 31.59 31.59 28 36 28C40.41 28 44 31.59 44 36C44 40.41 40.41 44 36 44Z" fill="#8F8F8F"/>
</svg>
