<svg width="71" height="72" viewBox="0 0 71 72" fill="none" xmlns="http://www.w3.org/2000/svg">
<rect x="0.5" y="0.5" width="70" height="71" rx="4.5" stroke="#7B61FF" stroke-dasharray="10 5"/>
<path d="M42.5 26H33.5C32.4 26 31.5 26.9 31.5 28V40C31.5 41.1 32.4 42 33.5 42H42.5C43.6 42 44.5 41.1 44.5 40V28C44.5 26.9 43.6 26 42.5 26ZM42.5 40H33.5V28H42.5V40ZM27.5 39V37H29.5V39H27.5ZM27.5 33.5H29.5V35.5H27.5V33.5ZM34.5 44H36.5V46H34.5V44ZM27.5 42.5V40.5H29.5V42.5H27.5ZM29.5 46C28.4 46 27.5 45.1 27.5 44H29.5V46ZM33 46H31V44H33V46ZM38 46V44H40C40 45.1 39.1 46 38 46ZM29.5 30V32H27.5C27.5 30.9 28.4 30 29.5 30Z" fill="#8F8F8F"/>
</svg>
