<svg width="72" height="72" viewBox="0 0 72 72" fill="none" xmlns="http://www.w3.org/2000/svg">
<rect x="0.5" y="0.5" width="71" height="71" rx="4.5" stroke="#7B61FF" stroke-dasharray="10 5"/>
<g clip-path="url(#clip0_256_21782)">
<path d="M31.47 45.49C28.2 43.93 25.86 40.76 25.5 37H24C24.51 43.16 29.66 48 35.95 48C36.18 48 36.39 47.98 36.61 47.97L32.8 44.15L31.47 45.49ZM36.05 24C35.82 24 35.61 24.02 35.39 24.04L39.2 27.85L40.53 26.52C43.8 28.07 46.14 31.24 46.5 35H48C47.49 28.84 42.34 24 36.05 24ZM40 38H42V32C42 30.89 41.1 30 40 30H34V32H40V38ZM32 40V28H30V30H28V32H30V40C30 41.1 30.89 42 32 42H40V44H42V42H44V40H32Z" fill="#8F8F8F"/>
</g>
<defs>
<clipPath id="clip0_256_21782">
<rect width="24" height="24" fill="white" transform="translate(24 24)"/>
</clipPath>
</defs>
</svg>
