<svg width="77" height="72" viewBox="0 0 77 72" fill="none" xmlns="http://www.w3.org/2000/svg">
<rect x="0.5" y="0.5" width="76" height="71" rx="4.5" stroke="#7B61FF" stroke-dasharray="10 5"/>
<path d="M33.5 38V37H35V37.5H37V36.5H34.5C33.95 36.5 33.5 36.05 33.5 35.5V34C33.5 33.45 33.95 33 34.5 33H37.5C38.05 33 38.5 33.45 38.5 34V35H37V34.5H35V35.5H37.5C38.05 35.5 38.5 35.95 38.5 36.5V38C38.5 38.55 38.05 39 37.5 39H34.5C33.95 39 33.5 38.55 33.5 38ZM41 39H44C44.55 39 45 38.55 45 38V36.5C45 35.95 44.55 35.5 44 35.5H41.5V34.5H43.5V35H45V34C45 33.45 44.55 33 44 33H41C40.45 33 40 33.45 40 34V35.5C40 36.05 40.45 36.5 41 36.5H43.5V37.5H41.5V37H40V38C40 38.55 40.45 39 41 39ZM32 34C32 33.45 31.55 33 31 33H28C27.45 33 27 33.45 27 34V38C27 38.55 27.45 39 28 39H31C31.55 39 32 38.55 32 38V37H30.5V37.5H28.5V34.5H30.5V35H32V34Z" fill="#8F8F8F"/>
</svg>
