<svg width="72" height="72" viewBox="0 0 72 72" fill="none" xmlns="http://www.w3.org/2000/svg">
<rect x="0.5" y="0.5" width="71" height="71" rx="4.5" stroke="#7B61FF" stroke-dasharray="10 5"/>
<path d="M38 45.25C39.93 45.25 41.62 44.08 42 42.25L40.25 41.37C40 42.46 39.33 43.25 38 43.25H33.1C33.93 42.25 34.6 40.91 34.6 39.25C34.6 38.9 34.57 38.56 34.52 38.25H38V36.25H33.82C33 34.67 32 33.85 32 32.25C32 30.32 33.57 28.75 35.5 28.75C37 28.75 38.29 29.7 38.78 31.03L40.63 30.25C39.83 28.2 37.84 26.75 35.5 26.75C32.46 26.75 30 29.21 30 32.25C30 34.03 30.79 35.15 31.49 36.25H30V38.25H32.47C32.55 38.56 32.6 38.89 32.6 39.25C32.6 41.95 30 43.25 30 43.25V45.25H38Z" fill="#8F8F8F"/>
</svg>
