<svg width="72" height="72" viewBox="0 0 72 72" fill="none" xmlns="http://www.w3.org/2000/svg">
<rect x="0.5" y="0.5" width="71" height="71" rx="4.5" stroke="#7B61FF" stroke-dasharray="10 5"/>
<path d="M40.56 35.57C41.15 34.88 41.5 33.98 41.5 33C41.5 31.14 40.23 29.57 38.5 29.13V27H36.5V29H34.5V27H32.5V29H29.5V31H31.5V41H29.5V43H32.5V45H34.5V43H36.5V45H38.5V43C40.71 43 42.5 41.21 42.5 39C42.5 37.55 41.72 36.27 40.56 35.57ZM33.5 31H37.5C38.6 31 39.5 31.9 39.5 33C39.5 34.1 38.6 35 37.5 35H33.5V31ZM38.5 41H33.5V37H38.5C39.6 37 40.5 37.9 40.5 39C40.5 40.1 39.6 41 38.5 41Z" fill="#8F8F8F"/>
</svg>
