<svg width="72" height="72" viewBox="0 0 72 72" fill="none" xmlns="http://www.w3.org/2000/svg">
<rect x="0.5" y="0.5" width="71" height="71" rx="4.5" stroke="#7B61FF" stroke-dasharray="10 5"/>
<path d="M44 43V27H28V43H26V45H46V43H44ZM42 34.86C39.95 34.28 38.36 31.93 38.06 29H42V34.86ZM39.81 36C37.77 37.35 36.31 39.94 36.05 43H35.96C35.7 39.94 34.24 37.35 32.2 36C34.24 34.65 35.7 32.06 35.96 29H36.05C36.31 32.06 37.77 34.65 39.81 36ZM33.94 29C33.64 31.93 32.05 34.27 30 34.86V29H33.94ZM30 37.14C32.05 37.72 33.64 40.07 33.94 43H30V37.14ZM38.06 43C38.36 40.07 39.95 37.73 42 37.14V43H38.06Z" fill="#8F8F8F"/>
</svg>
