<svg width="72" height="72" viewBox="0 0 72 72" fill="none" xmlns="http://www.w3.org/2000/svg">
<rect x="0.5" y="0.5" width="71" height="71" rx="4.5" stroke="#7B61FF" stroke-dasharray="10 5"/>
<path d="M39.73 27H32.27L27 32.27V39.73L32.27 45H39.73L45 39.73V32.27L39.73 27ZM43 38.9L38.9 43H33.1L29 38.9V33.1L33.1 29H38.9L43 33.1V38.9ZM38.83 31.76L36 34.59L33.17 31.76L31.76 33.17L34.59 36L31.76 38.83L33.17 40.24L36 37.41L38.83 40.24L40.24 38.83L37.41 36L40.24 33.17L38.83 31.76Z" fill="#8F8F8F"/>
</svg>
