<svg width="72" height="72" viewBox="0 0 72 72" fill="none" xmlns="http://www.w3.org/2000/svg">
<rect x="0.5" y="0.5" width="71" height="71" rx="4.5" stroke="#7B61FF" stroke-dasharray="10 5"/>
<path d="M43 27H29C27.9 27 27 27.9 27 29V43C27 44.1 27.9 45 29 45H43C44.1 45 45 44.1 45 43V29C45 27.9 44.1 27 43 27ZM43 43H41.27L43 41.27V43ZM43 40H42.15L39.15 43H37.53L40.53 40H38.41L35.41 43H33.8L36.8 40H34.68L31.68 43H29.84L32.84 40H30.72L29 41.72V29H43V40Z" fill="#8F8F8F"/>
<path d="M34.67 35L36.67 37L41.75 31.91L40.34 30.5L36.67 34.17L34.67 32.17L30.25 36.59L31.66 38L34.67 35Z" fill="#8F8F8F"/>
</svg>
