<svg width="72" height="72" viewBox="0 0 72 72" fill="none" xmlns="http://www.w3.org/2000/svg">
<rect x="0.5" y="0.5" width="71" height="71" rx="4.5" stroke="#7B61FF" stroke-dasharray="10 5"/>
<path d="M37 26.025V29.055C40.39 29.545 43 32.445 43 35.975C43 36.875 42.82 37.725 42.52 38.515L45.12 40.045C45.68 38.805 46 37.425 46 35.975C46 30.795 42.05 26.525 37 26.025ZM36 42.975C32.13 42.975 29 39.845 29 35.975C29 32.445 31.61 29.545 35 29.055V26.025C29.94 26.525 26 30.785 26 35.975C26 41.495 30.47 45.975 35.99 45.975C39.3 45.975 42.23 44.365 44.05 41.885L41.45 40.355C40.17 41.955 38.21 42.975 36 42.975Z" fill="#8F8F8F"/>
</svg>
