<svg width="72" height="72" viewBox="0 0 72 72" fill="none" xmlns="http://www.w3.org/2000/svg">
<rect x="0.5" y="0.5" width="71" height="71" rx="4.5" stroke="#7B61FF" stroke-dasharray="10 5"/>
<path d="M36 26C30.48 26 26 30.48 26 36C26 41.52 30.48 46 36 46H44C45.1 46 46 45.1 46 44V36C46 30.48 41.52 26 36 26ZM36 44C33.11 44 30.57 42.46 29.17 40.16L32.12 37.21L35.41 40L40 35.42V37H42V32H37V34H38.58L35.3 37.28L32 34.5L28.31 38.2C28.11 37.5 28 36.76 28 36C28 31.59 31.59 28 36 28C40.41 28 44 31.59 44 36C44 40.41 40.41 44 36 44ZM43.5 44.5C42.95 44.5 42.5 44.05 42.5 43.5C42.5 42.95 42.95 42.5 43.5 42.5C44.05 42.5 44.5 42.95 44.5 43.5C44.5 44.05 44.05 44.5 43.5 44.5Z" fill="#8F8F8F"/>
</svg>
