<svg width="72" height="72" viewBox="0 0 72 72" fill="none" xmlns="http://www.w3.org/2000/svg">
<rect x="0.5" y="0.5" width="71" height="71" rx="4.5" stroke="#7B61FF" stroke-dasharray="10 5"/>
<path d="M30.25 39C30.8023 39 31.25 38.5523 31.25 38C31.25 37.4477 30.8023 37 30.25 37C29.6977 37 29.25 37.4477 29.25 38C29.25 38.5523 29.6977 39 30.25 39Z" fill="#8F8F8F"/>
<path d="M30.25 43C30.8023 43 31.25 42.5523 31.25 42C31.25 41.4477 30.8023 41 30.25 41C29.6977 41 29.25 41.4477 29.25 42C29.25 42.5523 29.6977 43 30.25 43Z" fill="#8F8F8F"/>
<path d="M30.25 35C30.8023 35 31.25 34.5523 31.25 34C31.25 33.4477 30.8023 33 30.25 33C29.6977 33 29.25 33.4477 29.25 34C29.25 34.5523 29.6977 35 30.25 35Z" fill="#8F8F8F"/>
<path d="M27.25 34.5C27.5261 34.5 27.75 34.2761 27.75 34C27.75 33.7239 27.5261 33.5 27.25 33.5C26.9739 33.5 26.75 33.7239 26.75 34C26.75 34.2761 26.9739 34.5 27.25 34.5Z" fill="#8F8F8F"/>
<path d="M30.25 31C30.8023 31 31.25 30.5523 31.25 30C31.25 29.4477 30.8023 29 30.25 29C29.6977 29 29.25 29.4477 29.25 30C29.25 30.5523 29.6977 31 30.25 31Z" fill="#8F8F8F"/>
<path d="M27.25 38.5C27.5261 38.5 27.75 38.2761 27.75 38C27.75 37.7239 27.5261 37.5 27.25 37.5C26.9739 37.5 26.75 37.7239 26.75 38C26.75 38.2761 26.9739 38.5 27.25 38.5Z" fill="#8F8F8F"/>
<path d="M34.25 45.5C34.5261 45.5 34.75 45.2761 34.75 45C34.75 44.7239 34.5261 44.5 34.25 44.5C33.9739 44.5 33.75 44.7239 33.75 45C33.75 45.2761 33.9739 45.5 34.25 45.5Z" fill="#8F8F8F"/>
<path d="M34.25 27.5C34.5261 27.5 34.75 27.2761 34.75 27C34.75 26.7239 34.5261 26.5 34.25 26.5C33.9739 26.5 33.75 26.7239 33.75 27C33.75 27.2761 33.9739 27.5 34.25 27.5Z" fill="#8F8F8F"/>
<path d="M34.25 31C34.8023 31 35.25 30.5523 35.25 30C35.25 29.4477 34.8023 29 34.25 29C33.6977 29 33.25 29.4477 33.25 30C33.25 30.5523 33.6977 31 34.25 31Z" fill="#8F8F8F"/>
<path d="M34.25 39.5C35.0784 39.5 35.75 38.8284 35.75 38C35.75 37.1716 35.0784 36.5 34.25 36.5C33.4216 36.5 32.75 37.1716 32.75 38C32.75 38.8284 33.4216 39.5 34.25 39.5Z" fill="#8F8F8F"/>
<path d="M34.25 35.5C35.0784 35.5 35.75 34.8284 35.75 34C35.75 33.1716 35.0784 32.5 34.25 32.5C33.4216 32.5 32.75 33.1716 32.75 34C32.75 34.8284 33.4216 35.5 34.25 35.5Z" fill="#8F8F8F"/>
<path d="M34.25 43C34.8023 43 35.25 42.5523 35.25 42C35.25 41.4477 34.8023 41 34.25 41C33.6977 41 33.25 41.4477 33.25 42C33.25 42.5523 33.6977 43 34.25 43Z" fill="#8F8F8F"/>
<path d="M36.25 27V29C40.11 29 43.25 32.14 43.25 36C43.25 39.86 40.11 43 36.25 43V45C41.21 45 45.25 40.96 45.25 36C45.25 31.04 41.21 27 36.25 27Z" fill="#8F8F8F"/>
</svg>
