<svg width="70" height="72" viewBox="0 0 70 72" fill="none" xmlns="http://www.w3.org/2000/svg">
<rect x="0.5" y="0.5" width="69" height="71" rx="4.5" stroke="#7B61FF" stroke-dasharray="10 5"/>
<path d="M38.12 34.47L36 36.59L33.87 34.47L32.46 35.88L34.59 38L32.47 40.12L33.88 41.53L36 39.41L38.12 41.53L39.53 40.12L37.41 38L39.53 35.88L38.12 34.47ZM39.5 28L38.5 27H33.5L32.5 28H29V30H43V28H39.5ZM30 43C30 44.1 30.9 45 32 45H40C41.1 45 42 44.1 42 43V31H30V43ZM32 33H40V43H32V33Z" fill="#8F8F8F"/>
</svg>
