<svg width="74" height="72" viewBox="0 0 74 72" fill="none" xmlns="http://www.w3.org/2000/svg">
<rect x="0.5" y="0.5" width="73" height="71" rx="4.5" stroke="#7B61FF" stroke-dasharray="10 5"/>
<path d="M27.7096 36.29H29.7096V34.29H27.7096V36.29ZM31.7096 44.29H33.7096V42.29H31.7096V44.29ZM37.7096 26.29H35.7096V28.29H37.7096V26.29ZM43.7096 26.29V28.29H45.7096C45.7096 27.19 44.8096 26.29 43.7096 26.29ZM29.7096 44.29V42.29H27.7096C27.7096 43.39 28.6096 44.29 29.7096 44.29ZM27.7096 40.29H29.7096V38.29H27.7096V40.29ZM35.7096 44.29H37.7096V42.29H35.7096V44.29ZM43.7096 36.29H45.7096V34.29H43.7096V36.29ZM43.7096 32.29H45.7096V30.29H43.7096V32.29ZM39.7096 28.29H41.7096V26.29H39.7096V28.29ZM32.5396 28.29L31.7096 27.46V26.29H33.7096V28.29H32.5396ZM44.5396 40.29L43.7096 39.46V38.29H45.7096V40.29H44.5396ZM45.8996 44.48L27.5196 26.1L26.0996 27.51L28.8796 30.29H27.7096V32.29H29.7096V31.12L31.7096 33.12V40.29H38.8796L40.8796 42.29H39.7096V44.29H41.7096V43.12L44.4896 45.9L45.8996 44.48ZM33.7096 38.29V35.12L36.8796 38.29H33.7096ZM39.7096 35.46V32.29H36.5396L34.5396 30.29H41.7096V37.46L39.7096 35.46Z" fill="#8F8F8F"/>
</svg>
