<svg width="73" height="72" viewBox="0 0 73 72" fill="none" xmlns="http://www.w3.org/2000/svg">
<rect x="0.5" y="0.5" width="72" height="71" rx="4.5" stroke="#7B61FF" stroke-dasharray="10 5"/>
<path d="M31 29H41V31H43V27C43 25.9 42.1 25.01 41 25.01L31 25C29.9 25 29 25.9 29 27V31H31V29ZM39.41 40.59L44 36L39.41 31.41L38 32.83L41.17 36L38 39.17L39.41 40.59ZM34 39.17L30.83 36L34 32.83L32.59 31.41L28 36L32.59 40.59L34 39.17ZM41 43H31V41H29V45C29 46.1 29.9 47 31 47H41C42.1 47 43 46.1 43 45V41H41V43Z" fill="#8F8F8F"/>
</svg>
