<svg width="71" height="72" viewBox="0 0 71 72" fill="none" xmlns="http://www.w3.org/2000/svg">
<rect x="0.5" y="0.5" width="70" height="71" rx="4.5" stroke="#7B61FF" stroke-dasharray="10 5"/>
<path d="M36 43C34.9 43 34 43.9 34 45C34 46.1 34.9 47 36 47C37.1 47 38 46.1 38 45C38 43.9 37.1 43 36 43ZM30 25C28.9 25 28 25.9 28 27C28 28.1 28.9 29 30 29C31.1 29 32 28.1 32 27C32 25.9 31.1 25 30 25ZM30 31C28.9 31 28 31.9 28 33C28 34.1 28.9 35 30 35C31.1 35 32 34.1 32 33C32 31.9 31.1 31 30 31ZM30 37C28.9 37 28 37.9 28 39C28 40.1 28.9 41 30 41C31.1 41 32 40.1 32 39C32 37.9 31.1 37 30 37ZM42 29C43.1 29 44 28.1 44 27C44 25.9 43.1 25 42 25C40.9 25 40 25.9 40 27C40 28.1 40.9 29 42 29ZM36 37C34.9 37 34 37.9 34 39C34 40.1 34.9 41 36 41C37.1 41 38 40.1 38 39C38 37.9 37.1 37 36 37ZM42 37C40.9 37 40 37.9 40 39C40 40.1 40.9 41 42 41C43.1 41 44 40.1 44 39C44 37.9 43.1 37 42 37ZM42 31C40.9 31 40 31.9 40 33C40 34.1 40.9 35 42 35C43.1 35 44 34.1 44 33C44 31.9 43.1 31 42 31ZM36 31C34.9 31 34 31.9 34 33C34 34.1 34.9 35 36 35C37.1 35 38 34.1 38 33C38 31.9 37.1 31 36 31ZM36 25C34.9 25 34 25.9 34 27C34 28.1 34.9 29 36 29C37.1 29 38 28.1 38 27C38 25.9 37.1 25 36 25Z" fill="#8F8F8F"/>
</svg>
