<svg width="69" height="72" viewBox="0 0 69 72" fill="none" xmlns="http://www.w3.org/2000/svg">
<rect x="0.5" y="0.5" width="68" height="71" rx="4.5" stroke="#7B61FF" stroke-dasharray="10 5"/>
<path d="M40 27H41V32H40V27ZM39 29H37V28H39V27H36V30H38V31H36V32H39V29ZM42 27V32H43V30H45V27H42ZM44 29H43V28H44V29ZM44 39.5C42.75 39.5 41.55 39.3 40.43 38.93C40.33 38.9 40.22 38.88 40.12 38.88C39.86 38.88 39.61 38.98 39.42 39.17L37.22 41.37C34.39 39.93 32.07 37.62 30.63 34.78L32.83 32.57C33.1 32.31 33.18 31.92 33.07 31.57C32.7 30.45 32.5 29.25 32.5 28C32.5 27.45 32.05 27 31.5 27H28C27.45 27 27 27.45 27 28C27 37.39 34.61 45 44 45C44.55 45 45 44.55 45 44V40.5C45 39.95 44.55 39.5 44 39.5ZM29.03 29H30.53C30.6 29.88 30.75 30.75 30.99 31.59L29.79 32.8C29.38 31.59 29.12 30.32 29.03 29ZM43 42.97C41.68 42.88 40.41 42.62 39.2 42.22L40.4 41.02C41.25 41.26 42.11 41.41 42.99 41.47V42.97H43Z" fill="#8F8F8F"/>
</svg>
