<svg width="72" height="72" viewBox="0 0 72 72" fill="none" xmlns="http://www.w3.org/2000/svg">
<rect x="0.5" y="0.5" width="71" height="71" rx="4.5" stroke="#7B61FF" stroke-dasharray="10 5"/>
<path d="M42.5 47H28.5C27.4 47 26.5 46.1 26.5 45V31H28.5V45H42.5V47ZM39 31V29H37V31H35V33H37V35H39V33H41V31H39ZM41 37H35V39H41V37ZM39.5 25H32.5C31.4 25 30.51 25.9 30.51 27L30.5 41C30.5 42.1 31.39 43 32.49 43H43.5C44.6 43 45.5 42.1 45.5 41V31L39.5 25ZM43.5 41H32.5V27H38.67L43.5 31.83V41Z" fill="#8F8F8F"/>
</svg>
