<svg width="72" height="72" viewBox="0 0 72 72" fill="none" xmlns="http://www.w3.org/2000/svg">
<rect x="0.5" y="0.5" width="71" height="71" rx="4.5" stroke="#7B61FF" stroke-dasharray="10 5"/>
<path d="M44 29H40.83L39 27H33L31.17 29H28C26.9 29 26 29.9 26 31V43C26 44.1 26.9 45 28 45H44C45.1 45 46 44.1 46 43V31C46 29.9 45.1 29 44 29ZM44 43H36.98C36.76 42.16 36.46 41.24 36.85 40.67C37.66 39.55 39.52 42.44 40.66 40.58C41.43 39.01 39.08 39.29 39.02 38.46C38.97 37.62 42.7 38.63 42.06 36.8C41.45 35.07 39.64 37.28 39.3 36.27C38.72 34.53 44 34.59 42.15 32.26C40.39 30.04 39.68 35.11 37.74 34.59C36.4 34.23 36.73 31.71 35.09 32.15C33.21 32.66 36.12 34.35 35.09 35.01C34.13 35.64 33.37 34.09 32.58 33.82C32.38 33.75 31.89 33.77 31.67 34.01C30.89 34.87 31.95 35.17 31.92 35.92C31.9 36.67 30.33 36.41 30.41 37.41C30.53 39.01 32.59 37.86 32.81 38.65C33.36 40.63 30.92 40.8 32.31 41.92C33.84 42.63 34.22 39.98 35.11 40.57C35.69 40.95 35.41 42.02 35.27 43H28V31H32.05L33.88 29H38.12L39.95 31H44V43Z" fill="#8F8F8F"/>
<path d="M41.28 41.15C41.28 41.63 41.67 42.01 42.14 42.01C42.62 42.01 43 41.63 43 41.15C43 40.67 42.61 40.29 42.14 40.29C41.66 40.29 41.28 40.67 41.28 41.15Z" fill="#8F8F8F"/>
</svg>
