<svg width="77" height="72" viewBox="0 0 77 72" fill="none" xmlns="http://www.w3.org/2000/svg">
<rect x="0.5" y="0.5" width="76" height="71" rx="4.5" stroke="#7B61FF" stroke-dasharray="10 5"/>
<path d="M40 39C41.95 39 43.76 39.98 44.75 41.5C43.76 43.02 41.95 44 40 44C38.05 44 36.24 43.02 35.25 41.5C36.24 39.98 38.05 39 40 39ZM40 37C36.82 37 34.1 38.87 33 41.5C34.1 44.13 36.82 46 40 46C43.18 46 45.9 44.13 47 41.5C45.9 38.87 43.18 37 40 37ZM40 43C39.17 43 38.5 42.33 38.5 41.5C38.5 40.67 39.17 40 40 40C40.83 40 41.5 40.67 41.5 41.5C41.5 42.33 40.83 43 40 43ZM44.99 36.34C45 36.23 45 36.11 45 36C45 30.48 40.52 26 35 26C29.48 26 25 30.48 25 36C25 41.17 28.93 45.43 33.96 45.95C33.03 45.22 32.24 44.31 31.64 43.27C28.9 42 27 39.22 27 36C27 34.15 27.63 32.45 28.69 31.1L34.35 36.76C34.91 36.36 35.52 36.03 36.17 35.76L30.1 29.69C31.45 28.63 33.15 28 35 28C39.24 28 42.7 31.29 42.98 35.45C43.69 35.67 44.37 35.97 44.99 36.34Z" fill="#8F8F8F"/>
</svg>
