<svg width="72" height="72" viewBox="0 0 72 72" fill="none" xmlns="http://www.w3.org/2000/svg">
<rect x="0.5" y="0.5" width="71" height="71" rx="4.5" stroke="#7B61FF" stroke-dasharray="10 5"/>
<path d="M36.788 45.5025L26.998 35.7125V37.7125C26.998 38.2425 27.208 38.7525 27.588 39.1225L35.378 46.9125C36.158 47.6925 37.428 47.6925 38.208 46.9125L44.418 40.7025C45.198 39.9225 45.198 38.6525 44.418 37.8725L36.788 45.5025Z" fill="#8F8F8F"/>
<path d="M35.378 41.9125C35.768 42.3025 36.278 42.5025 36.788 42.5025C37.298 42.5025 37.808 42.3025 38.198 41.9125L44.408 35.7025C45.188 34.9225 45.188 33.6525 44.408 32.8725L36.618 25.0825C36.248 24.7125 35.738 24.5025 35.208 24.5025H28.998C27.898 24.5025 26.998 25.4025 26.998 26.5025V32.7125C26.998 33.2425 27.208 33.7525 27.588 34.1225L35.378 41.9125ZM28.998 26.5025H35.208L42.998 34.2925L36.788 40.5025L28.998 32.7125V26.5025Z" fill="#8F8F8F"/>
<path d="M31.248 30.0025C31.9384 30.0025 32.498 29.4429 32.498 28.7525C32.498 28.0621 31.9384 27.5025 31.248 27.5025C30.5577 27.5025 29.998 28.0621 29.998 28.7525C29.998 29.4429 30.5577 30.0025 31.248 30.0025Z" fill="#8F8F8F"/>
</svg>
