<svg width="72" height="72" viewBox="0 0 72 72" fill="none" xmlns="http://www.w3.org/2000/svg">
<rect x="0.5" y="0.5" width="71" height="71" rx="4.5" stroke="#7B61FF" stroke-dasharray="10 5"/>
<path d="M43 39V43H29V39H43ZM44 37H28C27.45 37 27 37.45 27 38V44C27 44.55 27.45 45 28 45H44C44.55 45 45 44.55 45 44V38C45 37.45 44.55 37 44 37ZM31 42.5C30.18 42.5 29.5 41.83 29.5 41C29.5 40.17 30.18 39.5 31 39.5C31.82 39.5 32.5 40.17 32.5 41C32.5 41.83 31.83 42.5 31 42.5ZM43 29V33H29V29H43ZM44 27H28C27.45 27 27 27.45 27 28V34C27 34.55 27.45 35 28 35H44C44.55 35 45 34.55 45 34V28C45 27.45 44.55 27 44 27ZM31 32.5C30.18 32.5 29.5 31.83 29.5 31C29.5 30.17 30.18 29.5 31 29.5C31.82 29.5 32.5 30.18 32.5 31C32.5 31.82 31.83 32.5 31 32.5Z" fill="#8F8F8F"/>
</svg>
