<svg width="72" height="72" viewBox="0 0 72 72" fill="none" xmlns="http://www.w3.org/2000/svg">
<rect x="0.5" y="0.5" width="71" height="71" rx="4.5" stroke="#7B61FF" stroke-dasharray="10 5"/>
<path d="M31 27H28V30H26V25H31V27ZM46 30V25H41V27H44V30H46ZM31 45H28V42H26V47H31V45ZM44 42V45H41V47H46V42H44ZM41 30H31V42H41V30ZM43 42C43 43.1 42.1 44 41 44H31C29.9 44 29 43.1 29 42V30C29 28.9 29.9 28 31 28H41C42.1 28 43 28.9 43 30V42ZM39 32H33V34H39V32ZM39 35H33V37H39V35ZM39 38H33V40H39V38Z" fill="#8F8F8F"/>
</svg>
