<svg width="75" height="72" viewBox="0 0 75 72" fill="none" xmlns="http://www.w3.org/2000/svg">
<rect x="0.5" y="0.5" width="74" height="71" rx="4.5" stroke="#7B61FF" stroke-dasharray="10 5"/>
<g clip-path="url(#clip0_256_17340)">
<path d="M26.2557 24.845L24.8457 26.255L26.8457 28.255V44.155H42.7457L45.7457 47.155L47.1557 45.745L26.2557 24.845ZM30.8457 42.155H28.8457V40.155H30.8457V42.155ZM30.8457 38.155H28.8457V36.155H30.8457V38.155ZM28.8457 34.155V32.155H30.8457V34.155H28.8457ZM34.8457 42.155H32.8457V40.155H34.8457V42.155ZM32.8457 38.155V36.155H34.8457V38.155H32.8457ZM36.8457 42.155V40.155H38.7457L40.7457 42.155H36.8457ZM32.8457 28.155H34.8457V30.155H34.3957L36.8457 32.605V32.155H44.8457V40.605L46.8457 42.605V30.155H36.8457V26.155H30.3957L32.8457 28.605V28.155ZM40.8457 34.155H42.8457V36.155H40.8457V34.155Z" fill="#8F8F8F"/>
</g>
<defs>
<clipPath id="clip0_256_17340">
<rect width="24" height="24" fill="white" transform="translate(24 24)"/>
</clipPath>
</defs>
</svg>
