<svg width="72" height="72" viewBox="0 0 72 72" fill="none" xmlns="http://www.w3.org/2000/svg">
<rect x="0.5" y="0.5" width="71" height="71" rx="4.5" stroke="#7B61FF" stroke-dasharray="10 5"/>
<path d="M37.0254 29.08C40.0854 29.52 42.5054 31.94 42.9454 35H45.9754C45.5054 30.28 41.7454 26.52 37.0254 26.05V29.08ZM42.9454 37C42.5054 40.06 40.0854 42.48 37.0254 42.92V45.95C41.7454 45.48 45.5054 41.72 45.9754 37H42.9454ZM35.0254 42.92C31.6354 42.43 29.0254 39.52 29.0254 36C29.0254 32.48 31.6354 29.57 35.0254 29.08V26.05C29.9754 26.55 26.0254 30.81 26.0254 36C26.0254 41.19 29.9754 45.45 35.0254 45.95V42.92Z" fill="#8F8F8F"/>
</svg>
