<svg width="70" height="72" viewBox="0 0 70 72" fill="none" xmlns="http://www.w3.org/2000/svg">
<rect x="0.5" y="0.5" width="69" height="71" rx="4.5" stroke="#7B61FF" stroke-dasharray="10 5"/>
<path d="M38.8454 35H45.9754C45.5054 30.28 41.7454 26.52 37.0254 26.05V33.18C37.8754 33.49 38.5354 34.15 38.8454 35ZM39.0254 28.58C41.0254 29.4 42.6254 31 43.4454 33H40.0154C39.7354 32.63 39.3954 32.29 39.0254 32.01V28.58ZM26.0254 36C26.0254 41.19 29.9754 45.45 35.0254 45.95V38.82C33.8654 38.4 33.0254 37.3 33.0254 36C33.0254 34.7 33.8654 33.6 35.0254 33.18V26.05C29.9754 26.55 26.0254 30.81 26.0254 36ZM33.0254 28.58V32.02C31.7954 32.94 31.0254 34.41 31.0254 36C31.0254 37.59 31.7954 39.06 33.0254 39.99V43.43C30.0654 42.24 28.0254 39.35 28.0254 36C28.0254 32.65 30.0654 29.76 33.0254 28.58ZM37.0254 38.82V45.95C41.7454 45.48 45.5054 41.72 45.9754 37H38.8454C38.5354 37.85 37.8754 38.51 37.0254 38.82ZM39.0254 39.99C39.3954 39.71 39.7354 39.38 40.0154 39H43.4454C42.6254 41 41.0254 42.6 39.0254 43.42V39.99Z" fill="#8F8F8F"/>
</svg>
