<?xml version="1.0" encoding="UTF-8"?>
<svg width="30px" height="30px" viewBox="0 0 30 30" version="1.1" xmlns="http://www.w3.org/2000/svg" xmlns:xlink="http://www.w3.org/1999/xlink">
    <!-- Generator: Sketch 63.1 (92452) - https://sketch.com -->
    <title>Group 8</title>
    <desc>Created with Sketch.</desc>
    <g id="Link-Shortner" stroke="none" stroke-width="1" fill="none" fill-rule="evenodd">
        <g id="Group-8">
            <rect id="Rectangle" fill-opacity="0.01" fill="#FFFFFF" x="-5.32907052e-15" y="-5.32907052e-15" width="30" height="30"></rect>
            <path d="M15,10 C16.375,10 17.5,8.875 17.5,7.5 C17.5,6.125 16.375,5 15,5 C13.625,5 12.5,6.125 12.5,7.5 C12.5,8.875 13.625,10 15,10 L15,10 Z M15,12.5 C13.625,12.5 12.5,13.625 12.5,15 C12.5,16.375 13.625,17.5 15,17.5 C16.375,17.5 17.5,16.375 17.5,15 C17.5,13.625 16.375,12.5 15,12.5 L15,12.5 Z M15,20 C13.625,20 12.5,21.125 12.5,22.5 C12.5,23.875 13.625,25 15,25 C16.375,25 17.5,23.875 17.5,22.5 C17.5,21.125 16.375,20 15,20 L15,20 Z" id="Shape-Copy-2" fill="#41434C" transform="translate(15.000000, 15.000000) rotate(90.000000) translate(-15.000000, -15.000000) "></path>
        </g>
    </g>
</svg>