<svg width="71" height="72" viewBox="0 0 71 72" fill="none" xmlns="http://www.w3.org/2000/svg">
<rect x="0.5" y="0.5" width="70" height="71" rx="4.5" stroke="#7B61FF" stroke-dasharray="10 5"/>
<path d="M42.3454 28.26C40.8654 27.05 39.0354 26.25 37.0254 26.05V28.07C38.4854 28.25 39.8154 28.83 40.9254 29.69L42.3454 28.26ZM43.9554 35H45.9754C45.7754 32.99 44.9754 31.16 43.7654 29.68L42.3354 31.1C43.1954 32.21 43.7754 33.54 43.9554 35ZM42.3354 40.9L43.7654 42.33C44.9754 40.85 45.7754 39.01 45.9754 37.01H43.9554C43.7754 38.46 43.1954 39.79 42.3354 40.9ZM37.0254 43.93V45.9501C39.0354 45.7501 40.8654 44.95 42.3454 43.74L40.9154 42.31C39.8154 43.17 38.4854 43.75 37.0254 43.93ZM39.6154 34.59L37.0254 37.17V31H35.0254V37.17L32.4354 34.58L31.0254 36L36.0254 41L41.0254 36L39.6154 34.59ZM35.0254 43.93V45.9501C29.9754 45.4501 26.0254 41.19 26.0254 36C26.0254 30.81 29.9754 26.55 35.0254 26.05V28.07C31.0754 28.56 28.0254 31.92 28.0254 36C28.0254 40.08 31.0754 43.44 35.0254 43.93Z" fill="#8F8F8F"/>
</svg>
