<svg width="77" height="72" viewBox="0 0 77 72" fill="none" xmlns="http://www.w3.org/2000/svg">
<rect x="0.5" y="0.5" width="76" height="71" rx="4.5" stroke="#7B61FF" stroke-dasharray="10 5"/>
<path d="M35 42C35 43.1 34.1 44 33 44C31.9 44 31 43.1 31 42C31 40.9 31.9 40 33 40C34.1 40 35 40.9 35 42ZM33 34C31.9 34 31 34.9 31 36C31 37.1 31.9 38 33 38C34.1 38 35 37.1 35 36C35 34.9 34.1 34 33 34ZM33 28C31.9 28 31 28.9 31 30C31 31.1 31.9 32 33 32C34.1 32 35 31.1 35 30C35 28.9 34.1 28 33 28ZM39 32C40.1 32 41 31.1 41 30C41 28.9 40.1 28 39 28C37.9 28 37 28.9 37 30C37 31.1 37.9 32 39 32ZM39 34C37.9 34 37 34.9 37 36C37 37.1 37.9 38 39 38C40.1 38 41 37.1 41 36C41 34.9 40.1 34 39 34ZM39 40C37.9 40 37 40.9 37 42C37 43.1 37.9 44 39 44C40.1 44 41 43.1 41 42C41 40.9 40.1 40 39 40Z" fill="#8F8F8F"/>
</svg>
