<svg width="71" height="72" viewBox="0 0 71 72" fill="none" xmlns="http://www.w3.org/2000/svg">
<rect x="0.5" y="0.5" width="70" height="71" rx="4.5" stroke="#7B61FF" stroke-dasharray="10 5"/>
<path d="M39 40L35 44H45V40H39Z" fill="#8F8F8F"/>
<path d="M36.06 31.19L27 40.25V44H30.75L39.81 34.94L36.06 31.19ZM29.92 42H29V41.08L36.06 34.02L36.98 34.94L29.92 42Z" fill="#8F8F8F"/>
<path d="M42.71 32.04C43.1 31.65 43.1 31.02 42.71 30.63L40.37 28.29C40.17 28.09 39.92 28 39.66 28C39.41 28 39.15 28.1 38.96 28.29L37.13 30.12L40.88 33.87L42.71 32.04Z" fill="#8F8F8F"/>
</svg>
