<svg width="70" height="72" viewBox="0 0 70 72" fill="none" xmlns="http://www.w3.org/2000/svg">
<rect x="0.5" y="0.5" width="69" height="71" rx="4.5" stroke="#7B61FF" stroke-dasharray="10 5"/>
<path d="M37 35H28C26.9 35 26 34.1 26 33V30C26 28.9 26.9 28 28 28H37V35ZM28 33H35V30H28V33ZM39 44H28C26.9 44 26 43.1 26 42V39C26 37.9 26.9 37 28 37H39V44ZM28 42H37V39H28V42ZM46 33H44L46 28H39V35H41V44L46 33ZM28.75 41.25H30.25V39.75H28.75V41.25ZM28.75 32.25H30.25V30.75H28.75V32.25Z" fill="#8F8F8F"/>
</svg>
