<svg width="74" height="72" viewBox="0 0 74 72" fill="none" xmlns="http://www.w3.org/2000/svg">
<rect x="0.5" y="0.5" width="73" height="71" rx="4.5" stroke="#7B61FF" stroke-dasharray="10 5"/>
<path d="M32 32H30V39C30 40.1 30.9 41 32 41H41V39H32V32Z" fill="#8F8F8F"/>
<path d="M44 27H36C34.9 27 34 27.9 34 29V35C34 36.1 34.9 37 36 37H44C45.1 37 46 36.1 46 35V29C46 27.9 45.1 27 44 27ZM44 35H36V31H44V35Z" fill="#8F8F8F"/>
<path d="M28 36H26V43C26 44.1 26.9 45 28 45H37V43H28V36Z" fill="#8F8F8F"/>
</svg>
