<svg width="72" height="72" viewBox="0 0 72 72" fill="none" xmlns="http://www.w3.org/2000/svg">
<rect x="0.5" y="0.5" width="71" height="71" rx="4.5" stroke="#7B61FF" stroke-dasharray="10 5"/>
<path d="M27.9336 33.5H41.9336V35.5H43.9336V29.5C43.9336 28.4 43.0336 27.5 41.9336 27.5H40.9336V25.5H38.9336V27.5H30.9336V25.5H28.9336V27.5H27.9336C26.8236 27.5 25.9436 28.4 25.9436 29.5L25.9336 43.5C25.9336 44.6 26.8236 45.5 27.9336 45.5H34.9336V43.5H27.9336V33.5ZM27.9336 29.5H41.9336V31.5H27.9336V29.5ZM45.7736 39.78L45.0636 40.49L42.9436 38.37L43.6536 37.66C44.0436 37.27 44.6736 37.27 45.0636 37.66L45.7736 38.37C46.1636 38.76 46.1636 39.39 45.7736 39.78ZM42.2336 39.08L44.3536 41.2L39.0536 46.5H36.9336V44.38L42.2336 39.08Z" fill="#8F8F8F"/>
</svg>
