<svg width="72" height="72" viewBox="0 0 72 72" fill="none" xmlns="http://www.w3.org/2000/svg">
<rect x="0.5" y="0.5" width="71" height="71" rx="4.5" stroke="#7B61FF" stroke-dasharray="10 5"/>
<path d="M38.7696 32.31L39.6896 33.23L38.5796 34.34L39.9896 35.75L42.5096 33.23L38.7596 29.48L36.2396 32L37.6496 33.41L38.7696 32.31ZM45.4196 30.33C45.8096 29.94 45.8096 29.31 45.4196 28.92L43.0796 26.58C42.8796 26.38 42.6296 26.29 42.3696 26.29C42.1096 26.29 41.8596 26.39 41.6696 26.58L39.8396 28.41L43.5896 32.16L45.4196 30.33ZM27.5196 26.1L26.0996 27.51L33.4196 34.83L27.7096 40.54V44.29H31.4596L37.1696 38.58L44.4896 45.9L45.8996 44.49L27.5196 26.1ZM30.6296 42.29H29.7096V41.37L34.8396 36.24L35.7596 37.16L30.6296 42.29Z" fill="#8F8F8F"/>
</svg>
