<svg width="71" height="72" viewBox="0 0 71 72" fill="none" xmlns="http://www.w3.org/2000/svg">
<rect x="0.5" y="0.5" width="70" height="71" rx="4.5" stroke="#7B61FF" stroke-dasharray="10 5"/>
<path d="M45 35C45 30.03 40.97 26 36 26C31.03 26 27 30.03 27 35C27 38.92 29.51 42.24 33 43.48V46H35V43.94C35.33 43.98 35.66 44 36 44C36.34 44 36.67 43.98 37 43.94V46H39V43.48C42.49 42.24 45 38.92 45 35ZM36 42C32.14 42 29 38.86 29 35C29 31.14 32.14 28 36 28C39.86 28 43 31.14 43 35C43 38.86 39.86 42 36 42Z" fill="#8F8F8F"/>
<path d="M40 31H32V33H40V31Z" fill="#8F8F8F"/>
<path d="M36.75 34L33.75 37L35 38.25L33.75 39.5L35.25 41L38.25 38L37 36.75L38.25 35.5L36.75 34Z" fill="#8F8F8F"/>
</svg>
