<svg width="72" height="72" viewBox="0 0 72 72" fill="none" xmlns="http://www.w3.org/2000/svg">
<rect x="0.5" y="0.5" width="71" height="71" rx="4.5" stroke="#7B61FF" stroke-dasharray="10 5"/>
<path d="M36 27C31.2 27 27 30.86 27 36C27 38.12 27.74 40.07 28.97 41.61L27 43.59L28.41 45L30.38 43.03C31.93 44.26 33.88 45 36 45C38.3 45 40.61 44.12 42.36 42.36C44.12 40.61 45 38.3 45 36V27H36ZM43 36C43 37.87 42.27 39.63 40.95 40.95C39.63 42.27 37.87 43 36 43C32.14 43 29 39.86 29 36C29 34.1 29.74 32.32 31.1 31.01C32.42 29.71 34.16 29 36 29H43V36Z" fill="#8F8F8F"/>
<path d="M32.46 36.63L36.51 37.03L34.07 40.36C33.96 40.52 33.97 40.74 34.11 40.88C34.26 41.03 34.51 41.04 34.67 40.89L39.83 36.26C40.16 35.96 39.98 35.41 39.53 35.37L35.48 34.97L37.92 31.64C38.03 31.48 38.02 31.26 37.88 31.12C37.73 30.97 37.48 30.96 37.32 31.11L32.16 35.74C31.84 36.04 32.02 36.59 32.46 36.63Z" fill="#8F8F8F"/>
</svg>
