<svg width="72" height="72" viewBox="0 0 72 72" fill="none" xmlns="http://www.w3.org/2000/svg">
<rect x="0.5" y="0.5" width="71" height="71" rx="4.5" stroke="#7B61FF" stroke-dasharray="10 5"/>
<path d="M39 42.5C36.49 42.5 34.32 41.08 33.24 39H39V37H32.58C32.53 36.67 32.5 36.34 32.5 36C32.5 35.66 32.53 35.33 32.58 35H39V33H33.24C34.32 30.92 36.5 29.5 39 29.5C40.61 29.5 42.09 30.09 43.23 31.07L45 29.3C43.41 27.87 41.3 27 39 27C35.08 27 31.76 29.51 30.52 33H27V35H30.06C30.02 35.33 30 35.66 30 36C30 36.34 30.02 36.67 30.06 37H27V39H30.52C31.76 42.49 35.08 45 39 45C41.31 45 43.41 44.13 45 42.7L43.22 40.93C42.09 41.91 40.62 42.5 39 42.5Z" fill="#8F8F8F"/>
</svg>
