<svg width="72" height="72" viewBox="0 0 72 72" fill="none" xmlns="http://www.w3.org/2000/svg">
<rect x="0.5" y="0.5" width="71" height="71" rx="4.5" stroke="#7B61FF" stroke-dasharray="10 5"/>
<path d="M39.5 42.5C36.99 42.5 34.82 41.08 33.74 39H39.5L40.5 37H33.08C33.03 36.67 33 36.34 33 36C33 35.66 33.03 35.33 33.08 35H39.5L40.5 33H33.74C34.82 30.92 37 29.5 39.5 29.5C41.11 29.5 42.59 30.09 43.73 31.07L45.5 29.3C43.91 27.87 41.8 27 39.5 27C35.58 27 32.26 29.51 31.02 33H27.5L26.5 35H30.56C30.52 35.33 30.5 35.66 30.5 36C30.5 36.34 30.52 36.67 30.56 37H27.5L26.5 39H31.02C32.26 42.49 35.58 45 39.5 45C41.81 45 43.91 44.13 45.5 42.7L43.72 40.93C42.59 41.91 41.12 42.5 39.5 42.5Z" fill="#8F8F8F"/>
</svg>
