<svg width="70" height="72" viewBox="0 0 70 72" fill="none" xmlns="http://www.w3.org/2000/svg">
<rect x="0.5" y="0.5" width="69" height="71" rx="4.5" stroke="#7B61FF" stroke-dasharray="10 5"/>
<path d="M43.5 35V29C43.5 27.9 42.6 27 41.5 27H40.5V25H38.5V27H30.5V25H28.5V27H27.5C26.4 27 25.5 27.9 25.5 29V43C25.5 44.1 26.4 45 27.5 45H34.5V43H27.5V33H41.5V35H43.5ZM41.5 31H27.5V29H41.5V31ZM38.14 43C38.57 44.45 39.91 45.5 41.5 45.5C43.43 45.5 45 43.93 45 42C45 40.07 43.43 38.5 41.5 38.5C40.55 38.5 39.68 38.88 39.05 39.5H40.5V41H36.5V37H38V38.43C38.9 37.55 40.14 37 41.5 37C44.26 37 46.5 39.24 46.5 42C46.5 44.76 44.26 47 41.5 47C39.08 47 37.06 45.28 36.6 43H38.14Z" fill="#8F8F8F"/>
</svg>
