<svg width="73" height="72" viewBox="0 0 73 72" fill="none" xmlns="http://www.w3.org/2000/svg">
<rect x="0.5" y="0.5" width="72" height="71" rx="4.5" stroke="#7B61FF" stroke-dasharray="10 5"/>
<path d="M36 28C40.41 28 44 31.59 44 36C44 37.48 43.59 38.86 42.88 40.06L44.34 41.52C45.39 39.93 46 38.04 46 36C46 30.48 41.52 26 36 26C33.96 26 32.07 26.61 30.49 27.66L31.95 29.12C33.14 28.41 34.52 28 36 28ZM38.91 36.08L41.5 30.5L35.92 33.09L38.91 36.08ZM26.1 28.93L27.66 30.49C26.61 32.07 26 33.96 26 36C26 41.52 30.48 46 36 46C38.04 46 39.93 45.39 41.51 44.34L43.07 45.9L44.48 44.49L27.51 27.51L26.1 28.93ZM29.12 31.94L33.1 35.92L30.5 41.5L36.08 38.91L40.06 42.89C38.86 43.59 37.48 44 36 44C31.59 44 28 40.41 28 36C28 34.52 28.41 33.14 29.12 31.94Z" fill="#8F8F8F"/>
</svg>
