<svg width="72" height="72" viewBox="0 0 72 72" fill="none" xmlns="http://www.w3.org/2000/svg">
<rect x="0.5" y="0.5" width="71" height="71" rx="4.5" stroke="#7B61FF" stroke-dasharray="10 5"/>
<path d="M40.05 40.79L42.91 37.72C43.29 37.33 43.63 36.93 43.95 36.54C44.27 36.15 44.54 35.76 44.77 35.37C45 34.98 45.18 34.59 45.31 34.2C45.44 33.81 45.5 33.41 45.5 33.02C45.5 32.49 45.41 32 45.23 31.56C45.05 31.12 44.79 30.75 44.45 30.45C44.11 30.14 43.68 29.91 43.19 29.74C42.68 29.58 42.11 29.5 41.47 29.5C40.78 29.5 40.16 29.61 39.62 29.82C39.08 30.03 38.62 30.33 38.26 30.7C37.89 31.07 37.61 31.5 37.42 32C37.24 32.47 37.15 32.97 37.14 33.5H39.28C39.29 33.19 39.33 32.9 39.41 32.63C39.5 32.34 39.64 32.09 39.81 31.88C39.99 31.67 40.22 31.51 40.49 31.39C40.76 31.27 41.09 31.21 41.45 31.21C41.76 31.21 42.03 31.26 42.26 31.36C42.49 31.46 42.69 31.61 42.85 31.79C43.01 31.97 43.13 32.19 43.22 32.44C43.3 32.69 43.35 32.96 43.35 33.25C43.35 33.47 43.32 33.68 43.27 33.9C43.21 34.12 43.12 34.35 42.98 34.6C42.84 34.85 42.66 35.13 42.42 35.43C42.19 35.73 41.9 36.08 41.54 36.46L37.37 41.01V42.5H46V40.79H40.05ZM32 31.5H30V35.5H26V37.5H30V41.5H32V37.5H36V35.5H32V31.5Z" fill="#8F8F8F"/>
</svg>
