<svg width="72" height="72" viewBox="0 0 72 72" fill="none" xmlns="http://www.w3.org/2000/svg">
<rect x="0.5" y="0.5" width="71" height="71" rx="4.5" stroke="#7B61FF" stroke-dasharray="10 5"/>
<path d="M40.1355 37C40.1355 38 40.0355 38.85 39.8355 39.55C39.6355 40.25 39.3555 40.82 39.0055 41.25C38.6455 41.69 38.2155 42 37.7055 42.2C37.1955 42.4 36.6355 42.5 36.0055 42.5C35.3855 42.5 34.8255 42.4 34.3155 42.2C33.8055 42 33.3655 41.69 33.0055 41.25C32.6455 40.81 32.3555 40.24 32.1555 39.55C31.9555 38.85 31.8555 38 31.8555 37V34.96C31.8555 33.96 31.9555 33.11 32.1555 32.41C32.3555 31.71 32.6355 31.15 32.9955 30.72C33.3555 30.29 33.7955 29.98 34.3055 29.79C34.8055 29.6 35.3755 29.5 35.9955 29.5C36.6255 29.5 37.1855 29.6 37.6955 29.79C38.2055 29.98 38.6455 30.29 39.0055 30.72C39.3655 31.15 39.6455 31.71 39.8455 32.41C40.0455 33.11 40.1455 33.95 40.1455 34.96V37H40.1355ZM38.0255 34.64C38.0255 34 37.9755 33.46 37.8955 33.02C37.8055 32.58 37.6755 32.23 37.4955 31.96C37.3255 31.69 37.1055 31.5 36.8555 31.38C36.6055 31.25 36.3155 31.19 35.9955 31.19C35.6755 31.19 35.3855 31.25 35.1355 31.37C34.8855 31.49 34.6655 31.68 34.4955 31.95C34.3255 32.22 34.1855 32.57 34.0955 33.01C34.0055 33.45 33.9655 33.99 33.9655 34.63V37.3C33.9655 37.94 34.0155 38.48 34.1055 38.92C34.1955 39.37 34.3355 39.73 34.5055 40.01C34.6755 40.29 34.8955 40.49 35.1455 40.62C35.3955 40.75 35.6855 40.81 36.0155 40.81C36.3455 40.81 36.6355 40.75 36.8855 40.62C37.1355 40.49 37.3455 40.29 37.5155 40.01C37.6855 39.73 37.8155 39.37 37.9055 38.92C37.9955 38.47 38.0355 37.93 38.0355 37.3V34.64H38.0255Z" fill="#8F8F8F"/>
</svg>
