<svg width="72" height="72" viewBox="0 0 72 72" fill="none" xmlns="http://www.w3.org/2000/svg">
<rect x="0.5" y="0.5" width="71" height="71" rx="4.5" stroke="#7B61FF" stroke-dasharray="10 5"/>
<path d="M39.55 40.79L42.41 37.72C42.79 37.33 43.13 36.93 43.45 36.54C43.77 36.15 44.04 35.76 44.27 35.37C44.5 34.98 44.68 34.59 44.81 34.2C44.94 33.81 45 33.41 45 33.02C45 32.49 44.91 32 44.73 31.56C44.55 31.12 44.29 30.75 43.95 30.45C43.61 30.14 43.18 29.91 42.69 29.74C42.18 29.58 41.61 29.5 40.97 29.5C40.28 29.5 39.66 29.61 39.12 29.82C38.58 30.03 38.12 30.33 37.76 30.7C37.39 31.07 37.11 31.5 36.92 32C36.74 32.47 36.65 32.97 36.64 33.5H38.78C38.79 33.19 38.83 32.9 38.91 32.63C39 32.34 39.14 32.09 39.31 31.88C39.49 31.67 39.72 31.51 39.99 31.39C40.26 31.27 40.59 31.21 40.95 31.21C41.26 31.21 41.53 31.26 41.76 31.36C41.99 31.46 42.19 31.61 42.35 31.79C42.51 31.97 42.63 32.19 42.72 32.44C42.8 32.69 42.85 32.96 42.85 33.25C42.85 33.47 42.82 33.68 42.77 33.9C42.71 34.12 42.62 34.35 42.48 34.6C42.34 34.85 42.16 35.13 41.92 35.43C41.69 35.73 41.4 36.08 41.04 36.46L36.87 41.01V42.5H45.5V40.79H39.55ZM26.5 35.5V37.5H34.5V35.5H26.5Z" fill="#8F8F8F"/>
</svg>
