<svg width="72" height="72" viewBox="0 0 72 72" fill="none" xmlns="http://www.w3.org/2000/svg">
<rect x="0.5" y="0.5" width="71" height="71" rx="4.5" stroke="#7B61FF" stroke-dasharray="10 5"/>
<path d="M25.4453 28.17L27.0653 29.79C27.0653 29.84 27.0553 29.89 27.0553 29.95V33.75C29.7553 33.75 30.0553 35.91 30.0553 36.45C30.0553 36.99 29.7653 39.15 27.0553 39.15V42.95C27.0553 44.05 27.9553 44.95 29.0553 44.95H32.8553C32.8553 42.24 35.0153 41.95 35.5553 41.95C36.0953 41.95 38.2553 42.24 38.2553 44.95H42.0553C42.1153 44.95 42.1653 44.95 42.2153 44.94L43.8253 46.55L45.2353 45.14L26.8653 26.76L25.4453 28.17ZM35.5553 39.95C34.0553 39.95 31.9853 40.78 31.1853 42.95H29.0553V40.82C31.2253 40.02 32.0553 37.95 32.0553 36.45C32.0553 35.76 31.8753 34.95 31.4753 34.2L37.8053 40.53C37.0553 40.13 36.2453 39.95 35.5553 39.95ZM32.8853 29.95L30.8853 27.95H33.0553C33.0553 26.57 34.1753 25.45 35.5553 25.45C36.9353 25.45 38.0553 26.57 38.0553 27.95H42.0553C43.1553 27.95 44.0553 28.85 44.0553 29.95V33.95C45.4353 33.95 46.5553 35.07 46.5553 36.45C46.5553 37.83 45.4353 38.95 44.0553 38.95V41.12L42.0553 39.12V36.95H44.0553C44.3353 36.95 44.5553 36.73 44.5553 36.45C44.5553 36.17 44.3353 35.95 44.0553 35.95H42.0553V29.95H36.0553V27.95C36.0553 27.67 35.8353 27.45 35.5553 27.45C35.2753 27.45 35.0553 27.67 35.0553 27.95V29.95H32.8853Z" fill="#8F8F8F"/>
</svg>
