<svg width="72" height="72" viewBox="0 0 72 72" fill="none" xmlns="http://www.w3.org/2000/svg">
<rect x="0.5" y="0.5" width="71" height="71" rx="4.5" stroke="#7B61FF" stroke-dasharray="10 5"/>
<path d="M34.75 28.25C35.03 28.25 35.25 28.47 35.25 28.75V30.75H41.25V36.75H43.25C43.53 36.75 43.75 36.97 43.75 37.25C43.75 37.53 43.53 37.75 43.25 37.75H41.25V43.75H39.13C38.45 42 36.74 40.75 34.75 40.75C32.76 40.75 31.05 42 30.37 43.75H28.25V41.63C30 40.95 31.25 39.24 31.25 37.25C31.25 35.26 30.01 33.55 28.26 32.87L28.25 30.75H34.25V28.75C34.25 28.47 34.47 28.25 34.75 28.25ZM34.75 26.25C33.37 26.25 32.25 27.37 32.25 28.75H28.25C27.15 28.75 26.26 29.65 26.26 30.75V34.55H26.55C28.04 34.55 29.25 35.76 29.25 37.25C29.25 38.74 28.04 39.95 26.55 39.95H26.25V43.75C26.25 44.85 27.15 45.75 28.25 45.75H32.05V45.45C32.05 43.96 33.26 42.75 34.75 42.75C36.24 42.75 37.45 43.96 37.45 45.45V45.75H41.25C42.35 45.75 43.25 44.85 43.25 43.75V39.75C44.63 39.75 45.75 38.63 45.75 37.25C45.75 35.87 44.63 34.75 43.25 34.75V30.75C43.25 29.65 42.35 28.75 41.25 28.75H37.25C37.25 27.37 36.13 26.25 34.75 26.25Z" fill="#8F8F8F"/>
</svg>
