<svg width="70" height="72" viewBox="0 0 70 72" fill="none" xmlns="http://www.w3.org/2000/svg">
<rect x="0.5" y="0.5" width="69" height="71" rx="4.5" stroke="#7B61FF" stroke-dasharray="10 5"/>
<path d="M34.25 37C34.25 37.69 33.69 38.25 33 38.25C32.31 38.25 31.75 37.69 31.75 37C31.75 36.31 32.31 35.75 33 35.75C33.69 35.75 34.25 36.31 34.25 37ZM39 35.75C38.31 35.75 37.75 36.31 37.75 37C37.75 37.69 38.31 38.25 39 38.25C39.69 38.25 40.25 37.69 40.25 37C40.25 36.31 39.69 35.75 39 35.75ZM46 36C46 41.52 41.52 46 36 46C30.48 46 26 41.52 26 36C26 30.48 30.48 26 36 26C41.52 26 46 30.48 46 36ZM34.66 28.12C36.06 30.44 38.6 32 41.5 32C41.96 32 42.41 31.95 42.84 31.88C41.44 29.56 38.9 28 36 28C35.54 28 35.09 28.05 34.66 28.12ZM28.42 33.47C30.13 32.5 31.45 30.92 32.08 29.03C30.37 30 29.05 31.58 28.42 33.47ZM44 36C44 35.22 43.88 34.47 43.67 33.76C42.97 33.91 42.25 34 41.5 34C38.37 34 35.58 32.56 33.74 30.31C32.69 32.87 30.6 34.88 28 35.86C28.01 35.9 28 35.95 28 36C28 40.41 31.59 44 36 44C40.41 44 44 40.41 44 36Z" fill="#8F8F8F"/>
</svg>
