<svg width="72" height="72" viewBox="0 0 72 72" fill="none" xmlns="http://www.w3.org/2000/svg">
<rect x="0.5" y="0.5" width="71" height="71" rx="4.5" stroke="#7B61FF" stroke-dasharray="10 5"/>
<path d="M43.39 35.25C43.46 35.66 43.5 36.07 43.5 36.5C43.5 40.91 39.91 44.5 35.5 44.5C31.09 44.5 27.5 40.91 27.5 36.5C27.5 36.45 27.51 36.4 27.5 36.36C30.1 35.38 32.19 33.37 33.24 30.81C36.62 34.95 41.21 34.54 42.23 34.42L41.34 32.49C41.21 32.5 36.72 32.87 34.16 28.63C35.17 28.47 35.87 28.48 36.75 28.62C39.27 27.47 38.68 27.73 39.51 27.36C38.28 26.8 36.93 26.5 35.5 26.5C29.98 26.5 25.5 30.98 25.5 36.5C25.5 42.02 29.98 46.5 35.5 46.5C41.02 46.5 45.5 42.02 45.5 36.5C45.5 35.07 45.2 33.72 44.66 32.49L43.39 35.25ZM31.58 29.53C30.95 31.42 29.63 33 27.92 33.97C28.55 32.08 29.87 30.5 31.58 29.53Z" fill="#8F8F8F"/>
<path d="M38.5 38.75C39.1904 38.75 39.75 38.1904 39.75 37.5C39.75 36.8096 39.1904 36.25 38.5 36.25C37.8096 36.25 37.25 36.8096 37.25 37.5C37.25 38.1904 37.8096 38.75 38.5 38.75Z" fill="#8F8F8F"/>
<path d="M32.5 38.75C33.1904 38.75 33.75 38.1904 33.75 37.5C33.75 36.8096 33.1904 36.25 32.5 36.25C31.8096 36.25 31.25 36.8096 31.25 37.5C31.25 38.1904 31.8096 38.75 32.5 38.75Z" fill="#8F8F8F"/>
<path d="M46.5 29L44.1 27.9L43 25.5L41.9 27.9L39.5 29L41.9 30.1L43 32.5L44.1 30.1L46.5 29Z" fill="#8F8F8F"/>
</svg>
