<svg width="72" height="72" viewBox="0 0 72 72" fill="none" xmlns="http://www.w3.org/2000/svg">
<rect x="0.5" y="0.5" width="71" height="71" rx="4.5" stroke="#7B61FF" stroke-dasharray="10 5"/>
<path d="M33.0553 38.1951C33.7457 38.1951 34.3053 37.6354 34.3053 36.9451C34.3053 36.2547 33.7457 35.6951 33.0553 35.6951C32.365 35.6951 31.8053 36.2547 31.8053 36.9451C31.8053 37.6354 32.365 38.1951 33.0553 38.1951Z" fill="#8F8F8F"/>
<path d="M41.5553 33.9451C42.3053 33.9451 43.0253 33.8551 43.7253 33.7051C43.9353 34.4151 44.0553 35.1651 44.0553 35.9451C44.0553 37.1651 43.7753 38.3151 43.2853 39.3451L44.7753 40.8351C45.5853 39.3851 46.0553 37.7251 46.0553 35.9451C46.0553 30.4251 41.5753 25.9451 36.0553 25.9451C34.2753 25.9451 32.6153 26.4151 31.1653 27.2251L36.4953 32.5551C37.9853 33.4351 39.7053 33.9451 41.5553 33.9451ZM34.7153 28.0651C35.1453 27.9951 35.5953 27.9451 36.0553 27.9451C38.9553 27.9451 41.4953 29.5051 42.8953 31.8251C42.4653 31.8951 42.0153 31.9451 41.5553 31.9451C38.6553 31.9451 36.1153 30.3851 34.7153 28.0651Z" fill="#8F8F8F"/>
<path d="M25.9453 27.6651L28.1353 29.8551C26.8353 31.5451 26.0553 33.6551 26.0553 35.9451C26.0553 41.4651 30.5353 45.9451 36.0553 45.9451C38.3453 45.9451 40.4553 45.1651 42.1453 43.8651L44.3353 46.0551L45.7453 44.6451L27.3653 26.2551L25.9453 27.6651ZM40.7153 42.4351C39.4053 43.3851 37.7953 43.9451 36.0553 43.9451C31.6453 43.9451 28.0553 40.3551 28.0553 35.9451C28.0553 35.8951 28.0653 35.8451 28.0553 35.8051C29.4453 35.2851 30.6853 34.4551 31.6953 33.4151L40.7153 42.4351ZM30.2853 32.0051C29.7553 32.5551 29.1453 33.0351 28.4753 33.4151C28.7353 32.6451 29.1053 31.9351 29.5653 31.2851L30.2853 32.0051Z" fill="#8F8F8F"/>
</svg>
