<svg width="72" height="72" viewBox="0 0 72 72" fill="none" xmlns="http://www.w3.org/2000/svg">
<rect x="0.5" y="0.5" width="71" height="71" rx="4.5" stroke="#7B61FF" stroke-dasharray="10 5"/>
<path d="M40.5 26.825C38.76 26.825 37.09 27.635 36 28.915C34.91 27.635 33.24 26.825 31.5 26.825C28.42 26.825 26 29.245 26 32.325C26 36.105 29.4 39.185 34.55 43.865L36 45.175L37.45 43.855C42.6 39.185 46 36.105 46 32.325C46 29.245 43.58 26.825 40.5 26.825ZM36.1 42.375L36 42.475L35.9 42.375C31.14 38.065 28 35.215 28 32.325C28 30.325 29.5 28.825 31.5 28.825C33.04 28.825 34.54 29.815 35.07 31.185H36.94C37.46 29.815 38.96 28.825 40.5 28.825C42.5 28.825 44 30.325 44 32.325C44 35.215 40.86 38.065 36.1 42.375Z" fill="#8F8F8F"/>
</svg>
