<svg width="72" height="72" viewBox="0 0 72 72" fill="none" xmlns="http://www.w3.org/2000/svg">
<rect x="0.5" y="0.5" width="71" height="71" rx="4.5" stroke="#7B61FF" stroke-dasharray="10 5"/>
<path d="M43 32.5H42V27.5H32V32.5H31.22C30.67 31.89 29.89 31.5 29 31.5C27.34 31.5 26 32.84 26 34.5V41.5C26 43.16 27.34 44.5 29 44.5C29.89 44.5 30.67 44.11 31.22 43.5H46V35.5C46 33.84 44.66 32.5 43 32.5ZM30 41.5C30 42.05 29.55 42.5 29 42.5C28.45 42.5 28 42.05 28 41.5V34.5C28 33.95 28.45 33.5 29 33.5C29.55 33.5 30 33.95 30 34.5V41.5ZM34 29.5H40V32.5H34V29.5ZM44 41.5H32V34.5H43C43.55 34.5 44 34.95 44 35.5V41.5Z" fill="#8F8F8F"/>
<path d="M39 37.5C39.5523 37.5 40 37.0523 40 36.5C40 35.9477 39.5523 35.5 39 35.5C38.4477 35.5 38 35.9477 38 36.5C38 37.0523 38.4477 37.5 39 37.5Z" fill="#8F8F8F"/>
<path d="M42 37.5C42.5523 37.5 43 37.0523 43 36.5C43 35.9477 42.5523 35.5 42 35.5C41.4477 35.5 41 35.9477 41 36.5C41 37.0523 41.4477 37.5 42 37.5Z" fill="#8F8F8F"/>
<path d="M39 40.5C39.5523 40.5 40 40.0523 40 39.5C40 38.9477 39.5523 38.5 39 38.5C38.4477 38.5 38 38.9477 38 39.5C38 40.0523 38.4477 40.5 39 40.5Z" fill="#8F8F8F"/>
<path d="M42 40.5C42.5523 40.5 43 40.0523 43 39.5C43 38.9477 42.5523 38.5 42 38.5C41.4477 38.5 41 38.9477 41 39.5C41 40.0523 41.4477 40.5 42 40.5Z" fill="#8F8F8F"/>
<path d="M37 35.5H33V40.5H37V35.5Z" fill="#8F8F8F"/>
</svg>
