<svg width="72" height="72" viewBox="0 0 72 72" fill="none" xmlns="http://www.w3.org/2000/svg">
<rect x="0.5" y="0.5" width="71" height="71" rx="4.5" stroke="#7B61FF" stroke-dasharray="10 5"/>
<path d="M33 28C28.58 28 25 31.58 25 36C25 40.42 28.58 44 33 44C37.42 44 41 40.42 41 36C41 31.58 37.42 28 33 28ZM33 42C29.69 42 27 39.31 27 36C27 32.69 29.69 30 33 30C36.31 30 39 32.69 39 36C39 39.31 36.31 42 33 42ZM41 28.26V30.35C43.33 31.17 45 33.39 45 36C45 38.61 43.33 40.83 41 41.65V43.74C44.45 42.85 47 39.73 47 36C47 32.27 44.45 29.15 41 28.26Z" fill="#8F8F8F"/>
</svg>
