<svg width="73" height="72" viewBox="0 0 73 72" fill="none" xmlns="http://www.w3.org/2000/svg">
<rect x="0.5" y="0.5" width="72" height="71" rx="4.5" stroke="#7B61FF" stroke-dasharray="10 5"/>
<path d="M35.87 36.43L34.87 33H33.37L35.12 39H36.62L38.37 33H36.87L35.87 36.43ZM45 35.5V34.5C45 33.65 44.35 33 43.5 33H40V39H41.5V37H42.65L43.5 39H45L44.1 36.9C44.6 36.65 45 36.1 45 35.5ZM43.5 35.5H41.5V34.5H43.5V35.5ZM30.5 33H27V39H30.5C31.35 39 32 38.35 32 37.5V34.5C32 33.65 31.35 33 30.5 33ZM30.5 37.5H28.5V34.5H30.5V37.5Z" fill="#8F8F8F"/>
</svg>
