<svg width="72" height="72" viewBox="0 0 72 72" fill="none" xmlns="http://www.w3.org/2000/svg">
<rect x="0.5" y="0.5" width="71" height="71" rx="4.5" stroke="#7B61FF" stroke-dasharray="10 5"/>
<path d="M38 26H30C28.9 26 28 26.9 28 28V44C28 45.1 28.9 46 30 46H42C43.1 46 44 45.1 44 44V32L38 26ZM42 44H30V28H38V32H42V44ZM36 41C34.9 41 34 40.1 34 39V33.5C34 33.22 34.22 33 34.5 33C34.78 33 35 33.22 35 33.5V39H37V33.5C37 32.12 35.88 31 34.5 31C33.12 31 32 32.12 32 33.5V39C32 41.21 33.79 43 36 43C38.21 43 40 41.21 40 39V35H38V39C38 40.1 37.1 41 36 41Z" fill="#8F8F8F"/>
</svg>
