<svg width="73" height="72" viewBox="0 0 73 72" fill="none" xmlns="http://www.w3.org/2000/svg">
<rect x="0.5" y="0.5" width="72" height="71" rx="4.5" stroke="#7B61FF" stroke-dasharray="10 5"/>
<path d="M42.7096 38.4601V38.2901H44.7096V40.4601L42.7096 38.4601ZM40.1196 35.8801L41.7096 34.2901L40.2996 32.8801L38.7096 34.4601L40.1196 35.8801ZM37.7096 33.4601V27.2901H35.7096V31.4601L37.7096 33.4601ZM45.8996 44.4801L27.5196 26.1001L26.0996 27.5101L32.2896 33.7001L31.7096 34.2901L36.7096 39.2901L37.2996 38.7001L39.8796 41.2901H30.7096V38.2901H28.7096V41.2901C28.7096 42.3901 29.6096 43.2901 30.7096 43.2901H41.8796L44.4896 45.9001L45.8996 44.4801Z" fill="#8F8F8F"/>
</svg>
