<svg width="72" height="72" viewBox="0 0 72 72" fill="none" xmlns="http://www.w3.org/2000/svg">
<rect x="0.5" y="0.5" width="71" height="71" rx="4.5" stroke="#7B61FF" stroke-dasharray="10 5"/>
<path d="M27 29H25V45C25 46.1 25.9 47 27 47H43V45H27V29ZM38 36V32C38 30.89 37.1 30 36 30H35C33.9 30 33 30.89 33 32V33C33 34.11 33.9 35 35 35H36V36H33V38H36C37.1 38 38 37.11 38 36ZM35 33V32H36V33H35ZM45 25H31C29.9 25 29 25.9 29 27V41C29 42.1 29.9 43 31 43H45C46.1 43 47 42.1 47 41V27C47 25.9 46.1 25 45 25ZM45 33H43V31H41V33H39V35H41V37H43V35H45V41H31V27H45V33Z" fill="#8F8F8F"/>
</svg>
