<svg width="72" height="72" viewBox="0 0 72 72" fill="none" xmlns="http://www.w3.org/2000/svg">
<rect x="0.5" y="0.5" width="71" height="71" rx="4.5" stroke="#7B61FF" stroke-dasharray="10 5"/>
<path d="M27 29H25V45C25 46.1 25.9 47 27 47H43V45H27V29ZM45 25H31C29.9 25 29 25.9 29 27V41C29 42.1 29.9 43 31 43H45C46.1 43 47 42.1 47 41V27C47 25.9 46.1 25 45 25ZM45 41H31V27H45V41ZM37 39H39C40.1 39 41 38.11 41 37V35.5C41 34.67 40.33 34 39.5 34C40.33 34 41 33.33 41 32.5V31C41 29.89 40.1 29 39 29H37C35.9 29 35 29.89 35 31V32.5C35 33.33 35.67 34 36.5 34C35.67 34 35 34.67 35 35.5V37C35 38.11 35.9 39 37 39ZM37 31H39V33H37V31ZM37 35H39V37H37V35Z" fill="#8F8F8F"/>
</svg>
