<svg width="72" height="72" viewBox="0 0 72 72" fill="none" xmlns="http://www.w3.org/2000/svg">
<rect x="0.5" y="0.5" width="71" height="71" rx="4.5" stroke="#7B61FF" stroke-dasharray="10 5"/>
<path d="M42.7008 36.4C42.4208 36.24 42.1308 36.11 41.8408 36C42.1308 35.89 42.4208 35.76 42.7008 35.6C44.6208 34.49 45.6908 32.48 45.7008 30.41C44.7908 29.89 43.7508 29.61 42.6908 29.61C41.6708 29.61 40.6408 29.87 39.7008 30.41C39.4208 30.57 39.1608 30.76 38.9208 30.95C38.9708 30.64 39.0008 30.32 39.0008 30C39.0008 27.78 37.7908 25.85 36.0008 24.81C34.2108 25.85 33.0008 27.78 33.0008 30C33.0008 30.32 33.0308 30.64 33.0808 30.95C32.8408 30.75 32.5808 30.56 32.3008 30.4C31.3608 29.86 30.3308 29.6 29.3108 29.6C28.2608 29.6 27.2108 29.88 26.3008 30.4C26.3008 32.47 27.3708 34.48 29.3008 35.59C29.5808 35.75 29.8708 35.88 30.1608 35.99C29.8708 36.1 29.5808 36.23 29.3008 36.39C27.3808 37.5 26.3108 39.51 26.3008 41.58C27.2108 42.1 28.2508 42.38 29.3108 42.38C30.3308 42.38 31.3608 42.12 32.3008 41.58C32.5808 41.42 32.8408 41.23 33.0808 41.04C33.0308 41.36 33.0008 41.68 33.0008 42C33.0008 44.22 34.2108 46.15 36.0008 47.19C37.7908 46.15 39.0008 44.22 39.0008 42C39.0008 41.68 38.9708 41.36 38.9208 41.05C39.1608 41.25 39.4208 41.43 39.7008 41.59C40.6408 42.13 41.6708 42.39 42.6908 42.39C43.7408 42.39 44.7908 42.11 45.7008 41.59C45.6908 39.52 44.6208 37.51 42.7008 36.4ZM40.1608 32.52C40.3708 32.35 40.5408 32.23 40.7008 32.15C41.3108 31.8 42.0008 31.61 42.7008 31.61C42.9708 31.61 43.2308 31.64 43.4908 31.69C43.1808 32.6 42.5508 33.38 41.7108 33.87C41.5408 33.97 41.3508 34.05 41.1308 34.14L39.7508 34.66C39.5808 34.2 39.3408 33.79 39.0308 33.42L40.1608 32.52ZM36.0008 27.37C36.6308 28.09 37.0008 29.03 37.0008 30C37.0008 30.19 36.9808 30.41 36.9508 30.63L36.7208 32.07C36.4808 32.03 36.2408 32 36.0008 32C35.7608 32 35.5208 32.03 35.2908 32.07L35.0608 30.63C35.0208 30.41 35.0008 30.19 35.0008 30C35.0008 29.02 35.3708 28.09 36.0008 27.37ZM28.5108 31.68C28.7708 31.62 29.0408 31.6 29.3108 31.6C30.0008 31.6 30.6908 31.78 31.3008 32.14C31.4508 32.23 31.6208 32.34 31.7908 32.49L32.9408 33.45C32.6408 33.81 32.4108 34.21 32.2408 34.65L30.8608 34.13C30.6508 34.04 30.4608 33.95 30.3008 33.86C29.4308 33.36 28.8108 32.59 28.5108 31.68ZM31.8408 39.47C31.6308 39.64 31.4608 39.76 31.3008 39.84C30.6908 40.19 30.0008 40.38 29.3008 40.38C29.0308 40.38 28.7708 40.35 28.5108 40.3C28.8208 39.39 29.4508 38.61 30.2908 38.12C30.4608 38.02 30.6508 37.94 30.8708 37.85L32.2508 37.33C32.4108 37.79 32.6608 38.21 32.9708 38.57L31.8408 39.47ZM36.0008 44.63C35.3708 43.91 35.0008 42.97 35.0008 42C35.0008 41.8 35.0208 41.59 35.0608 41.35L35.2808 39.93C35.5108 39.97 35.7508 40 36.0008 40C36.2408 40 36.4808 39.97 36.7108 39.93L36.9408 41.37C36.9808 41.59 37.0008 41.81 37.0008 42C37.0008 42.98 36.6308 43.91 36.0008 44.63ZM42.6908 40.39C42.0008 40.39 41.3108 40.21 40.7008 39.85C40.5208 39.75 40.3608 39.63 40.2108 39.51L39.0608 38.55C39.3608 38.19 39.6008 37.79 39.7608 37.34L41.1408 37.86C41.3608 37.94 41.5508 38.03 41.7108 38.12C42.5608 38.61 43.1808 39.39 43.4908 40.3C43.2208 40.37 42.9508 40.39 42.6908 40.39Z" fill="#8F8F8F"/>
</svg>
