<svg width="72" height="72" viewBox="0 0 72 72" fill="none" xmlns="http://www.w3.org/2000/svg">
<rect x="0.5" y="0.5" width="71" height="71" rx="4.5" stroke="#7B61FF" stroke-dasharray="10 5"/>
<path d="M29 39H27V43C27 44.1 27.9 45 29 45H33V43H29V39ZM29 29H33V27H29C27.9 27 27 27.9 27 29V33H29V29ZM43 27H39V29H43V33H45V29C45 27.9 44.1 27 43 27ZM43 43H39V45H43C44.1 45 45 44.1 45 43V39H43V43ZM36 33C34.34 33 33 34.34 33 36C33 37.66 34.34 39 36 39C37.66 39 39 37.66 39 36C39 34.34 37.66 33 36 33Z" fill="#8F8F8F"/>
</svg>
