<svg width="70" height="72" viewBox="0 0 70 72" fill="none" xmlns="http://www.w3.org/2000/svg">
<rect x="0.5" y="0.5" width="69" height="71" rx="4.5" stroke="#7B61FF" stroke-dasharray="10 5"/>
<path d="M34.2559 29.255C35.6359 29.255 36.8859 29.815 37.7959 30.715L35.2559 33.255H41.2559V27.255L39.2059 29.305C37.9359 28.035 36.1859 27.255 34.2559 27.255C30.7259 27.255 27.8259 29.865 27.3359 33.255H29.3559C29.8159 30.975 31.8359 29.255 34.2559 29.255ZM39.8959 38.395C40.5559 37.495 41.0159 36.425 41.1759 35.255H39.1559C38.6959 37.535 36.6759 39.255 34.2559 39.255C32.8759 39.255 31.6259 38.695 30.7159 37.795L33.2559 35.255H27.2559V41.255L29.3059 39.205C30.5759 40.475 32.3259 41.255 34.2559 41.255C35.8059 41.255 37.2359 40.745 38.3959 39.895L43.2559 44.745L44.7459 43.255L39.8959 38.395Z" fill="#8F8F8F"/>
</svg>
