<svg width="77" height="72" viewBox="0 0 77 72" fill="none" xmlns="http://www.w3.org/2000/svg">
<rect x="0.5" y="0.5" width="76" height="71" rx="4.5" stroke="#7B61FF" stroke-dasharray="10 5"/>
<path d="M38 26H30C28.9 26 28.01 26.9 28.01 28L28 44C28 45.1 28.89 46 29.99 46H42C43.1 46 44 45.1 44 44V32L38 26ZM30 28H37L42 33V41.58L40.16 39.74C41.44 37.8 41.23 35.17 39.52 33.46C38.55 32.49 37.28 32 36 32C34.72 32 33.45 32.49 32.47 33.46C30.52 35.41 30.52 38.57 32.47 40.51C33.44 41.48 34.72 41.97 36 41.97C36.96 41.97 37.92 41.69 38.75 41.14L41.6 44H30V28ZM38.11 39.1C37.55 39.66 36.8 39.98 36 39.98C35.2 39.98 34.45 39.67 33.89 39.1C33.33 38.54 33.01 37.79 33.01 36.99C33.01 36.19 33.32 35.44 33.89 34.88C34.45 34.31 35.2 34 36 34C36.8 34 37.55 34.31 38.11 34.88C38.67 35.44 38.99 36.19 38.99 36.99C38.99 37.79 38.68 38.54 38.11 39.1Z" fill="#8F8F8F"/>
</svg>
