<svg width="72" height="72" viewBox="0 0 72 72" fill="none" xmlns="http://www.w3.org/2000/svg">
<rect x="0.5" y="0.5" width="71" height="71" rx="4.5" stroke="#7B61FF" stroke-dasharray="10 5"/>
<path d="M41.8151 28.47C41.7351 28.47 41.6551 28.45 41.5851 28.41C39.6651 27.42 38.0051 27 36.0151 27C34.0351 27 32.1551 27.47 30.4451 28.41C30.2051 28.54 29.9051 28.45 29.7651 28.21C29.6351 27.97 29.7251 27.66 29.9651 27.53C31.8251 26.52 33.8651 26 36.0151 26C38.1451 26 40.0051 26.47 42.0451 27.52C42.2951 27.65 42.3851 27.95 42.2551 28.19C42.1651 28.37 41.9951 28.47 41.8151 28.47ZM27.5051 33.72C27.4051 33.72 27.3051 33.69 27.2151 33.63C26.9851 33.47 26.9351 33.16 27.0951 32.93C28.0851 31.53 29.3451 30.43 30.8451 29.66C33.9851 28.04 38.0051 28.03 41.1551 29.65C42.6551 30.42 43.9151 31.51 44.9051 32.9C45.0651 33.12 45.0151 33.44 44.7851 33.6C44.5551 33.76 44.2451 33.71 44.0851 33.48C43.1851 32.22 42.0451 31.23 40.6951 30.54C37.8251 29.07 34.1551 29.07 31.2951 30.55C29.9351 31.25 28.7951 32.25 27.8951 33.51C27.8151 33.65 27.6651 33.72 27.5051 33.72ZM33.7551 45.79C33.6251 45.79 33.4951 45.74 33.4051 45.64C32.5351 44.77 32.0651 44.21 31.3951 43C30.7051 41.77 30.3451 40.27 30.3451 38.66C30.3451 35.69 32.8851 33.27 36.0051 33.27C39.1251 33.27 41.6651 35.69 41.6651 38.66C41.6651 38.94 41.4451 39.16 41.1651 39.16C40.8851 39.16 40.6651 38.94 40.6651 38.66C40.6651 36.24 38.5751 34.27 36.0051 34.27C33.4351 34.27 31.3451 36.24 31.3451 38.66C31.3451 40.1 31.6651 41.43 32.2751 42.51C32.9151 43.66 33.3551 44.15 34.1251 44.93C34.3151 45.13 34.3151 45.44 34.1251 45.64C34.0151 45.74 33.8851 45.79 33.7551 45.79ZM40.9251 43.94C39.7351 43.94 38.6851 43.64 37.8251 43.05C36.3351 42.04 35.4451 40.4 35.4451 38.66C35.4451 38.38 35.6651 38.16 35.9451 38.16C36.2251 38.16 36.4451 38.38 36.4451 38.66C36.4451 40.07 37.1651 41.4 38.3851 42.22C39.0951 42.7 39.9251 42.93 40.9251 42.93C41.1651 42.93 41.5651 42.9 41.9651 42.83C42.2351 42.78 42.4951 42.96 42.5451 43.24C42.5951 43.51 42.4151 43.77 42.1351 43.82C41.5651 43.93 41.0651 43.94 40.9251 43.94ZM38.9151 46C38.8751 46 38.8251 45.99 38.7851 45.98C37.1951 45.54 36.1551 44.95 35.0651 43.88C33.6651 42.49 32.8951 40.64 32.8951 38.66C32.8951 37.04 34.2751 35.72 35.9751 35.72C37.6751 35.72 39.0551 37.04 39.0551 38.66C39.0551 39.73 39.9851 40.6 41.1351 40.6C42.2851 40.6 43.2151 39.73 43.2151 38.66C43.2151 34.89 39.9651 31.83 35.9651 31.83C33.1251 31.83 30.5251 33.41 29.3551 35.86C28.9651 36.67 28.7651 37.62 28.7651 38.66C28.7651 39.44 28.8351 40.67 29.4351 42.27C29.5351 42.53 29.4051 42.82 29.1451 42.91C28.8851 43.01 28.5951 42.87 28.5051 42.62C28.0151 41.31 27.7751 40.01 27.7751 38.66C27.7751 37.46 28.0051 36.37 28.4551 35.42C29.7851 32.63 32.7351 30.82 35.9651 30.82C40.5151 30.82 44.2151 34.33 44.2151 38.65C44.2151 40.27 42.8351 41.59 41.1351 41.59C39.4351 41.59 38.0551 40.27 38.0551 38.65C38.0551 37.58 37.1251 36.71 35.9751 36.71C34.8251 36.71 33.8951 37.58 33.8951 38.65C33.8951 40.36 34.5551 41.96 35.7651 43.16C36.7151 44.1 37.6251 44.62 39.0351 45.01C39.3051 45.08 39.4551 45.36 39.3851 45.62C39.3351 45.85 39.1251 46 38.9151 46Z" fill="#8F8F8F"/>
</svg>
