<svg width="73" height="72" viewBox="0 0 73 72" fill="none" xmlns="http://www.w3.org/2000/svg">
<rect x="0.5" y="0.5" width="72" height="71" rx="4.5" stroke="#7B61FF" stroke-dasharray="10 5"/>
<path fill-rule="evenodd" clip-rule="evenodd" d="M38.05 41.58L38.04 41.59L35.64 39.19L36.7 38.13L38.05 39.48L40.54 37L41.6 38.06L38.06 41.6L38.05 41.58ZM36 26C30.5 26 26 30.5 26 36C26 41.5 30.5 46 36 46C41.5 46 46 41.5 46 36C46 30.5 41.5 26 36 26ZM31.34 30.28L32.75 31.69L34.16 30.28L35.22 31.34L33.81 32.75L35.22 34.16L34.16 35.22L32.75 33.81L31.34 35.22L30.28 34.16L31.69 32.75L30.28 31.34L31.34 30.28ZM36 44C33.8 44 31.8 43.1 30.3 41.7L41.7 30.3C43.1 31.8 44 33.8 44 36C44 40.4 40.4 44 36 44Z" fill="#8F8F8F"/>
</svg>
