<svg width="72" height="72" viewBox="0 0 72 72" fill="none" xmlns="http://www.w3.org/2000/svg">
<rect x="0.5" y="0.5" width="71" height="71" rx="4.5" stroke="#7B61FF" stroke-dasharray="10 5"/>
<path d="M31 35H25V37H31V35ZM33.17 31.76L31.05 29.64L29.64 31.05L31.76 33.17L33.17 31.76ZM37 25H35V31H37V25ZM42.36 31.05L40.95 29.64L38.83 31.76L40.24 33.17L42.36 31.05ZM41 35V37H47V35H41ZM36 33C34.34 33 33 34.34 33 36C33 37.66 34.34 39 36 39C37.66 39 39 37.66 39 36C39 34.34 37.66 33 36 33ZM38.83 40.24L40.95 42.36L42.36 40.95L40.24 38.83L38.83 40.24ZM29.64 40.95L31.05 42.36L33.17 40.24L31.76 38.83L29.64 40.95ZM35 47H37V41H35V47Z" fill="#8F8F8F"/>
</svg>
