<svg width="72" height="72" viewBox="0 0 72 72" fill="none" xmlns="http://www.w3.org/2000/svg">
<rect x="0.5" y="0.5" width="71" height="71" rx="4.5" stroke="#7B61FF" stroke-dasharray="10 5"/>
<path d="M42 26H30V32L32 35V46H40V35L42 32V26ZM40 28V29H32V28H40ZM38 34.4V44H34V34.39L32 31.39V31H40V31.39L38 34.4Z" fill="#8F8F8F"/>
<path d="M36 39.5C36.8284 39.5 37.5 38.8284 37.5 38C37.5 37.1716 36.8284 36.5 36 36.5C35.1716 36.5 34.5 37.1716 34.5 38C34.5 38.8284 35.1716 39.5 36 39.5Z" fill="#8F8F8F"/>
</svg>
