<svg width="72" height="72" viewBox="0 0 72 72" fill="none" xmlns="http://www.w3.org/2000/svg">
<rect x="0.5" y="0.5" width="71" height="71" rx="4.5" stroke="#7B61FF" stroke-dasharray="10 5"/>
<path d="M33 36C33 37.66 34.34 39 36 39C37.66 39 39 37.66 39 36C39 34.34 37.66 33 36 33C34.34 33 33 34.34 33 36ZM37 36C37 36.55 36.55 37 36 37C35.45 37 35 36.55 35 36C35 35.45 35.45 35 36 35C36.55 35 37 35.45 37 36Z" fill="#8F8F8F"/>
<path d="M32 34V32H29.09C30.47 29.61 33.05 28 36 28C39.72 28 42.85 30.56 43.74 34H45.8C44.87 29.44 40.84 26 36 26C32.73 26 29.82 27.58 28 30.01V28H26V34H32Z" fill="#8F8F8F"/>
<path d="M40 38V40H42.91C41.53 42.39 38.95 44 36 44C32.28 44 29.15 41.44 28.26 38H26.2C27.13 42.56 31.16 46 36 46C39.27 46 42.18 44.42 44 41.99V44H46V38H40Z" fill="#8F8F8F"/>
</svg>
