<svg width="72" height="72" viewBox="0 0 72 72" fill="none" xmlns="http://www.w3.org/2000/svg">
<rect x="0.5" y="0.5" width="71" height="71" rx="4.5" stroke="#7B61FF" stroke-dasharray="10 5"/>
<path d="M44 29H40.83L39 27H33L31.17 29H28C26.9 29 26 29.9 26 31V43C26 44.1 26.9 45 28 45H44C45.1 45 46 44.1 46 43V31C46 29.9 45.1 29 44 29ZM44 43H28V31H32.05L32.64 30.35L33.88 29H38.12L39.36 30.35L39.95 31H44V43Z" fill="#8F8F8F"/>
<path d="M36 41C33.79 41 32 39.21 32 37H34L31.5 34.5L29 37H31C31 39.76 33.24 42 36 42C36.86 42 37.65 41.76 38.36 41.38L37.62 40.64C37.13 40.87 36.58 41 36 41Z" fill="#8F8F8F"/>
<path d="M36 32C35.14 32 34.35 32.24 33.64 32.62L34.38 33.35C34.87 33.13 35.42 33 36 33C38.21 33 40 34.79 40 37H38L40.5 39.5L43 37H41C41 34.24 38.76 32 36 32Z" fill="#8F8F8F"/>
</svg>
