<svg width="70" height="72" viewBox="0 0 70 72" fill="none" xmlns="http://www.w3.org/2000/svg">
<rect x="0.5" y="0.5" width="69" height="71" rx="4.5" stroke="#7B61FF" stroke-dasharray="10 5"/>
<path d="M33 31H31V33H33V31ZM33 35H31V37H33V35ZM33 27C31.89 27 31 27.9 31 29H33V27ZM37 39H35V41H37V39ZM43 27V29H45C45 27.9 44.1 27 43 27ZM37 27H35V29H37V27ZM33 41V39H31C31 40.1 31.89 41 33 41ZM43 37H45V35H43V37ZM43 33H45V31H43V33ZM43 41C44.1 41 45 40.1 45 39H43V41ZM29 31H27V43C27 44.1 27.89 45 29 45H41V43H29V31ZM39 29H41V27H39V29ZM39 41H41V39H39V41Z" fill="#8F8F8F"/>
</svg>
