<svg width="77" height="72" viewBox="0 0 77 72" fill="none" xmlns="http://www.w3.org/2000/svg">
<rect x="0.5" y="0.5" width="76" height="71" rx="4.5" stroke="#7B61FF" stroke-dasharray="10 5"/>
<path d="M27 37H29V35H27V37ZM27 41H29V39H27V41ZM29 45V43H27C27 44.1 27.89 45 29 45ZM27 33H29V31H27V33ZM39 45H41V43H39V45ZM43 27H33C31.89 27 31 27.9 31 29V39C31 40.1 31.89 41 33 41H43C44.1 41 45 40.1 45 39V29C45 27.9 44.1 27 43 27ZM43 39H33V29H43V39ZM35 45H37V43H35V45ZM31 45H33V43H31V45Z" fill="#8F8F8F"/>
</svg>
