<svg width="72" height="72" viewBox="0 0 72 72" fill="none" xmlns="http://www.w3.org/2000/svg">
<rect x="0.5" y="0.5" width="71" height="71" rx="4.5" stroke="#7B61FF" stroke-dasharray="10 5"/>
<path d="M29.0039 39H43.0039V33H29.0039V39ZM31.0039 35H41.0039V37H31.0039V35Z" fill="#8F8F8F"/>
<path d="M37.0039 26H35.0039V29H37.0039V26Z" fill="#8F8F8F"/>
<path d="M43.08 28.5965L41.2903 30.3989L42.7095 31.8081L44.4992 30.0057L43.08 28.5965Z" fill="#8F8F8F"/>
<path d="M37.0039 43H35.0039V46H37.0039V43Z" fill="#8F8F8F"/>
<path d="M41.2939 41.71L43.0839 43.51L44.5039 42.09L42.7039 40.3L41.2939 41.71Z" fill="#8F8F8F"/>
<path d="M28.9058 28.602L27.4986 30.0091L29.2876 31.7981L30.6947 30.3909L28.9058 28.602Z" fill="#8F8F8F"/>
<path d="M29.2985 40.2865L27.4961 42.0762L28.9053 43.4954L30.7077 41.7057L29.2985 40.2865Z" fill="#8F8F8F"/>
</svg>
