<svg width="70" height="72" viewBox="0 0 70 72" fill="none" xmlns="http://www.w3.org/2000/svg">
<rect x="0.5" y="0.5" width="69" height="71" rx="4.5" stroke="#7B61FF" stroke-dasharray="10 5"/>
<path d="M35.07 35.4546C35.36 35.0646 35.88 34.8946 36.34 35.0846C36.51 35.1546 36.66 35.2646 36.77 35.4146C36.99 35.6946 37.02 36.0046 36.99 36.2646C36.94 36.5946 36.74 36.8946 36.45 37.0546C36.45 37.0546 31.58 40.0046 31.38 39.7446C31.18 39.4846 35.07 35.4546 35.07 35.4546ZM46 33.7546C46 36.2546 45 36.7546 44.5 36.7546C44.27 36.7546 44.06 36.6546 43.88 36.4946C43.4 39.8146 41.52 41.8046 38.55 42.4846C38.66 42.9246 39.03 43.2546 39.5 43.2546H40.08C40.3 43.2546 40.49 43.4046 40.56 43.6146C40.73 44.1346 41.22 44.6346 41.58 44.9346C41.83 45.1446 41.82 45.5246 41.55 45.7146C41.21 45.9546 40.65 46.2046 39.76 46.2446C39.58 46.2546 39.41 46.1746 39.31 46.0246C39.18 45.8246 39 45.4646 39 45.0146C39 44.7146 39.04 44.4446 39.09 44.2146C38.31 44.0546 37.7 43.4346 37.54 42.6546C37.05 42.7146 36.54 42.7546 36 42.7546C35.12 42.7546 34.3 42.6646 33.55 42.5046C33.53 42.5846 33.5 42.6646 33.5 42.7546C33.5 43.3046 33.95 43.7546 34.5 43.7546H35.08C35.3 43.7546 35.49 43.9046 35.56 44.1146C35.73 44.6346 36.22 45.1346 36.58 45.4346C36.83 45.6446 36.82 46.0246 36.55 46.2146C36.21 46.4546 35.65 46.7046 34.76 46.7446C34.58 46.7546 34.41 46.6746 34.31 46.5246C34.18 46.3246 34 45.9646 34 45.5146C34 45.2146 34.04 44.9446 34.09 44.7146C33.19 44.5246 32.5 43.7146 32.5 42.7546C32.5 42.5746 32.53 42.3946 32.58 42.2246C30.12 41.3646 28.55 39.4446 28.12 36.4846C27.94 36.6546 27.74 36.7546 27.5 36.7546C27 36.7546 26 36.2546 26 33.7546C26 31.4846 27.7 29.2546 29 29.2546C29.43 29.2546 29.49 29.7446 29.5 30.1046C30.78 28.3246 32.76 27.0846 35.05 26.8146C35.25 25.8546 36.13 25.2546 37 25.2546V26.2546C37 26.2546 37.33 25.7546 38 25.7546C38.67 25.7546 39 26.2546 39 26.2546C38.51 26.2546 38.15 26.6046 38.04 27.0246C39.86 27.5046 41.43 28.6146 42.5 30.1046C42.51 29.7446 42.57 29.2546 43 29.2546C44.3 29.2546 46 31.4846 46 33.7546ZM29 34.7546C29 35.5646 29.1 36.2846 29.25 36.9646C29.43 36.2746 29.71 35.6346 30.08 35.0446C29.87 34.5746 29.74 34.0546 29.74 33.5046C29.75 31.4346 31.43 29.7546 33.5 29.7546C34.46 29.7546 35.34 30.1246 36 30.7246C36.66 30.1246 37.54 29.7546 38.5 29.7546C40.57 29.7546 42.25 31.4346 42.25 33.5046C42.25 34.0546 42.13 34.5746 41.91 35.0446C42.28 35.6346 42.57 36.2846 42.75 36.9846C42.9 36.3046 43 35.5746 43 34.7546C43 30.8946 39.86 27.7546 36 27.7546C32.14 27.7546 29 30.8946 29 34.7546ZM41.98 39.0446C41.98 38.9446 42 38.8546 42 38.7546C42 37.7446 41.74 36.8046 41.3 35.9746C40.61 36.7546 39.62 37.2546 38.5 37.2546C38.23 37.2546 37.96 37.2246 37.71 37.1646C37.85 36.9346 37.94 36.6746 37.98 36.3946C37.99 36.3246 37.99 36.2646 38 36.2046C38.17 36.2346 38.33 36.2546 38.5 36.2546C40.02 36.2546 41.25 35.0246 41.25 33.5046C41.25 31.9846 40.02 30.7546 38.5 30.7546C37.83 30.7546 37.18 31.0046 36.67 31.4746L36 32.0746L35.33 31.4746C34.82 31.0046 34.17 30.7546 33.5 30.7546C31.98 30.7546 30.75 31.9846 30.75 33.5046C30.75 34.8446 31.71 35.9646 32.98 36.2046L32.22 37.0346C31.62 36.8146 31.1 36.4446 30.69 35.9846C30.26 36.8146 30 37.7546 30 38.7546C30 38.8346 30.01 38.9046 30.01 38.9946C31.13 40.8146 33.14 41.7546 36 41.7546C38.88 41.7546 40.88 40.8446 41.98 39.0446ZM40 33.5046C40 34.4746 39.33 35.2546 38.5 35.2546C37.67 35.2546 37 34.4746 37 33.5046C37 32.5346 37.67 31.7546 38.5 31.7546C39.33 31.7546 40 32.5346 40 33.5046ZM39.25 32.6346C39.25 32.4246 39.08 32.2546 38.87 32.2546C38.66 32.2546 38.5 32.4246 38.5 32.6346C38.5 32.8446 38.67 33.0146 38.88 33.0146C39.09 33.0146 39.25 32.8346 39.25 32.6346ZM35 33.5046C35 34.4746 34.33 35.2546 33.5 35.2546C32.67 35.2546 32 34.4746 32 33.5046C32 32.5346 32.67 31.7546 33.5 31.7546C34.33 31.7546 35 32.5346 35 33.5046ZM34.25 32.6346C34.25 32.4246 34.08 32.2546 33.87 32.2546C33.66 32.2546 33.5 32.4246 33.5 32.6346C33.5 32.8446 33.67 33.0146 33.88 33.0146C34.09 33.0146 34.25 32.8346 34.25 32.6346Z" fill="#8F8F8F"/>
</svg>
