<svg width="71" height="72" viewBox="0 0 71 72" fill="none" xmlns="http://www.w3.org/2000/svg">
<rect x="0.5" y="0.5" width="70" height="71" rx="4.5" stroke="#7B61FF" stroke-dasharray="10 5"/>
<path d="M36 26C31.8 26 28 29.22 28 34.2C28 37.52 30.67 41.45 36 46C41.33 41.45 44 37.52 44 34.2C44 29.22 40.2 26 36 26ZM36 43.33C31.95 39.63 30 36.54 30 34.19C30 30.57 32.65 28 36 28C39.35 28 42 30.57 42 34.2C42 36.54 40.05 39.64 36 43.33Z" fill="#8F8F8F"/>
<path d="M37 30H35V35H37V30Z" fill="#8F8F8F"/>
<path d="M37 37H35V39H37V37Z" fill="#8F8F8F"/>
</svg>
