<svg width="73" height="72" viewBox="0 0 73 72" fill="none" xmlns="http://www.w3.org/2000/svg">
<rect x="0.5" y="0.5" width="72" height="71" rx="4.5" stroke="#7B61FF" stroke-dasharray="10 5"/>
<path d="M36 36C34.9 36 34 35.1 34 34C34 32.9 34.9 32 36 32C37.1 32 38 32.9 38 34C38 35.1 37.1 36 36 36ZM42 34.2C42 30.57 39.35 28 36 28C32.65 28 30 30.57 30 34.2C30 36.54 31.95 39.64 36 43.34C40.05 39.64 42 36.54 42 34.2ZM36 26C40.2 26 44 29.22 44 34.2C44 37.52 41.33 41.45 36 46C30.67 41.45 28 37.52 28 34.2C28 29.22 31.8 26 36 26Z" fill="#8F8F8F"/>
</svg>
