<svg width="72" height="72" viewBox="0 0 72 72" fill="none" xmlns="http://www.w3.org/2000/svg">
<rect x="0.5" y="0.5" width="71" height="71" rx="4.5" stroke="#7B61FF" stroke-dasharray="10 5"/>
<path d="M44.6537 29.295H36.6537L34.6537 27.295H31.8238L35.8237 31.295H44.6537V40.465L46.4137 42.225C46.5637 41.945 46.6537 41.635 46.6537 41.295V31.295C46.6537 30.195 45.7537 29.295 44.6537 29.295Z" fill="#8F8F8F"/>
<path d="M26.7537 25.395L25.3438 26.805L26.9037 28.365C26.7537 28.645 26.6637 28.955 26.6637 29.295L26.6537 41.295C26.6537 42.395 27.5537 43.295 28.6537 43.295H41.8237L45.1337 46.605L46.5437 45.195L26.7537 25.395ZM28.6537 41.295V30.125L39.8238 41.295H28.6537Z" fill="#8F8F8F"/>
</svg>
