<svg width="73" height="72" viewBox="0 0 73 72" fill="none" xmlns="http://www.w3.org/2000/svg">
<rect x="0.5" y="0.5" width="72" height="71" rx="4.5" stroke="#7B61FF" stroke-dasharray="10 5"/>
<path d="M44 30H36L34 28H28C26.9 28 26.01 28.9 26.01 30L26 42C26 43.1 26.9 44 28 44H44C45.1 44 46 43.1 46 42V32C46 30.9 45.1 30 44 30ZM44 42H28V30H33.17L35.17 32H44V42ZM39 37C40.1 37 41 36.1 41 35C41 33.9 40.1 33 39 33C37.9 33 37 33.9 37 35C37 36.1 37.9 37 39 37ZM35 41H43V40C43 38.67 40.33 38 39 38C37.67 38 35 38.67 35 40V41Z" fill="#8F8F8F"/>
</svg>
