<svg width="72" height="72" viewBox="0 0 72 72" fill="none" xmlns="http://www.w3.org/2000/svg">
<rect x="0.5" y="0.5" width="71" height="71" rx="4.5" stroke="#7B61FF" stroke-dasharray="10 5"/>
<path d="M40.5 34V33H38.5V34H36V35.5H37V39.5C37 40.33 37.67 41 38.5 41H40.5C41.33 41 42 40.33 42 39.5V35.5H43V34H40.5ZM40.5 39.5H38.5V35.5H40.5V39.5ZM44 30H36L34 28H28C26.89 28 26.01 28.89 26.01 30L26 42C26 43.11 26.89 44 28 44H44C45.11 44 46 43.11 46 42V32C46 30.89 45.11 30 44 30ZM44 42H28V30H33.17L35.17 32H44V42Z" fill="#8F8F8F"/>
</svg>
