<svg width="75" height="72" viewBox="0 0 75 72" fill="none" xmlns="http://www.w3.org/2000/svg">
<rect x="0.5" y="0.5" width="74" height="71" rx="4.5" stroke="#7B61FF" stroke-dasharray="10 5"/>
<path d="M29.4857 25.345H44.6557C45.7557 25.345 46.6557 26.245 46.6557 27.345V42.515L44.6557 40.515V27.345H31.4857L29.4857 25.345ZM35.5757 29.345L35.0057 30.865L36.3657 32.225L36.5957 31.565H36.6957L37.2357 33.085L40.2757 36.125L37.7257 29.345H35.5757ZM45.1457 46.655L43.8257 45.345H28.6557C27.5557 45.345 26.6557 44.445 26.6557 43.345V28.175L25.3457 26.855L26.7557 25.445L46.5557 45.245L45.1457 46.655ZM41.8257 43.345L36.7557 38.275H34.2357L33.1457 41.345H31.0657L33.4557 34.975L28.6557 30.175V43.345H41.8257Z" fill="#8F8F8F"/>
</svg>
