<svg width="72" height="72" viewBox="0 0 72 72" fill="none" xmlns="http://www.w3.org/2000/svg">
<g clip-path="url(#clip0_256_17352)">
<path d="M39 28V35H29.17L28 36.17V28H39ZM40 26H27C26.45 26 26 26.45 26 27V41L30 37H40C40.55 37 41 36.55 41 36V27C41 26.45 40.55 26 40 26ZM45 30H43V39H30V41C30 41.55 30.45 42 31 42H42L46 46V31C46 30.45 45.55 30 45 30Z" fill="#8F8F8F"/>
</g>
<rect x="0.5" y="0.5" width="71" height="71" rx="4.5" stroke="#7B61FF" stroke-dasharray="10 5"/>
<defs>
<clipPath id="clip0_256_17352">
<rect width="72" height="72" rx="5" fill="white"/>
</clipPath>
</defs>
</svg>
