<svg width="71" height="72" viewBox="0 0 71 72" fill="none" xmlns="http://www.w3.org/2000/svg">
<rect x="0.5" y="0.5" width="70" height="71" rx="4.5" stroke="#7B61FF" stroke-dasharray="10 5"/>
<path d="M42 38C42 41.31 39.31 44 36 44C32.69 44 30 41.31 30 38C30 34.69 32.69 32 36 32V36L41 31L36 26V30C31.58 30 28 33.58 28 38C28 42.42 31.58 46 36 46C40.42 46 44 42.42 44 38H42ZM34.54 40.22C34.48 40.27 34.42 40.31 34.34 40.34C34.26 40.37 34.17 40.38 34.07 40.38C33.98 40.38 33.9 40.37 33.82 40.34C33.74 40.31 33.68 40.28 33.62 40.23C33.56 40.18 33.52 40.13 33.49 40.06C33.46 39.99 33.44 39.92 33.44 39.84H32.59C32.59 40.05 32.63 40.23 32.71 40.39C32.79 40.55 32.9 40.67 33.04 40.77C33.18 40.87 33.33 40.95 33.5 41C33.67 41.05 33.85 41.07 34.03 41.07C34.24 41.07 34.44 41.04 34.63 40.99C34.82 40.94 34.97 40.85 35.11 40.75C35.25 40.65 35.35 40.51 35.43 40.36C35.51 40.21 35.55 40.03 35.55 39.83C35.55 39.6 35.49 39.39 35.37 39.22C35.25 39.05 35.07 38.92 34.83 38.83C34.93 38.78 35.03 38.73 35.11 38.66C35.19 38.59 35.26 38.52 35.31 38.44C35.36 38.36 35.41 38.28 35.44 38.19C35.47 38.1 35.48 38.01 35.48 37.92C35.48 37.72 35.44 37.55 35.37 37.39C35.3 37.23 35.2 37.11 35.07 37.01C34.94 36.91 34.79 36.83 34.61 36.78C34.43 36.73 34.24 36.7 34.02 36.7C33.83 36.7 33.64 36.73 33.48 36.78C33.32 36.83 33.16 36.91 33.04 37.01C32.92 37.11 32.81 37.23 32.74 37.38C32.67 37.53 32.63 37.68 32.63 37.86H33.48C33.48 37.79 33.5 37.72 33.53 37.66C33.56 37.6 33.6 37.55 33.65 37.51C33.7 37.47 33.76 37.44 33.83 37.41C33.9 37.38 33.97 37.38 34.05 37.38C34.15 37.38 34.23 37.39 34.3 37.42C34.37 37.45 34.43 37.48 34.48 37.53C34.53 37.58 34.56 37.64 34.59 37.7C34.62 37.76 34.63 37.84 34.63 37.92C34.63 38.1 34.58 38.24 34.47 38.35C34.36 38.46 34.21 38.51 33.99 38.51H33.56V39.17H34.01C34.12 39.17 34.21 39.18 34.3 39.21C34.39 39.24 34.46 39.27 34.52 39.32C34.58 39.37 34.63 39.44 34.66 39.52C34.69 39.6 34.71 39.7 34.71 39.81C34.71 39.9 34.7 39.98 34.67 40.05C34.64 40.12 34.59 40.16 34.54 40.22ZM38.44 36.78C38.26 36.71 38.07 36.68 37.85 36.68C37.63 36.68 37.44 36.71 37.26 36.78C37.08 36.85 36.93 36.96 36.81 37.11C36.69 37.26 36.58 37.45 36.52 37.68C36.46 37.91 36.42 38.18 36.42 38.5V39.24C36.42 39.56 36.46 39.84 36.53 40.06C36.6 40.28 36.7 40.48 36.83 40.63C36.96 40.78 37.11 40.89 37.29 40.96C37.47 41.03 37.66 41.06 37.88 41.06C38.1 41.06 38.29 41.03 38.47 40.96C38.65 40.89 38.8 40.78 38.92 40.63C39.04 40.48 39.14 40.29 39.21 40.06C39.28 39.83 39.31 39.56 39.31 39.24V38.5C39.31 38.18 39.27 37.9 39.2 37.68C39.13 37.46 39.03 37.26 38.9 37.11C38.77 36.96 38.62 36.85 38.44 36.78ZM38.45 39.35C38.45 39.54 38.44 39.7 38.41 39.83C38.38 39.96 38.35 40.07 38.3 40.15C38.25 40.23 38.19 40.29 38.11 40.32C38.03 40.35 37.95 40.37 37.86 40.37C37.77 40.37 37.68 40.35 37.61 40.32C37.54 40.29 37.47 40.23 37.42 40.15C37.37 40.07 37.33 39.96 37.3 39.83C37.27 39.7 37.26 39.54 37.26 39.35V38.38C37.26 38.19 37.27 38.03 37.3 37.9C37.33 37.77 37.36 37.67 37.42 37.59C37.48 37.51 37.53 37.45 37.61 37.42C37.69 37.39 37.77 37.37 37.86 37.37C37.95 37.37 38.04 37.39 38.11 37.42C38.18 37.45 38.25 37.51 38.3 37.59C38.35 37.67 38.39 37.77 38.42 37.9C38.45 38.03 38.46 38.19 38.46 38.38V39.35H38.45Z" fill="#8F8F8F"/>
</svg>
