<svg width="72" height="72" viewBox="0 0 72 72" fill="none" xmlns="http://www.w3.org/2000/svg">
<g clip-path="url(#clip0_256_16958)">
<path d="M42 38C42 41.31 39.31 44 36 44C32.69 44 30 41.31 30 38C30 34.69 32.69 32 36 32V36L41 31L36 26V30C31.58 30 28 33.58 28 38C28 42.42 31.58 46 36 46C40.42 46 44 42.42 44 38H42Z" fill="#8F8F8F"/>
<path d="M34.9 41V36.73H34.81L33.04 37.36V38.05L34.05 37.74V41H34.9Z" fill="#8F8F8F"/>
<path d="M38.32 36.78C38.14 36.71 37.95 36.68 37.73 36.68C37.51 36.68 37.32 36.71 37.14 36.78C36.96 36.85 36.81 36.96 36.69 37.11C36.57 37.26 36.46 37.45 36.4 37.68C36.34 37.91 36.3 38.18 36.3 38.5V39.24C36.3 39.56 36.34 39.84 36.41 40.06C36.48 40.28 36.58 40.48 36.71 40.63C36.84 40.78 36.99 40.89 37.17 40.96C37.35 41.03 37.54 41.06 37.76 41.06C37.98 41.06 38.17 41.03 38.35 40.96C38.53 40.89 38.68 40.78 38.8 40.63C38.92 40.48 39.02 40.29 39.09 40.06C39.16 39.83 39.19 39.56 39.19 39.24V38.5C39.19 38.18 39.15 37.9 39.08 37.68C39.01 37.46 38.91 37.26 38.78 37.11C38.65 36.96 38.49 36.85 38.32 36.78ZM38.33 39.35C38.33 39.54 38.32 39.7 38.29 39.83C38.26 39.96 38.23 40.07 38.18 40.15C38.13 40.23 38.07 40.29 37.99 40.32C37.91 40.35 37.83 40.37 37.74 40.37C37.65 40.37 37.56 40.35 37.49 40.32C37.42 40.29 37.35 40.23 37.3 40.15C37.25 40.07 37.21 39.96 37.18 39.83C37.15 39.7 37.14 39.54 37.14 39.35V38.38C37.14 38.19 37.15 38.03 37.18 37.9C37.21 37.77 37.24 37.67 37.3 37.59C37.36 37.51 37.41 37.45 37.49 37.42C37.57 37.39 37.65 37.37 37.74 37.37C37.83 37.37 37.92 37.39 37.99 37.42C38.06 37.45 38.13 37.51 38.18 37.59C38.23 37.67 38.27 37.77 38.3 37.9C38.33 38.03 38.34 38.19 38.34 38.38V39.35H38.33Z" fill="#8F8F8F"/>
</g>
<rect x="0.5" y="0.5" width="71" height="71" rx="4.5" stroke="#7B61FF" stroke-dasharray="10 5"/>
<defs>
<clipPath id="clip0_256_16958">
<rect width="72" height="72" rx="5" fill="white"/>
</clipPath>
</defs>
</svg>
