<svg width="72" height="72" viewBox="0 0 72 72" fill="none" xmlns="http://www.w3.org/2000/svg">
<rect x="0.5" y="0.5" width="71" height="71" rx="4.5" stroke="#7B61FF" stroke-dasharray="10 5"/>
<path d="M34.6202 43.75H28.4102V33.75H42.4102V38.13L44.4102 36.13V29.75C44.4102 28.65 43.5102 27.75 42.4102 27.75H41.4102V25.75H39.4102V27.75H31.4102V25.75H29.4102V27.75H28.4102C27.3002 27.75 26.4202 28.65 26.4202 29.75L26.4102 43.75C26.4102 44.85 27.3002 45.75 28.4102 45.75H36.6202L34.6202 43.75ZM28.4102 29.75H42.4102V31.75H28.4102V29.75ZM39.9502 46.25L36.4102 42.71L37.8202 41.3L39.9402 43.42L44.1802 39.18L45.5902 40.59L39.9502 46.25ZM33.8202 37.75L35.4102 39.34L34.0002 40.75L32.4102 39.16L30.8202 40.75L29.4102 39.34L31.0002 37.75L29.4102 36.16L30.8202 34.75L32.4102 36.34L34.0002 34.75L35.4102 36.16L33.8202 37.75Z" fill="#8F8F8F"/>
</svg>
