<svg width="72" height="72" viewBox="0 0 72 72" fill="none" xmlns="http://www.w3.org/2000/svg">
<rect x="0.5" y="0.5" width="71" height="71" rx="4.5" stroke="#7B61FF" stroke-dasharray="10 5"/>
<path d="M44 29H34.88L34 26H28C26.9 26 26 26.9 26 28V41C26 42.1 26.9 43 28 43H35L36 46H44C45.1 46 46 45.1 46 44V31C46 29.9 45.1 29 44 29ZM31.17 38.59C28.92 38.59 27.08 36.76 27.08 34.5C27.08 32.24 28.91 30.41 31.17 30.41C32.21 30.41 33.16 30.78 33.91 31.48L33.98 31.54L32.75 32.72L32.69 32.67C32.4 32.4 31.91 32.08 31.17 32.08C29.86 32.08 28.79 33.17 28.79 34.5C28.79 35.83 29.86 36.92 31.17 36.92C32.54 36.92 33.13 36.05 33.29 35.46H31.08V33.91H35.03L35.04 33.98C35.08 34.19 35.09 34.38 35.09 34.59C35.09 36.94 33.48 38.59 31.17 38.59ZM37.2 36.88C37.53 37.48 37.94 38.06 38.39 38.58L37.85 39.11L37.2 36.88ZM37.97 36.12H36.98L36.67 35.08H40.66C40.66 35.08 40.32 36.39 39.1 37.82C38.58 37.2 38.21 36.59 37.97 36.12ZM45 44C45 44.55 44.55 45 44 45H37L39 43L38.19 40.23L39.11 39.31L41.79 42L42.52 41.27L39.81 38.59C40.71 37.56 41.41 36.34 41.73 35.08H43V34.04H39.36V33H38.32V34.04H36.36L35.18 30H44C44.55 30 45 30.45 45 31V44Z" fill="#8F8F8F"/>
</svg>
