<svg width="73" height="72" viewBox="0 0 73 72" fill="none" xmlns="http://www.w3.org/2000/svg">
<rect x="0.5" y="0.5" width="72" height="71" rx="4.5" stroke="#7B61FF" stroke-dasharray="10 5"/>
<path d="M37 28V30.67L36 31.67L35 30.67V28H37ZM44 35V37H41.33L40.33 36L41.33 35H44ZM30.67 35L31.67 36L30.67 37H28V35H30.67ZM36 40.33L37 41.33V44H35V41.33L36 40.33ZM39 26H33V31.5L36 34.5L39 31.5V26ZM46 33H40.5L37.5 36L40.5 39H46V33ZM31.5 33H26V39H31.5L34.5 36L31.5 33ZM36 37.5L33 40.5V46H39V40.5L36 37.5Z" fill="#8F8F8F"/>
</svg>
