<svg width="72" height="72" viewBox="0 0 72 72" fill="none" xmlns="http://www.w3.org/2000/svg">
<rect x="0.5" y="0.5" width="71" height="71" rx="4.5" stroke="#7B61FF" stroke-dasharray="10 5"/>
<path d="M40 28H39V26H37V28H35V26H33V28H32C29.79 28 28 29.79 28 32V42C28 44.21 29.79 46 32 46H40C42.21 46 44 44.21 44 42V32C44 29.79 42.21 28 40 28ZM42 42C42 43.1 41.1 44 40 44H32C30.9 44 30 43.1 30 42V32C30 30.9 30.9 30 32 30H40C41.1 30 42 30.9 42 32V42Z" fill="#8F8F8F"/>
<path d="M33.5 39.54C33.5 40.9 34.62 42 36 42C37.38 42 38.5 40.9 38.5 39.54C38.5 38.45 38.05 38.13 36 35.75C33.93 38.15 33.5 38.46 33.5 39.54Z" fill="#8F8F8F"/>
<path d="M40 32H32V34H40V32Z" fill="#8F8F8F"/>
</svg>
