<svg width="72" height="72" viewBox="0 0 72 72" fill="none" xmlns="http://www.w3.org/2000/svg">
<rect x="0.5" y="0.5" width="71" height="71" rx="4.5" stroke="#7B61FF" stroke-dasharray="10 5"/>
<path d="M33 28C28.58 28 25 31.58 25 36C25 40.42 28.58 44 33 44C37.42 44 41 40.42 41 36C41 31.58 37.42 28 33 28ZM33 42C29.69 42 27 39.31 27 36C27 32.69 29.69 30 33 30C36.31 30 39 32.69 39 36C39 39.31 36.31 42 33 42ZM36 34.5H34V39.5H32V34.5H30V33H36V34.5ZM44.25 27.75L47 29L44.25 30.25L43 33L41.75 30.25L39 29L41.75 27.75L43 25L44.25 27.75ZM44.25 41.75L47 43L44.25 44.25L43 47L41.75 44.25L39 43L41.75 41.75L43 39L44.25 41.75Z" fill="#8F8F8F"/>
</svg>
