<svg width="74" height="72" viewBox="0 0 74 72" fill="none" xmlns="http://www.w3.org/2000/svg">
<rect x="0.5" y="0.5" width="73" height="71" rx="4.5" stroke="#7B61FF" stroke-dasharray="10 5"/>
<path d="M28.6699 30.9C29.3699 30.19 30.0699 29.55 30.3799 29.68C30.8799 29.88 30.3799 30.71 30.0799 31.2C29.8299 31.62 27.2199 35.09 27.2199 37.51C27.2199 38.79 27.6999 39.85 28.5599 40.49C29.3099 41.05 30.2999 41.22 31.1999 40.95C32.2699 40.64 33.1499 39.55 34.2599 38.18C35.4699 36.69 37.0899 34.74 38.3399 34.74C39.9699 34.74 39.9899 35.75 40.0999 36.53C36.3199 37.17 34.7199 40.2 34.7199 41.9C34.7199 43.6 36.1599 44.99 37.9299 44.99C39.5599 44.99 42.2199 43.66 42.6199 38.89H45.0799V36.39H42.6099C42.4599 34.74 41.5199 32.19 38.5799 32.19C36.3299 32.19 34.3999 34.1 33.6399 35.03C33.0599 35.76 31.5799 37.51 31.3499 37.75C31.0999 38.05 30.6699 38.59 30.2399 38.59C29.7899 38.59 29.5199 37.76 29.8799 36.67C30.2299 35.58 31.2799 33.81 31.7299 33.15C32.5099 32.01 33.0299 31.23 33.0299 29.87C33.0299 27.7 31.3899 27.01 30.5199 27.01C29.1999 27.01 28.0499 28.01 27.7999 28.26C27.4399 28.62 27.1399 28.92 26.9199 29.19L28.6699 30.9ZM37.9599 42.56C37.6499 42.56 37.2199 42.3 37.2199 41.84C37.2199 41.24 37.9499 39.64 40.0899 39.08C39.7899 41.77 38.6599 42.56 37.9599 42.56Z" fill="#8F8F8F"/>
</svg>
