<svg width="77" height="72" viewBox="0 0 77 72" fill="none" xmlns="http://www.w3.org/2000/svg">
<rect x="0.5" y="0.5" width="76" height="71" rx="4.5" stroke="#7B61FF" stroke-dasharray="10 5"/>
<path d="M43 43H29V29H43V43ZM29 27C27.9 27 27 27.9 27 29V43C27 44.1 27.9 45 29 45H43C44.1 45 45 44.1 45 43V29C45 27.9 44.1 27 43 27H29ZM35.5 38H36.5V34H35.5V38ZM37.5 38H38.5V36.5H40V35.5H38.5V35H40.5V34H37.5V38ZM33.5 36V37H32.5V35H34.5C34.5 34.45 34.05 34 33.5 34H32.5C31.95 34 31.5 34.45 31.5 35V37C31.5 37.55 31.95 38 32.5 38H33.5C34.05 38 34.5 37.55 34.5 37V36H33.5Z" fill="#8F8F8F"/>
</svg>
