<svg width="73" height="72" viewBox="0 0 73 72" fill="none" xmlns="http://www.w3.org/2000/svg">
<rect x="0.5" y="0.5" width="72" height="71" rx="4.5" stroke="#7B61FF" stroke-dasharray="10 5"/>
<path d="M36 26L28 29V35.09C28 40.14 31.41 44.85 36 46C40.59 44.85 44 40.14 44 35.09V29L36 26ZM42 35.09C42 39.09 39.45 42.79 36 43.92C32.55 42.79 30 39.1 30 35.09V30.39L36 28.14L42 30.39V35.09ZM33.91 32.5L32.5 33.91L34.59 36L32.5 38.09L33.91 39.5L36 37.42L38.09 39.5L39.5 38.09L37.42 36L39.5 33.91L38.09 32.5L36 34.59L33.91 32.5Z" fill="#8F8F8F"/>
</svg>
