<svg width="71" height="72" viewBox="0 0 71 72" fill="none" xmlns="http://www.w3.org/2000/svg">
<rect x="0.5" y="0.5" width="70" height="71" rx="4.5" stroke="#7B61FF" stroke-dasharray="10 5"/>
<path d="M44.94 35C44.48 30.83 41.17 27.52 37 27.06V25H35V27.06C34.02 27.17 33.09 27.44 32.23 27.84L33.76 29.37C34.46 29.13 35.22 29 36 29C39.87 29 43 32.13 43 36C43 36.79 42.87 37.54 42.63 38.24L44.16 39.77C44.56 38.91 44.83 37.98 44.94 37H47V35H44.94ZM27 28.27L29.04 30.31C27.97 31.62 27.26 33.23 27.06 35H25V37H27.06C27.52 41.17 30.83 44.48 35 44.94V47H37V44.94C38.77 44.74 40.38 44.03 41.69 42.96L43.73 45L45.14 43.59L28.41 26.86L27 28.27ZM40.27 41.54C39.09 42.45 37.61 43 36 43C32.13 43 29 39.87 29 36C29 34.39 29.55 32.91 30.46 31.73L40.27 41.54Z" fill="#8F8F8F"/>
</svg>
