<svg width="70" height="72" viewBox="0 0 70 72" fill="none" xmlns="http://www.w3.org/2000/svg">
<rect x="0.5" y="0.5" width="69" height="71" rx="4.5" stroke="#7B61FF" stroke-dasharray="10 5"/>
<path d="M36 31.63L37.44 35.03L38.64 35.13L41.11 35.34L38.32 37.76L38.59 38.94L39.15 41.35L37.03 40.07L36 39.43L34.97 40.05L32.85 41.33L33.41 38.92L33.68 37.74L30.89 35.32L33.36 35.11L34.56 35.01L35.03 33.9L36 31.63ZM36 26.5L33.19 33.13L26 33.74L31.46 38.47L29.82 45.5L36 41.77L42.18 45.5L40.54 38.47L46 33.74L38.81 33.13L36 26.5Z" fill="#8F8F8F"/>
</svg>
