<svg width="72" height="72" viewBox="0 0 72 72" fill="none" xmlns="http://www.w3.org/2000/svg">
<rect x="0.5" y="0.5" width="71" height="71" rx="4.5" stroke="#7B61FF" stroke-dasharray="10 5"/>
<path d="M35 33H37V35H35V33ZM33 35H35V37H33V35ZM37 35H39V37H37V35ZM39 33H41V35H39V33ZM31 33H33V35H31V33ZM43 27H29C27.9 27 27 27.9 27 29V43C27 44.1 27.9 45 29 45H43C44.1 45 45 44.1 45 43V29C45 27.9 44.1 27 43 27ZM33 42H31V40H33V42ZM37 42H35V40H37V42ZM41 42H39V40H41V42ZM43 35H41V37H43V39H41V37H39V39H37V37H35V39H33V37H31V39H29V37H31V35H29V29H43V35Z" fill="#8F8F8F"/>
</svg>
