<svg width="72" height="72" viewBox="0 0 72 72" fill="none" xmlns="http://www.w3.org/2000/svg">
<rect x="0.5" y="0.5" width="71" height="71" rx="4.5" stroke="#7B61FF" stroke-dasharray="10 5"/>
<path d="M34 36C32.9 36 32 36.9 32 38C32 39.1 32.9 40 34 40C35.1 40 36 39.1 36 38C36 36.9 35.1 36 34 36ZM30 32C28.9 32 28 32.9 28 34C28 35.1 28.9 36 30 36C31.1 36 32 35.1 32 34C32 32.9 31.1 32 30 32ZM30 40C28.9 40 28 40.9 28 42C28 43.1 28.9 44 30 44C31.1 44 32 43.1 32 42C32 40.9 31.1 40 30 40ZM42 32C43.1 32 44 31.1 44 30C44 28.9 43.1 28 42 28C40.9 28 40 28.9 40 30C40 31.1 40.9 32 42 32ZM38 40C36.9 40 36 40.9 36 42C36 43.1 36.9 44 38 44C39.1 44 40 43.1 40 42C40 40.9 39.1 40 38 40ZM42 36C40.9 36 40 36.9 40 38C40 39.1 40.9 40 42 40C43.1 40 44 39.1 44 38C44 36.9 43.1 36 42 36ZM38 32C36.9 32 36 32.9 36 34C36 35.1 36.9 36 38 36C39.1 36 40 35.1 40 34C40 32.9 39.1 32 38 32ZM34 28C32.9 28 32 28.9 32 30C32 31.1 32.9 32 34 32C35.1 32 36 31.1 36 30C36 28.9 35.1 28 34 28Z" fill="#8F8F8F"/>
</svg>
