<svg width="72" height="72" viewBox="0 0 72 72" fill="none" xmlns="http://www.w3.org/2000/svg">
<rect x="0.5" y="0.5" width="71" height="71" rx="4.5" stroke="#7B61FF" stroke-dasharray="10 5"/>
<g clip-path="url(#clip0_256_21938)">
<path d="M32.5664 27.4249V28.3149L34.5664 30.3149V27.4249H38.5664V31.4249H35.6764L37.6764 33.4249H38.5664V34.3149L40.5664 36.3149V33.4249H44.5664V37.4249H41.6764L43.6764 39.4249H44.5664V40.3149L46.5664 42.3149V27.4249C46.5664 26.3249 45.6664 25.4249 44.5664 25.4249H29.6764L31.6764 27.4249H32.5664ZM40.5664 27.4249H44.5664V31.4249H40.5664V27.4249ZM25.9764 24.5649L24.5664 25.9749L26.5664 27.9749V43.4249C26.5664 44.5249 27.4664 45.4249 28.5664 45.4249H44.0164L46.0264 47.4349L47.4364 46.0249L25.9764 24.5649ZM34.5664 35.9749L36.0164 37.4249H34.5664V35.9749ZM28.5664 29.9749L30.0164 31.4249H28.5664V29.9749ZM32.5664 43.4249H28.5664V39.4249H32.5664V43.4249ZM32.5664 37.4249H28.5664V33.4249H32.0164L32.5664 33.9749V37.4249ZM38.5664 43.4249H34.5664V39.4249H38.0164L38.5664 39.9749V43.4249ZM40.5664 43.4249V41.9749L42.0164 43.4249H40.5664Z" fill="#8F8F8F"/>
</g>
<defs>
<clipPath id="clip0_256_21938">
<rect width="24" height="24" fill="white" transform="translate(24 24)"/>
</clipPath>
</defs>
</svg>
