<svg width="72" height="72" viewBox="0 0 72 72" fill="none" xmlns="http://www.w3.org/2000/svg">
<rect x="0.5" y="0.5" width="71" height="71" rx="4.5" stroke="#7B61FF" stroke-dasharray="10 5"/>
<path d="M44 26H28C26.9 26 26 26.9 26 28V44C26 45.1 26.9 46 28 46H44C45.1 46 46 45.1 46 44V28C46 26.9 45.1 26 44 26ZM32 44H28V40H32V44ZM32 38H28V34H32V38ZM32 32H28V28H32V32ZM38 44H34V40H38V44ZM38 38H34V34H38V38ZM38 32H34V28H38V32ZM44 44H40V40H44V44ZM44 38H40V34H44V38ZM44 32H40V28H44V32Z" fill="#8F8F8F"/>
</svg>
