<svg width="72" height="72" viewBox="0 0 72 72" fill="none" xmlns="http://www.w3.org/2000/svg">
<rect x="0.5" y="0.5" width="71" height="71" rx="4.5" stroke="#7B61FF" stroke-dasharray="10 5"/>
<path d="M36 26C30.48 26 26 30.48 26 36C26 41.52 30.48 46 36 46C41.52 46 46 41.52 46 36C46 30.48 41.52 26 36 26ZM36 44C31.59 44 28 40.41 28 36C28 31.59 31.59 28 36 28C40.41 28 44 31.59 44 36C44 40.41 40.41 44 36 44Z" fill="#8F8F8F"/>
<path d="M32 40C33.1046 40 34 39.1046 34 38C34 36.8954 33.1046 36 32 36C30.8954 36 30 36.8954 30 38C30 39.1046 30.8954 40 32 40Z" fill="#8F8F8F"/>
<path d="M36 34C37.1046 34 38 33.1046 38 32C38 30.8954 37.1046 30 36 30C34.8954 30 34 30.8954 34 32C34 33.1046 34.8954 34 36 34Z" fill="#8F8F8F"/>
<path d="M40 40C41.1046 40 42 39.1046 42 38C42 36.8954 41.1046 36 40 36C38.8954 36 38 36.8954 38 38C38 39.1046 38.8954 40 40 40Z" fill="#8F8F8F"/>
</svg>
