<svg width="75" height="72" viewBox="0 0 75 72" fill="none" xmlns="http://www.w3.org/2000/svg">
<rect x="0.5" y="0.5" width="74" height="71" rx="4.5" stroke="#7B61FF" stroke-dasharray="10 5"/>
<path d="M43 27H29C27.89 27 27 27.9 27 29V43C27 44.1 27.89 45 29 45H43C44.1 45 45 44.1 45 43V29C45 27.9 44.1 27 43 27ZM43 43H29V29H43V43ZM31.5 37H33.5V39H35V33H33.5V35.5H31.5V33H30V39H31.5V37ZM42 38V34C42 33.45 41.55 33 41 33H37V39H41C41.55 39 42 38.55 42 38ZM40.5 37.5H38.5V34.5H40.5V37.5Z" fill="#8F8F8F"/>
</svg>
