<svg width="72" height="72" viewBox="0 0 72 72" fill="none" xmlns="http://www.w3.org/2000/svg">
<rect x="0.5" y="0.5" width="71" height="71" rx="4.5" stroke="#7B61FF" stroke-dasharray="10 5"/>
<path d="M41.9953 38.4548V36.4548H43.0953L43.9953 38.4548H45.4953L44.5953 36.3548C45.0953 36.0548 45.4953 35.5548 45.4953 34.9548V33.9548C45.4953 33.1548 44.7953 32.4548 43.9953 32.4548H40.4953V37.3148L41.6353 38.4548H41.9953ZM41.9953 33.9548H43.9953V34.9548H41.9953V33.9548ZM37.4953 33.9548V34.3148L38.9953 35.8148V33.9548C38.9953 33.1548 38.2953 32.4548 37.4953 32.4548H35.6353L37.1353 33.9548H37.4953ZM27.0053 25.9448L25.9453 27.0048L31.3953 32.4548H30.9953V34.4548H28.9953V32.4548H27.4953V38.4548H28.9953V35.9548H30.9953V38.4548H32.4953V33.5548L33.9953 35.0548V38.4548H37.3953L44.9953 46.0548L46.0553 44.9948L27.0053 25.9448Z" fill="#8F8F8F"/>
</svg>
