<svg width="72" height="72" viewBox="0 0 72 72" fill="none" xmlns="http://www.w3.org/2000/svg">
<rect x="0.5" y="0.5" width="71" height="71" rx="4.5" stroke="#7B61FF" stroke-dasharray="10 5"/>
<path d="M36 26C39.31 26 42 28.69 42 32C42 35.31 39.31 38 36 38C32.69 38 30 35.31 30 32C30 28.69 32.69 26 36 26ZM36 28C33.79 28 32 29.79 32 32C32 34.21 33.79 36 36 36C38.21 36 40 34.21 40 32C40 29.79 38.21 28 36 28ZM37 35H35V33H33V31H35V29H37V31H39V33H37V35ZM48 44H46V46H44.5V44H42.5V42.5H44.5V40.5H46V42.5H48V44ZM42 42.5C42 43.1 41.6 43.6 41.1 43.9L42 46H40.5L39.6 44H38.5V46H37V40H40.5C41.3 40 42 40.7 42 41.5V42.5ZM40.5 42.5V41.5H38.5V42.5H40.5ZM27.5 42V40H29V46H27.5V43.5H25.5V46H24V40H25.5V42H27.5ZM34 40C34.8 40 35.5 40.7 35.5 41.5V44.5C35.5 45.3 34.8 46 34 46H30.5V40H34ZM34 44.5V41.5H32V44.5H34Z" fill="#8F8F8F"/>
</svg>
