<svg width="72" height="72" viewBox="0 0 72 72" fill="none" xmlns="http://www.w3.org/2000/svg">
<rect x="0.5" y="0.5" width="71" height="71" rx="4.5" stroke="#7B61FF" stroke-dasharray="10 5"/>
<path d="M42 42.5V41.5C42 40.7 41.3 40 40.5 40H37V46H38.5V44H39.6L40.5 46H42L41.1 43.9C41.6 43.6 42 43.1 42 42.5ZM40.5 42.5H38.5V41.5H40.5V42.5ZM27.5 42H25.5V40H24V46H25.5V43.5H27.5V46H29V40H27.5V42ZM34 40H30.5V46H34C34.8 46 35.5 45.3 35.5 44.5V41.5C35.5 40.7 34.8 40 34 40ZM34 44.5H32V41.5H34V44.5ZM48 44H46V46H44.5V44H42.5V42.5H44.5V40.5H46V42.5H48V44ZM36 28C38.21 28 40 29.79 40 32C40 34.21 38.21 36 36 36C33.79 36 32 34.21 32 32C32 29.79 33.79 28 36 28ZM36 26C32.69 26 30 28.69 30 32C30 35.31 32.69 38 36 38C39.31 38 42 35.31 42 32C42 28.69 39.31 26 36 26Z" fill="#8F8F8F"/>
</svg>
