<svg width="72" height="72" viewBox="0 0 72 72" fill="none" xmlns="http://www.w3.org/2000/svg">
<rect x="0.5" y="0.5" width="71" height="71" rx="4.5" stroke="#7B61FF" stroke-dasharray="10 5"/>
<path d="M32.13 43C33.28 43.64 34.6 44 36 44C40.41 44 44 40.41 44 36C44 31.59 40.41 28 36 28C31.59 28 28 31.59 28 36C28 38.52 29.17 40.77 31 42.24V37H34.5C35.3 37 36 37.7 36 38.5V39.5C36 40.1 35.6 40.6 35.1 40.9L36 43H34.5L33.6 41H32.5V43H32.13ZM36 26C41.52 26 46 30.48 46 36C46 41.52 41.52 46 36 46C30.48 46 26 41.52 26 36C26 30.48 30.48 26 36 26ZM41.5 40H40V41.5H38.5V40H37V38.5H38.5V37H40V38.49H41.5V40ZM34.5 39.5V38.5H32.5V39.5H34.5ZM34.5 32V30H36V36H34.5V33.5H32.5V36H31V30H32.5V32H34.5ZM40 30C40.8 30 41.5 30.7 41.5 31.5V34.5C41.5 35.3 40.8 36 40 36H37V30H40ZM40 34.5V31.5H38.5V34.5H40Z" fill="#8F8F8F"/>
</svg>
