<svg width="72" height="72" viewBox="0 0 72 72" fill="none" xmlns="http://www.w3.org/2000/svg">
<rect x="0.5" y="0.5" width="71" height="71" rx="4.5" stroke="#7B61FF" stroke-dasharray="10 5"/>
<path d="M29 32C26.79 32 25 33.79 25 36C25 38.21 26.79 40 29 40C31.21 40 33 38.21 33 36C33 33.79 31.21 32 29 32ZM41 30C37.69 30 35 32.69 35 36C35 39.31 37.69 42 41 42C44.31 42 47 39.31 47 36C47 32.69 44.31 30 41 30ZM41 40C38.79 40 37 38.21 37 36C37 33.79 38.79 32 41 32C43.21 32 45 33.79 45 36C45 38.21 43.21 40 41 40Z" fill="#8F8F8F"/>
</svg>
