<svg width="73" height="72" viewBox="0 0 73 72" fill="none" xmlns="http://www.w3.org/2000/svg">
<rect x="0.5" y="0.5" width="72" height="71" rx="4.5" stroke="#7B61FF" stroke-dasharray="10 5"/>
<path d="M42 42.5065V41.5065C42 40.7065 41.3 40.0065 40.5 40.0065H37V46.0065H38.5V44.0065H39.6L40.5 46.0065H42L41.1 43.9065C41.6 43.6065 42 43.1065 42 42.5065ZM40.5 42.5065H38.5V41.5065H40.5V42.5065ZM27.5 42.0065H25.5V40.0065H24V46.0065H25.5V43.5065H27.5V46.0065H29V40.0065H27.5V42.0065ZM34 40.0065H30.5V46.0065H34C34.8 46.0065 35.5 45.3065 35.5 44.5065V41.5065C35.5 40.7065 34.8 40.0065 34 40.0065ZM34 44.5065H32V41.5065H34V44.5065ZM48 44.0065H46V46.0065H44.5V44.0065H42.5V42.5065H44.5V40.5065H46V42.5065H48V44.0065ZM34.98 28.1565L33.42 26.5965C38.52 24.1765 43.83 29.4865 41.41 34.5865L39.85 33.0265C40.66 30.0665 37.94 27.3465 34.98 28.1565ZM30.34 26.3465L28.93 27.7665L30.59 29.4265C28.17 34.5265 33.48 39.8365 38.58 37.4165L40.24 39.0765L41.65 37.6665L30.34 26.3465ZM32.15 30.9865L37.02 35.8565C34.06 36.6665 31.34 33.9465 32.15 30.9865Z" fill="#8F8F8F"/>
</svg>
