<svg width="72" height="72" viewBox="0 0 72 72" fill="none" xmlns="http://www.w3.org/2000/svg">
<rect x="0.5" y="0.5" width="71" height="71" rx="4.5" stroke="#7B61FF" stroke-dasharray="10 5"/>
<path d="M41 30C37.69 30 35 32.69 35 36C35 39.31 37.69 42 41 42C44.31 42 47 39.31 47 36C47 32.69 44.31 30 41 30ZM29 32C26.79 32 25 33.79 25 36C25 38.21 26.79 40 29 40C31.21 40 33 38.21 33 36C33 33.79 31.21 32 29 32ZM29 38C27.9 38 27 37.1 27 36C27 34.9 27.9 34 29 34C30.1 34 31 34.9 31 36C31 37.1 30.1 38 29 38Z" fill="#8F8F8F"/>
</svg>
