<svg width="72" height="72" viewBox="0 0 72 72" fill="none" xmlns="http://www.w3.org/2000/svg">
<rect x="0.5" y="0.5" width="71" height="71" rx="4.5" stroke="#7B61FF" stroke-dasharray="10 5"/>
<path d="M45 35.5V34.5C45 33.7 44.3 33 43.5 33H40V39H41.5V37H42.6L43.5 39H45L44.1 36.9C44.6 36.6 45 36.1 45 35.5ZM43.5 35.5H41.5V34.5H43.5V35.5ZM30.5 35H28.5V33H27V39H28.5V36.5H30.5V39H32V33H30.5V35ZM37 33H33.5V39H37C37.8 39 38.5 38.3 38.5 37.5V34.5C38.5 33.7 37.8 33 37 33ZM37 37.5H35V34.5H37V37.5Z" fill="#8F8F8F"/>
</svg>
