<svg width="72" height="72" viewBox="0 0 72 72" fill="none" xmlns="http://www.w3.org/2000/svg">
<rect x="0.5" y="0.5" width="71" height="71" rx="4.5" stroke="#7B61FF" stroke-dasharray="10 5"/>
<path d="M41.7452 36L45.7252 32.02C46.1152 31.63 46.1152 31 45.7252 30.61L41.3852 26.27C40.9952 25.88 40.3652 25.88 39.9752 26.27L35.9952 30.25L32.0152 26.27C31.8152 26.08 31.5652 25.98 31.3052 25.98C31.0552 25.98 30.7952 26.08 30.6052 26.27L26.2652 30.61C25.8752 31 25.8752 31.63 26.2652 32.02L30.2452 36L26.2652 39.98C25.8752 40.37 25.8752 41 26.2652 41.39L30.6052 45.73C30.9952 46.12 31.6252 46.12 32.0152 45.73L35.9952 41.75L39.9752 45.73C40.1752 45.93 40.4252 46.02 40.6852 46.02C40.9452 46.02 41.1952 45.92 41.3952 45.73L45.7352 41.39C46.1252 41 46.1252 40.37 45.7352 39.98L41.7452 36ZM36.0152 32.98C36.5652 32.98 37.0152 33.43 37.0152 33.98C37.0152 34.53 36.5652 34.98 36.0152 34.98C35.4652 34.98 35.0152 34.53 35.0152 33.98C35.0152 33.43 35.4652 32.98 36.0152 32.98ZM31.3052 34.94L27.6752 31.32L31.3052 27.69L34.9252 31.31L31.3052 34.94ZM34.0152 36.98C33.4652 36.98 33.0152 36.53 33.0152 35.98C33.0152 35.43 33.4652 34.98 34.0152 34.98C34.5652 34.98 35.0152 35.43 35.0152 35.98C35.0152 36.53 34.5652 36.98 34.0152 36.98ZM36.0152 38.98C35.4652 38.98 35.0152 38.53 35.0152 37.98C35.0152 37.43 35.4652 36.98 36.0152 36.98C36.5652 36.98 37.0152 37.43 37.0152 37.98C37.0152 38.53 36.5652 38.98 36.0152 38.98ZM38.0152 34.98C38.5652 34.98 39.0152 35.43 39.0152 35.98C39.0152 36.53 38.5652 36.98 38.0152 36.98C37.4652 36.98 37.0152 36.53 37.0152 35.98C37.0152 35.43 37.4652 34.98 38.0152 34.98ZM40.6752 44.32L37.0452 40.7L40.6752 37.07L44.2952 40.69L40.6752 44.32Z" fill="#8F8F8F"/>
</svg>
