<svg width="72" height="72" viewBox="0 0 72 72" fill="none" xmlns="http://www.w3.org/2000/svg">
<rect x="0.5" y="0.5" width="71" height="71" rx="4.5" stroke="#7B61FF" stroke-dasharray="10 5"/>
<path d="M30.7396 27.285C31.8596 26.525 33.2196 26.085 34.7096 26.085C38.6396 26.085 41.7096 29.155 41.7096 33.085C41.7096 34.345 41.3296 35.735 40.6396 36.985C40.6196 37.025 40.5896 37.065 40.5596 37.115L39.0796 35.635C39.4796 34.775 39.7096 33.885 39.7096 33.085C39.7096 30.285 37.5096 28.085 34.7096 28.085C33.7896 28.085 32.9496 28.345 32.2096 28.755L30.7396 27.285ZM41.9196 38.465L43.3496 39.895C44.8196 38.015 45.7096 35.655 45.7096 33.085C45.7096 30.045 44.4796 27.295 42.4896 25.305L41.0696 26.725C42.6996 28.345 43.7096 30.595 43.7096 33.085C43.7096 35.105 43.0396 36.965 41.9196 38.465ZM34.7096 30.585C34.4996 30.585 34.3096 30.615 34.1196 30.665L37.1296 33.675C37.1796 33.485 37.2096 33.295 37.2096 33.085C37.2096 31.705 36.0896 30.585 34.7096 30.585ZM45.8996 45.275L27.5196 26.895L26.0996 28.305L28.2296 30.435C27.8996 31.245 27.7096 32.135 27.7096 33.085H29.7096C29.7096 32.725 29.7596 32.375 29.8296 32.035L36.4396 38.645C35.5596 39.325 34.6596 40.055 34.1696 41.545C33.6696 43.045 33.1696 43.555 32.4596 43.925C32.2696 44.025 31.9996 44.085 31.7096 44.085C30.6096 44.085 29.7096 43.185 29.7096 42.085H27.7096C27.7096 44.295 29.4996 46.085 31.7096 46.085C32.2796 46.085 32.8396 45.965 33.3496 45.735C34.7096 45.025 35.4796 44.005 36.0796 42.185C36.3996 41.205 36.9796 40.755 37.7896 40.135C37.8196 40.115 37.8396 40.095 37.8696 40.075L44.4896 46.695L45.8996 45.275Z" fill="#8F8F8F"/>
</svg>
