<svg width="75" height="72" viewBox="0 0 75 72" fill="none" xmlns="http://www.w3.org/2000/svg">
<rect x="0.5" y="0.5" width="74" height="71" rx="4.5" stroke="#7B61FF" stroke-dasharray="10 5"/>
<path d="M41 44.39C40.71 44.39 40.44 44.33 40.24 44.24C39.53 43.87 39.03 43.36 38.53 41.86C38.02 40.3 37.06 39.57 36.14 38.86C35.35 38.25 34.53 37.62 33.82 36.33C33.29 35.37 33 34.32 33 33.39C33 30.59 35.2 28.39 38 28.39C40.8 28.39 43 30.59 43 33.39H45C45 29.46 41.93 26.39 38 26.39C34.07 26.39 31 29.46 31 33.39C31 34.65 31.38 36.04 32.07 37.29C32.98 38.94 34.05 39.77 34.92 40.44C35.73 41.06 36.31 41.51 36.63 42.49C37.23 44.31 38 45.33 39.36 46.04C39.87 46.27 40.43 46.39 41 46.39C43.21 46.39 45 44.6 45 42.39H43C43 43.49 42.1 44.39 41 44.39ZM31.64 27.03L30.22 25.61C28.23 27.6 27 30.35 27 33.39C27 36.43 28.23 39.18 30.22 41.17L31.63 39.76C30.01 38.13 29 35.88 29 33.39C29 30.9 30.01 28.65 31.64 27.03ZM35.5 33.39C35.5 34.77 36.62 35.89 38 35.89C39.38 35.89 40.5 34.77 40.5 33.39C40.5 32.01 39.38 30.89 38 30.89C36.62 30.89 35.5 32.01 35.5 33.39Z" fill="#8F8F8F"/>
</svg>
