<svg width="72" height="72" viewBox="0 0 72 72" fill="none" xmlns="http://www.w3.org/2000/svg">
<rect x="0.5" y="0.5" width="71" height="71" rx="4.5" stroke="#7B61FF" stroke-dasharray="10 5"/>
<path d="M43 27H29C27.9 27 27 27.9 27 29V43C27 44.1 27.9 45 29 45H43C44.1 45 45 44.1 45 43V29C45 27.9 44.1 27 43 27ZM43 43H29V29H43V43Z" fill="#8F8F8F"/>
<path d="M36 42C39.31 42 42 39.31 42 36C42 32.69 39.31 30 36 30C32.69 30 30 32.69 30 36C30 39.31 32.69 42 36 42ZM35.25 39.92C34.7 39.82 34.2 39.6 33.75 39.3L35.25 37.8V39.92ZM36.75 39.92V37.81L38.25 39.31C37.8 39.61 37.3 39.82 36.75 39.92ZM39.31 38.25L37.81 36.75H39.92C39.82 37.3 39.61 37.8 39.31 38.25ZM39.92 35.25H37.81L39.31 33.75C39.61 34.2 39.82 34.7 39.92 35.25ZM36.75 32.08C37.3 32.18 37.8 32.4 38.25 32.7L36.75 34.2V32.08ZM36 35C36.55 35 37 35.45 37 36C37 36.55 36.55 37 36 37C35.45 37 35 36.55 35 36C35 35.45 35.45 35 36 35ZM35.25 32.08V34.19L33.75 32.69C34.2 32.39 34.7 32.18 35.25 32.08ZM32.69 33.75L34.19 35.25H32.08C32.18 34.7 32.39 34.2 32.69 33.75ZM34.19 36.75L32.69 38.25C32.39 37.81 32.18 37.3 32.07 36.75H34.19Z" fill="#8F8F8F"/>
</svg>
