<svg width="24" height="25" viewBox="0 0 24 25" fill="none" xmlns="http://www.w3.org/2000/svg"><path clip-rule="evenodd" d="M19 12.445a7 7 0 1 1-14 0 7 7 0 0 1 14 0Z" stroke="#8F8F8F" stroke-width="1.154" stroke-linecap="round" stroke-linejoin="round"/><path fill-rule="evenodd" clip-rule="evenodd" d="M12.195 13.706c-.006.097-.01.208-.01.332h-.883c.003-.23.013-.418.029-.566.016-.149.049-.28.1-.397.05-.116.124-.228.22-.334.095-.107.223-.234.382-.38l.332-.344a3.56 3.56 0 0 0 .31-.37c.095-.13.172-.266.232-.41.06-.143.091-.294.091-.453 0-.347-.1-.613-.3-.796-.202-.183-.488-.274-.86-.274-.15 0-.296.018-.438.055a1.136 1.136 0 0 0-.378.172.895.895 0 0 0-.265.296.862.862 0 0 0-.1.427h-.884a1.615 1.615 0 0 1 .604-1.263c.183-.148.4-.262.65-.34.25-.078.52-.117.81-.117.322 0 .61.04.863.122.253.081.467.2.642.356.175.156.31.346.401.569.093.223.14.478.14.764 0 .23-.04.445-.12.648-.08.202-.182.393-.306.573a3.72 3.72 0 0 1-.418.504c-.155.156-.307.301-.457.435-.095.092-.17.18-.222.263a1.005 1.005 0 0 0-.117.253 1.254 1.254 0 0 0-.048.275Zm-.035 2.196c-.094.099-.232.148-.414.148-.181 0-.317-.049-.408-.148a.524.524 0 0 1-.136-.368c0-.152.045-.28.136-.382.09-.102.227-.153.408-.153.182 0 .32.051.414.153.094.102.14.23.14.382 0 .147-.046.27-.14.368Z" fill="#8F8F8F"/><path d="M12.186 14.038v.115h.115v-.115h-.115Zm.01-.332-.116-.008.115.008Zm-.894.332-.115-.002-.002.117h.117v-.115Zm.129-.963.106.046-.106-.046Zm.22-.334-.086-.077.086.077Zm.382-.38.078.085.005-.005-.083-.08Zm.332-.344.083.08-.083-.08Zm.542-.78.107.046-.107-.045Zm-.21-1.249-.078.086.078-.086Zm-1.297-.22-.029-.111.029.112Zm-.378.173.067.094-.067-.094Zm-.265.296-.1-.057.1.057Zm-.1.427v.116h.115v-.116h-.115Zm-.884 0h-.115l-.002.116h.117v-.116Zm.167-.721-.103-.052.103.052Zm.437-.542.073.09-.073-.09Zm.65-.34-.034-.11.034.11Zm1.673.005-.036.11.036-.11Zm.642.356.077-.086-.077.086Zm.401.569-.106.044.106-.044Zm.02 1.412-.108-.043.108.043Zm-.306.573-.095-.066.095.066Zm-.418.504-.082-.081.082.081Zm-.457.435-.077-.086-.003.003.08.083Zm-.222.263.098.062-.098-.062Zm-.2 2.724.083.08-.083-.08Zm-.822 0-.085.078.085-.078Zm0-.75-.086-.077.086.077Zm.822 0 .085-.078-.085.078Zm.141-1.114c0-.123.003-.23.01-.325l-.23-.015c-.007.1-.01.214-.01.34h.23Zm-1 .115h.885v-.23h-.884v.23Zm-.085-.694a6.389 6.389 0 0 0-.03.577l.231.003a6.2 6.2 0 0 1 .028-.555l-.23-.025Zm.11-.43a1.454 1.454 0 0 0-.11.43l.23.025c.014-.139.045-.259.09-.363l-.21-.092Zm.239-.365a1.375 1.375 0 0 0-.24.365l.212.092a1.15 1.15 0 0 1 .2-.303l-.172-.154Zm.39-.388c-.16.148-.291.277-.39.388l.172.154c.092-.103.216-.227.374-.372l-.156-.17Zm.327-.34c-.113.119-.224.233-.332.344l.166.161c.108-.112.22-.226.332-.345l-.166-.16Zm.3-.358c-.09.125-.19.245-.3.359l.166.16c.117-.122.224-.25.32-.383l-.186-.136Zm.22-.385c-.058.135-.13.263-.22.385l.187.136c.099-.136.18-.28.245-.431l-.213-.09Zm.08-.41c0 .145-.027.281-.08.41l.212.09c.066-.158.1-.325.1-.5h-.231Zm-.263-.71c.17.156.264.386.264.71h.23c0-.37-.107-.67-.338-.88l-.156.17Zm-.782-.244c.355 0 .61.087.782.245l.156-.17c-.229-.21-.547-.306-.938-.306v.231Zm-.408.051c.132-.034.268-.051.408-.051v-.23c-.16 0-.315.019-.466.058l.058.223Zm-.34.155c.098-.07.21-.121.34-.155l-.058-.223c-.154.04-.293.103-.415.19l.133.188Zm-.231.258a.78.78 0 0 1 .231-.258l-.133-.189a1.01 1.01 0 0 0-.3.334l.202.113Zm-.086.371c0-.15.03-.272.086-.37l-.201-.114a.977.977 0 0 0-.116.484h.231Zm-1 .116h.885v-.23h-.884v.23Zm.065-.89a1.73 1.73 0 0 0-.18.773l.231.003a1.5 1.5 0 0 1 .155-.67l-.206-.105Zm.468-.58a1.763 1.763 0 0 0-.468.58l.206.105c.101-.199.237-.367.407-.505l-.145-.18Zm.688-.359a2.056 2.056 0 0 0-.688.36l.145.18c.17-.139.374-.245.612-.32l-.07-.22Zm.844-.122c-.3 0-.582.04-.844.122l.069.22a2.59 2.59 0 0 1 .775-.111v-.231Zm.898.127a2.935 2.935 0 0 0-.898-.127v.23c.312 0 .588.04.827.117l.07-.22Zm.684.38a1.874 1.874 0 0 0-.684-.38l-.07.22c.24.077.439.188.6.332l.154-.172Zm.431.61a1.654 1.654 0 0 0-.431-.61l-.154.172c.162.144.286.32.372.527l.213-.088Zm.148.81c0-.3-.049-.57-.148-.81l-.213.089c.085.207.13.446.13.72h.23Zm-.128.689c.085-.216.128-.447.128-.69h-.231c0 .216-.038.417-.112.605l.215.085Zm-.318.597c.129-.188.235-.386.318-.597l-.215-.085a2.718 2.718 0 0 1-.293.55l.19.132Zm-.431.52c.159-.162.303-.335.43-.52l-.19-.131c-.12.174-.255.337-.404.488l.164.162Zm-.462.439c.152-.135.306-.282.462-.44l-.164-.162c-.153.155-.304.298-.451.43l.153.172Zm-.201.239a1.36 1.36 0 0 1 .205-.242l-.16-.166c-.1.097-.181.191-.24.284l.195.124Zm-.104.224a.886.886 0 0 1 .104-.224l-.195-.124a1.119 1.119 0 0 0-.13.282l.22.066Zm-.043.25c.005-.09.02-.173.043-.25l-.221-.066a1.37 1.37 0 0 0-.053.3l.23.015Zm-.565 2.452c.203 0 .375-.056.497-.184l-.167-.16c-.066.07-.169.113-.33.113v.23Zm-.493-.186c.12.13.291.186.493.186v-.231c-.16 0-.261-.043-.323-.11l-.17.155Zm-.167-.446c0 .173.055.324.167.446l.17-.156a.408.408 0 0 1-.106-.29h-.23Zm.166-.459a.668.668 0 0 0-.166.46h.231c0-.129.037-.228.107-.306l-.172-.154Zm.494-.191c-.203 0-.375.057-.494.191l.172.154c.062-.07.162-.114.322-.114v-.231Zm.498.19c-.121-.133-.294-.19-.498-.19v.23c.16 0 .263.045.329.116l.17-.156Zm.172.46a.658.658 0 0 0-.171-.46l-.17.156c.072.079.11.177.11.304h.231Zm-.173.448a.628.628 0 0 0 .173-.448h-.23c0 .12-.038.213-.11.289l.167.159Z" fill="#8F8F8F"/></svg>