<svg width="73" height="72" viewBox="0 0 73 72" fill="none" xmlns="http://www.w3.org/2000/svg">
<rect x="0.5" y="0.5" width="72" height="71" rx="4.5" stroke="#7B61FF" stroke-dasharray="10 5"/>
<path d="M36 26C30.48 26 26 30.48 26 36C26 41.52 30.48 46 36 46C41.52 46 46 41.52 46 36C46 30.48 41.52 26 36 26ZM37 43H35V41H37V43ZM39.07 35.25L38.17 36.17C37.45 36.9 37 37.5 37 39H35V38.5C35 37.4 35.45 36.4 36.17 35.67L37.41 34.41C37.78 34.05 38 33.55 38 33C38 31.9 37.1 31 36 31C34.9 31 34 31.9 34 33H32C32 30.79 33.79 29 36 29C38.21 29 40 30.79 40 33C40 33.88 39.64 34.68 39.07 35.25Z" fill="#8F8F8F"/>
</svg>
