<svg width="72" height="72" viewBox="0 0 72 72" fill="none" xmlns="http://www.w3.org/2000/svg">
<rect x="0.5" y="0.5" width="71" height="71" rx="4.5" stroke="#7B61FF" stroke-dasharray="10 5"/>
<path d="M37.25 40.74C37.25 41.43 36.72 42 36 42C35.3 42 34.74 41.44 34.74 40.74C34.74 40.03 35.3 39.49 36 39.49C36.71 39.49 37.25 40.04 37.25 40.74ZM35.99 30C34.22 30 33.01 31.15 32.56 32.49L34.2 33.18C34.42 32.51 34.94 31.7 36 31.7C37.62 31.7 37.94 33.22 37.37 34.03C36.83 34.8 35.9 35.32 35.41 36.19C35.02 36.88 35.1 37.68 35.1 38.17H36.92C36.92 37.24 36.99 37.05 37.14 36.76C37.53 36.04 38.25 35.7 39.01 34.59C39.69 33.59 39.43 32.23 38.99 31.51C38.48 30.67 37.47 30 35.99 30ZM43 29H29V43H43V29ZM43 27C44.1 27 45 27.9 45 29V43C45 44.1 44.1 45 43 45H29C27.9 45 27 44.1 27 43V29C27 27.9 27.9 27 29 27H43Z" fill="#8F8F8F"/>
</svg>
