<svg width="72" height="72" viewBox="0 0 72 72" fill="none" xmlns="http://www.w3.org/2000/svg">
<rect x="0.5" y="0.5" width="71" height="71" rx="4.5" stroke="#7B61FF" stroke-dasharray="10 5"/>
<path d="M35 42H37V40H35V42ZM36 26C30.48 26 26 30.48 26 36C26 41.52 30.48 46 36 46C41.52 46 46 41.52 46 36C46 30.48 41.52 26 36 26ZM36 44C31.59 44 28 40.41 28 36C28 31.59 31.59 28 36 28C40.41 28 44 31.59 44 36C44 40.41 40.41 44 36 44ZM36 30C33.79 30 32 31.79 32 34H34C34 32.9 34.9 32 36 32C37.1 32 38 32.9 38 34C38 36 35 35.75 35 39H37C37 36.75 40 36.5 40 34C40 31.79 38.21 30 36 30Z" fill="#8F8F8F"/>
</svg>
