<svg width="72" height="72" viewBox="0 0 72 72" fill="none" xmlns="http://www.w3.org/2000/svg">
<rect x="0.5" y="0.5" width="71" height="71" rx="4.5" stroke="#7B61FF" stroke-dasharray="10 5"/>
<path d="M29.5 35H28.5V33H27V39H28.5V36.5H29.5V39H31V33H29.5V35Z" fill="#8F8F8F"/>
<path d="M45 35V34C45 33.45 44.55 33 44 33H42C41.45 33 41 33.45 41 34V38C41 38.55 41.45 39 42 39H44C44.55 39 45 38.55 45 38V37H43.5V37.5H42.5V34.5H43.5V35H45Z" fill="#8F8F8F"/>
<path d="M38.25 37.5L37.5 33H36L37 39H39.5L40.5 33H39L38.25 37.5Z" fill="#8F8F8F"/>
<path d="M32 33V39H35.5V37.5H33.5V36.5H35.5V35H33.5V34.5H35.5V33H32Z" fill="#8F8F8F"/>
</svg>
