<svg width="70" height="72" viewBox="0 0 70 72" fill="none" xmlns="http://www.w3.org/2000/svg">
<rect x="0.5" y="0.5" width="69" height="71" rx="4.5" stroke="#7B61FF" stroke-dasharray="10 5"/>
<path d="M27.1153 26.505L25.6953 27.915L27.9653 30.185C26.9153 31.765 26.3053 33.655 26.3053 35.695C26.3053 41.215 30.7853 45.695 36.3053 45.695C38.3453 45.695 40.2353 45.085 41.8153 44.035L44.0853 46.305L45.4953 44.895L27.1153 26.505ZM36.3053 43.695C31.8953 43.695 28.3053 40.105 28.3053 35.695C28.3053 34.215 28.7153 32.835 29.4253 31.635L40.3653 42.575C39.1653 43.285 37.7853 43.695 36.3053 43.695ZM32.2453 28.815L30.7953 27.355C32.3753 26.305 34.2653 25.695 36.3053 25.695C41.8253 25.695 46.3053 30.175 46.3053 35.695C46.3053 37.735 45.6953 39.625 44.6453 41.205L43.1853 39.745C43.8953 38.555 44.3053 37.175 44.3053 35.695C44.3053 31.285 40.7153 27.695 36.3053 27.695C34.8253 27.695 33.4453 28.105 32.2453 28.815Z" fill="#8F8F8F"/>
</svg>
