<svg width="77" height="72" viewBox="0 0 77 72" fill="none" xmlns="http://www.w3.org/2000/svg">
<rect x="0.5" y="0.5" width="76" height="71" rx="4.5" stroke="#7B61FF" stroke-dasharray="10 5"/>
<path d="M41 29H39V27H41V29ZM39 39V45L41.29 42.71L43.59 45L45 43.59L42.71 41.3L45 39H39ZM43 33H45V31H43V33ZM43 37H45V35H43V37ZM35 45H37V43H35V45ZM31 29H33V27H31V29ZM27 41H29V39H27V41ZM29 45V43H27C27 44.1 27.9 45 29 45ZM43 27V29H45C45 27.9 44.1 27 43 27ZM35 29H37V27H35V29ZM27 33H29V31H27V33ZM31 45H33V43H31V45ZM27 37H29V35H27V37ZM27 29H29V27C27.9 27 27 27.9 27 29Z" fill="#8F8F8F"/>
</svg>
