<svg width="70" height="72" viewBox="0 0 70 72" fill="none" xmlns="http://www.w3.org/2000/svg">
<rect x="0.5" y="0.5" width="69" height="71" rx="4.5" stroke="#7B61FF" stroke-dasharray="10 5"/>
<path d="M38.59 32L36 34.59L33.41 32L32 33.41L34.59 36L32 38.59L33.41 40L36 37.41L38.59 40L40 38.59L37.41 36L40 33.41L38.59 32ZM36 26C30.47 26 26 30.47 26 36C26 41.53 30.47 46 36 46C41.53 46 46 41.53 46 36C46 30.47 41.53 26 36 26ZM36 44C31.59 44 28 40.41 28 36C28 31.59 31.59 28 36 28C40.41 28 44 31.59 44 36C44 40.41 40.41 44 36 44Z" fill="#8F8F8F"/>
</svg>
