<svg width="72" height="72" viewBox="0 0 72 72" fill="none" xmlns="http://www.w3.org/2000/svg">
<rect x="0.5" y="0.5" width="71" height="71" rx="4.5" stroke="#7B61FF" stroke-dasharray="10 5"/>
<path d="M39.1008 43.37L40.1008 45.11C39.1408 45.55 38.0908 45.84 37.0008 45.95V43.93C37.7408 43.84 38.4408 43.65 39.1008 43.37ZM28.0708 37H26.0508C26.1608 38.1 26.4508 39.14 26.8908 40.1L28.6308 39.1C28.3508 38.44 28.1608 37.74 28.0708 37ZM39.1008 28.63L40.1008 26.89C39.1408 26.45 38.1008 26.16 37.0008 26.05V28.07C37.7408 28.16 38.4408 28.35 39.1008 28.63ZM43.9308 35H45.9508C45.8408 33.9 45.5508 32.86 45.1108 31.9L43.3708 32.9C43.6508 33.56 43.8408 34.26 43.9308 35ZM32.9008 43.37L31.9008 45.11C32.8608 45.55 33.9108 45.84 35.0008 45.95V43.93C34.2608 43.84 33.5608 43.65 32.9008 43.37ZM35.0008 28.07V26.05C33.9008 26.16 32.8608 26.45 31.9008 26.89L32.9008 28.63C33.5608 28.35 34.2608 28.16 35.0008 28.07ZM42.3608 31.17L44.1008 30.16C43.4708 29.29 42.7008 28.52 41.8308 27.89L40.8208 29.63C41.4108 30.08 41.9208 30.59 42.3608 31.17ZM28.6308 32.9L26.8908 31.9C26.4508 32.86 26.1608 33.9 26.0508 35H28.0708C28.1608 34.26 28.3508 33.56 28.6308 32.9ZM43.9308 37C43.8408 37.74 43.6508 38.44 43.3708 39.1L45.1108 40.1C45.5508 39.14 45.8408 38.09 45.9508 37H43.9308ZM40.8308 42.36L41.8408 44.1C42.7108 43.47 43.4808 42.7 44.1108 41.83L42.3708 40.82C41.9208 41.41 41.4108 41.92 40.8308 42.36ZM31.1708 29.64L30.1708 27.89C29.2908 28.53 28.5308 29.29 27.9008 30.17L29.6408 31.18C30.0808 30.59 30.5908 30.08 31.1708 29.64ZM29.6408 40.83L27.9008 41.83C28.5308 42.7 29.3008 43.47 30.1708 44.1L31.1808 42.36C30.5908 41.92 30.0808 41.41 29.6408 40.83ZM37.0008 31H35.0008V36.41L39.2908 40.7L40.7008 39.29L37.0008 35.59V31Z" fill="#8F8F8F"/>
</svg>
