<svg width="73" height="72" viewBox="0 0 73 72" fill="none" xmlns="http://www.w3.org/2000/svg">
<rect x="0.5" y="0.5" width="72" height="71" rx="4.5" stroke="#7B61FF" stroke-dasharray="10 5"/>
<path d="M30.75 33H32.25V39H30.75V36.5H28.75V39H27.25V33H28.75V35H30.75V33ZM40.75 39H43.75C44.3 39 44.75 38.55 44.75 38V36.5C44.75 35.95 44.3 35.5 43.75 35.5H41.25V34.5H43.25V35H44.75V34C44.75 33.45 44.3 33 43.75 33H40.75C40.2 33 39.75 33.45 39.75 34V35.5C39.75 36.05 40.2 36.5 40.75 36.5H43.25V37.5H41.25V37H39.75V38C39.75 38.55 40.2 39 40.75 39ZM38.25 39V37.5H35.75V33H34.25V39H38.25Z" fill="#8F8F8F"/>
</svg>
