<svg width="72" height="72" viewBox="0 0 72 72" fill="none" xmlns="http://www.w3.org/2000/svg">
<rect x="0.5" y="0.5" width="71" height="71" rx="4.5" stroke="#7B61FF" stroke-dasharray="10 5"/>
<path d="M42.5455 38.295H44.2155C44.7655 38.295 45.2155 37.845 45.2155 37.295V35.795C45.2155 35.245 44.7655 34.795 44.2155 34.795H41.7155V33.795H43.7155V34.295H45.2155V33.295C45.2155 32.745 44.7655 32.295 44.2155 32.295H41.2155C40.6655 32.295 40.2155 32.745 40.2155 33.295V34.795C40.2155 35.345 40.6655 35.795 41.2155 35.795H43.7155V36.795H41.7155V36.295H40.5455L42.5455 38.295ZM32.7155 34.125V38.295H31.2155V35.795H29.2155V38.295H27.7155V32.295H29.2155V34.295H31.2155V32.625L26.1055 27.515L27.5155 26.105L45.8955 44.485L44.4855 45.895L36.8855 38.295H34.7155V36.125L32.7155 34.125Z" fill="#8F8F8F"/>
</svg>
