<svg width="77" height="72" viewBox="0 0 77 72" fill="none" xmlns="http://www.w3.org/2000/svg">
<rect x="0.5" y="0.5" width="76" height="71" rx="4.5" stroke="#7B61FF" stroke-dasharray="10 5"/>
<path d="M34.6602 32.89L35.6002 36H38.4202L36.1502 37.62L37.0802 40.63L34.6602 38.79L32.2402 40.63L33.1702 37.62L30.9002 36H33.7202L34.6602 32.89ZM32.2402 34H24.6602L30.8302 38.41L28.4902 46L34.6602 41.31L40.8402 46L38.4902 38.41L44.6602 34H37.0802L34.6602 26L32.2402 34ZM45.0202 46L43.1602 39.99L47.3402 37H43.9002L40.8202 39.2L42.2802 43.92L45.0202 46ZM40.6602 32L38.8402 26L37.8002 29.45L38.5702 32H40.6602Z" fill="#8F8F8F"/>
</svg>
