<svg width="71" height="72" viewBox="0 0 71 72" fill="none" xmlns="http://www.w3.org/2000/svg">
<rect x="0.5" y="0.5" width="70" height="71" rx="4.5" stroke="#7B61FF" stroke-dasharray="10 5"/>
<path d="M42 37.0007H41.32L39.32 39.0007H41.23L43 41.0007H29L30.78 39.0007H32.83L30.83 37.0007H30L27 40.0007V44.0007C27 45.1007 27.89 46.0007 28.99 46.0007H43C44.1 46.0007 45 45.1107 45 44.0007V40.0007L42 37.0007ZM43 44.0007H29V43.0007H43V44.0007ZM35.34 39.0207C35.73 39.4107 36.36 39.4107 36.75 39.0207L43.11 32.6607C43.5 32.2707 43.5 31.6407 43.11 31.2507L38.16 26.3007C37.78 25.9007 37.15 25.9007 36.76 26.2907L30.39 32.6607C30 33.0507 30 33.6807 30.39 34.0707L35.34 39.0207ZM37.46 28.4107L41 31.9507L36.05 36.9007L32.51 33.3607L37.46 28.4107Z" fill="#8F8F8F"/>
</svg>
