<svg width="74" height="72" viewBox="0 0 74 72" fill="none" xmlns="http://www.w3.org/2000/svg">
<rect x="0.5" y="0.5" width="73" height="71" rx="4.5" stroke="#7B61FF" stroke-dasharray="10 5"/>
<path d="M34.5 35.75C36.71 35.75 38.5 33.96 38.5 31.75C38.5 29.54 36.71 27.75 34.5 27.75C32.29 27.75 30.5 29.54 30.5 31.75C30.5 33.96 32.29 35.75 34.5 35.75ZM34.5 29.75C35.6 29.75 36.5 30.65 36.5 31.75C36.5 32.85 35.6 33.75 34.5 33.75C33.4 33.75 32.5 32.85 32.5 31.75C32.5 30.65 33.4 29.75 34.5 29.75ZM28.5 41.75C28.7 41.12 31.07 40.07 33.46 39.81L35.5 37.81C35.11 37.77 34.82 37.75 34.5 37.75C31.83 37.75 26.5 39.09 26.5 41.75V43.75H35.5L33.5 41.75H28.5ZM44.1 36.25L38.97 41.42L36.9 39.34L35.5 40.75L38.97 44.25L45.5 37.66L44.1 36.25Z" fill="#8F8F8F"/>
</svg>
