<svg width="75" height="72" viewBox="0 0 75 72" fill="none" xmlns="http://www.w3.org/2000/svg">
<rect x="0.5" y="0.5" width="74" height="71" rx="4.5" stroke="#7B61FF" stroke-dasharray="10 5"/>
<g clip-path="url(#clip0_256_17365)">
<path d="M45 31C43.34 31 42 32.34 42 34C42 34.07 42 34.14 42.01 34.21L39.98 34.89C39.34 33.68 38.16 32.8 36.76 32.57V30.41C38.04 30.07 39 28.9 39 27.5C39 25.84 37.66 24.5 36 24.5C34.34 24.5 33 25.84 33 27.5C33 28.9 33.96 30.07 35.25 30.41V32.57C33.85 32.8 32.67 33.68 32.03 34.89L29.99 34.21C30 34.14 30 34.07 30 34C30 32.34 28.66 31 27 31C25.34 31 24 32.34 24 34C24 35.66 25.34 37 27 37C28.06 37 28.98 36.45 29.52 35.63L31.55 36.31C31.35 37.6 31.72 38.97 32.64 40L31.23 41.77C30.85 41.59 30.44 41.5 30 41.5C28.34 41.5 27 42.84 27 44.5C27 46.16 28.34 47.5 30 47.5C31.66 47.5 33 46.16 33 44.5C33 43.82 32.78 43.2 32.4 42.7L33.81 40.93C35.17 41.69 36.83 41.68 38.18 40.93L39.59 42.7C39.22 43.2 39 43.82 39 44.5C39 46.16 40.34 47.5 42 47.5C43.66 47.5 45 46.16 45 44.5C45 42.84 43.66 41.5 42 41.5C41.56 41.5 41.15 41.59 40.77 41.76L39.36 39.99C40.29 38.95 40.65 37.59 40.45 36.3L42.48 35.62C43.01 36.44 43.94 36.99 45 36.99C46.66 36.99 48 35.65 48 33.99C48 32.33 46.66 31 45 31ZM27 35C26.45 35 26 34.55 26 34C26 33.45 26.45 33 27 33C27.55 33 28 33.45 28 34C28 34.55 27.55 35 27 35ZM30 45.5C29.45 45.5 29 45.05 29 44.5C29 43.95 29.45 43.5 30 43.5C30.55 43.5 31 43.95 31 44.5C31 45.05 30.55 45.5 30 45.5ZM35 27.5C35 26.95 35.45 26.5 36 26.5C36.55 26.5 37 26.95 37 27.5C37 28.05 36.55 28.5 36 28.5C35.45 28.5 35 28.05 35 27.5ZM36 39.5C34.62 39.5 33.5 38.38 33.5 37C33.5 35.62 34.62 34.5 36 34.5C37.38 34.5 38.5 35.62 38.5 37C38.5 38.38 37.38 39.5 36 39.5ZM42 43.5C42.55 43.5 43 43.95 43 44.5C43 45.05 42.55 45.5 42 45.5C41.45 45.5 41 45.05 41 44.5C41 43.95 41.45 43.5 42 43.5ZM45 35C44.45 35 44 34.55 44 34C44 33.45 44.45 33 45 33C45.55 33 46 33.45 46 34C46 34.55 45.55 35 45 35Z" fill="#8F8F8F"/>
</g>
<defs>
<clipPath id="clip0_256_17365">
<rect width="24" height="24" fill="white" transform="translate(24 24)"/>
</clipPath>
</defs>
</svg>
