<svg width="72" height="72" viewBox="0 0 72 72" fill="none" xmlns="http://www.w3.org/2000/svg">
<rect x="0.5" y="0.5" width="71" height="71" rx="4.5" stroke="#7B61FF" stroke-dasharray="10 5"/>
<path d="M41.7891 37V44H27.7891V30H32.8091C32.8591 29.29 33.0291 28.62 33.2891 28H27.7891C26.6891 28 25.7891 28.9 25.7891 30V44C25.7891 45.1 26.6891 46 27.7891 46H41.7891C42.8891 46 43.7891 45.1 43.7891 44V39L41.7891 37ZM40.2891 42H29.2891L32.0391 38.47L33.9991 40.83L36.7491 37.29L40.2891 42ZM43.0891 32.89C43.5291 32.19 43.7891 31.38 43.7891 30.5C43.7891 28.01 41.7791 26 39.2891 26C36.7991 26 34.7891 28.01 34.7891 30.5C34.7891 32.99 36.7991 35 39.2791 35C40.1591 35 40.9791 34.74 41.6691 34.3L44.7891 37.42L46.2091 36L43.0891 32.89ZM39.2891 33C37.9091 33 36.7891 31.88 36.7891 30.5C36.7891 29.12 37.9091 28 39.2891 28C40.6691 28 41.7891 29.12 41.7891 30.5C41.7891 31.88 40.6691 33 39.2891 33Z" fill="#8F8F8F"/>
</svg>
