<svg width="74" height="72" viewBox="0 0 74 72" fill="none" xmlns="http://www.w3.org/2000/svg">
<rect x="0.5" y="0.5" width="73" height="71" rx="4.5" stroke="#7B61FF" stroke-dasharray="10 5"/>
<path d="M45 28C43.89 27.65 42.67 27.5 41.5 27.5C39.55 27.5 37.45 27.9 36 29C34.55 27.9 32.45 27.5 30.5 27.5C28.55 27.5 26.45 27.9 25 29V43.65C25 43.9 25.25 44.15 25.5 44.15C25.6 44.15 25.65 44.1 25.75 44.1C27.1 43.45 29.05 43 30.5 43C32.45 43 34.55 43.4 36 44.5C37.35 43.65 39.8 43 41.5 43C43.15 43 44.85 43.3 46.25 44.05C46.35 44.1 46.4 44.1 46.5 44.1C46.75 44.1 47 43.85 47 43.6V29C46.4 28.55 45.75 28.25 45 28ZM45 41.5C43.9 41.15 42.7 41 41.5 41C39.8 41 37.35 41.65 36 42.5V31C37.35 30.15 39.8 29.5 41.5 29.5C42.7 29.5 43.9 29.65 45 30V41.5Z" fill="#8F8F8F"/>
</svg>
