<svg width="70" height="72" viewBox="0 0 70 72" fill="none" xmlns="http://www.w3.org/2000/svg">
<rect x="0.5" y="0.5" width="69" height="71" rx="4.5" stroke="#7B61FF" stroke-dasharray="10 5"/>
<path d="M47 35.01L42 35C41.45 35 41 35.45 41 36V45C41 45.55 41.45 46 42 46H47C47.55 46 48 45.55 48 45V36C48 35.45 47.55 35.01 47 35.01ZM47 44H42V37H47V44ZM44 26H26C24.89 26 24 26.89 24 28V40C24 41.1 24.89 42 26 42H33V44H31V46H39V44H37V42H39V40H26V28H44V33H46V28C46 26.89 45.1 26 44 26ZM35.97 33L35 30L34.03 33H31L33.47 34.76L32.53 37.67L35 35.87L37.47 37.67L36.53 34.76L39 33H35.97Z" fill="#8F8F8F"/>
</svg>
