<svg width="74" height="72" viewBox="0 0 74 72" fill="none" xmlns="http://www.w3.org/2000/svg">
<rect x="0.5" y="0.5" width="73" height="71" rx="4.5" stroke="#7B61FF" stroke-dasharray="10 5"/>
<path d="M43 27H29C27.9 27 27 27.9 27 29V43C27 44.1 27.89 45 29 45H43C44.1 45 45 44.1 45 43V29C45 27.9 44.1 27 43 27ZM43 43H29V40H32.56C33.25 41.19 34.53 42 36.01 42C37.49 42 38.76 41.19 39.46 40H43V43ZM43 38H38.01C38.01 39.1 37.11 40 36.01 40C34.91 40 34.01 39.1 34.01 38H29V29H43V38Z" fill="#8F8F8F"/>
</svg>
