<svg width="70" height="72" viewBox="0 0 70 72" fill="none" xmlns="http://www.w3.org/2000/svg">
<rect x="0.5" y="0.5" width="69" height="71" rx="4.5" stroke="#7B61FF" stroke-dasharray="10 5"/>
<path d="M45 27.01H27C25.9 27.01 25 27.91 25 29.01V33H27V28.99H45V43.02H27V39H25V43.01C25 44.11 25.9 44.99 27 44.99H45C46.1 44.99 47 44.11 47 43.01V29.01C47 27.9 46.1 27.01 45 27.01ZM35 40L39 36L35 32V35H25V37H35V40ZM45 27.01H27C25.9 27.01 25 27.91 25 29.01V33H27V28.99H45V43.02H27V39H25V43.01C25 44.11 25.9 44.99 27 44.99H45C46.1 44.99 47 44.11 47 43.01V29.01C47 27.9 46.1 27.01 45 27.01ZM35 40L39 36L35 32V35H25V37H35V40Z" fill="#8F8F8F"/>
</svg>
