<svg width="75" height="72" viewBox="0 0 75 72" fill="none" xmlns="http://www.w3.org/2000/svg">
<rect x="0.5" y="0.5" width="74" height="71" rx="4.5" stroke="#7B61FF" stroke-dasharray="10 5"/>
<path d="M45 32.5C43.55 32.5 42.74 33.94 43.07 35.01L39.52 38.57C39.22 38.48 38.78 38.48 38.48 38.57L35.93 36.02C36.27 34.95 35.46 33.5 34 33.5C32.55 33.5 31.73 34.94 32.07 36.02L27.51 40.57C26.44 40.24 25 41.05 25 42.5C25 43.6 25.9 44.5 27 44.5C28.45 44.5 29.26 43.06 28.93 41.99L33.48 37.43C33.78 37.52 34.22 37.52 34.52 37.43L37.07 39.98C36.73 41.05 37.54 42.5 39 42.5C40.45 42.5 41.27 41.06 40.93 39.98L44.49 36.43C45.56 36.76 47 35.95 47 34.5C47 33.4 46.1 32.5 45 32.5Z" fill="#8F8F8F"/>
<path d="M39 33.5L39.94 31.43L42 30.5L39.94 29.57L39 27.5L38.08 29.57L36 30.5L38.08 31.43L39 33.5Z" fill="#8F8F8F"/>
<path d="M27.5 35.5L28 33.5L30 33L28 32.5L27.5 30.5L27 32.5L25 33L27 33.5L27.5 35.5Z" fill="#8F8F8F"/>
</svg>
