<svg width="72" height="72" viewBox="0 0 72 72" fill="none" xmlns="http://www.w3.org/2000/svg">
<g clip-path="url(#clip0_256_16983)">
<path d="M44 40.5C43.17 40.5 42.5 39.83 42.5 39V36.5C42.5 35.67 43.17 35 44 35C44.83 35 45.5 35.67 45.5 36.5V39C45.5 39.83 44.83 40.5 44 40.5ZM43.5 44H44.5V42.46C46.19 42.22 47.5 40.76 47.5 39H46.5C46.5 40.38 45.38 41.5 44 41.5C42.62 41.5 41.5 40.38 41.5 39H40.5C40.5 40.76 41.81 42.22 43.5 42.46V44ZM32.5 36C30.29 36 28.5 34.21 28.5 32C28.5 29.79 30.29 28 32.5 28C32.97 28 33.42 28.08 33.84 28.23C33 29.26 32.5 30.57 32.5 32C32.5 33.43 33 34.74 33.84 35.77C33.42 35.92 32.97 36 32.5 36ZM30.61 37.13C29.29 38.05 28.5 39.57 28.5 41.22V44H24.5V41.22C24.5 40.1 25.11 39.07 26.11 38.56C27.35 37.92 28.87 37.37 30.61 37.13ZM34.5 32C34.5 29.79 36.29 28 38.5 28C40.71 28 42.5 29.79 42.5 32C42.5 34.21 40.71 36 38.5 36C36.29 36 34.5 34.21 34.5 32ZM36.5 32C36.5 33.1 37.4 34 38.5 34C39.6 34 40.5 33.1 40.5 32C40.5 30.9 39.6 30 38.5 30C37.4 30 36.5 30.9 36.5 32ZM38.5 39C36.13 39 34.21 39.73 33.02 40.34C32.7 40.5 32.5 40.84 32.5 41.22V42H39.67C40.17 42.86 40.92 43.56 41.82 44H30.5V41.22C30.5 40.1 31.11 39.07 32.11 38.56C33.79 37.7 35.97 37 38.5 37C38.89 37 39.27 37.02 39.64 37.05C39.31 37.64 39.09 38.31 39.02 39.01C38.85 39 38.68 39 38.5 39Z" fill="#8F8F8F"/>
</g>
<rect x="0.5" y="0.5" width="71" height="71" rx="4.5" stroke="#7B61FF" stroke-dasharray="10 5"/>
<defs>
<clipPath id="clip0_256_16983">
<rect width="72" height="72" rx="5" fill="white"/>
</clipPath>
</defs>
</svg>
