<svg width="71" height="72" viewBox="0 0 71 72" fill="none" xmlns="http://www.w3.org/2000/svg">
<rect x="0.5" y="0.5" width="70" height="71" rx="4.5" stroke="#7B61FF" stroke-dasharray="10 5"/>
<path d="M45.8996 44.89L27.5196 26.51L26.0996 27.92L30.2996 32.12C29.2996 33.43 28.6996 35.06 28.6996 36.82C28.7096 41.18 32.2896 44.7 36.7096 44.7C38.4596 44.7 40.0696 44.14 41.3796 43.2L44.4796 46.3L45.8996 44.89ZM36.7096 42.7C33.3996 42.7 30.7096 40.07 30.7096 36.83C30.7096 35.64 31.0696 34.51 31.7296 33.55L36.7096 38.53V42.7ZM33.0896 29.26L36.7096 25.7L42.3596 31.26C43.8096 32.69 44.7096 34.66 44.7096 36.83C44.7096 38.01 44.4396 39.12 43.9696 40.13L36.7096 32.87V28.51L34.5096 30.67L33.0896 29.26Z" fill="#8F8F8F"/>
</svg>
