<svg width="74" height="72" viewBox="0 0 74 72" fill="none" xmlns="http://www.w3.org/2000/svg">
<rect x="0.5" y="0.5" width="73" height="71" rx="4.5" stroke="#7B61FF" stroke-dasharray="10 5"/>
<path d="M28.25 30H30.25V33H40.25V30H42.25V35H44.25V30C44.25 28.9 43.35 28 42.25 28H38.07C37.65 26.84 36.55 26 35.25 26C33.95 26 32.85 26.84 32.43 28H28.25C27.15 28 26.25 28.9 26.25 30V44C26.25 45.1 27.15 46 28.25 46H34.25V44H28.25V30ZM35.25 28C35.8 28 36.25 28.45 36.25 29C36.25 29.55 35.8 30 35.25 30C34.7 30 34.25 29.55 34.25 29C34.25 28.45 34.7 28 35.25 28Z" fill="#8F8F8F"/>
<path d="M44.25 36.5L38.76 42L35.75 39L34.25 40.5L38.76 45L45.75 38L44.25 36.5Z" fill="#8F8F8F"/>
</svg>
