<svg width="72" height="72" viewBox="0 0 72 72" fill="none" xmlns="http://www.w3.org/2000/svg">
<rect x="0.5" y="0.5" width="71" height="71" rx="4.5" stroke="#7B61FF" stroke-dasharray="10 5"/>
<path d="M36.5 38V37H38V37.5H40V36.5H37.5C36.95 36.5 36.5 36.05 36.5 35.5V34C36.5 33.45 36.95 33 37.5 33H40.5C41.05 33 41.5 33.45 41.5 34V35H40V34.5H38V35.5H40.5C41.05 35.5 41.5 35.95 41.5 36.5V38C41.5 38.55 41.05 39 40.5 39H37.5C36.95 39 36.5 38.55 36.5 38ZM33.5 33V37.5H32V36.5H30.5V37.5C30.5 38.33 31.17 39 32 39H33.5C34.33 39 35 38.33 35 37.5V33C35 33 34.33 33 33.5 33Z" fill="#8F8F8F"/>
</svg>
