<svg width="77" height="72" viewBox="0 0 77 72" fill="none" xmlns="http://www.w3.org/2000/svg">
<rect x="0.5" y="0.5" width="76" height="71" rx="4.5" stroke="#7B61FF" stroke-dasharray="10 5"/>
<path d="M36 41.74C37.6569 41.74 39 39.1701 39 36C39 32.8299 37.6569 30.26 36 30.26C34.3431 30.26 33 32.8299 33 36C33 39.1701 34.3431 41.74 36 41.74Z" fill="#8F8F8F"/>
<path d="M33.04 40.87C32.71 40.95 32.36 41 32 41C29.24 41 27 38.76 27 36C27 33.24 29.24 31 32 31C32.36 31 32.71 31.05 33.04 31.13C33.43 30.57 33.92 30.01 34.53 29.5C33.75 29.19 32.9 29 32 29C28.14 29 25 32.14 25 36C25 39.86 28.14 43 32 43C32.9 43 33.75 42.81 34.53 42.5C33.92 41.99 33.43 41.43 33.04 40.87Z" fill="#8F8F8F"/>
<path d="M40 29C39.1 29 38.25 29.19 37.47 29.5C38.08 30.01 38.57 30.57 38.96 31.13C39.29 31.05 39.64 31 40 31C42.76 31 45 33.24 45 36C45 38.76 42.76 41 40 41C39.64 41 39.29 40.95 38.96 40.87C38.57 41.43 38.08 41.99 37.47 42.5C38.25 42.81 39.1 43 40 43C43.86 43 47 39.86 47 36C47 32.14 43.86 29 40 29Z" fill="#8F8F8F"/>
</svg>
