<svg width="72" height="72" viewBox="0 0 72 72" fill="none" xmlns="http://www.w3.org/2000/svg">
<g clip-path="url(#clip0_256_17377)">
<path d="M45 34H36.65C35.83 31.67 33.61 30 31 30C27.69 30 25 32.69 25 36C25 39.31 27.69 42 31 42C33.61 42 35.83 40.33 36.65 38H37L39 40L41 38L43 40L47 35.96L45 34ZM31 39C29.35 39 28 37.65 28 36C28 34.35 29.35 33 31 33C32.65 33 34 34.35 34 36C34 37.65 32.65 39 31 39Z" fill="#8F8F8F"/>
</g>
<rect x="0.5" y="0.5" width="71" height="71" rx="4.5" stroke="#7B61FF" stroke-dasharray="10 5"/>
<defs>
<clipPath id="clip0_256_17377">
<rect width="72" height="72" rx="5" fill="white"/>
</clipPath>
</defs>
</svg>
