<svg width="69" height="72" viewBox="0 0 69 72" fill="none" xmlns="http://www.w3.org/2000/svg">
<rect x="0.5" y="0.5" width="68" height="71" rx="4.5" stroke="#7B61FF" stroke-dasharray="10 5"/>
<path d="M34.2 36.825L32.49 35.115C32.5 35.175 32.5 35.235 32.5 35.295C32.5 36.395 31.6 37.295 30.5 37.295C29.4 37.295 28.5 36.395 28.5 35.295C28.5 34.195 29.4 33.295 30.5 33.295C30.56 33.295 30.62 33.295 30.68 33.305L28.97 31.595C27.52 32.195 26.5 33.625 26.5 35.295C26.5 37.505 28.29 39.295 30.5 39.295C32.17 39.295 33.6 38.275 34.2 36.825ZM35.69 38.315C34.65 40.095 32.71 41.295 30.5 41.295C27.19 41.295 24.5 38.605 24.5 35.295C24.5 33.085 25.7 31.145 27.48 30.105L24.89 27.515L26.3 26.105L44.68 44.485L43.27 45.895L35.69 38.315ZM39.76 36.725L41 35.795L42.81 37.155L44.67 35.295L43.67 34.295H37.33L35.33 32.295H44.5L47.5 35.295L43 39.795L42.31 39.285L39.76 36.725Z" fill="#8F8F8F"/>
</svg>
