<svg width="72" height="72" viewBox="0 0 72 72" fill="none" xmlns="http://www.w3.org/2000/svg">
<rect x="0.5" y="0.5" width="71" height="71" rx="4.5" stroke="#7B61FF" stroke-dasharray="10 5"/>
<path d="M40 31.19L43.55 36.19L41.92 38.48L43.35 39.91L46 36.19L41.63 30.03C41.27 29.52 40.67 29.19 40 29.19L32.63 29.2L34.63 31.19H40ZM26 28.22L27.58 29.8C27.22 30.15 27 30.65 27 31.19V41.19C27 42.29 27.9 43.18 29 43.18L40 43.19C40.28 43.19 40.55 43.12 40.79 43.01L42.97 45.19L44.38 43.78L27.41 26.81L26 28.22ZM38.97 41.19H29V31.22L38.97 41.19Z" fill="#8F8F8F"/>
</svg>
