<svg width="72" height="72" viewBox="0 0 72 72" fill="none" xmlns="http://www.w3.org/2000/svg">
<rect x="0.5" y="0.5" width="71" height="71" rx="4.5" stroke="#7B61FF" stroke-dasharray="10 5"/>
<path d="M35.99 26C30.47 26 26 30.48 26 36C26 41.52 30.47 46 35.99 46C41.52 46 46 41.52 46 36C46 30.48 41.52 26 35.99 26ZM42.92 32H39.97C39.65 30.75 39.19 29.55 38.59 28.44C40.43 29.07 41.96 30.35 42.92 32ZM36 28.04C36.83 29.24 37.48 30.57 37.91 32H34.09C34.52 30.57 35.17 29.24 36 28.04ZM28.26 38C28.1 37.36 28 36.69 28 36C28 35.31 28.1 34.64 28.26 34H31.64C31.56 34.66 31.5 35.32 31.5 36C31.5 36.68 31.56 37.34 31.64 38H28.26ZM29.08 40H32.03C32.35 41.25 32.81 42.45 33.41 43.56C31.57 42.93 30.04 41.66 29.08 40ZM32.03 32H29.08C30.04 30.34 31.57 29.07 33.41 28.44C32.81 29.55 32.35 30.75 32.03 32ZM36 43.96C35.17 42.76 34.52 41.43 34.09 40H37.91C37.48 41.43 36.83 42.76 36 43.96ZM38.34 38H33.66C33.57 37.34 33.5 36.68 33.5 36C33.5 35.32 33.57 34.65 33.66 34H38.34C38.43 34.65 38.5 35.32 38.5 36C38.5 36.68 38.43 37.34 38.34 38ZM38.59 43.56C39.19 42.45 39.65 41.25 39.97 40H42.92C41.96 41.65 40.43 42.93 38.59 43.56ZM40.36 38C40.44 37.34 40.5 36.68 40.5 36C40.5 35.32 40.44 34.66 40.36 34H43.74C43.9 34.64 44 35.31 44 36C44 36.69 43.9 37.36 43.74 38H40.36Z" fill="#8F8F8F"/>
</svg>
