<svg width="72" height="72" viewBox="0 0 72 72" fill="none" xmlns="http://www.w3.org/2000/svg">
<rect x="0.5" y="0.5" width="71" height="71" rx="4.5" stroke="#7B61FF" stroke-dasharray="10 5"/>
<path d="M30 27H27V30C28.66 30 30 28.66 30 27ZM38 27H36C36 31.97 31.97 36 27 36V38C33.08 38 38 33.07 38 27ZM34 27H32C32 29.76 29.76 32 27 32V34C30.87 34 34 30.87 34 27ZM34 45H36C36 40.03 40.03 36 45 36V34C38.93 34 34 38.93 34 45ZM42 45H45V42C43.34 42 42 43.34 42 45ZM38 45H40C40 42.24 42.24 40 45 40V38C41.13 38 38 41.13 38 45Z" fill="#8F8F8F"/>
</svg>
