<svg width="72" height="72" viewBox="0 0 72 72" fill="none" xmlns="http://www.w3.org/2000/svg">
<rect x="0.5" y="0.5" width="71" height="71" rx="4.5" stroke="#7B61FF" stroke-dasharray="10 5"/>
<path d="M37.9297 27.0702H35.9297C35.9297 28.4202 35.6197 29.7002 35.0897 30.8402L36.5797 32.3302C37.4397 30.7702 37.9297 28.9802 37.9297 27.0702ZM44.9297 36.0702V34.0702C43.0197 34.0702 41.2297 34.5602 39.6597 35.4202L41.1497 36.9102C42.2997 36.3802 43.5797 36.0702 44.9297 36.0702ZM44.9297 40.0702V38.0702C44.1397 38.0702 43.3897 38.2002 42.6897 38.4402L44.3697 40.1202C44.5597 40.1102 44.7397 40.0702 44.9297 40.0702ZM33.9297 27.0702H31.9297C31.9297 27.2602 31.8897 27.4402 31.8697 27.6302L33.5497 29.3102C33.7997 28.6102 33.9297 27.8502 33.9297 27.0702ZM28.3397 26.9302L26.9297 28.3402L29.7697 31.1802C28.9597 31.7402 27.9897 32.0702 26.9297 32.0702V34.0702C28.5397 34.0702 30.0197 33.5202 31.1997 32.6102L32.6297 34.0402C31.0697 35.3102 29.0897 36.0702 26.9297 36.0702V38.0702C29.6497 38.0702 32.1297 37.0802 34.0397 35.4502L36.5497 37.9602C34.9197 39.8802 33.9297 42.3602 33.9297 45.0702H35.9297C35.9297 42.9102 36.6897 40.9302 37.9597 39.3702L39.3897 40.8002C38.4797 41.9802 37.9297 43.4602 37.9297 45.0702H39.9297C39.9297 44.0102 40.2597 43.0402 40.8197 42.2302L43.6597 45.0702L45.0697 43.6602L28.3397 26.9302Z" fill="#8F8F8F"/>
</svg>
