<svg width="75" height="72" viewBox="0 0 75 72" fill="none" xmlns="http://www.w3.org/2000/svg">
<rect x="0.5" y="0.5" width="74" height="71" rx="4.5" stroke="#7B61FF" stroke-dasharray="10 5"/>
<path d="M44 26H32C30.9 26 30 26.9 30 28V40C30 41.1 30.9 42 32 42H44C45.1 42 46 41.1 46 40V28C46 26.9 45.1 26 44 26ZM44 40H32V28H44V40ZM36.5 39C37.88 39 39 37.88 39 36.5V31H42V29H38V34.51C37.58 34.19 37.07 34 36.5 34C35.12 34 34 35.12 34 36.5C34 37.88 35.12 39 36.5 39ZM28 30H26V44C26 45.1 26.9 46 28 46H42V44H28V30Z" fill="#8F8F8F"/>
</svg>
