<svg width="72" height="72" viewBox="0 0 72 72" fill="none" xmlns="http://www.w3.org/2000/svg">
<rect x="0.5" y="0.5" width="71" height="71" rx="4.5" stroke="#7B61FF" stroke-dasharray="10 5"/>
<path d="M36 26C30.48 26 26 30.48 26 36C26 41.52 30.48 46 36 46C41.52 46 46 41.52 46 36C46 30.48 41.52 26 36 26ZM36 44C31.59 44 28 40.41 28 36C28 31.59 31.59 28 36 28C40.41 28 44 31.59 44 36C44 40.41 40.41 44 36 44Z" fill="#8F8F8F"/>
<path d="M36 43C36.83 43 37.5 42.33 37.5 41.5H34.5C34.5 42.33 35.17 43 36 43Z" fill="#8F8F8F"/>
<path d="M39 39H33V40.5H39V39Z" fill="#8F8F8F"/>
<path d="M36 29C33.24 29 31 31.24 31 34C31 35.64 31.8 37.09 33.03 38H38.98C40.2 37.09 41 35.64 41 34C41 31.24 38.76 29 36 29ZM38.43 36.5H33.57C32.89 35.84 32.5 34.95 32.5 34C32.5 32.07 34.07 30.5 36 30.5C37.93 30.5 39.5 32.07 39.5 34C39.5 34.95 39.11 35.84 38.43 36.5Z" fill="#8F8F8F"/>
</svg>
