<svg width="72" height="72" viewBox="0 0 72 72" fill="none" xmlns="http://www.w3.org/2000/svg">
<rect x="0.5" y="0.5" width="71" height="71" rx="4.5" stroke="#7B61FF" stroke-dasharray="10 5"/>
<path d="M36 33C37.65 33 39 34.35 39 36C39 37.65 37.65 39 36 39C34.35 39 33 37.65 33 36C33 34.35 34.35 33 36 33ZM36 31C33.24 31 31 33.24 31 36C31 38.76 33.24 41 36 41C38.76 41 41 38.76 41 36C41 33.24 38.76 31 36 31ZM26 37H28C28.55 37 29 36.55 29 36C29 35.45 28.55 35 28 35H26C25.45 35 25 35.45 25 36C25 36.55 25.45 37 26 37ZM44 37H46C46.55 37 47 36.55 47 36C47 35.45 46.55 35 46 35H44C43.45 35 43 35.45 43 36C43 36.55 43.45 37 44 37ZM35 26V28C35 28.55 35.45 29 36 29C36.55 29 37 28.55 37 28V26C37 25.45 36.55 25 36 25C35.45 25 35 25.45 35 26ZM35 44V46C35 46.55 35.45 47 36 47C36.55 47 37 46.55 37 46V44C37 43.45 36.55 43 36 43C35.45 43 35 43.45 35 44ZM29.99 28.58C29.6 28.19 28.96 28.19 28.58 28.58C28.19 28.97 28.19 29.61 28.58 29.99L29.64 31.05C30.03 31.44 30.67 31.44 31.05 31.05C31.43 30.66 31.44 30.02 31.05 29.64L29.99 28.58ZM42.36 40.95C41.97 40.56 41.33 40.56 40.95 40.95C40.56 41.34 40.56 41.98 40.95 42.36L42.01 43.42C42.4 43.81 43.04 43.81 43.42 43.42C43.81 43.03 43.81 42.39 43.42 42.01L42.36 40.95ZM43.42 29.99C43.81 29.6 43.81 28.96 43.42 28.58C43.03 28.19 42.39 28.19 42.01 28.58L40.95 29.64C40.56 30.03 40.56 30.67 40.95 31.05C41.34 31.43 41.98 31.44 42.36 31.05L43.42 29.99ZM31.05 42.36C31.44 41.97 31.44 41.33 31.05 40.95C30.66 40.56 30.02 40.56 29.64 40.95L28.58 42.01C28.19 42.4 28.19 43.04 28.58 43.42C28.97 43.8 29.61 43.81 29.99 43.42L31.05 42.36Z" fill="#8F8F8F"/>
</svg>
