<svg width="74" height="72" viewBox="0 0 74 72" fill="none" xmlns="http://www.w3.org/2000/svg">
<rect x="0.5" y="0.5" width="73" height="71" rx="4.5" stroke="#7B61FF" stroke-dasharray="10 5"/>
<path d="M38.39 35.065L40 36.675V35.065H38.39ZM41 31.065H37V32.965H41C42.71 32.965 44.1 34.355 44.1 36.065C44.1 37.335 43.33 38.435 42.23 38.905L43.63 40.305C45.05 39.425 46 37.855 46 36.065C46 33.305 43.76 31.065 41 31.065ZM26 28.335L29.11 31.445C27.29 32.185 26 33.975 26 36.065C26 38.825 28.24 41.065 31 41.065H35V39.165H31C29.29 39.165 27.9 37.775 27.9 36.065C27.9 34.475 29.11 33.165 30.66 32.995L32.73 35.065H32V37.065H34.73L37 39.335V41.065H38.73L42.74 45.075L44.15 43.665L27.41 26.925L26 28.335Z" fill="#8F8F8F"/>
</svg>
