<svg width="72" height="72" viewBox="0 0 72 72" fill="none" xmlns="http://www.w3.org/2000/svg">
<rect x="0.5" y="0.5" width="71" height="71" rx="4.5" stroke="#7B61FF" stroke-dasharray="10 5"/>
<path d="M44 33V44H28V32H32.05L33.88 30H39V28H33L31.17 30H28C26.9 30 26 30.9 26 32V44C26 45.1 26.9 46 28 46H44C45.1 46 46 45.1 46 44V33H44ZM44.67 31.99H46C45.99 28.68 43.31 26 40 26V27.33C42.58 27.33 44.66 29.41 44.67 31.99ZM42 31.99H43.33C43.32 30.15 41.84 28.67 40 28.67V30C41.11 30 41.99 30.89 42 31.99ZM31 38C31 40.76 33.24 43 36 43C38.76 43 41 40.76 41 38C41 35.24 38.76 33 36 33C33.24 33 31 35.24 31 38ZM39 38C39 39.65 37.65 41 36 41C34.35 41 33 39.65 33 38C33 36.35 34.35 35 36 35C37.65 35 39 36.34 39 38Z" fill="#8F8F8F"/>
</svg>
