<svg width="72" height="72" viewBox="0 0 72 72" fill="none" xmlns="http://www.w3.org/2000/svg">
<rect x="0.5" y="0.5" width="71" height="71" rx="4.5" stroke="#7B61FF" stroke-dasharray="10 5"/>
<path d="M43 25.5H29C27.89 25.5 27 26.4 27 27.5V41.5C27 42.6 27.89 43.5 29 43.5H33L36 46.5L39 43.5H43C44.1 43.5 45 42.6 45 41.5V27.5C45 26.4 44.1 25.5 43 25.5ZM43 41.5H38.17L36 43.67L33.83 41.5H29V27.5H43V41.5ZM35 38.5H37V40.5H35V38.5ZM36 30.5C37.1 30.5 38 31.4 38 32.5C38 34.5 35 34.25 35 37.5H37C37 35.25 40 35 40 32.5C40 30.29 38.21 28.5 36 28.5C33.79 28.5 32 30.29 32 32.5H34C34 31.4 34.9 30.5 36 30.5Z" fill="#8F8F8F"/>
</svg>
