<svg width="72" height="72" viewBox="0 0 72 72" fill="none" xmlns="http://www.w3.org/2000/svg">
<rect x="0.5" y="0.5" width="71" height="71" rx="4.5" stroke="#7B61FF" stroke-dasharray="10 5"/>
<path d="M44.94 35C44.48 30.83 41.17 27.52 37 27.06V25H35V27.06C30.83 27.52 27.52 30.83 27.06 35H25V37H27.06C27.52 41.17 30.83 44.48 35 44.94V47H37V44.94C41.17 44.48 44.48 41.17 44.94 37H47V35H44.94ZM36 43C32.13 43 29 39.87 29 36C29 32.13 32.13 29 36 29C39.87 29 43 32.13 43 36C43 39.87 39.87 43 36 43Z" fill="#8F8F8F"/>
</svg>
