<svg width="75" height="72" viewBox="0 0 75 72" fill="none" xmlns="http://www.w3.org/2000/svg">
<rect x="0.5" y="0.5" width="74" height="71" rx="4.5" stroke="#7B61FF" stroke-dasharray="10 5"/>
<path d="M36.9297 28C39.6897 28 41.9297 30.24 41.9297 33C41.9297 34.06 41.5397 35.32 40.9297 36.62L42.4197 38.11C43.2997 36.36 43.9297 34.57 43.9297 33C43.9297 29.13 40.7997 26 36.9297 26C35.0897 26 33.4297 26.71 32.1797 27.86L33.6097 29.29C34.4897 28.5 35.6497 28 36.9297 28ZM36.9297 30.5C36.3397 30.5 35.7997 30.71 35.3697 31.06L38.8697 34.56C39.2197 34.13 39.4297 33.59 39.4297 33C39.4297 31.62 38.3097 30.5 36.9297 30.5ZM28.3397 26.86L26.9297 28.27L30.1097 31.45C29.9997 31.95 29.9297 32.47 29.9297 33C29.9297 38.25 36.9297 46 36.9297 46C36.9297 46 38.5997 44.15 40.3097 41.65L43.6597 45L45.0697 43.59L28.3397 26.86ZM36.9297 42.88C34.9197 40.3 32.1297 36.14 31.9497 33.29L38.8697 40.21C38.2197 41.19 37.5397 42.1 36.9297 42.88Z" fill="#8F8F8F"/>
</svg>
