<svg width="74" height="72" viewBox="0 0 74 72" fill="none" xmlns="http://www.w3.org/2000/svg">
<rect x="0.5" y="0.5" width="73" height="71" rx="4.5" stroke="#7B61FF" stroke-dasharray="10 5"/>
<path d="M36 26C32.13 26 29 29.13 29 33C29 38.25 36 46 36 46C36 46 43 38.25 43 33C43 29.13 39.87 26 36 26ZM31 33C31 30.24 33.24 28 36 28C38.76 28 41 30.24 41 33C41 35.88 38.12 40.19 36 42.88C33.92 40.21 31 35.85 31 33Z" fill="#8F8F8F"/>
<path d="M36 35.5C37.3807 35.5 38.5 34.3807 38.5 33C38.5 31.6193 37.3807 30.5 36 30.5C34.6193 30.5 33.5 31.6193 33.5 33C33.5 34.3807 34.6193 35.5 36 35.5Z" fill="#8F8F8F"/>
</svg>
