<svg width="72" height="72" viewBox="0 0 72 72" fill="none" xmlns="http://www.w3.org/2000/svg">
<rect x="0.5" y="0.5" width="71" height="71" rx="4.5" stroke="#7B61FF" stroke-dasharray="10 5"/>
<path d="M37.6209 27C32.6509 27 28.6209 31.03 28.6209 36C28.6209 36.06 28.6309 36.12 28.6309 36.19L26.7909 34.35L25.3809 35.76L29.6209 40L33.8609 35.76L32.4509 34.35L30.6309 36.17C30.6309 36.11 30.6209 36.06 30.6209 36C30.6209 32.14 33.7609 29 37.6209 29C41.4809 29 44.6209 32.14 44.6209 36C44.6209 39.86 41.4809 43 37.6209 43C35.7209 43 34.0009 42.24 32.7409 41.01L31.3209 42.42C32.9409 44.01 35.1709 45 37.6209 45C42.5909 45 46.6209 40.97 46.6209 36C46.6209 31.03 42.5909 27 37.6209 27ZM39.6209 35V34C39.6209 32.9 38.7209 32 37.6209 32C36.5209 32 35.6209 32.9 35.6209 34V35C35.0709 35 34.6209 35.45 34.6209 36V39C34.6209 39.55 35.0709 40 35.6209 40H39.6209C40.1709 40 40.6209 39.55 40.6209 39V36C40.6209 35.45 40.1709 35 39.6209 35ZM38.6209 35H36.6209V34C36.6209 33.45 37.0709 33 37.6209 33C38.1709 33 38.6209 33.45 38.6209 34V35Z" fill="#8F8F8F"/>
</svg>
