<svg width="70" height="72" viewBox="0 0 70 72" fill="none" xmlns="http://www.w3.org/2000/svg">
<rect x="0.5" y="0.5" width="69" height="71" rx="4.5" stroke="#7B61FF" stroke-dasharray="10 5"/>
<path d="M28.5 44V34H40.5V35C41.2 35 41.87 35.1 42.5 35.29V34C42.5 32.9 41.6 32 40.5 32H39.5V30C39.5 27.24 37.26 25 34.5 25C31.74 25 29.5 27.24 29.5 30V32H28.5C27.4 32 26.5 32.9 26.5 34V44C26.5 45.1 27.4 46 28.5 46H34.76C34.34 45.4 34.01 44.72 33.79 44H28.5ZM31.5 30C31.5 28.34 32.84 27 34.5 27C36.16 27 37.5 28.34 37.5 30V32H31.5V30Z" fill="#8F8F8F"/>
<path d="M40.5 37C37.74 37 35.5 39.24 35.5 42C35.5 44.76 37.74 47 40.5 47C43.26 47 45.5 44.76 45.5 42C45.5 39.24 43.26 37 40.5 37ZM40.5 39C41.33 39 42 39.67 42 40.5C42 41.33 41.33 42 40.5 42C39.67 42 39 41.33 39 40.5C39 39.67 39.67 39 40.5 39ZM40.5 45C39.47 45 38.56 44.48 38.02 43.68C38.75 43.26 39.59 43 40.5 43C41.41 43 42.25 43.26 42.98 43.68C42.44 44.48 41.53 45 40.5 45Z" fill="#8F8F8F"/>
</svg>
