<svg width="70" height="72" viewBox="0 0 70 72" fill="none" xmlns="http://www.w3.org/2000/svg">
<rect x="0.5" y="0.5" width="69" height="71" rx="4.5" stroke="#7B61FF" stroke-dasharray="10 5"/>
<path d="M28.5 44V34H40.5V35C41.2 35 41.87 35.1 42.5 35.29V34C42.5 32.9 41.6 32 40.5 32H39.5V30C39.5 27.24 37.26 25 34.5 25C31.74 25 29.5 27.24 29.5 30V32H28.5C27.4 32 26.5 32.9 26.5 34V44C26.5 45.1 27.4 46 28.5 46H34.76C34.34 45.4 34.01 44.72 33.79 44H28.5ZM31.5 30C31.5 28.34 32.84 27 34.5 27C36.16 27 37.5 28.34 37.5 30V32H31.5V30Z" fill="#8F8F8F"/>
<path d="M40.5 37C37.74 37 35.5 39.24 35.5 42C35.5 44.76 37.74 47 40.5 47C43.26 47 45.5 44.76 45.5 42C45.5 39.24 43.26 37 40.5 37ZM42.15 44.35L40 42.2V39H41V41.79L42.85 43.64L42.15 44.35Z" fill="#8F8F8F"/>
</svg>
