<svg width="77" height="72" viewBox="0 0 77 72" fill="none" xmlns="http://www.w3.org/2000/svg">
<rect x="0.5" y="0.5" width="76" height="71" rx="4.5" stroke="#7B61FF" stroke-dasharray="10 5"/>
<path d="M42 32.5H41V30.5C41 27.74 38.76 25.5 36 25.5C33.24 25.5 31 27.74 31 30.5H33C33 28.84 34.34 27.5 36 27.5C37.66 27.5 39 28.84 39 30.5V32.5H30C28.9 32.5 28 33.4 28 34.5V44.5C28 45.6 28.9 46.5 30 46.5H42C43.1 46.5 44 45.6 44 44.5V34.5C44 33.4 43.1 32.5 42 32.5ZM42 44.5H30V34.5H42V44.5ZM36 41.5C37.1 41.5 38 40.6 38 39.5C38 38.4 37.1 37.5 36 37.5C34.9 37.5 34 38.4 34 39.5C34 40.6 34.9 41.5 36 41.5Z" fill="#8F8F8F"/>
</svg>
