<svg width="72" height="72" viewBox="0 0 72 72" fill="none" xmlns="http://www.w3.org/2000/svg">
<rect x="0.5" y="0.5" width="71" height="71" rx="4.5" stroke="#7B61FF" stroke-dasharray="10 5"/>
<path d="M43 27H29C27.9 27 27 27.9 27 29V43C27 44.1 27.9 45 29 45H43C44.1 45 45 44.1 45 43V29C45 27.9 44.1 27 43 27ZM43 43H29V29H43V43ZM39 39V37.5C39 36.67 38.33 36 37.5 36C38.33 36 39 35.33 39 34.5V33C39 31.89 38.1 31 37 31H33V33H37V35H35V37H37V39H33V41H37C38.1 41 39 40.11 39 39Z" fill="#8F8F8F"/>
</svg>
