<svg width="75" height="72" viewBox="0 0 75 72" fill="none" xmlns="http://www.w3.org/2000/svg">
<rect x="0.5" y="0.5" width="74" height="71" rx="4.5" stroke="#7B61FF" stroke-dasharray="10 5"/>
<path d="M36 28V25L32 29L36 33V30C39.31 30 42 32.69 42 36C42 37.01 41.75 37.97 41.3 38.8L42.76 40.26C43.54 39.03 44 37.57 44 36C44 31.58 40.42 28 36 28ZM36 42C32.69 42 30 39.31 30 36C30 34.99 30.25 34.03 30.7 33.2L29.24 31.74C28.46 32.97 28 34.43 28 36C28 40.42 31.58 44 36 44V47L40 43L36 39V42Z" fill="#8F8F8F"/>
</svg>
