<svg width="72" height="72" viewBox="0 0 72 72" fill="none" xmlns="http://www.w3.org/2000/svg">
<rect x="0.5" y="0.5" width="71" height="71" rx="4.5" stroke="#7B61FF" stroke-dasharray="10 5"/>
<path d="M45.41 35.58L36.41 26.58C36.05 26.22 35.55 26 35 26H28C26.9 26 26 26.9 26 28V35C26 35.55 26.22 36.05 26.59 36.42L35.59 45.42C35.95 45.78 36.45 46 37 46C37.55 46 38.05 45.78 38.41 45.41L45.41 38.41C45.78 38.05 46 37.55 46 37C46 36.45 45.77 35.94 45.41 35.58ZM37 44.01L28 35V28H35V27.99L44 36.99L37 44.01Z" fill="#8F8F8F"/>
<path d="M30.5 32C31.3284 32 32 31.3284 32 30.5C32 29.6716 31.3284 29 30.5 29C29.6716 29 29 29.6716 29 30.5C29 31.3284 29.6716 32 30.5 32Z" fill="#8F8F8F"/>
<path d="M32.9 36.55C32.9 37.12 33.13 37.62 33.5 38L37 41.5L40.5 38C40.87 37.63 41.1 37.11 41.1 36.55C41.1 35.42 40.18 34.5 39.05 34.5C38.48 34.5 37.97 34.73 37.6 35.1L37 35.7L36.4 35.11C36.03 34.73 35.51 34.5 34.95 34.5C33.82 34.5 32.9 35.42 32.9 36.55Z" fill="#8F8F8F"/>
</svg>
