<svg width="70" height="72" viewBox="0 0 70 72" fill="none" xmlns="http://www.w3.org/2000/svg">
<rect x="0.5" y="0.5" width="69" height="71" rx="4.5" stroke="#7B61FF" stroke-dasharray="10 5"/>
<path d="M45.2759 40.87L46.4159 39.87L45.4159 38.14L43.9659 38.63C43.6459 38.36 43.2859 38.15 42.8859 38L42.5859 36.5H40.5859L40.2859 37.99C39.8859 38.14 39.5259 38.35 39.2059 38.62L37.7559 38.13L36.7559 39.86L37.8959 40.86C37.8159 41.36 37.8159 41.62 37.8959 42.12L36.7559 43.12L37.7559 44.85L39.2059 44.36C39.5259 44.63 39.8859 44.84 40.2859 44.99L40.5859 46.5H42.5859L42.8859 45.01C43.2859 44.86 43.6459 44.65 43.9659 44.38L45.4159 44.87L46.4159 43.14L45.2759 42.14C45.3559 41.63 45.3559 41.37 45.2759 40.87ZM41.5859 43.5C40.4859 43.5 39.5859 42.6 39.5859 41.5C39.5859 40.4 40.4859 39.5 41.5859 39.5C42.6859 39.5 43.5859 40.4 43.5859 41.5C43.5859 42.6 42.6859 43.5 41.5859 43.5ZM33.5859 29.5V34.91L35.9459 37.27L36.9859 35.48L35.5859 34.09V29.5H33.5859ZM43.5859 34.5C43.5859 29.53 39.5559 25.5 34.5859 25.5C31.7559 25.5 29.2359 26.82 27.5859 28.86V26.5H25.5859V32.5H31.5859V30.5H28.8459C30.1159 28.69 32.2159 27.5 34.5859 27.5C38.4459 27.5 41.5859 30.64 41.5859 34.5H43.5859ZM33.4459 41.41C30.4559 40.92 28.0959 38.51 27.6659 35.5H25.6459C26.1459 40 29.9559 43.5 34.5859 43.5C34.6059 43.5 34.6359 43.5 34.6559 43.5L33.4459 41.41Z" fill="#8F8F8F"/>
</svg>
