<svg width="72" height="72" viewBox="0 0 72 72" fill="none" xmlns="http://www.w3.org/2000/svg">
<rect x="0.5" y="0.5" width="71" height="71" rx="4.5" stroke="#7B61FF" stroke-dasharray="10 5"/>
<path d="M28.0859 41.5V40.85C28.0859 40.51 28.2459 40.19 28.4959 40.04C30.1859 39.03 32.1159 38.5 34.0859 38.5C34.1159 38.5 34.1359 38.5 34.1659 38.51C34.2659 37.81 34.4659 37.14 34.7559 36.53C34.5359 36.51 34.3159 36.5 34.0859 36.5C31.6659 36.5 29.4059 37.17 27.4759 38.32C26.5959 38.84 26.0859 39.82 26.0859 40.85V43.5H35.3459C34.9259 42.9 34.5959 42.22 34.3759 41.5H28.0859Z" fill="#8F8F8F"/>
<path d="M34.0859 35.5C36.2959 35.5 38.0859 33.71 38.0859 31.5C38.0859 29.29 36.2959 27.5 34.0859 27.5C31.8759 27.5 30.0859 29.29 30.0859 31.5C30.0859 33.71 31.8759 35.5 34.0859 35.5ZM34.0859 29.5C35.1859 29.5 36.0859 30.4 36.0859 31.5C36.0859 32.6 35.1859 33.5 34.0859 33.5C32.9859 33.5 32.0859 32.6 32.0859 31.5C32.0859 30.4 32.9859 29.5 34.0859 29.5Z" fill="#8F8F8F"/>
<path d="M44.8359 39.5C44.8359 39.28 44.8059 39.08 44.7759 38.87L45.9159 37.86L44.9159 36.13L43.4659 36.62C43.1459 36.35 42.7859 36.14 42.3859 35.99L42.0859 34.5H40.0859L39.7859 35.99C39.3859 36.14 39.0259 36.35 38.7059 36.62L37.2559 36.13L36.2559 37.86L37.3959 38.87C37.3659 39.08 37.3359 39.28 37.3359 39.5C37.3359 39.72 37.3659 39.92 37.3959 40.13L36.2559 41.14L37.2559 42.87L38.7059 42.38C39.0259 42.65 39.3859 42.86 39.7859 43.01L40.0859 44.5H42.0859L42.3859 43.01C42.7859 42.86 43.1459 42.65 43.4659 42.38L44.9159 42.87L45.9159 41.14L44.7759 40.13C44.8059 39.92 44.8359 39.72 44.8359 39.5ZM41.0859 41.5C39.9859 41.5 39.0859 40.6 39.0859 39.5C39.0859 38.4 39.9859 37.5 41.0859 37.5C42.1859 37.5 43.0859 38.4 43.0859 39.5C43.0859 40.6 42.1859 41.5 41.0859 41.5Z" fill="#8F8F8F"/>
</svg>
