<svg width="69" height="72" viewBox="0 0 69 72" fill="none" xmlns="http://www.w3.org/2000/svg">
<rect x="0.5" y="0.5" width="68" height="71" rx="4.5" stroke="#7B61FF" stroke-dasharray="10 5"/>
<path d="M46 31.98V41C46 42.1 45.1 43 44 43H30L26 47V29C26 27.9 26.9 27 28 27H38.1C38.04 27.32 38 27.66 38 28C38 28.34 38.04 28.68 38.1 29H28V41H44V32.9C44.74 32.75 45.42 32.42 46 31.98ZM40 28C40 29.66 41.34 31 43 31C44.66 31 46 29.66 46 28C46 26.34 44.66 25 43 25C41.34 25 40 26.34 40 28Z" fill="#8F8F8F"/>
</svg>
