<svg width="77" height="72" viewBox="0 0 77 72" fill="none" xmlns="http://www.w3.org/2000/svg">
<rect x="0.5" y="0.5" width="76" height="71" rx="4.5" stroke="#7B61FF" stroke-dasharray="10 5"/>
<path d="M40.23 31.5H42.83C42.77 31.03 42.47 30.56 42.04 30.33L34.5 26.5L26.8 30.33C26.32 30.59 26 31.14 26 31.67V39.5C26 40.6 26.9 41.5 28 41.5V31.9L34.5 28.5L40.23 31.5Z" fill="#8F8F8F"/>
<path d="M44 32.5H31C29.9 32.5 29 33.4 29 34.5V43.5C29 44.6 29.9 45.5 31 45.5H44C45.1 45.5 46 44.6 46 43.5V34.5C46 33.4 45.1 32.5 44 32.5ZM44 43.5H31V36.5L37.5 39.83L44 36.5V43.5ZM37.5 37.83L31 34.5H44L37.5 37.83Z" fill="#8F8F8F"/>
</svg>
