<svg width="72" height="72" viewBox="0 0 72 72" fill="none" xmlns="http://www.w3.org/2000/svg">
<rect x="0.5" y="0.5" width="71" height="71" rx="4.5" stroke="#7B61FF" stroke-dasharray="10 5"/>
<path d="M46 33.98V43C46 44.1 45.1 45 44 45H28C26.9 45 26 44.1 26 43L26.01 31C26.01 29.9 26.9 29 28 29H38.1C38.04 29.32 38 29.66 38 30C38 30.34 38.04 30.68 38.1 31H28L36 36L39.67 33.71C40.14 34.14 40.69 34.47 41.3 34.69L36 38L28 33V43H44V34.9C44.74 34.75 45.42 34.42 46 33.98ZM40 30C40 31.66 41.34 33 43 33C44.66 33 46 31.66 46 30C46 28.34 44.66 27 43 27C41.34 27 40 28.34 40 30Z" fill="#8F8F8F"/>
</svg>
