<svg width="72" height="72" viewBox="0 0 72 72" fill="none" xmlns="http://www.w3.org/2000/svg">
<rect x="0.5" y="0.5" width="71" height="71" rx="4.5" stroke="#7B61FF" stroke-dasharray="10 5"/>
<path d="M33.3053 29.465V26.295H39.3053V30.295H35.3053V31.465L33.3053 29.465ZM43.7253 38.295L46.3053 40.865L45.5053 41.665L38.7253 34.885L39.5253 34.085L42.2753 36.835V32.295H42.8753L46.3053 35.725L43.7253 38.295ZM43.4753 36.845L44.6053 35.715L43.4753 34.585V36.845ZM45.4953 44.485L44.0853 45.895L40.1053 41.915L39.5253 42.495L38.6753 41.645L39.2553 41.065L35.3053 37.125V40.295C35.3053 42.505 33.5253 44.295 31.3153 44.295C29.1053 44.295 27.3053 42.505 27.3053 40.295C27.3053 38.085 29.0953 36.295 31.3153 36.295C32.0453 36.295 32.7253 36.505 33.3153 36.845V35.125L25.6953 27.515L27.1053 26.105L45.4953 44.485Z" fill="#8F8F8F"/>
</svg>
