<svg width="73" height="72" viewBox="0 0 73 72" fill="none" xmlns="http://www.w3.org/2000/svg">
<rect x="0.5" y="0.5" width="72" height="71" rx="4.5" stroke="#7B61FF" stroke-dasharray="10 5"/>
<path d="M33 27L33.01 37.55C32.41 37.21 31.73 37 31.01 37C28.79 37 27 38.79 27 41C27 43.21 28.79 45 31.01 45C33.23 45 35 43.21 35 41V31H39V27H33ZM45 36.43L41.57 33H40.97V37.55L38.22 34.8L37.37 35.65L40.73 39L37.38 42.35L38.23 43.2L40.98 40.45V45H41.58L45 41.57L42.42 39L45 36.43ZM42.17 35.3L43.3 36.43L42.17 37.56V35.3ZM43.3 41.57L42.17 42.7V40.44L43.3 41.57Z" fill="#8F8F8F"/>
</svg>
