<svg width="72" height="72" viewBox="0 0 72 72" fill="none" xmlns="http://www.w3.org/2000/svg">
<rect x="0.5" y="0.5" width="71" height="71" rx="4.5" stroke="#7B61FF" stroke-dasharray="10 5"/>
<path d="M42 40L46 36L42 32V35H36.94C36.6 31.9 34.68 29.28 32 27.95C31.96 26.31 30.64 25 29 25C27.34 25 26 26.34 26 28C26 29.66 27.34 31 29 31C29.95 31 30.78 30.55 31.33 29.86C33.23 30.9 34.6 32.77 34.92 35H31.82C31.4 33.84 30.3 33 29 33C27.34 33 26 34.34 26 36C26 37.66 27.34 39 29 39C30.3 39 31.4 38.16 31.82 37H34.92C34.6 39.23 33.23 41.1 31.34 42.14C30.78 41.45 29.95 41 29 41C27.34 41 26 42.34 26 44C26 45.66 27.34 47 29 47C30.64 47 31.96 45.69 31.99 44.05C34.67 42.72 36.59 40.1 36.93 37H42V40Z" fill="#8F8F8F"/>
</svg>
