<svg width="72" height="72" viewBox="0 0 72 72" fill="none" xmlns="http://www.w3.org/2000/svg">
<rect x="0.5" y="0.5" width="71" height="71" rx="4.5" stroke="#7B61FF" stroke-dasharray="10 5"/>
<path d="M38.5 27H26.5V29H38.5V27Z" fill="#8F8F8F"/>
<path d="M25.5 45H39.5V30H25.5V45ZM28.5 36H31V33.5H34V36H36.5V39H34V41.5H31V39H28.5V36Z" fill="#8F8F8F"/>
<path d="M43.5 30C41.82 30 40.5 31.76 40.5 34C40.5 35.77 41.33 37.22 42.5 37.76V45H44.5V37.76C45.67 37.22 46.5 35.77 46.5 34C46.5 31.76 45.18 30 43.5 30Z" fill="#8F8F8F"/>
</svg>
