<svg width="72" height="72" viewBox="0 0 72 72" fill="none" xmlns="http://www.w3.org/2000/svg">
<g clip-path="url(#clip0_256_17008)">
<path d="M36 38.5C37.66 38.5 39 37.16 39 35.5V29.5C39 27.84 37.66 26.5 36 26.5C34.34 26.5 33 27.84 33 29.5V35.5C33 37.16 34.34 38.5 36 38.5ZM35 29.5C35 28.95 35.45 28.5 36 28.5C36.55 28.5 37 28.95 37 29.5V35.5C37 36.05 36.55 36.5 36 36.5C35.45 36.5 35 36.05 35 35.5V29.5ZM41 35.5C41 38.26 38.76 40.5 36 40.5C33.24 40.5 31 38.26 31 35.5H29C29 39.03 31.61 41.93 35 42.42V45.5H37V42.42C40.39 41.93 43 39.03 43 35.5H41Z" fill="#8F8F8F"/>
</g>
<rect x="0.5" y="0.5" width="71" height="71" rx="4.5" stroke="#7B61FF" stroke-dasharray="10 5"/>
<defs>
<clipPath id="clip0_256_17008">
<rect width="72" height="72" rx="5" fill="white"/>
</clipPath>
</defs>
</svg>
