<svg width="72" height="72" viewBox="0 0 72 72" fill="none" xmlns="http://www.w3.org/2000/svg">
<rect x="0.5" y="0.5" width="71" height="71" rx="4.5" stroke="#7B61FF" stroke-dasharray="10 5"/>
<path d="M34.7045 28.3398C34.7045 26.6798 33.3645 25.3398 31.7045 25.3398C31.0845 25.3398 30.5145 25.5298 30.0345 25.8398L34.1845 29.9898C34.5045 29.5198 34.7045 28.9498 34.7045 28.3398Z" fill="#8F8F8F"/>
<path d="M38.7045 29.3398C38.7045 28.2398 39.6045 27.3398 40.7045 27.3398C41.8045 27.3398 42.7045 28.2398 42.7045 29.3398V38.5098L44.7045 40.5098V29.3398C44.7045 27.1298 42.9145 25.3398 40.7045 25.3398C38.4945 25.3398 36.7045 27.1298 36.7045 29.3398V32.5098L38.7045 34.5098V29.3398Z" fill="#8F8F8F"/>
<path d="M26.8045 25.4398L25.3945 26.8498L29.8745 31.3398H28.7045L29.7045 41.3398H30.7045C30.7045 43.5498 32.4945 45.3398 34.7045 45.3398C36.9145 45.3398 38.7045 43.5498 38.7045 41.3398V40.1698L45.1945 46.6598L46.6045 45.2498L26.8045 25.4398ZM31.8945 39.3398H31.5145L30.9145 33.3398H31.8745L32.4345 33.8998L31.8945 39.3398ZM36.7045 41.3398C36.7045 42.4398 35.8045 43.3398 34.7045 43.3398C33.6045 43.3398 32.7045 42.4398 32.7045 41.3398H33.7045L34.2645 35.7298L36.7045 38.1698V41.3398Z" fill="#8F8F8F"/>
</svg>
