<svg width="72" height="72" viewBox="0 0 72 72" fill="none" xmlns="http://www.w3.org/2000/svg">
<rect x="0.5" y="0.5" width="71" height="71" rx="4.5" stroke="#7B61FF" stroke-dasharray="10 5"/>
<path d="M33.22 31C33.7 30.47 34 29.77 34 29C34 27.34 32.66 26 31 26C29.34 26 28 27.34 28 29C28 29.77 28.3 30.47 28.78 31H33.22Z" fill="#8F8F8F"/>
<path d="M40 26C37.79 26 36 27.79 36 30V42C36 43.1 35.1 44 34 44C32.9 44 32 43.1 32 42H33L34 32H28L29 42H30C30 44.21 31.79 46 34 46C36.21 46 38 44.21 38 42V30C38 28.9 38.9 28 40 28C41.1 28 42 28.9 42 30V46H44V30C44 27.79 42.21 26 40 26ZM31.19 40H30.81L30.21 34H31.79L31.19 40Z" fill="#8F8F8F"/>
</svg>
