<svg width="71" height="72" viewBox="0 0 71 72" fill="none" xmlns="http://www.w3.org/2000/svg">
<rect x="0.5" y="0.5" width="70" height="71" rx="4.5" stroke="#7B61FF" stroke-dasharray="10 5"/>
<path d="M34.7199 29.39C34.7199 28.73 35.2599 28.19 35.9199 28.19C36.5799 28.19 37.1199 28.73 37.1199 29.39L37.1099 33.3L38.9199 35.09V29.49C38.9199 27.83 37.5799 26.49 35.9199 26.49C34.3799 26.49 33.1299 27.65 32.9599 29.14L34.7199 30.9V29.39ZM42.9199 35.49H41.2199C41.2199 36.07 41.1199 36.62 40.9499 37.13L42.2199 38.4C42.6599 37.52 42.9199 36.53 42.9199 35.49ZM28.3299 27.35L26.9199 28.76L32.9199 34.76V35.49C32.9199 37.15 34.2599 38.49 35.9199 38.49C36.1499 38.49 36.3599 38.46 36.5699 38.41L38.2299 40.07C37.5199 40.4 36.7299 40.59 35.9199 40.59C33.1599 40.59 30.6199 38.49 30.6199 35.49H28.9199C28.9199 38.9 31.6399 41.72 34.9199 42.21V45.49H36.9199V42.21C37.8299 42.08 38.6899 41.76 39.4699 41.31L43.6699 45.51L45.0799 44.1L28.3299 27.35Z" fill="#8F8F8F"/>
</svg>
