<svg width="72" height="72" viewBox="0 0 72 72" fill="none" xmlns="http://www.w3.org/2000/svg">
<rect x="0.5" y="0.5" width="71" height="71" rx="4.5" stroke="#7B61FF" stroke-dasharray="10 5"/>
<path d="M41.1995 29V37.61L43.1995 39.61V27C43.1995 25.9 42.2995 25 41.1995 25H31.1995C30.4895 25 29.8695 25.37 29.5195 25.93L32.5895 29H41.1995ZM25.6895 27.76L29.1995 31.27V45C29.1995 46.1 30.0995 47 31.1995 47H41.1995C42.2195 47 43.0495 46.23 43.1795 45.25L44.8995 46.97L46.3095 45.56L27.0995 26.35L25.6895 27.76ZM31.1995 33.27L40.9295 43H31.1995V33.27Z" fill="#8F8F8F"/>
</svg>
