<svg width="72" height="72" viewBox="0 0 72 72" fill="none" xmlns="http://www.w3.org/2000/svg">
<rect x="0.5" y="0.5" width="71" height="71" rx="4.5" stroke="#7B61FF" stroke-dasharray="10 5"/>
<path d="M40.9959 25H30.9959C29.8959 25 29.0059 25.85 29.0059 26.95V44.95C29.0059 46.05 29.8959 47 30.9959 47H40.9959C42.0959 47 42.9959 46.05 42.9959 44.95V26.95C42.9959 25.85 42.0959 25 40.9959 25ZM40.9959 43H30.9959V29H40.9959V43ZM36.7959 37.24V38.99L39.9959 36L36.7959 33.02V34.72C33.6859 35.15 32.4459 37.28 31.9959 39.42C33.1059 37.92 34.5759 37.24 36.7959 37.24Z" fill="#8F8F8F"/>
</svg>
