<svg width="73" height="72" viewBox="0 0 73 72" fill="none" xmlns="http://www.w3.org/2000/svg">
<rect x="0.5" y="0.5" width="72" height="71" rx="4.5" stroke="#7B61FF" stroke-dasharray="10 5"/>
<path d="M33.5 28C37.91 28 41.5 31.59 41.5 36C41.5 40.41 37.91 44 33.5 44C33.16 44 32.82 43.98 32.49 43.93C34.4 41.77 35.5 38.95 35.5 36C35.5 33.05 34.4 30.23 32.49 28.07C32.82 28.02 33.16 28 33.5 28ZM33.5 26C31.68 26 29.97 26.5 28.5 27.35C31.49 29.08 33.5 32.3 33.5 36C33.5 39.7 31.49 42.92 28.5 44.65C29.97 45.5 31.68 46 33.5 46C39.02 46 43.5 41.52 43.5 36C43.5 30.48 39.02 26 33.5 26Z" fill="#8F8F8F"/>
</svg>
