<svg width="72" height="72" viewBox="0 0 72 72" fill="none" xmlns="http://www.w3.org/2000/svg">
<rect x="0.5" y="0.5" width="71" height="71" rx="4.5" stroke="#7B61FF" stroke-dasharray="10 5"/>
<path d="M39.5 38.5C39.5 40.5 37 42 37 43.5H35C35 42 32.5 40.5 32.5 38.5C32.5 36.57 34.07 35 36 35C37.93 35 39.5 36.57 39.5 38.5ZM37 44.5H35V46H37V44.5ZM43 38C43 39.68 42.41 41.21 41.42 42.42L42.84 43.84C44.18 42.27 45 40.23 45 38C45 35.26 43.77 32.81 41.84 31.16L40.42 32.58C41.99 33.86 43 35.82 43 38ZM40 30L36 26V29C31.03 29 27 33.03 27 38C27 40.23 27.82 42.27 29.16 43.84L30.58 42.42C29.59 41.21 29 39.68 29 38C29 34.14 32.14 31 36 31V34L40 30Z" fill="#8F8F8F"/>
</svg>
