<svg width="72" height="72" viewBox="0 0 72 72" fill="none" xmlns="http://www.w3.org/2000/svg">
<rect x="0.5" y="0.5" width="71" height="71" rx="4.5" stroke="#7B61FF" stroke-dasharray="10 5"/>
<path d="M36 26C30.49 26 26 30.49 26 36C26 41.51 30.49 46 36 46C41.51 46 46 41.51 46 36C46 30.49 41.51 26 36 26ZM36 44C31.59 44 28 40.41 28 36C28 31.59 31.59 28 36 28C40.41 28 44 31.59 44 36C44 40.41 40.41 44 36 44ZM39 36C39 37.66 37.66 39 36 39C34.34 39 33 37.66 33 36C33 34.34 34.34 33 36 33C37.66 33 39 34.34 39 36Z" fill="#8F8F8F"/>
</svg>
