<svg width="72" height="72" viewBox="0 0 72 72" fill="none" xmlns="http://www.w3.org/2000/svg">
<rect x="0.5" y="0.5" width="71" height="71" rx="4.5" stroke="#7B61FF" stroke-dasharray="10 5"/>
<path d="M42.3053 31.7C41.2453 31.7 40.6653 31.99 38.3953 32.89C38.2053 32.75 37.9953 32.62 37.7753 32.52C38.0253 31.49 38.3853 30.99 39.1053 30.48C39.9153 29.91 40.3053 29.14 40.3053 28.2C40.3053 26.98 39.3553 25.7 37.7053 25.7C34.6253 25.7 32.7853 27.17 32.3853 28.96L34.7153 31.29C34.3753 30.39 34.3053 30.08 34.3053 29.7C34.3053 28.52 35.7053 27.7 37.7053 27.7C38.2753 27.7 38.3053 28.12 38.3053 28.2C38.3053 28.47 38.2553 28.63 37.9553 28.85C36.6853 29.75 36.1253 30.76 35.7953 32.24L35.7753 32.34L43.0253 39.59C43.2653 39.65 43.5253 39.7 43.8053 39.7C45.0253 39.7 46.3053 38.75 46.3053 37.1C46.3053 33.61 44.4153 31.7 42.3053 31.7ZM43.8053 37.7C43.5353 37.7 43.3753 37.65 43.1553 37.35C42.2553 36.08 41.2453 35.52 39.7653 35.19C39.7353 34.97 39.6853 34.77 39.6153 34.57C41.4153 33.82 41.7953 33.7 42.3053 33.7C43.4853 33.7 44.3053 35.1 44.3053 37.1C44.3053 37.67 43.8853 37.7 43.8053 37.7Z" fill="#8F8F8F"/>
<path d="M25.6953 27.92L29.5853 31.81C29.3453 31.75 29.0853 31.7 28.8053 31.7C27.5853 31.7 26.3053 32.65 26.3053 34.3C26.3053 37.79 28.1953 39.7 30.3053 39.7C31.3653 39.7 31.9453 39.41 34.2153 38.51C34.4053 38.65 34.6153 38.78 34.8353 38.88C34.5853 39.91 34.2253 40.41 33.5053 40.92C32.6953 41.49 32.3053 42.26 32.3053 43.2C32.3053 44.42 33.2553 45.7 34.9053 45.7C37.9853 45.7 39.8253 44.23 40.2253 42.44L44.0853 46.3L45.4953 44.89L27.1153 26.51L25.6953 27.92ZM36.8253 39.16C36.8553 39.16 36.8853 39.1399 36.9153 39.1399L37.8853 40.11C38.2353 41.01 38.3053 41.32 38.3053 41.7C38.3053 42.88 36.9053 43.7 34.9053 43.7C34.3353 43.7 34.3053 43.28 34.3053 43.2C34.3053 42.93 34.3553 42.77 34.6553 42.55C35.9353 41.66 36.4853 40.64 36.8253 39.16ZM32.8453 36.22C32.8753 36.44 32.9253 36.64 32.9953 36.84C31.1953 37.58 30.8153 37.7 30.3053 37.7C29.1253 37.7 28.3053 36.3 28.3053 34.3C28.3053 33.73 28.7253 33.7 28.8053 33.7C29.0753 33.7 29.2353 33.75 29.4553 34.05C30.3453 35.33 31.3653 35.88 32.8453 36.22Z" fill="#8F8F8F"/>
</svg>
