<svg width="73" height="72" viewBox="0 0 73 72" fill="none" xmlns="http://www.w3.org/2000/svg">
<rect x="0.5" y="0.5" width="72" height="71" rx="4.5" stroke="#7B61FF" stroke-dasharray="10 5"/>
<path d="M44 28H28C26.9 28 26 28.9 26 30V33H28V30H44V33H46V30C46 28.9 45.1 28 44 28Z" fill="#8F8F8F"/>
<path d="M44 42H28V39H26V42C26 43.1 26.9 44 28 44H44C45.1 44 46 43.1 46 42V39H44V42Z" fill="#8F8F8F"/>
<path d="M38.89 31.55C38.55 30.87 37.44 30.87 37.1 31.55L34 37.76L32.89 35.55C32.72 35.21 32.38 35 32 35H26V37H31.38L33.1 40.45C33.28 40.79 33.62 41 34 41C34.38 41 34.72 40.79 34.89 40.45L38 34.24L39.11 36.45C39.28 36.79 39.62 37 40 37H46V35H40.62L38.89 31.55Z" fill="#8F8F8F"/>
</svg>
