<svg width="73" height="72" viewBox="0 0 73 72" fill="none" xmlns="http://www.w3.org/2000/svg">
<rect x="0.5" y="0.5" width="72" height="71" rx="4.5" stroke="#7B61FF" stroke-dasharray="10 5"/>
<path d="M43 27H29C27.9 27 27 27.9 27 29V43C27 44.1 27.9 45 29 45H43C44.1 45 45 44.1 45 43V29C45 27.9 44.1 27 43 27ZM43 43H29V29H43V43ZM36 30C34.34 30 33 31.34 33 33C33 34.66 34.34 36 36 36C37.66 36 39 34.66 39 33C39 31.34 37.66 30 36 30ZM35 33.5H34V32.5H35V33.5ZM36.5 33.5H35.5V32.5H36.5V33.5ZM38 33.5H37V32.5H38V33.5Z" fill="#8F8F8F"/>
</svg>
