<svg width="72" height="72" viewBox="0 0 72 72" fill="none" xmlns="http://www.w3.org/2000/svg">
<rect x="0.5" y="0.5" width="71" height="71" rx="4.5" stroke="#7B61FF" stroke-dasharray="10 5"/>
<path d="M44 29H40.8L39 27H33L31.2 29H28C26.9 29 26 29.9 26 31V43C26 44.1 26.9 45 28 45H44C45.1 45 46 44.1 46 43V31C46 29.9 45.1 29 44 29ZM44 43H36V42C33.2 42 31 39.8 31 37C31 34.2 33.2 32 36 32V31H44V43ZM41 37C41 34.2 38.8 32 36 32V33.8C37.8 33.8 39.2 35.2 39.2 37C39.2 38.8 37.8 40.2 36 40.2V42C38.8 42 41 39.8 41 37ZM32.8 37C32.8 38.8 34.2 40.2 36 40.2V33.8C34.2 33.8 32.8 35.2 32.8 37Z" fill="#8F8F8F"/>
</svg>
