<svg width="71" height="72" viewBox="0 0 71 72" fill="none" xmlns="http://www.w3.org/2000/svg">
<rect x="0.5" y="0.5" width="70" height="71" rx="4.5" stroke="#7B61FF" stroke-dasharray="10 5"/>
<path d="M33.5 32V38L38.2 40.9L39 39.7L35 37.3V32H33.5Z" fill="#8F8F8F"/>
<path d="M41.42 36C41.47 36.33 41.5 36.66 41.5 37C41.5 40.9 38.4 44 34.5 44C30.6 44 27.5 40.9 27.5 37C27.5 33.1 30.6 30 34.5 30C35.2 30 35.87 30.1 36.5 30.29V28.23C35.86 28.08 35.19 28 34.5 28C29.5 28 25.5 32 25.5 37C25.5 42 29.5 46 34.5 46C39.5 46 43.5 42 43.5 37C43.5 36.66 43.48 36.33 43.44 36H41.42Z" fill="#8F8F8F"/>
<path d="M43.5 29V26H41.5V29H38.5V31H41.5V34H43.5V31H46.5V29H43.5Z" fill="#8F8F8F"/>
</svg>
