<svg width="72" height="72" viewBox="0 0 72 72" fill="none" xmlns="http://www.w3.org/2000/svg">
<rect x="0.5" y="0.5" width="71" height="71" rx="4.5" stroke="#7B61FF" stroke-dasharray="10 5"/>
<path d="M26.88 31.88L28.42 33.42C28.15 34.23 28 35.1 28 36C28 40.41 31.59 44 36 44C40.41 44 44 40.41 44 36C44 31.59 40.41 28 36 28C35.1 28 34.23 28.15 33.42 28.42L31.89 26.89C33.15 26.32 34.54 26 36 26C41.52 26 46 30.48 46 36C46 41.52 41.52 46 36 46C30.48 46 26 41.52 26 36C26 34.53 26.32 33.14 26.88 31.88ZM31 29.5C31 30.33 30.33 31 29.5 31C28.67 31 28 30.33 28 29.5C28 28.67 28.67 28 29.5 28C30.33 28 31 28.67 31 29.5ZM36.03 32.99H35.96L34.8 36.3H37.19L36.03 32.99ZM35.29 31.5H36.72L39.73 39.5H38.34L37.62 37.46H34.39L33.66 39.5H32.28L35.29 31.5Z" fill="#8F8F8F"/>
</svg>
