<svg width="72" height="72" viewBox="0 0 72 72" fill="none" xmlns="http://www.w3.org/2000/svg">
<rect x="0.5" y="0.5" width="71" height="71" rx="4.5" stroke="#7B61FF" stroke-dasharray="10 5"/>
<path d="M46 36C46 41.52 41.52 46 36 46C30.48 46 26 41.52 26 36C26 34.81 26.22 33.68 26.6 32.62L28.48 33.3C28.17 34.14 28 35.05 28 36C28 40.41 31.59 44 36 44C40.41 44 44 40.41 44 36C44 31.59 40.41 28 36 28C35.05 28 34.15 28.17 33.31 28.48L32.63 26.59C33.69 26.22 34.82 26 36 26C41.52 26 46 30.48 46 36ZM29.5 28C28.67 28 28 28.67 28 29.5C28 30.33 28.67 31 29.5 31C30.33 31 31 30.33 31 29.5C31 28.67 30.33 28 29.5 28ZM35 40V32H33V40H35ZM39 40V32H37V40H39Z" fill="#8F8F8F"/>
</svg>
