<svg width="72" height="72" viewBox="0 0 72 72" fill="none" xmlns="http://www.w3.org/2000/svg">
<rect x="0.5" y="0.5" width="71" height="71" rx="4.5" stroke="#7B61FF" stroke-dasharray="10 5"/>
<path d="M27.1153 26.5048L25.6953 27.9148L27.9653 30.1848C26.9153 31.7648 26.3053 33.6548 26.3053 35.6948C26.3053 41.2148 30.7853 45.6948 36.3053 45.6948C38.3453 45.6948 40.2353 45.0848 41.8153 44.0348L44.0853 46.3048L45.4953 44.8848L27.1153 26.5048ZM36.3053 43.6948C31.8953 43.6948 28.3053 40.1048 28.3053 35.6948C28.3053 34.2148 28.7153 32.8348 29.4253 31.6348L40.3553 42.5748C39.1653 43.2848 37.7853 43.6948 36.3053 43.6948Z" fill="#8F8F8F"/>
<path d="M36.3053 27.6948C40.7153 27.6948 44.3053 31.2848 44.3053 35.6948C44.3053 37.1748 43.8953 38.5548 43.1853 39.7448L44.6353 41.1948C45.6953 39.6248 46.3053 37.7348 46.3053 35.6948C46.3053 30.1748 41.8253 25.6948 36.3053 25.6948C34.2653 25.6948 32.3753 26.3048 30.7953 27.3548L32.2453 28.8048C33.4453 28.1048 34.8253 27.6948 36.3053 27.6948Z" fill="#8F8F8F"/>
</svg>
