<svg width="72" height="72" viewBox="0 0 72 72" fill="none" xmlns="http://www.w3.org/2000/svg">
<rect x="0.5" y="0.5" width="71" height="71" rx="4.5" stroke="#7B61FF" stroke-dasharray="10 5"/>
<path d="M33.9959 35L33.0559 37.06L30.9959 38L33.0559 38.94L33.9959 41L34.9359 38.94L36.9959 38L34.9359 37.06L33.9959 35ZM42.0059 28L44.0059 32H41.0059L39.0059 28H37.0059L39.0059 32H36.0059L34.0059 28H32.0059L34.0059 32H31.0059L29.0059 28H28.0059C26.9059 28 26.0159 28.9 26.0159 30L26.0059 42C26.0059 43.1 26.9059 44 28.0059 44H44.0059C45.1059 44 45.9959 43.1 45.9959 42V28H42.0059ZM44.0059 42H28.0059V30.47L29.7659 34H39.9959L39.3659 35.37L37.9959 36L39.3659 36.63L39.9959 38L40.6259 36.63L41.9959 36L40.6259 35.37L39.9959 34H44.0059V42Z" fill="#8F8F8F"/>
</svg>
