<svg width="72" height="72" viewBox="0 0 72 72" fill="none" xmlns="http://www.w3.org/2000/svg">
<rect x="0.5" y="0.5" width="71" height="71" rx="4.5" stroke="#7B61FF" stroke-dasharray="10 5"/>
<path d="M41 33H37.5V39H39V37.5H41C41.55 37.5 42 37.05 42 36.5V34C42 33.45 41.55 33 41 33ZM40.5 36H39V34.5H40.5V36Z" fill="#8F8F8F"/>
<path d="M35.5 33H31C30.45 33 30 33.45 30 34V39H31.5V34.5H32.5V37.5H34V34.5H35V39H36.5V34C36.5 33.45 36.05 33 35.5 33Z" fill="#8F8F8F"/>
<path d="M43 27H29C27.9 27 27 27.9 27 29V43C27 44.1 27.9 45 29 45H43C44.1 45 45 44.1 45 43V29C45 27.9 44.1 27 43 27ZM29 43V29H43V43H29Z" fill="#8F8F8F"/>
</svg>
