<svg width="72" height="72" viewBox="0 0 72 72" fill="none" xmlns="http://www.w3.org/2000/svg">
<rect x="0.5" y="0.5" width="71" height="71" rx="4.5" stroke="#7B61FF" stroke-dasharray="10 5"/>
<path d="M37.9297 31.0692H41.9297V27.0692H35.9297V31.6792L37.9297 33.6792V31.0692ZM35.9297 34.5092L28.3397 26.9292L26.9297 28.3392L35.9297 37.3392V37.6192C34.9897 37.0792 33.8297 36.8692 32.5997 37.2992C31.2597 37.7792 30.2297 38.9692 29.9897 40.3692C29.5297 43.1092 31.8497 45.4492 34.5797 45.0192C36.5397 44.7092 37.9297 42.9092 37.9297 40.9192V39.3392L43.6597 45.0692L45.0697 43.6592L35.9297 34.5092ZM33.9297 43.0692C32.8297 43.0692 31.9297 42.1692 31.9297 41.0692C31.9297 39.9692 32.8297 39.0692 33.9297 39.0692C35.0297 39.0692 35.9297 39.9692 35.9297 41.0692C35.9297 42.1692 35.0297 43.0692 33.9297 43.0692Z" fill="#8F8F8F"/>
</svg>
