<svg width="72" height="72" viewBox="0 0 72 72" fill="none" xmlns="http://www.w3.org/2000/svg">
<g clip-path="url(#clip0_256_17427)">
<path d="M30.82 37H35V35H30.82C30.4 33.84 29.3 33 28 33C26.34 33 25 34.34 25 36C25 37.66 26.34 39 28 39C29.3 39 30.4 38.16 30.82 37ZM28 37C27.45 37 27 36.55 27 36C27 35.45 27.45 35 28 35C28.55 35 29 35.45 29 36C29 36.55 28.55 37 28 37Z" fill="#8F8F8F"/>
<path d="M47 36L43 33V35H38.95C38.45 29.95 34.19 26 29 26V28C33.42 28 37 31.58 37 36C37 40.42 33.42 44 29 44V46C34.19 46 38.45 42.05 38.95 37H43V39L47 36Z" fill="#8F8F8F"/>
</g>
<rect x="0.5" y="0.5" width="71" height="71" rx="4.5" stroke="#7B61FF" stroke-dasharray="10 5"/>
<defs>
<clipPath id="clip0_256_17427">
<rect width="72" height="72" rx="5" fill="white"/>
</clipPath>
</defs>
</svg>
