<svg width="72" height="72" viewBox="0 0 72 72" fill="none" xmlns="http://www.w3.org/2000/svg">
<rect x="0.5" y="0.5" width="71" height="71" rx="4.5" stroke="#7B61FF" stroke-dasharray="10 5"/>
<path d="M28.4141 34.915C29.2425 34.915 29.9141 34.2434 29.9141 33.415C29.9141 32.5866 29.2425 31.915 28.4141 31.915C27.5856 31.915 26.9141 32.5866 26.9141 33.415C26.9141 34.2434 27.5856 34.915 28.4141 34.915Z" fill="#8F8F8F"/>
<path d="M46.0841 33.085C46.0841 29.215 42.9541 26.085 39.0841 26.085C35.2141 26.085 32.0841 29.215 32.0841 33.085C32.0841 36.555 34.6041 39.425 37.9141 39.975V43.915H29.9141V40.915H30.9141V36.915C30.9141 36.365 30.4641 35.915 29.9141 35.915H26.9141C26.3641 35.915 25.9141 36.365 25.9141 36.915V40.915H26.9141V45.915H42.9141V43.915H39.9141V40.035C43.3841 39.625 46.0841 36.675 46.0841 33.085ZM39.0841 38.085C36.3241 38.085 34.0841 35.845 34.0841 33.085C34.0841 30.325 36.3241 28.085 39.0841 28.085C41.8441 28.085 44.0841 30.325 44.0841 33.085C44.0841 35.845 41.8441 38.085 39.0841 38.085Z" fill="#8F8F8F"/>
</svg>
