<svg width="72" height="72" viewBox="0 0 72 72" fill="none" xmlns="http://www.w3.org/2000/svg">
<rect x="0.5" y="0.5" width="71" height="71" rx="4.5" stroke="#7B61FF" stroke-dasharray="10 5"/>
<path d="M36.9141 40.035H36.8841C40.3741 39.635 43.0841 36.675 43.0841 33.085C43.0841 29.215 39.9541 26.085 36.0841 26.085C32.2141 26.085 29.0841 29.215 29.0841 33.085C29.0841 36.555 31.6041 39.425 34.9141 39.975V43.915H28.9141V45.915H42.9141V43.915H36.9141V40.035ZM31.0841 33.085C31.0841 30.325 33.3241 28.085 36.0841 28.085C38.8441 28.085 41.0841 30.325 41.0841 33.085C41.0841 35.845 38.8441 38.085 36.0841 38.085C33.3241 38.085 31.0841 35.845 31.0841 33.085Z" fill="#8F8F8F"/>
</svg>
