<svg width="72" height="72" viewBox="0 0 72 72" fill="none" xmlns="http://www.w3.org/2000/svg">
<rect x="0.5" y="0.5" width="71" height="71" rx="4.5" stroke="#7B61FF" stroke-dasharray="10 5"/>
<path d="M36.003 31.5725L40.423 35.9925L36.003 40.4125L31.583 35.9925L36.003 31.5725ZM36.003 43.1925L28.803 35.9925L36.003 28.7925L42.003 34.7925V31.1625L37.423 26.5825C36.643 25.8025 35.373 25.8025 34.593 26.5825L26.583 34.5825C25.803 35.3625 25.803 36.6325 26.583 37.4125L34.593 45.4125C35.373 46.1925 36.643 46.1925 37.423 45.4125L42.003 40.8225V37.1925L36.003 43.1925ZM44.003 44.0025H46.003V46.0025H44.003V44.0025ZM46.003 34.0025H44.003V42.0025H46.003V34.0025Z" fill="#8F8F8F"/>
</svg>
