<svg width="72" height="72" viewBox="0 0 72 72" fill="none" xmlns="http://www.w3.org/2000/svg">
<rect x="0.5" y="0.5" width="71" height="71" rx="4.5" stroke="#7B61FF" stroke-dasharray="10 5"/>
<path d="M45.7134 37.1175L43.1334 39.6975L41.3234 37.8875L43.5034 35.6975L36.3034 28.4975L34.1134 30.6875L32.3034 28.8675L34.8834 26.2875C35.6634 25.5075 36.9334 25.5075 37.7134 26.2875L45.7134 34.2875C46.5034 35.0675 46.5034 36.3275 45.7134 37.1175ZM45.4934 44.8875L44.0834 46.2975L40.3034 42.5275L37.7234 45.1075C36.9434 45.8875 35.6734 45.8875 34.8934 45.1075L26.8934 37.1075C26.1134 36.3275 26.1134 35.0575 26.8934 34.2775L29.4734 31.6975L25.6934 27.9175L27.1034 26.5075L45.4934 44.8875ZM38.4934 40.7175L37.1034 39.3275L36.3034 40.1275L31.8834 35.6975L32.6834 34.8975L31.2834 33.5075L29.1034 35.6975L36.3034 42.8975L38.4934 40.7175ZM40.7234 35.6975L36.3034 31.2775L35.5034 32.0775L39.9234 36.4975L40.7234 35.6975Z" fill="#8F8F8F"/>
</svg>
