<svg width="72" height="72" viewBox="0 0 72 72" fill="none" xmlns="http://www.w3.org/2000/svg">
<rect x="0.5" y="0.5" width="71" height="71" rx="4.5" stroke="#7B61FF" stroke-dasharray="10 5"/>
<path d="M39.9941 25C39.8441 25 40.1041 24.98 35.7141 25.42C32.4641 25.75 29.9941 28.48 29.9941 31.75C29.9941 35.02 32.4641 37.75 35.7141 38.08L37.6141 38.27L37.0541 39.12C36.7041 39.04 36.3541 39 35.9941 39C33.2341 39 30.9941 41.24 30.9941 44V46C30.9941 46.55 31.4441 47 31.9941 47H39.9941C40.5441 47 40.9941 46.55 40.9941 46V44C40.9941 42.33 40.1641 40.85 38.9041 39.94L39.8741 38.49C39.9141 38.49 39.9641 38.5 40.0041 38.5C41.0941 38.5 42.0041 37.61 42.0041 36.5V27C41.9941 25.89 41.0841 25 39.9941 25ZM38.9941 45H32.9941V44C32.9941 42.35 34.3441 41 35.9941 41C37.6441 41 38.9941 42.35 38.9941 44V45ZM31.9941 31.75C31.9941 29.5 33.6841 27.64 35.9141 27.41L39.9941 27L40.0241 36.5L35.9141 36.08C33.6841 35.86 31.9941 34 31.9941 31.75Z" fill="#8F8F8F"/>
</svg>
