<svg width="75" height="72" viewBox="0 0 75 72" fill="none" xmlns="http://www.w3.org/2000/svg">
<rect x="0.5" y="0.5" width="74" height="71" rx="4.5" stroke="#7B61FF" stroke-dasharray="10 5"/>
<path d="M47 35.995L44.56 33.215L44.9 29.535L41.29 28.715L39.4 25.535L36 26.995L32.6 25.535L30.71 28.715L27.1 29.525L27.44 33.205L25 35.995L27.44 38.775L27.1 42.465L30.71 43.285L32.6 46.465L36 44.995L39.4 46.455L41.29 43.275L44.9 42.455L44.56 38.775L47 35.995ZM42.49 38.105L42.75 40.895L40.01 41.515L38.58 43.925L36 42.815L33.42 43.925L31.99 41.515L29.25 40.895L29.51 38.095L27.66 35.995L29.51 33.875L29.25 31.095L31.99 30.485L33.42 28.075L36 29.175L38.58 28.065L40.01 30.475L42.75 31.095L42.49 33.885L44.34 35.995L42.49 38.105ZM35 38.995H37V40.995H35V38.995ZM35 30.995H37V36.995H35V30.995Z" fill="#8F8F8F"/>
</svg>
