<svg width="74" height="72" viewBox="0 0 74 72" fill="none" xmlns="http://www.w3.org/2000/svg">
<rect x="0.5" y="0.5" width="73" height="71" rx="4.5" stroke="#7B61FF" stroke-dasharray="10 5"/>
<path d="M35 42L39 38L35 34L34 35L37 38L34 41L35 42ZM44 30.5H40V28.5C40 27.95 39.78 27.45 39.41 27.09C39.05 26.72 38.55 26.5 38 26.5H34C32.9 26.5 32 27.4 32 28.5V30.5H28C26.9 30.5 26 31.4 26 32.5V43.5C26 44.6 26.9 45.5 28 45.5H44C45.1 45.5 46 44.6 46 43.5V32.5C46 31.4 45.1 30.5 44 30.5ZM34 28.5H38V30.5H34V28.5ZM44 43.5H28V32.5H44V43.5Z" fill="#8F8F8F"/>
</svg>
