<svg width="73" height="72" viewBox="0 0 73 72" fill="none" xmlns="http://www.w3.org/2000/svg">
<rect x="0.5" y="0.5" width="72" height="71" rx="4.5" stroke="#7B61FF" stroke-dasharray="10 5"/>
<path d="M44 26H28C26.9 26 26 26.9 26 28V44C26 45.1 26.9 46 28 46H44C45.1 46 46 45.1 46 44V28C46 26.9 45.1 26 44 26ZM44 44H28V28H44V44ZM42 30H37C35.9 30 35 30.9 35 32V34.28C34.4 34.63 34 35.26 34 36C34 37.1 34.9 38 36 38C37.1 38 38 37.1 38 36C38 35.26 37.6 34.62 37 34.28V32H40V40H32V32H34V30H30V42H42V30Z" fill="#8F8F8F"/>
</svg>
