<svg width="72" height="72" viewBox="0 0 72 72" fill="none" xmlns="http://www.w3.org/2000/svg">
<rect x="0.5" y="0.5" width="71" height="71" rx="4.5" stroke="#7B61FF" stroke-dasharray="10 5"/>
<path d="M38.5 28C38.84 28 39.18 28.02 39.51 28.07C37.6 30.23 36.5 33.05 36.5 36C36.5 38.95 37.6 41.77 39.51 43.93C39.18 43.98 38.84 44 38.5 44C34.09 44 30.5 40.41 30.5 36C30.5 31.59 34.09 28 38.5 28ZM38.5 26C32.98 26 28.5 30.48 28.5 36C28.5 41.52 32.98 46 38.5 46C40.32 46 42.03 45.5 43.5 44.65C40.51 42.92 38.5 39.7 38.5 36C38.5 32.3 40.51 29.08 43.5 27.35C42.03 26.5 40.32 26 38.5 26Z" fill="#8F8F8F"/>
</svg>
