<svg width="69" height="72" viewBox="0 0 69 72" fill="none" xmlns="http://www.w3.org/2000/svg">
<rect x="0.5" y="0.5" width="68" height="71" rx="4.5" stroke="#7B61FF" stroke-dasharray="10 5"/>
<path d="M45.4405 44.3999L27.9705 26.9299L26.5605 28.3399L29.3005 31.0799L29.1805 31.1999V42.1899C29.1805 43.2899 30.0805 44.1899 31.1805 44.1899H41.1805C41.5305 44.1899 41.8605 44.0899 42.1505 43.9299L44.0305 45.8099L45.4405 44.3999ZM31.1805 42.1899V32.9599L40.4105 42.1899H31.1805ZM35.0205 28.1899H41.1805V37.2999L43.1805 39.2999V28.1899C43.1805 27.0899 42.2805 26.1899 41.1805 26.1899H34.1905L32.1305 28.2499L33.5405 29.6599L35.0205 28.1899Z" fill="#8F8F8F"/>
</svg>
