<svg width="72" height="72" viewBox="0 0 72 72" fill="none" xmlns="http://www.w3.org/2000/svg">
<rect x="0.5" y="0.5" width="71" height="71" rx="4.5" stroke="#7B61FF" stroke-dasharray="10 5"/>
<path d="M28.0708 37H26.0508C26.2508 39.01 27.0508 40.84 28.2608 42.33L29.6908 40.9C28.8308 39.79 28.2508 38.46 28.0708 37Z" fill="#8F8F8F"/>
<path d="M29.6908 31.1L28.2608 29.67C27.0508 31.16 26.2508 32.99 26.0508 35H28.0708C28.2508 33.54 28.8308 32.21 29.6908 31.1Z" fill="#8F8F8F"/>
<path d="M35.0008 28.07V26.05C32.9908 26.25 31.1608 27.05 29.6708 28.26L31.1008 29.69C32.2108 28.83 33.5408 28.25 35.0008 28.07Z" fill="#8F8F8F"/>
<path d="M42.3308 28.26C40.8408 27.05 39.0108 26.25 37.0008 26.05V28.07C38.4608 28.25 39.7908 28.83 40.9008 29.69L42.3308 28.26Z" fill="#8F8F8F"/>
<path d="M42.3108 40.9L43.7408 42.33C44.9508 40.85 45.7508 39.01 45.9508 37H43.9308C43.7508 38.46 43.1708 39.79 42.3108 40.9Z" fill="#8F8F8F"/>
<path d="M43.9308 35H45.9508C45.7508 32.99 44.9508 31.16 43.7408 29.67L42.3108 31.1C43.1708 32.21 43.7508 33.54 43.9308 35Z" fill="#8F8F8F"/>
<path d="M37.0008 43.93V45.9501C39.0108 45.7501 40.8408 44.95 42.3308 43.74L40.9008 42.31C39.7908 43.17 38.4608 43.75 37.0008 43.93Z" fill="#8F8F8F"/>
<path d="M29.6708 43.74C31.1508 44.95 32.9908 45.7501 35.0008 45.9501V43.93C33.5408 43.75 32.2108 43.17 31.1008 42.31L29.6708 43.74Z" fill="#8F8F8F"/>
<path d="M36.0008 41C38.7622 41 41.0008 38.7615 41.0008 36C41.0008 33.2386 38.7622 31 36.0008 31C33.2394 31 31.0008 33.2386 31.0008 36C31.0008 38.7615 33.2394 41 36.0008 41Z" fill="#8F8F8F"/>
</svg>
