<svg width="72" height="72" viewBox="0 0 72 72" fill="none" xmlns="http://www.w3.org/2000/svg">
<rect x="0.5" y="0.5" width="71" height="71" rx="4.5" stroke="#7B61FF" stroke-dasharray="10 5"/>
<path d="M36 26C30.48 26 26 30.48 26 36C26 41.52 30.48 46 36 46C41.52 46 46 41.52 46 36C46 30.48 41.52 26 36 26ZM36 44C31.58 44 28 40.42 28 36C28 34.15 28.63 32.45 29.69 31.1L40.9 42.31C39.55 43.37 37.85 44 36 44ZM42.31 40.9L31.1 29.69C32.45 28.63 34.15 28 36 28C40.42 28 44 31.58 44 36C44 37.85 43.37 39.55 42.31 40.9Z" fill="#8F8F8F"/>
</svg>
