<svg width="72" height="72" viewBox="0 0 72 72" fill="none" xmlns="http://www.w3.org/2000/svg">
<rect x="0.5" y="0.5" width="71" height="71" rx="4.5" stroke="#7B61FF" stroke-dasharray="10 5"/>
<path d="M34.7096 27.6949C34.7096 26.5949 35.6096 25.6949 36.7096 25.6949C37.8096 25.6949 38.7096 26.5949 38.7096 27.6949C38.7096 28.7949 37.8096 29.6949 36.7096 29.6949C35.6096 29.6949 34.7096 28.7949 34.7096 27.6949ZM43.7096 36.6949V34.6949C42.1696 34.7149 40.6196 33.9449 39.6396 32.8649L38.3496 31.4349C38.1096 31.1949 37.9096 31.0749 37.7196 30.9749C37.3596 30.7849 36.9996 30.6749 36.5196 30.7149C36.0296 30.7549 35.6096 30.9849 35.2896 31.3249L38.7096 34.7449C39.9996 35.8149 41.9596 36.6849 43.7096 36.6949ZM34.7096 43.6949C33.0496 43.6949 31.7096 42.3549 31.7096 40.6949C31.7096 39.3849 32.5496 38.2849 33.7096 37.8649V35.7949C31.4296 36.2549 29.7096 38.2749 29.7096 40.6949C29.7096 43.4549 31.9496 45.6949 34.7096 45.6949C37.1296 45.6949 39.1496 43.9749 39.6096 41.6949H37.5396C37.1296 42.8549 36.0196 43.6949 34.7096 43.6949ZM27.5196 26.5049L26.0996 27.9149L34.7096 36.5249V38.6949C34.7096 39.7949 35.6096 40.6949 36.7096 40.6949H38.8796L44.4896 46.3049L45.8996 44.8949L27.5196 26.5049Z" fill="#8F8F8F"/>
</svg>
