<svg width="72" height="72" viewBox="0 0 72 72" fill="none" xmlns="http://www.w3.org/2000/svg">
<rect x="0.5" y="0.5" width="71" height="71" rx="4.5" stroke="#7B61FF" stroke-dasharray="10 5"/>
<path d="M43 28H38.82C38.4 26.84 37.3 26 36 26C34.7 26 33.6 26.84 33.18 28H29C27.9 28 27 28.9 27 30V44C27 45.1 27.9 46 29 46H43C44.1 46 45 45.1 45 44V30C45 28.9 44.1 28 43 28ZM36 27.75C36.41 27.75 36.75 28.09 36.75 28.5C36.75 28.91 36.41 29.25 36 29.25C35.59 29.25 35.25 28.91 35.25 28.5C35.25 28.09 35.59 27.75 36 27.75ZM43 44H29V30H43V44Z" fill="#8F8F8F"/>
<path d="M39.08 36.03L36.96 33.91L31 39.86V42H33.1L39.08 36.03Z" fill="#8F8F8F"/>
<path d="M40.85 34.27C41.05 34.07 41.05 33.76 40.85 33.56L39.44 32.15C39.24 31.95 38.93 31.95 38.73 32.15L37.67 33.21L39.79 35.33L40.85 34.27Z" fill="#8F8F8F"/>
</svg>
