<svg width="77" height="72" viewBox="0 0 77 72" fill="none" xmlns="http://www.w3.org/2000/svg">
<rect x="0.5" y="0.5" width="76" height="71" rx="4.5" stroke="#7B61FF" stroke-dasharray="10 5"/>
<path d="M35.9995 26.02C30.4895 26.02 26.0195 30.49 26.0195 36C26.0195 41.51 30.4895 45.98 35.9995 45.98C41.5095 45.98 45.9795 41.51 45.9795 36C45.9795 30.49 41.5095 26.02 35.9995 26.02ZM35.9995 43.98C31.5995 43.98 28.0195 40.4 28.0195 36C28.0195 31.6 31.5995 28.02 35.9995 28.02C40.3995 28.02 43.9795 31.6 43.9795 36C43.9795 40.4 40.3995 43.98 35.9995 43.98ZM36.7495 29L32.2495 37.5H35.3895V43L39.7495 34.5H36.7495V29Z" fill="#8F8F8F"/>
</svg>
