<svg width="70" height="72" viewBox="0 0 70 72" fill="none" xmlns="http://www.w3.org/2000/svg">
<rect x="0.5" y="0.5" width="69" height="71" rx="4.5" stroke="#7B61FF" stroke-dasharray="10 5"/>
<path d="M36 26C30.5 26 26 30.5 26 36C26 41.5 30.5 46 36 46C41.5 46 46 41.5 46 36C46 30.5 41.5 26 36 26ZM36 44C31.59 44 28 40.41 28 36C28 31.59 31.59 28 36 28C40.41 28 44 31.59 44 36C44 40.41 40.41 44 36 44ZM31 39H41V41H31V39ZM34.3 35.2L32.4 33.3L31 34.7L34.3 38L41 31.3L39.6 29.9L34.3 35.2Z" fill="#8F8F8F"/>
</svg>
