<svg width="72" height="72" viewBox="0 0 72 72" fill="none" xmlns="http://www.w3.org/2000/svg">
<rect x="0.5" y="0.5" width="71" height="71" rx="4.5" stroke="#7B61FF" stroke-dasharray="10 5"/>
<path d="M33 37.05C33 38.68 34.34 40 36 40C37.66 40 39 38.68 39 37.05C39 35.74 38.47 35.36 36 32.5C33.52 35.38 33 35.75 33 37.05Z" fill="#8F8F8F"/>
<path d="M44 37C44.55 37 45 36.55 45 36C45 35.45 44.55 35 44 35H43V29H44C44.55 29 45 28.55 45 28C45 27.45 44.55 27 44 27H28C27.45 27 27 27.45 27 28C27 28.55 27.45 29 28 29H29V35H28C27.45 35 27 35.45 27 36C27 36.55 27.45 37 28 37H29V43H28C27.45 43 27 43.45 27 44C27 44.55 27.45 45 28 45H44C44.55 45 45 44.55 45 44C45 43.45 44.55 43 44 43H43V37H44ZM41 43H31V37C31.55 37 32 36.55 32 36C32 35.45 31.55 35 31 35V29H41V35C40.45 35 40 35.45 40 36C40 36.55 40.45 37 41 37V43Z" fill="#8F8F8F"/>
</svg>
