<svg width="72" height="72" viewBox="0 0 72 72" fill="none" xmlns="http://www.w3.org/2000/svg">
<rect x="0.5" y="0.5" width="71" height="71" rx="4.5" stroke="#7B61FF" stroke-dasharray="10 5"/>
<path d="M37 40H35V41H37V40Z" fill="#8F8F8F"/>
<path d="M36 35C34.9 35 34 35.9 34 37C34 37.74 34.4 38.38 35 38.72V39.5H37V38.72C37.6 38.37 38 37.74 38 37C38 35.9 37.1 35 36 35Z" fill="#8F8F8F"/>
<path d="M42 25.01L30 25C28.9 25 28 25.9 28 27V45C28 46.1 28.9 47 30 47H42C43.1 47 44 46.1 44 45V27C44 25.9 43.1 25.01 42 25.01ZM42 45H30V44H42V45ZM42 42H30V30H42V42ZM42 28H30V27H42V28Z" fill="#8F8F8F"/>
<path d="M40.01 39.95C40.63 39.12 41 38.11 41 37C41 35.89 40.63 34.88 40.01 34.05L38.94 35.12C39.29 35.66 39.5 36.31 39.5 37C39.5 37.69 39.29 38.34 38.94 38.88L40.01 39.95Z" fill="#8F8F8F"/>
<path d="M33.06 38.88C32.71 38.34 32.5 37.69 32.5 37C32.5 35.07 34.07 33.5 36 33.5V34.75L38.25 32.75L36 30.75V32C33.24 32 31 34.24 31 37C31 38.11 31.37 39.12 31.99 39.95L33.06 38.88Z" fill="#8F8F8F"/>
</svg>
