<svg width="72" height="72" viewBox="0 0 72 72" fill="none" xmlns="http://www.w3.org/2000/svg">
<rect x="0.5" y="0.5" width="71" height="71" rx="4.5" stroke="#7B61FF" stroke-dasharray="10 5"/>
<path d="M39.5 35.5001C39.5 37.5001 37 39.0001 37 40.5001H35C35 39.0001 32.5 37.5001 32.5 35.5001C32.5 33.5701 34.07 32.0001 36 32.0001C37.93 32.0001 39.5 33.5701 39.5 35.5001ZM37 41.5001H35V43.0001H37V41.5001ZM46 36.0001C46 33.2401 44.88 30.7401 43.07 28.9301L42.01 29.9901C43.55 31.5301 44.5 33.6601 44.5 36.0001C44.5 38.3401 43.55 40.4701 42.01 42.0101L43.07 43.0701C44.88 41.2601 46 38.7601 46 36.0001ZM27.5 36.0001C27.5 33.6601 28.45 31.5301 29.99 29.9901L28.93 28.9301C27.12 30.7401 26 33.2401 26 36.0001C26 38.7601 27.12 41.2601 28.93 43.0701L29.99 42.0101C28.45 40.4701 27.5 38.3401 27.5 36.0001ZM41.5 36.0001C41.5 37.5201 40.88 38.8901 39.89 39.8901L40.95 40.9501C42.22 39.6801 43 37.9301 43 36.0001C43 34.0701 42.22 32.3201 40.95 31.0501L39.89 32.1101C40.88 33.1101 41.5 34.4801 41.5 36.0001ZM31.05 40.9501L32.11 39.8901C31.11 38.8901 30.5 37.5201 30.5 36.0001C30.5 34.4801 31.12 33.1101 32.11 32.1101L31.05 31.0501C29.78 32.3201 29 34.0701 29 36.0001C29 37.9301 29.78 39.6801 31.05 40.9501Z" fill="#8F8F8F"/>
</svg>
