<svg width="73" height="72" viewBox="0 0 73 72" fill="none" xmlns="http://www.w3.org/2000/svg">
<rect x="0.5" y="0.5" width="72" height="71" rx="4.5" stroke="#7B61FF" stroke-dasharray="10 5"/>
<path d="M41.66 31.995L36 26.345L30.34 31.995C28.78 33.555 28 35.635 28 37.635C28 39.635 28.78 41.745 30.34 43.305C31.9 44.865 33.95 45.655 36 45.655C38.05 45.655 40.1 44.865 41.66 43.305C43.22 41.745 44 39.635 44 37.635C44 35.635 43.22 33.555 41.66 31.995ZM30 37.995C30.01 35.995 30.62 34.725 31.76 33.595L36 29.265L40.24 33.645C41.38 34.765 41.99 35.995 42 37.995H30Z" fill="#8F8F8F"/>
</svg>
