<svg width="77" height="72" viewBox="0 0 77 72" fill="none" xmlns="http://www.w3.org/2000/svg">
<rect x="0.5" y="0.5" width="76" height="71" rx="4.5" stroke="#7B61FF" stroke-dasharray="10 5"/>
<path d="M41.5055 29.09L38.7155 26.29H45.7155V33.29L42.9255 30.49L38.8355 34.58L37.4255 33.17L41.5055 29.09ZM43.7155 35.29V39.46L45.7155 41.46V35.29H43.7155ZM44.4955 45.9L42.8855 44.29H29.7155C28.6055 44.29 27.7155 43.39 27.7155 42.29V29.12L26.1055 27.51L27.5155 26.1L45.8955 44.48L44.4955 45.9ZM40.8855 42.29L36.0055 37.41L34.4155 39L33.0055 37.59L34.5955 36L29.7155 31.12V42.29H40.8855ZM32.5455 28.29H36.7155V26.29H30.5455L32.5455 28.29Z" fill="#8F8F8F"/>
</svg>
