<svg width="72" height="72" viewBox="0 0 72 72" fill="none" xmlns="http://www.w3.org/2000/svg">
<rect x="0.5" y="0.5" width="71" height="71" rx="4.5" stroke="#7B61FF" stroke-dasharray="10 5"/>
<path d="M35 33.83V38H37V33.83L38.59 35.41L40 34L36 30L32 34L33.41 35.41L35 33.83Z" fill="#8F8F8F"/>
<path d="M43 27H29C27.9 27 27 27.9 27 29V43C27 44.1 27.9 45 29 45H43C44.1 45 45 44.1 45 43V29C45 27.9 44.1 27 43 27ZM43 43H29V40H32.02C32.93 41.21 34.37 42 36 42C37.63 42 39.06 41.21 39.98 40H43V43ZM43 38H38.82C38.41 39.16 37.31 40 36 40C34.69 40 33.6 39.16 33.18 38H29V29H43V38Z" fill="#8F8F8F"/>
</svg>
