<svg width="72" height="72" viewBox="0 0 72 72" fill="none" xmlns="http://www.w3.org/2000/svg">
<rect x="0.5" y="0.5" width="71" height="71" rx="4.5" stroke="#7B61FF" stroke-dasharray="10 5"/>
<path d="M36 28C40.41 28 44 31.59 44 36C44 40.41 40.41 44 36 44C31.59 44 28 40.41 28 36C28 31.59 31.59 28 36 28ZM36 26C30.48 26 26 30.48 26 36C26 41.52 30.48 46 36 46C41.52 46 46 41.52 46 36C46 30.48 41.52 26 36 26ZM37.88 35.54L32.92 40.5L31.51 39.09L36.47 34.13L34.34 32L39.99 32.01L40 37.66L37.88 35.54Z" fill="#8F8F8F"/>
</svg>
