<svg width="73" height="72" viewBox="0 0 73 72" fill="none" xmlns="http://www.w3.org/2000/svg">
<rect x="0.5" y="0.5" width="72" height="71" rx="4.5" stroke="#7B61FF" stroke-dasharray="10 5"/>
<path d="M36 28C40.41 28 44 31.59 44 36C44 40.41 40.41 44 36 44C31.59 44 28 40.41 28 36C28 31.59 31.59 28 36 28ZM36 26C30.48 26 26 30.48 26 36C26 41.52 30.48 46 36 46C41.52 46 46 41.52 46 36C46 30.48 41.52 26 36 26ZM34 35V32C34 31.45 33.55 31 33 31C32.45 31 32 31.45 32 32V35C32 35.55 32.45 36 33 36C33.55 36 34 35.55 34 35ZM40 35V32C40 31.45 39.55 31 39 31C38.45 31 38 31.45 38 32V35C38 35.55 38.45 36 39 36C39.55 36 40 35.55 40 35ZM38 40C38 38.9 37.1 38 36 38C34.9 38 34 38.9 34 40V42H38V40Z" fill="#8F8F8F"/>
</svg>
