<svg width="72" height="72" viewBox="0 0 72 72" fill="none" xmlns="http://www.w3.org/2000/svg">
<rect x="0.5" y="0.5" width="71" height="71" rx="4.5" stroke="#7B61FF" stroke-dasharray="10 5"/>
<path d="M35.49 40C36.37 40 37.19 39.74 37.88 39.3L40.32 41.74L41.74 40.32L39.3 37.89C39.74 37.19 40 36.38 40 35.5C40 33.01 37.99 31 35.5 31C33.01 31 31 33.01 31 35.5C31 37.99 33.01 40 35.49 40ZM35.5 33C36.88 33 38 34.12 38 35.5C38 36.88 36.88 38 35.5 38C34.12 38 33 36.88 33 35.5C33 34.12 34.12 33 35.5 33ZM44 28H28C26.9 28 26 28.9 26 30V42C26 43.1 26.9 44 28 44H44C45.1 44 46 43.1 46 42V30C46 28.9 45.1 28 44 28ZM44 42H28V30H44V42Z" fill="#8F8F8F"/>
</svg>
