<svg width="70" height="72" viewBox="0 0 70 72" fill="none" xmlns="http://www.w3.org/2000/svg">
<rect x="0.5" y="0.5" width="69" height="71" rx="4.5" stroke="#7B61FF" stroke-dasharray="10 5"/>
<path d="M36 26C30.48 26 26 30.48 26 36C26 41.52 30.48 46 36 46C41.52 46 46 41.52 46 36C46 30.48 41.52 26 36 26ZM36 44C31.59 44 28 40.41 28 36C28 31.59 31.59 28 36 28C40.41 28 44 31.59 44 36C44 40.41 40.41 44 36 44ZM36.89 35.1C35.11 34.51 34.25 34.14 34.25 33.2C34.25 32.18 35.36 31.81 36.06 31.81C37.37 31.81 37.85 32.8 37.96 33.15L39.54 32.48C39.39 32.04 38.72 30.57 36.88 30.25V29H35.13V30.26C32.53 30.82 32.51 33.11 32.51 33.22C32.51 35.49 34.76 36.13 35.86 36.53C37.44 37.09 38.14 37.6 38.14 38.56C38.14 39.69 37.09 40.17 36.16 40.17C34.34 40.17 33.82 38.3 33.76 38.08L32.1 38.75C32.73 40.94 34.38 41.53 35.12 41.71V43H36.87V41.76C37.39 41.67 39.89 41.17 39.89 38.54C39.9 37.15 39.29 35.93 36.89 35.1Z" fill="#8F8F8F"/>
</svg>
