<svg width="70" height="72" viewBox="0 0 70 72" fill="none" xmlns="http://www.w3.org/2000/svg">
<rect x="0.5" y="0.5" width="69" height="71" rx="4.5" stroke="#7B61FF" stroke-dasharray="10 5"/>
<path d="M42.89 35.77L39.09 34.1C38.96 34.04 38.81 34 38.65 34H38V29.5C38 28.12 36.88 27 35.5 27C34.12 27 33 28.12 33 29.5V37.65L31.13 37.25C30.94 37.22 30.11 37.1 29.4 37.81L28 39.22L33.12 44.41C33.49 44.79 34 45 34.53 45H41.08C42.06 45 42.89 44.3 43.05 43.33L43.97 37.89C44.12 37.03 43.68 36.17 42.89 35.77ZM41.08 43H34.53L30.83 39.22L35 40.11V29.5C35 29.22 35.22 29 35.5 29C35.78 29 36 29.22 36 29.5V35.68H37.76L42 37.56L41.08 43Z" fill="#8F8F8F"/>
</svg>
