<svg width="77" height="72" viewBox="0 0 77 72" fill="none" xmlns="http://www.w3.org/2000/svg">
<rect x="0.5" y="0.5" width="76" height="71" rx="4.5" stroke="#7B61FF" stroke-dasharray="10 5"/>
<path d="M42.3709 47.995H35.8209C34.7409 47.995 33.6809 47.545 32.9309 46.765L25.6309 39.155L27.7009 37.325C28.3209 36.775 29.2309 36.665 29.9609 37.055L32.3709 38.335V28.785C32.3709 27.405 33.4909 26.285 34.8709 26.285C35.0409 26.285 35.2109 26.305 35.3809 26.335C35.4709 25.035 36.5509 24.005 37.8709 24.005C38.7309 24.005 39.4809 24.435 39.9309 25.095C40.2209 24.975 40.5409 24.915 40.8709 24.915C42.2509 24.915 43.3709 26.035 43.3709 27.415V27.695C43.5309 27.665 43.7009 27.645 43.8709 27.645C45.2509 27.645 46.3709 28.765 46.3709 30.145V43.995C46.3709 46.205 44.5809 47.995 42.3709 47.995ZM28.5109 39.275L34.3709 45.375C34.7509 45.765 35.2709 45.995 35.8109 45.995H42.3709C43.4709 45.995 44.3709 45.095 44.3709 43.995V30.145C44.3709 29.865 44.1509 29.645 43.8709 29.645C43.5909 29.645 43.3709 29.865 43.3709 30.145V35.995H41.3709V27.415C41.3709 27.135 41.1509 26.915 40.8709 26.915C40.5909 26.915 40.3709 27.135 40.3709 27.415V35.995H38.3709V26.505C38.3709 26.225 38.1509 26.005 37.8709 26.005C37.5909 26.005 37.3709 26.225 37.3709 26.505V35.995H35.3709V28.785C35.3709 28.505 35.1509 28.285 34.8709 28.285C34.5909 28.285 34.3709 28.515 34.3709 28.785V41.655L29.0209 38.825L28.5109 39.275Z" fill="#8F8F8F"/>
</svg>
