<svg width="72" height="72" viewBox="0 0 72 72" fill="none" xmlns="http://www.w3.org/2000/svg">
<rect x="0.5" y="0.5" width="71" height="71" rx="4.5" stroke="#7B61FF" stroke-dasharray="10 5"/>
<path d="M44 30.54V41.45C41.4 40.68 38.72 40.29 36 40.29C33.28 40.29 30.6 40.68 28 41.45V30.54C30.6 31.31 33.28 31.7 36 31.7C38.72 31.71 41.4 31.32 44 30.54ZM45.43 28C45.33 28 45.23 28.02 45.12 28.06C42.18 29.16 39.09 29.7 36 29.7C32.91 29.7 29.82 29.15 26.88 28.06C26.77 28.02 26.66 28 26.57 28C26.23 28 26 28.23 26 28.63V43.38C26 43.77 26.23 44 26.57 44C26.67 44 26.77 43.98 26.88 43.94C29.82 42.84 32.91 42.3 36 42.3C39.09 42.3 42.18 42.85 45.12 43.94C45.23 43.98 45.33 44 45.43 44C45.76 44 46 43.77 46 43.37V28.63C46 28.23 45.76 28 45.43 28Z" fill="#8F8F8F"/>
</svg>
