<svg width="72" height="72" viewBox="0 0 72 72" fill="none" xmlns="http://www.w3.org/2000/svg">
<rect x="0.5" y="0.5" width="71" height="71" rx="4.5" stroke="#7B61FF" stroke-dasharray="10 5"/>
<path d="M43.9341 45.12C42.8341 42.18 42.2941 39.09 42.2941 36C42.2941 32.91 42.8441 29.82 43.9341 26.88C43.9741 26.77 43.9941 26.66 43.9941 26.57C43.9941 26.23 43.7641 26 43.3641 26H28.6241C28.2241 26 27.9941 26.23 27.9941 26.57C27.9941 26.67 28.0141 26.77 28.0541 26.88C29.1541 29.82 29.7041 32.91 29.7041 36C29.7041 39.09 29.1541 42.18 28.0641 45.12C28.0141 45.23 27.9941 45.34 27.9941 45.43C27.9941 45.76 28.2241 46 28.6241 46H43.3741C43.7641 46 44.0041 45.76 44.0041 45.43C43.9941 45.33 43.9741 45.23 43.9341 45.12ZM30.5341 44C31.3041 41.4 31.6941 38.72 31.6941 36C31.6941 33.28 31.3041 30.6 30.5341 28H41.4441C40.6741 30.6 40.2841 33.28 40.2841 36C40.2841 38.72 40.6741 41.4 41.4441 44H30.5341Z" fill="#8F8F8F"/>
</svg>
