<svg width="72" height="72" viewBox="0 0 72 72" fill="none" xmlns="http://www.w3.org/2000/svg">
<rect x="0.5" y="0.5" width="71" height="71" rx="4.5" stroke="#7B61FF" stroke-dasharray="10 5"/>
<path d="M36 30C38.45 30 40.71 30.2 43.29 30.64C43.76 32.42 44 34.22 44 36C44 37.78 43.76 39.58 43.29 41.36C40.71 41.8 38.45 42 36 42C33.55 42 31.29 41.8 28.71 41.36C28.24 39.58 28 37.78 28 36C28 34.22 28.24 32.42 28.71 30.64C31.29 30.2 33.55 30 36 30ZM36 28C33.27 28 30.78 28.24 28.05 28.72L27.12 28.88L26.87 29.78C26.29 31.85 26 33.93 26 36C26 38.07 26.29 40.15 26.87 42.22L27.12 43.11L28.05 43.27C30.78 43.76 33.27 44 36 44C38.73 44 41.22 43.76 43.95 43.28L44.88 43.12L45.13 42.23C45.71 40.15 46 38.07 46 36C46 33.93 45.71 31.85 45.13 29.78L44.88 28.89L43.95 28.73C41.22 28.24 38.73 28 36 28Z" fill="#8F8F8F"/>
</svg>
