<svg width="72" height="72" viewBox="0 0 72 72" fill="none" xmlns="http://www.w3.org/2000/svg">
<rect x="0.5" y="0.5" width="71" height="71" rx="4.5" stroke="#7B61FF" stroke-dasharray="10 5"/>
<path d="M45.95 32.15C45.66 31.99 45.34 31.84 45.02 31.69C43.4 28.33 39.98 26 36 26C32.02 26 28.6 28.33 26.99 31.68C26.66 31.83 26.35 31.98 26.06 32.14C25.41 32.5 25 33.17 25 33.91V38.09C25 38.83 25.41 39.5 26.05 39.86C26.34 40.02 26.66 40.17 26.98 40.32C28.6 43.67 32.02 46 36 46C39.98 46 43.4 43.67 45.01 40.32C45.34 40.17 45.65 40.02 45.94 39.86C46.59 39.5 47 38.83 47 38.09V33.91C47 33.17 46.59 32.5 45.95 32.15ZM45 33.91V38.1C42.81 39.31 39.53 40 36 40C32.47 40 29.19 39.3 27 38.09V33.91C29.2 32.69 32.47 32 36 32C39.53 32 42.81 32.7 45 33.91ZM36 28C38.37 28 40.49 29.04 41.95 30.68C40.17 30.25 38.15 30 36 30C33.85 30 31.83 30.25 30.05 30.68C31.51 29.04 33.63 28 36 28ZM36 44C33.63 44 31.51 42.96 30.05 41.32C31.83 41.75 33.85 42 36 42C38.15 42 40.17 41.75 41.95 41.32C40.49 42.96 38.37 44 36 44Z" fill="#8F8F8F"/>
</svg>
