<svg width="72" height="72" viewBox="0 0 72 72" fill="none" xmlns="http://www.w3.org/2000/svg">
<rect x="0.5" y="0.5" width="71" height="71" rx="4.5" stroke="#7B61FF" stroke-dasharray="10 5"/>
<path d="M26 40H46V42H26V40ZM27.15 35.95L28 34.47L28.85 35.95L30.15 35.2L29.3 33.72H31V32.22H29.3L30.15 30.75L28.85 30L28 31.47L27.15 30L25.85 30.75L26.7 32.22H25V33.72H26.7L25.85 35.2L27.15 35.95ZM33.85 35.2L35.15 35.95L36 34.47L36.85 35.95L38.15 35.2L37.3 33.72H39V32.22H37.3L38.15 30.75L36.85 30L36 31.47L35.15 30L33.85 30.75L34.7 32.22H33V33.72H34.7L33.85 35.2ZM47 32.22H45.3L46.15 30.75L44.85 30L44 31.47L43.15 30L41.85 30.75L42.7 32.22H41V33.72H42.7L41.85 35.2L43.15 35.95L44 34.47L44.85 35.95L46.15 35.2L45.3 33.72H47V32.22Z" fill="#8F8F8F"/>
</svg>
