<svg width="73" height="72" viewBox="0 0 73 72" fill="none" xmlns="http://www.w3.org/2000/svg">
<rect x="0.5" y="0.5" width="72" height="71" rx="4.5" stroke="#7B61FF" stroke-dasharray="10 5"/>
<path d="M40 36.5C37.24 36.5 35 38.74 35 41.5C35 44.26 37.24 46.5 40 46.5C42.76 46.5 45 44.26 45 41.5C45 38.74 42.76 36.5 40 36.5ZM41.65 43.85L39.5 41.7V38.5H40.5V41.29L42.35 43.14L41.65 43.85ZM41 27.5H37.82C37.4 26.34 36.3 25.5 35 25.5C33.7 25.5 32.6 26.34 32.18 27.5H29C27.9 27.5 27 28.4 27 29.5V44.5C27 45.6 27.9 46.5 29 46.5H35.11C34.52 45.93 34.04 45.25 33.69 44.5H29V29.5H31V32.5H39V29.5H41V34.58C41.71 34.68 42.38 34.89 43 35.18V29.5C43 28.4 42.1 27.5 41 27.5ZM35 29.5C34.45 29.5 34 29.05 34 28.5C34 27.95 34.45 27.5 35 27.5C35.55 27.5 36 27.95 36 28.5C36 29.05 35.55 29.5 35 29.5Z" fill="#8F8F8F"/>
</svg>
