<svg width="72" height="72" viewBox="0 0 72 72" fill="none" xmlns="http://www.w3.org/2000/svg">
<rect x="0.5" y="0.5" width="71" height="71" rx="4.5" stroke="#7B61FF" stroke-dasharray="10 5"/>
<path d="M36 26C30.48 26 26 30.48 26 36C26 41.52 30.48 46 36 46C41.52 46 46 41.52 46 36C46 30.48 41.52 26 36 26ZM36 44C31.58 44 28 40.42 28 36C28 31.58 31.58 28 36 28C40.42 28 44 31.58 44 36C44 40.42 40.42 44 36 44Z" fill="#8F8F8F"/>
<path d="M31 37.5C31.8284 37.5 32.5 36.8284 32.5 36C32.5 35.1716 31.8284 34.5 31 34.5C30.1716 34.5 29.5 35.1716 29.5 36C29.5 36.8284 30.1716 37.5 31 37.5Z" fill="#8F8F8F"/>
<path d="M36 37.5C36.8284 37.5 37.5 36.8284 37.5 36C37.5 35.1716 36.8284 34.5 36 34.5C35.1716 34.5 34.5 35.1716 34.5 36C34.5 36.8284 35.1716 37.5 36 37.5Z" fill="#8F8F8F"/>
<path d="M41 37.5C41.8284 37.5 42.5 36.8284 42.5 36C42.5 35.1716 41.8284 34.5 41 34.5C40.1716 34.5 39.5 35.1716 39.5 36C39.5 36.8284 40.1716 37.5 41 37.5Z" fill="#8F8F8F"/>
</svg>
