<svg width="72" height="72" viewBox="0 0 72 72" fill="none" xmlns="http://www.w3.org/2000/svg">
<rect x="0.5" y="0.5" width="71" height="71" rx="4.5" stroke="#7B61FF" stroke-dasharray="10 5"/>
<path d="M31.5 28C29.57 28 28 29.57 28 31.5C28 33.43 29.57 35 31.5 35C33.43 35 35 33.43 35 31.5C35 29.57 33.43 28 31.5 28ZM31.5 33C30.67 33 30 32.33 30 31.5C30 30.67 30.67 30 31.5 30C32.33 30 33 30.67 33 31.5C33 32.33 32.33 33 31.5 33ZM40.5 37C38.57 37 37 38.57 37 40.5C37 42.43 38.57 44 40.5 44C42.43 44 44 42.43 44 40.5C44 38.57 42.43 37 40.5 37ZM40.5 42C39.67 42 39 41.33 39 40.5C39 39.67 39.67 39 40.5 39C41.33 39 42 39.67 42 40.5C42 41.33 41.33 42 40.5 42ZM29.41 44L28 42.59L42.59 28L44 29.41L29.41 44Z" fill="#8F8F8F"/>
</svg>
