<svg width="77" height="72" viewBox="0 0 77 72" fill="none" xmlns="http://www.w3.org/2000/svg">
<rect x="0.5" y="0.5" width="76" height="71" rx="4.5" stroke="#7B61FF" stroke-dasharray="10 5"/>
<g clip-path="url(#clip0_256_16157)">
<path d="M42.0603 35.57H44.0703V24L24.0703 44H35.6303V42H28.9003L42.0603 28.83V35.57ZM47.8403 44.32L46.7703 43.49C46.7903 43.33 46.8103 43.17 46.8103 43C46.8103 42.83 46.8003 42.67 46.7703 42.51L47.8303 41.68C47.9203 41.6 47.9503 41.47 47.8903 41.36L46.8903 39.63C46.8303 39.52 46.7003 39.48 46.5803 39.52L45.3403 40.02C45.0803 39.82 44.8003 39.65 44.4903 39.53L44.3003 38.21C44.2903 38.09 44.1803 38 44.0603 38H42.0603C41.9403 38 41.8303 38.09 41.8103 38.21L41.6203 39.53C41.3203 39.66 41.0303 39.82 40.7703 40.02L39.5303 39.52C39.4203 39.48 39.2903 39.52 39.2203 39.63L38.2203 41.36C38.1603 41.47 38.1803 41.6 38.2803 41.68L39.3403 42.51C39.3203 42.67 39.3103 42.83 39.3103 43C39.3103 43.17 39.3203 43.33 39.3403 43.49L38.2803 44.32C38.1903 44.4 38.1603 44.53 38.2203 44.64L39.2203 46.37C39.2803 46.48 39.4103 46.52 39.5303 46.48L40.7703 45.98C41.0303 46.18 41.3103 46.35 41.6203 46.47L41.8103 47.79C41.8303 47.91 41.9303 48 42.0603 48H44.0603C44.1803 48 44.2903 47.91 44.3103 47.79L44.5003 46.47C44.8003 46.34 45.0903 46.18 45.3403 45.98L46.5903 46.48C46.7003 46.52 46.8303 46.48 46.9003 46.37L47.9003 44.64C47.9603 44.53 47.9303 44.4 47.8403 44.32ZM43.0603 44.5C42.2303 44.5 41.5603 43.83 41.5603 43C41.5603 42.17 42.2303 41.5 43.0603 41.5C43.8903 41.5 44.5603 42.17 44.5603 43C44.5603 43.83 43.8903 44.5 43.0603 44.5Z" fill="#8F8F8F"/>
</g>
<defs>
<clipPath id="clip0_256_16157">
<rect width="24" height="24" fill="white" transform="translate(24 24)"/>
</clipPath>
</defs>
</svg>
