<svg width="72" height="72" viewBox="0 0 72 72" fill="none" xmlns="http://www.w3.org/2000/svg">
<rect x="0.5" y="0.5" width="71" height="71" rx="4.5" stroke="#7B61FF" stroke-dasharray="10 5"/>
<path d="M36 30C37.1 30 38 30.9 38 32C38 33.1 37.1 34 36 34C34.9 34 34 33.1 34 32C34 30.9 34.9 30 36 30ZM36 39C38.7 39 41.8 40.29 42 41V42H30V41.01C30.2 40.29 33.3 39 36 39ZM36 28C33.79 28 32 29.79 32 32C32 34.21 33.79 36 36 36C38.21 36 40 34.21 40 32C40 29.79 38.21 28 36 28ZM36 37C33.33 37 28 38.34 28 41V44H44V41C44 38.34 38.67 37 36 37Z" fill="#8F8F8F"/>
</svg>
