<svg width="70" height="72" viewBox="0 0 70 72" fill="none" xmlns="http://www.w3.org/2000/svg">
<rect x="0.5" y="0.5" width="69" height="71" rx="4.5" stroke="#7B61FF" stroke-dasharray="10 5"/>
<path d="M44.84 29.22C44.79 29.1 44.73 28.99 44.66 28.88C44.52 28.67 44.33 28.48 44.12 28.34C44.01 28.27 43.9 28.21 43.78 28.16C43.54 28.06 43.28 28 43 28H42V26H40V28H32V26H30V28H29C28.58 28 28.2 28.13 27.88 28.34C27.67 28.48 27.48 28.67 27.34 28.88C27.27 28.99 27.21 29.1 27.16 29.22C27.06 29.46 27 29.72 27 30V44C27 45.1 27.89 46 29 46H43C43.28 46 43.54 45.94 43.78 45.84C43.9 45.79 44.01 45.73 44.12 45.66C44.33 45.52 44.52 45.33 44.66 45.12C44.87 44.8 45 44.41 45 44V30C45 29.72 44.94 29.46 44.84 29.22ZM29 44V30H43V44H29ZM36 37.88C33.97 37.88 30 38.96 30 41.46V43H42V41.47C42 38.96 38.03 37.88 36 37.88ZM32.31 41C33 40.44 34.69 39.88 36 39.88C37.31 39.88 39.01 40.44 39.69 41H32.31ZM36 37C37.65 37 39 35.65 39 34C39 32.35 37.65 31 36 31C34.35 31 33 32.35 33 34C33 35.65 34.35 37 36 37ZM36 33C36.55 33 37 33.45 37 34C37 34.55 36.55 35 36 35C35.45 35 35 34.55 35 34C35 33.45 35.45 33 36 33Z" fill="#8F8F8F"/>
</svg>
