<svg width="72" height="72" viewBox="0 0 72 72" fill="none" xmlns="http://www.w3.org/2000/svg">
<rect x="0.5" y="0.5" width="71" height="71" rx="4.5" stroke="#7B61FF" stroke-dasharray="10 5"/>
<g clip-path="url(#clip0_256_17437)">
<path d="M39.5 29.145C40.6 29.145 41.5 30.045 41.5 31.145C41.5 32.135 40.77 32.965 39.83 33.115L37.52 30.805C37.69 29.865 38.51 29.145 39.5 29.145ZM39.5 27.145C37.29 27.145 35.5 28.935 35.5 31.145C35.5 31.325 35.53 31.495 35.55 31.665L38.98 35.095C39.15 35.115 39.32 35.145 39.5 35.145C41.71 35.145 43.5 33.355 43.5 31.145C43.5 28.935 41.71 27.145 39.5 27.145ZM41.19 37.305L47.03 43.145H47.5V41.145C47.5 39.005 43.94 37.645 41.19 37.305ZM37.51 39.275L39.38 41.145H33.5C33.58 40.905 34.38 40.135 36.41 39.575L37.51 39.275ZM25.91 24.855L24.5 26.265L28.5 30.265V33.145H25.5V35.145H28.5V38.145H30.5V35.145H33.38L35.89 37.655C33.69 38.255 31.5 39.445 31.5 41.145V43.145H41.38L45.38 47.145L46.79 45.735L25.91 24.855ZM30.5 33.145V32.265L31.38 33.145H30.5Z" fill="#8F8F8F"/>
</g>
<defs>
<clipPath id="clip0_256_17437">
<rect width="24" height="24" fill="white" transform="translate(24 24)"/>
</clipPath>
</defs>
</svg>
