<svg width="75" height="72" viewBox="0 0 75 72" fill="none" xmlns="http://www.w3.org/2000/svg">
<rect x="0.5" y="0.5" width="74" height="71" rx="4.5" stroke="#7B61FF" stroke-dasharray="10 5"/>
<path d="M34 35C36.21 35 38 33.21 38 31C38 28.79 36.21 27 34 27C31.79 27 30 28.79 30 31C30 33.21 31.79 35 34 35ZM34 29C35.1 29 36 29.9 36 31C36 32.1 35.1 33 34 33C32.9 33 32 32.1 32 31C32 29.9 32.9 29 34 29Z" fill="#8F8F8F"/>
<path d="M28 41C28.22 40.28 31.31 39 34 39C34 38.3 34.13 37.63 34.35 37.01C31.62 36.91 26 38.27 26 41V43H35.54C35.02 42.42 34.61 41.75 34.35 41H28Z" fill="#8F8F8F"/>
<path d="M43.43 41.02C43.79 40.43 44 39.74 44 39C44 36.79 42.21 35 40 35C37.79 35 36 36.79 36 39C36 41.21 37.79 43 40 43C40.74 43 41.43 42.78 42.02 42.43C42.95 43.36 43.64 44.05 44.59 45L46 43.59C44.5 42.09 45.21 42.79 43.43 41.02ZM40 41C38.9 41 38 40.1 38 39C38 37.9 38.9 37 40 37C41.1 37 42 37.9 42 39C42 40.1 41.1 41 40 41Z" fill="#8F8F8F"/>
</svg>
