<svg width="72" height="72" viewBox="0 0 72 72" fill="none" xmlns="http://www.w3.org/2000/svg">
<rect x="0.5" y="0.5" width="71" height="71" rx="4.5" stroke="#7B61FF" stroke-dasharray="10 5"/>
<path d="M28.5 35.4978C29.8807 35.4978 31 34.3785 31 32.9978C31 31.6171 29.8807 30.4978 28.5 30.4978C27.1193 30.4978 26 31.6171 26 32.9978C26 34.3785 27.1193 35.4978 28.5 35.4978Z" fill="#8F8F8F"/>
<path d="M33 31.4978C34.3807 31.4978 35.5 30.3785 35.5 28.9978C35.5 27.6171 34.3807 26.4978 33 26.4978C31.6193 26.4978 30.5 27.6171 30.5 28.9978C30.5 30.3785 31.6193 31.4978 33 31.4978Z" fill="#8F8F8F"/>
<path d="M39 31.4978C40.3807 31.4978 41.5 30.3785 41.5 28.9978C41.5 27.6171 40.3807 26.4978 39 26.4978C37.6193 26.4978 36.5 27.6171 36.5 28.9978C36.5 30.3785 37.6193 31.4978 39 31.4978Z" fill="#8F8F8F"/>
<path d="M43.5 35.4978C44.8807 35.4978 46 34.3785 46 32.9978C46 31.6171 44.8807 30.4978 43.5 30.4978C42.1193 30.4978 41 31.6171 41 32.9978C41 34.3785 42.1193 35.4978 43.5 35.4978Z" fill="#8F8F8F"/>
<path d="M41.34 38.3578C40.47 37.3378 39.74 36.4678 38.86 35.4478C38.4 34.9078 37.81 34.3678 37.11 34.1278C37 34.0878 36.89 34.0578 36.78 34.0378C36.53 33.9978 36.26 33.9978 36 33.9978C35.74 33.9978 35.47 33.9978 35.21 34.0478C35.1 34.0678 34.99 34.0978 34.88 34.1378C34.18 34.3778 33.6 34.9178 33.13 35.4578C32.26 36.4778 31.53 37.3478 30.65 38.3678C29.34 39.6778 27.73 41.1278 28.03 43.1578C28.32 44.1778 29.05 45.1878 30.36 45.4778C31.09 45.6278 33.42 45.0378 35.9 45.0378H36.08C38.56 45.0378 40.89 45.6178 41.62 45.4778C42.93 45.1878 43.66 44.1678 43.95 43.1578C44.26 41.1178 42.65 39.6678 41.34 38.3578Z" fill="#8F8F8F"/>
</svg>
