<svg width="73" height="72" viewBox="0 0 73 72" fill="none" xmlns="http://www.w3.org/2000/svg">
<rect x="0.5" y="0.5" width="72" height="71" rx="4.5" stroke="#7B61FF" stroke-dasharray="10 5"/>
<path d="M41 30.68V26.5H39V30.68C37.84 31.1 37 32.2 37 33.5C37 34.8 37.84 35.9 39 36.32V39.5C39 41.71 37.21 43.5 35 43.5C32.79 43.5 31 41.71 31 39.5V38.33L32.59 39.92L34 38.5L29 33.5V39.5C29 42.81 31.69 45.5 35 45.5C38.31 45.5 41 42.81 41 39.5V36.32C42.16 35.91 43 34.81 43 33.5C43 32.19 42.16 31.1 41 30.68ZM40 34.5C39.45 34.5 39 34.05 39 33.5C39 32.95 39.45 32.5 40 32.5C40.55 32.5 41 32.95 41 33.5C41 34.05 40.55 34.5 40 34.5Z" fill="#8F8F8F"/>
</svg>
