<svg width="71" height="72" viewBox="0 0 71 72" fill="none" xmlns="http://www.w3.org/2000/svg">
<rect x="0.5" y="0.5" width="70" height="71" rx="4.5" stroke="#7B61FF" stroke-dasharray="10 5"/>
<path d="M44.1117 31.7L43.1117 32.7C44.9117 34.5 44.9117 37.3 43.1117 39.2L44.1117 40.2C46.6117 37.9 46.6117 34.1 44.1117 31.7ZM42.0117 33.8L41.0117 34.8C41.5117 35.5 41.5117 36.4 41.0117 37.1L42.0117 38.1C43.2117 36.9 43.2117 35.1 42.0117 33.8ZM38.0117 25H28.0117C26.9117 25 26.0117 25.9 26.0117 27V45C26.0117 46.1 26.9117 47 28.0117 47H38.0117C39.1117 47 40.0117 46.1 40.0117 45V27C40.0117 25.9 39.1117 25 38.0117 25ZM38.0117 44H28.0117V28H38.0117V44Z" fill="#8F8F8F"/>
</svg>
