<svg width="72" height="72" viewBox="0 0 72 72" fill="none" xmlns="http://www.w3.org/2000/svg">
<rect x="0.5" y="0.5" width="71" height="71" rx="4.5" stroke="#7B61FF" stroke-dasharray="10 5"/>
<path d="M30.9067 27V30H32.9067V28H42.9067V44H32.9067V42H30.9067V45C30.9067 46.1 31.8067 47 32.9067 47H42.9067C44.0067 47 44.9067 46.1 44.9067 45V27C44.9067 25.9 44.0067 25 42.9067 25H32.9067C31.8067 25 30.9067 25.9 30.9067 27ZM33.4067 39.5C33.6967 39.38 33.9567 39.21 34.2067 39.02L34.1867 39.05L35.1967 39.44C35.4267 39.53 35.6867 39.44 35.8067 39.22L36.6467 37.76C36.7667 37.55 36.7167 37.27 36.5267 37.12L35.6767 36.44L35.6567 36.47C35.6767 36.31 35.7067 36.15 35.7067 35.99C35.7067 35.83 35.6767 35.67 35.6567 35.51L35.6767 35.54L36.5267 34.86C36.7167 34.71 36.7667 34.43 36.6467 34.22L35.8067 32.76C35.6867 32.55 35.4267 32.45 35.1967 32.54L34.1867 32.93L34.2067 32.96C33.9567 32.79 33.6967 32.62 33.4067 32.5L33.2367 31.42C33.2067 31.18 32.9967 31 32.7467 31H31.0667C30.8167 31 30.6067 31.18 30.5767 31.42L30.4067 32.5C30.1167 32.62 29.8567 32.79 29.6067 32.98L29.6267 32.95L28.6067 32.56C28.3767 32.47 28.1167 32.56 27.9967 32.78L27.1567 34.24C27.0367 34.45 27.0867 34.73 27.2767 34.88L28.1267 35.56L28.1467 35.53C28.1267 35.68 28.0967 35.84 28.0967 36C28.0967 36.16 28.1267 36.32 28.1467 36.48L28.1267 36.45L27.2767 37.13C27.0867 37.28 27.0367 37.56 27.1567 37.77L27.9967 39.23C28.1167 39.44 28.3767 39.54 28.6067 39.45L29.6167 39.06L29.6067 39.02C29.8567 39.21 30.1167 39.38 30.4067 39.5L30.5767 40.57C30.6067 40.82 30.8167 41 31.0667 41H32.7467C32.9967 41 33.2067 40.82 33.2367 40.58L33.4067 39.5ZM29.9067 36C29.9067 34.9 30.8067 34 31.9067 34C33.0067 34 33.9067 34.9 33.9067 36C33.9067 37.1 33.0067 38 31.9067 38C30.8067 38 29.9067 37.1 29.9067 36Z" fill="#8F8F8F"/>
</svg>
