<svg width="69" height="72" viewBox="0 0 69 72" fill="none" xmlns="http://www.w3.org/2000/svg">
<rect x="0.5" y="0.5" width="68" height="71" rx="4.5" stroke="#7B61FF" stroke-dasharray="10 5"/>
<path d="M42.5 25H32.5C31.4 25 30.5 25.9 30.5 27V30H32.5V28H42.5V44H32.5V42H30.5V45C30.5 46.1 31.4 47 32.5 47H42.5C43.6 47 44.5 46.1 44.5 45V27C44.5 25.9 43.6 25 42.5 25ZM34.3 35V33.5C34.3 32.1 32.9 31 31.5 31C30.1 31 28.7 32.1 28.7 33.5V35C28.1 35 27.5 35.6 27.5 36.2V39.7C27.5 40.4 28.1 41 28.7 41H34.2C34.9 41 35.5 40.4 35.5 39.8V36.3C35.5 35.6 34.9 35 34.3 35ZM33 35H30V33.5C30 32.7 30.7 32.2 31.5 32.2C32.3 32.2 33 32.7 33 33.5V35Z" fill="#8F8F8F"/>
</svg>
