<svg width="72" height="72" viewBox="0 0 72 72" fill="none" xmlns="http://www.w3.org/2000/svg">
<rect x="0.5" y="0.5" width="71" height="71" rx="4.5" stroke="#7B61FF" stroke-dasharray="10 5"/>
<path d="M42.0496 37.8301L40.6196 36.4001C41.1796 35.6701 41.6696 34.9001 42.0896 34.0801L39.8896 31.8801C39.6096 31.6001 39.5296 31.2101 39.6396 30.8601C40.0096 29.7401 40.2096 28.5401 40.2096 27.2901C40.2096 26.7401 40.6596 26.2901 41.2096 26.2901H44.7096C45.2596 26.2901 45.7096 26.7401 45.7096 27.2901C45.7096 31.2701 44.3396 34.9301 42.0496 37.8301ZM39.2296 40.6401C36.3396 42.9301 32.6796 44.2901 28.7096 44.2901C28.1596 44.2901 27.7096 43.8401 27.7096 43.2901V39.8001C27.7096 39.2501 28.1596 38.8001 28.7096 38.8001C29.9496 38.8001 31.1596 38.6001 32.2796 38.2301C32.3796 38.1901 32.4896 38.1801 32.5896 38.1801C32.8496 38.1801 33.0996 38.2801 33.2996 38.4701L35.4996 40.6701C36.3096 40.2501 37.0796 39.7701 37.7996 39.2101L26.0996 27.5101L27.5196 26.1001L45.8996 44.4901L44.4896 45.9001L39.2296 40.6401ZM32.3096 40.3101C31.4596 40.5501 30.5896 40.7001 29.7096 40.7601V42.2501C31.0296 42.1601 32.2996 41.9001 33.5096 41.5001L32.3096 40.3101ZM42.1696 28.2901C42.1096 29.1801 41.9596 30.0501 41.7196 30.8801L42.9196 32.0801C43.3296 30.8801 43.5896 29.6101 43.6796 28.2901H42.1696Z" fill="#8F8F8F"/>
</svg>
