<svg width="71" height="72" viewBox="0 0 71 72" fill="none" xmlns="http://www.w3.org/2000/svg">
<rect x="0.5" y="0.5" width="70" height="71" rx="4.5" stroke="#7B61FF" stroke-dasharray="10 5"/>
<path d="M41.46 29C41.4 29.89 41.25 30.76 41.01 31.59L42.21 32.79C42.62 31.59 42.88 30.32 42.97 29H41.46ZM31.6 41.02C30.75 41.26 29.88 41.41 29 41.47V42.96C30.32 42.87 31.59 42.61 32.8 42.21L31.6 41.02ZM40.5 27H44C44.55 27 45 27.45 45 28C45 37.39 37.39 45 28 45C27.45 45 27 44.55 27 44V40.51C27 39.96 27.45 39.51 28 39.51C29.24 39.51 30.45 39.31 31.57 38.94C31.67 38.9 31.78 38.89 31.88 38.89C32.14 38.89 32.39 38.99 32.59 39.18L34.79 41.38C37.62 39.93 39.94 37.62 41.38 34.79L39.18 32.59C38.9 32.31 38.82 31.92 38.93 31.57C39.3 30.45 39.5 29.25 39.5 28C39.5 27.45 39.95 27 40.5 27Z" fill="#8F8F8F"/>
</svg>
