<svg width="72" height="72" viewBox="0 0 72 72" fill="none" xmlns="http://www.w3.org/2000/svg">
<rect x="0.5" y="0.5" width="71" height="71" rx="4.5" stroke="#7B61FF" stroke-dasharray="10 5"/>
<path d="M45 39H47V41H45V39ZM45 35H47V37H45V35ZM47 43H45V45C46 45 47 44 47 43ZM37 27H39V29H37V27ZM45 31H47V33H45V31ZM45 27V29H47C47 28 46 27 45 27ZM25 31H27V33H25V31ZM41 27H43V29H41V27ZM41 43H43V45H41V43ZM27 27C26 27 25 28 25 29H27V27ZM33 27H35V29H33V27ZM29 27H31V29H29V27ZM25 35V43C25 44.1 25.9 45 27 45H39V35H25ZM27 43L29.5 39.79L31.29 41.94L33.79 38.72L37 43H27Z" fill="#8F8F8F"/>
</svg>
