<svg width="72" height="72" viewBox="0 0 72 72" fill="none" xmlns="http://www.w3.org/2000/svg">
<rect x="0.5" y="0.5" width="71" height="71" rx="4.5" stroke="#7B61FF" stroke-dasharray="10 5"/>
<path d="M47 39H45V41H47V39ZM47 35H45V37H47V35ZM47 43H45V45C46 45 47 44 47 43ZM39 27H37V29H39V27ZM47 31H45V33H47V31ZM45 27V29H47C47 28 46 27 45 27ZM27 45H35V39H25V43C25 44.1 25.9 45 27 45ZM27 31H25V33H27V31ZM39 43H37V45H39V43ZM43 27H41V29H43V27ZM43 43H41V45H43V43ZM27 27C26 27 25 28 25 29H27V27ZM27 35H25V37H27V35ZM35 27H33V29H35V27ZM31 27H29V29H31V27Z" fill="#8F8F8F"/>
</svg>
