<svg width="72" height="72" viewBox="0 0 72 72" fill="none" xmlns="http://www.w3.org/2000/svg">
<rect x="0.5" y="0.5" width="71" height="71" rx="4.5" stroke="#7B61FF" stroke-dasharray="10 5"/>
<path d="M44 29H40.83L39 27H33L31.17 29H28C26.9 29 26 29.9 26 31V43C26 44.1 26.9 45 28 45H44C45.1 45 46 44.1 46 43V31C46 29.9 45.1 29 44 29ZM44 43H28V31H32.05L33.88 29H38.12L39.95 31H44V43Z" fill="#8F8F8F"/>
<path d="M36 37C37.1046 37 38 36.1046 38 35C38 33.8954 37.1046 33 36 33C34.8954 33 34 33.8954 34 35C34 36.1046 34.8954 37 36 37Z" fill="#8F8F8F"/>
<path d="M38.78 38.58C37.93 38.21 36.99 38 36 38C35.01 38 34.07 38.21 33.22 38.58C32.48 38.9 32 39.62 32 40.43V41H40V40.43C40 39.62 39.52 38.9 38.78 38.58Z" fill="#8F8F8F"/>
</svg>
