<svg width="72" height="72" viewBox="0 0 72 72" fill="none" xmlns="http://www.w3.org/2000/svg">
<rect x="0.5" y="0.5" width="71" height="71" rx="4.5" stroke="#7B61FF" stroke-dasharray="10 5"/>
<path d="M38.12 29L39.95 31H44V43H28V31H32.05L33.88 29H38.12ZM39 27H33L31.17 29H28C26.9 29 26 29.9 26 31V43C26 44.1 26.9 45 28 45H44C45.1 45 46 44.1 46 43V31C46 29.9 45.1 29 44 29H40.83L39 27ZM36 34C37.65 34 39 35.35 39 37C39 38.65 37.65 40 36 40C34.35 40 33 38.65 33 37C33 35.35 34.35 34 36 34ZM36 32C33.24 32 31 34.24 31 37C31 39.76 33.24 42 36 42C38.76 42 41 39.76 41 37C41 34.24 38.76 32 36 32Z" fill="#8F8F8F"/>
</svg>
