<svg width="72" height="72" viewBox="0 0 72 72" fill="none" xmlns="http://www.w3.org/2000/svg">
<rect x="0.5" y="0.5" width="71" height="71" rx="4.5" stroke="#7B61FF" stroke-dasharray="10 5"/>
<path d="M43 34V43H28.98V29H37.98V27H29C27.9 27 27 27.9 27 29V43C27 44.1 27.9 45 29 45H43C44.1 45 45 44.1 45 43V34H43ZM40.06 31.94L41 34L41.94 31.94L44 31L41.94 30.06L41 28L40.06 30.06L38 31L40.06 31.94ZM36 32L34.75 34.75L32 36L34.75 37.25L36 40L37.25 37.25L40 36L37.25 34.75L36 32Z" fill="#8F8F8F"/>
</svg>
