<svg width="70" height="72" viewBox="0 0 70 72" fill="none" xmlns="http://www.w3.org/2000/svg">
<rect x="0.5" y="0.5" width="69" height="71" rx="4.5" stroke="#7B61FF" stroke-dasharray="10 5"/>
<path d="M36.75 33H38.25V39H36.75V36.5H34.75V39H33.25V33H34.75V35H36.75V33ZM31.75 34.5V35.5C31.75 36.3 31.05 37 30.25 37H28.25V39H26.75V33H30.25C31.05 33 31.75 33.7 31.75 34.5ZM30.25 34.5H28.25V35.5H30.25V34.5ZM45.25 34.5V35.5C45.25 36.3 44.55 37 43.75 37H41.75V39H40.25V33H43.75C44.55 33 45.25 33.7 45.25 34.5ZM43.75 34.5H41.75V35.5H43.75V34.5Z" fill="#8F8F8F"/>
</svg>
