<svg width="72" height="72" viewBox="0 0 72 72" fill="none" xmlns="http://www.w3.org/2000/svg">
<rect x="0.5" y="0.5" width="71" height="71" rx="4.5" stroke="#7B61FF" stroke-dasharray="10 5"/>
<path d="M44 26H32C30.9 26 30 26.9 30 28V40C30 41.1 30.9 42 32 42H44C45.1 42 46 41.1 46 40V28C46 26.9 45.1 26 44 26ZM44 40H32V28H44V40ZM28 30H26V44C26 45.1 26.9 46 28 46H42V44H28V30ZM40 36V33C40 32.45 39.55 32 39 32H37V37H39C39.55 37 40 36.55 40 36ZM38 33H39V36H38V33ZM42 35H43V34H42V33H43V32H41V37H42V35ZM34 35H35C35.55 35 36 34.55 36 34V33C36 32.45 35.55 32 35 32H33V37H34V35ZM34 33H35V34H34V33Z" fill="#8F8F8F"/>
</svg>
