<svg width="72" height="72" viewBox="0 0 72 72" fill="none" xmlns="http://www.w3.org/2000/svg">
<rect x="0.5" y="0.5" width="71" height="71" rx="4.5" stroke="#7B61FF" stroke-dasharray="10 5"/>
<path d="M44 28H28C26.9 28 26 28.9 26 30V42C26 43.1 26.9 44 28 44H44C45.1 44 46 43.1 46 42V30C46 28.9 45.1 28 44 28ZM44 42H28V30H44V42Z" fill="#8F8F8F"/>
<path d="M30.49 34.5V39H31.64V33H30.77L29.01 34.27L29.59 35.16L30.49 34.5Z" fill="#8F8F8F"/>
<path d="M35.47 34.05C35.97 34.05 36.28 34.37 36.28 34.77C36.28 35.14 36.14 35.41 35.74 35.83C35.38 36.21 34.68 36.91 33.61 37.98V39H37.5V38.01H35.13L35.1 37.96C35.78 37.28 36.25 36.82 36.5 36.57C37.11 35.97 37.42 35.35 37.42 34.71C37.42 34.47 37.37 33.67 36.51 33.23C36.04 33 35.25 32.87 34.56 33.2C33.74 33.59 33.57 34.33 33.56 34.35L34.57 34.77C34.67 34.44 34.95 34.05 35.47 34.05Z" fill="#8F8F8F"/>
<path d="M40.99 37.94C40.16 37.94 40 37.18 39.97 37.08L38.94 37.49C39.39 39.08 40.95 39 40.99 39C42.19 39 42.67 38.28 42.75 38.15C43.07 37.66 43.11 36.91 42.74 36.39C42.57 36.15 42.34 35.98 42.06 35.87V35.8C42.26 35.7 42.43 35.54 42.58 35.32C42.84 34.91 42.89 34.25 42.56 33.75C42.48 33.64 42.03 33 40.94 33C39.68 33 39.2 33.9 39.09 34.24L40.08 34.65C40.19 34.33 40.43 34.01 40.93 34.01C41.37 34.01 41.68 34.27 41.68 34.66C41.68 35.24 41.13 35.38 40.8 35.38H40.34V36.38H40.84C41.4 36.38 41.88 36.62 41.88 37.17C41.88 37.66 41.4 37.94 40.99 37.94Z" fill="#8F8F8F"/>
</svg>
