<svg width="72" height="72" viewBox="0 0 72 72" fill="none" xmlns="http://www.w3.org/2000/svg">
<rect x="0.5" y="0.5" width="71" height="71" rx="4.5" stroke="#7B61FF" stroke-dasharray="10 5"/>
<path d="M46 36V42C46 43.1 45.1 44 44 44H28C26.9 44 26 43.1 26 42V30C26 28.9 26.9 28 28 28H38V30H28V42H44V36H46ZM46 31C46 29.34 44.66 28 43 28C41.34 28 40 29.34 40 31C40 32.66 41.34 34 43 34C44.66 34 46 32.66 46 31ZM33.34 36H35.58L32.63 38.95L34.04 40.36L37 37.42V39.66H39V34H33.34V36Z" fill="#8F8F8F"/>
</svg>
