<svg width="72" height="72" viewBox="0 0 72 72" fill="none" xmlns="http://www.w3.org/2000/svg">
<rect x="0.5" y="0.5" width="71" height="71" rx="4.5" stroke="#7B61FF" stroke-dasharray="10 5"/>
<path d="M44 36V30H28V42H38V44H28C26.9 44 26 43.1 26 42V30C26 28.9 26.9 28 28 28H44C45.1 28 46 28.9 46 30V36H44ZM43 38C41.34 38 40 39.34 40 41C40 42.66 41.34 44 43 44C44.66 44 46 42.66 46 41C46 39.34 44.66 38 43 38ZM38.66 32H33V37.66H35V35.42L37.95 38.37L39.36 36.96L36.41 34H38.65V32H38.66Z" fill="#8F8F8F"/>
</svg>
