<svg width="73" height="72" viewBox="0 0 73 72" fill="none" xmlns="http://www.w3.org/2000/svg">
<rect x="0.5" y="0.5" width="72" height="71" rx="4.5" stroke="#7B61FF" stroke-dasharray="10 5"/>
<path d="M30 26.5V25H35V30H33.5V27.56L27.56 33.5H30V35H25V30H26.5V32.44L32.44 26.5H30ZM45.89 37.77L42.09 36.1C41.96 36.04 41.81 36 41.65 36H41V31.5C41 30.12 39.88 29 38.5 29C37.12 29 36 30.12 36 31.5V39.65L34.13 39.25C33.94 39.22 33.11 39.1 32.4 39.81L31 41.22L36.12 46.41C36.49 46.79 37 47 37.53 47H44.08C45.06 47 45.89 46.3 46.05 45.33L46.97 39.89C47.12 39.03 46.68 38.17 45.89 37.77ZM44.08 45H37.53L33.83 41.22L38 42.11V31.5C38 31.22 38.22 31 38.5 31C38.78 31 39 31.22 39 31.5V37.68H40.76L45 39.56L44.08 45Z" fill="#8F8F8F"/>
</svg>
