<svg width="72" height="72" viewBox="0 0 72 72" fill="none" xmlns="http://www.w3.org/2000/svg">
<rect x="0.5" y="0.5" width="71" height="71" rx="4.5" stroke="#7B61FF" stroke-dasharray="10 5"/>
<path d="M38 26H30C28.9 26 28 26.9 28 28V44C28 45.1 28.89 46 29.99 46H42C43.1 46 44 45.1 44 44V32L38 26ZM42 44H30V28H37V33H42V44Z" fill="#8F8F8F"/>
<path d="M33.03 35.03C31.66 36.4 31.66 38.61 33.03 39.98C34.15 41.1 35.83 41.29 37.16 40.57L39.04 42.45L40.45 41.04L38.57 39.16C39.28 37.83 39.1 36.15 37.98 35.03C36.61 33.66 34.39 33.66 33.03 35.03ZM36.56 38.56C35.97 39.15 35.02 39.15 34.44 38.56C33.85 37.97 33.85 37.02 34.44 36.44C35.03 35.85 35.98 35.85 36.56 36.44C37.15 37.03 37.15 37.97 36.56 38.56Z" fill="#8F8F8F"/>
</svg>
