<svg width="73" height="72" viewBox="0 0 73 72" fill="none" xmlns="http://www.w3.org/2000/svg">
<rect x="0.5" y="0.5" width="72" height="71" rx="4.5" stroke="#7B61FF" stroke-dasharray="10 5"/>
<path d="M36 28C40.41 28 44 31.59 44 36C44 40.41 40.41 44 36 44C31.59 44 28 40.41 28 36C28 31.59 31.59 28 36 28ZM36 26C30.48 26 26 30.48 26 36C26 41.52 30.48 46 36 46C41.52 46 46 41.52 46 36C46 30.48 41.52 26 36 26ZM38 34H31V36H38V34ZM38 31H31V33H38V31ZM31 39H34V37H31V39ZM43 37.41L41.59 36L38.05 39.54L36.64 38.13L35.23 39.54L38.06 42.37L43 37.41Z" fill="#8F8F8F"/>
</svg>
