<svg width="73" height="72" viewBox="0 0 73 72" fill="none" xmlns="http://www.w3.org/2000/svg">
<rect x="0.5" y="0.5" width="72" height="71" rx="4.5" stroke="#7B61FF" stroke-dasharray="10 5"/>
<path d="M28 43.5V27.5H30V34.5L32.5 33L35 34.5V27.5H40V34.58C40.33 34.53 40.66 34.5 41 34.5C41.34 34.5 41.67 34.53 42 34.58V27.5C42 26.4 41.1 25.5 40 25.5H28C26.9 25.5 26 26.4 26 27.5V43.5C26 44.6 26.9 45.5 28 45.5H35.26C34.84 44.9 34.51 44.22 34.29 43.5H28ZM41 36.5C38.24 36.5 36 38.74 36 41.5C36 44.26 38.24 46.5 41 46.5C43.76 46.5 46 44.26 46 41.5C46 38.74 43.76 36.5 41 36.5ZM39.75 44V39L43.75 41.5L39.75 44Z" fill="#8F8F8F"/>
</svg>
