<svg width="74" height="72" viewBox="0 0 74 72" fill="none" xmlns="http://www.w3.org/2000/svg">
<rect x="0.5" y="0.5" width="73" height="71" rx="4.5" stroke="#7B61FF" stroke-dasharray="10 5"/>
<path d="M36 25L27 29V35C27 40.55 30.84 45.74 36 47C41.16 45.74 45 40.55 45 35V29L36 25ZM43 35C43 36.85 42.49 38.65 41.62 40.21L40.17 38.76C41.46 36.82 41.24 34.18 39.53 32.47C37.58 30.52 34.41 30.52 32.46 32.47C30.51 34.42 30.51 37.59 32.46 39.54C34.17 41.25 36.81 41.46 38.75 40.18L40.47 41.9C39.28 43.32 37.74 44.41 36 44.94C31.98 43.69 29 39.52 29 35V30.3L36 27.19L43 30.3V35ZM36 39C34.34 39 33 37.66 33 36C33 34.34 34.34 33 36 33C37.66 33 39 34.34 39 36C39 37.66 37.66 39 36 39Z" fill="#8F8F8F"/>
</svg>
