<svg width="75" height="72" viewBox="0 0 75 72" fill="none" xmlns="http://www.w3.org/2000/svg">
<rect x="0.5" y="0.5" width="74" height="71" rx="4.5" stroke="#7B61FF" stroke-dasharray="10 5"/>
<path d="M27.42 26.61L26.01 28.03L28.1 30.12C26.79 31.82 26 33.94 26 36.25C26 39.95 28.01 43.17 30.99 44.9L31.99 43.17C29.61 41.78 28 39.21 28 36.25C28 34.49 28.57 32.87 29.53 31.56L30.96 33C30.36 33.93 30 35.05 30 36.25C30 38.47 31.21 40.4 33 41.44L34 39.7C32.81 39 32 37.73 32 36.25C32 35.6 32.17 35 32.44 34.46L34.02 36.04L34 36.25C34 37.35 34.9 38.25 36 38.25L36.21 38.23L43.73 45.75L45.14 44.34L27.42 26.61ZM41.71 38.07C41.89 37.5 42 36.88 42 36.25C42 32.94 39.31 30.25 36 30.25C35.37 30.25 34.75 30.36 34.18 30.54L35.9 32.26C35.93 32.26 35.96 32.25 36 32.25C38.21 32.25 40 34.04 40 36.25C40 36.29 39.99 36.32 39.99 36.36L41.71 38.07ZM36 28.25C40.42 28.25 44 31.83 44 36.25C44 37.45 43.71 38.57 43.23 39.6L44.72 41.09C45.53 39.65 46 38.01 46 36.25C46 30.73 41.52 26.25 36 26.25C34.24 26.25 32.6 26.73 31.16 27.53L32.64 29.01C33.66 28.53 34.8 28.25 36 28.25Z" fill="#8F8F8F"/>
</svg>
