<svg width="72" height="72" viewBox="0 0 72 72" fill="none" xmlns="http://www.w3.org/2000/svg">
<rect x="0.5" y="0.5" width="71" height="71" rx="4.5" stroke="#7B61FF" stroke-dasharray="10 5"/>
<path d="M36 36C37.65 36 39 34.65 39 33C39 31.35 37.65 30 36 30C34.35 30 33 31.35 33 33C33 34.65 34.35 36 36 36ZM36 32C36.55 32 37 32.45 37 33C37 33.55 36.55 34 36 34C35.45 34 35 33.55 35 33C35 32.45 35.45 32 36 32ZM42 40.58C42 38.08 38.03 37 36 37C33.97 37 30 38.08 30 40.58V42H42V40.58ZM32.48 40C33.22 39.49 34.71 39 36 39C37.29 39 38.78 39.49 39.52 40H32.48ZM43 27H29C27.89 27 27 27.9 27 29V43C27 44.1 27.89 45 29 45H43C44.1 45 45 44.1 45 43V29C45 27.9 44.1 27 43 27ZM43 43H29V29H43V43Z" fill="#8F8F8F"/>
</svg>
