<svg width="77" height="72" viewBox="0 0 77 72" fill="none" xmlns="http://www.w3.org/2000/svg">
<rect x="0.5" y="0.5" width="76" height="71" rx="4.5" stroke="#7B61FF" stroke-dasharray="10 5"/>
<path d="M37 27H35V37H37V27ZM41.83 29.17L40.41 30.59C41.99 31.86 43 33.81 43 36C43 39.87 39.87 43 36 43C32.13 43 29 39.87 29 36C29 33.81 30.01 31.86 31.58 30.58L30.17 29.17C28.23 30.82 27 33.26 27 36C27 40.97 31.03 45 36 45C40.97 45 45 40.97 45 36C45 33.26 43.77 30.82 41.83 29.17Z" fill="#8F8F8F"/>
</svg>
