<svg width="72" height="72" viewBox="0 0 72 72" fill="none" xmlns="http://www.w3.org/2000/svg">
<rect x="0.5" y="0.5" width="71" height="71" rx="4.5" stroke="#7B61FF" stroke-dasharray="10 5"/>
<path d="M43 27H29C27.89 27 27 27.9 27 29V43C27 44.1 27.89 45 29 45H43C44.1 45 45 44.1 45 43V29C45 27.9 44.11 27 43 27ZM43 43H29V31H43V43ZM36 34.5C37.84 34.5 39.48 35.46 40.34 37C39.48 38.54 37.84 39.5 36 39.5C34.16 39.5 32.52 38.54 31.66 37C32.52 35.46 34.16 34.5 36 34.5ZM36 33C33.27 33 30.94 34.66 30 37C30.94 39.34 33.27 41 36 41C38.73 41 41.06 39.34 42 37C41.06 34.66 38.73 33 36 33ZM36 38.5C35.17 38.5 34.5 37.83 34.5 37C34.5 36.17 35.17 35.5 36 35.5C36.83 35.5 37.5 36.17 37.5 37C37.5 37.83 36.83 38.5 36 38.5Z" fill="#8F8F8F"/>
</svg>
