<svg width="73" height="72" viewBox="0 0 73 72" fill="none" xmlns="http://www.w3.org/2000/svg">
<rect x="0.5" y="0.5" width="72" height="71" rx="4.5" stroke="#7B61FF" stroke-dasharray="10 5"/>
<path d="M32 41H34V40H35C35.55 40 36 39.55 36 39V36C36 35.45 35.55 35 35 35H32V34H36V32H34V31H32V32H31C30.45 32 30 32.45 30 33V36C30 36.55 30.45 37 31 37H34V38H30V40H32V41ZM44 28H28C26.89 28 26.01 28.89 26.01 30L26 42C26 43.11 26.89 44 28 44H44C45.11 44 46 43.11 46 42V30C46 28.89 45.11 28 44 28ZM44 42H28V30H44V42ZM38 34L40 32L42 34H38ZM42 38.25L40 40.25L38 38.25" fill="#8F8F8F"/>
</svg>
