<svg width="72" height="72" viewBox="0 0 72 72" fill="none" xmlns="http://www.w3.org/2000/svg">
<rect x="0.5" y="0.5" width="71" height="71" rx="4.5" stroke="#7B61FF" stroke-dasharray="10 5"/>
<path d="M34.5 37V33C34.5 32.45 34.05 32 33.5 32H29.5V30H34.5V28H32V27H30V28H28.5C27.95 28 27.5 28.45 27.5 29V33C27.5 33.55 27.95 34 28.5 34H32.5V36H27.5V38H30V39H32V38H33.5C34.05 38 34.5 37.55 34.5 37Z" fill="#8F8F8F"/>
<path d="M43.09 36.52L37.43 42.17L34.6 39.34L33.19 40.76L37.43 45L44.5 37.93L43.09 36.52Z" fill="#8F8F8F"/>
</svg>
