<svg width="72" height="72" viewBox="0 0 72 72" fill="none" xmlns="http://www.w3.org/2000/svg">
<rect x="0.5" y="0.5" width="71" height="71" rx="4.5" stroke="#7B61FF" stroke-dasharray="10 5"/>
<g clip-path="url(#clip0_256_17471)">
<path d="M26.2303 24.8201L24.8203 26.2301L29.8203 31.2201C28.1603 31.2201 26.8203 32.5601 26.8203 34.2201V40.2201H30.8203V44.2201H42.8203L45.7703 47.1801L47.1803 45.7701L26.2303 24.8201ZM30.8203 38.2201H28.8203V34.2201C28.8203 33.6701 29.2703 33.2201 29.8203 33.2201H31.8203L34.8203 36.2201H30.8203V38.2201ZM32.8203 42.2201V38.2201H36.8203L40.8203 42.2201H32.8203ZM32.8203 28.2201H40.8203V31.2201H35.4803L37.4803 33.2201H43.8203C44.3703 33.2201 44.8203 33.6701 44.8203 34.2201V38.2201L42.8203 38.2301V36.2201H40.4803L44.4803 40.2201H46.8203V34.2201C46.8203 32.5601 45.4803 31.2201 43.8203 31.2201H42.8203V26.2201H30.8203V26.5801L32.8203 28.5801V28.2201Z" fill="#8F8F8F"/>
<path d="M42.8203 35.7301C43.3726 35.7301 43.8203 35.2824 43.8203 34.7301C43.8203 34.1778 43.3726 33.7301 42.8203 33.7301C42.268 33.7301 41.8203 34.1778 41.8203 34.7301C41.8203 35.2824 42.268 35.7301 42.8203 35.7301Z" fill="#8F8F8F"/>
</g>
<defs>
<clipPath id="clip0_256_17471">
<rect width="24" height="24" fill="white" transform="translate(24 24)"/>
</clipPath>
</defs>
</svg>
