<svg width="72" height="72" viewBox="0 0 72 72" fill="none" xmlns="http://www.w3.org/2000/svg">
<rect x="0.5" y="0.5" width="71" height="71" rx="4.5" stroke="#7B61FF" stroke-dasharray="10 5"/>
<path d="M43 32H42V27H30V32H29C27.34 32 26 33.34 26 35V41H30V45H42V41H46V35C46 33.34 44.66 32 43 32ZM32 29H40V32H32V29ZM40 43H32V39H40V43ZM42 39V37H30V39H28V35C28 34.45 28.45 34 29 34H43C43.55 34 44 34.45 44 35V39H42Z" fill="#8F8F8F"/>
<path d="M42 36.5C42.5523 36.5 43 36.0523 43 35.5C43 34.9477 42.5523 34.5 42 34.5C41.4477 34.5 41 34.9477 41 35.5C41 36.0523 41.4477 36.5 42 36.5Z" fill="#8F8F8F"/>
</svg>
