<svg width="72" height="72" viewBox="0 0 72 72" fill="none" xmlns="http://www.w3.org/2000/svg">
<rect x="0.5" y="0.5" width="71" height="71" rx="4.5" stroke="#7B61FF" stroke-dasharray="10 5"/>
<path d="M36 31C38.76 31 41 33.24 41 36C41 38.76 38.76 41 36 41C33.24 41 31 38.76 31 36C31 33.24 33.24 31 36 31ZM29.07 37C29.56 40.39 32.47 43 36 43C39.53 43 42.44 40.39 42.93 37H46V35H42.93C42.44 31.61 39.53 29 36 29C32.47 29 29.56 31.61 29.07 35H26V37H29.07ZM38 34.5V33.61C38 32.61 37.32 31.69 36.34 31.53C35.08 31.32 34 32.29 34 33.5V34.5C33.45 34.5 33 34.95 33 35.5V38.5C33 39.05 33.45 39.5 34 39.5H38C38.55 39.5 39 39.05 39 38.5V35.5C39 34.95 38.55 34.5 38 34.5ZM36 37.75C35.59 37.75 35.25 37.41 35.25 37C35.25 36.59 35.59 36.25 36 36.25C36.41 36.25 36.75 36.59 36.75 37C36.75 37.41 36.41 37.75 36 37.75ZM37 34.5H35V33.5C35 32.95 35.45 32.5 36 32.5C36.55 32.5 37 32.95 37 33.5V34.5Z" fill="#8F8F8F"/>
</svg>
