<svg width="72" height="72" viewBox="0 0 72 72" fill="none" xmlns="http://www.w3.org/2000/svg">
<rect x="0.5" y="0.5" width="71" height="71" rx="4.5" stroke="#7B61FF" stroke-dasharray="10 5"/>
<path d="M38 34.5H36V32.5H38V34.5ZM38 30.5H36V25.5H38V30.5ZM32 42.5C30.9 42.5 30.01 43.4 30.01 44.5C30.01 45.6 30.9 46.5 32 46.5C33.1 46.5 34 45.6 34 44.5C34 43.4 33.1 42.5 32 42.5ZM42 42.5C40.9 42.5 40.01 43.4 40.01 44.5C40.01 45.6 40.9 46.5 42 46.5C43.1 46.5 44 45.6 44 44.5C44 43.4 43.1 42.5 42 42.5ZM33.1 37.5H40.55C41.3 37.5 41.96 37.09 42.3 36.47L46 29.46L44.25 28.5L40.55 35.5H33.53L29.27 26.5H26V28.5H28L31.6 36.09L30.25 38.53C29.52 39.87 30.48 41.5 32 41.5H44V39.5H32L33.1 37.5Z" fill="#8F8F8F"/>
</svg>
