<svg width="71" height="72" viewBox="0 0 71 72" fill="none" xmlns="http://www.w3.org/2000/svg">
<rect x="0.5" y="0.5" width="70" height="71" rx="4.5" stroke="#7B61FF" stroke-dasharray="10 5"/>
<path d="M41 30.14V28C41 26.9 40.1 26 39 26H33C31.9 26 31 26.9 31 28V30.14C29.28 30.59 28 32.14 28 34V42C28 44.21 29.79 46 32 46H40C42.21 46 44 44.21 44 42V34C44 32.14 42.72 30.59 41 30.14ZM33 28H39V30H37C37 29.45 36.55 29 36 29C35.45 29 35 29.45 35 30H33V28ZM32 32H40C41.1 32 42 32.9 42 34V37H30V34C30 32.9 30.9 32 32 32ZM40 44H32C30.9 44 30 43.1 30 42V39H42V42C42 43.1 41.1 44 40 44Z" fill="#8F8F8F"/>
</svg>
