<svg width="72" height="72" viewBox="0 0 72 72" fill="none" xmlns="http://www.w3.org/2000/svg">
<rect x="0.5" y="0.5" width="71" height="71" rx="4.5" stroke="#7B61FF" stroke-dasharray="10 5"/>
<path d="M41 30H40V29C40 27.9 39.1 27 38 27H34C32.9 27 32 27.9 32 29V30H31C27.69 30 25 32.69 25 36C25 39.31 27.69 42 31 42V45H33V42H39V45H41V42C44.31 42 47 39.31 47 36C47 32.69 44.31 30 41 30ZM34 29H38V30H34V29ZM41 40H31C28.79 40 27 38.21 27 36C27 33.79 28.79 32 31 32H41C43.21 32 45 33.79 45 36C45 38.21 43.21 40 41 40Z" fill="#8F8F8F"/>
</svg>
