<svg width="70" height="72" viewBox="0 0 70 72" fill="none" xmlns="http://www.w3.org/2000/svg">
<rect x="0.5" y="0.5" width="69" height="71" rx="4.5" stroke="#7B61FF" stroke-dasharray="10 5"/>
<path d="M42.6 43.5H45V45.5H39V39.5H41V42.23C42.83 40.76 44 38.52 44 36C44 31.93 40.94 28.56 37 28.07V26.05C42.05 26.55 46 30.81 46 36C46 38.99 44.68 41.67 42.6 43.5ZM28 36C28 33.48 29.17 31.23 31 29.77V32.5H33V26.5H27V28.5H29.4C27.32 30.33 26 33.01 26 36C26 41.19 29.95 45.4501 35 45.9501V43.93C31.06 43.44 28 40.07 28 36ZM40.24 32.11L34.58 37.77L31.75 34.94L30.34 36.35L34.58 40.59L41.65 33.52L40.24 32.11Z" fill="#8F8F8F"/>
</svg>
