<svg width="72" height="72" viewBox="0 0 72 72" fill="none" xmlns="http://www.w3.org/2000/svg">
<rect x="0.5" y="0.5" width="71" height="71" rx="4.5" stroke="#7B61FF" stroke-dasharray="10 5"/>
<path d="M43 30.5H42V25.5H30V30.5H29C27.9 30.5 27 31.4 27 32.5V44.5C27 45.6 27.9 46.5 29 46.5H43C44.1 46.5 45 45.6 45 44.5V32.5C45 31.4 44.1 30.5 43 30.5ZM32 27.5H40V30.5H32V27.5ZM43 44.5H29V32.5H43V44.5Z" fill="#8F8F8F"/>
<path d="M36 33.5C33.24 33.5 31 35.74 31 38.5C31 41.26 33.24 43.5 36 43.5C38.76 43.5 41 41.26 41 38.5C41 35.74 38.76 33.5 36 33.5ZM36 42C34.07 42 32.5 40.43 32.5 38.5C32.5 36.57 34.07 35 36 35C37.93 35 39.5 36.57 39.5 38.5C39.5 40.43 37.93 42 36 42Z" fill="#8F8F8F"/>
<path d="M36.5 36H35.5V38.71L37.14 40.35L37.85 39.64L36.5 38.29V36Z" fill="#8F8F8F"/>
</svg>
