<svg width="74" height="72" viewBox="0 0 74 72" fill="none" xmlns="http://www.w3.org/2000/svg">
<rect x="0.5" y="0.5" width="73" height="71" rx="4.5" stroke="#7B61FF" stroke-dasharray="10 5"/>
<path d="M38 28V33C38 34.12 38.37 35.16 39 36H33C33.65 35.14 34 34.1 34 33V28H38ZM41 26H31C30.45 26 30 26.45 30 27C30 27.55 30.45 28 31 28H32V33C32 34.66 30.66 36 29 36V38H34.97V45L35.97 46L36.97 45V38H43V36C41.34 36 40 34.66 40 33V28H41C41.55 28 42 27.55 42 27C42 26.45 41.55 26 41 26Z" fill="#8F8F8F"/>
</svg>
