<svg width="69" height="72" viewBox="0 0 69 72" fill="none" xmlns="http://www.w3.org/2000/svg">
<rect x="0.5" y="0.5" width="68" height="71" rx="4.5" stroke="#7B61FF" stroke-dasharray="10 5"/>
<path d="M33.5 30.5V33.5H30.5V30.5H33.5ZM35 29H29V35H35V29ZM33.5 38.5V41.5H30.5V38.5H33.5ZM35 37H29V43H35V37ZM41.5 30.5V33.5H38.5V30.5H41.5ZM43 29H37V35H43V29ZM37 37H38.5V38.5H37V37ZM38.5 38.5H40V40H38.5V38.5ZM40 37H41.5V38.5H40V37ZM37 40H38.5V41.5H37V40ZM38.5 41.5H40V43H38.5V41.5ZM40 40H41.5V41.5H40V40ZM41.5 38.5H43V40H41.5V38.5ZM41.5 41.5H43V43H41.5V41.5ZM46 31H44V28H41V26H46V31ZM46 46V41H44V44H41V46H46ZM26 46H31V44H28V41H26V46ZM26 26V31H28V28H31V26H26Z" fill="#8F8F8F"/>
</svg>
