<svg width="72" height="72" viewBox="0 0 72 72" fill="none" xmlns="http://www.w3.org/2000/svg">
<g clip-path="url(#clip0_256_17477)">
<path d="M39 45H37V43H39V45ZM37 38H35V43H37V38ZM45 36H43V40H45V36ZM43 34H41V36H43V34ZM31 36H29V38H31V36ZM29 34H27V36H29V34ZM36 29H38V27H36V29ZM28.5 28.5V31.5H31.5V28.5H28.5ZM33 33H27V27H33V33ZM28.5 40.5V43.5H31.5V40.5H28.5ZM33 45H27V39H33V45ZM40.5 28.5V31.5H43.5V28.5H40.5ZM45 33H39V27H45V33ZM43 43V40H39V42H41V45H45V43H43ZM41 36H37V38H41V36ZM37 34H31V36H33V38H35V36H37V34ZM38 33V31H36V29H34V33H38ZM30.75 29.25H29.25V30.75H30.75V29.25ZM30.75 41.25H29.25V42.75H30.75V41.25ZM42.75 29.25H41.25V30.75H42.75V29.25Z" fill="#8F8F8F"/>
</g>
<rect x="0.5" y="0.5" width="71" height="71" rx="4.5" stroke="#7B61FF" stroke-dasharray="10 5"/>
<defs>
<clipPath id="clip0_256_17477">
<rect width="72" height="72" rx="5" fill="white"/>
</clipPath>
</defs>
</svg>
