<svg width="71" height="72" viewBox="0 0 71 72" fill="none" xmlns="http://www.w3.org/2000/svg">
<rect x="0.5" y="0.5" width="70" height="71" rx="4.5" stroke="#7B61FF" stroke-dasharray="10 5"/>
<path d="M27 35H35V27H27V35ZM29 29H33V33H29V29Z" fill="#8F8F8F"/>
<path d="M27 45H35V37H27V45ZM29 39H33V43H29V39Z" fill="#8F8F8F"/>
<path d="M37 27V35H45V27H37ZM43 33H39V29H43V33Z" fill="#8F8F8F"/>
<path d="M45 43H43V45H45V43Z" fill="#8F8F8F"/>
<path d="M39 37H37V39H39V37Z" fill="#8F8F8F"/>
<path d="M41 39H39V41H41V39Z" fill="#8F8F8F"/>
<path d="M39 41H37V43H39V41Z" fill="#8F8F8F"/>
<path d="M41 43H39V45H41V43Z" fill="#8F8F8F"/>
<path d="M43 41H41V43H43V41Z" fill="#8F8F8F"/>
<path d="M43 37H41V39H43V37Z" fill="#8F8F8F"/>
<path d="M45 39H43V41H45V39Z" fill="#8F8F8F"/>
</svg>
