<svg width="72" height="72" viewBox="0 0 72 72" fill="none" xmlns="http://www.w3.org/2000/svg">
<rect x="0.5" y="0.5" width="71" height="71" rx="4.5" stroke="#7B61FF" stroke-dasharray="10 5"/>
<path d="M35.0691 36.35C35.8391 34.96 37.3191 34.14 38.1791 32.91C39.0891 31.62 38.5791 29.21 35.9991 29.21C34.3091 29.21 33.4791 30.49 33.1291 31.55L30.5391 30.46C31.2491 28.33 33.1791 26.5 35.9891 26.5C38.3391 26.5 39.9491 27.57 40.7691 28.91C41.4691 30.06 41.8791 32.21 40.7991 33.81C39.5991 35.58 38.4491 36.12 37.8291 37.26C37.5791 37.72 37.4791 38.02 37.4791 39.5H34.5891C34.5791 38.72 34.4591 37.45 35.0691 36.35ZM37.9991 43.5C37.9991 44.6 37.0991 45.5 35.9991 45.5C34.8991 45.5 33.9991 44.6 33.9991 43.5C33.9991 42.4 34.8991 41.5 35.9991 41.5C37.0991 41.5 37.9991 42.4 37.9991 43.5Z" fill="#8F8F8F"/>
</svg>
