<svg width="71" height="72" viewBox="0 0 71 72" fill="none" xmlns="http://www.w3.org/2000/svg">
<rect x="0.5" y="0.5" width="70" height="71" rx="4.5" stroke="#7B61FF" stroke-dasharray="10 5"/>
<path d="M44.5 26.25H26.5C25.39 26.25 24.5 27.14 24.5 28.25V40.25C24.5 41.35 25.39 42.25 26.5 42.25H31.5V44.25H39.5V42.25H41.5V40.25H26.5V28.25H44.5V36.25H46.5V28.25C46.5 27.14 45.6 26.25 44.5 26.25ZM36.5 33.25V30.25H34.5V33.25H31.5V35.25H34.5V38.25H36.5V35.25H39.5V33.25H36.5ZM47.5 41.25L43 45.75L41.5 44.25L44.5 41.25L41.5 38.25L43 36.75L47.5 41.25Z" fill="#8F8F8F"/>
</svg>
