<svg width="72" height="72" viewBox="0 0 72 72" fill="none" xmlns="http://www.w3.org/2000/svg">
<rect x="0.5" y="0.5" width="71" height="71" rx="4.5" stroke="#7B61FF" stroke-dasharray="10 5"/>
<path d="M28 30H26V44C26 45.1 26.9 46 28 46H42V44H28V30ZM44 26H32C30.9 26 30 26.9 30 28V40C30 41.1 30.9 42 32 42H44C45.1 42 46 41.1 46 40V28C46 26.9 45.1 26 44 26ZM44 40H32V28H44V40ZM37.51 34.16C37.92 33.43 38.69 33 39.14 32.36C39.62 31.68 39.35 30.42 38 30.42C37.12 30.42 36.68 31.09 36.5 31.65L35.13 31.08C35.51 29.96 36.52 29 37.99 29C39.22 29 40.07 29.56 40.5 30.26C40.87 30.86 41.08 31.99 40.51 32.83C39.88 33.76 39.28 34.04 38.95 34.64C38.82 34.88 38.77 35.04 38.77 35.82H37.25C37.26 35.41 37.19 34.74 37.51 34.16ZM36.95 37.95C36.95 37.36 37.42 36.91 38 36.91C38.59 36.91 39.04 37.36 39.04 37.95C39.04 38.53 38.6 39 38 39C37.42 39 36.95 38.53 36.95 37.95Z" fill="#8F8F8F"/>
</svg>
