<svg width="73" height="72" viewBox="0 0 73 72" fill="none" xmlns="http://www.w3.org/2000/svg">
<rect x="0.5" y="0.5" width="72" height="71" rx="4.5" stroke="#7B61FF" stroke-dasharray="10 5"/>
<path d="M43.74 42.33C45.15 40.6 46 38.4 46 36C46 30.48 41.52 26 36 26C30.48 26 26 30.48 26 36C26 41.52 30.48 46 36 46C38.4 46 40.6 45.15 42.33 43.74C42.6 43.52 42.86 43.28 43.11 43.03C43.14 43 43.16 42.97 43.18 42.95C43.38 42.75 43.57 42.54 43.74 42.33ZM36 44C31.59 44 28 40.41 28 36C28 31.59 31.59 28 36 28C40.41 28 44 31.59 44 36C44 37.85 43.37 39.54 42.31 40.9L40.88 39.47C41.57 38.49 41.98 37.3 41.98 36.01C41.98 32.7 39.29 30.01 35.98 30.01C32.67 30.01 29.98 32.7 29.98 36.01C29.98 39.32 32.67 42.01 35.98 42.01C37.28 42.01 38.49 41.59 39.47 40.88L40.89 42.3C39.54 43.37 37.85 44 36 44ZM37.92 36.51C38.09 35.85 37.94 35.13 37.43 34.61L37.41 34.59C36.64 33.82 35.41 33.81 34.63 34.55C34.62 34.56 34.6 34.57 34.58 34.59C33.8 35.37 33.8 36.64 34.58 37.42L34.6 37.44C35.12 37.95 35.85 38.11 36.51 37.93L38.02 39.44C37.42 39.8 36.73 40.02 35.98 40.02C33.77 40.02 31.98 38.23 31.98 36.02C31.98 33.81 33.77 32.02 35.98 32.02C38.19 32.02 39.98 33.81 39.98 36.02C39.98 36.75 39.77 37.43 39.42 38.02L37.92 36.51Z" fill="#8F8F8F"/>
</svg>
