<svg width="76" height="72" viewBox="0 0 76 72" fill="none" xmlns="http://www.w3.org/2000/svg">
<rect x="0.5" y="0.5" width="75" height="71" rx="4.5" stroke="#7B61FF" stroke-dasharray="10 5"/>
<path d="M44 30.5H32.3L40.56 27.16L39.88 25.5L27.24 30.65C26.51 30.93 26 31.67 26 32.5V44.5C26 45.6 26.89 46.5 28 46.5H44C45.11 46.5 46 45.6 46 44.5V32.5C46 31.39 45.11 30.5 44 30.5ZM44 32.5V35.5H42V33.5H40V35.5H28V32.5H44ZM28 44.5V37.5H44V44.5H28Z" fill="#8F8F8F"/>
<path d="M32 43.48C33.3807 43.48 34.5 42.3607 34.5 40.98C34.5 39.5993 33.3807 38.48 32 38.48C30.6193 38.48 29.5 39.5993 29.5 40.98C29.5 42.3607 30.6193 43.48 32 43.48Z" fill="#8F8F8F"/>
</svg>
