<svg width="72" height="72" viewBox="0 0 72 72" fill="none" xmlns="http://www.w3.org/2000/svg">
<rect x="0.5" y="0.5" width="71" height="71" rx="4.5" stroke="#7B61FF" stroke-dasharray="10 5"/>
<path d="M41.7151 37.61L42.3051 35.25L43.0651 38.29H44.5451L46.0451 32.29H44.5451L43.8051 35.29L43.0651 32.29H41.5451L40.8051 35.29L40.0651 32.29H38.5651L39.2851 35.19L41.7151 37.61Z" fill="#8F8F8F"/>
<path d="M25.9551 27.51L30.7351 32.29H27.5651V38.29H29.0651V36.29H30.1651L31.0651 38.29H32.5651L31.6651 36.19C32.1651 35.89 32.5651 35.39 32.5651 34.79V34.12L33.9951 35.55L33.3151 38.29H34.8151L35.1951 36.79H35.2351L44.3451 45.9L45.7551 44.49L27.3751 26.1L25.9551 27.51ZM31.0651 34.79H29.0651V33.79H31.0651V34.79Z" fill="#8F8F8F"/>
</svg>
