<svg width="72" height="72" viewBox="0 0 72 72" fill="none" xmlns="http://www.w3.org/2000/svg">
<rect x="0.5" y="0.5" width="71" height="71" rx="4.5" stroke="#7B61FF" stroke-dasharray="10 5"/>
<path d="M30.2598 33H26.7598V39H28.2598V37H29.3598L30.2598 39H31.7598L30.8598 36.9C31.3598 36.6 31.7598 36.1 31.7598 35.5V34.5C31.7598 33.7 31.0598 33 30.2598 33ZM30.2598 35.5H28.2598V34.5H30.2598V35.5Z" fill="#8F8F8F"/>
<path d="M34.0098 33L32.5098 39H34.0098L34.3898 37.5H36.1398L36.5098 39H38.0098L36.5098 33H34.0098ZM34.7598 36L35.0098 35H35.5098L35.7598 36H34.7598Z" fill="#8F8F8F"/>
<path d="M43.7398 33L42.9998 36L42.2598 33H40.7398L39.9998 36L39.2598 33H37.7598L39.2598 39H40.7398L41.4998 35.96L42.2598 39H43.7398L45.2398 33H43.7398Z" fill="#8F8F8F"/>
</svg>
