<svg width="73" height="72" viewBox="0 0 73 72" fill="none" xmlns="http://www.w3.org/2000/svg">
<rect x="0.5" y="0.5" width="72" height="71" rx="4.5" stroke="#7B61FF" stroke-dasharray="10 5"/>
<path d="M45 29H47V43H45V29ZM41 29H43V43H41V29ZM38 29H26C25.45 29 25 29.45 25 30V42C25 42.55 25.45 43 26 43H38C38.55 43 39 42.55 39 42V30C39 29.45 38.55 29 38 29ZM37 41H27V31H37V41Z" fill="#8F8F8F"/>
<path d="M32 35.89C33.077 35.89 33.95 35.017 33.95 33.94C33.95 32.863 33.077 31.99 32 31.99C30.923 31.99 30.05 32.863 30.05 33.94C30.05 35.017 30.923 35.89 32 35.89Z" fill="#8F8F8F"/>
<path d="M35.89 39.35C35.89 38.05 33.3 37.4 32 37.4C30.7 37.4 28.11 38.05 28.11 39.35V40H35.89V39.35Z" fill="#8F8F8F"/>
</svg>
