<svg width="73" height="72" viewBox="0 0 73 72" fill="none" xmlns="http://www.w3.org/2000/svg">
<rect x="0.5" y="0.5" width="72" height="71" rx="4.5" stroke="#7B61FF" stroke-dasharray="10 5"/>
<path d="M43.5 27.5L42 26L40.5 27.5L39 26L37.5 27.5L36 26L34.5 27.5L33 26L31.5 27.5L30 26L28.5 27.5L27 26V46L28.5 44.5L30 46L31.5 44.5L33 46L34.5 44.5L36 46L37.5 44.5L39 46L40.5 44.5L42 46L43.5 44.5L45 46V26L43.5 27.5ZM43 43.09H29V28.91H43V43.09ZM30 39H42V41H30V39ZM30 35H42V37H30V35ZM30 31H42V33H30V31Z" fill="#8F8F8F"/>
</svg>
