<svg width="72" height="72" viewBox="0 0 72 72" fill="none" xmlns="http://www.w3.org/2000/svg">
<rect x="0.5" y="0.5" width="71" height="71" rx="4.5" stroke="#7B61FF" stroke-dasharray="10 5"/>
<path d="M33 37.5C35.21 37.5 37 35.71 37 33.5C37 31.29 35.21 29.5 33 29.5C30.79 29.5 29 31.29 29 33.5C29 35.71 30.79 37.5 33 37.5ZM33 31.5C34.1 31.5 35 32.4 35 33.5C35 34.6 34.1 35.5 33 35.5C31.9 35.5 31 34.6 31 33.5C31 32.4 31.9 31.5 33 31.5ZM33 39.5C30.33 39.5 25 40.84 25 43.5V45.5H41V43.5C41 40.84 35.67 39.5 33 39.5ZM27 43.5C27.22 42.78 30.31 41.5 33 41.5C35.7 41.5 38.8 42.79 39 43.5H27ZM39.08 31.55C39.92 32.73 39.92 34.26 39.08 35.44L40.76 37.13C42.78 35.11 42.78 32.06 40.76 29.86L39.08 31.55ZM44.07 26.5L42.44 28.13C45.21 31.15 45.21 35.69 42.44 38.87L44.07 40.5C47.97 36.61 47.98 30.55 44.07 26.5Z" fill="#8F8F8F"/>
</svg>
