<svg width="72" height="72" viewBox="0 0 72 72" fill="none" xmlns="http://www.w3.org/2000/svg">
<rect x="0.5" y="0.5" width="71" height="71" rx="4.5" stroke="#7B61FF" stroke-dasharray="10 5"/>
<path d="M44 30.5H41.82C41.93 30.19 42 29.85 42 29.5C42 27.84 40.66 26.5 39 26.5C37.95 26.5 37.04 27.04 36.5 27.85L36 28.52L35.5 27.84C34.96 27.04 34.05 26.5 33 26.5C31.34 26.5 30 27.84 30 29.5C30 29.85 30.07 30.19 30.18 30.5H28C26.89 30.5 26.01 31.39 26.01 32.5L26 43.5C26 44.61 26.89 45.5 28 45.5H44C45.11 45.5 46 44.61 46 43.5V32.5C46 31.39 45.11 30.5 44 30.5ZM39 28.5C39.55 28.5 40 28.95 40 29.5C40 30.05 39.55 30.5 39 30.5C38.45 30.5 38 30.05 38 29.5C38 28.95 38.45 28.5 39 28.5ZM33 28.5C33.55 28.5 34 28.95 34 29.5C34 30.05 33.55 30.5 33 30.5C32.45 30.5 32 30.05 32 29.5C32 28.95 32.45 28.5 33 28.5ZM44 43.5H28V41.5H44V43.5ZM44 38.5H28V32.5H33.08L31 35.33L32.62 36.5L36 31.9L39.38 36.5L41 35.33L38.92 32.5H44V38.5Z" fill="#8F8F8F"/>
</svg>
