<svg width="72" height="72" viewBox="0 0 72 72" fill="none" xmlns="http://www.w3.org/2000/svg">
<rect x="0.5" y="0.5" width="71" height="71" rx="4.5" stroke="#7B61FF" stroke-dasharray="10 5"/>
<path d="M41 25H31C29.9 25 29 25.9 29 27V45C29 46.1 29.9 47 31 47H41C42.1 47 43 46.1 43 45V27C43 25.9 42.1 25 41 25ZM41 45H31V44H41V45ZM41 42H31V41.52C32.47 40.53 34.22 40 36 40C37.78 40 39.53 40.53 41 41.52V42ZM41 39.21C39.5 38.44 37.8 38 36 38C34.2 38 32.5 38.44 31 39.21V30H41V39.21ZM41 28H31V27H41V28Z" fill="#8F8F8F"/>
<path d="M36 37C37.66 37 39 35.66 39 34C39 32.34 37.66 31 36 31C34.34 31 33 32.34 33 34C33 35.66 34.34 37 36 37ZM36 33C36.55 33 37 33.45 37 34C37 34.55 36.55 35 36 35C35.45 35 35 34.55 35 34C35 33.45 35.45 33 36 33Z" fill="#8F8F8F"/>
</svg>
