<svg width="77" height="72" viewBox="0 0 77 72" fill="none" xmlns="http://www.w3.org/2000/svg">
<rect x="0.5" y="0.5" width="76" height="71" rx="4.5" stroke="#7B61FF" stroke-dasharray="10 5"/>
<g clip-path="url(#clip0_256_16253)">
<path d="M25.9745 24.5649L24.5645 25.9749L28.9545 30.3649L31.1645 35.0249L29.8145 37.4749C29.6545 37.7549 29.5645 38.0849 29.5645 38.4349C29.5645 39.5349 30.4645 40.4349 31.5645 40.4349H39.0245L40.4045 41.8149C39.9045 42.1749 39.5745 42.7649 39.5745 43.4349C39.5745 44.5349 40.4645 45.4349 41.5645 45.4349C42.2345 45.4349 42.8245 45.1049 43.1845 44.5949L46.0245 47.4349L47.4345 46.0249L25.9745 24.5649ZM31.5645 38.4349L32.6645 36.4349H35.0245L37.0245 38.4349H31.5645ZM44.5645 27.4349H31.6845L33.6845 29.4349H42.8745L40.1145 34.4349H38.6745L40.6145 36.3749C41.1545 36.2349 41.6045 35.8849 41.8645 35.4049L45.4445 28.9149C45.8145 28.2549 45.3245 27.4349 44.5645 27.4349ZM31.5645 41.4349C30.4645 41.4349 29.5745 42.3349 29.5745 43.4349C29.5745 44.5349 30.4645 45.4349 31.5645 45.4349C32.6645 45.4349 33.5645 44.5349 33.5645 43.4349C33.5645 42.3349 32.6645 41.4349 31.5645 41.4349Z" fill="#8F8F8F"/>
</g>
<defs>
<clipPath id="clip0_256_16253">
<rect width="24" height="24" fill="white" transform="translate(24 24)"/>
</clipPath>
</defs>
</svg>
