<svg width="75" height="72" viewBox="0 0 75 72" fill="none" xmlns="http://www.w3.org/2000/svg">
<rect x="0.5" y="0.5" width="74" height="71" rx="4.5" stroke="#7B61FF" stroke-dasharray="10 5"/>
<path d="M36 26C30.48 26 26 30.48 26 36C26 41.52 30.48 46 36 46C41.52 46 46 41.52 46 36C46 30.48 41.52 26 36 26ZM36 42.5C32.69 42.5 30 39.81 30 36.5H32C32 38.71 33.79 40.5 36 40.5C38.21 40.5 40 38.71 40 36.5C40 34.26 38.15 32.41 35.84 32.51L37.41 34.08L36 35.5L32 31.5L36 27.5L37.41 28.91L35.81 30.51C39.28 30.4 42 33.18 42 36.5C42 39.81 39.31 42.5 36 42.5Z" fill="#8F8F8F"/>
</svg>
