<svg width="75" height="72" viewBox="0 0 75 72" fill="none" xmlns="http://www.w3.org/2000/svg">
<rect x="0.5" y="0.5" width="74" height="71" rx="4.5" stroke="#7B61FF" stroke-dasharray="10 5"/>
<path d="M36 30V26L31 31L36 36V32C39.31 32 42 34.69 42 38C42 41.31 39.31 44 36 44C32.69 44 30 41.31 30 38H28C28 42.42 31.58 46 36 46C40.42 46 44 42.42 44 38C44 33.58 40.42 30 36 30ZM34.69 38.9L34.94 36.73H37.33V37.44H35.63L35.52 38.36C35.55 38.34 35.59 38.33 35.63 38.31C35.67 38.29 35.72 38.27 35.78 38.26C35.84 38.25 35.9 38.23 35.96 38.22C36.02 38.21 36.09 38.2 36.16 38.2C36.37 38.2 36.55 38.23 36.71 38.3C36.87 38.37 37.01 38.46 37.12 38.58C37.23 38.7 37.32 38.85 37.37 39.03C37.42 39.21 37.46 39.41 37.46 39.63C37.46 39.82 37.43 40 37.37 40.17C37.31 40.34 37.22 40.49 37.1 40.62C36.98 40.75 36.83 40.86 36.65 40.93C36.47 41 36.26 41.05 36.01 41.05C35.83 41.05 35.65 41.02 35.48 40.97C35.31 40.92 35.16 40.83 35.02 40.73C34.88 40.63 34.78 40.49 34.7 40.34C34.62 40.19 34.57 40.01 34.57 39.81H35.41C35.43 39.99 35.49 40.13 35.6 40.22C35.71 40.31 35.85 40.37 36.02 40.37C36.13 40.37 36.22 40.35 36.29 40.31C36.36 40.27 36.43 40.21 36.47 40.14C36.51 40.07 36.55 39.99 36.58 39.89C36.61 39.79 36.61 39.69 36.61 39.58C36.61 39.47 36.6 39.37 36.57 39.27C36.54 39.17 36.5 39.1 36.44 39.03C36.38 38.96 36.31 38.91 36.23 38.88C36.15 38.85 36.04 38.83 35.93 38.83C35.85 38.83 35.78 38.84 35.73 38.85C35.68 38.86 35.62 38.88 35.58 38.9C35.54 38.92 35.5 38.95 35.46 38.97C35.42 38.99 35.39 39.03 35.36 39.06L34.69 38.9Z" fill="#8F8F8F"/>
</svg>
