<svg width="76" height="72" viewBox="0 0 76 72" fill="none" xmlns="http://www.w3.org/2000/svg">
<rect x="0.5" y="0.5" width="75" height="71" rx="4.5" stroke="#7B61FF" stroke-dasharray="10 5"/>
<path d="M36 30V26L31 31L36 36V32C39.31 32 42 34.69 42 38C42 41.31 39.31 44 36 44C32.69 44 30 41.31 30 38H28C28 42.42 31.58 46 36 46C40.42 46 44 42.42 44 38C44 33.58 40.42 30 36 30ZM34.9 41H34.05V37.74L33.04 38.05V37.36L34.81 36.73H34.9V41ZM39.18 39.24C39.18 39.56 39.15 39.84 39.08 40.06C39.01 40.28 38.91 40.48 38.79 40.63C38.67 40.78 38.51 40.89 38.34 40.96C38.17 41.03 37.97 41.06 37.75 41.06C37.53 41.06 37.34 41.03 37.16 40.96C36.98 40.89 36.83 40.78 36.7 40.63C36.57 40.48 36.47 40.29 36.4 40.06C36.33 39.83 36.29 39.56 36.29 39.24V38.5C36.29 38.18 36.32 37.9 36.39 37.68C36.46 37.46 36.56 37.26 36.68 37.11C36.8 36.96 36.96 36.85 37.13 36.78C37.3 36.71 37.5 36.68 37.72 36.68C37.94 36.68 38.13 36.71 38.31 36.78C38.49 36.85 38.64 36.96 38.77 37.11C38.9 37.26 39 37.45 39.07 37.68C39.14 37.91 39.18 38.18 39.18 38.5V39.24ZM38.33 38.38C38.33 38.19 38.32 38.03 38.29 37.9C38.26 37.77 38.22 37.67 38.17 37.59C38.12 37.51 38.06 37.45 37.98 37.42C37.9 37.39 37.82 37.37 37.73 37.37C37.64 37.37 37.55 37.39 37.48 37.42C37.41 37.45 37.34 37.51 37.29 37.59C37.24 37.67 37.2 37.77 37.17 37.9C37.14 38.03 37.13 38.19 37.13 38.38V39.35C37.13 39.54 37.14 39.7 37.17 39.83C37.2 39.96 37.24 40.07 37.29 40.15C37.34 40.23 37.4 40.29 37.48 40.32C37.56 40.35 37.64 40.37 37.73 40.37C37.82 40.37 37.91 40.35 37.98 40.32C38.05 40.29 38.12 40.23 38.17 40.15C38.22 40.07 38.26 39.96 38.28 39.83C38.3 39.7 38.32 39.54 38.32 39.35V38.38H38.33Z" fill="#8F8F8F"/>
</svg>
