<svg width="73" height="72" viewBox="0 0 73 72" fill="none" xmlns="http://www.w3.org/2000/svg">
<rect x="0.5" y="0.5" width="72" height="71" rx="4.5" stroke="#7B61FF" stroke-dasharray="10 5"/>
<path d="M36 30V26L31 31L36 36V32C39.31 32 42 34.69 42 38C42 41.31 39.31 44 36 44C32.69 44 30 41.31 30 38H28C28 42.42 31.58 46 36 46C40.42 46 44 42.42 44 38C44 33.58 40.42 30 36 30ZM33.56 38.49H34.01C34.22 38.49 34.38 38.44 34.49 38.33C34.6 38.22 34.65 38.08 34.65 37.9C34.65 37.82 34.64 37.75 34.61 37.68C34.58 37.61 34.55 37.56 34.5 37.51C34.45 37.46 34.39 37.42 34.32 37.4C34.25 37.38 34.16 37.36 34.07 37.36C33.99 37.36 33.92 37.37 33.85 37.39C33.78 37.41 33.72 37.44 33.67 37.49C33.62 37.54 33.58 37.58 33.55 37.64C33.52 37.7 33.5 37.77 33.5 37.84H32.65C32.65 37.66 32.69 37.5 32.76 37.36C32.83 37.22 32.93 37.09 33.06 36.99C33.19 36.89 33.33 36.81 33.5 36.76C33.67 36.71 33.85 36.68 34.04 36.68C34.25 36.68 34.45 36.71 34.63 36.76C34.81 36.81 34.96 36.89 35.09 36.99C35.22 37.09 35.32 37.22 35.39 37.37C35.46 37.52 35.5 37.7 35.5 37.9C35.5 37.99 35.49 38.08 35.46 38.17C35.43 38.26 35.39 38.34 35.33 38.42C35.27 38.5 35.21 38.57 35.13 38.64C35.05 38.71 34.96 38.76 34.85 38.81C35.09 38.9 35.27 39.02 35.39 39.2C35.51 39.38 35.57 39.58 35.57 39.81C35.57 40.01 35.53 40.19 35.45 40.34C35.37 40.49 35.27 40.63 35.13 40.73C34.99 40.83 34.84 40.92 34.65 40.97C34.46 41.02 34.27 41.05 34.05 41.05C33.87 41.05 33.69 41.03 33.52 40.98C33.35 40.93 33.19 40.86 33.06 40.75C32.93 40.64 32.81 40.52 32.73 40.37C32.65 40.22 32.61 40.03 32.61 39.82H33.46C33.46 39.9 33.48 39.97 33.51 40.04C33.54 40.11 33.58 40.16 33.64 40.21C33.7 40.26 33.76 40.3 33.84 40.32C33.92 40.34 34 40.36 34.09 40.36C34.19 40.36 34.28 40.35 34.36 40.32C34.44 40.29 34.51 40.25 34.56 40.2C34.61 40.15 34.66 40.09 34.69 40.02C34.72 39.95 34.73 39.87 34.73 39.78C34.73 39.67 34.71 39.57 34.68 39.49C34.65 39.41 34.6 39.34 34.54 39.29C34.48 39.24 34.41 39.2 34.32 39.18C34.23 39.16 34.14 39.14 34.03 39.14H33.56V38.49ZM39.3 39.24C39.3 39.56 39.27 39.84 39.2 40.06C39.13 40.28 39.03 40.48 38.91 40.63C38.79 40.78 38.63 40.89 38.46 40.96C38.29 41.03 38.09 41.06 37.87 41.06C37.65 41.06 37.46 41.03 37.28 40.96C37.1 40.89 36.95 40.78 36.82 40.63C36.69 40.48 36.59 40.29 36.52 40.06C36.45 39.83 36.41 39.56 36.41 39.24V38.5C36.41 38.18 36.44 37.9 36.51 37.68C36.58 37.46 36.68 37.26 36.8 37.11C36.92 36.96 37.08 36.85 37.25 36.78C37.42 36.71 37.62 36.68 37.84 36.68C38.06 36.68 38.25 36.71 38.43 36.78C38.61 36.85 38.76 36.96 38.89 37.11C39.02 37.26 39.12 37.45 39.19 37.68C39.26 37.91 39.3 38.18 39.3 38.5V39.24ZM38.45 38.38C38.45 38.19 38.44 38.03 38.41 37.9C38.38 37.77 38.34 37.67 38.29 37.59C38.24 37.51 38.18 37.45 38.1 37.42C38.02 37.39 37.94 37.37 37.85 37.37C37.76 37.37 37.67 37.39 37.6 37.42C37.53 37.45 37.46 37.51 37.41 37.59C37.36 37.67 37.32 37.77 37.29 37.9C37.26 38.03 37.25 38.19 37.25 38.38V39.35C37.25 39.54 37.26 39.7 37.29 39.83C37.32 39.96 37.36 40.07 37.41 40.15C37.46 40.23 37.52 40.29 37.6 40.32C37.68 40.35 37.76 40.37 37.85 40.37C37.94 40.37 38.03 40.35 38.1 40.32C38.17 40.29 38.24 40.23 38.29 40.15C38.34 40.07 38.38 39.96 38.4 39.83C38.43 39.7 38.44 39.54 38.44 39.35V38.38H38.45Z" fill="#8F8F8F"/>
</svg>
