<svg width="74" height="72" viewBox="0 0 74 72" fill="none" xmlns="http://www.w3.org/2000/svg">
<rect x="0.5" y="0.5" width="73" height="71" rx="4.5" stroke="#7B61FF" stroke-dasharray="10 5"/>
<path d="M33.3891 28.71H39.1891L43.2891 32.81V38.61L43.0691 38.83L44.4891 40.24L45.2891 39.44V31.98L40.0191 26.71H32.5591L31.7591 27.51L33.1691 28.93L33.3891 28.71Z" fill="#8F8F8F"/>
<path d="M36.2891 40.71C36.8413 40.71 37.2891 40.2623 37.2891 39.71C37.2891 39.1577 36.8413 38.71 36.2891 38.71C35.7368 38.71 35.2891 39.1577 35.2891 39.71C35.2891 40.2623 35.7368 40.71 36.2891 40.71Z" fill="#8F8F8F"/>
<path d="M37.2891 33.04V30.71H35.2891V31.04L37.2891 33.04ZM26.6991 25.29L25.2891 26.7L28.9291 30.34L27.2891 31.98V39.44L32.5591 44.71H40.0191L41.6591 43.07L45.2991 46.71L46.7091 45.3L26.6991 25.29ZM39.1891 42.71H33.3891L29.2891 38.61V32.81L30.3391 31.76L40.2391 41.66L39.1891 42.71Z" fill="#8F8F8F"/>
</svg>
