<svg width="74" height="72" viewBox="0 0 74 72" fill="none" xmlns="http://www.w3.org/2000/svg">
<rect x="0.5" y="0.5" width="73" height="71" rx="4.5" stroke="#7B61FF" stroke-dasharray="10 5"/>
<path d="M39.73 27H32.27L27 32.27V39.73L32.27 45H39.73L45 39.73V32.27L39.73 27ZM43 38.9L38.9 43H33.1L29 38.9V33.1L33.1 29H38.9L43 33.1V38.9Z" fill="#8F8F8F"/>
<path d="M36 41C36.5523 41 37 40.5523 37 40C37 39.4477 36.5523 39 36 39C35.4477 39 35 39.4477 35 40C35 40.5523 35.4477 41 36 41Z" fill="#8F8F8F"/>
<path d="M35 31H37V38H35V31Z" fill="#8F8F8F"/>
</svg>
