<svg width="72" height="72" viewBox="0 0 72 72" fill="none" xmlns="http://www.w3.org/2000/svg">
<rect x="0.5" y="0.5" width="71" height="71" rx="4.5" stroke="#7B61FF" stroke-dasharray="10 5"/>
<path d="M38 26H30C28.9 26 28 26.9 28 28V44C28 45.1 28.9 46 30 46H42C43.1 46 44 45.1 44 44V32L38 26ZM30 44V28H37V32H42V44H30ZM35 43H37V42H38C38.55 42 39 41.55 39 41V38C39 37.45 38.55 37 38 37H35V36H39V34H37V33H35V34H34C33.45 34 33 34.45 33 35V38C33 38.55 33.45 39 34 39H37V40H33V42H35V43Z" fill="#8F8F8F"/>
</svg>
