<svg width="72" height="72" viewBox="0 0 72 72" fill="none" xmlns="http://www.w3.org/2000/svg">
<rect x="0.5" y="0.5" width="71" height="71" rx="4.5" stroke="#7B61FF" stroke-dasharray="10 5"/>
<path d="M37.17 28L42 32.83V44H30V28H37.17ZM38 26H30C28.9 26 28 26.9 28 28V44C28 45.1 28.9 46 30 46H42C43.1 46 44 45.1 44 44V32L38 26ZM39 35H35V36H38C38.55 36 39 36.45 39 37V40C39 40.55 38.55 41 38 41H37V42H35V41H33V39H37V38H34C33.45 38 33 37.55 33 37V34C33 33.45 33.45 33 34 33H35V32H37V33H39V35Z" fill="#8F8F8F"/>
</svg>
