<svg width="73" height="72" viewBox="0 0 73 72" fill="none" xmlns="http://www.w3.org/2000/svg">
<rect x="0.5" y="0.5" width="72" height="71" rx="4.5" stroke="#7B61FF" stroke-dasharray="10 5"/>
<path d="M30 37.285C30 35.635 30.67 34.135 31.76 33.045L30.34 31.625C28.9 33.075 28 35.075 28 37.285C28 41.365 31.05 44.725 35 45.215V43.195C32.17 42.715 30 40.255 30 37.285ZM44 37.285C44 32.865 40.42 29.285 36 29.285C35.94 29.285 35.88 29.295 35.82 29.295L36.91 28.205L35.5 26.785L32 30.285L35.5 33.785L36.91 32.375L35.83 31.295C35.89 31.295 35.95 31.285 36 31.285C39.31 31.285 42 33.975 42 37.285C42 40.255 39.83 42.715 37 43.195V45.215C40.95 44.725 44 41.365 44 37.285Z" fill="#8F8F8F"/>
</svg>
