<svg width="73" height="72" viewBox="0 0 73 72" fill="none" xmlns="http://www.w3.org/2000/svg">
<rect x="0.5" y="0.5" width="72" height="71" rx="4.5" stroke="#7B61FF" stroke-dasharray="10 5"/>
<path d="M37.5 27C32.53 27 28.5 31.03 28.5 36H25.5L29.5 39.99L33.5 36H30.5C30.5 32.13 33.63 29 37.5 29C41.37 29 44.5 32.13 44.5 36C44.5 39.87 41.37 43 37.5 43C35.57 43 33.82 42.21 32.56 40.94L31.14 42.36C32.77 43.99 35.01 45 37.5 45C42.47 45 46.5 40.97 46.5 36C46.5 31.03 42.47 27 37.5 27ZM36.5 32V37L40.75 39.52L41.52 38.24L38 36.15V32H36.5Z" fill="#8F8F8F"/>
</svg>
