<svg width="72" height="72" viewBox="0 0 72 72" fill="none" xmlns="http://www.w3.org/2000/svg">
<rect x="0.5" y="0.5" width="71" height="71" rx="4.5" stroke="#7B61FF" stroke-dasharray="10 5"/>
<path d="M38 26H30C28.9 26 28.01 26.9 28.01 28L28 44C28 45.1 28.89 46 29.99 46H42C43.1 46 44 45.1 44 44V32L38 26ZM42 44H30V28H37.17L42 32.83V44ZM32.45 34.57L31.28 33.4V37H34.88L33.44 35.56C33.96 34.55 35.02 33.85 36.23 33.85C37.97 33.85 39.38 35.26 39.38 37C39.38 38.74 37.97 40.15 36.23 40.15C35.16 40.15 34.21 39.61 33.65 38.8H32.1C32.79 40.38 34.38 41.5 36.22 41.5C38.7 41.5 40.72 39.48 40.72 37C40.72 34.52 38.7 32.5 36.22 32.5C34.63 32.5 33.25 33.33 32.45 34.57Z" fill="#8F8F8F"/>
</svg>
