<svg width="72" height="72" viewBox="0 0 72 72" fill="none" xmlns="http://www.w3.org/2000/svg">
<rect x="0.5" y="0.5" width="71" height="71" rx="4.5" stroke="#7B61FF" stroke-dasharray="10 5"/>
<path d="M47.71 41.2401C44.66 38.3501 40.54 36.5701 36 36.5701C31.46 36.5701 27.34 38.3501 24.29 41.2401C24.11 41.4201 24 41.6701 24 41.9501C24 42.2301 24.11 42.4801 24.29 42.6601L26.77 45.1401C26.95 45.3201 27.2 45.4301 27.48 45.4301C27.75 45.4301 28 45.3201 28.18 45.1501C28.97 44.4101 29.87 43.7901 30.84 43.3001C31.17 43.1401 31.4 42.8001 31.4 42.4001V39.3001C32.85 38.8201 34.4 38.5701 36 38.5701C37.6 38.5701 39.15 38.8201 40.6 39.2901V42.3901C40.6 42.7801 40.83 43.1301 41.16 43.2901C42.14 43.7801 43.03 44.4101 43.82 45.1401C44 45.3201 44.25 45.4201 44.52 45.4201C44.8 45.4201 45.05 45.3101 45.23 45.1301L47.71 42.6501C47.89 42.4701 48 42.2201 48 41.9401C48 41.6701 47.89 41.4201 47.71 41.2401ZM29.4 41.8001C28.74 42.1701 28.11 42.6001 27.53 43.0701L26.46 42.0001C27.37 41.2501 28.36 40.6101 29.41 40.1001V41.8001H29.4ZM44.47 43.0601C43.88 42.5801 43.26 42.1601 42.6 41.7901V40.0901C43.64 40.6001 44.63 41.2401 45.54 41.9901L44.47 43.0601ZM45.16 30.8301L43.75 29.4201L40.19 32.9701L41.6 34.3801C41.6 34.3801 45.05 30.8601 45.16 30.8301ZM35 26.5701H37V31.5701H35V26.5701ZM30.4 34.3801L31.81 32.9701L28.26 29.4101L26.84 30.8301C26.95 30.8601 30.4 34.3801 30.4 34.3801Z" fill="#8F8F8F"/>
</svg>
