<svg width="77" height="72" viewBox="0 0 77 72" fill="none" xmlns="http://www.w3.org/2000/svg">
<rect x="0.5" y="0.5" width="76" height="71" rx="4.5" stroke="#7B61FF" stroke-dasharray="10 5"/>
<path d="M30 38.9997C29.17 38.9997 28.42 39.3397 27.88 39.8797C26.7 41.0597 26 45.9997 26 45.9997C26 45.9997 30.94 45.2997 32.12 44.1197C32.66 43.5797 33 42.8297 33 41.9997C33 40.3397 31.66 38.9997 30 38.9997ZM30.71 42.7097C30.43 42.9897 28.54 43.4697 28.54 43.4697C28.54 43.4697 29.01 41.5897 29.3 41.2997C29.47 41.1097 29.72 40.9997 30 40.9997C30.55 40.9997 31 41.4497 31 41.9997C31 42.2797 30.89 42.5297 30.71 42.7097ZM41.42 37.6497C47.78 31.2897 45.66 26.3397 45.66 26.3397C45.66 26.3397 40.71 24.2197 34.35 30.5797L31.86 30.0797C31.21 29.9497 30.53 30.1597 30.05 30.6297L26 34.6897L31 36.8297L35.17 40.9997L37.31 45.9997L41.36 41.9497C41.83 41.4797 42.04 40.7997 41.91 40.1397L41.42 37.6497ZM31.41 34.8297L29.5 34.0097L31.47 32.0397L32.91 32.3297C32.34 33.1597 31.83 34.0297 31.41 34.8297ZM37.99 42.4997L37.17 40.5897C37.97 40.1697 38.84 39.6597 39.66 39.0897L39.95 40.5297L37.99 42.4997ZM40 36.2397C38.68 37.5597 36.62 38.6397 35.96 38.9697L33.03 36.0397C33.35 35.3897 34.43 33.3297 35.76 31.9997C40.44 27.3197 43.99 28.0097 43.99 28.0097C43.99 28.0097 44.68 31.5597 40 36.2397ZM39 34.9997C40.1 34.9997 41 34.0997 41 32.9997C41 31.8997 40.1 30.9997 39 30.9997C37.9 30.9997 37 31.8997 37 32.9997C37 34.0997 37.9 34.9997 39 34.9997Z" fill="#8F8F8F"/>
</svg>
