<svg width="70" height="72" viewBox="0 0 70 72" fill="none" xmlns="http://www.w3.org/2000/svg">
<rect x="0.5" y="0.5" width="69" height="71" rx="4.5" stroke="#7B61FF" stroke-dasharray="10 5"/>
<path d="M38 35C38 33.9 37.1 33 36 33C34.9 33 34 33.9 34 35C34 36.1 34.9 37 36 37C37.1 37 38 36.1 38 35ZM31.98 42.25C31.69 41.35 31.41 40.31 31.22 39.25L30 40.07V43.05L31.98 42.25ZM36 26C36 26 41 28 41 37L43.11 38.41C43.67 38.78 44 39.41 44 40.07V46L39 44H33L28 46V40.07C28 39.4 28.33 38.78 28.89 38.41L31 37C31 28 36 26 36 26ZM36 28.36C36 28.36 33 30.38 33 37C33 39.25 34 42 34 42H38C38 42 39 39.25 39 37C39 30.38 36 28.36 36 28.36ZM42 43.05V40.07L40.78 39.26C40.59 40.31 40.31 41.36 40.02 42.26L42 43.05Z" fill="#8F8F8F"/>
</svg>
