<svg width="72" height="72" viewBox="0 0 72 72" fill="none" xmlns="http://www.w3.org/2000/svg">
<rect x="0.5" y="0.5" width="71" height="71" rx="4.5" stroke="#7B61FF" stroke-dasharray="10 5"/>
<path d="M39.5852 31.085L35.0352 26.535V29.605C31.0952 30.095 28.0352 33.455 28.0352 37.535C28.0352 41.615 31.0852 44.975 35.0352 45.465V43.445C32.1952 42.965 30.0352 40.505 30.0352 37.535C30.0352 34.565 32.1952 32.105 35.0352 31.625V35.535L39.5852 31.085ZM43.9652 36.535C43.7952 35.145 43.2452 33.805 42.3452 32.645L40.9252 34.065C41.4652 34.815 41.8052 35.665 41.9452 36.535H43.9652ZM37.0352 43.435V45.455C38.4252 45.285 39.7752 44.745 40.9352 43.845L39.4952 42.405C38.7452 42.945 37.9052 43.295 37.0352 43.435ZM40.9252 41.015L42.3452 42.425C43.2452 41.265 43.7952 39.925 43.9652 38.535H41.9452C41.8052 39.405 41.4652 40.255 40.9252 41.015Z" fill="#8F8F8F"/>
</svg>
