<svg width="72" height="72" viewBox="0 0 72 72" fill="none" xmlns="http://www.w3.org/2000/svg">
<rect x="0.5" y="0.5" width="71" height="71" rx="4.5" stroke="#7B61FF" stroke-dasharray="10 5"/>
<path d="M31.0752 34.065L29.6652 32.645C28.7652 33.805 28.2052 35.145 28.0352 36.535H30.0552C30.1952 35.665 30.5452 34.815 31.0752 34.065ZM30.0552 38.535H28.0352C28.2052 39.925 28.7552 41.265 29.6552 42.425L31.0652 41.005C30.5452 40.255 30.1952 39.415 30.0552 38.535ZM31.0652 43.855C32.2252 44.755 33.5752 45.295 34.9652 45.465V43.435C34.0952 43.285 33.2552 42.945 32.5052 42.405L31.0652 43.855ZM36.9652 29.605V26.535L32.4152 31.085L36.9652 35.535V31.625C39.8052 32.105 41.9652 34.565 41.9652 37.535C41.9652 40.505 39.8052 42.965 36.9652 43.445V45.465C40.9152 44.975 43.9652 41.615 43.9652 37.535C43.9652 33.455 40.9152 30.095 36.9652 29.605Z" fill="#8F8F8F"/>
</svg>
