<svg width="72" height="72" viewBox="0 0 72 72" fill="none" xmlns="http://www.w3.org/2000/svg">
<rect x="0.5" y="0.5" width="71" height="71" rx="4.5" stroke="#7B61FF" stroke-dasharray="10 5"/>
<path d="M31.9097 31.0299L25.4297 37.5199L31.9197 43.9999L38.4097 37.5199L31.9097 31.0299ZM28.2597 37.5199L31.9197 33.8599L35.5697 37.5199L31.9097 41.1799L28.2597 37.5199ZM43.9297 31.2599C42.1797 29.4999 39.8697 28.6199 37.5697 28.6199V25.3799L33.3297 29.6199L37.5697 33.8599V30.6199C39.3597 30.6199 41.1497 31.2999 42.5197 32.6699C45.2497 35.3999 45.2497 39.8399 42.5197 42.5699C41.1497 43.9399 39.3597 44.6199 37.5697 44.6199C36.5997 44.6199 35.6297 44.4099 34.7297 44.0099L33.2397 45.4999C34.5897 46.2399 36.0797 46.6199 37.5697 46.6199C39.8697 46.6199 42.1797 45.7399 43.9297 43.9799C47.4497 40.4699 47.4497 34.7699 43.9297 31.2599Z" fill="#8F8F8F"/>
</svg>
