<svg width="72" height="72" viewBox="0 0 72 72" fill="none" xmlns="http://www.w3.org/2000/svg">
<rect x="0.5" y="0.5" width="71" height="71" rx="4.5" stroke="#7B61FF" stroke-dasharray="10 5"/>
<path d="M25.5 37.5C25.5 42.47 29.53 46.5 34.5 46.5C36.26 46.5 37.9 45.99 39.29 45.12L37.83 43.66C36.84 44.19 35.7 44.5 34.5 44.5C30.64 44.5 27.5 41.36 27.5 37.5C27.5 33.64 30.64 30.5 34.5 30.5H34.67L33.09 32.09L34.5 33.5L38.5 29.5L34.5 25.5L33.08 26.91L34.67 28.5H34.5C29.53 28.5 25.5 32.53 25.5 37.5ZM34.5 37.5L40.5 43.5L46.5 37.5L40.5 31.5L34.5 37.5ZM40.5 40.67L37.33 37.5L40.5 34.33L43.67 37.5L40.5 40.67Z" fill="#8F8F8F"/>
</svg>
