<svg width="72" height="72" viewBox="0 0 72 72" fill="none" xmlns="http://www.w3.org/2000/svg">
<rect x="0.5" y="0.5" width="71" height="71" rx="4.5" stroke="#7B61FF" stroke-dasharray="10 5"/>
<path d="M43 43H45V45H43V43ZM43 41H45V39H43V41ZM27 37H29V35H27V37ZM27 41H29V39H27V41ZM27 33H29V31H27V33ZM27 29H29V27H27V29ZM31 29H33V27H31V29ZM39 45H41V43H39V45ZM35 45H37V43H35V45ZM39 45H41V43H39V45ZM31 45H33V43H31V45ZM27 45H29V43H27V45ZM45 32C45 29.24 42.76 27 40 27H35V29H40C41.65 29 43 30.35 43 32V37H45V32Z" fill="#8F8F8F"/>
</svg>
