<svg width="72" height="72" viewBox="0 0 72 72" fill="none" xmlns="http://www.w3.org/2000/svg">
<rect x="0.5" y="0.5" width="71" height="71" rx="4.5" stroke="#7B61FF" stroke-dasharray="10 5"/>
<path d="M32 38L27.5 42.5L29 44L32.5 40.5H34.5L32 38ZM38.5 24.5C37.4 24.5 36.5 25.4 36.5 26.5C36.5 27.6 37.4 28.5 38.5 28.5C39.6 28.5 40.5 27.6 40.5 26.5C40.5 25.4 39.6 24.5 38.5 24.5ZM44.5 44.51L41.5 47.5L38.51 44.49V43L31.41 35.91C31.1 35.96 30.8 35.98 30.5 35.98V33.82C32.16 33.85 34.11 32.95 35.17 31.78L36.57 30.23C36.76 30.02 37 29.85 37.26 29.73C37.55 29.59 37.88 29.5 38.22 29.5H38.25C39.49 29.51 40.5 30.52 40.5 31.76V37.51C40.5 38.35 40.15 39.12 39.58 39.67L36 36.09V33.82C35.37 34.34 34.57 34.84 33.71 35.21L40 41.5H41.5L44.5 44.51Z" fill="#8F8F8F"/>
</svg>
