<svg width="75" height="72" viewBox="0 0 75 72" fill="none" xmlns="http://www.w3.org/2000/svg">
<rect x="0.5" y="0.5" width="74" height="71" rx="4.5" stroke="#7B61FF" stroke-dasharray="10 5"/>
<path d="M30.4007 43.78C31.6047 43.78 32.5807 42.804 32.5807 41.6C32.5807 40.396 31.6047 39.42 30.4007 39.42C29.1967 39.42 28.2207 40.396 28.2207 41.6C28.2207 42.804 29.1967 43.78 30.4007 43.78Z" fill="#8F8F8F"/>
<path d="M28.2207 28.22V31.05C35.2507 31.05 40.9507 36.75 40.9507 43.78H43.7807C43.7807 35.19 36.8107 28.22 28.2207 28.22ZM28.2207 33.88V36.71C32.1207 36.71 35.2907 39.88 35.2907 43.78H38.1207C38.1207 38.31 33.6907 33.88 28.2207 33.88Z" fill="#8F8F8F"/>
</svg>
