<svg width="72" height="72" viewBox="0 0 72 72" fill="none" xmlns="http://www.w3.org/2000/svg">
<rect x="0.5" y="0.5" width="71" height="71" rx="4.5" stroke="#7B61FF" stroke-dasharray="10 5"/>
<path d="M40 33H41.5L39.75 39H38.25L36.5 33H38L39 36.43L40 33ZM29.1 36.9L30 39H28.5L27.65 37H26.5V39H25V33H28.5C29.35 33 30 33.65 30 34.5V35.5C30 36.1 29.6 36.65 29.1 36.9ZM28.5 34.5H26.5V35.5H28.5V34.5ZM45.5 37H43.5V39H42V33H45.5C46.33 33 47 33.67 47 34.5V35.5C47 36.33 46.33 37 45.5 37ZM45.5 34.5H43.5V35.5H45.5V34.5ZM35.5 33V34.5H32.5V35.25H34.5C35.05 35.25 35.5 35.7 35.5 36.25V38C35.5 38.55 35.05 39 34.5 39H31V37.5H34V36.75H31.75C31.34 36.75 31 36.41 31 36V34C31 33.45 31.45 33 32 33H35.5Z" fill="#8F8F8F"/>
</svg>
