<svg width="74" height="72" viewBox="0 0 74 72" fill="none" xmlns="http://www.w3.org/2000/svg">
<rect x="0.5" y="0.5" width="73" height="71" rx="4.5" stroke="#7B61FF" stroke-dasharray="10 5"/>
<path d="M33.03 27L31.92 34.07H34.54L35.24 29.57H37.82L35.8 42.43H33.47L33.06 45H40.33L40.73 42.43H38.38L40.38 29.57H42.96L42.25 34.07H44.9L46 27H33.03ZM32 29H28L27.69 31H31.69L32 29ZM31.39 33H27.39L27.08 35H31.08L31.39 33ZM32.31 41H26.31L26 43H32L32.31 41ZM32.93 37H26.93L26.62 39H32.63L32.93 37Z" fill="#8F8F8F"/>
</svg>
