<svg width="72" height="72" viewBox="0 0 72 72" fill="none" xmlns="http://www.w3.org/2000/svg">
<rect x="0.5" y="0.5" width="71" height="71" rx="4.5" stroke="#7B61FF" stroke-dasharray="10 5"/>
<g clip-path="url(#clip0_256_16292)">
<path d="M45.503 38.5013H47.503C47.503 43.4713 43.473 47.5013 38.503 47.5013V45.5013C42.373 45.5013 45.503 42.3713 45.503 38.5013ZM38.503 41.5013V43.5013C41.263 43.5013 43.503 41.2613 43.503 38.5013H41.503C41.503 40.1613 40.163 41.5013 38.503 41.5013ZM42.763 25.0913L46.303 28.6313C47.083 29.4113 47.083 30.6813 46.303 31.4613L43.123 34.6413C42.343 35.4213 41.073 35.4213 40.293 34.6413L39.053 33.4013L38.343 34.1013L39.583 35.3413C40.363 36.1213 40.363 37.3913 39.583 38.1713L38.173 39.5813C37.393 40.3613 36.123 40.3613 35.343 39.5813L34.103 38.3413L33.393 39.0513L34.633 40.2913C35.413 41.0713 35.413 42.3413 34.633 43.1213L31.453 46.3013C30.673 47.0813 29.403 47.0813 28.623 46.3013L25.083 42.7613C24.303 41.9813 24.303 40.7113 25.083 39.9313L28.263 36.7513C29.043 35.9713 30.313 35.9713 31.093 36.7513L32.333 37.9913L33.043 37.2813L31.803 36.0513C31.023 35.2713 31.023 34.0013 31.803 33.2213L33.223 31.8013C34.003 31.0213 35.273 31.0213 36.053 31.8013L37.293 33.0413L38.003 32.3313L36.753 31.1013C35.973 30.3213 35.973 29.0513 36.753 28.2713L39.933 25.0913C40.723 24.3013 41.983 24.3013 42.763 25.0913ZM27.563 40.2913L26.503 41.3513L30.043 44.8913L31.103 43.8313L27.563 40.2913ZM29.683 38.1713L28.623 39.2313L32.163 42.7713L33.223 41.7113L29.683 38.1713ZM34.633 33.2213L33.223 34.6313L36.763 38.1713L38.173 36.7613L34.633 33.2213ZM39.233 28.6213L38.173 29.6813L41.713 33.2213L42.773 32.1613L39.233 28.6213ZM41.353 26.5013L40.293 27.5613L43.833 31.1013L44.893 30.0413L41.353 26.5013Z" fill="#8F8F8F"/>
</g>
<defs>
<clipPath id="clip0_256_16292">
<rect width="24" height="24" fill="white" transform="translate(24 24)"/>
</clipPath>
</defs>
</svg>
