<svg width="72" height="72" viewBox="0 0 72 72" fill="none" xmlns="http://www.w3.org/2000/svg">
<rect x="0.5" y="0.5" width="71" height="71" rx="4.5" stroke="#7B61FF" stroke-dasharray="10 5"/>
<path d="M38.73 37.31C39.52 36.24 40 34.93 40 33.5C40 29.91 37.09 27 33.5 27C29.91 27 27 29.91 27 33.5C27 37.09 29.91 40 33.5 40C34.93 40 36.24 39.52 37.31 38.73L43.59 45L45 43.59L38.73 37.31ZM33.5 38C31.01 38 29 35.99 29 33.5C29 31.01 31.01 29 33.5 29C35.99 29 38 31.01 38 33.5C38 35.99 35.99 38 33.5 38Z" fill="#8F8F8F"/>
<path d="M34.29 32.44L33.5 30L32.71 32.44H30.25L32.26 34.03L31.49 36.5L33.5 34.97L35.51 36.5L34.74 34.03L36.75 32.44H34.29Z" fill="#8F8F8F"/>
</svg>
