<svg width="75" height="72" viewBox="0 0 75 72" fill="none" xmlns="http://www.w3.org/2000/svg">
<rect x="0.5" y="0.5" width="74" height="71" rx="4.5" stroke="#7B61FF" stroke-dasharray="10 5"/>
<path d="M43.8008 35.4V30L39.8008 26H27.8008C26.6908 26 25.8008 26.9 25.8008 28V42C25.8008 43.1 26.6908 44 27.8008 44H35.2008L37.2008 42H27.8008V28H38.9708L41.8008 30.83V37.4L43.8008 35.4ZM37.8008 38C37.8008 39.66 36.4608 41 34.8008 41C33.1408 41 31.8008 39.66 31.8008 38C31.8008 36.34 33.1408 35 34.8008 35C36.4608 35 37.8008 36.34 37.8008 38ZM28.8008 29H37.8008V33H28.8008V29ZM42.7908 39.25L44.5608 41.02L39.5708 46H37.8008V44.23L42.7908 39.25ZM46.0508 39.51L45.2008 40.36L43.4308 38.59L44.2808 37.74C44.4808 37.54 44.7908 37.54 44.9908 37.74L46.0508 38.8C46.2508 39 46.2508 39.32 46.0508 39.51Z" fill="#8F8F8F"/>
</svg>
