<svg width="70" height="72" viewBox="0 0 70 72" fill="none" xmlns="http://www.w3.org/2000/svg">
<rect x="0.5" y="0.5" width="69" height="71" rx="4.5" stroke="#7B61FF" stroke-dasharray="10 5"/>
<path d="M39 34.5C39 33.95 39.45 33.5 40 33.5C40.55 33.5 41 33.95 41 34.5C41 35.05 40.55 35.5 40 35.5C39.45 35.5 39 35.05 39 34.5ZM32 33.5H37V31.5H32V33.5ZM46 32V38.97L43.18 39.91L41.5 45.5H36V43.5H34V45.5H28.5C28.5 45.5 26 37.04 26 34C26 30.96 28.46 28.5 31.5 28.5H36.5C37.41 27.29 38.86 26.5 40.5 26.5C41.33 26.5 42 27.17 42 28C42 28.21 41.96 28.4 41.88 28.58C41.74 28.92 41.62 29.31 41.56 29.73L43.83 32H46ZM44 34H43L39.5 30.5C39.5 29.85 39.59 29.21 39.76 28.59C38.79 28.84 38 29.56 37.67 30.5H31.5C29.57 30.5 28 32.07 28 34C28 35.88 29.22 40.65 30.01 43.5H32V41.5H38V43.5H40.01L41.56 38.35L44 37.53V34Z" fill="#8F8F8F"/>
</svg>
