<svg width="70" height="72" viewBox="0 0 70 72" fill="none" xmlns="http://www.w3.org/2000/svg">
<rect x="0.5" y="0.5" width="69" height="71" rx="4.5" stroke="#7B61FF" stroke-dasharray="10 5"/>
<path d="M40.5 35C37.74 35 35.5 37.24 35.5 40C35.5 42.76 37.74 45 40.5 45C43.26 45 45.5 42.76 45.5 40C45.5 37.24 43.26 35 40.5 35ZM42.15 42.35L40 40.2V37H41V39.79L42.85 41.64L42.15 42.35Z" fill="#8F8F8F"/>
<path d="M34.5 35L28.5 33.5V30.01L37.37 33.75C38.31 33.28 39.37 33 40.5 33C40.6 33 40.69 33.01 40.78 33.01L26.5 27V43L33.5 40.05C33.5 40.03 33.5 40.02 33.5 40C33.5 39.2 33.64 38.44 33.89 37.72L28.5 39.99V36.5L34.5 35Z" fill="#8F8F8F"/>
</svg>
