<svg width="73" height="72" viewBox="0 0 73 72" fill="none" xmlns="http://www.w3.org/2000/svg">
<rect x="0.5" y="0.5" width="72" height="71" rx="4.5" stroke="#7B61FF" stroke-dasharray="10 5"/>
<g clip-path="url(#clip0_256_18227)">
<path d="M46.9023 37.27L44.3323 34.7L42.9223 36.11L45.1423 38.33L39.4823 43.99L28.1623 32.67L33.8223 27.01L35.9223 29.11L37.3323 27.7L34.8823 25.25C34.2923 24.66 33.3423 24.66 32.7623 25.25L26.4023 31.61C25.8123 32.2 25.8123 33.15 26.4023 33.73L38.4223 45.75C39.0123 46.34 39.9623 46.34 40.5423 45.75L46.9023 39.39C47.4923 38.8 47.4923 37.85 46.9023 37.27ZM32.1223 44.98C28.8523 43.44 26.5123 40.26 26.1523 36.5H24.6523C25.1623 42.66 30.3123 47.5 36.6023 47.5L37.2623 47.47L33.4523 43.65L32.1223 44.98ZM39.6523 33.5H44.6523C45.2023 33.5 45.6523 33.05 45.6523 32.5V28.5C45.6523 27.95 45.2023 27.5 44.6523 27.5V27C44.6523 25.62 43.5323 24.5 42.1523 24.5C40.7723 24.5 39.6523 25.62 39.6523 27V27.5C39.1023 27.5 38.6523 27.95 38.6523 28.5V32.5C38.6523 33.05 39.1023 33.5 39.6523 33.5ZM40.4523 27C40.4523 26.06 41.2123 25.3 42.1523 25.3C43.0923 25.3 43.8523 26.06 43.8523 27V27.5H40.4523V27Z" fill="#8F8F8F"/>
</g>
<defs>
<clipPath id="clip0_256_18227">
<rect width="24" height="24" fill="white" transform="translate(24 24)"/>
</clipPath>
</defs>
</svg>
