<svg width="72" height="72" viewBox="0 0 72 72" fill="none" xmlns="http://www.w3.org/2000/svg">
<rect x="0.5" y="0.5" width="71" height="71" rx="4.5" stroke="#7B61FF" stroke-dasharray="10 5"/>
<path d="M45 29H27C25.9 29 25 29.9 25 31V41C25 42.1 25.9 43 27 43H45C46.1 43 47 42.1 47 41V31C47 29.9 46.1 29 45 29ZM43 41H29V31H43V41ZM34 40H38C38.55 40 39 39.55 39 39V36C39 35.45 38.55 35 38 35V34C38 32.89 37.1 32 36 32C34.89 32 34 32.9 34 34V35C33.45 35 33 35.45 33 36V39C33 39.55 33.45 40 34 40ZM34.8 34C34.8 33.34 35.34 32.8 36 32.8C36.66 32.8 37.2 33.34 37.2 34V35H34.8V34Z" fill="#8F8F8F"/>
</svg>
