<svg width="72" height="72" viewBox="0 0 72 72" fill="none" xmlns="http://www.w3.org/2000/svg">
<rect x="0.5" y="0.5" width="71" height="71" rx="4.5" stroke="#7B61FF" stroke-dasharray="10 5"/>
<g clip-path="url(#clip0_256_18230)">
<path d="M40.4808 26.52C43.7508 28.07 46.0908 31.24 46.4508 35H47.9508C47.4408 28.84 42.2908 24 36.0008 24L35.3408 24.03L39.1508 27.84L40.4808 26.52ZM34.2308 25.75C33.6408 25.16 32.6908 25.16 32.1108 25.75L25.7508 32.11C25.1608 32.7 25.1608 33.65 25.7508 34.23L37.7708 46.25C38.3608 46.84 39.3108 46.84 39.8908 46.25L46.2508 39.89C46.8408 39.3 46.8408 38.35 46.2508 37.77L34.2308 25.75ZM38.8308 45.19L26.8108 33.17L33.1708 26.81L45.1908 38.83L38.8308 45.19ZM31.5208 45.48C28.2508 43.94 25.9108 40.76 25.5508 37H24.0508C24.5608 43.16 29.7108 48 36.0008 48L36.6608 47.97L32.8508 44.16L31.5208 45.48Z" fill="#8F8F8F"/>
</g>
<defs>
<clipPath id="clip0_256_18230">
<rect width="24" height="24" fill="white" transform="translate(24 24)"/>
</clipPath>
</defs>
</svg>
