<svg width="73" height="72" viewBox="0 0 73 72" fill="none" xmlns="http://www.w3.org/2000/svg">
<rect x="0.5" y="0.5" width="72" height="71" rx="4.5" stroke="#7B61FF" stroke-dasharray="10 5"/>
<path d="M28 42H44C45.1 42 45.99 41.1 45.99 40L46 29C46 27.9 45.1 27 44 27H28C26.9 27 26 27.9 26 29V40C26 41.1 26.9 42 28 42ZM28 29H44V40H28V29Z" fill="#8F8F8F"/>
<path d="M47 43H25V45H47V43Z" fill="#8F8F8F"/>
<path d="M37.97 31.53C36.6 30.16 34.39 30.16 33.02 31.53C31.65 32.9 31.65 35.11 33.02 36.48C34.2 37.66 36.02 37.82 37.38 36.95L39.47 39.04L40.53 37.98L38.44 35.89C39.31 34.53 39.16 32.71 37.97 31.53ZM36.91 35.41C36.13 36.19 34.86 36.19 34.08 35.41C33.3 34.63 33.3 33.36 34.08 32.58C34.86 31.8 36.13 31.8 36.91 32.58C37.69 33.37 37.69 34.63 36.91 35.41Z" fill="#8F8F8F"/>
</svg>
