<svg width="72" height="72" viewBox="0 0 72 72" fill="none" xmlns="http://www.w3.org/2000/svg">
<rect x="0.5" y="0.5" width="71" height="71" rx="4.5" stroke="#7B61FF" stroke-dasharray="10 5"/>
<path d="M31 39H34C34.55 39 35 38.55 35 38V36.5C35 35.95 34.55 35.5 34 35.5H31.5V34.5H33.5V35H35V34C35 33.45 34.55 33 34 33H31C30.45 33 30 33.45 30 34V35.5C30 36.05 30.45 36.5 31 36.5H33.5V37.5H31.5V37H30V38C30 38.55 30.45 39 31 39Z" fill="#8F8F8F"/>
<path d="M42 38V34C42 33.45 41.55 33 41 33H37V39H41C41.55 39 42 38.55 42 38ZM40.5 37.5H38.5V34.5H40.5V37.5Z" fill="#8F8F8F"/>
<path d="M44 28H28C26.89 28 26 28.9 26 30V42C26 43.1 26.89 44 28 44H44C45.1 44 46 43.1 46 42V30C46 28.9 45.1 28 44 28ZM44 42H28V30H44V42Z" fill="#8F8F8F"/>
</svg>
