<svg width="72" height="72" viewBox="0 0 72 72" fill="none" xmlns="http://www.w3.org/2000/svg">
<rect x="0.5" y="0.5" width="71" height="71" rx="4.5" stroke="#7B61FF" stroke-dasharray="10 5"/>
<path d="M40.8441 38.2549H40.0541L39.7741 37.9849C40.7541 36.8449 41.3441 35.3649 41.3441 33.7549C41.3441 30.1649 38.4341 27.2549 34.8441 27.2549C31.4241 27.2549 28.6241 29.8949 28.3741 33.2549H30.3941C30.6441 31.0049 32.5241 29.2549 34.8441 29.2549C37.3341 29.2549 39.3441 31.2649 39.3441 33.7549C39.3441 36.2449 37.3341 38.2549 34.8441 38.2549C34.6741 38.2549 34.5141 38.2249 34.3441 38.2049V40.2249C34.5141 40.2449 34.6741 40.2549 34.8441 40.2549C36.4541 40.2549 37.9341 39.6649 39.0741 38.6849L39.3441 38.9649V39.7549L44.3441 44.7449L45.8341 43.2549L40.8441 38.2549Z" fill="#8F8F8F"/>
<path d="M31.8141 35.0749L29.3441 37.5449L26.8741 35.0749L26.1641 35.7849L28.6341 38.2549L26.1641 40.7249L26.8741 41.4349L29.3441 38.9649L31.8141 41.4349L32.5241 40.7249L30.0541 38.2549L32.5241 35.7849L31.8141 35.0749Z" fill="#8F8F8F"/>
</svg>
