<svg width="14px" height="14px" viewBox="0 0 14 14" version="1.1" xmlns="http://www.w3.org/2000/svg" xmlns:xlink="http://www.w3.org/1999/xlink">
                <desc>Created with sketchtool.</desc>
                <g id="Components" stroke="none" stroke-width="1" fill="none" fill-rule="evenodd">
                    <g id="Text-fields" transform="translate(-167.000000, -1346.000000)" fill="#41434C" fill-rule="nonzero">
                        <g id="Group-2" transform="translate(149.000000, 1333.000000)">
                            <g id="search-black" transform="translate(18.000000, 13.000000)">
                                <path d="M9.7848573,8.70634175 C9.8719311,8.74598369 9.953344,8.80145225 10.0245169,8.87262516 L13.7577948,12.605903 C14.0785101,12.9266183 14.082497,13.4426136 13.7617395,13.763371 C13.4432029,14.0819077 12.921818,14.0769729 12.6042714,13.7594263 L8.87099363,10.0261485 C8.79956965,9.9547245 8.7438542,9.8736154 8.70393584,9.7871344 C7.79450938,10.4714775 6.66349636,10.8770903 5.43776104,10.8770903 C2.43456855,10.8770903 0,8.44217072 0,5.43854516 C0,2.43491961 2.43456855,0 5.43776104,0 C8.44095354,0 10.8755221,2.43491961 10.8755221,5.43854516 C10.8755221,6.66497431 10.4696255,7.79658757 9.7848573,8.70634175 Z M5.43776104,9.7893813 C7.84031504,9.7893813 9.7879699,7.84144561 9.7879699,5.43854516 C9.7879699,3.03564472 7.84031504,1.08770903 5.43776104,1.08770903 C3.03520705,1.08770903 1.08755221,3.03564472 1.08755221,5.43854516 C1.08755221,7.84144561 3.03520705,9.7893813 5.43776104,9.7893813 Z" id="Search-Icon"></path>
                            </g>
                        </g>
                    </g>
                </g>
                </svg>