<svg width="74" height="72" viewBox="0 0 74 72" fill="none" xmlns="http://www.w3.org/2000/svg">
<rect x="0.5" y="0.5" width="73" height="71" rx="4.5" stroke="#7B61FF" stroke-dasharray="10 5"/>
<path d="M27 29H29V27C27.9 27 27 27.9 27 29ZM27 37H29V35H27V37ZM31 45H33V43H31V45ZM27 33H29V31H27V33ZM37 27H35V29H37V27ZM43 27V29H45C45 27.9 44.1 27 43 27ZM29 45V43H27C27 44.1 27.9 45 29 45ZM27 41H29V39H27V41ZM33 27H31V29H33V27ZM35 45H37V43H35V45ZM43 37H45V35H43V37ZM43 45C44.1 45 45 44.1 45 43H43V45ZM43 33H45V31H43V33ZM43 41H45V39H43V41ZM39 45H41V43H39V45ZM39 29H41V27H39V29ZM31 41H41V31H31V41ZM33 33H39V39H33V33Z" fill="#8F8F8F"/>
</svg>
