<svg width="72" height="72" viewBox="0 0 72 72" fill="none" xmlns="http://www.w3.org/2000/svg">
<rect x="0.5" y="0.5" width="71" height="71" rx="4.5" stroke="#7B61FF" stroke-dasharray="10 5"/>
<path d="M45.408 35.4125L36.578 26.5825C36.208 26.2125 35.698 26.0025 35.168 26.0025H27.998C26.898 26.0025 25.998 26.9025 25.998 28.0025V35.1725C25.998 35.7025 26.208 36.2125 26.588 36.5825L35.418 45.4125C36.198 46.1925 37.468 46.1925 38.248 45.4125L45.418 38.2425C46.198 37.4625 46.198 36.2025 45.408 35.4125ZM36.828 44.0025L27.998 35.1725V28.0025H35.168L43.998 36.8325L36.828 44.0025Z" fill="#8F8F8F"/>
<path d="M30.498 32.0025C31.3265 32.0025 31.998 31.3309 31.998 30.5025C31.998 29.6741 31.3265 29.0025 30.498 29.0025C29.6696 29.0025 28.998 29.6741 28.998 30.5025C28.998 31.3309 29.6696 32.0025 30.498 32.0025Z" fill="#8F8F8F"/>
</svg>
