<svg width="71" height="72" viewBox="0 0 71 72" fill="none" xmlns="http://www.w3.org/2000/svg">
<rect x="0.5" y="0.5" width="70" height="71" rx="4.5" stroke="#7B61FF" stroke-dasharray="10 5"/>
<path d="M41 30.25V36.51L43 37.51V30.25C43 29.15 42.1 28.25 41 28.25H37C37 26.87 35.88 25.75 34.5 25.75C33.12 25.75 32 26.87 32 28.25H28.01C26.91 28.25 26.01 29.15 26.01 30.25V34.05C28.7 34.05 29 36.21 29 36.75C29 37.29 28.71 39.45 26 39.45V43.25C26 44.35 26.9 45.25 28 45.25H31.8C31.8 43.09 33.17 42.47 34 42.31V40.28C32.57 40.45 30.85 41.32 30.13 43.25H28V41.12C30.17 40.32 31 38.25 31 36.75C31 35.26 30.17 33.19 28.01 32.38V30.25H34V28.25C34 27.97 34.22 27.75 34.5 27.75C34.78 27.75 35 27.97 35 28.25V30.25H41Z" fill="#8F8F8F"/>
<path d="M36 36.25V40.25L40 41.25L36 42.25V46.25L46 41.25L36 36.25Z" fill="#8F8F8F"/>
</svg>
