<svg width="73" height="72" viewBox="0 0 73 72" fill="none" xmlns="http://www.w3.org/2000/svg">
<rect x="0.5" y="0.5" width="72" height="71" rx="4.5" stroke="#7B61FF" stroke-dasharray="10 5"/>
<path d="M40.5 32L44.5 36L40.5 40L39.09 38.59L40.67 37H35.5V35H40.67L39.08 33.41L40.5 32ZM29.5 25.01L39.5 25C40.6 25 41.5 25.9 41.5 27V31H39.5V30H29.5V42H39.5V41H41.5V45C41.5 46.1 40.6 47 39.5 47H29.5C28.4 47 27.5 46.1 27.5 45V27C27.5 25.9 28.4 25.01 29.5 25.01ZM29.5 45H39.5V44H29.5V45ZM29.5 28H39.5V27H29.5V28Z" fill="#8F8F8F"/>
</svg>
