<svg width="72" height="72" viewBox="0 0 72 72" fill="none" xmlns="http://www.w3.org/2000/svg">
<rect x="0.5" y="0.5" width="71" height="71" rx="4.5" stroke="#7B61FF" stroke-dasharray="10 5"/>
<g clip-path="url(#clip0_256_21478)">
<path d="M35.9999 35C37.6599 35 38.9999 33.66 38.9999 32C38.9999 30.34 37.6599 29 35.9999 29C34.3399 29 32.9999 30.34 32.9999 32C32.9999 33.66 34.3399 35 35.9999 35ZM35.9999 31C36.5499 31 36.9999 31.45 36.9999 32C36.9999 32.55 36.5499 33 35.9999 33C35.4499 33 34.9999 32.55 34.9999 32C34.9999 31.45 35.4499 31 35.9999 31Z" fill="#8F8F8F"/>
<path d="M35.9999 36C34.1599 36 32.4399 36.5 30.9699 37.37C30.3599 37.72 29.9999 38.39 29.9999 39.09V41H41.9999V39.09C41.9999 38.39 41.6399 37.73 41.0299 37.37C39.5599 36.5 37.8399 36 35.9999 36ZM32.1399 39C33.3199 38.35 34.6499 38 35.9999 38C37.3499 38 38.6799 38.35 39.8499 39H32.1399Z" fill="#8F8F8F"/>
<path d="M45.2299 32.15L47.0799 31.38C45.8599 28.47 43.5299 26.13 40.6199 24.92L39.8499 26.77C42.2699 27.79 44.2099 29.73 45.2299 32.15Z" fill="#8F8F8F"/>
<path d="M32.1499 26.77L31.3799 24.92C28.4699 26.14 26.1399 28.47 24.9199 31.38L26.7699 32.15C27.7899 29.73 29.7299 27.79 32.1499 26.77Z" fill="#8F8F8F"/>
<path d="M26.7699 39.85L24.9199 40.62C26.1399 43.53 28.4699 45.87 31.3799 47.08L32.1499 45.23C29.7299 44.21 27.7899 42.27 26.7699 39.85Z" fill="#8F8F8F"/>
<path d="M39.8499 45.23L40.6199 47.08C43.5299 45.86 45.8699 43.53 47.0799 40.62L45.2299 39.85C44.2099 42.27 42.2699 44.21 39.8499 45.23Z" fill="#8F8F8F"/>
</g>
<defs>
<clipPath id="clip0_256_21478">
<rect width="24" height="24" fill="white" transform="translate(24 24)"/>
</clipPath>
</defs>
</svg>
