<svg width="72" height="72" viewBox="0 0 72 72" fill="none" xmlns="http://www.w3.org/2000/svg">
<rect x="0.5" y="0.5" width="71" height="71" rx="4.5" stroke="#7B61FF" stroke-dasharray="10 5"/>
<path d="M31.76 40.2399C30.67 39.1599 30 37.6599 30 35.9999C30 34.3399 30.67 32.8399 31.76 31.7599L33.18 33.1799C32.45 33.8999 32 34.8999 32 35.9999C32 37.0999 32.45 38.0999 33.17 38.8299L31.76 40.2399ZM40.24 40.2399C41.33 39.1599 42 37.6599 42 35.9999C42 34.3399 41.33 32.8399 40.24 31.7599L38.82 33.1799C39.55 33.8999 40 34.8999 40 35.9999C40 37.0999 39.55 38.0999 38.83 38.8299L40.24 40.2399ZM36 33.9999C34.9 33.9999 34 34.8999 34 35.9999C34 37.0999 34.9 37.9999 36 37.9999C37.1 37.9999 38 37.0999 38 35.9999C38 34.8999 37.1 33.9999 36 33.9999ZM44 35.9999C44 38.2099 43.1 40.2099 41.65 41.6499L43.07 43.0699C44.88 41.2599 46 38.7599 46 35.9999C46 33.2399 44.88 30.7399 43.07 28.9299L41.65 30.3499C43.1 31.7899 44 33.7899 44 35.9999ZM30.35 30.3499L28.93 28.9299C27.12 30.7399 26 33.2399 26 35.9999C26 38.7599 27.12 41.2599 28.93 43.0699L30.35 41.6499C28.9 40.2099 28 38.2099 28 35.9999C28 33.7899 28.9 31.7899 30.35 30.3499Z" fill="#8F8F8F"/>
</svg>
