<svg width="70" height="72" viewBox="0 0 70 72" fill="none" xmlns="http://www.w3.org/2000/svg">
<rect x="0.5" y="0.5" width="69" height="71" rx="4.5" stroke="#7B61FF" stroke-dasharray="10 5"/>
<path d="M32.4453 34.255C32.3553 34.585 32.3053 34.935 32.3053 35.295C32.3053 36.395 32.7553 37.395 33.4753 38.125L32.0553 39.545C30.9753 38.455 30.3053 36.955 30.3053 35.295C30.3053 34.365 30.5153 33.495 30.8853 32.705L29.4153 31.235C28.7053 32.425 28.3053 33.815 28.3053 35.295C28.3053 37.505 29.2053 39.505 30.6553 40.945L29.2353 42.365C27.4253 40.555 26.3053 38.055 26.3053 35.295C26.3053 33.255 26.9153 31.365 27.9653 29.785L25.6953 27.515L27.1053 26.105L45.4853 44.485L44.0753 45.895L32.4453 34.255ZM41.7253 37.885C42.0953 37.095 42.3053 36.225 42.3053 35.295C42.3053 33.635 41.6353 32.135 40.5453 31.055L39.1253 32.475C39.8553 33.195 40.3053 34.195 40.3053 35.295C40.3053 35.655 40.2553 36.005 40.1653 36.335L41.7253 37.885ZM44.3053 35.295C44.3053 36.775 43.9053 38.165 43.1953 39.355L44.6453 40.805C45.6953 39.225 46.3053 37.335 46.3053 35.295C46.3053 32.535 45.1853 30.035 43.3753 28.225L41.9553 29.645C43.4053 31.085 44.3053 33.085 44.3053 35.295Z" fill="#8F8F8F"/>
</svg>
