<svg width="72" height="72" viewBox="0 0 72 72" fill="none" xmlns="http://www.w3.org/2000/svg">
<g clip-path="url(#clip0_256_17502)">
<path d="M39.5 35C40.3284 35 41 34.3284 41 33.5C41 32.6716 40.3284 32 39.5 32C38.6716 32 38 32.6716 38 33.5C38 34.3284 38.6716 35 39.5 35Z" fill="#8F8F8F"/>
<path d="M32.5 35C33.3284 35 34 34.3284 34 33.5C34 32.6716 33.3284 32 32.5 32C31.6716 32 31 32.6716 31 33.5C31 34.3284 31.6716 35 32.5 35Z" fill="#8F8F8F"/>
<path d="M36 40C34.52 40 33.25 39.19 32.55 38H30.88C31.68 40.05 33.67 41.5 36 41.5C38.33 41.5 40.32 40.05 41.12 38H39.45C38.76 39.19 37.48 40 36 40ZM35.99 26C30.47 26 26 30.48 26 36C26 41.52 30.47 46 35.99 46C41.52 46 46 41.52 46 36C46 30.48 41.52 26 35.99 26ZM36 44C31.58 44 28 40.42 28 36C28 31.58 31.58 28 36 28C40.42 28 44 31.58 44 36C44 40.42 40.42 44 36 44Z" fill="#8F8F8F"/>
</g>
<rect x="0.5" y="0.5" width="71" height="71" rx="4.5" stroke="#7B61FF" stroke-dasharray="10 5"/>
<defs>
<clipPath id="clip0_256_17502">
<rect width="72" height="72" rx="5" fill="white"/>
</clipPath>
</defs>
</svg>
