<svg width="70" height="72" viewBox="0 0 70 72" fill="none" xmlns="http://www.w3.org/2000/svg">
<rect x="0.5" y="0.5" width="69" height="71" rx="4.5" stroke="#7B61FF" stroke-dasharray="10 5"/>
<path d="M31 47H33V45H31V47ZM35 47H37V45H35V47ZM37 25H35V35H37V25ZM40.56 27.44L39.11 28.89C40.84 29.94 42 31.83 42 34C42 37.31 39.31 40 36 40C32.69 40 30 37.31 30 34C30 31.83 31.16 29.94 32.88 28.88L31.44 27.44C29.36 28.88 28 31.28 28 34C28 38.42 31.58 42 36 42C40.42 42 44 38.42 44 34C44 31.28 42.64 28.88 40.56 27.44ZM39 47H41V45H39V47Z" fill="#8F8F8F"/>
</svg>
