<svg width="77" height="72" viewBox="0 0 77 72" fill="none" xmlns="http://www.w3.org/2000/svg">
<rect x="0.5" y="0.5" width="76" height="71" rx="4.5" stroke="#7B61FF" stroke-dasharray="10 5"/>
<path d="M39.0046 33.5H33.0046C32.4546 33.5 32.0046 33.95 32.0046 34.5V46.5C32.0046 47.05 32.4546 47.5 33.0046 47.5H39.0046C39.5546 47.5 40.0046 47.05 40.0046 46.5V34.5C40.0046 33.95 39.5546 33.5 39.0046 33.5ZM38.0046 45.5H34.0046V35.5H38.0046V45.5Z" fill="#8F8F8F"/>
<path d="M36.0046 38.5C36.5569 38.5 37.0046 38.0523 37.0046 37.5C37.0046 36.9477 36.5569 36.5 36.0046 36.5C35.4523 36.5 35.0046 36.9477 35.0046 37.5C35.0046 38.0523 35.4523 38.5 36.0046 38.5Z" fill="#8F8F8F"/>
<path d="M31.0546 30.55L32.4646 31.96C33.3746 31.06 34.6246 30.5 36.0046 30.5C37.3846 30.5 38.6346 31.06 39.5446 31.96L40.9546 30.55C39.6846 29.28 37.9346 28.5 36.0046 28.5C34.0746 28.5 32.3246 29.28 31.0546 30.55ZM36.0046 24.5C32.9646 24.5 30.2146 25.73 28.2246 27.72L29.6346 29.13C31.2646 27.51 33.5146 26.5 36.0046 26.5C38.4946 26.5 40.7446 27.51 42.3646 29.14L43.7746 27.73C41.7946 25.73 39.0446 24.5 36.0046 24.5Z" fill="#8F8F8F"/>
</svg>
