<svg width="70" height="72" viewBox="0 0 70 72" fill="none" xmlns="http://www.w3.org/2000/svg">
<rect x="0.5" y="0.5" width="69" height="71" rx="4.5" stroke="#7B61FF" stroke-dasharray="10 5"/>
<path d="M31 45.5H33V47.5H31V45.5ZM36 36.5C37.66 36.5 39 35.16 39 33.5V27.5C39 25.84 37.66 24.5 36 24.5C34.34 24.5 33 25.84 33 27.5V33.5C33 35.16 34.34 36.5 36 36.5ZM35 27.5C35 26.95 35.45 26.5 36 26.5C36.55 26.5 37 26.95 37 27.5V33.5C37 34.06 36.56 34.5 36 34.5C35.45 34.5 35 34.05 35 33.5V27.5ZM35 45.5H37V47.5H35V45.5ZM39 45.5H41V47.5H39V45.5ZM43 33.5H41.3C41.3 36.5 38.76 38.6 36 38.6C33.24 38.6 30.7 36.5 30.7 33.5H29C29 36.91 31.72 39.73 35 40.22V43.5H37V40.22C40.28 39.73 43 36.91 43 33.5Z" fill="#8F8F8F"/>
</svg>
