<svg width="70" height="72" viewBox="0 0 70 72" fill="none" xmlns="http://www.w3.org/2000/svg">
<rect x="0.5" y="0.5" width="69" height="71" rx="4.5" stroke="#7B61FF" stroke-dasharray="10 5"/>
<path d="M29 26C29 25.45 28.55 25 28 25C27.45 25 27 25.45 27 26V30H25V40C25 41.3 25.84 42.4 27 42.82V47H29V42.82C30.16 42.4 31 41.3 31 40V30H29V26ZM28 41C27.45 41 27 40.55 27 40V38H29V40C29 40.55 28.55 41 28 41ZM27 36V32H29V36H27ZM37 26C37 25.45 36.55 25 36 25C35.45 25 35 25.45 35 26V30H33V40C33 41.3 33.84 42.4 35 42.82V47H37V42.82C38.16 42.4 39 41.3 39 40V30H37V26ZM36 41C35.45 41 35 40.55 35 40V38H37V40C37 40.55 36.55 41 36 41ZM35 36V32H37V36H35ZM45 30V26C45 25.45 44.55 25 44 25C43.45 25 43 25.45 43 26V30H41V40C41 41.3 41.84 42.4 43 42.82V47H45V42.82C46.16 42.4 47 41.3 47 40V30H45ZM44 41C43.45 41 43 40.55 43 40V38H45V40C45 40.55 44.55 41 44 41ZM43 36V32H45V36H43Z" fill="#8F8F8F"/>
</svg>
