<svg width="72" height="72" viewBox="0 0 72 72" fill="none" xmlns="http://www.w3.org/2000/svg">
<rect x="0.5" y="0.5" width="71" height="71" rx="4.5" stroke="#7B61FF" stroke-dasharray="10 5"/>
<path d="M30.21 37.97L31.41 40.04C31.49 40.17 31.64 40.22 31.78 40.17L33.27 39.57C33.58 39.81 33.91 40.01 34.28 40.16L34.5 41.75C34.53 41.89 34.65 42 34.8 42H37.2C37.35 42 37.47 41.89 37.5 41.74L37.72 40.15C38.08 40 38.42 39.8 38.73 39.56L40.22 40.16C40.36 40.21 40.51 40.16 40.59 40.03L41.79 37.96C41.87 37.83 41.83 37.67 41.72 37.57L40.45 36.58C40.48 36.39 40.49 36.19 40.49 36C40.49 35.8 40.47 35.61 40.45 35.41L41.72 34.42C41.83 34.33 41.87 34.16 41.79 34.03L40.59 31.96C40.51 31.83 40.36 31.78 40.22 31.83L38.73 32.43C38.42 32.19 38.09 31.99 37.72 31.84L37.5 30.25C37.47 30.11 37.35 30 37.2 30H34.8C34.65 30 34.53 30.11 34.5 30.26L34.28 31.85C33.92 32 33.57 32.19 33.27 32.43L31.78 31.83C31.64 31.78 31.49 31.83 31.41 31.96L30.21 34.03C30.13 34.16 30.17 34.32 30.28 34.42L31.55 35.41C31.52 35.61 31.5 35.8 31.5 36C31.5 36.2 31.52 36.39 31.54 36.59L30.27 37.58C30.16 37.68 30.13 37.84 30.21 37.97ZM36 34.29C36.94 34.29 37.71 35.06 37.71 36C37.71 36.94 36.94 37.71 36 37.71C35.06 37.71 34.29 36.94 34.29 36C34.29 35.06 35.06 34.29 36 34.29ZM43 27H29C27.89 27 27 27.9 27 29V43C27 44.1 27.89 45 29 45H43C44.11 45 45 44.1 45 43V29C45 27.9 44.11 27 43 27ZM43 43H29V29H43V43Z" fill="#8F8F8F"/>
</svg>
