<svg width="72" height="72" viewBox="0 0 72 72" fill="none" xmlns="http://www.w3.org/2000/svg">
<rect x="0.5" y="0.5" width="71" height="71" rx="4.5" stroke="#7B61FF" stroke-dasharray="10 5"/>
<path d="M39.5 36C39.5 34.9 38.6 34 37.5 34C36.4 34 35.5 34.9 35.5 36C35.5 37.1 36.4 38 37.5 38C38.6 38 39.5 37.1 39.5 36ZM37.5 27C32.53 27 28.5 31.03 28.5 36H25.5L29.5 40L33.5 36H30.5C30.5 32.13 33.63 29 37.5 29C41.37 29 44.5 32.13 44.5 36C44.5 39.87 41.37 43 37.5 43C35.99 43 34.59 42.51 33.44 41.7L32.02 43.14C33.54 44.3 35.44 45 37.5 45C42.47 45 46.5 40.97 46.5 36C46.5 31.03 42.47 27 37.5 27Z" fill="#8F8F8F"/>
</svg>
