<svg width="72" height="72" viewBox="0 0 72 72" fill="none" xmlns="http://www.w3.org/2000/svg">
<rect x="0.5" y="0.5" width="71" height="71" rx="4.5" stroke="#7B61FF" stroke-dasharray="10 5"/>
<path d="M39.5 41H33C30.79 41 29 39.21 29 37C29 35.07 30.36 33.44 32.22 33.08C33.04 31.8 34.47 31 36 31C37.95 31 39.66 32.28 40.26 34.09C41.84 34.45 43 35.84 43 37.5C43 39.43 41.43 41 39.5 41ZM32.74 35.02C31.74 35.15 31 35.99 31 37C31 38.1 31.9 39 33 39H39.5C40.33 39 41 38.33 41 37.5C41 36.67 40.33 36 39.5 36H38.63L38.46 35.14C38.29 33.92 37.23 33 36 33C35.04 33 34.16 33.57 33.74 34.45L33.47 35.02H32.74ZM45 27H27C25.9 27 25 27.9 25 29V43C25 44.1 25.9 45 27 45H45C46.1 45 47 44.1 47 43V29C47 27.9 46.1 27 45 27ZM45 43.01H27V28.99H45V43.01Z" fill="#8F8F8F"/>
</svg>
