<svg width="77" height="72" viewBox="0 0 77 72" fill="none" xmlns="http://www.w3.org/2000/svg">
<rect x="0.5" y="0.5" width="76" height="71" rx="4.5" stroke="#7B61FF" stroke-dasharray="10 5"/>
<path d="M43.4328 36.98C43.4728 36.66 43.5028 36.34 43.5028 36C43.5028 35.66 43.4728 35.34 43.4328 35.02L45.5428 33.37C45.7328 33.22 45.7828 32.95 45.6628 32.73L43.6628 29.27C43.5728 29.11 43.4028 29.02 43.2228 29.02C43.1628 29.02 43.1028 29.03 43.0528 29.05L40.5628 30.05C40.0428 29.65 39.4828 29.32 38.8728 29.07L38.4928 26.42C38.4628 26.18 38.2528 26 38.0028 26H34.0028C33.7528 26 33.5428 26.18 33.5128 26.42L33.1328 29.07C32.5228 29.32 31.9628 29.66 31.4428 30.05L28.9528 29.05C28.8928 29.03 28.8328 29.02 28.7728 29.02C28.6028 29.02 28.4328 29.11 28.3428 29.27L26.3428 32.73C26.2128 32.95 26.2728 33.22 26.4628 33.37L28.5728 35.02C28.5328 35.34 28.5028 35.67 28.5028 36C28.5028 36.33 28.5328 36.66 28.5728 36.98L26.4628 38.63C26.2728 38.78 26.2228 39.05 26.3428 39.27L28.3428 42.73C28.4328 42.89 28.6028 42.98 28.7828 42.98C28.8428 42.98 28.9028 42.97 28.9528 42.95L31.4428 41.95C31.9628 42.35 32.5228 42.68 33.1328 42.93L33.5128 45.58C33.5428 45.82 33.7528 46 34.0028 46H38.0028C38.2528 46 38.4628 45.82 38.4928 45.58L38.8728 42.93C39.4828 42.68 40.0428 42.34 40.5628 41.95L43.0528 42.95C43.1128 42.97 43.1728 42.98 43.2328 42.98C43.4028 42.98 43.5728 42.89 43.6628 42.73L45.6628 39.27C45.7828 39.05 45.7328 38.78 45.5428 38.63L43.4328 36.98ZM41.4528 35.27C41.4928 35.58 41.5028 35.79 41.5028 36C41.5028 36.21 41.4828 36.43 41.4528 36.73L41.3128 37.86L42.2028 38.56L43.2828 39.4L42.5828 40.61L41.3128 40.1L40.2728 39.68L39.3728 40.36C38.9428 40.68 38.5328 40.92 38.1228 41.09L37.0628 41.52L36.9028 42.65L36.7028 44H35.3028L34.9528 41.52L33.8928 41.09C33.4628 40.91 33.0628 40.68 32.6628 40.38L31.7528 39.68L30.6928 40.11L29.4228 40.62L28.7228 39.41L29.8028 38.57L30.6928 37.87L30.5528 36.74C30.5228 36.43 30.5028 36.2 30.5028 36C30.5028 35.8 30.5228 35.57 30.5528 35.27L30.6928 34.14L29.8028 33.44L28.7228 32.6L29.4228 31.39L30.6928 31.9L31.7328 32.32L32.6328 31.64C33.0628 31.32 33.4728 31.08 33.8828 30.91L34.9428 30.48L35.1028 29.35L35.3028 28H36.6928L37.0428 30.48L38.1028 30.91C38.5328 31.09 38.9328 31.32 39.3328 31.62L40.2428 32.32L41.3028 31.89L42.5728 31.38L43.2728 32.59L42.2028 33.44L41.3128 34.14L41.4528 35.27ZM36.0028 32C33.7928 32 32.0028 33.79 32.0028 36C32.0028 38.21 33.7928 40 36.0028 40C38.2128 40 40.0028 38.21 40.0028 36C40.0028 33.79 38.2128 32 36.0028 32ZM36.0028 38C34.9028 38 34.0028 37.1 34.0028 36C34.0028 34.9 34.9028 34 36.0028 34C37.1028 34 38.0028 34.9 38.0028 36C38.0028 37.1 37.1028 38 36.0028 38Z" fill="#8F8F8F"/>
</svg>
