<svg width="72" height="72" viewBox="0 0 72 72" fill="none" xmlns="http://www.w3.org/2000/svg">
<rect x="0.5" y="0.5" width="71" height="71" rx="4.5" stroke="#7B61FF" stroke-dasharray="10 5"/>
<path d="M45 27H27C25.9 27 25 27.9 25 29V43C25 44.1 25.9 45 27 45H45C46.1 45 47 44.1 47 43V29C47 27.9 46.1 27 45 27ZM45 43.01H27V28.99H45V43.01ZM32 40H34.5L36 41.5L37.5 40H40V37.5L41.5 36L40 34.5V32H37.5L36 30.5L34.5 32H32V34.5L30.5 36L32 37.5V40ZM36 33C37.66 33 39 34.34 39 36C39 37.66 37.66 39 36 39V33Z" fill="#8F8F8F"/>
</svg>
