<svg width="70" height="72" viewBox="0 0 70 72" fill="none" xmlns="http://www.w3.org/2000/svg">
<rect x="0.5" y="0.5" width="69" height="71" rx="4.5" stroke="#7B61FF" stroke-dasharray="10 5"/>
<path d="M44.5 28C41.89 28.7 38.83 29 36 29C33.17 29 30.11 28.7 27.5 28L27 30C28.86 30.5 31 30.83 33 31V43H35V37H37V43H39V31C41 30.83 43.14 30.5 45 30L44.5 28ZM36 28C37.1 28 38 27.1 38 26C38 24.9 37.1 24 36 24C34.9 24 34 24.9 34 26C34 27.1 34.9 28 36 28ZM31 48H33V46H31V48ZM35 48H37V46H35V48ZM39 48H41V46H39V48Z" fill="#8F8F8F"/>
</svg>
