<svg width="73" height="72" viewBox="0 0 73 72" fill="none" xmlns="http://www.w3.org/2000/svg">
<rect x="0.5" y="0.5" width="72" height="71" rx="4.5" stroke="#7B61FF" stroke-dasharray="10 5"/>
<path d="M35.6445 48H37.6445V46H35.6445V48ZM31.6445 48H33.6445V46H31.6445V48ZM39.6445 48H41.6445V46H39.6445V48ZM42.3545 29.71L36.6445 24H35.6445V31.59L31.0545 27L29.6445 28.41L35.2345 34L29.6445 39.59L31.0545 41L35.6445 36.41V44H36.6445L42.3545 38.29L38.0545 34L42.3545 29.71ZM37.6445 27.83L39.5245 29.71L37.6445 31.59V27.83ZM39.5245 38.29L37.6445 40.17V36.41L39.5245 38.29Z" fill="#8F8F8F"/>
</svg>
