<svg width="77" height="72" viewBox="0 0 77 72" fill="none" xmlns="http://www.w3.org/2000/svg">
<rect x="0.5" y="0.5" width="76" height="71" rx="4.5" stroke="#7B61FF" stroke-dasharray="10 5"/>
<path d="M36 29.2949C32.13 29.2949 29 32.4249 29 36.2949H31C31 33.5349 33.24 31.2949 36 31.2949C38.76 31.2949 41 33.5349 41 36.2949H43C43 32.4249 39.87 29.2949 36 29.2949ZM37 38.5849C37.88 38.1949 38.5 37.3249 38.5 36.2949C38.5 34.9149 37.38 33.7949 36 33.7949C34.62 33.7949 33.5 34.9149 33.5 36.2949C33.5 37.3149 34.12 38.1949 35 38.5849V41.8849L31.59 45.2949L33 46.7049L36 43.7049L39 46.7049L40.41 45.2949L37 41.8849V38.5849ZM36 25.2949C29.93 25.2949 25 30.2249 25 36.2949H27C27 31.3249 31.03 27.2949 36 27.2949C40.97 27.2949 45 31.3249 45 36.2949H47C47 30.2249 42.07 25.2949 36 25.2949Z" fill="#8F8F8F"/>
</svg>
