<svg width="73" height="72" viewBox="0 0 73 72" fill="none" xmlns="http://www.w3.org/2000/svg">
<rect x="0.5" y="0.5" width="72" height="71" rx="4.5" stroke="#7B61FF" stroke-dasharray="10 5"/>
<path d="M32 35.5C32 34.67 31.33 34 30.5 34C29.67 34 29 34.67 29 35.5C29 36.33 29.67 37 30.5 37C31.33 37 32 36.33 32 35.5ZM39 30.5C39 29.67 38.33 29 37.5 29H34.5C33.67 29 33 29.67 33 30.5C33 31.33 33.67 32 34.5 32H37.5C38.33 32 39 31.33 39 30.5ZM32.5 39C31.67 39 31 39.67 31 40.5C31 41.33 31.67 42 32.5 42C33.33 42 34 41.33 34 40.5C34 39.67 33.33 39 32.5 39ZM36 25C29.93 25 25 29.93 25 36C25 42.07 29.93 47 36 47C42.07 47 47 42.07 47 36C47 29.93 42.07 25 36 25ZM36 45C31.04 45 27 40.96 27 36C27 31.04 31.04 27 36 27C40.96 27 45 31.04 45 36C45 40.96 40.96 45 36 45ZM41.5 34C40.67 34 40 34.67 40 35.5C40 36.33 40.67 37 41.5 37C42.33 37 43 36.33 43 35.5C43 34.67 42.33 34 41.5 34ZM39.5 39C38.67 39 38 39.67 38 40.5C38 41.33 38.67 42 39.5 42C40.33 42 41 41.33 41 40.5C41 39.67 40.33 39 39.5 39Z" fill="#8F8F8F"/>
</svg>
