<svg width="73" height="72" viewBox="0 0 73 72" fill="none" xmlns="http://www.w3.org/2000/svg">
<rect x="0.5" y="0.5" width="72" height="71" rx="4.5" stroke="#7B61FF" stroke-dasharray="10 5"/>
<path d="M33.5902 37C34.1402 37 34.5902 37.45 34.5902 38C34.5902 38.55 34.1402 39 33.5902 39C33.0402 39 32.5902 38.55 32.5902 38C32.5902 37.45 33.0402 37 33.5902 37ZM33.5902 35C31.9302 35 30.5902 36.34 30.5902 38C30.5902 39.66 31.9302 41 33.5902 41C35.2502 41 36.5902 39.66 36.5902 38C36.5902 36.34 35.2502 35 33.5902 35ZM42.0902 33L43.1802 30.59L45.5902 29.5L43.1802 28.41L42.0902 26L41.0002 28.41L38.5902 29.5L41.0002 30.59L42.0902 33ZM44.8702 36.72L44.0902 35L43.3102 36.72L41.5902 37.5L43.3102 38.28L44.0902 40L44.8702 38.28L46.5902 37.5L44.8702 36.72ZM39.8402 38C39.8402 37.88 39.8402 37.75 39.8302 37.63L41.7702 36.16L39.2702 31.83L37.0302 32.77C36.8302 32.64 36.6102 32.51 36.3902 32.4L36.0902 30H31.0902L30.7902 32.41C30.5702 32.52 30.3602 32.65 30.1502 32.78L27.9102 31.83L25.4102 36.16L27.3502 37.63C27.3402 37.75 27.3402 37.88 27.3402 38C27.3402 38.12 27.3402 38.25 27.3502 38.37L25.4102 39.84L27.9102 44.17L30.1502 43.23C30.3502 43.36 30.5702 43.49 30.7902 43.6L31.0902 46H36.0902L36.3902 43.59C36.6102 43.48 36.8202 43.36 37.0302 43.22L39.2702 44.16L41.7702 39.83L39.8302 38.36C39.8402 38.25 39.8402 38.12 39.8402 38ZM38.4202 41.64L36.6902 40.91C36.1302 41.51 35.3902 41.95 34.5602 42.14L34.3202 44H32.8602L32.6302 42.14C31.8002 41.95 31.0602 41.51 30.5002 40.91L28.7702 41.64L28.0402 40.37L29.5302 39.24C29.4102 38.85 29.3502 38.44 29.3502 38.01C29.3502 37.58 29.4102 37.17 29.5302 36.78L28.0402 35.65L28.7702 34.38L30.5002 35.11C31.0602 34.51 31.8002 34.07 32.6302 33.88L32.8602 32H34.3302L34.5602 33.86C35.3902 34.05 36.1302 34.49 36.6902 35.09L38.4202 34.36L39.1502 35.63L37.6602 36.76C37.7802 37.15 37.8402 37.56 37.8402 37.99C37.8402 38.42 37.7802 38.83 37.6602 39.22L39.1502 40.35L38.4202 41.64Z" fill="#8F8F8F"/>
</svg>
