<svg width="72" height="72" viewBox="0 0 72 72" fill="none" xmlns="http://www.w3.org/2000/svg">
<rect x="0.5" y="0.5" width="71" height="71" rx="4.5" stroke="#7B61FF" stroke-dasharray="10 5"/>
<path d="M37.0193 43.93V45.95C39.0293 45.75 40.8593 44.95 42.3393 43.74L40.9193 42.31C39.8093 43.17 38.4793 43.75 37.0193 43.93Z" fill="#8F8F8F"/>
<path d="M28.0293 36C28.0293 31.95 31.0593 28.59 34.9793 28.07V26.05C29.9493 26.58 26.0293 30.84 26.0293 36C26.0293 41.16 29.9493 45.42 34.9793 45.95V43.93C31.0593 43.41 28.0293 40.05 28.0293 36Z" fill="#8F8F8F"/>
<path d="M43.9493 35H45.9693C45.7693 32.99 44.9693 31.16 43.7593 29.68L42.3293 31.11C43.1893 32.21 43.7693 33.54 43.9493 35Z" fill="#8F8F8F"/>
<path d="M42.3393 28.26C40.8593 27.05 39.0193 26.25 37.0193 26.05V28.07C38.4793 28.25 39.8093 28.83 40.9193 29.69L42.3393 28.26Z" fill="#8F8F8F"/>
<path d="M42.3293 40.9L43.7593 42.32C44.9693 40.84 45.7693 39.01 45.9693 37H43.9493C43.7693 38.46 43.1893 39.79 42.3293 40.9Z" fill="#8F8F8F"/>
<path d="M39.9993 35.1C39.9993 32.61 38.0993 31 35.9993 31C33.8993 31 31.9993 32.61 31.9993 35.1C31.9993 36.76 33.3293 38.73 35.9993 41C38.6693 38.73 39.9993 36.76 39.9993 35.1ZM35.9993 36C35.4093 36 34.9293 35.52 34.9293 34.93C34.9293 34.34 35.4093 33.86 35.9993 33.86C36.5893 33.86 37.0693 34.34 37.0693 34.93C37.0693 35.52 36.5893 36 35.9993 36Z" fill="#8F8F8F"/>
</svg>
