<svg width="72" height="72" viewBox="0 0 72 72" fill="none" xmlns="http://www.w3.org/2000/svg">
<rect x="0.5" y="0.5" width="71" height="71" rx="4.5" stroke="#7B61FF" stroke-dasharray="10 5"/>
<path d="M36 26L28 29V35.09C28 40.14 31.41 44.85 36 46C40.59 44.85 44 40.14 44 35.09V29L36 26ZM42 35.09C42 39.09 39.45 42.79 36 43.92C32.55 42.79 30 39.1 30 35.09V30.39L36 28.14L42 30.39V35.09Z" fill="#8F8F8F"/>
<path d="M33.01 38.33C34.76 40.5 38.13 40.57 39.97 38.4C40.2 38.13 40.05 37.72 39.71 37.66C38.42 37.45 37.23 36.68 36.53 35.46C35.82 34.24 35.75 32.83 36.21 31.6C36.33 31.27 36.05 30.94 35.7 31C32.36 31.62 30.81 35.61 33.01 38.33Z" fill="#8F8F8F"/>
</svg>
