<svg width="70" height="72" viewBox="0 0 70 72" fill="none" xmlns="http://www.w3.org/2000/svg">
<rect x="0.5" y="0.5" width="69" height="71" rx="4.5" stroke="#7B61FF" stroke-dasharray="10 5"/>
<path d="M40.5461 37C41.2961 37 41.9561 36.59 42.2961 35.97L45.8761 29.48C46.2461 28.82 45.7661 28 45.0061 28H30.2061L29.2661 26H25.9961V28H27.9961L31.5961 35.59L30.2461 38.03C29.5161 39.37 30.4761 41 31.9961 41H43.9961V39H31.9961L33.0961 37H40.5461ZM31.1561 30H43.3061L40.5461 35H33.5261L31.1561 30ZM31.9961 42C30.8961 42 30.0061 42.9 30.0061 44C30.0061 45.1 30.8961 46 31.9961 46C33.0961 46 33.9961 45.1 33.9961 44C33.9961 42.9 33.0961 42 31.9961 42ZM41.9961 42C40.8961 42 40.0061 42.9 40.0061 44C40.0061 45.1 40.8961 46 41.9961 46C43.0961 46 43.9961 45.1 43.9961 44C43.9961 42.9 43.0961 42 41.9961 42Z" fill="#8F8F8F"/>
</svg>
