<svg width="72" height="72" viewBox="0 0 72 72" fill="none" xmlns="http://www.w3.org/2000/svg">
<rect x="0.5" y="0.5" width="71" height="71" rx="4.5" stroke="#7B61FF" stroke-dasharray="10 5"/>
<path d="M46 33.49H41.21L36.83 26.93C36.64 26.65 36.32 26.51 36 26.51C35.68 26.51 35.36 26.65 35.17 26.94L30.79 33.49H26C25.45 33.49 25 33.94 25 34.49C25 34.58 25.01 34.67 25.04 34.76L27.58 44.03C27.81 44.87 28.58 45.49 29.5 45.49H42.5C43.42 45.49 44.19 44.87 44.43 44.03L46.97 34.76L47 34.49C47 33.94 46.55 33.49 46 33.49ZM36 29.29L38.8 33.49H33.2L36 29.29ZM42.5 43.49L29.51 43.5L27.31 35.49H44.7L42.5 43.49ZM36 37.49C34.9 37.49 34 38.39 34 39.49C34 40.59 34.9 41.49 36 41.49C37.1 41.49 38 40.59 38 39.49C38 38.39 37.1 37.49 36 37.49Z" fill="#8F8F8F"/>
</svg>
