<svg width="73" height="72" viewBox="0 0 73 72" fill="none" xmlns="http://www.w3.org/2000/svg">
<rect x="0.5" y="0.5" width="72" height="71" rx="4.5" stroke="#7B61FF" stroke-dasharray="10 5"/>
<path d="M27 33.5H25V44.5C25 45.61 25.89 46.5 27 46.5H41C42.11 46.5 43 45.61 43 44.5H27V33.5ZM42 29.5V27.5C42 26.39 41.11 25.5 40 25.5H36C34.89 25.5 34 26.39 34 27.5V29.5H29V40.5C29 41.61 29.89 42.5 31 42.5H45C46.11 42.5 47 41.61 47 40.5V29.5H42ZM36 27.5H40V29.5H36V27.5ZM45 40.5H31V31.5H45V40.5ZM36 39.5L41.5 35.5L36 32.5V39.5Z" fill="#8F8F8F"/>
</svg>
