<svg width="77" height="72" viewBox="0 0 77 72" fill="none" xmlns="http://www.w3.org/2000/svg">
<rect x="0.5" y="0.5" width="76" height="71" rx="4.5" stroke="#7B61FF" stroke-dasharray="10 5"/>
<path d="M32 42C30.9 42 30.01 42.9 30.01 44C30.01 45.1 30.9 46 32 46C33.1 46 34 45.1 34 44C34 42.9 33.1 42 32 42ZM42 42C40.9 42 40.01 42.9 40.01 44C40.01 45.1 40.9 46 42 46C43.1 46 44 45.1 44 44C44 42.9 43.1 42 42 42ZM33.1 37H40.55C41.3 37 41.96 36.59 42.3 35.97L46 28.96L44.25 28L40.55 35H33.53L29.27 26H26V28H28L31.6 35.59L30.25 38.03C29.52 39.37 30.48 41 32 41H44V39H32L33.1 37ZM37 26L41 30L37 34L35.59 32.59L37.17 31H33V29H37.17L35.58 27.41L37 26Z" fill="#8F8F8F"/>
</svg>
