<svg width="72" height="72" viewBox="0 0 72 72" fill="none" xmlns="http://www.w3.org/2000/svg">
<rect x="0.5" y="0.5" width="71" height="71" rx="4.5" stroke="#7B61FF" stroke-dasharray="10 5"/>
<path d="M42 30H40C40 27.79 38.21 26 36 26C33.79 26 32 27.79 32 30H30C28.9 30 28 30.9 28 32V44C28 45.1 28.9 46 30 46H42C43.1 46 44 45.1 44 44V32C44 30.9 43.1 30 42 30ZM36 28C37.1 28 38 28.9 38 30H34C34 28.9 34.9 28 36 28ZM42 44H30V32H32V34C32 34.55 32.45 35 33 35C33.55 35 34 34.55 34 34V32H38V34C38 34.55 38.45 35 39 35C39.55 35 40 34.55 40 34V32H42V44Z" fill="#8F8F8F"/>
</svg>
