<svg width="72" height="72" viewBox="0 0 72 72" fill="none" xmlns="http://www.w3.org/2000/svg">
<g clip-path="url(#clip0_256_17133)">
<path d="M45 25H27C25.9 25 25 25.9 25 27V45C25 46.1 25.9 47 27 47H45C46.1 47 47 46.1 47 45V27C47 25.9 46.1 25 45 25ZM29.41 28L34.59 33.17L33.18 34.59L28 29.42L29.41 28ZM44 44H38V42H40.61L37.41 38.8L38.83 37.38L42 40.55V38H44V44ZM44 34H42V31.42L29.41 44L28 42.59L40.58 30H38V28H44V34Z" fill="#8F8F8F"/>
</g>
<rect x="0.5" y="0.5" width="71" height="71" rx="4.5" stroke="#7B61FF" stroke-dasharray="10 5"/>
<defs>
<clipPath id="clip0_256_17133">
<rect width="72" height="72" rx="5" fill="white"/>
</clipPath>
</defs>
</svg>
