<svg width="72" height="72" viewBox="0 0 72 72" fill="none" xmlns="http://www.w3.org/2000/svg">
<rect x="0.5" y="0.5" width="71" height="71" rx="4.5" stroke="#7B61FF" stroke-dasharray="10 5"/>
<path d="M39 25.5H33V27.5H39V25.5ZM43.03 31.89L44.45 30.47C44.02 29.96 43.55 29.48 43.04 29.06L41.62 30.48C40.07 29.24 38.12 28.5 36 28.5C31.03 28.5 27 32.53 27 37.5C27 42.47 31.02 46.5 36 46.5C40.98 46.5 45 42.47 45 37.5C45 35.38 44.26 33.43 43.03 31.89ZM36 44.5C32.13 44.5 29 41.37 29 37.5C29 33.63 32.13 30.5 36 30.5C39.87 30.5 43 33.63 43 37.5C43 41.37 39.87 44.5 36 44.5ZM35.68 39.5H30.35C30.92 41.12 32.17 42.42 33.76 43.06L33.65 43L35.68 39.5ZM41.65 35.5C41.08 33.9 39.87 32.61 38.31 31.96L36.26 35.5H41.65ZM34.61 43.33C35.06 43.44 35.52 43.5 36 43.5C37.34 43.5 38.57 43.05 39.57 42.31L37.46 38.41L34.61 43.33ZM31.55 33.49C30.59 34.55 30 35.96 30 37.5C30 37.84 30.04 38.17 30.09 38.5H34.81L31.55 33.49ZM40.34 41.63C41.37 40.56 42 39.1 42 37.5C42 37.16 41.96 36.83 41.91 36.5H37.57L40.34 41.63ZM37.33 31.65C36.9 31.56 36.46 31.5 36 31.5C34.6 31.5 33.31 31.99 32.29 32.79L34.61 36.35L37.33 31.65Z" fill="#8F8F8F"/>
</svg>
