<svg width="69" height="72" viewBox="0 0 69 72" fill="none" xmlns="http://www.w3.org/2000/svg">
<rect x="0.5" y="0.5" width="68" height="71" rx="4.5" stroke="#7B61FF" stroke-dasharray="10 5"/>
<path d="M28 28H44C45.1 28 46 28.9 46 30V42C46 43.1 45.1 44 44 44H28C26.9 44 26 43.1 26 42V30C26 28.9 26.9 28 28 28ZM28 30V42H44V30H28ZM35 33H37V39H35V33ZM38 33H42C42.55 33 43 33.45 43 34V36C43 36.55 42.55 37 42 37H39.5V39H38V33ZM41.5 34.5H39.5V35.5H41.5V34.5ZM30.5 35.25H33C33.55 35.25 34 35.7 34 36.25V38C34 38.55 33.55 39 33 39H29V37.5H32.5V36.75H30C29.45 36.75 29 36.3 29 35.75V34C29 33.45 29.45 33 30 33H34V34.5H30.5V35.25Z" fill="#8F8F8F"/>
</svg>
