<svg width="73" height="72" viewBox="0 0 73 72" fill="none" xmlns="http://www.w3.org/2000/svg">
<rect x="0.5" y="0.5" width="72" height="71" rx="4.5" stroke="#7B61FF" stroke-dasharray="10 5"/>
<path d="M37.0254 33.79L33.9754 31.5V40.5L37.0254 38.21L39.9754 36L37.0254 33.79ZM37.0254 33.79L33.9754 31.5V40.5L37.0254 38.21L39.9754 36L37.0254 33.79ZM37.0254 33.79L33.9754 31.5V40.5L37.0254 38.21L39.9754 36L37.0254 33.79ZM34.9754 28.07V26.05C32.9654 26.25 31.1354 27.05 29.6554 28.26L31.0754 29.69C32.1854 28.83 33.5154 28.25 34.9754 28.07ZM29.6654 31.1L28.2354 29.68C27.0254 31.16 26.2254 32.99 26.0254 35H28.0454C28.2254 33.54 28.8054 32.21 29.6654 31.1ZM28.0454 37H26.0254C26.2254 39.01 27.0254 40.84 28.2354 42.32L29.6654 40.89C28.8054 39.79 28.2254 38.46 28.0454 37ZM29.6554 43.74C31.1354 44.95 32.9754 45.75 34.9754 45.95V43.93C33.5154 43.75 32.1854 43.17 31.0754 42.31L29.6554 43.74ZM45.9754 36C45.9754 41.16 42.0554 45.42 37.0254 45.95V43.93C40.9454 43.41 43.9754 40.05 43.9754 36C43.9754 31.95 40.9454 28.59 37.0254 28.07V26.05C42.0554 26.58 45.9754 30.84 45.9754 36Z" fill="#8F8F8F"/>
</svg>
