<svg width="70" height="72" viewBox="0 0 70 72" fill="none" xmlns="http://www.w3.org/2000/svg">
<rect x="0.5" y="0.5" width="69" height="71" rx="4.5" stroke="#7B61FF" stroke-dasharray="10 5"/>
<path d="M46 32V38C46 39.1 45.1 40 44 40H43V38H44V32H28V38H34V40H28C26.9 40 26 39.1 26 38V32C26 30.9 26.9 30 28 30H44C45.1 30 46 30.9 46 32ZM38.5 42L39.59 39.59L42 38.5L39.59 37.41L38.5 35L37.41 37.41L35 38.5L37.41 39.59L38.5 42ZM41 37L41.62 35.62L43 35L41.62 34.38L41 33L40.38 34.38L39 35L40.38 35.62L41 37ZM38.5 42L39.59 39.59L42 38.5L39.59 37.41L38.5 35L37.41 37.41L35 38.5L37.41 39.59L38.5 42ZM41 37L41.62 35.62L43 35L41.62 34.38L41 33L40.38 34.38L39 35L40.38 35.62L41 37Z" fill="#8F8F8F"/>
</svg>
