<svg width="75" height="72" viewBox="0 0 75 72" fill="none" xmlns="http://www.w3.org/2000/svg">
<rect x="0.5" y="0.5" width="74" height="71" rx="4.5" stroke="#7B61FF" stroke-dasharray="10 5"/>
<path d="M32.9987 35.095H36.6287L32.9987 39.295V41.095H38.9987V39.095H35.3687L38.9987 34.895V33.095H32.9987V35.095ZM40.0547 27.441L41.3367 25.906L45.9437 29.756L44.6637 31.296L40.0547 27.441ZM27.3347 31.285L26.0547 29.749L30.6607 25.905L31.9407 27.441L27.3347 31.285ZM35.9987 30.095C39.8587 30.095 42.9987 33.235 42.9987 37.095C42.9987 40.955 39.8587 44.095 35.9987 44.095C32.1387 44.095 28.9987 40.955 28.9987 37.095C28.9987 33.235 32.1387 30.095 35.9987 30.095ZM35.9987 28.095C31.0287 28.095 26.9987 32.125 26.9987 37.095C26.9987 42.065 31.0287 46.095 35.9987 46.095C40.9687 46.095 44.9987 42.065 44.9987 37.095C44.9987 32.125 40.9687 28.095 35.9987 28.095Z" fill="#8F8F8F"/>
</svg>
