<svg width="72" height="72" viewBox="0 0 72 72" fill="none" xmlns="http://www.w3.org/2000/svg">
<rect x="0.5" y="0.5" width="71" height="71" rx="4.5" stroke="#7B61FF" stroke-dasharray="10 5"/>
<path d="M44 36H28L26 46H46L44 36ZM42.36 38L42.76 40H37V38H42.36ZM35 38V40H29.24L29.64 38H35ZM28.84 42H35V44H28.44L28.84 42ZM37 44V42H43.16L43.56 44H37Z" fill="#8F8F8F"/>
<path d="M37 32H35V35H37V32Z" fill="#8F8F8F"/>
<path d="M41.1787 29.791L39.7645 31.2052L41.8858 33.3265L43.3 31.9123L41.1787 29.791Z" fill="#8F8F8F"/>
<path d="M30.8262 29.7915L28.7049 31.9128L30.1191 33.327L32.2404 31.2057L30.8262 29.7915Z" fill="#8F8F8F"/>
<path d="M30 26H27V28H30V26Z" fill="#8F8F8F"/>
<path d="M45 26H42V28H45V26Z" fill="#8F8F8F"/>
<path d="M36 31C38.76 31 41 28.76 41 26H39C39 27.65 37.65 29 36 29C34.35 29 33 27.65 33 26H31C31 28.76 33.24 31 36 31Z" fill="#8F8F8F"/>
</svg>
