<svg width="72" height="72" viewBox="0 0 72 72" fill="none" xmlns="http://www.w3.org/2000/svg">
<rect x="0.5" y="0.5" width="71" height="71" rx="4.5" stroke="#7B61FF" stroke-dasharray="10 5"/>
<path d="M33.5605 38C35.7705 38 37.5605 36.21 37.5605 34C37.5605 31.79 35.7705 30 33.5605 30C31.3505 30 29.5605 31.79 29.5605 34C29.5605 36.21 31.3505 38 33.5605 38ZM33.5605 32C34.6605 32 35.5605 32.9 35.5605 34C35.5605 35.1 34.6605 36 33.5605 36C32.4605 36 31.5605 35.1 31.5605 34C31.5605 32.9 32.4605 32 33.5605 32Z" fill="#8F8F8F"/>
<path d="M39.9505 40.56C38.2705 39.7 36.0905 39 33.5605 39C31.0305 39 28.8505 39.7 27.1705 40.56C26.1705 41.07 25.5605 42.1 25.5605 43.22V46H41.5605V43.22C41.5605 42.1 40.9505 41.07 39.9505 40.56ZM39.5605 44H27.5605V43.22C27.5605 42.84 27.7605 42.5 28.0805 42.34C29.2705 41.73 31.1905 41 33.5605 41C35.9305 41 37.8505 41.73 39.0405 42.34C39.3605 42.5 39.5605 42.84 39.5605 43.22V44Z" fill="#8F8F8F"/>
<path d="M43.6105 27.41L42.2005 26C38.6905 29.51 38.6905 35.21 42.2005 38.73L43.6105 37.32C40.8805 34.58 40.8805 30.14 43.6105 27.41Z" fill="#8F8F8F"/>
<path d="M46.4405 30.24L45.0305 28.83C43.0805 30.78 43.0805 33.95 45.0305 35.9L46.4405 34.49C45.2705 33.32 45.2705 31.41 46.4405 30.24Z" fill="#8F8F8F"/>
</svg>
