<svg width="72" height="72" viewBox="0 0 72 72" fill="none" xmlns="http://www.w3.org/2000/svg">
<rect x="0.5" y="0.5" width="71" height="71" rx="4.5" stroke="#7B61FF" stroke-dasharray="10 5"/>
<path d="M33.5 38C35.71 38 37.5 36.21 37.5 34C37.5 31.79 35.71 30 33.5 30C31.29 30 29.5 31.79 29.5 34C29.5 36.21 31.29 38 33.5 38ZM33.5 32C34.6 32 35.5 32.9 35.5 34C35.5 35.1 34.6 36 33.5 36C32.4 36 31.5 35.1 31.5 34C31.5 32.9 32.4 32 33.5 32Z" fill="#8F8F8F"/>
<path d="M39.89 40.56C38.21 39.7 36.03 39 33.5 39C30.97 39 28.79 39.7 27.11 40.56C26.11 41.07 25.5 42.1 25.5 43.22V46H41.5V43.22C41.5 42.1 40.89 41.07 39.89 40.56ZM39.5 44H27.5V43.22C27.5 42.84 27.7 42.5 28.02 42.34C29.21 41.73 31.13 41 33.5 41C35.87 41 37.79 41.73 38.98 42.34C39.3 42.5 39.5 42.84 39.5 43.22V44Z" fill="#8F8F8F"/>
<path d="M43.86 26L42.45 27.41C45.18 30.14 45.18 34.58 42.45 37.31L43.86 38.72C47.38 35.21 47.38 29.51 43.86 26Z" fill="#8F8F8F"/>
<path d="M41.04 35.9C42.99 33.95 42.99 30.78 41.04 28.83L39.63 30.24C40.8 31.41 40.8 33.31 39.63 34.48L41.04 35.9Z" fill="#8F8F8F"/>
</svg>
