<svg width="71" height="72" viewBox="0 0 71 72" fill="none" xmlns="http://www.w3.org/2000/svg">
<rect x="0.5" y="0.5" width="70" height="71" rx="4.5" stroke="#7B61FF" stroke-dasharray="10 5"/>
<path d="M31 31.5749L32.43 33.0049C33.34 32.0949 34.61 31.5249 36 31.5249C37.39 31.5249 38.66 32.0949 39.57 33.0049L41 31.5749C39.72 30.2949 37.95 29.5049 36 29.5049C34.05 29.5049 32.28 30.2949 31 31.5749ZM36 25.5049C32.98 25.5049 30.24 26.7349 28.25 28.7149L29.66 30.1249C31.28 28.5049 33.53 27.5049 36 27.5049C38.47 27.5049 40.72 28.5049 42.34 30.1249L43.75 28.7149C41.76 26.7349 39.02 25.5049 36 25.5049ZM38.86 34.5149L33.14 34.5049C32.51 34.5049 32 35.0149 32 35.6449V45.3549C32 45.9849 32.51 46.4949 33.14 46.4949H38.85C39.48 46.4949 39.99 45.9849 39.99 45.3549V35.6449C40 35.0149 39.49 34.5149 38.86 34.5149ZM39 44.5049H33V36.5049H39V44.5049Z" fill="#8F8F8F"/>
</svg>
