<svg width="77" height="72" viewBox="0 0 77 72" fill="none" xmlns="http://www.w3.org/2000/svg">
<rect x="0.5" y="0.5" width="76" height="71" rx="4.5" stroke="#7B61FF" stroke-dasharray="10 5"/>
<g clip-path="url(#clip0_256_16421)">
<path d="M44.9297 27.3399V39.3399H43.5897L45.4997 41.2499C46.3197 40.9999 46.9297 40.2399 46.9297 39.3399V27.3399C46.9297 26.2399 46.0297 25.3399 44.9297 25.3399H29.5897L31.5897 27.3399H44.9297ZM30.9297 35.3399H32.9297V37.3399H30.9297V35.3399ZM42.9297 32.3399H36.5897L38.5897 34.3399H42.9297V32.3399ZM42.9297 29.3399H34.9297V30.6799L35.5897 31.3399H42.9297V29.3399ZM26.3397 24.9299L24.9297 26.3399L26.9397 28.3499L26.9297 45.3399L30.9297 41.3399H39.9297L45.6597 47.0699L47.0697 45.6599L26.3397 24.9299ZM30.0997 39.3399L28.9297 40.5099V30.3399L30.9297 32.3399V34.3399H32.9297L37.9297 39.3399H30.0997Z" fill="#8F8F8F"/>
</g>
<defs>
<clipPath id="clip0_256_16421">
<rect width="24" height="24" fill="white" transform="translate(24 24)"/>
</clipPath>
</defs>
</svg>
