<svg width="72" height="72" viewBox="0 0 72 72" fill="none" xmlns="http://www.w3.org/2000/svg">
<rect x="0.5" y="0.5" width="71" height="71" rx="4.5" stroke="#7B61FF" stroke-dasharray="10 5"/>
<path d="M44.3636 32.551L43.1336 34.401C43.7267 35.5841 44.0171 36.8958 43.9788 38.2187C43.9404 39.5416 43.5744 40.8343 42.9136 41.981H29.0536C28.1947 40.4911 27.8389 38.7641 28.0387 37.0561C28.2386 35.348 28.9835 33.7498 30.163 32.4984C31.3426 31.247 32.894 30.4091 34.5873 30.1087C36.2806 29.8084 38.0256 30.0617 39.5636 30.831L41.4136 29.601C39.5301 28.3932 37.2959 27.852 35.0685 28.064C32.841 28.2759 30.749 29.2287 29.1271 30.77C27.5051 32.3113 26.4469 34.3521 26.1218 36.5658C25.7966 38.7796 26.2233 41.0384 27.3336 42.981C27.5081 43.2833 27.7587 43.5346 28.0604 43.7101C28.3621 43.8855 28.7045 43.9789 29.0536 43.981H42.9036C43.256 43.9824 43.6025 43.8907 43.9081 43.7151C44.2136 43.5395 44.4674 43.2862 44.6436 42.981C45.5649 41.3849 46.0273 39.5653 45.9797 37.723C45.932 35.8807 45.3762 34.0873 44.3736 32.541L44.3636 32.551Z" fill="#8F8F8F"/>
<path d="M34.5736 39.391C34.7593 39.577 34.9799 39.7245 35.2227 39.8251C35.4655 39.9258 35.7257 39.9776 35.9886 39.9776C36.2514 39.9776 36.5117 39.9258 36.7545 39.8251C36.9972 39.7245 37.2178 39.577 37.4036 39.391L43.0636 30.901L34.5736 36.561C34.3876 36.7468 34.2401 36.9673 34.1395 37.2101C34.0388 37.4529 33.987 37.7132 33.987 37.976C33.987 38.2388 34.0388 38.4991 34.1395 38.7419C34.2401 38.9847 34.3876 39.2053 34.5736 39.391Z" fill="#8F8F8F"/>
</svg>
