<svg width="72" height="72" viewBox="0 0 72 72" fill="none" xmlns="http://www.w3.org/2000/svg">
<rect x="0.5" y="0.5" width="71" height="71" rx="4.5" stroke="#7B61FF" stroke-dasharray="10 5"/>
<path d="M40 31C40 28.79 38.21 27 36 27C33.79 27 32 28.79 32 31C32 33.21 33.79 35 36 35C38.21 35 40 33.21 40 31ZM36 33C34.9 33 34 32.1 34 31C34 29.9 34.9 29 36 29C37.1 29 38 29.9 38 31C38 32.1 37.1 33 36 33ZM31 37C28.79 37 27 38.79 27 41C27 43.21 28.79 45 31 45C33.21 45 35 43.21 35 41C35 38.79 33.21 37 31 37ZM31 43C29.9 43 29 42.1 29 41C29 39.9 29.9 39 31 39C32.1 39 33 39.9 33 41C33 42.1 32.1 43 31 43ZM41 37C38.79 37 37 38.79 37 41C37 43.21 38.79 45 41 45C43.21 45 45 43.21 45 41C45 38.79 43.21 37 41 37ZM41 43C39.9 43 39 42.1 39 41C39 39.9 39.9 39 41 39C42.1 39 43 39.9 43 41C43 42.1 42.1 43 41 43Z" fill="#8F8F8F"/>
</svg>
