<svg width="72" height="72" viewBox="0 0 72 72" fill="none" xmlns="http://www.w3.org/2000/svg">
<rect x="0.5" y="0.5" width="71" height="71" rx="4.5" stroke="#7B61FF" stroke-dasharray="10 5"/>
<path d="M35 30H33V28H35V30ZM39 28H37V30H39V28ZM33 38H35V36H33V38ZM43 34V32H41V34H43ZM43 38V36H41V38H43ZM37 38H39V36H37V38ZM43 28H41V30H43V28ZM37 32V30H35V32H37ZM31 34V32H33V30H31V28H29V44H31V36H33V34H31ZM39 36H41V34H39V36ZM35 34V36H37V34H35ZM33 32V34H35V32H33ZM37 34H39V32H37V34ZM39 30V32H41V30H39Z" fill="#8F8F8F"/>
</svg>
