<svg width="74" height="72" viewBox="0 0 74 72" fill="none" xmlns="http://www.w3.org/2000/svg">
<rect x="0.5" y="0.5" width="73" height="71" rx="4.5" stroke="#7B61FF" stroke-dasharray="10 5"/>
<path d="M41.66 41.66L40.6 42.72L39.89 42.01L40.95 40.95L39.01 39.01L37.95 40.07L37.24 39.36L38.3 38.3L36.36 36.36L35.3 37.42L34.59 36.71L35.65 35.65L33.7 33.7L32.64 34.76L31.93 34.05L32.99 32.99L31.05 31.05L29.99 32.11L29.28 31.4L30.34 30.34L28 28V42C28 43.1 28.9 44 30 44H44L41.66 41.66ZM31 41V35.24L36.76 41H31Z" fill="#8F8F8F"/>
</svg>
