<svg width="72" height="72" viewBox="0 0 72 72" fill="none" xmlns="http://www.w3.org/2000/svg">
<rect x="0.5" y="0.5" width="71" height="71" rx="4.5" stroke="#7B61FF" stroke-dasharray="10 5"/>
<path d="M35.99 26C30.47 26 26 30.48 26 36C26 41.52 30.47 46 35.99 46C41.52 46 46 41.52 46 36C46 30.48 41.52 26 35.99 26ZM43.47 33.16L38.46 32.73L36.46 28.02C39.67 28.21 42.37 30.29 43.47 33.16ZM38.4 39.42L36 37.98L33.61 39.42L34.24 36.7L32.13 34.87L34.91 34.63L36 32.06L37.09 34.62L39.87 34.86L37.76 36.69L38.4 39.42ZM35.54 28.02L33.54 32.74L28.52 33.17C29.62 30.29 32.32 28.2 35.54 28.02ZM28 36C28 35.36 28.08 34.74 28.23 34.14L32.02 37.42L30.91 42.17C29.13 40.7 28 38.48 28 36ZM31.84 42.82L36 40.31L40.16 42.81C38.94 43.56 37.52 44 35.99 44C34.47 44 33.05 43.56 31.84 42.82ZM41.09 42.17L39.98 37.42L43.77 34.14C43.91 34.73 44 35.36 44 36C44 38.48 42.86 40.7 41.09 42.17Z" fill="#8F8F8F"/>
</svg>
