<svg width="24" height="24" viewBox="0 0 24 24" fill="none" xmlns="http://www.w3.org/2000/svg">
<rect width="24" height="24" rx="4" fill="url(#paint0_linear_5134_6868)"/>
<path d="M12 5.33331C8.31999 5.33331 5.33333 8.31998 5.33333 12C5.33333 15.68 8.31999 18.6666 12 18.6666C15.68 18.6666 18.6667 15.68 18.6667 12C18.6667 8.31998 15.68 5.33331 12 5.33331ZM12 17.3333C9.05333 17.3333 6.66666 14.9466 6.66666 12C6.66666 9.05331 9.05333 6.66665 12 6.66665C14.9467 6.66665 17.3333 9.05331 17.3333 12C17.3333 14.9466 14.9467 17.3333 12 17.3333ZM14.6667 14.6666L9.33333 14.6666V9.33331L14.6667 9.33331L14.6667 14.6666Z" fill="white"/>
<defs>
<linearGradient id="paint0_linear_5134_6868" x1="-4.22727" y1="12" x2="28.1684" y2="10.6193" gradientUnits="userSpaceOnUse">
<stop stop-color="#1ECCB0"/>
<stop offset="1" stop-color="#3535F3"/>
</linearGradient>
</defs>
</svg>
