<svg width="72" height="72" viewBox="0 0 72 72" fill="none" xmlns="http://www.w3.org/2000/svg">
<g clip-path="url(#clip0_256_17527)">
<path d="M45.79 41.8599L47.79 43.8599H48V41.8599H45.79ZM25.11 26.8399L26.66 28.3999C26.25 28.7699 26 29.2899 26 29.8799V39.8599C26 40.9599 26.9 41.8599 28.01 41.8599H24V43.8599H42.13L44.84 46.5699L46.25 45.1599L26.52 25.4299L25.11 26.8399ZM28 29.8799H28.13L33.08 34.8099C31.94 35.9299 31.31 37.3799 31 38.8599C31.96 37.5699 33.13 36.7799 34.67 36.3999L38.13 39.8799H28V29.8799ZM44 29.8799V40.0699L45.3 41.3699C45.72 40.9999 46 40.4799 46 39.8799V29.8799C46 28.7699 45.1 27.8799 44 27.8799H31.8L33.8 29.8799H44ZM36.93 33.0099L39.72 35.7899L41 34.5899L37 30.8599V32.9899L36.93 33.0099Z" fill="#8F8F8F"/>
</g>
<rect x="0.5" y="0.5" width="71" height="71" rx="4.5" stroke="#7B61FF" stroke-dasharray="10 5"/>
<defs>
<clipPath id="clip0_256_17527">
<rect width="72" height="72" rx="5" fill="white"/>
</clipPath>
</defs>
</svg>
