<svg width="73" height="72" viewBox="0 0 73 72" fill="none" xmlns="http://www.w3.org/2000/svg">
<rect x="0.5" y="0.5" width="72" height="71" rx="4.5" stroke="#7B61FF" stroke-dasharray="10 5"/>
<path d="M42.9321 32C40.7221 28.18 35.8221 26.87 32.0021 29.07C30.5921 29.89 29.5221 31.07 28.8421 32.44C28.7121 30.24 29.0621 28.04 29.8621 26H27.7421C26.2021 30.49 26.5221 35.58 29.0721 40C30.1721 41.91 31.9521 43.19 33.9321 43.72C35.9121 44.25 38.0921 44.03 40.0021 42.93C41.4121 42.11 42.4821 40.93 43.1621 39.56C43.2921 41.76 42.9521 43.96 42.1521 46H44.2621C45.7921 41.51 45.4821 36.42 42.9321 32ZM39.0021 41.2C36.1321 42.85 32.4621 41.87 30.8021 39C30.6921 38.8 30.5921 38.6 30.5021 38.4C29.3021 35.64 30.3321 32.34 33.0021 30.8C35.8621 29.15 39.5421 30.13 41.2021 33C41.3121 33.2 41.4121 33.4 41.5021 33.6C42.7021 36.36 41.6721 39.66 39.0021 41.2ZM36.0021 34C37.1021 34 38.0021 34.9 38.0021 36C38.0021 37.1 37.1021 38 36.0021 38C34.9021 38 34.0021 37.1 34.0021 36C34.0021 34.9 34.9021 34 36.0021 34ZM36.0021 32C33.7921 32 32.0021 33.79 32.0021 36C32.0021 38.21 33.7921 40 36.0021 40C38.2121 40 40.0021 38.21 40.0021 36C40.0021 33.79 38.2121 32 36.0021 32Z" fill="#8F8F8F"/>
</svg>
