<svg width="74" height="72" viewBox="0 0 74 72" fill="none" xmlns="http://www.w3.org/2000/svg">
<rect x="0.5" y="0.5" width="73" height="71" rx="4.5" stroke="#7B61FF" stroke-dasharray="10 5"/>
<path d="M44 38C45.1046 38 46 37.1046 46 36C46 34.8954 45.1046 34 44 34C42.8954 34 42 34.8954 42 36C42 37.1046 42.8954 38 44 38Z" fill="#8F8F8F"/>
<path d="M28 38C29.1046 38 30 37.1046 30 36C30 34.8954 29.1046 34 28 34C26.8954 34 26 34.8954 26 36C26 37.1046 26.8954 38 28 38Z" fill="#8F8F8F"/>
<path d="M36 46C37.1046 46 38 45.1046 38 44C38 42.8954 37.1046 42 36 42C34.8954 42 34 42.8954 34 44C34 45.1046 34.8954 46 36 46Z" fill="#8F8F8F"/>
<path d="M42.3475 28.2271L37.9431 32.619L39.3553 34.0352L43.7597 29.6433L42.3475 28.2271Z" fill="#8F8F8F"/>
<path d="M32.32 33.68L32.63 34L34.05 32.59L30.03 28.55H30.02L29.71 28.23L28.29 29.64L32.31 33.69L32.32 33.68Z" fill="#8F8F8F"/>
<path d="M39.41 37.94L38 39.35L41.99 43.36L42.34 43.71L43.76 42.3L39.77 38.29L39.41 37.94Z" fill="#8F8F8F"/>
<path d="M32.59 37.95L28.56 41.96L28.24 42.29L29.65 43.7L33.68 39.68L34.01 39.36L32.59 37.95Z" fill="#8F8F8F"/>
<path d="M36 30C37.1046 30 38 29.1046 38 28C38 26.8954 37.1046 26 36 26C34.8954 26 34 26.8954 34 28C34 29.1046 34.8954 30 36 30Z" fill="#8F8F8F"/>
</svg>
