<svg width="72" height="72" viewBox="0 0 72 72" fill="none" xmlns="http://www.w3.org/2000/svg">
<rect x="0.5" y="0.5" width="71" height="71" rx="4.5" stroke="#7B61FF" stroke-dasharray="10 5"/>
<path d="M26.7935 43.4L28.1335 43.96V34.93L25.7035 40.79C25.2935 41.81 25.7835 42.98 26.7935 43.4ZM46.2935 39.7L41.3335 27.73C41.0235 26.98 40.2935 26.52 39.5235 26.5C39.2635 26.5 38.9935 26.54 38.7335 26.65L31.3635 29.7C30.6135 30.01 30.1535 30.73 30.1335 31.5C30.1235 31.77 30.1735 32.04 30.2835 32.3L35.2435 44.27C35.5535 45.03 36.2935 45.49 37.0735 45.5C37.3335 45.5 37.5935 45.45 37.8435 45.35L45.2035 42.3C46.2235 41.88 46.7135 40.71 46.2935 39.7ZM37.0935 43.5L32.1335 31.54L39.4835 28.5H39.4935L44.4435 40.45L37.0935 43.5Z" fill="#8F8F8F"/>
<path d="M35.2635 33.75C35.8158 33.75 36.2635 33.3023 36.2635 32.75C36.2635 32.1977 35.8158 31.75 35.2635 31.75C34.7112 31.75 34.2635 32.1977 34.2635 32.75C34.2635 33.3023 34.7112 33.75 35.2635 33.75Z" fill="#8F8F8F"/>
<path d="M30.1435 43.5C30.1435 44.6 31.0435 45.5 32.1435 45.5H33.5935L30.1435 37.16V43.5Z" fill="#8F8F8F"/>
</svg>
