<svg width="70" height="72" viewBox="0 0 70 72" fill="none" xmlns="http://www.w3.org/2000/svg">
<rect x="0.5" y="0.5" width="69" height="71" rx="4.5" stroke="#7B61FF" stroke-dasharray="10 5"/>
<path d="M44.4795 27.2951H31.3095L33.3095 29.2951H44.4795V40.4651L46.2395 42.2251C46.3895 41.9451 46.4795 41.6351 46.4795 41.2951V29.2951C46.4795 28.1951 45.5795 27.2951 44.4795 27.2951Z" fill="#8F8F8F"/>
<path d="M42.4795 33.2951H37.3095L39.3095 35.2951H42.4795V33.2951Z" fill="#8F8F8F"/>
<path d="M25.5195 27.1651L26.7195 28.3651C26.5695 28.6451 26.4795 28.9551 26.4795 29.2951V41.2951C26.4795 42.3951 27.3795 43.2951 28.4795 43.2951H41.6495L44.6095 46.2551L46.0195 44.8451L26.9295 25.7451L25.5195 27.1651ZM28.4795 30.1251L31.6495 33.2951H30.4795V35.2951H32.4795V34.1251L35.6495 37.2951H30.4795V39.2951H37.6495L39.6495 41.2951H28.4795V30.1251Z" fill="#8F8F8F"/>
</svg>
