<svg width="72" height="72" viewBox="0 0 72 72" fill="none" xmlns="http://www.w3.org/2000/svg">
<rect x="0.5" y="0.5" width="71" height="71" rx="4.5" stroke="#7B61FF" stroke-dasharray="10 5"/>
<path d="M39 27H29C27.9 27 27.01 27.9 27.01 29L27 43C27 44.1 27.89 45 28.99 45H43C44.1 45 45 44.1 45 43V33L39 27ZM29 43V29H38V34H43V43H29ZM33 32C33 32.55 32.55 33 32 33C31.45 33 31 32.55 31 32C31 31.45 31.45 31 32 31C32.55 31 33 31.45 33 32ZM33 36C33 36.55 32.55 37 32 37C31.45 37 31 36.55 31 36C31 35.45 31.45 35 32 35C32.55 35 33 35.45 33 36ZM33 40C33 40.55 32.55 41 32 41C31.45 41 31 40.55 31 40C31 39.45 31.45 39 32 39C32.55 39 33 39.45 33 40Z" fill="#8F8F8F"/>
</svg>
