<svg width="77" height="72" viewBox="0 0 77 72" fill="none" xmlns="http://www.w3.org/2000/svg">
<rect x="0.5" y="0.5" width="76" height="71" rx="4.5" stroke="#7B61FF" stroke-dasharray="10 5"/>
<path d="M36.51 33.99C36.51 32.34 35.16 30.99 33.51 30.99C31.86 30.99 30.51 32.34 30.51 33.99C30.51 35.64 31.86 36.99 33.51 36.99C35.16 36.99 36.51 35.64 36.51 33.99ZM33.51 34.99C32.96 34.99 32.51 34.54 32.51 33.99C32.51 33.44 32.96 32.99 33.51 32.99C34.06 32.99 34.51 33.44 34.51 33.99C34.51 34.54 34.06 34.99 33.51 34.99ZM40.01 36.99C41.12 36.99 42.01 36.1 42.01 34.99C42.01 33.88 41.12 32.99 40.01 32.99C38.9 32.99 38 33.88 38.01 34.99C38.01 36.1 38.9 36.99 40.01 36.99ZM36 26C30.48 26 26 30.48 26 36C26 41.52 30.48 46 36 46C41.52 46 46 41.52 46 36C46 30.48 41.52 26 36 26ZM29.85 41.11C30.53 40.57 32.12 40 33.51 40C33.58 40 33.66 40.01 33.74 40.01C33.98 39.37 34.41 38.72 35.04 38.15C34.48 38.05 33.95 37.99 33.51 37.99C32.21 37.99 30.12 38.44 28.78 39.42C28.28 38.38 28 37.22 28 35.99C28 31.58 31.59 27.99 36 27.99C40.41 27.99 44 31.58 44 35.99C44 37.19 43.73 38.33 43.25 39.36C42.25 38.77 40.89 38.49 40.01 38.49C38.49 38.49 35.51 39.3 35.51 41.19V43.97C33.24 43.84 31.22 42.76 29.85 41.11Z" fill="#8F8F8F"/>
</svg>
