<svg width="70" height="72" viewBox="0 0 70 72" fill="none" xmlns="http://www.w3.org/2000/svg">
<rect x="0.5" y="0.5" width="69" height="71" rx="4.5" stroke="#7B61FF" stroke-dasharray="10 5"/>
<path d="M33 36C34.93 36 36.5 34.43 36.5 32.5C36.5 30.57 34.93 29 33 29C31.07 29 29.5 30.57 29.5 32.5C29.5 34.43 31.07 36 33 36ZM33 31C33.83 31 34.5 31.67 34.5 32.5C34.5 33.33 33.83 34 33 34C32.17 34 31.5 33.33 31.5 32.5C31.5 31.67 32.17 31 33 31ZM33.05 41H28.77C29.76 40.5 31.47 40 33 40C33.11 40 33.23 40.01 33.34 40.01C33.68 39.28 34.27 38.68 34.98 38.2C34.25 38.07 33.56 38 33 38C30.66 38 26 39.17 26 41.5V43H33V41.5C33 41.33 33.02 41.16 33.05 41ZM40.5 38.5C38.66 38.5 35 39.51 35 41.5V43H46V41.5C46 39.51 42.34 38.5 40.5 38.5ZM41.71 36.68C42.47 36.25 43 35.44 43 34.5C43 33.12 41.88 32 40.5 32C39.12 32 38 33.12 38 34.5C38 35.44 38.53 36.25 39.29 36.68C39.65 36.88 40.06 37 40.5 37C40.94 37 41.35 36.88 41.71 36.68Z" fill="#8F8F8F"/>
</svg>
