<svg width="72" height="72" viewBox="0 0 72 72" fill="none" xmlns="http://www.w3.org/2000/svg">
<rect x="0.5" y="0.5" width="71" height="71" rx="4.5" stroke="#7B61FF" stroke-dasharray="10 5"/>
<path d="M36 26C30.48 26 26 30.48 26 36C26 41.52 30.48 46 36 46C41.52 46 46 41.52 46 36C46 30.48 41.52 26 36 26ZM43.46 33.12L40.68 34.27C40.17 32.91 39.1 31.83 37.73 31.33L38.88 28.55C40.98 29.35 42.65 31.02 43.46 33.12ZM36 39C34.34 39 33 37.66 33 36C33 34.34 34.34 33 36 33C37.66 33 39 34.34 39 36C39 37.66 37.66 39 36 39ZM33.13 28.54L34.3 31.32C32.92 31.82 31.83 32.91 31.32 34.29L28.54 33.13C29.35 31.02 31.02 29.35 33.13 28.54ZM28.54 38.87L31.32 37.72C31.83 39.1 32.91 40.18 34.29 40.68L33.12 43.46C31.02 42.65 29.35 40.98 28.54 38.87ZM38.88 43.46L37.73 40.68C39.1 40.17 40.18 39.09 40.68 37.71L43.46 38.88C42.65 40.98 40.98 42.65 38.88 43.46Z" fill="#8F8F8F"/>
</svg>
