<svg width="73" height="72" viewBox="0 0 73 72" fill="none" xmlns="http://www.w3.org/2000/svg">
<rect x="0.5" y="0.5" width="72" height="71" rx="4.5" stroke="#7B61FF" stroke-dasharray="10 5"/>
<path d="M44 28H28C26.9 28 26 28.9 26 30V42C26 43.1 26.9 44 28 44H44C45.1 44 46 43.1 46 42V30C46 28.9 45.1 28 44 28ZM44 42H28V30H44V42Z" fill="#8F8F8F"/>
<path d="M32.29 39.71C31.27 38.69 30.75 37.35 30.75 36C30.75 34.65 31.27 33.31 32.28 32.28L31.05 31.05C29.68 32.41 29 34.21 29 36C29 37.79 29.68 39.59 31.06 40.94L32.29 39.71Z" fill="#8F8F8F"/>
<path d="M36 39.5C37.93 39.5 39.5 37.93 39.5 36C39.5 34.07 37.93 32.5 36 32.5C34.07 32.5 32.5 34.07 32.5 36C32.5 37.93 34.07 39.5 36 39.5ZM36 34.5C36.83 34.5 37.5 35.17 37.5 36C37.5 36.83 36.83 37.5 36 37.5C35.17 37.5 34.5 36.83 34.5 36C34.5 35.17 35.17 34.5 36 34.5Z" fill="#8F8F8F"/>
<path d="M39.72 39.72L40.95 40.95C42.32 39.59 43 37.79 43 36C43 34.21 42.32 32.41 40.94 31.06L39.71 32.29C40.73 33.31 41.25 34.65 41.25 36C41.25 37.35 40.73 38.69 39.72 39.72Z" fill="#8F8F8F"/>
</svg>
