<svg width="69" height="72" viewBox="0 0 69 72" fill="none" xmlns="http://www.w3.org/2000/svg">
<rect x="0.5" y="0.5" width="68" height="71" rx="4.5" stroke="#7B61FF" stroke-dasharray="10 5"/>
<path d="M42 28.5L38 32.5H41V39.5C41 40.6 40.1 41.5 39 41.5C37.9 41.5 37 40.6 37 39.5V32.5C37 30.29 35.21 28.5 33 28.5C30.79 28.5 29 30.29 29 32.5V39.5H26L30 43.5L34 39.5H31V32.5C31 31.4 31.9 30.5 33 30.5C34.1 30.5 35 31.4 35 32.5V39.5C35 41.71 36.79 43.5 39 43.5C41.21 43.5 43 41.71 43 39.5V32.5H46L42 28.5Z" fill="#8F8F8F"/>
</svg>
