<svg width="70" height="72" viewBox="0 0 70 72" fill="none" xmlns="http://www.w3.org/2000/svg">
<rect x="0.5" y="0.5" width="69" height="71" rx="4.5" stroke="#7B61FF" stroke-dasharray="10 5"/>
<path d="M37 30.83L38.59 32.42L40 31L36 27L32 31L33.41 32.41L35 30.83V35.1C32.72 35.56 31 37.58 31 40C31 42.76 33.24 45 36 45C38.76 45 41 42.76 41 40C41 37.58 39.28 35.56 37 35.1V30.83ZM36 43C34.34 43 33 41.66 33 40C33 38.34 34.34 37 36 37C37.66 37 39 38.34 39 40C39 41.66 37.66 43 36 43Z" fill="#8F8F8F"/>
</svg>
