<svg width="72" height="72" viewBox="0 0 72 72" fill="none" xmlns="http://www.w3.org/2000/svg">
<rect x="0.5" y="0.5" width="71" height="71" rx="4.5" stroke="#7B61FF" stroke-dasharray="10 5"/>
<path d="M35.1 37C35.56 39.28 37.58 41 40 41C42.76 41 45 38.76 45 36C45 33.24 42.76 31 40 31C37.58 31 35.56 32.72 35.1 35H30.83L32.42 33.41L31 32L27 36L31 40L32.41 38.59L30.83 37H35.1ZM40 39C38.34 39 37 37.66 37 36C37 34.34 38.34 33 40 33C41.66 33 43 34.34 43 36C43 37.66 41.66 39 40 39Z" fill="#8F8F8F"/>
</svg>
