<svg width="77" height="72" viewBox="0 0 77 72" fill="none" xmlns="http://www.w3.org/2000/svg">
<rect x="0.5" y="0.5" width="76" height="71" rx="4.5" stroke="#7B61FF" stroke-dasharray="10 5"/>
<path d="M25.2539 26H30.2539V31H28.7539V28.09C26.8939 30.2 25.7539 32.97 25.7539 36C25.7539 39.03 26.8939 41.79 28.7539 43.91V41H30.2539V46H25.2539V44.5H27.2739C25.3839 42.18 24.2539 39.22 24.2539 36C24.2539 32.78 25.3839 29.82 27.2739 27.5H25.2539V26ZM44.4739 34L40.3239 34.01C40.1639 34 40.0139 34.03 39.8739 34.09L39.2839 34.35L37.4539 30.25C36.8939 28.99 35.4139 28.42 34.1539 28.98C32.8939 29.54 32.3239 31.02 32.8839 32.28L36.1839 39.73L34.3139 40.12C34.1239 40.17 33.3239 40.39 32.9539 41.33L32.2539 43.19L39.0339 45.86C39.5239 46.05 40.0839 46.04 40.5639 45.82L46.5539 43.17C47.4439 42.77 47.9239 41.79 47.6839 40.85L46.3239 35.51C46.1039 34.65 45.3539 34.04 44.4739 34ZM45.7439 41.34L39.7539 44L34.8339 42.04L39.0139 41.16L34.7139 31.46C34.6039 31.21 34.7139 30.91 34.9639 30.8C35.2139 30.69 35.5139 30.8 35.6239 31.05L38.1239 36.7L39.7339 35.99L44.3839 36L45.7439 41.34Z" fill="#8F8F8F"/>
</svg>
