<svg width="72" height="72" viewBox="0 0 72 72" fill="none" xmlns="http://www.w3.org/2000/svg">
<rect x="0.5" y="0.5" width="71" height="71" rx="4.5" stroke="#7B61FF" stroke-dasharray="10 5"/>
<path d="M43.9739 34.5029L39.8239 34.5129C39.6639 34.5029 39.5139 34.5329 39.3739 34.5929L38.7839 34.8529L36.9539 30.7529C36.3939 29.4929 34.9139 28.9229 33.6539 29.4829C32.3939 30.0429 31.8239 31.5229 32.3839 32.7829L35.6839 40.2329L33.8139 40.6229C33.6239 40.6729 32.8239 40.8929 32.4539 41.8329L31.7539 43.6929L38.5339 46.3629C39.0239 46.5529 39.5839 46.5429 40.0639 46.3229L46.0539 43.6729C46.9439 43.2729 47.4239 42.2929 47.1839 41.3529L45.8239 36.0129C45.6039 35.1529 44.8539 34.5429 43.9739 34.5029ZM45.2439 41.8429L39.2539 44.5029L34.3339 42.5429L38.5139 41.6629L34.2139 31.9629C34.1039 31.7129 34.2139 31.4129 34.4639 31.3029C34.7139 31.1929 35.0139 31.3029 35.1239 31.5529L37.6239 37.2029L39.2339 36.4929L43.8839 36.5029L45.2439 41.8429ZM25.8139 30.0629L24.7539 29.0029L28.2539 25.5029L31.7539 29.0029L30.6939 30.0629L29.0739 28.4429C28.8639 29.2629 28.7539 30.1229 28.7539 31.0029C28.7539 33.4229 29.5739 35.6529 30.9539 37.4329L29.8839 38.5029C28.2439 36.4529 27.2539 33.8429 27.2539 31.0029C27.2539 30.0829 27.3539 29.1829 27.5539 28.3229L25.8139 30.0629Z" fill="#8F8F8F"/>
</svg>
