<svg width="72" height="72" viewBox="0 0 72 72" fill="none" xmlns="http://www.w3.org/2000/svg">
<rect x="0.5" y="0.5" width="71" height="71" rx="4.5" stroke="#7B61FF" stroke-dasharray="10 5"/>
<path d="M36.9 35C36.44 32.72 34.42 31 32 31C29.24 31 27 33.24 27 36C27 38.76 29.24 41 32 41C34.42 41 36.44 39.28 36.9 37H41.17L39.58 38.59L41 40L45 36L41 32L39.59 33.41L41.17 35H36.9ZM32 33C33.66 33 35 34.34 35 36C35 37.66 33.66 39 32 39C30.34 39 29 37.66 29 36C29 34.34 30.34 33 32 33Z" fill="#8F8F8F"/>
</svg>
