<svg width="72" height="72" viewBox="0 0 72 72" fill="none" xmlns="http://www.w3.org/2000/svg">
<rect x="0.5" y="0.5" width="71" height="71" rx="4.5" stroke="#7B61FF" stroke-dasharray="10 5"/>
<path d="M42.89 37.77L39.09 36.1C38.96 36.04 38.81 36 38.65 36H38V31.5C38 30.12 36.88 29 35.5 29C34.12 29 33 30.12 33 31.5V39.65L31.13 39.25C30.94 39.22 30.11 39.1 29.4 39.81L28 41.22L33.12 46.41C33.49 46.79 34 47 34.53 47H41.08C42.06 47 42.89 46.3 43.05 45.33L43.97 39.89C44.12 39.03 43.68 38.17 42.89 37.77ZM41.08 45H34.53L30.83 41.22L35 42.11V31.5C35 31.22 35.22 31 35.5 31C35.78 31 36 31.22 36 31.5V37.68H37.76L42 39.56L41.08 45ZM28.09 29.5H31V31H26V26H27.5V28.02C29.82 26.13 32.78 25 36 25C41.49 25 45.27 28.12 46 31H44.43C43.67 29.02 40.74 26.5 36 26.5C32.97 26.5 30.21 27.64 28.09 29.5Z" fill="#8F8F8F"/>
</svg>
