<svg width="77" height="72" viewBox="0 0 77 72" fill="none" xmlns="http://www.w3.org/2000/svg">
<rect x="0.5" y="0.5" width="76" height="71" rx="4.5" stroke="#7B61FF" stroke-dasharray="10 5"/>
<path d="M43.9739 34.0029L39.8239 34.0129C39.6639 34.0029 39.5139 34.0329 39.3739 34.0929L38.7839 34.3529L36.9539 30.2529C36.3939 28.9929 34.9139 28.4229 33.6539 28.9829C32.3939 29.5429 31.8239 31.0229 32.3839 32.2829L35.6839 39.7329L33.8139 40.1229C33.6239 40.1729 32.8239 40.3929 32.4539 41.3329L31.7539 43.1929L38.5339 45.8629C39.0239 46.0529 39.5839 46.0429 40.0639 45.8229L46.0539 43.1729C46.9439 42.7729 47.4239 41.7929 47.1839 40.8529L45.8239 35.5129C45.6039 34.6529 44.8539 34.0429 43.9739 34.0029ZM45.2439 41.3429L39.2539 44.0029L34.3339 42.0429L38.5139 41.1629L34.2139 31.4629C34.1039 31.2129 34.2139 30.9129 34.4639 30.8029C34.7139 30.6929 35.0139 30.8029 35.1239 31.0529L37.6239 36.7029L39.2339 35.9929L43.8839 36.0029L45.2439 41.3429ZM27.5539 36.1829C27.3539 35.3229 27.2539 34.4229 27.2539 33.5029C27.2539 30.6629 28.2439 28.0529 29.8839 26.0029L30.9539 27.0729C29.5739 28.8529 28.7539 31.0829 28.7539 33.5029C28.7539 34.3829 28.8639 35.2429 29.0739 36.0629L30.6939 34.4429L31.7539 35.5029L28.2539 39.0029L24.7539 35.5029L25.8139 34.4429L27.5539 36.1829Z" fill="#8F8F8F"/>
</svg>
