<svg width="70" height="72" viewBox="0 0 70 72" fill="none" xmlns="http://www.w3.org/2000/svg">
<rect x="0.5" y="0.5" width="69" height="71" rx="4.5" stroke="#7B61FF" stroke-dasharray="10 5"/>
<path d="M37 36.9C39.28 36.44 41 34.42 41 32C41 29.24 38.76 27 36 27C33.24 27 31 29.24 31 32C31 34.42 32.72 36.44 35 36.9V41.17L33.41 39.58L32 41L36 45L40 41L38.59 39.59L37 41.17V36.9ZM39 32C39 33.66 37.66 35 36 35C34.34 35 33 33.66 33 32C33 30.34 34.34 29 36 29C37.66 29 39 30.34 39 32Z" fill="#8F8F8F"/>
</svg>
