<svg width="70" height="72" viewBox="0 0 70 72" fill="none" xmlns="http://www.w3.org/2000/svg">
<rect x="0.5" y="0.5" width="69" height="71" rx="4.5" stroke="#7B61FF" stroke-dasharray="10 5"/>
<path d="M44.5 26V28.02C42.18 26.13 39.22 25 36 25C32.78 25 29.82 26.13 27.5 28.02V26H26V31H31V29.5H28.09C30.2 27.64 32.97 26.5 36 26.5C39.03 26.5 41.79 27.64 43.91 29.5H41V31H46V26H44.5Z" fill="#8F8F8F"/>
<path d="M42.89 37.77L39.09 36.1C38.96 36.04 38.81 36 38.65 36H38V31.63C38 30.31 37.04 29.13 35.73 29.01C34.25 28.88 33 30.05 33 31.5V39.65L31.13 39.25C30.94 39.22 30.11 39.1 29.4 39.81L28 41.22L33.12 46.41C33.49 46.79 34 47 34.53 47H41.08C42.06 47 42.89 46.3 43.05 45.33L43.97 39.89C44.12 39.03 43.68 38.17 42.89 37.77ZM42 39.56L41.08 45H34.53L30.83 41.22L35 42.11V31.5C35 31.22 35.22 31 35.5 31C35.78 31 36 31.22 36 31.5V37.68H37.76L42 39.56Z" fill="#8F8F8F"/>
</svg>
