<svg width="72" height="72" viewBox="0 0 72 72" fill="none" xmlns="http://www.w3.org/2000/svg">
<rect x="0.5" y="0.5" width="71" height="71" rx="4.5" stroke="#7B61FF" stroke-dasharray="10 5"/>
<path d="M29.56 32.94L27.5 32L29.56 31.06L30.5 29L31.44 31.06L33.5 32L31.44 32.94L30.5 35L29.56 32.94ZM30.5 45L31.44 42.94L33.5 42L31.44 41.06L30.5 39L29.56 41.06L27.5 42L29.56 42.94L30.5 45ZM26.87 36.37L25.5 37L26.87 37.63L27.5 39L28.13 37.63L29.5 37L28.13 36.37L27.5 35L26.87 36.37ZM34.5 36C34.5 32.91 35.88 30.06 37.94 28H34.5V26H41.5V33H39.5V29.28C37.7 31.02 36.5 33.48 36.5 36C36.5 39.32 38.6 42.36 41.5 43.82V46C37.41 44.41 34.5 40.35 34.5 36ZM46.5 38H44.5V36H42.5V38H40.5V40H42.5V42H44.5V40H46.5V38Z" fill="#8F8F8F"/>
</svg>
