<svg width="70" height="72" viewBox="0 0 70 72" fill="none" xmlns="http://www.w3.org/2000/svg">
<rect x="0.5" y="0.5" width="69" height="71" rx="4.5" stroke="#7B61FF" stroke-dasharray="10 5"/>
<path d="M32.06 32.94L30 32L32.06 31.06L33 29L33.94 31.06L36 32L33.94 32.94L33 35L32.06 32.94ZM33 45L33.94 42.94L36 42L33.94 41.06L33 39L32.06 41.06L30 42L32.06 42.94L33 45ZM29.37 36.37L28 37L29.37 37.63L30 39L30.63 37.63L32 37L30.63 36.37L30 35L29.37 36.37ZM37 36C37 32.91 38.38 30.06 40.44 28H37V26H44V33H42V29.28C40.2 31.02 39 33.48 39 36C39 39.32 41.1 42.36 44 43.82V46C39.91 44.41 37 40.35 37 36Z" fill="#8F8F8F"/>
</svg>
