<svg width="73" height="72" viewBox="0 0 73 72" fill="none" xmlns="http://www.w3.org/2000/svg">
<rect x="0.5" y="0.5" width="72" height="71" rx="4.5" stroke="#7B61FF" stroke-dasharray="10 5"/>
<path d="M36 40L40 36H37V27H35V36H32L36 40ZM45 27H39V28.99H45V43.02H27V28.99H33V27H27C25.9 27 25 27.9 25 29V43C25 44.1 25.9 45 27 45H45C46.1 45 47 44.1 47 43V29C47 27.9 46.1 27 45 27ZM36 40L40 36H37V27H35V36H32L36 40ZM45 27H39V28.99H45V43.02H27V28.99H33V27H27C25.9 27 25 27.9 25 29V43C25 44.1 25.9 45 27 45H45C46.1 45 47 44.1 47 43V29C47 27.9 46.1 27 45 27Z" fill="#8F8F8F"/>
</svg>
