<svg width="72" height="72" viewBox="0 0 72 72" fill="none" xmlns="http://www.w3.org/2000/svg">
<rect x="0.5" y="0.5" width="71" height="71" rx="4.5" stroke="#7B61FF" stroke-dasharray="10 5"/>
<path d="M25 33H27V31H25V33ZM25 37H27V35H25V37ZM25 29H27V27C25.9 27 25 27.9 25 29ZM33 45H35V43H33V45ZM25 41H27V39H25V41ZM27 45V43H25C25 44.1 25.9 45 27 45ZM45 27H37V33H47V29C47 27.9 46.1 27 45 27ZM45 41H47V39H45V41ZM33 29H35V27H33V29ZM29 45H31V43H29V45ZM29 29H31V27H29V29ZM45 45C46.1 45 47 44.1 47 43H45V45ZM45 37H47V35H45V37ZM37 45H39V43H37V45ZM41 45H43V43H41V45Z" fill="#8F8F8F"/>
</svg>
