<svg width="70" height="72" viewBox="0 0 70 72" fill="none" xmlns="http://www.w3.org/2000/svg">
<rect x="0.5" y="0.5" width="69" height="71" rx="4.5" stroke="#7B61FF" stroke-dasharray="10 5"/>
<path d="M43 31H33C31.9 31 31 31.9 31 33V43C31 44.1 31.9 45 33 45H43C44.1 45 45 44.1 45 43V33C45 31.9 44.1 31 43 31ZM43 33V35H33V33H43ZM37 39V37H39V39H37ZM39 41V43H37V41H39ZM35 39H33V37H35V39ZM41 37H43V39H41V37ZM33 41H35V43H33V41ZM41 43V41H43V43H41ZM30 41H29C27.9 41 27 40.1 27 39V29C27 27.9 27.9 27 29 27H39C40.1 27 41 27.9 41 29V30H39V29H29V39H30V41Z" fill="#8F8F8F"/>
</svg>
