<svg width="72" height="72" viewBox="0 0 72 72" fill="none" xmlns="http://www.w3.org/2000/svg">
<rect x="0.5" y="0.5" width="71" height="71" rx="4.5" stroke="#7B61FF" stroke-dasharray="10 5"/>
<path d="M35.99 26C30.47 26 26 30.48 26 36C26 41.52 30.47 46 35.99 46C41.52 46 46 41.52 46 36C46 30.48 41.52 26 35.99 26ZM36 44C31.58 44 28 40.42 28 36C28 31.58 31.58 28 36 28C40.42 28 44 31.58 44 36C44 40.42 40.42 44 36 44ZM39.5 35C40.33 35 41 34.33 41 33.5C41 32.67 40.33 32 39.5 32C38.67 32 38 32.67 38 33.5C38 34.33 38.67 35 39.5 35ZM32.5 35C33.33 35 34 34.33 34 33.5C34 32.67 33.33 32 32.5 32C31.67 32 31 32.67 31 33.5C31 34.33 31.67 35 32.5 35ZM36 41.5C38.33 41.5 40.31 40.04 41.11 38H30.89C31.69 40.04 33.67 41.5 36 41.5Z" fill="#8F8F8F"/>
</svg>
