<svg width="77" height="72" viewBox="0 0 77 72" fill="none" xmlns="http://www.w3.org/2000/svg">
<rect x="0.5" y="0.5" width="76" height="71" rx="4.5" stroke="#7B61FF" stroke-dasharray="10 5"/>
<path d="M46 29.18L34.59 40.6L30.35 36.36L31.76 34.95L34.59 37.78L44.59 27.78L46 29.18ZM43.79 34.22C43.92 34.79 44 35.39 44 36C44 40.42 40.42 44 36 44C31.58 44 28 40.42 28 36C28 31.58 31.58 28 36 28C37.58 28 39.04 28.46 40.28 29.25L41.72 27.81C40.1 26.67 38.13 26 36 26C30.48 26 26 30.48 26 36C26 41.52 30.48 46 36 46C41.52 46 46 41.52 46 36C46 34.81 45.78 33.67 45.4 32.61L43.79 34.22Z" fill="#8F8F8F"/>
</svg>
