<svg width="72" height="72" viewBox="0 0 72 72" fill="none" xmlns="http://www.w3.org/2000/svg">
<rect x="0.5" y="0.5" width="71" height="71" rx="4.5" stroke="#7B61FF" stroke-dasharray="10 5"/>
<path d="M43.51 27.08L27.08 43.51C27.17 43.85 27.35 44.16 27.59 44.41C27.84 44.65 28.15 44.83 28.49 44.92L44.93 28.49C44.74 27.8 44.2 27.26 43.51 27.08ZM35.88 27L27 35.88V38.71L38.71 27H35.88ZM29 27C27.9 27 27 27.9 27 29V31L31 27H29ZM43 45C43.55 45 44.05 44.78 44.41 44.41C44.78 44.05 45 43.55 45 43V41L41 45H43ZM33.29 45H36.12L45 36.12V33.29L33.29 45Z" fill="#8F8F8F"/>
</svg>
