<svg width="72" height="72" viewBox="0 0 72 72" fill="none" xmlns="http://www.w3.org/2000/svg">
<rect x="0.5" y="0.5" width="71" height="71" rx="4.5" stroke="#7B61FF" stroke-dasharray="10 5"/>
<path d="M34.5 36V30C34.5 28.34 33.16 27 31.5 27C29.84 27 28.5 28.34 28.5 30V36C27.29 36.91 26.5 38.37 26.5 40C26.5 41.12 26.88 42.14 27.5 42.97V43H27.52C28.43 44.21 29.87 45 31.5 45C33.13 45 34.56 44.21 35.48 43H35.5V42.97C36.12 42.14 36.5 41.12 36.5 40C36.5 38.37 35.71 36.91 34.5 36ZM28.5 40C28.5 39.06 28.95 38.16 29.7 37.6L30.5 37V30C30.5 29.45 30.95 29 31.5 29C32.05 29 32.5 29.45 32.5 30V37L33.3 37.6C34.05 38.17 34.5 39.06 34.5 40H28.5ZM42.12 28H40.51L37.13 37H38.69L39.5 34.7H43.13L43.93 37H45.5L42.12 28ZM39.97 33.39L41.28 29.67H41.36L42.67 33.39H39.97Z" fill="#8F8F8F"/>
</svg>
