<svg width="72" height="72" viewBox="0 0 72 72" fill="none" xmlns="http://www.w3.org/2000/svg">
<rect x="0.5" y="0.5" width="71" height="71" rx="4.5" stroke="#7B61FF" stroke-dasharray="10 5"/>
<g clip-path="url(#clip0_256_16556)">
<path d="M36 30C36 29.45 35.55 29 35 29H29.82L30.48 25.82L30.5 25.59C30.5 25.28 30.37 25 30.17 24.79L29.38 24L24.44 28.94C24.17 29.21 24 29.59 24 30V36.5C24 37.33 24.67 38 25.5 38H32.25C32.87 38 33.4 37.62 33.63 37.09L35.89 31.8C35.96 31.63 36 31.44 36 31.25V30ZM34 31.13L31.92 36H26V30.21L27.93 28.28L27.36 31H34V31.13ZM46.5 34H39.75C39.13 34 38.6 34.38 38.37 34.91L36.11 40.2C36.04 40.37 36 40.56 36 40.75V42C36 42.55 36.45 43 37 43H42.18L41.52 46.18L41.5 46.42C41.5 46.73 41.63 47.01 41.83 47.22L42.62 48L47.56 43.06C47.83 42.79 48 42.41 48 42V35.5C48 34.67 47.33 34 46.5 34ZM46 41.79L44.07 43.72L44.64 41H38V40.87L40.08 36H46V41.79Z" fill="#8F8F8F"/>
</g>
<defs>
<clipPath id="clip0_256_16556">
<rect width="24" height="24" fill="white" transform="translate(24 24)"/>
</clipPath>
</defs>
</svg>
