<svg width="72" height="72" viewBox="0 0 72 72" fill="none" xmlns="http://www.w3.org/2000/svg">
<rect x="0.5" y="0.5" width="71" height="71" rx="4.5" stroke="#7B61FF" stroke-dasharray="10 5"/>
<path d="M39 26H30C29.17 26 28.46 26.5 28.16 27.22L25.14 34.27C25.05 34.5 25 34.74 25 35V37C25 38.1 25.9 39 27 39H33.31L32.36 43.57L32.33 43.89C32.33 44.3 32.5 44.68 32.77 44.95L33.83 46L40.42 39.41C40.78 39.05 41 38.55 41 38V28C41 26.9 40.1 26 39 26ZM39 38L34.66 42.34L36 37H27V35L30 28H39V38ZM43 26H47V38H43V26Z" fill="#8F8F8F"/>
</svg>
