<svg width="72" height="72" viewBox="0 0 72 72" fill="none" xmlns="http://www.w3.org/2000/svg">
<rect x="0.5" y="0.5" width="71" height="71" rx="4.5" stroke="#7B61FF" stroke-dasharray="10 5"/>
<path d="M33 46H42C42.83 46 43.54 45.5 43.84 44.78L46.86 37.73C46.95 37.5 47 37.26 47 37V35C47 33.9 46.1 33 45 33H38.69L39.64 28.43L39.67 28.11C39.67 27.7 39.5 27.32 39.23 27.05L38.17 26L31.58 32.59C31.22 32.95 31 33.45 31 34V44C31 45.1 31.9 46 33 46ZM33 34L37.34 29.66L36 35H45V37L42 44H33V34ZM25 34H29V46H25V34Z" fill="#8F8F8F"/>
</svg>
