<svg width="73" height="72" viewBox="0 0 73 72" fill="none" xmlns="http://www.w3.org/2000/svg">
<rect x="0.5" y="0.5" width="72" height="71" rx="4.5" stroke="#7B61FF" stroke-dasharray="10 5"/>
<path d="M44.5 35V37H40.5V38H43C43.83 38 44.5 38.68 44.5 39.5V41.5C44.5 42.33 43.83 43 43 43H38.5V41H42.5V40H40C39.18 40 38.5 39.32 38.5 38.5V36.5C38.5 35.68 39.18 35 40 35H44.5ZM27.5 29V32H33.5V34.5H27.5V37.5H33.5V40H27.5V43H33.5C35.16 43 36.5 41.66 36.5 40V38.1C36.5 36.94 35.56 36 34.4 36C35.56 36 36.5 35.06 36.5 33.9V32C36.5 30.34 35.16 29 33.5 29H27.5Z" fill="#8F8F8F"/>
</svg>
