<svg width="72" height="72" viewBox="0 0 72 72" fill="none" xmlns="http://www.w3.org/2000/svg">
<rect x="0.5" y="0.5" width="71" height="71" rx="4.5" stroke="#7B61FF" stroke-dasharray="10 5"/>
<path d="M39 25.5H33V27.5H39V25.5ZM35 38.5H37V32.5H35V38.5ZM43.03 31.89L44.45 30.47C44.02 29.96 43.55 29.48 43.04 29.06L41.62 30.48C40.07 29.24 38.12 28.5 36 28.5C31.03 28.5 27 32.53 27 37.5C27 42.47 31.02 46.5 36 46.5C40.98 46.5 45 42.47 45 37.5C45 35.38 44.26 33.43 43.03 31.89ZM36 44.5C32.13 44.5 29 41.37 29 37.5C29 33.63 32.13 30.5 36 30.5C39.87 30.5 43 33.63 43 37.5C43 41.37 39.87 44.5 36 44.5Z" fill="#8F8F8F"/>
</svg>
