<svg width="72" height="72" viewBox="0 0 72 72" fill="none" xmlns="http://www.w3.org/2000/svg">
<rect x="0.5" y="0.5" width="71" height="71" rx="4.5" stroke="#7B61FF" stroke-dasharray="10 5"/>
<g clip-path="url(#clip0_256_22208)">
<path d="M23.9902 31.715V33.395L26.9902 32.395V41.995H28.9902V29.995H28.7402L23.9902 31.715ZM47.7702 38.365C47.6302 38.085 47.4202 37.835 47.1402 37.625C46.8602 37.415 46.5302 37.235 46.1302 37.095C45.7302 36.955 45.2802 36.825 44.7802 36.715C44.4302 36.645 44.1402 36.565 43.9102 36.485C43.6802 36.405 43.5002 36.325 43.3602 36.235C43.2202 36.145 43.1302 36.045 43.0802 35.935C43.0302 35.825 43.0002 35.695 43.0002 35.545C43.0002 35.405 43.0302 35.265 43.0902 35.135C43.1502 35.005 43.2402 34.885 43.3602 34.795C43.4802 34.695 43.6302 34.615 43.8102 34.555C43.9902 34.495 44.2102 34.465 44.4502 34.465C44.7002 34.465 44.9202 34.505 45.1102 34.575C45.3002 34.645 45.4602 34.745 45.5902 34.865C45.7202 34.985 45.8102 35.125 45.8802 35.285C45.9402 35.445 45.9802 35.605 45.9802 35.775H47.9302C47.9302 35.385 47.8502 35.025 47.6902 34.685C47.5302 34.345 47.3002 34.055 47.0002 33.805C46.7002 33.555 46.3402 33.365 45.9102 33.215C45.4802 33.065 44.9902 32.995 44.4502 32.995C43.9402 32.995 43.4702 33.065 43.0602 33.205C42.6502 33.345 42.2902 33.535 42.0002 33.775C41.7102 34.015 41.4902 34.295 41.3302 34.615C41.1702 34.935 41.1002 35.265 41.1002 35.625C41.1002 35.985 41.1802 36.315 41.3302 36.585C41.4802 36.865 41.6902 37.105 41.9702 37.315C42.2402 37.525 42.5702 37.695 42.9502 37.845C43.3302 37.985 43.7602 38.105 44.2202 38.205C44.6102 38.285 44.9302 38.375 45.1702 38.465C45.4102 38.555 45.6002 38.655 45.7402 38.755C45.8702 38.855 45.9602 38.975 46.0102 39.095C46.0602 39.215 46.0802 39.345 46.0802 39.485C46.0802 39.805 45.9502 40.055 45.6802 40.255C45.4102 40.455 45.0202 40.545 44.5102 40.545C44.2902 40.545 44.0802 40.525 43.8702 40.465C43.6602 40.415 43.4702 40.335 43.3102 40.225C43.1402 40.115 43.0102 39.965 42.9002 39.785C42.7902 39.605 42.7302 39.375 42.7202 39.115H40.8302C40.8302 39.475 40.9102 39.825 41.0702 40.165C41.2302 40.505 41.4602 40.815 41.7702 41.095C42.0802 41.365 42.4602 41.585 42.9202 41.755C43.3802 41.925 43.9002 42.005 44.5002 42.005C45.0302 42.005 45.5102 41.945 45.9402 41.815C46.3702 41.685 46.7402 41.505 47.0502 41.275C47.3602 41.045 47.5902 40.765 47.7602 40.445C47.9302 40.125 48.0102 39.775 48.0102 39.385C47.9902 38.985 47.9202 38.645 47.7702 38.365ZM37.8102 31.045C37.4702 30.645 37.0602 30.345 36.5802 30.165C36.1102 29.985 35.5702 29.895 34.9902 29.895C34.4102 29.895 33.8802 29.985 33.4002 30.165C32.9202 30.345 32.5102 30.635 32.1702 31.045C31.8302 31.455 31.5702 31.975 31.3802 32.635C31.2002 33.285 31.1002 34.085 31.1002 35.025V36.945C31.1002 37.885 31.1902 38.685 31.3802 39.335C31.5702 39.995 31.8302 40.525 32.1802 40.935C32.5202 41.345 32.9302 41.645 33.4102 41.825C33.8902 42.005 34.4202 42.105 35.0002 42.105C35.5902 42.105 36.1202 42.015 36.5902 41.825C37.0702 41.645 37.4702 41.345 37.8102 40.935C38.1502 40.525 38.4102 39.995 38.5902 39.335C38.7702 38.685 38.8702 37.885 38.8702 36.945V35.025C38.8702 34.085 38.7802 33.285 38.5902 32.635C38.4102 31.975 38.1502 31.445 37.8102 31.045ZM36.8902 37.215C36.8902 37.815 36.8502 38.325 36.7702 38.745C36.6902 39.165 36.5702 39.505 36.4102 39.765C36.2502 40.025 36.0502 40.215 35.8202 40.335C35.5902 40.455 35.3102 40.515 35.0002 40.515C34.7002 40.515 34.4202 40.455 34.1802 40.335C33.9402 40.215 33.7402 40.025 33.5802 39.765C33.4202 39.505 33.2902 39.165 33.2002 38.745C33.1102 38.325 33.0702 37.815 33.0702 37.215V34.715C33.0702 34.115 33.1102 33.605 33.2002 33.195C33.2902 32.785 33.4102 32.455 33.5802 32.195C33.7402 31.945 33.9402 31.765 34.1802 31.645C34.4202 31.535 34.6902 31.475 34.9902 31.475C35.3002 31.475 35.5702 31.535 35.8002 31.645C36.0402 31.755 36.2402 31.935 36.4002 32.195C36.5602 32.445 36.6902 32.775 36.7702 33.185C36.8502 33.595 36.9002 34.105 36.9002 34.705V37.215H36.8902Z" fill="#8F8F8F"/>
</g>
<defs>
<clipPath id="clip0_256_22208">
<rect width="24" height="24" fill="white" transform="translate(24 24)"/>
</clipPath>
</defs>
</svg>
