<svg width="72" height="72" viewBox="0 0 72 72" fill="none" xmlns="http://www.w3.org/2000/svg">
<rect x="0.5" y="0.5" width="71" height="71" rx="4.5" stroke="#7B61FF" stroke-dasharray="10 5"/>
<path d="M34.9591 36.98C34.7991 36.74 34.5991 36.52 34.3391 36.33C34.0891 36.14 33.7791 35.98 33.4091 35.85C33.7091 35.71 33.9791 35.55 34.2091 35.35C34.4391 35.15 34.6291 34.94 34.7791 34.71C34.9291 34.48 35.0491 34.25 35.1191 34C35.1991 33.76 35.2291 33.51 35.2291 33.27C35.2291 32.72 35.1391 32.23 34.9491 31.81C34.7691 31.39 34.5091 31.04 34.1691 30.75C33.8391 30.47 33.4391 30.25 32.9691 30.11C32.5191 29.98 31.9991 29.91 31.4391 29.91C30.8891 29.91 30.3791 29.99 29.9191 30.15C29.4491 30.32 29.0491 30.55 28.7191 30.84C28.3891 31.13 28.1191 31.47 27.9391 31.87C27.7391 32.26 27.6491 32.7 27.6491 33.16H29.6291C29.6291 32.9 29.6791 32.67 29.7691 32.47C29.8591 32.27 29.9891 32.09 30.1491 31.95C30.3191 31.81 30.5091 31.7 30.7291 31.62C30.9491 31.54 31.1891 31.5 31.4591 31.5C32.0691 31.5 32.5191 31.66 32.8191 31.97C33.1191 32.28 33.2591 32.72 33.2591 33.29C33.2591 33.56 33.2191 33.81 33.1391 34.03C33.0591 34.25 32.9291 34.44 32.7591 34.6C32.5891 34.76 32.3791 34.88 32.1291 34.97C31.8791 35.06 31.5791 35.1 31.2391 35.1H30.0691V36.67H31.2491C31.5891 36.67 31.8891 36.71 32.1591 36.78C32.4291 36.86 32.6591 36.97 32.8491 37.13C33.0391 37.29 33.1891 37.49 33.2891 37.74C33.3891 37.98 33.4491 38.28 33.4491 38.61C33.4491 39.23 33.2691 39.7 32.9191 40.03C32.5691 40.36 32.0791 40.52 31.4691 40.52C31.1791 40.52 30.9091 40.48 30.6691 40.39C30.4291 40.31 30.2291 40.19 30.0591 40.03C29.8891 39.87 29.7591 39.69 29.6691 39.47C29.5791 39.25 29.5291 39.01 29.5291 38.75H27.5391C27.5391 39.3 27.6491 39.78 27.8591 40.2C28.0691 40.62 28.3591 40.97 28.7191 41.25C29.0791 41.53 29.4891 41.74 29.9591 41.88C30.4291 42.02 30.9191 42.09 31.4391 42.09C32.0091 42.09 32.5291 42.01 33.0191 41.86C33.5091 41.71 33.9291 41.48 34.2791 41.18C34.6391 40.88 34.9191 40.52 35.1191 40.08C35.3191 39.65 35.4191 39.15 35.4191 38.6C35.4191 38.31 35.3791 38.02 35.3091 37.74C35.2291 37.49 35.1191 37.23 34.9591 36.98ZM44.2191 38.38C44.0791 38.1 43.8691 37.85 43.5891 37.64C43.3091 37.43 42.9791 37.25 42.5791 37.11C42.1791 36.97 41.7291 36.84 41.2291 36.73C40.8791 36.66 40.5891 36.58 40.3591 36.5C40.1291 36.42 39.9491 36.34 39.8091 36.25C39.6691 36.16 39.5791 36.06 39.5291 35.95C39.4791 35.84 39.4491 35.71 39.4491 35.56C39.4491 35.41 39.4791 35.28 39.5391 35.15C39.5991 35.02 39.6891 34.9 39.8091 34.81C39.9291 34.71 40.0791 34.63 40.2591 34.57C40.4391 34.51 40.6591 34.48 40.8991 34.48C41.1491 34.48 41.3691 34.52 41.5591 34.59C41.7491 34.66 41.9091 34.76 42.0391 34.88C42.1691 35 42.2591 35.14 42.3291 35.3C42.3891 35.46 42.4291 35.62 42.4291 35.79H44.3791C44.3791 35.4 44.2991 35.04 44.1391 34.7C43.9791 34.36 43.7491 34.07 43.4491 33.82C43.1491 33.57 42.7891 33.38 42.3591 33.23C41.9291 33.08 41.4391 33.01 40.8991 33.01C40.3891 33.01 39.9191 33.08 39.5091 33.22C39.0991 33.36 38.7391 33.55 38.4491 33.79C38.1591 34.03 37.9391 34.31 37.7791 34.63C37.6191 34.95 37.5491 35.28 37.5491 35.64C37.5491 36 37.6291 36.32 37.7791 36.6C37.9291 36.88 38.1491 37.12 38.4191 37.33C38.6891 37.54 39.0191 37.71 39.3991 37.86C39.7791 38 40.2091 38.12 40.6691 38.22C41.0591 38.3 41.3791 38.39 41.6191 38.48C41.8591 38.57 42.0491 38.67 42.1891 38.77C42.3191 38.87 42.4091 38.99 42.4591 39.11C42.5091 39.23 42.5291 39.36 42.5291 39.5C42.5291 39.82 42.3991 40.07 42.1291 40.27C41.8591 40.47 41.4691 40.56 40.9591 40.56C40.7391 40.56 40.5291 40.54 40.3191 40.48C40.1091 40.43 39.9191 40.35 39.7591 40.24C39.5891 40.13 39.4591 39.98 39.3491 39.8C39.2391 39.62 39.1791 39.39 39.1691 39.13H37.2791C37.2791 39.49 37.3591 39.84 37.5191 40.18C37.6791 40.52 37.9091 40.83 38.2191 41.11C38.5291 41.38 38.9091 41.6 39.3691 41.77C39.8291 41.94 40.3491 42.02 40.9491 42.02C41.4791 42.02 41.9591 41.96 42.3891 41.83C42.8191 41.7 43.1891 41.52 43.4991 41.29C43.8091 41.06 44.0391 40.78 44.2091 40.46C44.3791 40.14 44.4591 39.79 44.4591 39.4C44.4391 39 44.3691 38.66 44.2191 38.38Z" fill="#8F8F8F"/>
</svg>
