<svg width="72" height="72" viewBox="0 0 72 72" fill="none" xmlns="http://www.w3.org/2000/svg">
<rect x="0.5" y="0.5" width="71" height="71" rx="4.5" stroke="#7B61FF" stroke-dasharray="10 5"/>
<path d="M39.7096 25.1948H33.7096V27.1948H39.7096V25.1948Z" fill="#8F8F8F"/>
<path d="M36.7096 30.1948C40.5796 30.1948 43.7096 33.3248 43.7096 37.1948C43.7096 38.1348 43.5196 39.0248 43.1896 39.8448L44.6896 41.3448C45.3396 40.1048 45.7096 38.6948 45.7096 37.1948C45.7096 35.0748 44.9696 33.1248 43.7396 31.5848L45.1596 30.1648C44.7296 29.6548 44.2596 29.1748 43.7496 28.7548L42.3296 30.1748C40.7796 28.9348 38.8296 28.1948 36.7096 28.1948C35.2096 28.1948 33.7996 28.5648 32.5596 29.2148L34.0596 30.7148C34.8796 30.3848 35.7696 30.1948 36.7096 30.1948Z" fill="#8F8F8F"/>
<path d="M35.7096 32.3648L37.7096 34.3648V32.1948H35.7096V32.3648Z" fill="#8F8F8F"/>
<path d="M27.5196 27.0048L26.0996 28.4148L29.4996 31.8148C28.3796 33.3148 27.7096 35.1748 27.7096 37.1948C27.7096 42.1648 31.7296 46.1948 36.7096 46.1948C38.7296 46.1948 40.5896 45.5248 42.0896 44.4048L44.4896 46.8048L45.8996 45.3948L27.5196 27.0048ZM36.7096 44.1948C32.8396 44.1948 29.7096 41.0648 29.7096 37.1948C29.7096 35.7248 30.1596 34.3648 30.9296 33.2448L40.6596 42.9748C39.5396 43.7448 38.1796 44.1948 36.7096 44.1948Z" fill="#8F8F8F"/>
</svg>
