<svg width="72" height="72" viewBox="0 0 72 72" fill="none" xmlns="http://www.w3.org/2000/svg">
<rect x="0.5" y="0.5" width="71" height="71" rx="4.5" stroke="#7B61FF" stroke-dasharray="10 5"/>
<path d="M47 32C47 33.1 46.1 34 45 34C44.82 34 44.65 33.98 44.49 33.93L40.93 37.48C40.98 37.64 41 37.82 41 38C41 39.1 40.1 40 39 40C37.9 40 37 39.1 37 38C37 37.82 37.02 37.64 37.07 37.48L34.52 34.93C34.36 34.98 34.18 35 34 35C33.82 35 33.64 34.98 33.48 34.93L28.93 39.49C28.98 39.65 29 39.82 29 40C29 41.1 28.1 42 27 42C25.9 42 25 41.1 25 40C25 38.9 25.9 38 27 38C27.18 38 27.35 38.02 27.51 38.07L32.07 33.52C32.02 33.36 32 33.18 32 33C32 31.9 32.9 31 34 31C35.1 31 36 31.9 36 33C36 33.18 35.98 33.36 35.93 33.52L38.48 36.07C38.64 36.02 38.82 36 39 36C39.18 36 39.36 36.02 39.52 36.07L43.07 32.51C43.02 32.35 43 32.18 43 32C43 30.9 43.9 30 45 30C46.1 30 47 30.9 47 32Z" fill="#8F8F8F"/>
</svg>
