<svg width="71" height="72" viewBox="0 0 71 72" fill="none" xmlns="http://www.w3.org/2000/svg">
<rect x="0.5" y="0.5" width="70" height="71" rx="4.5" stroke="#7B61FF" stroke-dasharray="10 5"/>
<path d="M37 32V40H34V32H37ZM37 29H34C32.34 29 31 30.34 31 32V40C31 41.66 32.34 43 34 43H37C38.66 43 40 41.66 40 40V32C40 30.34 38.66 29 37 29ZM25 32H27V43H30V29H25V32ZM42.5 35C41.67 35 41 35.68 41 36.5V38.5C41 39.32 41.67 40 42.5 40H45V41H41V43H45.5C46.33 43 47 42.33 47 41.5V39.5C47 38.67 46.33 38 45.5 38H43V37H47V35H42.5Z" fill="#8F8F8F"/>
</svg>
