<svg width="70" height="72" viewBox="0 0 70 72" fill="none" xmlns="http://www.w3.org/2000/svg">
<rect x="0.5" y="0.5" width="69" height="71" rx="4.5" stroke="#7B61FF" stroke-dasharray="10 5"/>
<path d="M30.25 45H34.25C34.25 46.1 33.35 47 32.25 47C31.15 47 30.25 46.1 30.25 45ZM28.25 44H36.25V42H28.25V44ZM39.75 34.5C39.75 38.32 37.09 40.36 35.98 41H28.52C27.41 40.36 24.75 38.32 24.75 34.5C24.75 30.36 28.11 27 32.25 27C36.39 27 39.75 30.36 39.75 34.5ZM37.75 34.5C37.75 31.47 35.28 29 32.25 29C29.22 29 26.75 31.47 26.75 34.5C26.75 36.97 28.24 38.39 29.1 39H35.4C36.26 38.39 37.75 36.97 37.75 34.5ZM44.62 32.37L43.25 33L44.62 33.63L45.25 35L45.88 33.63L47.25 33L45.88 32.37L45.25 31L44.62 32.37ZM42.25 31L43.19 28.94L45.25 28L43.19 27.06L42.25 25L41.31 27.06L39.25 28L41.31 28.94L42.25 31Z" fill="#8F8F8F"/>
</svg>
