<svg width="72" height="72" viewBox="0 0 72 72" fill="none" xmlns="http://www.w3.org/2000/svg">
<rect x="0.5" y="0.5" width="71" height="71" rx="4.5" stroke="#7B61FF" stroke-dasharray="10 5"/>
<path d="M45 31L36 26L27 31V41L36 46L45 41V31ZM36 28.29L41.91 31.57L38.9 33.24C38.17 32.48 37.14 32 36 32C34.86 32 33.83 32.48 33.1 33.24L30.09 31.57L36 28.29ZM35 43.16L29 39.83V33.26L32.13 35C32.04 35.31 32 35.65 32 36C32 37.86 33.27 39.43 35 39.87V43.16ZM34 36C34 34.9 34.9 34 36 34C37.1 34 38 34.9 38 36C38 37.1 37.1 38 36 38C34.9 38 34 37.1 34 36ZM37 43.16V39.88C38.73 39.44 40 37.87 40 36.01C40 35.66 39.96 35.32 39.87 35L43 33.26V39.83L37 43.16Z" fill="#8F8F8F"/>
</svg>
