<svg width="72" height="72" viewBox="0 0 72 72" fill="none" xmlns="http://www.w3.org/2000/svg">
<rect x="0.5" y="0.5" width="71" height="71" rx="4.5" stroke="#7B61FF" stroke-dasharray="10 5"/>
<path d="M39 28C34.58 28 31 31.58 31 36C31 40.42 34.58 44 39 44C43.42 44 47 40.42 47 36C47 31.58 43.42 28 39 28ZM39 42C35.69 42 33 39.31 33 36C33 32.69 35.69 30 39 30C42.31 30 45 32.69 45 36C45 39.31 42.31 42 39 42ZM27 36C27 33.39 28.67 31.17 31 30.35V28.26C27.55 29.15 25 32.27 25 36C25 39.73 27.55 42.85 31 43.74V41.65C28.67 40.83 27 38.61 27 36Z" fill="#8F8F8F"/>
</svg>
