<svg width="72" height="72" viewBox="0 0 72 72" fill="none" xmlns="http://www.w3.org/2000/svg">
<rect x="0.5" y="0.5" width="71" height="71" rx="4.5" stroke="#7B61FF" stroke-dasharray="10 5"/>
<path d="M36 26C30.48 26 26 30.48 26 36C26 41.52 30.48 46 36 46C41.52 46 46 41.52 46 36C46 30.48 41.52 26 36 26ZM35 43.93C31.06 43.44 28 40.08 28 36C28 31.92 31.05 28.56 35 28.07V43.93ZM37 28.07C38.03 28.2 39 28.52 39.87 29H37V28.07ZM37 31H42.24C42.49 31.31 42.72 31.65 42.92 32H37V31ZM37 34H43.74C43.82 34.33 43.89 34.66 43.93 35H37V34ZM37 43.93V43H39.87C39 43.48 38.03 43.8 37 43.93ZM42.24 41H37V40H42.92C42.72 40.35 42.49 40.69 42.24 41ZM43.74 38H37V37H43.93C43.89 37.34 43.82 37.67 43.74 38Z" fill="#8F8F8F"/>
</svg>
