<svg width="73" height="72" viewBox="0 0 73 72" fill="none" xmlns="http://www.w3.org/2000/svg">
<rect x="0.5" y="0.5" width="72" height="71" rx="4.5" stroke="#7B61FF" stroke-dasharray="10 5"/>
<path d="M42.2642 36.94L39.0242 35.32C40.3142 34.32 41.1442 32.76 41.1442 31C41.1442 27.97 38.6742 25.5 35.6442 25.5C32.6142 25.5 30.1442 27.97 30.1442 31C30.1442 33.13 31.3642 34.98 33.1442 35.89V39.15C30.9942 38.69 31.1242 38.71 30.8842 38.71C30.3542 38.71 29.8542 38.92 29.4742 39.3L28.0742 40.72L33.1642 45.81C33.5942 46.25 34.1942 46.5 34.8142 46.5H41.1142C42.0942 46.5 42.9242 45.8 43.0842 44.83L43.8842 40.12C44.1042 38.82 43.4542 37.54 42.2642 36.94ZM41.9142 39.79L41.1142 44.5H34.8142C34.7242 44.5 34.6442 44.46 34.5742 44.4L30.8942 40.72L35.1442 41.61V31C35.1442 30.72 35.3642 30.5 35.6442 30.5C35.9242 30.5 36.1442 30.72 36.1442 31V37H37.9042L41.3642 38.73C41.7642 38.93 41.9842 39.36 41.9142 39.79ZM32.1442 31C32.1442 29.07 33.7142 27.5 35.6442 27.5C37.5742 27.5 39.1442 29.07 39.1442 31C39.1442 31.95 38.7642 32.81 38.1442 33.44V31C38.1442 29.62 37.0242 28.5 35.6442 28.5C34.2642 28.5 33.1442 29.62 33.1442 31V33.44C32.5242 32.81 32.1442 31.95 32.1442 31Z" fill="#8F8F8F"/>
</svg>
