<svg width="72" height="72" viewBox="0 0 72 72" fill="none" xmlns="http://www.w3.org/2000/svg">
<rect x="0.5" y="0.5" width="71" height="71" rx="4.5" stroke="#7B61FF" stroke-dasharray="10 5"/>
<path d="M43.07 28.93L41.66 30.34C43.1 31.79 44 33.79 44 36C44 40.42 40.42 44 36 44C31.58 44 28 40.42 28 36C28 31.92 31.05 28.56 35 28.07V30.09C32.16 30.57 30 33.03 30 36C30 39.31 32.69 42 36 42C39.31 42 42 39.31 42 36C42 34.34 41.33 32.84 40.24 31.76L38.83 33.17C39.55 33.9 40 34.9 40 36C40 38.21 38.21 40 36 40C33.79 40 32 38.21 32 36C32 34.14 33.28 32.59 35 32.14V34.28C34.4 34.63 34 35.26 34 36C34 37.1 34.9 38 36 38C37.1 38 38 37.1 38 36C38 35.26 37.6 34.62 37 34.28V26H36C30.48 26 26 30.48 26 36C26 41.52 30.48 46 36 46C41.52 46 46 41.52 46 36C46 33.24 44.88 30.74 43.07 28.93Z" fill="#8F8F8F"/>
</svg>
