<svg width="70" height="72" viewBox="0 0 70 72" fill="none" xmlns="http://www.w3.org/2000/svg">
<rect x="0.5" y="0.5" width="69" height="71" rx="4.5" stroke="#7B61FF" stroke-dasharray="10 5"/>
<path d="M36.87 39.07L34.33 36.56L34.36 36.53C36.1 34.59 37.34 32.36 38.07 30H41V28H34V26H32V28H25V29.99H36.17C35.5 31.92 34.44 33.75 33 35.35C32.07 34.32 31.3 33.19 30.69 32H28.69C29.42 33.63 30.42 35.17 31.67 36.56L26.58 41.58L28 43L33 38L36.11 41.11L36.87 39.07ZM42.5 34H40.5L36 46H38L39.12 43H43.87L45 46H47L42.5 34ZM39.88 41L41.5 36.67L43.12 41H39.88Z" fill="#8F8F8F"/>
</svg>
