<svg width="72" height="72" viewBox="0 0 72 72" fill="none" xmlns="http://www.w3.org/2000/svg">
<rect x="0.5" y="0.5" width="71" height="71" rx="4.5" stroke="#7B61FF" stroke-dasharray="10 5"/>
<path d="M37 42.5H35V45.5H37V42.5Z" fill="#8F8F8F"/>
<path d="M29 34.5H26V36.5H29V34.5Z" fill="#8F8F8F"/>
<path d="M46 34.5H43V36.5H46V34.5Z" fill="#8F8F8F"/>
<path d="M41.3012 39.8943L39.8941 41.3014L42.0154 43.4227L43.4225 42.0156L41.3012 39.8943Z" fill="#8F8F8F"/>
<path d="M30.7055 39.8872L28.5842 42.0085L29.9913 43.4156L32.1126 41.2943L30.7055 39.8872Z" fill="#8F8F8F"/>
<path d="M39 31.52V26.5H33V31.52C31.79 32.44 31 33.87 31 35.5C31 38.26 33.24 40.5 36 40.5C38.76 40.5 41 38.26 41 35.5C41 33.87 40.21 32.44 39 31.52ZM35 28.5H37V30.6C36.68 30.54 36.34 30.5 36 30.5C35.66 30.5 35.32 30.54 35 30.6V28.5ZM36 38.5C34.35 38.5 33 37.15 33 35.5C33 33.85 34.35 32.5 36 32.5C37.65 32.5 39 33.85 39 35.5C39 37.15 37.65 38.5 36 38.5Z" fill="#8F8F8F"/>
</svg>
