<svg width="75" height="72" viewBox="0 0 75 72" fill="none" xmlns="http://www.w3.org/2000/svg">
<rect x="0.5" y="0.5" width="74" height="71" rx="4.5" stroke="#7B61FF" stroke-dasharray="10 5"/>
<path d="M44.54 29.23L43.15 27.55C42.88 27.21 42.47 27 42 27H30C29.53 27 29.12 27.21 28.84 27.55L27.46 29.23C27.17 29.57 27 30.02 27 30.5V43C27 44.1 27.9 45 29 45H43C44.1 45 45 44.1 45 43V30.5C45 30.02 44.83 29.57 44.54 29.23ZM30.24 29H41.76L42.59 30H29.42L30.24 29ZM29 43V32H43V43H29ZM32 38H34.55V41H37.45V38H40L36 34L32 38Z" fill="#8F8F8F"/>
</svg>
