<svg width="72" height="72" viewBox="0 0 72 72" fill="none" xmlns="http://www.w3.org/2000/svg">
<rect x="0.5" y="0.5" width="71" height="71" rx="4.5" stroke="#7B61FF" stroke-dasharray="10 5"/>
<path d="M32.2453 28.8151L30.7953 27.3551C32.3753 26.3051 34.2653 25.6951 36.3053 25.6951C41.8253 25.6951 46.3053 30.1751 46.3053 35.6951C46.3053 37.7351 45.6953 39.6251 44.6453 41.2051L43.1853 39.7451C43.8953 38.5551 44.3053 37.1751 44.3053 35.6951C44.3053 31.2851 40.7153 27.6951 36.3053 27.6951C34.8253 27.6951 33.4453 28.1051 32.2453 28.8151ZM41.9653 33.2251L40.5553 31.8151L37.9053 34.4651L39.3153 35.8751L41.9653 33.2251ZM44.0853 46.3051L41.8153 44.0351C40.2353 45.0851 38.3453 45.6951 36.3053 45.6951C30.7853 45.6951 26.3053 41.2151 26.3053 35.6951C26.3053 33.6551 26.9153 31.7651 27.9653 30.1851L25.6953 27.9151L27.1053 26.5051L45.4853 44.8851L44.0853 46.3051ZM40.3653 42.5751L36.4853 38.6951L34.8953 40.2851L30.6553 36.0451L32.0653 34.6351L34.8953 37.4651L35.0753 37.2851L29.4253 31.6351C28.7153 32.8351 28.3053 34.2151 28.3053 35.6951C28.3053 40.1051 31.8953 43.6951 36.3053 43.6951C37.7853 43.6951 39.1653 43.2851 40.3653 42.5751Z" fill="#8F8F8F"/>
</svg>
