<svg width="72" height="72" viewBox="0 0 72 72" fill="none" xmlns="http://www.w3.org/2000/svg">
<rect x="0.5" y="0.5" width="71" height="71" rx="4.5" stroke="#7B61FF" stroke-dasharray="10 5"/>
<path d="M44.488 38.5383V29.4983C44.488 28.3983 43.588 27.4983 42.488 27.4983H28.498C27.398 27.4983 26.498 28.3983 26.498 29.4983V39.4983C26.498 40.5983 27.398 41.4983 28.498 41.4983H38.548C38.828 43.4183 40.648 44.8483 42.728 44.4283C44.068 44.1583 45.158 43.0583 45.428 41.7183C45.678 40.4783 45.268 39.3283 44.488 38.5383ZM42.488 29.4983L35.498 32.9983L28.498 29.4983H42.488ZM38.848 39.4983H28.498V31.4983L35.498 34.9983L42.498 31.4983V37.5483C42.338 37.5283 42.168 37.4983 41.998 37.4983C40.608 37.4983 39.408 38.3183 38.848 39.4983ZM43.998 41.4983H39.998V40.4983H43.998V41.4983Z" fill="#8F8F8F"/>
</svg>
