<svg width="77" height="72" viewBox="0 0 77 72" fill="none" xmlns="http://www.w3.org/2000/svg">
<rect x="0.5" y="0.5" width="76" height="71" rx="4.5" stroke="#7B61FF" stroke-dasharray="10 5"/>
<path d="M45.6555 36.2901C45.5055 37.6701 45.0355 38.9601 44.3255 40.0801L42.8555 38.6101C43.2355 37.9001 43.5055 37.1201 43.6255 36.2901H45.6555ZM33.3855 29.1301C34.3755 28.6001 35.5155 28.2901 36.7155 28.2901C39.0855 28.2901 41.1855 29.4801 42.4555 31.2901H39.7155V33.2901H45.7155V27.2901H43.7155V29.6501C42.0655 27.6101 39.5455 26.2901 36.7155 26.2901C34.9555 26.2901 33.3155 26.8001 31.9355 27.6801L33.3855 29.1301ZM35.7155 30.2901V31.4601L37.7155 33.4601V30.2901H35.7155ZM44.4955 45.9001L41.4955 42.9001C40.1055 43.7701 38.4755 44.2901 36.7155 44.2901C31.7455 44.2901 27.7155 40.2601 27.7155 35.2901C27.7155 33.5301 28.2255 31.8901 29.1055 30.5101L26.1055 27.5101L27.5155 26.1001L45.8955 44.4801L44.4955 45.9001ZM40.0355 41.4401L30.5555 31.9601C30.0255 32.9501 29.7155 34.0901 29.7155 35.2901C29.7155 39.1501 32.8555 42.2901 36.7155 42.2901C37.9155 42.2901 39.0555 41.9801 40.0355 41.4401Z" fill="#8F8F8F"/>
</svg>
