<svg width="70" height="72" viewBox="0 0 70 72" fill="none" xmlns="http://www.w3.org/2000/svg">
<rect x="0.5" y="0.5" width="69" height="71" rx="4.5" stroke="#7B61FF" stroke-dasharray="10 5"/>
<path d="M35 32V37L39.25 39.52L40.02 38.24L36.5 36.15V32H35ZM45 34V27L42.36 29.64C40.74 28.01 38.49 27 36 27C31.03 27 27 31.03 27 36C27 40.97 31.03 45 36 45C40.97 45 45 40.97 45 36H43C43 39.86 39.86 43 36 43C32.14 43 29 39.86 29 36C29 32.14 32.14 29 36 29C37.93 29 39.68 29.79 40.95 31.05L38 34H45Z" fill="#8F8F8F"/>
</svg>
