<svg width="73" height="72" viewBox="0 0 73 72" fill="none" xmlns="http://www.w3.org/2000/svg">
<rect x="0.5" y="0.5" width="72" height="71" rx="4.5" stroke="#7B61FF" stroke-dasharray="10 5"/>
<path d="M39.1004 31.4V35.4H40.1004V37.4H37.1004V29.4H39.1004L36.1004 25.4L33.1004 29.4H35.1004V37.4H32.1004V35.33C32.8004 34.96 33.3004 34.25 33.3004 33.4C33.3004 32.19 32.3104 31.2 31.1004 31.2C29.8904 31.2 28.9004 32.19 28.9004 33.4C28.9004 34.25 29.4004 34.96 30.1004 35.33V37.4C30.1004 38.51 30.9904 39.4 32.1004 39.4H35.1004V42.45C34.3904 42.82 33.9004 43.55 33.9004 44.4C33.9004 45.62 34.8904 46.6 36.1004 46.6C37.3104 46.6 38.3004 45.62 38.3004 44.4C38.3004 43.55 37.8104 42.82 37.1004 42.45V39.4H40.1004C41.2104 39.4 42.1004 38.51 42.1004 37.4V35.4H43.1004V31.4H39.1004Z" fill="#8F8F8F"/>
</svg>
