<svg width="73" height="72" viewBox="0 0 73 72" fill="none" xmlns="http://www.w3.org/2000/svg">
<rect x="0.5" y="0.5" width="72" height="71" rx="4.5" stroke="#7B61FF" stroke-dasharray="10 5"/>
<path d="M39.7155 31.7H43.7155V35.7H42.7155V37.7C42.7155 38.04 42.6355 38.36 42.4855 38.64L40.7155 36.87V35.7H39.7155V31.7ZM35.7155 31.87L37.7155 33.87V29.7H39.7155L36.7155 25.7L33.7155 29.7H35.7155V31.87ZM37.7155 39.7V41.98C38.3155 42.32 38.7155 42.96 38.7155 43.7C38.7155 44.8 37.8155 45.7 36.7155 45.7C35.6155 45.7 34.7155 44.8 34.7155 43.7C34.7155 42.96 35.1155 42.33 35.7155 41.98V39.7H32.7155C31.6055 39.7 30.7155 38.81 30.7155 37.7V35.42C30.1155 35.08 29.7155 34.44 29.7155 33.7C29.7155 33.11 29.9755 32.57 30.3955 32.21L26.1055 27.92L27.5155 26.51L45.8955 44.89L44.4855 46.3L37.8855 39.7H37.7155ZM35.7155 37.7V37.53L33.2055 35.02C33.0655 35.18 32.8955 35.31 32.7155 35.42V37.7H35.7155Z" fill="#8F8F8F"/>
</svg>
