<svg width="72" height="72" viewBox="0 0 72 72" fill="none" xmlns="http://www.w3.org/2000/svg">
<rect x="0.5" y="0.5" width="71" height="71" rx="4.5" stroke="#7B61FF" stroke-dasharray="10 5"/>
<path d="M47 35.99L44.56 33.2L44.9 29.51L41.29 28.69L39.4 25.5L36 26.96L32.6 25.5L30.71 28.69L27.1 29.5L27.44 33.2L25 35.99L27.44 38.78L27.1 42.48L30.71 43.3L32.6 46.5L36 45.03L39.4 46.49L41.29 43.3L44.9 42.48L44.56 38.79L47 35.99ZM43.05 37.47L42.49 38.12L42.57 38.97L42.75 40.92L40.01 41.54L39.57 42.28L38.58 43.96L36.8 43.19L36 42.85L35.21 43.19L33.43 43.96L32.44 42.29L32 41.55L29.26 40.93L29.44 38.97L29.52 38.12L28.96 37.47L27.67 36L28.96 34.52L29.52 33.87L29.43 33.01L29.25 31.07L31.99 30.45L32.43 29.71L33.42 28.03L35.2 28.8L36 29.14L36.79 28.8L38.57 28.03L39.56 29.71L40 30.45L42.74 31.07L42.56 33.02L42.48 33.87L43.04 34.52L44.33 35.99L43.05 37.47Z" fill="#8F8F8F"/>
<path d="M34.09 37.75L31.77 35.42L30.29 36.91L34.09 40.72L41.43 33.36L39.95 31.87L34.09 37.75Z" fill="#8F8F8F"/>
</svg>
