<svg width="72" height="72" viewBox="0 0 72 72" fill="none" xmlns="http://www.w3.org/2000/svg">
<rect x="0.5" y="0.5" width="71" height="71" rx="4.5" stroke="#7B61FF" stroke-dasharray="10 5"/>
<path d="M42 34.48V30C42 28.9 41.1 28 40 28H28C26.9 28 26 28.9 26 30V42C26 43.1 26.9 44 28 44H40C41.1 44 42 43.1 42 42V37.52L46 41.5V30.5L42 34.48ZM40 42H28V30H40V42Z" fill="#8F8F8F"/>
<path d="M34 36C35.1046 36 36 35.1046 36 34C36 32.8954 35.1046 32 34 32C32.8954 32 32 32.8954 32 34C32 35.1046 32.8954 36 34 36Z" fill="#8F8F8F"/>
<path d="M38 39.43C38 38.62 37.52 37.9 36.78 37.58C35.93 37.21 34.99 37 34 37C33.01 37 32.07 37.21 31.22 37.58C30.48 37.9 30 38.62 30 39.43V40H38V39.43Z" fill="#8F8F8F"/>
</svg>
