<svg width="76" height="72" viewBox="0 0 76 72" fill="none" xmlns="http://www.w3.org/2000/svg">
<rect x="0.5" y="0.5" width="75" height="71" rx="4.5" stroke="#7B61FF" stroke-dasharray="10 5"/>
<path d="M33.9897 32.57L31.9897 30.57L27.8397 26.43L26.4297 27.84L29.1597 30.57H28.4297C27.8797 30.57 27.4297 31.02 27.4297 31.57V41.57C27.4297 42.12 27.8797 42.57 28.4297 42.57H40.4297C40.6397 42.57 40.8197 42.49 40.9797 42.39L44.1597 45.57L45.5697 44.16L36.7097 35.3L33.9897 32.57ZM29.4297 40.57V32.57H31.1597L39.1597 40.57H29.4297ZM39.4297 32.57V35.18L45.4297 41.18V31.07L41.4297 35.07V31.57C41.4297 31.02 40.9797 30.57 40.4297 30.57H34.8197L36.8197 32.57H39.4297Z" fill="#8F8F8F"/>
</svg>
