<svg width="72" height="72" viewBox="0 0 72 72" fill="none" xmlns="http://www.w3.org/2000/svg">
<g clip-path="url(#clip0_256_17183)">
<path d="M26.5586 28.505H44.5586V33.505H46.5586V28.505C46.5586 27.405 45.6586 26.505 44.5586 26.505H26.5586C25.4586 26.505 24.5586 27.405 24.5586 28.505V40.505C24.5586 41.605 25.4586 42.505 26.5586 42.505H35.5586V40.505H26.5586V28.505Z" fill="#8F8F8F"/>
<path d="M38.5586 34.505L32.5586 30.505V38.505L38.5586 34.505Z" fill="#8F8F8F"/>
<path d="M46.2686 40.935C46.2986 40.645 46.3086 40.355 46.2786 40.075L47.3486 39.225C47.4486 39.145 47.4686 39.015 47.4086 38.905L46.3786 37.115C46.3186 37.005 46.1886 36.965 46.0686 37.005L44.7886 37.505C44.5586 37.335 44.3086 37.195 44.0386 37.085L43.8386 35.725C43.8186 35.595 43.7186 35.505 43.5886 35.505H41.5186C41.3986 35.505 41.2886 35.595 41.2686 35.715L41.0686 37.075C40.8086 37.185 40.5586 37.335 40.3286 37.495L39.0486 36.995C38.9286 36.945 38.7986 36.995 38.7386 37.105L37.7086 38.895C37.6486 39.005 37.6686 39.135 37.7686 39.215L38.8386 40.075C38.8086 40.365 38.7986 40.655 38.8286 40.935L37.7586 41.785C37.6586 41.865 37.6386 41.995 37.6986 42.105L38.7286 43.895C38.7886 44.005 38.9186 44.045 39.0386 44.005L40.3086 43.505C40.5386 43.675 40.7886 43.815 41.0586 43.925L41.2586 45.285C41.2786 45.405 41.3786 45.495 41.5086 45.495H43.5786C43.6986 45.495 43.8086 45.405 43.8286 45.285L44.0286 43.925C44.2886 43.815 44.5386 43.665 44.7686 43.505L46.0486 44.005C46.1686 44.055 46.2986 44.005 46.3586 43.895L47.3886 42.105C47.4486 41.995 47.4286 41.865 47.3286 41.785L46.2686 40.935ZM42.5586 42.005C41.7286 42.005 41.0586 41.335 41.0586 40.505C41.0586 39.675 41.7286 39.005 42.5586 39.005C43.3886 39.005 44.0586 39.675 44.0586 40.505C44.0586 41.335 43.3886 42.005 42.5586 42.005Z" fill="#8F8F8F"/>
</g>
<rect x="0.5" y="0.5" width="71" height="71" rx="4.5" stroke="#7B61FF" stroke-dasharray="10 5"/>
<defs>
<clipPath id="clip0_256_17183">
<rect width="72" height="72" rx="5" fill="white"/>
</clipPath>
</defs>
</svg>
