<svg width="72" height="72" viewBox="0 0 72 72" fill="none" xmlns="http://www.w3.org/2000/svg">
<rect x="0.5" y="0.5" width="71" height="71" rx="4.5" stroke="#7B61FF" stroke-dasharray="10 5"/>
<path d="M27 28C27 27.45 27.45 27 28 27H30V25H28C26.34 25 25 26.34 25 28V30H27V28Z" fill="#8F8F8F"/>
<path d="M27 44V42H25V44C25 45.66 26.34 47 28 47H30V45H28C27.45 45 27 44.55 27 44Z" fill="#8F8F8F"/>
<path d="M44 25H42V27H44C44.55 27 45 27.45 45 28V30H47V28C47 26.34 45.66 25 44 25Z" fill="#8F8F8F"/>
<path d="M45 44C45 44.55 44.55 45 44 45H42V47H44C45.66 47 47 45.66 47 44V42H45V44Z" fill="#8F8F8F"/>
<path d="M43 38.87V33.13C43 32.41 42.62 31.75 42 31.4L37 28.52C36.69 28.34 36.35 28.25 36 28.25C35.65 28.25 35.31 28.34 35 28.52L30 31.39C29.38 31.75 29 32.41 29 33.13V38.87C29 39.59 29.38 40.25 30 40.6L35 43.48C35.31 43.66 35.65 43.75 36 43.75C36.35 43.75 36.69 43.66 37 43.48L42 40.6C42.62 40.25 43 39.59 43 38.87ZM35 41.17L31 38.87V34.24L35 36.57V41.17ZM36 34.84L32.04 32.53L36 30.25L39.96 32.53L36 34.84ZM41 38.87L37 41.17V36.57L41 34.24V38.87Z" fill="#8F8F8F"/>
</svg>
