<svg width="72" height="72" viewBox="0 0 72 72" fill="none" xmlns="http://www.w3.org/2000/svg">
<rect x="0.5" y="0.5" width="71" height="71" rx="4.5" stroke="#7B61FF" stroke-dasharray="10 5"/>
<path d="M35.25 31.25H31.25V35.25H35.25V31.25Z" fill="#8F8F8F"/>
<path d="M40.75 31.25H36.75V35.25H40.75V31.25Z" fill="#8F8F8F"/>
<path d="M35.25 36.75H31.25V40.75H35.25V36.75Z" fill="#8F8F8F"/>
<path d="M40.75 36.75H36.75V40.75H40.75V36.75Z" fill="#8F8F8F"/>
<path d="M44 28H28C26.9 28 26 28.9 26 30V42C26 43.1 26.9 44 28 44H44C45.1 44 46 43.1 46 42V30C46 28.9 45.1 28 44 28ZM44 42H28V30H44V42Z" fill="#8F8F8F"/>
</svg>
