<svg width="72" height="72" viewBox="0 0 72 72" fill="none" xmlns="http://www.w3.org/2000/svg">
<rect x="0.5" y="0.5" width="71" height="71" rx="4.5" stroke="#7B61FF" stroke-dasharray="10 5"/>
<path d="M26.5 29V43H45.5V29H26.5ZM43.5 33H41.25V31H43.5V33ZM32.75 35H35V37H32.75V35ZM30.75 37H28.5V35H30.75V37ZM35 33H32.75V31H35V33ZM37 31H39.25V33H37V31ZM35 39V41H32.75V39H35ZM37 39H39.25V41H37V39ZM37 37V35H39.25V37H37ZM41.25 35H43.5V37H41.25V35ZM30.75 31V33H28.5V31H30.75ZM28.5 39H30.75V41H28.5V39ZM41.25 41V39H43.5V41H41.25Z" fill="#8F8F8F"/>
</svg>
