<svg width="72" height="72" viewBox="0 0 72 72" fill="none" xmlns="http://www.w3.org/2000/svg">
<rect x="0.5" y="0.5" width="71" height="71" rx="4.5" stroke="#7B61FF" stroke-dasharray="10 5"/>
<path d="M43 37H29C27.9 37 27 37.9 27 39V43C27 44.1 27.9 45 29 45H43C44.1 45 45 44.1 45 43V39C45 37.9 44.1 37 43 37ZM43 43H29V39H43V43Z" fill="#8F8F8F"/>
<path d="M43 27H29C27.9 27 27 27.9 27 29V33C27 34.1 27.9 35 29 35H43C44.1 35 45 34.1 45 33V29C45 27.9 44.1 27 43 27ZM43 33H29V29H43V33Z" fill="#8F8F8F"/>
</svg>
