<svg width="72" height="72" viewBox="0 0 72 72" fill="none" xmlns="http://www.w3.org/2000/svg">
<rect x="0.5" y="0.5" width="71" height="71" rx="4.5" stroke="#7B61FF" stroke-dasharray="10 5"/>
<path d="M45 29V43H27V29H45ZM45 27H27C25.9 27 25 27.9 25 29V43C25 44.1 25.9 45 27 45H45C46.1 45 47 44.1 47 43V29C47 27.9 46.1 27 45 27ZM36 32C39.25 32 42 33.83 42 36C42 38.17 39.25 40 36 40C32.75 40 30 38.17 30 36C30 33.83 32.75 32 36 32ZM36 30C31.58 30 28 32.69 28 36C28 39.31 31.58 42 36 42C40.42 42 44 39.31 44 36C44 32.69 40.42 30 36 30Z" fill="#8F8F8F"/>
</svg>
