<svg width="70" height="72" viewBox="0 0 70 72" fill="none" xmlns="http://www.w3.org/2000/svg">
<rect x="0.5" y="0.5" width="69" height="71" rx="4.5" stroke="#7B61FF" stroke-dasharray="10 5"/>
<path d="M36 30.5C39.79 30.5 43.17 32.63 44.82 36C43.17 39.37 39.79 41.5 36 41.5C32.21 41.5 28.83 39.37 27.18 36C28.83 32.63 32.21 30.5 36 30.5ZM36 28.5C31 28.5 26.73 31.61 25 36C26.73 40.39 31 43.5 36 43.5C41 43.5 45.27 40.39 47 36C45.27 31.61 41 28.5 36 28.5ZM36 33.5C37.38 33.5 38.5 34.62 38.5 36C38.5 37.38 37.38 38.5 36 38.5C34.62 38.5 33.5 37.38 33.5 36C33.5 34.62 34.62 33.5 36 33.5ZM36 31.5C33.52 31.5 31.5 33.52 31.5 36C31.5 38.48 33.52 40.5 36 40.5C38.48 40.5 40.5 38.48 40.5 36C40.5 33.52 38.48 31.5 36 31.5Z" fill="#8F8F8F"/>
</svg>
