<svg width="77" height="72" viewBox="0 0 77 72" fill="none" xmlns="http://www.w3.org/2000/svg">
<rect x="0.5" y="0.5" width="76" height="71" rx="4.5" stroke="#7B61FF" stroke-dasharray="10 5"/>
<path d="M36 29.975C39.79 29.975 43.17 32.105 44.82 35.475C44.23 36.695 43.4 37.745 42.41 38.595L43.82 40.005C45.21 38.775 46.31 37.235 47 35.475C45.27 31.085 41 27.975 36 27.975C34.73 27.975 33.51 28.175 32.36 28.545L34.01 30.195C34.66 30.065 35.32 29.975 36 29.975ZM34.93 31.115L37 33.185C37.57 33.435 38.03 33.895 38.28 34.465L40.35 36.535C40.43 36.195 40.49 35.835 40.49 35.465C40.5 32.985 38.48 30.975 36 30.975C35.63 30.975 35.28 31.025 34.93 31.115ZM26.01 27.845L28.69 30.525C27.06 31.805 25.77 33.505 25 35.475C26.73 39.865 31 42.975 36 42.975C37.52 42.975 38.98 42.685 40.32 42.155L43.74 45.575L45.15 44.165L27.42 26.425L26.01 27.845ZM33.51 35.345L36.12 37.955C36.08 37.965 36.04 37.975 36 37.975C34.62 37.975 33.5 36.855 33.5 35.475C33.5 35.425 33.51 35.395 33.51 35.345ZM30.11 31.945L31.86 33.695C31.63 34.245 31.5 34.845 31.5 35.475C31.5 37.955 33.52 39.975 36 39.975C36.63 39.975 37.23 39.845 37.77 39.615L38.75 40.595C37.87 40.835 36.95 40.975 36 40.975C32.21 40.975 28.83 38.845 27.18 35.475C27.88 34.045 28.9 32.865 30.11 31.945Z" fill="#8F8F8F"/>
</svg>
