<svg width="75" height="72" viewBox="0 0 75 72" fill="none" xmlns="http://www.w3.org/2000/svg">
<rect x="0.5" y="0.5" width="74" height="71" rx="4.5" stroke="#7B61FF" stroke-dasharray="10 5"/>
<path d="M42.5 30.5C39.46 30.5 37 32.96 37 36C37 37.33 37.47 38.55 38.26 39.5H33.74C34.53 38.55 35 37.33 35 36C35 32.96 32.54 30.5 29.5 30.5C26.46 30.5 24 32.96 24 36C24 39.04 26.46 41.5 29.5 41.5H42.5C45.54 41.5 48 39.04 48 36C48 32.96 45.54 30.5 42.5 30.5ZM29.5 39.5C27.57 39.5 26 37.93 26 36C26 34.07 27.57 32.5 29.5 32.5C31.43 32.5 33 34.07 33 36C33 37.93 31.43 39.5 29.5 39.5ZM42.5 39.5C40.57 39.5 39 37.93 39 36C39 34.07 40.57 32.5 42.5 32.5C44.43 32.5 46 34.07 46 36C46 37.93 44.43 39.5 42.5 39.5Z" fill="#8F8F8F"/>
</svg>
