<svg width="70" height="72" viewBox="0 0 70 72" fill="none" xmlns="http://www.w3.org/2000/svg">
<rect x="0.5" y="0.5" width="69" height="71" rx="4.5" stroke="#7B61FF" stroke-dasharray="10 5"/>
<path d="M40.762 29.86L39.082 31.55C39.882 32.68 39.912 34.13 39.172 35.29L40.872 36.99C42.772 34.97 42.742 32.01 40.762 29.86ZM44.072 26.5L42.442 28.13C45.162 31.1 45.202 35.52 42.582 38.69L44.222 40.33C47.962 36.44 47.932 30.49 44.072 26.5ZM33.432 29.54L36.962 33.07C36.762 31.21 35.292 29.74 33.432 29.54ZM28.412 27.36L27.002 28.77L29.622 31.39C29.232 32 29.002 32.72 29.002 33.5C29.002 35.71 30.792 37.5 33.002 37.5C33.782 37.5 34.502 37.27 35.112 36.88L39.512 41.28C37.742 40.1 34.782 39.5 33.002 39.5C30.332 39.5 25.002 40.84 25.002 43.5V45.5H41.002V43.5C41.002 43.13 40.892 42.8 40.712 42.48L43.732 45.5L45.142 44.09L28.412 27.36ZM27.002 43.5C27.222 42.78 30.312 41.5 33.002 41.5C35.702 41.5 38.802 42.79 39.002 43.5H27.002ZM33.002 35.5C31.902 35.5 31.002 34.6 31.002 33.5C31.002 33.28 31.042 33.08 31.112 32.88L33.622 35.39C33.422 35.46 33.222 35.5 33.002 35.5Z" fill="#8F8F8F"/>
</svg>
