<svg width="72" height="72" viewBox="0 0 72 72" fill="none" xmlns="http://www.w3.org/2000/svg">
<rect x="0.5" y="0.5" width="71" height="71" rx="4.5" stroke="#7B61FF" stroke-dasharray="10 5"/>
<path d="M27 33V39H31L36 44V28L31 33H27ZM34 32.83V39.17L31.83 37H29V35H31.83L34 32.83ZM40.5 36C40.5 34.23 39.48 32.71 38 31.97V40.02C39.48 39.29 40.5 37.77 40.5 36ZM38 27.23V29.29C40.89 30.15 43 32.83 43 36C43 39.17 40.89 41.85 38 42.71V44.77C42.01 43.86 45 40.28 45 36C45 31.72 42.01 28.14 38 27.23Z" fill="#8F8F8F"/>
</svg>
