<svg width="75" height="72" viewBox="0 0 75 72" fill="none" xmlns="http://www.w3.org/2000/svg">
<rect x="0.5" y="0.5" width="74" height="71" rx="4.5" stroke="#7B61FF" stroke-dasharray="10 5"/>
<path d="M28.3397 26.935L26.9297 28.345L31.2897 32.705L30.9997 33.005H26.9997V39.005H30.9997L35.9997 44.005V37.415L40.1797 41.595C39.5297 42.085 38.7997 42.475 37.9997 42.705V44.765C39.3397 44.465 40.5697 43.845 41.6097 43.015L43.6597 45.065L45.0697 43.655L28.3397 26.935ZM33.9997 39.175L31.8297 37.005H28.9997V35.005H31.8297L32.7097 34.125L33.9997 35.415V39.175ZM42.9997 36.005C42.9997 36.825 42.8497 37.615 42.5897 38.345L44.1197 39.875C44.6797 38.705 44.9997 37.395 44.9997 36.005C44.9997 31.725 42.0097 28.145 37.9997 27.235V29.295C40.8897 30.155 42.9997 32.835 42.9997 36.005ZM35.9997 28.005L34.1197 29.885L35.9997 31.765V28.005ZM40.4997 36.005C40.4997 34.235 39.4797 32.715 37.9997 31.975V33.765L40.4797 36.245C40.4897 36.165 40.4997 36.085 40.4997 36.005Z" fill="#8F8F8F"/>
</svg>
