<svg width="72" height="72" viewBox="0 0 72 72" fill="none" xmlns="http://www.w3.org/2000/svg">
<rect x="0.5" y="0.5" width="71" height="71" rx="4.5" stroke="#7B61FF" stroke-dasharray="10 5"/>
<path d="M26.81 26.1001L25.39 27.5101L27.98 30.1001C26.2 31.1401 25 33.0801 25 35.2901C25 38.6001 27.69 41.2901 31 41.2901C33.22 41.2901 35.15 40.0801 36.19 38.2901L43.78 45.9001L45.19 44.4901L26.81 26.1001ZM31 39.2901C28.79 39.2901 27 37.5001 27 35.2901C27 33.6201 28.02 32.1901 29.47 31.5901L31.18 33.3001C31.12 33.2901 31.06 33.2901 31 33.2901C29.9 33.2901 29 34.1901 29 35.2901C29 36.3901 29.9 37.2901 31 37.2901C32.1 37.2901 33 36.3901 33 35.2901C33 35.2301 33 35.1701 32.99 35.1101L34.73 36.8501C34.22 37.7701 33.14 39.2901 31 39.2901ZM41 37.4601V36.2901H39.83L41 37.4601ZM37.83 34.2901H45V36.2901H43V39.2901L45 41.2901V38.2901H47V32.2901H35.83L37.83 34.2901Z" fill="#8F8F8F"/>
</svg>
