<svg width="74" height="72" viewBox="0 0 74 72" fill="none" xmlns="http://www.w3.org/2000/svg">
<rect x="0.5" y="0.5" width="73" height="71" rx="4.5" stroke="#7B61FF" stroke-dasharray="10 5"/>
<path d="M46 43H40V39H37.32C36.18 41.42 33.72 43 31 43C27.14 43 24 39.86 24 36C24 32.14 27.14 29 31 29C33.72 29 36.17 30.58 37.32 33H48V39H46V43ZM42 41H44V37H46V35H35.94L35.71 34.33C35.01 32.34 33.11 31 31 31C28.24 31 26 33.24 26 36C26 38.76 28.24 41 31 41C33.11 41 35.01 39.66 35.71 37.67L35.94 37H42V41ZM31 39C29.35 39 28 37.65 28 36C28 34.35 29.35 33 31 33C32.65 33 34 34.35 34 36C34 37.65 32.65 39 31 39ZM31 35C30.45 35 30 35.45 30 36C30 36.55 30.45 37 31 37C31.55 37 32 36.55 32 36C32 35.45 31.55 35 31 35Z" fill="#8F8F8F"/>
</svg>
