<svg width="72" height="72" viewBox="0 0 72 72" fill="none" xmlns="http://www.w3.org/2000/svg">
<rect x="0.5" y="0.5" width="71" height="71" rx="4.5" stroke="#7B61FF" stroke-dasharray="10 5"/>
<path d="M45.01 28C44.45 28 41.4 29.5 36 29.5C30.69 29.5 27.51 28.01 26.99 28.01C26.46 28.01 26 28.45 26 29.02V43C26 43.57 26.46 44 26.99 44C27.56 44 30.54 42.5 36 42.5C41.42 42.5 44.44 44 45.01 44C45.54 44 46 43.57 46 43V29C46 28.43 45.54 28 45.01 28ZM44 41.63C41.99 41.04 39.38 40.5 36 40.5C32.61 40.5 30.01 41.04 28 41.63V30.38C30.58 31.11 33.32 31.5 36 31.5C39.38 31.5 41.99 30.96 44 30.37V41.63Z" fill="#8F8F8F"/>
<path d="M33.17 34.99L29.48 39.41C31.48 39.15 33.66 39 36 39C38.3 39 40.52 39.15 42.51 39.4L38 34L35.17 37.39L33.17 34.99Z" fill="#8F8F8F"/>
</svg>
