<svg width="72" height="72" viewBox="0 0 72 72" fill="none" xmlns="http://www.w3.org/2000/svg">
<rect x="0.5" y="0.5" width="71" height="71" rx="4.5" stroke="#7B61FF" stroke-dasharray="10 5"/>
<path d="M28 28H35V26H28C26.9 26 26 26.9 26 28V35H28V28ZM34 37L30 42H42L39 38L36.97 40.71L34 37ZM41 32.5C41 31.67 40.33 31 39.5 31C38.67 31 38 31.67 38 32.5C38 33.33 38.67 34 39.5 34C40.33 34 41 33.33 41 32.5ZM44 26H37V28H44V35H46V28C46 26.9 45.1 26 44 26ZM44 44H37V46H44C45.1 46 46 45.1 46 44V37H44V44ZM28 37H26V44C26 45.1 26.9 46 28 46H35V44H28V37Z" fill="#8F8F8F"/>
</svg>
