<svg width="72" height="72" viewBox="0 0 72 72" fill="none" xmlns="http://www.w3.org/2000/svg">
<rect x="0.5" y="0.5" width="71" height="71" rx="4.5" stroke="#7B61FF" stroke-dasharray="10 5"/>
<path d="M29.35 36.5C30.54 36.5 30.77 37.5 32.68 37.5C34.63 37.5 34.77 36.5 36.01 36.5C37.2 36.5 37.43 37.5 39.34 37.5C41.29 37.5 41.43 36.5 42.67 36.5C43.86 36.5 44.07 37.48 45.98 37.5V35.5C44.79 35.5 44.56 34.5 42.65 34.5C40.7 34.5 40.56 35.5 39.32 35.5C38.13 35.5 37.9 34.5 35.99 34.5C34.04 34.5 33.9 35.5 32.66 35.5C31.47 35.5 31.24 34.5 29.33 34.5C27.38 34.5 27.24 35.5 26 35.5V37.5C27.9 37.5 28.17 36.5 29.35 36.5ZM42.67 38.5C40.72 38.5 40.58 39.5 39.34 39.5C38.15 39.5 37.92 38.5 36.01 38.5C34.06 38.5 33.91 39.5 32.67 39.5C31.43 39.5 31.29 38.5 29.34 38.5C27.39 38.5 27.24 39.5 26 39.5V41.5C27.95 41.5 28.11 40.5 29.34 40.5C30.58 40.5 30.72 41.5 32.67 41.5C34.62 41.5 34.77 40.5 36.01 40.5C37.2 40.5 37.43 41.5 39.34 41.5C41.28 41.5 41.43 40.5 42.67 40.5C43.86 40.5 44.09 41.5 46 41.5V39.5C44.76 39.5 44.62 38.5 42.67 38.5ZM29.35 32.5C30.54 32.5 30.77 33.5 32.68 33.5C34.63 33.5 34.77 32.5 36.01 32.5C37.2 32.5 37.43 33.5 39.34 33.5C41.29 33.5 41.43 32.5 42.67 32.5C43.86 32.5 44.07 33.48 45.98 33.5V31.5C44.79 31.5 44.56 30.5 42.65 30.5C40.7 30.5 40.56 31.5 39.32 31.5C38.13 31.5 37.9 30.5 35.99 30.5C34.04 30.5 33.9 31.5 32.66 31.5C31.47 31.5 31.24 30.5 29.33 30.5C27.38 30.5 27.24 31.5 26 31.5V33.5C27.9 33.5 28.17 32.5 29.35 32.5Z" fill="#8F8F8F"/>
</svg>
