<svg width="74" height="72" viewBox="0 0 74 72" fill="none" xmlns="http://www.w3.org/2000/svg">
<rect x="0.5" y="0.5" width="73" height="71" rx="4.5" stroke="#7B61FF" stroke-dasharray="10 5"/>
<path d="M41 40.99C39.65 40.99 38.8 41.41 38.05 41.79C37.4 42.12 36.87 42.39 36 42.39C35.1 42.39 34.6 42.14 33.95 41.79C33.2 41.41 32.38 40.99 31 40.99C29.62 40.99 28.8 41.41 28.05 41.79C27.4 42.12 26.88 42.39 26 42.39V44.34C27.35 44.34 28.2 43.92 28.95 43.54C29.6 43.21 30.12 42.94 31 42.94C31.88 42.94 32.4 43.19 33.05 43.54C33.8 43.92 34.62 44.34 36 44.34C37.38 44.34 38.2 43.92 38.95 43.54C39.6 43.21 40.13 42.94 41 42.94C41.9 42.94 42.4 43.19 43.05 43.54C43.8 43.92 44.63 44.34 46 44.34V42.39C45.1 42.39 44.6 42.14 43.95 41.79C43.2 41.41 42.35 40.99 41 40.99ZM41 36.54C39.65 36.54 38.8 36.97 38.05 37.34C37.4 37.66 36.87 37.94 36 37.94C35.1 37.94 34.6 37.69 33.95 37.34C33.2 36.96 32.38 36.54 31 36.54C29.62 36.54 28.8 36.97 28.05 37.34C27.4 37.66 26.88 37.94 26 37.94V39.89C27.35 39.89 28.2 39.46 28.95 39.09C29.6 38.74 30.1 38.49 31 38.49C31.9 38.49 32.4 38.74 33.05 39.09C33.8 39.47 34.62 39.89 36 39.89C37.38 39.89 38.2 39.46 38.95 39.09C39.6 38.74 40.1 38.49 41 38.49C41.9 38.49 42.4 38.74 43.05 39.09C43.8 39.47 44.63 39.89 46 39.89V37.94C45.1 37.94 44.6 37.69 43.95 37.34C43.2 36.96 42.35 36.54 41 36.54ZM43.95 28.46C43.2 28.08 42.37 27.66 41 27.66C39.63 27.66 38.8 28.08 38.05 28.46C37.4 28.78 36.87 29.06 36 29.06C35.1 29.06 34.6 28.81 33.95 28.46C33.2 28.09 32.38 27.66 31 27.66C29.62 27.66 28.8 28.08 28.05 28.46C27.4 28.79 26.88 29.06 26 29.06V30.99C27.35 30.99 28.2 30.56 28.95 30.19C29.6 29.86 30.12 29.59 31 29.59C31.88 29.59 32.4 29.84 33.05 30.19C33.8 30.57 34.62 30.99 36 30.99C37.38 30.99 38.2 30.56 38.95 30.19C39.6 29.87 40.13 29.59 41 29.59C41.9 29.59 42.4 29.84 43.05 30.19C43.8 30.57 44.63 30.99 46 30.99V29.04C45.1 29.04 44.6 28.79 43.95 28.46ZM41 32.09C39.65 32.09 38.8 32.52 38.05 32.89C37.4 33.24 36.9 33.49 36 33.49C35.1 33.49 34.6 33.24 33.95 32.89C33.2 32.51 32.38 32.09 31 32.09C29.62 32.09 28.8 32.52 28.05 32.89C27.4 33.24 26.9 33.49 26 33.49V35.44C27.35 35.44 28.2 35.01 28.95 34.64C29.6 34.32 30.13 34.04 31 34.04C31.87 34.04 32.4 34.29 33.05 34.64C33.8 35.02 34.62 35.44 36 35.44C37.38 35.44 38.2 35.01 38.95 34.64C39.6 34.32 40.13 34.04 41 34.04C41.9 34.04 42.4 34.29 43.05 34.64C43.8 35.02 44.63 35.44 46 35.44V33.49C45.1 33.49 44.6 33.24 43.95 32.89C43.2 32.51 42.35 32.09 41 32.09Z" fill="#8F8F8F"/>
</svg>
