<svg width="72" height="72" viewBox="0 0 72 72" fill="none" xmlns="http://www.w3.org/2000/svg">
<rect x="0.5" y="0.5" width="71" height="71" rx="4.5" stroke="#7B61FF" stroke-dasharray="10 5"/>
<path d="M31.0996 31L27.8996 40H29.7996L30.4996 38H33.6996L34.3996 40H36.2996L33.0996 31H31.0996ZM30.9496 36.65L32.0996 33L33.2496 36.65H30.9496ZM46.0996 31L44.8996 37.29L43.3996 31H41.7996L40.3096 37.29L39.0996 31H38.3396L38.3296 31.01C36.8596 29.18 34.6296 28 32.0996 28C27.6796 28 24.0996 31.58 24.0996 36C24.0996 40.42 27.6796 44 32.0996 44C35.0596 44 37.6496 42.39 39.0296 40C39.0596 39.94 39.0796 39.88 39.1096 39.82C39.1596 39.74 39.1996 39.65 39.2496 39.57L39.3496 40H41.0996L42.5996 33.9L44.0996 40H45.8496L47.8996 31H46.0996ZM37.4696 38.67C36.4796 40.64 34.4496 42 32.0996 42C28.7896 42 26.0996 39.31 26.0996 36C26.0996 32.69 28.7896 30 32.0996 30C35.4096 30 38.0996 32.69 38.0996 36C38.0996 36.96 37.8696 37.86 37.4696 38.67Z" fill="#8F8F8F"/>
</svg>
