<svg width="72" height="72" viewBox="0 0 72 72" fill="none" xmlns="http://www.w3.org/2000/svg">
<rect x="0.5" y="0.5" width="71" height="71" rx="4.5" stroke="#7B61FF" stroke-dasharray="10 5"/>
<path d="M27.55 42.565L28.96 43.975L30.75 42.175L29.34 40.765L27.55 42.565ZM35 43.475H37V46.475H35V43.475ZM25 34.475H28V36.475H25V34.475ZM37 27.525V31.485L38 32.065C39.24 32.785 40 34.105 40 35.525C40 37.735 38.21 39.525 36 39.525C33.79 39.525 32 37.735 32 35.525C32 34.105 32.77 32.785 34 32.065L35 31.485V27.525H37ZM39 25.525H33V30.335C31.21 31.375 30 33.305 30 35.525C30 38.835 32.69 41.525 36 41.525C39.31 41.525 42 38.835 42 35.525C42 33.305 40.79 31.375 39 30.335V25.525ZM44 34.475H47V36.475H44V34.475ZM41.24 42.185L43.03 43.985L44.44 42.575L42.64 40.785L41.24 42.185Z" fill="#8F8F8F"/>
</svg>
