<svg width="72" height="72" viewBox="0 0 72 72" fill="none" xmlns="http://www.w3.org/2000/svg">
<rect x="0.5" y="0.5" width="71" height="71" rx="4.5" stroke="#7B61FF" stroke-dasharray="10 5"/>
<path d="M28.9949 39H42.9949V33H28.9949V39ZM30.9949 35H40.9949V37H30.9949V35ZM34.9949 25H36.9949V28H34.9949V25ZM44.4549 29.01L43.0349 27.6L41.2449 29.39L42.6549 30.8L44.4549 29.01ZM34.9949 44H36.9949V47H34.9949V44ZM41.2349 42.71L43.0249 44.51L44.4449 43.09L42.6449 41.3L41.2349 42.71ZM28.9549 27.595L30.7429 29.385L29.3349 30.79L27.5479 29.003L28.9549 27.595ZM27.5449 43.08L28.9549 44.5L30.7449 42.7L29.3349 41.29L27.5449 43.08Z" fill="#8F8F8F"/>
</svg>
