<svg width="72" height="72" viewBox="0 0 72 72" fill="none" xmlns="http://www.w3.org/2000/svg">
<rect x="0.5" y="0.5" width="71" height="71" rx="4.5" stroke="#7B61FF" stroke-dasharray="10 5"/>
<path d="M30.76 29.34L28.96 27.55L27.55 28.96L29.34 30.75L30.76 29.34ZM25 35H28V37H25V35ZM35 25.05H37V28H35V25.05ZM43.04 27.545L44.448 28.952L42.658 30.742L41.251 29.334L43.04 27.545ZM41.24 42.66L43.03 44.46L44.44 43.05L42.64 41.26L41.24 42.66ZM44 35H47V37H44V35ZM36 30C32.69 30 30 32.69 30 36C30 39.31 32.69 42 36 42C39.31 42 42 39.31 42 36C42 32.69 39.31 30 36 30ZM36 40C33.79 40 32 38.21 32 36C32 33.79 33.79 32 36 32C38.21 32 40 33.79 40 36C40 38.21 38.21 40 36 40ZM35 44H37V46.9501H35V44ZM27.55 43.0401L28.96 44.4501L30.75 42.65L29.34 41.24L27.55 43.0401Z" fill="#8F8F8F"/>
</svg>
