<svg width="71" height="72" viewBox="0 0 71 72" fill="none" xmlns="http://www.w3.org/2000/svg">
<rect x="0.5" y="0.5" width="70" height="71" rx="4.5" stroke="#7B61FF" stroke-dasharray="10 5"/>
<path d="M31.4857 27.295H44.6557C45.7657 27.295 46.6557 28.195 46.6557 29.295V41.295C46.6557 41.635 46.5657 41.955 46.4257 42.235L44.6557 40.465V31.295H35.4857L31.4857 27.295ZM45.1457 46.605L41.8257 43.295H28.6557C27.5457 43.295 26.6557 42.395 26.6557 41.295V29.295C26.6557 28.955 26.7357 28.635 26.8857 28.355L25.3457 26.805L26.7557 25.395L46.5557 45.195L45.1457 46.605ZM39.8257 41.295L29.8257 31.295H28.6557V41.295H39.8257Z" fill="#8F8F8F"/>
</svg>
