<svg width="72" height="72" viewBox="0 0 72 72" fill="none" xmlns="http://www.w3.org/2000/svg">
<rect x="0.5" y="0.5" width="71" height="71" rx="4.5" stroke="#7B61FF" stroke-dasharray="10 5"/>
<path d="M34 39.5H39.88C40.15 39.19 40.55 39 41 39C41.83 39 42.5 39.67 42.5 40.5C42.5 41.33 41.83 42 41 42C40.56 42 40.16 41.81 39.88 41.5H35.9C35.44 43.78 33.42 45.5 31 45.5C28.24 45.5 26 43.26 26 40.5C26 38.08 27.72 36.06 30 35.6V37.67C28.84 38.08 28 39.2 28 40.5C28 42.15 29.35 43.5 31 43.5C32.65 43.5 34 42.15 34 40.5V39.5ZM36.5 28.5C38.15 28.5 39.5 29.85 39.5 31.5H41.5C41.5 28.74 39.26 26.5 36.5 26.5C33.74 26.5 31.5 28.74 31.5 31.5C31.5 32.93 32.1 34.21 33.05 35.12L30.7 39.02C30.02 39.16 29.5 39.77 29.5 40.5C29.5 41.33 30.17 42 31 42C31.83 42 32.5 41.33 32.5 40.5C32.5 40.34 32.48 40.19 32.43 40.05L35.81 34.42C34.49 34.11 33.5 32.92 33.5 31.5C33.5 29.85 34.85 28.5 36.5 28.5ZM41 37.5C40.36 37.5 39.77 37.7 39.28 38.04L36.23 32.97C35.53 32.85 35 32.24 35 31.5C35 30.67 35.67 30 36.5 30C37.33 30 38 30.67 38 31.5C38 31.65 37.98 31.79 37.94 31.93L40.13 35.58C40.41 35.53 40.7 35.5 41 35.5C43.76 35.5 46 37.74 46 40.5C46 43.26 43.76 45.5 41 45.5C39.15 45.5 37.53 44.49 36.67 43H39.34C39.82 43.32 40.39 43.5 41 43.5C42.65 43.5 44 42.15 44 40.5C44 38.85 42.65 37.5 41 37.5Z" fill="#8F8F8F"/>
</svg>
