<svg width="71" height="72" viewBox="0 0 71 72" fill="none" xmlns="http://www.w3.org/2000/svg">
<rect x="0.5" y="0.5" width="70" height="71" rx="4.5" stroke="#7B61FF" stroke-dasharray="10 5"/>
<path d="M45 33V31C45 29.35 43.65 28 42 28H30C28.35 28 27 29.35 27 31V33C25.35 33 24 34.35 24 36V41C24 42.65 25.35 44 27 44H45C46.65 44 48 42.65 48 41V36C48 34.35 46.65 33 45 33ZM29 31C29 30.45 29.45 30 30 30H42C42.55 30 43 30.45 43 31V33.78C42.39 34.33 42 35.12 42 36V38H30V36C30 35.12 29.61 34.33 29 33.78V31ZM46 41C46 41.55 45.55 42 45 42H27C26.45 42 26 41.55 26 41V36C26 35.45 26.45 35 27 35C27.55 35 28 35.45 28 36V40H44V36C44 35.45 44.45 35 45 35C45.55 35 46 35.45 46 36V41Z" fill="#8F8F8F"/>
</svg>
