<svg width="74" height="72" viewBox="0 0 74 72" fill="none" xmlns="http://www.w3.org/2000/svg">
<rect x="0.5" y="0.5" width="73" height="71" rx="4.5" stroke="#7B61FF" stroke-dasharray="10 5"/>
<path d="M36 24.755C31.59 24.755 28 28.345 28 32.755C28 38.325 34.96 46.095 35.26 46.425L36 47.245L36.74 46.425C37.04 46.095 44 38.325 44 32.755C44 28.345 40.41 24.755 36 24.755ZM36 44.225C33.82 41.615 30 36.295 30 32.755C30 29.445 32.69 26.755 36 26.755C39.31 26.755 42 29.445 42 32.755C42 36.585 37.75 42.115 36 44.225ZM34.47 34.925L32.71 33.155L31.29 34.575L34.47 37.755L40.48 31.745L39.07 30.325L34.47 34.925Z" fill="#8F8F8F"/>
</svg>
