<svg width="72" height="72" viewBox="0 0 72 72" fill="none" xmlns="http://www.w3.org/2000/svg">
<rect x="0.5" y="0.5" width="71" height="71" rx="4.5" stroke="#7B61FF" stroke-dasharray="10 5"/>
<path d="M39.9998 29.175L42.8298 32.005L39.9998 34.835L37.1698 32.005L39.9998 29.175ZM32.3398 29.655V33.655H28.3398V29.655H32.3398ZM42.3398 39.655V43.655H38.3398V39.655H42.3398ZM32.3398 39.655V43.655H28.3398V39.655H32.3398ZM39.9998 26.345L34.3398 31.995L39.9998 37.655L45.6598 31.995L39.9998 26.345ZM34.3398 27.655H26.3398V35.655H34.3398V27.655ZM44.3398 37.655H36.3398V45.655H44.3398V37.655ZM34.3398 37.655H26.3398V45.655H34.3398V37.655Z" fill="#8F8F8F"/>
</svg>
