<svg width="72" height="72" viewBox="0 0 72 72" fill="none" xmlns="http://www.w3.org/2000/svg">
<rect x="0.5" y="0.5" width="71" height="71" rx="4.5" stroke="#7B61FF" stroke-dasharray="10 5"/>
<path d="M36 34.675C34.9 34.675 34 35.575 34 36.675C34 37.775 34.9 38.675 36 38.675C37.1 38.675 38 37.775 38 36.675C38 35.575 37.1 34.675 36 34.675ZM42 36.675C42 33.365 39.31 30.675 36 30.675C32.69 30.675 30 33.365 30 36.675C30 38.895 31.21 40.825 33 41.865L34 40.125C32.81 39.425 32 38.155 32 36.675C32 34.465 33.79 32.675 36 32.675C38.21 32.675 40 34.465 40 36.675C40 38.155 39.19 39.425 38 40.125L39 41.865C40.79 40.825 42 38.895 42 36.675ZM36 26.675C30.48 26.675 26 31.155 26 36.675C26 40.375 28.01 43.595 30.99 45.325L31.99 43.595C29.61 42.205 28 39.635 28 36.675C28 32.255 31.58 28.675 36 28.675C40.42 28.675 44 32.255 44 36.675C44 39.635 42.39 42.205 40 43.595L41 45.325C43.99 43.595 46 40.375 46 36.675C46 31.155 41.52 26.675 36 26.675Z" fill="#8F8F8F"/>
</svg>
