<svg width="72" height="72" viewBox="0 0 72 72" fill="none" xmlns="http://www.w3.org/2000/svg">
<rect x="0.5" y="0.5" width="71" height="71" rx="4.5" stroke="#7B61FF" stroke-dasharray="10 5"/>
<path d="M39.921 28.4993C41.711 28.4993 43.341 29.2293 44.511 30.4093L45.571 29.3493C44.131 27.8993 42.131 26.9993 39.921 26.9993C37.711 26.9993 35.711 27.8993 34.261 29.3393L35.321 30.3993C36.511 29.2293 38.131 28.4993 39.921 28.4993Z" fill="#8F8F8F"/>
<path d="M39.921 29.9993C38.541 29.9993 37.291 30.5593 36.381 31.4593L37.441 32.5193C38.071 31.8893 38.951 31.4893 39.911 31.4893C40.871 31.4893 41.751 31.8793 42.381 32.5193L43.441 31.4593C42.551 30.5593 41.301 29.9993 39.921 29.9993Z" fill="#8F8F8F"/>
<path d="M39.921 32.9993C39.371 32.9993 38.871 33.2193 38.511 33.5893L39.921 34.9993L41.331 33.5893C40.971 33.2193 40.471 32.9993 39.921 32.9993Z" fill="#8F8F8F"/>
<path d="M43.6311 38.8693L39.961 38.1393C39.461 38.0393 39.131 38.3393 39.061 38.4093L36.541 40.9093C34.041 39.4793 31.971 37.4093 30.541 34.9093L33.041 32.3893C33.271 32.1493 33.371 31.8193 33.311 31.4893L32.561 27.7993C32.471 27.3393 32.061 26.9993 31.581 26.9993H27.431C26.871 26.9993 26.401 27.4693 26.431 28.0293C26.601 30.9193 27.481 33.6293 28.861 35.9993C30.441 38.7293 32.711 40.9893 35.431 42.5693C37.801 43.9393 40.511 44.8293 43.401 44.9993C43.951 45.0293 44.431 44.5693 44.431 43.9993V39.8493C44.431 39.3693 44.0911 38.9593 43.6311 38.8693ZM28.531 28.9993H30.761L31.231 31.3493L29.601 32.9993C29.061 31.6993 28.701 30.3693 28.531 28.9993ZM42.431 42.8993C41.061 42.7193 39.731 42.3693 38.431 41.8293L40.081 40.1993L42.431 40.6693V42.8993Z" fill="#8F8F8F"/>
</svg>
