<svg width="73" height="72" viewBox="0 0 73 72" fill="none" xmlns="http://www.w3.org/2000/svg">
<rect x="0.5" y="0.5" width="72" height="71" rx="4.5" stroke="#7B61FF" stroke-dasharray="10 5"/>
<path d="M27.1153 26.105L25.6953 27.515L28.3853 30.205C27.0853 31.895 26.3053 34.005 26.3053 36.295C26.3053 39.055 27.4253 41.555 29.2353 43.365L30.6553 41.945C29.2053 40.505 28.3053 38.505 28.3053 36.295C28.3053 34.545 28.8753 32.945 29.8153 31.635L31.2453 33.065C30.6553 33.995 30.3053 35.105 30.3053 36.295C30.3053 37.955 30.9853 39.445 32.0653 40.535L33.4853 39.115C32.7553 38.395 32.3053 37.405 32.3053 36.295C32.3053 35.665 32.4553 35.065 32.7153 34.535L34.3253 36.145C34.3253 36.195 34.3053 36.245 34.3053 36.295C34.3053 36.845 34.5353 37.345 34.8953 37.705C35.2553 38.065 35.7553 38.295 36.3053 38.295C36.3553 38.295 36.4053 38.285 36.4653 38.275L44.0853 45.895L45.4953 44.485L27.1153 26.105ZM42.0053 38.165C42.1953 37.575 42.3053 36.945 42.3053 36.295C42.3053 32.985 39.6153 30.295 36.3053 30.295C35.6553 30.295 35.0253 30.395 34.4353 30.595L36.1453 32.305C36.1953 32.295 36.2553 32.295 36.3053 32.295C38.5153 32.295 40.3053 34.085 40.3053 36.295C40.3053 36.345 40.3053 36.405 40.2953 36.455L42.0053 38.165ZM36.3053 28.295C40.7253 28.295 44.3053 31.875 44.3053 36.295C44.3053 37.515 44.0353 38.665 43.5353 39.695L45.0253 41.185C45.8353 39.745 46.3053 38.075 46.3053 36.295C46.3053 30.775 41.8253 26.295 36.3053 26.295C34.5253 26.295 32.8653 26.755 31.4153 27.575L32.8953 29.055C33.9353 28.565 35.0853 28.295 36.3053 28.295Z" fill="#8F8F8F"/>
</svg>
