<svg width="70" height="72" viewBox="0 0 70 72" fill="none" xmlns="http://www.w3.org/2000/svg">
<rect x="0.5" y="0.5" width="69" height="71" rx="4.5" stroke="#7B61FF" stroke-dasharray="10 5"/>
<path d="M40.7051 29.29L42.9951 27H34.9951V35L37.2951 32.7C39.2651 34.16 40.5451 36.48 40.5451 39.12C40.5451 40.43 40.2251 41.66 39.6651 42.75C41.9951 41.23 43.5451 38.61 43.5451 35.62C43.5451 33.1 42.4351 30.85 40.7051 29.29Z" fill="#8F8F8F"/>
<path d="M31.4551 32.88C31.4551 31.57 31.7751 30.34 32.3351 29.25C29.9951 30.77 28.4551 33.39 28.4551 36.38C28.4551 38.9 29.5551 41.15 31.2951 42.71L28.9951 45H36.9951V37L34.6951 39.3C32.7351 37.84 31.4551 35.52 31.4551 32.88Z" fill="#8F8F8F"/>
</svg>
