<svg width="73" height="72" viewBox="0 0 73 72" fill="none" xmlns="http://www.w3.org/2000/svg">
<rect x="0.5" y="0.5" width="72" height="71" rx="4.5" stroke="#7B61FF" stroke-dasharray="10 5"/>
<path d="M40 27C37.49 27 36.23 32.61 35.6 37.57C34.79 34.66 33.61 32 32 32C28.43 32 27 45 27 45H29.01C29.62 39.73 31.01 35.18 32 34.13C32.98 35.18 34.38 39.74 34.99 45H37C37.5 42.47 39 39 40 39C41 39 42.5 42.53 43 45H45C45 45 44.5 27 40 27ZM40 37C39.01 37 38.18 37.62 37.5 38.5C38.07 33.73 39.04 29.88 40 29.06C40.97 29.87 41.91 33.73 42.49 38.49C41.81 37.62 40.98 37 40 37Z" fill="#8F8F8F"/>
</svg>
