<svg width="71" height="72" viewBox="0 0 71 72" fill="none" xmlns="http://www.w3.org/2000/svg">
<rect x="0.5" y="0.5" width="70" height="71" rx="4.5" stroke="#7B61FF" stroke-dasharray="10 5"/>
<path d="M36 31.465C32.69 31.465 30 34.155 30 37.465C30 39.125 30.68 40.615 31.76 41.705L33.18 40.285C32.45 39.565 32 38.575 32 37.465C32 35.255 33.79 33.465 36 33.465C38.21 33.465 40 35.255 40 37.465C40 38.575 39.55 39.565 38.82 40.285L40.24 41.705C41.32 40.615 42 39.125 42 37.465C42 34.155 39.31 31.465 36 31.465ZM36 27.465C30.48 27.465 26 31.945 26 37.465C26 40.225 27.12 42.725 28.93 44.535L30.35 43.115C28.9 41.675 28 39.675 28 37.465C28 33.045 31.58 29.465 36 29.465C38.53 29.465 40.78 30.635 42.24 32.465H44.66C42.93 29.475 39.7 27.465 36 27.465ZM36 35.465C34.9 35.465 34 36.365 34 37.465C34 38.015 34.23 38.515 34.59 38.875C34.95 39.235 35.45 39.465 36 39.465C36.55 39.465 37.05 39.235 37.41 38.875C37.77 38.515 38 38.015 38 37.465C38 36.365 37.1 35.465 36 35.465ZM44 34.465H46V40.465H44V34.465ZM44 42.465H46V44.465H44V42.465Z" fill="#8F8F8F"/>
</svg>
