<svg width="72" height="72" viewBox="0 0 72 72" fill="none" xmlns="http://www.w3.org/2000/svg">
<rect x="0.5" y="0.5" width="71" height="71" rx="4.5" stroke="#7B61FF" stroke-dasharray="10 5"/>
<path d="M48 30.98L45.88 33.11C43.35 30.57 39.85 29 36 29C32.15 29 28.65 30.57 26.12 33.11L24 30.98C27.07 27.9 31.31 26 36 26C40.69 26 44.93 27.9 48 30.98ZM28.24 35.22L30.36 37.34C31.8 35.9 33.8 35 36 35C38.2 35 40.2 35.9 41.64 37.35L43.76 35.23C41.78 33.23 39.03 32 36 32C32.97 32 30.22 33.23 28.24 35.22ZM48 42V45C48 45.55 47.55 46 47 46H43C42.45 46 42 45.55 42 45V42C42 41.45 42.45 41 43 41V40C43 38.9 43.9 38 45 38C46.1 38 47 38.9 47 40V41C47.55 41 48 41.45 48 42ZM46 40C46 39.45 45.55 39 45 39C44.45 39 44 39.45 44 40V41H46V40ZM36 38C34.62 38 33.37 38.56 32.47 39.46L36 43L39.53 39.46C38.63 38.56 37.38 38 36 38Z" fill="#8F8F8F"/>
</svg>
