<svg width="72" height="72" viewBox="0 0 72 72" fill="none" xmlns="http://www.w3.org/2000/svg">
<rect x="0.5" y="0.5" width="71" height="71" rx="4.5" stroke="#7B61FF" stroke-dasharray="10 5"/>
<path d="M45.98 34.5L48 32.48C44.93 29.4 40.69 27.5 36 27.5C31.31 27.5 27.07 29.4 24 32.48L36 44.5L39.05 41.45V38.5C39.05 38.05 39.14 37.62 39.28 37.21C39.82 35.64 41.29 34.5 43.05 34.5H45.98Z" fill="#8F8F8F"/>
<path d="M46 39.5V38.5C46 37.4 45.1 36.5 44 36.5C42.9 36.5 42 37.4 42 38.5V39.5C41.45 39.5 41 39.95 41 40.5V43.5C41 44.05 41.45 44.5 42 44.5H46C46.55 44.5 47 44.05 47 43.5V40.5C47 39.95 46.55 39.5 46 39.5ZM45 39.5H43V38.5C43 37.95 43.45 37.5 44 37.5C44.55 37.5 45 37.95 45 38.5V39.5Z" fill="#8F8F8F"/>
</svg>
