<svg width="73" height="72" viewBox="0 0 73 72" fill="none" xmlns="http://www.w3.org/2000/svg">
<rect x="0.5" y="0.5" width="72" height="71" rx="4.5" stroke="#7B61FF" stroke-dasharray="10 5"/>
<path d="M36 29.5C40.14 29.5 43.88 31.18 46.59 33.89L48 32.48C44.93 29.4 40.69 27.5 36 27.5C31.31 27.5 27.07 29.4 24 32.48L36 44.5L37.41 43.08L26.93 32.58C29.45 30.66 32.59 29.5 36 29.5Z" fill="#8F8F8F"/>
<path d="M45 37.5C45 35.26 43.24 33.5 41 33.5C38.76 33.5 37 35.26 37 37.5C37 39.74 38.76 41.5 41 41.5C41.75 41.5 42.44 41.29 43.03 40.94L45.59 43.5L47 42.09L44.44 39.53C44.79 38.94 45 38.25 45 37.5ZM41 39.5C39.88 39.5 39 38.62 39 37.5C39 36.38 39.88 35.5 41 35.5C42.12 35.5 43 36.38 43 37.5C43 38.62 42.12 39.5 41 39.5Z" fill="#8F8F8F"/>
</svg>
