<svg width="72" height="72" viewBox="0 0 72 72" fill="none" xmlns="http://www.w3.org/2000/svg">
<rect x="0.5" y="0.5" width="71" height="71" rx="4.5" stroke="#7B61FF" stroke-dasharray="10 5"/>
<path d="M34.25 26.75H28.25V28.75H34.25V26.75Z" fill="#8F8F8F"/>
<path d="M30.25 30.75H25.25V32.75H30.25V30.75Z" fill="#8F8F8F"/>
<path d="M32.25 42.75H27.25V44.75H32.25V42.75Z" fill="#8F8F8F"/>
<path d="M46.46 42.36L44.18 38.26C43.91 37.78 43.45 37.43 42.92 37.29L40.23 36.62C40.21 36.15 40.09 35.7 39.86 35.29L43.82 28.7C44.47 27.62 44.12 26.22 43.04 25.57C42.68 25.35 42.27 25.25 41.87 25.25C41.31 25.25 40.75 25.46 40.31 25.87L36.88 29.08C36.48 29.45 36.25 29.98 36.25 30.53V33.93C35.78 34.1 35.36 34.38 35.02 34.75H27.53C26.27 34.75 25.25 35.77 25.25 37.03C25.25 38.05 25.92 38.94 26.9 39.22L31.41 40.51C31.59 40.56 31.78 40.59 31.96 40.59C32.32 40.59 32.68 40.49 32.99 40.3L35.23 38.96C35.52 39.22 35.86 39.43 36.25 39.57V44.75C35.15 44.75 34.25 45.65 34.25 46.75H40.25C40.25 45.65 39.35 44.75 38.25 44.75V40.47L42.86 45.08C43.31 45.53 43.89 45.75 44.47 45.75C45.05 45.75 45.64 45.53 46.08 45.08C46.8 44.36 46.96 43.25 46.46 42.36ZM31.97 38.59L27.45 37.3C27.33 37.27 27.25 37.15 27.25 37.03C27.25 36.88 27.38 36.75 27.53 36.75H34.26C34.26 36.9 34.27 37.05 34.29 37.19L31.97 38.59ZM37.25 37.75C36.7 37.75 36.25 37.3 36.25 36.75C36.25 36.2 36.7 35.75 37.25 35.75C37.8 35.75 38.25 36.2 38.25 36.75C38.25 37.3 37.8 37.75 37.25 37.75ZM38.25 33.89V30.53L41.68 27.32C41.73 27.27 41.87 27.2 42.02 27.28C42.15 27.36 42.2 27.53 42.12 27.66L38.38 33.9L38.25 33.89ZM44.67 43.67C44.62 43.72 44.43 43.83 44.27 43.67L39.42 38.82C39.5 38.73 39.58 38.64 39.66 38.54L42.44 39.23L44.72 43.33C44.78 43.44 44.76 43.58 44.67 43.67Z" fill="#8F8F8F"/>
</svg>
