<svg width="71" height="72" viewBox="0 0 71 72" fill="none" xmlns="http://www.w3.org/2000/svg">
<rect x="0.5" y="0.5" width="70" height="71" rx="4.5" stroke="#7B61FF" stroke-dasharray="10 5"/>
<path d="M30 39C31.1 39 32 39.9 32 41C32 42.1 31.1 43 30 43C28.9 43 28 42.1 28 41C28 39.9 28.9 39 30 39ZM30 37C27.8 37 26 38.8 26 41C26 43.2 27.8 45 30 45C32.2 45 34 43.2 34 41C34 38.8 32.2 37 30 37ZM36 29C37.1 29 38 29.9 38 31C38 32.1 37.1 33 36 33C34.9 33 34 32.1 34 31C34 29.9 34.9 29 36 29ZM36 27C33.8 27 32 28.8 32 31C32 33.2 33.8 35 36 35C38.2 35 40 33.2 40 31C40 28.8 38.2 27 36 27ZM42 39C43.1 39 44 39.9 44 41C44 42.1 43.1 43 42 43C40.9 43 40 42.1 40 41C40 39.9 40.9 39 42 39ZM42 37C39.8 37 38 38.8 38 41C38 43.2 39.8 45 42 45C44.2 45 46 43.2 46 41C46 38.8 44.2 37 42 37Z" fill="#8F8F8F"/>
</svg>
