<svg width="72" height="72" viewBox="0 0 72 72" fill="none" xmlns="http://www.w3.org/2000/svg">
<rect x="0.5" y="0.5" width="71" height="71" rx="4.5" stroke="#7B61FF" stroke-dasharray="10 5"/>
<path d="M33.4299 27.5799H37.4299V29.5799H33.8299L35.8299 31.5799H43.4299V39.1799L45.4299 41.1799V31.5799C45.4299 30.4699 44.5399 29.5799 43.4299 29.5799H39.4299V27.5799C39.4299 26.4699 38.5399 25.5799 37.4299 25.5799H33.4299C32.4399 25.5799 31.6299 26.2799 31.4699 27.2199L33.4299 29.1799V27.5799ZM26.8299 25.4199L25.4199 26.8299L28.1699 29.5799H27.4299C26.3199 29.5799 25.4399 30.4699 25.4399 31.5799L25.4299 42.5799C25.4299 43.6899 26.3199 44.5799 27.4299 44.5799H43.1699L45.1699 46.5799L46.5799 45.1699L26.8299 25.4199ZM27.4299 42.5799V31.5799H30.1699L41.1699 42.5799H27.4299Z" fill="#8F8F8F"/>
</svg>
