<svg width="70" height="72" viewBox="0 0 70 72" fill="none" xmlns="http://www.w3.org/2000/svg">
<rect x="0.5" y="0.5" width="69" height="71" rx="4.5" stroke="#7B61FF" stroke-dasharray="10 5"/>
<path d="M27.5 42.5V31.5H43.5V34.79C44.22 35.01 44.9 35.33 45.5 35.76V31.5C45.5 30.39 44.61 29.5 43.5 29.5H39.5V27.5C39.5 26.39 38.61 25.5 37.5 25.5H33.5C32.39 25.5 31.5 26.39 31.5 27.5V29.5H27.5C26.39 29.5 25.51 30.39 25.51 31.5L25.5 42.5C25.5 43.61 26.39 44.5 27.5 44.5H35.18C34.88 43.88 34.68 43.21 34.58 42.5H27.5ZM33.5 27.5H37.5V29.5H33.5V27.5Z" fill="#8F8F8F"/>
<path d="M41.5 36.5C38.74 36.5 36.5 38.74 36.5 41.5C36.5 44.26 38.74 46.5 41.5 46.5C44.26 46.5 46.5 44.26 46.5 41.5C46.5 38.74 44.26 36.5 41.5 36.5ZM43.15 43.85L41 41.7V38.5H42V41.29L43.85 43.14L43.15 43.85Z" fill="#8F8F8F"/>
</svg>
