<svg width="72" height="72" viewBox="0 0 72 72" fill="none" xmlns="http://www.w3.org/2000/svg">
<rect x="0.5" y="0.5" width="71" height="71" rx="4.5" stroke="#7B61FF" stroke-dasharray="10 5"/>
<path d="M41.01 38.26H40.21L39.94 37.99C40.92 36.85 41.51 35.38 41.51 33.76C41.51 30.17 38.6 27.26 35.01 27.26C31.42 27.26 28.51 30.26 28.51 33.76H26L29.84 37.76L34 33.76H30.51C30.51 31.26 32.53 29.26 35.01 29.26C37.49 29.26 39.51 31.27 39.51 33.76C39.51 36.24 37.49 38.26 35.01 38.26C34.36 38.26 33.75 38.12 33.19 37.88L31.71 39.36C32.68 39.93 33.8 40.26 35.01 40.26C36.62 40.26 38.09 39.67 39.23 38.69L39.5 38.96V39.75L44.51 44.74L46 43.26L41.01 38.26Z" fill="#8F8F8F"/>
</svg>
