<svg width="72" height="72" viewBox="0 0 72 72" fill="none" xmlns="http://www.w3.org/2000/svg">
<rect x="0.5" y="0.5" width="71" height="71" rx="4.5" stroke="#7B61FF" stroke-dasharray="10 5"/>
<path d="M39.7559 38.2549H38.9659L38.6859 37.9849C39.6659 36.8449 40.2559 35.3649 40.2559 33.7549C40.2559 30.1649 37.3459 27.2549 33.7559 27.2549C30.1659 27.2549 27.2559 30.1649 27.2559 33.7549C27.2559 37.3449 30.1659 40.2549 33.7559 40.2549C35.3659 40.2549 36.8459 39.6649 37.9859 38.6849L38.2559 38.9649V39.7549L43.2559 44.7449L44.7459 43.2549L39.7559 38.2549ZM33.7559 38.2549C31.2659 38.2549 29.2559 36.2449 29.2559 33.7549C29.2559 31.2649 31.2659 29.2549 33.7559 29.2549C36.2459 29.2549 38.2559 31.2649 38.2559 33.7549C38.2559 36.2449 36.2459 38.2549 33.7559 38.2549ZM34.2559 31.2549H33.2559V33.2549H31.2559V34.2549H33.2559V36.2549H34.2559V34.2549H36.2559V33.2549H34.2559V31.2549Z" fill="#8F8F8F"/>
</svg>
