<svg width="14" height="21" viewBox="0 0 14 21" fill="none" xmlns="http://www.w3.org/2000/svg">
<path d="M10.9999 21.0004C10.7367 21.0019 10.4757 20.9514 10.2321 20.8519C9.98839 20.7524 9.76676 20.6057 9.57988 20.4204L1.57988 12.4204C1.39242 12.2344 1.24363 12.0132 1.1421 11.7695C1.04056 11.5258 0.988281 11.2644 0.988281 11.0004C0.988281 10.7363 1.04056 10.4749 1.1421 10.2312C1.24363 9.9875 1.39242 9.7663 1.57988 9.58037L9.57988 1.58037C9.76635 1.39389 9.98773 1.24597 10.2314 1.14505C10.475 1.04413 10.7362 0.992188 10.9999 0.992188C11.2636 0.992188 11.5247 1.04413 11.7684 1.14505C12.012 1.24597 12.2334 1.39389 12.4199 1.58037C12.6064 1.76685 12.7543 1.98823 12.8552 2.23187C12.9561 2.47552 13.0081 2.73665 13.0081 3.00037C13.0081 3.26409 12.9561 3.52523 12.8552 3.76887C12.7543 4.01251 12.6064 4.23389 12.4199 4.42037L5.81988 11.0004L12.4199 17.5804C12.6073 17.7663 12.7561 17.9875 12.8577 18.2312C12.9592 18.4749 13.0115 18.7363 13.0115 19.0004C13.0115 19.2644 12.9592 19.5258 12.8577 19.7695C12.7561 20.0132 12.6073 20.2344 12.4199 20.4204C12.233 20.6057 12.0114 20.7524 11.7677 20.8519C11.524 20.9514 11.2631 21.0019 10.9999 21.0004Z" fill="#AC660C"/>
</svg>
