<svg xmlns="http://www.w3.org/2000/svg" width="24" height="24" fill="#2e31be" xmlns:v="https://vecta.io/nano"><path opacity=".7" d="M4.732 20.716a2.56 2.56 0 0 0 2.559-2.559 2.56 2.56 0 0 0-2.559-2.559 2.56 2.56 0 0 0-2.559 2.559 2.56 2.56 0 0 0 2.559 2.559z"/><path opacity=".4" d="M21.199 18.447a2.22 2.22 0 1 0 0-4.443 2.22 2.22 0 1 0 0 4.443z"/><path opacity=".1" d="M19.171 7.244c1.013 0 1.835-.822 1.835-1.835s-.822-1.835-1.835-1.835-1.835.822-1.835 1.835.822 1.835 1.835 1.835z"/><path opacity=".8" d="M2.716 14.469c1.5 0 2.716-1.186 2.716-2.65s-1.216-2.65-2.716-2.65S0 10.356 0 11.819s1.216 2.65 2.716 2.65z"/><path opacity=".6" d="M10.519 24c1.364 0 2.469-1.077 2.469-2.406s-1.106-2.406-2.469-2.406-2.469 1.077-2.469 2.406S9.155 24 10.519 24z"/><path opacity=".5" d="M16.864 22.946c1.296 0 2.346-1.023 2.346-2.284s-1.05-2.284-2.346-2.284-2.346 1.023-2.346 2.284 1.05 2.284 2.346 2.284z"/><path d="M5.654 8.315c1.568 0 2.839-1.241 2.839-2.772S7.223 2.772 5.654 2.772 2.815 4.013 2.815 5.543s1.271 2.772 2.839 2.772z" fill-opacity=".9"/><path opacity=".2" d="M21.901 12.514c1.159 0 2.099-.922 2.099-2.06s-.94-2.06-2.099-2.06-2.099.922-2.099 2.06.94 2.06 2.099 2.06z"/><path d="M12.7 5.988c1.653 0 2.994-1.34 2.994-2.994S14.354 0 12.7 0 9.706 1.34 9.706 2.994s1.34 2.994 2.994 2.994z"/></svg>