<?xml version="1.0" encoding="UTF-8"?>
<svg width="12px" height="12px" viewBox="0 0 12 12" version="1.1" xmlns="http://www.w3.org/2000/svg" xmlns:xlink="http://www.w3.org/1999/xlink">
    <!-- Generator: sketchtool 58 (101010) - https://sketch.com -->
    <title>032FF7EC-AE8C-4FB0-9B2C-FA4C5CC76E89</title>
    <desc>Created with sketchtool.</desc>
    <g id="Components" stroke="none" stroke-width="1" fill="none" fill-rule="evenodd">
        <g id="Text-fields" transform="translate(-312.000000, -1846.000000)" fill="#41434C" fill-rule="nonzero">
            <g id="Group-9" transform="translate(306.000000, 1840.000000)">
                <g id="noun_Information_55404" transform="translate(6.000000, 6.000000)">
                    <g id="Group" transform="translate(5.000000, 3.000000)">
                        <path d="M1.31973333,1.37536 C1.55773333,1.37536 1.75053333,1.31662222 1.89266667,1.20088889 C2.04053333,1.08067556 2.1156,0.918026667 2.1156,0.717297778 C2.1156,0.516817778 2.04066667,0.354044444 1.8928,0.233831111 C1.7504,0.117848889 1.55746667,0.0592355556 1.31973333,0.0592355556 C1.09506667,0.0592355556 0.906133333,0.117351111 0.758133333,0.231964444 C0.602666667,0.352302222 0.524,0.515448889 0.524,0.717297778 C0.524,0.919271111 0.6028,1.08266667 0.758133333,1.20263111 C0.905866667,1.31724444 1.09493333,1.37536 1.31973333,1.37536 Z" id="Path"></path>
                        <polygon id="Path" points="1.94306667 5.98839111 1.94306667 1.96497778 0.052 1.96497778 0.052 2.63735111 0.723466667 2.63735111 0.723466667 5.98839111 0.052 5.98839111 0.052 6.66076444 2.61466667 6.66076444 2.61466667 5.98839111"></polygon>
                    </g>
                    <path d="M6,0.666666667 C8.9408,0.666666667 11.3333333,3.0592 11.3333333,6 C11.3333333,8.9408 8.9408,11.3333333 6,11.3333333 C3.0592,11.3333333 0.666666667,8.9408 0.666666667,6 C0.666666667,3.0592 3.0592,0.666666667 6,0.666666667 M6,0 C2.68626667,0 0,2.68626667 0,6 C0,9.31373333 2.68626667,12 6,12 C9.31373333,12 12,9.31373333 12,6 C12,2.68626667 9.31373333,0 6,0 L6,0 Z" id="Shape"></path>
                </g>
            </g>
        </g>
    </g>
</svg>